<svg xmlns="http://www.w3.org/2000/svg" xmlns:xlink="http://www.w3.org/1999/xlink" width="226.771" height="228.702"><defs><path id="a" d="M3.5-5.86c-.219 0-.75.079-1.094.079s-.672 0-1.078-.016l-.031.016-.031.187c-.016.047 0 .063.046.063l.329.015c.125.016.312.079.312.282 0 .03 0 .062-.016.093l-.874 4.5c-.047.25-.172.36-.547.375l-.22.032C.25-.234.22-.22.22-.172L.172 0l.031.016C.593.016.953 0 1.297 0c.328 0 .687.016 1.078.016L2.406 0l.031-.172c0-.047-.015-.062-.062-.062l-.219-.032C1.875-.28 1.75-.344 1.75-.53c0-.031 0-.063.016-.11l.39-1.968c.703 0 .86.14.953.343l.61 1.563c.172.422.469.797.984.797.125 0 .281-.016.375-.063l.031-.218c-.39 0-.546-.313-.703-.688L3.703-2.75c.39-.14 1.25-.594 1.438-1.531.03-.125.03-.235.03-.344a1.17 1.17 0 0 0-.28-.781c-.328-.407-.86-.453-1.391-.453m-.047.313c.453 0 .969.156.969.875 0 .11-.016.25-.047.39-.219 1.126-.906 1.376-1.75 1.376h-.422l.438-2.235c.046-.265.203-.406.812-.406m0 0"/><path id="b" d="M1.531-4.11c.313 0 .594.188.594.641 0 .36-.406.906-1.11 1l.032.235c.125-.016.25-.016.344-.016.406 0 .937.125.937.922 0 .953-.64 1.156-.89 1.156-.36 0-.422-.172-.516-.297a.34.34 0 0 0-.313-.187c-.14 0-.296.14-.296.25 0 .281.609.484 1.03.484.86 0 1.61-.562 1.61-1.5 0-.781-.578-1.062-1-1.14h-.016c.594-.282.75-.579.75-.954a.77.77 0 0 0-.218-.578c-.156-.156-.406-.265-.781-.265-1.047 0-1.344.687-1.344.922 0 .093.062.234.234.234.25 0 .281-.235.281-.375 0-.453.5-.531.672-.531m0 0"/><path id="d" d="M3.078-1.562h-.594v-2.094c0-.36 0-.64.016-.688l-.016-.015H2.25c-.047 0-.078.03-.11.078-.453.547-1.28 1.718-1.937 2.75.016.11.063.297.281.297h1.454v.656c0 .328-.266.328-.579.36-.046.046-.046.187 0 .234C1.594 0 1.875 0 2.203 0c.281 0 .547 0 .781.016.047-.047.047-.188 0-.235-.343-.031-.5-.015-.5-.36v-.655h.5c.094 0 .204-.125.204-.22 0-.077-.032-.109-.11-.109m-1.14-2.063v2.063H.577c.36-.594.875-1.391 1.36-2.063m0 0"/><path id="e" d="M2.063-.875v-2.484c0-.422 0-.86.015-.953 0-.032-.015-.032-.031-.032-.406.235-.781.422-1.406.703a.33.33 0 0 0 .109.204c.328-.141.484-.188.61-.188.124 0 .156.172.156.422v2.328c0 .594-.203.625-.703.656-.047.047-.047.188 0 .235C1.172 0 1.422 0 1.813 0c.343 0 .515 0 .875.016.03-.047.03-.188 0-.235-.5-.031-.626-.062-.626-.656m0 0"/><path id="f" d="M.438-3.344c0 .14.14.281.28.281.126 0 .345-.14.345-.296 0-.047-.016-.094-.032-.141-.015-.062-.062-.125-.062-.172 0-.187.187-.437.719-.437.25 0 .609.172.609.859 0 .453-.156.828-.578 1.266l-.532.515C.485-.75.375-.406.375.016c0 0 .36-.016.594-.016h1.25c.234 0 .562.016.562.016a8 8 0 0 0 .172-1.125c-.047-.047-.14-.063-.219-.047-.109.515-.234.687-.5.687H.97c0-.343.484-.828.531-.86l.719-.702c.406-.39.719-.703.719-1.25 0-.766-.641-1.078-1.22-1.078-.78 0-1.28.578-1.28 1.015m0 0"/><path id="h" d="M.656-5.953 0-6.047a.2.2 0 0 1-.016-.062q0-.246.344-.282L1.375-6.5v2.719h.031c.332-.414.774-.625 1.328-.625.477 0 .86.156 1.141.468q.516.564.516 1.672 0 1.19-.703 1.813-.645.562-1.594.562-.91 0-1.438-.312Zm1.735 2.14c-.43 0-.766.149-1.016.438v2.719q.375.251.89.25 1.374.001 1.376-1.75 0-.856-.375-1.297a1.17 1.17 0 0 0-.875-.36m0 0"/><path id="i" d="M2.672-2.781q0-.594-.188-.875-.175-.281-.609-.281-.281 0-.516.093c-.086.156-.156.422-.218.797H.953q-.438 0-.437-.375 0-.406.468-.687a1.9 1.9 0 0 1 1.032-.297c.914 0 1.375.508 1.375 1.515v1.954c0 .343.101.515.312.515a.48.48 0 0 0 .328-.11q.077.112.078.25c0 .063-.054.134-.156.204a.94.94 0 0 1-.547.156q-.61 0-.687-.61h-.016Q2.282.112 1.484.11.97.11.656-.203.343-.514.344-1.031c0-.438.219-.774.656-1.016.383-.207.86-.312 1.422-.312h.25ZM1.766-.453q.514 0 .906-.469v-1.031l-.25.016q-1.299.11-1.297.812c0 .45.21.672.64.672m0 0"/><clipPath id="c"><path d="M141 214h16v14.406h-16Zm0 0"/></clipPath><clipPath id="g"><path d="M206 214h16v14.406h-16Zm0 0"/></clipPath></defs><path fill="none" stroke="#000" stroke-miterlimit="10" stroke-width=".39848130000000004" d="M18.785 5.238h65.067m0 0h65.062v38.367m0 31.707v76.73m0 31.708v38.367H83.852m0 0H18.785"/><path stroke="#000" stroke-miterlimit="10" stroke-width=".39848130000000004" d="M150.5 5.238a1.587 1.587 0 0 0-3.172 0 1.587 1.587 0 0 0 3.172 0Zm0 0"/><path fill="none" stroke="#000" stroke-miterlimit="10" stroke-width=".7959639000000001" d="M142.969 75.312V43.605h11.89v31.707Zm0 0"/><path stroke="#000" stroke-miterlimit="10" stroke-width=".39848130000000004" d="M150.5 113.676a1.587 1.587 0 0 0-3.172 0 1.587 1.587 0 0 0 3.172 0Zm0 0"/><use xlink:href="#a" x="157.064" y="61.609"/><use xlink:href="#b" x="162.338" y="63.489"/><path fill="none" stroke="#000" stroke-miterlimit="10" stroke-width=".7959639000000001" d="M142.969 183.75v-31.707h11.89v31.707Zm0 0"/><path d="M150.5 222.117c0-.879-.71-1.586-1.586-1.586a1.585 1.585 0 1 0 0 3.168c.875 0 1.586-.707 1.586-1.582m0 0"/><g clip-path="url(#c)"><path fill="none" stroke="#000" stroke-miterlimit="10" stroke-width=".39848130000000004" d="M150.5 222.117c0-.879-.71-1.586-1.586-1.586a1.585 1.585 0 1 0 0 3.168c.875 0 1.586-.707 1.586-1.582Zm0 0"/></g><use xlink:href="#a" x="157.064" y="170.046"/><use xlink:href="#d" x="162.338" y="171.926"/><path fill="none" stroke="#000" stroke-miterlimit="10" stroke-width=".39848130000000004" d="M18.785 5.238v38.367m0 31.707v76.73m0 31.708v38.367"/><path fill="none" stroke="#000" stroke-miterlimit="10" stroke-width=".7959639000000001" d="M12.84 75.312V43.605h11.89v31.707Zm0 0"/><path stroke="#000" stroke-miterlimit="10" stroke-width=".39848130000000004" d="M20.371 113.676a1.585 1.585 0 1 0-3.168 0 1.584 1.584 0 1 0 3.168 0Zm0 0"/><use xlink:href="#a" x="1.645" y="61.609"/><use xlink:href="#e" x="6.919" y="63.489"/><path fill="none" stroke="#000" stroke-miterlimit="10" stroke-width=".7959639000000001" d="M12.84 183.75v-31.707h11.89v31.707Zm0 0"/><use xlink:href="#a" x="1.645" y="170.046"/><use xlink:href="#f" x="6.919" y="171.926"/><path fill="none" stroke="#000" stroke-miterlimit="10" stroke-width=".39848130000000004" d="M18.785 113.676h21.688m0 0h43.379m0 0h65.062"/><path fill="#FFF" stroke="#000" stroke-miterlimit="10" stroke-width=".39848130000000004" d="M63.746 113.676a1.584 1.584 0 1 0-3.168 0 1.585 1.585 0 1 0 3.168 0ZM107.121 113.676a1.584 1.584 0 1 0-3.168 0 1.584 1.584 0 1 0 3.168 0Zm0 0"/><path fill="none" stroke="#000" stroke-miterlimit="10" stroke-width=".39848130000000004" d="M148.914 222.117h65.063"/><path fill="#FFF" d="M215.563 222.117c0-.879-.711-1.586-1.586-1.586a1.585 1.585 0 1 0 0 3.168c.875 0 1.585-.707 1.585-1.582m0 0"/><g clip-path="url(#g)"><path fill="none" stroke="#000" stroke-miterlimit="10" stroke-width=".39848130000000004" d="M215.563 222.117c0-.879-.711-1.586-1.586-1.586a1.585 1.585 0 1 0 0 3.168c.875 0 1.586-.707 1.586-1.582Zm0 0"/></g><use xlink:href="#h" x="218.743" y="225.312"/><path fill="none" stroke="#000" stroke-miterlimit="10" stroke-width=".39848130000000004" d="M148.914 5.238h65.063"/><path fill="#FFF" stroke="#000" stroke-miterlimit="10" stroke-width=".39848130000000004" d="M215.563 5.238a1.587 1.587 0 0 0-3.172 0 1.587 1.587 0 0 0 3.172 0Zm0 0"/><use xlink:href="#i" x="218.743" y="7.39"/></svg>