<svg xmlns="http://www.w3.org/2000/svg" xmlns:xlink="http://www.w3.org/1999/xlink" width="231.809" height="97.236"><defs><path id="b" d="M2.469-3.016h1.547v.47H2.469v1.655h-.5v-1.656H.422v-.469h1.547v-1.64h.5Zm0 0"/><path id="c" d="M2.016-.562v-4.422L.688-4.72a1 1 0 0 1-.016-.187q-.001-.2.203-.282l1.469-.593h.453v5.219l1.078.156q.14.033.14.11-.001.08-.109.296H.86v-.078q0-.311.282-.36Zm0 0"/><path id="d" d="M2.36-6.14c2.35 0 3.53.995 3.53 2.984q0 1.58-.921 2.375-.924.783-2.61.781H.422a.16.16 0 0 1-.016-.078Q.404-.324.72-.406l.375-.078v-5.172l-.547-.125c-.086-.02-.125-.055-.125-.11q0-.074.094-.25ZM2.327-.5q1.312 0 2.016-.656.716-.669.718-1.969Q5.06-4.373 4.345-5q-.703-.64-2.016-.64H1.86V-.5Zm0 0"/><path id="e" d="M4.469-.484 3.89-2.11H1.67L1.079-.484l.688.125q.124.017.125.093c0 .043-.04.133-.11.266h-1.86a.2.2 0 0 1-.015-.078Q-.096-.342.22-.406l.25-.063L2.625-6.14l.563-.062L5.313-.47l.39.11q.124.034.125.093 0 .048-.094.266H3.828v-.078q0-.246.297-.328ZM1.844-2.578h1.875l-.922-2.61H2.78Zm0 0"/><path id="J" d="M6.234-6.14v.093q-.002.222-.296.297l-.422.094V0h-.532L1.641-5.172h-.016v4.688l.61.125q.123.017.124.093 0 .048-.093.266H.422a.16.16 0 0 1-.016-.078Q.404-.324.72-.406l.375-.078v-5.172l-.547-.125c-.086-.02-.125-.055-.125-.11q0-.074.094-.25h1.406l3.047 4.704h.015v-4.22l-.546-.124c-.086-.02-.125-.055-.125-.11q0-.074.093-.25Zm0 0"/><path id="f" d="M1.578 1.563c-.11.14-.281.265-.406.265S1 1.766.953 1.672C.875 1.562.703 1.39.5 1.39a.307.307 0 0 0-.328.312c0 .203.219.406.828.406.36 0 .75-.171 1.031-.546.25-.36.438-1.032.781-2.72.141-.687.297-1.405.422-2.155l.032-.157h.828c.078 0 .203-.031.234-.11l.031-.187c0-.03-.015-.046-.062-.046h-.969l.094-.516c.14-.656.265-1.063.39-1.297.126-.25.235-.328.344-.328.14 0 .157.078.188.25.047.187.11.422.39.422.266 0 .329-.203.329-.282 0-.343-.297-.64-.829-.64-.187 0-.421.094-.609.234-.281.235-.656.578-1 2.157l-.578.03c-.156 0-.235.079-.25.141a.7.7 0 0 0-.031.157c0 .015.015.015.046.015h.735c-.203 1.016-.25 1.547-.36 2.219-.14.844-.28 2.297-.609 2.813m0 0"/><path id="g" d="M.297-1.453C.297-.734.78.078 1.78.078c.453 0 .813-.172 1.047-.406.328-.313.469-.766.469-1.188 0-.75-.406-1.609-1.5-1.609-.469 0-.844.203-1.11.5-.265.313-.39.719-.39 1.172m1.39-1.422c.61 0 1 .563 1 1.578 0 .906-.468 1.125-.796 1.125-.75 0-.985-.906-.985-1.453 0-.61.14-1.25.782-1.25m0 0"/><path id="h" d="M1.547.078c.266 0 .61-.156.953-.437.031-.032.11-.032.11.015.015.172.078.422.078.422.062.016.093 0 .14 0 .156-.14.406-.234.828-.297.047-.031.047-.14 0-.187-.453-.031-.515-.172-.515-.516v-1.375c0-.203.03-.719.03-.719 0-.03-.015-.046-.062-.046-.03 0-.14.015-.25.015-.218 0-.484-.015-.718-.015-.047.046-.047.187 0 .234.343.015.437.11.437.578v1.375c0 .125-.015.188-.11.266-.265.234-.53.343-.718.343-.203 0-.562-.093-.562-.734v-1.297c0-.203.03-.719.03-.719 0-.03-.03-.046-.062-.046-.031 0-.14.015-.25.015-.219 0-.484-.015-.718-.015-.047.046-.047.187 0 .234.343.031.437.11.437.562V-.89c0 .485.219.97.922.97m0 0"/><path id="i" d="M.313-3.047c-.11 0-.141.078-.141.14v.095q0 .046.047.046h.406v2.141c0 .5.234.703.563.703.312 0 .671-.156.953-.469-.016-.078-.063-.125-.125-.125-.188.141-.407.204-.594.204-.188 0-.234-.22-.234-.657v-1.797h.75c.062 0 .171-.03.171-.093V-3c0-.031-.03-.047-.062-.047h-.86v-.281c0-.469.032-.75.032-.75 0-.031-.016-.063-.047-.063s-.094.032-.156.063a1.2 1.2 0 0 1-.25.11c-.079.015-.157.046-.157.093 0 .078.016.031.016.828Zm0 0"/><path id="j" d="M5.656 4.438V3.016H.484l-.125.609q-.017.124-.093.125-.048 0-.266-.094V1.563h.078q.247-.001.328.296l.078.375h5.172V.813L4.734.609a.4.4 0 0 1-.046-.187c0-.18.128-.266.39-.266q.232 0 1.063.063V5.03q-.83.062-1.063.063c-.262 0-.39-.086-.39-.25q0-.11.046-.203Zm0 0"/><path id="k" d="M2.766 2.656q.59 0 .859-.187.281-.175.281-.61 0-.28-.094-.515-.235-.11-.78-.203a2 2 0 0 1-.016-.188q0-.438.39-.437c.27 0 .5.148.688.453q.28.468.281 1.031 0 1.373-1.5 1.375H.922c-.336 0-.5.102-.5.313q-.001.2.11.312a.43.43 0 0 1-.25.078c-.063 0-.134-.055-.204-.156a.9.9 0 0 1-.156-.531q0-.611.61-.688v-.015q-.643-.423-.641-1.22 0-.515.312-.827.312-.299.828-.297.656 0 1 .656.312.563.313 1.406v.25Zm-2.313-.89q0 .498.469.89h1.015l-.015-.25q-.096-1.282-.813-1.281c-.437 0-.656.21-.656.64m0 0"/><path id="l" d="M.469.813h5.437L6 .172a.16.16 0 0 1 .078-.016q.247 0 .266.328l.11 1.047h-3.97v.547l1.36 1.188.14-.625a.2.2 0 0 1 .063-.016q.217-.001.219.25v1.438q0 .107-.094.109a.5.5 0 0 1-.188-.063l-.156-.515-1.453-1.25-1.937 1.5-.094.453q-.035.124-.11.125A.35.35 0 0 1 0 4.578v-1.14l2.031-1.485v-.422H.437l-.093.453q-.035.124-.11.125A.4.4 0 0 1 0 2.031V.22h.063c.132 0 .234.086.296.265Zm0 0"/><path id="m" d="m4.266.86 1.187.171v.516H4.266v1.328l-.453-.078v-1.25h-2.75q-.657-.001-.657.578c0 .29.07.535.219.734a.43.43 0 0 1-.25.063q-.112 0-.266-.235-.217-.328-.218-.828Q-.11.83.92.83h2.891V.155a.1.1 0 0 1 .063-.015q.217 0 .281.28Zm0 0"/><path id="n" d="M2.953.484c.445 0 .8.164 1.063.5q.358.452.359 1.125c0 .239-.04.461-.11.672v1.516l-.484-.094V3.47a1.3 1.3 0 0 1-.828.281q-.676-.001-1.062-.5-.392-.47-.391-1.187 0-.206.047-.422-.159-.282-.422-.282-.313 0-.312.47v1.015q-.001.576-.266.906a.83.83 0 0 1-.703.344Q-.86 4.092-1.344 3.5c-.363-.437-.547-1.008-.547-1.703C-1.89.742-1.539.219-.844.219c.524 0 .875.265 1.063.797h.015C.36.786.554.672.828.672q.497 0 .813.61h.015Q2.03.483 2.953.483m-1 1.625q-.001.938 1 .938.45-.001.703-.266a.87.87 0 0 0 .266-.656q0-.924-.969-.922-1.001-.002-1 .906M.11 1.72q-.002-.19.032-.344C-.012 1.07-.266.922-.61.922q-.781 0-.782.984 0 .684.282 1.094.25.375.672.375c.367 0 .546-.242.546-.719Zm0 0"/><path id="o" d="M2.156 1.156q-.83.012-1.281.375c-.305.239-.453.57-.453 1q0 .591.422 1.094c-.043.063-.125.102-.25.125q-.222-.001-.438-.406-.264-.47-.265-1.11-.002-.815.5-1.296C.766.57 1.316.39 2.047.39Q3.153.39 3.797.969q.576.528.578 1.297 0 .684-.422 1.093-.393.36-1.078.36a3.6 3.6 0 0 1-.719-.094Zm1.75 1.016c0-.594-.437-.93-1.312-1v1.75q.17.03.36.031.95-.001.952-.781m0 0"/><path id="p" d="M.469.906H3.78l.094-.64A.1.1 0 0 1 3.938.25q.246 0 .28.328l.11 1.047-.61-.047v.016q.294.31.423.515.234.422.234.954 0 .654-.422 1.015-.422.375-1.172.375H.47l-.125.531q-.035.124-.11.125A.35.35 0 0 1 0 5.016V3.125h.063c.132 0 .234.086.296.266l.11.328h2.265c.364 0 .641-.102.829-.297q.217-.252.218-.656-.002-.644-.437-1.141H.469l-.125.531q-.035.124-.11.125A.4.4 0 0 1 0 2.203V.313A.1.1 0 0 1 .063.297c.132 0 .234.094.296.281Zm0 0"/><path id="q" d="M.469.906H3.78l.094-.64A.1.1 0 0 1 3.938.25q.246 0 .28.328l.11 1.047-.75-.047v.016c.531.351.797.734.797 1.14q-.002.593-.437.594a.62.62 0 0 1-.376-.14q.141-.33.141-.594 0-.61-.515-.969H.467l-.124.625q-.035.124-.11.125A.35.35 0 0 1 0 2.281V.312A.1.1 0 0 1 .063.298c.132 0 .234.094.296.281Zm0 0"/><path id="r" d="M-.11 2.344c0-.555.18-1.008.548-1.36q.59-.609 1.656-.609 1.043 0 1.687.672.593.592.594 1.453c0 .563-.18 1.016-.531 1.36-.387.382-.946.578-1.672.578q-1.065 0-1.703-.657A1.98 1.98 0 0 1-.11 2.344m.485.062q0 .545.438.89.467.36 1.328.36.843 0 1.312-.36.437-.344.438-.89c0-.375-.149-.672-.438-.89q-.457-.344-1.312-.344-.878-.001-1.328.344a1.05 1.05 0 0 0-.438.89m0 0"/><path id="s" d="M.484 4.469 2.11 3.89V1.67L.484 1.079l-.125.688q-.017.124-.093.125c-.043 0-.133-.04-.266-.11v-1.86a.2.2 0 0 1 .078-.015Q.342-.096.406.22l.063.25L6.14 2.625l.062.563L.47 5.313l-.11.39q-.034.124-.093.125-.048 0-.266-.094V3.828h.078q.247 0 .328.297Zm2.094-2.625v1.875l2.61-.922V2.78Zm0 0"/><path id="t" d="M.5 3.39v-.015q-.61-.456-.61-1.281 0-.72.47-1.172C.71.566 1.265.39 2.015.39c.77 0 1.367.226 1.797.687q.561.609.562 1.5c0 .27-.04.524-.11.766h1.641L6 2.688h.078q.247 0 .266.328l.11 1.047H.483l-.078.656H.328q-.252 0-.281-.328l-.094-1ZM.469 2.313q0 .639.39 1.032h2.704q.311-.33.312-.86-.002-.596-.437-.953-.47-.39-1.297-.39-.846 0-1.282.328-.39.31-.39.843m0 0"/><path id="u" d="M.563 1a1.08 1.08 0 0 0-.188.64c0 .508.191.766.578.766q.248-.002.485-.25.122-.143.39-.578.328-.516.563-.75c.257-.23.547-.344.859-.344.344 0 .613.133.813.407q.311.406.312 1.015c0 .383-.102.703-.297.953q-.346.031-.547.032c-.304 0-.453-.118-.453-.344q-.001-.048.016-.078l.64-.11q.188-.282.188-.593c0-.438-.18-.657-.531-.657q-.346 0-.688.516c-.2.313-.402.617-.61.922q-.41.515-.937.515-.55 0-.906-.421-.361-.41-.36-1.078c0-.438.087-.797.25-1.079Q.547.404.876.406q.422 0 .422.328v.079Zm0 0"/><path id="v" d="M3.39.469q.312 0 .876.062v2.875a.34.34 0 0 1-.172.047.66.66 0 0 1-.313-.094L.47 1.125H.438v1.75l.89.313c.008.05.016.097.016.14q0 .248-.282.25Q.983 3.577 0 3.453V.406A.6.6 0 0 1 .328.312q.106 0 .266.094l3.219 2.14h.015V1.095L3.094.828a.4.4 0 0 1-.016-.11q-.002-.25.313-.25m0 0"/><path id="w" d="M2.766 2.656q.59 0 .859-.187.281-.175.281-.61 0-.28-.094-.515-.235-.11-.78-.203a2 2 0 0 1-.016-.188q0-.438.39-.437c.27 0 .5.148.688.453q.28.468.281 1.031 0 1.373-1.5 1.375H.922c-.336 0-.5.102-.5.313q-.001.2.11.312a.43.43 0 0 1-.25.078c-.063 0-.134-.055-.204-.156a.9.9 0 0 1-.156-.531q0-.611.61-.688v-.015q-.643-.423-.641-1.22 0-.515.312-.827.312-.299.828-.297.656 0 1 .656.312.563.313 1.406v.25Zm-2.313-.89q0 .498.469.89h1.015l-.015-.25q-.096-1.282-.813-1.281c-.437 0-.656.21-.656.64m4.594-.563c0-.125.039-.23.125-.312A.47.47 0 0 1 5.5.78q.2-.001.328.11a.43.43 0 0 1 .125.312.43.43 0 0 1-.125.313.46.46 0 0 1-.328.125.45.45 0 0 1-.328-.125.42.42 0 0 1-.125-.313m0 1.516a.43.43 0 0 1 .453-.437c.133 0 .242.038.328.124a.43.43 0 0 1 .125.313.43.43 0 0 1-.125.312.46.46 0 0 1-.328.125.45.45 0 0 1-.328-.125.42.42 0 0 1-.125-.312m0 0"/><path id="x" d="M.469.813h5.437L6 .172a.16.16 0 0 1 .078-.016q.247 0 .266.328l.11 1.047h-2.72v.032q.64.515.641 1.359 0 1.436-1.594 1.437H.47l-.125.532q-.035.124-.11.125A.35.35 0 0 1 0 4.922V3.047a.1.1 0 0 1 .063-.016c.132 0 .234.094.296.281l.11.329h2.265q1.045-.001 1.047-.97 0-.69-.469-1.14H.47l-.125.547q-.035.124-.11.125A.35.35 0 0 1 0 2.11V.22h.063c.132 0 .234.086.296.265Zm0 0"/><path id="y" d="M.469.86h5.437L6 .218a.16.16 0 0 1 .078-.016q.247 0 .266.328l.11 1.047H.468l-.125.531q-.035.124-.11.125A.4.4 0 0 1 0 2.156V.266h.063c.132 0 .234.086.296.265Zm0 0"/><path id="z" d="M5.516 3.188c.164-.305.25-.602.25-.891q-.001-.518-.266-.813-.269-.297-.719-.296a.9.9 0 0 0-.656.25 2.3 2.3 0 0 0-.344.5l-.453.843q-.362.638-.672.906-.392.36-.984.36-.797 0-1.266-.516-.515-.533-.515-1.453c0-.492.117-.984.359-1.484q.482-.047 1-.047.389-.002.39.265a.5.5 0 0 1-.046.204l-.938.218q-.298.386-.297.938 0 .575.329.89c.195.188.453.282.765.282.27 0 .504-.102.703-.297q.187-.205.578-.906l.313-.563q.279-.516.594-.75.404-.313.984-.312.75-.002 1.188.547.42.513.421 1.343 0 .764-.328 1.375-.644.03-.843.031-.392-.001-.391-.265 0-.094.047-.188Zm0 0"/><path id="A" d="M.469.906H3.78l.094-.64A.1.1 0 0 1 3.938.25q.246 0 .28.328l.11 1.047H.468l-.124.531q-.035.124-.11.125A.4.4 0 0 1 0 2.203V.313A.1.1 0 0 1 .063.297c.132 0 .234.094.296.281ZM5.813.75q.217 0 .359.14a.513.513 0 0 1 0 .735.47.47 0 0 1-.36.156.49.49 0 0 1-.375-.156.5.5 0 0 1-.14-.36q0-.222.14-.374A.5.5 0 0 1 5.813.75m0 0"/><path id="B" d="m3.781.781.094-.64a.1.1 0 0 1 .063-.016q.246 0 .28.328l.11 1.047H1.531q-1.048 0-1.047.89 0 .688.438 1.11h2.86l.093-.656h.063q.246 0 .28.328l.11 1.047H.484l-.078.64q-.047.014-.078.016-.252 0-.281-.328l-.094-1h.578V3.53a1.64 1.64 0 0 1-.64-1.344Q-.11.782 1.484.782Zm0 0"/><path id="C" d="M2.453 2.938V.547h.531v2.39Zm0 0"/><path id="D" d="M5.906.656 6 0a.2.2 0 0 1 .078-.016q.247 0 .266.329l.11 1.062H3.765v.016q.609.497.609 1.328 0 .704-.469 1.125-.55.515-1.656.515-1.173 0-1.812-.703C.07 3.238-.11 2.711-.11 2.078q0-.893.312-1.422ZM3.781 2.375q0-.644-.422-1H.656q-.251.374-.25.875 0 1.36 1.735 1.36c.57 0 1-.126 1.28-.376.24-.218.36-.507.36-.859m0 0"/><path id="E" d="M2.625 2.719v-.86H.485l-.126.625q-.017.124-.093.125C.234 2.61.145 2.57 0 2.5V.422A.16.16 0 0 1 .078.406Q.325.404.406.72l.078.375h5.172l.125-.547c.02-.086.055-.125.11-.125q.074 0 .25.094v1.78Q6.14 4.813 4.42 4.814 3.169 4.81 2.782 3.53L.47 5.047l-.11.422q-.034.124-.093.125-.048 0-.266-.094V4.313Zm.453-.422q-.002 1.687 1.297 1.687 1.249 0 1.25-1.687v-.438H3.078Zm0 0"/><path id="F" d="M6.14 2.36c0 2.35-.995 3.53-2.984 3.53q-1.58 0-2.375-.921-.783-.924-.781-2.61V.422A.16.16 0 0 1 .078.406Q.325.404.406.72l.078.375h5.172l.125-.547c.02-.086.055-.125.11-.125q.074 0 .25.094ZM.5 2.327q0 1.312.656 2.016.669.716 1.969.718Q4.373 5.06 5 4.345q.64-.703.64-2.016V1.86H.5Zm0 0"/><path id="G" d="M6.672 2.906v.61L-1.25.828v-.61Zm0 0"/><path id="H" d="M6.14 2.438h-.093c-.149 0-.246-.102-.297-.297l-.094-.422H2.641q-1.19 0-1.72.422c-.335.257-.5.656-.5 1.187q0 .812.517 1.188.563.421 1.875.422h2.843l.125-.547c.02-.086.055-.125.11-.125q.074 0 .25.093v1.813a.4.4 0 0 1-.094.016c-.149 0-.246-.102-.297-.297l-.094-.422H2.75Q-.11 5.467-.11 3.25-.11 2.17.423 1.625q.62-.673 2.062-.672h3.172l.125-.547q.029-.127.11-.125.074 0 .25.094Zm0 0"/><path id="I" d="m.469 7.047-.125.531q-.035.124-.11.125A.4.4 0 0 1 0 7.625v-1.89a.1.1 0 0 1 .063-.016c.132 0 .234.093.296.281l.11.328h2.265q1.045 0 1.047-.844c0-.46-.164-.859-.484-1.203q-.316.062-.516.063H.47l-.125.531Q.309 4.999.234 5A.35.35 0 0 1 0 4.906v-1.89h.063c.132 0 .234.093.296.28l.11.329h2.265c.696 0 1.047-.29 1.047-.86 0-.437-.148-.82-.437-1.14H.469l-.125.531q-.035.124-.11.125A.4.4 0 0 1 0 2.203V.313A.1.1 0 0 1 .063.297c.132 0 .234.094.296.281l.11.328H3.78l.094-.64A.1.1 0 0 1 3.938.25q.246 0 .28.328l.11 1.047-.61-.047v.016q.657.623.657 1.422c0 .539-.242.922-.719 1.14q.717.64.719 1.532 0 .636-.422 1-.41.358-1.172.359Zm0 0"/><path id="K" d="M6.14 2.547q0 2.264-1.546 2.266-1.206-.001-1.438-1.297h-.015q-.205 1.453-1.422 1.453-.767-.002-1.235-.594Q0 3.747 0 2.609V.422A.16.16 0 0 1 .078.406Q.325.404.406.72l.078.375h5.172l.125-.547c.02-.086.055-.125.11-.125q.074 0 .25.094ZM.5 2.516q-.001.81.344 1.234c.219.258.508.39.875.39a1 1 0 0 0 .828-.406q.311-.41.312-1.171v-.704H.5Zm2.828-.063q-.001.78.344 1.203c.195.239.469.36.812.36q1.156 0 1.157-1.547v-.61H3.328Zm0 0"/><clipPath id="a"><path d="M.809 15H23v23H.809Zm0 0"/></clipPath></defs><g clip-path="url(#a)"><path fill="none" stroke="#000" stroke-miterlimit="10" stroke-width=".7907834" d="M1.203 16.297h20.762v20.762H1.203Zm0 0"/></g><path fill="none" stroke="#000" stroke-miterlimit="10" stroke-width=".3958878" d="M4.316 30.313h2.91v-7.266h2.907v7.266h2.906v-7.266h2.906v7.266h2.907M21.965 26.68h10.594m0 0h10.593"/><path d="M38.969 26.68v1.968l4.183-1.968-4.183-1.97Zm0 0"/><path fill="none" stroke="#000" stroke-miterlimit="10" stroke-width=".7907834" d="M43.152 16.297h20.762v20.762H43.152Zm0 0"/><use xlink:href="#b" x="49.084" y="29.571"/><use xlink:href="#c" x="53.532" y="29.571"/><path fill="none" stroke="#000" stroke-miterlimit="10" stroke-width=".3958878" d="M63.914 26.68h6.656m7.875 0h6.653M70.57 34.555l3.938-15.75M70.57 26.68h7.875"/><path d="M80.914 26.68v1.968l4.184-1.968-4.184-1.97Zm0 0"/><path fill="none" stroke="#000" stroke-miterlimit="10" stroke-width=".7907834" d="M85.098 16.297h20.761v20.762H85.098Zm0 0"/><path fill="none" stroke="#000" stroke-miterlimit="10" stroke-width=".3958878" d="M90.29 26.68c.847-1.328 1.655-2.594 2.593-2.594.941 0 1.75 1.266 2.597 2.594.844 1.328 1.657 2.593 2.594 2.593.942 0 1.75-1.265 2.598-2.593M88.215 33.945H99.3"/><path stroke="#000" stroke-miterlimit="10" stroke-width=".3958878" d="m102.352 33.945-2.954-1.75v3.5Zm0 0"/><path fill="none" stroke="#000" stroke-miterlimit="10" stroke-width=".3958878" d="M88.215 33.945V22.86"/><path stroke="#000" stroke-miterlimit="10" stroke-width=".3958878" d="m88.215 19.809-1.75 2.949h3.5Zm0 0"/><path fill="none" stroke="#000" stroke-miterlimit="10" stroke-width=".3958878" d="M105.86 26.68h6.656m7.875 0h6.656M112.516 34.555l3.937-15.75m-3.937 7.875h7.875"/><path d="M122.863 26.68v1.968l4.184-1.968-4.184-1.97Zm0 0"/><path fill="none" stroke="#000" stroke-miterlimit="10" stroke-width=".7907834" d="M127.047 16.297h20.762v20.762h-20.762Zm0 0"/><path fill="none" stroke="#000" stroke-miterlimit="10" stroke-width=".3958878" d="m127.047 19.414 4.152 2.074-4.152 2.078M147.809 26.68h6.656m7.875 0h6.656M154.465 34.555l3.937-15.75m-3.937 7.875h7.875"/><path d="M164.813 26.68v1.968l4.183-1.968-4.184-1.97Zm0 0"/><path fill="none" stroke="#000" stroke-miterlimit="10" stroke-width=".7907834" d="M168.996 16.297h20.762v20.762h-20.762Zm0 0"/><path fill="none" stroke="#000" stroke-miterlimit="10" stroke-width=".3958878" d="m168.996 37.059 20.762-20.762"/><use xlink:href="#d" x="171.518" y="25.077"/><use xlink:href="#e" x="181.145" y="34.455"/><path fill="none" stroke="#000" stroke-miterlimit="10" stroke-width=".3958878" d="M189.758 26.68h10.59m0 0h10.593"/><path d="M206.758 26.68v1.968l4.183-1.968-4.183-1.97Zm0 0"/><use xlink:href="#f" x="214.103" y="28.725"/><use xlink:href="#g" x="217.849" y="30.594"/><use xlink:href="#h" x="221.436" y="30.594"/><use xlink:href="#i" x="225.215" y="30.594"/><path fill="none" stroke="#000" stroke-miterlimit="10" stroke-width=".3958878" d="M32.559 26.68V13.438m0 0V.195h43.96m0 0h43.961v21.293h6.567"/><path stroke="#000" stroke-miterlimit="10" stroke-width=".3958878" d="M34.133 26.68c0-.871-.703-1.575-1.574-1.575s-1.575.704-1.575 1.575c0 .87.703 1.574 1.575 1.574.87 0 1.574-.703 1.574-1.574Zm0 0"/><path d="M122.863 21.488v1.969l4.184-1.969-4.184-1.968Zm0 0"/><use xlink:href="#j" x="9.299" y="40.223"/><use xlink:href="#k" x="9.299" y="44.814"/><use xlink:href="#l" x="9.299" y="48.968"/><use xlink:href="#m" x="9.299" y="53.683"/><use xlink:href="#n" x="9.299" y="56.708"/><use xlink:href="#o" x="9.299" y="61.121"/><use xlink:href="#p" x="9.299" y="65.267"/><use xlink:href="#o" x="9.299" y="70.498"/><use xlink:href="#q" x="9.299" y="74.643"/><use xlink:href="#k" x="9.299" y="78.077"/><use xlink:href="#m" x="9.299" y="82.232"/><use xlink:href="#r" x="9.299" y="85.257"/><use xlink:href="#q" x="9.299" y="90.079"/><use xlink:href="#s" x="50.357" y="40.223"/><use xlink:href="#t" x="50.357" y="46.023"/><use xlink:href="#q" x="50.357" y="50.934"/><use xlink:href="#o" x="50.357" y="54.253"/><use xlink:href="#u" x="50.357" y="58.398"/><use xlink:href="#u" x="50.357" y="61.841"/><use xlink:href="#v" x="50.357" y="65.284"/><use xlink:href="#w" x="50.357" y="69.199"/><use xlink:href="#x" x="50.357" y="73.353"/><use xlink:href="#y" x="50.357" y="78.496"/><use xlink:href="#o" x="50.357" y="80.942"/><use xlink:href="#q" x="50.357" y="85.088"/><use xlink:href="#z" x="92.303" y="40.223"/><use xlink:href="#A" x="92.303" y="44.653"/><use xlink:href="#p" x="92.303" y="47.136"/><use xlink:href="#B" x="92.303" y="52.331"/><use xlink:href="#u" x="92.303" y="57.393"/><use xlink:href="#C" x="92.303" y="60.836"/><use xlink:href="#j" x="92.303" y="63.808"/><use xlink:href="#k" x="92.303" y="68.398"/><use xlink:href="#D" x="92.303" y="72.553"/><use xlink:href="#o" x="92.303" y="77.303"/><use xlink:href="#y" x="92.303" y="81.449"/><use xlink:href="#y" x="92.303" y="83.931"/><use xlink:href="#o" x="92.303" y="86.378"/><use xlink:href="#E" x="135.207" y="40.223"/><use xlink:href="#o" x="135.207" y="45.694"/><use xlink:href="#n" x="135.207" y="49.84"/><use xlink:href="#A" x="135.207" y="54.253"/><use xlink:href="#u" x="135.207" y="56.735"/><use xlink:href="#m" x="135.207" y="60.178"/><use xlink:href="#o" x="135.207" y="63.203"/><use xlink:href="#q" x="135.207" y="67.348"/><use xlink:href="#F" x="176.66" y="40.223"/><use xlink:href="#G" x="176.66" y="46.406"/><use xlink:href="#s" x="176.66" y="49.84"/><use xlink:href="#H" x="176.66" y="57.278"/><use xlink:href="#I" x="176.66" y="63.532"/><use xlink:href="#u" x="176.66" y="71.37"/><use xlink:href="#o" x="176.66" y="74.812"/><use xlink:href="#m" x="176.66" y="78.958"/><use xlink:href="#v" x="176.66" y="81.983"/><use xlink:href="#o" x="176.66" y="85.897"/><use xlink:href="#q" x="176.66" y="90.043"/><use xlink:href="#J" x="71.219" y="12.923"/><use xlink:href="#K" x="71.396" y="40.435"/><use xlink:href="#A" x="71.396" y="45.907"/><use xlink:href="#m" x="71.396" y="48.389"/><use xlink:href="#u" x="71.396" y="51.414"/></svg>