<svg xmlns="http://www.w3.org/2000/svg" xmlns:xlink="http://www.w3.org/1999/xlink" width="227.104" height="113.663"><defs><path id="a" d="M2.234-.39q1.092.001 1.094-2.516-.002-2.515-1.094-2.516-1.094.001-1.093 2.516c0 1.68.363 2.515 1.093 2.515m-.03.5q-.88 0-1.376-.75Q.296-1.42.297-2.907c0-.977.187-1.735.562-2.266.352-.5.829-.75 1.422-.75q.873 0 1.36.75.528.784.53 2.266 0 1.47-.562 2.265-.533.75-1.406.75m0 0"/><path id="b" d="M.89-.922q.248.002.407.203.17.204.172.578 0 .592-.375.985c-.211.226-.414.344-.61.344-.093 0-.164-.086-.203-.25q.574-.3.61-.891a.5.5 0 0 1-.344-.125.47.47 0 0 1-.14-.344c0-.156.038-.273.124-.36a.48.48 0 0 1 .36-.14m0 0"/><path id="c" d="M1.39-3.156c1.008-.114 1.516-.516 1.516-1.203Q2.905-5.438 2-5.437q-.41.002-.703.203-.11.362-.11.812a.7.7 0 0 1-.218.031c-.281 0-.422-.117-.422-.359q-.001-.516.437-.844.45-.328 1.188-.328.714 0 1.125.375.406.375.406 1.031 0 .628-.422 1.016-.28.284-.89.484V-3q.702.11 1.093.484c.258.243.391.547.391.922q-.001.738-.547 1.219Q2.78.11 1.891.109C1.41.11 1.05.012.813-.17Q.53-.374.53-.672q0-.406.39-.548c.102.23.204.399.298.5q.293.328.828.328c.664 0 1-.351 1-1.062 0-.738-.555-1.149-1.656-1.234Zm0 0"/><path id="d" d="M4.047-2.562H.422v-.47h3.625Zm0 0"/><path id="e" d="m.125-1.984 2.531-3.797.672-.063v3.64h.75l-.047.688h-.703v1.032l.61.125q.123.017.124.093 0 .048-.093.266H1.906v-.078q0-.246.297-.328l.39-.078v-1.032H.157Zm.734-.22h1.735V-4.89h-.016L.86-2.219Zm0 0"/><path id="f" d="M.828-.469v-5.468l-.656-.094a.16.16 0 0 1-.016-.078q0-.247.328-.266l1.063-.11V-2.5h.531l1.203-1.375L2.656-4a.3.3 0 0 1-.015-.078q-.001-.218.25-.219h1.437c.07 0 .11.031.11.094A.5.5 0 0 1 4.375-4l-.516.156L2.594-2.39 4.109-.453l.454.11q.124.015.125.109A.4.4 0 0 1 4.609 0H3.453l-1.5-2.047h-.406v1.594L2-.343q.124.015.125.109A.35.35 0 0 1 2.031 0H.22v-.062c0-.133.086-.235.265-.297Zm0 0"/><path id="g" d="M2.594-6.172v.078c0 .157-.102.262-.297.313l-.422.093v2.266h2.984v-2.265l-.546-.125c-.086-.02-.125-.055-.125-.11q0-.075.093-.25H6.36v.078q-.002.236-.296.313l-.422.093v5.204l.609.125q.124.017.125.093 0 .048-.094.266H4.188a.16.16 0 0 1-.016-.078c0-.164.101-.274.312-.328l.375-.078v-2.407H1.875v2.407L2.5-.36q.124.017.125.093c0 .032-.04.121-.11.266H.423a.16.16 0 0 1-.016-.078Q.404-.324.72-.406l.375-.078v-5.203l-.547-.125c-.086-.02-.125-.055-.125-.11q0-.075.094-.25Zm0 0"/><path id="h" d="M.469-3.406q0-.329.062-.89h2.907q.03.093.03.187a.57.57 0 0 1-.093.297L1.141-.47v.016h1.75l.312-.89h.14q.249.001.25.265 0 .093-.124 1.078H.406a.6.6 0 0 1-.094-.328q0-.124.094-.266l2.157-3.234v-.031h-1.47l-.25.75a.6.6 0 0 1-.124.015c-.168 0-.25-.101-.25-.312m0 0"/><path id="v" d="M-.39-3.266q0-.92-.72-1.453c-.476-.351-1.132-.531-1.968-.531q-1.248 0-1.969.563-.733.55-.734 1.453.001.907.734 1.422.72.515 1.969.515 1.254 0 1.969-.531.719-.528.718-1.438m.5.047q0 1.22-.813 1.969-.856.783-2.375.781-1.512 0-2.375-.843-.827-.762-.828-2.016 0-1.247.828-1.985c.562-.507 1.355-.765 2.375-.765q1.501 0 2.375.828.813.784.812 2.031m0 0"/><path id="w" d="M-.578-1q.204-.264.203-.656c0-.508-.195-.766-.594-.766q-.234.002-.468.25a5 5 0 0 0-.407.578q-.327.534-.562.75-.374.362-.86.36a.95.95 0 0 1-.812-.407q-.312-.405-.313-1.015c0-.395.102-.719.297-.969q.346-.03.547-.031c.305 0 .453.117.453.344a.16.16 0 0 1-.015.078l-.641.109q-.187.299-.187.61c0 .43.171.64.515.64.242 0 .477-.164.703-.5q.316-.468.61-.937.409-.516.953-.516.55 0 .906.422.362.41.36 1.078c0 .45-.087.812-.25 1.094q-.406.08-.735.078-.436 0-.437-.328.002-.048.015-.094Zm0 0"/><path id="x" d="M-3.406-.469a8 8 0 0 1-.89-.062v-2.906a.6.6 0 0 1 .187-.032c.093 0 .195.031.297.094L-.47-1.141h.016v-1.75l-.89-.312v-.14q.001-.249.265-.25.093 0 1.078.124v3.063a.6.6 0 0 1-.328.094.5.5 0 0 1-.266-.094l-3.234-2.156h-.031v1.468l.75.25a.6.6 0 0 1 .015.125c0 .168-.101.25-.312.25m0 0"/><path id="y" d="M-.469-.906h-3.328l-.094.64a.1.1 0 0 1-.062.016q-.246 0-.281-.328l-.11-1.063h3.875l.125-.53q.017-.125.11-.126.129 0 .234.094v1.89a.1.1 0 0 1-.062.016c-.133 0-.235-.094-.297-.281Zm-5.375.14a.5.5 0 0 1-.36-.14.47.47 0 0 1-.155-.36q.002-.233.156-.375a.5.5 0 0 1 .36-.14q.233 0 .374.14.14.142.14.375a.48.48 0 0 1-.14.36.5.5 0 0 1-.375.14m0 0"/><path id="z" d="M-.469-.86h-5.468l-.094.641a.16.16 0 0 1-.078.016q-.247 0-.266-.328l-.11-1.063h6.016l.125-.531q.017-.124.11-.125.129 0 .234.094v1.89h-.062c-.133 0-.235-.086-.297-.265Zm0 0"/><path id="A" d="M-2.781-2.656q-.591 0-.86.172-.28.175-.28.609 0 .284.093.531.22.11.781.203.017.141.016.188 0 .438-.39.437-.405 0-.688-.468a1.97 1.97 0 0 1-.282-1.032q0-1.373 1.5-1.375h1.97c.335 0 .5-.101.5-.312q0-.2-.11-.313a.38.38 0 0 1 .25-.093c.062 0 .133.058.203.172a.87.87 0 0 1 .156.53q0 .63-.61.688v.016Q.112-2.28.11-1.47q0 .503-.312.813-.311.313-.828.312c-.438 0-.774-.219-1.016-.656-.195-.383-.297-.86-.297-1.422v-.234Zm2.328.89q0-.498-.469-.89h-1.031l.016.234q.11 1.299.812 1.297c.45 0 .672-.21.672-.64m0 0"/><path id="B" d="m-4.297-.86-1.187-.171v-.532h1.187V-2.89l.469.079v1.25h2.75q.674 0 .672-.579 0-.435-.235-.734a.5.5 0 0 1 .266-.062q.112 0 .266.234.217.33.218.828Q.11-.826-.92-.828h-2.907v.672a.1.1 0 0 1-.063.015q-.216 0-.296-.28Zm0 0"/><path id="C" d="M.11-2.344q.002.832-.547 1.36c-.395.398-.946.593-1.657.593q-1.061 0-1.719-.656a2.07 2.07 0 0 1-.578-1.469q0-.843.516-1.359.596-.576 1.688-.578 1.078 0 1.718.656.58.598.578 1.453m-.5-.062q0-.562-.422-.906-.468-.36-1.329-.36-.857 0-1.343.36-.437.343-.438.906c0 .367.149.656.438.875q.469.361 1.343.36.861.002 1.329-.36a1.05 1.05 0 0 0 .421-.875m0 0"/><path id="D" d="M-.469-.906h-3.328l-.094.64a.1.1 0 0 1-.062.016q-.246 0-.281-.328l-.11-1.063.75.063v-.031c-.531-.352-.797-.735-.797-1.141 0-.395.149-.594.438-.594q.188 0 .375.14-.14.33-.14.595 0 .61.515.968H-.47l.125-.625q.017-.124.11-.125.129 0 .234.094v1.985a.1.1 0 0 1-.062.015c-.133 0-.235-.094-.297-.281Zm0 0"/><path id="E" d="m-3.797-.781-.094.64a.1.1 0 0 1-.062.016q-.246 0-.281-.328l-.11-1.063h2.813q1.048 0 1.047-.89 0-.686-.438-1.11h-2.875l-.094.657a.1.1 0 0 1-.062.015q-.246.001-.281-.344l-.11-1.046h3.86l.078-.657h.078q.252 0 .281.329l.094 1h-.578v.015c.43.344.64.793.64 1.344Q.11-.78-1.5-.781Zm0 0"/><path id="F" d="m-.469-7.094.125-.531q.017-.124.11-.125.129 0 .234.094v1.89a.1.1 0 0 1-.062.016c-.133 0-.235-.094-.297-.281l-.11-.328H-2.75c-.695 0-1.047.289-1.047.859q.002.674.485 1.188a4 4 0 0 1 .515-.047h2.328l.125-.532q.017-.124.11-.125.129.001.234.079v1.906h-.062c-.133 0-.235-.094-.297-.281l-.11-.329H-2.75c-.695 0-1.047.29-1.047.86 0 .437.149.82.438 1.14h2.89l.125-.53q.017-.125.11-.126.129 0 .234.094v1.89a.1.1 0 0 1-.062.016c-.133 0-.235-.094-.297-.281l-.11-.328h-3.328l-.094.64a.1.1 0 0 1-.062.016q-.246 0-.281-.328l-.11-1.063.594.063v-.031q-.64-.61-.64-1.422 0-.828.702-1.156-.703-.64-.703-1.532 0-.638.422-1 .41-.375 1.172-.375Zm0 0"/><clipPath id="i"><path d="M218 109h4v4.273h-4Zm0 0"/></clipPath><clipPath id="j"><path d="M212 104h14.21v9.273H212Zm0 0"/></clipPath><clipPath id="k"><path d="M134 109h4v4.273h-4Zm0 0"/></clipPath><clipPath id="l"><path d="M128 104h16v9.273h-16Zm0 0"/></clipPath><clipPath id="m"><path d="M106 109h4v4.273h-4Zm0 0"/></clipPath><clipPath id="n"><path d="M101 104h15v9.273h-15Zm0 0"/></clipPath><clipPath id="o"><path d="M106 109h4v4.273h-4Zm0 0"/></clipPath><clipPath id="p"><path d="M101 104h15v9.273h-15Zm0 0"/></clipPath><clipPath id="q"><path d="M78 109h4v4.273h-4Zm0 0"/></clipPath><clipPath id="r"><path d="M73 104h15v9.273H73Zm0 0"/></clipPath><clipPath id="s"><path d="M78 109h4v4.273h-4Zm0 0"/></clipPath><clipPath id="t"><path d="M73 104h15v9.273H73Zm0 0"/></clipPath><clipPath id="u"><path d="M212 20h14.21v15H212Zm0 0"/></clipPath></defs><path fill="none" stroke="#000" stroke-miterlimit="10" stroke-width=".39743193000000004" d="M24.43 111.492V85.41m0-31.625V27.703h14.097m27.668 0h28.063m0 0h27.93m0 0h13.964v26.082m0 31.625v26.082h41.895m0 0h41.894"/><path fill="none" stroke="#000" stroke-miterlimit="10" stroke-width=".7938677900000001" d="M10.2 60.11c-5.24 0-9.485 4.25-9.485 9.488s4.246 9.488 9.484 9.488c5.242 0 9.489-4.25 9.489-9.488 0-5.239-4.247-9.489-9.489-9.489Zm0 0"/><path fill="none" stroke="#000" stroke-linecap="round" stroke-miterlimit="10" stroke-width=".7938677900000001" d="M.398 79.086V60.109"/><path fill="none" stroke="#000" stroke-miterlimit="10" stroke-width=".39743193000000004" d="M24.43 85.41V74.34h-6.012m0-9.485h6.012v-11.07"/><path fill="none" stroke="#000" stroke-miterlimit="10" stroke-width=".7938677900000001" d="M38.527 13.867h27.668V41.54H38.527Zm0 0"/><path fill="none" stroke="#000" stroke-miterlimit="10" stroke-width=".39743193000000004" d="m42.676 17.05 19.37 10.653-19.37 10.652Zm0 0"/><path stroke="#000" stroke-miterlimit="10" stroke-width=".39743193000000004" d="M81.871 27.703a1.58 1.58 0 1 0-3.16 0c0 .871.707 1.582 1.582 1.582.871 0 1.578-.71 1.578-1.582Zm0 0"/><use xlink:href="#a" x="30.152" y="9.27"/><use xlink:href="#b" x="34.618" y="9.27"/><use xlink:href="#c" x="36.466" y="9.27"/><use xlink:href="#d" x="42.415" y="9.27"/><use xlink:href="#c" x="46.88" y="9.27"/><use xlink:href="#b" x="51.346" y="9.27"/><use xlink:href="#e" x="53.194" y="9.27"/><use xlink:href="#f" x="59.151" y="9.27"/><use xlink:href="#g" x="63.885" y="9.27"/><use xlink:href="#h" x="70.637" y="9.27"/><path stroke="#000" stroke-miterlimit="10" stroke-width=".39743193000000004" d="M109.8 27.703a1.58 1.58 0 1 0-3.16 0c0 .871.708 1.582 1.583 1.582.87 0 1.578-.71 1.578-1.582Zm0 0"/><path fill="none" stroke="#000" stroke-miterlimit="10" stroke-width=".7938677900000001" d="M141.684 53.785V85.41h-11.067V53.785ZM149.988 77.504l-23.68-13.531"/><path stroke="#000" stroke-miterlimit="10" stroke-width=".79382794" d="m123.004 62.086 2.055 3.676 2.156-3.774Zm0 0"/><g clip-path="url(#i)"><path fill="#FFF" d="M221.523 111.492a1.583 1.583 0 1 0-3.162.002 1.583 1.583 0 0 0 3.162-.002m0 0"/></g><g clip-path="url(#j)"><path fill="none" stroke="#000" stroke-miterlimit="10" stroke-width=".39743193000000004" d="M221.523 111.492a1.583 1.583 0 1 0-3.162.002 1.583 1.583 0 0 0 3.162-.002Zm0 0"/></g><path fill="none" stroke="#000" stroke-miterlimit="10" stroke-width=".39743193000000004" d="M136.152 111.492h-13.965m0 0h-27.93m0 0H52.364m0 0H24.43"/><g clip-path="url(#k)"><path d="M137.73 111.492c0-.87-.707-1.582-1.578-1.582a1.583 1.583 0 0 0 0 3.164 1.58 1.58 0 0 0 1.578-1.582m0 0"/></g><g clip-path="url(#l)"><path fill="none" stroke="#000" stroke-miterlimit="10" stroke-width=".39743193000000004" d="M137.73 111.492c0-.87-.707-1.582-1.578-1.582a1.583 1.583 0 0 0 0 3.164 1.58 1.58 0 0 0 1.578-1.582Zm0 0"/></g><g clip-path="url(#m)"><path d="M109.8 111.492c0-.87-.706-1.582-1.577-1.582a1.583 1.583 0 0 0 0 3.164 1.58 1.58 0 0 0 1.578-1.582m0 0"/></g><g clip-path="url(#n)"><path fill="none" stroke="#000" stroke-miterlimit="10" stroke-width=".39743193000000004" d="M109.8 111.492c0-.87-.706-1.582-1.577-1.582a1.583 1.583 0 0 0 0 3.164 1.58 1.58 0 0 0 1.578-1.582Zm0 0"/></g><g clip-path="url(#o)"><path d="M109.8 111.492c0-.87-.706-1.582-1.577-1.582a1.583 1.583 0 0 0 0 3.164 1.58 1.58 0 0 0 1.578-1.582m0 0"/></g><g clip-path="url(#p)"><path fill="none" stroke="#000" stroke-miterlimit="10" stroke-width=".39743193000000004" d="M109.8 111.492c0-.87-.706-1.582-1.577-1.582a1.583 1.583 0 0 0 0 3.164 1.58 1.58 0 0 0 1.578-1.582Zm0 0"/></g><g clip-path="url(#q)"><path d="M81.871 111.492c0-.87-.707-1.582-1.578-1.582a1.583 1.583 0 0 0 0 3.164 1.58 1.58 0 0 0 1.578-1.582m0 0"/></g><g clip-path="url(#r)"><path fill="none" stroke="#000" stroke-miterlimit="10" stroke-width=".39743193000000004" d="M81.871 111.492c0-.87-.707-1.582-1.578-1.582a1.583 1.583 0 0 0 0 3.164 1.58 1.58 0 0 0 1.578-1.582Zm0 0"/></g><g clip-path="url(#s)"><path d="M81.871 111.492c0-.87-.707-1.582-1.578-1.582a1.583 1.583 0 0 0 0 3.164 1.58 1.58 0 0 0 1.578-1.582m0 0"/></g><g clip-path="url(#t)"><path fill="none" stroke="#000" stroke-miterlimit="10" stroke-width=".39743193000000004" d="M81.871 111.492c0-.87-.707-1.582-1.578-1.582a1.583 1.583 0 0 0 0 3.164 1.58 1.58 0 0 0 1.578-1.582Zm0 0"/></g><path fill="none" stroke="#000" stroke-miterlimit="10" stroke-width=".39743193000000004" d="M80.293 27.703v33.988m0 15.813v33.988"/><path fill="none" stroke="#000" stroke-miterlimit="10" stroke-width=".7938677900000001" d="m80.293 77.504 9.883-15.813H70.41Zm0 0"/><path fill="none" stroke="#000" stroke-miterlimit="10" stroke-width=".39743193000000004" d="M80.293 77.504V61.69"/><path fill="none" stroke="#000" stroke-miterlimit="10" stroke-width=".7938677900000001" d="M70.41 77.504h19.766"/><path fill="none" stroke="#000" stroke-miterlimit="10" stroke-width=".39743193000000004" d="M108.223 27.703v33.988m0 15.813v33.988"/><path fill="none" stroke="#000" stroke-miterlimit="10" stroke-width=".7938677900000001" d="m108.223 61.691 9.882 15.813H98.34Zm0 0"/><path fill="none" stroke="#000" stroke-miterlimit="10" stroke-width=".39743193000000004" d="M108.223 61.691v15.813"/><path fill="none" stroke="#000" stroke-miterlimit="10" stroke-width=".7938677900000001" d="M98.34 61.691h19.765"/><path fill="none" stroke="#000" stroke-miterlimit="10" stroke-width=".39743193000000004" d="M164.082 27.703h14.094m27.672 0h14.093"/><path fill="none" stroke="#000" stroke-miterlimit="10" stroke-width=".7938677900000001" d="M178.176 13.867h27.672V41.54h-27.672Zm0 0"/><path fill="none" stroke="#000" stroke-miterlimit="10" stroke-width=".39743193000000004" d="M185.094 20.785c1.129-1.77 2.207-3.457 3.457-3.457 1.254 0 2.332 1.688 3.46 3.457 1.13 1.77 2.208 3.461 3.458 3.461 1.254 0 2.332-1.691 3.46-3.46m-4.843-2.075-4.149 4.148M185.094 27.703c1.129-1.77 2.207-3.457 3.457-3.457 1.254 0 2.332 1.688 3.46 3.457 1.13 1.77 2.208 3.457 3.458 3.457 1.254 0 2.332-1.687 3.46-3.457m-4.843-2.074-4.149 4.148M185.094 34.621c1.129-1.77 2.207-3.46 3.457-3.46 1.254 0 2.332 1.69 3.46 3.46 1.13 1.77 2.208 3.457 3.458 3.457 1.254 0 2.332-1.687 3.46-3.457"/><path fill="#FFF" d="M221.523 27.703a1.583 1.583 0 1 0-3.165.002 1.583 1.583 0 0 0 3.165-.002m0 0"/><g clip-path="url(#u)"><path fill="none" stroke="#000" stroke-miterlimit="10" stroke-width=".39743193000000004" d="M221.523 27.703a1.583 1.583 0 1 0-3.165.002 1.583 1.583 0 0 0 3.165-.002Zm0 0"/></g><use xlink:href="#c" x="181.325" y="9.27"/><use xlink:href="#f" x="187.273" y="9.27"/><use xlink:href="#g" x="192.006" y="9.27"/><use xlink:href="#h" x="198.758" y="9.27"/><path fill="none" stroke="#000" stroke-miterlimit="10" stroke-width=".39743193000000004" d="M164.082 27.703v49.8h-14.094"/><use xlink:href="#v" x="223.128" y="88.045"/><use xlink:href="#w" x="223.128" y="81.508"/><use xlink:href="#x" x="223.128" y="78.051"/><use xlink:href="#y" x="223.128" y="74.122"/><use xlink:href="#z" x="223.128" y="71.63"/><use xlink:href="#z" x="223.128" y="69.138"/><use xlink:href="#A" x="223.128" y="66.646"/><use xlink:href="#B" x="223.128" y="62.475"/><use xlink:href="#C" x="223.128" y="59.439"/><use xlink:href="#D" x="223.128" y="54.598"/><use xlink:href="#x" x="210.186" y="78.038"/><use xlink:href="#E" x="210.186" y="74.108"/><use xlink:href="#F" x="210.186" y="69.026"/></svg>