<svg xmlns="http://www.w3.org/2000/svg" xmlns:xlink="http://www.w3.org/1999/xlink" width="228.799" height="137.529"><defs><clipPath id="a"><path d="M.29 125H4v4H.29Zm0 0"/></clipPath><clipPath id="b"><path d="M.29 119H10v15H.29Zm0 0"/></clipPath><clipPath id="c"><path d="M35 136h14v1.059H35Zm0 0"/></clipPath><clipPath id="d"><path d="M215 119h13.309v15H215Zm0 0"/></clipPath><clipPath id="e"><path d="M.29 64H4v5H.29Zm0 0"/></clipPath><clipPath id="f"><path d="M.29 59H10v15H.29Zm0 0"/></clipPath><clipPath id="i"><path d="M215 3h13.309v16H215Zm0 0"/></clipPath><clipPath id="k"><path d="M215 84h13.309v15H215Zm0 0"/></clipPath><path id="g" d="M2.203-6.172v.078q-.002.253-.297.313l-.328.078L2.766-3.72h.015l1.266-2-.61-.093q-.126 0-.124-.11-.001-.075.109-.25h1.781q.014.048.016.078c0 .168-.102.278-.297.328l-.313.063L3.08-3.25 4.75-.469l.422.11q.124.034.125.093 0 .048-.094.266h-1.89a.16.16 0 0 1-.016-.078c0-.176.101-.285.312-.328l.266-.047-1.281-2.125h-.016L1.266-.453l.562.094q.124.017.125.093A.6.6 0 0 1 1.86 0H.047v-.078q0-.264.297-.328l.25-.063L2.28-3.062.671-5.687l-.437-.11C.148-5.817.11-5.859.11-5.922q0-.075.11-.25Zm0 0"/><path id="j" d="M2.484-3.031h1.563v.469H2.484v1.671h-.5v-1.671H.422v-.47h1.562v-1.655h.5Zm0 0"/><path id="h" d="M4.813-.906 3.438-2.781c-.079-.125-.141-.219-.141-.297a.46.46 0 0 1 .094-.281l1.218-1.578c.313-.391.594-.516 1-.547.047-.063.047-.25 0-.297-.28 0-.609.015-.812.015s-.578-.015-.938-.015c-.046.047-.046.234 0 .297.391.03.563.078.344.375L3.11-3.547c-.046.063-.109.11-.14.11s-.063-.047-.11-.11L1.875-5c-.25-.36-.297-.453.203-.484.063-.063.063-.25 0-.297-.328 0-.656.015-1.015.015-.344 0-.641-.015-.907-.015-.062.047-.047.234 0 .297.375.03.547.062.922.593l1.266 1.813c.062.11.125.187.125.265 0 .063-.031.141-.094.22L1.047-.829C.75-.422.469-.312.063-.281c-.047.062-.047.25 0 .297C.328.016.656 0 .859 0c.22 0 .594.016.954.016.046-.047.046-.235 0-.297-.407-.016-.563-.063-.36-.375l1.188-1.656c.046-.063.109-.126.125-.126.046 0 .078.032.125.11L4-.766c.25.36.297.47-.203.485-.063.062-.063.25 0 .297C4.125.016 4.453 0 4.812 0c.344 0 .641.016.907.016.062-.047.047-.235 0-.297-.39-.016-.532-.11-.907-.625m0 0"/></defs><path fill="none" stroke="#000" stroke-miterlimit="10" stroke-width=".39763941" d="M2.07 126.773h20.094m0 0H132.68m0 0h90.418"/><g clip-path="url(#a)"><path fill="#FFF" d="M3.652 126.773a1.583 1.583 0 1 0-3.165.002 1.583 1.583 0 0 0 3.165-.002m0 0"/></g><g clip-path="url(#b)"><path fill="none" stroke="#000" stroke-miterlimit="10" stroke-width=".39763941" d="M3.652 126.773a1.583 1.583 0 1 0-3.165.002 1.583 1.583 0 0 0 3.165-.002Zm0 0"/></g><path stroke="#000" stroke-miterlimit="10" stroke-width=".39763941" d="M43.84 126.773c0-.87-.711-1.582-1.582-1.582a1.583 1.583 0 1 0 1.582 1.582Zm0 0"/><path fill="none" stroke="#000" stroke-miterlimit="10" stroke-width=".39763941" d="M42.258 126.773v9.891"/><g clip-path="url(#c)"><path fill="none" stroke="#000" stroke-linecap="round" stroke-miterlimit="10" stroke-width=".79428223" d="M36.324 136.664h11.867"/></g><path fill="#FFF" d="M224.68 126.773a1.583 1.583 0 1 0-3.166.002 1.583 1.583 0 0 0 3.166-.002m0 0"/><g clip-path="url(#d)"><path fill="none" stroke="#000" stroke-miterlimit="10" stroke-width=".39763941" d="M224.68 126.773a1.583 1.583 0 1 0-3.166.002 1.583 1.583 0 0 0 3.166-.002Zm0 0"/></g><path fill="none" stroke="#000" stroke-miterlimit="10" stroke-width=".39763941" d="M2.07 66.496h17.282m5.625 0h17.28V93.82m0 5.63v27.323"/><path fill="none" stroke="#000" stroke-miterlimit="10" stroke-width=".79428223" d="M19.352 58.055v16.879m5.625-16.88v16.88M13.727 74.934 30.18 58.477"/><path fill="none" stroke="#000" stroke-miterlimit="10" stroke-width=".7942583200000001" d="m28.145 56.16 4.355 4.352"/><g clip-path="url(#e)"><path fill="#FFF" d="M3.652 66.496a1.58 1.58 0 0 0-1.582-1.582 1.58 1.58 0 1 0 0 3.16 1.58 1.58 0 0 0 1.582-1.578m0 0"/></g><g clip-path="url(#f)"><path fill="none" stroke="#000" stroke-miterlimit="10" stroke-width=".39763941" d="M3.652 66.496a1.58 1.58 0 0 0-1.582-1.582 1.58 1.58 0 1 0 0 3.16 1.58 1.58 0 0 0 1.582-1.578Zm0 0"/></g><path stroke="#000" stroke-miterlimit="10" stroke-width=".39763941" d="M43.84 66.496a1.583 1.583 0 0 0-3.164 0 1.582 1.582 0 0 0 3.164 0Zm0 0"/><use xlink:href="#g" x="19.492" y="53.995"/><path fill="none" stroke="#000" stroke-miterlimit="10" stroke-width=".79428223" d="M50.695 99.45H33.816m16.88-5.63h-16.88M33.816 105.074l16.457-16.457"/><path fill="none" stroke="#000" stroke-miterlimit="10" stroke-width=".7942583200000001" d="m48.238 86.3 4.356 4.352"/><path stroke="#000" stroke-miterlimit="10" stroke-width=".39763941" d="M43.84 126.773c0-.87-.711-1.582-1.582-1.582a1.583 1.583 0 1 0 1.582 1.582Zm0 0"/><use xlink:href="#g" x="26.022" y="98.78"/><path fill="none" stroke="#000" stroke-miterlimit="10" stroke-width=".39763941" d="M42.258 66.496h9.445m11.25 0h9.445v18.887m0 22.504v18.886"/><path fill="none" stroke="#000" stroke-linejoin="bevel" stroke-miterlimit="10" stroke-width=".79428223" d="M51.305 66.652c0-2.328 1.347-4.218 3.011-4.218s3.012 1.89 3.012 4.218c0-2.328 1.348-4.218 3.012-4.218s3.012 1.89 3.012 4.218"/><path stroke="#000" stroke-miterlimit="10" stroke-width=".39763941" d="M73.98 66.496a1.583 1.583 0 0 0-3.164 0 1.582 1.582 0 0 0 3.164 0Zm0 0"/><use xlink:href="#h" x="54.378" y="58.637"/><path fill="none" stroke="#000" stroke-linejoin="bevel" stroke-miterlimit="10" stroke-width=".79428223" d="M72.238 84.984c2.332 0 4.219 1.305 4.219 2.914s-1.887 2.91-4.219 2.91c2.332 0 4.219 1.305 4.219 2.915 0 1.609-1.887 2.91-4.219 2.91 2.332 0 4.219 1.304 4.219 2.914s-1.887 2.914-4.219 2.914c2.332 0 4.219 1.3 4.219 2.91s-1.887 2.914-4.219 2.914"/><path stroke="#000" stroke-miterlimit="10" stroke-width=".39763941" d="M73.98 126.773a1.583 1.583 0 1 0-3.162.002 1.583 1.583 0 0 0 3.162-.002Zm0 0"/><path fill="none" stroke="#000" stroke-dasharray="2.9786380897 2.9786380897" stroke-miterlimit="10" stroke-width=".39763941" d="M78.602 85.383v22.504"/><path fill="none" stroke="#000" stroke-miterlimit="10" stroke-width=".39763941" d="M72.398 66.496h10.047m0 0h10.047v18.887m0 22.504v18.886"/><path fill="none" stroke="#000" stroke-miterlimit="10" stroke-width=".79428223" d="M88.27 107.887V85.383h8.44v22.504Zm0 0"/><path stroke="#000" stroke-miterlimit="10" stroke-width=".39763941" d="M94.074 66.496a1.583 1.583 0 0 0-3.164 0 1.582 1.582 0 0 0 3.164 0ZM94.074 126.773a1.583 1.583 0 1 0-3.162.002 1.583 1.583 0 0 0 3.162-.002Zm0 0"/><path fill="none" stroke="#000" stroke-miterlimit="10" stroke-width=".39763941" d="M92.492 66.496h7.535m0 0h7.536"/><path fill="none" stroke="#000" stroke-miterlimit="10" stroke-width=".79428223" d="M130.113 66.496c0-5.762-4.672-10.434-10.433-10.434s-10.43 4.672-10.43 10.434c0 5.758 4.668 10.43 10.43 10.43s10.433-4.672 10.433-10.43Zm0 0"/><path fill="none" stroke="#000" stroke-miterlimit="10" stroke-width=".39763941" d="M124.441 50.824v9.48L116 64.173"/><path fill="none" stroke="#000" stroke-miterlimit="10" stroke-width=".79428223" d="M116 60.305v12.379"/><path fill="none" stroke="#000" stroke-miterlimit="10" stroke-width=".39763941" d="m116 68.816 8.441 3.868v9.48"/><path d="m118.465 69.945.953-2.07 3.68 4.191-5.582-.05Zm0 0"/><path fill="none" stroke="#000" stroke-miterlimit="10" stroke-width=".39763941" d="M116 66.496h-8.637M124.441 81.965v11.152m0 22.504v11.152"/><path fill="none" stroke="#000" stroke-miterlimit="10" stroke-width=".79428223" d="M120.219 115.621V93.117h8.441v22.504Zm0 0"/><path stroke="#000" stroke-miterlimit="10" stroke-width=".39763941" d="M126.02 126.773c0-.87-.707-1.582-1.579-1.582a1.583 1.583 0 0 0 0 3.164 1.58 1.58 0 0 0 1.579-1.582Zm0 0"/><path fill="none" stroke="#000" stroke-miterlimit="10" stroke-width=".39763941" d="M124.441 81.965h10.047m0 0h10.047v19.594m0 5.625v19.59"/><path stroke="#000" stroke-miterlimit="10" stroke-width=".39763941" d="M126.02 81.965c0-.871-.707-1.582-1.579-1.582a1.583 1.583 0 0 0 0 3.164 1.58 1.58 0 0 0 1.579-1.582Zm0 0"/><path fill="none" stroke="#000" stroke-miterlimit="10" stroke-width=".79428223" d="M152.973 101.559h-16.88m16.88 5.625h-16.88"/><path stroke="#000" stroke-miterlimit="10" stroke-width=".39763941" d="M146.113 126.773c0-.87-.707-1.582-1.578-1.582a1.583 1.583 0 0 0 0 3.164 1.58 1.58 0 0 0 1.578-1.582Zm0 0"/><path fill="none" stroke="#000" stroke-miterlimit="10" stroke-width=".39763941" d="M124.441 51.023h10.047m0 0h10.047V42.18m0-22.504v-8.84h12.555m0 0h12.558v10.047m0 0v55.156m0 5.625v45.11"/><path stroke="#000" stroke-miterlimit="10" stroke-width=".39763941" d="M146.113 51.023a1.58 1.58 0 1 0-3.16 0c0 .872.707 1.582 1.582 1.582.871 0 1.578-.71 1.578-1.582Zm0 0"/><path fill="none" stroke="#000" stroke-linejoin="bevel" stroke-miterlimit="10" stroke-width=".79428223" d="M144.691 42.578c-2.328 0-4.218-1.305-4.218-2.914 0-1.605 1.89-2.91 4.218-2.91-2.328 0-4.218-1.305-4.218-2.914 0-1.606 1.89-2.91 4.218-2.91-2.328 0-4.218-1.305-4.218-2.914s1.89-2.91 4.218-2.91c-2.328 0-4.218-1.305-4.218-2.915 0-1.609 1.89-2.91 4.218-2.91"/><path stroke="#000" stroke-miterlimit="10" stroke-width=".39763941" d="M171.23 10.836a1.58 1.58 0 1 0-3.16 0c0 .871.707 1.582 1.578 1.582.875 0 1.582-.711 1.582-1.582Zm0 0"/><path fill="none" stroke="#000" stroke-miterlimit="10" stroke-width=".79428223" d="M178.09 76.04h-16.88m16.88 5.624h-16.88"/><path stroke="#000" stroke-miterlimit="10" stroke-width=".39763941" d="M171.23 126.773c0-.87-.707-1.582-1.582-1.582a1.582 1.582 0 0 0 0 3.164 1.58 1.58 0 0 0 1.582-1.582Zm0 0"/><path fill="none" stroke="#000" stroke-dasharray="2.9786380897 2.9786380897" stroke-miterlimit="10" stroke-width=".39763941" d="M138.328 42.18V19.676"/><path fill="none" stroke="#000" stroke-miterlimit="10" stroke-width=".39763941" d="M169.648 10.836h26.727m0 0h26.723"/><path fill="#FFF" d="M224.68 10.836a1.583 1.583 0 1 0-3.162.002 1.583 1.583 0 0 0 3.162-.002m0 0"/><g clip-path="url(#i)"><path fill="none" stroke="#000" stroke-miterlimit="10" stroke-width=".39763941" d="M224.68 10.836a1.583 1.583 0 1 0-3.162.002 1.583 1.583 0 0 0 3.162-.002Zm0 0"/></g><use xlink:href="#j" x="220.862" y="7.66"/><path fill="none" stroke="#000" stroke-miterlimit="10" stroke-width=".39763941" d="M144.535 51.023h10.043m0 0h22.305m5.629 0h12.254v8.84m0 22.504v8.844h14.168m0 0h14.164"/><path fill="none" stroke="#000" stroke-miterlimit="10" stroke-width=".79428223" d="M176.883 42.582v16.879m5.629-16.879v16.879M171.258 59.46l16.457-16.456"/><path fill="none" stroke="#000" stroke-miterlimit="10" stroke-width=".7942583200000001" d="m185.68 40.687 4.351 4.352"/><path fill="none" stroke="#000" stroke-linejoin="bevel" stroke-miterlimit="10" stroke-width=".79428223" d="M194.61 59.465c2.328 0 4.218 1.305 4.218 2.914s-1.89 2.914-4.219 2.914c2.329 0 4.22 1.3 4.22 2.91s-1.891 2.914-4.22 2.914c2.329 0 4.22 1.301 4.22 2.91s-1.891 2.914-4.22 2.914c2.329 0 4.22 1.305 4.22 2.91 0 1.61-1.891 2.915-4.22 2.915"/><path stroke="#000" stroke-miterlimit="10" stroke-width=".39763941" d="M196.348 91.21a1.583 1.583 0 1 0-3.162.002 1.583 1.583 0 0 0 3.162-.001Zm0 0"/><path fill="#FFF" d="M224.68 91.21a1.583 1.583 0 1 0-3.162.002 1.583 1.583 0 0 0 3.162-.001m0 0"/><g clip-path="url(#k)"><path fill="none" stroke="#000" stroke-miterlimit="10" stroke-width=".39763941" d="M224.68 91.21a1.583 1.583 0 1 0-3.162.002 1.583 1.583 0 0 0 3.162-.001Zm0 0"/></g><path fill="none" stroke="#000" stroke-miterlimit="10" stroke-width=".39763941" d="M194.766 91.21v14.97m0 5.625v14.968"/><path fill="none" stroke="#000" stroke-miterlimit="10" stroke-width=".79428223" d="M203.207 111.805h-16.879m16.879-5.625h-16.879M186.328 117.43l16.457-16.457"/><path fill="none" stroke="#000" stroke-miterlimit="10" stroke-width=".7942583200000001" d="m200.75 98.656 4.352 4.356"/><path stroke="#000" stroke-miterlimit="10" stroke-width=".39763941" d="M196.348 126.773a1.583 1.583 0 1 0-3.166.002 1.583 1.583 0 0 0 3.166-.002Zm0 0"/></svg>