<svg xmlns="http://www.w3.org/2000/svg" xmlns:xlink="http://www.w3.org/1999/xlink" width="226.772" height="80.167"><defs><clipPath id="b"><path d="M110 48h39v31.344h-39Zm0 0"/></clipPath><clipPath id="c"><path d="M136 58h2v21.344h-2Zm0 0"/></clipPath><clipPath id="e"><path d="M1.055 27H33v25H1.055Zm0 0"/></clipPath><path id="a" d="M4.266-2.453H.546v-.516h3.72Zm0 0"/><path id="d" d="M2.469-3.016h1.547v.47H2.469v1.655h-.5v-1.656H.422v-.469h1.547v-1.64h.5Zm0 0"/></defs><path fill="none" stroke="#000" stroke-linejoin="bevel" stroke-miterlimit="10" stroke-width=".7888068400000001" d="M44.895 23.566c3.253 0 5.894 1.801 5.894 4.028 0 2.222-2.64 4.023-5.894 4.023 3.253 0 5.894 1.805 5.894 4.028s-2.64 4.027-5.894 4.027c3.253 0 5.894 1.8 5.894 4.027 0 2.223-2.64 4.024-5.894 4.024 3.253 0 5.894 1.804 5.894 4.027s-2.64 4.027-5.894 4.027M68.777 55.777c-3.254 0-5.89-1.804-5.89-4.027s2.636-4.027 5.89-4.027c-3.254 0-5.89-1.801-5.89-4.024 0-2.226 2.636-4.027 5.89-4.027-3.254 0-5.89-1.8-5.89-4.027 0-2.223 2.636-4.028 5.89-4.028-3.254 0-5.89-1.8-5.89-4.023 0-2.227 2.636-4.028 5.89-4.028"/><path fill="none" stroke="#000" stroke-miterlimit="10" stroke-width=".39489828000000005" d="M27.379 10.215h17.676V23.96m0 31.422v13.746H27.379m58.914-58.914H68.621V23.96m0 31.422v13.746h17.672"/><path fill="none" stroke="#000" stroke-miterlimit="10" stroke-width=".7888068400000001" d="M58.309 54.402v-29.46m-2.946 29.46v-29.46"/><path fill="#FFF" stroke="#000" stroke-miterlimit="10" stroke-width=".39489828000000005" d="M28.95 10.215a1.57 1.57 0 1 0-3.142 0 1.57 1.57 0 0 0 3.141 0ZM28.95 69.129a1.57 1.57 0 1 0-3.142 0 1.57 1.57 0 0 0 3.141 0Zm0 0"/><path fill="none" stroke="#000" stroke-miterlimit="10" stroke-width=".39489828000000005" d="M86.293 10.215h34.906m15.711 0h56.281m0 0h21.383"/><path fill="none" stroke="#000" stroke-miterlimit="10" stroke-width=".7888068400000001" d="m121.2 10.215 15.71-9.82V20.03Zm0 0"/><path fill="none" stroke="#000" stroke-miterlimit="10" stroke-width=".39489828000000005" d="M121.2 10.215h15.71"/><path fill="none" stroke="#000" stroke-miterlimit="10" stroke-width=".7888068400000001" d="M121.2 20.031V.395"/><path stroke="#000" stroke-miterlimit="10" stroke-width=".39489828000000005" d="M173.383 10.215a1.57 1.57 0 1 0-3.141 0 1.57 1.57 0 0 0 3.14 0Zm0 0"/><path fill="#FFF" stroke="#000" stroke-miterlimit="10" stroke-width=".39489828000000005" d="M216.145 10.215a1.57 1.57 0 0 0-1.57-1.57 1.571 1.571 0 1 0 1.57 1.57Zm0 0"/><use xlink:href="#a" x="217.726" y="11.7"/><path fill="none" stroke="#000" stroke-miterlimit="10" stroke-width=".39489828000000005" d="M86.293 69.129h34.906m15.711 0h34.902V39.672m0 0V10.215"/><g clip-path="url(#b)"><path fill="none" stroke="#000" stroke-miterlimit="10" stroke-width=".7888068400000001" d="m136.91 69.129-15.71-9.82v19.64Zm0 0"/></g><path fill="none" stroke="#000" stroke-miterlimit="10" stroke-width=".39489828000000005" d="M136.91 69.129H121.2"/><g clip-path="url(#c)"><path fill="none" stroke="#000" stroke-miterlimit="10" stroke-width=".7888068400000001" d="M136.91 78.95V59.308"/></g><path fill="none" stroke="#000" stroke-miterlimit="10" stroke-width=".39489828000000005" d="M70.582 39.672h50.617m0 0h71.992m0 0h21.383"/><path stroke="#000" stroke-miterlimit="10" stroke-width=".39489828000000005" d="M72.156 39.672c0-.867-.707-1.57-1.574-1.57a1.57 1.57 0 0 0 0 3.14c.867 0 1.574-.703 1.574-1.57Zm0 0"/><path fill="#FFF" stroke="#000" stroke-miterlimit="10" stroke-width=".39489828000000005" d="M216.145 39.672a1.57 1.57 0 0 0-1.57-1.57 1.571 1.571 0 1 0 1.57 1.57Zm0 0"/><use xlink:href="#d" x="217.726" y="41.997"/><g clip-path="url(#e)"><path fill="none" stroke="#000" stroke-miterlimit="10" stroke-width=".39489828000000005" d="M1.25 39.672c2.09-3.285 4.09-6.414 6.414-6.414 2.32 0 4.32 3.129 6.414 6.414 2.09 3.285 4.09 6.414 6.41 6.414 2.325 0 4.325-3.129 6.414-6.414"/></g></svg>