<svg xmlns="http://www.w3.org/2000/svg" xmlns:xlink="http://www.w3.org/1999/xlink" width="227.021" height="142.066"><defs><path id="h" d="M4.469-1.937c0-.125-.032-.25-.188-.25A.22.22 0 0 0 4.063-2c-.016.328-.22.875-.641.875-.61 0-1.016-1.078-1.86-1.078C.735-2.203.517-1.188.517-.984c0 .125.046.25.203.25a.216.216 0 0 0 .203-.188c.031-.328.234-.875.64-.875.626 0 1.016 1.078 1.86 1.078.812 0 1.047-1.015 1.047-1.219m0-1.594c0-.125-.032-.25-.188-.25a.22.22 0 0 0-.218.187c-.016.344-.22.89-.641.89-.61 0-1.016-1.093-1.86-1.093C.735-3.797.517-2.78.517-2.562c0 .124.046.25.203.25A.216.216 0 0 0 .922-2.5c.031-.344.234-.89.64-.89.626 0 1.016 1.093 1.86 1.093.812 0 1.047-1.031 1.047-1.234m0 0"/><path id="i" d="m3.563-.422-.126-.125c-.187.188-.28.203-.437.203-.203 0-.219-.25-.266-1.187L2.61-4.047c-.03-.844-.39-.922-.578-.922-.265 0-.531.219-.765.485l.078.125a.93.93 0 0 1 .515-.172c.188 0 .407.14.454 1.125l.015.312L.156 0l.14.078C.454.031.626 0 .814 0l1.53-2.594.095 1.703c.03.657.109.97.453.97.187 0 .484-.235.672-.5m0 0"/><path id="j" d="M.438-3.328c0 .14.125.265.28.265.126 0 .329-.124.329-.28 0-.063 0-.095-.016-.141C1.016-3.547.97-3.61.97-3.656c0-.188.187-.438.703-.438.266 0 .625.172.625.86 0 .453-.172.828-.594 1.25l-.516.53C.485-.75.375-.405.375.017c0 0 .36-.016.594-.016h1.234c.235 0 .563.016.563.016.093-.375.156-.907.172-1.125a.3.3 0 0 0-.204-.032c-.125.5-.25.672-.5.672H.97c0-.343.484-.828.515-.86l.72-.687c.405-.39.718-.703.718-1.25 0-.765-.625-1.078-1.203-1.078-.797 0-1.281.578-1.281 1.016m0 0"/><path id="k" d="M2.031.094c.688 0 1.735-.703 1.735-2.797 0-.875-.22-1.64-.61-2.156-.234-.313-.61-.578-1.094-.578-.874 0-1.718 1.062-1.718 2.812 0 .953.297 1.844.781 2.344.25.25.563.375.906.375m.031-5.219c.157 0 .297.063.407.156.281.235.515.907.515 2.094 0 .828-.03 1.39-.156 1.844-.187.734-.625.812-.781.812-.828 0-.922-1.531-.922-2.297 0-2.203.547-2.609.938-2.609m0 0"/><path id="l" d="M.922-.844c-.266 0-.469.188-.469.438 0 .265.235.36.39.39.173.016.329.063.329.282 0 .187-.328.593-.781.703 0 .094.015.156.078.219C1 1.094 1.516.656 1.516.03c0-.531-.235-.875-.594-.875m0 0"/><path id="m" d="M2.844-1.687c0 .843-.453 1.468-.985 1.468-.343 0-.453-.218-.578-.39C1.156-.766 1-.906.813-.906c-.157 0-.329.156-.329.344 0 .359.75.656 1.266.656 1.094 0 1.89-.813 1.89-1.938 0-.86-.609-1.64-1.593-1.64-.39 0-.719.078-.875.14l.172-1.484c.328.031.61.078 1.047.078.265 0 .562-.016.937-.047l.14-.61-.062-.03c-.515.046-1 .093-1.469.093-.328 0-.64-.015-.953-.047L.672-2.828a3.1 3.1 0 0 1 1.14-.203c.579 0 1.032.375 1.032 1.344m0 0"/><path id="n" d="M1-2.75a.49.49 0 0 0-.484.5c0 .281.234.484.484.484a.48.48 0 0 0 .5-.484c0-.281-.219-.5-.5-.5m0 0"/><path id="o" d="m4.438-.531-.141-.156c-.234.234-.36.25-.531.25-.266 0-.297-.297-.36-1.47l-.14-3.155c-.047-1.063-.5-1.157-.735-1.157-.328 0-.656.282-.953.61l.11.156c.187-.125.421-.219.64-.219.235 0 .5.188.563 1.422l.015.375L.188 0l.171.11C.563.03.781.015 1.016 0l1.922-3.234.109 2.109c.031.828.14 1.234.562 1.234.235 0 .61-.296.829-.64m0 0"/><path id="p" d="m5.328-.437-.062-3.75H5.25L3.578-.062h-.437L1.5-4.22h-.016L1.422-.437l.547.109c.07.023.11.055.11.094q0 .035-.095.234H.344v-.078Q.342-.295.609-.36l.344-.079.063-4.609-.5-.11q-.111-.028-.11-.093 0-.06.094-.219h1.25l1.719 4.375h.015L5.25-5.469h1.344v.078q-.001.207-.266.266l-.375.078.063 4.61.547.109q.107.035.109.094 0 .035-.078.234h-1.86a.16.16 0 0 1-.015-.078q-.002-.217.265-.281Zm0 0"/><path id="q" d="M3.844-3.047h-.016L2.781 0h-.64L.406-5.062l-.328-.079q-.11-.028-.11-.109 0-.06.095-.219h1.765a.2.2 0 0 1 .016.078q0 .207-.282.266l-.343.078L2.563-.78h.015L3.625-3.75l-.406-1.312-.313-.079q-.127-.028-.125-.109 0-.06.094-.219h1.766a.2.2 0 0 1 .015.078q0 .207-.281.266l-.344.078L5.234-.78h.016l1.438-4.281-.625-.094q-.111-.03-.11-.094 0-.06.094-.219h1.578c.008.024.016.047.016.078q-.001.223-.266.282l-.203.046L5.453 0h-.64Zm0 0"/><path id="r" d="M2.844-4.906a1.6 1.6 0 0 0-.797-.235q-.47 0-.735.235-.25.234-.25.656c0 .23.07.422.22.578q.123.128.452.297l.735.406q.576.33.812.594.328.364.328.89 0 .704-.468 1.126-.471.455-1.282.453A3.2 3.2 0 0 1 .516-.22C.492-.508.484-.805.484-1.109q-.001-.342.25-.344.078.001.172.031l.188.844q.358.251.843.25c.344 0 .602-.094.782-.281a.93.93 0 0 0 .265-.688.87.87 0 0 0-.265-.625c-.125-.101-.399-.273-.813-.516l-.5-.265q-.455-.263-.672-.531a1.44 1.44 0 0 1-.28-.891Q.452-4.78.937-5.187c.312-.25.71-.375 1.203-.375q.686.002 1.218.296.047.563.047.75-.002.345-.25.344a.5.5 0 0 1-.172-.031Zm0 0"/><path id="v" d="m.703-3.36-.578-.093a.1.1 0 0 1-.016-.063q0-.216.297-.234l.938-.094v2.485q-.002.924.781.922.609 0 .984-.391V-3.36l-.578-.094v-.063q0-.216.281-.234l.938-.094v3.407l.578.078q.014.034.016.062c0 .149-.102.23-.297.25l-.89.094V-.47H3.14q-.457.563-1.188.563-1.252 0-1.25-1.422Zm.813-1.124a.37.37 0 0 1-.282-.11.42.42 0 0 1-.109-.297q-.001-.186.11-.296c.07-.07.163-.11.28-.11.114 0 .208.04.282.11.07.074.11.171.11.296 0 .118-.04.215-.11.297a.38.38 0 0 1-.281.11m1.343 0a.37.37 0 0 1-.28-.11.42.42 0 0 1-.11-.297q-.001-.186.11-.296c.07-.07.163-.11.28-.11.114 0 .207.04.282.11.07.074.109.171.109.296 0 .118-.04.215-.11.297a.38.38 0 0 1-.28.11m0 0"/><path id="w" d="M3.578-1.687H.375v-.422h3.203Zm0-1.157H.375v-.406h3.203Zm0 0"/><path id="s" d="M2.531-1.5c0 .75-.406 1.313-.875 1.313-.297 0-.406-.204-.515-.36-.11-.14-.25-.25-.407-.25S.422-.672.422-.5c0 .313.672.594 1.125.594.984 0 1.687-.735 1.687-1.735 0-.765-.53-1.453-1.421-1.453a2.2 2.2 0 0 0-.782.125l.172-1.328c.281.031.547.078.922.078.234 0 .5-.015.828-.047l.125-.546-.047-.032c-.453.047-.89.094-1.297.094-.296 0-.578-.016-.859-.047L.609-2.516a2.6 2.6 0 0 1 1-.187c.516 0 .922.344.922 1.203m0 0"/><path id="t" d="M1.813.078c.609 0 1.53-.61 1.53-2.484 0-.781-.187-1.453-.546-1.906-.203-.282-.531-.516-.953-.516-.797 0-1.531.937-1.531 2.5 0 .844.265 1.64.687 2.078.234.219.5.328.813.328m.03-4.64c.126 0 .25.062.345.14.25.203.468.813.468 1.875 0 .719-.031 1.219-.14 1.625-.172.656-.563.719-.703.719C1.078-.203 1-1.547 1-2.234c0-1.953.484-2.328.844-2.328m0 0"/><path id="u" d="M3.625-.922c.875-.297 1.547-1.11 1.547-2.062 0-1.172-.813-2.235-2.39-2.235C1.218-5.219.39-4.03.39-2.984c0 1.015.687 1.765 1.547 2.062l.03.375h-.874c-.375 0-.5 0-.547-.39a.23.23 0 0 0-.203 0c0 .312.015.64.062.937h1.688c.078 0 .125-.047.125-.125l-.063-1.016C1.437-1.625 1.125-2.109 1.125-3c0-1.016.547-1.937 1.656-1.937 1.031 0 1.656.828 1.656 1.953 0 .859-.312 1.437-1.03 1.843L3.327-.109c0 .062.047.109.14.109h1.657c.031-.266.047-.625.047-.937-.047-.032-.125-.032-.203 0-.047.406-.188.406-.5.39h-.875Zm0 0"/><path id="x" d="M2.281-.969v-2.75c0-.469.016-.953.031-1.062 0-.032-.015-.032-.062-.032-.422.266-.844.47-1.547.782.016.093.047.172.125.218.36-.156.531-.203.688-.203.125 0 .156.204.156.47V-.97c0 .657-.219.703-.766.719-.047.047-.047.219 0 .266C1.296.016 1.578 0 2 0c.39 0 .578.016.969.016.047-.047.047-.22 0-.266-.547-.016-.688-.062-.688-.719m0 0"/><path id="y" d="M1.719-.844c0 .219.187.422.406.422a.43.43 0 0 0 .422-.422.42.42 0 0 0-.422-.422.417.417 0 0 0-.406.422m0-2.25c0 .235.187.422.406.422a.42.42 0 0 0 .422-.422.43.43 0 0 0-.422-.422c-.219 0-.406.204-.406.422m0 0"/><path id="z" d="M1.344-4.234h1.422C2.14-2.704 1.516-1.156.984.046l.063.063.531-.03c.453-1.345.89-2.657 1.781-4.829l-.125-.094c-.14.047-.312.094-.609.094H.985c-.266 0-.25-.078-.391-.11-.016 0-.031 0-.031.016-.016.39-.094.86-.157 1.266a.7.7 0 0 0 .25.031c.172-.64.438-.687.688-.687m0 0"/><clipPath id="a"><path d="M.254 93H38v31H.254Zm0 0"/></clipPath><clipPath id="b"><path d="M.254 108H11v1H.254Zm0 0"/></clipPath><clipPath id="c"><path d="M117 30h108.793v2H117Zm0 0"/></clipPath><clipPath id="d"><path d="M225 9h.793v1H225Zm0 0"/></clipPath><clipPath id="e"><path d="M118 9h107.793v1H118Zm0 0"/></clipPath><clipPath id="f"><path d="M215 2h10.793v16H215Zm0 0"/></clipPath><clipPath id="g"><path d="M224 7h1.793v6H224Zm0 0"/></clipPath></defs><path fill="none" stroke="#000" stroke-miterlimit="10" stroke-width=".39639453" d="M26.438 108.602h6.398m16.289 0h12.219m27.148 0h10.664m0 0h4.848v3.585m0 12.215v3.59"/><g clip-path="url(#a)"><path fill="none" stroke="#000" stroke-miterlimit="10" stroke-width=".79179559" d="M24.809 104.527H11.777c-.898 0-1.629 1.825-1.629 4.075 0 2.246.73 4.07 1.63 4.07h13.03c.899 0 1.63-1.824 1.63-4.07 0-2.25-.731-4.075-1.63-4.075"/></g><path fill="none" stroke="#000" stroke-miterlimit="10" stroke-width=".79179559" d="M24.809 104.527c-.899 0-1.63 1.825-1.63 4.075 0 2.246.731 4.07 1.63 4.07"/><path fill="none" stroke="#000" stroke-miterlimit="10" stroke-width=".39639453" d="M24.809 108.602h1.629"/><path fill="none" stroke="#000" stroke-linejoin="bevel" stroke-miterlimit="10" stroke-width=".79179559" d="M32.441 108.441c0 2.25 1.274 4.07 2.848 4.07 1.57 0 2.844-1.82 2.844-4.07 0 2.25 1.277 4.07 2.847 4.07 1.575 0 2.848-1.82 2.848-4.07 0 2.25 1.274 4.07 2.848 4.07 1.57 0 2.847-1.82 2.847-4.07"/><path fill="none" stroke="#000" stroke-miterlimit="10" stroke-width=".79179559" d="M86.863 104.527h-23.89c-.903 0-1.63 1.825-1.63 4.075 0 2.246.727 4.07 1.63 4.07h23.89c.899 0 1.63-1.824 1.63-4.07 0-2.25-.731-4.075-1.63-4.075"/><path fill="none" stroke="#000" stroke-miterlimit="10" stroke-width=".79179559" d="M86.863 104.527c-.902 0-1.629 1.825-1.629 4.075 0 2.246.727 4.07 1.63 4.07"/><path fill="none" stroke="#000" stroke-miterlimit="10" stroke-width=".39639453" d="M86.863 108.602h1.63"/><path fill="none" stroke="#000" stroke-linejoin="bevel" stroke-miterlimit="10" stroke-width=".79179559" d="M103.848 111.793c2.246 0 4.07 1.453 4.07 3.25s-1.824 3.254-4.07 3.254c2.246 0 4.07 1.453 4.07 3.25s-1.824 3.254-4.07 3.254"/><g clip-path="url(#b)"><path fill="none" stroke="#000" stroke-dasharray="2.9693129401 2.9693129401" stroke-miterlimit="10" stroke-width=".39639453" d="M10.148 108.602H.453"/></g><path fill="none" stroke="#000" stroke-miterlimit="10" stroke-width=".39639453" d="M94.309 108.602v7.722m0 3.942v7.726"/><path fill="none" stroke="#000" stroke-miterlimit="10" stroke-width=".79179559" d="M100.223 116.324H88.395m11.828 3.942H88.395"/><path stroke="#000" stroke-miterlimit="10" stroke-width=".39639453" d="M95.887 108.602a1.579 1.579 0 0 0-3.156 0 1.578 1.578 0 0 0 3.156 0ZM95.887 127.992a1.579 1.579 0 0 0-3.156 0c0 .871.707 1.574 1.578 1.574.87 0 1.578-.703 1.578-1.574Zm0 0"/><path fill="none" stroke="#000" stroke-miterlimit="10" stroke-width=".39639453" d="M24.809 112.672v7.66m0 0v7.66h.816m0 0h7.211m16.289 0h13.848v-15.32m0 0"/><path stroke="#000" stroke-miterlimit="10" stroke-width=".39639453" d="M26.387 112.672a1.579 1.579 0 1 0-3.158.001 1.579 1.579 0 0 0 3.158-.001Zm0 0"/><path fill="none" stroke="#000" stroke-linejoin="bevel" stroke-miterlimit="10" stroke-width=".79179559" d="M32.441 128.148c0-2.246 1.274-4.07 2.848-4.07 1.57 0 2.844 1.824 2.844 4.07 0-2.246 1.277-4.07 2.847-4.07 1.575 0 2.848 1.824 2.848 4.07 0-2.246 1.274-4.07 2.848-4.07 1.57 0 2.847 1.824 2.847 4.07"/><path stroke="#000" stroke-miterlimit="10" stroke-width=".39639453" d="M64.547 112.672a1.575 1.575 0 1 0-3.152 0 1.575 1.575 0 1 0 3.152 0Zm0 0"/><path fill="none" stroke="#000" stroke-miterlimit="10" stroke-width=".39639453" d="M86.863 112.672v15.32h12.293m0 0h12.121m0 0h7.27v-4.363m0-88.235v-4.363"/><path stroke="#000" stroke-miterlimit="10" stroke-width=".39639453" d="M88.438 112.672a1.575 1.575 0 1 0-3.153 0 1.575 1.575 0 1 0 3.152 0ZM105.582 127.992a1.579 1.579 0 0 0-3.156 0c0 .871.707 1.574 1.578 1.574s1.578-.703 1.578-1.574Zm0 0"/><path fill="none" stroke="#000" stroke-linejoin="bevel" stroke-miterlimit="10" stroke-width=".79179559" d="M118.707 124.023c-2.25 0-4.074-1.421-4.074-3.18 0-1.753 1.824-3.179 4.074-3.179-2.25 0-4.074-1.422-4.074-3.18 0-1.754 1.824-3.18 4.074-3.18-2.25 0-4.074-1.421-4.074-3.175 0-1.758 1.824-3.18 4.074-3.18-2.25 0-4.074-1.426-4.074-3.18 0-1.757 1.824-3.18 4.074-3.18-2.25 0-4.074-1.425-4.074-3.179 0-1.758 1.824-3.18 4.074-3.18-2.25 0-4.074-1.425-4.074-3.18 0-1.757 1.824-3.179 4.074-3.179-2.25 0-4.074-1.422-4.074-3.18 0-1.754 1.824-3.18 4.074-3.18-2.25 0-4.074-1.421-4.074-3.179 0-1.754 1.824-3.18 4.074-3.18-2.25 0-4.074-1.422-4.074-3.18 0-1.753 1.824-3.18 4.074-3.18-2.25 0-4.074-1.42-4.074-3.175 0-1.758 1.824-3.18 4.074-3.18-2.25 0-4.074-1.425-4.074-3.18 0-1.757 1.824-3.179 4.074-3.179-2.25 0-4.074-1.426-4.074-3.18 0-1.757 1.824-3.18 4.074-3.18-2.25 0-4.074-1.425-4.074-3.179 0-1.758 1.824-3.18 4.074-3.18-2.25 0-4.074-1.422-4.074-3.18 0-1.753 1.824-3.18 4.074-3.18"/><g clip-path="url(#c)"><path fill="none" stroke="#000" stroke-miterlimit="10" stroke-width="1.18819012" d="M118.547 31.031h106.656"/></g><path fill="none" stroke="#000" stroke-dasharray="2.9693129401 2.9693129401" stroke-miterlimit="10" stroke-width=".39639453" d="M111.277 123.629V79.512m0 0V35.394M32.836 118.297h8.144m0 0h8.145"/><path fill="none" stroke="#999" stroke-miterlimit="10" stroke-width=".0099347" d="M118.547 9.703"/><g clip-path="url(#d)"><path fill="none" stroke="#999" stroke-miterlimit="10" stroke-width=".0099347" d="M225.203 9.703"/></g><g clip-path="url(#e)"><path fill="none" stroke="#000" stroke-miterlimit="10" stroke-width=".39639453" d="M118.844 9.703h106.062"/></g><path stroke="#000" stroke-miterlimit="10" stroke-width=".39639453" d="m119.34 9.703 2.953 1.75V7.95Zm0 0"/><path fill="none" stroke="#000" stroke-miterlimit="10" stroke-width=".39639453" d="M118.746 11.98V7.426"/><path d="m224.41 9.703-2.953-1.754v3.504Zm0 0"/><g clip-path="url(#f)"><path fill="none" stroke="#000" stroke-miterlimit="10" stroke-width=".39639453" d="m224.41 9.703-2.953-1.754v3.504Zm0 0"/></g><g clip-path="url(#g)"><path fill="none" stroke="#000" stroke-miterlimit="10" stroke-width=".39639453" d="M225.004 7.426v4.554"/></g><path fill="#FFF" d="M162.09 19.406h19.57V0h-19.57Zm0 0"/><use xlink:href="#h" x="165.057" y="12.148"/><use xlink:href="#i" x="173.711" y="7.872"/><path fill="none" stroke="#000" stroke-miterlimit="10" stroke-width=".5791930099999999" d="M173.71 9.832h3.79"/><use xlink:href="#j" x="173.949" y="16.424"/><path fill="none" stroke="#999" stroke-miterlimit="10" stroke-width=".0099347" d="M86.863 94.832"/><path fill="none" stroke="#000" stroke-miterlimit="10" stroke-width=".39639453" d="M63.27 94.832h23.296"/><path stroke="#000" stroke-miterlimit="10" stroke-width=".39639453" d="m63.762 94.832 2.957 1.75v-3.504Zm0 0"/><path fill="none" stroke="#000" stroke-miterlimit="10" stroke-width=".39639453" d="M63.168 97.11v-4.555"/><path stroke="#000" stroke-miterlimit="10" stroke-width=".39639453" d="m86.07 94.832-2.953-1.754v3.504Zm0 0"/><path fill="none" stroke="#000" stroke-miterlimit="10" stroke-width=".39639453" d="M86.664 92.555v4.554"/><path fill="#FFF" d="M60.633 87.375h28.566v-13.25H60.633Zm0 0"/><use xlink:href="#k" x="63.602" y="83.223"/><use xlink:href="#l" x="67.744" y="83.223"/><use xlink:href="#k" x="69.703" y="83.223"/><use xlink:href="#m" x="73.846" y="83.223"/><use xlink:href="#n" x="79.472" y="83.223"/><use xlink:href="#o" x="81.492" y="83.223"/><use xlink:href="#p" x="31.709" y="138.074"/><use xlink:href="#q" x="38.685" y="138.074"/><use xlink:href="#r" x="46.271" y="138.074"/><use xlink:href="#s" x="11.192" y="101.274"/><use xlink:href="#t" x="14.874" y="101.274"/><use xlink:href="#u" x="19.87" y="101.274"/><use xlink:href="#v" x="123.071" y="82.11"/><use xlink:href="#w" x="129.286" y="82.11"/><use xlink:href="#x" x="134.957" y="82.11"/><use xlink:href="#y" x="140.832" y="82.11"/><use xlink:href="#z" x="147.206" y="82.11"/></svg>