<svg xmlns="http://www.w3.org/2000/svg" width="113.388" height="85.041"><defs><clipPath id="a"><path d="M.328 5h112.125v74H.328Zm0 0"/></clipPath><clipPath id="b"><path d="M.328 0h112.125v48H.328Zm0 0"/></clipPath><clipPath id="c"><path d="M.328 36h112.125v48.094H.328Zm0 0"/></clipPath></defs><g clip-path="url(#a)"><path fill="#7F7F7F" fill-opacity=".5" d="m.328 15.29.567.737.562.735A113.032 113.032 0 0 0 2.582 18.2c.156.195.41.503.566.695a51 51 0 0 0 1.125 1.32c.157.176.407.453.563.62.156.165.406.427.566.583.157.16.407.402.563.55.156.145.406.372.562.509.157.132.407.343.563.464a11.696 11.696 0 0 0 1.691 1.113 8.281 8.281 0 0 0 1.125.48c.157.052.41.122.567.161.156.035.406.082.562.102s.406.039.563.047c.156.004.406-.004.562-.012.156-.012.41-.043.567-.07s.406-.082.562-.125.406-.125.563-.18a9 9 0 0 0 1.128-.527c.157-.086.407-.239.563-.34s.406-.277.562-.395c.157-.113.407-.308.563-.437.156-.13.406-.344.566-.48a23 23 0 0 0 1.125-1.09c.157-.16.407-.43.563-.598a46 46 0 0 0 1.129-1.293c.156-.184.406-.488.562-.68.157-.191.407-.508.563-.703l.562-.719c.157-.199.41-.527.567-.73l.562-.735.563-.742.562-.734c.156-.207.41-.531.567-.734l.562-.72c.156-.198.406-.51.563-.706.156-.192.406-.5.562-.688s.41-.48.567-.66A31 31 0 0 1 28.5 8.934c.156-.157.406-.391.566-.536.157-.14.407-.359.563-.492.156-.129.406-.328.562-.445s.407-.297.563-.402c.156-.102.406-.258.562-.348a8 8 0 0 1 1.692-.738 6 6 0 0 1 1.129-.22c.156-.01.406-.023.562-.019.156 0 .406.016.563.032a6.052 6.052 0 0 1 1.129.242c.156.047.406.14.562.203.156.062.406.18.563.258s.406.218.562.312c.156.09.41.254.567.36.156.109.406.289.562.41.156.12.406.324.563.457s.406.355.562.5a26.443 26.443 0 0 1 1.691 1.734c.157.172.407.457.563.64.156.184.406.481.562.669.157.191.41.496.567.691a113 113 0 0 1 1.125 1.434c.156.203.406.527.562.734.157.203.41.531.567.738.156.204.406.532.562.739.157.203.407.531.563.734s.406.527.562.727c.157.203.41.52.567.715a55 55 0 0 0 1.687 2.03c.156.177.41.458.567.626a27 27 0 0 0 1.125 1.148c.156.149.406.38.562.516.156.137.406.347.563.472.16.125.41.317.566.43.156.11.406.281.562.38.157.097.407.245.563.331.156.082.406.207.562.277s.41.172.567.227.406.129.562.168.407.09.563.113.406.051.562.055c.157.008.41.008.567 0s.406-.031.562-.055c.157-.027.407-.078.563-.117s.406-.113.562-.168c.157-.058.41-.156.567-.226a9.4 9.4 0 0 0 1.125-.614c.156-.097.406-.27.562-.379.156-.113.41-.304.567-.43a20 20 0 0 0 1.125-.992c.156-.148.406-.398.562-.558s.406-.422.563-.59c.16-.172.41-.45.566-.625a51.556 51.556 0 0 0 1.688-2.031c.156-.2.41-.516.566-.715l.562-.73.563-.735c.156-.203.406-.535.562-.738.157-.207.41-.535.567-.738.156-.207.406-.532.562-.735a117 117 0 0 1 1.125-1.433 107 107 0 0 1 1.13-1.356c.155-.184.405-.469.562-.644.156-.172.406-.446.562-.61A23.914 23.914 0 0 1 74.703 8.5c.156-.145.406-.367.563-.5s.406-.336.562-.457.406-.3.563-.41a10.018 10.018 0 0 1 1.129-.668 7 7 0 0 1 1.125-.461c.156-.047.41-.113.566-.149.156-.03.406-.07.562-.09.157-.015.407-.03.563-.03.156-.005.406.007.562.023.157.012.41.05.567.078.156.031.406.094.562.137.157.047.407.132.563.195.156.062.406.172.562.246.157.078.41.211.567.3.156.095.406.25.562.352.156.106.406.286.563.403a19 19 0 0 1 1.129.941c.156.14.406.38.562.531.156.157.406.41.563.575s.406.433.562.605a47 47 0 0 1 1.692 1.988c.156.192.406.508.562.707.156.196.406.52.563.72.156.202.41.527.566.73.156.207.406.535.562.738l.563.742.562.734c.157.204.41.528.567.73l.562.72c.157.195.407.508.563.699.156.195.406.496.562.683s.41.481.567.657c.156.18.406.46.562.633.157.168.407.437.563.597s.406.41.562.563.407.383.567.523c.156.14.406.356.562.485.156.125.406.32.563.437a12 12 0 0 0 1.125.73 10 10 0 0 0 1.129.524c.156.055.406.137.562.18s.406.097.563.125c.156.023.41.054.566.066s.406.016.563.012c.156-.008.406-.028.562-.047a10 10 0 0 0 .563-.106c.156-.035.41-.109.566-.16.156-.05.406-.148.562-.215a9 9 0 0 0 1.125-.59c.157-.097.41-.265.567-.374.156-.11.406-.297.562-.418a20 20 0 0 0 1.125-.977c.157-.148.407-.39.563-.55a29.445 29.445 0 0 0 1.129-1.203 48 48 0 0 0 1.125-1.325c.156-.188.566-.695.566-.695v47.722l-.566-.695a52 52 0 0 0-.563-.676c-.156-.18-.406-.469-.562-.644a45 45 0 0 0-.563-.621 24.417 24.417 0 0 0-1.691-1.645 20 20 0 0 0-.563-.465 13 13 0 0 0-.562-.422 12 12 0 0 0-1.13-.695 9 9 0 0 0-1.124-.484c-.156-.051-.41-.121-.567-.16a7 7 0 0 0-.562-.102 7 7 0 0 0-.562-.047c-.157-.004-.407 0-.563.012a5.6 5.6 0 0 0-1.129.191 6 6 0 0 0-.562.18c-.157.058-.407.16-.563.234s-.41.203-.566.29a11 11 0 0 0-1.125.73c-.157.113-.407.308-.563.437a21 21 0 0 0-1.129 1.004 27.955 27.955 0 0 0-1.125 1.164c-.156.168-.406.45-.562.63-.156.179-.41.472-.567.655-.156.188-.406.493-.562.684a55 55 0 0 0-.563.703 58 58 0 0 0-.562.719c-.156.199-.41.523-.567.726-.156.204-.406.532-.562.739-.156.203-.406.535-.563.738a121 121 0 0 1-1.128 1.469c-.157.203-.407.523-.563.722-.156.2-.406.512-.562.707-.157.192-.407.5-.563.688s-.41.48-.566.664c-.157.18-.407.46-.563.637-.156.172-.406.441-.562.605-.157.16-.407.418-.563.57-.156.153-.406.391-.562.536-.16.14-.41.359-.567.492-.156.129-.406.328-.562.445s-.406.297-.563.402-.406.262-.562.352-.41.227-.567.3a9 9 0 0 1-.562.25 11 11 0 0 1-.563.192 7 7 0 0 1-.562.137c-.156.031-.41.066-.567.082a9 9 0 0 1-.562.023c-.156 0-.406-.015-.563-.035a6.052 6.052 0 0 1-1.129-.238 8 8 0 0 1-.562-.2c-.156-.066-.406-.179-.562-.257a13 13 0 0 1-.563-.309 12 12 0 0 1-1.129-.773 14 14 0 0 1-1.125-.953 26.443 26.443 0 0 1-1.691-1.73c-.157-.173-.407-.462-.563-.641-.156-.184-.406-.48-.562-.668a54 54 0 0 1-1.13-1.403c-.155-.195-.405-.52-.562-.722-.156-.2-.406-.528-.562-.73-.156-.208-.41-.536-.567-.74l-.562-.737a121 121 0 0 0-1.125-1.465 114 114 0 0 0-1.129-1.414 48.48 48.48 0 0 0-1.125-1.332 41.498 41.498 0 0 0-1.129-1.219 25 25 0 0 0-1.125-1.074 20 20 0 0 0-.562-.473c-.157-.125-.41-.316-.567-.43a12 12 0 0 0-.562-.382 14 14 0 0 0-.563-.332 13 13 0 0 0-.562-.278 9 9 0 0 0-.567-.226 8 8 0 0 0-.562-.172 7 7 0 0 0-.563-.114 7 7 0 0 0-.562-.058 7 7 0 0 0-.567 0 7 7 0 0 0-.562.055 7 7 0 0 0-.563.113 8 8 0 0 0-1.129.394 9.4 9.4 0 0 0-1.125.61 16 16 0 0 0-1.128.808 20 20 0 0 0-1.688 1.547 44.737 44.737 0 0 0-1.129 1.215 51.562 51.562 0 0 0-1.687 2.031c-.157.196-.41.516-.567.715a118 118 0 0 0-1.125 1.465c-.156.203-.406.531-.562.738l-.567.739-.562.734-.563.723a56 56 0 0 1-1.129 1.398 47.484 47.484 0 0 1-1.125 1.313l-.562.613a26 26 0 0 1-1.129 1.117c-.156.145-.406.367-.562.5a12.797 12.797 0 0 1-1.125.867 10.018 10.018 0 0 1-1.129.672 8.17 8.17 0 0 1-1.125.465 7.036 7.036 0 0 1-1.129.238 9 9 0 0 1-.563.035 7 7 0 0 1-.562-.023 9 9 0 0 1-.567-.078 10 10 0 0 1-.562-.137 11 11 0 0 1-.563-.191 12 12 0 0 1-.562-.246c-.156-.079-.41-.211-.567-.301a11 11 0 0 1-1.125-.754 15.836 15.836 0 0 1-1.125-.937c-.16-.141-.41-.38-.566-.532a26 26 0 0 1-1.125-1.176 47 47 0 0 1-1.691-1.988c-.157-.191-.407-.508-.563-.703-.156-.2-.406-.52-.562-.723l-.567-.73c-.156-.203-.406-.535-.562-.738-.157-.204-.407-.536-.563-.739-.156-.207-.406-.535-.562-.738l-.567-.73c-.156-.2-.406-.52-.562-.715a55 55 0 0 0-1.692-2.047c-.156-.176-.406-.457-.562-.63a28 28 0 0 0-1.125-1.163 34 34 0 0 0-.563-.524c-.16-.14-.41-.355-.566-.484a18 18 0 0 0-.563-.437 10.767 10.767 0 0 0-1.125-.73 10 10 0 0 0-.566-.294c-.156-.07-.406-.176-.562-.234a8 8 0 0 0-.563-.184 10 10 0 0 0-.562-.125 7 7 0 0 0-.567-.066 5.46 5.46 0 0 0-1.125.035 6 6 0 0 0-.562.101c-.157.036-.41.106-.567.157-.156.054-.406.148-.562.215a9 9 0 0 0-1.125.59c-.156.097-.41.261-.567.37-.156.11-.406.297-.562.418a20 20 0 0 0-1.688 1.524c-.16.156-.41.418-.566.586s-.406.441-.563.617-.406.465-.562.648c-.156.184-.406.485-.563.672-.156.192-.41.5-.566.696s-.406.515-.562.714l-.563.723-.562.734c-.157.208-.567.743-.567.743Zm0 0"/></g><g clip-path="url(#b)"><path fill="none" stroke="#000" stroke-miterlimit="10" stroke-width="1.5762269" d="m.328 15.29.567.737.562.735A113.034 113.034 0 0 0 2.582 18.2c.156.195.41.503.566.695a51 51 0 0 0 1.125 1.32c.157.176.407.453.563.62.156.165.406.427.566.583.157.16.407.402.563.55.156.145.406.372.562.509.157.132.407.343.563.464s.406.309.562.418a12 12 0 0 0 1.13.696 8.282 8.282 0 0 0 1.125.48c.156.05.41.121.566.16.156.035.406.082.562.102s.406.039.563.047c.156.004.406-.004.562-.012.156-.012.41-.043.567-.07a7 7 0 0 0 .562-.125c.156-.043.406-.125.563-.18a9 9 0 0 0 1.128-.527c.157-.086.407-.239.563-.34s.406-.278.562-.395c.157-.113.407-.308.563-.437.156-.13.406-.344.566-.48a23 23 0 0 0 1.125-1.09c.157-.16.407-.43.563-.598a46 46 0 0 0 1.129-1.293c.156-.184.406-.488.562-.68.157-.191.407-.508.563-.703l.562-.719c.157-.199.41-.527.567-.73l.562-.735.563-.742.562-.734c.156-.207.41-.531.567-.734l.562-.72c.156-.198.406-.51.563-.706.156-.192.406-.5.562-.688s.41-.48.567-.66A31 31 0 0 1 28.5 8.934c.156-.157.406-.391.566-.536.157-.14.407-.359.563-.492.156-.129.406-.328.562-.445s.407-.297.563-.402c.156-.102.406-.258.562-.348a8 8 0 0 1 1.692-.738 6 6 0 0 1 1.129-.22c.156-.01.406-.023.562-.019.156 0 .406.016.563.032a6.052 6.052 0 0 1 1.129.242c.156.047.406.14.562.203.156.062.406.18.563.258s.406.218.562.312c.156.09.41.254.567.36.156.109.406.289.562.41.156.12.406.324.563.457s.406.355.562.5a26.443 26.443 0 0 1 1.691 1.734c.157.172.407.457.563.64.156.184.406.481.562.669.157.191.41.496.567.691a113 113 0 0 1 1.125 1.434c.156.203.406.527.562.734.157.203.41.531.567.738.156.204.406.532.562.739.157.203.407.531.563.734s.406.527.562.727c.157.203.41.52.567.714a55 55 0 0 0 1.687 2.032c.156.176.41.457.567.625a27 27 0 0 0 1.125 1.148c.156.149.406.38.562.516.156.137.406.347.563.472.16.125.41.317.566.43.156.11.406.281.562.38.157.097.407.245.563.331.156.082.406.207.562.277s.41.172.567.227.406.129.562.168.407.09.563.113.406.051.562.055c.157.008.41.008.567 0s.406-.031.562-.055c.157-.027.407-.078.563-.117s.406-.113.562-.168c.157-.059.41-.156.567-.226a9.4 9.4 0 0 0 1.125-.614c.156-.097.406-.27.562-.379.156-.113.41-.304.567-.43a20 20 0 0 0 1.125-.992c.156-.148.406-.398.562-.558s.406-.422.563-.59c.16-.172.41-.45.566-.625a51.556 51.556 0 0 0 1.125-1.332c.156-.191.406-.504.563-.7.156-.198.41-.515.566-.714l.562-.73.563-.735c.156-.203.406-.535.562-.738.157-.207.41-.535.567-.738.156-.208.406-.532.562-.735a117 117 0 0 1 1.125-1.433 107 107 0 0 1 1.13-1.356c.155-.184.405-.469.562-.644.156-.172.406-.446.562-.61A23.914 23.914 0 0 1 74.703 8.5c.156-.145.406-.367.563-.5s.406-.336.562-.457.406-.3.563-.41a10.018 10.018 0 0 1 1.129-.668 7 7 0 0 1 1.125-.461c.156-.047.41-.113.566-.149a9 9 0 0 1 .562-.09c.157-.015.407-.03.563-.03.156-.005.406.007.562.023.157.012.41.05.567.078.156.031.406.094.562.137.157.047.407.132.563.195.156.062.406.172.562.246.157.078.41.211.567.3.156.095.406.25.562.352.157.106.407.286.563.403a19 19 0 0 1 1.129.941c.156.14.406.38.562.531.156.157.406.41.563.575s.406.433.562.605a47 47 0 0 1 1.692 1.988c.156.192.406.508.562.707.156.196.406.52.563.72.156.202.41.526.566.73.156.207.406.535.562.738l.563.742.562.734c.157.204.41.528.567.73l.562.72c.157.195.407.507.563.699.156.195.406.496.562.683s.41.481.567.657c.156.18.406.46.562.633.157.168.407.437.563.597s.406.41.562.563.407.383.567.523c.156.14.406.356.562.485.156.125.406.32.563.437a12 12 0 0 0 1.125.73 10 10 0 0 0 1.129.524c.156.055.406.137.562.18s.406.097.563.125c.156.023.41.054.566.066s.406.016.563.012c.156-.008.406-.028.562-.047a10 10 0 0 0 .563-.106c.156-.035.41-.109.566-.16.156-.05.406-.148.562-.215a9 9 0 0 0 1.125-.59c.157-.097.41-.265.567-.374.156-.11.406-.297.562-.418a20 20 0 0 0 1.125-.977c.157-.148.407-.39.563-.55a29.446 29.446 0 0 0 1.129-1.203 48 48 0 0 0 1.125-1.325c.156-.188.566-.695.566-.695"/></g><g clip-path="url(#c)"><path fill="none" stroke="#000" stroke-miterlimit="10" stroke-width="1.5762269" d="M.328 68.805s.41-.535.567-.743l.562-.734.563-.723c.156-.199.406-.52.562-.714.156-.196.41-.504.566-.696.157-.187.407-.488.563-.672.156-.183.406-.472.562-.648s.407-.45.563-.617a24.417 24.417 0 0 1 1.129-1.133 19.853 19.853 0 0 1 1.125-.977c.156-.12.406-.308.562-.418s.41-.273.567-.37a9.206 9.206 0 0 1 1.125-.59c.156-.067.406-.16.562-.215.157-.051.41-.121.567-.157a6 6 0 0 1 .562-.101 5.5 5.5 0 0 1 1.125-.035c.156.011.41.039.567.066s.406.086.562.125c.156.043.406.125.563.184s.406.164.562.234a10 10 0 0 1 1.129.633c.156.101.406.277.562.39.157.114.407.313.563.438.156.129.406.344.566.484.157.141.407.375.563.524a27.958 27.958 0 0 1 1.125 1.164 49.574 49.574 0 0 1 1.129 1.29 55.38 55.38 0 0 1 1.125 1.387c.156.194.406.514.562.714l.567.73c.156.203.406.531.562.738.156.203.406.535.563.739s.406.535.562.738.41.527.567.73.406.524.562.723c.156.195.406.512.563.703.156.195.406.5.562.688a50 50 0 0 0 1.129 1.3A25.991 25.991 0 0 0 28.5 75.16c.156.152.406.39.566.531a16 16 0 0 0 1.125.938 11.07 11.07 0 0 0 1.125.754c.157.09.41.222.567.3.156.075.406.184.562.247.157.058.407.144.563.191.156.043.406.106.562.137.157.027.41.062.567.078s.406.023.562.023c.156-.004.406-.02.563-.035a7 7 0 0 0 1.129-.238 8.2 8.2 0 0 0 1.687-.774 12 12 0 0 0 1.129-.773c.156-.121.406-.324.563-.457a22 22 0 0 0 1.69-1.617c.157-.168.407-.442.563-.613a48 48 0 0 0 1.125-1.313 54 54 0 0 0 1.13-1.398c.156-.2.406-.524.562-.723l.562-.734.567-.739c.156-.207.406-.535.562-.738a121 121 0 0 1 1.125-1.465c.157-.199.41-.52.567-.715s.406-.507.562-.699a52 52 0 0 1 1.125-1.332 45 45 0 0 1 1.13-1.215 22.47 22.47 0 0 1 1.125-1.07c.155-.137.405-.352.562-.477a15.928 15.928 0 0 1 1.129-.809 11 11 0 0 1 1.124-.609 7.72 7.72 0 0 1 1.129-.395c.157-.038.407-.089.563-.112s.406-.047.562-.055.41-.008.567 0 .406.035.562.058c.157.024.407.075.563.114s.406.117.562.172.41.156.567.226.406.196.562.278c.156.085.406.234.563.332.156.097.406.27.562.382.156.114.41.305.567.43s.406.336.562.473a24.929 24.929 0 0 1 1.688 1.668c.16.168.41.445.566.625a49 49 0 0 1 1.688 2.031c.156.195.41.516.566.715a118 118 0 0 1 1.125 1.465c.156.203.406.53.562.738.157.203.41.531.567.738.156.203.406.531.562.73a113.033 113.033 0 0 0 1.125 1.434c.157.196.41.504.567.692s.406.484.562.668a43.705 43.705 0 0 0 1.125 1.254 26 26 0 0 0 1.13 1.117 14.293 14.293 0 0 0 1.688 1.363c.155.11.409.27.565.363.156.09.406.23.563.309s.406.191.562.258c.156.062.406.152.563.199a6 6 0 0 0 1.128.238c.157.02.407.035.563.035s.406-.011.562-.023c.157-.016.41-.05.567-.082a7 7 0 0 0 .562-.137c.157-.047.407-.133.563-.191a9 9 0 0 0 1.129-.551 11 11 0 0 0 1.125-.754c.156-.117.406-.316.562-.445.157-.133.407-.352.567-.492.156-.145.406-.383.562-.536.156-.152.406-.41.563-.57.156-.164.406-.433.562-.605.156-.176.406-.457.563-.637.156-.184.41-.477.566-.664s.406-.496.563-.688a112 112 0 0 0 1.691-2.16c.156-.203.406-.531.562-.738.157-.203.407-.535.563-.738.156-.207.406-.536.562-.739s.41-.527.567-.726c.156-.203.406-.524.562-.719a55 55 0 0 1 1.125-1.387c.157-.183.41-.476.567-.656a30 30 0 0 1 1.125-1.226c.156-.165.406-.415.562-.567a20.47 20.47 0 0 1 1.129-1.004 14 14 0 0 1 1.125-.828c.156-.101.406-.254.563-.34s.41-.215.566-.289.406-.176.563-.234a6.3 6.3 0 0 1 1.125-.305c.156-.027.41-.058.566-.066.156-.012.406-.016.563-.012s.406.027.562.047.406.066.563.101c.156.04.41.11.566.16a8.3 8.3 0 0 1 1.687.81c.157.093.41.26.567.37s.406.297.562.422c.157.121.407.332.563.465a22 22 0 0 1 1.125 1.059c.16.156.41.418.566.586s.406.445.563.62c.156.176.406.465.562.645.156.184.406.485.563.676l.566.695"/></g></svg>