<svg xmlns="http://www.w3.org/2000/svg" xmlns:xlink="http://www.w3.org/1999/xlink" width="227.718" height="75.929"><defs><path id="d" d="m4.5-.484-.594-1.641H1.688l-.594 1.64.672.126q.124.017.125.093 0 .066-.094.266H-.078a.2.2 0 0 1-.016-.078Q-.096-.342.22-.406l.25-.063L2.64-6.172l.562-.078L5.36-.469l.391.11q.124.034.125.093 0 .048-.094.266H3.86a.16.16 0 0 1-.015-.078c0-.164.101-.274.312-.328Zm-2.64-2.11h1.89l-.937-2.625h-.016Zm0 0"/><path id="f" d="M2.563-6.172q2.295 0 2.296 1.547-.002 1.208-1.328 1.453v.016Q4.998-2.967 5-1.734 4.998-.95 4.406-.5c-.43.336-1.023.5-1.781.5H.422a.16.16 0 0 1-.016-.078Q.404-.324.72-.406L1.094-.5v-5.203l-.547-.125c-.086-.02-.125-.05-.125-.094q0-.075.094-.25ZM2.53-.5q.81.001 1.25-.344.388-.328.39-.89a.98.98 0 0 0-.421-.828q-.408-.33-1.156-.329h-.719V-.5ZM2.47-3.36q.796.001 1.219-.343c.238-.195.359-.469.359-.813 0-.77-.524-1.156-1.563-1.156h-.609v2.313Zm0 0"/><path id="h" d="M2.766-3.375H4.5v.516H2.766V-1h-.563v-1.86H.484v-.515h1.72v-1.844h.562Zm0 0"/><path id="i" d="m.375-.406 1.344-1.531q.78-.903.781-1.782 0-1.109-.797-1.11c-.21 0-.422.056-.64.157q-.082.315-.094.781a1 1 0 0 1-.188.016q-.39.002-.39-.312 0-.482.375-.782c.257-.195.609-.297 1.047-.297q.638 0 1.03.375.406.364.407 1.032 0 .596-.375 1.203-.234.391-.797 1l-.875.953v.015H3l.172-.703a.4.4 0 0 1 .172-.03q.201 0 .203.312 0 .314-.094 1.109h-3Zm0 0"/><path id="j" d="M1.234-2.812q1.343-.154 1.344-1.063 0-.951-.797-.953-.362 0-.625.172a3 3 0 0 0-.11.734 1 1 0 0 1-.187.016q-.375 0-.375-.328 0-.452.391-.735c.27-.195.625-.297 1.063-.297.414 0 .742.118.984.344q.375.329.375.89 0 .565-.375.907-.252.251-.797.438v.015q.639.094.984.422.342.33.344.828-.001.659-.5 1.094-.486.422-1.265.422c-.43 0-.75-.086-.97-.25A.53.53 0 0 1 .485-.61q0-.357.344-.485.122.315.25.453.282.299.75.297.89 0 .89-.937 0-.997-1.484-1.11Zm0 0"/><path id="k" d="M1.984-.344c.657 0 .985-.742.985-2.234q0-2.233-.985-2.234c-.648 0-.968.746-.968 2.234 0 1.492.32 2.234.968 2.234m-.03.438a1.38 1.38 0 0 1-1.22-.656Q.266-1.266.266-2.578c0-.875.164-1.55.5-2.031q.468-.657 1.265-.657.78 0 1.219.657c.3.468.453 1.148.453 2.03q-.001 1.314-.5 2.017c-.305.437-.719.656-1.25.656m0 0"/><path id="l" d="M5.188-5.484c.007.023.015.043.015.062 0 .156-.09.258-.266.297l-.218.047L2.922 0h-.656L.406-5.078l-.343-.078c-.07-.02-.11-.055-.11-.11 0-.05.035-.125.094-.218h1.766c.007.023.015.043.015.062q0 .223-.281.281l-.328.079L2.688-.798h.015l1.5-4.281-.61-.094q-.11-.029-.109-.094 0-.06.094-.218Zm0 0"/><path id="m" d="M1.813-.516v-3.937L.609-4.22a1 1 0 0 1-.015-.172q0-.186.187-.25l1.313-.53H2.5v4.655l.969.157q.124.017.125.093c0 .055-.04.141-.11.266H.766v-.078q-.001-.264.25-.313Zm0 0"/><path id="n" d="M1-5.172h2.281l-.047.688H1.36L1.25-3.22c.77.031 1.328.196 1.672.485.32.273.484.683.484 1.234 0 .438-.164.813-.484 1.125q-.471.47-1.235.469c-.43 0-.746-.082-.953-.235-.168-.125-.25-.273-.25-.453q0-.356.344-.484.154.33.266.437.265.299.734.297.47.002.75-.297.265-.28.266-.734-.001-.64-.5-.922c-.336-.195-.867-.297-1.594-.297Zm0 0"/><clipPath id="a"><path d="M19 62h15v13.848H19Zm0 0"/></clipPath><clipPath id="b"><path d="M109 .012h40V32h-40Zm0 0"/></clipPath><clipPath id="c"><path d="M136 .012h2V21h-2Zm0 0"/></clipPath><clipPath id="e"><path d="M208 62h15v13.848h-15Zm0 0"/></clipPath><clipPath id="g"><path d="M165 62h15v13.848h-15Zm0 0"/></clipPath></defs><path fill="none" stroke="#000" stroke-linejoin="bevel" stroke-miterlimit="10" stroke-width=".79601172" d="M44.23 23.793c3.286 0 5.946 1.82 5.946 4.062s-2.66 4.063-5.946 4.063c3.286 0 5.946 1.82 5.946 4.062 0 2.247-2.66 4.067-5.946 4.067 3.286 0 5.946 1.816 5.946 4.062 0 2.243-2.66 4.063-5.946 4.063 3.286 0 5.946 1.82 5.946 4.062s-2.66 4.063-5.946 4.063M68.332 56.297c-3.285 0-5.945-1.82-5.945-4.063s2.66-4.062 5.945-4.062c-3.285 0-5.945-1.82-5.945-4.063 0-2.246 2.66-4.062 5.945-4.062-3.285 0-5.945-1.82-5.945-4.067 0-2.242 2.66-4.062 5.945-4.062-3.285 0-5.945-1.82-5.945-4.063s2.66-4.062 5.945-4.062"/><path fill="none" stroke="#000" stroke-miterlimit="10" stroke-width=".39850524000000004" d="M26.555 10.316H44.39v13.875m0 31.707v13.875H26.555m59.453-59.457H68.172v13.875m0 31.707v13.875h17.836"/><path fill="none" stroke="#000" stroke-miterlimit="10" stroke-width=".79601172" d="M57.766 54.91V25.18m-2.97 29.73V25.18"/><path fill="#FFF" stroke="#000" stroke-miterlimit="10" stroke-width=".39850524000000004" d="M28.14 10.316c0-.875-.71-1.582-1.585-1.582a1.584 1.584 0 1 0 0 3.168c.875 0 1.586-.71 1.586-1.586Zm0 0"/><path fill="#FFF" d="M28.14 69.773a1.587 1.587 0 0 0-3.171 0c0 .875.71 1.582 1.586 1.582.875 0 1.586-.707 1.586-1.582m0 0"/><g clip-path="url(#a)"><path fill="none" stroke="#000" stroke-miterlimit="10" stroke-width=".39850524000000004" d="M28.14 69.773a1.587 1.587 0 0 0-3.171 0c0 .875.71 1.582 1.586 1.582.875 0 1.586-.707 1.586-1.582Zm0 0"/></g><path fill="none" stroke="#000" stroke-miterlimit="10" stroke-width=".39850524000000004" d="M86.008 10.316h35.215m15.855 0h35.211"/><g clip-path="url(#b)"><path fill="none" stroke="#000" stroke-miterlimit="10" stroke-width=".79601172" d="M137.078 10.316 121.223.41v19.817Zm0 0"/></g><path fill="none" stroke="#000" stroke-miterlimit="10" stroke-width=".39850524000000004" d="M137.078 10.316h-15.855"/><g clip-path="url(#c)"><path fill="none" stroke="#000" stroke-miterlimit="10" stroke-width=".79601172" d="M137.078 20.227V.41"/></g><path stroke="#000" stroke-miterlimit="10" stroke-width=".39850524000000004" d="M173.875 10.316c0-.875-.711-1.582-1.586-1.582a1.584 1.584 0 1 0 0 3.168c.875 0 1.586-.71 1.586-1.586Zm0 0"/><path fill="none" stroke="#000" stroke-miterlimit="10" stroke-width=".39850524000000004" d="M172.289 10.316h21.57m0 0h21.57"/><path fill="#FFF" stroke="#000" stroke-miterlimit="10" stroke-width=".39850524000000004" d="M217.016 10.316c0-.875-.711-1.582-1.586-1.582a1.584 1.584 0 1 0 0 3.168c.875 0 1.586-.71 1.586-1.586Zm0 0"/><use xlink:href="#d" x="218.612" y="13.444"/><path fill="none" stroke="#000" stroke-miterlimit="10" stroke-width=".39850524000000004" d="M86.008 69.773h43.14m0 0h64.711m0 0h21.57"/><path fill="#FFF" d="M217.016 69.773a1.587 1.587 0 0 0-3.172 0c0 .875.71 1.582 1.586 1.582.875 0 1.586-.707 1.586-1.582m0 0"/><g clip-path="url(#e)"><path fill="none" stroke="#000" stroke-miterlimit="10" stroke-width=".39850524000000004" d="M217.016 69.773a1.587 1.587 0 0 0-3.172 0c0 .875.71 1.582 1.586 1.582.875 0 1.586-.707 1.586-1.582Zm0 0"/></g><use xlink:href="#f" x="218.612" y="72.862"/><path fill="none" stroke="#000" stroke-miterlimit="10" stroke-width=".39850524000000004" d="M172.289 10.316v25.766m0 7.926v25.765"/><path fill="none" stroke="#000" stroke-miterlimit="10" stroke-width=".79601172" d="M184.18 36.082h-23.782m23.782 7.926h-23.782"/><path d="M173.875 69.773a1.587 1.587 0 0 0-3.172 0c0 .875.711 1.582 1.586 1.582s1.586-.707 1.586-1.582m0 0"/><g clip-path="url(#g)"><path fill="none" stroke="#000" stroke-miterlimit="10" stroke-width=".39850524000000004" d="M173.875 69.773a1.587 1.587 0 0 0-3.172 0c0 .875.711 1.582 1.586 1.582s1.586-.707 1.586-1.582Zm0 0"/></g><use xlink:href="#h" x="157.91" y="32.898"/><path fill="none" stroke="#000" stroke-miterlimit="10" stroke-width=".39850524000000004" d="M.2 50.832c2.109-3.316 4.128-6.473 6.468-6.473 2.344 0 4.363 3.157 6.473 6.473 2.109 3.313 4.129 6.469 6.468 6.469 2.344 0 4.364-3.156 6.473-6.469M86.48 50.832c2.11-3.316 4.13-6.473 6.47-6.473 2.343 0 4.362 3.157 6.472 6.473 2.11 3.313 4.129 6.469 6.469 6.469 2.343 0 4.363-3.156 6.472-6.469"/><use xlink:href="#i" x="3.928" y="31.959"/><use xlink:href="#j" x="7.908" y="31.959"/><use xlink:href="#k" x="11.888" y="31.959"/><use xlink:href="#l" x="17.19" y="31.959"/><use xlink:href="#m" x="92.199" y="31.959"/><use xlink:href="#n" x="96.179" y="31.959"/><use xlink:href="#l" x="101.48" y="31.959"/></svg>