<svg xmlns="http://www.w3.org/2000/svg" xmlns:xlink="http://www.w3.org/1999/xlink" width="228.944" height="185.319"><defs><path id="e" d="M-3.156-1.39c-.114-1.008-.516-1.516-1.203-1.516q-1.079.001-1.078.906.002.41.203.703.362.11.812.11a.7.7 0 0 1 .031.218c0 .282-.117.422-.359.422q-.516.001-.844-.437-.328-.45-.328-1.188 0-.714.375-1.125.375-.405 1.031-.406.628 0 1.016.422.284.28.484.89H-3q.11-.702.484-1.093a1.2 1.2 0 0 1 .922-.391q.738.001 1.219.547.485.549.484 1.437c0 .48-.097.84-.28 1.079q-.202.28-.5.28-.406.002-.548-.39c.23-.101.399-.203.5-.297q.328-.293.328-.828c0-.664-.351-1-1.062-1-.738 0-1.149.555-1.234 1.656Zm0 0"/><path id="f" d="M-6.172-5.844h.078c.168 0 .278.102.328.297l.047.234L0-3.28v.734L-5.703-.453l-.094.375q-.03.124-.125.125c-.05 0-.133-.035-.25-.094V-2.03c.031-.008.059-.016.078-.016.168 0 .274.102.313.297l.093.375 4.782-1.64v-.016L-5.72-4.734l-.093.687q-.029.127-.11.125c-.039 0-.125-.031-.25-.094Zm0 0"/><path id="g" d="M-6.703-2.922v-.625L1.25-.828v.61Zm0 0"/><path id="h" d="M-6.172-2.375q0-3.546 3-3.547 1.583 0 2.39.938C-.257-4.38 0-3.508 0-2.375v1.953a.16.16 0 0 1-.078.016q-.246.002-.328-.313l-.078-.375h-5.203l-.125.547c-.02.086-.055.125-.11.125q-.075 0-.25-.094Zm5.672.031q0-1.326-.672-2.031-.667-.717-1.969-.719-1.246.002-1.89.719-.64.705-.64 2.031v.469H-.5Zm0 0"/><path id="i" d="M-.469-.906h-3.328l-.094.64a.1.1 0 0 1-.062.016q-.246 0-.281-.328l-.11-1.063h3.875l.125-.53q.017-.125.11-.126.129 0 .234.094v1.89a.1.1 0 0 1-.062.016c-.133 0-.235-.094-.297-.281Zm-5.375.14a.5.5 0 0 1-.36-.14.47.47 0 0 1-.155-.36q.002-.233.156-.375a.5.5 0 0 1 .36-.14q.233 0 .374.14.14.142.14.375a.48.48 0 0 1-.14.36.5.5 0 0 1-.375.14m0 0"/><path id="j" d="M-4.297-4.469c0-.07.031-.11.094-.11A.5.5 0 0 1-4-4.515l.156.438L0-2.562v.578l-3.875 1.53L-4-.046a.3.3 0 0 1-.078.016q-.218.001-.219-.25V-1.75q0-.093.094-.094A.5.5 0 0 1-4-1.78l.14.5 3.063-1.094v-.016l-3.062-1.171-.141.671h-.078q-.218.001-.219-.25Zm0 0"/><path id="k" d="M-.375-.406a.5.5 0 0 1-.36-.125.48.48 0 0 1-.14-.36c0-.132.047-.25.14-.343a.47.47 0 0 1 .36-.157c.148 0 .266.055.36.157a.5.5 0 0 1 .124.343.52.52 0 0 1-.125.36.5.5 0 0 1-.359.125m0 0"/><clipPath id="a"><path d="M14 0h214.496v184.64H14Zm0 0"/></clipPath><clipPath id="b"><path d="M14.695 1h213.606v183H14.695Zm0 0"/></clipPath><clipPath id="c"><path d="M14.695.195h213.606V84H14.695Zm0 0"/></clipPath><clipPath id="d"><path d="M14.695 101h213.606v83.441H14.695Zm0 0"/></clipPath></defs><g fill="none" stroke="#000" stroke-miterlimit="10" clip-path="url(#a)"><path stroke-width=".19827166000000002" d="M14.695 184.441V.195m30.512 184.246V.195m30.516 184.246V.195m30.515 184.246V.195m30.516 184.246V.195m30.516 184.246V.195m30.515 184.246V.195m30.516 184.246V.195M14.695 184.441h213.606M14.695 153.734h213.606M14.695 123.027h213.606M14.695 92.32h213.606M14.695 61.613h213.606M14.695 30.903h213.606M14.695.194h213.606"/><path stroke-width=".39753966" d="M14.695 184.441V.195h213.606v184.246Zm0 0"/></g><g clip-path="url(#b)"><path fill="#7F7F7F" fill-opacity=".5" d="M14.695 60.688s.774-.008 1.07-.02c.301-.012.778-.04 1.075-.059.297-.023.777-.07 1.074-.101a35 35 0 0 0 2.148-.324 33.104 33.104 0 0 0 3.219-.785c.297-.09.774-.243 1.074-.34.297-.102.774-.27 1.07-.38a36 36 0 0 0 2.15-.867c.296-.132.777-.351 1.073-.492a46.772 46.772 0 0 0 3.219-1.684 51 51 0 0 0 2.149-1.292c.297-.188.773-.496 1.074-.692a66.71 66.71 0 0 0 2.145-1.484c.296-.211.777-.563 1.074-.781.296-.223.777-.586 1.074-.813.297-.23.773-.605 1.074-.84.297-.238.773-.625 1.07-.867.301-.242.778-.64 1.075-.89s.777-.657 1.074-.91c.297-.258.777-.672 1.074-.938.297-.262.773-.688 1.074-.953a243 243 0 0 0 2.145-1.969c.297-.277.777-.727 1.074-1.012.297-.28.773-.738 1.074-1.023.297-.29.774-.75 1.074-1.04.297-.292.774-.76 1.07-1.054.301-.293.778-.766 1.075-1.062s.777-.774 1.074-1.075c.297-.296.774-.777 1.074-1.078.297-.3.774-.785 1.07-1.09.301-.3.778-.789 1.075-1.093.3-.305.777-.793 1.074-1.098l1.074-1.098c.297-.304.774-.797 1.075-1.101l1.07-1.098c.3-.305.777-.793 1.074-1.098.297-.304.777-.789 1.074-1.093l1.075-1.086c.296-.305.773-.785 1.074-1.082.297-.301.773-.778 1.07-1.074.3-.297.777-.77 1.074-1.067a270 270 0 0 1 3.223-3.117c.297-.281.773-.734 1.07-1.012l1.074-.992c.297-.273.778-.71 1.075-.977.297-.269.773-.695 1.074-.957.297-.265.773-.68 1.074-.937.297-.258.774-.664 1.07-.914.301-.25.778-.649 1.075-.89.297-.247.777-.63 1.074-.868s.773-.61 1.074-.84c.297-.23.774-.594 1.07-.816.301-.219.778-.57 1.075-.785.3-.215.777-.551 1.074-.758s.777-.527 1.074-.727.773-.508 1.074-.695a53 53 0 0 1 3.219-1.895 54.808 54.808 0 0 1 2.148-1.094c.297-.14.774-.359 1.07-.491a40.55 40.55 0 0 1 3.223-1.254 36.63 36.63 0 0 1 2.145-.645 35.038 35.038 0 0 1 2.148-.488c.297-.055.774-.137 1.075-.184.296-.047.773-.11 1.074-.144a33 33 0 0 1 2.144-.168 33 33 0 0 1 2.149-.004c.297.012.773.039 1.07.058a32 32 0 0 1 2.149.239c.296.047.777.125 1.074.18s.773.152 1.074.218c.297.07.773.184 1.07.262.301.078.778.21 1.075.297a38 38 0 0 1 3.222 1.129c.297.12.774.32 1.07.449.301.133.778.348 1.075.488s.777.375 1.074.524c.297.152.777.402 1.074.562s.774.422 1.074.594c.297.168.774.449 1.07.625.301.18.778.472 1.075.664.297.187.777.496 1.074.691.297.196.774.52 1.074.723.297.207.774.543 1.075.754.296.215.773.562 1.07.785.3.219.777.582 1.074.809.297.23.777.601 1.074.84.297.234.774.62 1.075.863a107 107 0 0 1 2.144 1.8c.3.254.777.668 1.074.934.297.262.778.684 1.075.953.296.266.773.7 1.074.973.297.273.773.715 1.07.992a259.408 259.408 0 0 1 2.148 2.035c.297.285.778.75 1.075 1.04.297.288.773.757 1.074 1.05.297.293.773.766 1.07 1.063.301.296.778.773 1.074 1.074.297.297.778.777 1.075 1.078.297.3.777.785 1.074 1.09.297.3.773.789 1.074 1.09l1.07 1.097c.301.305.778.797 1.075 1.102s.777.793 1.074 1.097c.297.305.773.797 1.074 1.102.297.305.774.793 1.074 1.098.297.3.774.789 1.07 1.093.301.301.778.786 1.075 1.086s.777.786 1.074 1.082c.297.301.773.778 1.074 1.075.297.297.774.773 1.07 1.066.301.293.778.762 1.075 1.05.3.294.777.759 1.074 1.044s.777.746 1.074 1.027.774.734 1.074 1.012c.297.277.774.722 1.07.996.302.273.778.707 1.075.977.297.269.777.695 1.074.957.297.265.778.68 1.074.937a121 121 0 0 0 2.145 1.809 101.212 101.212 0 0 0 2.148 1.71 68.528 68.528 0 0 0 2.148 1.602c.298.215.774.555 1.071.762a75 75 0 0 0 2.149 1.426 54 54 0 0 0 3.218 1.898 45.578 45.578 0 0 0 3.223 1.594c.297.129.773.332 1.074.457a40 40 0 0 0 2.145.8 38 38 0 0 0 2.148.653c.297.078.774.195 1.07.266.301.066.778.168 1.075.226a36 36 0 0 0 2.148.332c.297.035.774.082 1.074.106.297.023.774.054 1.07.066.301.012.778.023 1.075.023.297.004.777-.003 1.074-.015.297-.008.777-.035 1.074-.055s.774-.066 1.075-.097a32.383 32.383 0 0 0 2.145-.312c.296-.056.776-.153 1.073-.22.297-.066.778-.18 1.075-.258a37.401 37.401 0 0 0 2.145-.629c.3-.101.776-.265 1.073-.374.297-.11.778-.293 1.074-.41.297-.122.774-.32 1.075-.45.297-.133.773-.347 1.074-.488.297-.14.773-.371 1.07-.52a48.964 48.964 0 0 0 2.148-1.152c.298-.168.774-.445 1.075-.625.297-.176.773-.473 1.07-.656a63 63 0 0 0 2.149-1.414c.297-.207.777-.54 1.074-.754.297-.211.773-.559 1.074-.781a96 96 0 0 0 2.145-1.645 104 104 0 0 0 4.293-3.594c.3-.258 1.074-.953 1.074-.953v94.067s-.774-.696-1.074-.957c-.297-.258-.774-.676-1.07-.93a107.325 107.325 0 0 0-3.223-2.66c-.297-.235-.774-.61-1.075-.836-.297-.23-.773-.59-1.07-.809-.3-.222-.777-.57-1.074-.781-.297-.215-.778-.547-1.074-.754a65 65 0 0 0-2.149-1.414c-.297-.184-.773-.48-1.07-.656-.3-.18-.777-.457-1.074-.625a49 49 0 0 0-2.149-1.153 67 67 0 0 0-1.07-.52c-.3-.14-.777-.355-1.074-.487-.301-.13-.778-.329-1.075-.45a60 60 0 0 0-1.074-.41c-.297-.11-.773-.273-1.074-.375a37 37 0 0 0-2.144-.629 36 36 0 0 0-1.075-.258 35 35 0 0 0-1.074-.218 32 32 0 0 0-2.144-.313c-.301-.035-.778-.078-1.075-.097s-.777-.047-1.074-.055c-.297-.012-.777-.02-1.074-.016-.297 0-.774.012-1.074.024-.297.011-.774.043-1.07.066-.301.023-.778.07-1.075.106a34 34 0 0 0-2.148.332c-.297.058-.774.16-1.075.226-.296.07-.773.188-1.07.266a37.992 37.992 0 0 0-2.148.652 40.316 40.316 0 0 0-2.145.8c-.3.122-.777.329-1.074.458a45.574 45.574 0 0 0-2.148 1.027c-.297.153-.774.403-1.075.563a59.47 59.47 0 0 0-2.145 1.234 54 54 0 0 0-1.073.668 74.569 74.569 0 0 0-2.148 1.426 90 90 0 0 0-1.071.762c-.301.21-.778.562-1.074.785s-.778.586-1.075.816a101 101 0 0 0-4.293 3.52c-.296.257-.777.672-1.074.937-.297.262-.777.688-1.074.957l-1.074.977c-.297.273-.774.719-1.07.996-.301.277-.778.73-1.075 1.012-.297.28-.777.742-1.074 1.027s-.773.75-1.074 1.039c-.297.293-.774.762-1.074 1.055-.297.293-.774.77-1.07 1.066-.302.297-.778.774-1.075 1.074-.297.297-.777.782-1.074 1.082s-.774.786-1.074 1.086l-1.07 1.094c-.302.305-.778.793-1.075 1.098-.3.304-.777.797-1.074 1.101-.297.305-.778.793-1.074 1.098s-.774.797-1.075 1.101l-1.07 1.098c-.3.3-.777.79-1.074 1.09-.297.305-.777.789-1.074 1.09-.297.3-.778.781-1.075 1.078-.296.3-.773.777-1.074 1.074-.297.297-.773.77-1.07 1.063l-1.074 1.05c-.297.29-.778.754-1.075 1.04a260 260 0 0 1-2.148 2.035c-.297.277-.773.718-1.07.992-.301.273-.778.707-1.075.972-.296.27-.777.692-1.074.954-.297.261-.773.68-1.074.933a107.044 107.044 0 0 1-2.145 1.8c-.3.243-.777.63-1.074.864-.297.239-.777.61-1.074.84a93.238 93.238 0 0 1-2.145 1.594c-.3.21-.777.547-1.074.754-.3.203-.777.527-1.074.722-.297.196-.777.504-1.074.692-.297.191-.774.484-1.074.664-.297.176-.774.457-1.07.625-.301.172-.778.434-1.075.594s-.777.41-1.074.562c-.297.149-.777.383-1.074.524-.297.14-.774.355-1.075.488-.296.129-.773.328-1.07.45a39.004 39.004 0 0 1-3.223 1.129 35.465 35.465 0 0 1-3.219.777 51 51 0 0 1-1.073.179 32 32 0 0 1-2.149.238c-.297.02-.773.047-1.07.059a33 33 0 0 1-2.149-.004 33.028 33.028 0 0 1-2.145-.168c-.3-.035-.776-.098-1.073-.144a47 47 0 0 1-1.075-.184 35 35 0 0 1-2.148-.488 37 37 0 0 1-3.219-1.028 41 41 0 0 1-2.148-.87 65 65 0 0 1-1.07-.493 55 55 0 0 1-2.149-1.094 49 49 0 0 1-2.148-1.23c-.297-.18-.774-.473-1.07-.664-.302-.188-.778-.496-1.075-.696s-.777-.52-1.074-.726c-.297-.207-.774-.543-1.074-.758-.297-.215-.774-.566-1.075-.785a97 97 0 0 1-1.07-.817c-.3-.23-.777-.601-1.074-.84-.297-.238-.777-.62-1.074-.867-.297-.242-.774-.64-1.075-.89-.296-.25-.773-.656-1.07-.914-.3-.258-.777-.672-1.074-.938-.3-.261-.777-.687-1.074-.957-.297-.265-.778-.703-1.075-.976l-1.074-.993c-.297-.277-.773-.73-1.07-1.011a265.192 265.192 0 0 1-3.223-3.117c-.297-.297-.773-.77-1.074-1.067-.297-.297-.773-.773-1.07-1.074-.301-.297-.778-.777-1.074-1.082l-1.075-1.086c-.297-.305-.777-.79-1.074-1.094s-.773-.793-1.074-1.097l-1.07-1.098-1.075-1.102-1.074-1.097c-.297-.305-.773-.793-1.074-1.098-.297-.305-.774-.793-1.074-1.094-.297-.304-.774-.789-1.07-1.09-.301-.3-.778-.78-1.075-1.078-.297-.3-.777-.777-1.074-1.074s-.773-.77-1.074-1.062l-1.07-1.055c-.301-.29-.778-.75-1.075-1.04-.3-.284-.777-.741-1.074-1.023-.297-.285-.777-.734-1.074-1.011a242.448 242.448 0 0 0-2.145-1.969c-.3-.266-.777-.691-1.074-.953-.297-.266-.777-.68-1.074-.938-.297-.254-.778-.66-1.074-.91s-.774-.648-1.075-.89a104 104 0 0 0-1.07-.868c-.3-.234-.777-.609-1.074-.84-.297-.226-.778-.59-1.074-.812a93 93 0 0 0-2.149-1.54c-.297-.202-.773-.526-1.07-.726a122 122 0 0 0-1.074-.691 53 53 0 0 0-4.293-2.453c-.301-.149-.778-.383-1.075-.524-.296-.14-.777-.359-1.074-.492a35.805 35.805 0 0 0-2.148-.867 39 39 0 0 0-1.07-.379c-.301-.101-.778-.25-1.075-.34s-.777-.222-1.074-.3a33 33 0 0 0-2.145-.485 36 36 0 0 0-2.148-.324 50 50 0 0 0-1.074-.102 48 48 0 0 0-1.074-.058c-.297-.012-1.07-.02-1.07-.02Zm0 0"/></g><g clip-path="url(#c)"><path fill="none" stroke="#000" stroke-miterlimit="10" stroke-width="1.58816596" d="M14.695 60.687s.774-.007 1.07-.02c.301-.01.778-.038 1.075-.058a50 50 0 0 0 1.074-.101 35 35 0 0 0 2.149-.324 33.105 33.105 0 0 0 3.219-.785c.296-.09.773-.243 1.073-.34.297-.102.774-.27 1.07-.38a36 36 0 0 0 2.15-.867 66 66 0 0 0 1.073-.492 46.768 46.768 0 0 0 3.219-1.684 51 51 0 0 0 2.149-1.292c.297-.188.773-.496 1.074-.692a66.706 66.706 0 0 0 2.145-1.484c.296-.211.777-.563 1.074-.781.296-.223.777-.586 1.074-.813.297-.23.773-.605 1.074-.84.297-.238.773-.625 1.07-.867.301-.242.778-.64 1.075-.89s.777-.657 1.074-.91c.297-.258.777-.673 1.074-.938.297-.262.773-.688 1.074-.953a243 243 0 0 0 2.145-1.969c.297-.277.777-.727 1.074-1.012.297-.281.773-.738 1.074-1.023.297-.29.774-.75 1.074-1.04.297-.292.774-.76 1.07-1.054.302-.293.778-.766 1.075-1.062s.777-.774 1.074-1.075l1.074-1.078c.297-.3.774-.785 1.07-1.09.301-.3.778-.789 1.075-1.093.3-.305.777-.793 1.074-1.098l1.074-1.098c.297-.304.774-.797 1.075-1.101l1.07-1.098c.3-.305.777-.793 1.074-1.098.297-.304.777-.789 1.074-1.093l1.075-1.086c.296-.305.773-.785 1.074-1.082a278 278 0 0 1 2.144-2.14 270 270 0 0 1 3.223-3.118c.297-.281.773-.734 1.07-1.012l1.074-.992c.297-.273.778-.71 1.075-.977.297-.27.773-.695 1.074-.957.297-.265.773-.68 1.074-.937.297-.258.774-.664 1.07-.914.301-.25.778-.649 1.075-.89.297-.247.777-.63 1.074-.868s.773-.61 1.074-.84c.297-.23.774-.594 1.07-.816.301-.219.778-.57 1.075-.785.3-.215.777-.551 1.074-.758s.777-.528 1.074-.727.774-.508 1.074-.695a53 53 0 0 1 3.22-1.895 54.818 54.818 0 0 1 2.148-1.094c.296-.14.773-.359 1.07-.492.3-.128.777-.332 1.074-.453a41 41 0 0 1 2.148-.8 36.627 36.627 0 0 1 2.145-.645 35.038 35.038 0 0 1 2.148-.488c.297-.055.774-.137 1.075-.184.297-.047.773-.11 1.074-.144a33 33 0 0 1 2.144-.168 33 33 0 0 1 2.149-.004c.297.011.773.039 1.07.058a32 32 0 0 1 2.149.239c.296.047.777.125 1.074.18s.773.152 1.074.218c.297.07.773.184 1.07.262.301.078.778.21 1.075.297a38 38 0 0 1 3.222 1.129c.297.12.774.32 1.07.449.301.133.778.347 1.075.488.297.14.777.375 1.074.524.297.152.777.402 1.074.562s.774.422 1.074.594c.297.168.774.449 1.07.625.302.18.778.472 1.075.664.297.187.777.496 1.074.691.297.196.774.52 1.074.723.297.207.774.543 1.075.754.296.215.773.562 1.07.785.3.219.777.582 1.074.809.297.23.777.601 1.074.84.297.234.774.62 1.075.863a107 107 0 0 1 2.144 1.8c.3.254.777.668 1.074.934.297.262.778.684 1.075.953.296.266.773.7 1.074.973.297.273.773.715 1.07.992a259.498 259.498 0 0 1 2.148 2.035c.297.285.778.75 1.075 1.04.297.288.773.757 1.074 1.05.297.293.773.766 1.07 1.063.301.296.778.773 1.074 1.074.297.297.778.777 1.075 1.078.297.3.777.785 1.074 1.09.297.3.773.789 1.074 1.09l1.07 1.097c.301.305.778.797 1.075 1.102l1.074 1.097c.297.305.773.797 1.074 1.102.297.305.774.793 1.074 1.098.297.3.774.789 1.07 1.093.301.301.778.786 1.075 1.086s.777.785 1.074 1.082c.297.301.774.778 1.074 1.075.297.296.774.773 1.07 1.066.301.293.778.762 1.075 1.05.3.294.777.759 1.074 1.044s.777.746 1.074 1.027.774.734 1.074 1.012c.297.277.774.722 1.07.996l1.075.976c.297.27.777.696 1.074.957.297.266.778.68 1.074.938a121 121 0 0 0 2.145 1.809c.3.246.777.628 1.074.867.297.238.778.613 1.074.844s.778.593 1.075.816.773.57 1.074.785c.297.215.773.555 1.07.762a75 75 0 0 0 2.149 1.426 54 54 0 0 0 3.218 1.898 45.576 45.576 0 0 0 3.223 1.594c.297.129.773.332 1.074.457a40 40 0 0 0 2.145.8 38 38 0 0 0 2.148.653c.297.078.774.195 1.07.266.301.066.778.168 1.075.226a36 36 0 0 0 2.148.332c.297.035.774.082 1.074.106.297.023.774.054 1.07.066.301.012.778.023 1.075.023.297.004.777-.003 1.074-.015.297-.008.777-.035 1.074-.055s.774-.066 1.075-.098a32.388 32.388 0 0 0 2.145-.312 35 35 0 0 0 1.073-.219c.297-.066.778-.18 1.075-.258a37.402 37.402 0 0 0 2.145-.629c.3-.101.776-.265 1.073-.374.297-.11.778-.293 1.075-.41.296-.122.773-.32 1.074-.45.297-.133.773-.348 1.074-.488.297-.14.773-.371 1.07-.52a48.964 48.964 0 0 0 2.148-1.152c.298-.168.774-.445 1.075-.625.297-.176.773-.473 1.07-.656a63 63 0 0 0 2.149-1.414c.297-.207.777-.54 1.074-.754.297-.211.773-.559 1.074-.781a96 96 0 0 0 2.145-1.645 104 104 0 0 0 4.293-3.594c.3-.258 1.074-.953 1.074-.953"/></g><g clip-path="url(#d)"><path fill="none" stroke="#000" stroke-miterlimit="10" stroke-width="1.58816596" d="M14.695 123.95s.774.007 1.07.019c.301.011.778.039 1.075.058.297.024.777.07 1.074.102a35 35 0 0 1 2.149.324 33.103 33.103 0 0 1 5.363 1.504 36 36 0 0 1 2.148.867c.297.133.778.352 1.074.492s.774.375 1.075.524c.297.152.773.402 1.07.562.3.16.777.426 1.074.598a51 51 0 0 1 2.149 1.293c.297.187.773.496 1.074.691.297.2.773.524 1.07.727a93.07 93.07 0 0 1 2.148 1.54c.297.222.778.585 1.075.811.297.231.773.606 1.074.84.297.239.773.621 1.07.868.301.242.778.64 1.075.89s.777.656 1.074.91c.297.258.777.672 1.074.938.297.262.773.687 1.074.953a243 243 0 0 1 2.145 1.969c.297.277.777.726 1.074 1.011.297.282.773.739 1.074 1.024.297.289.774.75 1.074 1.039l1.07 1.055c.302.293.778.765 1.075 1.062s.777.774 1.074 1.074l1.074 1.078c.297.301.774.786 1.07 1.09.301.301.778.79 1.075 1.094.3.305.777.793 1.074 1.098l1.074 1.097 1.075 1.102 1.07 1.098c.3.304.777.793 1.074 1.097.297.305.777.79 1.074 1.094l1.075 1.086c.296.305.773.785 1.074 1.082a278 278 0 0 0 2.144 2.14 270 270 0 0 0 3.223 3.118c.297.281.773.734 1.07 1.011l1.074.993c.297.273.778.71 1.075.976.297.27.773.696 1.074.957.297.266.773.68 1.074.938.297.258.774.664 1.07.914.301.25.778.648 1.075.89.297.247.777.63 1.074.868s.773.609 1.074.84c.297.23.774.593 1.07.816.301.219.778.57 1.075.785.3.215.777.55 1.074.758s.777.527 1.074.726c.297.2.774.508 1.074.696a53 53 0 0 0 3.22 1.894 54.807 54.807 0 0 0 2.148 1.094c.296.14.773.36 1.07.492a40.557 40.557 0 0 0 3.223 1.254 36.627 36.627 0 0 0 2.145.645 35.038 35.038 0 0 0 2.148.488 32.273 32.273 0 0 0 2.148.328 33 33 0 0 0 2.144.168 33 33 0 0 0 2.149.004 49 49 0 0 0 1.07-.059 32 32 0 0 0 2.149-.238c.296-.047.777-.125 1.074-.18s.773-.156 1.074-.222c.297-.067.773-.18 1.07-.258.301-.078.778-.211 1.075-.297a38 38 0 0 0 3.222-1.129c.297-.121.774-.32 1.07-.45.301-.132.778-.347 1.075-.487s.777-.375 1.074-.524a71 71 0 0 0 1.074-.562c.297-.16.774-.422 1.074-.594.297-.168.774-.45 1.07-.625.302-.18.778-.473 1.075-.664a83 83 0 0 0 1.074-.692c.297-.195.774-.52 1.074-.722.297-.207.774-.543 1.075-.754.296-.215.773-.563 1.07-.785.3-.219.777-.582 1.074-.809.297-.23.777-.601 1.074-.84.297-.234.774-.62 1.075-.863a107 107 0 0 0 2.144-1.8c.3-.255.777-.673 1.074-.934.297-.262.778-.684 1.075-.954.296-.265.773-.699 1.074-.972.297-.274.773-.715 1.07-.992a259.431 259.431 0 0 0 2.148-2.035c.297-.286.778-.75 1.075-1.04l1.074-1.05c.297-.293.773-.766 1.07-1.063.301-.297.778-.773 1.074-1.074.297-.297.778-.777 1.075-1.078s.777-.785 1.074-1.09c.297-.3.773-.79 1.074-1.09l1.07-1.098c.301-.304.778-.796 1.075-1.101l1.074-1.098c.297-.304.773-.797 1.074-1.101.297-.305.774-.793 1.074-1.098.297-.305.774-.789 1.07-1.094.301-.3.778-.785 1.075-1.086.297-.3.777-.785 1.074-1.082.297-.3.774-.777 1.074-1.074.297-.297.774-.773 1.07-1.066.301-.293.778-.762 1.075-1.055.3-.29.777-.754 1.074-1.04.297-.284.777-.745 1.074-1.026s.774-.735 1.074-1.012c.297-.277.774-.723 1.07-.996l1.075-.977c.297-.27.777-.695 1.074-.957.297-.265.778-.68 1.074-.937a121 121 0 0 1 2.145-1.809 95 95 0 0 1 3.223-2.527c.297-.223.773-.574 1.074-.785.297-.215.773-.555 1.07-.762a75 75 0 0 1 2.149-1.426 54 54 0 0 1 3.218-1.902c.301-.16.778-.41 1.075-.563a46 46 0 0 1 2.148-1.027c.297-.129.773-.336 1.074-.457a40 40 0 0 1 2.145-.8 38 38 0 0 1 2.148-.653c.297-.078.774-.196 1.07-.266.301-.066.778-.168 1.075-.226a36 36 0 0 1 2.148-.332c.297-.036.774-.083 1.074-.106.297-.023.774-.055 1.07-.066.301-.012.778-.024 1.075-.024.297-.004.777.004 1.074.016.297.008.777.035 1.074.055s.774.062 1.075.097a32.383 32.383 0 0 1 2.145.313c.296.054.776.152 1.073.218.297.067.778.18 1.075.258a37.402 37.402 0 0 1 2.145.629c.3.102.776.266 1.073.375.297.11.778.293 1.075.41.296.121.773.32 1.074.45.297.132.773.347 1.074.488.297.14.773.37 1.07.52a48.968 48.968 0 0 1 2.148 1.152c.298.168.774.445 1.075.625.297.175.773.472 1.07.656a63 63 0 0 1 2.149 1.414c.297.207.777.539 1.074.754.297.21.773.558 1.074.781.297.219.774.578 1.07.809.301.226.778.601 1.075.836a104 104 0 0 1 3.222 2.66c.297.254.774.672 1.07.93.301.261 1.075.957 1.075.957"/></g><use xlink:href="#e" x="10.069" y="33.953"/><use xlink:href="#f" x="10.069" y="28.003"/><use xlink:href="#g" x="10.069" y="22.215"/><use xlink:href="#h" x="10.069" y="18.454"/><use xlink:href="#i" x="10.069" y="12.057"/><use xlink:href="#j" x="10.069" y="9.609"/><use xlink:href="#k" x="10.069" y="5.348"/></svg>