<svg xmlns="http://www.w3.org/2000/svg" xmlns:xlink="http://www.w3.org/1999/xlink" width="217.831" height="88.632"><defs><clipPath id="a"><path d="M12 10h194v78.266H12Zm0 0"/></clipPath><clipPath id="b"><path d="M.367 47H25v2H.367Zm0 0"/></clipPath><clipPath id="c"><path d="M192 51h25.297v1H192Zm0 0"/></clipPath><path id="d" d="M2.672.047c.11.11.328.11.437 0v-2.14H5.25c.11-.11.11-.344 0-.454H3.11v-2.14a.33.33 0 0 0-.438 0v2.14H.532c-.11.11-.11.344 0 .453h2.14Zm0 0"/><path id="e" d="M.531-2.547c-.11.11-.11.344 0 .453H5.25c.11-.11.11-.344 0-.453Zm0 0"/></defs><g clip-path="url(#a)"><path fill="none" stroke="#000" stroke-miterlimit="10" stroke-width=".39735213" d="M12.621 11.098v32.558m0 11.856V88.07h38.484V55.512m0-11.856V11.098H89.59v32.558m0 11.856V88.07h38.484V55.512m0-11.856V11.098h38.488v32.558m0 11.856V88.07h38.485V55.512m0-11.856V11.098"/></g><path fill="#FFF" stroke="#000" stroke-miterlimit="10" stroke-width=".39735213" d="M14.2 11.098c0-.871-.708-1.582-1.579-1.582a1.583 1.583 0 0 0 0 3.164 1.58 1.58 0 0 0 1.578-1.582Zm0 0"/><path fill="none" stroke="#000" stroke-miterlimit="10" stroke-width=".39735213" d="M12.621 51.54v3.972m0-7.887v-3.969"/><g clip-path="url(#b)"><path fill="none" stroke="#000" stroke-miterlimit="10" stroke-width=".79370839" d="M24.477 47.625H.762"/></g><path fill="none" stroke="#000" stroke-miterlimit="10" stroke-width="2.3811251700000002" d="M18.547 51.54H6.69"/><path fill="none" stroke="#000" stroke-miterlimit="10" stroke-width=".39735213" d="M51.105 47.625v-3.969m0 7.883v3.973"/><path fill="none" stroke="#000" stroke-miterlimit="10" stroke-width=".79370839" d="M39.25 51.54h23.71"/><path fill="none" stroke="#000" stroke-miterlimit="10" stroke-width="2.3811251700000002" d="M45.176 47.625H57.03"/><path fill="none" stroke="#000" stroke-miterlimit="10" stroke-width=".39735213" d="M89.59 51.54v3.972m0-7.887v-3.969"/><path fill="none" stroke="#000" stroke-miterlimit="10" stroke-width=".79370839" d="M101.445 47.625h-23.71"/><path fill="none" stroke="#000" stroke-miterlimit="10" stroke-width="2.3811251700000002" d="M95.52 51.54H83.66"/><path fill="none" stroke="#000" stroke-miterlimit="10" stroke-width=".39735213" d="M128.074 47.625v-3.969m0 7.883v3.973"/><path fill="none" stroke="#000" stroke-miterlimit="10" stroke-width=".79370839" d="M116.219 51.54h23.715"/><path fill="none" stroke="#000" stroke-miterlimit="10" stroke-width="2.3811251700000002" d="M122.148 47.625h11.856"/><path fill="none" stroke="#000" stroke-miterlimit="10" stroke-width=".39735213" d="M166.562 51.54v3.972m0-7.887v-3.969"/><path fill="none" stroke="#000" stroke-miterlimit="10" stroke-width=".79370839" d="M178.418 47.625h-23.715"/><path fill="none" stroke="#000" stroke-miterlimit="10" stroke-width="2.3811251700000002" d="M172.488 51.54h-11.855"/><path fill="none" stroke="#000" stroke-miterlimit="10" stroke-width=".39735213" d="M205.047 47.625v-3.969m0 7.883v3.973"/><g clip-path="url(#c)"><path fill="none" stroke="#000" stroke-miterlimit="10" stroke-width=".79370839" d="M193.187 51.54h23.715"/></g><path fill="none" stroke="#000" stroke-miterlimit="10" stroke-width="2.3811251700000002" d="M199.117 47.625h11.856"/><path fill="#FFF" stroke="#000" stroke-miterlimit="10" stroke-width=".39735213" d="M206.625 11.098c0-.871-.707-1.582-1.578-1.582a1.583 1.583 0 0 0 0 3.164 1.58 1.58 0 0 0 1.578-1.582Zm0 0"/><use xlink:href="#d" x="9.726" y="7.771"/><use xlink:href="#e" x="202.15" y="7.923"/></svg>