<svg xmlns="http://www.w3.org/2000/svg" xmlns:xlink="http://www.w3.org/1999/xlink" width="226.795" height="104.776"><defs><clipPath id="a"><path d="M.14 22H14v2H.14Zm0 0"/></clipPath><clipPath id="b"><path d="M212 22h14.45v2H212Zm0 0"/></clipPath><clipPath id="c"><path d="M31 101h5v3.55h-5Zm0 0"/></clipPath><clipPath id="d"><path d="M26 95h15v9.55H26Zm0 0"/></clipPath><clipPath id="e"><path d="M45 101h4v3.55h-4Zm0 0"/></clipPath><clipPath id="f"><path d="M39 95h16v9.55H39Zm0 0"/></clipPath><clipPath id="g"><path d="M52 93h16v11.55H52Zm0 0"/></clipPath><path id="h" d="m3.578-.422-.125-.125c-.187.188-.297.203-.437.203-.203 0-.22-.25-.282-1.187l-.109-2.547C2.578-4.922 2.219-5 2.031-5c-.265 0-.531.234-.765.5l.093.125a.95.95 0 0 1 .516-.187c.172 0 .406.156.453 1.14l.016.313L.156 0l.14.078C.454.031.626 0 .814 0l1.546-2.594.094 1.688c.016.672.11.984.438.984.203 0 .5-.234.687-.5m0 0"/><path id="i" d="M3.078-1.562h-.594v-2.094c0-.36 0-.64.016-.688l-.016-.015H2.25c-.047 0-.078.03-.11.078-.453.547-1.28 1.718-1.937 2.75.016.11.063.297.281.297h1.454v.656c0 .328-.266.328-.579.36-.046.046-.046.187 0 .234C1.594 0 1.875 0 2.203 0c.281 0 .547 0 .781.016.047-.047.047-.188 0-.235-.343-.031-.5-.015-.5-.36v-.655h.5c.094 0 .204-.125.204-.22 0-.077-.032-.109-.11-.109m-1.14-2.063v2.063H.577c.36-.594.875-1.391 1.36-2.063m0 0"/><path id="j" d="M.438-3.344c0 .14.14.281.28.281.126 0 .345-.14.345-.296 0-.047-.016-.094-.032-.141-.015-.062-.062-.125-.062-.172 0-.187.187-.437.719-.437.25 0 .609.172.609.859 0 .453-.156.828-.578 1.266l-.532.515C.485-.75.375-.406.375.016c0 0 .36-.016.594-.016h1.25c.234 0 .562.016.562.016a8 8 0 0 0 .172-1.125c-.047-.047-.14-.063-.219-.047-.109.515-.234.687-.5.687H.97c0-.343.484-.828.531-.86l.719-.702c.406-.39.719-.703.719-1.25 0-.766-.641-1.078-1.22-1.078-.78 0-1.28.578-1.28 1.015m0 0"/></defs><path fill="none" stroke="#000" stroke-miterlimit="10" stroke-width="1.39202865" d="M33.563 89.48h13.289"/><path fill="none" stroke="#FFF" stroke-miterlimit="10" stroke-width=".59672626" d="M33.563 89.48h13.289"/><path fill="none" stroke="#000" stroke-miterlimit="10" stroke-width="1.39202865" d="M33.563 76.191h13.289"/><path fill="none" stroke="#FFF" stroke-miterlimit="10" stroke-width=".59672626" d="M33.563 76.191h13.289"/><path fill="none" stroke="#000" stroke-miterlimit="10" stroke-width="1.39202865" d="M33.563 62.902h13.289"/><path fill="none" stroke="#FFF" stroke-miterlimit="10" stroke-width=".59672626" d="M33.563 62.902h13.289"/><path fill="none" stroke="#000" stroke-miterlimit="10" stroke-width="1.39202865" d="M33.563 49.613h13.289"/><path fill="none" stroke="#FFF" stroke-miterlimit="10" stroke-width=".59672626" d="M33.563 49.613h13.289"/><path fill="none" stroke="#000" stroke-miterlimit="10" stroke-width="1.39202865" d="M33.563 36.324h13.289"/><path fill="none" stroke="#FFF" stroke-miterlimit="10" stroke-width=".59672626" d="M33.563 36.324h13.289"/><g clip-path="url(#a)"><path fill="none" stroke="#000" stroke-dasharray="2.9824637921000003 2.9824637921000003" stroke-miterlimit="10" stroke-width=".39815013000000005" d="M.34 23.035h13.289"/></g><g clip-path="url(#b)"><path fill="none" stroke="#000" stroke-dasharray="2.9824637921000003 2.9824637921000003" stroke-miterlimit="10" stroke-width=".39815013000000005" d="M226.258 23.035h-13.29"/></g><path fill="none" stroke="#000" stroke-miterlimit="10" stroke-width=".39815013000000005" d="M13.629 23.035h3.324m0 0h6.645m0 0h6.644m0 0h5.535m0 0h4.426m0 0h4.43m0 0h2.215"/><path fill="#FFF" stroke="#000" stroke-miterlimit="10" stroke-width=".39815013000000005" d="M21.86 23.035a1.584 1.584 0 1 0-3.168-.004 1.584 1.584 0 0 0 3.167.004ZM28.504 23.035a1.584 1.584 0 1 0-3.168-.004 1.584 1.584 0 0 0 3.168.004Zm0 0"/><path stroke="#000" stroke-miterlimit="10" stroke-width=".39815013000000005" d="M35.148 23.035a1.584 1.584 0 1 0-3.168-.004 1.584 1.584 0 0 0 3.168.004Zm0 0"/><path fill="#FFF" stroke="#000" stroke-miterlimit="10" stroke-width=".39815013000000005" d="M39.574 23.035a1.584 1.584 0 1 0-3.167-.004 1.584 1.584 0 0 0 3.167.004ZM44.004 23.035a1.584 1.584 0 1 0-3.168-.004 1.584 1.584 0 0 0 3.168.004Zm0 0"/><path stroke="#000" stroke-miterlimit="10" stroke-width=".39815013000000005" d="M48.43 23.035a1.584 1.584 0 1 0-3.168-.004 1.584 1.584 0 0 0 3.168.004Zm0 0"/><path fill="none" stroke="#000" stroke-miterlimit="10" stroke-width="1.19345252" d="M46.848 23.035h76.41m0 0h76.414"/><path fill="none" stroke="#000" stroke-miterlimit="10" stroke-width=".39815013000000005" d="M199.672 23.035h3.324m0 0h6.645m0 0h3.328"/><path fill="#FFF" stroke="#000" stroke-miterlimit="10" stroke-width=".39815013000000005" d="M201.258 23.035a1.584 1.584 0 1 0-3.168-.004 1.584 1.584 0 0 0 3.168.004ZM207.902 23.035a1.584 1.584 0 1 0-3.168-.004 1.584 1.584 0 0 0 3.168.004Zm0 0"/><path fill="#FFF" stroke="#000" stroke-miterlimit="10" stroke-width=".39815013000000005" d="M207.902 23.035a1.584 1.584 0 1 0-3.168-.004 1.584 1.584 0 0 0 3.168.004ZM214.55 23.035a1.584 1.584 0 1 0-3.167-.004 1.584 1.584 0 0 0 3.168.004Zm0 0"/><path fill="none" stroke="#000" stroke-miterlimit="10" stroke-width=".39815013000000005" d="M33.563 23.035v39.867m0 0v39.868"/><g clip-path="url(#c)"><path d="M35.148 102.77a1.584 1.584 0 1 0-3.168-.004 1.584 1.584 0 0 0 3.168.004m0 0"/></g><g clip-path="url(#d)"><path fill="none" stroke="#000" stroke-miterlimit="10" stroke-width=".39815013000000005" d="M35.148 102.77a1.584 1.584 0 1 0-3.168-.004 1.584 1.584 0 0 0 3.168.004Zm0 0"/></g><path fill="none" stroke="#000" stroke-miterlimit="10" stroke-width=".39815013000000005" d="M46.848 23.035v39.867m0 0v39.868"/><g clip-path="url(#e)"><path d="M48.43 102.77a1.584 1.584 0 1 0-3.168-.005 1.584 1.584 0 0 0 3.168.005m0 0"/></g><g clip-path="url(#f)"><path fill="none" stroke="#000" stroke-miterlimit="10" stroke-width=".39815013000000005" d="M48.43 102.77a1.584 1.584 0 1 0-3.168-.005 1.584 1.584 0 0 0 3.168.005Zm0 0"/></g><path fill="none" stroke="#999" stroke-miterlimit="10" stroke-width=".0099787" d="M60.137 102.77"/><path fill="none" stroke="#000" stroke-miterlimit="10" stroke-width=".39815013000000005" d="M60.137 26.5v75.969"/><path stroke="#000" stroke-miterlimit="10" stroke-width=".39815013000000005" d="m60.137 23.43-1.762 2.968h3.52Zm0 0"/><path d="m60.137 101.973 1.758-2.97h-3.52Zm0 0"/><g clip-path="url(#g)"><path fill="none" stroke="#000" stroke-miterlimit="10" stroke-width=".39815013000000005" d="m60.137 101.973 1.758-2.97h-3.52Zm0 0"/></g><path fill="none" stroke="#000" stroke-miterlimit="10" stroke-width=".39815013000000005" d="M62.422 102.57h-4.574"/><path fill="#FFF" d="M54.055 72.648h12.16V53.156h-12.16Zm0 0"/><use xlink:href="#h" x="58.229" y="61.063"/><path fill="none" stroke="#000" stroke-miterlimit="10" stroke-width=".5817582099999999" d="M58.23 63.031h3.81"/><use xlink:href="#i" x="58.469" y="69.652"/><path fill="none" stroke="#999" stroke-miterlimit="10" stroke-width=".0099787" d="M199.672 9.746"/><path fill="none" stroke="#000" stroke-miterlimit="10" stroke-width=".39815013000000005" d="M47.145 9.746h152.23"/><path stroke="#000" stroke-miterlimit="10" stroke-width=".39815013000000005" d="m47.64 9.746 2.97 1.758v-3.52Zm0 0"/><path fill="none" stroke="#000" stroke-miterlimit="10" stroke-width=".39815013000000005" d="M47.047 12.031V7.457"/><path stroke="#000" stroke-miterlimit="10" stroke-width=".39815013000000005" d="m198.879 9.746-2.969-1.762v3.52Zm0 0"/><path fill="none" stroke="#000" stroke-miterlimit="10" stroke-width=".39815013000000005" d="M199.473 7.457v4.574"/><path fill="#FFF" d="M117.18 19.492h12.16V-.004h-12.16Zm0 0"/><use xlink:href="#h" x="121.352" y="7.907"/><path fill="none" stroke="#000" stroke-miterlimit="10" stroke-width=".5817582099999999" d="M121.352 9.875h3.808"/><use xlink:href="#j" x="121.592" y="16.497"/></svg>