<svg xmlns="http://www.w3.org/2000/svg" xmlns:xlink="http://www.w3.org/1999/xlink" width="227.771" height="76.286"><defs><path id="c" d="M2.047-.875v-2.453c0-.438 0-.86.015-.953 0-.047-.015-.047-.03-.047-.391.25-.766.422-1.407.719a.3.3 0 0 0 .11.187c.328-.14.484-.172.624-.172.125 0 .141.172.141.406v2.313c0 .594-.187.64-.687.656-.047.047-.047.188 0 .235C1.156 0 1.422 0 1.797 0c.344 0 .516 0 .875.016.031-.047.031-.188 0-.235-.5-.015-.625-.062-.625-.656m0 0"/><path id="d" d="M2.484-.875v-2.703c0-.453.079-.735.329-.735h.156c.531 0 .875.188.984.735.078 0 .188 0 .25-.031a7.4 7.4 0 0 1-.094-1.016l-.015-.016a30 30 0 0 1-1.594.063h-.61c-.546 0-1.39-.047-1.656-.063-.015 0-.03.016-.03.016-.032.328-.11.688-.188 1.031a.7.7 0 0 0 .25.031c.14-.562.468-.75.937-.75h.344c.266 0 .344.282.344.704v2.734c0 .594-.125.64-.703.656-.032.047-.032.188 0 .235C1.547 0 1.906 0 2.188 0c.265 0 .64 0 .984.016.047-.047.047-.188 0-.235-.563-.015-.688-.062-.688-.656m0 0"/><path id="e" d="M.438-3.328a.28.28 0 0 0 .28.281c.126 0 .329-.125.329-.281 0-.063-.016-.11-.016-.156-.015-.047-.062-.11-.062-.172 0-.172.187-.438.703-.438.25 0 .625.188.625.86 0 .468-.172.828-.594 1.265l-.516.516C.485-.75.375-.406.375.016c0 0 .36-.016.578-.016h1.25c.235 0 .563.016.563.016.078-.375.156-.907.156-1.125-.031-.032-.125-.047-.203-.032-.11.5-.235.672-.5.672H.953c0-.328.5-.812.531-.86l.72-.687c.405-.39.718-.703.718-1.234 0-.781-.625-1.094-1.203-1.094-.797 0-1.281.594-1.281 1.016m0 0"/><path id="f" d="M1.531-4.094c.297 0 .594.188.594.64 0 .36-.422.907-1.125 1l.031.235c.125-.015.25-.015.344-.015.406 0 .938.109.938.922 0 .937-.641 1.14-.891 1.14-.36 0-.422-.172-.5-.297C.844-.563.75-.656.609-.656c-.14 0-.296.14-.296.25 0 .281.593.484 1.03.484.845 0 1.595-.547 1.595-1.5 0-.766-.579-1.047-1-1.11l-.016-.015c.594-.281.75-.578.75-.953a.74.74 0 0 0-.219-.562c-.156-.157-.406-.282-.781-.282-1.047 0-1.344.688-1.344.922 0 .11.078.25.25.25.25 0 .281-.234.281-.375 0-.453.485-.547.672-.547m0 0"/><path id="g" d="M3.063-1.562h-.594v-2.079c0-.343 0-.625.015-.687l-.015-.016h-.235c-.046 0-.078.047-.109.078C1.672-3.719.859-2.53.203-1.516c.016.094.063.297.266.297h1.453v.657c0 .328-.266.328-.578.343-.032.047-.032.188 0 .235C1.578 0 1.859 0 2.187 0c.282 0 .547 0 .782.016C3-.031 3-.172 2.969-.22c-.36-.031-.5-.015-.5-.343v-.657h.484c.11 0 .203-.14.203-.218 0-.079-.015-.125-.094-.125M1.922-3.61v2.047H.562c.375-.579.876-1.375 1.36-2.047m0 0"/><path id="h" d="M2.266-1.344c0 .672-.36 1.172-.782 1.172-.265 0-.359-.172-.468-.312C.922-.61.796-.72.656-.72a.274.274 0 0 0-.265.266c0 .297.593.531 1 .531.89 0 1.515-.656 1.515-1.547 0-.687-.484-1.312-1.281-1.312-.297 0-.562.062-.687.11l.14-1.188c.266.03.484.062.828.062.219 0 .453 0 .75-.031l.11-.485-.047-.03c-.406.046-.797.077-1.172.077-.266 0-.516-.015-.766-.03L.547-2.25c.375-.14.64-.172.89-.172.47 0 .829.297.829 1.078m0 0"/><path id="i" d="M1.031-2.437c.188-.641.64-1.36 1.578-1.72 0-.093-.015-.155-.078-.187-.719.219-1.156.516-1.562.969C.53-2.859.313-2.219.313-1.656c0 1.453.812 1.734 1.359 1.734C2.609.078 3-.828 3-1.437c0-.61-.328-1.157-1.297-1.157a1.8 1.8 0 0 0-.672.156m-.078.25c.235-.157.469-.157.594-.157.703 0 .86.688.86 1.031 0 .782-.298 1.141-.657 1.141-.437 0-.844-.234-.844-1.453 0-.172.016-.344.047-.562m0 0"/><path id="j" d="M1.203-3.797h1.281C1.922-2.422 1.36-1.03.875.047l.063.047.484-.016c.406-1.219.797-2.39 1.594-4.344l-.11-.078c-.125.032-.281.078-.547.078H.891c-.25 0-.235-.078-.36-.093-.015 0-.031 0-.031.015 0 .344-.078.766-.14 1.14a.6.6 0 0 0 .234.017c.156-.563.39-.61.61-.61m0 0"/><path id="k" d="M1.578 1.563c-.11.14-.281.265-.406.265S1 1.766.953 1.672C.875 1.562.703 1.39.5 1.39a.307.307 0 0 0-.328.312c0 .203.219.406.828.406.36 0 .75-.171 1.031-.546.25-.36.438-1.032.781-2.72.141-.687.297-1.405.422-2.155l.032-.157h.828c.078 0 .203-.031.234-.11l.031-.187c0-.03-.015-.046-.062-.046h-.969l.094-.516c.14-.656.265-1.063.39-1.297.126-.25.235-.328.344-.328.14 0 .157.078.188.25.047.187.11.422.39.422.266 0 .329-.203.329-.282 0-.343-.297-.64-.829-.64-.187 0-.421.094-.609.234-.281.235-.656.578-1 2.157l-.578.03c-.156 0-.235.079-.25.141a.7.7 0 0 0-.031.157c0 .015.015.015.046.015h.735c-.203 1.016-.25 1.547-.36 2.219-.14.844-.28 2.297-.609 2.813m0 0"/><path id="l" d="m-.484-4.469-1.625.578v2.22l1.625.593.125-.688q.017-.124.093-.125c.043 0 .133.04.266.11v1.86a.2.2 0 0 1-.078.015Q-.342.096-.406-.22l-.063-.25-5.672-2.156-.062-.562L-.47-5.312l.11-.391q.034-.124.093-.125.048 0 .266.094v1.906h-.078q-.246 0-.328-.297Zm-2.094 2.625v-1.875l-2.61.922v.016Zm0 0"/><path id="m" d="m-.469-7.047.125-.531q.035-.124.11-.125.129 0 .234.078v1.89a.1.1 0 0 1-.062.016c-.133 0-.235-.093-.297-.281l-.11-.328h-2.265q-1.045 0-1.047.844c0 .46.164.859.484 1.203q.317-.062.516-.063H-.47l.125-.531q.035-.124.11-.125.129 0 .234.094v1.89h-.062c-.133 0-.235-.093-.297-.28l-.11-.329h-2.265c-.696 0-1.047.29-1.047.86 0 .437.148.82.437 1.14h2.875l.125-.531q.035-.124.11-.125.129 0 .234.078v1.89a.1.1 0 0 1-.062.016c-.133 0-.235-.094-.297-.281l-.11-.328H-3.78l-.094.64a.1.1 0 0 1-.062.016q-.247 0-.282-.328l-.11-1.047.61.047v-.016q-.656-.623-.656-1.422.002-.81.719-1.14-.717-.64-.719-1.532 0-.636.422-1 .41-.358 1.172-.359Zm0 0"/><path id="n" d="M1.313-.86h-5.094l-.094.657h-.062q-.247 0-.282-.328l-.11-1.047.595.062v-.03q-.64-.528-.641-1.313.001-.762.547-1.22.55-.451 1.515-.452 1.173 0 1.782.61.579.562.578 1.577c0 .262-.04.516-.11.766h1.376l.125-.531c.007-.082.046-.125.109-.125a.36.36 0 0 1 .234.093v1.875a.13.13 0 0 1-.062.016q-.205 0-.297-.281Zm-5.11-1.734q0 .581.422 1.016h2.656q.282-.341.282-.828 0-1.373-1.829-1.375-.732 0-1.125.328-.405.314-.406.86m0 0"/><path id="o" d="M-.469-.86h-5.437L-6-.218a.16.16 0 0 1-.078.016q-.247 0-.266-.328l-.11-1.047h5.985l.125-.531q.035-.124.11-.125.129 0 .234.078v1.89h-.062c-.133 0-.235-.086-.297-.265Zm0 0"/><path id="p" d="M-.469-.906H-3.78l-.094.64a.1.1 0 0 1-.062.016q-.247 0-.282-.328l-.11-1.047h3.86l.125-.531q.035-.124.11-.125.129 0 .234.078v1.89a.1.1 0 0 1-.062.016c-.133 0-.235-.094-.297-.281Zm-5.343.156a.5.5 0 0 1-.36-.14.513.513 0 0 1 0-.735.47.47 0 0 1 .36-.156q.233.002.375.156.14.142.14.36a.53.53 0 0 1-.14.374.5.5 0 0 1-.375.141m0 0"/><path id="q" d="m-4.266-.86-1.187-.171v-.516h1.187v-1.328l.454.078v1.25h2.75q.656.001.656-.578c0-.29-.07-.535-.219-.734a.43.43 0 0 1 .25-.063q.112 0 .266.235.217.329.218.828Q.11-.83-.92-.83h-2.891v.673a.1.1 0 0 1-.063.015q-.217 0-.281-.28Zm0 0"/><path id="r" d="m-3.781-.781-.094.64a.1.1 0 0 1-.062.016q-.247 0-.282-.328l-.11-1.047h2.798q1.048 0 1.047-.89 0-.688-.438-1.11h-2.86l-.093.656h-.062q-.247 0-.282-.328l-.11-1.047h3.845l.078-.64q.047-.014.078-.016.252 0 .281.328l.094 1h-.578v.016c.43.344.64.793.64 1.344q0 1.406-1.593 1.406Zm0 0"/><path id="s" d="M-.5-3.39v.015q.61.456.61 1.281 0 .72-.47 1.172c-.35.356-.906.531-1.656.531-.77 0-1.367-.226-1.796-.687q-.564-.609-.563-1.5c0-.27.04-.524.11-.766h-1.641L-6-2.688h-.078q-.247 0-.266-.328l-.11-1.046h5.97l.078-.657h.078q.252 0 .281.328l.094 1Zm.031 1.078q0-.639-.39-1.032h-2.703q-.312.33-.313.86.002.596.438.953.47.39 1.296.39.846 0 1.282-.328.39-.31.39-.843m0 0"/><path id="t" d="M-2.156-1.156q.83-.012 1.281-.375c.305-.239.453-.57.453-1q0-.591-.422-1.094.064-.092.25-.125.222.001.438.406.265.47.265 1.11.002.815-.5 1.297c-.375.367-.925.546-1.656.546q-1.106.001-1.75-.578a1.7 1.7 0 0 1-.578-1.297q0-.684.422-1.093.393-.36 1.078-.36.284 0 .719.094Zm-1.75-1.016c0 .594.437.93 1.312 1v-1.75a2 2 0 0 0-.36-.031q-.95.001-.952.781m0 0"/><clipPath id="a"><path d="M223 52h3.602v5H223Zm0 0"/></clipPath><clipPath id="b"><path d="M217 47h9.602v15H217Zm0 0"/></clipPath></defs><path fill="none" stroke="#7F7F7F" stroke-miterlimit="10" stroke-width=".19715527000000002" d="M41.676 56.555V52.34m26.39 4.215V52.34m26.391 4.215V52.34m26.39 4.215V52.34m26.391 4.215V52.34m26.39 4.215V52.34m26.388 4.215V52.34"/><path fill="none" stroke="#000" stroke-miterlimit="10" stroke-width=".39530127000000004" d="M2.094 54.45h220.875"/><g clip-path="url(#a)"><path d="m226.012 54.45-2.946-1.75v3.495Zm0 0"/></g><g clip-path="url(#b)"><path fill="none" stroke="#000" stroke-miterlimit="10" stroke-width=".39530127000000004" d="m226.012 54.45-2.946-1.75v3.495Zm0 0"/></g><path fill="none" stroke="#000" stroke-miterlimit="10" stroke-width=".39530127000000004" d="M15.29 70.402V3.637"/><path stroke="#000" stroke-miterlimit="10" stroke-width=".39530127000000004" d="m15.29.59-1.75 2.95h3.495Zm0 0"/><use xlink:href="#c" x="40.025" y="64.033"/><path fill="none" stroke="#000" stroke-miterlimit="10" stroke-width=".5775955899999999" d="M39.555 65.988h4.242"/><use xlink:href="#d" x="39.555" y="72.561"/><use xlink:href="#e" x="66.414" y="64.048"/><path fill="none" stroke="#000" stroke-miterlimit="10" stroke-width=".5775955899999999" d="M65.945 66h4.242"/><use xlink:href="#d" x="65.945" y="72.575"/><use xlink:href="#f" x="92.804" y="64.048"/><path fill="none" stroke="#000" stroke-miterlimit="10" stroke-width=".5775955899999999" d="M92.336 66h4.242"/><use xlink:href="#d" x="92.335" y="72.575"/><use xlink:href="#g" x="119.194" y="64.048"/><path fill="none" stroke="#000" stroke-miterlimit="10" stroke-width=".5775955899999999" d="M118.723 66h4.242"/><use xlink:href="#d" x="118.724" y="72.575"/><use xlink:href="#h" x="145.583" y="64.054"/><path fill="none" stroke="#000" stroke-miterlimit="10" stroke-width=".5775955899999999" d="M145.113 66.008h4.242"/><use xlink:href="#d" x="145.114" y="72.583"/><use xlink:href="#i" x="171.973" y="64.054"/><path fill="none" stroke="#000" stroke-miterlimit="10" stroke-width=".5775955899999999" d="M171.504 66.008h4.242"/><use xlink:href="#d" x="171.503" y="72.583"/><use xlink:href="#j" x="198.362" y="64.075"/><path fill="none" stroke="#000" stroke-miterlimit="10" stroke-width=".5775955899999999" d="M197.895 66.031h4.242"/><use xlink:href="#d" x="197.893" y="72.603"/><path fill="none" stroke="#000" stroke-miterlimit="10" stroke-width="1.97452489" d="M41.676 54.45V22.534m26.39 31.914v-7.98m26.391 7.98v-3.547m26.39 3.547v-1.996m26.391 1.996v-1.277m26.39 1.277v-.886m26.388.886v-.652"/><use xlink:href="#k" x="219.506" y="63.807"/><use xlink:href="#l" x="10.353" y="43.925"/><use xlink:href="#m" x="10.353" y="38.133"/><use xlink:href="#n" x="10.353" y="30.307"/><use xlink:href="#o" x="10.353" y="25.43"/><use xlink:href="#p" x="10.353" y="22.952"/><use xlink:href="#q" x="10.353" y="20.473"/><use xlink:href="#r" x="10.353" y="17.453"/><use xlink:href="#s" x="10.353" y="12.398"/><use xlink:href="#t" x="10.353" y="7.495"/></svg>