<svg xmlns="http://www.w3.org/2000/svg" xmlns:xlink="http://www.w3.org/1999/xlink" width="226.773" height="232.527"><defs><path id="a" d="M3.64.078a3 3 0 0 1-.406.031Q2 .11 1.25-.703q-.783-.855-.781-2.39 0-1.514.844-2.376.778-.81 2.015-.812 1.264.002 2 .812c.508.563.766 1.356.766 2.375q0 1.518-.844 2.39-.362.375-.812.563l.75.766c.164.164.375.281.625.344q.169.045.343.062v.063q-.001.216-.218.343a.83.83 0 0 1-.485.141q-.533 0-.984-.516ZM3.282-.39q.903.001 1.438-.718c.351-.477.531-1.141.531-1.985q-.001-1.23-.547-1.953a1.75 1.75 0 0 0-1.469-.734c-.593 0-1.07.242-1.421.718q-.516.721-.516 1.97c0 .843.176 1.507.531 1.984q.528.719 1.453.718m0 0"/><path id="e" d="M5.875-2.906v.078c0 .156-.102.258-.297.297l-.203.047v1.906Q4.638.11 3.219.109q-1.22 0-1.953-.765Q.469-1.5.469-3.062q0-1.606 1.031-2.485.855-.733 2.11-.734.59 0 1.078.14.058.018.609.235c.031.43.047.734.047.922q0 .39-.282.39a.5.5 0 0 1-.187-.031l-.203-.86q-.44-.28-1.11-.28-.953.001-1.562.593-.703.703-.703 2.016c0 .886.195 1.57.594 2.047.375.449.882.672 1.53.672a3.2 3.2 0 0 0 1.173-.204v-1.796l-.563-.126q-.127-.029-.125-.093-.001-.076.11-.25Zm0 0"/><path id="f" d="M2.594-6.172c.008.024.015.047.015.078q0 .237-.312.297l-.422.094V-.5l.625.14q.124.018.125.094 0 .048-.094.266H.421a.16.16 0 0 1-.015-.078Q.404-.324.72-.406L1.094-.5v-5.203l-.547-.125c-.086-.02-.125-.05-.125-.094q0-.075.094-.25Zm0 0"/><path id="g" d="M2.203-6.172a.2.2 0 0 1 .016.078q-.001.236-.313.313l-.328.062 1.188 2h.015l1.266-2.015-.594-.079c-.086-.007-.125-.046-.125-.109q0-.075.094-.25h1.797c.008.024.015.047.015.078q0 .253-.312.313l-.297.062-1.547 2.453L4.766-.469l.422.11q.124.034.125.093c0 .032-.04.121-.11.266h-1.89a.16.16 0 0 1-.016-.078c0-.176.101-.285.312-.328l.282-.047-1.282-2.14h-.015L1.266-.454l.562.094q.124.017.125.093A.6.6 0 0 1 1.86 0H.047v-.078q0-.264.297-.328l.25-.063 1.687-2.61-1.61-2.624-.437-.11C.148-5.831.11-5.866.11-5.921q0-.075.11-.25Zm0 0"/><path id="d" d="M3.234-.219 3.875-3c.266-1.11.594-1.39.969-1.39.39 0 .562.359.562.921 0 1.047-.5 3.016-2.172 3.25m-.171-4.297-.141-.218C2.406-4.5 1.234-3.594.969-2.47c-.063.313-.11.594-.11.875 0 1 .532 1.625 1.72 1.703-.22.922-.36 1.625-.36 2.079l.61.374L3 2.36a1.4 1.4 0 0 1-.094-.546c0-.375.078-.891.281-1.704A3.355 3.355 0 0 0 6.11-2.578q.094-.399.094-.75c0-.828-.36-1.485-1.25-1.485-1.36 0-1.656 1.829-1.703 1.985L2.656-.203C1.875-.281 1.625-.75 1.625-1.406c0-.969.422-2.375 1.438-3.11m0 0"/><clipPath id="b"><path d="M52 203h30v29.055H52Zm0 0"/></clipPath><clipPath id="c"><path d="M51 202h32v30.055H51Zm0 0"/></clipPath></defs><path fill="none" stroke="#000" stroke-miterlimit="10" stroke-width=".39819003000000003" d="M12.84 217.797h20.062m0 0h20.063"/><use xlink:href="#a" x="3.099" y="220.149"/><path fill="#FFF" stroke="#000" stroke-miterlimit="10" stroke-width=".39819003000000003" d="M14.426 217.797a1.584 1.584 0 1 0-3.168-.004 1.584 1.584 0 0 0 3.168.004Zm0 0"/><path d="M48.754 217.797v1.98l4.21-1.98-4.21-1.98Zm0 0"/><g clip-path="url(#b)"><path fill="none" stroke="#000" stroke-miterlimit="10" stroke-width=".79538209" d="M52.965 203.934h27.723v27.722H52.965Zm0 0"/></g><g clip-path="url(#c)"><path fill="none" stroke="#000" stroke-miterlimit="10" stroke-width=".39819003000000003" d="M76.527 217.797a9.703 9.703 0 0 0-9.703-9.703 9.703 9.703 0 0 0-9.703 9.703 9.703 9.703 0 0 0 9.703 9.703 9.703 9.703 0 0 0 9.703-9.703Zm0 0"/></g><path fill="none" stroke="#000" stroke-miterlimit="10" stroke-width=".39819003000000003" d="m59.965 210.934 13.723 13.722m0-13.722-13.723 13.722M66.824 203.934V183.87m0 0v-20.059"/><path d="M66.824 199.727h-1.98l1.98 4.207 1.98-4.207Zm0 0"/><path fill="none" stroke="#000" stroke-miterlimit="10" stroke-width=".79538209" d="M52.965 136.086h27.723v27.726H52.965Zm0 0"/><use xlink:href="#d" x="63.503" y="151.009"/><path fill="none" stroke="#000" stroke-miterlimit="10" stroke-width=".39819003000000003" d="M66.824 136.086v-20.059m0 0V95.965"/><path d="M66.824 131.879h-1.98l1.98 4.207 1.98-4.207Zm0 0"/><path fill="none" stroke="#000" stroke-miterlimit="10" stroke-width=".79538209" d="M52.965 68.242h27.723v27.723H52.965Zm0 0"/><path fill="none" stroke="#000" stroke-miterlimit="10" stroke-width=".39819003000000003" d="M68.559 75.867c.562-.89 1.105-1.734 1.73-1.734.629 0 1.168.844 1.734 1.734.563.887 1.106 1.73 1.73 1.73.63 0 1.169-.843 1.735-1.73M68.559 79.332c.562-.887 1.105-1.734 1.73-1.734.629 0 1.168.847 1.734 1.734.563.887 1.106 1.73 1.73 1.73.63 0 1.169-.843 1.735-1.73M68.559 82.797c.562-.887 1.105-1.735 1.73-1.735.629 0 1.168.848 1.734 1.735.563.887 1.106 1.73 1.73 1.73.63 0 1.169-.843 1.735-1.73"/><use xlink:href="#e" x="57.517" y="81.727"/><path fill="none" stroke="#000" stroke-miterlimit="10" stroke-width=".39819003000000003" d="M57.121 86.953h19.406M57.121 91.805h19.406v-2.77H57.121ZM57.121 93.887h19.406M66.824 68.242V48.18m0 0V28.117"/><path fill="none" stroke="#000" stroke-miterlimit="10" stroke-width=".79538209" d="M52.965.395h27.723v27.722H52.965Zm0 0"/><path fill="none" stroke="#000" stroke-miterlimit="10" stroke-width=".39819003000000003" d="M76.527 14.258a9.703 9.703 0 0 0-9.703-9.703 9.703 9.703 0 0 0-9.703 9.703 9.703 9.703 0 0 0 9.703 9.703 9.703 9.703 0 0 0 9.703-9.703ZM59.965 7.395l13.723 13.722m0-13.722L59.965 21.117"/><path d="M66.824 32.324h1.98l-1.98-4.207-1.98 4.207Zm0 0"/><path fill="none" stroke="#000" stroke-miterlimit="10" stroke-width=".39819003000000003" d="M52.965 14.258H32.902m0 0H12.84"/><path d="M48.754 14.258v1.98l4.21-1.98-4.21-1.98Zm0 0"/><path fill="#FFF" stroke="#000" stroke-miterlimit="10" stroke-width=".39819003000000003" d="M14.426 14.258a1.584 1.584 0 1 0-3.168-.004 1.584 1.584 0 0 0 3.168.004Zm0 0"/><use xlink:href="#f" x="6.661" y="17.346"/><path fill="none" stroke="#000" stroke-miterlimit="10" stroke-width=".79538209" d="M147.07 102.164h27.723v27.723H147.07Zm0 0"/><path fill="none" stroke="#000" stroke-miterlimit="10" stroke-width=".39819003000000003" d="M170.637 116.027a9.703 9.703 0 0 0-9.703-9.703 9.703 9.703 0 0 0-9.704 9.703 9.703 9.703 0 0 0 9.704 9.703 9.703 9.703 0 0 0 9.703-9.703Zm0 0"/><path fill="none" stroke="#000" stroke-miterlimit="10" stroke-width=".79538209" d="M166.754 116.027h-11.645m5.825-5.824v11.645"/><path fill="none" stroke="#000" stroke-miterlimit="10" stroke-width=".39819003000000003" d="M80.688 14.258h80.246v87.906"/><path d="M160.934 97.957h-1.98l1.98 4.207 1.98-4.207Zm0 0"/><path fill="none" stroke="#000" stroke-miterlimit="10" stroke-width=".39819003000000003" d="M80.688 217.797h80.246v-87.91"/><path d="M160.934 134.098h1.98l-1.98-4.211-1.98 4.21Zm0 0"/><path fill="none" stroke="#000" stroke-miterlimit="10" stroke-width=".39819003000000003" d="M174.793 116.027h20.062m0 0h20.063"/><path fill="#FFF" stroke="#000" stroke-miterlimit="10" stroke-width=".39819003000000003" d="M216.5 116.027a1.584 1.584 0 1 0-3.167-.004 1.584 1.584 0 0 0 3.167.004Zm0 0"/><use xlink:href="#g" x="218.097" y="119.115"/></svg>