<svg xmlns="http://www.w3.org/2000/svg" xmlns:xlink="http://www.w3.org/1999/xlink" width="226.837" height="62.726"><defs><path id="c" d="M2.188-6.156c.007.023.015.047.015.078q-.002.253-.297.312l-.328.079L2.75-3.72h.031l1.25-1.984-.593-.094q-.127-.014-.126-.11 0-.074.094-.25h1.797v.079q-.002.252-.297.328l-.297.063L3.063-3.25 4.75-.469l.422.11q.124.034.125.093c0 .032-.04.121-.11.266h-1.89v-.078q0-.264.297-.328l.281-.047-1.281-2.125h-.016L1.266-.453l.562.094q.124.017.125.093A.6.6 0 0 1 1.86 0H.047v-.078q0-.264.297-.328l.25-.063L2.28-3.062.671-5.687l-.437-.11C.148-5.805.11-5.844.11-5.907q0-.074.11-.25Zm0 0"/><path id="d" d="M1.578 1.563c-.094.156-.281.265-.406.265s-.156-.062-.219-.156c-.078-.11-.25-.281-.437-.281-.25 0-.344.172-.344.328 0 .187.219.406.828.406.36 0 .75-.187 1.031-.562.25-.344.453-1.032.797-2.72.14-.702.281-1.421.422-2.171l.031-.156h.828c.079 0 .204-.032.235-.11l.031-.187c0-.031-.016-.047-.062-.047h-.97l.095-.516c.124-.656.25-1.062.374-1.297.141-.25.25-.328.36-.328.14 0 .156.078.187.25.047.188.11.422.391.422.266 0 .328-.203.328-.281 0-.344-.297-.656-.828-.656-.187 0-.437.109-.61.25-.28.234-.656.562-1 2.156l-.593.031c-.156 0-.235.078-.25.14 0 .032-.031.141-.031.157s.015.016.046.016h.75c-.218 1.015-.25 1.562-.374 2.218-.141.86-.282 2.313-.61 2.829m0 0"/><path id="h" d="M.531-1.656c-.11.11-.11.343 0 .453H5.25c.11-.11.11-.344 0-.453Zm0-1.781c-.11.109-.11.343 0 .453H5.25c.11-.11.11-.344 0-.453Zm0 0"/><path id="i" d="M1.516-4.766h1.593c-.687 1.72-1.39 3.47-2 4.813l.063.062.61-.015c.515-1.516 1-3 2-5.438l-.141-.11a2.2 2.2 0 0 1-.688.095H1.11c-.296 0-.28-.079-.437-.125-.031 0-.031 0-.031.03-.016.438-.11.97-.188 1.423A.6.6 0 0 0 .734-4c.204-.703.5-.766.782-.766m0 0"/><path id="j" d="M.922-.844c-.266 0-.469.188-.469.438 0 .265.235.36.39.39.173.016.329.063.329.282 0 .187-.328.593-.781.703 0 .094.015.156.078.219C1 1.094 1.516.656 1.516.03c0-.531-.235-.875-.594-.875m0 0"/><path id="k" d="M2.031.094c.688 0 1.735-.703 1.735-2.797 0-.89-.22-1.64-.61-2.156-.234-.313-.61-.578-1.094-.578-.874 0-1.718 1.046-1.718 2.812 0 .953.297 1.844.797 2.344q.375.375.89.375m.031-5.219c.157 0 .297.047.407.14.281.235.515.923.515 2.11 0 .828-.015 1.39-.14 1.844-.203.734-.64.812-.797.812-.828 0-.922-1.531-.922-2.312 0-2.188.547-2.594.938-2.594m0 0"/><path id="l" d="M2.844-1.687c0 .843-.438 1.468-.985 1.468-.328 0-.453-.218-.578-.39-.125-.157-.265-.297-.453-.297-.172 0-.344.156-.344.328 0 .375.75.672 1.266.672 1.11 0 1.89-.813 1.89-1.938 0-.875-.593-1.64-1.593-1.64-.39 0-.719.078-.875.14l.172-1.484c.328.031.625.078 1.047.078.265 0 .578-.016.937-.062l.14-.61-.062-.031c-.5.062-.984.094-1.469.094-.328 0-.64-.016-.953-.032L.672-2.828c.484-.172.812-.219 1.14-.219.579 0 1.032.39 1.032 1.36m0 0"/><path id="m" d="M5.922-1.031c.031.718 0 .734-.578.75-.047.062-.047.25 0 .297.328 0 .687-.016.953-.016s.687.016.969.016c.062-.047.062-.235 0-.297-.594-.016-.625-.063-.688-.797l-.266-3.75c-.03-.484.016-.61.625-.656.047-.047.047-.235 0-.282l-1.171.016-1.891 4.516c-.031.093-.062.125-.078.125s-.047-.047-.078-.11L1.89-5.75.594-5.766c-.047.047-.047.235 0 .282.625.046.672.062.61.734l-.36 3.672c-.047.531-.156.75-.672.797-.047.062-.047.25 0 .297C.453.016.734 0 .953 0c.203 0 .563.016.828.016.063-.047.063-.235 0-.297-.578-.047-.625-.313-.578-.813l.328-3.578h.016l1.86 4.625c.015.063.077.14.124.14.063 0 .094-.062.125-.14l2.016-4.719h.016Zm0 0"/><path id="n" d="M5.516-1.094v-3.578c0-.734.156-.781.78-.812.048-.047.048-.235 0-.282-.374 0-.827.016-1.171.016-.328 0-.75-.016-1.14-.016-.063.047-.063.235 0 .282.624.03.765.078.765.812v1.438H1.703v-1.438c0-.734.156-.781.781-.812.047-.047.047-.235 0-.282-.343 0-.703.016-1.156.016S.516-5.766.172-5.766c-.063.047-.063.235 0 .282.625.03.781.078.781.812v3.578c0 .75-.156.797-.781.813-.063.062-.063.25 0 .297C.562.016.984 0 1.328 0c.328 0 .766.016 1.156.016.047-.047.047-.235 0-.297-.625-.016-.78-.063-.78-.813v-1.765H4.75v1.765c0 .75-.14.797-.766.813-.062.062-.062.25 0 .297C4.375.016 4.813 0 5.141 0s.75.016 1.156.016c.047-.047.047-.235 0-.297-.625-.016-.781-.063-.781-.813m0 0"/><path id="o" d="M.64-3.922c-.03 0-.062.047-.062.063 0 .39-.047.703-.125 1.14a.35.35 0 0 0 .281.031c.188-.656.47-.796.735-.812l1.14-.031C2-2.5 1.11-1.22.406-.281c-.078.11-.078.125-.078.172 0 .062.078.109.203.109l2.782.031c.109-.312.234-.765.296-1.218a.7.7 0 0 0-.265-.047l-.125.25c-.235.468-.422.672-.875.687H1.156c.657-.844 1.578-2.25 2.14-3.156.126-.219.157-.297.157-.328s-.047-.063-.11-.063c-.046 0-.296.016-.546.016h-1.64c-.282 0-.391-.047-.516-.094m0 0"/><path id="p" d="M1.281-3.062c.25-.813.813-1.704 2-2.157 0-.11-.031-.187-.11-.234-.89.266-1.452.64-1.952 1.219C.672-3.594.39-2.781.39-2.062.39-.266 1.42.094 2.109.094c1.172 0 1.641-1.125 1.641-1.89 0-.766-.406-1.454-1.625-1.454-.219 0-.578.063-.844.188m-.078.328c.297-.203.594-.203.734-.203.876 0 1.079.843 1.079 1.296 0 .985-.375 1.422-.813 1.422-.562 0-1.062-.297-1.062-1.828 0-.203.015-.437.062-.687m0 0"/><path id="q" d="M2.563-1.094v-3.093c0-.532.015-1.079.03-1.188 0-.047-.015-.047-.046-.047-.5.297-.969.531-1.75.89.015.095.047.188.125.235.422-.156.61-.219.781-.219.156 0 .172.22.172.516v2.906c0 .75-.234.797-.86.813-.046.062-.046.25 0 .297C1.454.016 1.782 0 2.25 0c.438 0 .656.016 1.094.016.062-.047.062-.235 0-.297-.625-.016-.781-.063-.781-.813m0 0"/><path id="r" d="M1.516-3.187c-.016-.282-.032-.594-.063-.688-.031-.047-.047-.062-.11-.062-.25.093-.484.171-1.109.25a.45.45 0 0 0 .032.25c.468.046.578.093.578.609v1.734c0 .735-.125.782-.61.813-.062.062-.062.25 0 .297C.5.016.844 0 1.204 0c.343 0 .624.016.89.016.062-.047.062-.235 0-.297-.453-.047-.547-.078-.547-.813v-1.453c0-.187.078-.297.14-.375.36-.36.688-.531.97-.531.343 0 .593.219.593.812v1.547c0 .735-.078.782-.562.813-.032.062-.032.25 0 .297.234 0 .562-.016.921-.016.36 0 .641.016.875.016.032-.047.032-.235 0-.297-.453-.031-.53-.078-.53-.813V-2.5c0-.125 0-.25-.017-.36.438-.484.829-.593 1.188-.593.328 0 .531.203.531.797v1.562c0 .735-.093.782-.547.813-.046.062-.046.25 0 .297.22 0 .547-.016.907-.016.359 0 .672.016.922.016.046-.047.046-.235 0-.297-.5-.031-.579-.078-.579-.813V-2.5c0-.797-.125-1.422-.921-1.422-.454 0-1 .172-1.47.672-.03.016-.077.063-.093-.016-.078-.359-.437-.656-.89-.656-.516 0-.985.313-1.36.735-.047.03-.094.093-.11 0m0 0"/><path id="e" d="M1.25-2.562c0-.282-.016-.47-.047-.532-.016-.047-.031-.062-.094-.062-.203.078-.375.14-.875.203a.45.45 0 0 0 .016.203c.39.031.469.078.469.484v1.391c0 .594-.094.625-.531.656C.14-.172.14-.03.188.016.438 0 .718 0 1 0c.281 0 .61 0 .86.016.046-.047.046-.188 0-.235-.5-.031-.579-.062-.579-.656v-.984c0-.188.078-.36.172-.485.078-.11.234-.344.328-.344a.22.22 0 0 1 .188.094c.047.063.125.156.25.156.172 0 .344-.171.344-.359 0-.125-.141-.344-.438-.344-.328 0-.625.313-.797.594-.031.078-.078.031-.078-.015m0 0"/><path id="f" d="M2.75-.672c-.266.281-.469.39-.875.39-.266 0-.562-.14-.781-.515-.14-.234-.235-.562-.235-.969l1.907.016c.078 0 .14-.047.14-.125 0-.61-.219-1.25-1.219-1.25-.609 0-1.421.594-1.421 1.688 0 .39.093.78.328 1.046.25.297.578.47 1.094.47.546 0 .937-.25 1.218-.626-.015-.078-.062-.11-.156-.125M.89-2.016c.126-.812.626-.875.798-.875.28 0 .593.157.593.75 0 .063-.031.11-.11.11Zm0 0"/><path id="g" d="M.344-.984C.375-.641.39-.297.39 0c.078-.016.14-.016.187-.016s.094 0 .14.016c.188.047.376.078.641.078.407 0 1.141-.203 1.141-.906 0-.485-.344-.766-.844-.953-.422-.157-.703-.266-.703-.657 0-.296.25-.468.5-.468.156 0 .563.062.656.672.047.046.188.03.235 0 .015-.266.031-.532.047-.766-.235-.031-.563-.14-.938-.14-.531 0-1.016.343-1.016.812 0 .515.235.734.797.969.594.234.72.39.72.687 0 .36-.345.5-.61.5-.266 0-.438-.078-.5-.156C.688-.5.609-.812.563-1c-.047-.031-.172-.031-.22.016m0 0"/><clipPath id="a"><path d="M.414 33H14v1H.414Zm0 0"/></clipPath><clipPath id="b"><path d="M212 33h14.262v1H212Zm0 0"/></clipPath></defs><path fill="none" stroke="#000" stroke-miterlimit="10" stroke-width="1.1907974" d="M25.27 33.8h11.742m0 0h11.742"/><g clip-path="url(#a)"><path fill="none" stroke="#000" stroke-dasharray="2.9758285895000003 2.9758285895000003" stroke-miterlimit="10" stroke-width=".39726435000000004" d="M.61 33.8h12.917"/></g><path fill="none" stroke="#000" stroke-miterlimit="10" stroke-width=".39726435000000004" d="M13.527 33.8h5.871m0 0h5.872"/><path fill="#FFF" stroke="#000" stroke-miterlimit="10" stroke-width=".39726435000000004" d="M15.105 33.8c0-.87-.707-1.577-1.578-1.577-.87 0-1.582.707-1.582 1.578a1.58 1.58 0 1 0 3.16 0ZM26.852 33.8a1.582 1.582 0 0 0-3.164 0 1.583 1.583 0 0 0 3.164 0Zm0 0"/><path fill="none" stroke="#000" stroke-miterlimit="10" stroke-width=".39726435000000004" d="M48.754 33.8v-4.109m0 0v-4.109"/><path stroke="#000" stroke-miterlimit="10" stroke-width=".39726435000000004" d="M50.336 33.8a1.58 1.58 0 1 0-3.16.004 1.58 1.58 0 0 0 3.16-.003Zm0 0"/><path fill="none" stroke="#000" stroke-miterlimit="10" stroke-width=".39726435000000004" d="M60.496 25.582a2.936 2.936 0 1 0-5.871 0 2.936 2.936 0 1 0-5.871 0M60.496 25.582v4.11m0 0V33.8M48.754 33.8v4.11m0 0v4.11h3.894m3.954 0h3.894v-4.11m0 0V33.8"/><path fill="none" stroke="#000" stroke-miterlimit="10" stroke-width=".7935330500000001" d="M52.648 36.094v11.855m3.954-11.855v11.855"/><path stroke="#000" stroke-miterlimit="10" stroke-width=".39726435000000004" d="M62.078 33.8a1.58 1.58 0 1 0-3.159.004 1.58 1.58 0 0 0 3.16-.003Zm0 0"/><path fill="none" stroke="#000" stroke-miterlimit="10" stroke-width="1.1907974" d="M60.496 33.8H83.98m0 0h23.489m11.742 0h23.484m0 0h23.485"/><path fill="none" stroke="#000" stroke-miterlimit="10" stroke-width=".39726435000000004" d="M166.18 33.8v-4.109m0 0v-4.109M177.922 25.582a2.936 2.936 0 1 0-5.871 0 2.936 2.936 0 1 0-5.871 0M177.922 25.582v4.11m0 0V33.8"/><path stroke="#000" stroke-miterlimit="10" stroke-width=".39726435000000004" d="M167.762 33.8a1.582 1.582 0 0 0-3.164 0 1.583 1.583 0 0 0 3.164 0Zm0 0"/><path fill="none" stroke="#000" stroke-miterlimit="10" stroke-width=".39726435000000004" d="M166.18 33.8v4.11m0 0v4.11h3.894m3.953 0h3.895v-4.11m0 0V33.8"/><path fill="none" stroke="#000" stroke-miterlimit="10" stroke-width=".7935330500000001" d="M170.074 36.094v11.855m3.953-11.855v11.855"/><path stroke="#000" stroke-miterlimit="10" stroke-width=".39726435000000004" d="M179.504 33.8a1.58 1.58 0 1 0-3.16.004 1.58 1.58 0 0 0 3.16-.003Zm0 0"/><path fill="none" stroke="#000" stroke-miterlimit="10" stroke-width="1.1907974" d="M177.922 33.8h11.742m0 0h11.742"/><path fill="none" stroke="#000" stroke-miterlimit="10" stroke-width=".39726435000000004" d="M201.406 33.8h5.871m0 0h5.871"/><path fill="#FFF" stroke="#000" stroke-miterlimit="10" stroke-width=".39726435000000004" d="M202.988 33.8a1.58 1.58 0 1 0-3.159.004 1.58 1.58 0 0 0 3.16-.003Zm0 0"/><g clip-path="url(#b)"><path fill="none" stroke="#000" stroke-dasharray="2.9758285895000003 2.9758285895000003" stroke-miterlimit="10" stroke-width=".39726435000000004" d="M213.148 33.8h12.918"/></g><path fill="none" stroke="#000" stroke-miterlimit="10" stroke-width=".39726435000000004" d="M213.148 33.8"/><path fill="#FFF" stroke="#000" stroke-miterlimit="10" stroke-width=".39726435000000004" d="M214.73 33.8a1.58 1.58 0 1 0-3.159.004 1.58 1.58 0 0 0 3.16-.003Zm0 0"/><path fill="none" stroke="#000" stroke-miterlimit="10" stroke-width=".39726435000000004" d="M107.469 33.8"/><path stroke="#000" stroke-miterlimit="10" stroke-width=".39726435000000004" d="M109.047 33.8a1.58 1.58 0 1 0-3.161.003 1.58 1.58 0 0 0 3.16-.002Zm0 0"/><use xlink:href="#c" x="104.797" y="43.135"/><path fill="none" stroke="#000" stroke-miterlimit="10" stroke-width=".39726435000000004" d="M119.211 33.8"/><path stroke="#000" stroke-miterlimit="10" stroke-width=".39726435000000004" d="M120.79 33.8a1.58 1.58 0 1 0-3.161.003 1.58 1.58 0 0 0 3.16-.002Zm0 0"/><use xlink:href="#c" x="116.539" y="43.135"/><use xlink:href="#d" x="26.015" y="57.353"/><use xlink:href="#e" x="29.774" y="59.227"/><use xlink:href="#f" x="32.431" y="59.227"/><use xlink:href="#g" x="35.623" y="59.227"/><use xlink:href="#h" x="41.273" y="57.353"/><use xlink:href="#i" x="49.53" y="57.353"/><use xlink:href="#j" x="53.682" y="57.353"/><use xlink:href="#k" x="55.646" y="57.353"/><use xlink:href="#l" x="59.797" y="57.353"/><use xlink:href="#m" x="65.439" y="57.353"/><use xlink:href="#n" x="72.929" y="57.353"/><use xlink:href="#o" x="79.446" y="57.353"/><path fill="none" stroke="#999" stroke-miterlimit="10" stroke-width=".0099565" d="M48.754 16.187"/><path fill="none" stroke="#000" stroke-miterlimit="10" stroke-width=".39726435000000004" d="M25.566 16.187h22.891"/><path stroke="#000" stroke-miterlimit="10" stroke-width=".39726435000000004" d="m26.062 16.187 2.961 1.754v-3.507Zm0 0"/><path fill="none" stroke="#000" stroke-miterlimit="10" stroke-width=".39726435000000004" d="M25.469 18.469v-4.563"/><path stroke="#000" stroke-miterlimit="10" stroke-width=".39726435000000004" d="M47.96 16.187 45 14.434v3.507Zm0 0"/><path fill="none" stroke="#000" stroke-miterlimit="10" stroke-width=".39726435000000004" d="M48.555 13.906v4.563"/><path fill="#FFF" d="M22.559 12.617h28.91V0h-28.91Zm0 0"/><use xlink:href="#p" x="25.532" y="8.456"/><use xlink:href="#j" x="29.684" y="8.456"/><use xlink:href="#i" x="31.648" y="8.456"/><use xlink:href="#q" x="35.799" y="8.456"/><use xlink:href="#r" x="41.432" y="8.456"/><path fill="none" stroke="#999" stroke-miterlimit="10" stroke-width=".0099565" d="M107.469 16.187"/><path fill="none" stroke="#000" stroke-miterlimit="10" stroke-width=".39726435000000004" d="M60.793 16.187h46.375"/><path stroke="#000" stroke-miterlimit="10" stroke-width=".39726435000000004" d="m61.29 16.187 2.96 1.754v-3.507Zm0 0"/><path fill="none" stroke="#000" stroke-miterlimit="10" stroke-width=".39726435000000004" d="M60.695 18.469v-4.563"/><path stroke="#000" stroke-miterlimit="10" stroke-width=".39726435000000004" d="m106.672 16.187-2.961-1.753v3.507Zm0 0"/><path fill="none" stroke="#000" stroke-miterlimit="10" stroke-width=".39726435000000004" d="M107.27 13.906v4.563"/><path fill="#FFF" d="M67.453 12.617h33.059V0H67.453Zm0 0"/><use xlink:href="#q" x="70.426" y="8.456"/><use xlink:href="#k" x="74.578" y="8.456"/><use xlink:href="#j" x="78.729" y="8.456"/><use xlink:href="#k" x="80.693" y="8.456"/><use xlink:href="#i" x="84.844" y="8.456"/><use xlink:href="#r" x="90.477" y="8.456"/><path fill="none" stroke="#999" stroke-miterlimit="10" stroke-width=".0099565" d="M166.18 16.187"/><path fill="none" stroke="#000" stroke-miterlimit="10" stroke-width=".39726435000000004" d="M119.508 16.187h46.375"/><path stroke="#000" stroke-miterlimit="10" stroke-width=".39726435000000004" d="m120.004 16.187 2.96 1.754v-3.507Zm0 0"/><path fill="none" stroke="#000" stroke-miterlimit="10" stroke-width=".39726435000000004" d="M119.406 18.469v-4.563"/><path stroke="#000" stroke-miterlimit="10" stroke-width=".39726435000000004" d="m165.387 16.187-2.961-1.753v3.507Zm0 0"/><path fill="none" stroke="#000" stroke-miterlimit="10" stroke-width=".39726435000000004" d="M165.98 13.906v4.563"/><path fill="#FFF" d="M126.164 12.617h33.063V0h-33.063Zm0 0"/><use xlink:href="#q" x="129.139" y="8.456"/><use xlink:href="#k" x="133.29" y="8.456"/><use xlink:href="#j" x="137.441" y="8.456"/><use xlink:href="#k" x="139.405" y="8.456"/><use xlink:href="#i" x="143.557" y="8.456"/><use xlink:href="#r" x="149.19" y="8.456"/><path fill="none" stroke="#999" stroke-miterlimit="10" stroke-width=".0099565" d="M201.406 16.187"/><path fill="none" stroke="#000" stroke-miterlimit="10" stroke-width=".39726435000000004" d="M178.219 16.187h22.89"/><path stroke="#000" stroke-miterlimit="10" stroke-width=".39726435000000004" d="m178.715 16.187 2.96 1.754v-3.507Zm0 0"/><path fill="none" stroke="#000" stroke-miterlimit="10" stroke-width=".39726435000000004" d="M178.121 18.469v-4.563"/><path stroke="#000" stroke-miterlimit="10" stroke-width=".39726435000000004" d="m200.613 16.187-2.96-1.753v3.507Zm0 0"/><path fill="none" stroke="#000" stroke-miterlimit="10" stroke-width=".39726435000000004" d="M201.207 13.906v4.563"/><path fill="#FFF" d="M175.21 12.617h28.911V0h-28.91Zm0 0"/><use xlink:href="#p" x="178.184" y="8.456"/><use xlink:href="#j" x="182.335" y="8.456"/><use xlink:href="#i" x="184.299" y="8.456"/><use xlink:href="#q" x="188.45" y="8.456"/><use xlink:href="#r" x="194.083" y="8.456"/></svg>