<svg xmlns="http://www.w3.org/2000/svg" xmlns:xlink="http://www.w3.org/1999/xlink" width="229.845" height="125.65"><defs><path id="d" d="M4.813-.906 3.438-2.781c-.079-.125-.141-.219-.141-.297a.46.46 0 0 1 .094-.281l1.218-1.578c.313-.391.594-.516 1-.547.047-.063.047-.25 0-.297-.28 0-.609.015-.812.015s-.578-.015-.938-.015c-.046.047-.046.234 0 .297.391.03.563.078.344.375L3.11-3.547c-.046.063-.109.11-.14.11s-.063-.047-.11-.11L1.875-5c-.25-.36-.297-.453.203-.484.063-.063.063-.25 0-.297-.328 0-.656.015-1.015.015-.344 0-.641-.015-.907-.015-.062.047-.047.234 0 .297.375.03.547.062.922.593l1.266 1.813c.062.11.125.187.125.265 0 .063-.031.141-.094.22L1.047-.829C.75-.422.469-.312.063-.281c-.047.062-.047.25 0 .297C.328.016.656 0 .859 0c.22 0 .594.016.954.016.046-.047.046-.235 0-.297-.407-.016-.563-.063-.36-.375l1.188-1.656c.046-.063.109-.126.125-.126.046 0 .078.032.125.11L4-.766c.25.36.297.47-.203.485-.063.062-.063.25 0 .297C4.125.016 4.453 0 4.812 0c.344 0 .641.016.907.016.062-.047.047-.235 0-.297-.39-.016-.532-.11-.907-.625m0 0"/><path id="o" d="m.938-3.828-.47.015c-.171.016-.234.079-.25.157a1 1 0 0 0-.046.156c0 .016.031.016.062.016H.86L.313-1.047C.25-.766.188-.484.188-.328c0 .328.156.422.437.422.406 0 1-.375 1.297-.922C1.89-.953 1.828-1 1.719-1c-.407.469-.563.547-.703.547C.984-.453.89-.47.89-.578c0-.078.03-.25.093-.563l.532-2.343h.875c.109-.047.187-.282.093-.344h-.89l.093-.406c.032-.172.125-.438.125-.532 0-.156-.078-.25-.359-.25-.328 0-.312.407-.406.735Zm0 0"/><path id="p" d="M1.828.094c1.75 0 2.375-1.14 2.672-2.735l.484-2.453c.047-.25.188-.39.563-.406l.219-.016c.046 0 .078-.03.078-.078l.031-.172-.016-.015c-.406 0-.75.015-.937.015-.203 0-.547-.015-.938-.015l-.03.015-.032.172c0 .047.031.078.062.078l.22.016c.296.016.405.094.405.281 0 .032 0 .078-.015.125l-.516 2.625c-.187 1-.547 2.188-2 2.188-.422 0-.734-.188-.937-.438C.953-.969.906-1.25.906-1.53s.047-.594.11-.875L1.53-5.11c.063-.25.203-.375.563-.391l.219-.016c.046 0 .078-.03.078-.078l.046-.172-.03-.015c-.391 0-.75.015-1.094.015S.64-5.78.234-5.78l-.03.015-.032.172c0 .047.031.078.062.078l.22.016c.28.016.405.078.405.266 0 .046 0 .078-.015.125l-.578 3a3 3 0 0 0-.063.625c0 1.28.953 1.578 1.625 1.578m0 0"/><path id="e" d="M2.063-.875v-2.484c0-.422 0-.86.015-.953 0-.032-.015-.032-.031-.032-.406.235-.781.422-1.406.703a.33.33 0 0 0 .109.204c.328-.141.484-.188.61-.188.124 0 .156.172.156.422v2.328c0 .594-.203.625-.703.656-.047.047-.047.188 0 .235C1.172 0 1.422 0 1.813 0c.343 0 .515 0 .875.016.03-.047.03-.188 0-.235-.5-.031-.626-.062-.626-.656m0 0"/><path id="f" d="M.438-3.344c0 .14.14.281.28.281.126 0 .345-.14.345-.296 0-.047-.016-.094-.032-.141-.015-.062-.062-.125-.062-.172 0-.187.187-.437.719-.437.25 0 .609.172.609.859 0 .453-.156.828-.578 1.266l-.532.515C.485-.75.375-.406.375.016c0 0 .36-.016.594-.016h1.25c.234 0 .562.016.562.016a8 8 0 0 0 .172-1.125c-.047-.047-.14-.063-.219-.047-.109.515-.234.687-.5.687H.97c0-.343.484-.828.531-.86l.719-.702c.406-.39.719-.703.719-1.25 0-.766-.641-1.078-1.22-1.078-.78 0-1.28.578-1.28 1.015m0 0"/><path id="g" d="M1.531-4.11c.313 0 .594.188.594.641 0 .36-.406.906-1.11 1l.032.235c.125-.016.25-.016.344-.016.406 0 .937.125.937.922 0 .953-.64 1.156-.89 1.156-.36 0-.422-.172-.516-.297a.34.34 0 0 0-.313-.187c-.14 0-.296.14-.296.25 0 .281.609.484 1.03.484.86 0 1.61-.562 1.61-1.5 0-.781-.578-1.062-1-1.14h-.016c.594-.282.75-.579.75-.954a.77.77 0 0 0-.218-.578c-.156-.156-.406-.265-.781-.265-1.047 0-1.344.687-1.344.922 0 .093.062.234.234.234.25 0 .281-.235.281-.375 0-.453.5-.531.672-.531m0 0"/><path id="h" d="M3.078-1.562h-.594v-2.094c0-.36 0-.64.016-.688l-.016-.015H2.25c-.047 0-.078.03-.11.078-.453.547-1.28 1.718-1.937 2.75.016.11.063.297.281.297h1.454v.656c0 .328-.266.328-.579.36-.046.046-.046.187 0 .234C1.594 0 1.875 0 2.203 0c.281 0 .547 0 .781.016.047-.047.047-.188 0-.235-.343-.031-.5-.015-.5-.36v-.655h.5c.094 0 .204-.125.204-.22 0-.077-.032-.109-.11-.109m-1.14-2.063v2.063H.577c.36-.594.875-1.391 1.36-2.063m0 0"/><path id="i" d="M2.281-1.36c0 .688-.36 1.188-.781 1.188-.281 0-.375-.172-.484-.328C.937-.61.813-.719.656-.719a.274.274 0 0 0-.265.266c0 .281.609.531 1.015.531.89 0 1.516-.656 1.516-1.562 0-.688-.485-1.313-1.281-1.313-.313 0-.578.063-.703.11l.14-1.188c.266.031.5.063.844.063q.305 0 .75-.047l.11-.485-.048-.031c-.406.047-.796.078-1.171.078-.266 0-.532-.016-.782-.031L.547-2.266c.375-.14.64-.171.906-.171.469 0 .828.312.828 1.078m0 0"/><path id="j" d="M2.953-2.469H.547V-3h2.406Zm0 0"/><path id="k" d="m4.484-.484-.578-1.641H1.688l-.594 1.64.672.126q.124.017.125.093 0 .066-.094.266H-.078a.2.2 0 0 1-.016-.078Q-.096-.342.22-.406l.25-.063L2.64-6.172l.562-.062L5.343-.47l.391.11q.124.034.125.093 0 .048-.093.266H3.859a.16.16 0 0 1-.015-.078q-.002-.246.297-.328Zm-2.64-2.11h1.89l-.921-2.61h-.016Zm0 0"/><path id="l" d="M2.484-3.031h1.563v.469H2.484v1.671h-.5v-1.671H.422v-.47h1.562v-1.655h.5Zm0 0"/><path id="n" d="M2.234-.39q1.092.001 1.094-2.516-.002-2.515-1.094-2.516-1.094.001-1.093 2.516c0 1.68.363 2.515 1.093 2.515m-.03.5q-.88 0-1.376-.75Q.296-1.42.297-2.907c0-.977.187-1.735.562-2.266.352-.5.829-.75 1.422-.75q.873 0 1.36.75.528.784.53 2.266 0 1.47-.562 2.265-.533.75-1.406.75m0 0"/><clipPath id="a"><path d="M18 30h211.45v77H18Zm0 0"/></clipPath><clipPath id="b"><path d="M220 61h9.45v15H220Zm0 0"/></clipPath><clipPath id="c"><path d="M18 15h2v110.3h-2Zm0 0"/></clipPath><clipPath id="m"><path d="M18.82 19H222v99H18.82Zm0 0"/></clipPath></defs><g clip-path="url(#a)"><path fill="none" stroke="#BFBFBF" stroke-miterlimit="10" stroke-width=".19844678000000002" d="M18.82 106.258h210.434M18.82 30.878h210.434"/></g><path fill="none" stroke="#000" stroke-miterlimit="10" stroke-width=".7947843400000001" d="M57.082 70.688v-4.243m38.258 4.243v-4.243m38.262 4.243v-4.243m38.261 4.243v-4.243m38.258 4.243v-4.243M16.703 106.258h4.238m-4.238-75.38h4.238"/><path fill="none" stroke="#000" stroke-miterlimit="10" stroke-width=".39789078" d="M18.82 68.566H225.79"/><path d="m228.855 68.566-2.968-1.757v3.515Zm0 0"/><g clip-path="url(#b)"><path fill="none" stroke="#000" stroke-miterlimit="10" stroke-width=".39789078" d="m228.855 68.566-2.968-1.757v3.515Zm0 0"/></g><g clip-path="url(#c)"><path fill="none" stroke="#000" stroke-miterlimit="10" stroke-width=".39789078" d="M18.82 125.102V15.496"/></g><path stroke="#000" stroke-miterlimit="10" stroke-width=".39789078" d="m18.82 12.43-1.757 2.965h3.515Zm0 0"/><use xlink:href="#d" x="52.275" y="79.652"/><use xlink:href="#e" x="58.177" y="81.53"/><use xlink:href="#d" x="90.534" y="79.652"/><use xlink:href="#f" x="96.436" y="81.53"/><use xlink:href="#d" x="128.795" y="79.652"/><use xlink:href="#g" x="134.695" y="81.53"/><use xlink:href="#d" x="168.986" y="79.652"/><use xlink:href="#h" x="174.886" y="81.53"/><use xlink:href="#d" x="205.314" y="79.652"/><use xlink:href="#i" x="211.215" y="81.53"/><use xlink:href="#j" x="4.384" y="109.378"/><use xlink:href="#k" x="7.693" y="109.378"/><use xlink:href="#l" x="3.222" y="33.998"/><use xlink:href="#k" x="7.692" y="33.998"/><g clip-path="url(#m)"><path fill="none" stroke="#000" stroke-miterlimit="10" stroke-width=".7947843400000001" d="M18.82 68.566s.278-.425.383-.59c.11-.167.277-.43.387-.593.105-.164.273-.43.383-.594l.382-.594c.106-.164.278-.425.383-.59l.383-.59.383-.593c.105-.16.277-.426.383-.586.11-.164.277-.426.383-.59l.386-.586c.106-.164.278-.422.383-.586l.383-.582c.105-.164.277-.422.383-.582s.277-.418.382-.582l.383-.574c.11-.16.278-.418.383-.578.11-.16.277-.414.387-.574.105-.157.277-.41.383-.57l.382-.567.383-.567c.106-.156.278-.406.383-.562l.383-.559c.11-.156.277-.402.383-.558.11-.153.277-.399.386-.551l.383-.55c.106-.153.278-.395.383-.548.106-.148.277-.39.383-.543l.383-.535c.105-.152.277-.387.382-.535.11-.148.278-.387.383-.531.11-.149.278-.383.387-.528l.383-.52c.105-.144.277-.374.383-.519l.382-.511.383-.508c.106-.14.278-.363.383-.504.11-.137.277-.36.383-.496.11-.137.277-.36.387-.492.105-.137.273-.356.382-.489.106-.136.278-.351.383-.484.106-.133.278-.344.383-.477l.383-.468c.105-.133.277-.34.383-.469.11-.125.277-.332.382-.457.11-.129.278-.328.387-.453.106-.125.274-.324.383-.45.105-.12.277-.32.383-.44.105-.122.277-.313.383-.434.105-.122.277-.313.382-.43l.383-.422c.11-.117.278-.3.383-.414.11-.117.277-.297.387-.41.105-.113.273-.293.383-.403l.382-.394c.106-.11.278-.281.383-.387.106-.11.278-.277.383-.383.106-.105.277-.27.383-.37.11-.106.277-.27.383-.368.11-.101.277-.262.386-.36.106-.097.274-.253.383-.35.106-.098.278-.25.383-.345.105-.093.277-.246.383-.336.105-.093.277-.238.383-.328.105-.093.277-.234.382-.324l.383-.312.387-.305c.105-.082.273-.215.383-.297.105-.082.277-.207.383-.289.105-.078.277-.203.382-.277.106-.078.278-.2.383-.274.106-.074.278-.191.383-.265l.383-.254c.11-.07.277-.18.387-.246.105-.07.273-.176.382-.243l.383-.226c.106-.063.278-.164.383-.223.105-.062.277-.156.383-.215.105-.054.277-.148.383-.203.105-.054.277-.14.382-.195.11-.05.278-.137.387-.184.106-.05.274-.132.383-.18l.383-.167a16 16 0 0 1 .765-.309c.106-.043.278-.105.383-.144.106-.036.278-.094.383-.133.11-.035.277-.09.383-.121l.387-.114c.105-.03.277-.078.382-.105.106-.027.278-.07.383-.098l.383-.086c.105-.023.277-.054.383-.078.105-.02.277-.047.383-.066l.382-.059c.11-.015.278-.039.387-.05.106-.012.278-.028.383-.04.105-.007.277-.023.383-.03.105-.009.277-.017.383-.02.105-.008.277-.012.382-.012.106-.004.278-.004.383-.004.11 0 .278.004.383.008.11 0 .277.008.387.015a13 13 0 0 1 .765.059l.383.043.383.055c.105.015.277.043.383.062.11.016.277.05.383.07.109.02.277.059.386.082.106.024.278.063.383.09.106.028.278.07.383.098.105.031.277.078.383.11.105.03.277.085.383.117.105.035.277.09.382.128.11.036.278.098.383.137.11.04.278.102.387.145.105.039.273.11.383.152.105.043.277.117.383.164s.277.121.382.172c.106.05.278.129.383.18.106.054.278.136.383.191.11.055.277.14.383.2.11.054.277.148.387.206.105.059.273.157.382.215l.383.227c.106.062.278.168.383.234.105.063.277.172.383.242.105.067.277.18.383.25.109.07.277.184.382.258.11.074.278.191.387.266.106.078.274.199.383.277.105.078.277.203.383.285.105.078.277.207.383.29.105.081.277.218.382.3.106.086.278.223.383.309.11.086.278.226.383.316.11.09.277.234.387.324.105.09.273.239.383.332.105.094.277.242.382.34.106.094.278.25.383.348.106.094.278.254.383.351.105.102.277.262.383.364s.277.265.383.37c.109.102.277.27.386.376.106.105.274.277.383.383.106.109.277.28.383.39l.383.399c.105.113.277.293.383.406l.382.41c.106.117.278.3.383.418.11.117.278.305.387.426l.383.43.383.437c.105.125.277.32.382.445.106.125.278.324.383.45.106.124.278.328.383.457l.383.46c.11.13.277.336.387.47.105.128.273.339.382.472l.383.476c.106.137.277.352.383.485.105.137.277.355.383.492s.277.355.383.496c.105.137.277.36.382.5.11.137.278.363.387.504.106.14.274.367.383.508.105.144.277.37.383.515s.277.375.383.52l.382.523c.106.145.278.38.383.528.106.148.278.383.383.531.11.148.277.387.383.539.11.148.277.387.387.54.105.148.277.39.382.542.106.152.278.395.383.547l.383.55c.105.157.277.403.383.555.105.157.277.403.383.559.109.156.277.406.382.563.11.152.278.406.387.562l.383.566c.105.157.277.41.383.57.105.157.277.41.383.571s.277.414.382.574l.383.578c.11.16.278.418.383.579.11.16.277.417.387.578.105.164.277.422.383.586l.382.582c.106.164.278.421.383.586.106.164.277.425.383.585.105.165.277.426.383.59.11.164.277.426.383.59.109.164.277.426.386.59.106.164.278.426.383.59l.383.594.383.593c.105.164.277.426.383.59.105.168.277.43.382.594.11.164.278.43.383.594.11.164.278.43.387.593.105.165.273.43.383.594.105.164.277.426.383.59.105.168.277.43.382.594.106.164.278.426.383.59l.383.593c.11.164.277.426.383.59.11.16.277.426.386.586.106.164.274.426.383.59.106.16.278.422.383.586l.383.582c.105.164.277.422.383.586l.383.578c.109.16.277.418.382.582.11.16.278.414.387.574.106.16.274.418.383.575.105.16.277.414.383.574.105.156.277.41.383.57l.382.566.383.563.383.562c.11.157.277.407.387.559.105.156.273.402.382.555l.383.55.383.551c.106.153.277.395.383.543.105.153.277.39.383.543.105.149.277.387.383.535.109.149.277.387.386.536.106.144.274.378.383.527l.383.523c.105.145.277.375.383.52.105.144.277.375.383.515.105.145.277.372.382.512l.383.504c.11.14.277.363.387.504.105.137.273.36.383.496.105.137.277.356.382.488.106.137.278.352.383.489l.383.476.383.477.383.469c.11.128.277.335.386.464.106.125.274.329.383.457.106.125.278.325.383.45.106.125.277.324.383.445l.383.437c.105.122.277.313.383.434l.382.426c.11.117.278.305.383.418.11.117.277.3.387.414.105.113.277.293.383.406s.277.29.382.399l.383.394.383.383.383.379c.11.105.277.27.383.37.11.102.277.263.386.364.106.102.278.258.383.356.106.097.278.254.383.347a29.001 29.001 0 0 0 .766.676l.383.324c.109.09.277.23.382.32l.387.31c.106.085.277.218.383.3s.277.215.383.293c.105.082.277.207.382.285.106.078.278.203.383.277.106.079.278.196.383.27.11.074.277.191.383.262.11.07.277.183.387.254l.382.242c.106.066.278.172.383.234.106.067.278.164.383.227a19 19 0 0 0 .766.426c.11.058.277.148.383.203.109.054.277.14.386.191.106.05.274.133.383.184l.383.172c.105.046.277.12.383.164.105.046.277.117.382.156.106.043.278.11.383.148.11.04.278.102.383.137.11.039.277.094.387.129a14.068 14.068 0 0 0 .766.23c.105.032.277.075.382.102.106.027.278.066.383.094.106.023.277.058.383.082.11.02.277.054.383.074.11.016.277.047.386.062.106.016.274.043.383.055a13 13 0 0 0 .766.082l.383.027a13 13 0 0 0 .765.028h.387l.383-.012c.105-.004.277-.012.383-.02.105-.007.277-.019.382-.03.106-.008.278-.024.383-.036.106-.012.278-.035.383-.047.106-.015.277-.043.383-.058.11-.016.277-.047.387-.067.105-.02.273-.054.382-.074l.383-.086c.106-.023.278-.066.383-.094l.383-.101.383-.113a14 14 0 0 0 .77-.254c.105-.036.273-.098.382-.137.105-.043.277-.11.383-.152.105-.04.277-.11.383-.157.105-.043.277-.117.382-.168.106-.047.278-.125.383-.175a9 9 0 0 0 .383-.184c.11-.05.277-.137.387-.191l.383-.204.382-.21c.106-.06.278-.157.383-.22.106-.062.278-.163.383-.23.106-.062.277-.168.383-.234.105-.07.277-.176.383-.246.109-.07.277-.184.382-.254l.387-.262c.106-.074.278-.195.383-.273a24 24 0 0 0 .766-.567 25 25 0 0 0 .765-.597c.11-.086.278-.223.383-.309l.387-.32c.105-.09.277-.235.383-.328.105-.09.277-.243.382-.336l.383-.34c.106-.098.278-.254.383-.352l.383-.355c.11-.102.277-.266.383-.367.109-.102.277-.266.386-.371.106-.106.278-.274.383-.38.106-.109.278-.28.383-.386.105-.11.277-.285.383-.395.105-.109.277-.289.383-.402.105-.11.277-.293.382-.406.11-.113.278-.297.383-.414.11-.117.278-.305.387-.422.105-.117.277-.305.383-.426s.277-.312.383-.433c.105-.122.277-.317.382-.442.106-.121.278-.32.383-.445.106-.125.278-.324.383-.453.11-.125.277-.328.383-.457.11-.13.277-.336.387-.465.105-.13.273-.34.382-.469.106-.133.278-.344.383-.477l.383-.48c.105-.137.277-.352.383-.488.105-.133.277-.352.383-.492.109-.137.277-.356.382-.497.11-.136.278-.363.387-.5.106-.14.274-.367.383-.507l.383-.512c.105-.145.277-.371.383-.516.105-.144.277-.375.382-.523l.383-.524c.11-.148.278-.382.383-.53.11-.145.277-.384.387-.532.105-.149.273-.39.383-.54.105-.148.277-.39.382-.542.106-.149.278-.39.383-.543l.383-.55.383-.552c.11-.156.277-.402.383-.554.109-.157.277-.407.386-.563.106-.152.274-.402.383-.558l.383-.567.383-.566c.105-.16.277-.414.383-.57.105-.16.277-.415.382-.575.106-.16.278-.414.383-.574.11-.16.278-.418.387-.578.105-.16.273-.418.383-.578.105-.164.277-.422.383-.582.105-.164.277-.422.382-.586l.383-.582.383-.586c.105-.164.277-.426.383-.59.11-.164.277-.426.387-.59.105-.16.273-.426.382-.59.106-.164.278-.425.383-.59l.383-.59.383-.593c.105-.164.277-.426.383-.594l.382-.59c.11-.168.278-.43.387-.593.106-.165.274-.43.383-.594l.383-.594.383-.594.382-.59.383-.593c.106-.164.278-.426.383-.59.11-.164.277-.426.387-.59.105-.164.273-.426.383-.59l.382-.59c.106-.16.278-.422.383-.586l.383-.586.383-.582c.105-.164.277-.421.383-.582.109-.164.277-.422.382-.582.11-.16.278-.418.387-.578.106-.16.277-.418.383-.574.105-.16.277-.418.383-.574.105-.16.277-.414.383-.574l.382-.567.383-.566c.11-.157.278-.407.383-.563.11-.156.277-.406.387-.562l.383-.555c.105-.156.277-.402.382-.555l.383-.55.383-.547c.105-.153.277-.39.383-.543.11-.149.277-.39.383-.54.109-.148.277-.386.386-.534.106-.149.278-.383.383-.532.106-.148.277-.383.383-.527l.383-.524c.105-.144.277-.375.383-.515.105-.145.277-.375.382-.516.11-.14.278-.367.383-.508.11-.14.278-.367.387-.503.105-.141.277-.364.383-.5.105-.137.277-.356.383-.493.105-.136.277-.355.382-.488.106-.137.278-.352.383-.484.106-.133.277-.348.383-.477.11-.133.277-.344.383-.473.11-.132.277-.34.386-.468.106-.13.274-.332.383-.461l.383-.453.383-.45c.105-.125.277-.32.383-.441.105-.125.277-.316.383-.437l.382-.43c.11-.117.278-.309.387-.422.106-.117.274-.305.383-.418.105-.117.277-.297.383-.41s.277-.293.383-.403c.105-.113.277-.289.382-.398.106-.11.278-.281.383-.39.11-.106.277-.278.383-.38.11-.105.277-.273.387-.374a32.277 32.277 0 0 1 .766-.73c.105-.099.277-.259.382-.353a31 31 0 0 1 .766-.683c.105-.094.277-.242.383-.332.109-.09.277-.235.386-.32a26.102 26.102 0 0 1 .766-.621 24.6 24.6 0 0 1 .766-.59 23.215 23.215 0 0 1 1.152-.82c.105-.075.273-.188.383-.259.105-.07.277-.183.382-.25l.383-.242c.106-.062.278-.168.383-.23.106-.063.277-.16.383-.223.105-.062.277-.156.383-.215l.386-.207.383-.195c.106-.055.278-.137.383-.188.106-.05.277-.132.383-.18l.383-.171c.105-.043.277-.117.383-.16l.382-.153c.11-.039.278-.105.387-.144.106-.035.273-.098.383-.133l.383-.125c.105-.031.277-.086.382-.117.106-.031.278-.078.383-.106l.383-.097a14 14 0 0 1 .766-.168l.386-.07.383-.06c.106-.015.278-.038.383-.05.106-.016.277-.031.383-.043s.277-.023.383-.031.277-.02.383-.024c.109-.007.277-.011.382-.015.11-.004.387-.004.387-.004"/></g><use xlink:href="#n" x="22" y="77.666"/><use xlink:href="#o" x="224.041" y="76.763"/><use xlink:href="#p" x="10.885" y="8.765"/></svg>