<svg xmlns="http://www.w3.org/2000/svg" xmlns:xlink="http://www.w3.org/1999/xlink" width="223.765" height="137.016"><defs><path id="c" d="M2.719-2.64a5 5 0 0 1-.375.015h-.469v2.14l.61.126q.123.017.124.093 0 .048-.093.266H.422a.16.16 0 0 1-.016-.078Q.404-.324.72-.406l.375-.078v-5.188l-.547-.125c-.086-.02-.125-.05-.125-.094q0-.074.094-.25h1.797c1.664 0 2.5.575 2.5 1.72Q4.81-3.169 3.53-2.782L5.047-.47l.437.11q.124.034.125.093Q5.607-.218 5.5 0H4.313Zm-.422-.438q1.687.002 1.687-1.297 0-1.266-1.687-1.266h-.422v2.563Zm0 0"/><path id="d" d="M2.188-6.14c.007.023.015.046.015.077q0 .236-.312.313l-.313.063L2.75-3.703h.016l1.265-2-.61-.094q-.126 0-.124-.094-.001-.074.11-.25h1.78c.008.024.016.047.016.079q-.002.252-.297.312l-.312.063-1.532 2.453L4.735-.47l.422.11q.124.034.125.093 0 .048-.093.266H3.297a.16.16 0 0 1-.016-.078q-.002-.264.313-.328l.265-.047-1.265-2.125h-.016L1.266-.453l.562.094q.124.017.125.093A.6.6 0 0 1 1.86 0H.047v-.078q0-.264.297-.328l.25-.063 1.672-2.593-1.594-2.61-.438-.11C.148-5.8.11-5.835.11-5.89q0-.074.11-.25Zm0 0"/><path id="e" d="M1.094-.484v-5.188l-.547-.125c-.086-.02-.125-.05-.125-.094q0-.074.094-.25H4.53c.04.5.063.852.063 1.047 0 .262-.086.39-.25.39a.6.6 0 0 1-.203-.03l-.22-.938H1.876v2.313h1.969v.484H1.875V-.5h2.11l.25-.969a.6.6 0 0 1 .202-.031q.219 0 .22.36Q4.655-.78 4.577 0H.422a.16.16 0 0 1-.016-.078Q.404-.324.72-.406Zm0 0"/><path id="f" d="M.86-.469v-5.453l-.641-.094a.1.1 0 0 1-.016-.062q0-.246.328-.281l1.047-.11v6l.547.125q.124.017.125.11A.35.35 0 0 1 2.156 0H.266v-.062c0-.133.086-.235.265-.297Zm0 0"/><path id="g" d="M1.156-2.172q.012.845.375 1.297c.239.305.57.453 1 .453q.593 0 1.11-.422.092.064.109.25-.001.205-.406.438-.47.265-1.11.265Q1.42.111.938-.39C.57-.773.39-1.332.39-2.062Q.39-3.152.969-3.798a1.7 1.7 0 0 1 1.297-.578q.702.001 1.093.406.36.41.36 1.078 0 .299-.094.72Zm1.032-1.75q-.91.002-1.016 1.328h1.75q.047-.17.047-.375-.001-.951-.781-.953m0 0"/><path id="h" d="M.813-.469v-5.453l-.641-.094a.1.1 0 0 1-.016-.062q0-.246.328-.281l1.063-.11v3.985h.531L3.266-3.86l-.625-.125v-.079q-.001-.217.25-.218h1.422q.107 0 .109.093a.5.5 0 0 1-.063.204l-.515.156-1.25 1.437 1.5 1.938.453.11q.124.015.125.109A.4.4 0 0 1 4.594 0H3.437L1.954-2.047h-.406v1.594L2-.343q.124.015.125.109A.35.35 0 0 1 2.031 0H.22v-.062c0-.133.086-.235.265-.297Zm0 0"/><path id="i" d="M.86-4.281 1.03-5.47h.516v1.188H2.89l-.094.468h-1.25v2.75q-.001.657.578.657c.3 0 .55-.07.75-.219q.062.082.063.25-.002.112-.25.266-.332.217-.813.218Q.827.11.828-.92v-2.891H.156a.1.1 0 0 1-.015-.063q0-.216.28-.297Zm0 0"/><path id="j" d="M.906-.469V-3.78l-.64-.094a.16.16 0 0 1-.016-.078c0-.156.11-.242.328-.266l1.047-.11-.047.75h.031q.517-.796 1.125-.796.593 0 .594.422 0 .188-.14.375a1.6 1.6 0 0 0-.594-.125c-.399 0-.719.168-.969.5V-.47l.625.125q.124.017.125.11A.35.35 0 0 1 2.281 0H.312a.1.1 0 0 1-.015-.062c0-.133.094-.235.281-.297Zm0 0"/><path id="k" d="M.906-.469V-3.78l-.64-.094a.16.16 0 0 1-.016-.078c0-.156.11-.242.328-.266l1.047-.11v3.86l.547.125c.07.012.11.047.11.11A.4.4 0 0 1 2.202 0H.313a.1.1 0 0 1-.016-.062c0-.133.094-.235.281-.297ZM.75-5.812q0-.236.14-.375a.53.53 0 0 1 .376-.141q.217 0 .359.14a.49.49 0 0 1 .156.375.49.49 0 0 1-.156.375.5.5 0 0 1-.36.125.56.56 0 0 1-.374-.125.5.5 0 0 1-.141-.375m0 0"/><path id="l" d="M1-.562q.264.187.64.187c.508 0 .766-.195.766-.594q0-.234-.234-.468a8 8 0 0 0-.594-.391q-.517-.34-.734-.563a1.23 1.23 0 0 1-.36-.859c0-.344.133-.613.407-.812q.406-.312 1.015-.313c.395 0 .711.102.953.297q.031.346.032.547 0 .438-.328.437h-.094l-.094-.64a1.13 1.13 0 0 0-.61-.188q-.656 0-.656.516 0 .363.516.703.469.3.938.594c.332.28.5.601.5.953q-.001.55-.407.906-.408.362-1.094.36C1.126.11.767.022.484-.14a3.7 3.7 0 0 1-.078-.735q0-.422.328-.422h.079Zm0 0"/><path id="m" d="M3.547-.844q.124.128.125.25 0 .222-.36.438-.44.265-1.062.265-.862 0-1.344-.562-.515-.56-.515-1.625c0-.719.21-1.29.64-1.719q.594-.576 1.532-.578c.406 0 .71.086.921.25q.248.189.25.438 0 .39-.375.484-.327-.687-.984-.688a1.07 1.07 0 0 0-.844.375q-.361.44-.36 1.25 0 1.845 1.36 1.844.64 0 1.016-.422m0 0"/><path id="n" d="M.813-.469v-5.453l-.641-.094a.1.1 0 0 1-.016-.062q0-.246.328-.281l1.063-.11v2.735h.016q.513-.64 1.375-.641 1.42 0 1.421 1.594V-.47l.547.125c.07.012.11.047.11.11A.4.4 0 0 1 4.937 0h-1.89a.1.1 0 0 1-.016-.062c0-.133.094-.235.281-.297l.329-.11V-2.75q-.002-1.03-.953-1.031-.706 0-1.141.453v2.86l.531.124q.124.017.125.11A.35.35 0 0 1 2.11 0H.22v-.062c0-.133.086-.235.265-.297Zm0 0"/><path id="o" d="M.422 0a.16.16 0 0 1-.016-.078Q.404-.324.72-.406l.375-.078v-5.188l-.547-.125c-.086-.02-.125-.05-.125-.094q0-.074.094-.25h2.062a.2.2 0 0 1 .016.079q-.001.236-.313.296l-.406.094V-.5h2.047l.25-1.062a.6.6 0 0 1 .203-.032q.218 0 .219.36Q4.592-.78 4.516 0Zm0 0"/><path id="p" d="M2.656-2.766q0-.59-.187-.859-.174-.28-.594-.281-.298 0-.531.078-.11.234-.203.797H.953q-.438 0-.437-.375c0-.27.148-.5.453-.688A1.97 1.97 0 0 1 2-4.375q1.373 0 1.375 1.5v1.953c0 .336.102.5.313.5a.48.48 0 0 0 .328-.11q.077.112.078.25c0 .063-.059.134-.172.204a.87.87 0 0 1-.531.156q-.611 0-.688-.61h-.015q-.423.643-1.22.641-.502 0-.812-.312-.313-.311-.312-.828c0-.438.219-.774.656-1.016.375-.195.844-.297 1.406-.297h.25Zm-.89 2.313q.498 0 .89-.469v-1.015l-.25.015q-1.282.096-1.281.813c0 .437.21.656.64.656m-.547-4.594A.43.43 0 0 1 .782-5.5c0-.133.038-.242.124-.328a.43.43 0 0 1 .313-.125.38.38 0 0 1 .297.125.46.46 0 0 1 .125.328.45.45 0 0 1-.125.328.37.37 0 0 1-.297.125m1.5 0a.41.41 0 0 1-.313-.125.47.47 0 0 1-.11-.328q0-.2.11-.328a.43.43 0 0 1 .313-.125c.125 0 .226.043.312.125a.46.46 0 0 1 .125.328.45.45 0 0 1-.125.328.42.42 0 0 1-.312.125m0 0"/><path id="q" d="M.906-.469V-3.78l-.64-.094a.16.16 0 0 1-.016-.078c0-.156.11-.242.328-.266l1.047-.11-.047.595h.031q.294-.294.516-.422.404-.218.953-.219.638 0 1 .422.375.41.375 1.172V-.47l.531.125q.124.017.125.11A.35.35 0 0 1 5.016 0H3.14a.1.1 0 0 1-.016-.062c0-.133.094-.235.281-.297l.328-.11V-2.75q0-.53-.312-.812-.252-.219-.656-.22c-.43 0-.809.15-1.141.438v2.875l.547.125c.07.012.11.047.11.11A.4.4 0 0 1 2.202 0H.313a.1.1 0 0 1-.016-.062c0-.133.094-.235.281-.297Zm0 0"/><path id="r" d="M.484-2.969c0-.437.164-.789.5-1.062q.452-.342 1.125-.344.357 0 .672.094h1.516l-.078.484h-.75q.28.376.281.828-.001.691-.5 1.078-.47.392-1.187.391-.206 0-.422-.047-.282.159-.282.422 0 .314.47.313h1.015q.576.001.906.265a.83.83 0 0 1 .344.703c0 .469-.2.867-.594 1.203-.437.352-1.008.532-1.703.532C.742 1.89.219 1.539.219.844c0-.524.27-.875.812-1.063v-.015a.62.62 0 0 1-.36-.594q0-.497.61-.813v-.03Q.484-2.045.484-2.97M2.11-1.953q.938.001.938-1c0-.313-.09-.55-.266-.719a.9.9 0 0 0-.656-.25q-.907 0-.906.969 0 1.001.89 1M1.72-.11q-.19.002-.344-.032C1.07.012.922.266.922.61q-.001.781 1 .782.67 0 1.094-.282.375-.251.375-.656 0-.562-.735-.562Zm0 0"/><path id="s" d="M.547-.375a.5.5 0 0 1 .125-.36.47.47 0 0 1 .344-.14q.217 0 .359.14.14.142.14.36a.48.48 0 0 1-.14.36.53.53 0 0 1-.36.124.5.5 0 0 1-.343-.125.5.5 0 0 1-.125-.359m0-3.516a.5.5 0 0 1 .125-.359.47.47 0 0 1 .344-.14q.217 0 .359.14.14.142.14.36a.48.48 0 0 1-.14.359.5.5 0 0 1-.36.125.49.49 0 0 1-.343-.125.5.5 0 0 1-.125-.36m0 0"/><path id="t" d="M2.016-.562v-4.422l-1.328.25a1 1 0 0 1-.016-.188Q.67-5.12.875-5.203l1.469-.594h.453v5.235l1.094.156q.124.016.125.11c0 .054-.04.151-.11.296H.86v-.078q0-.311.282-.36Zm0 0"/><path id="u" d="M2.906-6.687h.625L.828 1.25h-.61Zm0 0"/><path id="v" d="m.125-1.984 2.531-3.782.656-.046v3.625h.75l-.046.671h-.703v1.032l.609.125q.124.017.125.093 0 .048-.094.266H1.906a.16.16 0 0 1-.015-.078c0-.164.101-.274.312-.328l.375-.078v-1.032H.156Zm.734-.203h1.72v-2.688h-.017L.86-2.203Zm0 0"/><path id="w" d="M3.406-.5h-.031q-.44.61-1.266.61-.737 0-1.187-.47Q.39-.902.39-2.015q0-1.156.703-1.812.592-.546 1.484-.547c.27 0 .524.04.766.11v-1.657l-.64-.094a.1.1 0 0 1-.017-.062q0-.246.329-.281l1.047-.11v5.985l.656.078q.013.047.015.078 0 .252-.328.281l-1 .094Zm-1.094.031q.657 0 1.032-.39v-2.703q-.316-.33-.844-.329c-.406 0-.73.149-.969.438q-.39.486-.39 1.312-.001.846.343 1.282.295.39.829.39m0 0"/><path id="x" d="M4.328-3.422h-.016L3.141 0h-.735L.453-5.687l-.36-.094q-.126-.029-.124-.11 0-.074.094-.25h2v.079c0 .156-.102.261-.297.312l-.391.078L2.891-.875h.015l1.172-3.344-.469-1.468-.343-.094q-.127-.029-.125-.11 0-.074.093-.25H5.22c.008.024.015.047.015.079q0 .235-.312.312l-.39.078L5.874-.875h.016l1.625-4.812-.688-.11c-.086-.02-.125-.05-.125-.094q0-.074.094-.25h1.781v.079q-.002.252-.297.312l-.219.063L6.142 0h-.735Zm0 0"/><path id="y" d="M3.188-5.516a1.8 1.8 0 0 0-.891-.25q-.518.001-.813.266-.297.25-.296.719-.001.392.25.656.138.14.5.328l.843.469q.64.362.922.672.342.392.344.984 0 .797-.516 1.266-.533.516-1.453.515Q1.357.111.594-.25q-.047-.482-.047-1-.002-.389.265-.39.094 0 .204.046l.218.938q.386.298.938.297.575 0 .89-.328c.188-.196.282-.454.282-.766a.95.95 0 0 0-.281-.703q-.222-.187-.922-.578l-.563-.313q-.516-.279-.75-.594-.313-.404-.312-.984c0-.5.18-.898.547-1.203q.513-.422 1.343-.422.764 0 1.375.328.047.645.047.844 0 .391-.281.39a.5.5 0 0 1-.188-.03Zm0 0"/><path id="z" d="M2.344.11Q1.512.111.984-.438C.586-.832.391-1.383.391-2.094q0-1.06.656-1.703.59-.576 1.469-.578.827 0 1.343.516c.383.398.579.953.579 1.672q0 1.078-.657 1.718A1.98 1.98 0 0 1 2.344.11m.062-.5q.545 0 .89-.422.36-.468.36-1.329 0-.857-.36-1.328a1.1 1.1 0 0 0-.89-.437q-.55.002-.89.437-.344.471-.344 1.328-.001.861.344 1.329.34.42.89.421m-.75-4.657A.43.43 0 0 1 1.22-5.5a.427.427 0 0 1 .438-.453.38.38 0 0 1 .296.125.46.46 0 0 1 .125.328.45.45 0 0 1-.125.328.37.37 0 0 1-.297.125m1.5 0a.41.41 0 0 1-.312-.125.47.47 0 0 1-.11-.328q0-.2.11-.328a.43.43 0 0 1 .312-.125q.186.001.313.125a.46.46 0 0 1 .125.328.45.45 0 0 1-.125.328.42.42 0 0 1-.313.125m0 0"/><path id="A" d="M.922-4.281v-.032q0-.996.469-1.593.433-.53 1.03-.532c.352 0 .532.141.532.422a.45.45 0 0 1-.14.329 1.2 1.2 0 0 0-.579-.157q-.345.001-.468.172c-.086.117-.125.313-.125.594v.797h1.203l-.094.468H1.64v3.344l.626.125q.124.017.125.11A.35.35 0 0 1 2.297 0H.328a.1.1 0 0 1-.016-.062c0-.133.094-.235.282-.297l.328-.11v-3.343H.234v-.063c0-.145.086-.242.266-.297Zm0 0"/><path id="B" d="m4.031 1.313.532.125c.082.007.125.046.125.109a.36.36 0 0 1-.094.234h-1.89V1.72c0-.137.085-.235.265-.297l.328-.11V-.484H3.28C3-.086 2.61.109 2.11.109Q1.36.11.891-.42c-.336-.384-.5-.927-.5-1.626Q.39-3.2 1.109-3.844a2.15 2.15 0 0 1 1.454-.531q.575 0 1 .219l.28-.188h.188ZM3.297-3.61a1.2 1.2 0 0 0-.797-.297q-.644 0-1 .469-.361.47-.36 1.296 0 .799.344 1.25c.196.274.461.407.797.407.438 0 .774-.141 1.016-.422Zm0 0"/><path id="C" d="m.781-3.781-.64-.094a.16.16 0 0 1-.016-.078c0-.156.11-.242.328-.266l1.047-.11v2.798q0 1.048.89 1.047.688 0 1.11-.438v-2.86l-.656-.093v-.078c0-.156.11-.242.328-.266l1.047-.11v3.845l.656.078v.078q0 .252-.328.281l-1 .094v-.578H3.53c-.344.43-.793.64-1.344.64Q.782.11.782-1.484Zm0 0"/><path id="D" d="M.469-3.39q0-.33.062-.891h2.89q.031.093.032.187a.57.57 0 0 1-.094.297L1.125-.469v.016h1.75l.328-.89h.125q.248 0 .25.28-.001.08-.125 1.063H.406a.6.6 0 0 1-.094-.328q0-.124.094-.266l2.14-3.234v-.016H1.095l-.25.75H.719q-.251.002-.25-.297m0 0"/><clipPath id="a"><path d="M95 131h14v5.04H95Zm0 0"/></clipPath><clipPath id="b"><path d="M177 44h45.852v92H177Zm0 0"/></clipPath></defs><path fill="none" stroke="#000" stroke-miterlimit="10" stroke-width=".39615513" d="M101.887 59.5h22.644m0 0h37.739m0 0h15.097M101.687 59.5V.394"/><path fill="none" stroke="#000" stroke-miterlimit="10" stroke-width=".7913173900000001" d="M101.687.394h9.852l-9.852 19.704L91.836.394h9.851"/><path stroke="#000" stroke-miterlimit="10" stroke-width=".39615513" d="M148.75 59.5c0-.871-.707-1.578-1.578-1.578a1.577 1.577 0 1 0 1.578 1.578Zm0 0"/><path fill="none" stroke="#000" stroke-miterlimit="10" stroke-width=".39615513" d="M101.887 119.883h22.644m0 0h37.739m0 0h15.097M101.887 119.883v11.82"/><g clip-path="url(#a)"><path fill="none" stroke="#000" stroke-miterlimit="10" stroke-width=".7913173900000001" d="M95.977 131.703h11.82m-9.852 1.969h7.88m-6.403 1.973h4.926"/></g><path stroke="#000" stroke-miterlimit="10" stroke-width=".39615513" d="M148.75 119.883a1.575 1.575 0 1 0-3.15.002 1.575 1.575 0 0 0 3.15-.002Zm0 0"/><g clip-path="url(#b)"><path fill="none" stroke="#000" stroke-miterlimit="10" stroke-width=".39615513" d="M177.367 134.98V44.402h45.29v90.578Zm0 0"/></g><use xlink:href="#c" x="194.566" y="92.762"/><use xlink:href="#d" x="200.13" y="92.762"/><path fill="none" stroke="#000" stroke-miterlimit="10" stroke-width=".39615513" d="M147.172 59.5v30.191h-4.527"/><path fill="none" stroke="#000" stroke-miterlimit="10" stroke-width=".7913173900000001" d="M121.367 95.602h18.914c1.305 0 2.364-2.649 2.364-5.91 0-3.266-1.059-5.91-2.364-5.91h-18.914c-1.304 0-2.363 2.644-2.363 5.91 0 3.261 1.059 5.91 2.363 5.91"/><path fill="none" stroke="#000" stroke-miterlimit="10" stroke-width=".7913173900000001" d="M121.367 95.602c1.305 0 2.363-2.649 2.363-5.91 0-3.266-1.058-5.91-2.363-5.91"/><path fill="none" stroke="#000" stroke-miterlimit="10" stroke-width=".39615513" d="M121.367 89.691h-2.363M140.281 95.602h6.89v24.28m0 0"/><path stroke="#000" stroke-miterlimit="10" stroke-width=".39615513" d="M141.855 95.602a1.575 1.575 0 1 0-1.574 1.574c.871 0 1.574-.703 1.574-1.574ZM148.75 119.883a1.575 1.575 0 1 0-3.15.002 1.575 1.575 0 0 0 3.15-.002Zm0 0"/><path fill="none" stroke="#000" stroke-miterlimit="10" stroke-width=".39615513" d="M119.004 89.691h-3.774m0 0h-3.773v5.91h9.91m0 0"/><path stroke="#000" stroke-miterlimit="10" stroke-width=".39615513" d="M122.945 95.602a1.575 1.575 0 1 0-3.152 0 1.575 1.575 0 0 0 3.152 0Zm0 0"/><use xlink:href="#e" x="7.12" y="76.883"/><use xlink:href="#f" x="12.168" y="76.883"/><use xlink:href="#g" x="14.616" y="76.883"/><use xlink:href="#h" x="18.764" y="76.883"/><use xlink:href="#i" x="23.483" y="76.883"/><use xlink:href="#j" x="26.509" y="76.883"/><use xlink:href="#k" x="29.946" y="76.883"/><use xlink:href="#l" x="32.43" y="76.883"/><use xlink:href="#m" x="35.875" y="76.883"/><use xlink:href="#n" x="39.881" y="76.883"/><use xlink:href="#g" x="45.026" y="76.883"/><use xlink:href="#o" x="51.098" y="76.883"/><use xlink:href="#p" x="55.861" y="76.883"/><use xlink:href="#q" x="60.018" y="76.883"/><use xlink:href="#r" x="65.253" y="76.883"/><use xlink:href="#g" x="69.668" y="76.883"/><use xlink:href="#s" x="73.817" y="76.883"/><use xlink:href="#t" x="3.648" y="92.086"/><use xlink:href="#u" x="8.099" y="92.086"/><use xlink:href="#v" x="11.847" y="92.086"/><use xlink:href="#w" x="18.221" y="92.086"/><use xlink:href="#g" x="23.135" y="92.086"/><use xlink:href="#j" x="27.284" y="92.086"/><use xlink:href="#x" x="32.358" y="92.086"/><use xlink:href="#g" x="40.459" y="92.086"/><use xlink:href="#f" x="44.608" y="92.086"/><use xlink:href="#f" x="47.092" y="92.086"/><use xlink:href="#g" x="49.54" y="92.086"/><use xlink:href="#q" x="53.688" y="92.086"/><use xlink:href="#f" x="58.923" y="92.086"/><use xlink:href="#p" x="61.407" y="92.086"/><use xlink:href="#q" x="65.564" y="92.086"/><use xlink:href="#r" x="70.799" y="92.086"/><use xlink:href="#g" x="75.215" y="92.086"/><use xlink:href="#w" x="9.693" y="107.128"/><use xlink:href="#g" x="14.608" y="107.128"/><use xlink:href="#j" x="18.756" y="107.128"/><use xlink:href="#y" x="24.115" y="107.128"/><use xlink:href="#i" x="28.54" y="107.128"/><use xlink:href="#z" x="31.567" y="107.128"/><use xlink:href="#j" x="36.392" y="107.128"/><use xlink:href="#A" x="39.828" y="107.128"/><use xlink:href="#j" x="42.784" y="107.128"/><use xlink:href="#g" x="46.104" y="107.128"/><use xlink:href="#B" x="50.253" y="107.128"/><use xlink:href="#C" x="54.945" y="107.128"/><use xlink:href="#g" x="60.01" y="107.128"/><use xlink:href="#q" x="64.159" y="107.128"/><use xlink:href="#D" x="69.393" y="107.128"/><path fill="none" stroke="#000" stroke-miterlimit="10" stroke-width=".39615513" d="m86.79 74.594 18.14 10.367"/><path stroke="#000" stroke-miterlimit="10" stroke-width=".39613518000000003" d="m107.582 86.477-1.695-2.989-.871 1.524-.868 1.52Zm0 0"/></svg>