<svg xmlns="http://www.w3.org/2000/svg" xmlns:xlink="http://www.w3.org/1999/xlink" width="227.016" height="148.062"><defs><path id="h" d="m3.563-.422-.126-.125c-.187.188-.28.203-.437.203-.203 0-.219-.25-.266-1.187L2.61-4.047c-.03-.844-.39-.922-.578-.922-.265 0-.531.219-.765.485l.078.125a.93.93 0 0 1 .515-.172c.188 0 .407.14.454 1.125l.015.312L.156 0l.14.078C.454.031.626 0 .814 0l1.53-2.594.095 1.703c.03.657.109.97.453.97.187 0 .484-.235.672-.5m0 0"/><path id="i" d="M.438-3.328c0 .14.125.265.28.265.126 0 .329-.124.329-.28 0-.063 0-.095-.016-.141C1.016-3.547.97-3.61.97-3.656c0-.188.187-.438.703-.438.266 0 .625.172.625.86 0 .453-.172.828-.594 1.25l-.516.53C.485-.75.375-.405.375.017c0 0 .36-.016.594-.016h1.234c.235 0 .563.016.563.016.093-.375.156-.907.172-1.125a.3.3 0 0 0-.204-.032c-.125.5-.25.672-.5.672H.97c0-.343.484-.828.515-.86l.72-.687c.405-.39.718-.703.718-1.25 0-.765-.625-1.078-1.203-1.078-.797 0-1.281.578-1.281 1.016m0 0"/><path id="s" d="M1.36-.875v-1.328c.25.015.452.094.593.265L3.078-.516c.14.188.235.375.25.485 0 .031 0 .047.031.047C3.5 0 3.594 0 3.75 0c.234 0 .484 0 .719.016.047-.047.047-.188 0-.235-.203-.031-.407-.047-.625-.297L2.28-2.375c-.062-.062-.094-.125-.094-.172s0-.11.25-.36l1.047-1.062c.329-.36.61-.39.891-.406.047-.047.047-.187 0-.234-.219 0-.437.015-.672.015-.265 0-.547-.015-.797-.015-.047.046-.047.187 0 .234.25.016.5.047.188.375L1.922-2.75a.85.85 0 0 1-.563.281v-1.25c0-.594.125-.64.625-.656.047-.047.047-.187 0-.234-.328 0-.671.015-.937.015S.453-4.609.14-4.609c-.047.046-.047.187 0 .234.5.016.609.063.609.656v2.844c0 .594-.11.625-.61.656-.046.047-.046.188 0 .235C.454 0 .782 0 1.064 0c.265 0 .593 0 .921.016.047-.047.047-.188 0-.235-.5-.031-.625-.062-.625-.656m0 0"/><path id="l" d="M3.688-4.75a1.04 1.04 0 0 0-.329-.422 1.24 1.24 0 0 0-.734-.234q-1.376 0-1.469 2.343.516-.405 1.219-.406.763 0 1.203.375.516.422.516 1.266-.001.783-.5 1.344c-.356.398-.809.593-1.36.593-.617 0-1.09-.257-1.421-.78Q.357-1.405.359-2.704.357-3.95.953-4.86q.668-1.032 1.828-1.032.62.002.985.204.311.204.312.468c0 .242-.133.399-.39.469M1.156-2.61Q1.17-1.484 1.5-.921c.195.356.469.531.813.531q.435.001.718-.343.296-.359.297-1.016-.001-1.202-1.015-1.203-.751.002-1.157.344m0 0"/><path id="m" d="M2.234-.39q1.092 0 1.094-2.5-.002-2.499-1.094-2.5c-.742 0-1.109.835-1.109 2.5 0 1.667.367 2.5 1.11 2.5m-.046.5q-.88.002-1.36-.735-.532-.796-.531-2.266c0-.976.187-1.734.562-2.265q.527-.734 1.407-.735.872 0 1.375.735.515.784.515 2.265 0 1.47-.562 2.266c-.344.492-.813.734-1.406.734m0 0"/><path id="n" d="M6.11-3.469q-.001.924-.548 1.719-.486.689-1.156 1.063v.156h1.188l.14-.719a.44.44 0 0 1 .204-.047q.264 0 .265.422 0 .346-.047.875H3.844v-.875c.976-.5 1.469-1.375 1.469-2.625q-.001-1.03-.547-1.625-.533-.61-1.375-.61-.864.002-1.391.594-.549.627-.547 1.657c0 .574.117 1.086.36 1.53q.375.721 1.125 1.079V0H.624a7 7 0 0 1-.062-.875q0-.422.28-.422.108 0 .204.047l.14.719h1.188v-.156c-.43-.188-.809-.524-1.14-1.016Q.654-2.53.655-3.47q-.001-1.199.766-1.984.762-.797 1.969-.797c.8 0 1.453.258 1.953.766q.763.767.765 2.015m0 0"/><path id="o" d="M.844-1.094c0 .75-.094.797-.64.813-.048.062-.048.25 0 .297.312 0 .64-.016 1-.016.359 0 .687.016.984.016.062-.047.062-.235 0-.297-.547-.016-.641-.063-.641-.813v-4.093c0-.579.031-.938.031-.938 0-.062-.031-.094-.11-.094-.218.094-.89.219-1.25.25-.015.063 0 .203.063.266.516.031.563.062.563.719Zm0 0"/><path id="p" d="M.531-1.64c-.11.093-.11.327 0 .437H5.25c.11-.11.11-.344 0-.438Zm0-1.782c-.11.094-.11.328 0 .438H5.25c.11-.11.11-.344 0-.438Zm0 0"/><path id="r" d="M3.984-5.469c.672.047.672.282.485.766L3.062-1.125h-.046L1.594-4.75c-.203-.547-.157-.656.453-.719.062-.047.062-.234 0-.297-.36.016-.75.016-1.078.016-.313 0-.625 0-.922-.016-.063.063-.047.25 0 .297.5.047.562.203.812.813L2.61-.094c.047.14.11.203.204.203s.156-.078.218-.203L4.875-4.64c.172-.421.313-.765.875-.828.047-.047.047-.234 0-.297-.266.016-.578.016-.797.016-.203 0-.594 0-.969-.016-.046.063-.046.25 0 .297m0 0"/><path id="q" d="M1-2.75a.49.49 0 0 0-.484.5c0 .281.234.484.484.484a.48.48 0 0 0 .5-.484c0-.281-.219-.5-.5-.5m0 0"/><clipPath id="a"><path d="M.227 9H1v1H.227Zm0 0"/></clipPath><clipPath id="b"><path d="M225 9h.813v1H225Zm0 0"/></clipPath><clipPath id="c"><path d="M.227 9h225.586v1H.226Zm0 0"/></clipPath><clipPath id="d"><path d="M.227 2H11v16H.227Zm0 0"/></clipPath><clipPath id="e"><path d="M.227 7H2v6H.227Zm0 0"/></clipPath><clipPath id="f"><path d="M215 2h10.813v16H215Zm0 0"/></clipPath><clipPath id="g"><path d="M224 7h1.813v6H224Zm0 0"/></clipPath><clipPath id="j"><path d="M96 9h129.813v46H96Zm0 0"/></clipPath><clipPath id="k"><path d="M.227 9H130v46H.227Zm0 0"/></clipPath></defs><g clip-path="url(#a)"><path fill="none" stroke="#999" stroke-miterlimit="10" stroke-width=".009937" d="M.82 9.707"/></g><g clip-path="url(#b)"><path fill="none" stroke="#999" stroke-miterlimit="10" stroke-width=".009937" d="M225.219 9.707"/></g><g clip-path="url(#c)"><path fill="none" stroke="#000" stroke-miterlimit="10" stroke-width=".3964863" d="M1.117 9.707h223.805"/></g><path d="m1.61 9.707 2.956 1.75V7.953Zm0 0"/><g clip-path="url(#d)"><path fill="none" stroke="#000" stroke-miterlimit="10" stroke-width=".3964863" d="m1.61 9.707 2.956 1.75V7.953Zm0 0"/></g><g clip-path="url(#e)"><path fill="none" stroke="#000" stroke-miterlimit="10" stroke-width=".3964863" d="M1.016 11.98V7.43"/></g><path d="m224.43 9.707-2.957-1.754v3.504Zm0 0"/><g clip-path="url(#f)"><path fill="none" stroke="#000" stroke-miterlimit="10" stroke-width=".3964863" d="m224.43 9.707-2.957-1.754v3.504Zm0 0"/></g><g clip-path="url(#g)"><path fill="none" stroke="#000" stroke-miterlimit="10" stroke-width=".3964863" d="M225.023 7.43v4.55"/></g><path fill="#FFF" d="M106.965 19.41h12.11V0h-12.11Zm0 0"/><use xlink:href="#h" x="111.123" y="7.874"/><path fill="none" stroke="#000" stroke-miterlimit="10" stroke-width=".5793271" d="M111.125 9.832h3.79"/><use xlink:href="#i" x="111.362" y="16.427"/><g clip-path="url(#j)"><path fill="none" stroke="#000" stroke-miterlimit="10" stroke-width="1.1884652" d="M113.02 26.535h106.59a5.61 5.61 0 0 1 0 11.219H117.507"/></g><g clip-path="url(#k)"><path fill="none" stroke="#000" stroke-miterlimit="10" stroke-width="1.1884652" d="M113.02 26.535H6.43a5.61 5.61 0 0 0 0 11.219H108.53"/></g><path fill="none" stroke="#000" stroke-miterlimit="10" stroke-width=".3964863" d="M108.531 37.754v11.223M97.785 50.871c-16.305 5.934-24.71 23.961-18.773 40.266 5.933 16.304 23.96 24.71 40.265 18.777 16.305-5.934 24.711-23.965 18.778-40.266a31.42 31.42 0 0 0-18.778-18.777"/><path fill="none" stroke="#000" stroke-miterlimit="10" stroke-width=".3964863" d="M97.785 50.871c1.168-.426 1.422-2.656.574-4.984-.847-2.332-2.476-3.875-3.644-3.453-1.164.425-1.418 2.656-.57 4.988.847 2.328 2.476 3.871 3.64 3.45M119.277 50.871c1.164.422 2.797-1.121 3.645-3.45.848-2.331.59-4.562-.574-4.987-1.164-.422-2.797 1.12-3.645 3.453-.848 2.328-.59 4.558.574 4.984"/><path fill="none" stroke="#000" stroke-miterlimit="10" stroke-width=".3964863" d="M94.715 42.434c-20.961 7.632-31.77 30.812-24.14 51.773 7.628 20.965 30.808 31.77 51.773 24.14 20.96-7.628 31.77-30.808 24.14-51.769a40.4 40.4 0 0 0-24.14-24.144"/><path fill="none" stroke="#000" stroke-dasharray="2.9700003710000002 2.9700003710000002" stroke-miterlimit="10" stroke-width=".3964863" d="M92.793 48.121C74.969 56.812 67.57 78.31 76.262 96.133c8.691 17.82 30.187 25.222 48.008 16.531 17.824-8.695 25.226-30.187 16.53-48.012a35.9 35.9 0 0 0-16.53-16.53"/><path fill="none" stroke="#000" stroke-miterlimit="10" stroke-width=".3964863" d="M117.508 37.754v7.406l3.305 1.492M108.531 37.754v6.734h-3.367m0 0h-3.363l-5.551 2.164"/><path stroke="#000" stroke-miterlimit="10" stroke-width=".3964863" d="M110.11 44.488a1.579 1.579 0 1 0-3.158.002 1.579 1.579 0 0 0 3.157-.002Zm0 0"/><path fill="#FFF" d="M104.043 48.977v89.761h8.977V48.977Zm0 0"/><path fill="none" stroke="#000" stroke-miterlimit="10" stroke-width=".3964863" d="M113.02 48.977v89.761M104.043 48.977v89.761"/><path fill="none" stroke="#000" stroke-dasharray="2.9700003710000002 2.9700003710000002" stroke-miterlimit="10" stroke-width=".3964863" d="M108.531 54.586v85.273"/><path fill="none" stroke="#000" stroke-miterlimit="10" stroke-width=".3964863" d="M113.02 26.535v11.219m0 0v11.223"/><path stroke="#000" stroke-miterlimit="10" stroke-width=".3964863" d="M114.598 26.535a1.579 1.579 0 1 0-3.158.001 1.579 1.579 0 0 0 3.158 0ZM114.598 48.977a1.579 1.579 0 0 0-3.157 0c0 .87.707 1.574 1.579 1.574.87 0 1.578-.703 1.578-1.574Zm0 0"/><path fill="none" stroke="#000" stroke-miterlimit="10" stroke-width=".3964863" d="m113.02 48.977 3.128.945m0 0 3.13.95"/><path stroke="#000" stroke-miterlimit="10" stroke-width=".3964863" d="M120.852 50.871a1.575 1.575 0 1 0-3.153 0 1.575 1.575 0 1 0 3.152 0Zm0 0"/><path fill="none" stroke="#000" stroke-miterlimit="10" stroke-width=".3964863" d="m104.043 48.977-3.129.945m0 0-3.129.95"/><path stroke="#000" stroke-miterlimit="10" stroke-width=".3964863" d="M105.621 48.977a1.579 1.579 0 0 0-3.156 0c0 .87.707 1.574 1.578 1.574s1.578-.703 1.578-1.574ZM99.363 50.871a1.575 1.575 0 1 0-3.152 0 1.575 1.575 0 1 0 3.152 0Zm0 0"/><path fill="none" stroke="#000" stroke-miterlimit="10" stroke-width=".3964863" d="M113.02 48.977c0-1.243-2.008-2.247-4.489-2.247-2.476 0-4.488 1.004-4.488 2.247 0 1.238 2.012 2.242 4.488 2.242 2.48 0 4.489-1.004 4.489-2.242M113.02 138.738c0 1.239-2.008 2.242-4.489 2.242-2.476 0-4.488-1.003-4.488-2.242M108.531 140.98v4.489"/><use xlink:href="#l" x="81.465" y="144.053"/><use xlink:href="#m" x="85.92" y="144.053"/><use xlink:href="#n" x="91.854" y="144.053"/><path fill="none" stroke="#000" stroke-miterlimit="10" stroke-width=".3964863" d="m140.234 112.094 8.079 8.078"/><path stroke="#000" stroke-miterlimit="10" stroke-width=".3964863" d="m138.074 109.934.852 3.328 2.476-2.477Zm0 0"/><use xlink:href="#o" x="151.48" y="132.52"/><use xlink:href="#p" x="156.301" y="132.52"/><use xlink:href="#h" x="165.744" y="128.245"/><path fill="none" stroke="#000" stroke-miterlimit="10" stroke-width=".5793271" d="M165.742 130.203h3.793"/><use xlink:href="#i" x="165.983" y="136.797"/><use xlink:href="#q" x="172.704" y="132.52"/><use xlink:href="#r" x="176.705" y="132.52"/><use xlink:href="#s" x="182.514" y="134.392"/></svg>