<svg xmlns="http://www.w3.org/2000/svg" xmlns:xlink="http://www.w3.org/1999/xlink" width="228.512" height="189.896"><defs><clipPath id="a"><path d="M215 3h13.023v16H215Zm0 0"/></clipPath><clipPath id="b"><path d="M174 179h1v10.64h-1Zm0 0"/></clipPath><clipPath id="c"><path d="M168 188h13v1.64h-13Zm0 0"/></clipPath><clipPath id="d"><path d="M215 124h13.023v15H215Zm0 0"/></clipPath><clipPath id="e"><path d="M215 172h13.023v15H215Zm0 0"/></clipPath><path id="f" d="M4.313-2.469H.547V-3h3.766Zm0 0"/><path id="g" d="M2.484-3.031h1.563v.469H2.484v1.671h-.5v-1.671H.438v-.47h1.546v-1.655h.5Zm0 0"/></defs><path fill="none" stroke="#000" stroke-miterlimit="10" stroke-width=".79530239" d="M182.512 83.148c0-8.113-6.578-14.687-14.688-14.687s-14.683 6.574-14.683 14.687c0 8.11 6.574 14.684 14.683 14.684s14.688-6.574 14.688-14.684Zm0 0"/><path fill="none" stroke="#000" stroke-miterlimit="10" stroke-width=".39815013000000005" d="M174.523 61.168v13.266l-11.878 5.445"/><path fill="none" stroke="#000" stroke-miterlimit="10" stroke-width=".79530239" d="M162.645 74.434v17.425"/><path fill="none" stroke="#000" stroke-miterlimit="10" stroke-width=".39815013000000005" d="m162.645 86.414 11.878 5.445v13.266"/><path d="m166.828 88.332.95-2.074 3.687 4.199-5.59-.05Zm0 0"/><path fill="none" stroke="#000" stroke-miterlimit="10" stroke-width=".39815013000000005" d="M162.645 83.148h-12.082M6.18 155.297v-4.25m0-39.602V83.148h36.074v44.137m0 7.922v44.137"/><path fill="none" stroke="#000" stroke-linejoin="bevel" stroke-miterlimit="10" stroke-width=".79530239" d="M6.336 151.445c-3.277 0-5.938-2.261-5.938-5.05 0-2.79 2.66-5.051 5.938-5.051-3.277 0-5.938-2.258-5.938-5.047 0-2.79 2.66-5.05 5.938-5.05-3.277 0-5.938-2.263-5.938-5.052s2.66-5.047 5.938-5.047c-3.277 0-5.938-2.261-5.938-5.05 0-2.79 2.66-5.051 5.938-5.051"/><path fill="none" stroke="#000" stroke-miterlimit="10" stroke-width=".79530239" d="M54.133 135.207H30.37m23.762-7.922H30.37M30.371 143.125l23.34-23.336"/><path fill="none" stroke="#000" stroke-miterlimit="10" stroke-width=".7952864500000001" d="m51.672 117.469 4.36 4.36"/><path stroke="#000" stroke-miterlimit="10" stroke-width=".39815013000000005" d="M43.836 83.148a1.584 1.584 0 1 0-3.168-.004 1.584 1.584 0 0 0 3.168.004ZM43.836 179.344a1.584 1.584 0 1 0-3.168.003 1.584 1.584 0 0 0 3.168-.003Zm0 0"/><path fill="none" stroke="#000" stroke-miterlimit="10" stroke-width=".39815013000000005" d="M6.18 155.297v24.047h36.074M42.254 83.148h36.074v20.09m0 7.918v40.18m0 7.918v20.09"/><path fill="none" stroke="#000" stroke-miterlimit="10" stroke-width=".79530239" d="M90.207 103.238H66.445m23.762 7.918H66.445"/><path stroke="#000" stroke-miterlimit="10" stroke-width=".39815013000000005" d="M79.91 83.148c0-.875-.71-1.586-1.582-1.586a1.584 1.584 0 1 0 1.582 1.586ZM79.91 131.246a1.583 1.583 0 1 0-3.166.002 1.583 1.583 0 0 0 3.166-.002Zm0 0"/><path fill="none" stroke="#000" stroke-miterlimit="10" stroke-width=".79530239" d="M90.207 151.336H66.445m23.762 7.918H66.445"/><path stroke="#000" stroke-miterlimit="10" stroke-width=".39815013000000005" d="M79.91 131.246a1.583 1.583 0 1 0-3.166.002 1.583 1.583 0 0 0 3.166-.002ZM79.91 179.344a1.583 1.583 0 1 0-3.166.002 1.583 1.583 0 0 0 3.166-.002Zm0 0"/><path fill="none" stroke="#000" stroke-miterlimit="10" stroke-width=".39815013000000005" d="M42.254 179.344h36.074M78.328 83.148h20.086m7.922 0h20.09"/><path fill="none" stroke="#000" stroke-miterlimit="10" stroke-width=".79530239" d="M98.414 71.266v23.761m7.922-23.761v23.761"/><path stroke="#000" stroke-miterlimit="10" stroke-width=".39815013000000005" d="M79.91 83.148c0-.875-.71-1.586-1.582-1.586a1.584 1.584 0 1 0 1.582 1.586ZM128.008 83.148a1.584 1.584 0 1 0-3.168-.004 1.584 1.584 0 0 0 3.168.004Zm0 0"/><path fill="none" stroke="#000" stroke-miterlimit="10" stroke-width=".39815013000000005" d="M78.328 179.344h48.098v-8.207m0-31.684V62.914m0-31.68V11H78.328v8.062m0 7.922v8.067"/><path fill="none" stroke="#000" stroke-miterlimit="10" stroke-width=".79530239" d="M132.363 139.453v31.684h-11.879v-31.684Zm0 0"/><path stroke="#000" stroke-miterlimit="10" stroke-width=".39815013000000005" d="M128.008 179.344a1.584 1.584 0 1 0-3.168.003 1.584 1.584 0 0 0 3.168-.003Zm0 0"/><path fill="none" stroke="#000" stroke-miterlimit="10" stroke-width=".79530239" d="M132.363 31.234v31.68h-11.879v-31.68Zm0 0"/><path stroke="#000" stroke-miterlimit="10" stroke-width=".39815013000000005" d="M128.008 83.148a1.584 1.584 0 1 0-3.168-.004 1.584 1.584 0 0 0 3.168.004ZM128.008 11a1.584 1.584 0 1 0-3.168-.004 1.584 1.584 0 0 0 3.168.004Zm0 0"/><path fill="none" stroke="#000" stroke-miterlimit="10" stroke-width=".79530239" d="M90.207 19.062H66.445m23.762 7.922H66.445"/><path fill="none" stroke="#000" stroke-miterlimit="10" stroke-width=".39815013000000005" d="M78.328 35.05v9.9"/><path fill="none" stroke="#000" stroke-linecap="round" stroke-miterlimit="10" stroke-width=".79530239" d="M72.387 44.95h11.879"/><path fill="none" stroke="#000" stroke-miterlimit="10" stroke-width=".39815013000000005" d="M126.426 11h48.097v50.367M174.523 11h8.207m31.684 0h8.207"/><path fill="none" stroke="#000" stroke-miterlimit="10" stroke-width=".79530239" d="M182.73 5.059h31.684V16.94H182.73Zm0 0"/><path stroke="#000" stroke-miterlimit="10" stroke-width=".39815013000000005" d="M176.105 11c0-.875-.707-1.586-1.582-1.586a1.584 1.584 0 0 0 0 3.168A1.58 1.58 0 0 0 176.105 11Zm0 0"/><path fill="#FFF" d="M224.207 11a1.584 1.584 0 1 0-3.168-.004 1.584 1.584 0 0 0 3.168.004m0 0"/><g clip-path="url(#a)"><path fill="none" stroke="#000" stroke-miterlimit="10" stroke-width=".39815013000000005" d="M224.207 11a1.584 1.584 0 1 0-3.168-.004 1.584 1.584 0 0 0 3.168.004Zm0 0"/></g><path fill="none" stroke="#000" stroke-miterlimit="10" stroke-width=".39815013000000005" d="M126.426 83.148h24.336M78.328 131.246h96.195v8.207m0 31.684v8.207"/><path fill="none" stroke="#000" stroke-miterlimit="10" stroke-width=".79530239" d="M168.582 171.137v-31.684h11.883v31.684Zm0 0"/><path stroke="#000" stroke-miterlimit="10" stroke-width=".39815013000000005" d="M176.105 131.246a1.58 1.58 0 0 0-1.582-1.582 1.58 1.58 0 0 0-1.582 1.582 1.58 1.58 0 0 0 1.582 1.582 1.58 1.58 0 0 0 1.582-1.582ZM176.105 179.344a1.58 1.58 0 0 0-1.582-1.582 1.584 1.584 0 0 0 0 3.168c.875 0 1.582-.711 1.582-1.586Zm0 0"/><g clip-path="url(#b)"><path fill="none" stroke="#000" stroke-miterlimit="10" stroke-width=".39815013000000005" d="M174.523 179.344v9.902"/></g><g clip-path="url(#c)"><path fill="none" stroke="#000" stroke-linecap="round" stroke-miterlimit="10" stroke-width=".79530239" d="M168.582 189.246h11.883"/></g><path fill="none" stroke="#000" stroke-miterlimit="10" stroke-width=".39815013000000005" d="M174.523 131.246V104.93M126.426 179.344h48.097M174.523 131.246h20.09m7.918 0h20.09"/><path fill="none" stroke="#000" stroke-miterlimit="10" stroke-width=".79530239" d="M194.613 119.367v23.758m7.918-23.758v23.758"/><path stroke="#000" stroke-miterlimit="10" stroke-width=".39815013000000005" d="M176.105 131.246a1.58 1.58 0 0 0-1.582-1.582 1.58 1.58 0 0 0-1.582 1.582 1.58 1.58 0 0 0 1.582 1.582 1.58 1.58 0 0 0 1.582-1.582Zm0 0"/><path fill="#FFF" d="M224.207 131.246a1.584 1.584 0 0 0-3.168 0 1.584 1.584 0 0 0 3.168 0m0 0"/><g clip-path="url(#d)"><path fill="none" stroke="#000" stroke-miterlimit="10" stroke-width=".39815013000000005" d="M224.207 131.246a1.584 1.584 0 0 0-3.168 0 1.584 1.584 0 0 0 3.168 0Zm0 0"/></g><path fill="none" stroke="#000" stroke-miterlimit="10" stroke-width=".39815013000000005" d="M174.523 179.344h48.098"/><path fill="#FFF" d="M224.207 179.344a1.584 1.584 0 1 0-3.167.003 1.584 1.584 0 0 0 3.167-.003m0 0"/><g clip-path="url(#e)"><path fill="none" stroke="#000" stroke-miterlimit="10" stroke-width=".39815013000000005" d="M224.207 179.344a1.584 1.584 0 1 0-3.167.003 1.584 1.584 0 0 0 3.167-.003Zm0 0"/></g><use xlink:href="#f" x="220.194" y="185.523"/><use xlink:href="#g" x="220.382" y="7.821"/></svg>