<svg xmlns="http://www.w3.org/2000/svg" xmlns:xlink="http://www.w3.org/1999/xlink" width="224.837" height="207.88"><defs><path id="e" d="m6.031-.5-.093-4.234h-.016L4.032-.078h-.485L1.703-4.766h-.016L1.61-.5l.61.14q.124.018.125.094 0 .048-.094.266H.39v-.078Q.39-.324.689-.406l.39-.094.063-5.203-.547-.125c-.086-.02-.125-.05-.125-.094q0-.075.094-.25h1.421L3.922-1.25h.015l2-4.922h1.516v.078q-.002.237-.297.297l-.422.094L6.797-.5l.625.14q.124.018.125.094 0 .048-.094.266h-2.11v-.078q-.001-.246.298-.328Zm0 0"/><path id="i" d="m4.5-.484-.594-1.641H1.688l-.594 1.64.672.126q.124.017.125.093 0 .066-.094.266H-.078a.2.2 0 0 1-.016-.078Q-.096-.342.22-.406l.25-.063L2.64-6.172l.562-.078L5.36-.469l.391.11q.124.034.125.093 0 .048-.094.266H3.86a.16.16 0 0 1-.015-.078c0-.164.101-.274.312-.328Zm-2.64-2.11h1.89l-.937-2.625h-.016Zm0 0"/><path id="j" d="M2.563-6.172q2.295 0 2.296 1.547-.002 1.208-1.328 1.453v.016Q4.998-2.967 5-1.734 4.998-.95 4.406-.5c-.43.336-1.023.5-1.781.5H.422a.16.16 0 0 1-.016-.078Q.404-.324.72-.406L1.094-.5v-5.203l-.547-.125c-.086-.02-.125-.05-.125-.094q0-.075.094-.25ZM2.53-.5q.81.001 1.25-.344.388-.328.39-.89a.98.98 0 0 0-.421-.828q-.408-.33-1.156-.329h-.719V-.5ZM2.47-3.36q.796.001 1.219-.343c.238-.195.359-.469.359-.813 0-.77-.524-1.156-1.563-1.156h-.609v2.313Zm0 0"/><path id="o" d="M2.938-3.047Q4.029-2.543 4.03-1.5q0 .737-.547 1.188-.503.42-1.28.421-.77 0-1.25-.39Q.436-.716.437-1.453q0-.92 1.125-1.453-.985-.499-.985-1.485c0-.437.164-.8.5-1.093.344-.29.742-.438 1.203-.438.477 0 .867.133 1.172.39q.451.376.453 1.063 0 .908-.969 1.422m-.407-.156q.67-.405.672-1.266-.002-.42-.25-.672c-.18-.187-.422-.28-.734-.28a.9.9 0 0 0-.688.28.94.94 0 0 0-.25.672q0 .504.344.797c.164.149.469.305.906.469m-.562.484c-.524.293-.782.715-.782 1.266q0 .456.282.766.28.297.765.296.47 0 .75-.28.296-.294.297-.75 0-.47-.36-.798-.268-.217-.952-.5m0 0"/><path id="f" d="M2.86-1.687c0 .843-.454 1.468-.985 1.468-.344 0-.453-.218-.594-.406-.125-.14-.265-.281-.453-.281-.172 0-.344.156-.344.328 0 .375.766.672 1.266.672 1.11 0 1.906-.813 1.906-1.953 0-.86-.61-1.641-1.61-1.641-.374 0-.718.078-.874.14l.187-1.5c.329.048.61.094 1.047.094.266 0 .563-.03.938-.062l.14-.61-.062-.03c-.516.046-1 .093-1.469.093-.328 0-.656-.016-.969-.047L.688-2.844a3.1 3.1 0 0 1 1.125-.203c.593 0 1.046.375 1.046 1.36m0 0"/><path id="g" d="M2.047.094C2.734.094 3.78-.61 3.78-2.72c0-.875-.219-1.64-.61-2.156-.233-.312-.608-.594-1.093-.594-.89 0-1.734 1.063-1.734 2.844 0 .953.297 1.844.797 2.344.25.25.547.375.906.375m.031-5.235c.156 0 .297.047.406.141.266.234.516.922.516 2.11 0 .828-.031 1.39-.156 1.859-.188.734-.625.812-.797.812-.828 0-.922-1.531-.922-2.312 0-2.203.547-2.61.953-2.61m0 0"/><path id="h" d="M4.094-1.047c.984-.328 1.75-1.25 1.75-2.328 0-1.328-.922-2.516-2.703-2.516C1.375-5.89.453-4.562.453-3.375c0 1.14.781 2 1.735 2.328l.046.422h-1c-.421 0-.578 0-.609-.437a.3.3 0 0 0-.234 0C.39-.703.406-.344.453 0H2.36c.11 0 .157-.047.157-.14l-.079-1.141c-.812-.547-1.171-1.094-1.171-2.11 0-1.14.625-2.203 1.875-2.203 1.172 0 1.875.953 1.875 2.219 0 .969-.344 1.625-1.172 2.094L3.766-.125c0 .078.046.125.156.125h1.86c.03-.297.062-.703.062-1.062q-.093-.048-.235 0c-.046.453-.203.453-.546.437h-1Zm0 0"/><path id="k" d="M4.547.016c.125-.5.328-1.032.516-1.5l-.266-.032C4.5-.875 4.157-.344 3.5-.344h-2c-.14 0-.203-.047-.187-.125 0-.047.046-.094.093-.172l4.125-4.656c.235-.266.313-.422.313-.5 0-.047-.047-.062-.188-.062-.11 0-.297.062-.562.078h-2.75c-.406 0-.36-.078-.672-.11-.14.485-.344 1.125-.484 1.5l.25.047c.296-.625.546-1.078 1.187-1.078h1.984c.063 0 .079.016.063.078 0 .047-.047.094-.094.157L.297-.344C.234-.28.172-.172.172-.109c0 .078.047.109.156.109h3.125c.235 0 1.094.016 1.094.016m0 0"/><path id="l" d="M2.14-2.234q-.002-.468-.156-.688c-.093-.156-.257-.234-.484-.234q-.223 0-.422.078c-.062.125-.117.336-.156.625a2 2 0 0 1-.156.015c-.23 0-.344-.101-.344-.312 0-.207.117-.39.36-.547q.373-.234.827-.234 1.11 0 1.11 1.219V-.75q-.001.408.25.406a.36.36 0 0 0 .265-.094q.062.096.063.204 0 .08-.14.172a.7.7 0 0 1-.423.125c-.336 0-.515-.165-.546-.5h-.016q-.345.531-.985.53a.95.95 0 0 1-.671-.25.93.93 0 0 1-.25-.671q-.001-.53.53-.813c.313-.164.692-.25 1.142-.25h.203ZM1.423-.36q.404 0 .719-.375v-.828l-.203.015Q.906-1.464.906-.89q0 .533.516.532m0 0"/><path id="m" d="M.734-.375v-2.672l-.53-.078v-.047c0-.133.085-.21.265-.234l.844-.078L1.266-3h.03c.157-.156.29-.27.407-.344q.327-.187.766-.187c.351 0 .625.117.812.344q.296.327.297.937v1.875l.438.094q.093.017.093.094A.36.36 0 0 1 4.047 0H2.53a.1.1 0 0 1-.015-.047c0-.113.07-.191.218-.234L3-.375v-1.828q0-.436-.234-.672a.85.85 0 0 0-.532-.172 1.4 1.4 0 0 0-.921.344v2.328l.437.094q.094.017.094.094A.3.3 0 0 1 1.766 0H.25v-.047c0-.113.07-.191.219-.234Zm0 0"/><path id="n" d="m.703-3.437.125-.97h.422v.97h1.078l-.078.374h-1v2.204q0 .531.469.53a.92.92 0 0 0 .593-.187.43.43 0 0 1 .047.22c0 .062-.062.132-.187.202-.18.121-.402.188-.672.188C.945.094.672-.18.672-.734v-2.328H.125a.1.1 0 0 1-.016-.063q0-.17.235-.234Zm0 0"/><clipPath id="a"><path d="M7 .016h16V14H7Zm0 0"/></clipPath><clipPath id="b"><path d="M105 .016h16V14h-16Zm0 0"/></clipPath><clipPath id="c"><path d="M203 194h15v13.746h-15Zm0 0"/></clipPath><clipPath id="d"><path d="M203 .016h15V14h-15Zm0 0"/></clipPath></defs><path fill="none" stroke="#000" stroke-miterlimit="10" stroke-width=".39871272" d="M15.078 6.125h48.887m0 0h48.887v18.457m0 158.629v18.457h48.882m0 0h48.887"/><path fill="#FFF" d="M16.668 6.125a1.588 1.588 0 0 0-3.176 0 1.587 1.587 0 0 0 3.176 0m0 0"/><g clip-path="url(#a)"><path fill="none" stroke="#000" stroke-miterlimit="10" stroke-width=".39871272" d="M16.668 6.125a1.588 1.588 0 0 0-3.176 0 1.587 1.587 0 0 0 3.176 0Zm0 0"/></g><path d="M114.438 6.125a1.587 1.587 0 0 0-3.172 0 1.587 1.587 0 0 0 3.171 0m0 0"/><g clip-path="url(#b)"><path fill="none" stroke="#000" stroke-miterlimit="10" stroke-width=".39871272" d="M114.438 6.125a1.587 1.587 0 0 0-3.172 0 1.587 1.587 0 0 0 3.172 0Zm0 0"/></g><path fill="none" stroke="#000" stroke-linejoin="bevel" stroke-miterlimit="10" stroke-width=".79642616" d="M112.691 24.183c3.286 0 5.95 2.231 5.95 4.985 0 2.75-2.664 4.98-5.95 4.98 3.286 0 5.95 2.23 5.95 4.98 0 2.755-2.664 4.985-5.95 4.985 3.286 0 5.95 2.23 5.95 4.98 0 2.755-2.664 4.985-5.95 4.985 3.286 0 5.95 2.23 5.95 4.98s-2.664 4.981-5.95 4.981c3.286 0 5.95 2.23 5.95 4.984 0 2.75-2.664 4.98-5.95 4.98 3.286 0 5.95 2.231 5.95 4.981 0 2.754-2.664 4.985-5.95 4.985 3.286 0 5.95 2.23 5.95 4.98 0 2.754-2.664 4.985-5.95 4.985 3.286 0 5.95 2.23 5.95 4.98s-2.664 4.98-5.95 4.98c3.286 0 5.95 2.23 5.95 4.985 0 2.75-2.664 4.98-5.95 4.98 3.286 0 5.95 2.23 5.95 4.98 0 2.755-2.664 4.985-5.95 4.985 3.286 0 5.95 2.23 5.95 4.98 0 2.755-2.664 4.985-5.95 4.985 3.286 0 5.95 2.23 5.95 4.98s-2.664 4.98-5.95 4.98c3.286 0 5.95 2.231 5.95 4.985 0 2.75-2.664 4.98-5.95 4.98 3.286 0 5.95 2.231 5.95 4.985 0 2.75-2.664 4.98-5.95 4.98 3.286 0 5.95 2.231 5.95 4.981 0 2.754-2.664 4.984-5.95 4.984 3.286 0 5.95 2.231 5.95 4.981s-2.664 4.98-5.95 4.98"/><path fill="#FFF" d="M212.207 201.668c0-.879-.71-1.586-1.586-1.586a1.587 1.587 0 1 0 1.586 1.586m0 0"/><g clip-path="url(#c)"><path fill="none" stroke="#000" stroke-miterlimit="10" stroke-width=".39871272" d="M212.207 201.668c0-.879-.71-1.586-1.586-1.586a1.587 1.587 0 1 0 1.586 1.586Zm0 0"/></g><path fill="none" stroke="#000" stroke-miterlimit="10" stroke-width=".39871272" d="M112.852 6.125h48.882m0 0h48.887"/><path fill="#FFF" d="M212.207 6.125a1.587 1.587 0 0 0-3.172 0 1.587 1.587 0 0 0 3.172 0m0 0"/><g clip-path="url(#d)"><path fill="none" stroke="#000" stroke-miterlimit="10" stroke-width=".39871272" d="M212.207 6.125a1.587 1.587 0 0 0-3.172 0 1.587 1.587 0 0 0 3.172 0Zm0 0"/></g><path fill="none" stroke="#000" stroke-miterlimit="10" stroke-width=".39871272" d="M15.078 103.894h24.445m0 0h48.883m0 0h24.446"/><path fill="#FFF" stroke="#000" stroke-miterlimit="10" stroke-width=".39871272" d="M16.668 103.894a1.588 1.588 0 0 0-3.176 0c0 .88.711 1.586 1.586 1.586.879 0 1.59-.707 1.59-1.586Zm0 0"/><path stroke="#000" stroke-miterlimit="10" stroke-width=".39871272" d="M65.55 103.894a1.587 1.587 0 1 0-3.173.003 1.587 1.587 0 0 0 3.174-.003ZM114.438 103.894a1.587 1.587 0 1 0-3.175.003 1.587 1.587 0 0 0 3.175-.003Zm0 0"/><path fill="none" stroke="#000" stroke-miterlimit="10" stroke-width=".39871272" d="M63.965 103.894v11.899"/><path fill="none" stroke="#000" stroke-miterlimit="10" stroke-width=".79642616" d="M58.016 115.793h11.898M60 117.777h7.93m-6.442 1.98h4.957"/><use xlink:href="#e" x="2.986" y="106.989"/><use xlink:href="#f" x="7.045" y="57.912"/><use xlink:href="#g" x="11.211" y="57.912"/><use xlink:href="#h" x="16.865" y="57.912"/><use xlink:href="#i" x="4.012" y="9.256"/><use xlink:href="#i" x="215.846" y="9.256"/><use xlink:href="#j" x="216.011" y="204.759"/><use xlink:href="#k" x="202.932" y="105.862"/><use xlink:href="#l" x="207.922" y="107.743"/><use xlink:href="#m" x="211.27" y="107.743"/><use xlink:href="#n" x="215.484" y="107.743"/><use xlink:href="#o" x="126.905" y="57.925"/><use xlink:href="#o" x="126.905" y="155.694"/><path fill="none" stroke="#000" stroke-dasharray="2.9866780424 2.9866780424" stroke-miterlimit="10" stroke-width=".39871272" d="M122.629 193.52V14.272"/></svg>