<svg xmlns="http://www.w3.org/2000/svg" xmlns:xlink="http://www.w3.org/1999/xlink" width="226.772" height="114.243"><defs><path id="a" d="M1.094-.484v-5.188l-.547-.125c-.086-.02-.125-.05-.125-.094q0-.074.094-.25H4.53c.04.5.063.852.063 1.047 0 .262-.086.39-.25.39a.6.6 0 0 1-.203-.03l-.22-.938H1.876v2.313h1.969v.484H1.875V-.5h2.11l.25-.969a.6.6 0 0 1 .202-.031q.219 0 .22.36Q4.655-.78 4.577 0H.422a.16.16 0 0 1-.016-.078Q.404-.324.72-.406Zm0 0"/><path id="h" d="M5.813-6.14c.007.023.015.046.015.077q0 .253-.312.313l-.22.063L3.267 0H2.53L.453-5.687l-.375-.094q-.124-.029-.125-.11c0-.05.035-.132.094-.25H2.03c.008.024.016.047.016.079q-.001.235-.313.312l-.375.078L3-.906h.016l1.703-4.781-.688-.11q-.127-.029-.125-.094 0-.074.094-.25Zm0 0"/><path id="i" d="M3.406-.422q.561 0 1-.187l.266-1.188a.7.7 0 0 1 .203-.031c.164 0 .25.133.25.39l-.047.97Q4.358.11 3.25.108q-1.19 0-1.906-.703C.758-1.133.469-1.954.469-3.047c0-1.039.32-1.86.969-2.453q.826-.75 2-.75c.656 0 1.21.137 1.671.406q.047.643.047.922-.001.391-.265.39a.6.6 0 0 1-.203-.03L4.5-5.453a2.03 2.03 0 0 0-1.062-.281q-.939 0-1.5.609c-.43.46-.641 1.121-.641 1.984q-.001 1.376.625 2.079c.363.43.86.64 1.484.64m0 0"/><path id="j" d="M3.266-.39q.903 0 1.437-.72.53-.714.531-1.968 0-1.232-.562-1.953a1.75 1.75 0 0 0-1.453-.719q-.891.002-1.406.719-.516.722-.516 1.953 0 1.254.516 1.969.526.719 1.453.718m-.047.5q-1.22 0-1.969-.813Q.467-1.56.469-3.078c0-1 .273-1.785.828-2.36q.78-.81 2.016-.812 1.247.002 1.984.813c.508.562.766 1.351.766 2.359Q6.062-1.56 5.234-.703 4.45.11 3.22.109m0 0"/><path id="l" d="M4.469-.484 3.89-2.11H1.67L1.095-.484l.672.125q.124.017.125.093 0 .066-.094.266H-.078a.2.2 0 0 1-.016-.078Q-.096-.342.22-.406l.25-.063L2.625-6.14l.563-.078 2.14 5.75.39.11q.125.034.126.093 0 .048-.094.266H3.844a.16.16 0 0 1-.016-.078q0-.246.297-.328ZM1.844-2.578h1.875l-.906-2.61H2.78Zm0 0"/><path id="d" d="M3.234-5.969.266-.406l.015.375A28 28 0 0 1 2.25-.094c1.11 0 2.219.063 3.328.125l.547-.281.016-.14C5.17-2.25 4.406-4.204 3.75-6.204ZM5-.453c-1.031 0-2.094-.016-3.14-.016H.921L.906-.563a55 55 0 0 1 2.266-4.374h.094c0 .015 1.422 3.578 1.797 4.406Zm0 0"/><path id="e" d="m2.844 1.625.125.125.61-.187A14 14 0 0 1 3.515.14l.062-.078c.719-.094 1.406-.344 1.922-.86.438-.437.594-1.062.594-1.672 0-.86-.438-1.656-1.422-1.656-.375 0-.828.094-1.219.422-.515.437-.578 1.015-.578 1.562v1.829l-.062.062c-.172 0-.422-.078-.75-.406-.422-.422-.547-1.125-.547-1.719 0-.719.28-1.234 1.03-1.594l-.108-.187c-.876.25-1.626 1-1.626 1.937 0 .61.157 1.156.563 1.61.453.53.906.625 1.438.687l.062.063Zm.734-1.86-.062-.062v-2.062c0-.813.25-1.422.984-1.422s.86 1.062.86 1.312c0 .594-.126 1.25-.532 1.656-.344.344-.781.563-1.25.579m0 0"/><clipPath id="b"><path d="M.633 92H14v15H.633Zm0 0"/></clipPath><clipPath id="c"><path d="M63 85h29v28.492H63Zm0 0"/></clipPath><clipPath id="f"><path d="M148 85h29v28.492h-29Zm0 0"/></clipPath><clipPath id="g"><path d="M150 97h26v16.492h-26Zm0 0"/></clipPath><clipPath id="k"><path d="M212 49h13.914v15H212Zm0 0"/></clipPath></defs><path fill="none" stroke="#000" stroke-miterlimit="10" stroke-width=".39637458000000003" d="M6.125 99.297h28.754m0 0h28.754"/><use xlink:href="#a" x="3.601" y="96.13"/><path fill="#FFF" d="M7.703 99.297c0-.871-.707-1.578-1.578-1.578a1.578 1.578 0 0 0 0 3.156c.871 0 1.578-.707 1.578-1.578m0 0"/><g clip-path="url(#b)"><path fill="none" stroke="#000" stroke-miterlimit="10" stroke-width=".39637458000000003" d="M7.703 99.297c0-.871-.707-1.578-1.578-1.578a1.578 1.578 0 0 0 0 3.156c.871 0 1.578-.707 1.578-1.578Zm0 0"/></g><path d="M59.445 99.297v1.973l4.188-1.973-4.188-1.973Zm0 0"/><g clip-path="url(#c)"><path fill="none" stroke="#000" stroke-miterlimit="10" stroke-width=".79175574" d="M63.633 85.5H91.23v27.594H63.633Zm0 0"/></g><use xlink:href="#d" x="70.856" y="102.377"/><use xlink:href="#e" x="77.209" y="102.377"/><path fill="none" stroke="#000" stroke-miterlimit="10" stroke-width=".39637458000000003" d="M91.23 99.297h28.754m0 0h28.754"/><path d="M144.547 99.297v1.973l4.191-1.973-4.191-1.973Zm0 0"/><g clip-path="url(#f)"><path fill="none" stroke="#000" stroke-miterlimit="10" stroke-width=".79175574" d="M148.738 85.5h27.594v27.594h-27.594Zm0 0"/></g><path fill="none" stroke="#000" stroke-miterlimit="10" stroke-width=".39637458000000003" d="M155.637 92.398c1.125-1.765 2.199-3.449 3.449-3.449s2.324 1.684 3.45 3.45c1.124 1.765 2.202 3.449 3.448 3.449 1.25 0 2.325-1.684 3.45-3.45m-4.829-2.07-4.14 4.14M155.637 99.297c1.125-1.766 2.199-3.45 3.449-3.45s2.324 1.684 3.45 3.45c1.124 1.765 2.202 3.45 3.448 3.45 1.25 0 2.325-1.685 3.45-3.45m-4.829-2.07-4.14 4.14"/><g clip-path="url(#g)"><path fill="none" stroke="#000" stroke-miterlimit="10" stroke-width=".39637458000000003" d="M155.637 106.195c1.125-1.765 2.199-3.449 3.449-3.449s2.324 1.684 3.45 3.45c1.124 1.765 2.202 3.449 3.448 3.449 1.25 0 2.325-1.684 3.45-3.45"/></g><path fill="none" stroke="#000" stroke-miterlimit="10" stroke-width=".39637458000000003" d="M162.535 85.5V56.746m0 0V27.992"/><path d="M162.535 32.18h1.973l-1.973-4.188-1.972 4.188Zm0 0"/><path fill="none" stroke="#000" stroke-miterlimit="10" stroke-width=".79175574" d="M148.738.395h27.594v27.597h-27.594Zm0 0"/><use xlink:href="#h" x="153.689" y="17.268"/><use xlink:href="#i" x="159.309" y="17.268"/><use xlink:href="#j" x="164.859" y="17.268"/><path fill="none" stroke="#000" stroke-miterlimit="10" stroke-width=".39637458000000003" d="M148.738 14.195H77.434V85.5"/><path d="M77.434 81.309H75.46l1.973 4.191 1.968-4.191Zm0 0"/><path fill="none" stroke="#000" stroke-miterlimit="10" stroke-width=".39637458000000003" d="M162.535 56.746h28.754m0 0h28.754"/><path stroke="#000" stroke-miterlimit="10" stroke-width=".39637458000000003" d="M164.113 56.746a1.579 1.579 0 0 0-3.156 0c0 .871.707 1.574 1.578 1.574s1.578-.703 1.578-1.574Zm0 0"/><path fill="#FFF" d="M221.617 56.746a1.575 1.575 0 1 0-3.152 0c0 .871.707 1.574 1.578 1.574s1.574-.703 1.574-1.574m0 0"/><g clip-path="url(#k)"><path fill="none" stroke="#000" stroke-miterlimit="10" stroke-width=".39637458000000003" d="M221.617 56.746a1.575 1.575 0 1 0-3.152 0c0 .871.707 1.574 1.578 1.574s1.574-.703 1.574-1.574Zm0 0"/></g><use xlink:href="#l" x="217.137" y="53.579"/></svg>