<svg xmlns="http://www.w3.org/2000/svg" xmlns:xlink="http://www.w3.org/1999/xlink" width="227.317" height="259.503"><defs><path id="a" d="m3.39 1.219-.046-.157c-.266.063-.36.032-.485-.03-.187-.095-.093-.313.282-1.188L4.17-2.47c.345-.781.048-1-.124-1.094-.234-.109-.578-.03-.906.094l.03.172a.8.8 0 0 1 .548.063c.156.078.297.312-.11 1.218l-.125.282L.141.063l.093.125c.157.046.329.093.5.171L3.266-1.25 2.594.281c-.281.625-.328.922-.047 1.078.187.094.547.016.844-.14m0 0"/><path id="b" d="M3.453-.016 2.922-.28l.937-1.875c.157-.328.282-.578.313-.61v-.03l-.203-.11a.12.12 0 0 0-.125.031c-.656.281-1.938.969-2.969 1.594-.031.11-.094.297.11.39L2.28-.25 2 .344c-.156.297-.39.187-.687.062-.063.031-.125.156-.094.219.203.094.453.219.75.36.25.124.484.25.703.359.062-.016.125-.14.094-.219-.297-.156-.438-.219-.282-.531L2.766 0l.453.219c.078.047.234-.016.281-.094.031-.078.031-.11-.047-.14M3.36-2.39 2.438-.53l-1.22-.594c.595-.375 1.407-.86 2.141-1.266m0 0"/><path id="g" d="M1.516-3.203c0-.266-.016-.594-.063-.672-.016-.047-.047-.078-.11-.078-.25.094-.484.187-1.109.265a.5.5 0 0 0 .032.25c.468.047.578.079.578.61v1.734c0 .735-.125.782-.61.813-.062.062-.062.25 0 .297C.5.016.844 0 1.204 0c.359 0 .624.016.89.016.062-.047.062-.235 0-.297-.453-.047-.547-.078-.547-.813v-1.468c0-.188.078-.282.156-.376.36-.343.688-.515.953-.515.344 0 .594.203.594.812v1.547c0 .735-.062.782-.547.813-.047.062-.047.25 0 .297C2.922.016 3.25 0 3.61 0c.36 0 .657.016.875.016.047-.047.047-.235 0-.297-.437-.031-.53-.078-.53-.813v-1.781c.421-.469.827-.578 1.171-.578s.547.187.547.797v1.562c0 .735-.094.782-.563.813-.046.062-.046.25 0 .297.22 0 .563-.016.922-.016.344 0 .657.016.907.016.046-.047.046-.235 0-.297-.485-.031-.563-.078-.563-.813V-2.5c0-.797-.14-1.422-.922-1.422-.453 0-1.016.172-1.469.656-.03.032-.093.079-.109 0-.078-.375-.422-.656-.89-.656-.516 0-.985.297-1.36.719-.047.047-.094.11-.11 0m0 0"/><path id="h" d="M3.453-.828c-.328.344-.594.484-1.11.484-.327 0-.702-.187-.968-.64-.187-.297-.297-.72-.297-1.235l2.375.016c.11 0 .172-.047.172-.14 0-.75-.266-1.563-1.5-1.563-.781 0-1.797.75-1.797 2.094 0 .5.125.984.422 1.328.297.359.719.578 1.375.578.672 0 1.156-.313 1.516-.781-.032-.094-.079-.141-.188-.141M1.11-2.516c.172-1.015.797-1.093 1.016-1.093.328 0 .734.187.734.937 0 .078-.03.125-.14.125Zm0 0"/><path id="i" d="M3.563-.812a.26.26 0 0 0-.188-.125c-.312.39-.687.593-1.078.593-.656 0-1.203-.672-1.203-1.719 0-.968.437-1.562 1.031-1.562.516 0 .594.313.625.625.031.234.156.313.344.313s.437-.11.437-.391c0-.485-.515-.844-1.375-.844-.875 0-1.828.797-1.828 2.063C.328-.703.968.094 2.094.094c.547 0 1.015-.172 1.469-.906m0 0"/><path id="j" d="M1.5-2.562c0-.188.078-.282.14-.376.344-.328.798-.515 1.141-.515.188 0 .375.11.485.312.093.188.109.422.109.688v1.36c0 .734-.094.765-.562.812-.047.062-.047.25 0 .297.25 0 .562-.016.921-.016.344 0 .641.016.938.016.047-.047.047-.235 0-.297-.5-.047-.594-.078-.594-.813v-1.328c0-.484-.031-.937-.25-1.203-.14-.187-.422-.297-.734-.297-.438 0-.969.11-1.516.719 0 .015-.016.015-.016.015-.03.047-.078.094-.078-.015l.016-2c0-.594.031-.953.031-.953 0-.063-.031-.078-.125-.078-.218.078-.89.203-1.25.234-.015.078 0 .219.063.266h.078c.39.03.484.03.484.734v3.906c0 .75-.11.782-.625.813-.047.062-.047.25 0 .297C.453.016.781 0 1.141 0c.343 0 .64.016.89.016.047-.047.047-.235 0-.297-.453-.031-.531-.063-.531-.813Zm0 0"/><path id="l" d="M4.813-2.328.53-.234c-.11.093-.11.39 0 .5l4.735-2.313c.046-.047.078-.203.078-.281s-.032-.219-.078-.266L.53-4.906c-.11.11-.11.39 0 .5Zm0 0"/><path id="k" d="M.516-.39c0 .265.203.484.468.484a.474.474 0 0 0 .47-.485.47.47 0 0 0-.47-.468.47.47 0 0 0-.468.468m0 0"/><path id="m" d="m3.578-.422-.125-.125c-.187.188-.297.203-.437.203-.203 0-.22-.25-.282-1.187l-.109-2.547C2.578-4.922 2.219-5 2.031-5c-.265 0-.531.234-.765.5l.093.125a.95.95 0 0 1 .516-.187c.172 0 .406.156.453 1.14l.016.313L.156 0l.14.078C.454.031.626 0 .814 0l1.546-2.594.094 1.688c.016.672.11.984.438.984.203 0 .5-.234.687-.5m0 0"/><path id="n" d="M3.078-1.562h-.594v-2.094c0-.36 0-.64.016-.688l-.016-.015H2.25c-.047 0-.078.03-.11.078-.453.547-1.28 1.718-1.937 2.75.016.11.063.297.281.297h1.454v.656c0 .328-.266.328-.579.36-.046.046-.046.187 0 .234C1.594 0 1.875 0 2.203 0c.281 0 .547 0 .781.016.047-.047.047-.188 0-.235-.343-.031-.5-.015-.5-.36v-.655h.5c.094 0 .204-.125.204-.22 0-.077-.032-.109-.11-.109m-1.14-2.063v2.063H.577c.36-.594.875-1.391 1.36-2.063m0 0"/><clipPath id="c"><path d="M31 .14h1V1h-1Zm0 0"/></clipPath><clipPath id="d"><path d="M31 .14h1V138h-1Zm0 0"/></clipPath><clipPath id="e"><path d="M24 .14h16V11H24Zm0 0"/></clipPath><clipPath id="f"><path d="M29 .14h6V2h-6Zm0 0"/></clipPath><clipPath id="o"><path d="M113 247h1v11.867h-1Zm0 0"/></clipPath><clipPath id="p"><path d="M104 64h122.637v87H104Zm0 0"/></clipPath><clipPath id="q"><path d="M104 124h122.637v87H104Zm0 0"/></clipPath><clipPath id="r"><path d="M112 .14h2V139h-2Zm0 0"/></clipPath></defs><path fill="none" stroke="#999" stroke-miterlimit="10" stroke-width=".00997" d="M218.144 209.75"/><path fill="none" stroke="#000" stroke-miterlimit="10" stroke-width=".397803" d="m113.133 157.246 104.746 52.371"/><path stroke="#000" stroke-miterlimit="10" stroke-width=".39777108000000005" d="m113.578 157.469 1.863 2.898.79-1.574.785-1.574Zm0 0"/><path fill="none" stroke="#000" stroke-miterlimit="10" stroke-width=".39777108000000005" d="m112.023 159.242 2.043-4.086"/><path stroke="#000" stroke-miterlimit="10" stroke-width=".39777108000000005" d="m217.434 209.395-1.864-2.899-.789 1.574-.785 1.57Zm0 0"/><path fill="none" stroke="#000" stroke-miterlimit="10" stroke-width=".39777108000000005" d="m218.988 207.617-2.043 4.09"/><path fill="#FFF" d="m175.293 177.438-10.863-5.43-8.711 17.418 10.863 5.43Zm0 0"/><use xlink:href="#a" x="164.626" y="180.937"/><path fill="none" stroke="#000" stroke-miterlimit="10" stroke-width=".58120436" d="m163.746 182.695 3.402 1.703"/><use xlink:href="#b" x="161.003" y="188.72"/><path fill="none" stroke="#999" stroke-miterlimit="10" stroke-width=".00997" d="M31.727 137.598"/><g clip-path="url(#c)"><path fill="none" stroke="#999" stroke-miterlimit="10" stroke-width=".00997" d="M31.727.734"/></g><g clip-path="url(#d)"><path fill="none" stroke="#000" stroke-miterlimit="10" stroke-width=".397803" d="M31.727 137.3V1.032"/></g><path stroke="#000" stroke-miterlimit="10" stroke-width=".397803" d="m31.727 136.805 1.757-2.97H29.97Zm0 0"/><path fill="none" stroke="#000" stroke-miterlimit="10" stroke-width=".397803" d="M34.012 137.398h-4.57"/><path d="m31.727 1.527-1.758 2.965h3.515Zm0 0"/><g clip-path="url(#e)"><path fill="none" stroke="#000" stroke-miterlimit="10" stroke-width=".397803" d="m31.727 1.527-1.758 2.965h3.515Zm0 0"/></g><g clip-path="url(#f)"><path fill="none" stroke="#000" stroke-miterlimit="10" stroke-width=".397803" d="M29.441.934h4.57"/></g><path fill="#FFF" d="M9.441 78.902h44.57V59.43H9.442Zm0 0"/><use xlink:href="#g" x="12.424" y="71.62"/><use xlink:href="#h" x="19.486" y="71.62"/><use xlink:href="#i" x="23.482" y="71.62"/><use xlink:href="#j" x="27.308" y="71.62"/><use xlink:href="#k" x="32.117" y="71.62"/><use xlink:href="#l" x="36.567" y="71.62"/><use xlink:href="#m" x="46.035" y="67.329"/><path fill="none" stroke="#000" stroke-miterlimit="10" stroke-width=".581251" d="M46.035 69.297h3.805"/><use xlink:href="#n" x="46.275" y="75.911"/><path fill="none" stroke="#000" stroke-miterlimit="10" stroke-width=".397803" d="M123.844 137.598v105.277M102.79 137.598v105.277"/><path fill="none" stroke="#000" stroke-dasharray="2.97986351 2.97986351" stroke-miterlimit="10" stroke-width=".397803" d="M113.316 148.125v94.75"/><path fill="none" stroke="#000" stroke-miterlimit="10" stroke-width=".397803" d="M123.844 137.598c0-2.907-4.711-5.266-10.528-5.266-5.812 0-10.527 2.36-10.527 5.266s4.715 5.265 10.527 5.265c5.817 0 10.528-2.36 10.528-5.265M123.844 242.875c0 2.91-4.711 5.266-10.528 5.266-5.812 0-10.527-2.356-10.527-5.266"/><g clip-path="url(#o)"><path fill="none" stroke="#000" stroke-miterlimit="10" stroke-width=".397803" d="M113.316 248.14v10.528"/></g><g clip-path="url(#p)"><path fill="none" stroke="#000" stroke-linecap="round" stroke-miterlimit="10" stroke-width="1.192412" d="m121.207 133.652 104.832-52.418"/></g><path stroke="#000" stroke-linecap="round" stroke-miterlimit="10" stroke-width=".99293232" d="M120.316 134.098a.5.5 0 0 0 .668.222.5.5 0 0 0 .223-.668.5.5 0 0 0-.668-.222.5.5 0 0 0-.223.668Zm0 0"/><path fill="none" stroke="#000" stroke-linecap="round" stroke-miterlimit="10" stroke-width="1.192412" d="M105.43 133.652.594 81.234"/><path stroke="#000" stroke-linecap="round" stroke-miterlimit="10" stroke-width=".99293232" d="M106.316 134.098a.497.497 0 1 0-.887-.447.497.497 0 0 0 .887.447Zm0 0"/><g clip-path="url(#q)"><path fill="none" stroke="#000" stroke-linecap="round" stroke-miterlimit="10" stroke-width="1.192412" d="m121.207 141.543 104.832 52.418"/></g><path stroke="#000" stroke-linecap="round" stroke-miterlimit="10" stroke-width=".99293232" d="M120.316 141.098a.5.5 0 0 0 .223.668c.246.12.543.02.668-.223a.499.499 0 0 0-.89-.445Zm0 0"/><path fill="none" stroke="#000" stroke-linecap="round" stroke-miterlimit="10" stroke-width="1.192412" d="M105.43 141.543.594 193.961"/><path stroke="#000" stroke-linecap="round" stroke-miterlimit="10" stroke-width=".99293232" d="M106.316 141.098a.495.495 0 1 0-.887.445.497.497 0 1 0 .887-.445Zm0 0"/><g clip-path="url(#r)"><path fill="none" stroke="#000" stroke-miterlimit="10" stroke-width="1.192412" d="M113.316.734v103.954m0 7.914v24.996"/></g><path fill="none" stroke="#000" stroke-miterlimit="10" stroke-width="2.383827" d="M125.187 104.688H101.45m23.738 7.914H101.45"/></svg>