<svg xmlns="http://www.w3.org/2000/svg" xmlns:xlink="http://www.w3.org/1999/xlink" width="226.773" height="80.167"><defs><path id="a" d="M4.453-.484 3.875-2.11H1.672L1.078-.484l.672.125q.124.017.125.093c0 .055-.031.141-.094.266h-1.86a.2.2 0 0 1-.015-.078Q-.096-.342.22-.406l.25-.063 2.156-5.656.547-.062L5.312-.47l.391.11q.124.034.125.093-.002.048-.11.266h-1.89a.16.16 0 0 1-.015-.078c0-.164.101-.274.312-.328Zm-2.61-2.094h1.86l-.906-2.594H2.78Zm0 0"/><path id="b" d="m.781-3.766-.64-.093a.16.16 0 0 1-.016-.079q0-.246.328-.265l1.047-.11v2.782q0 1.048.89 1.047c.458 0 .82-.145 1.094-.438v-2.844l-.64-.093a.16.16 0 0 1-.016-.079q0-.246.328-.265l1.047-.11v3.829l.656.078v.078q0 .252-.328.281l-.984.094v-.578h-.031c-.336.43-.778.64-1.328.64Q.78.11.78-1.484Zm0 0"/><path id="c" d="M1-.562q.264.187.64.187c.508 0 .766-.191.766-.578q-.002-.246-.25-.469a5 5 0 0 0-.578-.406q-.516-.328-.75-.563a1.2 1.2 0 0 1-.344-.843q0-.515.391-.813.405-.311 1.031-.312.575.002.938.297.047.329.047.546c0 .293-.118.438-.344.438a.16.16 0 0 1-.078-.016l-.11-.64a1.2 1.2 0 0 0-.609-.172c-.43 0-.64.172-.64.515 0 .243.163.47.5.688q.468.316.937.61.499.41.5.937-.001.55-.406.906-.41.362-1.078.36C1.125.11.766.022.484-.14a3.7 3.7 0 0 1-.078-.735q0-.422.328-.422c.032 0 .055.008.079.016Zm0 0"/><path id="d" d="M.484-2.953Q.483-3.608.97-4.016q.45-.341 1.14-.343c.227 0 .454.03.672.093h1.5l-.078.485H3.47c.176.242.265.515.265.828q-.001.674-.5 1.078-.456.375-1.171.375-.206 0-.422-.047-.282.159-.282.422 0 .314.47.313h1.015q.576.001.906.265.328.252.328.703-.002.703-.594 1.188c-.43.351-.992.531-1.687.531C.742 1.875.219 1.531.219.844c0-.524.265-.875.797-1.063v-.015C.786-.36.672-.554.672-.828q0-.497.61-.813v-.015Q.483-2.03.483-2.953m1.625 1q.921.001.922-1-.002-.45-.25-.703a.9.9 0 0 0-.656-.25q-.924.002-.922.953c0 .668.3 1 .906 1M1.72-.11q-.188.002-.36-.032C1.066.012.922.266.922.61q0 .781.984.782.684 0 1.094-.282.375-.25.375-.671c0-.368-.246-.547-.734-.547Zm0 0"/><path id="e" d="M2.64-2.766q0-.574-.171-.843-.175-.282-.61-.282-.28.001-.515.079-.129.235-.203.78a2 2 0 0 1-.188.016q-.438 0-.437-.39c0-.258.148-.485.453-.672A1.97 1.97 0 0 1 2-4.36q1.36 0 1.36 1.5v1.937c0 .336.1.5.312.5A.48.48 0 0 0 4-.532q.077.112.078.25c0 .063-.058.134-.172.204a.87.87 0 0 1-.531.156c-.406 0-.633-.203-.672-.61h-.015q-.423.643-1.22.641-.515 0-.827-.312-.299-.311-.297-.828 0-.638.656-1 .563-.296 1.406-.297h.235ZM1.75-.453q.498 0 .89-.469v-1.015l-.234.015q-1.282.11-1.281.813-.001.656.625.656m0 0"/><path id="f" d="M.906-.469v-3.297L.25-3.859v-.079q0-.246.328-.265l1.047-.11-.047.594h.016q.31-.293.515-.422.404-.217.954-.218.636 0 1 .422.375.408.375 1.156V-.47l.53.125q.125.035.126.11A.35.35 0 0 1 5 0H3.125a.1.1 0 0 1-.016-.062c0-.133.094-.235.282-.297l.328-.11v-2.265c0-.364-.102-.633-.297-.813a1 1 0 0 0-.656-.219q-.644 0-1.141.422v2.875l.531.125q.124.035.125.11A.35.35 0 0 1 2.187 0H.313a.1.1 0 0 1-.016-.062c0-.133.094-.235.281-.297Zm0 0"/><path id="i" d="M2.219-.39c.726 0 1.094-.833 1.094-2.5 0-1.657-.368-2.485-1.094-2.485q-1.094 0-1.094 2.484Q1.124-.39 2.219-.39m-.031.5q-.88.002-1.36-.735-.532-.778-.531-2.266 0-1.452.562-2.25.527-.733 1.407-.734.873.001 1.359.734.516.786.516 2.25 0 1.47-.563 2.266c-.344.492-.808.734-1.39.734m0 0"/><path id="j" d="M5.797-6.125v.078c0 .168-.102.277-.297.328l-.234.047L3.25 0h-.719L.453-5.656l-.375-.11c-.082-.007-.125-.046-.125-.109 0-.05.035-.133.094-.25H2.03v.078q-.002.253-.297.313l-.375.078L2.984-.891h.032l1.672-4.78-.672-.11q-.127-.013-.125-.094 0-.075.093-.25Zm0 0"/><clipPath id="g"><path d="M95 48h39v31.344H95Zm0 0"/></clipPath><clipPath id="h"><path d="M106 58h1v21.344h-1Zm0 0"/></clipPath><clipPath id="k"><path d="M1.055 28H29v23H1.055Zm0 0"/></clipPath></defs><path fill="none" stroke="#000" stroke-linejoin="bevel" stroke-miterlimit="10" stroke-width=".7888068400000001" d="M36.57 23.566c3.254 0 5.895 1.801 5.895 4.028 0 2.222-2.64 4.023-5.895 4.023 3.254 0 5.895 1.805 5.895 4.028s-2.64 4.027-5.895 4.027c3.254 0 5.895 1.8 5.895 4.027 0 2.223-2.64 4.024-5.895 4.024 3.254 0 5.895 1.804 5.895 4.027s-2.64 4.027-5.895 4.027M60.453 55.777c-3.254 0-5.89-1.804-5.89-4.027s2.636-4.027 5.89-4.027c-3.254 0-5.89-1.801-5.89-4.024 0-2.226 2.636-4.027 5.89-4.027-3.254 0-5.89-1.8-5.89-4.027 0-2.223 2.636-4.028 5.89-4.028-3.254 0-5.89-1.8-5.89-4.023 0-2.227 2.636-4.028 5.89-4.028"/><path fill="none" stroke="#000" stroke-miterlimit="10" stroke-width=".39489828000000005" d="M19.055 10.215H36.73V23.96m0 31.422v13.746H19.055m58.914-58.914H60.297V23.96m0 31.422v13.746h17.672"/><path fill="none" stroke="#000" stroke-miterlimit="10" stroke-width=".7888068400000001" d="M49.984 54.402v-29.46m-2.945 29.46v-29.46"/><path fill="#FFF" stroke="#000" stroke-miterlimit="10" stroke-width=".39489828000000005" d="M20.625 10.215a1.57 1.57 0 1 0-3.14 0 1.57 1.57 0 0 0 3.14 0ZM20.625 69.129a1.57 1.57 0 1 0-3.14 0 1.57 1.57 0 0 0 3.14 0Zm0 0"/><path fill="none" stroke="#000" stroke-miterlimit="10" stroke-width=".39489828000000005" d="M77.969 10.215h28.504m15.707 0h46.68m0 0h18.18"/><path fill="none" stroke="#000" stroke-miterlimit="10" stroke-width=".7888068400000001" d="M106.473 10.215 122.18.395V20.03Zm0 0"/><path fill="none" stroke="#000" stroke-miterlimit="10" stroke-width=".39489828000000005" d="M106.473 10.215h15.707"/><path fill="none" stroke="#000" stroke-miterlimit="10" stroke-width=".7888068400000001" d="M106.473 20.031V.395"/><path stroke="#000" stroke-miterlimit="10" stroke-width=".39489828000000005" d="M152.254 10.215c0-.867-.703-1.57-1.574-1.57a1.57 1.57 0 0 0 0 3.14c.87 0 1.574-.703 1.574-1.57Zm0 0"/><path fill="#FFF" stroke="#000" stroke-miterlimit="10" stroke-width=".39489828000000005" d="M188.61 10.215a1.57 1.57 0 0 0-1.57-1.57 1.571 1.571 0 1 0 1.57 1.57Zm0 0"/><use xlink:href="#a" x="190.19" y="12.37"/><use xlink:href="#b" x="195.888" y="12.37"/><use xlink:href="#c" x="200.937" y="12.37"/><use xlink:href="#d" x="204.371" y="12.37"/><use xlink:href="#e" x="208.773" y="12.37"/><use xlink:href="#f" x="212.917" y="12.37"/><use xlink:href="#d" x="218.135" y="12.37"/><path fill="none" stroke="#000" stroke-miterlimit="10" stroke-width=".39489828000000005" d="M77.969 69.129h28.504m15.707 0h28.5V39.672m0 0V10.215"/><g clip-path="url(#g)"><path fill="none" stroke="#000" stroke-miterlimit="10" stroke-width=".7888068400000001" d="m106.473 69.129 15.707-9.82v19.64Zm0 0"/></g><path fill="none" stroke="#000" stroke-miterlimit="10" stroke-width=".39489828000000005" d="M106.473 69.129h15.707"/><g clip-path="url(#h)"><path fill="none" stroke="#000" stroke-miterlimit="10" stroke-width=".7888068400000001" d="M106.473 78.95V59.308"/></g><path fill="none" stroke="#000" stroke-miterlimit="10" stroke-width=".39489828000000005" d="M62.258 39.672h44.21m0 0h62.391m0 0h18.18"/><path stroke="#000" stroke-miterlimit="10" stroke-width=".39489828000000005" d="M63.832 39.672c0-.867-.703-1.57-1.574-1.57a1.57 1.57 0 0 0 0 3.14c.87 0 1.574-.703 1.574-1.57Zm0 0"/><path fill="#FFF" stroke="#000" stroke-miterlimit="10" stroke-width=".39489828000000005" d="M188.61 39.672a1.57 1.57 0 0 0-1.57-1.57 1.571 1.571 0 1 0 1.57 1.57Zm0 0"/><use xlink:href="#i" x="190.19" y="42.68"/><use xlink:href="#j" x="196.101" y="42.68"/><g clip-path="url(#k)"><path fill="none" stroke="#000" stroke-miterlimit="10" stroke-width=".39489828000000005" d="M1.25 39.672c1.777-2.793 3.48-5.453 5.453-5.453s3.676 2.66 5.453 5.453 3.48 5.453 5.453 5.453 3.676-2.66 5.454-5.453"/></g></svg>