<svg xmlns="http://www.w3.org/2000/svg" xmlns:xlink="http://www.w3.org/1999/xlink" width="226.814" height="83.134"><defs><clipPath id="a"><path d="M1.078 50H223v1H1.078Zm0 0"/></clipPath><clipPath id="b"><path d="M216 43h9.555v15H216Zm0 0"/></clipPath><clipPath id="c"><path d="M27 15h2v67.277h-2Zm0 0"/></clipPath><clipPath id="g"><path d="M1.273 17H40v65.078H1.273Zm0 0"/></clipPath><clipPath id="h"><path d="M16 17h184v65.078H16Zm0 0"/></clipPath><clipPath id="i"><path d="M176 39h49.36v43.078H176Zm0 0"/></clipPath><path id="d" d="M3.11-1.078v-3.39c0-.579.078-.907.406-.907h.187c.672 0 1.094.234 1.235.906.109 0 .234 0 .312-.047-.062-.406-.11-.859-.125-1.25 0-.015-.016-.03-.016-.03-.312.03-1.296.077-2 .077h-.75c-.687 0-1.734-.047-2.078-.078a.034.034 0 0 0-.031.031c-.031.391-.125.86-.219 1.282a.9.9 0 0 0 .297.046C.5-5.14.922-5.374 1.5-5.374h.438c.328 0 .421.328.421.875v3.422c0 .734-.156.781-.875.797-.046.062-.046.25 0 .297.438 0 .891-.016 1.25-.016.344 0 .782.016 1.235.016.047-.047.047-.235 0-.297-.719-.016-.86-.063-.86-.797m0 0"/><path id="e" d="M.547-4.156c0 .187.156.343.344.343.156 0 .422-.156.422-.343 0-.078-.016-.125-.032-.188-.015-.062-.078-.14-.078-.218 0-.22.234-.547.875-.547.328 0 .781.234.781 1.078 0 .562-.203 1.031-.734 1.562l-.656.656c-.86.876-1 1.313-1 1.829 0 0 .453-.016.734-.016H2.75c.281 0 .688.016.688.016.124-.47.203-1.141.218-1.407-.047-.03-.172-.062-.25-.03-.156.624-.312.843-.625.843H1.203c0-.422.61-1.031.656-1.078l.891-.86c.5-.484.89-.875.89-1.546 0-.954-.78-1.344-1.5-1.344-.984 0-1.593.718-1.593 1.25m0 0"/><path id="f" d="M1.906-5.11c.39 0 .735.235.735.813 0 .438-.516 1.125-1.391 1.25l.047.281c.156-.015.312-.015.422-.015.515 0 1.172.14 1.172 1.14 0 1.172-.797 1.422-1.11 1.422-.453 0-.531-.203-.64-.36C1.062-.702.938-.812.766-.812.578-.812.39-.64.39-.5c0 .344.75.594 1.28.594 1.048 0 2-.688 2-1.86 0-.968-.733-1.312-1.265-1.406v-.015c.735-.344.938-.704.938-1.172 0-.266-.063-.485-.281-.703-.204-.204-.5-.344-.97-.344-1.296 0-1.671.843-1.671 1.14 0 .125.078.297.297.297.312 0 .344-.297.344-.453 0-.578.609-.687.843-.687m0 0"/><path id="j" d="m.938-3.812-.47.03c-.171.016-.234.079-.25.157a.5.5 0 0 0-.046.14c0 .016.031.016.062.016H.86L.313-1.047C.25-.766.188-.484.188-.313c0 .313.156.407.437.407.39 0 .984-.375 1.281-.922C1.875-.938 1.813-1 1.72-1c-.422.469-.578.563-.719.563a.12.12 0 0 1-.11-.125q0-.118.094-.563l.532-2.344h.859c.11-.031.188-.265.094-.344h-.875l.078-.39c.047-.172.125-.422.125-.531 0-.157-.078-.25-.36-.25-.312 0-.296.406-.39.734Zm0 0"/><path id="k" d="M1.813.094c1.75 0 2.359-1.125 2.656-2.719l.484-2.437c.047-.25.188-.375.547-.407l.219-.015c.047 0 .078-.032.078-.079l.047-.156-.016-.015c-.406 0-.75.015-.953.015-.187 0-.531-.015-.922-.015l-.015.015-.047.157c0 .046.03.078.062.078l.235.015c.28.016.39.094.39.282 0 .046 0 .078-.016.125l-.5 2.609c-.203.984-.562 2.172-2 2.172-.406 0-.718-.188-.921-.438-.188-.234-.25-.515-.25-.797 0-.28.062-.593.109-.875l.531-2.687c.047-.25.188-.36.547-.39l.219-.016c.047 0 .078-.032.078-.079l.031-.156-.015-.015c-.391 0-.75.015-1.094.015-.328 0-.672-.015-1.063-.015l-.03.015-.032.157c0 .046.016.078.062.078l.22.015c.28.016.405.094.405.282 0 .03 0 .062-.015.109L.25-2.094c-.031.235-.062.438-.062.625C.188-.187 1.14.094 1.813.094m0 0"/></defs><path fill="none" stroke="#7F7F7F" stroke-miterlimit="10" stroke-width=".19694831000000002" d="M81.305 52.508V48.3m53.351 4.207V48.3m53.356 4.207V48.3"/><g clip-path="url(#a)"><path fill="none" stroke="#000" stroke-miterlimit="10" stroke-width=".39488631" d="M1.273 50.406h220.649"/></g><path d="m224.965 50.406-2.945-1.746v3.488Zm0 0"/><g clip-path="url(#b)"><path fill="none" stroke="#000" stroke-miterlimit="10" stroke-width=".39488631" d="m224.965 50.406-2.945-1.746v3.488Zm0 0"/></g><g clip-path="url(#c)"><path fill="none" stroke="#000" stroke-miterlimit="10" stroke-width=".39488631" d="M27.95 82.078v-66.7"/></g><path stroke="#000" stroke-miterlimit="10" stroke-width=".39488631" d="m27.95 12.336-1.743 2.945h3.488Zm0 0"/><use xlink:href="#d" x="82.488" y="61.459"/><use xlink:href="#e" x="134.736" y="61.459"/><use xlink:href="#d" x="138.862" y="61.459"/><use xlink:href="#f" x="188.089" y="61.459"/><use xlink:href="#d" x="192.215" y="61.459"/><g clip-path="url(#g)"><path fill="none" stroke="#000" stroke-dasharray="2.9580151626999998 2.9580151626999998" stroke-miterlimit="10" stroke-width=".78878293" d="m-25.402 73.031.535-.453.531-.453.535-.453.531-.453.536-.453.535-.45.531-.453.535-.453.531-.453.536-.453.53-.453.536-.45.535-.453.531-.453.536-.453.53-.453.536-.453.535-.45.531-.452.536-.454.53-.453.536-.453.531-.453.535-.45.536-.452.53-.453.536-.453.531-.454.535-.453.535-.449.532-.453.535-.453.531-.453.535-.453.532-.454.535-.453.535-.449.531-.453.535-.453.532-.453 1.07-.907.531-.449.535-.453.531-.453.536-.453.53-.453.536-.453.535-.45.531-.453.536-.453.53-.453.536-.453.531-.453.535-.45.536-.453.53-.453.536-.453.531-.453 1.07-.906.532-.45.535-.453.531-.453.535-.453.532-.453.535-.453.535-.45.531-.452.535-.454.532-.453 1.07-.906.531-.45.535-.452.532-.453.535-.453.53-.454.536-.453.535-.449.531-.453.536-.453.53-.453 1.071-.907.531-.453.536-.449.53-.453.536-.453.531-.453 1.07-.907.532-.449.535-.453.531-.453 1.07-.906.532-.453.535-.45.531 44.797"/></g><g clip-path="url(#h)"><path fill="none" stroke="#000" stroke-miterlimit="10" stroke-width=".78878293" d="m27.95 73.031.534-.453.532-.453 1.07-.906.531-.453.535-.45.532-.453 1.07-.906.531-.453.535-.453.532-.45.535-.453.531-.453 1.07-.906.532-.453.535-.45.53-.452 1.071-.907.531-.453.536-.453.53-.45.536-.452.531-.453 1.07-.907.532-.453.535-.449.531-.453 1.07-.906.532-.453.535-.454.531-.453.535-.449.532-.453 1.07-.906.531-.453.535-.454.532-.449 1.07-.906.531-.453.535-.453.532-.453.535-.45.531-.453 1.07-.906.532-.453.535-.453.53-.45 1.071-.906.532-.453.535-.453.53-.453.536-.453.531-.45 1.07-.906.532-.453.535-.453.531-.453.535-.45.536-.452.53-.454.536-.453.531-.453.535-.453.532-.45 1.07-.905.531-.453.535-.454.532-.453.535-.449.535-.453.531-.453.535-.453.532-.453.535-.454.531-.453.535-.449.535-.453.532-.453.535-.453.531-.453.535-.454.535-.449.532-.453.535-.453.53-.453.536-.453.531-.453.535-.45.536 44.797.53-.453.536-.453.531-.453 1.07-.906.532-.45.535-.453.531-.453.535-.453.532-.453.535-.453.535-.45.531-.453.535-.453.532-.453 1.07-.906.531-.45.535-.452.532-.454.535-.453.531-.453.535-.453.535-.45.532-.452.535-.453.531-.453 1.07-.907.532-.449.535-.453.531-.453.535-.453.531-.453 1.07-.907.532-.449.535-.453.531-.453 1.07-.906.532-.454.535-.449.531-.453.535-.453.532-.453 1.07-.906.531-.45.535-.453.532-.453 1.07-.906.531-.453.535-.45.532-.453.535-.453.531-.453 1.07-.906.532-.453.535-.45.531-.453 1.07-.906.532-.453.535-.453.531-.45.535-.452.531-.454 1.07-.906.532-.453.535-.45.531-.452 1.07-.906.532-.454.535-.453.531-.449.535-.453.532-.453 1.07-.906.531-.454.535-.453.532-.449 1.07-.906.531-.453.535-.453.532-.454.535-.449.531-.453 1.07-.906.532-.453.535-.453.531-.45.535 44.797.535-.453.532-.453.535-.453.531-.453.535-.453.531-.45 1.07-.906.532-.453.535-.453.531-.453.536-.45.535-.453.53-.453.536-.453.531-.453.535-.453.532-.45 1.07-.906.531-.453.535-.453.532-.453.535-.45.535-.452.531-.453.535-.453.532-.454.535-.453.531-.449 1.07-.906.532-.453.535-.453.531-.454.535-.453.535-.449.532-.453.535-.453.531-.453.535-.453.531-.454.536-.449.535-.453.531-.453.535-.453.531-.453.536-.453.535-.45.531-.453.535-.453.531-.453.536-.453.53-.453.536-.45.535-.453.531-.453.535-.453.532-.453 1.07-.906.531-.45.535-.453.532-.453.535-.453.531-.453.535-.453.535-.45.532-.452.535-.454.531-.453.535-.453.531-.453.536-.45.535-.452.531-.453.535-.453.531-.454.536-.453.535-.449.531-.453.535-.453.531-.453.536-.453.53-.454.536-.453.535-.449.531-.453.536-.453.53-.453 1.071-.907.531-.449.536-.453.53-.453.536-.453.531-.453.535-.453.535-.45.532 44.797"/></g><g clip-path="url(#i)"><path fill="none" stroke="#000" stroke-dasharray="2.9580151626999998 2.9580151626999998" stroke-miterlimit="10" stroke-width=".78878293" d="m188.008 73.031.535-.453.531-.453 1.07-.906.532-.453.535-.45.531-.453.535-.453.532-.453 1.07-.906.531-.45.535-.453.531-.453 1.07-.906.532-.453.535-.45.531-.452.536-.454.53-.453 1.071-.906.531-.45.536-.452.53-.453 1.071-.907.531-.453.536-.449.53-.453.536-.453.531-.453 1.07-.907.532-.453.535-.449.531-.453 1.07-.906.532-.453.535-.454.531-.449.535-.453.532-.453 1.07-.906.531-.453.535-.45.531-.453"/></g><use xlink:href="#j" x="220.187" y="58.538"/><use xlink:href="#k" x="20.075" y="8.699"/></svg>