<svg xmlns="http://www.w3.org/2000/svg" xmlns:xlink="http://www.w3.org/1999/xlink" width="227.054" height="78.888"><defs><clipPath id="a"><path d="M101 .11h4V4h-4Zm0 0"/></clipPath><clipPath id="b"><path d="M95 .11h16V10H95Zm0 0"/></clipPath><clipPath id="c"><path d="M222 .11h4V4h-4Zm0 0"/></clipPath><clipPath id="d"><path d="M217 .11h9.113V10H217Zm0 0"/></clipPath><clipPath id="e"><path d="M66 73h14v5.668H66Zm0 0"/></clipPath><path id="f" d="M1.125-5.797h2.547l-.047.781H1.531l-.125 1.407q1.296.046 1.875.547.546.455.547 1.374a1.7 1.7 0 0 1-.547 1.266Q2.75.111 1.906.11 1.168.108.828-.156a.61.61 0 0 1-.281-.516q0-.405.39-.547.171.376.282.5.311.328.828.328.527 0 .844-.328c.195-.207.297-.476.297-.812q0-.732-.563-1.047-.563-.328-1.781-.328Zm0 0"/><path id="g" d="M2.234-.39q1.092.001 1.094-2.516c0-1.664-.367-2.5-1.094-2.5-.73 0-1.093.836-1.093 2.5 0 1.68.363 2.515 1.093 2.515m-.046.5q-.862 0-1.36-.75Q.296-1.42.297-2.907c0-.977.187-1.735.562-2.266.352-.488.829-.734 1.422-.734q.873.001 1.36.734c.343.531.515 1.29.515 2.266q0 1.487-.562 2.265-.516.75-1.406.75m0 0"/><path id="h" d="M4.297-2.469H.547v-.515h3.75Zm0 0"/><path id="i" d="M.484-4.64c0-.376.02-.758.063-1.157h3.562a.3.3 0 0 1 .047.172q-.002.188-.11.422L1.704 0h-.656l2.406-5.047H1.078l-.14.75a.6.6 0 0 1-.204.031q-.251 0-.25-.375m0 0"/><path id="j" d="M6.125-3.469q0 .924-.562 1.719-.488.69-1.157 1.047v.172H5.61l.125-.719a.44.44 0 0 1 .204-.047q.28.001.28.406 0 .365-.046.891H3.844v-.89C4.82-1.38 5.313-2.25 5.313-3.5q-.001-1.03-.547-1.64-.533-.61-1.375-.61-.845 0-1.391.61-.532.626-.531 1.64-.001.877.343 1.531.376.738 1.126 1.078V0H.624a10 10 0 0 1-.047-.89c0-.27.086-.407.266-.407q.107 0 .203.047l.14.719h1.188v-.156c-.43-.188-.809-.524-1.14-1.016Q.654-2.53.655-3.47q-.001-1.216.766-2 .762-.797 1.969-.797c.8 0 1.457.258 1.968.766.508.512.766 1.188.766 2.031m0 0"/></defs><path fill="none" stroke="#000" stroke-miterlimit="10" stroke-width=".39734415" d="M.2 26.117h10.655m51.38 0H72.89m0 0v10.54m0 15.265v10.543h9.09m0 0h21.199m0 0h12.117v-21.27m0-5.925V14h-6.059m0 0h-6.058"/><path fill="none" stroke="#000" stroke-miterlimit="10" stroke-width=".7936924500000001" d="M59.863 20.187H13.227c-1.309 0-2.372 2.657-2.372 5.93 0 3.274 1.063 5.926 2.372 5.926h46.636c1.309 0 2.371-2.652 2.371-5.926s-1.062-5.93-2.37-5.93"/><path fill="none" stroke="#000" stroke-miterlimit="10" stroke-width=".7936924500000001" d="M59.863 20.187c-1.308 0-2.37 2.657-2.37 5.93 0 3.274 1.062 5.926 2.37 5.926"/><path fill="none" stroke="#000" stroke-miterlimit="10" stroke-width=".39734415" d="M59.863 26.117h2.371"/><path fill="none" stroke="#000" stroke-linejoin="bevel" stroke-miterlimit="10" stroke-width=".7936924500000001" d="M72.734 36.262c2.809 0 5.086 1.797 5.086 4.011 0 2.22-2.277 4.016-5.086 4.016 2.809 0 5.086 1.797 5.086 4.016 0 2.218-2.277 4.015-5.086 4.015"/><path stroke="#000" stroke-miterlimit="10" stroke-width=".39734415" d="M74.473 62.465a1.58 1.58 0 1 0-3.161-.003 1.58 1.58 0 0 0 3.16.003ZM92.645 62.465a1.58 1.58 0 1 0-3.16-.005 1.58 1.58 0 0 0 3.16.005Zm0 0"/><path fill="none" stroke="#000" stroke-miterlimit="10" stroke-width=".7936924500000001" d="M124.188 41.195h-17.782m17.782-5.925h-17.782M106.406 47.125l14.532-14.535"/><path stroke="#000" stroke-miterlimit="10" stroke-width=".7936765100000001" d="m123.629 29.902-4.086 1.012 1.535 1.535 1.54 1.535Zm0 0"/><path fill="none" stroke="#000" stroke-miterlimit="10" stroke-width=".39734415" d="M91.066 62.465v-8.969m0-30.531V14h6.059m0 0h6.055V7.941m0 0V1.887"/><path fill="none" stroke="#000" stroke-linejoin="bevel" stroke-miterlimit="10" stroke-width=".7936924500000001" d="M91.223 53.895c-2.809 0-5.086-1.754-5.086-3.915 0-2.164 2.277-3.918 5.086-3.918-2.809 0-5.086-1.753-5.086-3.914 0-2.164 2.277-3.918 5.086-3.918-2.809 0-5.086-1.75-5.086-3.914s2.277-3.914 5.086-3.914c-2.809 0-5.086-1.754-5.086-3.918 0-2.16 2.277-3.914 5.086-3.914"/><path stroke="#000" stroke-miterlimit="10" stroke-width=".39734415" d="M104.762 14a1.58 1.58 0 1 0-3.16.003 1.58 1.58 0 0 0 3.16-.003Zm0 0"/><g clip-path="url(#a)"><path d="M104.762 1.887a1.58 1.58 0 1 0-3.161-.004 1.58 1.58 0 0 0 3.16.004m0 0"/></g><g clip-path="url(#b)"><path fill="none" stroke="#000" stroke-miterlimit="10" stroke-width=".39734415" d="M104.762 1.887a1.58 1.58 0 1 0-3.161-.004 1.58 1.58 0 0 0 3.16.004Zm0 0"/></g><path fill="none" stroke="#000" stroke-miterlimit="10" stroke-width="1.1910366" d="M103.18 1.887h60.578m0 0h60.578"/><path fill="none" stroke="#000" stroke-miterlimit="10" stroke-width=".39734415" d="M224.336 1.887"/><g clip-path="url(#c)"><path fill="#FFF" d="M225.918 1.887a1.583 1.583 0 0 0-3.164 0 1.582 1.582 0 0 0 3.164 0m0 0"/></g><g clip-path="url(#d)"><path fill="none" stroke="#000" stroke-miterlimit="10" stroke-width=".39734415" d="M225.918 1.887a1.583 1.583 0 0 0-3.164 0 1.582 1.582 0 0 0 3.164 0Zm0 0"/></g><path fill="none" stroke="#000" stroke-miterlimit="10" stroke-width=".39734415" d="M72.89 62.465H59.864V32.043m0 0"/><path stroke="#000" stroke-miterlimit="10" stroke-width=".39734415" d="M61.445 32.043a1.582 1.582 0 0 0-3.164 0 1.583 1.583 0 0 0 3.164 0Zm0 0"/><path fill="none" stroke="#000" stroke-miterlimit="10" stroke-width=".39734415" d="M72.89 62.465V74.32"/><g clip-path="url(#e)"><path fill="none" stroke="#000" stroke-miterlimit="10" stroke-width=".7936924500000001" d="M66.965 74.32H78.82m-9.879 1.977h7.903m-6.422 1.973h4.941"/></g><use xlink:href="#f" x="21.058" y="16.908"/><use xlink:href="#g" x="25.523" y="16.908"/><use xlink:href="#h" x="29.987" y="16.908"/><use xlink:href="#i" x="34.827" y="16.908"/><use xlink:href="#f" x="39.292" y="16.908"/><use xlink:href="#j" x="45.238" y="16.908"/></svg>