<svg xmlns="http://www.w3.org/2000/svg" xmlns:xlink="http://www.w3.org/1999/xlink" width="112.294" height="110.755"><defs><path id="a" d="M5.219-3H.656v-.625H5.22Zm0 0"/><path id="b" d="M5.36-4.328q-.035.97-.47 1.578-.407.563-.968.563c-.336 0-.781-.211-1.344-.641q-.831-.656-1.094-.656-.409.002-.625.437c-.086.156-.156.402-.218.735H.109q0-.826.391-1.47.421-.67 1.078-.671.5.001 1.297.64c.531.43.898.641 1.11.641q.716.002.859-1.156Zm0 0"/><path id="c" d="M3.016-3.672h1.89v.563h-1.89v2.03h-.61v-2.03H.516v-.563h1.89v-2.015h.61Zm0 0"/></defs><path fill="none" stroke="#000" stroke-miterlimit="10" stroke-width=".39650625" d="m55.797 100.52 16.281-16.282m11.676-11.68 16.281-16.28L83.754 40M72.078 28.32 55.797 12.04 39.516 28.32M27.84 40 11.559 56.277l16.28 16.282m11.677 11.68 16.28 16.28"/><use xlink:href="#a" x="52.858" y="107.318"/><path fill="none" stroke="#000" stroke-miterlimit="10" stroke-width=".7920187500000001" d="m72.078 84.238 4.379-18.976 14.598 14.597Zm0 0"/><path fill="none" stroke="#000" stroke-miterlimit="10" stroke-width=".39650625" d="m72.078 84.238 11.676-11.68"/><path fill="none" stroke="#000" stroke-miterlimit="10" stroke-width=".7920187500000001" d="M79.375 91.535 64.777 76.938"/><path stroke="#000" stroke-miterlimit="10" stroke-width=".39650625" d="M101.613 56.277c0-.87-.707-1.574-1.578-1.574a1.575 1.575 0 1 0 0 3.152c.871 0 1.578-.707 1.578-1.578Zm0 0"/><use xlink:href="#b" x="103.202" y="58.508"/><path fill="none" stroke="#000" stroke-miterlimit="10" stroke-width=".7920187500000001" d="m83.754 40-18.977-4.379 14.598-14.598Zm0 0"/><path fill="none" stroke="#000" stroke-miterlimit="10" stroke-width=".39650625" d="M83.754 40 72.078 28.32"/><path fill="none" stroke="#000" stroke-miterlimit="10" stroke-width=".7920187500000001" d="M91.055 32.7 76.457 47.296"/><path stroke="#000" stroke-miterlimit="10" stroke-width=".39650625" d="M57.375 12.04c0-.872-.707-1.575-1.578-1.575a1.575 1.575 0 1 0 0 3.152c.871 0 1.578-.707 1.578-1.578Zm0 0"/><use xlink:href="#c" x="53.085" y="8.875"/><path fill="none" stroke="#000" stroke-miterlimit="10" stroke-width=".7920187500000001" d="m39.516 28.32-4.38 18.977L20.54 32.699Zm0 0"/><path fill="none" stroke="#000" stroke-miterlimit="10" stroke-width=".39650625" d="M39.516 28.32 27.84 40"/><path fill="none" stroke="#000" stroke-miterlimit="10" stroke-width=".7920187500000001" d="m32.219 21.023 14.597 14.598"/><path stroke="#000" stroke-miterlimit="10" stroke-width=".39650625" d="M13.137 56.277c0-.87-.707-1.574-1.578-1.574a1.575 1.575 0 1 0 0 3.152c.87 0 1.578-.707 1.578-1.578Zm0 0"/><use xlink:href="#b" x="2.969" y="58.508"/><path fill="none" stroke="#000" stroke-miterlimit="10" stroke-width=".7920187500000001" d="m27.84 72.559 18.976 4.379L32.22 91.535Zm0 0"/><path fill="none" stroke="#000" stroke-miterlimit="10" stroke-width=".39650625" d="m27.84 72.559 11.676 11.68"/><path fill="none" stroke="#000" stroke-miterlimit="10" stroke-width=".7920187500000001" d="m20.54 79.86 14.597-14.598"/><path stroke="#000" stroke-miterlimit="10" stroke-width=".39650625" d="M57.375 100.52a1.579 1.579 0 0 0-3.156 0c0 .87.707 1.574 1.578 1.574s1.578-.703 1.578-1.574Zm0 0"/></svg>