<svg xmlns="http://www.w3.org/2000/svg" width="113.388" height="85.041"><defs><clipPath id="a"><path d="M.328 5h112.125v74H.328Zm0 0"/></clipPath><clipPath id="b"><path d="M.328 0h112.125v48H.328Zm0 0"/></clipPath><clipPath id="c"><path d="M.328 36h112.125v48.094H.328Zm0 0"/></clipPath></defs><g clip-path="url(#a)"><path fill="#7F7F7F" fill-opacity=".5" d="m.328 15.29.567-9.556h21.972l.563 19.11h22.539l.562-19.11h21.973l.562 19.11h22.54l.562-19.11h20.285V78.36H92.168l-.563-19.113H69.066l-.562 19.113H46.53l-.562-19.113h-22.54l-.562 19.113H.895l-.567-9.554Zm0 0"/></g><g clip-path="url(#b)"><path fill="none" stroke="#000" stroke-miterlimit="10" stroke-width="1.5762269" d="m.328 15.29.567-9.556h21.972l.563 19.11h22.539l.562-19.11h21.973l.562 19.11h22.54l.562-19.11h20.285"/></g><g clip-path="url(#c)"><path fill="none" stroke="#000" stroke-miterlimit="10" stroke-width="1.5762269" d="m.328 68.805.567 9.554h21.972l.563-19.113h22.539l.562 19.113h21.973l.562-19.113h22.54l.562 19.113h20.285"/></g></svg>