<svg xmlns="http://www.w3.org/2000/svg" xmlns:xlink="http://www.w3.org/1999/xlink" width="226.576" height="324.396"><defs><path id="b" d="m-.453-.422-1.734-1.515q-1.015-.875-2-.875-1.25 0-1.25.89 0 .362.171.719.365.112.891.125.017.11.016.203.002.422-.36.422-.545 0-.875-.422-.328-.42-.328-1.156.001-.715.406-1.172.41-.451 1.172-.453.675 0 1.36.422.44.27 1.125.89l1.062.985h.016v-2.032l-.781-.187a.44.44 0 0 1-.032-.188q.002-.217.344-.218c.242 0 .656.03 1.25.093V-.5Zm0 0"/><path id="c" d="M-6.172-5.844c.024-.008.047-.015.078-.015q.253 0 .313.312l.062.234L0-3.28v.734L-5.719-.453l-.093.375q-.029.124-.11.125c-.05 0-.133-.035-.25-.094v-2h.078c.157 0 .262.102.313.297l.078.375 4.797-1.64v-.016L-5.72-4.734l-.11.687q-.029.127-.093.125-.075 0-.25-.094Zm0 0"/><path id="d" d="M-6.719-2.922v-.625L1.25-.828v.61Zm0 0"/><path id="e" d="M-6.172-2.375q0-3.562 3-3.562 1.583 0 2.39.937C-.257-4.383 0-3.508 0-2.375v1.953a.16.16 0 0 1-.078.016q-.246.002-.328-.313L-.5-1.094h-5.203l-.125.547c-.02.086-.05.125-.094.125q-.075 0-.25-.094Zm5.672.031q0-1.325-.672-2.047c-.445-.476-1.11-.718-1.984-.718q-1.248.002-1.875.718-.64.721-.64 2.047v.469H-.5Zm0 0"/><path id="f" d="M-.469-.906h-3.343l-.079.64a.2.2 0 0 1-.078.016q-.246 0-.281-.328l-.094-1.063h3.875l.125-.53q.017-.125.11-.126.129 0 .234.078v1.906a.1.1 0 0 1-.062.016c-.133 0-.235-.094-.297-.281Zm-5.375.14a.5.5 0 0 1-.375-.14.52.52 0 0 1-.14-.36.507.507 0 0 1 .515-.53q.236.002.375.155a.53.53 0 0 1 .125.375c0 .149-.039.266-.125.36a.5.5 0 0 1-.375.14m0 0"/><path id="g" d="M-4.297-4.469c0-.07.031-.11.094-.11.043 0 .105.024.187.063l.172.422L0-2.562v.578l-3.875 1.53-.14.407a.2.2 0 0 1-.063.016q-.218.001-.219-.25V-1.75c0-.07.031-.11.094-.11.043 0 .105.024.187.063l.141.5 3.063-1.078v-.016l-3.063-1.171-.14.656a.2.2 0 0 1-.063.015q-.218.001-.219-.25Zm0 0"/><path id="h" d="M-.375-.406a.5.5 0 0 1-.36-.14.47.47 0 0 1-.14-.345c0-.132.047-.25.14-.343a.47.47 0 0 1 .36-.157c.148 0 .266.055.36.157a.5.5 0 0 1 .124.343q-.001.204-.125.344a.48.48 0 0 1-.359.14m0 0"/><path id="i" d="M2.234-.39q1.11.001 1.11-2.516 0-2.515-1.11-2.516-1.094.001-1.093 2.516c0 1.68.363 2.515 1.093 2.515m-.03.5q-.88 0-1.376-.75Q.296-1.42.297-2.907.296-4.39.875-5.187q.516-.734 1.406-.735.873.001 1.375.734.516.798.516 2.282 0 1.47-.563 2.265-.515.75-1.406.75m0 0"/><path id="j" d="M5.844-6.172c.008.024.015.047.015.078q0 .253-.312.313l-.234.062L3.28 0h-.734L.453-5.719l-.375-.093q-.124-.029-.125-.11c0-.05.035-.133.094-.25h2v.078c0 .157-.102.262-.297.313l-.375.078 1.64 4.797h.016L4.734-5.72l-.687-.11q-.127-.029-.125-.093 0-.075.094-.25Zm0 0"/><path id="k" d="m.125-1.984 2.547-3.813.656-.047v3.64h.75l-.047.688h-.703V-.5l.625.14q.124.018.125.094-.002.048-.11.266H1.923a.16.16 0 0 1-.016-.078q-.002-.246.313-.328L2.594-.5v-1.016H.156Zm.734-.22h1.735v-2.702h-.016L.86-2.22Zm0 0"/><path id="l" d="M.484-4.672q0-.562.063-1.14h3.578a.3.3 0 0 1 .047.171c0 .125-.04.262-.11.407L1.704 0h-.64l2.406-5.062h-2.39l-.141.75a.5.5 0 0 1-.188.03q-.268.002-.266-.39m0 0"/><path id="m" d="M6.14-3.484q0 .926-.546 1.734A3.3 3.3 0 0 1 4.422-.703v.172h1.203l.125-.719a.5.5 0 0 1 .219-.047q.264.001.265.406 0 .365-.046.891H3.859v-.89q1.484-.75 1.485-2.626-.001-1.03-.547-1.64a1.79 1.79 0 0 0-1.39-.61q-.864.002-1.391.594c-.368.418-.547.969-.547 1.656q-.001.88.343 1.547c.258.48.641.84 1.141 1.078V0H.625a10 10 0 0 1-.047-.89c0-.27.086-.407.266-.407q.106 0 .219.047l.125.719H2.39v-.156c-.43-.188-.809-.524-1.141-1.016Q.655-2.547.656-3.484q-.001-1.218.766-2 .779-.797 1.984-.797c.801 0 1.457.258 1.969.765.508.512.766 1.188.766 2.032m0 0"/><path id="o" d="M1.125-5.812h2.563l-.047.765H1.53l-.11 1.422q1.297.048 1.876.547c.363.305.547.765.547 1.39a1.7 1.7 0 0 1-.547 1.266q-.534.533-1.39.531Q1.185.108.827-.156a.61.61 0 0 1-.281-.516q0-.405.39-.547.17.376.297.5.295.328.829.328.527 0 .843-.328.296-.311.297-.828 0-.731-.562-1.047c-.375-.219-.977-.328-1.797-.328Zm0 0"/><path id="p" d="M.89-.937a.53.53 0 0 1 .423.218q.17.204.171.578-.002.592-.39.985c-.211.226-.414.344-.61.344-.093 0-.164-.086-.203-.25q.574-.3.61-.891a.5.5 0 0 1-.344-.125.48.48 0 0 1-.14-.36q0-.217.14-.359a.47.47 0 0 1 .344-.14m0 0"/><path id="q" d="M3.703-4.781a1.1 1.1 0 0 0-.328-.407 1.2 1.2 0 0 0-.734-.25c-.918 0-1.414.79-1.485 2.36a1.95 1.95 0 0 1 1.219-.406q.78 0 1.219.375.515.421.515 1.265-.001.798-.5 1.344-.532.61-1.359.61C1.625.11 1.148-.157.828-.688Q.36-1.42.36-2.72.357-3.966.953-4.875c.445-.695 1.063-1.047 1.844-1.047q.621.002.984.203.312.205.313.469c0 .25-.133.406-.39.469M1.156-2.625q.029 1.127.344 1.703.31.533.813.531.451.001.734-.343c.195-.239.297-.582.297-1.032q-.001-1.202-1.016-1.203-.75.002-1.172.344m0 0"/><path id="u" d="M4-.922q-.002.516.313.516.2.001.312-.125a.5.5 0 0 1 .078.25c0 .062-.055.133-.156.203a.9.9 0 0 1-.531.156q-.597 0-.672-.61h-.016Q2.871.112 2.063.11a1.22 1.22 0 0 1-.75-.25c0 .739.148 1.352.453 1.844q-.018.06-.172.125a.7.7 0 0 1-.282.063Q.95 1.889.845 1.297C.789 1.023.766.539.766-.156V-4.25l.703-.094v2.797q0 1.078.812 1.078.575 0 1.016-.468V-4.25L4-4.344Zm0 0"/><path id="v" d="M4.516-6.172c.039.5.062.852.062 1.047 0 .262-.086.39-.25.39a.6.6 0 0 1-.203-.03l-.219-.938H1.875v2.453h2v.5h-2V-.5l.719.14q.124.018.125.094c0 .032-.04.121-.11.266H.422a.16.16 0 0 1-.016-.078Q.404-.324.72-.406L1.094-.5v-5.203l-.547-.125c-.086-.02-.125-.05-.125-.094q0-.075.094-.25Zm0 0"/><path id="x" d="M2.031-.578v-4.438L.687-4.75a1 1 0 0 1-.015-.187c0-.133.07-.235.219-.297l1.468-.578h.454v5.234l1.093.172q.124.016.125.11 0 .08-.093.296H.874a.16.16 0 0 1-.016-.078q0-.311.282-.36Zm0 0"/><path id="y" d="M.828-.469v-5.484l-.656-.094a.1.1 0 0 1-.016-.062q0-.246.344-.282L1.547-6.5v4h.547L3.28-3.875l-.625-.14v-.063q-.001-.218.25-.219h1.438c.07 0 .11.031.11.094a.5.5 0 0 1-.063.187l-.516.172-1.266 1.438L4.125-.453l.453.11q.124.015.125.109A.35.35 0 0 1 4.61 0H3.453l-1.5-2.047h-.406v1.594L2-.343q.124.015.125.109A.4.4 0 0 1 2.047 0H.219v-.062c0-.133.094-.235.281-.297Zm0 0"/><path id="A" d="M2.563-6.172q2.295 0 2.296 1.547-.002 1.208-1.328 1.453v.016Q4.998-2.967 5-1.734 4.998-.95 4.406-.5c-.43.336-1.023.5-1.781.5H.422a.16.16 0 0 1-.016-.078Q.404-.324.72-.406L1.094-.5v-5.203l-.547-.125c-.086-.02-.125-.05-.125-.094q0-.075.094-.25ZM2.53-.5q.81.001 1.25-.344.388-.328.39-.89a.98.98 0 0 0-.421-.828q-.408-.33-1.156-.329h-.719V-.5ZM2.47-3.36q.796.001 1.219-.343c.238-.195.359-.469.359-.813 0-.77-.524-1.156-1.563-1.156h-.609v2.313Zm0 0"/><path id="B" d="m4.5-.484-.594-1.641H1.688l-.594 1.64.672.126q.124.017.125.093 0 .066-.094.266H-.078a.2.2 0 0 1-.016-.078Q-.096-.342.22-.406l.25-.063L2.64-6.172l.562-.078L5.36-.469l.391.11q.124.034.125.093 0 .048-.094.266H3.86a.16.16 0 0 1-.015-.078c0-.164.101-.274.312-.328Zm-2.64-2.11h1.89l-.937-2.625h-.016Zm0 0"/><path id="s" d="M.031 1.781c.063.078.063.235 0 .297h-1.437v1.438c-.063.078-.219.078-.297 0V2.078h-1.438c-.062-.062-.062-.219 0-.297h1.438V.36c.078-.078.234-.078.297 0v1.422Zm0 0"/><clipPath id="a"><path d="M0 5h226.152v76H0Zm0 0"/></clipPath><clipPath id="n"><path d="M52 310h15v13.793H52Zm0 0"/></clipPath><clipPath id="r"><path d="M23 310h15v13.793H23Zm0 0"/></clipPath><clipPath id="t"><path d="M109 310h16v13.793h-16Zm0 0"/></clipPath><clipPath id="w"><path d="M167 310h16v13.793h-16Zm0 0"/></clipPath><clipPath id="z"><path d="M196 310h15v13.793h-15Zm0 0"/></clipPath></defs><path fill="none" stroke="#000" stroke-miterlimit="10" stroke-width=".39825387" d="M23.297 173.395h202.062M23.297 144.527h202.062M23.297 115.664h202.062M23.297 86.797h202.062M23.297 57.93h202.062M23.297 29.066h202.062M23.297.211h202.062M23.297 173.395V.199m28.867 173.196V.199m28.867 173.196V.199m28.864 173.196V.199m28.867 173.196V.199m28.867 173.196V.199m28.863 173.196V.199m28.86 173.196V.199"/><g clip-path="url(#a)"><path fill="none" stroke="#000" stroke-miterlimit="10" stroke-width="1.59101922" d="M23.297 57.93 39.09 31.984c2.437-4.004 7.262-4.73 10.773-1.625l31.168 27.57 15.793-25.945c2.438-4.004 7.258-4.73 10.77-1.625l31.168 27.57 15.793-25.945c2.437-4.004 7.257-4.73 10.77-1.625l31.167 27.57 15.793-25.945c2.438-4.004 7.219-4.687 10.684-1.523l2.39 2.184"/></g><use xlink:href="#b" x="11.595" y="44.284"/><use xlink:href="#c" x="11.595" y="38.323"/><use xlink:href="#d" x="11.595" y="32.524"/><use xlink:href="#e" x="11.595" y="28.756"/><use xlink:href="#f" x="11.595" y="22.348"/><use xlink:href="#g" x="11.595" y="19.896"/><use xlink:href="#h" x="11.595" y="15.627"/><use xlink:href="#i" x="2.982" y="176.427"/><use xlink:href="#j" x="8.943" y="176.427"/><path fill="none" stroke="#000" stroke-miterlimit="10" stroke-width=".79550961" d="M117.113 194.11c-8.277 0-14.988 6.71-14.988 14.988s6.71 14.984 14.988 14.984 14.985-6.707 14.985-14.984-6.707-14.989-14.985-14.989Zm0 0"/><path fill="none" stroke="#000" stroke-miterlimit="10" stroke-width=".39825387" d="M94.687 202.262h13.536l5.554 12.12"/><path fill="none" stroke="#000" stroke-miterlimit="10" stroke-width=".79550961" d="M108.223 214.383h17.78"/><path fill="none" stroke="#000" stroke-miterlimit="10" stroke-width=".39825387" d="m120.445 214.383 5.559-12.121h13.535"/><path d="m122.422 210.078-2.078-.95 4.203-3.687-.05 5.59Zm0 0"/><path fill="none" stroke="#000" stroke-miterlimit="10" stroke-width=".39825387" d="M117.113 214.383v12.324M30.516 202.262h28.863v12.699m0 32.332v33.484m0 16.164v20.782"/><path fill="#FFF" stroke="#000" stroke-miterlimit="10" stroke-width=".39825387" d="M32.098 202.262a1.584 1.584 0 1 0-3.168-.005 1.584 1.584 0 0 0 3.168.005Zm0 0"/><path fill="none" stroke="#000" stroke-miterlimit="10" stroke-width=".79550961" d="M53.32 247.293V214.96h12.121v32.332Zm0 0"/><path stroke="#000" stroke-miterlimit="10" stroke-width=".39825387" d="M60.965 202.262a1.584 1.584 0 1 0-3.168-.004 1.584 1.584 0 0 0 3.168.004ZM60.965 259.992a1.584 1.584 0 1 0-3.168.004 1.584 1.584 0 0 0 3.168-.004Zm0 0"/><use xlink:href="#k" x="67.659" y="233.272"/><use xlink:href="#l" x="72.134" y="233.272"/><use xlink:href="#i" x="76.609" y="233.272"/><use xlink:href="#m" x="82.569" y="233.272"/><path fill="none" stroke="#000" stroke-miterlimit="10" stroke-width=".79550961" d="m59.379 280.777 10.105 16.164H49.277Zm0 0"/><path fill="none" stroke="#000" stroke-miterlimit="10" stroke-width=".39825387" d="M59.379 280.777v16.164"/><path fill="none" stroke="#000" stroke-miterlimit="10" stroke-width=".79550961" d="M49.277 280.777h20.207v3.23"/><path d="M60.965 317.723a1.584 1.584 0 1 0-3.168.003 1.584 1.584 0 0 0 3.168-.003m0 0"/><g clip-path="url(#n)"><path fill="none" stroke="#000" stroke-miterlimit="10" stroke-width=".39825387" d="M60.965 317.723a1.584 1.584 0 1 0-3.168.003 1.584 1.584 0 0 0 3.168-.003Zm0 0"/></g><use xlink:href="#o" x="72.105" y="291.004"/><use xlink:href="#p" x="76.58" y="291.004"/><use xlink:href="#q" x="78.432" y="291.004"/><use xlink:href="#j" x="84.393" y="291.004"/><path fill="none" stroke="#000" stroke-miterlimit="10" stroke-width=".39825387" d="M30.516 317.723h28.863"/><path fill="#FFF" d="M32.098 317.723a1.584 1.584 0 1 0-3.168.003 1.584 1.584 0 0 0 3.168-.003m0 0"/><g clip-path="url(#r)"><path fill="none" stroke="#000" stroke-miterlimit="10" stroke-width=".39825387" d="M32.098 317.723a1.584 1.584 0 1 0-3.168.003 1.584 1.584 0 0 0 3.168-.003Zm0 0"/></g><path fill="none" stroke="#000" stroke-miterlimit="10" stroke-width=".39825387" d="M59.379 202.262h35.508M59.379 317.723h57.734v-24.825m0-8.082v-58.308"/><path fill="none" stroke="#000" stroke-linecap="square" stroke-miterlimit="10" stroke-width=".79550961" d="M107.008 284.816v2.426h20.207v-2.426h-20.207"/><path stroke="#000" stroke-linecap="square" stroke-miterlimit="10" stroke-width=".79550961" d="M107.008 292.898v-2.421h20.207v2.421h-20.207"/><use xlink:href="#s" x="112.601" y="280.14"/><path d="M118.695 317.723a1.584 1.584 0 1 0-3.168.003 1.584 1.584 0 0 0 3.168-.003m0 0"/><g clip-path="url(#t)"><path fill="none" stroke="#000" stroke-miterlimit="10" stroke-width=".39825387" d="M118.695 317.723a1.584 1.584 0 1 0-3.168.003 1.584 1.584 0 0 0 3.168-.003Zm0 0"/></g><path stroke="#000" stroke-miterlimit="10" stroke-width=".39825387" d="M118.695 259.992a1.584 1.584 0 1 0-3.168.003 1.584 1.584 0 0 0 3.168-.003Zm0 0"/><use xlink:href="#k" x="129.836" y="291.004"/><use xlink:href="#l" x="134.311" y="291.004"/><use xlink:href="#u" x="140.271" y="291.004"/><use xlink:href="#v" x="145.203" y="291.004"/><path fill="none" stroke="#000" stroke-miterlimit="10" stroke-width=".39825387" d="M59.379 259.992h57.734M117.113 317.723h57.73v-41.567m0-32.328v-41.566H139.34"/><path fill="none" stroke="#000" stroke-miterlimit="10" stroke-width=".79550961" d="M180.906 243.828v32.328h-12.125v-32.328Zm0 0"/><path d="M176.43 317.723a1.584 1.584 0 1 0-3.168.003 1.584 1.584 0 0 0 3.168-.003m0 0"/><g clip-path="url(#w)"><path fill="none" stroke="#000" stroke-miterlimit="10" stroke-width=".39825387" d="M176.43 317.723a1.584 1.584 0 1 0-3.168.003 1.584 1.584 0 0 0 3.168-.003Zm0 0"/></g><path stroke="#000" stroke-miterlimit="10" stroke-width=".39825387" d="M176.43 202.262a1.584 1.584 0 1 0-3.168-.004 1.584 1.584 0 0 0 3.168.004Zm0 0"/><use xlink:href="#x" x="183.121" y="262.138"/><use xlink:href="#y" x="189.082" y="262.138"/><use xlink:href="#m" x="193.825" y="262.138"/><path fill="none" stroke="#000" stroke-miterlimit="10" stroke-width=".39825387" d="M174.844 317.723h28.867"/><path fill="#FFF" d="M205.293 317.723a1.584 1.584 0 1 0-3.168.003 1.584 1.584 0 0 0 3.168-.003m0 0"/><g clip-path="url(#z)"><path fill="none" stroke="#000" stroke-miterlimit="10" stroke-width=".39825387" d="M205.293 317.723a1.584 1.584 0 1 0-3.168.003 1.584 1.584 0 0 0 3.168-.003Zm0 0"/></g><path fill="none" stroke="#000" stroke-miterlimit="10" stroke-width=".39825387" d="M174.844 202.262h28.867"/><path fill="#FFF" stroke="#000" stroke-miterlimit="10" stroke-width=".39825387" d="M205.293 202.262a1.584 1.584 0 1 0-3.168-.005 1.584 1.584 0 0 0 3.168.005Zm0 0"/><use xlink:href="#A" x="208.172" y="320.809"/><use xlink:href="#B" x="208.007" y="205.382"/></svg>