<svg xmlns="http://www.w3.org/2000/svg" xmlns:xlink="http://www.w3.org/1999/xlink" width="226.938" height="89.79"><defs><path id="a" d="M2.031-.578v-4.438L.687-4.75a1 1 0 0 1-.015-.187c0-.133.07-.235.219-.297l1.468-.578h.454v5.234l1.093.172q.124.016.125.11 0 .08-.093.296H.874a.16.16 0 0 1-.016-.078q0-.311.282-.36Zm0 0"/><path id="b" d="m.422-.453 1.516-1.734q.874-1.015.875-2 0-1.25-.891-1.25-.362 0-.719.171-.112.365-.125.891-.11.017-.203.016-.422.002-.422-.36 0-.545.422-.875.42-.328 1.156-.328.715.001 1.172.406.451.41.453 1.172 0 .675-.422 1.36-.27.44-.89 1.125L1.359-.797v.016h2.032l.187-.781a.44.44 0 0 1 .188-.032q.217.002.218.344c0 .242-.03.656-.093 1.25H.5Zm0 0"/><path id="c" d="M1.39-3.156c1.008-.125 1.516-.531 1.516-1.219Q2.905-5.436 2-5.437q-.41 0-.703.187a3 3 0 0 0-.11.828 1.4 1.4 0 0 1-.218.016c-.281 0-.422-.117-.422-.36q-.001-.513.437-.828.45-.328 1.188-.328.714 0 1.125.375.422.376.422 1.016 0 .628-.422 1.015-.299.284-.906.485V-3q.715.094 1.109.469.389.361.39.922 0 .737-.562 1.234Q2.78.11 1.891.109C1.41.11 1.05.012.813-.17A.61.61 0 0 1 .53-.688c0-.258.133-.442.407-.547q.14.363.28.515.295.328.829.328c.664 0 1-.351 1-1.062 0-.738-.555-1.149-1.656-1.234Zm0 0"/><path id="d" d="m.125-1.984 2.547-3.813.656-.047v3.64h.75l-.047.688h-.703V-.5l.625.14q.124.018.125.094-.002.048-.11.266H1.923a.16.16 0 0 1-.016-.078q-.002-.246.313-.328L2.594-.5v-1.016H.156Zm.734-.22h1.735v-2.702h-.016L.86-2.22Zm0 0"/><path id="e" d="M4.469-5.703H3.03V-.5l.625.14q.124.018.125.094 0 .048-.094.266H1.579a.16.16 0 0 1-.016-.078q-.002-.246.313-.328L2.25-.5v-5.203H.828l-.203.937a.7.7 0 0 1-.203.032c-.18 0-.266-.125-.266-.375 0-.157.02-.508.063-1.063h4.844c.039.555.062.906.062 1.063 0 .25-.086.375-.25.375a.6.6 0 0 1-.203-.032Zm0 0"/><path id="f" d="M6.281-6.172v.078q-.002.237-.297.297l-.421.094V0h-.547l-3.36-5.203h-.015V-.5l.609.14q.124.018.125.094 0 .048-.094.266H.421a.16.16 0 0 1-.015-.078Q.404-.324.72-.406L1.094-.5v-5.203l-.547-.125c-.086-.02-.125-.05-.125-.094q0-.075.094-.25h1.422L5-1.437h.016v-4.266l-.547-.125c-.086-.02-.125-.05-.125-.094q0-.075.093-.25Zm0 0"/><path id="g" d="M.984-6.297a.53.53 0 0 1 .422.219q.172.204.172.578c0 .398-.133.727-.39.984q-.317.345-.61.344-.143.001-.203-.25.574-.293.61-.89a.49.49 0 0 1-.344-.125.48.48 0 0 1-.141-.36q0-.218.14-.36a.47.47 0 0 1 .344-.14m0 0"/><path id="h" d="M.422 0a.16.16 0 0 1-.016-.078Q.404-.324.72-.406L1.094-.5v-5.203l-.547-.125c-.086-.02-.125-.05-.125-.094q0-.075.094-.25h2.078c.008.024.015.047.015.078q0 .237-.312.297l-.422.094v5.187h2.078l.235-1.046a.44.44 0 0 1 .203-.047q.234 0 .234.375 0 .455-.078 1.234Zm0 0"/><path id="m" d="M2.313-6.172q2.53 0 2.53 1.719 0 .906-.609 1.375-.644.515-1.875.515h-.484V-.5l.719.14q.124.018.125.094c0 .043-.04.133-.11.266H.422a.16.16 0 0 1-.016-.078Q.404-.324.72-.406L1.094-.5v-5.203l-.547-.125c-.086-.02-.125-.05-.125-.094q0-.075.094-.25Zm0 3.14q.856.002 1.296-.39.406-.357.407-.984-.002-1.266-1.703-1.266h-.438v2.64Zm0 0"/><path id="n" d="M1.094-.5v-5.203l-.547-.125c-.086-.02-.125-.05-.125-.094q0-.075.094-.25h4.03c.04.5.063.852.063 1.047 0 .262-.086.39-.25.39a.6.6 0 0 1-.203-.03l-.203-.938H1.875v2.312h2v.5h-2v2.375h2.14l.235-.968a.7.7 0 0 1 .203-.032q.234 0 .234.375 0 .363-.078 1.141H.422a.16.16 0 0 1-.016-.078Q.404-.324.72-.406Zm0 0"/><path id="i" d="M2.406.094c.828 0 1.688-.422 2.422-1.219-.031-.078-.078-.125-.172-.125-.75.688-1.39.969-2.187.969C1.39-.281.953-1.187.953-2.234c0-.25.016-.5.063-.75.359-1.828 1.718-2.578 2.406-2.578 1.187 0 1.547.734 1.625 1.5l.25-.032c.016-.468.031-.906.078-1.39-.484-.032-.734-.407-1.797-.407-1.422 0-3 1.313-3.344 3.079-.03.218-.062.437-.062.656C.172-.97.844.094 2.406.094m0 0"/><path id="j" d="M2.063-.875v-2.484c0-.422 0-.86.015-.953 0-.032-.015-.032-.031-.032-.406.235-.781.422-1.406.703a.33.33 0 0 0 .109.204c.328-.141.484-.188.61-.188.124 0 .156.172.156.422v2.328c0 .594-.203.625-.703.656-.047.047-.047.188 0 .235C1.172 0 1.422 0 1.813 0c.343 0 .515 0 .875.016.03-.047.03-.188 0-.235-.5-.031-.626-.062-.626-.656m0 0"/><path id="k" d="M.438-3.344c0 .14.14.281.28.281.126 0 .345-.14.345-.296 0-.047-.016-.094-.032-.141-.015-.062-.062-.125-.062-.172 0-.187.187-.437.719-.437.25 0 .609.172.609.859 0 .453-.156.828-.578 1.266l-.532.515C.485-.75.375-.406.375.016c0 0 .36-.016.594-.016h1.25c.234 0 .562.016.562.016a8 8 0 0 0 .172-1.125c-.047-.047-.14-.063-.219-.047-.109.515-.234.687-.5.687H.97c0-.343.484-.828.531-.86l.719-.702c.406-.39.719-.703.719-1.25 0-.766-.641-1.078-1.22-1.078-.78 0-1.28.578-1.28 1.015m0 0"/><path id="l" d="M1.531-4.11c.313 0 .594.188.594.641 0 .36-.406.906-1.11 1l.032.235c.125-.016.25-.016.344-.016.406 0 .937.125.937.922 0 .953-.64 1.156-.89 1.156-.36 0-.422-.172-.516-.297a.34.34 0 0 0-.313-.187c-.14 0-.296.14-.296.25 0 .281.609.484 1.03.484.86 0 1.61-.562 1.61-1.5 0-.781-.578-1.062-1-1.14h-.016c.594-.282.75-.579.75-.954a.77.77 0 0 0-.218-.578c-.156-.156-.406-.265-.781-.265-1.047 0-1.344.687-1.344.922 0 .093.062.234.234.234.25 0 .281-.235.281-.375 0-.453.5-.531.672-.531m0 0"/><clipPath id="o"><path d="M51 79h1v10.582h-1Zm0 0"/></clipPath><clipPath id="p"><path d="M45 88h14v1.582H45Zm0 0"/></clipPath></defs><path fill="none" stroke="#000" stroke-linejoin="bevel" stroke-miterlimit="10" stroke-width=".79514299" d="M97.434 19.512c3.261 0 5.91 1.808 5.91 4.039s-2.649 4.039-5.91 4.039c3.261 0 5.91 1.808 5.91 4.039s-2.649 4.039-5.91 4.039c3.261 0 5.91 1.809 5.91 4.039s-2.649 4.04-5.91 4.04c3.261 0 5.91 1.808 5.91 4.038s-2.649 4.04-5.91 4.04M121.387 51.824c-3.262 0-5.907-1.808-5.907-4.039s2.645-4.039 5.907-4.039c-3.262 0-5.907-1.808-5.907-4.039s2.645-4.039 5.907-4.039c-3.262 0-5.907-1.809-5.907-4.04s2.645-4.038 5.907-4.038c-3.262 0-5.907-1.809-5.907-4.04s2.645-4.038 5.907-4.038"/><path fill="none" stroke="#000" stroke-miterlimit="10" stroke-width=".39807033" d="M79.863 6.121H97.59v13.79m0 31.515v13.789H79.863M138.957 6.12H121.23v13.79m0 31.515v13.789h17.727"/><path fill="none" stroke="#000" stroke-miterlimit="10" stroke-width=".79514299" d="M110.887 50.441V20.895m-2.953 29.546V20.895"/><path stroke="#000" stroke-miterlimit="10" stroke-width=".39807033" d="M105.086 55.367a1.584 1.584 0 1 0-3.168-.004 1.584 1.584 0 0 0 3.168.004ZM116.902 55.367a1.584 1.584 0 1 0-3.167-.004 1.584 1.584 0 0 0 3.167.004Zm0 0"/><use xlink:href="#a" x="87.97" y="54.334"/><use xlink:href="#b" x="87.97" y="22.871"/><use xlink:href="#c" x="126.38" y="54.334"/><use xlink:href="#d" x="126.38" y="22.831"/><use xlink:href="#e" x="106.763" y="9.207"/><path fill="none" stroke="#000" stroke-miterlimit="10" stroke-width=".39807033" d="M79.863 65.215h-14.07m0 0H34.137m0 0h-17.59"/><path fill="#FFF" stroke="#000" stroke-miterlimit="10" stroke-width=".39807033" d="M18.129 65.215a1.58 1.58 0 0 0-1.582-1.582 1.58 1.58 0 0 0-1.582 1.582 1.58 1.58 0 0 0 1.582 1.582 1.58 1.58 0 0 0 1.582-1.582Zm0 0"/><use xlink:href="#f" x="6.758" y="68.301"/><path fill="none" stroke="#000" stroke-miterlimit="10" stroke-width=".39807033" d="M138.957 65.215h21.106m0 0h35.175m0 0h14.07"/><path fill="#FFF" stroke="#000" stroke-miterlimit="10" stroke-width=".39807033" d="M210.89 65.215a1.58 1.58 0 0 0-1.581-1.582 1.58 1.58 0 0 0-1.582 1.582 1.58 1.58 0 0 0 1.582 1.582 1.58 1.58 0 0 0 1.582-1.582Zm0 0"/><use xlink:href="#f" x="212.488" y="68.355"/><use xlink:href="#g" x="219.099" y="68.355"/><path fill="none" stroke="#000" stroke-miterlimit="10" stroke-width=".39807033" d="M79.863 6.121h-14.07m0 0H34.137m0 0h-17.59"/><path fill="#FFF" stroke="#000" stroke-miterlimit="10" stroke-width=".39807033" d="M18.129 6.121c0-.875-.707-1.586-1.582-1.586a1.584 1.584 0 0 0 0 3.168 1.58 1.58 0 0 0 1.582-1.582Zm0 0"/><use xlink:href="#h" x="4.11" y="9.207"/><use xlink:href="#a" x="8.896" y="9.207"/><path fill="none" stroke="#000" stroke-miterlimit="10" stroke-width=".39807033" d="M138.957 6.121h21.106m0 0h35.175m0 0h14.07"/><path fill="#FFF" stroke="#000" stroke-miterlimit="10" stroke-width=".39807033" d="M210.89 6.121c0-.875-.706-1.586-1.581-1.586a1.584 1.584 0 0 0 0 3.168 1.58 1.58 0 0 0 1.582-1.582Zm0 0"/><use xlink:href="#h" x="212.488" y="9.26"/><use xlink:href="#a" x="217.274" y="9.26"/><use xlink:href="#g" x="221.747" y="9.26"/><path fill="none" stroke="#000" stroke-miterlimit="10" stroke-width=".39807033" d="M51.723 6.121v25.606m0 7.878v25.61"/><path fill="none" stroke="#000" stroke-miterlimit="10" stroke-width=".79514299" d="M63.543 31.727h-23.64m23.64 7.878h-23.64"/><path stroke="#000" stroke-miterlimit="10" stroke-width=".39807033" d="M53.305 6.121c0-.875-.707-1.586-1.582-1.586a1.584 1.584 0 0 0 0 3.168 1.58 1.58 0 0 0 1.582-1.582ZM53.305 65.215a1.58 1.58 0 0 0-1.582-1.582 1.58 1.58 0 0 0-1.582 1.582 1.58 1.58 0 0 0 1.582 1.582 1.58 1.58 0 0 0 1.582-1.582Zm0 0"/><use xlink:href="#i" x="66.335" y="37.815"/><use xlink:href="#j" x="71.228" y="39.693"/><path fill="none" stroke="#000" stroke-miterlimit="10" stroke-width=".39807033" d="M181.168 6.121v10.832m0 7.879V46.5m0 7.879v10.836"/><path fill="none" stroke="#000" stroke-miterlimit="10" stroke-width=".79514299" d="M192.988 16.953h-23.64m23.64 7.879h-23.64"/><path stroke="#000" stroke-miterlimit="10" stroke-width=".39807033" d="M182.75 6.121c0-.875-.707-1.586-1.582-1.586a1.584 1.584 0 0 0 0 3.168 1.58 1.58 0 0 0 1.582-1.582Zm0 0"/><use xlink:href="#i" x="195.778" y="23.041"/><use xlink:href="#k" x="200.672" y="24.92"/><path fill="none" stroke="#000" stroke-miterlimit="10" stroke-width=".79514299" d="M192.988 46.5h-23.64m23.64 7.879h-23.64"/><path stroke="#000" stroke-miterlimit="10" stroke-width=".39807033" d="M182.75 65.215a1.58 1.58 0 0 0-1.582-1.582 1.58 1.58 0 0 0-1.582 1.582 1.58 1.58 0 0 0 1.582 1.582 1.58 1.58 0 0 0 1.582-1.582Zm0 0"/><use xlink:href="#i" x="195.778" y="52.588"/><use xlink:href="#l" x="200.672" y="54.467"/><path fill="none" stroke="#000" stroke-miterlimit="10" stroke-width=".39807033" d="M16.547 79.285h17.59m0 0h96.379m0 0h78.793"/><use xlink:href="#m" x="3.215" y="82.371"/><use xlink:href="#n" x="8.305" y="82.371"/><path fill="#FFF" stroke="#000" stroke-miterlimit="10" stroke-width=".39807033" d="M18.129 79.285a1.58 1.58 0 0 0-1.582-1.582 1.58 1.58 0 0 0-1.582 1.582 1.58 1.58 0 0 0 1.582 1.582 1.58 1.58 0 0 0 1.582-1.582Zm0 0"/><path stroke="#000" stroke-miterlimit="10" stroke-width=".39807033" d="M53.305 79.285a1.58 1.58 0 0 0-1.582-1.582 1.58 1.58 0 0 0-1.582 1.582 1.58 1.58 0 0 0 1.582 1.582 1.58 1.58 0 0 0 1.582-1.582Zm0 0"/><g clip-path="url(#o)"><path fill="none" stroke="#000" stroke-miterlimit="10" stroke-width=".39807033" d="M51.723 79.285v9.899"/></g><g clip-path="url(#p)"><path fill="none" stroke="#000" stroke-linecap="round" stroke-miterlimit="10" stroke-width=".79514299" d="M45.785 89.184H57.66"/></g><path fill="#FFF" stroke="#000" stroke-miterlimit="10" stroke-width=".39807033" d="M210.89 79.285a1.58 1.58 0 0 0-1.581-1.582 1.58 1.58 0 0 0-1.582 1.582 1.58 1.58 0 0 0 1.582 1.582 1.58 1.58 0 0 0 1.582-1.582Zm0 0"/><use xlink:href="#m" x="212.488" y="82.371"/><use xlink:href="#n" x="217.569" y="82.371"/><path fill="none" stroke="#000" stroke-miterlimit="10" stroke-width=".39807033" d="M51.723 65.215v7.035m0 0v7.035"/></svg>