<svg xmlns="http://www.w3.org/2000/svg" xmlns:xlink="http://www.w3.org/1999/xlink" width="228.323" height="125.65"><defs><clipPath id="a"><path d="M224 66h3.648v5H224Zm0 0"/></clipPath><clipPath id="b"><path d="M218 61h9.648v15H218Zm0 0"/></clipPath><clipPath id="c"><path d="M10 15h2v110.29h-2Zm0 0"/></clipPath><clipPath id="d"><path d="M10.914 19h216.54v99H10.913Zm0 0"/></clipPath><clipPath id="f"><path d="M10.914 19h216.54v99H10.913Zm0 0"/></clipPath><path id="e" d="M2.656-2.781q0-.591-.172-.86-.175-.28-.609-.28a1.5 1.5 0 0 0-.531.093q-.11.22-.203.781a2 2 0 0 1-.188.016q-.438 0-.437-.39 0-.405.468-.688a1.97 1.97 0 0 1 1.032-.282q1.373 0 1.375 1.5v1.97c0 .335.101.5.312.5q.2 0 .313-.11a.38.38 0 0 1 .093.25c0 .062-.058.133-.171.203a.87.87 0 0 1-.532.156q-.628 0-.687-.61h-.016Q2.28.112 1.47.11.966.11.656-.203.343-.514.344-1.031c0-.438.219-.774.656-1.016.383-.195.86-.297 1.422-.297h.234Zm-.89 2.328q.498 0 .89-.469v-1.031l-.234.016q-1.299.11-1.297.812c0 .45.21.672.64.672m0 0"/><path id="g" d="M.656-5.937 0-6.031a.2.2 0 0 1-.016-.078q0-.247.344-.266l1.047-.11v2.704h.031q.498-.61 1.313-.61.715 0 1.156.47.499.548.5 1.655 0 1.19-.703 1.813-.628.562-1.594.562-.893 0-1.422-.312Zm1.735 2.14c-.43 0-.766.14-1.016.422v2.719q.375.251.89.25 1.36.001 1.36-1.75c0-.57-.125-1-.375-1.281q-.33-.36-.86-.36m0 0"/><path id="h" d="M2.234-.39q1.092.001 1.094-2.516-.002-2.515-1.094-2.516-1.094.001-1.093 2.516c0 1.68.363 2.515 1.093 2.515m-.03.5q-.88 0-1.376-.75Q.296-1.42.297-2.907c0-.977.187-1.735.562-2.266.352-.5.829-.75 1.422-.75q.873 0 1.36.75.528.784.53 2.266 0 1.47-.562 2.265-.533.75-1.406.75m0 0"/><path id="i" d="m.938-3.828-.47.015c-.171.016-.234.079-.25.157a1 1 0 0 0-.046.156c0 .016.031.016.062.016H.86L.313-1.047C.25-.766.188-.484.188-.328c0 .328.156.422.437.422.406 0 1-.375 1.297-.922C1.89-.953 1.828-1 1.719-1c-.407.469-.563.547-.703.547C.984-.453.89-.47.89-.578c0-.078.03-.25.093-.563l.532-2.343h.875c.109-.047.187-.282.093-.344h-.89l.093-.406c.032-.172.125-.438.125-.532 0-.156-.078-.25-.359-.25-.328 0-.312.407-.406.735Zm0 0"/><path id="j" d="M1.828.094c1.75 0 2.375-1.14 2.672-2.735l.484-2.453c.047-.25.188-.39.563-.406l.219-.016c.046 0 .078-.03.078-.078l.031-.172-.016-.015c-.406 0-.75.015-.937.015-.203 0-.547-.015-.938-.015l-.03.015-.032.172c0 .047.031.078.062.078l.22.016c.296.016.405.094.405.281 0 .032 0 .078-.015.125l-.516 2.625c-.187 1-.547 2.188-2 2.188-.422 0-.734-.188-.937-.438C.953-.969.906-1.25.906-1.53s.047-.594.11-.875L1.53-5.11c.063-.25.203-.375.563-.391l.219-.016c.046 0 .078-.03.078-.078l.046-.172-.03-.015c-.391 0-.75.015-1.094.015S.64-5.78.234-5.78l-.03.015-.032.172c0 .047.031.078.062.078l.22.016c.28.016.405.078.405.266 0 .046 0 .078-.015.125l-.578 3a3 3 0 0 0-.063.625c0 1.28.953 1.578 1.625 1.578m0 0"/></defs><path fill="none" stroke="#000" stroke-miterlimit="10" stroke-width=".7946408800000001" d="M34.973 70.687v-4.242m24.062 4.242v-4.242m24.059 4.242v-4.242m24.058 4.242v-4.242m24.059 4.242v-4.242m24.062 4.242v-4.242m24.06 4.242v-4.242m24.058 4.242v-4.242"/><path fill="none" stroke="#000" stroke-miterlimit="10" stroke-width=".39781896000000005" d="M10.914 68.566h213.074"/><g clip-path="url(#a)"><path d="m227.055 68.566-2.965-1.757v3.515Zm0 0"/></g><g clip-path="url(#b)"><path fill="none" stroke="#000" stroke-miterlimit="10" stroke-width=".39781896000000005" d="m227.055 68.566-2.965-1.757v3.515Zm0 0"/></g><g clip-path="url(#c)"><path fill="none" stroke="#000" stroke-miterlimit="10" stroke-width=".39781896000000005" d="M10.914 125.09V15.504"/></g><path stroke="#000" stroke-miterlimit="10" stroke-width=".39781896000000005" d="m10.914 12.437-1.758 2.965h3.516Zm0 0"/><g clip-path="url(#d)"><path fill="none" stroke="#000" stroke-miterlimit="10" stroke-width=".7946408800000001" d="M10.914 41.922s.305-.266.426-.367l.422-.364.426-.355.421-.352c.121-.093.309-.25.426-.343s.305-.246.426-.34l.422-.336.426-.328c.117-.09.304-.235.421-.32.122-.09.31-.231.426-.32.117-.087.309-.227.426-.31l.422-.308a40.21 40.21 0 0 1 .852-.594c.117-.082.304-.207.421-.289l.426-.281c.117-.078.305-.2.422-.274.121-.078.309-.195.426-.27.117-.073.308-.19.426-.265.117-.07.304-.187.421-.258.118-.07.309-.18.426-.25s.305-.175.426-.246l.422-.238c.117-.062.308-.168.426-.23.117-.063.304-.164.422-.223.12-.063.308-.16.425-.219.118-.062.309-.156.426-.215s.305-.148.422-.203c.117-.058.309-.144.426-.199s.304-.14.426-.191a20 20 0 0 1 .847-.364c.117-.05.305-.125.422-.172.121-.046.309-.12.426-.168l.426-.156.422-.152.425-.145c.117-.039.305-.097.426-.136l.422-.13.426-.124.422-.114c.12-.03.308-.082.425-.109.118-.031.309-.074.426-.102l.422-.097.426-.086c.117-.024.305-.059.426-.082.117-.02.304-.055.421-.074.118-.02.31-.047.426-.067.117-.015.305-.043.422-.058.121-.016.309-.04.426-.051a16 16 0 0 1 .848-.082c.117-.012.308-.024.425-.031.118-.008.305-.02.426-.024l.422-.016c.117-.003.309-.007.426-.007.117-.004.304-.004.422-.004.12 0 .308.004.425.008.118 0 .305.007.426.011.117.004.305.016.422.02l.426.027c.117.012.305.024.422.035l.426.043.425.047.422.059c.121.015.309.043.426.062l.426.07c.117.02.304.055.422.079l.425.086c.118.023.305.066.422.09.121.027.309.07.426.101.117.027.309.074.426.106.117.03.305.082.422.113s.308.086.426.12c.117.036.304.09.425.126l.422.137.426.14c.117.04.305.106.422.149.12.043.308.11.426.156.117.043.308.113.425.16l.422.168c.117.05.309.129.426.176.117.05.305.133.426.183.117.051.305.137.422.188l.425.2c.118.054.305.144.422.202.121.055.309.149.426.207l.426.215c.117.063.305.16.422.223.117.062.308.168.426.23.117.067.304.168.425.235.118.066.305.175.422.242.117.07.309.18.426.25l.422.254c.121.07.308.187.426.261s.308.192.425.266c.118.074.305.2.422.274l.426.28.426.286c.117.078.305.21.422.289.117.082.308.215.426.3.117.083.304.22.421.302a40 40 0 0 1 .852.625c.117.09.305.23.422.32s.308.234.426.328c.117.09.304.238.425.332l.422.336.426.344.422.347c.121.098.309.258.426.356l.426.36c.117.1.304.26.421.363.118.101.309.265.426.37l.426.376c.117.101.305.273.422.379l.426.382c.117.11.304.282.421.39.122.11.31.286.426.395.117.11.305.29.426.399.117.113.305.289.422.402s.309.297.426.41c.117.114.304.297.422.41.12.118.308.301.425.419l.426.421c.117.118.305.305.422.426.117.117.309.309.426.43.117.117.304.312.426.433l.421.438c.118.121.309.316.426.441.117.121.305.32.422.446.121.125.309.324.426.449s.308.324.426.453c.117.125.304.328.422.453.117.13.308.332.425.461.118.129.305.336.426.465l.422.465.426.469c.117.132.304.343.422.472.12.133.308.344.425.477l.426.48.422.48c.117.134.309.348.426.485.117.133.305.352.426.488.117.133.304.352.422.489.117.136.308.355.425.492l.422.492c.121.137.309.36.426.496.117.14.309.363.426.5.117.14.304.363.422.5.117.14.308.363.425.504.118.14.305.363.426.504l.422.508.426.508.422.507.425.512c.118.145.31.371.426.516.117.14.305.37.422.511.117.145.309.372.426.516s.305.371.426.516l.422.52c.117.14.308.37.425.515l.422.52c.121.144.309.374.426.519.117.144.305.375.426.52l.422.523c.117.144.308.375.425.52.118.144.305.378.426.523l.422.52.426.523c.117.144.305.375.422.523l.426.52c.117.144.304.379.425.523l.422.52.426.523c.117.14.305.375.422.52.121.144.308.375.426.52.117.144.308.374.425.519.118.144.305.375.422.515.117.145.309.375.426.52.117.144.305.375.426.516.117.144.305.375.422.515.117.145.308.371.426.516.117.14.304.37.421.512l.426.511.426.512.422.508.426.508c.117.14.304.363.425.503l.422.504.426.5c.117.141.305.364.422.5.121.137.309.36.426.496l.425.497c.118.136.305.355.422.492l.426.488c.117.137.305.356.426.488.117.137.305.352.422.485.117.136.308.347.426.484l.421.477c.122.132.31.347.426.476.117.133.309.344.426.473.117.133.305.344.422.473l.426.464c.117.133.304.336.425.465l.422.461c.118.129.309.332.426.457l.422.453c.121.125.309.328.426.45.117.125.308.324.426.449.117.12.304.32.421.441l.426.438c.117.12.305.316.426.433l.422.434.426.426.422.421c.12.118.308.301.425.418l.426.415c.117.113.305.292.422.406.117.113.309.293.426.406.117.11.304.29.426.398l.421.395c.118.11.309.285.426.39.117.11.305.282.422.387.121.106.309.278.426.383.117.102.305.27.426.375l.422.371c.117.102.308.262.425.364s.305.261.422.359l.426.355c.117.098.309.254.426.352s.304.25.422.344l.425.34c.118.093.305.242.426.332.117.093.305.238.422.328l.426.324c.117.086.305.226.422.316.12.086.308.223.425.309.118.086.31.223.426.305.117.086.305.218.422.3s.309.211.426.293c.117.078.305.207.426.285l.422.282c.117.078.308.199.425.273.118.078.305.195.422.27.121.074.309.191.426.261.117.075.309.188.426.258l.422.25.425.242.426.239c.117.062.305.168.422.23.117.063.309.16.426.223.117.062.305.156.422.219.12.058.308.152.426.21.117.055.308.149.425.204.118.054.305.144.422.195.117.055.309.14.426.191.117.055.305.137.426.184l.422.18c.117.047.308.125.425.168.118.046.305.12.422.164.121.047.309.117.426.156.117.043.309.11.426.152.117.04.305.106.422.14.117.04.308.102.426.138.117.039.304.093.425.129.117.035.305.09.422.12a16.638 16.638 0 0 0 .848.223c.12.032.308.074.426.102s.304.07.425.094c.118.027.305.062.422.086s.309.058.426.082l.426.07c.117.02.305.047.422.066l.425.059c.118.015.305.035.422.05l.426.044c.117.011.305.027.426.035.117.008.305.023.422.027.117.008.308.02.426.024.117.003.304.011.421.015.122.004.309.004.426.008h.426c.117 0 .305-.004.422-.008s.308-.008.426-.015c.117-.004.304-.012.425-.02.118-.008.305-.02.422-.031.118-.008.309-.024.426-.035l.422-.043c.121-.012.309-.036.426-.051l.426-.055c.117-.02.304-.047.421-.066l.426-.07c.117-.024.305-.06.426-.083.117-.023.305-.058.422-.086.117-.023.308-.066.426-.093.117-.024.304-.07.422-.098.12-.031.308-.078.425-.11.117-.03.309-.081.426-.113.117-.035.305-.086.422-.12l.426-.13c.117-.039.304-.097.426-.136.117-.04.304-.102.421-.14.118-.044.309-.11.426-.153s.305-.11.422-.157c.121-.042.309-.117.426-.164.117-.043.308-.12.426-.168.117-.046.304-.128.421-.175l.426-.184c.117-.055.305-.137.426-.191l.422-.2a21 21 0 0 0 .848-.414c.12-.058.308-.156.425-.214l.426-.227c.117-.063.305-.164.422-.23.117-.063.309-.168.426-.235s.304-.176.426-.242l.421-.25c.118-.07.309-.184.426-.258.117-.07.305-.187.422-.262.121-.074.309-.191.426-.27.117-.073.305-.194.426-.273.117-.078.304-.203.422-.28.117-.079.308-.204.425-.286l.426-.293.422-.297c.117-.086.309-.222.426-.304.117-.086.304-.227.422-.313.12-.086.308-.227.425-.316.118-.086.305-.23.426-.32l.422-.329c.117-.09.309-.238.426-.332l.422-.34c.12-.093.308-.246.426-.343l.425-.352.422-.352c.117-.101.309-.261.426-.363.117-.098.305-.262.426-.363l.422-.371c.117-.102.308-.27.425-.375l.422-.38.426-.386c.117-.11.309-.281.426-.39l.422-.395c.117-.11.308-.29.425-.398.118-.114.305-.293.426-.407.117-.113.305-.293.422-.41l.426-.41c.117-.117.305-.305.422-.418.12-.117.308-.305.426-.422.117-.12.308-.308.425-.426l.422-.433c.117-.117.309-.313.426-.434.117-.12.305-.316.426-.437.117-.121.304-.32.422-.442.117-.125.308-.324.425-.445.118-.125.305-.324.422-.453.121-.125.309-.324.426-.453.117-.125.309-.328.426-.457.117-.125.305-.332.422-.457.117-.13.308-.336.426-.465l.425-.469c.118-.129.305-.34.422-.469.117-.133.309-.34.426-.472l.422-.477c.121-.133.308-.348.426-.48l.425-.48c.118-.134.305-.352.422-.485.117-.137.309-.352.426-.489.117-.136.305-.355.426-.488l.422-.492c.117-.14.308-.36.426-.496.117-.137.304-.36.421-.496.121-.14.309-.363.426-.5.117-.14.305-.363.426-.5l.422-.504c.117-.14.308-.367.426-.504.117-.14.304-.367.425-.508.118-.14.305-.367.422-.508.117-.144.309-.37.426-.511l.422-.512c.121-.14.309-.371.426-.512.117-.144.304-.37.425-.515.118-.141.305-.371.422-.516.118-.14.309-.371.426-.516.117-.144.305-.375.422-.515.121-.145.309-.375.426-.52l.426-.52.421-.519c.122-.144.31-.375.426-.52.117-.144.305-.378.426-.523l.422-.52.426-.523.422-.52c.12-.144.308-.378.425-.523l.426-.523.422-.52.426-.523c.117-.145.304-.375.426-.52l.421-.523c.118-.14.309-.375.426-.52l.422-.52c.121-.144.309-.374.426-.519.117-.144.308-.375.426-.515l.422-.52c.117-.144.308-.371.425-.516.117-.144.305-.37.426-.515.117-.14.305-.371.422-.512.117-.144.309-.371.426-.515l.422-.512c.12-.14.308-.367.425-.508l.426-.508.422-.508c.117-.14.309-.363.426-.504.117-.14.305-.363.426-.503.117-.141.304-.364.421-.5.118-.141.31-.36.426-.5l.422-.497c.121-.136.309-.359.426-.496.117-.136.309-.355.426-.488l.422-.492c.117-.137.308-.352.425-.484.118-.137.305-.352.426-.485.117-.137.305-.351.422-.484s.309-.344.426-.477l.422-.476.425-.473c.118-.133.31-.34.426-.469a51 51 0 0 1 .848-.93c.117-.128.305-.335.426-.46.117-.13.304-.332.422-.457l.425-.454.422-.449c.121-.125.309-.32.426-.445s.305-.32.426-.441c.117-.122.304-.317.422-.438s.308-.316.425-.434l.422-.43.426-.425.426-.422c.117-.117.305-.3.422-.418.12-.113.308-.297.426-.41.117-.117.304-.297.425-.41.118-.113.305-.293.422-.403.117-.113.309-.289.426-.398.117-.113.305-.29.422-.395.12-.109.308-.285.426-.39.117-.11.308-.281.425-.387l.422-.379c.117-.105.309-.27.426-.375l.426-.37.422-.364c.117-.102.308-.262.426-.36s.304-.257.421-.355c.121-.094.309-.25.426-.348l.426-.343.422-.336c.117-.094.308-.243.426-.332.117-.094.304-.239.425-.328.118-.09.305-.235.422-.32.117-.09.309-.231.426-.317l.422-.309c.121-.086.309-.222.426-.304.117-.083.308-.215.425-.297l.422-.293.426-.285a40 40 0 0 1 .848-.555l.426-.266c.117-.074.304-.191.421-.262.122-.07.309-.183.426-.253s.309-.18.426-.25l.422-.243c.117-.066.308-.171.426-.234.117-.066.304-.168.425-.23.118-.063.305-.16.422-.223.118-.063.309-.156.426-.215l.422-.21c.121-.06.309-.15.426-.204.117-.055.308-.145.426-.195.117-.055.304-.141.421-.192l.426-.183c.117-.047.305-.125.426-.176l.422-.168c.117-.047.308-.117.426-.164.117-.043.304-.113.422-.152.12-.043.308-.11.425-.149.117-.043.305-.105.426-.144.117-.036.305-.098.422-.133l.426-.13c.117-.034.304-.085.422-.12l.425-.114c.118-.03.309-.078.426-.105s.305-.074.422-.102c.121-.023.309-.066.426-.09l.426-.085"/></g><use xlink:href="#e" x="35.15" y="27.503"/><g clip-path="url(#f)"><path fill="none" stroke="#7F7F7F" stroke-miterlimit="10" stroke-width=".7946408800000001" d="M10.914 68.566s.305-.375.426-.52c.117-.148.305-.378.422-.523l.426-.523.421-.52c.121-.144.309-.375.426-.52.117-.144.305-.378.426-.523l.422-.52.426-.519c.117-.14.304-.375.421-.515.122-.145.31-.375.426-.52.117-.14.309-.37.426-.515s.305-.371.422-.516c.121-.14.309-.371.426-.516l.425-.511c.118-.141.305-.368.422-.512l.426-.508.422-.508c.121-.14.309-.367.426-.507s.308-.368.426-.504l.421-.504.426-.5c.117-.14.305-.364.426-.5.117-.14.305-.36.422-.496.117-.141.308-.36.426-.496l.422-.493c.12-.136.308-.355.425-.488.118-.137.309-.355.426-.488.117-.137.305-.352.422-.485l.426-.48c.117-.137.304-.348.426-.48l.421-.477c.118-.133.309-.34.426-.473l.422-.469.426-.468c.117-.13.308-.336.426-.461.117-.13.304-.336.422-.461.117-.13.308-.332.425-.457s.305-.328.426-.453l.422-.45c.117-.125.309-.324.426-.445.117-.125.304-.32.422-.441l.425-.442c.118-.12.309-.312.426-.433.117-.117.305-.309.422-.43l.426-.426c.117-.117.305-.304.426-.422.117-.117.304-.3.421-.418.118-.113.31-.296.426-.41l.422-.41c.121-.113.309-.293.426-.402.117-.113.309-.29.426-.403l.422-.394.425-.387c.118-.11.305-.281.426-.387l.422-.378c.117-.106.309-.274.426-.375.117-.106.304-.27.422-.372.12-.101.308-.265.425-.367.118-.097.305-.258.426-.36l.422-.35c.117-.098.309-.255.426-.352.117-.094.305-.25.422-.344.12-.094.308-.246.426-.336.117-.094.308-.242.425-.336l.422-.324c.121-.09.309-.234.426-.324.117-.086.305-.227.426-.313.117-.09.304-.226.422-.312s.308-.219.425-.305l.422-.297c.121-.082.309-.21.426-.293l.426-.285.422-.281c.117-.074.308-.2.426-.274s.304-.195.425-.27c.117-.07.305-.187.422-.26l.426-.255.422-.25c.12-.066.308-.176.426-.242s.308-.172.425-.234a23 23 0 0 1 .848-.453c.117-.063.305-.157.426-.22.117-.058.305-.152.422-.206.117-.059.308-.149.425-.207.118-.055.305-.14.422-.196.121-.054.309-.136.426-.191.117-.05.309-.133.426-.18.117-.05.305-.129.422-.18l.426-.167c.117-.047.304-.118.425-.164l.422-.157c.117-.043.309-.11.426-.148.117-.04.305-.102.422-.14.121-.04.308-.098.426-.137l.425-.13c.118-.035.305-.085.422-.12l.426-.114c.117-.031.305-.078.426-.105.117-.031.305-.074.422-.102s.308-.066.426-.094l.421-.085c.122-.02.309-.055.426-.079l.426-.07c.117-.02.305-.047.422-.062.117-.02.308-.043.426-.059s.304-.035.425-.05l.422-.044c.117-.008.309-.023.426-.035l.422-.027c.121-.008.309-.016.426-.02.117-.008.304-.012.426-.015.117-.004.304-.004.421-.008.118 0 .309 0 .426.004.117 0 .305.004.426.007.117 0 .305.008.422.012.117.008.308.016.426.024.117.007.304.02.421.03.122.009.31.024.426.036l.426.043.422.055c.117.011.309.039.426.054.117.02.304.047.422.067.12.02.308.05.425.074a16 16 0 0 1 .848.168c.117.023.309.066.426.094s.304.07.426.101c.117.028.304.075.421.106.118.031.309.082.426.117.117.031.305.086.422.121.121.035.309.094.426.129.117.039.308.098.426.137s.304.105.422.144a18 18 0 0 1 .851.309c.117.043.305.117.422.164l.426.168.422.18c.12.05.308.132.425.183.118.055.309.137.426.192s.305.144.422.199c.117.054.309.144.426.203.117.058.305.152.426.21.117.063.304.157.422.22.117.062.308.16.425.226.117.063.305.164.422.23.121.063.309.169.426.235.117.07.309.176.426.246.117.066.304.18.422.25s.308.184.425.258c.118.07.305.187.426.262.117.074.305.191.422.27.117.073.309.194.426.273l.422.28c.12.079.308.208.425.29.118.078.31.21.426.293l.422.297c.117.086.309.222.426.308.117.082.305.223.426.309.117.086.304.23.422.316l.425.325c.118.09.305.234.422.328.121.09.309.238.426.332.117.093.305.246.426.34.117.093.304.25.422.343l.425.352c.118.098.305.258.426.355.117.098.305.262.422.36l.426.367c.117.101.305.266.422.371l.426.375c.117.105.304.277.425.383.118.105.305.277.422.387.117.105.309.28.426.39l.422.395c.121.109.308.289.426.398l.425.406.422.41c.117.114.309.297.426.415.117.113.305.3.426.418l.422.421.426.426c.117.121.304.313.421.43.121.121.309.316.426.437l.426.438.422.441.426.45c.117.125.304.324.425.449.118.125.305.328.422.453l.426.457.422.46c.121.13.309.337.426.466s.308.336.425.468c.118.13.305.336.422.47.118.132.309.339.426.472s.305.344.426.476l.422.48c.117.134.308.349.426.481l.421.489c.122.132.31.351.426.484.117.137.309.355.426.492l.422.492.426.496c.117.137.304.36.425.497.118.136.305.359.422.5.118.136.309.363.426.5l.422.503c.121.141.309.364.426.504l.426.508.421.508c.118.145.309.371.426.512.117.14.305.37.426.511.117.141.305.372.422.512.117.145.308.371.426.516l.422.515.425.516c.117.145.305.375.426.52l.422.52.426.515c.117.144.304.379.426.523l.421.52c.118.144.309.375.426.52l.422.523c.121.144.309.375.426.52.117.144.305.378.426.523l.422.52.425.523.422.523c.121.145.309.375.426.52l.426.523.422.52.425.519c.118.145.305.375.426.52l.422.52c.117.144.309.374.426.519.117.14.305.37.422.515l.425.516.426.516c.117.144.305.37.422.515.117.14.309.367.426.512l.426.512c.117.14.304.367.422.507l.425.508c.118.14.305.367.422.508.121.14.309.363.426.504.117.14.309.363.426.504.117.137.304.36.422.5.117.137.308.36.425.5l.426.496.422.492c.117.137.309.356.426.492.117.137.305.356.422.489.12.136.308.351.426.488.117.133.308.348.425.484l.422.48c.117.134.309.348.426.477.117.133.305.348.426.477.117.133.304.344.422.472.117.133.308.34.425.47a51 51 0 0 0 .848.929c.117.129.309.332.426.46l.422.454c.117.129.308.328.426.453s.304.324.425.45c.117.124.305.324.422.445.117.125.309.32.426.441l.422.438c.12.12.308.312.426.433s.304.313.425.43c.118.117.305.308.422.426s.309.304.426.418c.117.117.305.304.426.418.117.117.305.3.422.414l.425.406c.118.113.305.293.422.402l.426.399c.117.109.305.285.426.394.117.11.305.281.422.39l.426.384.421.379c.122.105.309.27.426.375l.426.367.422.367c.117.098.308.258.426.355.117.102.304.258.425.356.118.097.305.254.422.347.118.098.309.25.426.344l.422.336.426.332.426.328.421.32.426.313c.117.086.305.227.426.309.117.086.305.222.422.304l.426.297c.117.082.304.211.422.29l.425.285.426.28c.117.075.305.2.422.274l.426.266c.117.074.304.187.426.262l.421.253c.118.07.309.18.426.247.117.07.305.175.422.242.121.066.309.172.426.234.117.067.308.168.426.23l.421.223.426.215c.117.059.305.152.426.207.117.059.305.149.422.203s.309.14.426.196c.117.054.304.136.422.187.12.055.308.133.425.184.118.05.309.129.426.175l.422.168c.117.047.309.118.426.16.117.047.304.114.426.157.117.043.304.11.421.148.118.04.309.102.426.14.117.04.305.099.422.134.121.035.309.093.426.129.117.03.305.086.426.117.117.035.304.082.422.113s.308.078.425.106c.118.03.305.074.426.101l.422.09.426.086c.117.02.304.055.422.074.12.024.308.055.425.07.118.02.305.047.426.063.117.02.305.043.422.058.117.012.309.036.426.047l.422.043c.12.008.308.024.426.032.117.011.308.023.425.027.117.008.305.016.422.02.117.007.309.011.426.015.117 0 .305.004.426.004.117 0 .304 0 .422-.004.117 0 .308-.004.425-.008l.422-.015c.121-.008.309-.016.426-.024l.426-.031c.117-.012.305-.027.422-.04.117-.01.308-.03.425-.042l.426-.055c.117-.015.305-.043.422-.058.117-.02.309-.047.426-.067l.422-.074.426-.082c.117-.023.308-.063.425-.09.118-.023.305-.066.422-.094l.426-.101.426-.11c.117-.03.304-.085.422-.117l.425-.125c.118-.035.305-.093.422-.129l.426-.14c.117-.04.309-.102.426-.145a18 18 0 0 0 .848-.308c.117-.043.304-.118.425-.164.118-.047.305-.125.422-.172.117-.051.309-.13.426-.18s.305-.133.422-.188c.121-.05.308-.136.426-.19l.425-.2c.118-.055.305-.149.422-.207l.426-.211c.117-.059.305-.156.426-.219l.422-.226c.117-.063.308-.168.426-.23l.421-.24c.121-.07.309-.179.426-.245.117-.07.305-.18.426-.25.117-.074.305-.188.422-.258.117-.074.308-.191.426-.266.117-.074.304-.195.425-.27.118-.077.305-.198.422-.277l.426-.28c.117-.079.305-.208.422-.29.121-.082.309-.21.426-.293s.304-.219.425-.3l.422-.31c.118-.085.309-.222.426-.312.117-.086.305-.226.422-.316.121-.09.309-.235.426-.324s.308-.235.426-.328l.421-.336c.122-.094.31-.243.426-.34.117-.094.305-.25.426-.344l.422-.352.426-.355c.117-.102.304-.262.422-.363.12-.102.308-.266.425-.368.118-.101.309-.269.426-.37l.422-.38.426-.378c.117-.11.304-.282.426-.391.117-.106.304-.281.421-.39l.426-.395.422-.403c.121-.113.309-.293.426-.406s.308-.293.426-.41c.117-.113.304-.297.422-.414s.308-.3.425-.418l.426-.426c.117-.117.305-.304.422-.426l.426-.43.422-.437c.12-.12.308-.316.425-.437.118-.125.309-.32.426-.446.117-.125.305-.32.422-.445l.426-.453c.117-.125.305-.328.426-.453.117-.125.304-.332.421-.457l.426-.461.422-.465c.121-.129.309-.34.426-.469s.309-.34.426-.472l.422-.473c.117-.133.308-.344.425-.477.118-.132.305-.347.426-.48.117-.133.305-.348.422-.484.117-.133.309-.348.426-.485l.422-.488c.12-.137.308-.356.425-.492.118-.137.31-.356.426-.492.117-.137.305-.356.422-.497l.426-.496.426-.5c.117-.14.304-.363.422-.5.117-.14.308-.363.425-.504.118-.14.305-.367.422-.507.121-.141.309-.368.426-.508s.305-.367.426-.508c.117-.14.304-.367.422-.512.117-.14.308-.367.425-.511.118-.141.305-.371.422-.512.121-.145.309-.371.426-.516.117-.14.309-.37.426-.515s.305-.371.422-.516l.426-.52c.117-.14.304-.375.425-.515l.422-.52.426-.523.422-.52c.12-.144.308-.375.426-.52l.425-.523.422-.52.426-.523c.117-.144.305-.375.426-.52.117-.148.305-.378.422-.523l.426-.523.421-.52c.121-.144.309-.378.426-.523.117-.144.309-.375.426-.52l.422-.519c.117-.145.308-.375.426-.52.117-.144.304-.375.425-.52l.422-.519c.117-.14.309-.37.426-.515s.305-.371.422-.516c.121-.144.309-.371.426-.515l.425-.512c.118-.145.305-.371.422-.512.118-.144.309-.371.426-.512.117-.14.305-.37.426-.511l.422-.508c.117-.14.308-.363.426-.504.117-.14.304-.367.421-.504.122-.14.309-.363.426-.504.117-.137.309-.36.426-.5l.422-.496c.117-.14.308-.36.426-.496.117-.14.304-.36.425-.496l.422-.492c.118-.133.309-.352.426-.489.117-.132.305-.351.422-.484l.426-.484.426-.48c.117-.134.304-.349.421-.477.118-.133.309-.344.426-.477s.305-.34.426-.473c.117-.129.305-.34.422-.468.117-.13.308-.336.426-.465.117-.13.304-.336.422-.461.12-.13.308-.332.425-.461.117-.125.305-.328.426-.453.117-.13.305-.328.422-.453l.426-.45c.117-.12.304-.32.422-.445.12-.121.308-.316.425-.437l.426-.438.422-.433c.121-.118.309-.31.426-.43l.426-.422"/></g><use xlink:href="#g" x="55.999" y="27.408" fill="#7F7F7F"/><use xlink:href="#h" x="14.092" y="77.663"/><use xlink:href="#i" x="222.242" y="76.761"/><use xlink:href="#j" x="2.979" y="8.774"/></svg>