<svg xmlns="http://www.w3.org/2000/svg" width="227.212" height="42.615"><defs><clipPath id="a"><path d="M.625 20h225.18v2H.625Zm0 0"/></clipPath><clipPath id="b"><path d="M20 0h23v42.234H20Zm0 0"/></clipPath><clipPath id="c"><path d="M61 0h64v42.234H61Zm0 0"/></clipPath><clipPath id="d"><path d="M142 0h23v42.234h-23Zm0 0"/></clipPath><clipPath id="e"><path d="M183 0h23v42.234h-23Zm0 0"/></clipPath></defs><g clip-path="url(#a)"><path fill="none" stroke="#000" stroke-miterlimit="10" stroke-width="1.5797337" d="M1.418 21.117h223.598"/></g><path fill="#BFBFBF" d="M21.742 41.445V.79H42.07v40.656Zm0 0"/><g clip-path="url(#b)"><path fill="none" stroke="#000" stroke-miterlimit="10" stroke-width="1.5797337" d="M21.742 41.445V.79H42.07v40.656Zm0 0"/></g><path fill="#BFBFBF" d="M62.398 41.445V.79h60.98v40.656Zm0 0"/><g clip-path="url(#c)"><path fill="none" stroke="#000" stroke-miterlimit="10" stroke-width="1.5797337" d="M62.398 41.445V.79h60.981v40.656Zm0 0"/></g><path fill="#BFBFBF" d="M143.707 41.445V.79h20.328v40.656Zm0 0"/><g clip-path="url(#d)"><path fill="none" stroke="#000" stroke-miterlimit="10" stroke-width="1.5797337" d="M143.707 41.445V.79h20.328v40.656Zm0 0"/></g><path fill="#BFBFBF" d="M184.363 41.445V.79h20.328v40.656Zm0 0"/><g clip-path="url(#e)"><path fill="none" stroke="#000" stroke-miterlimit="10" stroke-width="1.5797337" d="M184.363 41.445V.79h20.329v40.656Zm0 0"/></g></svg>