<svg xmlns="http://www.w3.org/2000/svg" xmlns:xlink="http://www.w3.org/1999/xlink" width="226.792" height="118.603"><defs><path id="a" d="M3.5-5.844c-.219 0-.75.078-1.094.078S1.72-5.78 1.328-5.78l-.031.015-.031.188c-.016.031 0 .062.046.062l.329.016c.125 0 .312.063.312.281 0 .032 0 .063-.016.094L1.064-.641c-.047.25-.172.36-.547.375l-.22.032C.25-.234.22-.22.22-.172L.172 0l.031.016C.593.016.953 0 1.281 0c.344 0 .688.016 1.094.016L2.406 0l.031-.172c0-.047-.03-.062-.062-.062l-.219-.032C1.875-.28 1.75-.344 1.75-.53c0-.031 0-.063.016-.11l.375-1.953c.718 0 .875.125.953.328l.61 1.563c.171.422.468.797.983.797.125 0 .282-.016.375-.063l.032-.218c-.39 0-.532-.297-.688-.688L3.688-2.75c.39-.125 1.25-.594 1.437-1.531.031-.11.047-.235.047-.344a1.13 1.13 0 0 0-.281-.766c-.328-.406-.86-.453-1.391-.453m-.062.297c.453 0 .984.172.984.89 0 .11-.031.235-.047.391-.219 1.11-.922 1.36-1.75 1.36h-.422l.438-2.219c.046-.266.187-.422.797-.422m0 0"/><path id="b" d="M1.063 0h1.53c.188 0 .845.016.845.016.078-.36.14-.828.187-1.203a.38.38 0 0 0-.234-.032c-.141.516-.407.938-1.172.938H1.78c-.281 0-.422-.14-.422-.5V-3.75c0-.594.125-.625.625-.64.047-.048.047-.204 0-.235-.312 0-.656.016-.921.016-.266 0-.594-.016-.922-.016-.047.031-.047.188 0 .234.5.016.625.047.625.641v2.875c0 .594-.125.625-.625.656-.047.047-.047.188 0 .235C.42 0 .828 0 1.063 0m0 0"/><path id="f" d="M.438-3.344c0 .14.14.281.28.281.126 0 .345-.14.345-.296 0-.047-.016-.094-.032-.141-.015-.062-.062-.125-.062-.172 0-.187.187-.437.719-.437.25 0 .609.172.609.859 0 .453-.156.828-.578 1.266l-.532.515C.485-.75.375-.406.375.016c0 0 .36-.016.594-.016h1.25c.234 0 .562.016.562.016a8 8 0 0 0 .172-1.125c-.047-.047-.14-.063-.219-.047-.109.515-.234.687-.5.687H.97c0-.343.484-.828.531-.86l.719-.702c.406-.39.719-.703.719-1.25 0-.766-.641-1.078-1.22-1.078-.78 0-1.28.578-1.28 1.015m0 0"/><path id="g" d="M2.063-.875v-2.484c0-.422 0-.86.015-.953 0-.032-.015-.032-.031-.032-.406.235-.781.422-1.406.703a.33.33 0 0 0 .109.204c.328-.141.484-.188.61-.188.124 0 .156.172.156.422v2.328c0 .594-.203.625-.703.656-.047.047-.047.188 0 .235C1.172 0 1.422 0 1.813 0c.343 0 .515 0 .875.016.03-.047.03-.188 0-.235-.5-.031-.626-.062-.626-.656m0 0"/><path id="h" d="M1.531-4.11c.313 0 .594.188.594.641 0 .36-.406.906-1.11 1l.032.235c.125-.016.25-.016.344-.016.406 0 .937.125.937.922 0 .953-.64 1.156-.89 1.156-.36 0-.422-.172-.516-.297a.34.34 0 0 0-.313-.187c-.14 0-.296.14-.296.25 0 .281.609.484 1.03.484.86 0 1.61-.562 1.61-1.5 0-.781-.578-1.062-1-1.14h-.016c.594-.282.75-.579.75-.954a.77.77 0 0 0-.218-.578c-.156-.156-.406-.265-.781-.265-1.047 0-1.344.687-1.344.922 0 .093.062.234.234.234.25 0 .281-.235.281-.375 0-.453.5-.531.672-.531m0 0"/><path id="c" d="M1.125-5.812h2.563l-.063.78H1.531l-.125 1.407q1.296.066 1.875.547c.364.305.547.765.547 1.39 0 .493-.18.915-.531 1.266q-.534.533-1.39.531Q1.185.108.827-.156a.61.61 0 0 1-.281-.516q0-.405.39-.547.171.376.282.5.31.328.843.328.514 0 .829-.328c.195-.207.297-.476.297-.812q0-.732-.563-1.047-.55-.328-1.781-.328Zm0 0"/><path id="d" d="M2.234-.39q1.092.001 1.094-2.516-.002-2.515-1.094-2.516-1.094.001-1.093 2.516c0 1.68.363 2.515 1.093 2.515m-.03.5q-.88 0-1.376-.75Q.296-1.42.297-2.907c0-.977.187-1.735.562-2.266.352-.5.829-.75 1.422-.75q.873 0 1.36.75.528.784.53 2.266 0 1.47-.562 2.265-.533.75-1.406.75m0 0"/><path id="e" d="M6.125-3.484q-.001.926-.547 1.734-.486.69-1.156 1.047v.172h1.187l.141-.719a.44.44 0 0 1 .203-.047q.282.001.281.406-.002.365-.062.891H3.859v-.89c.977-.5 1.47-1.376 1.47-2.626Q5.327-4.545 4.78-5.14q-.534-.609-1.39-.609c-.563 0-1.024.2-1.375.594-.368.418-.547.968-.547 1.656q-.001.862.343 1.531.387.72 1.126 1.078V0H.624a10 10 0 0 1-.047-.89c0-.27.086-.407.266-.407q.107 0 .203.047l.14.719h1.204v-.156c-.43-.188-.809-.524-1.141-1.016a2.98 2.98 0 0 1-.594-1.781q-.001-1.203.766-2 .78-.797 1.969-.797 1.218 0 1.968.781c.508.512.766 1.184.766 2.016m0 0"/><path id="i" d="M2.375-6.172q3.546 0 3.547 3 0 1.583-.938 2.39C4.38-.257 3.508 0 2.375 0H.422a.16.16 0 0 1-.016-.078Q.404-.324.72-.406l.375-.078v-5.203l-.547-.125c-.086-.02-.125-.055-.125-.11q0-.075.094-.25ZM2.344-.5q1.326 0 2.031-.672.717-.667.719-1.969-.002-1.246-.719-1.89-.705-.64-2.031-.64h-.469V-.5Zm0 0"/><path id="j" d="M2.656-2.781q0-.591-.172-.86-.175-.28-.609-.28a1.5 1.5 0 0 0-.531.093q-.11.22-.203.781a2 2 0 0 1-.188.016q-.438 0-.437-.39 0-.405.468-.688a1.97 1.97 0 0 1 1.032-.282q1.373 0 1.375 1.5v1.97c0 .335.101.5.312.5q.2 0 .313-.11a.38.38 0 0 1 .093.25c0 .062-.058.133-.171.203a.87.87 0 0 1-.532.156q-.628 0-.687-.61h-.016Q2.28.112 1.47.11.966.11.656-.203.343-.514.344-1.031c0-.438.219-.774.656-1.016.383-.195.86-.297 1.422-.297h.234Zm-.89 2.328q.498 0 .89-.469v-1.031l-.234.016q-1.299.11-1.297.812c0 .45.21.672.64.672m-.547-4.61a.43.43 0 0 1-.437-.453.46.46 0 0 1 .124-.343.43.43 0 0 1 .313-.125c.125 0 .226.043.312.125q.124.128.125.343a.45.45 0 0 1-.125.329.42.42 0 0 1-.312.125m1.515 0a.43.43 0 0 1-.437-.453.46.46 0 0 1 .125-.343.43.43 0 0 1 .312-.125q.186.001.313.125.124.128.125.343a.45.45 0 0 1-.125.329.42.42 0 0 1-.313.125m0 0"/><path id="k" d="m7.094-.469.531.125q.124.017.125.11A.35.35 0 0 1 7.656 0h-1.89a.1.1 0 0 1-.016-.062c0-.133.094-.235.281-.297l.328-.11V-2.75c0-.695-.289-1.047-.859-1.047q-.674.002-1.187.485.046.315.046.515v2.328l.532.125q.124.017.125.11A.4.4 0 0 1 4.937 0H3.032v-.062c0-.133.094-.235.281-.297l.329-.11V-2.75c0-.695-.29-1.047-.86-1.047-.437 0-.82.149-1.14.438v2.89l.53.125q.125.017.126.11A.35.35 0 0 1 2.203 0H.313a.1.1 0 0 1-.016-.062c0-.133.094-.235.281-.297l.328-.11v-3.328l-.64-.094a.1.1 0 0 1-.016-.062q0-.246.328-.281l1.063-.11-.063.594h.031q.61-.64 1.422-.64.828 0 1.156.702.64-.703 1.532-.703.638 0 1 .422.375.41.375 1.172Zm0 0"/><path id="l" d="M.86 1.328v-5.125L.202-3.89v-.062q0-.246.328-.281l1.047-.11-.047.594h.032q.527-.64 1.312-.64.762 0 1.219.546.452.55.453 1.516 0 1.188-.61 1.797-.562.579-1.593.578c-.25 0-.508-.04-.766-.11v1.391l.547.11q.124.03.125.125a.3.3 0 0 1-.094.218H.266A.13.13 0 0 1 .25 1.72q0-.205.281-.282Zm1.734-5.14q-.581 0-1.016.421v2.672q.358.282.844.282 1.373 0 1.375-1.844 0-.733-.328-1.125-.314-.405-.875-.406m0 0"/><path id="m" d="M.922-4.297v-.031q-.001-.996.484-1.594c.282-.351.625-.531 1.032-.531q.528 0 .53.422a.46.46 0 0 1-.155.328 1.2 1.2 0 0 0-.579-.156q-.328 0-.468.172c-.086.117-.125.308-.125.578v.812h1.203l-.078.469H1.64v3.36l.625.124q.124.017.125.11A.4.4 0 0 1 2.312 0H.329a.1.1 0 0 1-.016-.062c0-.133.094-.235.282-.297l.328-.11v-3.36H.234v-.062q0-.216.282-.296Zm0 0"/><path id="n" d="m.781-3.797-.64-.094a.1.1 0 0 1-.016-.062q0-.246.328-.281l1.063-.11v2.813q0 1.048.89 1.047.686 0 1.11-.438v-2.875l-.657-.094a.1.1 0 0 1-.015-.062q-.001-.246.344-.281l1.046-.11v3.86l.657.078v.078q0 .252-.328.281l-1 .094v-.578h-.016c-.344.43-.793.64-1.344.64Q.78.11.781-1.5Zm0 0"/><path id="o" d="M.906-.469v-3.328l-.64-.094a.1.1 0 0 1-.016-.062q0-.246.328-.281l1.063-.11-.063.594h.031q.294-.293.516-.422.404-.217.953-.219c.438 0 .774.141 1.016.422q.375.41.375 1.172v2.328L5-.344q.124.017.125.11A.4.4 0 0 1 5.047 0H3.14v-.062c0-.133.093-.235.28-.297l.329-.11V-2.75q0-.545-.312-.828-.252-.218-.657-.219c-.43 0-.808.149-1.14.438v2.89l.53.125q.125.017.126.11A.35.35 0 0 1 2.203 0H.313a.1.1 0 0 1-.016-.062c0-.133.094-.235.281-.297Zm0 0"/><path id="p" d="M.484-2.969c0-.445.164-.804.5-1.078.301-.226.68-.344 1.141-.344q.342 0 .672.094h1.515l-.078.484h-.75q.282.376.282.844-.001.675-.5 1.078-.471.375-1.188.375-.204 0-.437-.046c-.18.117-.266.257-.266.421q0 .33.469.329h1.015q.577.001.907.265a.83.83 0 0 1 .343.703c0 .469-.199.867-.593 1.203-.438.352-1.008.532-1.703.532C.75 1.89.218 1.539.218.844c0-.524.27-.875.812-1.063v-.015a.62.62 0 0 1-.36-.594q0-.5.61-.828v-.016Q.484-2.045.484-2.969m1.641 1q.938.001.938-1-.001-.467-.266-.719a.9.9 0 0 0-.656-.25c-.618 0-.922.325-.922.97q-.002 1 .906 1m-.406 1.86q-.19.002-.344-.032C1.07.012.922.266.922.61q-.001.797 1 .797.684 0 1.094-.281.375-.268.375-.672 0-.562-.735-.562Zm0 0"/><path id="q" d="M1-.578q.264.204.656.203c.508 0 .766-.195.766-.594q-.002-.234-.25-.468a5 5 0 0 0-.578-.407q-.534-.327-.75-.562a1.2 1.2 0 0 1-.36-.86c0-.343.133-.613.407-.812q.406-.312 1.015-.313c.395 0 .719.102.969.297q.03.346.031.547c0 .305-.117.453-.344.453a.16.16 0 0 1-.078-.015l-.109-.641a1.13 1.13 0 0 0-.61-.187c-.43 0-.64.171-.64.515 0 .242.164.477.5.703q.469.316.938.61.515.409.515.953 0 .55-.422.906-.41.362-1.078.36C1.128.11.766.022.484-.14a3.7 3.7 0 0 1-.078-.735q0-.436.328-.437.048.002.094.015Zm0 0"/><path id="r" d="M.86-.469v-5.468l-.641-.094a.16.16 0 0 1-.016-.078q0-.247.328-.266l1.063-.11v6.016l.531.125q.124.017.125.11A.35.35 0 0 1 2.156 0H.266v-.062c0-.133.086-.235.265-.297Zm0 0"/><path id="s" d="M.906-.469v-3.328l-.64-.094a.1.1 0 0 1-.016-.062q0-.246.328-.281l1.063-.11v3.875l.53.125q.125.017.126.11A.35.35 0 0 1 2.203 0H.313a.1.1 0 0 1-.016-.062c0-.133.094-.235.281-.297Zm-.14-5.375q0-.217.14-.36a.47.47 0 0 1 .36-.155q.233.002.375.156.14.142.14.36a.5.5 0 0 1-.14.374.5.5 0 0 1-.375.14.48.48 0 0 1-.36-.14.5.5 0 0 1-.14-.375m0 0"/><path id="t" d="M1.156-2.172q.012.845.375 1.297c.239.305.578.453 1.016.453q.59 0 1.094-.422.106.064.125.25-.001.205-.407.438Q2.89.109 2.25.109 1.434.111.953-.39.391-.965.391-2.062.39-3.17.969-3.812c.351-.383.789-.579 1.312-.579q.684.001 1.094.407.359.409.36 1.093 0 .299-.094.72Zm1.032-1.765q-.91.001-1.016 1.343h1.766q.03-.187.03-.375 0-.968-.78-.969m0 0"/><path id="u" d="M3.422-.516H3.39Q2.935.11 2.109.11 1.39.11.922-.359.39-.903.39-2.016q0-1.168.703-1.812.609-.563 1.5-.563c.27 0 .523.04.765.11v-1.657l-.656-.093v-.078q0-.247.328-.266l1.047-.11v6l.656.079q.014.047.016.078 0 .252-.328.281l-1 .094Zm-1.094.047q.64 0 1.031-.39v-2.72c-.218-.206-.507-.312-.859-.312-.398 0-.719.149-.969.438q-.39.468-.39 1.312-.001.846.343 1.282.294.39.844.39m0 0"/></defs><path fill="none" stroke="#000" stroke-miterlimit="10" stroke-width=".39766734000000004" d="M37.727 18.957v30.496m0 23.723v30.496"/><path fill="none" stroke="#000" stroke-miterlimit="10" stroke-width=".7943380200000001" d="M49.586 61.316c0-6.55-5.309-11.863-11.86-11.863s-11.859 5.313-11.859 11.863c0 6.547 5.309 11.86 11.86 11.86s11.859-5.313 11.859-11.86Zm0 0"/><path fill="none" stroke="#000" stroke-miterlimit="10" stroke-width=".7943380200000001" d="M31.797 61.316c.969-1.52 1.89-2.964 2.965-2.964s2 1.445 2.965 2.964c.968 1.516 1.89 2.965 2.964 2.965s2-1.449 2.965-2.965"/><use xlink:href="#a" x="3.869" y="57.873"/><use xlink:href="#b" x="9.133" y="59.75"/><use xlink:href="#c" x="3.869" y="68.746"/><use xlink:href="#d" x="8.337" y="68.746"/><use xlink:href="#e" x="14.289" y="68.746"/><path fill="none" stroke="#000" stroke-miterlimit="10" stroke-width=".39766734000000004" d="M37.727 18.957h21.18m0 0h47.718m31.625 0h26.543"/><path stroke="#000" stroke-miterlimit="10" stroke-width=".39766734000000004" d="M81.664 18.957a1.582 1.582 0 0 0-3.164 0 1.583 1.583 0 0 0 3.164 0Zm0 0"/><path fill="none" stroke="#000" stroke-miterlimit="10" stroke-width=".7943380200000001" d="M106.625 13.027h31.625v11.864h-31.625Zm0 0"/><use xlink:href="#a" x="117.951" y="9.219"/><use xlink:href="#f" x="123.215" y="11.096"/><path fill="none" stroke="#000" stroke-miterlimit="10" stroke-width=".39766734000000004" d="M80.082 18.957V45.5m0 31.629v26.543H58.906m0 0h-21.18"/><path fill="none" stroke="#000" stroke-miterlimit="10" stroke-width=".7943380200000001" d="M74.152 77.129V45.5h11.86v31.629Zm0 0"/><use xlink:href="#a" x="88.213" y="63.459"/><use xlink:href="#g" x="93.477" y="65.335"/><path fill="none" stroke="#000" stroke-miterlimit="10" stroke-width=".39766734000000004" d="M164.793 18.957V45.5m0 31.629v26.543"/><path fill="none" stroke="#000" stroke-miterlimit="10" stroke-width=".7943380200000001" d="M158.863 77.129V45.5h11.86v31.629Zm0 0"/><path stroke="#000" stroke-miterlimit="10" stroke-width=".39766734000000004" d="M166.375 18.957a1.582 1.582 0 0 0-3.164 0 1.583 1.583 0 0 0 3.164 0ZM166.375 103.672a1.583 1.583 0 1 0-3.162.002 1.583 1.583 0 0 0 3.162-.002Zm0 0"/><use xlink:href="#a" x="147.689" y="63.459"/><use xlink:href="#h" x="152.953" y="65.335"/><path fill="none" stroke="#000" stroke-miterlimit="10" stroke-width=".39766734000000004" d="M164.793 18.957h21.18m0 0h21.175V45.5m0 31.629v26.543h-21.175m0 0h-63.535m0 0H80.082"/><path fill="none" stroke="#000" stroke-miterlimit="10" stroke-width=".7943380200000001" d="M201.219 77.129V45.5h11.86v31.629Zm0 0"/><use xlink:href="#a" x="215.279" y="63.459"/><use xlink:href="#b" x="220.542" y="65.335"/><path stroke="#000" stroke-miterlimit="10" stroke-width=".39766734000000004" d="M166.375 103.672a1.583 1.583 0 1 0-3.162.002 1.583 1.583 0 0 0 3.162-.002ZM81.664 103.672a1.583 1.583 0 1 0-3.162.002 1.583 1.583 0 0 0 3.162-.002Zm0 0"/><use xlink:href="#i" x="90.905" y="113.335"/><use xlink:href="#j" x="97.304" y="113.335"/><use xlink:href="#k" x="101.477" y="113.335"/><use xlink:href="#l" x="109.35" y="113.335"/><use xlink:href="#m" x="114.292" y="113.335"/><use xlink:href="#n" x="117.259" y="113.335"/><use xlink:href="#o" x="122.344" y="113.335"/><use xlink:href="#p" x="127.598" y="113.335"/><use xlink:href="#q" x="132.031" y="113.335"/><use xlink:href="#p" x="135.489" y="113.335"/><use xlink:href="#r" x="139.922" y="113.335"/><use xlink:href="#s" x="142.415" y="113.335"/><use xlink:href="#t" x="144.873" y="113.335"/><use xlink:href="#u" x="149.037" y="113.335"/></svg>