<svg xmlns="http://www.w3.org/2000/svg" xmlns:xlink="http://www.w3.org/1999/xlink" width="169.023" height="230.238"><defs><clipPath id="a"><path d="M155 152h13.05v15H155Zm0 0"/></clipPath><clipPath id="b"><path d="M103 218h1v11.2h-1Zm0 0"/></clipPath><clipPath id="c"><path d="M96 228h14v1.2H96Zm0 0"/></clipPath><clipPath id="d"><path d="M155 211h13.05v16H155Zm0 0"/></clipPath><clipPath id="e"><path d="M155 3h13.05v16H155Zm0 0"/></clipPath><path id="f" d="M4.297-2.469H.547v-.515h3.75Zm0 0"/><path id="g" d="M2.484-3.031h1.547v.469H2.484v1.671h-.5v-1.671H.422v-.47h1.562v-1.64h.5Zm0 0"/></defs><path fill="none" stroke="#000" stroke-miterlimit="10" stroke-width=".79241725" d="M111.238 100.172c0-8.082-6.55-14.633-14.633-14.633-8.078 0-14.628 6.55-14.628 14.633 0 8.078 6.55 14.629 14.628 14.629 8.083 0 14.633-6.551 14.633-14.63Zm0 0"/><path fill="none" stroke="#000" stroke-miterlimit="10" stroke-width=".39670575" d="M103.281 78.27v13.218l-11.836 5.426"/><path fill="none" stroke="#000" stroke-miterlimit="10" stroke-width=".79241725" d="M91.445 91.488v17.364"/><path fill="none" stroke="#000" stroke-miterlimit="10" stroke-width=".39670575" d="m91.445 103.426 11.836 5.426v13.218"/><path d="m95.613 105.336.95-2.066 3.671 4.183-5.566-.05Zm0 0"/><path fill="none" stroke="#000" stroke-miterlimit="10" stroke-width=".39670575" d="M91.445 100.172H79.41M14.207 100.172v21.8m0 15.782V185.3m0 7.89v25.747h44.535V193.19m0-7.89v-51.492m0-7.891V71.414m0-31.566V11.094H14.207v10.902m0 7.89v10.9"/><path fill="none" stroke="#000" stroke-miterlimit="10" stroke-width=".79241725" d="M28.016 121.973H.395m27.62 15.78H.396M1.184 134.598v-9.47h26.043v9.47ZM26.043 193.191H2.367m23.676-7.89H2.367M2.367 201.082l23.254-23.254"/><path fill="none" stroke="#000" stroke-miterlimit="10" stroke-width=".79240131" d="m23.594 175.52 4.34 4.34"/><path fill="none" stroke="#000" stroke-miterlimit="10" stroke-width=".79241725" d="M46.906 193.191h23.676m-23.676-7.89h23.676"/><path stroke="#000" stroke-miterlimit="10" stroke-width=".39670575" d="M60.32 218.938a1.579 1.579 0 1 0-3.155.001 1.579 1.579 0 0 0 3.155-.001ZM60.32 159.555a1.579 1.579 0 1 0-3.155.001 1.579 1.579 0 0 0 3.155-.001Zm0 0"/><path fill="none" stroke="#000" stroke-miterlimit="10" stroke-width=".79241725" d="M46.906 133.809h23.676m-23.676-7.891h23.676"/><path stroke="#000" stroke-miterlimit="10" stroke-width=".39670575" d="M60.32 100.172a1.579 1.579 0 1 0-3.155.001 1.579 1.579 0 0 0 3.155-.001Zm0 0"/><path fill="none" stroke="#000" stroke-miterlimit="10" stroke-width=".79241725" d="M64.664 39.848v31.566h-11.84V39.848Zm0 0"/><path stroke="#000" stroke-miterlimit="10" stroke-width=".39670575" d="M60.32 11.094a1.579 1.579 0 1 0-3.155.001 1.579 1.579 0 0 0 3.155-.001Zm0 0"/><path fill="none" stroke="#000" stroke-miterlimit="10" stroke-width=".79241725" d="M26.043 21.996H2.367m23.676 7.89H2.367"/><path fill="none" stroke="#000" stroke-miterlimit="10" stroke-width=".39670575" d="M14.207 40.785v9.867"/><path fill="none" stroke="#000" stroke-linecap="round" stroke-miterlimit="10" stroke-width=".79241725" d="M8.29 50.652h11.835"/><path fill="none" stroke="#000" stroke-miterlimit="10" stroke-width=".39670575" d="M14.207 100.172h65.402M58.742 218.938h44.54V205.03m0-31.566v-13.91h25.745m7.895 0h25.746"/><path fill="none" stroke="#000" stroke-miterlimit="10" stroke-width=".79241725" d="M109.2 173.465v31.566H97.362v-31.566Zm0 0"/><path stroke="#000" stroke-miterlimit="10" stroke-width=".39670575" d="M104.86 218.938a1.579 1.579 0 1 0-3.158 0 1.579 1.579 0 0 0 3.157 0ZM104.86 159.555a1.579 1.579 0 1 0-3.158 0 1.579 1.579 0 0 0 3.157 0Zm0 0"/><path fill="none" stroke="#000" stroke-miterlimit="10" stroke-width=".79241725" d="M129.027 147.719v23.672m7.895-23.672v23.672"/><path stroke="#000" stroke-miterlimit="10" stroke-width=".39670575" d="M104.86 159.555a1.579 1.579 0 1 0-3.158 0 1.579 1.579 0 0 0 3.157 0Zm0 0"/><path fill="#FFF" d="M164.246 159.555a1.579 1.579 0 1 0-3.157 0 1.579 1.579 0 0 0 3.157 0m0 0"/><g clip-path="url(#a)"><path fill="none" stroke="#000" stroke-miterlimit="10" stroke-width=".39670575" d="M164.246 159.555a1.579 1.579 0 1 0-3.157 0 1.579 1.579 0 0 0 3.157 0Zm0 0"/></g><path fill="none" stroke="#000" stroke-miterlimit="10" stroke-width=".39670575" d="M58.742 159.555h44.54M103.281 218.938"/><g clip-path="url(#b)"><path fill="none" stroke="#000" stroke-miterlimit="10" stroke-width=".39670575" d="M103.281 218.938v9.867"/></g><g clip-path="url(#c)"><path fill="none" stroke="#000" stroke-linecap="round" stroke-miterlimit="10" stroke-width=".79241725" d="M97.363 228.805H109.2"/></g><path fill="none" stroke="#000" stroke-miterlimit="10" stroke-width=".39670575" d="M103.281 218.938h59.387"/><path fill="#FFF" d="M164.246 218.938a1.579 1.579 0 1 0-3.157 0 1.579 1.579 0 0 0 3.157 0m0 0"/><g clip-path="url(#d)"><path fill="none" stroke="#000" stroke-miterlimit="10" stroke-width=".39670575" d="M164.246 218.938a1.579 1.579 0 1 0-3.157 0 1.579 1.579 0 0 0 3.157 0Zm0 0"/></g><path fill="none" stroke="#000" stroke-miterlimit="10" stroke-width=".39670575" d="M103.281 159.555V121.87M58.742 11.094h58.45m31.566 0h13.91"/><path fill="none" stroke="#000" stroke-linejoin="bevel" stroke-miterlimit="10" stroke-width=".79241725" d="M116.797 11.254c0-3.27 1.808-5.918 4.043-5.918 2.234 0 4.043 2.648 4.043 5.918 0-3.27 1.812-5.918 4.047-5.918s4.043 2.648 4.043 5.918c0-3.27 1.812-5.918 4.047-5.918s4.043 2.648 4.043 5.918c0-3.27 1.812-5.918 4.046-5.918s4.043 2.648 4.043 5.918"/><path stroke="#000" stroke-miterlimit="10" stroke-width=".39670575" d="M104.86 11.094a1.579 1.579 0 1 0-3.158.001 1.579 1.579 0 0 0 3.157-.001Zm0 0"/><path fill="#FFF" d="M164.246 11.094a1.579 1.579 0 1 0-3.157.001 1.579 1.579 0 0 0 3.157-.001m0 0"/><g clip-path="url(#e)"><path fill="none" stroke="#000" stroke-miterlimit="10" stroke-width=".39670575" d="M164.246 11.094a1.579 1.579 0 1 0-3.157.001 1.579 1.579 0 0 0 3.157-.001Zm0 0"/></g><path fill="none" stroke="#000" stroke-miterlimit="10" stroke-width=".39670575" d="M103.281 78.469V11.094"/><path fill="none" stroke="#000" stroke-dasharray="2.9716442275 2.9716442275" stroke-miterlimit="10" stroke-width=".39670575" d="M117.191 3.195h31.567"/><use xlink:href="#f" x="160.249" y="225.093"/><use xlink:href="#g" x="160.436" y="7.926"/></svg>