<svg xmlns="http://www.w3.org/2000/svg" xmlns:xlink="http://www.w3.org/1999/xlink" width="111.559" height="240.164"><defs><path id="a" d="M3.5-5.844c-.219 0-.75.078-1.094.078S1.72-5.78 1.328-5.78l-.031.015-.031.188c-.016.031 0 .062.046.062l.329.016c.125 0 .312.063.312.281 0 .032 0 .063-.016.094L1.064-.641c-.047.25-.172.36-.547.375l-.22.032C.25-.234.22-.22.22-.172L.172 0l.031.016C.593.016.953 0 1.281 0c.344 0 .688.016 1.094.016L2.406 0l.031-.172c0-.047-.03-.062-.062-.062l-.219-.032C1.875-.28 1.75-.344 1.75-.53c0-.031 0-.063.016-.11l.375-1.953c.718 0 .875.125.953.328l.61 1.563c.171.422.468.797.983.797.125 0 .282-.016.375-.063l.032-.218c-.39 0-.532-.297-.688-.688L3.688-2.75c.39-.125 1.25-.594 1.437-1.531.031-.11.047-.235.047-.344a1.13 1.13 0 0 0-.281-.766c-.328-.406-.86-.453-1.391-.453m-.062.297c.453 0 .984.172.984.89 0 .11-.031.235-.047.391-.219 1.11-.922 1.36-1.75 1.36h-.422l.438-2.219c.046-.266.187-.422.797-.422m0 0"/><path id="g" d="M1.828.094c1.75 0 2.375-1.14 2.672-2.735l.484-2.453c.047-.25.188-.39.563-.406l.219-.016c.046 0 .078-.03.078-.078l.031-.172-.016-.015c-.406 0-.75.015-.937.015-.203 0-.547-.015-.938-.015l-.03.015-.032.172c0 .047.031.078.062.078l.22.016c.296.016.405.094.405.281 0 .032 0 .078-.015.125l-.516 2.625c-.187 1-.547 2.188-2 2.188-.422 0-.734-.188-.937-.438C.953-.969.906-1.25.906-1.53s.047-.594.11-.875L1.53-5.11c.063-.25.203-.375.563-.391l.219-.016c.046 0 .078-.03.078-.078l.046-.172-.03-.015c-.391 0-.75.015-1.094.015S.64-5.78.234-5.78l-.03.015-.032.172c0 .047.031.078.062.078l.22.016c.28.016.405.078.405.266 0 .046 0 .078-.015.125l-.578 3a3 3 0 0 0-.063.625c0 1.28.953 1.578 1.625 1.578m0 0"/><path id="b" d="M.438-3.344c0 .156.14.281.28.281.126 0 .345-.124.345-.28 0-.063-.016-.11-.032-.157-.015-.047-.062-.11-.062-.172 0-.172.187-.437.703-.437.266 0 .625.187.625.875 0 .453-.156.828-.578 1.25l-.532.515C.485-.75.375-.406.375.016c0 0 .36-.016.594-.016h1.25c.219 0 .547.016.547.016.093-.375.172-.922.172-1.125-.032-.047-.126-.047-.204-.047-.125.515-.25.687-.5.687H.97c0-.343.484-.828.531-.86l.719-.687c.406-.39.703-.718.703-1.25 0-.78-.625-1.093-1.203-1.093-.797 0-1.281.593-1.281 1.015m0 0"/><path id="c" d="M2.063-.875v-2.469c0-.437 0-.875.015-.969 0-.03-.015-.03-.047-.03-.39.25-.765.421-1.39.718.015.078.03.14.109.188.328-.141.484-.172.61-.172.124 0 .14.172.14.406v2.328c0 .594-.187.625-.687.656-.047.047-.047.188 0 .235C1.156 0 1.422 0 1.813 0c.343 0 .515 0 .859.016.047-.047.047-.188 0-.235-.5-.031-.61-.062-.61-.656m0 0"/><path id="d" d="M1.531-4.11c.313 0 .594.188.594.641 0 .36-.406.906-1.125 1.016l.047.219h.344c.406 0 .937.109.937.906 0 .953-.64 1.156-.89 1.156-.36 0-.438-.172-.516-.297C.844-.579.75-.656.609-.656c-.14 0-.296.14-.296.25 0 .281.593.484 1.03.484.845 0 1.61-.562 1.61-1.5 0-.781-.594-1.062-1.015-1.125v-.015c.578-.282.75-.579.75-.954 0-.218-.047-.39-.22-.562-.155-.156-.405-.281-.78-.281-1.047 0-1.36.687-1.36.922 0 .109.078.25.25.25.25 0 .281-.235.281-.376 0-.453.485-.546.672-.546m0 0"/><path id="h" d="M2.047-4.922q1.828.002 1.828 1.234c0 .637-.352 1.024-1.047 1.157v.015q1.156.158 1.156 1.141a1.2 1.2 0 0 1-.468.984Q2.998.001 2.094 0H.328v-.062q-.001-.2.25-.266l.297-.063v-4.156l-.437-.11q-.111-.011-.11-.077 0-.06.094-.188ZM2.016-.406c.437 0 .77-.086 1-.266a.88.88 0 0 0 .312-.703A.8.8 0 0 0 3-2.047q-.328-.248-.937-.25H1.5v1.89Zm-.047-2.266q.622 0 .968-.281.296-.234.297-.656-.001-.921-1.25-.922H1.5v1.86Zm0 0"/><clipPath id="e"><path d="M6 228h1v11.273H6Zm0 0"/></clipPath><clipPath id="f"><path d="M0 238h13v1.273H0Zm0 0"/></clipPath></defs><path fill="none" stroke="#000" stroke-miterlimit="10" stroke-width=".79385982" d="M99.25 133.758c0-8.766-7.105-15.867-15.871-15.867-8.762 0-15.867 7.101-15.867 15.867 0 8.762 7.105 15.867 15.867 15.867 8.766 0 15.871-7.105 15.871-15.867Zm0 0"/><path fill="none" stroke="#000" stroke-miterlimit="10" stroke-width=".39742794" d="M92.414 111.816v14.332H78.582"/><path fill="none" stroke="#000" stroke-miterlimit="10" stroke-width=".79385982" d="M78.582 122.887v5.98m0 2.172v5.434m0 2.175v5.98"/><path fill="none" stroke="#000" stroke-miterlimit="10" stroke-width=".39742794" d="M78.582 133.758h14.031m-14.031 7.61h13.832v14.327"/><path fill="none" stroke="#000" stroke-miterlimit="10" stroke-width=".79385982" d="M75.262 125.95v15.616"/><path d="M86.043 133.758v2.277l-5.09-2.277 5.09-2.278Zm0 0"/><path fill="none" stroke="#000" stroke-miterlimit="10" stroke-width=".39742794" d="M75.262 141.367H64.547M92.414 133.758V155.5"/><path stroke="#000" stroke-miterlimit="10" stroke-width=".39742794" d="M93.523 141.367c0-.613-.496-1.105-1.109-1.105a1.104 1.104 0 1 0 0 2.21c.613 0 1.11-.495 1.11-1.105Zm0 0"/><path fill="none" stroke="#000" stroke-miterlimit="10" stroke-width=".39742794" d="M64.746 141.367h-29.21m0 0H6.323v28.004m0 31.621v28.004"/><path stroke="#000" stroke-miterlimit="10" stroke-width=".39742794" d="M7.906 141.367a1.58 1.58 0 1 0-3.16 0c0 .871.707 1.582 1.578 1.582.875 0 1.582-.71 1.582-1.582Zm0 0"/><path fill="none" stroke="#000" stroke-miterlimit="10" stroke-width=".79385982" d="M.395 200.992v-31.62h11.859v31.62Zm0 0"/><path stroke="#000" stroke-miterlimit="10" stroke-width=".39742794" d="M7.906 228.996a1.58 1.58 0 1 0-3.159.003 1.58 1.58 0 0 0 3.16-.003Zm0 0"/><use xlink:href="#a" x="14.456" y="187.324"/><use xlink:href="#b" x="19.716" y="189.2"/><path fill="none" stroke="#000" stroke-miterlimit="10" stroke-width=".39742794" d="M6.324 141.367v-14.605m0 0V98.758m0-31.625V53.734"/><path fill="none" stroke="#000" stroke-miterlimit="10" stroke-width=".79385982" d="M12.254 67.133v31.625H.394V67.133Zm0 0"/><use xlink:href="#a" x="14.456" y="85.09"/><use xlink:href="#c" x="19.716" y="86.966"/><path fill="none" stroke="#000" stroke-miterlimit="10" stroke-width=".39742794" d="M92.414 112.016V98.617m0-31.625V46.293m0 0v-7.3"/><path fill="none" stroke="#000" stroke-miterlimit="10" stroke-width=".79385982" d="M98.344 66.992v31.625h-11.86V66.992Zm0 0"/><use xlink:href="#a" x="100.546" y="84.95"/><use xlink:href="#d" x="105.806" y="86.825"/><path stroke="#000" stroke-miterlimit="10" stroke-width=".39742794" d="M93.996 38.992a1.58 1.58 0 1 0-3.16-.003 1.58 1.58 0 0 0 3.16.003Zm0 0"/><path fill="none" stroke="#000" stroke-miterlimit="10" stroke-width=".39742794" d="M6.324 228.996h86.09V155.5M6.324 53.734V38.992h86.09"/><g clip-path="url(#e)"><path fill="none" stroke="#000" stroke-miterlimit="10" stroke-width=".39742794" d="M6.324 228.996v9.883"/></g><g clip-path="url(#f)"><path fill="none" stroke="#000" stroke-linecap="round" stroke-miterlimit="10" stroke-width=".79385982" d="M.395 238.879h11.859"/></g><path fill="none" stroke="#000" stroke-miterlimit="10" stroke-width=".39742794" d="M92.414 38.992V28.035m0 0V17.082"/><path fill="#FFF" stroke="#000" stroke-miterlimit="10" stroke-width=".39742794" d="M93.996 17.082c0-.871-.707-1.582-1.582-1.582a1.582 1.582 0 0 0 0 3.164 1.58 1.58 0 0 0 1.582-1.582Zm0 0"/><use xlink:href="#g" x="87.652" y="8.812"/><use xlink:href="#h" x="92.403" y="10.687"/></svg>