<svg xmlns="http://www.w3.org/2000/svg" xmlns:xlink="http://www.w3.org/1999/xlink" width="226.772" height="143.272"><defs><path id="a" d="M1.813.094c1.765 0 2.375-1.14 2.687-2.719l.484-2.453c.032-.25.188-.39.547-.422l.219-.016c.047 0 .078-.03.078-.062l.047-.172-.016-.016c-.406 0-.75.016-.953.016s-.531-.016-.937-.016l-.016.016-.031.172c-.016.031.015.062.047.062l.234.016c.281.016.406.11.406.297 0 .031-.015.078-.03.125l-.5 2.61c-.204 1-.548 2.187-2.016 2.187-.407 0-.72-.188-.922-.438-.188-.25-.235-.515-.235-.812 0-.282.047-.578.11-.875L1.53-5.11c.063-.25.203-.36.563-.391l.219-.016c.046 0 .062-.03.078-.062l.03-.172-.015-.016c-.406 0-.75.016-1.094.016-.343 0-.671-.016-1.078-.016l-.03.016-.032.172c0 .031.031.062.062.062l.22.016c.28.016.405.094.405.281 0 .032 0 .078-.015.11l-.578 3a3 3 0 0 0-.063.625c0 1.28.953 1.578 1.61 1.578m0 0"/><path id="b" d="M2-2.578h-.64V-3.86c0-.313.077-.453.468-.453h.531c.547 0 .657.28.813.765a.4.4 0 0 0 .234-.031c-.031-.297-.14-.985-.156-1.031a.034.034 0 0 0-.031-.032c-.125.032-.172.032-.344.032H1.047c-.219 0-.625 0-.922-.016-.047.047-.047.203 0 .234.5.032.625.063.625.657v2.859c0 .594-.125.625-.625.656-.047.047-.047.188 0 .235C.391 0 .828 0 1.063 0h1.53c.345 0 .907.016.907.016.11-.36.219-.828.266-1.188a.33.33 0 0 0-.25-.047c-.141.516-.391.938-.938.938H1.75c-.297 0-.39-.11-.39-.453v-1.578H2c.61 0 .64.171.656.484.047.047.188.047.235 0 0-.172-.016-.375-.016-.625 0-.203.016-.438.016-.61-.047-.046-.188-.046-.235 0-.015.391-.047.485-.656.485m0 0"/><path id="f" d="m1.11-.562.39-1.032c.031-.093.078-.125.25-.125h1.5l.422 1.203c.078.25-.188.266-.531.297-.047.047-.047.188 0 .235C3.406 0 3.797 0 4.078 0c.297 0 .563 0 .813.016.046-.047.046-.188 0-.235-.282-.031-.516-.047-.641-.39L2.781-4.703c-.11.062-.297.14-.39.14L.766-.733C.578-.281.359-.25.046-.22 0-.172 0-.03.047.016.235 0 .47 0 .689 0c.296 0 .64 0 .906.016.047-.047.047-.188 0-.235C1.328-.25 1-.266 1.109-.562m.765-1.454c-.156 0-.203-.03-.172-.093l.719-1.86h.047l.672 1.953Zm0 0"/><path id="c" d="M2.594-6.156v.078c0 .156-.102.262-.297.312l-.422.079v5.203l.61.125q.123.017.124.093 0 .048-.093.266H.422a.16.16 0 0 1-.016-.078Q.404-.324.72-.406l.375-.078v-5.203l-.547-.125C.46-5.82.422-5.852.422-5.906q0-.075.094-.25Zm0 0"/><path id="d" d="M3.422-.422q.545 0 .984-.187l.282-1.188a.6.6 0 0 1 .203-.031c.156 0 .234.133.234.39l-.047.97Q4.375.11 3.25.108q-1.19 0-1.906-.703C.758-1.133.469-1.954.469-3.047c0-1.05.32-1.867.969-2.453.55-.508 1.218-.766 2-.766q.996.001 1.687.407.047.645.047.937 0 .391-.281.39a.5.5 0 0 1-.188-.03L4.5-5.453a1.9 1.9 0 0 0-1.062-.297q-.939 0-1.5.61c-.43.46-.641 1.124-.641 2q-.001 1.375.625 2.078c.375.43.875.64 1.5.64m0 0"/><path id="e" d="M2.031-.578V-5l-1.344.266a1 1 0 0 1-.015-.188c0-.133.07-.226.219-.281l1.468-.594h.438v5.219l1.094.172q.14.016.14.11-.002.08-.11.296H.86v-.078q0-.311.282-.36Zm0 0"/><path id="g" d="M-.031 1.781c-.063.063-.063.219 0 .297h1.437V3.5c.063.078.219.078.297 0V2.078h1.422c.078-.078.078-.234 0-.297H1.703V.344C1.625.28 1.47.28 1.406.344V1.78Zm0 0"/><clipPath id="h"><path d="M53 132h2v10.547h-2Zm0 0"/></clipPath><clipPath id="i"><path d="M47 141h14v1.547H47Zm0 0"/></clipPath></defs><path fill="none" stroke="#000" stroke-miterlimit="10" stroke-width=".39698106000000005" d="M14.64 31.875v82.746m0-100.406h19.676m0 0h64.891m27.64 0h64.891m0 0h19.676"/><path stroke="#000" stroke-miterlimit="10" stroke-width=".39698106000000005" d="M14.64 110.426h-1.976l1.977 4.195 1.972-4.195Zm0 0"/><use xlink:href="#a" x="2.443" y="75.19"/><use xlink:href="#b" x="7.189" y="77.063"/><path fill="#FFF" stroke="#000" stroke-miterlimit="10" stroke-width=".39698106000000005" d="M16.219 14.215a1.579 1.579 0 1 0-3.158.001 1.579 1.579 0 0 0 3.158-.001Zm0 0"/><path stroke="#000" stroke-miterlimit="10" stroke-width=".39698106000000005" d="M55.574 14.215a1.58 1.58 0 0 0-3.16 0 1.58 1.58 0 0 0 3.16 0Zm0 0"/><path fill="none" stroke="#000" stroke-miterlimit="10" stroke-width=".7929671800000001" d="M99.207.395h27.64v27.64h-27.64Zm0 0"/><use xlink:href="#c" x="106.546" y="17.294"/><use xlink:href="#d" x="109.445" y="17.294"/><use xlink:href="#e" x="115.048" y="17.294"/><path stroke="#000" stroke-miterlimit="10" stroke-width=".39698106000000005" d="M173.64 14.215a1.58 1.58 0 0 0-3.16 0 1.58 1.58 0 0 0 3.16 0Zm0 0"/><path stroke="#000" stroke-miterlimit="10" stroke-width=".39698106000000005" d="M173.64 14.215a1.58 1.58 0 0 0-3.16 0 1.58 1.58 0 0 0 3.16 0Zm0 0"/><path fill="#FFF" stroke="#000" stroke-miterlimit="10" stroke-width=".39698106000000005" d="M212.996 14.215a1.58 1.58 0 0 0-3.16 0 1.58 1.58 0 0 0 3.16 0Zm0 0"/><path fill="none" stroke="#000" stroke-miterlimit="10" stroke-width=".39698106000000005" d="M14.64 132.281h19.676m0 0h78.711m0 0h78.711m0 0h19.676"/><path fill="#FFF" stroke="#000" stroke-miterlimit="10" stroke-width=".39698106000000005" d="M16.219 132.281a1.58 1.58 0 0 0-1.578-1.582 1.58 1.58 0 0 0 0 3.16c.87 0 1.578-.707 1.578-1.578Zm0 0"/><path stroke="#000" stroke-miterlimit="10" stroke-width=".39698106000000005" d="M55.574 132.281a1.58 1.58 0 1 0-3.159-.005 1.58 1.58 0 0 0 3.16.005ZM173.64 132.281a1.58 1.58 0 1 0-3.159-.005 1.58 1.58 0 0 0 3.16.005Zm0 0"/><path fill="#FFF" stroke="#000" stroke-miterlimit="10" stroke-width=".39698106000000005" d="M212.996 132.281a1.58 1.58 0 1 0-3.16-.003 1.58 1.58 0 0 0 3.16.003Zm0 0"/><path fill="none" stroke="#000" stroke-miterlimit="10" stroke-width=".39698106000000005" d="M211.414 31.875v82.746"/><path stroke="#000" stroke-miterlimit="10" stroke-width=".39698106000000005" d="M211.414 110.426h-1.973l1.973 4.195 1.977-4.195Zm0 0"/><use xlink:href="#a" x="214.014" y="75.19"/><use xlink:href="#f" x="218.76" y="77.063"/><path fill="none" stroke="#000" stroke-miterlimit="10" stroke-width=".39698106000000005" d="M53.996 14.215v55.082m0 7.898v55.086"/><path fill="none" stroke="#000" stroke-linecap="square" stroke-miterlimit="10" stroke-width=".7929671800000001" d="M63.867 69.297v2.371H44.125v-2.371h19.742"/><path stroke="#000" stroke-linecap="square" stroke-miterlimit="10" stroke-width=".7929671800000001" d="M63.867 77.195v-2.367H44.125v2.367h19.742"/><use xlink:href="#g" x="58.371" y="64.656"/><g clip-path="url(#h)"><path fill="none" stroke="#000" stroke-miterlimit="10" stroke-width=".39698106000000005" d="M53.996 132.281v9.871"/></g><g clip-path="url(#i)"><path fill="none" stroke="#000" stroke-linecap="round" stroke-miterlimit="10" stroke-width=".7929671800000001" d="M48.07 142.152h11.848"/></g><path fill="none" stroke="#000" stroke-miterlimit="10" stroke-width=".39698106000000005" d="M172.062 14.215v55.082m0 7.898v55.086"/><path fill="none" stroke="#000" stroke-miterlimit="10" stroke-width=".7929671800000001" d="M183.906 69.297h-23.691m23.691 7.898h-23.691"/><path fill="none" stroke="#000" stroke-miterlimit="10" stroke-width=".39698106000000005" d="M113.027 28.035v52.121m0 0v52.125"/><path stroke="#000" stroke-miterlimit="10" stroke-width=".39698106000000005" d="M114.605 132.281a1.58 1.58 0 0 0-1.578-1.582 1.58 1.58 0 0 0 0 3.16c.871 0 1.578-.707 1.578-1.578Zm0 0"/></svg>