<svg xmlns="http://www.w3.org/2000/svg" xmlns:xlink="http://www.w3.org/1999/xlink" width="227.28" height="144.457"><defs><path id="c" d="M2.484-3.031h1.563v.469H2.484v1.671h-.5v-1.671H.422v-.47h1.562v-1.655h.5Zm0 0"/><path id="j" d="M3.64-5.656v-.016H1.204l-.203 1a.46.46 0 0 1-.203.047q-.251 0-.25-.39 0-.373.062-1.157h3.907a.53.53 0 0 1 .093.297.5.5 0 0 1-.093.281L1.344-.562v.015h2.765l.22-1.015a.7.7 0 0 1 .218-.032q.217 0 .219.36c0 .218-.028.632-.079 1.234H.438Q.28-.06.282-.281q0-.123.063-.235Zm0 0"/><path id="k" d="M4.5-6.172q.062.751.063 1.063c0 .261-.086.39-.25.39a.5.5 0 0 1-.188-.031l-.219-.937H1.875v2.437h1.984v.5H1.875v2.266l.703.125q.124.017.125.093 0 .048-.094.266H.422a.16.16 0 0 1-.016-.078Q.404-.324.72-.406l.375-.078v-5.203l-.547-.125c-.086-.02-.125-.055-.125-.11q0-.075.094-.25Zm0 0"/><path id="l" d="M2.953-2.469H.547V-3h2.406Zm0 0"/><path id="m" d="m4.484-.484-.578-1.641H1.688l-.594 1.64.672.126q.124.017.125.093 0 .066-.094.266H-.078a.2.2 0 0 1-.016-.078Q-.096-.342.22-.406l.25-.063L2.64-6.172l.562-.062L5.343-.47l.391.11q.124.034.125.093 0 .048-.093.266H3.859a.16.16 0 0 1-.015-.078q-.002-.246.297-.328Zm-2.64-2.11h1.89l-.921-2.61h-.016Zm0 0"/><path id="n" d="m7.094-.469.531.125q.124.017.125.11A.35.35 0 0 1 7.656 0h-1.89a.1.1 0 0 1-.016-.062c0-.133.094-.235.281-.297l.328-.11V-2.75c0-.695-.289-1.047-.859-1.047q-.674.002-1.187.485.046.315.046.515v2.328l.532.125q.124.017.125.11A.4.4 0 0 1 4.937 0H3.032v-.062c0-.133.094-.235.281-.297l.329-.11V-2.75c0-.695-.29-1.047-.86-1.047-.437 0-.82.149-1.14.438v2.89l.53.125q.125.017.126.11A.35.35 0 0 1 2.203 0H.313a.1.1 0 0 1-.016-.062c0-.133.094-.235.281-.297l.328-.11v-3.328l-.64-.094a.1.1 0 0 1-.016-.062q0-.246.328-.281l1.063-.11-.063.594h.031q.61-.64 1.422-.64.828 0 1.156.702.64-.703 1.532-.703.638 0 1 .422.375.41.375 1.172Zm0 0"/><path id="o" d="M.86 1.328v-5.125L.202-3.89v-.062q0-.246.328-.281l1.047-.11-.047.594h.032q.527-.64 1.312-.64.762 0 1.219.546.452.55.453 1.516 0 1.188-.61 1.797-.562.579-1.593.578c-.25 0-.508-.04-.766-.11v1.391l.547.11q.124.03.125.125a.3.3 0 0 1-.094.218H.266A.13.13 0 0 1 .25 1.72q0-.205.281-.282Zm1.734-5.14q-.581 0-1.016.421v2.672q.358.282.844.282 1.373 0 1.375-1.844 0-.733-.328-1.125-.314-.405-.875-.406m0 0"/><path id="p" d="M.406-.375a.5.5 0 0 1 .125-.36.48.48 0 0 1 .36-.14c.132 0 .25.047.343.14a.47.47 0 0 1 .157.36.47.47 0 0 1-.157.36.5.5 0 0 1-.343.124.52.52 0 0 1-.36-.125.5.5 0 0 1-.125-.359m0 0"/><path id="q" d="M2.563-6.172q2.28 0 2.28 1.547 0 1.208-1.312 1.453v.016Q4.998-2.95 5-1.72q0 .767-.61 1.235Q3.764 0 2.626 0H.422a.16.16 0 0 1-.016-.078Q.404-.324.72-.406l.375-.078v-5.203l-.547-.125c-.086-.02-.125-.055-.125-.11q0-.075.094-.25ZM2.53-.5q.811.001 1.235-.344c.27-.219.406-.508.406-.875q0-.527-.422-.843-.41-.312-1.172-.313h-.703V-.5ZM2.47-3.36q.78 0 1.203-.328.375-.311.375-.828 0-1.155-1.578-1.156h-.594v2.313Zm0 0"/><path id="r" d="M3.266-.39q.92 0 1.453-.72c.351-.476.531-1.132.531-1.968q0-1.248-.562-1.969-.552-.733-1.454-.734-.907.001-1.421.734-.516.72-.516 1.969 0 1.254.531 1.969.528.719 1.438.718m-.047.5q-1.22 0-1.969-.813Q.467-1.56.469-3.078q0-1.512.844-2.375.761-.827 2.015-.828 1.247 0 1.985.828c.507.562.765 1.355.765 2.375q0 1.501-.828 2.375-.784.813-2.031.812m0 0"/><path id="s" d="M6.266-6.172c.007.031.015.059.015.078q0 .236-.312.313l-.422.093V0h-.531l-3.36-5.187h-.015v4.703l.609.125q.124.017.125.093 0 .048-.094.266H.421a.16.16 0 0 1-.015-.078Q.404-.324.72-.406l.375-.078v-5.203l-.547-.125c-.086-.02-.125-.055-.125-.11q0-.075.094-.25h1.422L5-1.437h.016v-4.25l-.563-.125c-.086-.02-.125-.055-.125-.11q-.001-.075.11-.25Zm0 0"/><clipPath id="a"><path d="M.066 7H4v4H.066Zm0 0"/></clipPath><clipPath id="b"><path d="M.066 1H10v16H.066Zm0 0"/></clipPath><clipPath id="d"><path d="M223 7h3.496v4H223Zm0 0"/></clipPath><clipPath id="e"><path d="M217 1h9.496v16H217Zm0 0"/></clipPath><clipPath id="f"><path d="M223 119h3.496v5H223Zm0 0"/></clipPath><clipPath id="g"><path d="M217 114h9.496v15H217Zm0 0"/></clipPath><clipPath id="h"><path d="M125 133h1v10.918h-1Zm0 0"/></clipPath><clipPath id="i"><path d="M119 143h13v.918h-13Zm0 0"/></clipPath></defs><path fill="none" stroke="#000" stroke-miterlimit="10" stroke-width=".39750774000000005" d="M1.848 8.875H26.07m0 0h24.227"/><g clip-path="url(#a)"><path fill="#FFF" d="M3.426 8.875c0-.871-.707-1.582-1.578-1.582a1.583 1.583 0 0 0 0 3.164 1.58 1.58 0 0 0 1.578-1.582m0 0"/></g><g clip-path="url(#b)"><path fill="none" stroke="#000" stroke-miterlimit="10" stroke-width=".39750774000000005" d="M3.426 8.875c0-.871-.707-1.582-1.578-1.582a1.583 1.583 0 0 0 0 3.164 1.58 1.58 0 0 0 1.578-1.582Zm0 0"/></g><path stroke="#000" stroke-miterlimit="10" stroke-width=".39750774000000005" d="M51.879 8.875a1.583 1.583 0 1 0-3.166.002 1.583 1.583 0 0 0 3.166-.002Zm0 0"/><path fill="none" stroke="#000" stroke-linejoin="bevel" stroke-miterlimit="10" stroke-width=".79401922" d="M65.398 16.957c2.813 0 5.09 1.93 5.09 4.305 0 2.379-2.277 4.308-5.09 4.308 2.813 0 5.09 1.926 5.09 4.305s-2.277 4.305-5.09 4.305c2.813 0 5.09 1.93 5.09 4.304 0 2.38-2.277 4.305-5.09 4.305 2.813 0 5.09 1.93 5.09 4.309 0 2.375-2.277 4.304-5.09 4.304 2.813 0 5.09 1.926 5.09 4.305s-2.277 4.305-5.09 4.305c2.813 0 5.09 1.93 5.09 4.308 0 2.375-2.277 4.305-5.09 4.305M86.066 68.625c-2.808 0-5.086-1.93-5.086-4.305 0-2.379 2.278-4.308 5.086-4.308-2.808 0-5.086-1.926-5.086-4.305s2.278-4.305 5.086-4.305c-2.808 0-5.086-1.93-5.086-4.304 0-2.38 2.278-4.309 5.086-4.309-2.808 0-5.086-1.926-5.086-4.305 0-2.375 2.278-4.304 5.086-4.304-2.808 0-5.086-1.926-5.086-4.305s2.278-4.305 5.086-4.305c-2.808 0-5.086-1.93-5.086-4.308 0-2.375 2.278-4.305 5.086-4.305"/><path fill="none" stroke="#000" stroke-miterlimit="10" stroke-width=".39750774000000005" d="M50.297 8.875h15.262v8.48m0 50.872v8.48H50.297m50.875-67.832H85.906v8.48m0 50.872v8.48h15.266"/><path fill="none" stroke="#000" stroke-miterlimit="10" stroke-width=".79401922" d="M77.004 59.75V25.832M74.46 59.75V25.832"/><path fill="none" stroke="#000" stroke-miterlimit="10" stroke-width=".39750774000000005" d="M50.297 8.875v30.523m0 6.786V88.82m0 0v12.114"/><path fill="none" stroke="#000" stroke-miterlimit="10" stroke-width=".79401922" d="M40.121 46.184h20.352M40.12 39.398h20.352M60.473 52.965 43.375 35.867"/><path stroke="#000" stroke-miterlimit="10" stroke-width=".7940032800000001" d="m40.684 33.18 1.011 4.086 3.075-3.075Zm0 0"/><path stroke="#000" stroke-miterlimit="10" stroke-width=".39750774000000005" d="M51.879 76.707a1.58 1.58 0 0 0-1.582-1.582 1.583 1.583 0 1 0 1.582 1.582Zm0 0"/><path fill="#FFF" stroke="#000" stroke-miterlimit="10" stroke-width=".39750774000000005" d="M51.879 100.934a1.58 1.58 0 0 0-1.582-1.582 1.58 1.58 0 1 0 0 3.16 1.58 1.58 0 0 0 1.582-1.578Zm0 0"/><use xlink:href="#c" x="48.063" y="108.787"/><path fill="none" stroke="#000" stroke-miterlimit="10" stroke-width=".39750774000000005" d="M101.172 8.875h17.441m13.567 0h17.441"/><path fill="none" stroke="#000" stroke-miterlimit="10" stroke-width=".79401922" d="M132.18 8.875 118.613.398v16.957Zm0 0"/><path fill="none" stroke="#000" stroke-miterlimit="10" stroke-width=".39750774000000005" d="M132.18 8.875h-13.567"/><path fill="none" stroke="#000" stroke-miterlimit="10" stroke-width=".79401922" d="M132.18 17.355V.398"/><path fill="none" stroke="#000" stroke-linejoin="bevel" stroke-miterlimit="10" stroke-width=".79401922" d="M164.723 16.957c2.812 0 5.09 1.93 5.09 4.305 0 2.379-2.278 4.308-5.09 4.308 2.812 0 5.09 1.926 5.09 4.305s-2.278 4.305-5.09 4.305c2.812 0 5.09 1.93 5.09 4.304 0 2.38-2.278 4.305-5.09 4.305 2.812 0 5.09 1.93 5.09 4.309 0 2.375-2.278 4.304-5.09 4.304 2.812 0 5.09 1.926 5.09 4.305s-2.278 4.305-5.09 4.305c2.812 0 5.09 1.93 5.09 4.308 0 2.375-2.278 4.305-5.09 4.305M185.39 68.625c-2.808 0-5.085-1.93-5.085-4.305 0-2.379 2.277-4.308 5.086-4.308-2.809 0-5.086-1.926-5.086-4.305s2.277-4.305 5.086-4.305c-2.809 0-5.086-1.93-5.086-4.304 0-2.38 2.277-4.309 5.086-4.309-2.809 0-5.086-1.926-5.086-4.305 0-2.375 2.277-4.304 5.086-4.304-2.809 0-5.086-1.926-5.086-4.305s2.277-4.305 5.086-4.305c-2.809 0-5.086-1.93-5.086-4.308 0-2.375 2.277-4.305 5.086-4.305"/><path fill="none" stroke="#000" stroke-miterlimit="10" stroke-width=".39750774000000005" d="M149.621 8.875h15.262v8.48m0 50.872v8.48H149.62m50.871-67.832H185.23v8.48m0 50.872v8.48h15.262"/><path fill="none" stroke="#000" stroke-miterlimit="10" stroke-width=".79401922" d="M176.328 59.75V25.832m-2.543 33.918V25.832"/><path fill="none" stroke="#000" stroke-miterlimit="10" stroke-width=".39750774000000005" d="M101.172 76.707h17.441m13.567 0h17.441"/><path fill="none" stroke="#000" stroke-miterlimit="10" stroke-width=".79401922" d="m132.18 76.707-13.567-8.48v16.957Zm0 0"/><path fill="none" stroke="#000" stroke-miterlimit="10" stroke-width=".39750774000000005" d="M132.18 76.707h-13.567"/><path fill="none" stroke="#000" stroke-miterlimit="10" stroke-width=".79401922" d="M132.18 85.184V68.227"/><path fill="none" stroke="#000" stroke-miterlimit="10" stroke-width=".39750774000000005" d="m101.172 8.875 8.168 11.437m7.887 11.04 8.168 11.437"/><path fill="none" stroke="#000" stroke-miterlimit="10" stroke-width=".79401922" d="m109.34 20.312 14.785 6.114-13.8 9.855Zm0 0"/><path fill="none" stroke="#000" stroke-miterlimit="10" stroke-width=".39750774000000005" d="m109.34 20.312 7.887 11.04"/><path fill="none" stroke="#000" stroke-miterlimit="10" stroke-width=".79401922" d="m102.441 25.242 13.797-9.855"/><path stroke="#000" stroke-miterlimit="10" stroke-width=".39750774000000005" d="M102.75 8.875c0-.871-.707-1.582-1.578-1.582a1.583 1.583 0 0 0 0 3.164 1.58 1.58 0 0 0 1.578-1.582Zm0 0"/><path fill="none" stroke="#000" stroke-miterlimit="10" stroke-width=".39750774000000005" d="m125.395 42.79 12.113 16.96m0 0 12.113 16.957"/><path stroke="#000" stroke-miterlimit="10" stroke-width=".39750774000000005" d="M151.203 76.707a1.583 1.583 0 1 0-3.166.002 1.583 1.583 0 0 0 3.166-.002Zm0 0"/><path fill="none" stroke="#000" stroke-miterlimit="10" stroke-width=".39750774000000005" d="m101.172 76.707 8.168-11.437m7.887-11.04 8.168-11.44"/><path fill="none" stroke="#000" stroke-miterlimit="10" stroke-width=".79401922" d="m109.34 65.27.984-15.97 13.801 9.856Zm0 0"/><path fill="none" stroke="#000" stroke-miterlimit="10" stroke-width=".39750774000000005" d="m109.34 65.27 7.887-11.04"/><path fill="none" stroke="#000" stroke-miterlimit="10" stroke-width=".79401922" d="m116.238 70.195-13.797-9.855"/><path stroke="#000" stroke-miterlimit="10" stroke-width=".39750774000000005" d="M102.75 76.707a1.58 1.58 0 1 0-3.16 0c0 .871.707 1.582 1.582 1.582.871 0 1.578-.71 1.578-1.582Zm0 0"/><path fill="none" stroke="#000" stroke-miterlimit="10" stroke-width=".39750774000000005" d="m125.395 42.79 12.113-16.958m0 0L149.62 8.875"/><path stroke="#000" stroke-miterlimit="10" stroke-width=".39750774000000005" d="M151.203 8.875a1.583 1.583 0 1 0-3.162.002 1.583 1.583 0 0 0 3.162-.002Zm0 0"/><path fill="none" stroke="#000" stroke-miterlimit="10" stroke-width=".39750774000000005" d="M85.906 42.79h3.031m0 0h3.028v27.253m0 0v27.254h16.715m0 0h91.812v-20.59"/><path stroke="#000" stroke-miterlimit="10" stroke-width=".39750774000000005" d="M87.488 42.79a1.58 1.58 0 1 0-3.159.002 1.58 1.58 0 0 0 3.16-.003ZM126.977 97.297a1.582 1.582 0 0 0-3.164 0 1.583 1.583 0 0 0 3.164 0Zm0 0"/><path fill="none" stroke="#000" stroke-miterlimit="10" stroke-width=".39750774000000005" d="M125.395 97.297v12.113m0 0v12.113h11.75m6.78 0h11.75V42.79h9.208m0 0"/><path fill="none" stroke="#000" stroke-miterlimit="10" stroke-width=".79401922" d="M137.145 111.348v20.351m6.78-20.351v20.351"/><path stroke="#000" stroke-miterlimit="10" stroke-width=".39750774000000005" d="M126.977 121.523a1.583 1.583 0 1 0-3.162.002 1.583 1.583 0 0 0 3.162-.002ZM157.258 121.523a1.58 1.58 0 1 0-3.16 0 1.58 1.58 0 1 0 3.16 0ZM166.465 42.79a1.58 1.58 0 0 0-1.582-1.58 1.58 1.58 0 1 0 0 3.161 1.58 1.58 0 0 0 1.582-1.582Zm0 0"/><path fill="none" stroke="#000" stroke-miterlimit="10" stroke-width=".39750774000000005" d="M200.492 8.875h12.113m0 0h12.114"/><g clip-path="url(#d)"><path fill="#FFF" d="M226.3 8.875a1.583 1.583 0 1 0-3.165.002 1.583 1.583 0 0 0 3.166-.002m0 0"/></g><g clip-path="url(#e)"><path fill="none" stroke="#000" stroke-miterlimit="10" stroke-width=".39750774000000005" d="M226.3 8.875a1.583 1.583 0 1 0-3.165.002 1.583 1.583 0 0 0 3.166-.002Zm0 0"/></g><path fill="none" stroke="#000" stroke-miterlimit="10" stroke-width=".39750774000000005" d="M155.676 121.523h34.523m0 0h34.52"/><g clip-path="url(#f)"><path fill="#FFF" d="M226.3 121.523a1.583 1.583 0 1 0-3.162.002 1.583 1.583 0 0 0 3.163-.002m0 0"/></g><g clip-path="url(#g)"><path fill="none" stroke="#000" stroke-miterlimit="10" stroke-width=".39750774000000005" d="M226.3 121.523a1.583 1.583 0 1 0-3.162.002 1.583 1.583 0 0 0 3.163-.002Zm0 0"/></g><path fill="none" stroke="#000" stroke-miterlimit="10" stroke-width=".39750774000000005" d="M125.395 121.523v6.055m0 0v6.059"/><g clip-path="url(#h)"><path fill="none" stroke="#000" stroke-miterlimit="10" stroke-width=".39750774000000005" d="M125.395 133.637v9.883"/></g><g clip-path="url(#i)"><path fill="none" stroke="#000" stroke-linecap="round" stroke-miterlimit="10" stroke-width=".79401922" d="M119.465 143.52h11.86"/></g><use xlink:href="#j" x="5.022" y="18.287"/><use xlink:href="#k" x="10.159" y="18.287"/><use xlink:href="#l" x="14.795" y="18.287"/><use xlink:href="#m" x="18.1" y="18.287"/><use xlink:href="#n" x="23.924" y="18.287"/><use xlink:href="#o" x="31.794" y="18.287"/><use xlink:href="#p" x="36.734" y="18.287"/><use xlink:href="#q" x="204.809" y="18.323"/><use xlink:href="#k" x="210.223" y="18.323"/><use xlink:href="#r" x="215.002" y="18.323"/><use xlink:href="#s" x="210.16" y="130.862"/><use xlink:href="#k" x="216.762" y="130.862"/></svg>