<svg xmlns="http://www.w3.org/2000/svg" width="113.388" height="85.041"><defs><clipPath id="a"><path d="M.328 9h112.125v66H.328Zm0 0"/></clipPath><clipPath id="b"><path d="M.328 0h112.125v65H.328Zm0 0"/></clipPath><clipPath id="c"><path d="M.328 19h112.125v65.094H.328Zm0 0"/></clipPath></defs><g clip-path="url(#a)"><path fill="#7F7F7F" fill-opacity=".5" d="M.328 28.668a787 787 0 0 0 1.129 2.945 271.168 271.168 0 0 0 1.125 2.875 170 170 0 0 0 1.129 2.739c.156.367.406.945.562 1.296.157.348.407.903.563 1.235.156.336.406.855.566 1.172.157.312.407.941.563 1.093.156.157.406.02.562.024h10.141c.156 0 .406.062.566 0 .157-.063.407-.238.563-.457s.406-.805.562-1.125c.157-.324.407-.86.563-1.2s.406-.902.562-1.261c.157-.356.41-.945.567-1.316a162 162 0 0 0 1.125-2.77c.156-.395.406-1.035.562-1.438.157-.402.41-1.05.567-1.457l.562-1.476c.156-.406.406-1.067.563-1.477l.562-1.476c.156-.407.41-1.059.567-1.461s.406-1.047.562-1.442a164.586 164.586 0 0 1 1.125-2.785 113 113 0 0 1 1.129-2.601c.156-.344.406-.883.563-1.211a38.537 38.537 0 0 1 1.129-2.207 25.566 25.566 0 0 1 1.125-1.875c.156-.235.406-.594.562-.801s.406-.524.562-.703c.157-.18.41-.445.567-.598s.406-.37.562-.492c.157-.125.407-.293.563-.387.156-.09.406-.21.562-.27a3.4 3.4 0 0 1 .567-.16c.156-.027.406-.05.562-.046s.406.035.563.07.406.117.562.184.41.199.567.296c.156.098.406.278.562.407s.406.36.563.515c.156.16.406.434.562.621.156.188.41.512.567.723.156.215.406.582.562.824.156.239.406.645.563.91a39 39 0 0 1 1.125 2.086c.16.309.41.825.566 1.157a74 74 0 0 1 1.125 2.507 154 154 0 0 1 1.129 2.72 271 271 0 0 1 1.125 2.866c.156.403.406 1.059.562 1.465l.567 1.477.562 1.48.563 1.469.562 1.457.567 1.43c.156.39.406 1.015.562 1.398.156.38.406.985.563 1.356.156.367.406.949.562 1.304s.41.91.567 1.25c.156.336.406.864.562 1.184.156.316.406.926.563 1.11.156.187.406.195.562.226s.406 0 .563 0h9.582c.156 0 .406.031.562 0 .156-.035.406-.059.563-.25.156-.188.406-.793.562-1.11.156-.32.406-.847.563-1.187.16-.336.41-.895.566-1.25s.406-.937.563-1.305c.156-.37.406-.976.562-1.36.156-.378.406-1.003.563-1.394.156-.394.41-1.03.566-1.433.156-.399.406-1.051.562-1.453.157-.407.407-1.063.563-1.473l.562-1.48.567-1.477.562-1.465.563-1.445c.156-.399.406-1.031.562-1.418s.41-1.004.567-1.383c.156-.375.406-.973.562-1.336s.406-.933.563-1.281.406-.895.562-1.227c.156-.328.406-.843.567-1.152.156-.313.406-.793.562-1.082s.406-.734.563-1c.156-.262.406-.668.562-.91.156-.239.406-.606.563-.82.156-.211.41-.536.566-.72a8.34 8.34 0 0 1 1.125-1.133c.156-.128.406-.308.563-.405s.41-.227.566-.293c.156-.067.406-.149.562-.184.157-.031.407-.062.563-.066s.406.02.562.047c.157.03.41.101.567.164.156.058.406.183.562.273s.407.266.563.387c.156.12.406.344.562.496a10.6 10.6 0 0 1 1.13 1.305c.156.207.406.566.562.8.156.239.406.637.562.899.156.261.406.699.567.984a44 44 0 0 1 1.125 2.211c.156.324.406.863.562 1.211a113.367 113.367 0 0 1 1.129 2.602 166 166 0 0 1 1.125 2.785l.563 1.441.566 1.465c.156.406.406 1.066.562 1.477.157.406.407 1.066.563 1.476s.406 1.067.562 1.473l.567 1.46a277 277 0 0 0 1.125 2.84c.156.383.406.993.562 1.364.157.37.41.957.567 1.316.156.356.406.918.562 1.262.157.34.407.871.563 1.195.156.32.406.91.562 1.125s.407.371.567.434c.156.058.406 0 .562 0h9.578c.157 0 .407.004.563 0 .156-.008.406.113.562-.043.157-.16.407-.785.563-1.098a55 55 0 0 0 1.129-2.41 107 107 0 0 0 1.125-2.644c.156-.38.566-1.391.566-1.391v15.172s-.41-1.012-.566-1.39a95 95 0 0 0-1.688-3.884c-.156-.336-.406-.859-.566-1.172-.156-.316-.406-.94-.563-1.097-.156-.16-.406-.04-.562-.043-.156-.008-.406 0-.563 0h-9.578c-.156 0-.406-.063-.562 0a1.34 1.34 0 0 0-.567.43c-.156.218-.406.804-.562 1.128a70 70 0 0 0-1.125 2.454c-.156.359-.41.945-.567 1.316a163 163 0 0 0-1.687 4.207c-.156.402-.41 1.05-.567 1.457-.156.406-.406 1.063-.562 1.473l-.563 1.48-.562 1.477c-.156.406-.41 1.058-.566 1.46-.157.403-.407 1.048-.563 1.442a178 178 0 0 1-1.125 2.79c-.156.374-.41.964-.566 1.327-.157.36-.407.926-.563 1.274a52.002 52.002 0 0 1-1.687 3.422c-.16.28-.41.722-.567.984-.156.258-.406.66-.562.894a15.98 15.98 0 0 1-1.125 1.508c-.157.18-.41.45-.567.602a9 9 0 0 1-.562.496 6 6 0 0 1-.563.383 5 5 0 0 1-.562.277c-.156.059-.41.133-.567.16-.156.032-.406.051-.562.047a3 3 0 0 1-.563-.066 4 4 0 0 1-.562-.18c-.156-.066-.41-.2-.566-.293a7 7 0 0 1-.563-.406 8 8 0 0 1-.562-.516 13 13 0 0 1-.563-.617c-.156-.187-.41-.508-.566-.723a21 21 0 0 1-1.125-1.73 38 38 0 0 1-1.125-2.078 53 53 0 0 1-1.13-2.38 105 105 0 0 1-1.124-2.62 126 126 0 0 1-1.13-2.801c-.155-.395-.405-1.04-.562-1.445-.156-.403-.406-1.059-.562-1.465-.156-.41-.41-1.067-.567-1.477s-.406-1.07-.562-1.476a594 594 0 0 0-1.125-2.93 274 274 0 0 0-1.129-2.828 120 120 0 0 0-1.125-2.664c-.156-.356-.406-.91-.566-1.25a85 85 0 0 0-.563-1.184c-.156-.32-.406-.926-.562-1.113-.157-.188-.407-.215-.563-.246-.156-.035-.406 0-.562 0h-9.582c-.157 0-.407-.031-.563 0s-.406.039-.562.223c-.157.187-.407.792-.563 1.113-.156.316-.406.844-.562 1.183-.157.336-.41.895-.567 1.246a110 110 0 0 0-1.125 2.665c-.156.382-.406 1.003-.562 1.398a183 183 0 0 0-1.13 2.883l-.562 1.472-.562 1.477-.567 1.477-.562 1.468c-.156.403-.406 1.047-.563 1.446-.156.398-.406 1.03-.562 1.418-.156.39-.41 1.004-.567 1.382a116 116 0 0 1-1.125 2.622c-.156.347-.406.894-.562 1.226a53 53 0 0 1-1.129 2.238c-.156.29-.406.735-.562 1-.157.266-.407.672-.563.914-.156.239-.406.606-.562.82-.157.216-.41.536-.567.723-.156.188-.406.465-.562.621a6.4 6.4 0 0 1-1.125.926c-.157.098-.41.227-.567.297a4 4 0 0 1-.562.18 3.5 3.5 0 0 1-.563.07 3.4 3.4 0 0 1-.562-.043 4 4 0 0 1-.567-.16 5 5 0 0 1-.562-.273 6 6 0 0 1-.563-.383 9 9 0 0 1-.562-.492 12 12 0 0 1-.567-.602c-.156-.18-.406-.492-.562-.703a18 18 0 0 1-.563-.8 30 30 0 0 1-.562-.891 37 37 0 0 1-1.129-2.051 52 52 0 0 1-1.125-2.352 112.523 112.523 0 0 1-1.129-2.598 166 166 0 0 1-1.125-2.785l-.562-1.441c-.157-.402-.41-1.055-.567-1.465-.156-.406-.406-1.062-.562-1.473l-.563-1.48-.562-1.473-.567-1.46a277 277 0 0 0-1.125-2.84c-.156-.383-.406-.993-.562-1.368-.156-.37-.41-.957-.567-1.316-.156-.356-.406-.918-.562-1.262-.156-.34-.406-.875-.563-1.195-.156-.324-.406-.91-.562-1.129a1.44 1.44 0 0 0-.563-.453c-.16-.063-.41 0-.566 0H7.09c-.156 0-.406-.004-.563 0-.156 0-.406-.137-.562.02-.156.156-.406.78-.563 1.097-.16.313-.41.836-.566 1.168-.156.336-.406.887-.563 1.238a107 107 0 0 0-1.125 2.64c-.156.384-.41 1-.566 1.392-.156.39-.406 1.027-.562 1.425s-.407 1.047-.563 1.45l-.562 1.468-.567 1.48Zm0 0"/></g><g clip-path="url(#b)"><path fill="none" stroke="#000" stroke-miterlimit="10" stroke-width="1.5762269" d="M.328 28.668a787 787 0 0 0 1.129 2.945 271.172 271.172 0 0 0 1.125 2.875 170 170 0 0 0 1.129 2.739c.156.367.406.945.562 1.296.157.348.407.903.563 1.235.156.336.406.855.566 1.172.157.312.407.941.563 1.093.156.157.406.02.562.024h10.141c.156 0 .406.062.566 0 .157-.063.407-.238.563-.457s.406-.805.562-1.125c.157-.324.407-.86.563-1.2s.406-.902.562-1.261c.157-.356.41-.945.567-1.317a162 162 0 0 0 1.125-2.769c.156-.395.406-1.035.562-1.438.157-.402.41-1.05.567-1.457l.562-1.476c.156-.406.406-1.067.563-1.477l.562-1.476c.156-.407.41-1.059.567-1.461s.406-1.047.562-1.442a164.602 164.602 0 0 1 1.125-2.785 113 113 0 0 1 1.129-2.601c.156-.344.406-.883.563-1.211a38.538 38.538 0 0 1 1.129-2.207 25.566 25.566 0 0 1 1.125-1.875c.156-.235.406-.594.562-.801s.406-.524.562-.703c.157-.18.41-.446.567-.598a6.034 6.034 0 0 1 1.125-.879c.156-.09.406-.21.562-.27a3.4 3.4 0 0 1 .567-.16c.156-.027.406-.05.562-.046s.406.035.563.07.406.117.562.184.41.199.567.296c.156.098.406.278.562.407s.406.36.563.515c.156.16.406.434.562.621.156.188.41.512.567.723.156.215.406.582.562.824.156.239.406.645.563.91a39 39 0 0 1 1.125 2.086c.16.309.41.825.566 1.157a74 74 0 0 1 1.125 2.507 154 154 0 0 1 1.129 2.72 271 271 0 0 1 1.125 2.866c.156.403.406 1.059.562 1.465l.567 1.477.562 1.48.563 1.469.562 1.457.567 1.43c.156.39.406 1.015.562 1.398.156.38.406.985.563 1.356.156.367.406.949.562 1.304s.41.91.567 1.25c.156.336.406.864.562 1.184.156.316.406.926.563 1.11.156.187.406.195.562.226s.406 0 .563 0h9.582c.156 0 .406.031.562 0 .156-.035.406-.059.563-.25.156-.188.406-.793.562-1.11.156-.32.406-.847.563-1.187.16-.336.41-.895.566-1.25s.406-.938.563-1.305c.156-.37.406-.976.562-1.36.156-.378.406-1.003.563-1.394.156-.394.41-1.03.566-1.433.156-.399.406-1.051.562-1.453.157-.407.407-1.063.563-1.473l.562-1.48.567-1.477.562-1.465.563-1.445c.156-.399.406-1.031.562-1.418s.41-1.004.567-1.383c.156-.375.406-.973.562-1.336s.406-.933.563-1.281.406-.895.562-1.227c.156-.328.406-.843.567-1.152.156-.313.406-.793.562-1.082s.406-.734.563-1c.156-.262.406-.668.562-.91.156-.239.406-.606.563-.82.156-.211.41-.536.566-.72a8.34 8.34 0 0 1 1.125-1.133c.156-.128.406-.308.563-.405s.41-.227.566-.293c.156-.067.406-.149.562-.184.157-.031.407-.062.563-.066s.406.02.562.047c.157.03.41.101.567.164.156.058.406.183.562.273s.407.266.563.387c.156.12.406.344.562.496a10.6 10.6 0 0 1 1.13 1.305c.156.207.406.566.562.8.156.239.406.637.562.899.157.261.407.699.567.984a44 44 0 0 1 1.125 2.211c.156.324.406.863.562 1.211a113.368 113.368 0 0 1 1.129 2.602 166 166 0 0 1 1.125 2.785l.563 1.441.566 1.465c.156.406.406 1.066.562 1.477.157.406.407 1.066.563 1.476s.406 1.067.562 1.473l.567 1.46a277 277 0 0 0 1.125 2.84c.156.383.406.993.562 1.364.157.37.41.957.567 1.316.156.356.406.918.562 1.262.157.34.407.871.563 1.195.156.32.406.91.562 1.125s.407.371.567.434c.156.058.406 0 .562 0h9.578c.157 0 .407.004.563 0 .156-.008.406.113.562-.043.157-.16.407-.785.563-1.098a55 55 0 0 0 1.129-2.41 107 107 0 0 0 1.125-2.644c.156-.38.566-1.391.566-1.391"/></g><g clip-path="url(#c)"><path fill="none" stroke="#000" stroke-miterlimit="10" stroke-width="1.5762269" d="m.328 55.426.567-1.48.562-1.47c.156-.402.406-1.05.563-1.449.156-.398.406-1.035.562-1.425s.41-1.008.566-1.391a117 117 0 0 1 1.125-2.64c.157-.352.407-.903.563-1.239.156-.332.406-.855.566-1.168.157-.316.407-.941.563-1.098.156-.156.406-.02.562-.02.157-.003.407 0 .563 0h9.578c.156 0 .406-.062.566 0 .157.063.407.235.563.454s.406.805.562 1.129a70 70 0 0 1 1.125 2.457c.157.36.41.945.567 1.316a175.685 175.685 0 0 1 1.125 2.773c.156.395.406 1.032.562 1.434l.567 1.461.562 1.473.563 1.48c.156.41.406 1.067.562 1.473a561.992 561.992 0 0 0 1.129 2.906 165.796 165.796 0 0 0 1.125 2.785 113 113 0 0 0 1.129 2.598c.156.344.406.887.563 1.211.156.328.406.836.562 1.14a36.842 36.842 0 0 0 1.129 2.05c.156.26.406.658.562.892.157.238.407.594.563.8.156.212.406.524.562.704s.41.45.567.602c.156.148.406.37.562.492.157.12.407.293.563.383s.406.214.562.273.41.129.567.16c.156.028.406.047.562.043a3.5 3.5 0 0 0 .563-.07 4 4 0 0 0 .562-.18c.156-.07.41-.2.567-.297a6.4 6.4 0 0 0 1.125-.926c.156-.156.406-.433.562-.62.156-.188.41-.508.567-.723s.406-.582.562-.82c.156-.243.406-.649.563-.915.156-.265.406-.71.562-1a55 55 0 0 0 1.129-2.238 83.755 83.755 0 0 0 1.125-2.512c.156-.363.406-.957.562-1.336.157-.378.41-.992.567-1.382.156-.387.406-1.02.562-1.418.157-.399.407-1.043.563-1.446l.562-1.468.567-1.477.562-1.477.563-1.472a182.622 182.622 0 0 1 1.129-2.883 119.86 119.86 0 0 1 1.687-4.063c.156-.351.41-.91.567-1.246.156-.34.406-.867.562-1.183.156-.32.406-.926.563-1.113.156-.184.406-.192.562-.223s.406 0 .563 0h9.582c.156 0 .406-.035.562 0 .156.031.406.058.563.246.156.187.406.793.562 1.113s.406.848.563 1.184c.16.34.41.894.566 1.25a110 110 0 0 1 1.125 2.664 273.925 273.925 0 0 1 1.129 2.828 578 578 0 0 1 1.125 2.93c.156.406.406 1.066.562 1.476l.567 1.477c.156.406.406 1.062.562 1.465.157.406.407 1.05.563 1.445a125.666 125.666 0 0 0 1.129 2.8 116 116 0 0 0 1.125 2.622 53.225 53.225 0 0 0 1.691 3.457 26.54 26.54 0 0 0 1.125 1.91c.156.242.406.606.563.82.156.215.41.536.566.723.156.184.406.461.563.617.156.16.406.387.562.516.156.125.406.308.563.406.156.094.41.227.566.293s.406.145.562.18.407.066.563.066c.156.004.406-.015.562-.047.157-.027.41-.101.567-.16.156-.062.406-.183.562-.277.157-.09.407-.262.563-.383.156-.125.406-.344.562-.496s.41-.422.567-.602a16 16 0 0 0 1.125-1.508c.156-.234.406-.636.562-.894.157-.262.407-.703.567-.984a52.005 52.005 0 0 0 1.688-3.422c.155-.348.405-.914.562-1.274.156-.363.41-.953.566-1.328a166 166 0 0 0 1.125-2.789c.156-.394.406-1.039.563-1.441s.41-1.055.566-1.461l.562-1.477.563-1.48c.156-.41.406-1.067.562-1.473l.567-1.457a174.412 174.412 0 0 1 1.688-4.207 99.2 99.2 0 0 1 1.129-2.574c.156-.34.406-.875.562-1.196.156-.324.406-.91.562-1.128a1.34 1.34 0 0 1 .567-.43c.156-.063.406 0 .562 0h9.578c.157 0 .407-.008.563 0 .156.004.406-.117.562.043.157.156.407.781.563 1.097.16.313.41.836.566 1.172a76 76 0 0 1 1.125 2.536c.156.363.406.964.563 1.347l.566 1.39"/></g></svg>