<svg xmlns="http://www.w3.org/2000/svg" xmlns:xlink="http://www.w3.org/1999/xlink" width="231.045" height="113.781"><defs><path id="e" d="M2.953-2.469H.547v-.515h2.406Zm0 0"/><path id="f" d="m.422-.453 1.5-1.719q.89-1.015.89-2-.001-1.249-.906-1.25-.363.001-.703.172-.112.364-.125.89-.11.017-.203.016c-.281 0-.422-.117-.422-.36q0-.544.422-.874.42-.328 1.156-.328.715 0 1.172.422.451.409.453 1.14 0 .691-.422 1.36-.268.44-.906 1.125L1.344-.797v.016h2.031l.188-.766q.058-.047.187-.047.218 0 .219.36 0 .344-.094 1.234H.5Zm0 0"/><path id="g" d="M5.828-6.156v.078q-.002.252-.297.328l-.234.047L3.28 0h-.734L.453-5.687l-.375-.11q-.124-.014-.125-.11c0-.05.035-.132.094-.25H2.03c.008.024.016.048.016.079q-.001.253-.313.312l-.375.079L3-.907h.031L4.72-5.702l-.688-.11q-.127-.011-.125-.093 0-.075.094-.25Zm0 0"/><path id="h" d="M2.031-.578V-5l-1.344.266a1 1 0 0 1-.015-.188c0-.133.07-.226.219-.281l1.468-.594h.438v5.219l1.094.172q.14.016.14.11-.002.08-.11.296H.86v-.078q0-.311.282-.36Zm0 0"/><path id="j" d="m.938-3.828-.47.031c-.171 0-.234.078-.25.14a1 1 0 0 0-.046.157c0 .016.031.016.062.016H.86L.313-1.047C.25-.766.188-.484.188-.328c0 .328.156.422.437.422.406 0 .984-.375 1.297-.922C1.89-.953 1.828-1 1.719-1c-.407.469-.563.547-.703.547C.984-.453.89-.47.89-.578c0-.078.03-.25.093-.563l.532-2.343h.875c.109-.047.187-.266.093-.344h-.89l.093-.406c.032-.172.11-.422.11-.532 0-.156-.063-.234-.344-.234-.328 0-.312.39-.406.719Zm0 0"/><path id="k" d="M1.813.094c1.765 0 2.375-1.14 2.687-2.719l.484-2.453c.032-.25.188-.39.547-.422l.219-.016c.047 0 .078-.03.078-.062l.047-.172-.016-.016c-.406 0-.75.016-.953.016s-.531-.016-.937-.016l-.016.016-.031.172c-.016.031.015.062.047.062l.234.016c.281.016.406.11.406.297 0 .031-.015.078-.03.125l-.5 2.61c-.204 1-.548 2.187-2.016 2.187-.407 0-.72-.188-.922-.438-.188-.25-.235-.515-.235-.812 0-.282.047-.578.11-.875L1.53-5.11c.063-.25.203-.36.563-.391l.219-.016c.046 0 .062-.03.078-.062l.03-.172-.015-.016c-.406 0-.75.016-1.094.016-.343 0-.671-.016-1.078-.016l-.03.016-.032.172c0 .031.031.062.062.062l.22.016c.28.016.405.094.405.281 0 .032 0 .078-.015.11l-.578 3a3 3 0 0 0-.063.625c0 1.28.953 1.578 1.61 1.578m0 0"/><path id="l" d="m1.11-.562.39-1.032c.031-.093.078-.125.25-.125h1.5l.422 1.203c.078.25-.188.266-.531.297-.047.047-.047.188 0 .235C3.406 0 3.797 0 4.078 0c.297 0 .563 0 .813.016.046-.047.046-.188 0-.235-.282-.031-.516-.047-.641-.39L2.781-4.703c-.11.062-.297.14-.39.14L.766-.733C.578-.281.359-.25.046-.22 0-.172 0-.03.047.016.235 0 .47 0 .689 0c.296 0 .64 0 .906.016.047-.047.047-.188 0-.235C1.328-.25 1-.266 1.109-.562m.765-1.454c-.156 0-.203-.03-.172-.093l.719-1.86h.047l.672 1.953Zm0 0"/><clipPath id="a"><path d="M220 55h10.094v16H220Zm0 0"/></clipPath><clipPath id="b"><path d="M23 3h1v110.438h-1Zm0 0"/></clipPath><clipPath id="c"><path d="M21 .125h5V4h-5Zm0 0"/></clipPath><clipPath id="d"><path d="M16 .125h16V10H16Zm0 0"/></clipPath><clipPath id="i"><path d="M23.664 36H226v54H23.664Zm0 0"/></clipPath></defs><path fill="none" stroke="#BFBFBF" stroke-miterlimit="10" stroke-width=".19818012000000002" d="M23.664 104.875H229.9M23.664 83.965H229.9M23.664 42.145H229.9M23.664 21.235H229.9"/><path fill="none" stroke="#000" stroke-miterlimit="10" stroke-width=".79371636" d="M21.543 104.875h4.238m-4.238-20.91h4.238m-4.238-41.82h4.238m-4.238-20.91h4.238"/><path fill="none" stroke="#000" stroke-miterlimit="10" stroke-width=".39735612000000003" d="M23.664 63.055h202.777"/><path d="m229.5 63.055-2.96-1.758v3.512Zm0 0"/><g clip-path="url(#a)"><path fill="none" stroke="#000" stroke-miterlimit="10" stroke-width=".39735612000000003" d="m229.5 63.055-2.96-1.758v3.512Zm0 0"/></g><g clip-path="url(#b)"><path fill="none" stroke="#000" stroke-miterlimit="10" stroke-width=".39735612000000003" d="M23.664 113.238V3.781"/></g><g clip-path="url(#c)"><path d="m23.664.719-1.758 2.96h3.512Zm0 0"/></g><g clip-path="url(#d)"><path fill="none" stroke="#000" stroke-miterlimit="10" stroke-width=".39735612000000003" d="m23.664.719-1.758 2.96h3.512Zm0 0"/></g><use xlink:href="#e" x="2.976" y="107.955"/><use xlink:href="#f" x="6.476" y="107.955"/><use xlink:href="#g" x="12.584" y="107.955"/><use xlink:href="#h" x="6.476" y="87.046"/><use xlink:href="#g" x="12.584" y="87.046"/><use xlink:href="#h" x="6.476" y="45.225"/><use xlink:href="#g" x="12.584" y="45.225"/><use xlink:href="#f" x="6.476" y="24.315"/><use xlink:href="#g" x="12.584" y="24.315"/><g clip-path="url(#i)"><path fill="none" stroke="#000" stroke-miterlimit="10" stroke-width=".39735612000000003" d="m23.664 63.055.39-.895c.11-.25.286-.644.395-.894.11-.246.285-.645.395-.895.11-.246.285-.644.394-.89.11-.247.282-.645.39-.891l.395-.887c.11-.242.286-.637.395-.883.11-.242.285-.636.395-.879.109-.242.28-.632.39-.875.11-.242.285-.629.395-.867l.394-.867.395-.855c.11-.239.285-.618.39-.852l.395-.844.394-.836.395-.828.394-.82c.11-.227.282-.586.391-.809l.395-.8.394-.79.395-.777.39-.77a133 133 0 0 1 .79-1.496c.109-.203.285-.613.394-.71.11-.098.281 0 .39 0h28.344c.11 0 .282-.024.39 0 .11.023.286.039.395.16.11.125.286.53.395.734l.395.746c.109.211.28.547.39.758l.395.77.394.78.395.794c.11.222.285.578.394.804.106.223.282.582.39.809.11.227.286.594.395.824a172.764 172.764 0 0 1 .79 1.668c.109.235.28.61.39.844l.395.855c.109.235.285.618.394.86.11.238.285.62.395.863.11.242.281.629.39.871l.395.875.394.883c.11.242.286.637.395.883s.285.64.39.886l.395.891c.11.246.285.645.395.89.109.25.285.65.394.895.11.25.285.649.395.895.105.25.28.648.39.894l.395.899c.11.246.285.644.394.894l.395.89.39.892.395.89.395.887.394.879c.11.246.281.637.39.879l.395.875c.11.242.285.629.395.867l.394.863a178.815 178.815 0 0 0 1.18 2.547 171 171 0 0 0 .79 1.66c.108.227.28.59.39.817a158 158 0 0 0 1.183 2.39l.39.778.395.765.395.75c.11.207.285.563.395.738.109.176.28.454.39.528s.285 0 .395 0h28.339c.11 0 .286.047.395 0s.285-.192.395-.344c.109-.148.285-.531.394-.734.11-.207.281-.54.39-.75.11-.211.286-.547.395-.762.11-.21.285-.559.395-.773.11-.215.285-.563.394-.782.11-.222.286-.574.395-.797.105-.222.281-.578.39-.804.11-.223.286-.586.395-.813l.395-.824.394-.832c.11-.234.281-.605.39-.84l.395-.848.395-.855c.11-.238.285-.621.394-.863.11-.239.282-.625.39-.864l.395-.875.395-.875.395-.882c.109-.246.285-.637.39-.883.11-.246.285-.645.395-.89.11-.247.285-.641.394-.891l.395-.891.394-.895.39-.894.395-.895.395-.894c.11-.25.285-.649.395-.895.109-.25.28-.648.39-.894s.285-.645.395-.89l.394-.888.395-.886c.11-.246.281-.637.39-.88l.395-.878.394-.871.395-.867.394-.864c.106-.238.282-.617.391-.851a172.77 172.77 0 0 1 1.184-2.52c.11-.23.28-.597.39-.824l.395-.816.394-.805.395-.793c.11-.219.281-.57.39-.785l.395-.774.395-.761c.109-.207.285-.543.394-.746.11-.207.285-.59.39-.739.11-.148.286-.297.395-.343s.285 0 .395 0h28.34c.11 0 .285-.075.394 0 .11.074.285.351.395.527s.281.531.39.738c.11.207.286.543.395.754l.394.762.395.777.394.785c.106.223.282.578.391.801s.285.578.395.805l.394.816.395.828c.11.23.281.602.39.832l.395.844c.11.234.285.613.394.848l.395.855c.11.238.281.625.39.863l.395.868.395.875a193 193 0 0 1 .785 1.761c.11.246.285.637.394.887l.395.887c.11.246.285.644.394.89.11.25.286.645.395.895.11.246.281.644.39.894.11.247.286.645.395.895.11.246.285.645.395.895.109.25.285.648.394.894l.39.895.395.89c.11.25.285.645.395.89l.394.888c.11.246.282.64.391.886.11.242.285.637.394.88l.395.874.395.871.394.867c.106.239.281.622.39.86l.395.851.395.848c.11.23.285.606.394.836s.282.602.39.832l.395.82c.11.227.286.586.395.813.11.223.285.582.395.8.109.223.28.575.39.794a145 145 0 0 0 .79 1.55c.109.211.284.551.394.758l.39.746c.11.207.286.61.395.735s.285.136.394.16.286 0 .395 0h28.34c.11 0 .285.097.394 0 .11-.098.286-.508.391-.711.11-.2.285-.535.395-.742a133 133 0 0 0 1.183-2.301c.106-.215.281-.566.39-.79a157.538 157.538 0 0 0 .79-1.61c.11-.225.285-.588.394-.819.11-.226.282-.594.39-.824l.395-.84c.11-.23.286-.605.395-.844l.395-.847c.109-.239.28-.621.39-.86l.395-.863.394-.871.395-.875c.11-.242.285-.633.39-.879l.395-.883.394-.886c.11-.247.286-.641.395-.891.11-.246.285-.645.395-.89.109-.247.28-.645.39-.895.11-.246.285-.645.395-.895l.394-.894"/></g><use xlink:href="#j" x="224.694" y="71.239"/><use xlink:href="#k" x="10.389" y="9.276"/><use xlink:href="#l" x="15.139" y="11.151"/></svg>