<svg xmlns="http://www.w3.org/2000/svg" xmlns:xlink="http://www.w3.org/1999/xlink" width="226.535" height="129.47"><defs><path id="a" d="M2.313-6.172q2.514 0 2.515 1.734-.002.893-.594 1.375-.644.502-1.875.5h-.484v2.079l.703.125q.124.017.125.093 0 .066-.094.266H.422a.16.16 0 0 1-.016-.078Q.404-.324.72-.406l.375-.078v-5.203l-.547-.125c-.086-.02-.125-.055-.125-.11q0-.075.094-.25Zm0 3.14q.841.002 1.296-.39.389-.34.391-.969 0-1.265-1.687-1.265h-.438v2.625Zm0 0"/><path id="b" d="M6.266-6.172c.007.031.015.059.015.078q0 .236-.312.313l-.422.093V0h-.531l-3.36-5.187h-.015v4.703l.609.125q.124.017.125.093 0 .048-.094.266H.421a.16.16 0 0 1-.015-.078Q.404-.324.72-.406l.375-.078v-5.203l-.547-.125c-.086-.02-.125-.055-.125-.11q0-.075.094-.25h1.422L5-1.437h.016v-4.25l-.563-.125c-.086-.02-.125-.055-.125-.11q-.001-.075.11-.25Zm0 0"/><path id="f" d="M5.875-2.266c0-1.5-1.25-2.656-2.656-2.656A2.667 2.667 0 0 0 .547-2.266C.547-.75 1.797.391 3.219.391a2.654 2.654 0 0 0 2.656-2.657M3.219-.016a2.25 2.25 0 0 1-2.25-2.25C.969-3.53 2.016-4.5 3.219-4.5c1.265 0 2.234 1.047 2.234 2.234A2.237 2.237 0 0 1 3.22-.016m.203-.25v-1.796h1.781c.11 0 .203-.079.203-.204a.207.207 0 0 0-.203-.203H3.422V-4.25c0-.11-.094-.203-.219-.203A.207.207 0 0 0 3-4.25v1.781H1.219a.207.207 0 0 0-.203.203c0 .125.093.204.203.204H3v1.796c0 .11.094.204.203.204.125 0 .219-.094.219-.204m0 0"/><path id="g" d="M5.875-2.266c0-1.5-1.25-2.656-2.656-2.656A2.667 2.667 0 0 0 .547-2.266C.547-.75 1.797.391 3.219.391a2.654 2.654 0 0 0 2.656-2.657M3.219-.016a2.25 2.25 0 0 1-2.25-2.25C.969-3.53 2.016-4.5 3.219-4.5c1.265 0 2.234 1.047 2.234 2.234A2.237 2.237 0 0 1 3.22-.016m-2-2.046h3.984c.11 0 .203-.079.203-.204a.207.207 0 0 0-.203-.203H1.22a.207.207 0 0 0-.203.203c0 .125.093.204.203.204m0 0"/><clipPath id="c"><path d="M.23 28h225.61v46H.23Zm0 0"/></clipPath><clipPath id="d"><path d="M93 97h40v31.941H93Zm0 0"/></clipPath><clipPath id="e"><path d="M120 108h2v20.941h-2Zm0 0"/></clipPath></defs><use xlink:href="#a" x="42.905" y="9.138"/><use xlink:href="#b" x="177.3" y="9.138"/><path fill="#7F7F7F" d="M90.516 73.621V28.578h45.043v45.043Zm0 0"/><g clip-path="url(#c)"><path fill="none" stroke="#000" stroke-miterlimit="10" stroke-width=".39737208" d="M.43 73.621V28.578h225.215v45.043Zm0 0"/></g><path fill="none" stroke="#000" stroke-miterlimit="10" stroke-width=".39737208" d="M67.992 118.664h37.14m15.81 0h37.14"/><g clip-path="url(#d)"><path fill="none" stroke="#000" stroke-miterlimit="10" stroke-width=".7937482400000001" d="m120.941 118.664-15.808-9.879v19.762Zm0 0"/></g><path fill="none" stroke="#000" stroke-miterlimit="10" stroke-width=".39737208" d="M120.941 118.664h-15.808"/><g clip-path="url(#e)"><path fill="none" stroke="#000" stroke-miterlimit="10" stroke-width=".7937482400000001" d="M120.941 128.547v-19.762"/></g><use xlink:href="#f" x="8.477" y="42.102"/><use xlink:href="#f" x="8.477" y="64.623"/><use xlink:href="#f" x="30.999" y="42.102"/><use xlink:href="#f" x="30.999" y="64.623"/><use xlink:href="#f" x="53.521" y="42.102"/><use xlink:href="#f" x="53.521" y="64.623"/><use xlink:href="#f" x="76.042" y="42.102"/><use xlink:href="#f" x="76.042" y="64.623"/><use xlink:href="#g" x="143.606" y="42.102"/><use xlink:href="#g" x="143.606" y="64.623"/><use xlink:href="#g" x="166.128" y="42.102"/><use xlink:href="#g" x="166.128" y="64.623"/><use xlink:href="#g" x="188.65" y="42.102"/><use xlink:href="#g" x="188.65" y="64.623"/><use xlink:href="#g" x="211.171" y="42.102"/><use xlink:href="#g" x="211.171" y="64.623"/></svg>