<svg xmlns="http://www.w3.org/2000/svg" xmlns:xlink="http://www.w3.org/1999/xlink" width="221.296" height="406.789"><defs><path id="a" d="m3.39 1.219-.046-.157c-.266.063-.36.032-.485-.03-.187-.095-.093-.313.282-1.188L4.17-2.47c.345-.781.048-1-.124-1.094-.234-.109-.578-.03-.906.094l.03.172a.8.8 0 0 1 .548.063c.156.078.297.312-.11 1.218l-.125.282L.141.063l.093.125c.157.046.329.093.5.171L3.266-1.25 2.594.281c-.281.625-.328.922-.047 1.078.187.094.547.016.844-.14m0 0"/><path id="b" d="M3.453-.016 2.922-.28l.937-1.875c.157-.328.282-.578.313-.61v-.03l-.203-.11a.12.12 0 0 0-.125.031c-.656.281-1.938.969-2.969 1.594-.031.11-.094.297.11.39L2.28-.25 2 .344c-.156.297-.39.187-.687.062-.063.031-.125.156-.094.219.203.094.453.219.75.36.25.124.484.25.703.359.062-.016.125-.14.094-.219-.297-.156-.438-.219-.282-.531L2.766 0l.453.219c.078.047.234-.016.281-.094.031-.078.031-.11-.047-.14M3.36-2.39 2.438-.53l-1.22-.594c.595-.375 1.407-.86 2.141-1.266m0 0"/><path id="d" d="M1.516-3.203c0-.266-.016-.594-.063-.672-.016-.047-.047-.078-.11-.078-.25.094-.484.187-1.109.265a.5.5 0 0 0 .032.25c.468.047.578.079.578.61v1.734c0 .735-.125.782-.61.813-.062.062-.062.25 0 .297C.5.016.844 0 1.204 0c.359 0 .624.016.89.016.062-.047.062-.235 0-.297-.453-.047-.547-.078-.547-.813v-1.468c0-.188.078-.282.156-.376.36-.343.688-.515.953-.515.344 0 .594.203.594.812v1.547c0 .735-.062.782-.547.813-.047.062-.047.25 0 .297C2.922.016 3.25 0 3.61 0c.36 0 .657.016.875.016.047-.047.047-.235 0-.297-.437-.031-.53-.078-.53-.813v-1.781c.421-.469.827-.578 1.171-.578s.547.187.547.797v1.562c0 .735-.094.782-.563.813-.046.062-.046.25 0 .297.22 0 .563-.016.922-.016.344 0 .657.016.907.016.046-.047.046-.235 0-.297-.485-.031-.563-.078-.563-.813V-2.5c0-.797-.14-1.422-.922-1.422-.453 0-1.016.172-1.469.656-.03.032-.093.079-.109 0-.078-.375-.422-.656-.89-.656-.516 0-.985.297-1.36.719-.047.047-.094.11-.11 0m0 0"/><path id="e" d="M3.453-.828c-.328.344-.594.484-1.11.484-.327 0-.702-.187-.968-.64-.187-.297-.297-.72-.297-1.235l2.375.016c.11 0 .172-.047.172-.14 0-.75-.266-1.563-1.5-1.563-.781 0-1.797.75-1.797 2.094 0 .5.125.984.422 1.328.297.359.719.578 1.375.578.672 0 1.156-.313 1.516-.781-.032-.094-.079-.141-.188-.141M1.11-2.516c.172-1.015.797-1.093 1.016-1.093.328 0 .734.187.734.937 0 .078-.03.125-.14.125Zm0 0"/><path id="f" d="M3.563-.812a.26.26 0 0 0-.188-.125c-.312.39-.687.593-1.078.593-.656 0-1.203-.672-1.203-1.719 0-.968.437-1.562 1.031-1.562.516 0 .594.313.625.625.031.234.156.313.344.313s.437-.11.437-.391c0-.485-.515-.844-1.375-.844-.875 0-1.828.797-1.828 2.063C.328-.703.968.094 2.094.094c.547 0 1.015-.172 1.469-.906m0 0"/><path id="g" d="M1.5-2.562c0-.188.078-.282.14-.376.344-.328.798-.515 1.141-.515.188 0 .375.11.485.312.093.188.109.422.109.688v1.36c0 .734-.094.765-.562.812-.047.062-.047.25 0 .297.25 0 .562-.016.921-.016.344 0 .641.016.938.016.047-.047.047-.235 0-.297-.5-.047-.594-.078-.594-.813v-1.328c0-.484-.031-.937-.25-1.203-.14-.187-.422-.297-.734-.297-.438 0-.969.11-1.516.719 0 .015-.016.015-.016.015-.03.047-.078.094-.078-.015l.016-2c0-.594.031-.953.031-.953 0-.063-.031-.078-.125-.078-.218.078-.89.203-1.25.234-.015.078 0 .219.063.266h.078c.39.03.484.03.484.734v3.906c0 .75-.11.782-.625.813-.047.062-.047.25 0 .297C.453.016.781 0 1.141 0c.343 0 .64.016.89.016.047-.047.047-.235 0-.297-.453-.031-.531-.063-.531-.813Zm0 0"/><path id="h" d="M.516-.39c0 .265.203.484.468.484a.474.474 0 0 0 .47-.485.47.47 0 0 0-.47-.468.47.47 0 0 0-.468.468m0 0"/><path id="k" d="m4.453-.531-.14-.156c-.235.234-.36.25-.547.25-.25 0-.282-.297-.344-1.47l-.156-3.171c-.047-1.063-.485-1.156-.735-1.156-.328 0-.656.265-.953.609l.11.156a1.17 1.17 0 0 1 .64-.218c.235 0 .516.187.578 1.421l.016.375L.188 0l.171.11C.563.03.781.015 1.016 0l1.937-3.25.11 2.125c.03.828.14 1.234.562 1.234.234 0 .61-.296.828-.64m0 0"/><path id="i" d="M2.281-1.36c0 .688-.36 1.188-.781 1.188-.281 0-.375-.172-.484-.328C.937-.61.813-.719.656-.719a.274.274 0 0 0-.265.266c0 .281.609.531 1.015.531.89 0 1.516-.656 1.516-1.562 0-.688-.485-1.313-1.281-1.313-.313 0-.578.063-.703.11l.14-1.188c.266.031.5.063.844.063q.305 0 .75-.047l.11-.485-.048-.031c-.406.047-.796.078-1.171.078-.266 0-.532-.016-.782-.031L.547-2.266c.375-.14.64-.171.906-.171.469 0 .828.312.828 1.078m0 0"/><path id="j" d="M2.813-3.469c0-.515-.407-.89-1.11-.89-.719 0-1.187.437-1.187.984 0 .39.187.688.625.969l.187.11c-.219.108-.406.233-.578.39-.297.265-.422.578-.422.86C.328-.313.844.077 1.61.077 2.547.078 3-.609 3-1.156c0-.422-.187-.782-.562-1.016l-.5-.297c.328-.172.875-.547.875-1M1.625-.172c-.328 0-.812-.234-.812-.875 0-.219.093-.719.703-1.125l.343.203c.438.266.61.61.61.953 0 .72-.531.844-.844.844m.047-3.937c.469 0 .64.297.64.625 0 .39-.374.718-.578.859l-.218-.14c-.453-.297-.5-.532-.5-.75 0-.329.234-.594.656-.594m0 0"/><clipPath id="c"><path d="M23 .54h16V11H23Zm0 0"/></clipPath><clipPath id="l"><path d="M110 395h1v11.04h-1Zm0 0"/></clipPath><clipPath id="m"><path d="M101 216h119.594v86H101Zm0 0"/></clipPath><clipPath id="n"><path d="M101 275h119.594v85H101Zm0 0"/></clipPath><clipPath id="o"><path d="M109 .54h2V289h-2Zm0 0"/></clipPath></defs><path fill="none" stroke="#999" stroke-miterlimit="10" stroke-width=".0099683" d="M212.316 358.234"/><path fill="none" stroke="#000" stroke-miterlimit="10" stroke-width=".39773517" d="m110.125 307.137 101.926 50.965"/><path stroke="#000" stroke-miterlimit="10" stroke-width=".39770325" d="m110.57 307.36 1.864 2.898.785-1.57.789-1.575Zm0 0"/><path fill="none" stroke="#000" stroke-miterlimit="10" stroke-width=".39770325" d="m109.016 309.137 2.043-4.086"/><path stroke="#000" stroke-miterlimit="10" stroke-width=".39770325" d="m211.605 357.879-1.867-2.899-.785 1.575-.785 1.57Zm0 0"/><path fill="none" stroke="#000" stroke-miterlimit="10" stroke-width=".39770325" d="m213.16 356.102-2.043 4.086"/><path fill="#FFF" d="m170.871 326.629-10.863-5.434-8.707 17.418 10.863 5.43Zm0 0"/><use xlink:href="#a" x="160.207" y="330.125"/><path fill="none" stroke="#000" stroke-miterlimit="10" stroke-width=".58110525" d="m159.328 331.883 3.402 1.703"/><use xlink:href="#b" x="156.585" y="337.907"/><path fill="none" stroke="#999" stroke-miterlimit="10" stroke-width=".0099683" d="M30.89 1.129"/><path fill="none" stroke="#000" stroke-miterlimit="10" stroke-width=".39773517" d="M30.89 287.715V1.43"/><path stroke="#000" stroke-miterlimit="10" stroke-width=".39773517" d="m30.89 287.219 1.758-2.965h-3.515Zm0 0"/><path fill="none" stroke="#000" stroke-miterlimit="10" stroke-width=".39773517" d="M33.176 287.816h-4.567"/><path d="M30.89 1.926 29.134 4.89h3.515Zm0 0"/><g clip-path="url(#c)"><path fill="none" stroke="#000" stroke-miterlimit="10" stroke-width=".39773517" d="M30.89 1.926 29.134 4.89h3.515Zm0 0"/></g><path fill="none" stroke="#000" stroke-miterlimit="10" stroke-width=".39773517" d="M28.61 1.328h4.566"/><path fill="#FFF" d="M11.11 154.063h39.566v-18.981H11.109Zm0 0"/><use xlink:href="#d" x="14.088" y="146.724"/><use xlink:href="#e" x="21.149" y="146.724"/><use xlink:href="#f" x="25.144" y="146.724"/><use xlink:href="#g" x="28.97" y="146.724"/><use xlink:href="#h" x="33.779" y="146.724"/><use xlink:href="#i" x="38.427" y="142.433"/><path fill="none" stroke="#000" stroke-miterlimit="10" stroke-width=".58115189" d="M38.426 144.398h3.324"/><use xlink:href="#j" x="38.427" y="151.014"/><use xlink:href="#k" x="42.943" y="146.724"/><path fill="none" stroke="#000" stroke-miterlimit="10" stroke-width=".39773517" d="M120.543 288.016v102.457M100.05 288.016v102.457"/><path fill="none" stroke="#000" stroke-dasharray="2.9793554089 2.9793554089" stroke-miterlimit="10" stroke-width=".39773517" d="M110.297 298.258v92.215"/><path fill="none" stroke="#000" stroke-miterlimit="10" stroke-width=".39773517" d="M120.543 288.016c0-2.832-4.586-5.125-10.246-5.125s-10.246 2.293-10.246 5.125c0 2.828 4.586 5.12 10.246 5.12s10.246-2.292 10.246-5.12M120.543 390.473c0 2.828-4.586 5.12-10.246 5.12s-10.246-2.292-10.246-5.12"/><g clip-path="url(#l)"><path fill="none" stroke="#000" stroke-miterlimit="10" stroke-width=".39773517" d="M110.297 395.594v10.246"/></g><g clip-path="url(#m)"><path fill="none" stroke="#000" stroke-linecap="round" stroke-miterlimit="10" stroke-width="1.19220868" d="M117.984 284.168 220 233.164"/></g><path stroke="#000" stroke-linecap="round" stroke-miterlimit="10" stroke-width=".9927630000000001" d="M117.098 284.613a.497.497 0 1 0 .223-.664.494.494 0 0 0-.223.664Zm0 0"/><path fill="none" stroke="#000" stroke-linecap="round" stroke-miterlimit="10" stroke-width="1.19220868" d="M102.61 284.168.593 233.164"/><path stroke="#000" stroke-linecap="round" stroke-miterlimit="10" stroke-width=".9927630000000001" d="M103.496 284.613a.494.494 0 0 0-.223-.664.495.495 0 1 0 .223.664Zm0 0"/><g clip-path="url(#n)"><path fill="none" stroke="#000" stroke-linecap="round" stroke-miterlimit="10" stroke-width="1.19220868" d="M117.984 291.86 220 342.862"/></g><path stroke="#000" stroke-linecap="round" stroke-miterlimit="10" stroke-width=".9927630000000001" d="M117.098 291.414a.5.5 0 0 0 .222.668.498.498 0 0 0 .446-.89.5.5 0 0 0-.668.222Zm0 0"/><path fill="none" stroke="#000" stroke-linecap="round" stroke-miterlimit="10" stroke-width="1.19220868" d="M102.61 291.86.593 342.862"/><path stroke="#000" stroke-linecap="round" stroke-miterlimit="10" stroke-width=".9927630000000001" d="M103.496 291.414a.495.495 0 1 0-.887.445.5.5 0 0 0 .664.223.5.5 0 0 0 .223-.668Zm0 0"/><g clip-path="url(#o)"><path fill="none" stroke="#000" stroke-miterlimit="10" stroke-width="1.19220868" d="M110.297 1.129v241.719m0 23.734v21.434"/></g><path fill="none" stroke="#000" stroke-linejoin="bevel" stroke-miterlimit="10" stroke-width="1.19220868" d="M109.82 242.25c3.278 0 5.934 1.648 5.934 3.68 0 2.03-2.656 3.68-5.934 3.68-1.636 0-2.965-.665-2.965-1.485 0-.816 1.329-1.48 2.965-1.48 3.278 0 5.934 1.644 5.934 3.68 0 2.03-2.656 3.679-5.934 3.679-1.636 0-2.965-.664-2.965-1.484s1.329-1.485 2.965-1.485c3.278 0 5.934 1.649 5.934 3.68s-2.656 3.68-5.934 3.68c-1.636 0-2.965-.665-2.965-1.485s1.329-1.484 2.965-1.484c3.278 0 5.934 1.648 5.934 3.68 0 2.035-2.656 3.68-5.934 3.68-1.636 0-2.965-.665-2.965-1.481 0-.82 1.329-1.485 2.965-1.485 3.278 0 5.934 1.649 5.934 3.68s-2.656 3.68-5.934 3.68"/></svg>