<svg xmlns="http://www.w3.org/2000/svg" xmlns:xlink="http://www.w3.org/1999/xlink" width="222.179" height="144.187"><defs><path id="d" d="M5.86-2.906v.094c0 .148-.102.246-.298.296l-.203.047v1.89C4.867-.116 4.15.11 3.203.11q-1.22 0-1.937-.765-.797-.845-.797-2.39-.002-1.607 1.015-2.485.873-.734 2.125-.735.576 0 1.063.141.06.018.594.234.046.643.046.922-.001.391-.265.39a.5.5 0 0 1-.188-.03l-.203-.86q-.44-.28-1.11-.281-.936 0-1.546.61-.703.688-.703 2c0 .874.191 1.554.578 2.03.375.462.883.688 1.531.688.438 0 .828-.07 1.172-.219v-1.78l-.547-.126q-.127-.029-.125-.11 0-.074.094-.25Zm0 0"/><path id="i" d="M2.438-6.156c.007.023.015.047.015.078q-.002.236-.297.312l-.422.079v3.03q0 1.208.422 1.735c.25.336.645.5 1.188.5q.81 0 1.187-.516.422-.563.422-1.874v-2.875l-.547-.125c-.086-.008-.125-.04-.125-.094q0-.075.094-.25h1.828v.078q-.002.236-.297.312l-.422.079v2.937Q5.483.11 3.25.11 2.17.11 1.625-.423q-.673-.62-.672-2.062v-3.203l-.547-.125Q.28-5.825.281-5.906q0-.075.094-.25Zm0 0"/><path id="j" d="M3.188-5.531a1.8 1.8 0 0 0-.891-.25q-.518.001-.813.265-.28.269-.28.72 0 .391.234.655a2.3 2.3 0 0 0 .5.344l.843.453c.438.242.742.465.922.672q.359.41.36 1 0 .785-.516 1.266-.551.516-1.453.515a3.46 3.46 0 0 1-1.5-.359q-.047-.482-.047-1 0-.389.281-.39.075 0 .188.046l.218.938q.386.298.938.297.575 0 .89-.328.296-.295.297-.782-.002-.406-.296-.687-.204-.187-.907-.578l-.562-.313c-.344-.195-.602-.398-.766-.61Q.515-4.06.516-4.64q-.002-.749.547-1.187.515-.437 1.359-.438.764 0 1.375.329.03.643.031.859-.001.391-.265.39a.5.5 0 0 1-.204-.046Zm0 0"/><path id="k" d="M2.547-6.156q2.28 0 2.281 1.547c0 .804-.433 1.28-1.297 1.437v.016q1.453.206 1.453 1.437-.001.767-.593 1.235C3.96-.16 3.375 0 2.625 0H.422a.16.16 0 0 1-.016-.078Q.404-.324.72-.406l.375-.078v-5.203l-.547-.125C.46-5.82.422-5.852.422-5.906q0-.075.094-.25ZM2.53-.5q.811.001 1.235-.344c.257-.219.39-.508.39-.875q0-.527-.406-.843-.41-.312-1.172-.313h-.703V-.5ZM2.47-3.344q.78.001 1.203-.344.359-.294.36-.812c0-.77-.524-1.156-1.563-1.156h-.594v2.312Zm0 0"/><path id="l" d="M.422 0a.16.16 0 0 1-.016-.078Q.404-.324.72-.406l.375-.078v-5.203l-.547-.125C.46-5.82.422-5.852.422-5.906q0-.075.094-.25h2.078v.078c0 .156-.102.262-.297.312l-.422.079v5.171h2.063l.234-1.046a.7.7 0 0 1 .203-.032q.234 0 .234.36Q4.61-.78 4.516 0Zm0 0"/><path id="q" d="M2.36-6.156q3.562.001 3.562 2.984 0 1.583-.938 2.39C4.367-.257 3.492 0 2.36 0H.422a.16.16 0 0 1-.016-.078Q.404-.324.72-.406l.375-.078v-5.203l-.547-.125C.46-5.82.422-5.852.422-5.906q0-.075.094-.25ZM2.343-.5q1.313 0 2.015-.672c.477-.445.72-1.101.72-1.969 0-.832-.243-1.457-.72-1.875q-.702-.639-2.015-.64h-.469V-.5Zm0 0"/><path id="m" d="M1.578 1.563c-.094.156-.281.265-.406.265s-.156-.062-.219-.156c-.078-.11-.25-.281-.437-.281-.25 0-.344.172-.344.328 0 .187.219.406.828.406.36 0 .75-.187 1.031-.562.25-.344.453-1.032.797-2.72.14-.702.281-1.421.422-2.171l.031-.156h.828c.079 0 .204-.032.235-.11l.031-.187c0-.031-.016-.047-.062-.047h-.97l.095-.516c.124-.656.25-1.062.374-1.297.141-.25.25-.328.36-.328.14 0 .156.078.187.25.047.188.11.422.391.422.266 0 .328-.203.328-.281 0-.344-.297-.656-.828-.656-.187 0-.437.109-.61.25-.28.234-.656.562-1 2.156l-.593.031c-.156 0-.235.078-.25.14 0 .032-.031.141-.031.157s.015.016.046.016h.75c-.218 1.015-.25 1.562-.374 2.218-.141.86-.282 2.313-.61 2.829m0 0"/><path id="n" d="M4.75-2.344c0-1.484-1.016-2.36-2.297-2.36-1.375 0-2.187 1.11-2.187 2.485C.266-.813 1.28.078 2.5.078c.797 0 1.422-.344 1.813-.906.28-.406.437-.922.437-1.516M2.36-4.437c.953 0 1.703.78 1.703 2.218 0 1.281-.61 2.031-1.422 2.031-.875 0-1.688-.78-1.688-2.14 0-1.5.703-2.11 1.406-2.11m0 0"/><path id="o" d="M2.828-4.5c-.422-.062-.406-.203-1.11-.203C1-4.703.36-4.22.36-3.47s.625 1.094 1.25 1.344c.438.156.97.36.97 1.063 0 .578-.329.875-.907.875C1.016-.187.578-.5.422-1.203c-.094-.031-.156-.016-.234.031.03.547.062.734.14 1.078.453 0 .656.172 1.297.172.313 0 .625-.078.875-.25.406-.25.672-.687.672-1.14 0-.766-.578-1.094-1.156-1.313C1.578-2.781.875-3.062.875-3.656c0-.406.36-.797.781-.797.688 0 .922.437 1.063.906.078.016.172.016.234-.031a11 11 0 0 0-.125-.922m0 0"/><path id="p" d="M3.938.016c.03-.407.109-.828.187-1.188-.047-.016-.125-.047-.219-.047-.219.516-.406.907-1.172.922l-1.39.031c-.11 0-.172-.046-.172-.109 0-.031.016-.078.062-.14.516-.75 1.829-2.626 2.672-3.704.156-.187.172-.25.172-.328 0-.047-.031-.078-.094-.078-.078 0-.312.016-.515.016H1.89a30 30 0 0 1-1.297-.047 9 9 0 0 1-.156 1.078c.062.015.14.031.218.031.14-.484.422-.75.953-.75l1.5-.031c.047 0 .079.016.079.062 0 .032-.032.079-.063.125A94 94 0 0 0 .344-.266a.3.3 0 0 0-.047.157c0 .078.031.109.125.109h2.61c.187 0 .906.016.906.016m0 0"/><clipPath id="a"><path d="M.215 0H32v36H.215Zm0 0"/></clipPath><clipPath id="b"><path d="M.215 3H2v22H.215Zm0 0"/></clipPath><clipPath id="c"><path d="M191 14h30.148v1H191Zm0 0"/></clipPath><clipPath id="e"><path d="M156 99h20v44.379h-20Zm0 0"/></clipPath><clipPath id="f"><path d="M68 65h133v78.379H68Zm0 0"/></clipPath><clipPath id="g"><path d="M160 140h4v3.379h-4Zm0 0"/></clipPath><clipPath id="h"><path d="M155 134h15v9.379h-15Zm0 0"/></clipPath></defs><g clip-path="url(#a)"><path fill="none" stroke="#000" stroke-miterlimit="10" stroke-width=".7925288300000001" d="M10.477 4.344c-5.45 0-9.868 4.414-9.868 9.863 0 5.45 4.418 9.867 9.868 9.867 5.449 0 9.867-4.418 9.867-9.867s-4.418-9.863-9.867-9.863Zm0 0"/></g><g clip-path="url(#b)"><path fill="none" stroke="#000" stroke-miterlimit="10" stroke-width=".7925288300000001" d="M.61 24.074V4.344"/></g><path fill="none" stroke="#000" stroke-miterlimit="10" stroke-width=".39676161000000004" d="M20.344 14.207h14.715m0 0h14.718"/><path d="M45.586 14.207v1.973l4.191-1.973-4.191-1.973Zm0 0"/><path fill="none" stroke="#000" stroke-miterlimit="10" stroke-width=".7925288300000001" d="M49.777.395h27.625V28.02H49.777Zm0 0"/><path fill="none" stroke="#000" stroke-miterlimit="10" stroke-width=".39676161000000004" d="m53.922 3.574 19.336 10.633-19.336 10.637ZM77.402 14.207h14.715m0 0h14.719"/><path d="M102.645 14.207v1.973l4.19-1.973-4.19-1.973Zm0 0"/><path fill="none" stroke="#000" stroke-miterlimit="10" stroke-width=".7925288300000001" d="M106.836.395h27.625V28.02h-27.625Zm0 0"/><path fill="none" stroke="#000" stroke-miterlimit="10" stroke-width=".39676161000000004" d="M130.316 14.207a9.667 9.667 0 0 0-9.668-9.668 9.667 9.667 0 0 0-9.668 9.668 9.667 9.667 0 0 0 9.668 9.668 9.667 9.667 0 0 0 9.668-9.668ZM113.812 7.371l13.672 13.672m0-13.672-13.672 13.672M134.46 14.207h14.716m0 0h14.719"/><path d="M159.703 14.207v1.973l4.192-1.973-4.192-1.973Zm0 0"/><path fill="none" stroke="#000" stroke-miterlimit="10" stroke-width=".7925288300000001" d="M163.895.395h27.625V28.02h-27.625Zm0 0"/><path fill="none" stroke="#000" stroke-miterlimit="10" stroke-width=".39676161000000004" d="M170.8 7.3c1.126-1.765 2.204-3.452 3.454-3.452s2.328 1.687 3.453 3.453c1.125 1.77 2.203 3.453 3.453 3.453s2.328-1.684 3.453-3.453m-4.836-2.07-4.14 4.144M170.8 14.207c1.126-1.766 2.204-3.453 3.454-3.453s2.328 1.687 3.453 3.453c1.125 1.77 2.203 3.453 3.453 3.453s2.328-1.683 3.453-3.453M170.8 21.113c1.126-1.765 2.204-3.453 3.454-3.453s2.328 1.688 3.453 3.453c1.125 1.77 2.203 3.453 3.453 3.453s2.328-1.683 3.453-3.453m-4.836-2.07-4.14 4.14"/><g clip-path="url(#c)"><path fill="none" stroke="#000" stroke-miterlimit="10" stroke-width=".39676161000000004" d="M191.52 14.207h14.714m0 0h14.72"/></g><path d="M216.762 14.207v1.973l4.191-1.973-4.191-1.973Zm0 0"/><path fill="none" stroke="#000" stroke-miterlimit="10" stroke-width=".39676161000000004" d="M120.648 28.02v14.718m0 0v14.715"/><path d="M120.648 32.21h1.973l-1.973-4.19-1.972 4.19Zm0 0"/><path fill="none" stroke="#000" stroke-miterlimit="10" stroke-width=".7925288300000001" d="M106.836 57.453h27.625v27.625h-27.625Zm0 0"/><use xlink:href="#d" x="117.588" y="74.342"/><path fill="none" stroke="#000" stroke-miterlimit="10" stroke-width=".39676161000000004" d="M134.46 71.266h22.075m0 0h22.078M187.492 104.809v-9.223m-17.758 9.223v-9.223m8.88-24.32v9.226"/><path fill="#FFF" stroke="#000" stroke-miterlimit="10" stroke-width=".39676161000000004" d="M187.492 97.164a1.579 1.579 0 1 0-.001-3.157 1.579 1.579 0 0 0 .001 3.157ZM169.734 97.164a1.579 1.579 0 1 0 0-3.157 1.579 1.579 0 0 0 0 3.157ZM178.613 82.07a1.579 1.579 0 1 0-.001-3.157 1.579 1.579 0 0 0 .001 3.157Zm0 0"/><path fill="none" stroke="#000" stroke-miterlimit="10" stroke-width=".7925288300000001" d="m178.613 82.07 6.856 13.07"/><g clip-path="url(#e)"><path fill="none" stroke="#000" stroke-miterlimit="10" stroke-width=".39676161000000004" d="m169.734 104.809-3.68 3.68m0 0-3.679 3.679v10.773m0 7.891v10.773"/></g><path fill="none" stroke="#000" stroke-miterlimit="10" stroke-width=".7925288300000001" d="M169.281 122.941H155.47m13.812 7.891H155.47M155.863 129.254v-4.734h13.024v4.734Zm0 0"/><g clip-path="url(#f)"><path fill="none" stroke="#000" stroke-miterlimit="10" stroke-width=".39676161000000004" d="m187.492 104.809 3.68 3.68m0 0 3.68 3.679v10.773m0 7.891v10.773h-16.239m0 0h-60.39m0 0H74.07v-70.34h32.766"/></g><path fill="none" stroke="#000" stroke-miterlimit="10" stroke-width=".7925288300000001" d="M201.754 122.941h-13.809m13.809 7.891h-13.809M188.34 129.254v-4.734h13.02v4.734Zm0 0"/><g clip-path="url(#g)"><path d="M163.953 141.605c0-.875-.707-1.578-1.578-1.578s-1.578.703-1.578 1.578a1.579 1.579 0 0 0 3.156 0m0 0"/></g><g clip-path="url(#h)"><path fill="none" stroke="#000" stroke-miterlimit="10" stroke-width=".39676161000000004" d="M163.953 141.605c0-.875-.707-1.578-1.578-1.578s-1.578.703-1.578 1.578a1.579 1.579 0 0 0 3.156 0Zm0 0"/></g><use xlink:href="#i" x="190.659" y="101.533"/><use xlink:href="#j" x="197.096" y="101.533"/><use xlink:href="#k" x="201.581" y="101.533"/><use xlink:href="#l" x="151.823" y="101.533"/><use xlink:href="#j" x="156.593" y="101.533"/><use xlink:href="#k" x="161.078" y="101.533"/><use xlink:href="#m" x="123.816" y="44.787"/><use xlink:href="#n" x="127.57" y="46.66"/><use xlink:href="#o" x="132.577" y="46.66"/><use xlink:href="#p" x="136.036" y="46.66"/><use xlink:href="#q" x="140.999" y="10.931"/><use xlink:href="#j" x="147.383" y="10.931"/><use xlink:href="#k" x="151.868" y="10.931"/><use xlink:href="#j" x="199.007" y="10.931"/><use xlink:href="#j" x="203.492" y="10.931"/><use xlink:href="#k" x="207.976" y="10.931"/></svg>