<svg xmlns="http://www.w3.org/2000/svg" xmlns:xlink="http://www.w3.org/1999/xlink" width="229.219" height="114.075"><defs><path id="a" d="M3.469-5.812c-.203 0-.735.078-1.078.078s-.672-.016-1.078-.016l-.016.016-.047.187q0 .047.047.047l.328.016c.125.015.313.078.313.297 0 .015 0 .062-.016.078l-.86 4.468c-.046.25-.187.36-.546.375l-.22.032C.25-.234.22-.22.22-.172L.172 0l.031.016C.593.016.937 0 1.281 0S1.97.016 2.36.016L2.391 0l.03-.172c0-.047-.015-.062-.062-.062l-.218-.032C1.859-.28 1.75-.344 1.75-.53v-.11l.39-1.953c.704 0 .86.14.938.344l.61 1.547c.171.422.468.797.984.797A1 1 0 0 0 5.047.03l.016-.218c-.375 0-.532-.297-.672-.688l-.72-1.86c.392-.124 1.25-.593 1.438-1.53.016-.11.032-.22.032-.329a1.2 1.2 0 0 0-.282-.781c-.328-.39-.843-.437-1.39-.437m-.047.296c.453 0 .969.157.969.891 0 .094-.016.234-.047.375-.203 1.11-.907 1.36-1.735 1.36h-.421l.437-2.22c.047-.25.188-.406.797-.406m0 0"/><path id="x" d="M1.063-.625c-.047.25-.204.344-.547.36l-.22.03C.25-.234.22-.218.22-.171L.172 0l.031.016C.5.016.937 0 1.297 0c.328 0 .75.016 1.156.016L2.47 0 2.5-.172c.016-.047-.016-.062-.047-.062l-.312-.032C1.859-.28 1.75-.344 1.75-.53v-.094l.39-1.969c.172.063.329.094.626.094 1.562 0 2.203-1.062 2.343-1.828.016-.078.032-.172.032-.281 0-.516-.297-1.203-1.625-1.203-.22 0-.766.078-1.11.078s-.781-.016-1.094-.016l-.015.016-.047.187q0 .047.047.047l.328.016c.125.015.313.078.313.297 0 .015 0 .062-.016.078Zm1.562-4.484c.047-.25.156-.407.766-.407.515 0 1 .157 1 .891 0 .14-.032.281-.063.469-.187.953-.719 1.343-1.547 1.343-.219 0-.5-.015-.594-.046Zm0 0"/><path id="b" d="M1.281-.875v-1.406c0-.36.032-.813.032-.813q0-.047-.094-.047C1.03-3.062.734-3 .25-2.937a.45.45 0 0 0 .016.203c.39.03.453.078.453.484v1.375c0 .594-.078.625-.5.656-.047.047-.047.188 0 .235C.453 0 .719 0 1.016 0c.28 0 .547 0 .78.016.048-.047.048-.188 0-.235-.437-.031-.515-.062-.515-.656m-.64-3.39c0 .187.172.374.343.374.204 0 .36-.187.36-.343 0-.172-.14-.36-.328-.36-.172 0-.375.172-.375.328m0 0"/><path id="f" d="M2.047-.875v-2.453c0-.438 0-.86.015-.953 0-.047-.015-.047-.03-.047-.391.25-.766.422-1.407.719a.3.3 0 0 0 .11.187c.328-.14.484-.172.624-.172.125 0 .141.172.141.406v2.313c0 .594-.187.64-.687.656-.047.047-.047.188 0 .235C1.156 0 1.422 0 1.797 0c.344 0 .516 0 .875.016.031-.047.031-.188 0-.235-.5-.015-.625-.062-.625-.656m0 0"/><path id="g" d="M1.531-4.094c.297 0 .594.188.594.64 0 .36-.422.907-1.125 1l.031.235c.125-.015.25-.015.344-.015.406 0 .938.109.938.922 0 .937-.641 1.14-.891 1.14-.36 0-.422-.172-.5-.297C.844-.563.75-.656.609-.656c-.14 0-.296.14-.296.25 0 .281.593.484 1.03.484.845 0 1.595-.547 1.595-1.5 0-.766-.579-1.047-1-1.11l-.016-.015c.594-.281.75-.578.75-.953a.74.74 0 0 0-.219-.562c-.156-.157-.406-.282-.781-.282-1.047 0-1.344.688-1.344.922 0 .11.078.25.25.25.25 0 .281-.234.281-.375 0-.453.485-.547.672-.547m0 0"/><path id="h" d="M1.063 0h1.515c.188 0 .844.016.844.016.062-.36.14-.813.187-1.188a.4.4 0 0 0-.234-.031c-.14.5-.406.922-1.156.922h-.453c-.282 0-.407-.125-.407-.5V-3.72c0-.594.125-.625.61-.64.047-.047.047-.203 0-.235-.313 0-.64.016-.922.016-.25 0-.578-.016-.906-.016-.047.032-.047.188 0 .235.484.015.609.046.609.64v2.844c0 .594-.125.64-.61.656-.046.047-.046.188 0 .235C.407 0 .814 0 1.064 0m0 0"/><path id="i" d="M.438-3.328a.28.28 0 0 0 .28.281c.126 0 .329-.125.329-.281 0-.063-.016-.11-.016-.156-.015-.047-.062-.11-.062-.172 0-.172.187-.438.703-.438.25 0 .625.188.625.86 0 .468-.172.828-.594 1.265l-.516.516C.485-.75.375-.406.375.016c0 0 .36-.016.578-.016h1.25c.235 0 .563.016.563.016.078-.375.156-.907.156-1.125-.031-.032-.125-.047-.203-.032-.11.5-.235.672-.5.672H.953c0-.328.5-.812.531-.86l.72-.687c.405-.39.718-.703.718-1.234 0-.781-.625-1.094-1.203-1.094-.797 0-1.281.594-1.281 1.016m0 0"/><path id="y" d="M1.36-.875v-2.844c0-.594.124-.625.609-.64.047-.047.047-.203 0-.235-.313 0-.64.016-.922.016-.234 0-.578-.016-.906-.016-.047.032-.047.188 0 .235.484.015.609.046.609.64v2.844c0 .594-.125.64-.61.656-.046.047-.046.188 0 .235C.454 0 .798 0 1.064 0c.25 0 .593 0 .906.016.047-.047.047-.188 0-.235-.485-.015-.61-.062-.61-.656m0 0"/><path id="z" d="M3.953-3.64v2.328c0 .125 0 .203-.047.203-.031 0-.14-.125-.344-.391L1.126-4.578l-.969-.016c-.031.032-.031.188 0 .235.313.015.532.265.563.453v2.953c0 .64-.11.687-.61.734-.046.047-.046.188 0 .235C.406 0 .734 0 .906 0c.156 0 .485 0 .782.016.046-.047.046-.188 0-.235-.5-.047-.61-.078-.61-.734v-2.172c0-.234 0-.344.047-.344s.125.078.25.235l2.484 3.14c.079.094.172.172.282.172.093 0 .156-.094.156-.234v-3.485c0-.625.125-.671.625-.718.047-.047.047-.203 0-.235-.297 0-.625.016-.797.016-.156 0-.484-.016-.797-.016-.031.032-.031.188 0 .235.5.046.625.078.625.718m0 0"/><path id="A" d="M4.734-2.344c0-1.469-1.015-2.328-2.28-2.328-1.392 0-2.188 1.094-2.188 2.469C.266-.797 1.28.078 2.484.078c.797 0 1.422-.344 1.813-.906.281-.406.437-.906.437-1.516M2.36-4.422c.938 0 1.688.781 1.688 2.219 0 1.265-.61 2.015-1.422 2.015-.86 0-1.672-.765-1.672-2.14 0-1.485.703-2.094 1.406-2.094m0 0"/><path id="B" d="M1.219-3.719c0-.594.11-.625.656-.64.047-.047.047-.203 0-.235-.328 0-.687.016-.953.016-.281 0-.578-.016-.844-.016-.047.032-.047.188 0 .235.422.015.547.046.547.64v2.063c0 1.453.938 1.734 1.656 1.734 1.453 0 1.813-.906 1.813-2.172v-1.625c0-.562.11-.594.547-.64.03-.047.03-.203 0-.235-.282 0-.563.016-.735.016-.14 0-.5-.016-.828-.016-.031.032-.031.188 0 .235.547.046.656.062.656.64v1.75c0 .797-.093 1.75-1.296 1.75-.344 0-.641-.125-.86-.328-.344-.344-.36-.875-.36-1.344Zm0 0"/><path id="C" d="M2.484-.875v-2.703c0-.453.079-.735.329-.735h.156c.531 0 .875.188.984.735.078 0 .188 0 .25-.031a7.4 7.4 0 0 1-.094-1.016l-.015-.016a30 30 0 0 1-1.594.063h-.61c-.546 0-1.39-.047-1.656-.063-.015 0-.03.016-.03.016-.032.328-.11.688-.188 1.031a.7.7 0 0 0 .25.031c.14-.562.468-.75.937-.75h.344c.266 0 .344.282.344.704v2.734c0 .594-.125.64-.703.656-.032.047-.032.188 0 .235C1.547 0 1.906 0 2.188 0c.265 0 .64 0 .984.016.047-.047.047-.188 0-.235-.563-.015-.688-.062-.688-.656m0 0"/><path id="c" d="M1.125-5.781h2.531L3.61-5H1.516l-.11 1.406c.852.031 1.473.211 1.86.531q.546.456.547 1.376c0 .5-.18.93-.532 1.28Q2.747.11 1.891.11 1.17.108.813-.156a.61.61 0 0 1-.266-.516q0-.389.39-.531.171.362.282.484.293.345.828.344c.344 0 .617-.113.828-.344.195-.207.297-.476.297-.812q0-.732-.563-1.047-.55-.312-1.78-.313Zm0 0"/><path id="d" d="M2.219-.39c.726 0 1.094-.833 1.094-2.5 0-1.665-.368-2.5-1.094-2.5q-1.094.001-1.094 2.5-.001 2.5 1.094 2.5m-.031.5q-.88.002-1.36-.735-.532-.778-.531-2.266 0-1.464.562-2.25.527-.75 1.407-.75.873 0 1.359.75.516.786.516 2.25 0 1.47-.563 2.266c-.344.492-.808.734-1.39.734m0 0"/><path id="e" d="M6.094-3.453q-.001.907-.547 1.703-.487.689-1.156 1.063v.156h1.187l.14-.719a.44.44 0 0 1 .204-.047q.28 0 .281.422-.002.346-.062.875H3.828v-.875q1.467-.75 1.469-2.625c0-.676-.184-1.21-.547-1.61q-.532-.609-1.375-.609-.845.002-1.375.594-.549.627-.547 1.64c0 .575.117 1.087.36 1.532.25.48.617.84 1.109 1.078V0H.625a7 7 0 0 1-.062-.875q0-.422.28-.422.108 0 .204.047l.14.719h1.188v-.156q-.644-.265-1.14-1.016-.58-.825-.579-1.75-.001-1.218.766-2 .763-.78 1.953-.781 1.202.002 1.953.765c.508.5.766 1.172.766 2.016m0 0"/><path id="j" d="M2.36-6.14c2.35 0 3.53.995 3.53 2.984q0 1.58-.921 2.375-.924.783-2.61.781H.422a.16.16 0 0 1-.016-.078Q.404-.324.72-.406l.375-.078v-5.172l-.547-.125c-.086-.02-.125-.055-.125-.11q0-.074.094-.25ZM2.327-.5q1.312 0 2.016-.656.716-.669.718-1.969Q5.06-4.373 4.345-5q-.703-.64-2.016-.64H1.86V-.5Zm0 0"/><path id="k" d="M2.656-2.766q0-.59-.187-.859-.175-.28-.61-.281-.28 0-.515.094-.11.235-.203.78a2 2 0 0 1-.188.016q-.438 0-.437-.39c0-.27.148-.5.453-.688A1.97 1.97 0 0 1 2-4.375q1.373 0 1.375 1.5v1.953c0 .336.102.5.313.5q.2.001.312-.11.077.112.078.25c0 .063-.055.134-.156.204a.9.9 0 0 1-.531.156q-.611 0-.688-.61h-.015q-.423.643-1.22.641-.515 0-.827-.312-.299-.311-.297-.828 0-.656.656-1 .563-.312 1.406-.313h.25Zm-.89 2.313q.498 0 .89-.469v-1.015l-.25.015q-1.282.096-1.281.813c0 .437.21.656.64.656m-.563-4.594a.41.41 0 0 1-.312-.125.47.47 0 0 1-.11-.328q-.001-.2.11-.328a.43.43 0 0 1 .312-.125q.186.001.313.125a.46.46 0 0 1 .125.328.45.45 0 0 1-.125.328.42.42 0 0 1-.313.125m1.516 0a.43.43 0 0 1-.437-.453c0-.133.038-.242.124-.328a.43.43 0 0 1 .313-.125c.125 0 .226.043.312.125a.46.46 0 0 1 .125.328.45.45 0 0 1-.125.328.42.42 0 0 1-.312.125m0 0"/><path id="l" d="m7.047-.469.531.125q.124.035.125.11A.4.4 0 0 1 7.625 0h-1.89a.1.1 0 0 1-.016-.062c0-.133.093-.235.281-.297l.328-.11v-2.265q0-1.045-.844-1.047c-.46 0-.859.164-1.203.484q.062.317.063.516V-.47l.531.125q.124.035.125.11A.35.35 0 0 1 4.906 0h-1.89v-.062c0-.133.093-.235.28-.297l.329-.11v-2.265c0-.696-.29-1.047-.86-1.047-.437 0-.82.148-1.14.437v2.875l.531.125q.124.035.125.11A.4.4 0 0 1 2.203 0H.313a.1.1 0 0 1-.016-.062c0-.133.094-.235.281-.297l.328-.11V-3.78l-.64-.094a.1.1 0 0 1-.016-.062q0-.247.328-.282l1.047-.11-.047.61h.016q.623-.656 1.422-.656c.539 0 .922.242 1.14.719q.64-.717 1.532-.719.636 0 1 .422.358.41.359 1.172Zm0 0"/><path id="m" d="M.86 1.313v-5.094l-.657-.094v-.062q0-.247.328-.282l1.047-.11-.062.595h.03q.528-.64 1.313-.641.762.001 1.22.547.451.55.452 1.515 0 1.173-.61 1.782-.562.579-1.577.578c-.262 0-.516-.04-.766-.11v1.376l.531.125c.082.007.125.046.125.109a.36.36 0 0 1-.093.234H.266A.13.13 0 0 1 .25 1.72q0-.205.281-.297Zm1.734-5.11q-.581 0-1.016.422v2.656q.341.282.828.282 1.373 0 1.375-1.829 0-.732-.328-1.125a1.03 1.03 0 0 0-.86-.406m0 0"/><path id="n" d="M.922-4.266v-.046q0-.998.469-1.579.433-.528 1.03-.53c.352 0 .532.14.532.421a.46.46 0 0 1-.156.328 1.16 1.16 0 0 0-.578-.156q-.33 0-.453.172c-.086.117-.125.308-.125.578v.812h1.203l-.094.454H1.64V-.47l.626.125c.07.024.109.059.109.11A.4.4 0 0 1 2.297 0H.312v-.062c0-.133.094-.235.282-.297l.328-.11v-3.343H.234v-.063c0-.145.086-.238.266-.281Zm0 0"/><path id="o" d="m.781-3.781-.64-.094a.1.1 0 0 1-.016-.062q0-.247.328-.282l1.047-.11v2.798q0 1.048.89 1.047.688 0 1.11-.438v-2.86l-.656-.093v-.062q0-.247.328-.282l1.047-.11v3.845l.64.078q.014.047.016.078 0 .252-.328.281l-1 .094v-.578H3.53c-.344.43-.793.64-1.344.64Q.782.11.782-1.484Zm0 0"/><path id="p" d="M.906-.469V-3.78l-.64-.094a.1.1 0 0 1-.016-.062q0-.247.328-.282l1.047-.11-.047.61h.016q.31-.293.515-.422.422-.234.954-.234.654 0 1.015.422.375.422.375 1.172V-.47l.531.125q.124.035.125.11A.35.35 0 0 1 5.016 0H3.125v-.062c0-.133.086-.235.266-.297l.328-.11v-2.265c0-.364-.102-.641-.297-.828q-.252-.219-.656-.22c-.43 0-.809.15-1.141.438v2.875l.531.125q.124.035.125.11A.4.4 0 0 1 2.203 0H.313a.1.1 0 0 1-.016-.062c0-.133.094-.235.281-.297Zm0 0"/><path id="q" d="M.484-2.953c0-.445.164-.8.5-1.063q.452-.358 1.125-.359c.239 0 .461.04.672.11h1.516l-.094.484H3.47c.187.242.281.515.281.828q-.001.676-.5 1.062-.47.392-1.187.391-.206 0-.422-.047-.282.159-.282.422 0 .314.47.313h1.015q.576.001.906.265a.83.83 0 0 1 .344.703Q4.092.86 3.5 1.344c-.437.363-1.008.547-1.703.547C.742 1.89.219 1.539.219.844c0-.524.265-.875.797-1.063v-.015C.786-.36.672-.554.672-.828q0-.497.61-.813v-.015Q.483-2.03.483-2.953m1.625 1q.938.001.938-1-.001-.45-.266-.703a.87.87 0 0 0-.656-.266q-.924 0-.922.969c0 .668.3 1 .906 1M1.72-.11q-.19.002-.344-.032C1.07.012.922.266.922.61q0 .781.984.782.684 0 1.094-.282.375-.25.375-.671c0-.368-.242-.547-.719-.547Zm0 0"/><path id="r" d="M1-.562q.264.187.64.187c.508 0 .766-.191.766-.578q-.002-.248-.25-.485a5 5 0 0 0-.578-.39q-.516-.328-.75-.563a1.26 1.26 0 0 1-.344-.859c0-.344.133-.613.407-.812q.406-.312 1.015-.313c.383 0 .703.102.953.297q.031.346.032.547c0 .304-.118.453-.344.453a.16.16 0 0 1-.078-.016l-.11-.64a1.06 1.06 0 0 0-.593-.188c-.438 0-.657.18-.657.531q0 .346.516.688c.313.2.617.402.922.61q.515.41.515.937 0 .55-.421.906-.41.362-1.078.36C1.125.11.766.022.484-.14a3.7 3.7 0 0 1-.078-.735q0-.422.328-.422h.079Zm0 0"/><path id="s" d="M.86-.469v-5.437L.218-6a.16.16 0 0 1-.016-.078q0-.247.328-.266l1.047-.11v5.985l.531.125q.124.035.125.11A.4.4 0 0 1 2.156 0H.266v-.062c0-.133.086-.235.265-.297Zm0 0"/><path id="t" d="M.906-.469V-3.78l-.64-.094a.1.1 0 0 1-.016-.062q0-.247.328-.282l1.047-.11v3.86l.531.125q.124.035.125.11A.4.4 0 0 1 2.203 0H.313a.1.1 0 0 1-.016-.062c0-.133.094-.235.281-.297ZM.75-5.812q0-.218.14-.36a.513.513 0 0 1 .735 0 .47.47 0 0 1 .156.36.49.49 0 0 1-.156.375.5.5 0 0 1-.36.14.53.53 0 0 1-.374-.14.5.5 0 0 1-.141-.375m0 0"/><path id="u" d="M1.156-2.156q.012.83.375 1.281c.239.305.57.453 1 .453q.591 0 1.094-.422c.063.043.102.125.125.25q-.001.222-.406.438-.47.265-1.11.265Q1.42.111.938-.39C.57-.766.39-1.316.39-2.047Q.39-3.153.969-3.797a1.7 1.7 0 0 1 1.297-.578q.684 0 1.093.422.36.393.36 1.078 0 .284-.094.719Zm1.016-1.75c-.594 0-.93.437-1 1.312h1.75q.03-.17.031-.36-.001-.95-.781-.952m0 0"/><path id="v" d="M3.39-.5h-.015q-.456.61-1.281.61-.72 0-1.172-.47C.566-.71.39-1.265.39-2.015c0-.77.226-1.367.687-1.796q.609-.564 1.5-.563c.27 0 .524.04.766.11v-1.641L2.688-6v-.078q0-.247.328-.266l1.047-.11v5.97l.656.078v.078q0 .252-.328.281l-1 .094Zm-1.078.031q.639 0 1.032-.39v-2.703q-.33-.312-.86-.313-.596.002-.953.438-.39.47-.39 1.296 0 .846.328 1.282.31.39.843.39m0 0"/><clipPath id="w"><path d="M1 0h166v113.156H1Zm0 0"/></clipPath></defs><path fill="none" stroke="#000" stroke-miterlimit="10" stroke-width=".39579204" d="M37.168 98.687V69.836m0-22.438V18.547"/><path fill="none" stroke="#000" stroke-miterlimit="10" stroke-width=".79059212" d="M25.95 58.617c0 6.195 5.023 11.219 11.218 11.219s11.219-5.024 11.219-11.219-5.024-11.219-11.219-11.219-11.219 5.024-11.219 11.22Zm0 0"/><path fill="none" stroke="#000" stroke-miterlimit="10" stroke-width=".79059212" d="M42.777 58.617c-.914 1.438-1.789 2.805-2.804 2.805-1.016 0-1.891-1.367-2.805-2.805-.914-1.437-1.79-2.805-2.805-2.805s-1.89 1.368-2.804 2.805"/><use xlink:href="#a" x="4.111" y="55.193"/><use xlink:href="#b" x="9.351" y="57.061"/><use xlink:href="#c" x="4.111" y="66.016"/><use xlink:href="#d" x="8.559" y="66.016"/><use xlink:href="#e" x="14.482" y="66.016"/><path fill="none" stroke="#000" stroke-miterlimit="10" stroke-width=".39579204" d="M37.168 18.547h25.11m29.921 0h25.11"/><path fill="none" stroke="#000" stroke-miterlimit="10" stroke-width=".79059212" d="M62.277 12.937H92.2v11.22H62.277Zm0 0"/><use xlink:href="#a" x="72.773" y="9.176"/><use xlink:href="#f" x="78.011" y="11.043"/><path fill="none" stroke="#000" stroke-miterlimit="10" stroke-width=".39579204" d="M117.309 18.547h25.109m29.922 0h25.11v25.11m0 29.921v25.11h-80.141m0 0H37.168"/><path fill="none" stroke="#000" stroke-miterlimit="10" stroke-width=".79059212" d="M142.418 12.937h29.922v11.22h-29.922Zm0 0"/><use xlink:href="#a" x="152.913" y="9.176"/><use xlink:href="#g" x="158.151" y="11.043"/><path fill="none" stroke="#000" stroke-miterlimit="10" stroke-width=".79059212" d="M191.84 73.578V43.656h11.219v29.922Zm0 0"/><use xlink:href="#a" x="207.196" y="55.193"/><use xlink:href="#h" x="212.434" y="57.061"/><use xlink:href="#c" x="207.196" y="66.016"/><use xlink:href="#d" x="211.643" y="66.016"/><use xlink:href="#e" x="217.566" y="66.016"/><path fill="none" stroke="#000" stroke-miterlimit="10" stroke-width=".39579204" d="M117.309 18.547v25.11m0 29.921v25.11"/><path fill="none" stroke="#000" stroke-miterlimit="10" stroke-width=".79059212" d="M111.7 73.578V43.656h11.218v29.922Zm0 0"/><path stroke="#000" stroke-miterlimit="10" stroke-width=".39579204" d="M118.883 18.547c0-.871-.703-1.574-1.574-1.574s-1.575.703-1.575 1.574c0 .87.704 1.574 1.575 1.574.87 0 1.574-.703 1.574-1.574ZM118.883 98.687c0-.87-.703-1.574-1.574-1.574s-1.575.703-1.575 1.574.704 1.575 1.575 1.575c.87 0 1.574-.703 1.574-1.575Zm0 0"/><use xlink:href="#a" x="100.606" y="60.752"/><use xlink:href="#i" x="105.845" y="62.62"/><use xlink:href="#j" x="85.924" y="108.308"/><use xlink:href="#k" x="92.292" y="108.308"/><use xlink:href="#l" x="96.446" y="108.308"/><use xlink:href="#m" x="104.282" y="108.308"/><use xlink:href="#n" x="109.2" y="108.308"/><use xlink:href="#o" x="112.153" y="108.308"/><use xlink:href="#p" x="117.214" y="108.308"/><use xlink:href="#q" x="122.444" y="108.308"/><use xlink:href="#r" x="126.855" y="108.308"/><use xlink:href="#q" x="130.298" y="108.308"/><use xlink:href="#s" x="134.709" y="108.308"/><use xlink:href="#t" x="137.191" y="108.308"/><use xlink:href="#u" x="139.637" y="108.308"/><use xlink:href="#v" x="143.781" y="108.308"/><path fill="none" stroke="#D9D9D9" stroke-miterlimit="10" stroke-width="28.11909012" d="M55.066 58.617h20.036m0 0h.082"/><path fill="#D9D9D9" d="M91.375 58.617 76.515 43.27v30.695Zm0 0"/><g clip-path="url(#w)"><path fill="none" stroke="#D9D9D9" stroke-miterlimit="10" stroke-width="5.31988148" d="M91.375 58.617 76.515 43.27v30.695Zm0 0"/></g><use xlink:href="#x" x="69.129" y="60.557" fill="#4C4C4C"/><g fill="#4C4C4C"><use xlink:href="#y" x="73.603" y="62.425"/><use xlink:href="#z" x="75.716" y="62.425"/></g><path fill="none" stroke="#D9D9D9" stroke-miterlimit="10" stroke-width="14.05904908" d="M145.09 58.617h20.035m0 0h9.406"/><path fill="#D9D9D9" stroke="#D9D9D9" stroke-miterlimit="10" stroke-width="2.83502168" d="m183.156 58.617-7.918-8.176v16.352Zm0 0"/><use xlink:href="#x" x="155.723" y="60.557" fill="#4C4C4C"/><g fill="#4C4C4C"><use xlink:href="#A" x="160.197" y="62.425"/><use xlink:href="#B" x="165.192" y="62.425"/><use xlink:href="#C" x="169.895" y="62.425"/></g></svg>