<svg xmlns="http://www.w3.org/2000/svg" xmlns:xlink="http://www.w3.org/1999/xlink" width="230.834" height="118.435"><defs><path id="a" d="M2.031-.578V-5l-1.344.266a1 1 0 0 1-.015-.188c0-.133.07-.226.219-.281l1.468-.594h.438v5.219l1.094.172q.14.016.14.11-.002.08-.11.296H.86v-.078q0-.311.282-.36Zm0 0"/><path id="b" d="M.828-.469v-5.468l-.656-.079a.2.2 0 0 1-.016-.078q0-.246.328-.281l1.063-.11v4h.531l1.203-1.374L2.656-4a.2.2 0 0 1-.015-.062q-.001-.219.25-.22h1.437c.07 0 .11.032.11.095A.5.5 0 0 1 4.375-4l-.516.156L2.594-2.39 4.109-.453l.454.11q.124.015.125.109A.35.35 0 0 1 4.594 0H3.437L1.954-2.047h-.406v1.594L2-.343q.124.015.125.109A.35.35 0 0 1 2.031 0H.22v-.062c0-.133.086-.235.265-.297Zm0 0"/><path id="c" d="M6.125-3.469q0 .924-.562 1.719-.488.69-1.157 1.047v.172H5.61l.125-.719a.44.44 0 0 1 .204-.047q.28.001.28.406 0 .365-.046.891H3.844v-.89C4.82-1.38 5.313-2.25 5.313-3.5q-.001-1.03-.547-1.64-.533-.61-1.375-.61-.845 0-1.391.61-.532.626-.531 1.64-.001.877.343 1.531.376.738 1.126 1.078V0H.624a10 10 0 0 1-.047-.89c0-.27.086-.407.266-.407q.107 0 .203.047l.14.719h1.188v-.156c-.43-.188-.809-.524-1.14-1.016Q.654-2.53.655-3.47q-.001-1.216.766-2 .762-.797 1.969-.797c.8 0 1.457.258 1.968.766.508.512.766 1.188.766 2.031m0 0"/><path id="y" d="M1.094-.484v-5.203l-.547-.125C.46-5.82.422-5.852.422-5.906q0-.075.094-.25H4.53q.062.752.063 1.047c0 .273-.086.406-.25.406a.4.4 0 0 1-.188-.047l-.218-.937H1.874v2.312h1.984v.5H1.875v2.36H4l.234-.954a.7.7 0 0 1 .204-.031q.234 0 .234.36 0 .361-.094 1.14H.422a.16.16 0 0 1-.016-.078Q.404-.324.72-.406Zm0 0"/><path id="z" d="M4.484-.484 3.906-2.11H1.672L1.094-.484l.672.125q.124.017.125.093 0 .066-.094.266H-.078a.2.2 0 0 1-.016-.078Q-.096-.342.22-.406l.25-.063 2.156-5.687.563-.078L5.328-.47l.406.11q.124.034.125.093-.002.048-.109.266H3.844v-.078q-.002-.246.297-.328Zm-2.64-2.11h1.89l-.921-2.61h-.016Zm0 0"/><path id="e" d="M3.844-1.953h-.75v-2.61c0-.437 0-.796.015-.859l-.015-.016h-.281c-.063 0-.11.047-.141.094-.563.688-1.594 2.157-2.422 3.438.031.125.078.375.344.375h1.828v.812c0 .422-.344.422-.735.438-.046.062-.046.25 0 .297C1.985.016 2.345 0 2.75 0c.344 0 .688.016.969.016.062-.047.062-.235 0-.297-.438-.031-.625-.016-.625-.438v-.812h.625c.125 0 .25-.172.25-.282 0-.093-.031-.14-.125-.14M2.422-4.516v2.563H.719c.453-.734 1.078-1.734 1.703-2.563m0 0"/><path id="f" d="M.922-.844c-.266 0-.469.188-.469.438 0 .265.235.36.39.39.173.016.329.063.329.282 0 .187-.328.593-.781.703 0 .094.015.156.078.219C1 1.094 1.516.656 1.516.03c0-.531-.235-.875-.594-.875m0 0"/><path id="g" d="M1.516-4.766h1.593c-.687 1.72-1.39 3.47-2 4.813l.063.062.61-.015c.515-1.516 1-3 2-5.438l-.141-.11a2.2 2.2 0 0 1-.688.095H1.11c-.296 0-.28-.079-.437-.125-.031 0-.031 0-.031.03-.016.438-.11.97-.188 1.423A.6.6 0 0 0 .734-4c.204-.703.5-.766.782-.766m0 0"/><path id="h" d="M1.64-3.187c-.046.062-.109.078-.109 0 0-.25-.031-.594-.062-.688-.016-.047-.047-.062-.11-.062-.25.093-.484.171-1.093.25-.032.062 0 .203.015.25.485.046.578.093.578.609v1.734c0 .735-.093.766-.625.813-.062.062-.062.25 0 .297C.5.016.86 0 1.22 0c.343 0 .625.016.89.016.047-.047.047-.235 0-.297-.453-.047-.546-.078-.546-.813v-1.453c0-.187.078-.297.156-.375.328-.328.734-.531 1.078-.531.187 0 .375.11.484.328.078.172.094.406.094.688v1.343c0 .735-.078.766-.547.813-.047.062-.047.25 0 .297.266 0 .547-.016.906-.016.36 0 .688.016.954.016.046-.047.046-.235 0-.297-.5-.047-.594-.078-.594-.813v-1.328c0-.484-.047-.922-.25-1.187-.156-.203-.422-.313-.735-.313-.437 0-.937.125-1.468.735m0 0"/><path id="i" d="M2.531-2.875c.75 0 .781.203.813.594.047.062.234.062.281 0 0-.219-.016-.469-.016-.781 0-.297.016-.532.016-.766-.047-.047-.234-.047-.281 0-.031.484-.063.61-.813.61h-.844v-1.61c0-.484.11-.563.5-.563h.407c.953 0 1.172.344 1.375.97a.7.7 0 0 0 .265-.048 60 60 0 0 0-.187-1.297c0-.015-.016-.03-.047-.03-.14.03-.187.046-.406.046H1.313c-.282 0-.797-.016-1.157-.016-.047.047-.047.235 0 .282.625.03.782.078.782.812v3.578c0 .75-.157.797-.782.813-.047.062-.047.25 0 .297C.47.016.922 0 1.328 0c.39 0 .828.016 1.14.016.063-.047.063-.235 0-.297-.624-.016-.78-.063-.78-.813v-1.781Zm0 0"/><path id="k" d="M-1.094-2.562h-3.093c-.532 0-1.079-.016-1.188-.032-.047 0-.047.016-.047.047.297.5.531.969.89 1.75.095-.015.188-.047.235-.125-.156-.422-.219-.61-.219-.781 0-.156.22-.172.516-.172h2.906c.75 0 .797.234.813.86.062.046.25.046.297 0C.016-1.454 0-1.782 0-2.25c0-.437.016-.656.016-1.094-.047-.062-.235-.062-.297 0-.016.625-.063.781-.813.781m0 0"/><path id="l" d="M-3.187-1.64c.062.046.078.109 0 .109-.25 0-.594.031-.688.062-.047.016-.062.047-.062.11.093.25.171.484.25 1.093.062.032.203 0 .25-.015.046-.485.093-.578.609-.578h1.734c.735 0 .766.093.813.625.062.062.25.062.297 0C.016-.5 0-.86 0-1.22c0-.343.016-.625.016-.89-.047-.047-.235-.047-.297 0-.047.453-.078.547-.813.547h-1.453a.5.5 0 0 1-.375-.157c-.328-.328-.531-.734-.531-1.078 0-.187.11-.375.328-.484.172-.078.406-.094.688-.094h1.343c.735 0 .766.078.813.547.062.047.25.047.297 0 0-.266-.016-.547-.016-.906 0-.36.016-.688.016-.953-.047-.047-.235-.047-.297 0-.047.5-.078.593-.813.593h-1.328c-.484 0-.922.047-1.187.25-.203.156-.313.422-.313.735 0 .437.125.937.735 1.468m0 0"/><path id="m" d="M-2.875-2.531c0-.75.203-.781.594-.813.062-.047.062-.234 0-.281-.219 0-.469.016-.781.016-.297 0-.532-.016-.766-.016-.047.047-.047.234 0 .281.484.031.61.063.61.813v.844h-1.61c-.484 0-.563-.11-.563-.5v-.407c0-.953.344-1.172.97-1.375a.7.7 0 0 0-.048-.265 60 60 0 0 0-1.297.187c-.015 0-.03.016-.03.047.03.14.046.188.046.406v2.282c0 .28-.016.796-.016 1.156.047.047.235.047.282 0 .03-.625.078-.781.812-.781h3.578c.75 0 .797.156.813.78.062.048.25.048.297 0C.016-.468 0-.921 0-1.327c0-.39.016-.828.016-1.14-.047-.063-.235-.063-.297 0-.016.624-.063.78-.813.78h-1.781Zm0 0"/><path id="q" d="M-1.953-3.844v.75h-2.61c-.437 0-.796 0-.859-.015l-.016.015v.281c0 .063.047.11.094.141.688.563 2.157 1.594 3.438 2.422.125-.031.375-.078.375-.344v-1.828h.812c.422 0 .422.344.438.735.062.046.25.046.297 0C.016-1.984 0-2.344 0-2.75c0-.344.016-.687.016-.969-.047-.062-.235-.062-.297 0-.031.438-.016.625-.438.625h-.812v-.625c0-.125-.172-.25-.282-.25-.093 0-.14.031-.14.125m-2.563 1.422h2.563v1.703c-.734-.453-1.734-1.078-2.563-1.703m0 0"/><path id="r" d="M-.844-.922c0 .266.188.469.438.469.265 0 .36-.234.39-.39.016-.173.063-.329.282-.329.187 0 .593.328.703.781.094 0 .156-.015.219-.078C1.094-1 .656-1.516.03-1.516c-.531 0-.875.235-.875.594m0 0"/><path id="s" d="M-4.766-1.516v-1.593c1.72.687 3.47 1.39 4.813 2l.062-.063-.015-.61c-1.516-.515-3-1-5.438-2l-.11.141c.048.157.095.344.095.688v1.844c0 .297-.079.28-.125.437 0 .031 0 .031.03.031.438.016.97.11 1.423.188A.6.6 0 0 0-4-.734c-.703-.203-.766-.5-.766-.782m0 0"/><path id="t" d="M-.578-2.031H-5l.266 1.344q-.105.016-.188.015c-.133 0-.226-.07-.281-.219l-.594-1.468v-.438h5.219l.172-1.094q.016-.14.11-.14.08.002.296.11V-.86h-.078q-.311 0-.36-.282Zm0 0"/><path id="u" d="M-.39-2.234q.001-1.092-2.516-1.094c-1.664 0-2.5.367-2.5 1.094 0 .73.836 1.093 2.5 1.093 1.68 0 2.515-.363 2.515-1.093m.5.046q0 .862-.75 1.36-.779.532-2.266.531c-.977 0-1.735-.187-2.266-.562q-.733-.53-.734-1.422.001-.873.734-1.36c.531-.343 1.29-.515 2.266-.515q1.487 0 2.265.562.75.516.75 1.406m0 0"/><path id="v" d="M-.469-.828h-5.468l-.079.656a.2.2 0 0 1-.078.016q-.246 0-.281-.328l-.11-1.063h4v-.531l-1.374-1.203-.141.625a.2.2 0 0 1-.062.015q-.219.001-.22-.25v-1.437c0-.07.032-.11.095-.11.042 0 .105.024.187.063l.156.516 1.453 1.265 1.938-1.515.11-.453q.015-.125.109-.125.129 0 .234.093v1.157l-2.047 1.484v.406h1.594L-.343-2q.015-.124.109-.125.129 0 .234.094V-.22h-.062c-.133 0-.235-.086-.297-.265Zm0 0"/><path id="w" d="M-3.469-6.125q.924 0 1.719.563.69.486 1.047 1.156h.172V-5.61l-.719-.125a.44.44 0 0 1-.047-.203q.001-.282.406-.282.365 0 .891.047v2.328h-.89C-1.38-4.82-2.25-5.313-3.5-5.313q-1.03.001-1.64.547-.61.533-.61 1.375 0 .845.61 1.391.626.532 1.64.531.877.001 1.531-.343.738-.375 1.078-1.125H0v2.312q-.527.047-.89.047c-.27 0-.407-.086-.407-.266q0-.107.047-.203l.719-.14v-1.188h-.156c-.188.43-.524.809-1.016 1.14q-.826.58-1.766.579-1.216.001-2-.766-.797-.762-.797-1.969c0-.8.258-1.457.766-1.968.512-.508 1.188-.766 2.031-.766m0 0"/><clipPath id="d"><path d="M217 9h13.203v15H217Zm0 0"/></clipPath><clipPath id="j"><path d="M.465 36H14v16H.465Zm0 0"/></clipPath><clipPath id="n"><path d="M87 107h2v10.871h-2Zm0 0"/></clipPath><clipPath id="o"><path d="M81 117h14v.871H81Zm0 0"/></clipPath><clipPath id="p"><path d="M.465 100H14v16H.465Zm0 0"/></clipPath><clipPath id="x"><path d="M217 64h13.203v15H217Zm0 0"/></clipPath></defs><path fill="none" stroke="#000" stroke-miterlimit="10" stroke-width=".39710475" d="m51.46 43.918 14.118-10.59m8.152-6.117 14.122-10.59h44.398m20.379 0h71.695"/><path fill="none" stroke="#000" stroke-miterlimit="10" stroke-width=".79321425" d="m73.73 27.21-11.972 1.02 7.644 10.192Zm0 0"/><path fill="none" stroke="#000" stroke-miterlimit="10" stroke-width=".39710475" d="m73.73 27.21-8.152 6.118"/><path fill="none" stroke="#000" stroke-miterlimit="10" stroke-width=".79321425" d="m77.55 32.309-7.64-10.192"/><path stroke="#000" stroke-miterlimit="10" stroke-width=".39710475" d="M53.04 43.918a1.58 1.58 0 1 0-3.16-.005 1.58 1.58 0 0 0 3.16.005Zm0 0"/><path fill="none" stroke="#000" stroke-miterlimit="10" stroke-width=".79321425" d="M132.25 12.8h20.379v7.645H132.25Zm0 0"/><path stroke="#000" stroke-miterlimit="10" stroke-width=".39710475" d="M125.824 16.621a1.58 1.58 0 1 0-3.159.003 1.58 1.58 0 0 0 3.16-.003ZM162.215 16.621a1.58 1.58 0 1 0-3.161.003 1.58 1.58 0 0 0 3.16-.003Zm0 0"/><use xlink:href="#a" x="133.709" y="9.207"/><use xlink:href="#b" x="139.652" y="9.207"/><use xlink:href="#c" x="144.382" y="9.207"/><path stroke="#000" stroke-miterlimit="10" stroke-width=".39710475" d="M198.61 16.621a1.58 1.58 0 1 0-3.16.003 1.58 1.58 0 0 0 3.16-.003Zm0 0"/><path fill="#FFF" d="M225.902 16.621a1.58 1.58 0 1 0-3.161.003 1.58 1.58 0 0 0 3.161-.003m0 0"/><g clip-path="url(#d)"><path fill="none" stroke="#000" stroke-miterlimit="10" stroke-width=".39710475" d="M225.902 16.621a1.58 1.58 0 1 0-3.161.003 1.58 1.58 0 0 0 3.161-.003Zm0 0"/></g><path fill="none" stroke="#000" stroke-miterlimit="10" stroke-width=".39710475" d="M51.46 43.918H31.263m-5.094 0h-20.2"/><path fill="none" stroke="#000" stroke-miterlimit="10" stroke-width=".79321425" d="M31.262 51.559V36.273M26.168 51.56V36.273"/><use xlink:href="#e" x="18.258" y="32.297"/><use xlink:href="#f" x="22.407" y="32.297"/><use xlink:href="#g" x="24.37" y="32.297"/><use xlink:href="#h" x="30.001" y="32.297"/><use xlink:href="#i" x="34.838" y="32.297"/><path d="M7.695 43.918v-1.977L3.5 43.918l4.195 1.973Zm0 0"/><g clip-path="url(#j)"><path fill="none" stroke="#000" stroke-miterlimit="10" stroke-width=".39710475" d="M7.695 43.918v-1.977L3.5 43.918l4.195 1.973Zm0 0"/></g><path fill="none" stroke="#000" stroke-miterlimit="10" stroke-width=".39710475" d="m51.46 43.918 14.118 10.59m8.152 6.113 14.122 10.59v15.648m0 5.094v15.649"/><path fill="none" stroke="#000" stroke-miterlimit="10" stroke-width=".79321425" d="m65.578 54.508 11.973 1.02-7.64 10.187Zm0 0"/><path fill="none" stroke="#000" stroke-miterlimit="10" stroke-width=".39710475" d="m65.578 54.508 8.152 6.113"/><path fill="none" stroke="#000" stroke-miterlimit="10" stroke-width=".79321425" d="m61.758 59.602 7.644-10.192"/><path stroke="#000" stroke-miterlimit="10" stroke-width=".39710475" d="M89.43 71.21a1.579 1.579 0 1 0-3.158.002 1.579 1.579 0 0 0 3.158-.001Zm0 0"/><path fill="none" stroke="#000" stroke-miterlimit="10" stroke-width=".79321425" d="M95.492 86.86H80.207m15.285 5.093H80.207"/><path stroke="#000" stroke-miterlimit="10" stroke-width=".39710475" d="M89.43 107.602a1.579 1.579 0 0 0-3.157 0 1.58 1.58 0 0 0 1.579 1.582 1.58 1.58 0 0 0 1.578-1.582Zm0 0"/><use xlink:href="#k" x="103.655" y="96.062"/><use xlink:href="#l" x="103.655" y="90.431"/><use xlink:href="#m" x="103.655" y="85.594"/><g clip-path="url(#n)"><path fill="none" stroke="#000" stroke-miterlimit="10" stroke-width=".39710475" d="M87.852 107.602v9.875"/></g><g clip-path="url(#o)"><path fill="none" stroke="#000" stroke-linecap="round" stroke-miterlimit="10" stroke-width=".79321425" d="M81.926 117.477h11.851"/></g><path fill="none" stroke="#000" stroke-miterlimit="10" stroke-width=".39710475" d="M87.852 107.602H5.969"/><path d="M7.695 107.602v-1.973L3.5 107.602l4.195 1.976Zm0 0"/><g clip-path="url(#p)"><path fill="none" stroke="#000" stroke-miterlimit="10" stroke-width=".39710475" d="M7.695 107.602v-1.973L3.5 107.602l4.195 1.976Zm0 0"/></g><path fill="none" stroke="#000" stroke-miterlimit="10" stroke-width=".39710475" d="M87.852 107.602h36.39V91.953m0-5.094V16.621"/><path fill="none" stroke="#000" stroke-miterlimit="10" stroke-width=".79321425" d="M116.602 91.953h15.285m-15.285-5.094h15.285"/><path stroke="#000" stroke-miterlimit="10" stroke-width=".39710475" d="M125.824 107.602a1.58 1.58 0 1 0-3.159.002 1.58 1.58 0 0 0 3.16-.002Zm0 0"/><use xlink:href="#k" x="140.047" y="96.062"/><use xlink:href="#l" x="140.047" y="90.431"/><use xlink:href="#m" x="140.047" y="85.594"/><path fill="none" stroke="#000" stroke-miterlimit="10" stroke-width=".39710475" d="M124.242 107.602h36.395V91.953m0-5.094V54.105m0-20.378V16.62"/><path fill="none" stroke="#000" stroke-miterlimit="10" stroke-width=".79321425" d="M152.992 91.953h15.285m-15.285-5.094h15.285"/><path stroke="#000" stroke-miterlimit="10" stroke-width=".39710475" d="M162.215 107.602a1.58 1.58 0 1 0-3.161.003 1.58 1.58 0 0 0 3.16-.003Zm0 0"/><use xlink:href="#q" x="176.439" y="99.702"/><use xlink:href="#r" x="176.439" y="95.553"/><use xlink:href="#s" x="176.439" y="93.59"/><use xlink:href="#l" x="176.439" y="87.959"/><use xlink:href="#m" x="176.439" y="83.122"/><path fill="none" stroke="#000" stroke-miterlimit="10" stroke-width=".79321425" d="M164.457 33.727v20.378h-7.64V33.727Zm0 0"/><path stroke="#000" stroke-miterlimit="10" stroke-width=".39710475" d="M162.215 71.21a1.58 1.58 0 0 0-3.16 0 1.58 1.58 0 0 0 3.16 0ZM162.215 16.621a1.58 1.58 0 1 0-3.161.003 1.58 1.58 0 0 0 3.16-.003Zm0 0"/><use xlink:href="#t" x="172.923" y="56.065"/><use xlink:href="#u" x="172.923" y="51.603"/><use xlink:href="#u" x="172.923" y="47.141"/><use xlink:href="#v" x="172.923" y="41.197"/><use xlink:href="#w" x="172.923" y="36.468"/><path fill="none" stroke="#000" stroke-miterlimit="10" stroke-width=".39710475" d="M160.637 107.602h36.39V91.953m0-5.094V16.621"/><path fill="none" stroke="#000" stroke-miterlimit="10" stroke-width=".79321425" d="M189.387 91.953h15.285m-15.285-5.094h15.285"/><use xlink:href="#q" x="212.831" y="99.702"/><use xlink:href="#r" x="212.831" y="95.553"/><use xlink:href="#s" x="212.831" y="93.59"/><use xlink:href="#l" x="212.831" y="87.959"/><use xlink:href="#m" x="212.831" y="83.122"/><path fill="none" stroke="#000" stroke-miterlimit="10" stroke-width=".39710475" d="M87.852 71.21h44.398m20.379 0h71.695"/><path fill="none" stroke="#000" stroke-miterlimit="10" stroke-width=".79321425" d="M132.25 67.39h20.379v7.641H132.25Zm0 0"/><use xlink:href="#a" x="133.709" y="63.795"/><use xlink:href="#b" x="139.652" y="63.795"/><use xlink:href="#c" x="144.382" y="63.795"/><path fill="#FFF" d="M225.902 71.21a1.58 1.58 0 0 0-3.16 0 1.58 1.58 0 0 0 3.16 0m0 0"/><g clip-path="url(#x)"><path fill="none" stroke="#000" stroke-miterlimit="10" stroke-width=".39710475" d="M225.902 71.21a1.58 1.58 0 0 0-3.16 0 1.58 1.58 0 0 0 3.16 0Zm0 0"/></g><use xlink:href="#y" x="3.439" y="40.744"/><use xlink:href="#z" x="221.411" y="13.45"/></svg>