<svg xmlns="http://www.w3.org/2000/svg" xmlns:xlink="http://www.w3.org/1999/xlink" width="113.386" height="67.07"><defs><path id="e" d="M2.172-6.11a.4.4 0 0 1 .015.094q-.002.237-.296.297l-.328.078 1.171 1.97h.016L4-5.657l-.594-.094q-.127.001-.125-.11 0-.074.094-.25h1.781q.014.048.016.094-.001.236-.313.313l-.296.062-1.516 2.422 1.656 2.75.422.11q.124.034.125.093c0 .032-.04.121-.11.266H3.267v-.078q-.002-.264.297-.313l.28-.062-1.265-2.11h-.015L1.25-.453l.563.094q.124.017.125.093A.6.6 0 0 1 1.844 0H.047v-.078q0-.264.297-.328l.25-.047L2.25-3.031.656-5.641l-.422-.093C.148-5.754.11-5.797.11-5.86q0-.075.11-.25Zm0 0"/><path id="f" d="M4.484.016C4.61-.484 4.813-1 5-1.454L4.734-1.5c-.28.64-.625 1.156-1.28 1.156h-1.97c-.156 0-.203-.031-.187-.11q0-.069.094-.187l4.078-4.593c.234-.25.297-.407.297-.485 0-.062-.032-.078-.172-.078-.11 0-.297.063-.563.094H2.313c-.407 0-.36-.094-.672-.11a16 16 0 0 1-.47 1.47l.25.046c.298-.61.532-1.047 1.173-1.047h1.953c.062 0 .094.016.062.063 0 .047-.03.093-.093.156L.296-.344C.235-.28.173-.172.173-.109c0 .078.047.109.14.109h3.094c.235 0 1.078.016 1.078.016m0 0"/><path id="g" d="M.516-1.64c-.094.109-.094.343 0 .452h4.687c.11-.109.11-.343 0-.453Zm0-1.766c-.094.11-.094.344 0 .437h4.687c.11-.094.11-.328 0-.437Zm0 0"/><path id="h" d="M2.828-1.672c0 .844-.453 1.453-.984 1.453-.328 0-.453-.218-.578-.39C1.156-.766 1-.891.813-.891a.33.33 0 0 0-.329.329c0 .359.75.656 1.25.656C2.828.094 3.61-.72 3.61-1.828c0-.86-.593-1.625-1.578-1.625-.39 0-.719.078-.875.14l.172-1.484c.328.031.625.078 1.047.078.266 0 .563-.015.922-.047l.14-.609-.062-.031q-.75.093-1.453.093c-.328 0-.64-.015-.953-.03L.672-2.798a2.8 2.8 0 0 1 1.125-.219c.578 0 1.031.375 1.031 1.344m0 0"/><path id="i" d="M2.016.094c.687 0 1.718-.688 1.718-2.766 0-.89-.218-1.64-.609-2.14a1.32 1.32 0 0 0-1.078-.579C1.172-5.39.344-4.344.344-2.594c0 .938.297 1.828.781 2.313q.375.375.89.375m.03-5.172c.157 0 .298.047.407.14.266.235.516.907.516 2.094 0 .813-.031 1.36-.156 1.813-.188.734-.626.812-.782.812-.828 0-.922-1.515-.922-2.281 0-2.172.547-2.578.938-2.578m0 0"/><path id="j" d="M4.047-1.031c.969-.328 1.719-1.235 1.719-2.297 0-1.313-.907-2.484-2.657-2.484S.438-4.5.438-3.328c0 1.125.78 1.969 1.734 2.297l.031.422H1.22c-.407 0-.563 0-.61-.438a.19.19 0 0 0-.218 0c0 .36.015.703.062 1.047h1.875c.11 0 .156-.047.156-.125l-.062-1.14C1.594-1.814 1.25-2.36 1.25-3.345c0-1.125.625-2.172 1.86-2.172 1.14 0 1.859.938 1.859 2.188 0 .953-.36 1.594-1.172 2.062L3.719-.125c0 .078.047.125.156.125h1.844c.031-.297.062-.703.062-1.047q-.093-.07-.234 0C5.5-.594 5.344-.594 5-.609h-.985Zm0 0"/><clipPath id="a"><path d="M.473 0H91v24H.473Zm0 0"/></clipPath><clipPath id="b"><path d="M.473 0H17v24H.473Zm0 0"/></clipPath><clipPath id="c"><path d="M98 0h14.309v14H98Zm0 0"/></clipPath><clipPath id="d"><path d="M101 57h11.309v9.152H101Zm0 0"/></clipPath></defs><g clip-path="url(#a)"><path fill="none" stroke="#000" stroke-miterlimit="10" stroke-width=".78609704" d="M3.215 12.137H76.8c1.297 0 2.347-2.63 2.347-5.871 0-3.246-1.05-5.871-2.347-5.871H3.215C1.918.395.863 3.02.863 6.265c0 3.243 1.055 5.872 2.352 5.872"/></g><g clip-path="url(#b)"><path fill="none" stroke="#000" stroke-miterlimit="10" stroke-width=".78609704" d="M3.215 12.137c1.297 0 2.347-2.63 2.347-5.871 0-3.246-1.05-5.871-2.347-5.871"/></g><path fill="none" stroke="#000" stroke-miterlimit="10" stroke-width=".39354168" d="M79.148 6.266h13.067m0 0h13.062"/><path fill="#FFF" d="M106.844 6.266a1.566 1.566 0 1 0-3.133 0c0 .863.703 1.562 1.566 1.562.868 0 1.567-.7 1.567-1.562m0 0"/><g clip-path="url(#c)"><path fill="none" stroke="#000" stroke-miterlimit="10" stroke-width=".39354168" d="M106.844 6.266a1.566 1.566 0 1 0-3.133 0c0 .863.703 1.562 1.566 1.562.868 0 1.567-.7 1.567-1.562Zm0 0"/></g><path fill="none" stroke="#000" stroke-miterlimit="10" stroke-width=".39354168" d="M76.8 12.137V64.39h31.356m0 0"/><path stroke="#000" stroke-miterlimit="10" stroke-width=".39354168" d="M78.367 12.137a1.566 1.566 0 1 0-3.133 0c0 .863.704 1.562 1.567 1.562.867 0 1.566-.699 1.566-1.562Zm0 0"/><path fill="#FFF" d="M109.723 64.39c0-.863-.703-1.562-1.567-1.562a1.564 1.564 0 1 0 0 3.129c.864 0 1.567-.7 1.567-1.566m0 0"/><g clip-path="url(#d)"><path fill="none" stroke="#000" stroke-miterlimit="10" stroke-width=".39354168" d="M109.723 64.39c0-.863-.703-1.562-1.567-1.562a1.564 1.564 0 1 0 0 3.129c.864 0 1.567-.7 1.567-1.566Zm0 0"/></g><path fill="none" stroke="#000" stroke-dasharray="2.9479428056 2.9479428056" stroke-miterlimit="10" stroke-width=".39354168" d="M3.215 6.266h75.933"/><path d="M4.098 6.266a.885.885 0 1 0-1.77-.003.885.885 0 0 0 1.77.003m0 0"/><use xlink:href="#e" x="104.072" y="38.379"/><use xlink:href="#f" x="23.783" y="21.098"/><use xlink:href="#g" x="32.176" y="21.098"/><use xlink:href="#h" x="40.365" y="21.098"/><use xlink:href="#i" x="44.478" y="21.098"/><use xlink:href="#j" x="50.067" y="21.098"/></svg>