<svg xmlns="http://www.w3.org/2000/svg" xmlns:xlink="http://www.w3.org/1999/xlink" width="229.632" height="170.521"><defs><path id="d" d="M4.297-2.469H.547V-3h3.75Zm0 0"/><path id="f" d="M3.703-4.766a1.04 1.04 0 0 0-.328-.421 1.24 1.24 0 0 0-.734-.235q-1.378 0-1.485 2.344a1.95 1.95 0 0 1 1.219-.406q.762.002 1.219.39c.344.274.515.688.515 1.25q-.001.798-.5 1.36c-.355.398-.808.593-1.359.593-.625 0-1.102-.257-1.422-.78Q.36-1.407.36-2.72.357-3.966.953-4.875c.445-.695 1.063-1.047 1.844-1.047q.622 0 .969.219.328.205.328.469c0 .242-.133.398-.39.468M1.156-2.625q.029 1.127.344 1.703.31.533.813.531.451.001.734-.343.28-.358.281-1.032-.002-1.202-1-1.203-.75.002-1.172.344m0 0"/><path id="g" d="M.89-.922q.248.002.407.203.17.204.172.578 0 .592-.375.985c-.211.226-.414.344-.61.344-.093 0-.164-.086-.203-.25q.574-.3.61-.891a.5.5 0 0 1-.344-.125.47.47 0 0 1-.14-.344c0-.156.038-.273.124-.36a.48.48 0 0 1 .36-.14m0 0"/><path id="h" d="M2.969-1.047q.279-.528.312-1.625-.468.375-1.172.375-.766.002-1.234-.406-.516-.434-.516-1.313 0-.889.61-1.421c.351-.32.781-.485 1.281-.485q.89.001 1.375.781c.3.493.453 1.141.453 1.954q-.001 1.347-.5 2.203Q2.95.11 1.672.109 1.044.107.703-.094.39-.263.391-.53q0-.388.39-.5c.176.43.524.64 1.047.64q.812 0 1.14-.656m-.813-1.765q.715.002 1.125-.313 0-1.137-.328-1.734-.299-.563-.812-.563a.86.86 0 0 0-.72.344q-.28.344-.28 1-.002 1.266 1.015 1.266m0 0"/><path id="i" d="M.86 1.328v-5.125L.202-3.89v-.062q0-.246.328-.281l1.047-.11-.047.594h.032q.527-.64 1.312-.64.762 0 1.219.546.452.55.453 1.516 0 1.188-.61 1.797-.562.579-1.593.578c-.25 0-.508-.04-.766-.11v1.391l.547.11q.124.03.125.125a.3.3 0 0 1-.094.218H.266A.13.13 0 0 1 .25 1.72q0-.205.281-.282Zm1.734-5.14q-.581 0-1.016.421v2.672q.358.282.844.282 1.373 0 1.375-1.844 0-.733-.328-1.125-.314-.405-.875-.406m0 0"/><path id="j" d="M4.5-6.172q.062.751.063 1.063c0 .261-.086.39-.25.39a.5.5 0 0 1-.188-.031l-.219-.937H1.875v2.437h1.984v.5H1.875v2.266l.703.125q.124.017.125.093 0 .048-.094.266H.422a.16.16 0 0 1-.016-.078Q.404-.324.72-.406l.375-.078v-5.203l-.547-.125c-.086-.02-.125-.055-.125-.11q0-.075.094-.25Zm0 0"/><path id="k" d="M2.563-6.172q2.28 0 2.28 1.547 0 1.208-1.312 1.453v.016Q4.998-2.95 5-1.72q0 .767-.61 1.235Q3.764 0 2.626 0H.422a.16.16 0 0 1-.016-.078Q.404-.324.72-.406l.375-.078v-5.203l-.547-.125c-.086-.02-.125-.055-.125-.11q0-.075.094-.25ZM2.53-.5q.811.001 1.235-.344c.27-.219.406-.508.406-.875q0-.527-.422-.843-.41-.312-1.172-.313h-.703V-.5ZM2.47-3.36q.78 0 1.203-.328.375-.311.375-.828 0-1.155-1.578-1.156h-.594v2.313Zm0 0"/><path id="l" d="m.422-.453 1.516-1.734q.874-1.015.875-2c0-.833-.305-1.25-.907-1.25q-.345 0-.703.187a3.3 3.3 0 0 0-.125.875q-.11.017-.203.016-.422 0-.422-.344 0-.545.422-.875.42-.342 1.156-.344.715 0 1.172.422.451.408.453 1.156 0 .675-.422 1.36-.268.44-.906 1.125L1.344-.797v.016h2.031l.188-.781a.5.5 0 0 1 .187-.032q.234.002.234.344c0 .242-.03.656-.093 1.25H.5Zm0 0"/><path id="m" d="m.125-1.984 2.531-3.797.672-.063v3.64h.75l-.047.688h-.703v1.032l.61.125q.123.017.124.093 0 .048-.093.266H1.906v-.078q0-.246.297-.328l.39-.078v-1.032H.157Zm.734-.22h1.735V-4.89h-.016L.86-2.219Zm0 0"/><path id="x" d="M2.484-3.031h1.563v.469H2.484v1.671h-.5v-1.671H.422v-.47h1.562v-1.655h.5Zm0 0"/><path id="y" d="M2.031-.578V-5l-1.344.25a1 1 0 0 1-.015-.187c0-.133.07-.227.219-.282l1.468-.593h.454v5.234l1.078.172q.14.016.14.11-.002.08-.11.296H.86v-.078q0-.311.282-.36Zm0 0"/><path id="z" d="M.906-.469v-3.328l-.64-.094a.1.1 0 0 1-.016-.062q0-.246.328-.281l1.063-.11-.063.594h.031q.294-.293.516-.422.404-.217.953-.219c.438 0 .774.141 1.016.422q.375.41.375 1.172v2.328L5-.344q.124.017.125.11A.4.4 0 0 1 5.047 0H3.14v-.062c0-.133.093-.235.28-.297l.329-.11V-2.75q0-.545-.312-.828-.252-.218-.657-.219c-.43 0-.808.149-1.14.438v2.89l.53.125q.125.017.126.11A.35.35 0 0 1 2.203 0H.313a.1.1 0 0 1-.016-.062c0-.133.094-.235.281-.297Zm0 0"/><path id="n" d="M-3.156-1.39c-.114-1.008-.516-1.516-1.203-1.516q-1.079.001-1.078.906.002.41.203.703.362.11.812.11a.7.7 0 0 1 .031.218c0 .282-.117.422-.359.422q-.516.001-.844-.437-.328-.45-.328-1.188 0-.714.375-1.125.375-.405 1.031-.406.628 0 1.016.422.284.28.484.89H-3q.11-.702.484-1.093a1.2 1.2 0 0 1 .922-.391q.738.001 1.219.547.485.549.484 1.437c0 .48-.097.84-.28 1.079q-.202.28-.5.28-.406.002-.548-.39c.23-.101.399-.203.5-.297q.328-.293.328-.828c0-.664-.351-1-1.062-1-.738 0-1.149.555-1.234 1.656Zm0 0"/><path id="o" d="M-.922-.89q.002-.248.203-.407.204-.17.578-.172.592 0 .985.375c.226.211.344.414.344.61 0 .093-.086.164-.25.203q-.3-.574-.891-.61-.001.204-.125.344a.47.47 0 0 1-.344.14c-.156 0-.273-.038-.36-.124a.48.48 0 0 1-.14-.36m0 0"/><path id="p" d="M-.469-.828h-5.468l-.094.656a.16.16 0 0 1-.078.016q-.247 0-.266-.328l-.11-1.063H-2.5v-.531l-1.375-1.203-.125.625a.3.3 0 0 1-.078.015q-.218.001-.219-.25v-1.437c0-.07.031-.11.094-.11A.5.5 0 0 1-4-4.374l.156.516 1.453 1.265 1.938-1.515.11-.453q.015-.125.109-.125.129 0 .234.078v1.156l-2.047 1.5v.406h1.594L-.343-2q.015-.124.109-.125.129 0 .234.094V-.22h-.062c-.133 0-.235-.086-.297-.265Zm0 0"/><path id="q" d="M-3.484-6.125q.926.001 1.734.547.69.486 1.047 1.156h.172v-1.187l-.719-.141a.44.44 0 0 1-.047-.203q.001-.282.406-.281.365.002.891.062v2.313h-.89c-.5-.977-1.376-1.47-2.626-1.47q-1.029.001-1.625.548-.609.534-.609 1.39c0 .563.2 1.024.594 1.375.418.368.968.547 1.656.547q.862.001 1.531-.343.72-.387 1.078-1.125H0v2.312q-.527.047-.89.047c-.27 0-.407-.086-.407-.266q0-.107.047-.203l.719-.14v-1.204h-.156c-.188.43-.524.809-1.016 1.141a2.98 2.98 0 0 1-1.781.594q-1.203.001-2-.766-.797-.78-.797-1.969 0-1.218.781-1.968c.512-.508 1.184-.766 2.016-.766m0 0"/><path id="r" d="M-.39-2.234q.001-1.092-2.516-1.094-2.515.002-2.516 1.094.001 1.094 2.516 1.093c1.68 0 2.515-.363 2.515-1.093m.5.03q0 .88-.75 1.376-.779.532-2.266.531c-.977 0-1.735-.187-2.266-.562q-.75-.53-.75-1.422 0-.873.75-1.36.784-.528 2.266-.53 1.47 0 2.265.562.75.533.75 1.406m0 0"/><path id="s" d="M-.578-2.031H-5l.25 1.344q-.106.016-.187.015c-.133 0-.227-.07-.282-.219l-.593-1.468v-.453h5.234l.172-1.079q.016-.14.11-.14.08.002.296.11V-.86h-.078q-.311 0-.36-.282Zm0 0"/><path id="t" d="M-.469-.906h-3.328l-.094.64a.1.1 0 0 1-.062.016q-.246 0-.281-.328l-.11-1.063.594.063v-.031a2.7 2.7 0 0 1-.422-.516 2 2 0 0 1-.219-.953c0-.438.141-.774.422-1.016q.41-.375 1.172-.375h2.328L-.344-5q.017-.124.11-.125.129 0 .234.078v1.906h-.062c-.133 0-.235-.093-.297-.28l-.11-.329H-2.75q-.545 0-.828.313-.218.25-.219.656c0 .43.149.808.438 1.14h2.89l.125-.53q.017-.125.11-.126.129 0 .234.094v1.89a.1.1 0 0 1-.062.016c-.133 0-.235-.094-.297-.281Zm0 0"/><path id="u" d="M-6.172-4.5q.751-.061 1.063-.062.39.001.39.25a.5.5 0 0 1-.031.187l-.937.219v2.031h2.437v-1.984h.5v1.984h2.266l.125-.703q.017-.124.093-.125.048 0 .266.094v2.187a.16.16 0 0 1-.078.016q-.246.002-.328-.313l-.078-.375h-5.203l-.125.547c-.02.086-.055.125-.11.125q-.075 0-.25-.094Zm0 0"/><path id="A" d="M-1.047-2.969q-.528-.279-1.625-.312.375.468.375 1.172.002.766-.406 1.234-.434.516-1.313.516-.889 0-1.421-.61a1.84 1.84 0 0 1-.485-1.281q.001-.89.781-1.375c.493-.3 1.141-.453 1.954-.453q1.347.001 2.203.5Q.11-2.95.109-1.672q-.002.628-.203.969-.169.313-.437.312-.388 0-.5-.39c.43-.176.64-.524.64-1.047q0-.812-.656-1.14m-1.765.813q.002-.715-.313-1.125-1.137 0-1.734.328-.563.299-.563.812.002.456.344.72.344.28 1 .28 1.266.002 1.266-1.015m0 0"/><path id="B" d="M-4.766-3.703a1.04 1.04 0 0 0-.421.328 1.24 1.24 0 0 0-.235.734q0 1.378 2.344 1.485a1.95 1.95 0 0 1-.406-1.219q.002-.762.39-1.219c.274-.344.688-.515 1.25-.515q.798.001 1.36.5c.398.355.593.808.593 1.359 0 .625-.257 1.102-.78 1.422q-.735.469-2.048.469-1.247.002-2.156-.594c-.695-.445-1.047-1.063-1.047-1.844q0-.622.219-.969.205-.328.469-.328c.242 0 .398.133.468.39m2.141 2.547q1.127-.029 1.703-.344.533-.31.531-.812.001-.452-.343-.735-.358-.28-1.032-.281-1.202.002-1.203 1 .002.75.344 1.172m0 0"/><path id="C" d="m-.484-6.016-4.235.079v.015l4.64 1.89v.485L-4.75-1.703v.016l4.266.093.125-.625q.017-.124.093-.125.048 0 .266.094v1.86h-.078q-.246 0-.328-.297l-.078-.391-5.203-.063-.125.547c-.02.086-.055.125-.11.125q-.075 0-.25-.094v-1.406l4.922-1.953v-.015l-4.922-1.985v-1.516h.078c.157 0 .262.102.313.297l.093.422 5.204-.078.125-.61q.017-.123.093-.124.048 0 .266.093v2.11h-.078q-.246 0-.328-.297Zm0 0"/><path id="D" d="M-6.172-2.594h.078c.157 0 .262.102.313.297l.093.422h2.266v-2.984h-2.265l-.125.547q-.029.126-.11.125-.075 0-.25-.094V-6.36h.078q.236.002.313.297l.093.421h5.204l.125-.609q.017-.124.093-.125.048 0 .266.094v2.093a.16.16 0 0 1-.078.016c-.164 0-.274-.101-.328-.312l-.078-.375h-2.407v2.984h2.407L-.36-2.5q.017-.124.093-.125c.032 0 .121.04.266.11v2.093a.16.16 0 0 1-.078.016q-.246.002-.328-.313l-.078-.375h-5.203l-.125.547c-.02.086-.055.125-.11.125q-.075 0-.25-.094Zm0 0"/><path id="E" d="M-3.406-.469a8 8 0 0 1-.89-.062v-2.906a.6.6 0 0 1 .187-.032c.093 0 .195.031.297.094L-.47-1.141h.016v-1.75l-.89-.312v-.14q.001-.249.265-.25.093 0 1.078.124v3.063a.6.6 0 0 1-.328.094.5.5 0 0 1-.266-.094l-3.234-2.156h-.031v1.468l.75.25a.6.6 0 0 1 .015.125c0 .168-.101.25-.312.25m0 0"/><path id="F" d="m-.453-.422-1.734-1.515q-1.015-.875-2-.875-1.25.001-1.25.906 0 .345.187.703.361.112.875.125.017.11.016.203 0 .422-.344.422-.545 0-.875-.422-.342-.42-.344-1.156 0-.715.422-1.172.408-.451 1.156-.453.675 0 1.36.422.44.268 1.125.906l1.062.984h.016v-2.031l-.781-.187a.5.5 0 0 1-.032-.188q.002-.234.344-.234c.242 0 .656.03 1.25.093V-.5Zm0 0"/><path id="G" d="M-3.031-2.937Q-2.544-4.03-1.5-4.032q.737 0 1.188.547c.28.343.421.773.421 1.28q0 .77-.39 1.25-.435.533-1.172.532-.92 0-1.453-1.14c-.32.656-.813.984-1.469.984-.437 0-.8-.164-1.094-.5a1.75 1.75 0 0 1-.453-1.188c0-.488.133-.879.39-1.171q.394-.453 1.063-.454.91.002 1.438.954m-.172.406q-.405-.656-1.266-.656-.404 0-.656.234c-.195.18-.297.43-.297.75 0 .281.094.508.281.672q.284.251.672.25.516 0 .797-.344c.156-.164.313-.469.469-.906m.484.562c.293.524.715.782 1.266.782q.456 0 .766-.282.297-.28.296-.75c0-.32-.093-.578-.28-.765a1 1 0 0 0-.735-.297q-.48 0-.797.36-.234.268-.516.952m0 0"/><clipPath id="a"><path d="M.137 152H14v15H.137Zm0 0"/></clipPath><clipPath id="b"><path d="M21 169h14v1.043H21Zm0 0"/></clipPath><clipPath id="c"><path d="M215 152h14.125v15H215Zm0 0"/></clipPath><clipPath id="e"><path d="M.137 87H14v15H.137Zm0 0"/></clipPath><clipPath id="v"><path d="M215 42h14.125v15H215Zm0 0"/></clipPath><clipPath id="w"><path d="M215 3h14.125v16H215Zm0 0"/></clipPath></defs><path fill="none" stroke="#000" stroke-miterlimit="10" stroke-width=".39788280000000004" d="M6.258 159.754h10.836m0 0H38.77m0 0h97.539m0 0h86.703"/><path fill="#FFF" d="M7.84 159.754c0-.875-.707-1.586-1.582-1.586a1.584 1.584 0 0 0 0 3.168c.875 0 1.582-.711 1.582-1.582m0 0"/><g clip-path="url(#a)"><path fill="none" stroke="#000" stroke-miterlimit="10" stroke-width=".39788280000000004" d="M7.84 159.754c0-.875-.707-1.586-1.582-1.586a1.584 1.584 0 0 0 0 3.168c.875 0 1.582-.711 1.582-1.582Zm0 0"/></g><path stroke="#000" stroke-miterlimit="10" stroke-width=".39788280000000004" d="M29.516 159.754c0-.875-.711-1.586-1.582-1.586a1.584 1.584 0 0 0 0 3.168c.87 0 1.582-.711 1.582-1.582Zm0 0"/><path fill="none" stroke="#000" stroke-miterlimit="10" stroke-width=".39788280000000004" d="M27.934 159.754v9.89"/><g clip-path="url(#b)"><path fill="none" stroke="#000" stroke-linecap="round" stroke-miterlimit="10" stroke-width=".7947684" d="M21.996 169.645h11.871"/></g><path stroke="#000" stroke-miterlimit="10" stroke-width=".39788280000000004" d="M51.191 159.754c0-.875-.71-1.586-1.582-1.586-.875 0-1.586.71-1.586 1.586 0 .871.711 1.582 1.586 1.582.871 0 1.582-.711 1.582-1.582Zm0 0"/><path fill="#FFF" d="M224.594 159.754c0-.875-.707-1.586-1.582-1.586a1.584 1.584 0 0 0 0 3.168c.875 0 1.582-.711 1.582-1.582m0 0"/><g clip-path="url(#c)"><path fill="none" stroke="#000" stroke-miterlimit="10" stroke-width=".39788280000000004" d="M224.594 159.754c0-.875-.707-1.586-1.582-1.586a1.584 1.584 0 0 0 0 3.168c.875 0 1.582-.711 1.582-1.582Zm0 0"/></g><use xlink:href="#d" x="220.585" y="156.574"/><path fill="none" stroke="#000" stroke-miterlimit="10" stroke-width=".39788280000000004" d="M6.258 94.727h18.64m6.07 0h29.477m0 0h10.84"/><path fill="none" stroke="#000" stroke-miterlimit="10" stroke-width=".7947684" d="M24.898 85.621v18.207m6.07-18.207v18.207"/><path fill="#FFF" d="M7.84 94.727a1.58 1.58 0 0 0-1.582-1.582 1.58 1.58 0 0 0-1.582 1.582 1.58 1.58 0 0 0 1.582 1.582 1.58 1.58 0 0 0 1.582-1.582m0 0"/><g clip-path="url(#e)"><path fill="none" stroke="#000" stroke-miterlimit="10" stroke-width=".39788280000000004" d="M7.84 94.727a1.58 1.58 0 0 0-1.582-1.582 1.58 1.58 0 0 0-1.582 1.582 1.58 1.58 0 0 0 1.582 1.582 1.58 1.58 0 0 0 1.582-1.582Zm0 0"/></g><path stroke="#000" stroke-miterlimit="10" stroke-width=".39788280000000004" d="M51.191 94.727a1.583 1.583 0 1 0-3.165.001 1.583 1.583 0 0 0 3.165-.001Zm0 0"/><use xlink:href="#f" x="17.007" y="81.494"/><use xlink:href="#g" x="21.477" y="81.494"/><use xlink:href="#h" x="23.328" y="81.494"/><use xlink:href="#i" x="29.283" y="81.494"/><use xlink:href="#j" x="34.076" y="81.494"/><path fill="none" stroke="#000" stroke-miterlimit="10" stroke-width=".7947684" d="M95.61 94.727c0-6.215-5.036-11.254-11.255-11.254-6.214 0-11.25 5.039-11.25 11.254s5.036 11.253 11.25 11.253c6.22 0 11.254-5.039 11.254-11.253Zm0 0"/><path fill="none" stroke="#000" stroke-miterlimit="10" stroke-width=".39788280000000004" d="M89.492 77.836V88.05l-9.105 4.172"/><path fill="none" stroke="#000" stroke-miterlimit="10" stroke-width=".7947684" d="M80.387 88.05v13.352"/><path fill="none" stroke="#000" stroke-miterlimit="10" stroke-width=".39788280000000004" d="m80.387 97.23 9.105 4.172v10.211"/><path d="m83.184 98.512.949-2.075 3.683 4.196-5.582-.047Zm0 0"/><path fill="none" stroke="#000" stroke-miterlimit="10" stroke-width=".39788280000000004" d="M80.387 94.727h-9.301"/><use xlink:href="#k" x="97.127" y="97.812"/><use xlink:href="#j" x="102.545" y="97.812"/><use xlink:href="#l" x="108.813" y="97.812"/><use xlink:href="#l" x="113.284" y="97.812"/><use xlink:href="#m" x="117.754" y="97.812"/><path fill="none" stroke="#000" stroke-miterlimit="10" stroke-width=".39788280000000004" d="M49.61 159.754v-20.375m0-24.277V94.727"/><path fill="none" stroke="#000" stroke-miterlimit="10" stroke-width=".7947684" d="M54.16 115.102v24.277h-9.105v-24.277Zm0 0"/><path stroke="#000" stroke-miterlimit="10" stroke-width=".39788280000000004" d="M51.191 94.727a1.583 1.583 0 1 0-3.165.001 1.583 1.583 0 0 0 3.165-.001Zm0 0"/><use xlink:href="#n" x="41.81" y="138.639"/><use xlink:href="#o" x="41.81" y="134.168"/><use xlink:href="#n" x="41.81" y="132.317"/><use xlink:href="#p" x="41.81" y="126.362"/><use xlink:href="#q" x="41.81" y="121.623"/><path fill="none" stroke="#000" stroke-miterlimit="10" stroke-width=".39788280000000004" d="M89.492 111.414v12.031m0 24.278v12.03"/><path fill="none" stroke="#000" stroke-miterlimit="10" stroke-width=".7947684" d="M84.938 147.723v-24.278h9.105v24.278Zm0 0"/><path stroke="#000" stroke-miterlimit="10" stroke-width=".39788280000000004" d="M91.074 159.754c0-.875-.71-1.586-1.582-1.586-.875 0-1.586.71-1.586 1.586 0 .871.711 1.582 1.586 1.582.871 0 1.582-.711 1.582-1.582Zm0 0"/><use xlink:href="#n" x="82.766" y="145.494"/><use xlink:href="#n" x="82.766" y="141.024"/><use xlink:href="#r" x="82.766" y="136.553"/><use xlink:href="#q" x="82.766" y="130.598"/><path fill="none" stroke="#000" stroke-miterlimit="10" stroke-width=".39788280000000004" d="M89.492 111.414h10.836m0 0h10.84v21.137m0 6.066v21.137"/><path stroke="#000" stroke-miterlimit="10" stroke-width=".39788280000000004" d="M91.074 111.414c0-.871-.71-1.582-1.582-1.582-.875 0-1.586.711-1.586 1.582 0 .875.711 1.586 1.586 1.586.871 0 1.582-.71 1.582-1.586Zm0 0"/><path fill="none" stroke="#000" stroke-miterlimit="10" stroke-width=".7947684" d="M120.27 132.55h-18.207m18.207 6.067h-18.207"/><path stroke="#000" stroke-miterlimit="10" stroke-width=".39788280000000004" d="M112.75 159.754c0-.875-.71-1.586-1.582-1.586-.875 0-1.586.71-1.586 1.586 0 .871.711 1.582 1.586 1.582.871 0 1.582-.711 1.582-1.582Zm0 0"/><use xlink:href="#s" x="128.957" y="142.647"/><use xlink:href="#t" x="128.957" y="136.692"/><use xlink:href="#u" x="128.957" y="131.435"/><path fill="none" stroke="#000" stroke-miterlimit="10" stroke-width=".39788280000000004" d="M89.492 78.035h27.094m0 0h32.512m0 0h5.418"/><path stroke="#000" stroke-miterlimit="10" stroke-width=".39788280000000004" d="M145.262 78.035a1.58 1.58 0 0 0-1.582-1.582 1.58 1.58 0 0 0-1.582 1.582 1.58 1.58 0 0 0 1.582 1.582 1.58 1.58 0 0 0 1.582-1.582Zm0 0"/><path fill="none" stroke="#000" stroke-linejoin="bevel" stroke-miterlimit="10" stroke-width=".7947684" d="M154.36 42.742c2.511 0 4.55 1.403 4.55 3.133s-2.039 3.133-4.55 3.133c2.511 0 4.55 1.402 4.55 3.137 0 1.73-2.039 3.132-4.55 3.132 2.511 0 4.55 1.403 4.55 3.133s-2.039 3.133-4.55 3.133c2.511 0 4.55 1.406 4.55 3.137 0 1.73-2.039 3.132-4.55 3.132M172.883 67.812c-2.512 0-4.55-1.402-4.55-3.132s2.038-3.137 4.55-3.137c-2.512 0-4.55-1.402-4.55-3.133 0-1.73 2.038-3.133 4.55-3.133-2.512 0-4.55-1.402-4.55-3.132 0-1.735 2.038-3.137 4.55-3.137-2.512 0-4.55-1.403-4.55-3.133s2.038-3.133 4.55-3.133"/><path fill="none" stroke="#000" stroke-miterlimit="10" stroke-width=".39788280000000004" d="M154.516 32.52v10.617m0 24.277v10.621m18.207-45.515v10.617m0 24.277v10.621"/><path fill="none" stroke="#000" stroke-miterlimit="10" stroke-width=".7947684" d="M164.758 66.656V43.898m-2.274 22.758V43.898"/><path fill="none" stroke="#000" stroke-miterlimit="10" stroke-width=".39788280000000004" d="M143.68 78.035v24.059m0 6.07v37.824m0 0v13.766"/><path fill="none" stroke="#000" stroke-miterlimit="10" stroke-width=".7947684" d="M152.781 108.164h-18.207m18.207-6.07h-18.207M134.574 114.234l17.79-17.785"/><path fill="none" stroke="#000" stroke-miterlimit="10" stroke-width=".79474449" d="m150.324 94.129 4.356 4.355"/><path stroke="#000" stroke-miterlimit="10" stroke-width=".39788280000000004" d="M145.262 159.754c0-.875-.707-1.586-1.582-1.586a1.584 1.584 0 0 0 0 3.168c.875 0 1.582-.711 1.582-1.582Zm0 0"/><path fill="none" stroke="#000" stroke-miterlimit="10" stroke-width=".39788280000000004" d="M172.723 78.035v24.059m0 6.07v37.824m0 0v13.766"/><path fill="none" stroke="#000" stroke-miterlimit="10" stroke-width=".7947684" d="M181.828 108.164h-18.207m18.207-6.07h-18.207M163.621 114.234l17.785-17.785"/><path fill="none" stroke="#000" stroke-miterlimit="10" stroke-width=".79474449" d="m179.371 94.129 4.356 4.355"/><path stroke="#000" stroke-miterlimit="10" stroke-width=".39788280000000004" d="M174.309 159.754c0-.875-.711-1.586-1.586-1.586-.871 0-1.582.71-1.582 1.586 0 .871.71 1.582 1.582 1.582.875 0 1.586-.711 1.586-1.582Zm0 0"/><path fill="none" stroke="#000" stroke-miterlimit="10" stroke-width=".39788280000000004" d="M172.723 32.52h10.84m0 0h10.835v63.617m0 0v63.617"/><path stroke="#000" stroke-miterlimit="10" stroke-width=".39788280000000004" d="M195.984 159.754c0-.875-.71-1.586-1.586-1.586-.87 0-1.582.71-1.582 1.586 0 .871.711 1.582 1.582 1.582.875 0 1.586-.711 1.586-1.582Zm0 0"/><path fill="none" stroke="#000" stroke-miterlimit="10" stroke-width=".39788280000000004" d="M172.723 49.207h25.144m0 0h25.145"/><path stroke="#000" stroke-miterlimit="10" stroke-width=".39788280000000004" d="M174.309 49.207a1.584 1.584 0 0 0-3.168 0 1.583 1.583 0 0 0 3.168 0Zm0 0"/><path fill="#FFF" d="M224.594 49.207a1.58 1.58 0 0 0-1.582-1.582 1.58 1.58 0 0 0-1.582 1.582 1.58 1.58 0 0 0 1.582 1.582 1.58 1.58 0 0 0 1.582-1.582m0 0"/><g clip-path="url(#v)"><path fill="none" stroke="#000" stroke-miterlimit="10" stroke-width=".39788280000000004" d="M224.594 49.207a1.58 1.58 0 0 0-1.582-1.582 1.58 1.58 0 0 0-1.582 1.582 1.58 1.58 0 0 0 1.582 1.582 1.58 1.58 0 0 0 1.582-1.582Zm0 0"/></g><path fill="none" stroke="#000" stroke-miterlimit="10" stroke-width=".39788280000000004" d="M154.516 32.52V21.68m0 0V10.844h14.957m24.277 0h22.11m0 0h7.152"/><path stroke="#000" stroke-miterlimit="10" stroke-width=".39788280000000004" d="M156.102 10.844c0-.875-.711-1.586-1.586-1.586-.871 0-1.582.71-1.582 1.586 0 .87.71 1.582 1.582 1.582.875 0 1.586-.711 1.586-1.582Zm0 0"/><path fill="none" stroke="#000" stroke-linejoin="bevel" stroke-miterlimit="10" stroke-width=".7947684" d="M169.074 11c0-2.512 1.406-4.55 3.137-4.55 1.73 0 3.133 2.038 3.133 4.55 0-2.512 1.402-4.55 3.133-4.55 1.73 0 3.136 2.038 3.136 4.55 0-2.512 1.403-4.55 3.133-4.55s3.133 2.038 3.133 4.55c0-2.512 1.402-4.55 3.133-4.55 1.73 0 3.136 2.038 3.136 4.55"/><path fill="#FFF" d="M224.594 10.844c0-.875-.707-1.586-1.582-1.586a1.584 1.584 0 0 0 0 3.168c.875 0 1.582-.711 1.582-1.582m0 0"/><g clip-path="url(#w)"><path fill="none" stroke="#000" stroke-miterlimit="10" stroke-width=".39788280000000004" d="M224.594 10.844c0-.875-.707-1.586-1.582-1.586a1.584 1.584 0 0 0 0 3.168c.875 0 1.582-.711 1.582-1.582Zm0 0"/></g><use xlink:href="#x" x="220.773" y="7.665"/><path fill="none" stroke="#000" stroke-miterlimit="10" stroke-width=".39788280000000004" d="M154.516 10.844h-18.641m-6.066 0h-18.641"/><path fill="none" stroke="#000" stroke-miterlimit="10" stroke-width=".7947684" d="M135.875 19.945V1.738m-6.066 18.207V1.738"/><use xlink:href="#y" x="124.839" y="30.082"/><use xlink:href="#z" x="130.794" y="30.082"/><use xlink:href="#j" x="136.051" y="30.082"/><path fill="none" stroke="#000" stroke-miterlimit="10" stroke-width=".39788280000000004" d="M111.168 10.844v9.89"/><path fill="none" stroke="#000" stroke-linecap="round" stroke-miterlimit="10" stroke-width=".7947684" d="M105.23 20.734h11.872"/><path fill="none" stroke="#000" stroke-dasharray="2.980461276 2.980461276" stroke-miterlimit="10" stroke-width=".39788280000000004" d="M169.473 4.305h24.277"/><use xlink:href="#A" x="9.287" y="141.741"/><use xlink:href="#B" x="9.287" y="137.27"/><use xlink:href="#C" x="9.287" y="131.315"/><use xlink:href="#D" x="9.287" y="123.438"/><use xlink:href="#E" x="9.287" y="116.678"/><use xlink:href="#F" x="226.04" y="121.217"/><use xlink:href="#G" x="226.04" y="116.747"/><use xlink:href="#G" x="226.04" y="112.276"/><use xlink:href="#C" x="226.04" y="106.321"/><use xlink:href="#D" x="226.04" y="98.444"/><use xlink:href="#E" x="226.04" y="91.685"/></svg>