<svg xmlns="http://www.w3.org/2000/svg" xmlns:xlink="http://www.w3.org/1999/xlink" width="225.231" height="135.071"><defs><path id="a" d="M2.39.094c.829 0 1.672-.422 2.407-1.203-.016-.079-.063-.141-.172-.141-.734.703-1.375.969-2.172.969-1.062 0-1.515-.906-1.515-1.953 0-.235.03-.485.078-.735.359-1.812 1.703-2.562 2.39-2.562 1.188 0 1.531.718 1.61 1.484l.25-.031c.015-.469.03-.906.093-1.375-.484-.031-.75-.406-1.796-.406C2.14-5.86.578-4.562.233-2.812c-.03.234-.062.437-.062.671C.172-.969.844.094 2.39.094m0 0"/><path id="b" d="M2.047-.875v-2.469c0-.422.015-.86.031-.953 0-.031-.015-.031-.047-.031-.39.234-.765.422-1.39.703 0 .078.03.156.093.203.329-.14.485-.187.625-.187.125 0 .141.172.141.422v2.312c0 .594-.187.625-.687.656-.047.047-.047.188 0 .235C1.156 0 1.422 0 1.797 0c.344 0 .516 0 .875.016.047-.047.047-.188 0-.235-.5-.031-.625-.062-.625-.656m0 0"/><path id="c" d="M1.531-4.094c.313 0 .594.188.594.64 0 .36-.422.907-1.125 1l.047.235c.11-.015.25-.015.328-.015.406 0 .938.109.938.922 0 .937-.626 1.14-.876 1.14-.375 0-.437-.172-.515-.297C.844-.563.75-.656.609-.656c-.14 0-.296.14-.296.25 0 .281.593.484 1.03.484.845 0 1.595-.562 1.595-1.5 0-.766-.579-1.047-1-1.125v-.015c.578-.266.734-.563.734-.938 0-.219-.047-.39-.219-.562-.156-.157-.406-.282-.765-.282-1.047 0-1.36.688-1.36.922 0 .094.078.235.25.235.25 0 .281-.235.281-.376 0-.453.485-.53.672-.53m0 0"/><path id="d" d="M.438-3.328c0 .14.125.265.28.265.126 0 .329-.124.329-.28 0-.063 0-.095-.016-.141C1.016-3.547.97-3.61.97-3.656c0-.188.187-.438.703-.438.266 0 .625.172.625.86 0 .453-.172.828-.594 1.25l-.516.53C.485-.75.375-.405.375.017c0 0 .36-.016.594-.016h1.234c.235 0 .563.016.563.016.093-.375.156-.907.172-1.125a.3.3 0 0 0-.204-.032c-.125.5-.25.672-.5.672H.97c0-.343.484-.828.515-.86l.72-.687c.405-.39.718-.703.718-1.25 0-.765-.625-1.078-1.203-1.078-.797 0-1.281.578-1.281 1.016m0 0"/><clipPath id="e"><path d="M76 125h15v9.148H76Zm0 0"/></clipPath></defs><path fill="none" stroke="#000" stroke-miterlimit="10" stroke-width=".39627483" d="M25.168 103.352V71.016m0-7.883V30.797h29.023m0 0h58.043m0 0h58.047m0 0h29.024v32.336m0 7.883v32.336H170.28m0 0h-58.047m0 0H54.191m0 0H25.168"/><path fill="none" stroke="#000" stroke-miterlimit="10" stroke-width=".7915564900000001" d="M13.344 71.016h23.648m-23.648-7.883h23.648"/><use xlink:href="#a" x="1.99" y="69.211"/><use xlink:href="#b" x="6.862" y="71.081"/><path stroke="#000" stroke-miterlimit="10" stroke-width=".39627483" d="M84.79 30.797c0-.871-.708-1.578-1.58-1.578-.87 0-1.573.707-1.573 1.578s.703 1.574 1.574 1.574 1.578-.703 1.578-1.574ZM142.832 30.797a1.575 1.575 0 1 0-3.152 0c0 .871.707 1.574 1.578 1.574.87 0 1.574-.703 1.574-1.574Zm0 0"/><path fill="none" stroke="#000" stroke-miterlimit="10" stroke-width=".7915564900000001" d="M211.129 63.133H187.48m23.649 7.883H187.48"/><use xlink:href="#a" x="213.91" y="69.211"/><use xlink:href="#c" x="218.781" y="71.081"/><path stroke="#000" stroke-miterlimit="10" stroke-width=".39627483" d="M142.832 103.352a1.575 1.575 0 1 0-1.574 1.578c.87 0 1.574-.707 1.574-1.578ZM84.79 103.352c0-.872-.708-1.575-1.58-1.575-.87 0-1.573.703-1.573 1.575a1.575 1.575 0 1 0 3.152 0Zm0 0"/><path fill="none" stroke="#000" stroke-miterlimit="10" stroke-width=".39627483" d="M83.21 30.797v20.512m0 31.53v20.513"/><path fill="none" stroke="#000" stroke-linejoin="bevel" stroke-miterlimit="10" stroke-width=".7915564900000001" d="M83.371 50.914c-3.266 0-5.914 1.809-5.914 4.04s2.648 4.038 5.914 4.038c-3.266 0-5.914 1.809-5.914 4.043 0 2.23 2.648 4.04 5.914 4.04-3.266 0-5.914 1.808-5.914 4.038s2.648 4.043 5.914 4.043c-3.266 0-5.914 1.809-5.914 4.04s2.648 4.038 5.914 4.038"/><path fill="none" stroke="#000" stroke-miterlimit="10" stroke-width=".39627483" d="M141.258 30.797v32.336m0 7.883v32.336"/><path fill="none" stroke="#000" stroke-miterlimit="10" stroke-width=".7915564900000001" d="M153.082 63.133h-23.648m23.648 7.883h-23.648"/><use xlink:href="#a" x="118.08" y="69.211"/><use xlink:href="#d" x="122.95" y="71.081"/><path fill="none" stroke="#000" stroke-miterlimit="10" stroke-width=".39627483" d="M83.21 30.797V16.285m0 0V1.773"/><path fill="#FFF" stroke="#000" stroke-miterlimit="10" stroke-width=".39627483" d="M84.79 1.773c0-.87-.708-1.578-1.58-1.578-.87 0-1.573.707-1.573 1.578s.703 1.575 1.574 1.575 1.578-.703 1.578-1.575Zm0 0"/><path fill="none" stroke="#000" stroke-miterlimit="10" stroke-width=".39627483" d="M83.21 103.352v14.511m0 0v14.512"/><path fill="#FFF" d="M84.79 132.375c0-.871-.708-1.578-1.58-1.578-.87 0-1.573.707-1.573 1.578s.703 1.574 1.574 1.574 1.578-.703 1.578-1.574m0 0"/><g clip-path="url(#e)"><path fill="none" stroke="#000" stroke-miterlimit="10" stroke-width=".39627483" d="M84.79 132.375c0-.871-.708-1.578-1.58-1.578-.87 0-1.573.707-1.573 1.578s.703 1.574 1.574 1.574 1.578-.703 1.578-1.574Zm0 0"/></g></svg>