<svg xmlns="http://www.w3.org/2000/svg" xmlns:xlink="http://www.w3.org/1999/xlink" width="234.888" height="282.142"><defs><path id="a" d="M2.031-.578V-5l-1.344.25a1 1 0 0 1-.015-.187c0-.133.07-.227.219-.282l1.468-.593h.454v5.234l1.078.172q.14.016.14.11-.002.08-.11.296H.86v-.078q0-.311.282-.36Zm0 0"/><path id="b" d="m.422-.453 1.516-1.734q.874-1.015.875-2c0-.833-.305-1.25-.907-1.25q-.345 0-.703.187a3.3 3.3 0 0 0-.125.875q-.11.017-.203.016-.422 0-.422-.344 0-.545.422-.875.42-.342 1.156-.344.715 0 1.172.422.451.408.453 1.156 0 .675-.422 1.36-.268.44-.906 1.125L1.344-.797v.016h2.031l.188-.781a.5.5 0 0 1 .187-.032q.234.002.234.344c0 .242-.03.656-.093 1.25H.5Zm0 0"/><path id="j" d="M2.484-3.031h1.563v.469H2.484v1.671h-.5v-1.671H.422v-.47h1.562v-1.655h.5Zm0 0"/><path id="k" d="M1.125-5.812h2.563l-.063.78H1.531l-.125 1.407q1.296.066 1.875.547c.364.305.547.765.547 1.39 0 .493-.18.915-.531 1.266q-.534.533-1.39.531Q1.185.108.827-.156a.61.61 0 0 1-.281-.516q0-.405.39-.547.171.376.282.5.31.328.843.328.514 0 .829-.328c.195-.207.297-.476.297-.812q0-.732-.563-1.047-.55-.328-1.781-.328Zm0 0"/><path id="l" d="M2.234-.39q1.092.001 1.094-2.516-.002-2.515-1.094-2.516-1.094.001-1.093 2.516c0 1.68.363 2.515 1.093 2.515m-.03.5q-.88 0-1.376-.75Q.296-1.42.297-2.907c0-.977.187-1.735.562-2.266.352-.5.829-.75 1.422-.75q.873 0 1.36.75.528.784.53 2.266 0 1.47-.562 2.265-.533.75-1.406.75m0 0"/><path id="m" d="M5.844-6.172v.078c0 .168-.102.278-.297.328l-.234.047L3.28 0h-.734L.453-5.703l-.375-.094q-.124-.03-.125-.125c0-.05.035-.133.094-.25H2.03c.008.031.016.059.016.078 0 .168-.102.274-.297.313l-.375.093 1.64 4.782h.016L4.734-5.72l-.687-.093q-.127-.029-.125-.11c0-.039.031-.125.094-.25Zm0 0"/><path id="e" d="M-1.094-5.516h-3.578c-.75 0-.781-.156-.812-.78-.063-.063-.25-.063-.297 0 0 .359.015.812.015 1.155 0 .329-.015.766-.015 1.157.047.046.234.046.297 0 .03-.625.062-.782.812-.782h1.422v3.063h-1.422c-.75 0-.781-.156-.812-.781-.063-.047-.25-.047-.297 0 0 .343.015.703.015 1.156s-.015.812-.015 1.156c.047.063.234.063.297 0 .03-.625.062-.781.812-.781h3.578c.75 0 .797.156.813.781.062.063.25.063.297 0C.016-.562 0-.984 0-1.328c0-.328.016-.766.016-1.156-.047-.047-.235-.047-.297 0-.016.625-.063.78-.813.78h-1.781v-3.062h1.781c.75 0 .797.157.813.782.062.046.25.046.297 0C.016-4.391 0-4.812 0-5.141c0-.343.016-.765.016-1.156-.047-.062-.235-.062-.297 0-.016.625-.063.781-.813.781m0 0"/><path id="f" d="M-2.89-2.531c0-.75.203-.781.609-.813.062-.047.062-.234 0-.297-.219.016-.485.016-.781.016-.313 0-.547 0-.766-.016-.063.063-.063.25 0 .297.484.031.61.063.61.813v.828h-1.61c-.484 0-.578-.11-.578-.5v-.39c0-.954.36-1.173.968-1.376a.8.8 0 0 0-.046-.281c-.36.047-1.22.188-1.297.203-.016 0-.016 0-.016.031.016.157.031.204.031.422v2.282c0 .28-.015.796-.015 1.156.047.047.234.047.297 0 .03-.625.062-.781.812-.781h3.578c.75 0 .797.156.813.78.062.048.25.048.297 0C.016-.468 0-.921 0-1.327c0-.39.016-.828.016-1.14-.047-.063-.235-.063-.297 0-.016.624-.063.765-.813.765H-2.89Zm0 0"/><path id="g" d="M-2.36-4.766c-1.468 0-2.343 1.016-2.343 2.297 0 1.39 1.094 2.203 2.484 2.203C-.813-.266.078-1.28.078-2.5c0-.797-.344-1.422-.906-1.828-.406-.281-.922-.438-1.531-.438m-2.093 2.391c0-.937.797-1.703 2.234-1.703 1.281 0 2.031.61 2.031 1.437 0 .86-.78 1.688-2.156 1.688-1.5 0-2.11-.703-2.11-1.422m0 0"/><path id="h" d="M-3.75-1.234c-.594 0-.625-.11-.64-.657-.048-.046-.204-.046-.235 0 0 .344.016.688.016.97 0 .28-.016.577-.016.843.031.047.188.047.234 0 .016-.422.047-.547.641-.547h2.078c1.469 0 1.75-.937 1.75-1.672 0-1.469-.922-1.812-2.187-1.812H-3.75c-.562 0-.594-.125-.64-.563-.048-.031-.204-.031-.235 0 0 .281.016.578.016.734s-.016.5-.016.829c.031.046.188.046.234 0 .047-.532.063-.657.641-.657h1.766c.797 0 1.765.11 1.765 1.313 0 .344-.125.64-.343.86-.329.343-.875.359-1.344.359Zm0 0"/><path id="i" d="M-.875-2.5h-2.734c-.453 0-.735-.078-.735-.328v-.156c0-.547.188-.875.75-1a.7.7 0 0 0-.047-.25 5.6 5.6 0 0 1-1.015.093s-.016.016-.016.032c.016.234.063 1.03.063 1.593v.625c0 .547-.047 1.391-.063 1.657 0 .015.016.03.016.03.328.032.703.11 1.047.188.03-.078.03-.156.03-.25-.577-.14-.765-.468-.765-.937v-.36c0-.265.282-.328.719-.328h2.75c.594 0 .625.11.656.688.047.047.188.047.235 0C0-1.547 0-1.922 0-2.203c0-.266 0-.64.016-1-.047-.031-.188-.031-.235 0-.031.578-.062.703-.656.703m0 0"/><path id="s" d="M-.875-1.36H-3.75c-.594 0-.625-.124-.64-.624-.048-.047-.204-.047-.235 0 0 .312.016.64.016.922 0 .234-.016.593-.016.921.031.047.188.047.234 0 .016-.5.047-.625.641-.625h2.875c.594 0 .625.125.656.625.047.047.188.047.235 0C0-.453 0-.812 0-1.062c0-.266 0-.61.016-.922-.047-.047-.188-.047-.235 0-.031.5-.062.625-.656.625m0 0"/><path id="t" d="M-3.656-3.984h2.328c.14 0 .219 0 .219.062 0 .016-.125.125-.391.344l-3.11 2.453-.015.953c.031.047.188.047.234 0a.65.65 0 0 1 .454-.562h2.984c.64 0 .687.125.734.625.047.047.188.047.235 0C0-.422 0-.734 0-.906s0-.5.016-.797c-.047-.047-.188-.047-.235 0-.047.5-.078.625-.734.625h-2.188c-.25 0-.359 0-.359-.063 0-.046.094-.125.25-.234l3.156-2.5c.094-.078.172-.172.172-.297 0-.094-.094-.156-.234-.156h-3.5c-.64 0-.688-.125-.735-.625-.046-.047-.203-.047-.234 0 0 .297.016.625.016.797 0 .156-.016.484-.016.797.031.046.188.046.234 0 .047-.5.079-.625.735-.625m0 0"/><path id="n" d="M2.672.047c.11.11.344.11.453 0v-2.14h2.14c.11-.11.11-.344 0-.454h-2.14v-2.14c-.11-.11-.344-.11-.453 0v2.14H.532c-.11.11-.11.344 0 .453h2.14Zm0 0"/><path id="o" d="M2.844-1.687c0 .843-.438 1.468-.969 1.468-.344 0-.469-.218-.594-.39-.125-.157-.265-.297-.453-.297-.172 0-.344.156-.344.328 0 .375.766.672 1.266.672 1.11 0 1.89-.813 1.89-1.938 0-.875-.593-1.656-1.593-1.656-.39 0-.719.078-.875.14l.172-1.484c.343.032.625.078 1.047.078q.398 0 .937-.046l.156-.61-.062-.031c-.516.047-1 .094-1.469.094-.328 0-.656-.016-.969-.047L.672-2.828a2.9 2.9 0 0 1 1.14-.219c.579 0 1.032.39 1.032 1.36m0 0"/><path id="p" d="M4-5.484c.672.046.672.28.484.765L3.063-1.14H3.03L1.594-4.766c-.203-.546-.14-.656.468-.718.047-.063.047-.25 0-.297-.359 0-.765.015-1.093.015-.313 0-.625-.015-.922-.015-.063.047-.047.234 0 .297.5.046.562.187.812.812L2.625-.094c.047.14.11.203.203.203s.156-.078.203-.203l1.86-4.562c.172-.422.312-.766.875-.828.046-.063.046-.25 0-.297-.266 0-.578.015-.782.015-.218 0-.609-.015-.984-.015-.047.047-.047.234 0 .297m0 0"/><path id="F" d="M1.828.094c1.75 0 2.375-1.14 2.672-2.735l.484-2.453c.047-.25.188-.39.563-.406l.219-.016c.046 0 .078-.03.078-.078l.031-.172-.016-.015c-.406 0-.75.015-.937.015-.203 0-.547-.015-.938-.015l-.03.015-.032.172c0 .047.031.078.062.078l.22.016c.296.016.405.094.405.281 0 .032 0 .078-.015.125l-.516 2.625c-.187 1-.547 2.188-2 2.188-.422 0-.734-.188-.937-.438C.953-.969.906-1.25.906-1.53s.047-.594.11-.875L1.53-5.11c.063-.25.203-.375.563-.391l.219-.016c.046 0 .078-.03.078-.078l.046-.172-.03-.015c-.391 0-.75.015-1.094.015S.64-5.78.234-5.78l-.03.015-.032.172c0 .047.031.078.062.078l.22.016c.28.016.405.078.405.266 0 .046 0 .078-.015.125l-.578 3a3 3 0 0 0-.063.625c0 1.28.953 1.578 1.625 1.578m0 0"/><path id="K" d="M3.5-5.844c-.219 0-.75.078-1.094.078S1.72-5.78 1.328-5.78l-.031.015-.031.188c-.016.031 0 .062.046.062l.329.016c.125 0 .312.063.312.281 0 .032 0 .063-.016.094L1.064-.641c-.047.25-.172.36-.547.375l-.22.032C.25-.234.22-.22.22-.172L.172 0l.031.016C.593.016.953 0 1.281 0c.344 0 .688.016 1.094.016L2.406 0l.031-.172c0-.047-.03-.062-.062-.062l-.219-.032C1.875-.28 1.75-.344 1.75-.53c0-.031 0-.063.016-.11l.375-1.953c.718 0 .875.125.953.328l.61 1.563c.171.422.468.797.983.797.125 0 .282-.016.375-.063l.032-.218c-.39 0-.532-.297-.688-.688L3.688-2.75c.39-.125 1.25-.594 1.437-1.531.031-.11.047-.235.047-.344a1.13 1.13 0 0 0-.281-.766c-.328-.406-.86-.453-1.391-.453m-.062.297c.453 0 .984.172.984.89 0 .11-.031.235-.047.391-.219 1.11-.922 1.36-1.75 1.36h-.422l.438-2.219c.046-.266.187-.422.797-.422m0 0"/><path id="u" d="M3.484-5.937c.313 0 .75.421.75 1.343 0 .266-.03.547-.109.89-.875 0-1.25-.187-1.422-.374a1.18 1.18 0 0 1-.265-.734c0-.313.156-1.125 1.046-1.125m-1.64 1.25c0 .296.093.515.281.78.266.376.781.548 1.922.548-.234 1.03-.938 3.187-1.75 3.187-.422 0-.656-.203-.656-.672 0-.156.015-.328.062-.531l.344-1.469h-.125c-.188 0-.297.203-1.14.328l-.016.266c.14-.031.25-.047.359-.047.078 0 .125.031.125.156 0 .063-.016.141-.047.25l-.125.532c-.047.203-.062.39-.062.562 0 .625.359.906 1.109.906 1.234 0 2.078-1.484 2.516-3.468.187 0 .297.078.375.14.078-.125.172-.265.28-.375-.093-.078-.265-.11-.546-.11.063-.25.078-.53.078-.796 0-.906-.39-1.734-1.453-1.734-.61 0-1.531.422-1.531 1.547m0 0"/><path id="v" d="M-.328-.734h-3.469l-.078.375q-.014.08-.062.078a.4.4 0 0 1-.172-.063V-3.03q.504-.03.703-.031c.18 0 .265.054.265.156a.27.27 0 0 1-.03.14l-.626.141v1.375h1.547v-1.328h.328v1.328h1.578v-1.422l-.64-.156A.7.7 0 0 1-1-2.968q0-.142.234-.141.237 0 .766.046V-.28h-.047q-.17 0-.219-.188Zm0 0"/><path id="w" d="M-.312-.61h-2.22l-.062.438h-.047c-.101 0-.164-.07-.187-.219l-.063-.703h2.579l.078-.36q.018-.076.078-.077.08.002.156.062v1.266h-.047q-.123 0-.187-.188Zm-3.579.11a.34.34 0 0 1-.25-.094.37.37 0 0 1-.093-.25c0-.101.03-.187.093-.25a.34.34 0 0 1 .25-.093q.158 0 .25.093a.34.34 0 0 1 .094.25q0 .143-.094.25a.34.34 0 0 1-.25.094m0 0"/><path id="x" d="M-.312-.61h-2.22l-.062.438h-.047c-.101 0-.164-.07-.187-.219l-.063-.703.391.047v-.031a3 3 0 0 1-.281-.344 1.3 1.3 0 0 1-.14-.625q0-.435.28-.672c.18-.164.438-.25.782-.25h1.547l.078-.36q.018-.093.078-.093c.054 0 .105.024.156.063v1.265h-.047q-.123 0-.187-.187L-.312-2.5h-1.516q-.373.002-.547.203a.67.67 0 0 0-.156.453q.002.423.297.75h1.922l.078-.36q.018-.076.078-.077.08.002.156.062v1.266h-.047q-.123 0-.187-.188Zm0 0"/><path id="y" d="M-1.984-.328a.87.87 0 0 1-.703-.328q-.235-.294-.235-.75c0-.164.024-.317.063-.453v-1.016l.328.063v.484a.9.9 0 0 1 .547-.172q.456 0 .718.328c.18.211.266.477.266.797q.002.13-.031.281.111.188.281.188.204.002.203-.313v-.687q.001-.387.172-.61a.59.59 0 0 1 .484-.218q.47.002.797.39.36.439.36 1.14C1.266-.491 1.03-.14.563-.14q-.515.002-.72-.546a.41.41 0 0 1-.39.234q-.34.002-.547-.406h-.015q-.247.531-.875.53m.672-1.078c0-.414-.22-.625-.657-.625q-.31 0-.484.172a.57.57 0 0 0-.172.437q0 .61.656.61.657.001.657-.594m1.234.25q.001.129-.016.234.154.298.5.297c.352 0 .532-.219.532-.656q0-.452-.188-.735-.174-.248-.453-.25-.375.002-.375.485Zm0 0"/><path id="z" d="M-1.844-1.781c-.27 0-.46.043-.578.125-.125.086-.187.218-.187.406q.002.19.062.344.141.081.516.14v.125q.001.299-.25.297c-.176 0-.328-.101-.453-.312a1.3 1.3 0 0 1-.188-.688c0-.601.336-.906 1-.906h1.297c.23 0 .344-.07.344-.219a.27.27 0 0 0-.078-.203.3.3 0 0 1 .172-.062c.042 0 .09.039.14.109a.67.67 0 0 1 .094.36c0 .273-.133.421-.406.453v.015q.438.284.437.813-.002.345-.203.562a.78.78 0 0 1-.562.203c-.29 0-.516-.148-.672-.453q-.201-.375-.203-.937v-.172Zm1.547.61c0-.227-.101-.43-.312-.61h-.688l.016.172q.063.86.531.859c.305 0 .453-.14.453-.422m0 0"/><path id="A" d="M-.375-.672a.68.68 0 0 0 .125-.422q0-.515-.39-.515-.154.002-.313.156a4 4 0 0 0-.266.39 3.2 3.2 0 0 1-.375.5.85.85 0 0 1-.578.235.65.65 0 0 1-.547-.266q-.201-.265-.203-.687c0-.258.07-.469.203-.625a3 3 0 0 1 .36-.032q.298 0 .297.235.001.035-.016.047l-.422.078a.73.73 0 0 0-.125.406q.002.422.344.422.252 0 .469-.328.205-.327.406-.625c.187-.227.398-.344.625-.344q.376 0 .625.281.234.268.234.72 0 .437-.172.718a3 3 0 0 1-.484.047c-.195 0-.297-.07-.297-.219 0-.02.008-.035.016-.047Zm0 0"/><path id="B" d="M-1.64-1.969v1.61H-2v-1.61Zm0 0"/><path id="C" d="M.875-.578h-3.406l-.063.437q-.011.017-.047.016c-.101 0-.164-.07-.187-.219l-.063-.703.391.031v-.015a1.12 1.12 0 0 1-.422-.89q0-.5.36-.798.361-.311 1.015-.312c.524 0 .922.136 1.203.406q.375.375.375 1.063 0 .252-.078.515h.922l.078-.36q.013-.093.078-.093.094.002.157.063v1.265h-.032c-.093 0-.164-.055-.203-.172Zm-3.422-1.156q0 .393.281.687h1.782a.9.9 0 0 0 .187-.562q0-.921-1.219-.922-.48 0-.75.219a.7.7 0 0 0-.28.578m0 0"/><path id="D" d="m-2.531-.531-.063.437q-.011.017-.047.016c-.101 0-.164-.07-.187-.219L-2.891-1h1.86c.468 0 .703-.195.703-.594q0-.468-.297-.75h-1.906l-.063.438h-.047c-.101 0-.164-.07-.187-.219l-.063-.703h2.563l.062-.422a.1.1 0 0 1 .047-.016q.176.001.188.22l.062.671h-.39v.016q.438.345.437.89Q.078-.53-1-.53Zm0 0"/><path id="E" d="m-.328-2.984-1.078.39v1.469l1.078.406.078-.453q.033-.093.078-.094c.031 0 .09.024.172.063v1.25Q-.03.06-.047.063q-.17 0-.234-.204l-.031-.171L-4.11-1.75l-.047-.375 3.843-1.437.063-.266q.033-.076.078-.078.019.002.172.062v1.281h-.047q-.17.001-.219-.203Zm-1.39 1.75v-1.25l-1.75.609v.016Zm0 0"/><path id="G" d="M1.063-4.61c-.266 0-.641-.015-.922-.015-.047.031-.047.188 0 .234.5.016.625.047.625.641v2.875c0 .594-.125.625-.625.656-.047.047-.047.188 0 .235C.42 0 .797 0 1.063 0c.265 0 .453.016 1.046.016 1.422 0 1.813-.72 1.813-1.328 0-.688-.485-1.079-1.11-1.266v-.016c.36-.172.688-.547.688-.937 0-.469-.219-1.094-1.547-1.094-.25 0-.64.016-.89.016m.296 2.235h.5c.985 0 1.391.547 1.391 1.188 0 .53-.203.968-1.297.968-.5 0-.594-.187-.594-.625Zm0-1.562c0-.376 0-.454.625-.454.407 0 .922.22.922.954 0 .609-.422.812-1.015.812h-.532Zm0 0"/><path id="H" d="M1.36-.875V-3.75c0-.594.124-.625.624-.64.047-.048.047-.204 0-.235-.312 0-.64.016-.921.016-.235 0-.594-.016-.922-.016-.047.031-.047.188 0 .234.5.016.625.047.625.641v2.875c0 .594-.125.625-.625.656-.047.047-.047.188 0 .235C.453 0 .813 0 1.063 0c.265 0 .609 0 .921.016.047-.047.047-.188 0-.235-.5-.031-.625-.062-.625-.656m0 0"/><path id="I" d="M1.11-.562 1.5-1.61c.031-.094.078-.11.25-.11h1.516l.406 1.203c.094.25-.172.266-.516.297-.047.047-.047.188 0 .235C3.406 0 3.812 0 4.094 0s.562 0 .812.016c.032-.047.032-.188 0-.235-.281-.031-.531-.047-.64-.39L2.78-4.703c-.11.062-.297.14-.39.14L.766-.733C.578-.281.359-.25.046-.22 0-.172 0-.03.047.016.235 0 .47 0 .689 0c.296 0 .656 0 .921.016.032-.047.032-.188 0-.235C1.33-.25 1-.266 1.11-.562m.765-1.47c-.156 0-.203-.015-.172-.093l.734-1.844h.032l.687 1.938Zm0 0"/><path id="J" d="M2.828-4.516c-.422-.062-.406-.187-1.11-.187C1-4.703.36-4.234.36-3.47c0 .75.625 1.094 1.266 1.344.422.156.953.36.953 1.063 0 .578-.328.875-.89.875C1.015-.187.593-.5.422-1.203c-.078-.031-.156-.016-.234.016.03.562.062.75.156 1.093.437 0 .64.172 1.281.172.328 0 .625-.078.875-.25.422-.25.672-.687.672-1.14 0-.766-.563-1.094-1.156-1.329C1.594-2.797.875-3.062.875-3.656c0-.406.36-.813.781-.813.703 0 .922.453 1.063.922.078.016.172 0 .234-.047a11 11 0 0 0-.125-.922m0 0"/><path id="L" d="M3.078-1.562h-.594v-2.094c0-.36 0-.64.016-.688l-.016-.015H2.25c-.047 0-.078.03-.11.078-.453.547-1.28 1.718-1.937 2.75.016.11.063.297.281.297h1.454v.656c0 .328-.266.328-.579.36-.046.046-.046.187 0 .234C1.594 0 1.875 0 2.203 0c.281 0 .547 0 .781.016.047-.047.047-.188 0-.235-.343-.031-.5-.015-.5-.36v-.655h.5c.094 0 .204-.125.204-.22 0-.077-.032-.109-.11-.109m-1.14-2.063v2.063H.577c.36-.594.875-1.391 1.36-2.063m0 0"/><clipPath id="c"><path d="M218.656 145.117h15.82v6.328h-15.82Zm9.492 6.328h6.329v3.164h-6.329Zm-9.492 3.164h15.82v6.328h-15.82Zm0 0"/></clipPath><clipPath id="d"><path d="M213 140h21.477v26H213Zm0 0"/></clipPath><clipPath id="q"><path d="M.3 145.117h15.821v6.328H.301Zm0 6.328H6.63v3.164H.3Zm0 3.164h15.821v6.328H.301Zm0 0"/></clipPath><clipPath id="r"><path d="M.3 140H22v26H.3Zm0 0"/></clipPath></defs><path fill="none" stroke="#000" stroke-miterlimit="10" stroke-width=".7945850900000001" d="M21.48 189.527h26.07v-73H21.48Zm0 0"/><path fill="none" stroke="#000" stroke-miterlimit="10" stroke-width=".39779103000000005" d="M47.55 121.742h29.985m5.215 0h36.129m15.644 0h6.145"/><path fill="none" stroke="#000" stroke-miterlimit="10" stroke-width=".7945850900000001" d="M77.535 113.918v15.645m5.215-15.645v15.645"/><path stroke="#000" stroke-miterlimit="10" stroke-width=".39779103000000005" d="M114.316 121.742a1.583 1.583 0 1 0-3.165.002 1.583 1.583 0 0 0 3.165-.002Zm0 0"/><path fill="none" stroke="#000" stroke-miterlimit="10" stroke-width=".7945850900000001" d="M132.957 117.828h-12.516c-.863 0-1.562 1.754-1.562 3.914s.7 3.91 1.562 3.91h12.516c.867 0 1.566-1.75 1.566-3.91s-.699-3.914-1.566-3.914"/><path fill="none" stroke="#000" stroke-miterlimit="10" stroke-width=".7945850900000001" d="M132.957 117.828c-.863 0-1.562 1.754-1.562 3.914s.699 3.91 1.562 3.91"/><path fill="none" stroke="#000" stroke-miterlimit="10" stroke-width=".39779103000000005" d="M132.957 121.742h1.566M158.918 102.184v9.52h-9.125"/><path fill="none" stroke="#000" stroke-miterlimit="10" stroke-width=".7945850900000001" d="M149.793 109.55v3.946m0 1.434v3.586m0 1.433v3.942"/><path fill="none" stroke="#000" stroke-miterlimit="10" stroke-width=".39779103000000005" d="M149.793 116.723h9.324m-9.324 5.02h9.125v9.519"/><path fill="none" stroke="#000" stroke-miterlimit="10" stroke-width=".7945850900000001" d="M147.605 111.504v10.437"/><path d="M155.375 116.723V119l-5.098-2.277 5.098-2.282Zm0 0"/><path fill="none" stroke="#000" stroke-miterlimit="10" stroke-width=".39779103000000005" d="M147.605 121.742h-7.136M158.918 116.723v14.34"/><path stroke="#000" stroke-miterlimit="10" stroke-width=".39779103000000005" d="M160.027 121.742a1.109 1.109 0 1 0-2.215 0 1.107 1.107 0 0 0 2.215 0Zm0 0"/><use xlink:href="#a" x="162.096" y="119.627"/><path fill="none" stroke="#000" stroke-miterlimit="10" stroke-width=".39779103000000005" d="M47.55 184.312h29.985m5.215 0h36.129m15.644 0h6.145"/><path fill="none" stroke="#000" stroke-miterlimit="10" stroke-width=".7945850900000001" d="M77.535 176.492v15.645m5.215-15.645v15.645"/><path stroke="#000" stroke-miterlimit="10" stroke-width=".39779103000000005" d="M114.316 184.312a1.583 1.583 0 1 0-3.162.002 1.583 1.583 0 0 0 3.162-.002Zm0 0"/><path fill="none" stroke="#000" stroke-miterlimit="10" stroke-width=".7945850900000001" d="M132.957 180.402h-12.516c-.863 0-1.562 1.754-1.562 3.91 0 2.16.7 3.915 1.562 3.915h12.516c.867 0 1.566-1.754 1.566-3.915 0-2.156-.699-3.91-1.566-3.91"/><path fill="none" stroke="#000" stroke-miterlimit="10" stroke-width=".7945850900000001" d="M132.957 180.402c-.863 0-1.562 1.754-1.562 3.91 0 2.16.699 3.915 1.562 3.915"/><path fill="none" stroke="#000" stroke-miterlimit="10" stroke-width=".39779103000000005" d="M132.957 184.312h1.566M158.918 203.871v-9.52h-9.125"/><path fill="none" stroke="#000" stroke-miterlimit="10" stroke-width=".7945850900000001" d="M149.793 196.504v-3.945m0-1.434v-3.586m0-1.434v-3.94"/><path fill="none" stroke="#000" stroke-miterlimit="10" stroke-width=".39779103000000005" d="M149.793 189.332h9.324m-9.324-5.02h9.125v-9.519"/><path fill="none" stroke="#000" stroke-miterlimit="10" stroke-width=".7945850900000001" d="M147.605 194.55v-10.433"/><path d="M155.375 189.332v-2.277l-5.098 2.277 5.098 2.281Zm0 0"/><path fill="none" stroke="#000" stroke-miterlimit="10" stroke-width=".39779103000000005" d="M147.605 184.312h-7.136M158.918 189.332v-14.34"/><path stroke="#000" stroke-miterlimit="10" stroke-width=".39779103000000005" d="M160.027 184.312a1.109 1.109 0 1 1-2.215 0 1.107 1.107 0 0 1 2.215 0Zm0 0"/><use xlink:href="#b" x="162.096" y="192.292"/><path fill="none" stroke="#000" stroke-miterlimit="10" stroke-width=".7945850900000001" d="M187.227 189.527H213.3v-73h-26.074Zm0 0"/><path fill="none" stroke="#000" stroke-miterlimit="10" stroke-width=".39779103000000005" d="M158.918 102.383V93.07m0 0v-9.312h6.707m5.215 0h6.703v37.984h9.684"/><path fill="none" stroke="#000" stroke-miterlimit="10" stroke-width=".7945850900000001" d="M165.625 75.938v15.644m5.215-15.644v15.644"/><path stroke="#000" stroke-miterlimit="10" stroke-width=".39779103000000005" d="M160.5 83.758a1.583 1.583 0 1 0-3.162.002 1.583 1.583 0 0 0 3.162-.002Zm0 0"/><path fill="none" stroke="#000" stroke-miterlimit="10" stroke-width=".39779103000000005" d="M158.918 203.672v9.312m0 0v9.313h6.707m5.215 0h6.703v-37.985h9.684"/><path fill="none" stroke="#000" stroke-miterlimit="10" stroke-width=".7945850900000001" d="M165.625 214.477v15.64m5.215-15.64v15.64"/><path stroke="#000" stroke-miterlimit="10" stroke-width=".39779103000000005" d="M160.5 222.297a1.583 1.583 0 1 0-3.162.002 1.583 1.583 0 0 0 3.162-.002Zm0 0"/><path fill="none" stroke="#000" stroke-miterlimit="10" stroke-width=".39779103000000005" d="M213.3 153.027h4.657m0 0h4.652"/><g clip-path="url(#c)"><path fill="none" stroke="#000" stroke-miterlimit="10" stroke-width=".7945850900000001" d="M222.61 153.027a3.96 3.96 0 0 1 3.956-3.957 3.96 3.96 0 0 1 3.957 3.957 3.96 3.96 0 0 1-3.957 3.957 3.96 3.96 0 0 1-3.957-3.957Zm0 0"/></g><g clip-path="url(#d)"><path fill="none" stroke="#000" stroke-miterlimit="10" stroke-width=".7945850900000001" d="M224.984 153.027a1.58 1.58 0 0 1 1.582-1.582 1.58 1.58 0 0 1 1.582 1.582 1.58 1.58 0 0 1-1.582 1.582 1.58 1.58 0 0 1-1.582-1.582Zm0 0"/></g><path fill="none" stroke="#000" stroke-miterlimit="10" stroke-width=".39779103000000005" d="M224.984 153.027h-2.375"/><use xlink:href="#e" x="228.491" y="145.894"/><use xlink:href="#f" x="228.491" y="139.369"/><use xlink:href="#g" x="230.368" y="135.033"/><use xlink:href="#h" x="230.368" y="130.013"/><use xlink:href="#i" x="230.368" y="125.286"/><path fill="none" stroke="#000" stroke-miterlimit="10" stroke-width=".39779103000000005" d="M158.918 131.063v21.964m0 0v21.965M158.918 153.027h-4.656m0 0h-4.653"/><path stroke="#000" stroke-miterlimit="10" stroke-width=".39779103000000005" d="M160.5 153.027a1.583 1.583 0 1 0-3.162.002 1.583 1.583 0 0 0 3.162-.002Zm0 0"/><path fill="none" stroke="#000" stroke-miterlimit="10" stroke-width=".39779103000000005" d="M149.61 153.027v9.891"/><path fill="none" stroke="#000" stroke-linecap="round" stroke-miterlimit="10" stroke-width=".7945850900000001" d="M143.672 162.918h11.87"/><path fill="none" stroke="#000" stroke-miterlimit="10" stroke-width=".39779103000000005" d="M112.734 121.742v28.68m0 5.215v28.675"/><path fill="none" stroke="#000" stroke-miterlimit="10" stroke-width=".7945850900000001" d="M120.555 155.637H104.91m15.645-5.215H104.91M104.91 160.848l15.223-15.22"/><path fill="none" stroke="#000" stroke-miterlimit="10" stroke-width=".7945611800000001" d="m118.098 143.309 4.355 4.355"/><path fill="none" stroke="#000" stroke-miterlimit="10" stroke-width=".39779103000000005" d="M112.734 121.742V85.613m0-20.86V28.626"/><path fill="none" stroke="#000" stroke-linejoin="bevel" stroke-miterlimit="10" stroke-width=".7945850900000001" d="M112.89 86.008c-2.16 0-3.91-1.211-3.91-2.707 0-1.492 1.75-2.703 3.91-2.703-2.16 0-3.91-1.215-3.91-2.707 0-1.496 1.75-2.707 3.91-2.707-2.16 0-3.91-1.211-3.91-2.707 0-1.497 1.75-2.707 3.91-2.707-2.16 0-3.91-1.211-3.91-2.707 0-1.497 1.75-2.708 3.91-2.708"/><path fill="none" stroke="#000" stroke-miterlimit="10" stroke-width=".7945850900000001" d="M102.305 14.285h20.859v7.82h-20.86Zm0 0"/><path fill="none" stroke="#000" stroke-miterlimit="10" stroke-width=".39779103000000005" d="M112.734 28.625v-3.059"/><path stroke="#000" stroke-miterlimit="10" stroke-width=".39779103000000005" d="m112.734 22.504-1.757 2.965h3.515Zm0 0"/><path fill="none" stroke="#000" stroke-dasharray="2.9797738451 2.9797738451" stroke-miterlimit="10" stroke-width=".39779103000000005" d="M106.836 85.613v-20.86"/><path fill="none" stroke="#000" stroke-miterlimit="10" stroke-width=".39779103000000005" d="M123.164 18.195h4.652m0 0h4.657M132.473 18.195v9.891"/><path fill="none" stroke="#000" stroke-linecap="round" stroke-miterlimit="10" stroke-width=".7945850900000001" d="M126.539 28.086h11.871"/><path fill="none" stroke="#000" stroke-miterlimit="10" stroke-width=".39779103000000005" d="M112.734 184.312v26.82m0 20.856v26.82"/><path fill="none" stroke="#000" stroke-linejoin="bevel" stroke-miterlimit="10" stroke-width=".7945850900000001" d="M112.89 210.734c-2.16 0-3.91 1.211-3.91 2.707s1.75 2.707 3.91 2.707c-2.16 0-3.91 1.211-3.91 2.707 0 1.493 1.75 2.707 3.91 2.707-2.16 0-3.91 1.211-3.91 2.708 0 1.492 1.75 2.703 3.91 2.703-2.16 0-3.91 1.214-3.91 2.707 0 1.496 1.75 2.707 3.91 2.707"/><path fill="none" stroke="#000" stroke-miterlimit="10" stroke-width=".7945850900000001" d="M102.305 265.324h20.859v7.824h-20.86Zm0 0"/><path fill="none" stroke="#000" stroke-miterlimit="10" stroke-width=".39779103000000005" d="M112.734 258.809v3.054"/><path stroke="#000" stroke-miterlimit="10" stroke-width=".39779103000000005" d="m112.734 264.93 1.758-2.965h-3.515Zm0 0"/><path fill="none" stroke="#000" stroke-dasharray="2.9797738451 2.9797738451" stroke-miterlimit="10" stroke-width=".39779103000000005" d="M106.836 211.133v20.855"/><path fill="none" stroke="#000" stroke-miterlimit="10" stroke-width=".39779103000000005" d="M123.164 269.238h4.652m0 0h4.657M132.473 269.238v9.89"/><path fill="none" stroke="#000" stroke-linecap="round" stroke-miterlimit="10" stroke-width=".7945850900000001" d="M126.539 279.129h11.871"/><path fill="none" stroke="#000" stroke-miterlimit="10" stroke-width=".39779103000000005" d="M158.918 83.758v-22.16m0-20.86v-22.16"/><path fill="none" stroke="#000" stroke-linejoin="bevel" stroke-miterlimit="10" stroke-width=".7945850900000001" d="M159.078 61.992c-2.16 0-3.91-1.21-3.91-2.703 0-1.496 1.75-2.707 3.91-2.707-2.16 0-3.91-1.215-3.91-2.707 0-1.496 1.75-2.707 3.91-2.707-2.16 0-3.91-1.21-3.91-2.707s1.75-2.707 3.91-2.707c-2.16 0-3.91-1.211-3.91-2.707 0-1.492 1.75-2.707 3.91-2.707"/><path fill="#FFF" stroke="#000" stroke-miterlimit="10" stroke-width=".39779103000000005" d="M160.5 18.578a1.583 1.583 0 1 0-3.162.002 1.583 1.583 0 0 0 3.162-.002Zm0 0"/><use xlink:href="#j" x="148.572" y="15.293"/><use xlink:href="#k" x="153.042" y="15.293"/><use xlink:href="#l" x="157.512" y="15.293"/><use xlink:href="#m" x="163.465" y="15.293"/><path fill="none" stroke="#000" stroke-dasharray="2.9797738451 2.9797738451" stroke-miterlimit="10" stroke-width=".39779103000000005" d="M153.023 61.598v-20.86"/><path fill="none" stroke="#000" stroke-miterlimit="10" stroke-width=".39779103000000005" d="M158.918 222.297v12.851m0 20.856v12.851"/><path fill="none" stroke="#000" stroke-linejoin="bevel" stroke-miterlimit="10" stroke-width=".7945850900000001" d="M159.078 234.75c-2.16 0-3.91 1.21-3.91 2.707 0 1.492 1.75 2.707 3.91 2.707-2.16 0-3.91 1.211-3.91 2.707 0 1.492 1.75 2.703 3.91 2.703-2.16 0-3.91 1.215-3.91 2.707 0 1.496 1.75 2.707 3.91 2.707-2.16 0-3.91 1.211-3.91 2.707s1.75 2.707 3.91 2.707"/><path fill="#FFF" stroke="#000" stroke-miterlimit="10" stroke-width=".39779103000000005" d="M160.5 268.855a1.583 1.583 0 1 0-3.162.002 1.583 1.583 0 0 0 3.162-.002Zm0 0"/><use xlink:href="#j" x="148.572" y="278.2"/><use xlink:href="#k" x="153.042" y="278.2"/><use xlink:href="#l" x="157.512" y="278.2"/><use xlink:href="#m" x="163.465" y="278.2"/><path fill="none" stroke="#000" stroke-dasharray="2.9797738451 2.9797738451" stroke-miterlimit="10" stroke-width=".39779103000000005" d="M153.023 235.148v20.856"/><path fill="none" stroke="#000" stroke-miterlimit="10" stroke-width=".39779103000000005" d="M102.305 18.195h-4.657m0 0H81.352m0 0H58.074m0 0H38.238m-20.855 0H9.188"/><path stroke="#000" stroke-miterlimit="10" stroke-width=".39779103000000005" d="M94.574 18.195a1.58 1.58 0 0 0-1.582-1.582 1.58 1.58 0 0 0-1.582 1.582 1.58 1.58 0 0 0 1.582 1.582 1.58 1.58 0 0 0 1.582-1.582ZM71.297 18.195a1.583 1.583 0 1 0-3.166.002 1.583 1.583 0 0 0 3.166-.002ZM48.016 18.195a1.58 1.58 0 0 0-1.582-1.582 1.58 1.58 0 0 0-1.582 1.582 1.58 1.58 0 0 0 1.582 1.582 1.58 1.58 0 0 0 1.582-1.582Zm0 0"/><path fill="none" stroke="#000" stroke-miterlimit="10" stroke-width=".7945850900000001" d="M17.383 14.285h20.855v7.82H17.383Zm0 0"/><path fill="#FFF" stroke="#000" stroke-miterlimit="10" stroke-width=".39779103000000005" d="M10.77 18.195a1.58 1.58 0 0 0-1.582-1.582 1.58 1.58 0 0 0-1.583 1.582 1.58 1.58 0 0 0 1.583 1.582 1.58 1.58 0 0 0 1.582-1.582Zm0 0"/><use xlink:href="#n" x="12.366" y="10.211"/><use xlink:href="#o" x="18.158" y="10.211"/><use xlink:href="#p" x="23.799" y="10.211"/><path fill="none" stroke="#000" stroke-miterlimit="10" stroke-width=".39779103000000005" d="M21.48 153.027h-4.656m0 0h-4.656"/><g clip-path="url(#q)"><path fill="none" stroke="#000" stroke-miterlimit="10" stroke-width=".7945850900000001" d="M12.168 153.027a3.96 3.96 0 0 0-3.957-3.957 3.96 3.96 0 0 0-3.957 3.957 3.96 3.96 0 0 0 3.957 3.957 3.96 3.96 0 0 0 3.957-3.957Zm0 0"/></g><g clip-path="url(#r)"><path fill="none" stroke="#000" stroke-miterlimit="10" stroke-width=".7945850900000001" d="M9.793 153.027a1.58 1.58 0 0 0-1.582-1.582 1.58 1.58 0 0 0-1.582 1.582 1.58 1.58 0 0 0 1.582 1.582 1.58 1.58 0 0 0 1.582-1.582Zm0 0"/></g><path fill="none" stroke="#000" stroke-miterlimit="10" stroke-width=".39779103000000005" d="M9.793 153.027h2.375"/><use xlink:href="#e" x="10.138" y="145.893"/><use xlink:href="#f" x="10.138" y="139.368"/><use xlink:href="#s" x="12.016" y="135.032"/><use xlink:href="#t" x="12.016" y="132.908"/><path fill="none" stroke="#000" stroke-miterlimit="10" stroke-width=".39779103000000005" d="M92.992 18.195v251.043h9.313M69.715 18.195V48.18m0 5.215v29.98"/><path fill="none" stroke="#000" stroke-miterlimit="10" stroke-width=".7945850900000001" d="M77.535 48.18H61.891m15.644 5.215H61.891"/><path fill="none" stroke="#000" stroke-miterlimit="10" stroke-width=".39779103000000005" d="M69.715 83.375v9.895"/><path fill="none" stroke="#000" stroke-linecap="round" stroke-miterlimit="10" stroke-width=".7945850900000001" d="M63.777 93.27h11.871"/><path fill="none" stroke="#000" stroke-miterlimit="10" stroke-width=".39779103000000005" d="M46.434 18.195v5.868m0 20.855v11.734m0 20.86v5.863"/><path fill="none" stroke="#000" stroke-miterlimit="10" stroke-width=".7945850900000001" d="M42.523 44.918V24.063h7.82v20.855ZM42.527 77.512v-20.86h7.813v20.86Zm0 0"/><path fill="none" stroke="#000" stroke-miterlimit="10" stroke-width=".7945850900000001" d="M52.012 77.512 39.738 62.91v-6.258"/><path fill="none" stroke="#000" stroke-miterlimit="10" stroke-width=".39779103000000005" d="M46.434 83.375v9.895"/><path fill="none" stroke="#000" stroke-linecap="round" stroke-miterlimit="10" stroke-width=".7945850900000001" d="M40.5 93.27h11.867"/><use xlink:href="#u" x="32.099" y="65.981"/><path fill="none" stroke="#000" stroke-miterlimit="10" stroke-width=".39779103000000005" d="M34.336 77.512v-3.059"/><path stroke="#000" stroke-miterlimit="10" stroke-width=".39779103000000005" d="m34.336 71.39-1.758 2.965h3.516Zm0 0"/><path fill="none" stroke="#000" stroke-miterlimit="10" stroke-width=".39779103000000005" d="M37.129 74.047v-3.055"/><path stroke="#000" stroke-miterlimit="10" stroke-width=".39779103000000005" d="m37.129 77.113 1.758-2.965H35.37Zm0 0"/><use xlink:href="#v" x="30.563" y="165.722"/><use xlink:href="#w" x="30.563" y="162.343"/><use xlink:href="#x" x="30.563" y="160.68"/><use xlink:href="#y" x="30.563" y="157.176"/><use xlink:href="#z" x="30.563" y="154.22"/><use xlink:href="#x" x="30.563" y="151.437"/><use xlink:href="#y" x="30.563" y="147.933"/><use xlink:href="#A" x="30.563" y="144.977"/><use xlink:href="#B" x="30.563" y="142.671"/><use xlink:href="#z" x="41.44" y="166.443"/><use xlink:href="#x" x="41.44" y="163.66"/><use xlink:href="#C" x="41.44" y="160.156"/><use xlink:href="#z" x="41.44" y="156.86"/><use xlink:href="#A" x="41.44" y="154.077"/><use xlink:href="#A" x="41.44" y="151.771"/><use xlink:href="#D" x="41.44" y="149.464"/><use xlink:href="#x" x="41.44" y="146.073"/><use xlink:href="#y" x="41.44" y="142.569"/><use xlink:href="#E" x="196.271" y="166.211"/><use xlink:href="#D" x="196.271" y="162.385"/><use xlink:href="#A" x="196.271" y="158.994"/><use xlink:href="#y" x="196.271" y="156.687"/><use xlink:href="#z" x="196.271" y="153.731"/><use xlink:href="#x" x="196.271" y="150.948"/><use xlink:href="#y" x="196.271" y="147.444"/><use xlink:href="#A" x="196.271" y="144.488"/><use xlink:href="#B" x="196.271" y="142.182"/><use xlink:href="#z" x="207.147" y="166.443"/><use xlink:href="#x" x="207.147" y="163.66"/><use xlink:href="#C" x="207.147" y="160.156"/><use xlink:href="#z" x="207.147" y="156.86"/><use xlink:href="#A" x="207.147" y="154.077"/><use xlink:href="#A" x="207.147" y="151.771"/><use xlink:href="#D" x="207.147" y="149.464"/><use xlink:href="#x" x="207.147" y="146.073"/><use xlink:href="#y" x="207.147" y="142.569"/><use xlink:href="#F" x="69.907" y="13.07"/><use xlink:href="#G" x="74.662" y="14.948"/><use xlink:href="#H" x="78.867" y="14.948"/><use xlink:href="#I" x="80.991" y="14.948"/><use xlink:href="#J" x="85.961" y="14.948"/><use xlink:href="#K" x="108.245" y="8.825"/><use xlink:href="#L" x="113.51" y="10.702"/></svg>