<svg xmlns="http://www.w3.org/2000/svg" xmlns:xlink="http://www.w3.org/1999/xlink" width="227.893" height="176.589"><defs><path id="b" d="M2.734-2.656a5 5 0 0 1-.375.015h-.484V-.5l.625.14q.124.018.125.094 0 .048-.094.266H.421a.16.16 0 0 1-.015-.078Q.404-.324.72-.406L1.094-.5v-5.203l-.547-.125c-.086-.02-.125-.05-.125-.094q0-.075.094-.25h1.797q2.53 0 2.53 1.719 0 1.268-1.296 1.656L5.078-.469l.422.11q.124.034.125.093 0 .048-.094.266H4.344Zm-.421-.438c1.132 0 1.703-.437 1.703-1.312q-.002-1.266-1.703-1.266h-.438v2.578Zm0 0"/><path id="c" d="M2.203-6.172a.2.2 0 0 1 .016.078q-.001.236-.313.313l-.328.062 1.188 2h.015l1.266-2.015-.594-.079c-.086-.007-.125-.046-.125-.109q0-.075.094-.25h1.797c.008.024.015.047.015.078q0 .253-.312.313l-.297.062-1.547 2.453L4.766-.469l.422.11q.124.034.125.093c0 .032-.04.121-.11.266h-1.89a.16.16 0 0 1-.016-.078c0-.176.101-.285.312-.328l.282-.047-1.282-2.14h-.015L1.266-.454l.562.094q.124.017.125.093A.6.6 0 0 1 1.86 0H.047v-.078q0-.264.297-.328l.25-.063 1.687-2.61-1.61-2.624-.437-.11C.148-5.831.11-5.866.11-5.921q0-.075.11-.25Zm0 0"/><path id="d" d="M.922-4.297v-.047q-.001-.996.484-1.593.422-.53 1.032-.532.528 0 .53.422a.44.44 0 0 1-.155.328 1.16 1.16 0 0 0-.579-.156q-.328.001-.468.172c-.086.117-.125.312-.125.594v.812h1.218l-.093.469H1.64v3.36l.64.124q.124.017.125.11A.35.35 0 0 1 2.312 0H.329a.1.1 0 0 1-.016-.062c0-.133.094-.235.282-.297l.328-.11v-3.36H.234v-.062q0-.233.282-.296Zm0 0"/><path id="e" d="M2.984-1.047q.281-.528.297-1.625-.468.375-1.172.375-.766.002-1.234-.406-.516-.45-.516-1.313c0-.601.204-1.078.61-1.421.351-.32.781-.485 1.281-.485q.89.001 1.39.781c.301.493.454 1.141.454 1.954q0 1.329-.516 2.203Q2.95.11 1.672.109 1.062.107.703-.094.39-.263.391-.53q0-.406.39-.5c.176.43.524.64 1.047.64q.81 0 1.156-.656m-.812-1.765q.714 0 1.125-.329-.018-1.125-.328-1.734-.315-.546-.828-.547-.456 0-.72.328-.28.361-.28 1.016 0 1.266 1.03 1.266m0 0"/><path id="h" d="M2.031-.578v-4.438L.687-4.75a1 1 0 0 1-.015-.187c0-.133.07-.235.219-.297l1.468-.578h.454v5.234l1.093.172q.124.016.125.11 0 .08-.093.296H.874a.16.16 0 0 1-.016-.078q0-.311.282-.36Zm0 0"/><path id="i" d="M.406-.375q0-.218.14-.36a.47.47 0 0 1 .345-.14c.132 0 .25.047.343.14a.47.47 0 0 1 .157.36.47.47 0 0 1-.157.36.5.5 0 0 1-.343.124.5.5 0 0 1-.344-.125.48.48 0 0 1-.14-.359m0 0"/><path id="j" d="M4.516-6.172c.039.5.062.852.062 1.047 0 .262-.086.39-.25.39a.6.6 0 0 1-.203-.03l-.219-.938H1.875v2.453h2v.5h-2V-.5l.719.14q.124.018.125.094c0 .032-.04.121-.11.266H.422a.16.16 0 0 1-.016-.078Q.404-.324.72-.406L1.094-.5v-5.203l-.547-.125c-.086-.02-.125-.05-.125-.094q0-.075.094-.25Zm0 0"/><path id="k" d="M.906-.469v-3.343l-.64-.079a.2.2 0 0 1-.016-.078q0-.246.328-.281l1.063-.094v3.875l.53.125q.125.017.126.11A.4.4 0 0 1 2.219 0H.313a.1.1 0 0 1-.016-.062c0-.133.094-.235.281-.297Zm-.14-5.375q0-.234.14-.375a.52.52 0 0 1 .36-.14.507.507 0 0 1 .53.515.49.49 0 0 1-.155.375.53.53 0 0 1-.375.125.5.5 0 0 1-.36-.125.5.5 0 0 1-.14-.375m0 0"/><path id="l" d="M.875-.469v-5.484l-.656-.094a.1.1 0 0 1-.016-.062q0-.246.328-.282L1.594-6.5v6.031l.531.125q.124.017.125.11A.4.4 0 0 1 2.172 0H.266v-.062c0-.133.086-.235.265-.297Zm0 0"/><path id="m" d="M.875-4.297 1.031-5.5h.532v1.203h1.343l-.094.469h-1.25v2.75q0 .674.579.672.45 0 .75-.235.06.095.062.266-.002.112-.25.266-.33.217-.828.218Q.827.11.828-.92v-2.907H.156a.2.2 0 0 1-.015-.063q0-.233.28-.296Zm0 0"/><path id="n" d="M1.156-2.172q.012.845.375 1.297.359.439 1.016.438c.394 0 .765-.133 1.11-.407q.092.064.109.25-.001.205-.407.438Q2.89.109 2.25.109 1.434.111.953-.39.391-.965.391-2.062.39-3.173.969-3.828q.527-.576 1.312-.578.702 0 1.094.422.375.41.375 1.078c0 .199-.04.445-.11.734Zm1.032-1.765q-.892.002-1.016 1.328h1.766q.046-.171.046-.375 0-.951-.796-.953m0 0"/><path id="o" d="M.906-.469v-3.343l-.64-.079a.2.2 0 0 1-.016-.078q0-.246.328-.281l1.063-.094-.063.75h.031c.352-.539.735-.812 1.141-.812q.593.002.594.437 0 .188-.14.375a1.6 1.6 0 0 0-.595-.125q-.61.001-.968.5v2.75l.625.125q.124.017.125.11A.35.35 0 0 1 2.297 0H.312a.1.1 0 0 1-.015-.062c0-.133.094-.235.281-.297Zm0 0"/><path id="p" d="m.125-1.984 2.547-3.813.656-.047v3.64h.75l-.047.688h-.703V-.5l.625.14q.124.018.125.094-.002.048-.11.266H1.923a.16.16 0 0 1-.016-.078q-.002-.246.313-.328L2.594-.5v-1.016H.156Zm.734-.22h1.735v-2.702h-.016L.86-2.22Zm0 0"/><path id="q" d="M1.39-3.156c1.008-.125 1.516-.531 1.516-1.219Q2.905-5.436 2-5.437q-.41 0-.703.187a3 3 0 0 0-.11.828 1.4 1.4 0 0 1-.218.016c-.281 0-.422-.117-.422-.36q-.001-.513.437-.828.45-.328 1.188-.328.714 0 1.125.375.422.376.422 1.016 0 .628-.422 1.015-.299.284-.906.485V-3q.715.094 1.109.469.389.361.39.922 0 .737-.562 1.234Q2.78.11 1.891.109C1.41.11 1.05.012.813-.17A.61.61 0 0 1 .53-.688c0-.258.133-.442.407-.547q.14.363.28.515.295.328.829.328c.664 0 1-.351 1-1.062 0-.738-.555-1.149-1.656-1.234Zm0 0"/><path id="r" d="M2.234-.39q1.11.001 1.11-2.516 0-2.515-1.11-2.516-1.094.001-1.093 2.516c0 1.68.363 2.515 1.093 2.515m-.03.5q-.88 0-1.376-.75Q.296-1.42.297-2.907.296-4.39.875-5.187q.516-.734 1.406-.735.873.001 1.375.734.516.798.516 2.282 0 1.47-.563 2.265-.515.75-1.406.75m0 0"/><path id="s" d="M4.047-2.562H.437v-.47h3.61Zm0 0"/><path id="t" d="m6.031-.5-.093-4.234h-.016L4.032-.078h-.485L1.703-4.766h-.016L1.61-.5l.61.14q.124.018.125.094 0 .048-.094.266H.39v-.078Q.39-.324.689-.406l.39-.094.063-5.203-.547-.125c-.086-.02-.125-.05-.125-.094q0-.075.094-.25h1.421L3.922-1.25h.015l2-4.922h1.516v.078q-.002.237-.297.297l-.422.094L6.797-.5l.625.14q.124.018.125.094 0 .048-.094.266h-2.11v-.078q-.001-.246.298-.328Zm0 0"/><path id="u" d="M2.594-6.172c.008.024.015.047.015.078q0 .237-.312.297l-.422.094v2.281h3v-2.281l-.562-.125c-.086-.02-.125-.05-.125-.094q0-.075.093-.25H6.36a.2.2 0 0 1 .016.078q0 .237-.312.297l-.407.094V-.5l.61.14q.124.018.125.094 0 .048-.094.266h-2.11v-.078q0-.246.297-.328L4.875-.5v-2.39h-3V-.5l.625.14q.124.018.125.094 0 .048-.094.266H.421a.16.16 0 0 1-.015-.078Q.404-.324.72-.406L1.094-.5v-5.203l-.547-.125c-.086-.02-.125-.05-.125-.094q0-.075.094-.25Zm0 0"/><path id="v" d="M.469-3.406q0-.329.062-.89h2.907q.03.08.03.171 0 .158-.093.313L1.141-.47v.016h1.75l.328-.89q.077-.015.125-.016.248 0 .25.28Q3.593-.983 3.469 0H.406a.6.6 0 0 1-.094-.328q0-.124.094-.266l2.157-3.25v-.015h-1.47l-.25.75H.72q-.251 0-.25-.297m0 0"/><path id="w" d="M3.422-.437q.561.002 1-.172l.281-1.188a.7.7 0 0 1 .203-.031c.157 0 .235.133.235.39l-.032.97Q4.39.11 3.266.108q-1.19 0-1.922-.703C.758-1.144.469-1.969.469-3.062c0-1.051.32-1.876.969-2.47q.843-.75 2.015-.75.996.001 1.688.407.046.644.046.938-.001.39-.265.39a.6.6 0 0 1-.203-.031l-.203-.906a2 2 0 0 0-1.063-.282c-.625 0-1.133.204-1.515.61-.43.46-.641 1.125-.641 2 0 .93.207 1.625.625 2.094q.563.625 1.5.625m0 0"/><path id="x" d="M3.281-.39q.903 0 1.438-.72c.351-.476.531-1.14.531-1.984q-.001-1.23-.547-1.953a1.75 1.75 0 0 0-1.469-.734c-.593 0-1.07.242-1.421.718q-.516.721-.516 1.97c0 .843.176 1.507.531 1.984q.528.719 1.453.718m-.047.5Q2 .11 1.25-.704q-.783-.855-.781-2.39 0-1.514.844-2.376.778-.81 2.015-.812 1.264.002 2 .812c.508.563.766 1.356.766 2.375q0 1.518-.844 2.39-.784.815-2.016.813m0 0"/><path id="y" d="M1-.578q.264.204.656.203c.508 0 .766-.195.766-.594q-.002-.234-.25-.468a5 5 0 0 0-.578-.407q-.534-.327-.75-.562a1.26 1.26 0 0 1-.344-.86q0-.513.39-.828.405-.311 1.032-.312.576 0 .953.312.03.33.031.547-.002.439-.344.438h-.078l-.109-.657a1.08 1.08 0 0 0-.61-.187c-.43 0-.64.18-.64.531 0 .242.164.477.5.703q.48.3.938.61.515.409.515.953 0 .532-.422.906-.41.362-1.078.36C1.128.11.766.022.484-.14a3.7 3.7 0 0 1-.078-.735q0-.436.344-.437.03.002.078.015Zm0 0"/><path id="z" d="M3.563-.844q.123.128.124.25 0 .222-.359.438-.44.265-1.078.265-.844 0-1.344-.562-.515-.563-.515-1.64c0-.72.21-1.29.64-1.72.407-.394.914-.593 1.532-.593.414 0 .734.086.953.25q.234.206.234.453 0 .392-.36.484-.346-.686-1.015-.687-.517 0-.828.375-.375.44-.375 1.25Q1.17-.436 2.547-.437c.426 0 .765-.133 1.015-.407m0 0"/><path id="A" d="M.828-.469v-5.484l-.656-.094a.1.1 0 0 1-.016-.062q0-.246.344-.282L1.547-6.5v2.734h.031q.514-.639 1.375-.64 1.437.002 1.438 1.61V-.47l.53.125q.125.017.126.11A.35.35 0 0 1 4.953 0h-1.89a.1.1 0 0 1-.016-.062c0-.133.094-.235.281-.297l.328-.11V-2.75q0-1.061-.969-1.062-.69 0-1.14.468v2.875l.547.125q.124.017.125.11A.35.35 0 0 1 2.125 0H.219v-.062c0-.133.094-.235.281-.297Zm0 0"/><path id="B" d="m.422-.453 1.516-1.734q.874-1.015.875-2 0-1.25-.891-1.25-.362 0-.719.171-.112.365-.125.891-.11.017-.203.016-.422.002-.422-.36 0-.545.422-.875.42-.328 1.156-.328.715.001 1.172.406.451.41.453 1.172 0 .675-.422 1.36-.27.44-.89 1.125L1.359-.797v.016h2.032l.187-.781a.44.44 0 0 1 .188-.032q.217.002.218.344c0 .242-.03.656-.093 1.25H.5Zm0 0"/><path id="C" d="M2.938-3.047Q4.029-2.543 4.03-1.5q0 .737-.547 1.188-.503.42-1.28.421-.77 0-1.25-.39Q.436-.716.437-1.453q0-.92 1.125-1.453-.985-.499-.985-1.485c0-.437.164-.8.5-1.093.344-.29.742-.438 1.203-.438.477 0 .867.133 1.172.39q.451.376.453 1.063 0 .908-.969 1.422m-.407-.156q.67-.405.672-1.266-.002-.42-.25-.672c-.18-.187-.422-.28-.734-.28a.9.9 0 0 0-.688.28.94.94 0 0 0-.25.672q0 .504.344.797c.164.149.469.305.906.469m-.562.484c-.524.293-.782.715-.782 1.266q0 .456.282.766.28.297.765.296.47 0 .75-.28.296-.294.297-.75 0-.47-.36-.798-.268-.217-.952-.5m0 0"/><path id="D" d="M1.578 1.563c-.094.156-.266.265-.406.265-.11 0-.156-.062-.219-.14-.078-.125-.25-.297-.437-.297-.25 0-.344.172-.344.328 0 .203.219.406.828.406.375 0 .766-.172 1.047-.562.25-.344.437-1.032.797-2.72.14-.702.281-1.437.422-2.187l.015-.14h.844c.078 0 .203-.047.219-.11 0 0 .047-.187.047-.203 0-.031-.016-.047-.063-.047h-.984l.11-.5c.124-.672.25-1.078.374-1.328.14-.25.25-.312.36-.312.14 0 .156.078.187.25.031.187.11.422.39.422a.31.31 0 0 0 .329-.297c0-.328-.297-.641-.828-.641a1 1 0 0 0-.61.25c-.297.219-.672.563-1 2.156l-.594.031c-.171 0-.234.079-.25.157a.5.5 0 0 0-.046.14c0 .032.03.032.046.032h.75c-.203 1.015-.25 1.547-.359 2.218-.14.86-.281 2.329-.625 2.829m0 0"/><path id="E" d="M4.766-2.36c0-1.468-1.016-2.343-2.297-2.343C1.079-4.703.266-3.61.266-2.22.266-.813 1.28.078 2.5.078c.797 0 1.422-.344 1.828-.906.281-.406.438-.922.438-1.531M2.375-4.452c.938 0 1.703.797 1.703 2.234 0 1.281-.61 2.031-1.437 2.031-.86 0-1.688-.78-1.688-2.156 0-1.5.703-2.11 1.422-2.11m0 0"/><path id="F" d="M2.828-4.516c-.422-.062-.406-.187-1.11-.187C1-4.703.36-4.234.36-3.47c0 .75.625 1.094 1.266 1.344.422.156.953.36.953 1.063 0 .578-.328.875-.89.875C1.015-.187.593-.5.422-1.203c-.078-.031-.156-.016-.234.016.03.562.062.75.156 1.093.437 0 .64.172 1.281.172.328 0 .625-.078.875-.25.422-.25.672-.687.672-1.14 0-.766-.563-1.094-1.156-1.329C1.594-2.797.875-3.062.875-3.656c0-.406.36-.813.781-.813.703 0 .922.453 1.063.922.078.016.172 0 .234-.047a11 11 0 0 0-.125-.922m0 0"/><path id="G" d="M3.938.016c.046-.407.109-.828.203-1.203-.047 0-.141-.032-.22-.032-.233.516-.405.907-1.187.922L1.36-.266c-.125 0-.187-.046-.187-.109 0-.031.016-.078.062-.14.516-.766 1.829-2.626 2.688-3.72.14-.187.172-.234.172-.312 0-.047-.047-.078-.094-.078-.094 0-.312.016-.531.016H1.89c-.344 0-1.032-.047-1.297-.063-.031.39-.094.797-.156 1.094.078.015.14.031.218.031.14-.5.422-.75.953-.765l1.516-.032c.031 0 .063.032.063.078a.25.25 0 0 1-.047.125C2.438-3.266 1.078-1.359.344-.266a.3.3 0 0 0-.047.157c0 .078.031.109.125.109h2.61c.202 0 .906.016.906.016m0 0"/><clipPath id="a"><path d="M.21 0H30v29H.21Zm0 0"/></clipPath><clipPath id="f"><path d="M61 175h14v1.18H61Zm0 0"/></clipPath><clipPath id="g"><path d="M92 175h13v1.18H92Zm0 0"/></clipPath></defs><path fill="none" stroke="#000" stroke-miterlimit="10" stroke-width=".39807432000000004" d="M9.48 52.438h6.196m0 0h6.195M9.281 52.438V.395"/><g clip-path="url(#a)"><path fill="none" stroke="#000" stroke-miterlimit="10" stroke-width=".7951509600000001" d="M9.281.395h8.676L9.281 17.742.61.395h8.672"/></g><path d="M17.664 52.438v1.976l4.207-1.977-4.207-1.98Zm0 0"/><path fill="none" stroke="#000" stroke-miterlimit="10" stroke-width=".7951509600000001" d="M21.871 40.293h24.285v24.285H21.871Zm0 0"/><path fill="none" stroke="#000" stroke-miterlimit="10" stroke-width=".39807432000000004" d="M27.941 46.363c.993-1.554 1.938-3.035 3.036-3.035 1.101 0 2.046 1.48 3.035 3.035.992 1.555 1.937 3.035 3.039 3.035 1.097 0 2.043-1.48 3.035-3.035m-4.25-1.82-3.645 3.644M27.941 52.438c.993-1.555 1.938-3.04 3.036-3.04 1.101 0 2.046 1.485 3.035 3.04.992 1.55 1.937 3.035 3.039 3.035 1.097 0 2.043-1.485 3.035-3.035M27.941 58.508c.993-1.555 1.938-3.035 3.036-3.035 1.101 0 2.046 1.48 3.035 3.035.992 1.555 1.937 3.035 3.039 3.035 1.097 0 2.043-1.48 3.035-3.035m-4.25-1.82-3.645 3.64M46.156 52.438h25.028m24.285 0H120.5"/><path fill="none" stroke="#000" stroke-miterlimit="10" stroke-width=".7951509600000001" d="M71.184 40.293h24.285v24.285H71.184Zm0 0"/><path d="M66.977 52.438v1.976l4.207-1.977-4.207-1.98Zm0 0"/><path fill="none" stroke="#000" stroke-miterlimit="10" stroke-width=".39807432000000004" d="m74.828 43.086 17 9.352-17 9.347Zm0 0"/><path fill="none" stroke="#000" stroke-miterlimit="10" stroke-width=".7951509600000001" d="M120.5 40.293h24.285v24.285H120.5Zm0 0"/><path fill="none" stroke="#000" stroke-miterlimit="10" stroke-width=".39807432000000004" d="M141.14 52.438c0-4.696-3.804-8.5-8.5-8.5a8.5 8.5 0 0 0-8.5 8.5c0 4.69 3.805 8.5 8.5 8.5s8.5-3.81 8.5-8.5ZM126.629 46.426l12.023 12.02m0-12.02-12.023 12.02M144.785 52.438h25.028m24.285 0h25.027"/><path fill="none" stroke="#000" stroke-miterlimit="10" stroke-width=".7951509600000001" d="M169.813 40.293h24.285v24.285h-24.285Zm0 0"/><path d="M165.605 52.438v1.976l4.208-1.977-4.208-1.98Zm0 0"/><path fill="none" stroke="#000" stroke-miterlimit="10" stroke-width=".39807432000000004" d="M175.883 46.363c.992-1.554 1.937-3.035 3.035-3.035 1.102 0 2.047 1.48 3.035 3.035.992 1.555 1.938 3.035 3.04 3.035 1.097 0 2.042-1.48 3.034-3.035m-4.25-1.82-3.644 3.644M175.883 52.438c.992-1.555 1.937-3.04 3.035-3.04 1.102 0 2.047 1.485 3.035 3.04.992 1.55 1.938 3.035 3.04 3.035 1.097 0 2.042-1.485 3.034-3.035M175.883 58.508c.992-1.555 1.937-3.035 3.035-3.035 1.102 0 2.047 1.48 3.035 3.035.992 1.555 1.938 3.035 3.04 3.035 1.097 0 2.042-1.48 3.034-3.035m-4.25-1.82-3.644 3.64"/><path fill="#FFF" stroke="#000" stroke-miterlimit="10" stroke-width=".39807432000000004" d="M220.71 52.438a1.584 1.584 0 1 0-3.168-.004 1.584 1.584 0 0 0 3.169.004Zm0 0"/><use xlink:href="#b" x="213.653" y="49.256"/><use xlink:href="#c" x="219.244" y="49.256"/><path fill="none" stroke="#000" stroke-miterlimit="10" stroke-width=".39807432000000004" d="M132.64 64.578v12.39m0 0V89.36"/><path d="M132.64 68.785h1.981l-1.98-4.207-1.98 4.207Zm0 0"/><path fill="none" stroke="#000" stroke-miterlimit="10" stroke-width=".7951509600000001" d="M120.5 89.36h24.285v24.285H120.5Zm0 0"/><path fill="none" stroke="#000" stroke-miterlimit="10" stroke-width=".39807432000000004" d="m120.5 113.645 24.285-24.286"/><use xlink:href="#d" x="125.69" y="99.267"/><use xlink:href="#e" x="134.382" y="110.141"/><use xlink:href="#d" x="138.855" y="110.141"/><path fill="none" stroke="#000" stroke-miterlimit="10" stroke-width=".7951509600000001" d="M71.184 89.36h24.285v24.285H71.184Zm0 0"/><path fill="none" stroke="#000" stroke-miterlimit="10" stroke-width=".39807432000000004" d="M77.258 95.43c.988-1.555 1.933-3.035 3.035-3.035 1.098 0 2.043 1.48 3.035 3.035.988 1.554 1.938 3.035 3.035 3.035s2.047-1.48 3.035-3.035M77.258 101.5c.988-1.55 1.933-3.035 3.035-3.035 1.098 0 2.043 1.484 3.035 3.035.988 1.555 1.938 3.04 3.035 3.04s2.047-1.485 3.035-3.04M77.258 107.574c.988-1.554 1.933-3.035 3.035-3.035 1.098 0 2.043 1.48 3.035 3.035.988 1.555 1.938 3.035 3.035 3.035s2.047-1.48 3.035-3.035M120.5 101.5h-12.516m0 0H95.47"/><path d="M116.293 101.5v1.98l4.207-1.98-4.207-1.977Zm0 0"/><path fill="none" stroke="#000" stroke-miterlimit="10" stroke-width=".39807432000000004" d="M92.234 147.297v-9.254m-17.816 9.254v-9.254m8.91-24.398v9.253"/><path fill="#FFF" stroke="#000" stroke-miterlimit="10" stroke-width=".39807432000000004" d="M92.234 139.629a1.584 1.584 0 1 0 .004-3.168 1.584 1.584 0 0 0-.004 3.168ZM74.418 139.629a1.584 1.584 0 1 0 .004-3.168 1.584 1.584 0 0 0-.004 3.168ZM83.328 124.484a1.584 1.584 0 1 0-.003-3.167 1.584 1.584 0 0 0 .003 3.167Zm0 0"/><path fill="none" stroke="#000" stroke-miterlimit="10" stroke-width=".7951509600000001" d="m83.328 124.484 6.879 13.114"/><path fill="none" stroke="#000" stroke-miterlimit="10" stroke-width=".39807432000000004" d="m74.418 147.297-3.098 3.098m0 0-3.097 3.097v2.238m0 7.918v2.235"/><path fill="none" stroke="#000" stroke-miterlimit="10" stroke-width=".7951509600000001" d="M75.152 155.73H61.293m13.86 7.918h-13.86M61.691 162.066v-4.753h13.067v4.753Zm0 0"/><path fill="none" stroke="#000" stroke-miterlimit="10" stroke-width=".39807432000000004" d="M68.223 165.883v9.898"/><g clip-path="url(#f)"><path fill="none" stroke="#000" stroke-linecap="round" stroke-miterlimit="10" stroke-width=".7951509600000001" d="M62.285 175.781h11.88"/></g><path fill="none" stroke="#000" stroke-miterlimit="10" stroke-width=".39807432000000004" d="m92.234 147.297 3.098 3.098m0 0 3.098 3.097v2.238m0 7.918v2.235"/><path fill="none" stroke="#000" stroke-miterlimit="10" stroke-width=".7951509600000001" d="M105.36 155.73H91.503m13.855 7.918H91.504M91.898 162.066v-4.753h13.067v4.753Zm0 0"/><path fill="none" stroke="#000" stroke-miterlimit="10" stroke-width=".39807432000000004" d="M98.43 165.883v9.898"/><g clip-path="url(#g)"><path fill="none" stroke="#000" stroke-linecap="round" stroke-miterlimit="10" stroke-width=".7951509600000001" d="M92.492 175.781h11.88"/></g><use xlink:href="#h" x="19.921" y="37.006"/><use xlink:href="#i" x="24.394" y="37.006"/><use xlink:href="#j" x="27.659" y="37.006"/><use xlink:href="#k" x="32.445" y="37.006"/><use xlink:href="#l" x="34.941" y="37.006"/><use xlink:href="#m" x="37.437" y="37.006"/><use xlink:href="#n" x="40.478" y="37.006"/><use xlink:href="#o" x="44.647" y="37.006"/><use xlink:href="#p" x="7.577" y="73.931"/><use xlink:href="#q" x="12.05" y="73.931"/><use xlink:href="#r" x="16.523" y="73.931"/><use xlink:href="#s" x="22.48" y="73.931"/><use xlink:href="#p" x="26.953" y="73.931"/><use xlink:href="#q" x="31.426" y="73.931"/><use xlink:href="#p" x="35.899" y="73.931"/><use xlink:href="#t" x="41.865" y="73.931"/><use xlink:href="#u" x="49.746" y="73.931"/><use xlink:href="#v" x="56.509" y="73.931"/><use xlink:href="#u" x="77.552" y="37.114"/><use xlink:href="#j" x="84.315" y="37.114"/><use xlink:href="#w" x="55.883" y="104.588"/><use xlink:href="#x" x="61.456" y="104.588"/><use xlink:href="#t" x="117.312" y="37.006"/><use xlink:href="#k" x="125.193" y="37.006"/><use xlink:href="#y" x="127.689" y="37.006"/><use xlink:href="#z" x="131.15" y="37.006"/><use xlink:href="#A" x="135.176" y="37.006"/><use xlink:href="#n" x="140.346" y="37.006"/><use xlink:href="#o" x="144.515" y="37.006"/><use xlink:href="#B" x="167.86" y="37.006"/><use xlink:href="#i" x="172.333" y="37.006"/><use xlink:href="#j" x="175.598" y="37.006"/><use xlink:href="#k" x="180.384" y="37.006"/><use xlink:href="#l" x="182.88" y="37.006"/><use xlink:href="#m" x="185.375" y="37.006"/><use xlink:href="#n" x="188.417" y="37.006"/><use xlink:href="#o" x="192.586" y="37.006"/><use xlink:href="#B" x="159.989" y="73.931"/><use xlink:href="#C" x="164.462" y="73.931"/><use xlink:href="#s" x="170.42" y="73.931"/><use xlink:href="#q" x="174.893" y="73.931"/><use xlink:href="#r" x="179.365" y="73.931"/><use xlink:href="#t" x="185.332" y="73.931"/><use xlink:href="#u" x="193.213" y="73.931"/><use xlink:href="#v" x="199.976" y="73.931"/><use xlink:href="#D" x="112.491" y="79.026"/><use xlink:href="#E" x="116.257" y="80.905"/><use xlink:href="#F" x="121.281" y="80.905"/><use xlink:href="#G" x="124.752" y="80.905"/></svg>