<svg xmlns="http://www.w3.org/2000/svg" xmlns:xlink="http://www.w3.org/1999/xlink" width="219.514" height="44.451"><defs><clipPath id="c"><path d="M34 0h58v43.91H34Zm0 0"/></clipPath><clipPath id="d"><path d="M60 0h15v43.91H60Zm0 0"/></clipPath><clipPath id="e"><path d="M171 0h46.934v43.91H171Zm0 0"/></clipPath><clipPath id="f"><path d="M197 0h15v43.91h-15Zm0 0"/></clipPath><path id="a" d="M2.016-.562V-4.97l-1.328.266a1 1 0 0 1-.016-.188q-.001-.198.203-.28l1.469-.595h.437v5.204l1.078.156Q4-.373 4-.296c0 .054-.04.151-.11.296H.86a.16.16 0 0 1-.016-.078q-.002-.311.297-.36Zm0 0"/><path id="b" d="m.422-.453 1.484-1.703q.89-1.013.89-1.985-.002-1.249-.905-1.25-.345 0-.703.188a3.7 3.7 0 0 0-.11.875q-.11.017-.203.016-.438.002-.437-.36 0-.528.421-.86c.282-.218.664-.327 1.157-.327q.715 0 1.156.406.451.409.453 1.14 0 .692-.422 1.36-.27.422-.89 1.11l-.97 1.062v.015h2l.188-.78a.5.5 0 0 1 .188-.032q.218.002.219.344Q3.937-.89 3.859 0H.5Zm0 0"/></defs><use xlink:href="#a" x="4.051" y="24.833"/><use xlink:href="#b" x="141.03" y="24.887"/><g clip-path="url(#c)"><path fill="none" stroke="#000" stroke-miterlimit="10" stroke-width=".7872766000000001" d="M80.562 21.953c0-9.558-7.75-17.308-17.308-17.308-9.563 0-17.313 7.75-17.313 17.308 0 9.563 7.75 17.313 17.313 17.313 9.558 0 17.308-7.75 17.308-17.313Zm0 0"/></g><g clip-path="url(#d)"><path fill="none" stroke="#000" stroke-miterlimit="10" stroke-width=".39413220000000004" d="M74.754.195V14.41H61.035m0 15.09h13.719v14.21"/></g><path fill="none" stroke="#000" stroke-miterlimit="10" stroke-width=".7872766000000001" d="M61.035 11.176v21.558"/><path fill="none" stroke="#000" stroke-miterlimit="10" stroke-width=".39413220000000004" d="M47.316 29.5h13.72m-13.72 0"/><path d="M53.637 29.5v-2.258l5.047 2.258-5.047 2.262Zm0 0"/><g clip-path="url(#e)"><path fill="none" stroke="#000" stroke-miterlimit="10" stroke-width=".7872766000000001" d="M217.543 21.953c0 9.563-7.75 17.313-17.309 17.313-9.562 0-17.312-7.75-17.312-17.313 0-9.558 7.75-17.308 17.312-17.308 9.559 0 17.309 7.75 17.309 17.308Zm0 0"/></g><g clip-path="url(#f)"><path fill="none" stroke="#000" stroke-miterlimit="10" stroke-width=".39413220000000004" d="M211.734 43.71V29.5h-13.718m0-15.09h13.718V.195"/></g><path fill="none" stroke="#000" stroke-miterlimit="10" stroke-width=".7872766000000001" d="M198.016 32.734V11.176"/><path fill="none" stroke="#000" stroke-miterlimit="10" stroke-width=".39413220000000004" d="M198.016 29.5h-13.72m0 0"/><path d="M194.438 29.5v-2.258L189.39 29.5l5.047 2.262Zm0 0"/><path fill="none" stroke="#000" stroke-miterlimit="10" stroke-width=".39413220000000004" d="M47.316 29.5H33.617M184.297 29.5h-13.7"/></svg>