<svg xmlns="http://www.w3.org/2000/svg" xmlns:xlink="http://www.w3.org/1999/xlink" width="234.888" height="280.69"><defs><path id="c" d="M-1.094-5.531h-3.593c-.735 0-.782-.157-.813-.782-.047-.046-.234-.046-.297 0 .016.375.016.829.016 1.172 0 .329 0 .75-.016 1.141.063.063.25.063.297 0 .031-.625.078-.766.813-.766h1.437v3.063h-1.437c-.735 0-.782-.156-.813-.781-.047-.063-.234-.063-.297 0 .016.328.016.703.016 1.156s0 .812-.016 1.156c.063.063.25.063.297 0 .031-.625.078-.781.813-.781h3.593c.75 0 .797.156.813.781.062.063.25.063.297 0C.016-.562 0-1 0-1.328s.016-.766.016-1.156c-.047-.063-.235-.063-.297 0-.016.625-.063.78-.813.78h-1.781v-3.062h1.781c.75 0 .797.141.813.766.062.063.25.063.297 0C.016-4.39 0-4.828 0-5.156s.016-.766.016-1.157c-.047-.046-.235-.046-.297 0-.016.625-.063.782-.813.782m0 0"/><path id="d" d="M-2.89-2.531c0-.766.203-.797.609-.813.047-.062.047-.25 0-.297-.219 0-.485.016-.797.016-.297 0-.531-.016-.766-.016-.047.047-.047.235 0 .297.5.016.61.047.61.813v.828h-1.61c-.484 0-.578-.11-.578-.5v-.406c0-.938.36-1.172.984-1.36a.7.7 0 0 0-.046-.281c-.375.047-1.235.172-1.297.188-.016 0-.032.015-.032.046.032.141.032.188.032.422v2.282c0 .28 0 .796-.016 1.156.063.047.25.047.297 0 .031-.625.078-.781.813-.781h3.593c.75 0 .797.156.813.78.062.048.25.048.297 0C.016-.468 0-.921 0-1.327s.016-.844.016-1.156c-.047-.047-.235-.047-.297 0-.016.625-.063.78-.813.78H-2.89Zm0 0"/><path id="e" d="M-2.36-4.781c-1.484 0-2.359 1.031-2.359 2.312 0 1.39 1.11 2.203 2.5 2.203 1.406 0 2.297-1.03 2.297-2.25 0-.796-.344-1.421-.906-1.812-.406-.297-.922-.453-1.531-.453m-2.093 2.406c0-.953.781-1.719 2.234-1.719 1.281 0 2.031.625 2.031 1.438 0 .875-.78 1.703-2.156 1.703-1.5 0-2.11-.703-2.11-1.422m0 0"/><path id="f" d="M-3.75-1.234c-.594 0-.625-.11-.656-.657-.047-.046-.188-.046-.235 0 0 .329.016.688.016.97 0 .28-.016.577-.016.843.047.047.188.047.235 0 .031-.422.062-.547.656-.547h2.078c1.469 0 1.75-.953 1.75-1.672 0-1.469-.922-1.828-2.187-1.828H-3.75c-.578 0-.61-.125-.656-.547-.047-.047-.188-.047-.235 0 0 .266.016.563.016.734 0 .141-.016.5-.016.829.047.046.188.046.235 0 .047-.547.078-.657.656-.657h1.766c.797 0 1.765.094 1.765 1.313 0 .344-.125.64-.343.86-.329.343-.875.359-1.344.359Zm0 0"/><path id="g" d="M-.875-2.516h-2.734c-.47 0-.735-.062-.735-.328V-3c0-.531.188-.875.735-1 0-.078 0-.172-.032-.234-.328.046-.703.078-1.015.093-.016 0-.032.016-.032.016.032.25.063 1.047.063 1.61v.609c0 .562-.031 1.406-.062 1.672 0 .015.015.03.03.03.313.032.688.11 1.032.188a.7.7 0 0 0 .047-.25c-.578-.14-.766-.468-.766-.953v-.343c0-.266.266-.344.703-.344h2.766c.594 0 .625.125.656.703.047.047.188.047.235 0C0-1.563 0-1.922 0-2.203s0-.64.016-1c-.047-.047-.188-.047-.235 0-.031.578-.062.687-.656.687m0 0"/><path id="r" d="M-.875-1.375H-3.75c-.594 0-.625-.11-.656-.625-.047-.031-.188-.031-.235 0 0 .328.016.656.016.938 0 .234-.016.593-.016.921.047.047.188.047.235 0 .031-.5.062-.625.656-.625h2.875c.594 0 .625.125.656.625.047.047.188.047.235 0C0-.453 0-.812 0-1.062c0-.266 0-.61.016-.938-.047-.031-.188-.031-.235 0-.031.516-.062.625-.656.625m0 0"/><path id="s" d="M-3.672-3.984h2.344c.14 0 .219 0 .219.046 0 .032-.125.141-.391.344L-4.625-1.14l-.016.97c.047.046.188.046.235 0a.69.69 0 0 1 .468-.563h2.985c.64 0 .687.125.734.625.047.047.188.047.235 0C0-.422 0-.734 0-.906s0-.5.016-.797c-.047-.047-.188-.047-.235 0-.047.5-.078.625-.734.625h-2.203c-.235 0-.344 0-.344-.063 0-.046.078-.125.234-.25l3.172-2.5c.094-.078.172-.171.172-.28s-.094-.173-.234-.173h-3.516c-.64 0-.687-.11-.734-.625-.047-.031-.188-.031-.235 0 0 .297.016.64.016.813 0 .14-.016.484-.016.797.047.03.188.03.235 0 .047-.5.078-.625.734-.625m0 0"/><path id="h" d="M2.203-6.172a.2.2 0 0 1 .016.078q-.001.236-.313.313l-.328.062 1.188 2h.015l1.266-2.015-.594-.079c-.086-.007-.125-.046-.125-.109q0-.075.094-.25h1.797c.008.024.015.047.015.078q0 .253-.312.313l-.297.062-1.547 2.453L4.766-.469l.422.11q.124.034.125.093c0 .032-.04.121-.11.266h-1.89a.16.16 0 0 1-.016-.078c0-.176.101-.285.312-.328l.282-.047-1.282-2.14h-.015L1.266-.454l.562.094q.124.017.125.093A.6.6 0 0 1 1.86 0H.047v-.078q0-.264.297-.328l.25-.063 1.687-2.61-1.61-2.624-.437-.11C.148-5.831.11-5.866.11-5.921q0-.075.11-.25Zm0 0"/><path id="i" d="M2.484-3.031h1.563v.469H2.484v1.671h-.5v-1.671H.438v-.47h1.546v-1.655h.5Zm0 0"/><path id="j" d="M1.125-5.812h2.563l-.047.765H1.53l-.11 1.422q1.297.048 1.876.547c.363.305.547.765.547 1.39a1.7 1.7 0 0 1-.547 1.266q-.534.533-1.39.531Q1.185.108.827-.156a.61.61 0 0 1-.281-.516q0-.405.39-.547.17.376.297.5.295.328.829.328.527 0 .843-.328.296-.311.297-.828 0-.731-.562-1.047c-.375-.219-.977-.328-1.797-.328Zm0 0"/><path id="k" d="M2.234-.39q1.11.001 1.11-2.516 0-2.515-1.11-2.516-1.094.001-1.093 2.516c0 1.68.363 2.515 1.093 2.515m-.03.5q-.88 0-1.376-.75Q.296-1.42.297-2.907.296-4.39.875-5.187q.516-.734 1.406-.735.873.001 1.375.734.516.798.516 2.282 0 1.47-.563 2.265-.515.75-1.406.75m0 0"/><path id="l" d="M5.844-6.172c.008.024.015.047.015.078q0 .253-.312.313l-.234.062L3.28 0h-.734L.453-5.719l-.375-.093q-.124-.029-.125-.11c0-.05.035-.133.094-.25h2v.078c0 .157-.102.262-.297.313l-.375.078 1.64 4.797h.016L4.734-5.72l-.687-.11q-.127-.029-.125-.093 0-.075.094-.25Zm0 0"/><path id="m" d="M2.672.047c.11.11.344.11.453 0V-2.11h2.14a.33.33 0 0 0 0-.438h-2.14v-2.156c-.11-.11-.344-.11-.453 0v2.156H.532a.33.33 0 0 0 0 .438h2.14Zm0 0"/><path id="n" d="M2.86-1.687c0 .843-.454 1.468-.985 1.468-.344 0-.453-.218-.594-.406-.125-.14-.265-.281-.453-.281-.172 0-.344.156-.344.328 0 .375.766.672 1.266.672 1.11 0 1.906-.813 1.906-1.953 0-.86-.61-1.641-1.61-1.641-.374 0-.718.078-.874.14l.187-1.5c.329.048.61.094 1.047.094.266 0 .563-.03.938-.062l.14-.61-.062-.03c-.516.046-1 .093-1.469.093-.328 0-.656-.016-.969-.047L.688-2.844a3.1 3.1 0 0 1 1.125-.203c.593 0 1.046.375 1.046 1.36m0 0"/><path id="o" d="M4.016-5.5c.656.047.656.297.468.766L3.078-1.141h-.047L1.61-4.78c-.218-.532-.156-.657.454-.719.046-.047.046-.234 0-.297-.36.016-.766.016-1.094.016-.313 0-.625 0-.922-.016-.063.063-.047.25 0 .297.5.047.578.203.812.813L2.625-.095c.047.14.11.203.203.203s.156-.078.219-.203L4.89-4.672c.172-.406.312-.766.89-.828.047-.047.047-.234 0-.297-.281.016-.593.016-.797.016-.203 0-.609 0-.968-.016-.063.063-.063.25 0 .297m0 0"/><path id="E" d="M1.828.094c1.766 0 2.375-1.14 2.688-2.735L5-5.109c.047-.25.188-.375.547-.407l.234-.015c.032 0 .063-.032.078-.078l.032-.172-.016-.016c-.406.016-.75.016-.953.016-.188 0-.531 0-.938-.016l-.015.016-.031.172c-.016.046.015.078.046.078l.235.015c.281.016.406.094.406.282 0 .046-.016.093-.016.125l-.515 2.625c-.203 1-.563 2.203-2.016 2.203-.406 0-.719-.188-.937-.438C.953-.969.906-1.25.906-1.53s.047-.594.11-.875l.53-2.719c.048-.25.188-.36.548-.39l.219-.016c.046 0 .078-.032.093-.078l.031-.172-.015-.016c-.406.016-.766.016-1.11.016-.343 0-.671 0-1.078-.016l-.03.016-.032.172c0 .046.031.078.062.078l.22.015c.28.016.421.094.421.282 0 .03-.016.062-.031.109L.266-2.109a3 3 0 0 0-.063.625c0 1.28.953 1.578 1.625 1.578m0 0"/><path id="t" d="M3.484-5.937c.313 0 .75.406.75 1.328 0 .265-.03.562-.109.906-.86 0-1.234-.188-1.406-.39a1.05 1.05 0 0 1-.281-.72c0-.312.156-1.125 1.046-1.125M1.86-4.687c0 .28.079.515.266.78.281.376.797.548 1.938.548-.25 1.03-.954 3.187-1.766 3.187-.422 0-.656-.203-.656-.672 0-.156.03-.328.062-.531l.344-1.469h-.125c-.188 0-.297.203-1.14.328l-.016.266c.14-.031.25-.047.359-.047.078 0 .125.031.125.156 0 .047-.016.141-.047.25l-.125.532c-.047.203-.062.39-.062.562 0 .625.359.906 1.109.906 1.234 0 2.078-1.484 2.531-3.468.172 0 .297.062.36.125.093-.11.172-.25.297-.36-.11-.094-.266-.11-.563-.11.063-.265.094-.546.094-.796 0-.922-.407-1.75-1.469-1.75-.61 0-1.516.438-1.516 1.563m0 0"/><path id="u" d="M-.328-.734h-3.469l-.094.375q-.012.08-.062.078a.5.5 0 0 1-.172-.063V-3.03a9 9 0 0 1 .703-.047c.18 0 .266.058.266.172a.4.4 0 0 1-.016.125l-.625.156v1.375h1.547v-1.328h.328v1.328h1.578v-1.422l-.64-.156a.3.3 0 0 1-.032-.14c0-.102.086-.157.25-.157q.237.002.766.063v2.78h-.047q-.17.001-.219-.202Zm0 0"/><path id="v" d="M-.312-.61h-2.22l-.062.438h-.047c-.113 0-.175-.07-.187-.219l-.078-.703h2.594l.078-.36q.018-.076.078-.077.08.002.156.062v1.266h-.047q-.123 0-.187-.188Zm-3.579.11a.34.34 0 0 1-.25-.094.35.35 0 0 1-.109-.25c0-.101.04-.187.11-.25a.34.34 0 0 1 .25-.093q.14 0 .234.093a.34.34 0 0 1 .094.25q0 .143-.094.25a.32.32 0 0 1-.235.094m0 0"/><path id="w" d="M-.312-.61h-2.22l-.062.438h-.047c-.113 0-.175-.07-.187-.219l-.078-.703.406.032v-.016a1.8 1.8 0 0 1-.281-.344 1.26 1.26 0 0 1-.156-.64q0-.436.28-.672.283-.248.782-.25h1.563l.078-.36q.018-.076.078-.078c.054 0 .105.024.156.063v1.265h-.047q-.123 0-.187-.187L-.312-2.5h-1.532q-.358.002-.547.203a.68.68 0 0 0-.14.438q0 .439.281.765h1.938l.078-.36q.018-.076.078-.077.08.002.156.062v1.266h-.047q-.123 0-.187-.188Zm0 0"/><path id="x" d="M-1.984-.328a.9.9 0 0 1-.72-.328q-.233-.31-.233-.766 0-.232.078-.453v-1.016l.312.063v.5a.92.92 0 0 1 .563-.188c.304 0 .543.118.718.344q.251.3.25.781c0 .094-.004.196-.015.297q.094.188.265.188.222 0 .22-.328v-.672q0-.387.171-.61a.57.57 0 0 1 .484-.234q.47.001.797.406.36.439.36 1.14C1.266-.491 1.03-.14.563-.14q-.515.002-.72-.546-.123.234-.405.234c-.22 0-.399-.133-.547-.406q-.247.531-.875.53m.672-1.094c0-.414-.223-.625-.672-.625q-.31.001-.47.172a.62.62 0 0 0-.171.453q.001.61.64.61.674 0 .673-.61m1.234.266q.001.129-.016.234.154.298.5.297c.352 0 .532-.219.532-.656 0-.313-.063-.555-.188-.735q-.174-.248-.453-.25-.375.002-.375.485Zm0 0"/><path id="y" d="M-1.86-1.781q-.388.001-.577.125-.188.111-.188.406.002.19.063.344.156.081.53.14v.125q.002.299-.25.297c-.175 0-.327-.101-.452-.312a1.25 1.25 0 0 1-.203-.688q.001-.92 1.015-.922h1.297q.345.001.344-.203c0-.094-.024-.164-.078-.219a.34.34 0 0 1 .172-.046c.042 0 .09.039.14.109.059.094.094.21.094.344q.002.421-.406.469v.015q.438.284.437.813-.002.346-.203.547a.78.78 0 0 1-.562.203q-.437 0-.672-.438-.201-.374-.203-.953v-.156Zm1.563.593c0-.218-.101-.414-.312-.593h-.688v.156c.055.586.234.875.547.875.305 0 .453-.145.453-.437m0 0"/><path id="z" d="M-.375-.672a.7.7 0 0 0 .125-.437q0-.516-.39-.516-.17.001-.329.172-.076.11-.265.39c-.145.243-.27.407-.375.5a.8.8 0 0 1-.563.235.67.67 0 0 1-.562-.266q-.201-.265-.203-.687.002-.388.203-.64.235-.015.359-.016.298.001.297.218v.063l-.422.062a.8.8 0 0 0-.125.407q.002.438.344.437.234.001.469-.344.205-.31.406-.625.268-.328.625-.328.376 0 .625.281.234.268.234.72 0 .437-.172.718a3 3 0 0 1-.484.047c-.195 0-.297-.07-.297-.219 0-.02.008-.035.016-.047Zm0 0"/><path id="A" d="M-1.64-1.969v1.61H-2v-1.61Zm0 0"/><path id="B" d="M.89-.578H-2.53l-.063.437a.1.1 0 0 1-.047.016q-.17 0-.187-.234l-.078-.703.406.046v-.015q-.436-.358-.437-.89 0-.516.374-.813.362-.296 1.016-.297.785 0 1.188.406.39.375.39 1.063 0 .252-.078.5h.938l.078-.36q.014-.077.062-.078.094.002.157.063v1.265h-.032c-.093 0-.164-.062-.203-.187Zm-3.437-1.156q0 .39.281.672h1.782a.87.87 0 0 0 .187-.563q0-.904-1.219-.906-.497 0-.765.219-.265.204-.266.578m0 0"/><path id="C" d="m-2.531-.531-.063.437a.1.1 0 0 1-.047.016c-.113 0-.175-.07-.187-.219l-.078-.719h1.875c.468 0 .703-.195.703-.593q0-.452-.297-.735h-1.906l-.063.438h-.047c-.113 0-.175-.07-.187-.219l-.078-.703h2.578l.062-.438h.047q.176.001.188.22l.062.671h-.39q.438.362.437.906Q.078-.53-1-.53Zm0 0"/><path id="D" d="m-.328-3-1.094.39v1.485l1.094.39.078-.452q.02-.078.078-.079c.031 0 .09.024.172.063v1.25Q-.03.06-.047.063q-.187 0-.234-.204l-.031-.171-3.813-1.454-.047-.375 3.86-1.421.062-.266q.033-.094.078-.094.019 0 .172.078v1.266a.1.1 0 0 1-.047.015q-.17.001-.219-.203Zm-1.406 1.766V-2.5l-1.75.625Zm0 0"/><path id="F" d="M1.063-4.625c-.266 0-.641-.016-.922-.016-.047.047-.047.188 0 .235.5.031.625.062.625.656v2.875c0 .594-.125.625-.625.656-.047.047-.047.188 0 .235C.42 0 .797 0 1.063 0c.265 0 .453.016 1.046.016 1.438 0 1.813-.72 1.813-1.328 0-.704-.485-1.094-1.11-1.266v-.016c.36-.187.688-.562.688-.937 0-.485-.203-1.11-1.547-1.11-.25 0-.64.016-.89.016m.312 2.25h.484c.985 0 1.391.547 1.391 1.188 0 .53-.187.968-1.281.968-.5 0-.594-.187-.594-.625Zm0-1.562c0-.391 0-.454.625-.454.39 0 .922.204.922.938 0 .61-.422.828-1.016.828h-.531Zm0 0"/><path id="G" d="M1.375-.875V-3.75c0-.594.11-.625.625-.656.031-.047.031-.188 0-.235-.328 0-.656.016-.937.016-.235 0-.594-.016-.922-.016-.047.047-.047.188 0 .235.5.031.625.062.625.656v2.875c0 .594-.125.625-.625.656-.047.047-.047.188 0 .235C.453 0 .813 0 1.063 0c.265 0 .609 0 .937.016.031-.047.031-.188 0-.235-.516-.031-.625-.062-.625-.656m0 0"/><path id="H" d="M1.11-.562 1.5-1.61c.047-.094.078-.125.25-.125h1.516l.422 1.218c.078.25-.188.266-.532.297-.047.047-.047.188 0 .235C3.422 0 3.812 0 4.094 0c.297 0 .562 0 .812.016.047-.047.047-.188 0-.235-.265-.031-.515-.047-.64-.39l-1.47-4.11c-.108.063-.312.14-.405.14L.766-.733C.578-.281.359-.25.046-.22 0-.172 0-.03.047.016.235 0 .47 0 .689 0c.296 0 .656 0 .921.016.047-.047.047-.188 0-.235C1.33-.25 1-.266 1.11-.562m.78-1.47c-.156 0-.218-.015-.187-.093l.734-1.86h.047l.672 1.954Zm0 0"/><path id="I" d="M2.828-4.531c-.406-.047-.39-.188-1.094-.188C1-4.719.36-4.234.36-3.484c0 .765.625 1.109 1.266 1.343.422.172.953.375.953 1.079 0 .578-.312.875-.89.875C1.015-.187.593-.5.438-1.203a.34.34 0 0 0-.25.016c.03.562.062.75.156 1.093.437 0 .64.172 1.281.172.328 0 .64-.078.89-.25.407-.25.672-.687.672-1.14 0-.766-.578-1.11-1.171-1.329C1.594-2.797.875-3.062.875-3.67c0-.407.36-.798.781-.798.703 0 .922.438 1.063.907a.35.35 0 0 0 .25-.032 8 8 0 0 0-.14-.937m0 0"/><clipPath id="a"><path d="M218.852 143.945h15.851v6.344h-15.851Zm9.511 6.344h6.34v3.168h-6.34Zm-9.511 3.168h15.851v6.344h-15.851Zm0 0"/></clipPath><clipPath id="b"><path d="M213 139h21.703v26H213Zm0 0"/></clipPath><clipPath id="p"><path d="M.074 143.945h15.852v6.344H.074Zm0 6.344h6.34v3.168H.074Zm0 3.168h15.852v6.344H.074Zm0 0"/></clipPath><clipPath id="q"><path d="M.074 139H21v26H.074Zm0 0"/></clipPath></defs><path fill="none" stroke="#000" stroke-miterlimit="10" stroke-width=".7961233000000001" d="M21.293 188.445h26.125v-73.144H21.293Zm0 0"/><path fill="none" stroke="#000" stroke-miterlimit="10" stroke-width=".3985611" d="M47.418 120.527h30.039m5.227 0h36.199m15.672 0h6.16"/><path fill="none" stroke="#000" stroke-miterlimit="10" stroke-width=".7961233000000001" d="M77.457 112.687v15.676m5.227-15.676v15.676"/><path stroke="#000" stroke-miterlimit="10" stroke-width=".3985611" d="M114.309 120.527a1.585 1.585 0 1 0-3.168 0 1.584 1.584 0 1 0 3.168 0Zm0 0"/><path fill="none" stroke="#000" stroke-miterlimit="10" stroke-width=".7961233000000001" d="M132.988 116.61H120.45c-.867 0-1.566 1.753-1.566 3.917s.699 3.918 1.566 3.918h12.54c.866 0 1.566-1.754 1.566-3.918s-.7-3.918-1.567-3.918"/><path fill="none" stroke="#000" stroke-miterlimit="10" stroke-width=".7961233000000001" d="M132.988 116.61c-.867 0-1.566 1.753-1.566 3.917s.7 3.918 1.566 3.918"/><path fill="none" stroke="#000" stroke-miterlimit="10" stroke-width=".3985611" d="M132.988 120.527h1.567M159 100.93v9.539h-9.145"/><path fill="none" stroke="#000" stroke-miterlimit="10" stroke-width=".7961233000000001" d="M149.855 108.312v3.954m0 1.437v3.59m0 1.437v3.95"/><path fill="none" stroke="#000" stroke-miterlimit="10" stroke-width=".3985611" d="M149.855 115.496h9.344m-9.344 5.031H159v9.535"/><path fill="none" stroke="#000" stroke-miterlimit="10" stroke-width=".7961233000000001" d="M147.664 110.27v10.457"/><path d="M155.445 115.496v2.285l-5.101-2.285 5.101-2.281Zm0 0"/><path fill="none" stroke="#000" stroke-miterlimit="10" stroke-width=".3985611" d="M147.664 120.527h-7.148M159 115.496v14.367"/><path stroke="#000" stroke-miterlimit="10" stroke-width=".3985611" d="M160.11 120.527a1.109 1.109 0 1 0-2.218-.001 1.109 1.109 0 0 0 2.217.001Zm0 0"/><path fill="none" stroke="#000" stroke-miterlimit="10" stroke-width=".3985611" d="M47.418 183.219h30.039m5.227 0h36.199m15.672 0h6.16"/><path fill="none" stroke="#000" stroke-miterlimit="10" stroke-width=".7961233000000001" d="M77.457 175.383v15.676m5.227-15.676v15.676"/><path stroke="#000" stroke-miterlimit="10" stroke-width=".3985611" d="M114.309 183.219c0-.875-.707-1.582-1.586-1.582a1.58 1.58 0 0 0-1.582 1.582c0 .879.707 1.586 1.582 1.586.879 0 1.586-.707 1.586-1.586Zm0 0"/><path fill="none" stroke="#000" stroke-miterlimit="10" stroke-width=".7961233000000001" d="M132.988 179.3H120.45c-.867 0-1.566 1.755-1.566 3.919s.699 3.922 1.566 3.922h12.54c.866 0 1.566-1.758 1.566-3.922s-.7-3.918-1.567-3.918"/><path fill="none" stroke="#000" stroke-miterlimit="10" stroke-width=".7961233000000001" d="M132.988 179.3c-.867 0-1.566 1.755-1.566 3.919s.7 3.922 1.566 3.922"/><path fill="none" stroke="#000" stroke-miterlimit="10" stroke-width=".3985611" d="M132.988 183.219h1.567M159 202.816v-9.539h-9.145"/><path fill="none" stroke="#000" stroke-miterlimit="10" stroke-width=".7961233000000001" d="M149.855 195.434v-3.954m0-1.433v-3.594m0-1.437v-3.95"/><path fill="none" stroke="#000" stroke-miterlimit="10" stroke-width=".3985611" d="M149.855 188.25h9.344m-9.344-5.031H159v-9.535"/><path fill="none" stroke="#000" stroke-miterlimit="10" stroke-width=".7961233000000001" d="M147.664 193.477V183.02"/><path d="M155.445 188.25v-2.285l-5.101 2.285 5.101 2.285Zm0 0"/><path fill="none" stroke="#000" stroke-miterlimit="10" stroke-width=".3985611" d="M147.664 183.219h-7.148M159 188.25v-14.367"/><path stroke="#000" stroke-miterlimit="10" stroke-width=".3985611" d="M160.11 183.219c0 .613-.497 1.113-1.11 1.113a1.112 1.112 0 0 1 0-2.223c.613 0 1.11.5 1.11 1.11Zm0 0"/><path fill="none" stroke="#000" stroke-miterlimit="10" stroke-width=".7961233000000001" d="M187.363 188.445h26.121v-73.144h-26.12Zm0 0"/><path fill="none" stroke="#000" stroke-miterlimit="10" stroke-width=".3985611" d="M159 101.129V91.8m0 0v-9.332h6.719m5.222 0h6.72v38.058h9.702"/><path fill="none" stroke="#000" stroke-miterlimit="10" stroke-width=".7961233000000001" d="M165.719 74.633v15.676m5.222-15.676v15.676"/><path stroke="#000" stroke-miterlimit="10" stroke-width=".3985611" d="M160.586 82.469a1.587 1.587 0 1 0-3.174.002 1.587 1.587 0 0 0 3.174-.002Zm0 0"/><path fill="none" stroke="#000" stroke-miterlimit="10" stroke-width=".3985611" d="M159 202.617v9.328m0 0v9.332h6.719m5.222 0h6.72V183.22h9.702"/><path fill="none" stroke="#000" stroke-miterlimit="10" stroke-width=".7961233000000001" d="M165.719 213.438v15.675m5.222-15.675v15.675"/><path stroke="#000" stroke-miterlimit="10" stroke-width=".3985611" d="M160.586 221.277a1.587 1.587 0 0 0-3.172 0 1.587 1.587 0 0 0 3.172 0Zm0 0"/><path fill="none" stroke="#000" stroke-miterlimit="10" stroke-width=".3985611" d="M213.484 151.875h4.664m0 0h4.668"/><g clip-path="url(#a)"><path fill="none" stroke="#000" stroke-miterlimit="10" stroke-width=".7961233000000001" d="M222.816 151.875a3.962 3.962 0 1 1 7.926 0 3.96 3.96 0 0 1-3.965 3.96 3.96 3.96 0 0 1-3.96-3.96Zm0 0"/></g><g clip-path="url(#b)"><path fill="none" stroke="#000" stroke-miterlimit="10" stroke-width=".7961233000000001" d="M225.191 151.875c0-.879.711-1.586 1.586-1.586a1.585 1.585 0 1 1 0 3.168 1.584 1.584 0 0 1-1.586-1.582Zm0 0"/></g><path fill="none" stroke="#000" stroke-miterlimit="10" stroke-width=".3985611" d="M225.191 151.875h-2.375"/><use xlink:href="#c" x="228.706" y="144.726"/><use xlink:href="#d" x="228.706" y="138.188"/><use xlink:href="#e" x="230.586" y="133.844"/><use xlink:href="#f" x="230.586" y="128.814"/><use xlink:href="#g" x="230.586" y="124.078"/><path fill="none" stroke="#000" stroke-miterlimit="10" stroke-width=".3985611" d="M159 129.863v22.012m0 0v22.008M159 151.875h-4.664m0 0h-4.668"/><path stroke="#000" stroke-miterlimit="10" stroke-width=".3985611" d="M160.586 151.875c0-.879-.711-1.586-1.586-1.586a1.585 1.585 0 1 0 0 3.168c.875 0 1.586-.707 1.586-1.582Zm0 0"/><path fill="none" stroke="#000" stroke-miterlimit="10" stroke-width=".3985611" d="M149.668 151.875v9.91"/><path fill="none" stroke="#000" stroke-linecap="round" stroke-miterlimit="10" stroke-width=".7961233000000001" d="M143.723 161.785h11.894"/><path fill="none" stroke="#000" stroke-miterlimit="10" stroke-width=".3985611" d="M112.723 120.527v28.735m0 5.222v28.735"/><path fill="none" stroke="#000" stroke-miterlimit="10" stroke-width=".7961233000000001" d="M120.563 154.484h-15.676m15.676-5.222h-15.676M104.887 159.71l15.254-15.253"/><path fill="none" stroke="#000" stroke-miterlimit="10" stroke-width=".7960993900000001" d="m118.098 142.137 4.363 4.363"/><path fill="none" stroke="#000" stroke-miterlimit="10" stroke-width=".3985611" d="M112.723 120.527V84.328m0-20.898v-36.2"/><path fill="none" stroke="#000" stroke-linejoin="bevel" stroke-miterlimit="10" stroke-width=".7961233000000001" d="M112.883 84.727c-2.164 0-3.918-1.215-3.918-2.715 0-1.496 1.754-2.711 3.918-2.711-2.164 0-3.918-1.215-3.918-2.711 0-1.5 1.754-2.711 3.918-2.711-2.164 0-3.918-1.215-3.918-2.715 0-1.496 1.754-2.71 3.918-2.71-2.164 0-3.918-1.216-3.918-2.712s1.754-2.71 3.918-2.71"/><path fill="none" stroke="#000" stroke-miterlimit="10" stroke-width=".7961233000000001" d="M102.273 12.86h20.899v7.84h-20.899Zm0 0"/><path fill="none" stroke="#000" stroke-miterlimit="10" stroke-width=".3985611" d="M112.723 27.23v-3.062"/><path stroke="#000" stroke-miterlimit="10" stroke-width=".3985611" d="m112.723 21.098-1.762 2.968h3.523Zm0 0"/><path fill="none" stroke="#000" stroke-dasharray="2.9855422870000003 2.9855422870000003" stroke-miterlimit="10" stroke-width=".3985611" d="M106.816 84.328V63.43"/><path fill="none" stroke="#000" stroke-miterlimit="10" stroke-width=".3985611" d="M123.172 16.781h4.668m0 0h4.664M132.504 16.781v9.91"/><path fill="none" stroke="#000" stroke-linecap="round" stroke-miterlimit="10" stroke-width=".7961233000000001" d="M126.559 26.691h11.89"/><path fill="none" stroke="#000" stroke-miterlimit="10" stroke-width=".3985611" d="M112.723 183.219v26.87m0 20.9v26.87"/><path fill="none" stroke="#000" stroke-linejoin="bevel" stroke-miterlimit="10" stroke-width=".7961233000000001" d="M112.883 209.691c-2.164 0-3.918 1.215-3.918 2.711 0 1.5 1.754 2.715 3.918 2.715-2.164 0-3.918 1.211-3.918 2.711 0 1.496 1.754 2.711 3.918 2.711-2.164 0-3.918 1.215-3.918 2.711 0 1.5 1.754 2.711 3.918 2.711-2.164 0-3.918 1.215-3.918 2.715 0 1.496 1.754 2.71 3.918 2.71"/><path fill="none" stroke="#000" stroke-miterlimit="10" stroke-width=".7961233000000001" d="M102.273 264.39h20.899v7.837h-20.899Zm0 0"/><path fill="none" stroke="#000" stroke-miterlimit="10" stroke-width=".3985611" d="M112.723 257.86v3.062"/><path stroke="#000" stroke-miterlimit="10" stroke-width=".3985611" d="m112.723 263.992 1.761-2.972h-3.523Zm0 0"/><path fill="none" stroke="#000" stroke-dasharray="2.9855422870000003 2.9855422870000003" stroke-miterlimit="10" stroke-width=".3985611" d="M106.816 210.09v20.898"/><path fill="none" stroke="#000" stroke-miterlimit="10" stroke-width=".3985611" d="M123.172 268.309h4.668m0 0h4.664M132.504 268.309v9.91"/><path fill="none" stroke="#000" stroke-linecap="round" stroke-miterlimit="10" stroke-width=".7961233000000001" d="M126.559 278.219h11.89"/><path fill="none" stroke="#000" stroke-miterlimit="10" stroke-width=".3985611" d="M159 82.469V60.266m0-20.899V17.164"/><path fill="none" stroke="#000" stroke-linejoin="bevel" stroke-miterlimit="10" stroke-width=".7961233000000001" d="M159.16 60.664c-2.164 0-3.918-1.215-3.918-2.71 0-1.5 1.754-2.716 3.918-2.716-2.164 0-3.918-1.21-3.918-2.71 0-1.497 1.754-2.712 3.918-2.712-2.164 0-3.918-1.214-3.918-2.71 0-1.5 1.754-2.715 3.918-2.715-2.164 0-3.918-1.211-3.918-2.711 0-1.496 1.754-2.711 3.918-2.711"/><path fill="#FFF" stroke="#000" stroke-miterlimit="10" stroke-width=".3985611" d="M160.586 17.164c0-.879-.711-1.586-1.586-1.586a1.585 1.585 0 1 0 0 3.168c.875 0 1.586-.707 1.586-1.582Zm0 0"/><use xlink:href="#h" x="162.047" y="51.967"/><use xlink:href="#i" x="148.633" y="13.873"/><use xlink:href="#j" x="153.111" y="13.873"/><use xlink:href="#k" x="157.589" y="13.873"/><use xlink:href="#l" x="163.554" y="13.873"/><path fill="none" stroke="#000" stroke-dasharray="2.9855422870000003 2.9855422870000003" stroke-miterlimit="10" stroke-width=".3985611" d="M153.09 60.266V39.367"/><path fill="none" stroke="#000" stroke-miterlimit="10" stroke-width=".3985611" d="M159 221.277v12.875m0 20.899v12.875"/><path fill="none" stroke="#000" stroke-linejoin="bevel" stroke-miterlimit="10" stroke-width=".7961233000000001" d="M159.16 233.754c-2.164 0-3.918 1.215-3.918 2.71 0 1.5 1.754 2.712 3.918 2.712-2.164 0-3.918 1.215-3.918 2.715 0 1.496 1.754 2.71 3.918 2.71-2.164 0-3.918 1.215-3.918 2.712 0 1.496 1.754 2.71 3.918 2.71-2.164 0-3.918 1.215-3.918 2.711 0 1.5 1.754 2.715 3.918 2.715"/><path fill="#FFF" stroke="#000" stroke-miterlimit="10" stroke-width=".3985611" d="M160.586 267.926a1.587 1.587 0 0 0-3.172 0 1.587 1.587 0 0 0 3.172 0Zm0 0"/><use xlink:href="#h" x="162.047" y="246.749"/><use xlink:href="#i" x="148.633" y="277.288"/><use xlink:href="#j" x="153.111" y="277.288"/><use xlink:href="#k" x="157.589" y="277.288"/><use xlink:href="#l" x="163.554" y="277.288"/><path fill="none" stroke="#000" stroke-dasharray="2.9855422870000003 2.9855422870000003" stroke-miterlimit="10" stroke-width=".3985611" d="M153.09 234.152v20.899"/><path fill="none" stroke="#000" stroke-miterlimit="10" stroke-width=".3985611" d="M102.273 16.781H97.61m0 0H81.281m0 0H57.957m0 0H38.086m-20.899 0h-8.21"/><path stroke="#000" stroke-miterlimit="10" stroke-width=".3985611" d="M94.531 16.781c0-.879-.71-1.586-1.586-1.586a1.585 1.585 0 1 0 0 3.168c.875 0 1.586-.707 1.586-1.582ZM71.207 16.781c0-.879-.71-1.586-1.586-1.586a1.585 1.585 0 1 0 0 3.168c.875 0 1.586-.707 1.586-1.582ZM47.883 16.781c0-.879-.711-1.586-1.586-1.586a1.585 1.585 0 1 0 0 3.168c.875 0 1.586-.707 1.586-1.582Zm0 0"/><path fill="none" stroke="#000" stroke-miterlimit="10" stroke-width=".7961233000000001" d="M17.187 12.86h20.899v7.84H17.187Zm0 0"/><path fill="#FFF" stroke="#000" stroke-miterlimit="10" stroke-width=".3985611" d="M10.562 16.781c0-.879-.707-1.586-1.585-1.586a1.585 1.585 0 1 0 0 3.168c.878 0 1.585-.707 1.585-1.582Zm0 0"/><use xlink:href="#m" x="12.162" y="8.78"/><use xlink:href="#n" x="17.966" y="8.78"/><use xlink:href="#o" x="23.618" y="8.78"/><path fill="none" stroke="#000" stroke-miterlimit="10" stroke-width=".3985611" d="M21.293 151.875h-4.664m0 0h-4.664"/><g clip-path="url(#p)"><path fill="none" stroke="#000" stroke-miterlimit="10" stroke-width=".7961233000000001" d="M11.965 151.875a3.965 3.965 0 0 0-7.93 0 3.964 3.964 0 0 0 7.93 0Zm0 0"/></g><g clip-path="url(#q)"><path fill="none" stroke="#000" stroke-miterlimit="10" stroke-width=".7961233000000001" d="M9.586 151.875c0-.879-.711-1.586-1.586-1.586a1.585 1.585 0 1 0 0 3.168c.875 0 1.586-.707 1.586-1.582Zm0 0"/></g><path fill="none" stroke="#000" stroke-miterlimit="10" stroke-width=".3985611" d="M9.586 151.875h2.379"/><use xlink:href="#c" x="9.931" y="144.725"/><use xlink:href="#d" x="9.931" y="138.187"/><use xlink:href="#r" x="11.812" y="133.843"/><use xlink:href="#s" x="11.812" y="131.715"/><path fill="none" stroke="#000" stroke-miterlimit="10" stroke-width=".3985611" d="M92.945 16.781V268.31h9.328M69.621 16.781v30.04m0 5.226v30.039"/><path fill="none" stroke="#000" stroke-miterlimit="10" stroke-width=".7961233000000001" d="M77.457 46.82H61.785m15.672 5.227H61.785"/><path fill="none" stroke="#000" stroke-miterlimit="10" stroke-width=".3985611" d="M69.621 82.086V92"/><path fill="none" stroke="#000" stroke-linecap="round" stroke-miterlimit="10" stroke-width=".7961233000000001" d="M63.676 92h11.89"/><path fill="none" stroke="#000" stroke-miterlimit="10" stroke-width=".3985611" d="M46.297 16.781v5.875m0 20.899v11.757m0 20.899v5.875"/><path fill="none" stroke="#000" stroke-miterlimit="10" stroke-width=".7961233000000001" d="M42.379 43.555V22.656h7.836v20.899ZM42.383 76.21V55.313h7.828v20.899Zm0 0"/><path fill="none" stroke="#000" stroke-miterlimit="10" stroke-width=".7961233000000001" d="M51.887 76.21 39.59 61.583v-6.27"/><path fill="none" stroke="#000" stroke-miterlimit="10" stroke-width=".3985611" d="M46.297 82.086V92"/><path fill="none" stroke="#000" stroke-linecap="round" stroke-miterlimit="10" stroke-width=".7961233000000001" d="M40.352 92h11.89"/><use xlink:href="#t" x="31.933" y="64.659"/><path fill="none" stroke="#000" stroke-miterlimit="10" stroke-width=".3985611" d="M34.176 76.21v-3.062"/><path stroke="#000" stroke-miterlimit="10" stroke-width=".3985611" d="m34.176 70.078-1.762 2.969h3.523Zm0 0"/><path fill="none" stroke="#000" stroke-miterlimit="10" stroke-width=".3985611" d="M36.977 72.742V69.68"/><path stroke="#000" stroke-miterlimit="10" stroke-width=".3985611" d="m36.977 75.813 1.757-2.973h-3.52Zm0 0"/><use xlink:href="#u" x="30.395" y="164.592"/><use xlink:href="#v" x="30.395" y="161.207"/><use xlink:href="#w" x="30.395" y="159.541"/><use xlink:href="#x" x="30.395" y="156.03"/><use xlink:href="#y" x="30.395" y="153.068"/><use xlink:href="#w" x="30.395" y="150.28"/><use xlink:href="#x" x="30.395" y="146.769"/><use xlink:href="#z" x="30.395" y="143.807"/><use xlink:href="#A" x="30.395" y="141.496"/><use xlink:href="#y" x="41.293" y="165.314"/><use xlink:href="#w" x="41.293" y="162.526"/><use xlink:href="#B" x="41.293" y="159.015"/><use xlink:href="#y" x="41.293" y="155.713"/><use xlink:href="#z" x="41.293" y="152.925"/><use xlink:href="#z" x="41.293" y="150.614"/><use xlink:href="#C" x="41.293" y="148.303"/><use xlink:href="#w" x="41.293" y="144.906"/><use xlink:href="#x" x="41.293" y="141.395"/><use xlink:href="#D" x="196.424" y="165.082"/><use xlink:href="#C" x="196.424" y="161.248"/><use xlink:href="#z" x="196.424" y="157.851"/><use xlink:href="#x" x="196.424" y="155.54"/><use xlink:href="#y" x="196.424" y="152.578"/><use xlink:href="#w" x="196.424" y="149.79"/><use xlink:href="#x" x="196.424" y="146.279"/><use xlink:href="#z" x="196.424" y="143.317"/><use xlink:href="#A" x="196.424" y="141.007"/><use xlink:href="#y" x="207.321" y="165.314"/><use xlink:href="#w" x="207.321" y="162.526"/><use xlink:href="#B" x="207.321" y="159.015"/><use xlink:href="#y" x="207.321" y="155.713"/><use xlink:href="#z" x="207.321" y="152.925"/><use xlink:href="#z" x="207.321" y="150.614"/><use xlink:href="#C" x="207.321" y="148.303"/><use xlink:href="#w" x="207.321" y="144.906"/><use xlink:href="#x" x="207.321" y="141.395"/><use xlink:href="#E" x="69.815" y="11.645"/><use xlink:href="#F" x="74.579" y="13.526"/><use xlink:href="#G" x="78.792" y="13.526"/><use xlink:href="#H" x="80.921" y="13.526"/><use xlink:href="#I" x="85.9" y="13.526"/></svg>