<svg xmlns="http://www.w3.org/2000/svg" xmlns:xlink="http://www.w3.org/1999/xlink" width="227.96" height="98.85"><defs><clipPath id="a"><path d="M.152 47H4v4H.152Zm0 0"/></clipPath><clipPath id="b"><path d="M.152 42H10v15H.152Zm0 0"/></clipPath><clipPath id="c"><path d="M213 76h14.766v16H213Zm0 0"/></clipPath><path id="d" d="M1.578 1.563c-.094.156-.266.265-.406.265-.11 0-.156-.062-.219-.14-.078-.125-.25-.297-.437-.297-.25 0-.344.172-.344.328 0 .203.219.406.828.406.375 0 .766-.172 1.047-.562.25-.344.437-1.032.797-2.72.14-.702.281-1.437.422-2.187l.015-.14h.844c.078 0 .203-.047.219-.11 0 0 .047-.187.047-.203 0-.031-.016-.047-.063-.047h-.984l.11-.5c.124-.672.25-1.078.374-1.328.14-.25.25-.312.36-.312.14 0 .156.078.187.25.031.187.11.422.39.422a.31.31 0 0 0 .329-.297c0-.328-.297-.641-.828-.641a1 1 0 0 0-.61.25c-.297.219-.672.563-1 2.156l-.594.031c-.171 0-.234.079-.25.157a.5.5 0 0 0-.046.14c0 .032.03.032.046.032h.75c-.203 1.015-.25 1.547-.359 2.218-.14.86-.281 2.329-.625 2.829m0 0"/><path id="e" d="M1.125 1.672v-8.219H.719v8.219Zm0 0"/><path id="f" d="M4.547.016c.125-.5.328-1.032.516-1.5l-.266-.032C4.5-.875 4.157-.344 3.5-.344h-2c-.14 0-.203-.047-.187-.125 0-.047.046-.094.093-.172l4.125-4.656c.235-.266.313-.422.313-.5 0-.047-.047-.062-.188-.062-.11 0-.297.062-.562.078h-2.75c-.406 0-.36-.078-.672-.11-.14.485-.344 1.125-.484 1.5l.25.047c.296-.625.546-1.078 1.187-1.078h1.984c.063 0 .079.016.063.078 0 .047-.047.094-.094.157L.297-.344C.234-.28.172-.172.172-.109c0 .078.047.109.156.109h3.125c.235 0 1.094.016 1.094.016m0 0"/></defs><path fill="none" stroke="#000" stroke-miterlimit="10" stroke-width=".39839352000000006" d="M1.937 49.266h20m6.516 0h30.235m26.05 0h20.469m26.05 0h10.235"/><path fill="none" stroke="#000" stroke-miterlimit="10" stroke-width=".7957885600000001" d="M21.938 39.496v19.54m6.515-19.54v19.54"/><g clip-path="url(#a)"><path fill="#FFF" d="M3.52 49.266a1.584 1.584 0 1 0-3.168 0 1.584 1.584 0 1 0 3.168 0m0 0"/></g><g clip-path="url(#b)"><path fill="none" stroke="#000" stroke-miterlimit="10" stroke-width=".39839352000000006" d="M3.52 49.266a1.584 1.584 0 1 0-3.168 0 1.584 1.584 0 1 0 3.168 0Zm0 0"/></g><path fill="none" stroke="#000" stroke-linejoin="bevel" stroke-miterlimit="10" stroke-width=".7957885600000001" d="M58.293 49.426c0-2.7 1.5-4.887 3.355-4.887 1.852 0 3.356 2.188 3.356 4.887 0-2.7 1.5-4.887 3.355-4.887 1.852 0 3.356 2.188 3.356 4.887 0-2.7 1.504-4.887 3.355-4.887 1.852 0 3.356 2.188 3.356 4.887 0-2.7 1.504-4.887 3.355-4.887 1.856 0 3.356 2.188 3.356 4.887"/><path fill="none" stroke="#000" stroke-miterlimit="10" stroke-width=".7957885600000001" d="M105.207 44.379h26.05v9.77h-26.05Zm0 0"/><path fill="#FFF" stroke="#000" stroke-miterlimit="10" stroke-width=".39839352000000006" d="M143.078 49.266a1.587 1.587 0 0 0-3.172 0 1.587 1.587 0 0 0 3.172 0Zm0 0"/><path fill="none" stroke="#000" stroke-miterlimit="10" stroke-width=".39839352000000006" d="M153.121 84.156h66.313"/><path d="m222.504 84.156-2.969-1.761v3.52Zm0 0"/><g clip-path="url(#c)"><path fill="none" stroke="#000" stroke-miterlimit="10" stroke-width=".39839352000000006" d="m222.504 84.156-2.969-1.761v3.52Zm0 0"/></g><path fill="none" stroke="#000" stroke-miterlimit="10" stroke-width=".39839352000000006" d="M153.121 84.156V17.844"/><path stroke="#000" stroke-miterlimit="10" stroke-width=".39839352000000006" d="m153.121 14.773-1.758 2.97h3.52Zm0 0"/><use xlink:href="#d" x="221.014" y="93.586"/><use xlink:href="#e" x="148.278" y="9.528"/><use xlink:href="#f" x="150.113" y="9.528"/><use xlink:href="#e" x="156.13" y="9.528"/><path fill="none" stroke="#000" stroke-miterlimit="10" stroke-width=".7957885600000001" d="m162.426 83.922.586-.07c9.308-1.118 17.957-9.547 19.308-18.829l3.243-22.214c1.351-9.282 3.546-9.282 4.898 0l3.242 22.214c1.352 9.282 10 17.711 19.309 18.829l.586.07"/></svg>