<svg xmlns="http://www.w3.org/2000/svg" xmlns:xlink="http://www.w3.org/1999/xlink" width="226.889" height="102.724"><defs><path id="h" d="M2.594-6.172v.078c0 .157-.102.262-.297.313l-.422.093v2.266h2.984v-2.265l-.546-.125c-.086-.02-.125-.055-.125-.11q0-.075.093-.25H6.36v.078q-.002.236-.296.313l-.422.093v5.204l.609.125q.124.017.125.093 0 .048-.094.266H4.188a.16.16 0 0 1-.016-.078c0-.164.101-.274.312-.328l.375-.078v-2.407H1.875v2.407L2.5-.36q.124.017.125.093c0 .032-.04.121-.11.266H.423a.16.16 0 0 1-.016-.078Q.404-.324.72-.406l.375-.078v-5.203l-.547-.125c-.086-.02-.125-.055-.125-.11q0-.075.094-.25Zm0 0"/><path id="i" d="M4.5-6.172q.062.751.063 1.063c0 .261-.086.39-.25.39a.5.5 0 0 1-.188-.031l-.219-.937H1.875v2.437h1.984v.5H1.875v2.266l.703.125q.124.017.125.093 0 .048-.094.266H.422a.16.16 0 0 1-.016-.078Q.404-.324.72-.406l.375-.078v-5.203l-.547-.125c-.086-.02-.125-.055-.125-.11q0-.075.094-.25Zm0 0"/><path id="j" d="M6.016-.484 5.937-4.72h-.015l-1.89 4.64h-.485L1.703-4.75h-.016L1.595-.484l.625.125q.124.017.125.093 0 .048-.094.266H.39v-.078Q.39-.324.689-.406l.39-.078.063-5.203-.547-.125c-.086-.02-.125-.055-.125-.11q0-.075.094-.25h1.406L3.922-1.25h.015l1.985-4.922h1.516v.078c0 .157-.102.262-.297.313l-.422.093.078 5.204.61.125q.123.017.124.093 0 .048-.093.266h-2.11v-.078q0-.246.297-.328Zm0 0"/><path id="k" d="M.906-.469v-3.328l-.64-.094a.1.1 0 0 1-.016-.062q0-.246.328-.281l1.063-.11v3.875l.53.125q.125.017.126.11A.35.35 0 0 1 2.203 0H.313a.1.1 0 0 1-.016-.062c0-.133.094-.235.281-.297Zm-.14-5.375q0-.217.14-.36a.47.47 0 0 1 .36-.155q.233.002.375.156.14.142.14.36a.5.5 0 0 1-.14.374.5.5 0 0 1-.375.14.48.48 0 0 1-.36-.14.5.5 0 0 1-.14-.375m0 0"/><path id="l" d="M1-.578q.264.204.656.203c.508 0 .766-.195.766-.594q-.002-.234-.25-.468a5 5 0 0 0-.578-.407q-.534-.327-.75-.562a1.2 1.2 0 0 1-.36-.86c0-.343.133-.613.407-.812q.406-.312 1.015-.313c.395 0 .719.102.969.297q.03.346.031.547c0 .305-.117.453-.344.453a.16.16 0 0 1-.078-.015l-.109-.641a1.13 1.13 0 0 0-.61-.187c-.43 0-.64.171-.64.515 0 .242.164.477.5.703q.469.316.938.61.515.409.515.953 0 .55-.422.906-.41.362-1.078.36C1.128.11.766.022.484-.14a3.7 3.7 0 0 1-.078-.735q0-.436.328-.437.048.002.094.015Zm0 0"/><path id="m" d="M3.563-.844q.123.128.124.25 0 .222-.359.438-.44.265-1.078.265-.844 0-1.344-.562-.515-.563-.515-1.64c0-.72.21-1.29.64-1.72.407-.382.914-.578 1.532-.578.414 0 .726.086.937.25.164.125.25.274.25.438q0 .392-.375.484c-.219-.457-.555-.687-1-.687a1.07 1.07 0 0 0-.844.375q-.361.44-.36 1.25 0 1.862 1.36 1.86.657 0 1.031-.423m0 0"/><path id="n" d="M.828-.469v-5.468l-.656-.094a.16.16 0 0 1-.016-.078q0-.247.328-.266l1.063-.11v2.735h.031q.516-.64 1.36-.64 1.436 0 1.437 1.593v2.328l.547.125q.124.017.125.11A.35.35 0 0 1 4.953 0h-1.89a.1.1 0 0 1-.016-.062c0-.133.094-.235.281-.297l.328-.11V-2.75c0-.695-.324-1.047-.969-1.047q-.69 0-1.14.469v2.86l.531.124q.124.017.125.11A.4.4 0 0 1 2.125 0H.219v-.062c0-.133.086-.235.265-.297Zm0 0"/><path id="o" d="M1.156-2.172q.012.845.375 1.297c.239.305.578.453 1.016.453q.59 0 1.094-.422.106.064.125.25-.001.205-.407.438Q2.89.109 2.25.109 1.434.111.953-.39.391-.965.391-2.062.39-3.17.969-3.812c.351-.383.789-.579 1.312-.579q.684.001 1.094.407.359.409.36 1.093 0 .299-.094.72Zm1.032-1.765q-.91.001-1.016 1.343h1.766q.03-.187.03-.375 0-.968-.78-.969m0 0"/><path id="p" d="M.906-.469v-3.328l-.64-.094a.1.1 0 0 1-.016-.062q0-.246.328-.281l1.063-.11-.063.75h.031c.352-.531.735-.797 1.141-.797.395 0 .594.149.594.438q0 .188-.14.375a1.5 1.5 0 0 0-.595-.14q-.61 0-.968.515V-.47l.625.125q.124.017.125.11A.35.35 0 0 1 2.297 0H.312a.1.1 0 0 1-.015-.062c0-.133.094-.235.281-.297Zm0 0"/><path id="q" d="M3.64-5.656v-.016H1.204l-.203 1a.46.46 0 0 1-.203.047q-.251 0-.25-.39 0-.373.062-1.157h3.907a.53.53 0 0 1 .093.297.5.5 0 0 1-.093.281L1.344-.562v.015h2.765l.22-1.015a.7.7 0 0 1 .218-.032q.217 0 .219.36c0 .218-.028.632-.079 1.234H.438Q.28-.06.282-.281q0-.123.063-.235Zm0 0"/><path id="r" d="M2.375-6.172q3.546 0 3.547 3 0 1.583-.938 2.39C4.38-.257 3.508 0 2.375 0H.422a.16.16 0 0 1-.016-.078Q.404-.324.72-.406l.375-.078v-5.203l-.547-.125c-.086-.02-.125-.055-.125-.11q0-.075.094-.25ZM2.344-.5q1.326 0 2.031-.672.717-.667.719-1.969-.002-1.246-.719-1.89-.705-.64-2.031-.64h-.469V-.5Zm0 0"/><path id="s" d="m7.094-.469.531.125q.124.017.125.11A.35.35 0 0 1 7.656 0h-1.89a.1.1 0 0 1-.016-.062c0-.133.094-.235.281-.297l.328-.11V-2.75c0-.695-.289-1.047-.859-1.047q-.674.002-1.187.485.046.315.046.515v2.328l.532.125q.124.017.125.11A.4.4 0 0 1 4.937 0H3.032v-.062c0-.133.094-.235.281-.297l.329-.11V-2.75c0-.695-.29-1.047-.86-1.047-.437 0-.82.149-1.14.438v2.89l.53.125q.125.017.126.11A.35.35 0 0 1 2.203 0H.313a.1.1 0 0 1-.016-.062c0-.133.094-.235.281-.297l.328-.11v-3.328l-.64-.094a.1.1 0 0 1-.016-.062q0-.246.328-.281l1.063-.11-.063.594h.031q.61-.64 1.422-.64.828 0 1.156.702.64-.703 1.532-.703.638 0 1 .422.375.41.375 1.172Zm0 0"/><path id="t" d="M2.344.11Q1.512.111.984-.438C.586-.832.391-1.383.391-2.094q0-1.061.656-1.719a2.07 2.07 0 0 1 1.469-.578q.843 0 1.359.516.576.596.578 1.688 0 1.078-.656 1.718A2 2 0 0 1 2.344.11m.062-.5q.562 0 .906-.422.36-.468.36-1.329 0-.857-.36-1.343a1.1 1.1 0 0 0-.906-.438c-.367 0-.656.149-.875.438q-.361.469-.36 1.343-.002.861.36 1.329c.219.28.508.421.875.421m0 0"/><path id="u" d="M3.422-.516H3.39Q2.935.11 2.109.11 1.39.11.922-.359.39-.903.39-2.016q0-1.168.703-1.812.609-.563 1.5-.563c.27 0 .523.04.765.11v-1.657l-.656-.093v-.078q0-.247.328-.266l1.047-.11v6l.656.079q.014.047.016.078 0 .252-.328.281l-1 .094Zm-1.094.047q.64 0 1.031-.39v-2.72c-.218-.206-.507-.312-.859-.312-.398 0-.719.149-.969.438q-.39.468-.39 1.312-.001.846.343 1.282.294.39.844.39m0 0"/><path id="v" d="m.781-3.797-.64-.094a.1.1 0 0 1-.016-.062q0-.246.328-.281l1.063-.11v2.813q0 1.048.89 1.047.686 0 1.11-.438v-2.875l-.657-.094a.1.1 0 0 1-.015-.062q-.001-.246.344-.281l1.046-.11v3.86l.657.078v.078q0 .252-.328.281l-1 .094v-.578h-.016c-.344.43-.793.64-1.344.64Q.78.11.781-1.5Zm0 0"/><path id="w" d="M.86-.469v-5.468l-.641-.094a.16.16 0 0 1-.016-.078q0-.247.328-.266l1.063-.11v6.016l.531.125q.124.017.125.11A.35.35 0 0 1 2.156 0H.266v-.062c0-.133.086-.235.265-.297Zm0 0"/><path id="x" d="M2.656-2.781q0-.591-.172-.86-.175-.28-.609-.28a1.5 1.5 0 0 0-.531.093q-.11.22-.203.781a2 2 0 0 1-.188.016q-.438 0-.437-.39 0-.405.468-.688a1.97 1.97 0 0 1 1.032-.282q1.373 0 1.375 1.5v1.97c0 .335.101.5.312.5q.2 0 .313-.11a.38.38 0 0 1 .093.25c0 .062-.058.133-.171.203a.87.87 0 0 1-.532.156q-.628 0-.687-.61h-.016Q2.28.112 1.47.11.966.11.656-.203.343-.514.344-1.031c0-.438.219-.774.656-1.016.383-.195.86-.297 1.422-.297h.234Zm-.89 2.328q.498 0 .89-.469v-1.031l-.234.016q-1.299.11-1.297.812c0 .45.21.672.64.672m0 0"/><path id="y" d="m.86-4.297.171-1.187h.532v1.187H2.89l-.079.469h-1.25v2.75q0 .674.579.672.435 0 .734-.235.062.095.063.266 0 .112-.235.266-.33.217-.828.218Q.827.11.828-.92v-2.907H.156a.1.1 0 0 1-.015-.063q0-.216.28-.296Zm0 0"/><path id="z" d="M6.266-6.172c.007.031.015.059.015.078q0 .236-.312.313l-.422.093V0h-.531l-3.36-5.187h-.015v4.703l.609.125q.124.017.125.093 0 .048-.094.266H.421a.16.16 0 0 1-.015-.078Q.404-.324.72-.406l.375-.078v-5.203l-.547-.125c-.086-.02-.125-.055-.125-.11q0-.075.094-.25h1.422L5-1.437h.016v-4.25l-.563-.125c-.086-.02-.125-.055-.125-.11q-.001-.075.11-.25Zm0 0"/><path id="A" d="M5.844-6.172v.078c0 .168-.102.278-.297.328l-.234.047L3.28 0h-.734L.453-5.703l-.375-.094q-.124-.03-.125-.125c0-.05.035-.133.094-.25H2.03c.008.031.016.059.016.078 0 .168-.102.274-.297.313l-.375.093 1.64 4.782h.016L4.734-5.72l-.687-.093q-.127-.029-.125-.11c0-.039.031-.125.094-.25Zm0 0"/><path id="B" d="M3.266-.39q.92 0 1.453-.72c.351-.476.531-1.132.531-1.968q0-1.248-.562-1.969-.552-.733-1.454-.734-.907.001-1.421.734-.516.72-.516 1.969 0 1.254.531 1.969.528.719 1.438.718m-.047.5q-1.22 0-1.969-.813Q.467-1.56.469-3.078q0-1.512.844-2.375.761-.827 2.015-.828 1.247 0 1.985.828c.507.562.765 1.355.765 2.375q0 1.501-.828 2.375-.784.813-2.031.812m0 0"/><path id="C" d="M2.563-6.172q2.28 0 2.28 1.547 0 1.208-1.312 1.453v.016Q4.998-2.95 5-1.72q0 .767-.61 1.235Q3.764 0 2.626 0H.422a.16.16 0 0 1-.016-.078Q.404-.324.72-.406l.375-.078v-5.203l-.547-.125c-.086-.02-.125-.055-.125-.11q0-.075.094-.25ZM2.53-.5q.811.001 1.235-.344c.27-.219.406-.508.406-.875q0-.527-.422-.843-.41-.312-1.172-.313h-.703V-.5ZM2.47-3.36q.78 0 1.203-.328.375-.311.375-.828 0-1.155-1.578-1.156h-.594v2.313Zm0 0"/><clipPath id="a"><path d="M.25 0H30v30H.25Zm0 0"/></clipPath><clipPath id="b"><path d="M195 27h31.531v52H195Zm0 0"/></clipPath><clipPath id="c"><path d="M58 77h26v25.45H58Zm0 0"/></clipPath><clipPath id="d"><path d="M59 87h25v15.45H59Zm0 0"/></clipPath><clipPath id="e"><path d="M132 77h26v25.45h-26Zm0 0"/></clipPath><clipPath id="f"><path d="M133 87h24v15.45h-24Zm0 0"/></clipPath><clipPath id="g"><path d="M60 84h17v18.45H60Zm0 0"/></clipPath></defs><path fill="none" stroke="#000" stroke-miterlimit="10" stroke-width=".39793068000000004" d="M9.387 52.848V.398"/><g clip-path="url(#a)"><path fill="none" stroke="#000" stroke-miterlimit="10" stroke-width=".79486404" d="M9.387.398h8.742l-8.742 17.48L.645.399h8.742"/></g><path fill="none" stroke="#000" stroke-miterlimit="10" stroke-width=".39793068000000004" d="M9.586 52.848h6.246m0 0h6.242"/><path d="M17.871 52.848v1.98l4.203-1.98-4.203-1.98Zm0 0"/><path fill="none" stroke="#000" stroke-miterlimit="10" stroke-width=".79486404" d="M22.074 40.61h24.477v24.476H22.074Zm0 0"/><path fill="none" stroke="#000" stroke-miterlimit="10" stroke-width=".39793068000000004" d="m25.746 43.426 17.133 9.422-17.133 9.425ZM46.55 52.848h6.247m0 0h6.242"/><path d="M54.836 52.848v1.98l4.203-1.98-4.203-1.98Zm0 0"/><path fill="none" stroke="#000" stroke-miterlimit="10" stroke-width=".79486404" d="M59.039 40.61h24.477v24.476H59.039Zm0 0"/><path fill="none" stroke="#000" stroke-miterlimit="10" stroke-width=".39793068000000004" d="M79.848 52.848a8.57 8.57 0 0 0-8.57-8.567 8.567 8.567 0 0 0 0 17.133 8.57 8.57 0 0 0 8.57-8.566ZM65.223 46.79l12.113 12.116m0-12.117L65.223 58.906M83.516 52.848h6.246m0 0h6.246"/><path d="M91.8 52.848v1.98l4.208-1.98-4.207-1.98Zm0 0"/><path fill="none" stroke="#000" stroke-miterlimit="10" stroke-width=".79486404" d="M96.008 40.61h24.476v24.476H96.008Zm0 0"/><path fill="none" stroke="#000" stroke-miterlimit="10" stroke-width=".39793068000000004" d="m99.676 43.426 17.136 9.422-17.136 9.425ZM120.484 52.848h6.243m0 0h6.246"/><path d="M128.766 52.848v1.98l4.207-1.98-4.207-1.98Zm0 0"/><path fill="none" stroke="#000" stroke-miterlimit="10" stroke-width=".79486404" d="M132.973 40.61h24.476v24.476h-24.476Zm0 0"/><path fill="none" stroke="#000" stroke-miterlimit="10" stroke-width=".31814508" d="M136.031 52.848h18.36"/><path fill="none" stroke="#000" stroke-miterlimit="10" stroke-width=".63629016" d="m152.137 52.848-13.852-8.657v17.317ZM152.137 61.508V44.19"/><path fill="none" stroke="#000" stroke-miterlimit="10" stroke-width=".39793068000000004" d="M157.45 52.848h6.241m0 0h6.246"/><path d="M165.73 52.848v1.98l4.208-1.98-4.208-1.98Zm0 0"/><path fill="none" stroke="#000" stroke-miterlimit="10" stroke-width=".79486404" d="M169.937 40.61h24.477v24.476h-24.477Zm0 0"/><path fill="none" stroke="#000" stroke-miterlimit="10" stroke-width=".39793068000000004" d="m173.61 43.426 17.132 9.422-17.133 9.425ZM194.414 52.848h6.242m0 0h6.246"/><path d="M202.695 52.848v1.98l4.207-1.98-4.207-1.98Zm0 0"/><g clip-path="url(#b)"><path fill="none" stroke="#000" stroke-miterlimit="10" stroke-width=".79486404" d="M206.902 66.836V38.859h10.84v27.977Zm10.84-20.98 8.39-4.196v22.38l-8.39-4.2Zm0 0"/></g><path fill="none" stroke="#000" stroke-miterlimit="10" stroke-width=".39793068000000004" d="M71.277 65.086v6.246m0 0v6.242"/><path d="M71.277 69.293h1.98l-1.98-4.207-1.976 4.207Zm0 0"/><g clip-path="url(#c)"><path fill="none" stroke="#000" stroke-miterlimit="10" stroke-width=".79486404" d="M59.039 77.574h24.477v24.477H59.039Zm0 0"/></g><path fill="none" stroke="#000" stroke-miterlimit="10" stroke-width=".39793068000000004" d="M65.16 83.695c.996-1.566 1.953-3.062 3.059-3.062 1.11 0 2.062 1.496 3.058 3.062 1 1.567 1.953 3.059 3.063 3.059 1.105 0 2.062-1.492 3.058-3.059M65.16 89.812c.996-1.566 1.953-3.058 3.059-3.058 1.11 0 2.062 1.492 3.058 3.058 1 1.567 1.953 3.063 3.063 3.063 1.105 0 2.062-1.496 3.058-3.063"/><g clip-path="url(#d)"><path fill="none" stroke="#000" stroke-miterlimit="10" stroke-width=".39793068000000004" d="M65.16 95.934c.996-1.567 1.953-3.059 3.059-3.059 1.11 0 2.062 1.492 3.058 3.059 1 1.566 1.953 3.058 3.063 3.058 1.105 0 2.062-1.492 3.058-3.058"/></g><path fill="none" stroke="#000" stroke-miterlimit="10" stroke-width=".39793068000000004" d="M145.21 65.086v6.246m0 0v6.242"/><path d="M145.21 69.293h1.977l-1.976-4.207-1.98 4.207Zm0 0"/><g clip-path="url(#e)"><path fill="none" stroke="#000" stroke-miterlimit="10" stroke-width=".79486404" d="M132.973 77.574h24.476v24.477h-24.476Zm0 0"/></g><path fill="none" stroke="#000" stroke-miterlimit="10" stroke-width=".39793068000000004" d="M139.09 83.695c1-1.566 1.953-3.062 3.058-3.062 1.11 0 2.063 1.496 3.063 3.062.996 1.567 1.95 3.059 3.058 3.059 1.11 0 2.063-1.492 3.06-3.059M139.09 89.812c1-1.566 1.953-3.058 3.058-3.058 1.11 0 2.063 1.492 3.063 3.058.996 1.567 1.95 3.063 3.058 3.063 1.11 0 2.063-1.496 3.06-3.063"/><g clip-path="url(#f)"><path fill="none" stroke="#000" stroke-miterlimit="10" stroke-width=".39793068000000004" d="M139.09 95.934c1-1.567 1.953-3.059 3.058-3.059 1.11 0 2.063 1.492 3.063 3.059.996 1.566 1.95 3.058 3.058 3.058 1.11 0 2.063-1.492 3.06-3.058"/></g><path fill="none" stroke="#000" stroke-miterlimit="10" stroke-width=".39793068000000004" d="m71.277 89.812 2.5-3.746m0 0 .575-.863"/><path stroke="#000" stroke-miterlimit="10" stroke-width=".39791472000000006" d="m76.055 82.652-3.11 1.493 1.465.972 1.461.977Zm0 0"/><g clip-path="url(#g)"><path fill="none" stroke="#000" stroke-miterlimit="10" stroke-width=".39793068000000004" d="m71.277 89.812-2.496 3.747m0 0-2.496 3.746"/></g><use xlink:href="#h" x="28.541" y="74.436"/><use xlink:href="#i" x="35.301" y="74.436"/><use xlink:href="#j" x="55.956" y="37.323"/><use xlink:href="#k" x="63.834" y="37.323"/><use xlink:href="#l" x="66.329" y="37.323"/><use xlink:href="#m" x="69.79" y="37.323"/><use xlink:href="#n" x="73.814" y="37.323"/><use xlink:href="#o" x="78.983" y="37.323"/><use xlink:href="#p" x="83.15" y="37.323"/><use xlink:href="#q" x="103.28" y="74.436"/><use xlink:href="#i" x="108.422" y="74.436"/><use xlink:href="#r" x="119.544" y="37.323"/><use xlink:href="#o" x="125.947" y="37.323"/><use xlink:href="#s" x="130.114" y="37.323"/><use xlink:href="#t" x="137.992" y="37.323"/><use xlink:href="#u" x="142.839" y="37.323"/><use xlink:href="#v" x="147.775" y="37.323"/><use xlink:href="#w" x="152.863" y="37.323"/><use xlink:href="#x" x="155.358" y="37.323"/><use xlink:href="#y" x="159.534" y="37.323"/><use xlink:href="#t" x="162.575" y="37.323"/><use xlink:href="#p" x="167.421" y="37.323"/><use xlink:href="#z" x="176.477" y="74.436"/><use xlink:href="#i" x="183.086" y="74.436"/><use xlink:href="#A" x="86.695" y="92.898"/><use xlink:href="#i" x="92.49" y="92.898"/><use xlink:href="#B" x="97.274" y="92.898"/><use xlink:href="#C" x="160.626" y="92.898"/><use xlink:href="#i" x="166.045" y="92.898"/><use xlink:href="#B" x="170.829" y="92.898"/></svg>