<svg xmlns="http://www.w3.org/2000/svg" width="56.693" height="44.451"><defs><clipPath id="a"><path d="M10 0h46.195v43.91H10Zm0 0"/></clipPath><clipPath id="b"><path d="M36 0h15v43.91H36Zm0 0"/></clipPath><clipPath id="c"><path d="M.195 29H23v1H.195Zm0 0"/></clipPath></defs><g clip-path="url(#a)"><path fill="none" stroke="#000" stroke-miterlimit="10" stroke-width=".7872766000000001" d="M55.8 21.953c0-9.558-7.75-17.308-17.308-17.308-9.562 0-17.312 7.75-17.312 17.308 0 9.563 7.75 17.313 17.312 17.313 9.559 0 17.309-7.75 17.309-17.313Zm0 0"/></g><g clip-path="url(#b)"><path fill="none" stroke="#000" stroke-miterlimit="10" stroke-width=".39413220000000004" d="M49.996.195V14.41H36.273m0 15.09h13.723v14.21"/></g><path fill="none" stroke="#000" stroke-miterlimit="10" stroke-width=".7872766000000001" d="M36.273 11.176v21.558"/><path fill="none" stroke="#000" stroke-miterlimit="10" stroke-width=".39413220000000004" d="M22.555 29.5h13.718m-13.718 0"/><path d="M28.875 29.5v-2.258l5.047 2.258-5.047 2.262Zm0 0"/><g clip-path="url(#c)"><path fill="none" stroke="#000" stroke-miterlimit="10" stroke-width=".39413220000000004" d="M22.555 29.5H.39"/></g></svg>