<svg xmlns="http://www.w3.org/2000/svg" xmlns:xlink="http://www.w3.org/1999/xlink" width="228.314" height="82.36"><defs><clipPath id="a"><path d="M217 63h10.094v15H217Zm0 0"/></clipPath><clipPath id="b"><path d="M11.402.195H226v70.32H11.402Zm0 0"/></clipPath><clipPath id="c"><path d="M11.402.195H221v70.32H11.402Zm0 0"/></clipPath><path id="d" d="m.938-3.812-.47.03c-.171 0-.234.079-.25.141a1 1 0 0 0-.046.157c0 .015.031.015.062.015H.86L.313-1.047C.25-.766.188-.484.188-.313c0 .313.156.407.437.407.39 0 .984-.375 1.281-.922C1.891-.938 1.828-1 1.72-1c-.407.469-.578.563-.719.563-.016 0-.11-.032-.11-.125 0-.094.032-.266.094-.563l.532-2.344h.859c.11-.047.188-.281.094-.344h-.875l.093-.406c.032-.172.11-.422.11-.531 0-.156-.078-.234-.36-.234-.312 0-.296.39-.39.718Zm0 0"/><path id="e" d="M1.813.094c1.75 0 2.359-1.14 2.671-2.719l.485-2.437c.031-.25.172-.391.547-.422l.218-.016c.047 0 .079-.016.079-.062l.03-.172-.015-.016c-.39 0-.75.016-.937.016-.203 0-.532-.016-.938-.016l-.015.016-.032.172c-.015.046.016.062.047.062l.235.016c.28.03.406.109.406.297 0 .03-.016.078-.032.125l-.5 2.593c-.187 1-.546 2.188-2 2.188-.406 0-.718-.188-.921-.438-.188-.234-.25-.515-.25-.797 0-.296.062-.593.109-.875l.531-2.687c.047-.25.188-.375.547-.406l.219-.016c.047 0 .078-.016.078-.062l.047-.172-.016-.016c-.406 0-.765.016-1.094.016-.343 0-.687-.016-1.078-.016l-.03.016-.032.172c0 .046.031.062.062.062l.22.016c.28.03.405.093.405.28 0 .032 0 .079-.015.126L.266-2.094a3 3 0 0 0-.063.625c0 1.266.938 1.563 1.61 1.563m0 0"/></defs><path fill="none" stroke="#000" stroke-miterlimit="10" stroke-width=".39592371000000004" d="M11.402 70.516h212.051"/><path d="m226.504 70.516-2.953-1.75v3.5Zm0 0"/><g clip-path="url(#a)"><path fill="none" stroke="#000" stroke-miterlimit="10" stroke-width=".39592371000000004" d="m226.504 70.516-2.953-1.75v3.5Zm0 0"/></g><path fill="none" stroke="#000" stroke-miterlimit="10" stroke-width=".39592371000000004" d="M11.402 70.516V3.64"/><path stroke="#000" stroke-miterlimit="10" stroke-width=".39592371000000004" d="m11.402.59-1.75 2.953h3.5Zm0 0"/><g clip-path="url(#b)"><path fill="none" stroke="#000" stroke-miterlimit="10" stroke-width=".7908551300000001" d="m11.617 67.457.215-5.152.215-5.125.215-4.989.218-4.75.215-4.398.215-3.961.215-3.43.215-2.816.215-2.137.218-1.402.215-.629.215-.238.215-.22.215-.183.215-.136.218-.075h.215l.215.086.215.18.215.285.215.399.218.496 1.075 2.48.218.5 1.075 2.48.218.5 1.075 2.481.218.496.215.5.43.992.215.47.214.343.22.215.214.09.215-.82.215-5.594.215-4.965.214-4.223.22-3.394.214-2.477.215-1.508.215-.492.215-.445.214-.414.22-.368.214-.3.215-.215.215-.114h.215l.214.122.22.257.214.399.86 1.984.218.496.215.5.86 1.985.218.496.215.496.215.5.644 1.488.22.496.214.496.215.5.644 1.489.219.433.215.281.215.13.215-.016.214-.149.215-.847.219-5.625.215-4.703.215-3.68.215-2.578.214-1.414.215-.211.219-.602.215-.555.215-.496.214-.406.215-.308.215-.184.219-.05.215.097.215.254.214.414.43.992.219.496.215.496.215.5.644 1.488.219.497.215.496.215.5.644 1.488.219.496.43.992.214.5.43.992.219.496.215.497.214.394.215.227.215.066.215-.094.219-.23.215-.363.214-1.383.215-4.77.215-3.629.215-2.41.219-1.14.215-.696.214-.668.215-.617.215-.543.215-.445.219-.332.215-.196.214-.05.215.105.215.274.215.445.219.496.644 1.488.215.5.215.496.219.496.859 1.985.215.5.219.496.859 1.984.215.5.219.496.644 1.489.215.359.215.195.219.032.214-.122.215-.257.215-.383.215-.485.215-.746.219-3.254.214-2.023.215-.754.215-.676.215-.636.215-.586.218-.504.215-.403.215-.285.215-.152.215-.008.219.152.214.313.215.48.43.993.215.5.219.496 1.074 2.48.215.5.218.496.86 1.985.219.496.214.5.86 1.984.218.496.215.34.215.188.215.039.215-.098.215-.219.218-.324.215-.418.215-.488.215-.54.215-.917.215-.344.218-.559.215-.52.215-.46.215-.387.215-.289.215-.183.218-.06.215.08.215.214.215.363.215.5.215.496.218.496.86 1.985.215.5.218.496 1.075 2.48.218.5 1.075 2.48.218.5.215.497.215.469.215.34.215.207.214.09.22-.024.214-.121.215-.211.215-.277.215-.332.214-.368.22-.39.214-.387.215-.367.215-.332.215-.281.214-.211.22-.133.214-.035.215.066.215.176.215.293.214.414.22.496.644 1.488.215.5.214.496.22.496.858 1.985.215.5.22.496.858 1.984.215.5.22.496.644 1.489.214.457.215.355.219.258.215.168.215.086.215.015.214-.05.215-.098.219-.133.215-.156.43-.328.214-.145.215-.113.219-.07.215-.016.215.047.214.121.215.195.215.278.219.367.215.453.644 1.488.215.5.219.496 1.074 2.48.219.5 1.074 2.481.219.496.215.5.86 1.985.218.457.215.387.214.32.215.262.215.207.215.16.219.12.215.09.214.071.215-.191.215-.168.215.058.219.074.215.098.214.129.215.164.215.211.215.258.219.312.215.368.214.421.215.477.215.5.215.496.219.496.644 1.488.215.5.215.497.219.496.859 1.984.215.5.219.496 1.074 2.48.219.5.214.497.215.46.215.422.215.383.215.344.219-1.395.214-1.44.215-1.177.215-.902.215-.61.215-.316.219-.023.214.234.215.246.215.262.215.277.215.305.218.328.215.36.215.394.215.426.215.457.215.492.218.5 1.075 2.48.218.5 1.075 2.48.218.497.215.5.86 1.984.218.496.215.497.215.5.215-.145.215-1.375.215-1.328.218-1.254.215-1.152.215-1.028.215-.886.215-.73.215-.563.218-.387.215-.207.215-.02.215.328.215.336.215.348.218.356.215.375.215.39.215.41.215.43.214.453.22.477.214.496.215.5.644 1.488.22.496.429.992.215.5.43.993.218-.438h2.153l.214-.234.22-1.203.214-1.188.215-1.14.215-1.075.214-.988.215-.875.22-.754.214-.605.215-.45.215-.28.214-.106.215.332.219.332.215.343.215.352.215.371.214.387.215.406.219.426.215.453.215.48.644 1.489.219.496.43.992.215.5.43.992.218.496.215.496.215-.445h2.156l.215-.691.215-1.774.214-1.765.215-1.72.215-1.632.219-1.52.215-1.359.215-1.176.214-.965.215-.718.215-.461.219-.184.215.235.215.242.214.254.215.27.215.296.219.324.215.36.214.394.215.43.215.476.215.497.219.496.215.5.859 1.984.219.496.215.496.214.5.645 1.488.219.497.43.992.214.5.43.992.219.496.43.992.214-1.992.215-2.973.215-2.937.219-2.844.214-2.687.215-2.47.215-2.198.215-1.871.215-1.497.219-1.085.214-.645.215-.176.215.063.215.078.215.105.219.133.214.176.215.226.215.278.215.34.215.41.219.472.43.993.214.5.43.992.219.496.43.992.214.5.43.992.218.496.645 1.489.215.5.215.496.218.496.86 1.984.215.43.218.34.215-3.473.215-4.277.215-3.996.215-3.625.215-3.176.218-2.652.215-2.059.215-1.422.215-.738.215-.028.215-.148.218-.121.215-.082.215-.027.215.035.215.113.215.195.218.285.215.387.215.485.645 1.488.218.496.215.5.86 1.984.218.496.215.5.86 1.985.218.496.215.496.215.5.644 1.488.22.496.214.38.215.261.215.145.215-2.399.214-5.281.22-4.735.214-4.078.215-3.328.215-2.508.215-1.617.214-.687.22-.383.214-.356.215-.316.215-.258.215-.18.214-.093.22.011.214.122.215.25.215.375.43.992.218.496.215.496.215.5.644 1.488.219.496.215.496.215.5.644 1.489.219.496.43.992.215.5.43.992.218.496.215.496.215.47.215.32.214.18.215.034.219-.093.215-1.922.215-5.559.214-4.707.215-3.758.215-2.722.219-1.622.215-.484.215-.559.214-.523.215-.465.215-.39.219-.297.215-.184.215-.058.214.082.215.23.215.387.219.496.644 1.488.215.5.215.496.219.496.86 1.985.214.5.219.496.86 1.984.214.5.219.496.644 1.489.215.433.215.266.219.105.215-.05.214-.192.215-.32.215-2.172.215-4.942.219-3.843.215-2.664.214-1.43.215-.152.215-.66.215-.618.219-.547.215-.453.214-.347.215-.22.215-.077.215.078.219.238.214.41.43.992.215.5.215.497.219.496.644 1.488.215.5.215.496.219.496.859 1.984.215.5.219.497 1.074 2.48.219.398.214.223.215.063.215-.098.215-.238.215-.364.218-.476.215-2.2.215-3.581.215-2.352.215-1.074.215-.695.218-.668.215-.614.215-.539.215-.441.215-.324.215-.196.218-.047.215.11.215.273.215.446.43.992.218.5.86 1.984.219.496.214.496.215.5.645 1.489.218.496.43.992.215.5.43.992.218.496.43.992.215.367.215.208.215.054.218-.094.215-.222.215-.336.215-.438.215-.52.215-.624.218-1.856.215-.652.215-.61.215-.577.215-.52.215-.45.218-.35.215-.24.215-.112.215.023.215.172.215.324.218.48.645 1.489.215.5.215.496.218.496.645 1.488.215.5.215.496.218.497.86 1.984.214.5.22.496.859 1.984.214.356.22.219.214.086.215-.04.215-.148.215-.242.214-.32.22-.387.214-.43.215-.453.215-.46.215-.442.214-.41.22-.356.214-.289.215-.203.215-.102.215.004.214.125.22.25.214.375.215.5.644 1.489.22.496.429.992.215.5.43.992.218.496.43.992.215.5.43.992.218.497.645 1.488.214.5.215.496.219.473.215.363.215.254.215.152.214.059.215-.028.219-.093.215-.157.215-.199.214-.23.215-.246.215-.243.219-.226.215-.195.215-.149.214-.094.215-.023.215.055.219.136.215.235.215.328.214.426.215.496"/></g><g clip-path="url(#c)"><path fill="none" stroke="#000" stroke-dasharray="2.9657861207000003 2.9657861207000003" stroke-miterlimit="10" stroke-width=".39592371000000004" d="m11.617 70.516.215-5.727.215-5.695.215-5.543.218-5.274.215-4.89.215-4.403.215-3.808.215-3.13.215-2.374.218-1.559.215-.699.215.188.215 1.082.215 1.964.215 2.825.218 3.629.215 4.375.215 5.039.215 5.601.215 6.063.215 6.398.218 5.938h4.524l.215-1.508.214-7.574.22-7.465.214-7.196.215-6.777.215-6.219.215-5.515.214-4.696.22-3.765.214-2.758.215-1.672.215-.547.215.602.214 1.746.22 2.871.214 3.937.215 4.938.215 5.844.215 6.636.214 7.297.22 7.809.214 8.168.215 5.844h4.523l.219-3.621.215-9.04.215-8.828.215-8.441.214-7.871.215-7.137.219-6.246.215-5.227.215-4.09.215-2.863.214-1.57.215-.238.219 1.105.215 2.438.215 3.718.214 4.934.215 6.05.215 7.048.219 7.906.215 8.598.215 9.117.214 9.453.215 4.805h4.528l.214-5.946.215-9.836.215-9.53.215-9.028.219-8.34.215-7.473.214-6.457.215-5.297.215-4.03.215-2.68.219-1.266.215.168.214 1.605.215 3.008.215 4.356.215 5.609.219 6.75.215 7.754.214 8.594.215 9.257.215 9.735.215 10.004.219 3.043h4.523l.215-7.97.215-9.812.219-9.43.214-8.855.215-8.094.215-7.167.215-6.102.215-4.906.219-3.61.214-2.25.215-.84.215.583.215 1.988.215 3.347.218 4.637.215 5.828.215 6.89.215 7.81.215 8.566.219 9.144.214 9.528.215 9.719.215.996h4.527l.215-9.192.215-8.976.215-8.551.215-7.957.215-7.195.218-6.293.215-5.266.215-4.137.215-2.93.215-1.667.215-.38.218.907.215 2.164.215 3.371.215 4.5.215 5.531.215 6.434.218 7.207.215 7.82.215 8.266.215 8.543.215 7.8h4.527l.215-1.542.215-7.758.215-7.492.214-7.07.22-6.512.214-5.825.215-5.02.215-4.12.215-3.153.214-2.12.22-1.063.214.012.215 1.07.215 2.094.215 3.066.214 3.969.22 4.77.214 5.468.215 6.047.215 6.496.215 6.8.214 6.966.22 4.918h4.523l.214-2.383.215-5.899.219-5.644.215-5.277.215-4.805.215-4.238.214-3.598.215-2.89.219-2.134.215-1.347.215-.54.215.262.214 1.047.215 1.797.219 2.5.215 3.14.215 3.704.214 4.184.215 4.566.215 4.852.219 5.03.215 5.106.215 2.567h4.523l.219-2.453.215-4.004.214-3.79.215-3.507.215-3.153.215-2.746.219-2.285.215-1.789.214-1.27.215-.726.215-.188.215.348.219.867.215 1.352.214 1.805.215 2.207.215 2.554.215 2.844.219 3.066.215 3.223.214 3.313.215 3.328.215 1.004h4.527l.215-2.008.215-2.43.215-2.281.215-2.094.219-1.86.214-1.597.215-1.308.215-1.004.215-.676.215-.352.219-.023.214.297.215.601.215.89.215 1.15.215 1.382.218 1.582.215 1.742.215 1.868.215 1.945.43 3.969.218.207h4.524l.215-1.528.215-1.48.218-1.39.215-1.278.215-1.145.215-.984.215-.813.215-.625.218-.43.215-.226.215-.027.215.176.215.37.215.56.218.726.215.883.215 1.015.215 1.133.215 1.223.214 1.293.22 1.328.214 1.219h4.524l.214-.262.22-1.336.214-1.32.215-1.266.215-1.195.214-1.098.215-.976.22-.833.214-.675.215-.496.215-.313.214-.117.215.086.219.285.215.484.215.68.215.86.214 1.027.215 1.18.219 1.304.215 1.41.215 1.489.215 1.082h4.527l.215-.77.215-1.973.214-1.96.215-1.907.215-1.82.219-1.684.215-1.511.215-1.309.214-1.066.215-.801.215-.512.219-.203.215.117.215.442.214.765.215 1.082.215 1.383.219 1.66.215 1.914.214 2.13.215 2.308.215 2.441.215 1.274h4.527l.215-1.946.215-3.3.215-3.266.219-3.16.214-2.989.215-2.742.215-2.441.215-2.078.215-1.664.219-1.207.214-.715.215-.195.215.34.215.874.215 1.407.219 1.921.214 2.403.215 2.844.215 3.238.215 3.566.215 3.832.219 4.02.214 1.258h4.524l.215-4.016.218-5.059.215-4.96.215-4.75.215-4.442.215-4.027.215-3.528.218-2.945.215-2.293.215-1.578.215-.82.215-.032.215.766.218 1.566.215 2.34.215 3.082.215 3.766.215 4.387.215 4.922.218 5.359.215 5.7.215 5.917.215.645h4.527l.215-6.907.215-6.902.215-6.695.215-6.352.214-5.87.22-5.259.214-4.527.215-3.703.215-2.781.215-1.801.214-.766.22.297.214 1.363.215 2.41.215 3.422.215 4.371.214 5.243.22 6.007.214 6.66.215 7.18.215 7.555.214 7.055h4.528l.215-1.649.215-8.605.214-8.461.215-8.133.219-7.637.215-6.98.215-6.176.214-5.23.215-4.176.215-3.024.219-1.804.215-.536.215.75.214 2.028.215 3.273.215 4.461.219 5.559.215 6.55.215 7.415.214 8.125.215 8.672.215 9.046.219 6.532h4.523l.215-3.805.215-9.672.219-9.426.215-8.984.214-8.356.215-7.554.215-6.594.215-5.488.219-4.274.215-2.96.214-1.583.215-.175.215 1.246.215 2.644.219 3.988.215 5.254.214 6.414.215 7.446.215 8.324.215 9.031.219 9.555.214 9.879.215 5.09h4.524l.219-5.95.214-9.949.215-9.617.215-9.09.215-8.37.215-7.485.218-6.438.215-5.262.215-3.976.215-2.613.215-1.196.215.246.218 1.68.215 3.074.215 4.407.215 5.648.215 6.766.215 7.742.218 8.562.215 9.2.215 9.644.215 9.895.215 3.082h4.527l.215-7.567.215-9.394.215-9.004.218-8.43.215-7.687.215-6.786.215-5.75.215-4.605.215-3.363.218-2.063.215-.722.215.625.215 1.949.215 3.23.215 4.438.218 5.543.215 6.53.215 7.38.215 8.07.215 8.59.215 8.93.218 9.082.215 1.004h4.524l.214-8.258.22-8.106.214-7.703.215-7.144.215-6.442.215-5.613.214-4.676.22-3.652.214-2.559.215-1.425.215-.274.215.879.214 1.996.22 3.063.214 4.058.215 4.961.215 5.754.215 6.414.214 6.941.22 7.317.214 7.543.215 6.926h4.523l.219-1.262.215-6.59.215-6.344.215-5.972.214-5.48.215-4.884.219-4.191.215-3.422.215-2.594.214-1.722.215-.832.215.07.219.957.215 1.805.215 2.613.214 3.352.215 4.007.215 4.578.219 5.04.215 5.394.215 5.633.214 5.75.215 4.094"/></g><use xlink:href="#d" x="221.712" y="78.671"/><use xlink:href="#e" x="3.505" y="9.117"/></svg>