<svg xmlns="http://www.w3.org/2000/svg" xmlns:xlink="http://www.w3.org/1999/xlink" width="226.964" height="40.491"><defs><path id="b" d="M2.64-2.75q0-.591-.187-.86c-.117-.187-.312-.28-.594-.28q-.28 0-.515.093c-.086.149-.153.406-.203.781H.953q-.438 0-.437-.375c0-.27.148-.5.453-.687A1.97 1.97 0 0 1 2-4.36q1.36 0 1.36 1.5v1.937c0 .336.1.5.312.5q.2.001.312-.11.078.112.079.25c0 .063-.055.134-.157.204a.9.9 0 0 1-.531.156q-.61 0-.687-.61h-.016C2.398-.101 2 .11 1.469.11Q.952.11.64-.203.342-.514.344-1.031q0-.638.656-1 .563-.296 1.406-.297h.235ZM1.75-.453q.498.002.89-.453v-1.031l-.234.03q-1.299.095-1.297.798c0 .437.211.656.641.656m0 0"/><path id="c" d="M.64-5.89 0-5.985a.2.2 0 0 1-.016-.063q0-.246.329-.281l1.046-.11v2.688h.032q.499-.61 1.312-.61.703 0 1.14.47.5.549.5 1.656 0 1.158-.702 1.797c-.418.367-.946.546-1.578.546Q1.17.11.64-.203Zm1.72 2.124q-.627 0-1 .422v2.688c.25.168.538.25.874.25q1.36 0 1.36-1.735 0-.843-.375-1.265-.33-.36-.86-.36m0 0"/><path id="e" d="M2.172-6.11a.2.2 0 0 1 .015.079q-.002.235-.296.312l-.328.063 1.171 1.968h.016L4-5.671l-.594-.094q-.127 0-.125-.093-.001-.075.11-.25h1.78v.078q-.001.253-.296.312l-.297.063L3.047-3.22l1.672 2.75.406.11q.124.034.125.093 0 .048-.094.266H3.281a.16.16 0 0 1-.015-.078c0-.176.101-.285.312-.328l.266-.047-1.266-2.11h-.015L1.266-.453l.547.094q.124.017.125.093A.6.6 0 0 1 1.844 0H.047v-.078q0-.264.297-.328l.25-.047 1.672-2.578-1.594-2.61-.438-.109C.148-5.77.11-5.805.11-5.86q0-.074.11-.25Zm0 0"/><clipPath id="a"><path d="M1.39 10H27v2H1.39Zm0 0"/></clipPath><clipPath id="d"><path d="M200 10h25.54v2H200Zm0 0"/></clipPath></defs><g clip-path="url(#a)"><path fill="none" stroke="#000" stroke-miterlimit="10" stroke-width="1.18115764" d="M1.98 11.344H13.72m0 0h11.734"/></g><path fill="none" stroke="#000" stroke-miterlimit="10" stroke-width=".39404841" d="M25.453 11.344V7.238m0 0v-4.11"/><path stroke="#000" stroke-miterlimit="10" stroke-width=".39404841" d="M27.02 11.344a1.569 1.569 0 1 0-3.138.004 1.569 1.569 0 0 0 3.138-.004Zm0 0"/><path fill="none" stroke="#000" stroke-miterlimit="10" stroke-width=".39404841" d="M37.187 3.129A2.935 2.935 0 0 0 34.254.195 2.935 2.935 0 0 0 31.32 3.13 2.935 2.935 0 0 0 28.387.195a2.935 2.935 0 0 0-2.934 2.934M37.187 3.129v4.11m0 0v4.105M25.453 11.344v4.11m0 0v4.105h3.906m3.918 0h3.91v-4.106m0 0v-4.11"/><path fill="none" stroke="#000" stroke-miterlimit="10" stroke-width=".78710923" d="M29.36 13.68v11.757m3.917-11.757v11.757"/><use xlink:href="#b" x="29.251" y="35.162"/><path stroke="#000" stroke-miterlimit="10" stroke-width=".39404841" d="M38.754 11.344a1.566 1.566 0 1 0-3.133 0 1.567 1.567 0 1 0 3.133 0Zm0 0"/><path fill="none" stroke="#000" stroke-miterlimit="10" stroke-width="1.18115764" d="M37.187 11.344h5.868m0 0h5.867"/><path fill="none" stroke="#000" stroke-miterlimit="10" stroke-width=".39404841" d="M48.922 11.344V7.238m0 0v-4.11"/><path stroke="#000" stroke-miterlimit="10" stroke-width=".39404841" d="M50.488 11.344a1.566 1.566 0 1 0-3.133 0 1.567 1.567 0 1 0 3.133 0Zm0 0"/><path fill="none" stroke="#000" stroke-miterlimit="10" stroke-width=".39404841" d="M60.656 3.129A2.935 2.935 0 0 0 57.723.195a2.935 2.935 0 0 0-2.934 2.934A2.935 2.935 0 0 0 51.855.195a2.935 2.935 0 0 0-2.933 2.934M60.656 3.129v4.11m0 0v4.105M48.922 11.344v4.11m0 0v4.105h3.91m3.918 0h3.906v-4.106m0 0v-4.11"/><path fill="none" stroke="#000" stroke-miterlimit="10" stroke-width=".78710923" d="M52.832 13.68v11.757M56.75 13.68v11.757"/><use xlink:href="#c" x="52.425" y="35.162"/><path stroke="#000" stroke-miterlimit="10" stroke-width=".39404841" d="M62.227 11.344a1.57 1.57 0 0 0-3.137 0 1.57 1.57 0 1 0 3.137 0Zm0 0"/><path fill="none" stroke="#000" stroke-miterlimit="10" stroke-width="1.18115764" d="M60.656 11.344H84.13m0 0h23.469"/><path stroke="#000" stroke-miterlimit="10" stroke-width=".39404841" d="M109.164 11.344a1.566 1.566 0 1 0-3.133 0 1.567 1.567 0 1 0 3.133 0ZM120.902 11.344a1.57 1.57 0 0 0-3.136 0 1.57 1.57 0 1 0 3.136 0Zm0 0"/><path fill="none" stroke="#000" stroke-miterlimit="10" stroke-width="1.18115764" d="M119.332 11.344h23.473m0 0h23.468"/><path fill="none" stroke="#000" stroke-miterlimit="10" stroke-width=".39404841" d="M166.273 11.344V7.238m0 0v-4.11"/><path stroke="#000" stroke-miterlimit="10" stroke-width=".39404841" d="M167.84 11.344a1.566 1.566 0 1 0-3.133 0 1.567 1.567 0 1 0 3.133 0Zm0 0"/><path fill="none" stroke="#000" stroke-miterlimit="10" stroke-width=".39404841" d="M178.008 3.129a2.935 2.935 0 0 0-2.934-2.934 2.935 2.935 0 0 0-2.933 2.934 2.935 2.935 0 0 0-2.934-2.934 2.935 2.935 0 0 0-2.934 2.934M178.008 3.129v4.11m0 0v4.105M166.273 11.344v4.11m0 0v4.105h3.91m3.918 0h3.907v-4.106m0 0v-4.11"/><path fill="none" stroke="#000" stroke-miterlimit="10" stroke-width=".78710923" d="M170.184 13.68v11.757M174.1 13.68v11.757"/><use xlink:href="#c" x="169.774" y="35.162"/><path stroke="#000" stroke-miterlimit="10" stroke-width=".39404841" d="M179.578 11.344a1.57 1.57 0 0 0-3.137 0 1.57 1.57 0 1 0 3.137 0Zm0 0"/><path fill="none" stroke="#000" stroke-miterlimit="10" stroke-width="1.18115764" d="M178.008 11.344h5.867m0 0h5.871"/><path fill="none" stroke="#000" stroke-miterlimit="10" stroke-width=".39404841" d="M189.746 11.344V7.238m0 0v-4.11"/><path stroke="#000" stroke-miterlimit="10" stroke-width=".39404841" d="M191.312 11.344a1.569 1.569 0 1 0-3.137.004 1.569 1.569 0 0 0 3.137-.004Zm0 0"/><path fill="none" stroke="#000" stroke-miterlimit="10" stroke-width=".39404841" d="M201.48 3.129a2.937 2.937 0 0 0-2.933-2.934 2.935 2.935 0 0 0-2.934 2.934A2.937 2.937 0 0 0 192.68.195a2.935 2.935 0 0 0-2.934 2.934M201.48 3.129v4.11m0 0v4.105M189.746 11.344v4.11m0 0v4.105h3.906m3.918 0h3.91v-4.106m0 0v-4.11"/><path fill="none" stroke="#000" stroke-miterlimit="10" stroke-width=".78710923" d="M193.652 13.68v11.757m3.918-11.757v11.757"/><use xlink:href="#b" x="193.542" y="35.162"/><path stroke="#000" stroke-miterlimit="10" stroke-width=".39404841" d="M203.047 11.344a1.569 1.569 0 1 0-3.138.004 1.569 1.569 0 0 0 3.138-.004Zm0 0"/><g clip-path="url(#d)"><path fill="none" stroke="#000" stroke-miterlimit="10" stroke-width="1.18115764" d="M201.48 11.344h11.735m0 0h11.734"/></g><use xlink:href="#e" x="104.949" y="20.604"/><use xlink:href="#e" x="116.684" y="20.604"/></svg>