<svg xmlns="http://www.w3.org/2000/svg" xmlns:xlink="http://www.w3.org/1999/xlink" width="222.815" height="163.35"><defs><path id="a" d="M5.86-2.906a.2.2 0 0 1 .015.078q0 .236-.312.312l-.204.047v1.89C4.867-.116 4.15.11 3.203.11q-1.207 0-1.937-.765Q.469-1.5.469-3.062q0-1.606 1.031-2.485.855-.733 2.11-.734.59.002 1.078.156.044.019.593.219.047.657.047.922-.001.408-.266.406a.44.44 0 0 1-.203-.047l-.187-.86q-.44-.264-1.11-.265-.953.002-1.562.594-.703.702-.703 2.015c0 .875.195 1.555.594 2.032.375.46.882.687 1.53.687.438 0 .821-.07 1.157-.219v-1.796l-.547-.126q-.127-.011-.125-.093 0-.076.094-.25Zm0 0"/><path id="b" d="m4.484-.484-.578-1.641H1.688l-.594 1.64.672.126q.124.017.125.093 0 .066-.094.266H-.078a.2.2 0 0 1-.016-.078Q-.096-.342.22-.406l.25-.063L2.64-6.172l.562-.062L5.343-.47l.391.11q.124.034.125.093 0 .048-.093.266H3.859a.16.16 0 0 1-.015-.078q-.002-.246.297-.328Zm-2.64-2.11h1.89l-.921-2.61h-.016Zm0 0"/><path id="c" d="M2.563-6.172q2.28 0 2.28 1.547 0 1.208-1.312 1.453v.016Q4.998-2.95 5-1.72q0 .767-.61 1.235Q3.764 0 2.626 0H.422a.16.16 0 0 1-.016-.078Q.404-.324.72-.406l.375-.078v-5.203l-.547-.125c-.086-.02-.125-.055-.125-.11q0-.075.094-.25ZM2.53-.5q.811.001 1.235-.344c.27-.219.406-.508.406-.875q0-.527-.422-.843-.41-.312-1.172-.313h-.703V-.5ZM2.47-3.36q.78 0 1.203-.328.375-.311.375-.828 0-1.155-1.578-1.156h-.594v2.313Zm0 0"/><path id="e" d="M3.5-5.844c-.219 0-.75.078-1.094.078S1.72-5.78 1.328-5.78l-.031.015-.031.188c-.016.031 0 .062.046.062l.329.016c.125 0 .312.063.312.281 0 .032 0 .063-.016.094L1.064-.641c-.047.25-.172.36-.547.375l-.22.032C.25-.234.22-.22.22-.172L.172 0l.031.016C.593.016.953 0 1.281 0c.344 0 .688.016 1.094.016L2.406 0l.031-.172c0-.047-.03-.062-.062-.062l-.219-.032C1.875-.28 1.75-.344 1.75-.53c0-.031 0-.063.016-.11l.375-1.953c.718 0 .875.125.953.328l.61 1.563c.171.422.468.797.983.797.125 0 .282-.016.375-.063l.032-.218c-.39 0-.532-.297-.688-.688L3.688-2.75c.39-.125 1.25-.594 1.437-1.531.031-.11.047-.235.047-.344a1.13 1.13 0 0 0-.281-.766c-.328-.406-.86-.453-1.391-.453m-.062.297c.453 0 .984.172.984.89 0 .11-.031.235-.047.391-.219 1.11-.922 1.36-1.75 1.36h-.422l.438-2.219c.046-.266.187-.422.797-.422m0 0"/><path id="f" d="M1.531-4.11c.313 0 .594.188.594.641 0 .36-.406.906-1.125 1.016l.047.219h.344c.406 0 .937.109.937.906 0 .953-.64 1.156-.89 1.156-.36 0-.438-.172-.516-.297C.844-.579.75-.656.609-.656c-.14 0-.296.14-.296.25 0 .281.593.484 1.03.484.845 0 1.61-.562 1.61-1.5 0-.781-.594-1.062-1.015-1.125v-.015c.578-.282.75-.579.75-.954 0-.218-.047-.39-.22-.562-.155-.156-.405-.281-.78-.281-1.047 0-1.36.687-1.36.922 0 .109.078.25.25.25.25 0 .281-.235.281-.376 0-.453.485-.546.672-.546m0 0"/><path id="g" d="M3.078-1.562h-.594V-4.36H2.25c-.047 0-.094.046-.11.078-.453.547-1.28 1.734-1.937 2.75.016.11.063.297.281.297h1.454v.656c0 .328-.282.328-.579.36-.046.046-.046.187 0 .234C1.58 0 1.875 0 2.203 0c.281 0 .547 0 .781.016.032-.047.032-.188 0-.235-.359-.031-.5-.015-.5-.36v-.655h.485c.11 0 .203-.125.203-.22 0-.062-.016-.109-.094-.109m-1.14-2.063v2.063H.577c.36-.594.86-1.391 1.36-2.063m0 0"/><path id="j" d="M2.063-.875v-2.469c0-.437 0-.875.015-.969 0-.03-.015-.03-.047-.03-.39.25-.765.421-1.39.718.015.078.03.14.109.188.328-.141.484-.172.61-.172.124 0 .14.172.14.406v2.328c0 .594-.187.625-.687.656-.047.047-.047.188 0 .235C1.156 0 1.422 0 1.813 0c.343 0 .515 0 .859.016.047-.047.047-.188 0-.235-.5-.031-.61-.062-.61-.656m0 0"/><path id="m" d="M.438-3.344c0 .156.14.281.28.281.126 0 .345-.124.345-.28 0-.063-.016-.11-.032-.157-.015-.047-.062-.11-.062-.172 0-.172.187-.437.703-.437.266 0 .625.187.625.875 0 .453-.156.828-.578 1.25l-.532.515C.485-.75.375-.406.375.016c0 0 .36-.016.594-.016h1.25c.219 0 .547.016.547.016.093-.375.172-.922.172-1.125-.032-.047-.126-.047-.204-.047-.125.515-.25.687-.5.687H.97c0-.343.484-.828.531-.86l.719-.687c.406-.39.703-.718.703-1.25 0-.78-.625-1.093-1.203-1.093-.797 0-1.281.593-1.281 1.015m0 0"/><clipPath id="d"><path d="M.348 58H36v47H.348Zm0 0"/></clipPath><clipPath id="h"><path d="M74 159h4v3.703h-4Zm0 0"/></clipPath><clipPath id="i"><path d="M69 153h15v9.703H69Zm0 0"/></clipPath><clipPath id="k"><path d="M74 159h4v3.703h-4Zm0 0"/></clipPath><clipPath id="l"><path d="M69 153h15v9.703H69Zm0 0"/></clipPath></defs><use xlink:href="#a" x="9.542" y="82.84"/><path fill="none" stroke="#000" stroke-miterlimit="10" stroke-width=".7938438800000001" d="M7.832 87.715h9.547"/><use xlink:href="#b" x="105.18" y="74.919"/><use xlink:href="#c" x="169.002" y="74.884"/><path fill="none" stroke="#000" stroke-miterlimit="10" stroke-width=".39741996" d="m133.555 87.715 10.289-10.285"/><path stroke="#000" stroke-miterlimit="10" stroke-width=".39741597" d="m146.008 75.266-3.336.851 1.238 1.242 1.242 1.243Zm0 0"/><path fill="none" stroke="#000" stroke-miterlimit="10" stroke-width=".39741996" d="M12.605 160.922V93.21m0-23.719V1.777h31.829m0 0h95.488m0 0h63.66v23.977m0 31.621v47.95m0 31.624v23.973h-63.66m0 0H44.434m0 0H12.605"/><g clip-path="url(#d)"><path fill="none" stroke="#000" stroke-miterlimit="10" stroke-width=".7938438800000001" d="M.746 81.352c0 6.546 5.309 11.859 11.86 11.859 6.546 0 11.859-5.313 11.859-11.86 0-6.55-5.313-11.859-11.86-11.859-6.55 0-11.859 5.309-11.859 11.86Zm0 0"/></g><path stroke="#000" stroke-miterlimit="10" stroke-width=".39741996" d="M77.844 1.777a1.58 1.58 0 1 0-3.16 0 1.58 1.58 0 1 0 3.16 0Zm0 0"/><path fill="none" stroke="#000" stroke-miterlimit="10" stroke-width=".7938438800000001" d="M197.652 57.375V25.754h11.856v31.621Zm0 0"/><path stroke="#000" stroke-miterlimit="10" stroke-width=".39741996" d="M205.16 81.352a1.58 1.58 0 1 0-3.159-.005 1.58 1.58 0 0 0 3.16.005Zm0 0"/><use xlink:href="#e" x="211.707" y="43.708"/><use xlink:href="#f" x="216.967" y="45.584"/><path fill="none" stroke="#000" stroke-miterlimit="10" stroke-width=".7938438800000001" d="M197.652 136.95v-31.626h11.856v31.625Zm0 0"/><use xlink:href="#e" x="211.707" y="123.28"/><use xlink:href="#g" x="216.967" y="125.156"/><g clip-path="url(#h)"><path d="M77.844 160.922a1.58 1.58 0 1 0-3.16.003 1.58 1.58 0 0 0 3.16-.003m0 0"/></g><g clip-path="url(#i)"><path fill="none" stroke="#000" stroke-miterlimit="10" stroke-width=".39741996" d="M77.844 160.922a1.58 1.58 0 1 0-3.16.003 1.58 1.58 0 0 0 3.16-.003Zm0 0"/></g><path fill="none" stroke="#000" stroke-miterlimit="10" stroke-width=".39741996" d="M76.262 1.777v23.977m0 31.621v47.95m0 31.624v23.973"/><path fill="none" stroke="#000" stroke-miterlimit="10" stroke-width=".7938438800000001" d="M70.332 57.375V25.754h11.86v31.621Zm0 0"/><path stroke="#000" stroke-miterlimit="10" stroke-width=".39741996" d="M77.844 81.352a1.58 1.58 0 1 0-3.161-.004 1.58 1.58 0 0 0 3.16.004Zm0 0"/><use xlink:href="#e" x="59.166" y="43.708"/><use xlink:href="#j" x="64.426" y="45.584"/><path fill="none" stroke="#000" stroke-miterlimit="10" stroke-width=".7938438800000001" d="M70.332 136.95v-31.626h11.86v31.625Zm0 0"/><g clip-path="url(#k)"><path d="M77.844 160.922a1.58 1.58 0 1 0-3.16.003 1.58 1.58 0 0 0 3.16-.003m0 0"/></g><g clip-path="url(#l)"><path fill="none" stroke="#000" stroke-miterlimit="10" stroke-width=".39741996" d="M77.844 160.922a1.58 1.58 0 1 0-3.16.003 1.58 1.58 0 0 0 3.16-.003Zm0 0"/></g><use xlink:href="#e" x="59.166" y="123.28"/><use xlink:href="#m" x="64.426" y="125.156"/><path fill="none" stroke="#000" stroke-miterlimit="10" stroke-width=".39741996" d="M76.262 81.352H92.18m0 0h35.883m23.718 0h51.801"/><path fill="#FFF" stroke="#000" stroke-miterlimit="10" stroke-width=".39741996" d="M109.672 81.352a1.58 1.58 0 1 0-3.16-.005 1.58 1.58 0 0 0 3.16.005Zm0 0"/><path fill="none" stroke="#000" stroke-miterlimit="10" stroke-width=".7938438800000001" d="M139.922 69.492c-6.55 0-11.86 5.309-11.86 11.86 0 6.546 5.31 11.859 11.86 11.859s11.86-5.313 11.86-11.86c0-6.55-5.31-11.859-11.86-11.859Zm0 0"/><path fill="#FFF" stroke="#000" stroke-miterlimit="10" stroke-width=".39741996" d="M173.332 81.352a1.58 1.58 0 1 0-3.16-.004 1.58 1.58 0 0 0 3.16.004Zm0 0"/></svg>