<svg xmlns="http://www.w3.org/2000/svg" xmlns:xlink="http://www.w3.org/1999/xlink" width="226.535" height="129.47"><defs><path id="a" d="M2.234-.39q1.092.001 1.094-2.516-.002-2.515-1.094-2.516-1.094.001-1.093 2.516c0 1.68.363 2.515 1.093 2.515m-.03.5q-.88 0-1.376-.75Q.296-1.42.297-2.907c0-.977.187-1.735.562-2.266.352-.5.829-.75 1.422-.75q.873 0 1.36.75.528.784.53 2.266 0 1.47-.562 2.265-.533.75-1.406.75m0 0"/><path id="b" d="M5.844-6.172v.078c0 .168-.102.278-.297.328l-.234.047L3.28 0h-.734L.453-5.703l-.375-.094q-.124-.03-.125-.125c0-.05.035-.133.094-.25H2.03c.008.031.016.059.016.078 0 .168-.102.274-.297.313l-.375.093 1.64 4.782h.016L4.734-5.72l-.687-.093q-.127-.029-.125-.11c0-.039.031-.125.094-.25Zm0 0"/><path id="c" d="M2.484-3.031h1.563v.469H2.484v1.671h-.5v-1.671H.422v-.47h1.562v-1.655h.5Zm0 0"/><path id="d" d="M1.125-5.812h2.563l-.063.78H1.531l-.125 1.407q1.296.066 1.875.547c.364.305.547.765.547 1.39 0 .493-.18.915-.531 1.266q-.534.533-1.39.531Q1.185.108.827-.156a.61.61 0 0 1-.281-.516q0-.405.39-.547.171.376.282.5.31.328.843.328.514 0 .829-.328c.195-.207.297-.476.297-.812q0-.732-.563-1.047-.55-.328-1.781-.328Zm0 0"/><path id="e" d="M2.313-6.172q2.514 0 2.515 1.734-.002.893-.594 1.375-.644.502-1.875.5h-.484v2.079l.703.125q.124.017.125.093 0 .066-.094.266H.422a.16.16 0 0 1-.016-.078Q.404-.324.72-.406l.375-.078v-5.203l-.547-.125c-.086-.02-.125-.055-.125-.11q0-.075.094-.25Zm0 3.14q.841.002 1.296-.39.389-.34.391-.969 0-1.265-1.687-1.265h-.438v2.625Zm0 0"/><path id="f" d="M6.266-6.172c.007.031.015.059.015.078q0 .236-.312.313l-.422.093V0h-.531l-3.36-5.187h-.015v4.703l.609.125q.124.017.125.093 0 .048-.094.266H.421a.16.16 0 0 1-.015-.078Q.404-.324.72-.406l.375-.078v-5.203l-.547-.125c-.086-.02-.125-.055-.125-.11q0-.075.094-.25h1.422L5-1.437h.016v-4.25l-.563-.125c-.086-.02-.125-.055-.125-.11q-.001-.075.11-.25Zm0 0"/><path id="j" d="M5.875-2.266c0-1.5-1.25-2.656-2.656-2.656A2.667 2.667 0 0 0 .547-2.266C.547-.75 1.797.391 3.219.391a2.654 2.654 0 0 0 2.656-2.657M3.219-.016a2.25 2.25 0 0 1-2.25-2.25C.969-3.53 2.016-4.5 3.219-4.5c1.265 0 2.234 1.047 2.234 2.234A2.237 2.237 0 0 1 3.22-.016m.203-.25v-1.796h1.781c.11 0 .203-.079.203-.204a.207.207 0 0 0-.203-.203H3.422V-4.25c0-.11-.094-.203-.219-.203A.207.207 0 0 0 3-4.25v1.781H1.219a.207.207 0 0 0-.203.203c0 .125.093.204.203.204H3v1.796c0 .11.094.204.203.204.125 0 .219-.094.219-.204m0 0"/><path id="k" d="M5.875-2.266c0-1.5-1.25-2.656-2.656-2.656A2.667 2.667 0 0 0 .547-2.266C.547-.75 1.797.391 3.219.391a2.654 2.654 0 0 0 2.656-2.657M3.219-.016a2.25 2.25 0 0 1-2.25-2.25C.969-3.53 2.016-4.5 3.219-4.5c1.265 0 2.234 1.047 2.234 2.234A2.237 2.237 0 0 1 3.22-.016m-2-2.046h3.984c.11 0 .203-.079.203-.204a.207.207 0 0 0-.203-.203H1.22a.207.207 0 0 0-.203.203c0 .125.093.204.203.204m0 0"/><clipPath id="g"><path d="M.23 28h225.61v46H.23Zm0 0"/></clipPath><clipPath id="h"><path d="M93 97h40v31.941H93Zm0 0"/></clipPath><clipPath id="i"><path d="M120 108h2v20.941h-2Zm0 0"/></clipPath></defs><use xlink:href="#a" x="39.602" y="121.692"/><use xlink:href="#b" x="45.549" y="121.692"/><use xlink:href="#c" x="172.498" y="121.692"/><use xlink:href="#d" x="176.963" y="121.692"/><use xlink:href="#b" x="182.91" y="121.692"/><use xlink:href="#e" x="42.905" y="9.138"/><use xlink:href="#f" x="177.3" y="9.138"/><path fill="#7F7F7F" d="M90.516 73.621V28.578h45.043v45.043Zm0 0"/><g clip-path="url(#g)"><path fill="none" stroke="#000" stroke-miterlimit="10" stroke-width=".39737208" d="M.43 73.621V28.578h225.215v45.043Zm0 0"/></g><path fill="none" stroke="#000" stroke-miterlimit="10" stroke-width=".39737208" d="M67.992 118.664h37.14m15.81 0h37.14"/><g clip-path="url(#h)"><path fill="none" stroke="#000" stroke-miterlimit="10" stroke-width=".7937482400000001" d="m120.941 118.664-15.808-9.879v19.762Zm0 0"/></g><path fill="none" stroke="#000" stroke-miterlimit="10" stroke-width=".39737208" d="M120.941 118.664h-15.808"/><g clip-path="url(#i)"><path fill="none" stroke="#000" stroke-miterlimit="10" stroke-width=".7937482400000001" d="M120.941 128.547v-19.762"/></g><use xlink:href="#j" x="8.477" y="42.102"/><use xlink:href="#j" x="8.477" y="64.623"/><use xlink:href="#j" x="30.999" y="42.102"/><use xlink:href="#j" x="30.999" y="64.623"/><use xlink:href="#j" x="53.521" y="42.102"/><use xlink:href="#j" x="53.521" y="64.623"/><use xlink:href="#j" x="76.042" y="42.102"/><use xlink:href="#j" x="76.042" y="64.623"/><use xlink:href="#k" x="143.606" y="42.102"/><use xlink:href="#k" x="143.606" y="64.623"/><use xlink:href="#k" x="166.128" y="42.102"/><use xlink:href="#k" x="166.128" y="64.623"/><use xlink:href="#k" x="188.65" y="42.102"/><use xlink:href="#k" x="188.65" y="64.623"/><use xlink:href="#k" x="211.171" y="42.102"/><use xlink:href="#k" x="211.171" y="64.623"/></svg>