<svg xmlns="http://www.w3.org/2000/svg" xmlns:xlink="http://www.w3.org/1999/xlink" width="227.337" height="252.32"><defs><path id="a" d="M1.922-5.14c.39 0 .734.234.734.812 0 .437-.515 1.125-1.39 1.25l.046.297c.141-.031.313-.031.422-.031.516 0 1.172.156 1.172 1.156C2.906-.47 2.11-.22 1.796-.22c-.452 0-.53-.203-.64-.375-.093-.125-.203-.234-.39-.234-.188 0-.375.172-.375.312 0 .36.75.61 1.297.61 1.062 0 2-.688 2-1.875 0-.969-.735-1.313-1.25-1.406l-.016-.016c.734-.36.937-.719.937-1.188a.94.94 0 0 0-.28-.718c-.188-.188-.5-.344-.97-.344-1.312 0-1.687.86-1.687 1.156 0 .125.094.297.297.297.312 0 .36-.297.36-.453 0-.578.609-.688.843-.688m0 0"/><path id="b" d="M.547-4.187c0 .187.172.359.36.359.14 0 .421-.172.421-.36a.4.4 0 0 0-.047-.187c-.015-.062-.062-.14-.062-.219 0-.218.234-.547.875-.547.328 0 .781.22.781 1.079 0 .578-.203 1.046-.734 1.578l-.657.656C.61-.938.47-.516.47.016c0 0 .453-.016.734-.016h1.563c.297 0 .703.016.703.016.11-.47.203-1.141.219-1.407-.063-.046-.172-.062-.266-.046-.156.64-.297.859-.625.859H1.203c0-.438.625-1.047.672-1.078l.89-.875c.516-.485.907-.89.907-1.563 0-.968-.797-1.36-1.516-1.36-1 0-1.61.735-1.61 1.266m0 0"/><path id="c" d="M2.031.094c.688 0 1.735-.703 1.735-2.797 0-.89-.203-1.656-.61-2.172a1.32 1.32 0 0 0-1.078-.578c-.89 0-1.734 1.062-1.734 2.828 0 .953.297 1.844.797 2.344q.375.375.89.375m.047-5.235c.14 0 .297.063.39.157.282.234.532.906.532 2.109 0 .813-.031 1.375-.156 1.844-.203.734-.64.812-.797.812-.828 0-.922-1.531-.922-2.312 0-2.203.547-2.61.953-2.61m0 0"/><path id="e" d="M3.844-1.953h-.75v-2.61c0-.453 0-.796.031-.875l-.031-.015h-.281c-.063 0-.11.062-.141.094-.563.687-1.594 2.172-2.422 3.453.031.125.078.375.344.375h1.828v.812c0 .422-.344.422-.719.438-.062.062-.062.25 0 .297C1.984.016 2.343 0 2.75 0c.344 0 .688.016.984.016.047-.047.047-.235 0-.297-.453-.031-.64-.016-.64-.438v-.812h.625c.125 0 .265-.172.265-.282q0-.14-.14-.14M2.422-4.531v2.578H.719a45 45 0 0 1 1.703-2.578m0 0"/><path id="f" d="M2.844-1.687c0 .843-.438 1.468-.969 1.468-.344 0-.469-.218-.594-.39-.125-.157-.265-.297-.453-.297-.172 0-.344.156-.344.328 0 .375.766.672 1.266.672 1.11 0 1.89-.813 1.89-1.938 0-.875-.593-1.656-1.593-1.656-.39 0-.719.078-.875.14l.172-1.484c.343.032.625.078 1.047.078q.398 0 .937-.046l.156-.61-.062-.031c-.516.047-1 .094-1.469.094-.328 0-.656-.016-.969-.047L.672-2.828a2.9 2.9 0 0 1 1.14-.219c.579 0 1.032.39 1.032 1.36m0 0"/><path id="g" d="M2.578-1.094v-3.093c0-.547 0-1.079.016-1.204 0-.046-.016-.046-.047-.046-.485.312-.969.53-1.75.89.015.11.047.188.125.25.422-.172.61-.219.781-.219.156 0 .188.204.188.516v2.906c0 .75-.25.797-.875.813-.047.062-.047.25 0 .297C1.453.016 1.78 0 2.266 0c.422 0 .64.016 1.093.016.047-.047.047-.235 0-.297-.64-.016-.78-.063-.78-.813m0 0"/><path id="d" d="M3.328-1.812c0-.829-.672-1.422-1.437-1.422-.813 0-1.422.656-1.422 1.422C.469-1 1.125-.391 1.89-.391a1.43 1.43 0 0 0 1.437-1.421M1.891-.782a1.03 1.03 0 0 1-1.032-1.03c0-.594.485-1.047 1.032-1.047.593 0 1.047.484 1.047 1.047 0 .593-.485 1.03-1.047 1.03m0 0"/><path id="h" d="M2.234-.39q1.092.001 1.094-2.516-.002-2.515-1.094-2.516-1.094.001-1.093 2.516c0 1.68.363 2.515 1.093 2.515m-.03.5q-.88 0-1.376-.75Q.296-1.42.297-2.907c0-.977.187-1.735.562-2.266.352-.5.829-.75 1.422-.75q.873 0 1.36.75.528.784.53 2.266 0 1.47-.562 2.265-.533.75-1.406.75m0 0"/><path id="i" d="M.89-.922q.248.002.407.203.17.204.172.578 0 .592-.375.985c-.211.226-.414.344-.61.344-.093 0-.164-.086-.203-.25q.574-.3.61-.891a.5.5 0 0 1-.344-.125.47.47 0 0 1-.14-.344c0-.156.038-.273.124-.36a.48.48 0 0 1 .36-.14m0 0"/><path id="j" d="m.125-1.984 2.531-3.797.672-.063v3.64h.75l-.047.688h-.703v1.032l.61.125q.123.017.124.093 0 .048-.093.266H1.906v-.078q0-.246.297-.328l.39-.078v-1.032H.157Zm.734-.22h1.735V-4.89h-.016L.86-2.219Zm0 0"/><path id="k" d="M3.703-4.766a1.04 1.04 0 0 0-.328-.421 1.24 1.24 0 0 0-.734-.235q-1.378 0-1.485 2.344a1.95 1.95 0 0 1 1.219-.406q.762.002 1.219.39c.344.274.515.688.515 1.25q-.001.798-.5 1.36c-.355.398-.808.593-1.359.593-.625 0-1.102-.257-1.422-.78Q.36-1.407.36-2.72.357-3.966.953-4.875c.445-.695 1.063-1.047 1.844-1.047q.622 0 .969.219.328.205.328.469c0 .242-.133.398-.39.468M1.156-2.625q.029 1.127.344 1.703.31.533.813.531.451.001.734-.343.28-.358.281-1.032-.002-1.202-1-1.203-.75.002-1.172.344m0 0"/><path id="l" d="M2.938-3.031Q4.029-2.544 4.03-1.5q0 .737-.547 1.188c-.343.28-.773.421-1.28.421q-.77 0-1.25-.39Q.42-.716.421-1.453q0-.92 1.14-1.453C.907-3.226.579-3.72.579-4.375c0-.437.164-.8.5-1.094a1.75 1.75 0 0 1 1.188-.453c.488 0 .879.133 1.172.39q.451.394.453 1.063-.002.91-.953 1.438m-.407-.172q.656-.405.656-1.266 0-.404-.234-.656c-.18-.195-.43-.297-.75-.297-.281 0-.508.094-.672.281a.98.98 0 0 0-.25.672q0 .516.344.797c.164.156.469.313.906.469m-.562.484c-.524.293-.782.715-.782 1.266q0 .456.282.766.28.297.75.296c.32 0 .578-.093.765-.28q.296-.295.297-.735 0-.48-.36-.797-.268-.234-.952-.516m0 0"/><path id="m" d="M2.031-.578V-5l-1.344.25a1 1 0 0 1-.015-.187c0-.133.07-.227.219-.282l1.468-.593h.454v5.234l1.078.172q.14.016.14.11-.002.08-.11.296H.86v-.078q0-.311.282-.36Zm0 0"/><path id="n" d="M2.656-2.781q0-.591-.172-.86-.175-.28-.609-.28a1.5 1.5 0 0 0-.531.093q-.11.22-.203.781a2 2 0 0 1-.188.016q-.438 0-.437-.39 0-.405.468-.688a1.97 1.97 0 0 1 1.032-.282q1.373 0 1.375 1.5v1.97c0 .335.101.5.312.5q.2 0 .313-.11a.38.38 0 0 1 .093.25c0 .062-.058.133-.171.203a.87.87 0 0 1-.532.156q-.628 0-.687-.61h-.016Q2.28.112 1.47.11.966.11.656-.203.343-.514.344-1.031c0-.438.219-.774.656-1.016.383-.195.86-.297 1.422-.297h.234Zm-.89 2.328q.498 0 .89-.469v-1.031l-.234.016q-1.299.11-1.297.812c0 .45.21.672.64.672m0 0"/><path id="o" d="M.656-5.937 0-6.031a.2.2 0 0 1-.016-.078q0-.247.344-.266l1.047-.11v2.704h.031q.498-.61 1.313-.61.715 0 1.156.47.499.548.5 1.655 0 1.19-.703 1.813-.628.562-1.594.562-.893 0-1.422-.312Zm1.735 2.14c-.43 0-.766.14-1.016.422v2.719q.375.251.89.25 1.36.001 1.36-1.75c0-.57-.125-1-.375-1.281q-.33-.36-.86-.36m0 0"/><path id="p" d="M3.563-.844q.123.128.124.25 0 .222-.359.438-.44.265-1.078.265-.844 0-1.344-.562-.515-.563-.515-1.64c0-.72.21-1.29.64-1.72.407-.382.914-.578 1.532-.578.414 0 .726.086.937.25.164.125.25.274.25.438q0 .392-.375.484c-.219-.457-.555-.687-1-.687a1.07 1.07 0 0 0-.844.375q-.361.44-.36 1.25 0 1.862 1.36 1.86.657 0 1.031-.423m0 0"/><path id="q" d="M3.422-.516H3.39Q2.935.11 2.109.11 1.39.11.922-.359.39-.903.39-2.016q0-1.168.703-1.812.609-.563 1.5-.563c.27 0 .523.04.765.11v-1.657l-.656-.093v-.078q0-.247.328-.266l1.047-.11v6l.656.079q.014.047.016.078 0 .252-.328.281l-1 .094Zm-1.094.047q.64 0 1.031-.39v-2.72c-.218-.206-.507-.312-.859-.312-.398 0-.719.149-.969.438q-.39.468-.39 1.312-.001.846.343 1.282.294.39.844.39m0 0"/><path id="r" d="M3.906-4.484c0-.016 0-.032-.031-.032-.11.032-.156.032-.312.032H1.875c-.266 0-.531 0-.844-.016l-.015.016-.032.14c0 .016 0 .047.047.047l.188.016c.218.015.297.062.297.218v.094L.828-.5c-.031.188-.125.281-.39.297l-.204.016c-.047 0-.062.03-.062.046L.14 0l.015.016C.47 0 .75 0 1 0h1.438c.312 0 .843.016.843.016.14-.36.328-.797.469-1.157l-.203-.046c-.219.5-.563.921-1.078.921h-.89c-.126 0-.22-.03-.22-.171 0-.016 0-.032.016-.063l.328-1.75h.86c.203 0 .28.047.28.219v.047l-.015.172c0 .03 0 .062.031.062h.157l.03-.016a6 6 0 0 1 .095-.609c.015-.14.062-.344.14-.625l-.015-.031h-.157c-.015 0-.046.031-.062.062L3-2.797c-.062.188-.156.281-.39.281h-.844l.28-1.453c.032-.172.126-.234.298-.234h.687c.5 0 .578.281.625.75l.203-.031c.016-.282.047-.953.047-1m0 0"/><path id="s" d="M.844-1.781c0-.14-.016-.328-.031-.375C.797-2.187.78-2.203.75-2.203c-.14.062-.266.11-.61.156-.015.031 0 .11 0 .14.266.016.329.048.329.329v.969c0 .406-.063.437-.344.453-.031.031-.031.14 0 .172C.281 0 .469 0 .672 0c.187 0 .344 0 .5.016.031-.032.031-.141 0-.172C.922-.172.859-.203.859-.61v-.813c0-.11.047-.156.079-.203.203-.203.39-.297.546-.297.188 0 .329.125.329.453v.86c0 .406-.047.437-.313.453-.031.031-.031.14 0 .172C1.625 0 1.813 0 2 0c.203 0 .375 0 .5.016a.3.3 0 0 0 0-.172c-.25-.016-.297-.047-.297-.453v-.985c.235-.265.453-.328.656-.328.188 0 .297.11.297.438v.875c0 .406-.062.437-.312.453-.031.031-.031.14 0 .172C2.969 0 3.156 0 3.344 0c.203 0 .375 0 .515.016.032-.032.032-.141 0-.172-.265-.016-.312-.047-.312-.453v-.782c0-.437-.078-.796-.516-.796-.25 0-.562.093-.812.374-.016.016-.047.032-.063 0a.5.5 0 0 0-.5-.375c-.281 0-.547.172-.75.407-.031.031-.062.062-.062 0m0 0"/><path id="t" d="M1.453-.234c.031.156.094.28.328.28a.69.69 0 0 0 .485-.187c-.016-.047-.032-.093-.094-.125A.3.3 0 0 1 2-.187c-.156 0-.156-.188-.156-.422v-.735c0-.703-.39-.843-.75-.843-.407 0-.828.28-.828.562 0 .11.062.172.187.172.14 0 .235-.11.235-.172 0-.031-.016-.062-.016-.078-.016-.016-.016-.047-.016-.11 0-.156.203-.203.39-.203.173 0 .407.079.407.641 0 .031-.016.063-.031.063L1-1.203c-.484.11-.828.375-.828.719 0 .406.281.53.64.53.172 0 .313-.03.532-.202Zm0-.922V-.5c0 .063-.031.094-.062.125-.141.11-.297.219-.438.219A.35.35 0 0 1 .593-.5c0-.234.11-.453.47-.547Zm0 0"/><path id="u" d="M.906-1.781c-.11-.172-.078-.172.14-.203.032-.016.032-.125 0-.157-.124 0-.343.016-.5.016-.155 0-.296-.016-.421-.016-.031.032-.031.141 0 .157.156.015.297.109.438.312L1-1.047c.031.031.031.047 0 .078l-.406.532c-.203.265-.313.28-.485.28-.03.032-.03.141 0 .173C.203 0 .313 0 .47 0c.14 0 .281 0 .406.016.031-.032.031-.141 0-.172C.703-.172.656-.187.765-.36l.313-.453c.047-.047.063-.047.094 0l.281.39c.188.25.11.25-.062.266-.032.031-.032.14 0 .172C1.547 0 1.703 0 1.89 0c.187 0 .328 0 .437.016.031-.032.031-.141 0-.172-.219-.016-.297-.031-.5-.313l-.437-.625c-.032-.031-.032-.047 0-.078l.406-.531c.187-.234.312-.266.484-.281.031-.016.031-.125 0-.157-.094 0-.203.016-.36.016-.14 0-.28-.016-.421-.016-.031.032-.031.141 0 .157.188.03.25.046.125.203l-.328.453c-.031.062-.047.047-.094 0Zm0 0"/></defs><path fill="none" stroke="#BFBFBF" stroke-miterlimit="10" stroke-width=".39783891000000005" d="M10.406 105.133 160.68 231.227M7.27 109.617 177.152 207.7M4.957 114.574l184.336 67.094M3.539 119.859l193.188 34.063M3.063 125.309H199.23M3.54 130.758l193.187-34.063M4.957 136.043l184.336-67.094M7.27 141.004l169.882-98.086M10.406 145.484 160.68 19.391M78.84 169.695c24.512-24.511 24.512-64.257 0-88.773m11.094 99.871c30.644-30.645 30.644-80.324 0-110.969m11.097 122.067c36.774-36.774 36.774-96.391 0-133.164m11.098 144.261c42.902-42.902 42.902-112.457 0-155.355m11.098 166.453c49.027-49.031 49.027-128.523 0-177.55M134.32 225.18c55.16-55.157 55.16-144.582 0-199.742m11.098 210.84c61.289-61.286 61.289-160.65 0-221.938"/><path fill="none" stroke="#7F7F7F" stroke-miterlimit="10" stroke-width=".19842091" d="m160.68 231.227 3.246 2.726m13.226-26.254 3.672 2.121m8.469-28.152 3.984 1.45m3.45-29.196 4.175.738m-1.672-29.351h4.239m-6.742-28.614 4.175-.734m-11.609-27.012 3.984-1.449m-16.125-24.582 3.672-2.117M160.68 19.39l3.246-2.727M78.84 80.922l-3-2.996m14.094-8.102-2.997-2.996m14.094-8.101-2.996-2.997m14.094-8.097-3-3m14.098-8.098-3-3m14.093-8.097-2.996-2.997m14.094-8.101-2.996-2.996"/><use xlink:href="#a" x="165.542" y="245.565"/><use xlink:href="#b" x="169.699" y="245.565"/><use xlink:href="#c" x="173.857" y="245.565"/><use xlink:href="#d" x="178.014" y="242.212"/><use xlink:href="#a" x="183.815" y="219.621"/><use xlink:href="#a" x="187.972" y="219.621"/><use xlink:href="#c" x="192.129" y="219.621"/><use xlink:href="#d" x="196.287" y="216.268"/><use xlink:href="#a" x="196.816" y="190.708"/><use xlink:href="#e" x="200.973" y="190.708"/><use xlink:href="#c" x="205.13" y="190.708"/><use xlink:href="#d" x="209.288" y="187.356"/><use xlink:href="#a" x="204.078" y="159.954"/><use xlink:href="#f" x="208.235" y="159.954"/><use xlink:href="#c" x="212.392" y="159.954"/><use xlink:href="#d" x="216.549" y="156.602"/><use xlink:href="#c" x="209.249" y="128.583"/><use xlink:href="#d" x="213.407" y="125.231"/><use xlink:href="#g" x="204.14" y="97.562"/><use xlink:href="#c" x="208.297" y="97.562"/><use xlink:href="#d" x="212.454" y="94.21"/><use xlink:href="#b" x="197.059" y="67.126"/><use xlink:href="#c" x="201.217" y="67.126"/><use xlink:href="#d" x="205.374" y="63.774"/><use xlink:href="#a" x="184.334" y="38.445"/><use xlink:href="#c" x="188.492" y="38.445"/><use xlink:href="#d" x="192.648" y="35.093"/><use xlink:href="#e" x="166.401" y="12.625"/><use xlink:href="#c" x="170.558" y="12.625"/><use xlink:href="#d" x="174.715" y="9.273"/><path fill="none" stroke="#000" stroke-miterlimit="10" stroke-width="1.19251964" d="M34.45 125.309h.011c.004-.004.016-.004.023-.008.008-.004.024-.008.036-.012.015-.008.042-.016.066-.027.027-.012.07-.032.11-.047.034-.02.105-.05.156-.082.054-.028.152-.078.226-.121s.211-.125.309-.188c.101-.062.281-.18.414-.265.129-.09.36-.25.527-.372.168-.117.465-.335.672-.492.207-.16.574-.441.828-.644s.695-.563 1.004-.813A117 117 0 0 0 41.445 120a383.475 383.475 0 0 0 3.566-3.164c.571-.508 1.54-1.379 2.188-1.957s1.754-1.566 2.492-2.215a305.27 305.27 0 0 1 5.965-5.148 273 273 0 0 1 3.516-2.891 260 260 0 0 1 3.89-3.059c1.137-.863 3.047-2.289 4.297-3.183 1.25-.895 3.344-2.348 4.707-3.254a189 189 0 0 1 5.13-3.266c1.48-.894 3.94-2.32 5.534-3.183a151 151 0 0 1 5.946-3.043c1.703-.813 4.523-2.074 6.332-2.809a132 132 0 0 1 6.703-2.496c1.906-.637 5.047-1.586 7.031-2.098 1.985-.511 5.227-1.222 7.27-1.582 2.043-.359 5.375-.82 7.46-1.011 2.09-.188 5.477-.364 7.587-.368 2.109-.003 5.503.141 7.605.34 2.102.196 5.477.672 7.531 1.082 2.055.414 5.305 1.258 7.285 1.89 1.98.634 5.11 1.821 6.985 2.673 1.875.847 4.789 2.394 6.523 3.453 1.735 1.062 4.41 2.941 5.973 4.203 1.562 1.258 3.93 3.441 5.281 4.887 1.356 1.441 3.348 3.914 4.465 5.515 1.113 1.598 2.715 4.293 3.578 6.02.86 1.727 2.031 4.605 2.617 6.426.586 1.824 1.301 4.828 1.602 6.707.3 1.879.57 4.941.57 6.84 0 1.898-.265 4.96-.566 6.843-.305 1.88-1.02 4.88-1.606 6.703-.586 1.82-1.77 4.696-2.629 6.422-.859 1.73-2.453 4.426-3.566 6.028-1.117 1.601-3.11 4.066-4.465 5.511-1.351 1.442-3.719 3.63-5.281 4.891-1.563 1.262-4.238 3.137-5.973 4.2-1.73 1.062-4.648 2.605-6.523 3.456-1.875.848-5.004 2.035-6.985 2.668-1.98.633-5.23 1.477-7.285 1.89-2.054.415-5.433.888-7.53 1.087-2.099.195-5.493.344-7.599.34s-5.5-.176-7.586-.368c-2.09-.19-5.421-.652-7.468-1.011a117 117 0 0 1-7.27-1.586c-1.984-.508-5.125-1.461-7.031-2.094-1.906-.637-4.89-1.758-6.695-2.492-1.809-.735-4.63-1.996-6.336-2.809-1.703-.812-4.356-2.183-5.95-3.047a166 166 0 0 1-5.53-3.183 177 177 0 0 1-5.13-3.266c-1.367-.906-3.46-2.36-4.707-3.254-1.25-.894-3.164-2.32-4.3-3.187a237 237 0 0 1-3.891-3.059 274 274 0 0 1-3.516-2.887 361 361 0 0 1-3.152-2.69 526.254 526.254 0 0 1-5.305-4.672c-.648-.579-1.617-1.45-2.187-1.958l-1.91-1.707c-.497-.437-1.23-1.086-1.657-1.46a353 353 0 0 0-1.414-1.227c-.363-.309-.894-.754-1.199-1.008-.309-.254-.75-.613-1.004-.817a43 43 0 0 0-.828-.64c-.207-.16-.504-.375-.668-.496-.168-.118-.402-.282-.531-.368-.133-.09-.313-.203-.414-.265-.098-.067-.235-.145-.309-.188a5 5 0 0 0-.492-.254c-.024-.007-.05-.02-.066-.023-.012-.008-.028-.012-.036-.016-.007 0-.02-.004-.023-.004-.004 0-.004-.003-.008-.003h-.004"/><path fill="none" stroke="#000" stroke-miterlimit="10" stroke-width="1.19251964" d="M34.45 125.309q.001.004-.005.003-.004.005-.008.004c0 .004-.003.004-.007.008l-.016.012q-.007.002-.02.016c-.003.003-.019.011-.027.02l-.039.034-.058.047-.07.063-.098.086c-.032.023-.086.074-.13.105-.038.035-.109.094-.16.137-.05.043-.136.117-.199.168l-.25.199-.304.238c-.094.07-.258.196-.372.274a20 20 0 0 1-.953.648c-.152.098-.418.258-.597.363-.176.102-.48.274-.68.38-.203.105-.547.277-.773.382-.227.11-.61.277-.864.379-.25.102-.668.262-.941.355a18 18 0 0 1-2.106.575 18 18 0 0 1-1.14.187c-.32.04-.848.086-1.172.098-.328.015-.852.012-1.176-.004a14 14 0 0 1-1.164-.117c-.316-.047-.82-.153-1.121-.235-.3-.082-.773-.238-1.05-.351a9 9 0 0 1-.95-.469 7 7 0 0 1-.816-.578 5.6 5.6 0 0 1-.66-.668 5 5 0 0 1-.493-.742 4.7 4.7 0 0 1-.304-.797 4 4 0 0 1-.106-.82c0-.227.05-.598.106-.82a4.7 4.7 0 0 1 .304-.794c.11-.215.332-.547.492-.742.16-.2.457-.5.66-.672s.575-.43.817-.574c.246-.148.672-.355.95-.473.277-.113.75-.27 1.05-.351.3-.082.805-.184 1.121-.235.317-.046.84-.097 1.164-.113.324-.02.848-.02 1.176-.008.324.016.852.063 1.172.102s.828.125 1.137.187c.312.059.796.18 1.09.258a18 18 0 0 1 1.96.668c.254.102.637.274.864.38a20 20 0 0 1 2.05 1.128c.157.098.383.246.516.336s.324.23.437.309c.114.082.274.203.368.273s.23.176.308.238c.074.063.188.149.25.203.063.051.149.125.2.164.05.043.12.106.16.137.043.035.097.082.129.11.03.027.074.062.097.082l.07.062c.02.016.043.04.06.047.01.012.026.027.038.035l.028.024.02.015q.006.006.015.012.006.002.007.004.004.005.008.004v.004h.004"/><path fill="#FFF" d="M88.848 138.566h16.75v-13.058h-16.75Zm0 0"/><use xlink:href="#h" x="91.827" y="134.406"/><use xlink:href="#i" x="96.297" y="134.406"/><use xlink:href="#j" x="98.148" y="134.406"/><path fill="#FFF" d="M120.234 138.566h16.75v-13.058h-16.75Zm0 0"/><use xlink:href="#h" x="123.214" y="134.406"/><use xlink:href="#i" x="127.684" y="134.406"/><use xlink:href="#k" x="129.534" y="134.406"/><path fill="#FFF" d="M151.621 138.566h16.75v-13.058h-16.75Zm0 0"/><use xlink:href="#h" x="154.6" y="134.406"/><use xlink:href="#i" x="159.07" y="134.406"/><use xlink:href="#l" x="160.921" y="134.406"/><path fill="#FFF" d="M186.168 137.277h10.43v-11.77h-10.43Zm0 0"/><use xlink:href="#m" x="189.146" y="134.298"/><path fill="#FFF" d="M186.316 125.11h10.133v-10.465h-10.133Zm0 0"/><use xlink:href="#n" x="189.294" y="122.023"/><path fill="#FFF" d="M162.477 125.11h10.734v-12.555h-10.734Zm0 0"/><use xlink:href="#o" x="165.454" y="122.023"/><path fill="#FFF" d="M139.313 125.11h9.984v-10.465h-9.984Zm0 0"/><use xlink:href="#p" x="142.291" y="122.023"/><path fill="#FFF" d="M107.469 125.11h10.894v-12.555H107.47Zm0 0"/><use xlink:href="#q" x="110.449" y="122.023"/><path fill="none" stroke="#000" stroke-miterlimit="10" stroke-width=".7946807300000001" d="M3.063 125.309h199.414"/><path stroke="#000" stroke-miterlimit="10" stroke-width=".7946807300000001" d="m206.281 125.309-3.61-2.176v4.351Zm0 0"/><use xlink:href="#r" x="205.215" y="133"/><path fill="none" stroke="#000" stroke-miterlimit="10" stroke-width=".45168177000000004" d="M200.75 135.227h12.648"/><use xlink:href="#r" x="200.752" y="141.901"/><use xlink:href="#s" x="204.472" y="143.361"/><use xlink:href="#t" x="208.395" y="143.361"/><use xlink:href="#u" x="210.665" y="143.361"/><path fill="none" stroke="#000" stroke-miterlimit="10" stroke-width="1.19251964" d="M34.45 144.02v-37.426m7.019 35.09v-32.75m7.015 30.41v-28.07m7.02 25.73v-23.39m7.016 21.05V115.95m7.02 16.375V118.29"/></svg>