<svg xmlns="http://www.w3.org/2000/svg" xmlns:xlink="http://www.w3.org/1999/xlink" width="226.814" height="125.65"><defs><path id="d" d="M3.125-1.094V-4.5c0-.578.094-.922.422-.922h.187c.672 0 1.094.234 1.25.922.094 0 .22 0 .297-.047a9 9 0 0 1-.11-1.266l-.03-.03c-.313.03-1.297.077-2 .077h-.766c-.687 0-1.75-.046-2.094-.078-.015 0-.031.032-.031.032a10 10 0 0 1-.219 1.296.9.9 0 0 0 .297.047c.188-.718.594-.953 1.188-.953h.437c.328 0 .422.344.422.89v3.438c0 .75-.156.797-.875.813-.047.062-.047.25 0 .297C1.938.016 2.39 0 2.75 0c.344 0 .797.016 1.25.016.047-.047.047-.235 0-.297-.719-.016-.875-.063-.875-.813m0 0"/><path id="e" d="M.547-4.187c0 .187.172.359.36.359.14 0 .421-.172.421-.36a.4.4 0 0 0-.047-.187c-.015-.062-.062-.14-.062-.219 0-.218.234-.547.875-.547.328 0 .781.22.781 1.079 0 .578-.203 1.046-.734 1.578l-.657.656C.61-.938.47-.516.47.016c0 0 .453-.016.734-.016h1.563c.297 0 .703.016.703.016.11-.47.203-1.141.219-1.407-.063-.046-.172-.062-.266-.046-.156.64-.297.859-.625.859H1.203c0-.438.625-1.047.672-1.078l.89-.875c.516-.485.907-.89.907-1.563 0-.968-.797-1.36-1.516-1.36-1 0-1.61.735-1.61 1.266m0 0"/><path id="f" d="M1.922-5.14c.39 0 .734.234.734.812 0 .437-.515 1.125-1.39 1.25l.046.297c.141-.031.313-.031.422-.031.516 0 1.172.156 1.172 1.156C2.906-.47 2.11-.22 1.796-.22c-.452 0-.53-.203-.64-.375-.093-.125-.203-.234-.39-.234-.188 0-.375.172-.375.312 0 .36.75.61 1.297.61 1.062 0 2-.688 2-1.875 0-.969-.735-1.313-1.25-1.406l-.016-.016c.734-.36.937-.719.937-1.188a.94.94 0 0 0-.28-.718c-.188-.188-.5-.344-.97-.344-1.312 0-1.687.86-1.687 1.156 0 .125.094.297.297.297.312 0 .36-.297.36-.453 0-.578.609-.688.843-.688m0 0"/><path id="h" d="m.938-3.828-.47.015c-.171.016-.234.079-.25.157a1 1 0 0 0-.046.156c0 .016.031.016.062.016H.86L.313-1.047C.25-.766.188-.484.188-.328c0 .328.156.422.437.422.406 0 1-.375 1.297-.922C1.89-.953 1.828-1 1.719-1c-.407.469-.563.547-.703.547C.984-.453.89-.47.89-.578c0-.078.03-.25.093-.563l.532-2.343h.875c.109-.047.187-.282.093-.344h-.89l.093-.406c.032-.172.125-.438.125-.532 0-.156-.078-.25-.359-.25-.328 0-.312.407-.406.735Zm0 0"/><path id="i" d="M1.828.094c1.75 0 2.375-1.14 2.672-2.735l.484-2.453c.047-.25.188-.39.563-.406l.219-.016c.046 0 .078-.03.078-.078l.031-.172-.016-.015c-.406 0-.75.015-.937.015-.203 0-.547-.015-.938-.015l-.03.015-.032.172c0 .047.031.078.062.078l.22.016c.296.016.405.094.405.281 0 .032 0 .078-.015.125l-.516 2.625c-.187 1-.547 2.188-2 2.188-.422 0-.734-.188-.937-.438C.953-.969.906-1.25.906-1.53s.047-.594.11-.875L1.53-5.11c.063-.25.203-.375.563-.391l.219-.016c.046 0 .078-.03.078-.078l.046-.172-.03-.015c-.391 0-.75.015-1.094.015S.64-5.78.234-5.78l-.03.015-.032.172c0 .047.031.078.062.078l.22.016c.28.016.405.078.405.266 0 .046 0 .078-.015.125l-.578 3a3 3 0 0 0-.063.625c0 1.28.953 1.578 1.625 1.578m0 0"/><clipPath id="a"><path d="M.223 73H223v2H.223Zm0 0"/></clipPath><clipPath id="b"><path d="M217 66h9.406v16H217Zm0 0"/></clipPath><clipPath id="c"><path d="M27 15h1v110.3h-1Zm0 0"/></clipPath><clipPath id="g"><path d="M.422 31H33v86H.422Zm0 0"/></clipPath></defs><path fill="none" stroke="#7F7F7F" stroke-miterlimit="10" stroke-width=".19844678000000002" d="M81.059 76.16v-4.242m53.761 4.242v-4.242m53.758 4.242v-4.242"/><g clip-path="url(#a)"><path fill="none" stroke="#000" stroke-miterlimit="10" stroke-width=".39789078" d="M.422 74.04h222.324"/></g><path d="m225.813 74.04-2.965-1.759v3.516Zm0 0"/><g clip-path="url(#b)"><path fill="none" stroke="#000" stroke-miterlimit="10" stroke-width=".39789078" d="m225.812 74.04-2.964-1.759v3.516Zm0 0"/></g><g clip-path="url(#c)"><path fill="none" stroke="#000" stroke-miterlimit="10" stroke-width=".39789078" d="M27.3 125.102V15.496"/></g><path stroke="#000" stroke-miterlimit="10" stroke-width=".39789078" d="m27.3 12.43-1.757 2.965h3.516Zm0 0"/><use xlink:href="#d" x="78.391" y="85.177"/><use xlink:href="#e" x="130.071" y="85.177"/><use xlink:href="#d" x="134.228" y="85.177"/><use xlink:href="#f" x="183.829" y="85.177"/><use xlink:href="#d" x="187.987" y="85.177"/><g clip-path="url(#g)"><path fill="none" stroke="#000" stroke-dasharray="2.9805210526 2.9805210526" stroke-miterlimit="10" stroke-width=".39789078" d="M-26.457 37.563s.387.03.535.074c.149.039.39.133.54.215.148.078.386.238.534.359.153.117.391.34.54.5.148.156.39.441.538.637.149.195.387.543.536.777.152.234.39.64.539.91.148.27.386.735.539 1.04a42 42 0 0 1 1.074 2.452 68 68 0 0 1 1.074 2.922c.149.434.387 1.156.54 1.621a177.329 177.329 0 0 1 1.074 3.527c.148.516.386 1.36.539 1.895.148.54.386 1.418.535 1.973.148.558.39 1.469.539 2.043a407 407 0 0 1 1.074 4.258c.148.605.387 1.586.539 2.203.148.613.387 1.61.535 2.234l.54 2.262c.148.633.386 1.648.538 2.281l.535 2.293.54 2.29c.148.632.386 1.651.535 2.28.152.63.39 1.641.539 2.262a924.37 924.37 0 0 0 1.074 4.437 406.547 406.547 0 0 0 1.074 4.258c.153.579.39 1.489.54 2.043a226 226 0 0 0 1.073 3.868c.153.515.391 1.32.54 1.812a112.577 112.577 0 0 0 1.074 3.336 73 73 0 0 0 1.074 2.922c.152.375.39.945.539 1.289.148.34.39.86.54 1.164.148.309.386.77.534 1.043.153.27.39.676.54.91.148.23.386.578.538.774.149.199.387.48.536.64.148.156.39.38.539.5.148.117.386.278.535.36.152.078.39.175.539.214.148.04.39.07.539.07.148 0 .387-.03.535-.07.152-.039.39-.136.54-.214.148-.082.386-.243.538-.36a7 7 0 0 0 .535-.5c.149-.16.39-.441.54-.64.148-.196.386-.543.535-.774.152-.234.39-.64.539-.91.148-.273.386-.734.539-1.043a37 37 0 0 0 1.074-2.453c.148-.375.387-1 .539-1.406.148-.403.387-1.078.535-1.516.149-.434.39-1.156.54-1.617a155 155 0 0 0 1.073-3.531c.149-.512.387-1.36.54-1.895.148-.535.386-1.414.535-1.973.148-.554.39-1.464.539-2.043.148-.574.386-1.511.539-2.101.148-.59.386-1.55.535-2.156.148-.606.39-1.586.539-2.2.148-.617.387-1.613.535-2.238.152-.621.39-1.633.54-2.262.148-.629.386-1.648.538-2.28l.535-2.29.54-2.293a2001.96 2001.96 0 0 1 1.074-4.543c.148-.625.39-1.621.539-2.234.148-.617.386-1.598.535-2.203.152-.602.39-1.563.539-2.157a375.491 375.491 0 0 1 1.074-4.145 243.307 243.307 0 0 1 1.074-3.867c.153-.511.391-1.32.54-1.808a116 116 0 0 1 1.074-3.34c.152-.433.39-1.11.539-1.515a51 51 0 0 1 1.074-2.692 28.28 28.28 0 0 1 1.074-2.207c.152-.27.39-.676.54-.91.148-.234.39-.582.538-.777s.387-.48.535-.637c.153-.16.391-.383.54-.5.148-.121.386-.281.539-.36.148-.081.386-.175.535-.214a4 4 0 0 1 .539-.074"/></g><path fill="none" stroke="#000" stroke-miterlimit="10" stroke-width=".39789078" d="M27.3 37.563s.387.03.536.074c.152.039.39.133.539.215.148.078.39.238.54.359.147.117.386.34.534.5.153.156.39.441.54.637.148.195.386.543.538.777a21 21 0 0 1 1.075 1.95 42 42 0 0 1 1.074 2.452c.148.375.386 1 .539 1.407a95 95 0 0 1 1.074 3.136c.148.461.387 1.227.54 1.72a178 178 0 0 1 1.608 5.675c.153.558.391 1.469.54 2.043.148.574.386 1.512.539 2.101l.535 2.157c.148.605.39 1.586.539 2.203.148.613.387 1.61.539 2.234l.535 2.262c.148.633.39 1.648.54 2.281l.534 2.293c.153.633.39 1.656.54 2.29.148.632.386 1.651.538 2.28.149.63.387 1.641.536 2.262.148.625.39 1.621.539 2.238.148.614.386 1.594.539 2.2.148.605.386 1.566.535 2.156a404 404 0 0 0 1.074 4.144c.152.559.39 1.438.54 1.973a179.372 179.372 0 0 0 1.074 3.707 112.577 112.577 0 0 0 1.074 3.336c.152.438.39 1.113.539 1.516a54.184 54.184 0 0 0 1.074 2.695c.152.34.39.86.539 1.164a20.847 20.847 0 0 0 1.074 1.953c.149.23.39.578.54.774.148.199.386.48.534.64.153.156.391.38.54.5.148.117.39.278.538.36.149.078.387.175.536.214.152.04.39.07.539.07.148 0 .386-.03.539-.07.148-.039.386-.136.535-.214.148-.082.39-.243.539-.36a7 7 0 0 0 .535-.5c.152-.16.39-.441.54-.64.148-.196.39-.543.538-.774A21 21 0 0 0 58.48 106c.149-.305.387-.824.54-1.164a54 54 0 0 0 1.609-4.211c.152-.434.39-1.156.539-1.617.148-.465.387-1.23.539-1.719a179 179 0 0 0 1.074-3.707c.149-.535.387-1.414.54-1.973a404.141 404.141 0 0 0 1.074-4.145c.148-.589.386-1.55.535-2.155.152-.606.39-1.586.539-2.2.148-.617.386-1.613.539-2.238.148-.621.387-1.633.535-2.262l.539-2.28c.148-.634.387-1.657.54-2.29l.534-2.293.54-2.281.534-2.262c.153-.625.391-1.621.54-2.234a874.182 874.182 0 0 1 1.074-4.36 404 404 0 0 1 1.074-4.144c.152-.555.39-1.434.539-1.973a178.333 178.333 0 0 1 1.074-3.703c.153-.492.39-1.258.54-1.719a94.583 94.583 0 0 1 1.074-3.137 53.767 53.767 0 0 1 1.074-2.691c.152-.34.39-.86.539-1.168a20.847 20.847 0 0 1 1.074-1.95c.152-.233.39-.581.54-.776.148-.196.386-.48.538-.637.149-.16.387-.383.535-.5.149-.121.39-.281.54-.36.148-.081.386-.175.535-.214.152-.043.39-.074.539-.074.148 0 .39.03.539.074.148.039.386.133.535.215.152.078.39.238.539.359.148.117.387.34.539.5.148.156.387.441.535.637.149.195.39.543.54.777a21 21 0 0 1 1.073 1.95c.149.308.387.827.54 1.167a54 54 0 0 1 1.074 2.692c.148.406.386 1.082.539 1.515a115.635 115.635 0 0 1 1.61 5.148c.151.516.39 1.36.538 1.895.149.54.387 1.418.54 1.973a376 376 0 0 1 1.073 4.144c.149.594.387 1.555.54 2.157.148.605.386 1.586.535 2.203.148.613.39 1.61.539 2.234a2002 2002 0 0 1 1.074 4.543c.148.637.387 1.656.539 2.293l.535 2.29.54 2.28c.148.63.386 1.641.538 2.262l.535 2.238c.149.614.391 1.594.54 2.2.148.605.386 1.566.535 2.156.152.59.39 1.527.539 2.101.148.579.386 1.489.539 2.043.148.559.386 1.438.535 1.973a202 202 0 0 0 1.074 3.707c.152.488.39 1.254.54 1.719.148.46.39 1.183.538 1.617.149.438.387 1.113.535 1.516.153.406.391 1.03.54 1.406a37.252 37.252 0 0 0 1.074 2.453 20.848 20.848 0 0 0 1.074 1.953c.152.23.39.578.539.774.148.199.39.48.539.64.148.156.387.38.535.5.153.117.39.278.54.36.148.078.386.175.538.214.149.04.387.07.535.07s.391-.03.54-.07c.148-.039.386-.136.535-.214.152-.082.39-.243.539-.36.148-.12.39-.344.539-.5.148-.16.387-.441.535-.64.152-.196.39-.543.539-.774.148-.234.387-.64.54-.91.148-.273.386-.734.534-1.043.149-.305.39-.824.54-1.164a54 54 0 0 0 1.074-2.695c.148-.403.386-1.078.539-1.516a113 113 0 0 0 1.074-3.336c.148-.492.387-1.297.539-1.812a225.614 225.614 0 0 0 1.074-3.867c.149-.555.387-1.465.535-2.044.153-.574.39-1.511.54-2.101l.538-2.156c.149-.606.387-1.586.536-2.2.148-.617.39-1.613.539-2.238.148-.621.386-1.633.539-2.262l.535-2.28c.148-.634.39-1.657.539-2.29l.535-2.293c.152-.633.39-1.648.54-2.281.148-.63.386-1.637.538-2.262.149-.625.387-1.621.535-2.234.149-.617.39-1.598.54-2.203a406.572 406.572 0 0 1 1.074-4.258 340.405 340.405 0 0 1 1.074-4.016c.152-.535.39-1.379.539-1.894.148-.512.387-1.32.539-1.809.148-.492.387-1.258.535-1.719a94.583 94.583 0 0 1 1.074-3.137c.153-.406.39-1.03.54-1.406a42.257 42.257 0 0 1 1.074-2.453c.152-.304.39-.77.539-1.039.148-.27.386-.676.539-.91.148-.234.386-.582.535-.777.148-.196.39-.48.539-.637.148-.16.387-.383.535-.5.152-.121.39-.281.54-.36.148-.081.39-.175.538-.214.149-.043.387-.074.535-.074.153 0 .391.03.54.074.148.039.386.133.539.215.148.078.386.238.535.359.148.117.39.34.539.5.148.156.386.441.535.637.152.195.39.543.539.777.148.234.39.64.539.91a28 28 0 0 1 1.074 2.207c.149.34.387.914.54 1.285a68 68 0 0 1 1.074 2.922c.148.434.386 1.156.535 1.621.152.461.39 1.227.539 1.72.148.487.386 1.296.539 1.808.148.515.386 1.359.535 1.894.148.54.39 1.418.539 1.973.148.558.387 1.469.54 2.043.147.574.386 1.512.534 2.101l.54 2.157c.148.605.386 1.586.534 2.203.153.613.391 1.61.54 2.234.148.625.386 1.633.539 2.262l.535 2.281c.148.637.39 1.656.539 2.293.148.633.386 1.656.539 2.29l.535 2.28c.148.63.39 1.641.54 2.262.147.625.386 1.621.534 2.238.153.614.39 1.594.54 2.2a406.547 406.547 0 0 0 1.074 4.258c.148.578.39 1.488.539 2.042.148.559.386 1.438.535 1.973.152.535.39 1.383.539 1.895a155.012 155.012 0 0 0 1.074 3.531c.152.46.39 1.183.54 1.617a67.881 67.881 0 0 0 1.074 2.922 37.25 37.25 0 0 0 1.074 2.453c.152.309.39.77.539 1.043.148.27.39.676.539.91.148.23.386.578.535.774.152.199.39.48.539.64.148.156.387.38.539.5.148.117.387.278.535.36a3 3 0 0 0 .54.214c.148.04.386.07.534.07.153 0 .39-.03.54-.07a3 3 0 0 0 .538-.214c.149-.082.387-.243.536-.36a6 6 0 0 0 .539-.5c.148-.16.386-.441.539-.64.148-.196.386-.543.535-.774.148-.234.39-.64.539-.91a29.94 29.94 0 0 0 1.074-2.207c.149-.344.387-.914.54-1.29a68 68 0 0 0 1.073-2.921c.149-.434.387-1.156.54-1.617a155 155 0 0 0 1.074-3.531c.148-.512.386-1.36.535-1.895.152-.535.39-1.414.539-1.973.148-.554.387-1.464.539-2.043.148-.574.387-1.511.535-2.101s.39-1.55.54-2.156c.148-.606.386-1.586.538-2.2.149-.617.387-1.613.535-2.238.149-.621.391-1.633.54-2.262l.535-2.28c.152-.634.39-1.657.539-2.29.148-.637.386-1.656.539-2.293l.535-2.281c.148-.63.39-1.637.539-2.262.148-.625.387-1.621.539-2.234.148-.617.387-1.598.535-2.203.149-.602.39-1.563.54-2.157.148-.59.386-1.527.534-2.101.153-.574.391-1.485.54-2.043a243.307 243.307 0 0 1 1.074-3.867c.148-.512.39-1.32.539-1.809.148-.492.386-1.258.535-1.719.152-.465.39-1.187.539-1.62a67.886 67.886 0 0 1 1.074-2.922c.153-.372.39-.946.54-1.286a28.28 28.28 0 0 1 1.074-2.207c.148-.27.39-.676.539-.91.148-.234.386-.582.535-.777.152-.196.39-.48.539-.637.148-.16.39-.383.539-.5.148-.121.387-.281.535-.36.152-.081.39-.175.539-.214a4 4 0 0 1 .54-.074"/><path fill="none" stroke="#000" stroke-dasharray="2.9805210526 2.9805210526" stroke-miterlimit="10" stroke-width=".39789078" d="M188.578 37.563s.387.03.535.074c.149.039.39.133.54.215.148.078.386.238.534.359.153.117.391.34.54.5.148.156.39.441.539.637.148.195.386.543.535.777.152.234.39.64.539.91.148.27.387.735.539 1.04a42 42 0 0 1 1.074 2.452 68 68 0 0 1 1.074 2.922c.149.434.387 1.156.54 1.621.148.461.386 1.227.535 1.72.148.487.39 1.296.539 1.808.148.515.386 1.359.539 1.894.148.54.386 1.418.535 1.973.148.558.39 1.469.539 2.043a407 407 0 0 1 1.074 4.258c.149.605.387 1.586.54 2.203.148.613.386 1.61.534 2.234l.54 2.262c.148.633.386 1.648.538 2.281l.536 2.293.539 2.29c.148.632.386 1.651.535 2.28.152.63.39 1.641.539 2.262a924.37 924.37 0 0 0 1.074 4.437c.149.606.39 1.567.54 2.157.148.59.386 1.527.538 2.101.149.579.387 1.489.535 2.043a226 226 0 0 0 1.075 3.868c.152.515.39 1.32.539 1.812a112.577 112.577 0 0 0 1.074 3.336 73 73 0 0 0 1.074 2.922c.152.375.39.945.54 1.289a28.533 28.533 0 0 0 1.074 2.207c.152.27.39.676.538.91.149.23.387.578.54.774.148.199.386.48.535.64.148.156.39.38.539.5.148.117.386.278.535.36.152.078.39.175.539.214.148.04.539.07.539.07"/><use xlink:href="#h" x="220.999" y="82.234"/><use xlink:href="#i" x="19.365" y="8.765"/></svg>