<svg xmlns="http://www.w3.org/2000/svg" xmlns:xlink="http://www.w3.org/1999/xlink" width="115.253" height="121.048"><defs><clipPath id="a"><path d="M101 65h13.434v15H101Zm0 0"/></clipPath><clipPath id="b"><path d="M.078 8H15v15H.078Zm0 0"/></clipPath><clipPath id="c"><path d="M55 50h59.434v70.102H55Zm0 0"/></clipPath><path id="d" d="m.938-3.812-.47.03c-.171 0-.234.079-.25.141a1 1 0 0 0-.046.157c0 .015.031.015.062.015H.86L.313-1.047C.25-.766.188-.484.188-.313c0 .313.156.407.437.407.39 0 .984-.375 1.281-.922C1.891-.938 1.828-1 1.72-1c-.407.469-.578.563-.719.563-.016 0-.11-.032-.11-.125 0-.094.032-.266.094-.563l.532-2.344h.859c.11-.047.188-.281.094-.344h-.875l.093-.406c.032-.172.11-.422.11-.531 0-.156-.078-.234-.36-.234-.312 0-.296.39-.39.718Zm0 0"/><path id="e" d="M1.813.094c1.75 0 2.359-1.14 2.671-2.719l.485-2.437c.031-.25.172-.391.547-.422l.218-.016c.047 0 .079-.016.079-.062l.03-.172-.015-.016c-.39 0-.75.016-.937.016-.203 0-.532-.016-.938-.016l-.015.016-.032.172c-.015.046.016.062.047.062l.235.016c.28.03.406.109.406.297 0 .03-.016.078-.032.125l-.5 2.593c-.187 1-.546 2.188-2 2.188-.406 0-.718-.188-.921-.438-.188-.234-.25-.515-.25-.797 0-.296.062-.593.109-.875l.531-2.687c.047-.25.188-.375.547-.406l.219-.016c.047 0 .078-.016.078-.062l.047-.172-.016-.016c-.406 0-.765.016-1.094.016-.343 0-.687-.016-1.078-.016l-.03.016-.032.172c0 .046.031.062.062.062l.22.016c.28.03.405.093.405.28 0 .032 0 .079-.015.126L.266-2.094a3 3 0 0 0-.063.625c0 1.266.938 1.563 1.61 1.563m0 0"/><path id="f" d="M.438-3.328a.28.28 0 0 0 .28.281c.126 0 .329-.125.329-.281 0-.063-.016-.11-.016-.156-.015-.047-.062-.11-.062-.172 0-.172.187-.438.703-.438.25 0 .625.188.625.86 0 .468-.172.828-.594 1.265l-.516.516C.485-.75.375-.406.375.016c0 0 .36-.016.578-.016h1.25c.235 0 .563.016.563.016.078-.375.156-.907.156-1.125-.031-.032-.125-.047-.203-.032-.11.5-.235.672-.5.672H.953c0-.328.5-.812.531-.86l.72-.687c.405-.39.718-.703.718-1.234 0-.781-.625-1.094-1.203-1.094-.797 0-1.281.594-1.281 1.016m0 0"/></defs><path fill="none" stroke="#000" stroke-miterlimit="10" stroke-width=".3958878" d="M2.566 72.402h104.45"/><path d="m110.063 72.402-2.95-1.75v3.5Zm0 0"/><g clip-path="url(#a)"><path fill="none" stroke="#000" stroke-miterlimit="10" stroke-width=".3958878" d="m110.063 72.402-2.95-1.75v3.5Zm0 0"/></g><path fill="none" stroke="#000" stroke-miterlimit="10" stroke-width=".3958878" d="M7.258 119.313V17.21"/><path d="m7.258 14.16-1.75 2.953h3.5Zm0 0"/><g clip-path="url(#b)"><path fill="none" stroke="#000" stroke-miterlimit="10" stroke-width=".3958878" d="m7.258 14.16-1.75 2.953h3.5Zm0 0"/></g><path fill="none" stroke="#000" stroke-miterlimit="10" stroke-width="1.5815668" d="M30.711 72.402c3.824 12.012 7.484 23.457 11.531 23.457h.395c4.047 0 7.707-11.445 11.531-23.457"/><g clip-path="url(#c)"><path fill="none" stroke="#000" stroke-miterlimit="10" stroke-width="1.5815668" d="M77.621 72.402c3.824 24.02 7.484 46.91 11.531 46.91h.395c4.047 0 7.707-22.89 11.531-46.91"/></g><use xlink:href="#d" x="109.448" y="80.556"/><use xlink:href="#e" x="3.044" y="8.721"/><use xlink:href="#f" x="7.778" y="10.59"/></svg>