<svg xmlns="http://www.w3.org/2000/svg" xmlns:xlink="http://www.w3.org/1999/xlink" width="230.123" height="166.116"><defs><path id="e" d="m.125-1.984 2.531-3.782.656-.062v3.64h.75l-.03.672h-.72v1.032l.626.125q.123.017.124.093 0 .048-.093.266H1.906v-.078q0-.246.297-.328l.39-.078v-1.032H.157Zm.734-.203h1.735v-2.704h-.031L.859-2.219Zm0 0"/><path id="f" d="M.484-4.64c0-.376.02-.758.063-1.157h3.562a.3.3 0 0 1 .047.172q-.002.188-.11.422L1.704 0h-.656l2.406-5.047H1.078l-.14.75a.6.6 0 0 1-.204.031q-.251 0-.25-.375m0 0"/><path id="g" d="M.906-.469v-3.328l-.64-.078a.2.2 0 0 1-.016-.078q0-.246.328-.281l1.047-.11-.047.61h.031q.294-.294.516-.422.404-.235.953-.235c.438 0 .774.141 1.016.422q.359.422.36 1.172v2.328L5-.344q.124.017.125.11A.35.35 0 0 1 5.031 0h-1.89a.1.1 0 0 1-.016-.062c0-.133.094-.235.281-.297l.328-.11V-2.75q-.002-.544-.296-.812a.97.97 0 0 0-.657-.235c-.437 0-.824.149-1.156.438v2.89l.547.125q.124.017.125.11A.35.35 0 0 1 2.203 0H.313a.1.1 0 0 1-.016-.062c0-.133.094-.235.281-.297Zm0 0"/><path id="h" d="M4.5-6.156q.062.752.063 1.047c0 .273-.086.406-.25.406a.5.5 0 0 1-.204-.047l-.203-.937H1.875v2.453h1.984v.5H1.875v2.25l.703.125q.124.017.125.093 0 .048-.094.266H.422a.16.16 0 0 1-.016-.078Q.404-.324.72-.406l.375-.078v-5.203l-.547-.125C.46-5.82.422-5.852.422-5.906q0-.075.094-.25Zm0 0"/><path id="i" d="M1.125-5.797h2.547l-.047.781H1.531l-.125 1.407q1.296.046 1.875.547.546.455.547 1.374a1.7 1.7 0 0 1-.547 1.266Q2.75.111 1.906.11 1.168.108.828-.156a.61.61 0 0 1-.281-.516q0-.405.39-.547.171.376.282.5.311.328.828.328.527 0 .844-.328c.195-.207.297-.476.297-.812q0-.732-.563-1.047-.563-.328-1.781-.328Zm0 0"/><path id="j" d="M3.688-4.766a.95.95 0 0 0-.329-.406 1.16 1.16 0 0 0-.734-.25c-.906 0-1.398.79-1.469 2.36q.516-.406 1.219-.407.762 0 1.219.375.499.423.5 1.25-.001.798-.5 1.36c-.356.398-.809.593-1.36.593-.617 0-1.086-.257-1.406-.78Q.36-1.407.36-2.72q-.002-1.25.594-2.14c.445-.696 1.063-1.047 1.844-1.047.406 0 .726.074.969.218q.328.189.328.454-.001.375-.407.468M1.156-2.609Q1.17-1.484 1.5-.922c.195.356.469.531.813.531q.435.001.718-.343.296-.359.297-1.016-.001-1.219-1.015-1.219-.751 0-1.157.36m0 0"/><path id="k" d="M6.125-3.469q0 .924-.562 1.719-.488.69-1.157 1.047v.172H5.61l.125-.719a.44.44 0 0 1 .204-.047q.28.001.28.406 0 .365-.046.891H3.844v-.89C4.82-1.38 5.313-2.25 5.313-3.5q-.001-1.03-.547-1.64-.533-.61-1.375-.61-.845 0-1.391.61-.532.626-.531 1.64-.001.877.343 1.531.376.738 1.126 1.078V0H.624a10 10 0 0 1-.047-.89c0-.27.086-.407.266-.407q.107 0 .203.047l.14.719h1.188v-.156c-.43-.188-.809-.524-1.14-1.016Q.654-2.53.655-3.47q-.001-1.216.766-2 .762-.797 1.969-.797c.8 0 1.457.258 1.968.766.508.512.766 1.188.766 2.031m0 0"/><path id="l" d="M2.234-.39q1.092.001 1.094-2.516c0-1.664-.367-2.5-1.094-2.5-.73 0-1.093.836-1.093 2.5 0 1.68.363 2.515 1.093 2.515m-.046.5q-.862 0-1.36-.75Q.296-1.42.297-2.907c0-.977.187-1.735.562-2.266.352-.488.829-.734 1.422-.734q.873.001 1.36.734c.343.531.515 1.29.515 2.266q0 1.487-.562 2.265-.516.75-1.406.75m0 0"/><path id="m" d="M2.031-.578V-5l-1.344.266a1 1 0 0 1-.015-.188c0-.133.07-.226.219-.281l1.468-.594h.438v5.219l1.094.172q.14.016.14.11-.002.08-.11.296H.86v-.078q0-.311.282-.36Zm0 0"/><path id="n" d="M.828-.469v-5.468l-.656-.079a.2.2 0 0 1-.016-.078q0-.246.328-.281l1.063-.11v4h.531l1.203-1.374L2.656-4a.2.2 0 0 1-.015-.062q-.001-.219.25-.22h1.437c.07 0 .11.032.11.095A.5.5 0 0 1 4.375-4l-.516.156L2.594-2.39 4.109-.453l.454.11q.124.015.125.109A.35.35 0 0 1 4.594 0H3.437L1.954-2.047h-.406v1.594L2-.343q.124.015.125.109A.35.35 0 0 1 2.031 0H.22v-.062c0-.133.086-.235.265-.297Zm0 0"/><path id="o" d="M1.094-.484v-5.203l-.547-.125C.46-5.82.422-5.852.422-5.906q0-.075.094-.25H4.53q.062.752.063 1.047c0 .273-.086.406-.25.406a.4.4 0 0 1-.188-.047l-.218-.937H1.874v2.312h1.984v.5H1.875v2.36H4l.234-.954a.7.7 0 0 1 .204-.031q.234 0 .234.36 0 .361-.094 1.14H.422a.16.16 0 0 1-.016-.078Q.404-.324.72-.406Zm0 0"/><path id="p" d="M4.484-.484 3.906-2.11H1.672L1.094-.484l.672.125q.124.017.125.093 0 .066-.094.266H-.078a.2.2 0 0 1-.016-.078Q-.096-.342.22-.406l.25-.063 2.156-5.687.563-.078L5.328-.47l.406.11q.124.034.125.093-.002.048-.109.266H3.844v-.078q-.002-.246.297-.328Zm-2.64-2.11h1.89l-.921-2.61h-.016Zm0 0"/><clipPath id="a"><path d="M.172 43.367H15.96v6.313H.17Zm0 6.313h6.316v3.16H.172Zm0 3.16H15.96v6.312H.17Zm0 0"/></clipPath><clipPath id="b"><path d="M.172 38H21v27H.172Zm0 0"/></clipPath><clipPath id="c"><path d="M128 154h1v11.238h-1Zm0 0"/></clipPath><clipPath id="d"><path d="M122 164h14v1.238h-14Zm0 0"/></clipPath></defs><path fill="none" stroke="#000" stroke-miterlimit="10" stroke-width=".39688929" d="M12.012 51.262h6.484m0 0h25.926m0 0h32.41m0 0h12.965l14.312-14.313m10.266-10.27 14.313-14.312h19.449m0 0h32.41m0 0h25.926m0 0h12.965"/><g clip-path="url(#a)"><path fill="none" stroke="#000" stroke-miterlimit="10" stroke-width=".7927838700000001" d="M12.012 51.262c0-2.18-1.766-3.95-3.946-3.95a3.948 3.948 0 0 0 0 7.895 3.944 3.944 0 0 0 3.946-3.945Zm0 0"/></g><g clip-path="url(#b)"><path fill="none" stroke="#000" stroke-miterlimit="10" stroke-width=".7927838700000001" d="M9.645 51.262a1.58 1.58 0 0 0-1.579-1.582 1.58 1.58 0 0 0 0 3.16c.871 0 1.579-.707 1.579-1.578Zm0 0"/></g><path fill="none" stroke="#000" stroke-miterlimit="10" stroke-width=".39688929" d="M9.645 51.262h2.367"/><path stroke="#000" stroke-miterlimit="10" stroke-width=".39688929" d="M26.555 51.262a1.58 1.58 0 0 0-1.578-1.582 1.58 1.58 0 0 0 0 3.16c.87 0 1.578-.707 1.578-1.578ZM65.45 51.262a1.58 1.58 0 1 0-3.162-.004 1.58 1.58 0 0 0 3.161.004ZM91.375 51.262a1.58 1.58 0 0 0-1.578-1.582 1.58 1.58 0 0 0 0 3.16c.871 0 1.578-.707 1.578-1.578Zm0 0"/><path fill="none" stroke="#000" stroke-miterlimit="10" stroke-width=".7927838700000001" d="M114.375 26.68 97.691 30.53l12.836 12.832Zm0 0"/><path fill="none" stroke="#000" stroke-miterlimit="10" stroke-width=".39688929" d="m114.375 26.68-10.266 10.27"/><path fill="none" stroke="#000" stroke-miterlimit="10" stroke-width=".7927838700000001" d="m120.793 33.098-12.832-12.832"/><path stroke="#000" stroke-miterlimit="10" stroke-width=".39688929" d="M169.16 12.367a1.579 1.579 0 1 0-3.157.001 1.579 1.579 0 0 0 3.157 0ZM195.09 12.367a1.58 1.58 0 0 0-3.16 0 1.58 1.58 0 0 0 3.16 0Zm0 0"/><path fill="#FFF" stroke="#000" stroke-miterlimit="10" stroke-width=".39688929" d="M221.016 12.367a1.579 1.579 0 1 0-3.158.001 1.579 1.579 0 0 0 3.158 0Zm0 0"/><path fill="none" stroke="#000" stroke-miterlimit="10" stroke-width=".39688929" d="m89.797 51.262 14.312 14.312m10.266 10.266 14.313 14.312h32.41m0 0h45.375m0 0h12.965"/><path fill="none" stroke="#000" stroke-miterlimit="10" stroke-width=".7927838700000001" d="m104.11 65.574 16.683 3.848-12.832 12.836Zm0 0"/><path fill="none" stroke="#000" stroke-miterlimit="10" stroke-width=".39688929" d="m104.11 65.574 10.265 10.266"/><path fill="none" stroke="#000" stroke-miterlimit="10" stroke-width=".7927838700000001" d="m97.691 71.988 12.836-12.832"/><path stroke="#000" stroke-miterlimit="10" stroke-width=".39688929" d="M130.27 90.152a1.58 1.58 0 0 0-3.16 0 1.58 1.58 0 0 0 3.16 0ZM195.09 90.152a1.58 1.58 0 0 0-3.16 0 1.58 1.58 0 0 0 3.16 0Zm0 0"/><path fill="#FFF" stroke="#000" stroke-miterlimit="10" stroke-width=".39688929" d="M221.016 90.152a1.579 1.579 0 1 0-3.158.002 1.579 1.579 0 0 0 3.158-.002Zm0 0"/><path fill="none" stroke="#000" stroke-miterlimit="10" stroke-width=".39688929" d="M8.066 55.207v99.766h10.43m0 0h25.926m0 0h51.855m0 0h51.86m0 0h19.445V126.19m0-7.257V51.262m0 0V12.367"/><path stroke="#000" stroke-miterlimit="10" stroke-width=".39688929" d="M26.555 154.973a1.579 1.579 0 1 0-3.158 0 1.579 1.579 0 0 0 3.158 0ZM65.45 154.973a1.58 1.58 0 0 0-3.16 0 1.58 1.58 0 0 0 3.16 0ZM130.27 154.973a1.58 1.58 0 0 0-3.16 0 1.58 1.58 0 0 0 3.16 0Zm0 0"/><g clip-path="url(#c)"><path fill="none" stroke="#000" stroke-miterlimit="10" stroke-width=".39688929" d="M128.688 154.973v9.867"/></g><g clip-path="url(#d)"><path fill="none" stroke="#000" stroke-linecap="round" stroke-miterlimit="10" stroke-width=".7927838700000001" d="M122.77 164.84h11.84"/></g><path fill="none" stroke="#000" stroke-miterlimit="10" stroke-width=".7927838700000001" d="M156.691 126.191h21.782m-21.782-7.257h21.782"/><use xlink:href="#e" x="181.164" y="124.702"/><use xlink:href="#f" x="185.623" y="124.702"/><use xlink:href="#g" x="192.009" y="124.702"/><use xlink:href="#h" x="197.253" y="124.702"/><path fill="none" stroke="#000" stroke-miterlimit="10" stroke-width=".39688929" d="M24.977 51.262v37.336m0 29.039v37.336"/><path fill="none" stroke="#000" stroke-miterlimit="10" stroke-width=".7927838700000001" d="M19.531 117.637v-29.04h10.89v29.04Zm0 0"/><use xlink:href="#i" x="32.571" y="105.257"/><use xlink:href="#j" x="37.031" y="105.257"/><use xlink:href="#k" x="42.971" y="105.257"/><path fill="none" stroke="#000" stroke-miterlimit="10" stroke-width=".39688929" d="M63.867 51.262v37.336m0 29.039v37.336"/><path fill="none" stroke="#000" stroke-miterlimit="10" stroke-width=".7927838700000001" d="M58.426 117.637v-29.04h10.887v29.04Zm0 0"/><use xlink:href="#e" x="71.464" y="105.257"/><use xlink:href="#f" x="75.923" y="105.257"/><use xlink:href="#l" x="80.382" y="105.257"/><use xlink:href="#k" x="86.322" y="105.257"/><path fill="none" stroke="#000" stroke-miterlimit="10" stroke-width=".39688929" d="M193.508 90.152v-24.37m0-29.04V12.367"/><path fill="none" stroke="#000" stroke-miterlimit="10" stroke-width=".7927838700000001" d="M198.953 36.742v29.04h-10.89v-29.04Zm0 0"/><use xlink:href="#m" x="201.103" y="53.401"/><use xlink:href="#l" x="205.562" y="53.401"/><use xlink:href="#l" x="210.022" y="53.401"/><use xlink:href="#n" x="215.962" y="53.401"/><use xlink:href="#k" x="220.689" y="53.401"/><path fill="none" stroke="#000" stroke-miterlimit="10" stroke-width=".39688929" d="M128.688 90.152v28.782m0 7.257v28.782"/><path fill="none" stroke="#000" stroke-miterlimit="10" stroke-width=".7927838700000001" d="M139.578 118.934h-21.777m21.777 7.257h-21.777"/><use xlink:href="#e" x="94.682" y="124.702"/><use xlink:href="#f" x="99.141" y="124.702"/><use xlink:href="#g" x="105.081" y="124.702"/><use xlink:href="#h" x="110.326" y="124.702"/><use xlink:href="#o" x="5.538" y="44.143"/><use xlink:href="#p" x="216.528" y="9.198"/></svg>