<svg xmlns="http://www.w3.org/2000/svg" xmlns:xlink="http://www.w3.org/1999/xlink" width="231.045" height="113.781"><defs><path id="e" d="M2.953-2.469H.547v-.515h2.406Zm0 0"/><path id="f" d="m.422-.453 1.5-1.719q.89-1.015.89-2-.001-1.249-.906-1.25-.363.001-.703.172-.112.364-.125.89-.11.017-.203.016c-.281 0-.422-.117-.422-.36q0-.544.422-.874.42-.328 1.156-.328.715 0 1.172.422.451.409.453 1.14 0 .691-.422 1.36-.268.44-.906 1.125L1.344-.797v.016h2.031l.188-.766q.058-.047.187-.047.218 0 .219.36 0 .344-.094 1.234H.5Zm0 0"/><path id="g" d="M5.828-6.156v.078q-.002.252-.297.328l-.234.047L3.28 0h-.734L.453-5.687l-.375-.11q-.124-.014-.125-.11c0-.05.035-.132.094-.25H2.03c.008.024.016.048.016.079q-.001.253-.313.312l-.375.079L3-.907h.031L4.72-5.702l-.688-.11q-.127-.011-.125-.093 0-.075.094-.25Zm0 0"/><path id="h" d="M2.031-.578V-5l-1.344.266a1 1 0 0 1-.015-.188c0-.133.07-.226.219-.281l1.468-.594h.438v5.219l1.094.172q.14.016.14.11-.002.08-.11.296H.86v-.078q0-.311.282-.36Zm0 0"/><path id="j" d="m.938-3.828-.47.031c-.171 0-.234.078-.25.14a1 1 0 0 0-.046.157c0 .016.031.016.062.016H.86L.313-1.047C.25-.766.188-.484.188-.328c0 .328.156.422.437.422.406 0 .984-.375 1.297-.922C1.89-.953 1.828-1 1.719-1c-.407.469-.563.547-.703.547C.984-.453.89-.47.89-.578c0-.078.03-.25.093-.563l.532-2.343h.875c.109-.047.187-.266.093-.344h-.89l.093-.406c.032-.172.11-.422.11-.532 0-.156-.063-.234-.344-.234-.328 0-.312.39-.406.719Zm0 0"/><path id="k" d="M1.813.094c1.765 0 2.375-1.14 2.687-2.719l.484-2.453c.032-.25.188-.39.547-.422l.219-.016c.047 0 .078-.03.078-.062l.047-.172-.016-.016c-.406 0-.75.016-.953.016s-.531-.016-.937-.016l-.016.016-.031.172c-.016.031.015.062.047.062l.234.016c.281.016.406.11.406.297 0 .031-.015.078-.03.125l-.5 2.61c-.204 1-.548 2.187-2.016 2.187-.407 0-.72-.188-.922-.438-.188-.25-.235-.515-.235-.812 0-.282.047-.578.11-.875L1.53-5.11c.063-.25.203-.36.563-.391l.219-.016c.046 0 .062-.03.078-.062l.03-.172-.015-.016c-.406 0-.75.016-1.094.016-.343 0-.671-.016-1.078-.016l-.03.016-.032.172c0 .031.031.062.062.062l.22.016c.28.016.405.094.405.281 0 .032 0 .078-.015.11l-.578 3a3 3 0 0 0-.063.625c0 1.28.953 1.578 1.61 1.578m0 0"/><path id="l" d="m1.11-.562.39-1.032c.031-.093.078-.125.25-.125h1.5l.422 1.203c.078.25-.188.266-.531.297-.047.047-.047.188 0 .235C3.406 0 3.797 0 4.078 0c.297 0 .563 0 .813.016.046-.047.046-.188 0-.235-.282-.031-.516-.047-.641-.39L2.781-4.703c-.11.062-.297.14-.39.14L.766-.733C.578-.281.359-.25.046-.22 0-.172 0-.03.047.016.235 0 .47 0 .689 0c.296 0 .64 0 .906.016.047-.047.047-.188 0-.235C1.328-.25 1-.266 1.109-.562m.765-1.454c-.156 0-.203-.03-.172-.093l.719-1.86h.047l.672 1.953Zm0 0"/><clipPath id="a"><path d="M220 55h10.094v16H220Zm0 0"/></clipPath><clipPath id="b"><path d="M23 3h1v110.438h-1Zm0 0"/></clipPath><clipPath id="c"><path d="M21 .125h5V4h-5Zm0 0"/></clipPath><clipPath id="d"><path d="M16 .125h16V10H16Zm0 0"/></clipPath><clipPath id="i"><path d="M23.664 36H226v54H23.664Zm0 0"/></clipPath></defs><path fill="none" stroke="#BFBFBF" stroke-miterlimit="10" stroke-width=".19818012000000002" d="M23.664 104.875H229.9M23.664 83.965H229.9M23.664 42.145H229.9M23.664 21.235H229.9"/><path fill="none" stroke="#000" stroke-miterlimit="10" stroke-width=".79371636" d="M21.543 104.875h4.238m-4.238-20.91h4.238m-4.238-41.82h4.238m-4.238-20.91h4.238"/><path fill="none" stroke="#000" stroke-miterlimit="10" stroke-width=".39735612000000003" d="M23.664 63.055h202.777"/><path d="m229.5 63.055-2.96-1.758v3.512Zm0 0"/><g clip-path="url(#a)"><path fill="none" stroke="#000" stroke-miterlimit="10" stroke-width=".39735612000000003" d="m229.5 63.055-2.96-1.758v3.512Zm0 0"/></g><g clip-path="url(#b)"><path fill="none" stroke="#000" stroke-miterlimit="10" stroke-width=".39735612000000003" d="M23.664 113.238V3.781"/></g><g clip-path="url(#c)"><path d="m23.664.719-1.758 2.96h3.512Zm0 0"/></g><g clip-path="url(#d)"><path fill="none" stroke="#000" stroke-miterlimit="10" stroke-width=".39735612000000003" d="m23.664.719-1.758 2.96h3.512Zm0 0"/></g><use xlink:href="#e" x="2.976" y="107.955"/><use xlink:href="#f" x="6.476" y="107.955"/><use xlink:href="#g" x="12.584" y="107.955"/><use xlink:href="#h" x="6.476" y="87.046"/><use xlink:href="#g" x="12.584" y="87.046"/><use xlink:href="#h" x="6.476" y="45.225"/><use xlink:href="#g" x="12.584" y="45.225"/><use xlink:href="#f" x="6.476" y="24.315"/><use xlink:href="#g" x="12.584" y="24.315"/><g clip-path="url(#i)"><path fill="none" stroke="#000" stroke-miterlimit="10" stroke-width=".39735612000000003" d="M23.664 58.875h3.691l.04-8.367h3.89l.04-8.363h33.75l.038 8.363h3.93l.039 8.367h3.656l.04 8.363h3.69l.04 8.364h3.89l.04 8.363h33.75l.039-8.363h3.93l.038-8.364h3.657l.039-8.363h3.652l.04-8.367h3.929l.039-8.363h33.75l.039 8.363h3.89l.04 8.367h3.695l.039 8.363h3.652l.04 8.364h3.93l.038 8.363h33.75l.043-8.363h3.887l.039-8.364h3.695"/></g><use xlink:href="#j" x="224.694" y="71.239"/><use xlink:href="#k" x="10.389" y="9.276"/><use xlink:href="#l" x="15.139" y="11.151"/></svg>