<svg xmlns="http://www.w3.org/2000/svg" xmlns:xlink="http://www.w3.org/1999/xlink" width="229.287" height="176.704"><defs><path id="e" d="M3.5-5.844c-.219 0-.75.078-1.094.078S1.72-5.78 1.328-5.78l-.031.015-.031.188c-.016.031 0 .062.046.062l.329.016c.125 0 .312.063.312.281 0 .032 0 .063-.016.094L1.064-.641c-.047.25-.172.36-.547.375l-.22.032C.25-.234.22-.22.22-.172L.172 0l.031.016C.593.016.953 0 1.281 0c.344 0 .688.016 1.094.016L2.406 0l.031-.172c0-.047-.03-.062-.062-.062l-.219-.032C1.875-.28 1.75-.344 1.75-.53c0-.031 0-.063.016-.11l.375-1.953c.718 0 .875.125.953.328l.61 1.563c.171.422.468.797.983.797.125 0 .282-.016.375-.063l.032-.218c-.39 0-.532-.297-.688-.688L3.688-2.75c.39-.125 1.25-.594 1.437-1.531.031-.11.047-.235.047-.344a1.13 1.13 0 0 0-.281-.766c-.328-.406-.86-.453-1.391-.453m-.062.297c.453 0 .984.172.984.89 0 .11-.031.235-.047.391-.219 1.11-.922 1.36-1.75 1.36h-.422l.438-2.219c.046-.266.187-.422.797-.422m0 0"/><path id="g" d="M1.578 1.563c-.094.156-.266.265-.406.265-.125 0-.156-.062-.219-.14-.078-.125-.25-.297-.437-.297-.25 0-.344.172-.344.328 0 .187.219.406.828.406.375 0 .766-.172 1.031-.562.25-.344.453-1.032.797-2.72.14-.702.297-1.421.422-2.171l.031-.156h.828c.079 0 .22-.032.235-.11 0 0 .047-.187.047-.203 0-.015-.016-.031-.063-.031h-.984l.094-.516c.14-.672.265-1.078.39-1.312.125-.25.25-.328.36-.328.125 0 .14.078.187.25.031.187.11.422.39.422.25 0 .313-.204.313-.282 0-.343-.281-.64-.828-.64-.187 0-.422.093-.61.234-.28.234-.656.578-1 2.172l-.578.015c-.171.016-.234.079-.25.157a1 1 0 0 0-.046.156c0 .016.015.016.046.016h.75c-.218 1.015-.25 1.547-.359 2.218-.14.86-.297 2.313-.625 2.829m0 0"/><path id="k" d="M2.406.094c.828 0 1.672-.422 2.407-1.219-.016-.078-.063-.125-.172-.125-.735.703-1.375.969-2.172.969C1.39-.281.953-1.187.953-2.234c0-.235.016-.5.063-.75.359-1.813 1.718-2.563 2.406-2.563 1.187 0 1.531.719 1.61 1.484l.265-.03c0-.47.016-.907.078-1.391-.484-.016-.75-.391-1.797-.391-1.422 0-3 1.297-3.344 3.063-.03.218-.062.437-.062.656C.172-.97.844.094 2.406.094m0 0"/><path id="f" d="M2.063-.875v-2.484c0-.422 0-.86.015-.953 0-.032-.015-.032-.031-.032-.406.235-.781.422-1.406.703a.33.33 0 0 0 .109.204c.328-.141.484-.188.61-.188.124 0 .156.172.156.422v2.328c0 .594-.203.625-.703.656-.047.047-.047.188 0 .235C1.172 0 1.422 0 1.813 0c.343 0 .515 0 .875.016.03-.047.03-.188 0-.235-.5-.031-.626-.062-.626-.656m0 0"/><path id="h" d="M4.766-2.36c0-1.468-1.016-2.343-2.297-2.343C1.079-4.703.266-3.61.266-2.22.266-.813 1.28.078 2.5.078c.797 0 1.422-.344 1.828-.906.281-.406.438-.922.438-1.531M2.375-4.452c.938 0 1.703.797 1.703 2.234 0 1.281-.61 2.031-1.437 2.031-.86 0-1.688-.78-1.688-2.156 0-1.5.703-2.11 1.422-2.11m0 0"/><path id="i" d="M2.828-4.516c-.422-.062-.406-.187-1.11-.187C1-4.703.36-4.234.36-3.47c0 .75.625 1.094 1.266 1.344.422.156.953.36.953 1.063 0 .578-.328.875-.89.875C1.015-.187.593-.5.422-1.203c-.078-.031-.156-.016-.234.016.03.562.062.75.156 1.093.437 0 .64.172 1.281.172.328 0 .625-.078.875-.25.422-.25.672-.687.672-1.14 0-.766-.563-1.094-1.156-1.329C1.594-2.797.875-3.062.875-3.656c0-.406.36-.813.781-.813.703 0 .922.453 1.063.922.078.016.172 0 .234-.047a11 11 0 0 0-.125-.922m0 0"/><path id="j" d="M3.938.016c.046-.407.109-.828.203-1.203-.047 0-.141-.032-.22-.032-.233.516-.405.907-1.187.922L1.36-.266c-.125 0-.187-.046-.187-.109 0-.031.016-.078.062-.14.516-.766 1.829-2.626 2.688-3.72.14-.187.172-.234.172-.312 0-.047-.047-.078-.094-.078-.094 0-.312.016-.531.016H1.89c-.344 0-1.032-.047-1.297-.063-.031.39-.094.797-.156 1.094.078.015.14.031.218.031.14-.5.422-.75.953-.765l1.516-.032c.031 0 .063.032.063.078a.25.25 0 0 1-.047.125C2.438-3.266 1.078-1.359.344-.266a.3.3 0 0 0-.047.157c0 .078.031.109.125.109h2.61c.202 0 .906.016.906.016m0 0"/><path id="q" d="M-6.172-2.312q0-2.515 1.734-2.516.893.002 1.375.594.502.644.5 1.875v.484h2.079l.125-.703q.017-.124.093-.125.066 0 .266.094v2.187a.16.16 0 0 1-.078.016q-.246.002-.328-.313l-.078-.375h-5.203l-.125.547c-.02.086-.055.125-.11.125q-.075 0-.25-.094Zm3.14 0q.002-.843-.39-1.297-.34-.389-.969-.391-1.265 0-1.265 1.688v.437h2.625Zm0 0"/><path id="r" d="m-3.797-.781-.094.64a.1.1 0 0 1-.062.016q-.246 0-.281-.328l-.11-1.063h2.813q1.048 0 1.047-.89 0-.686-.438-1.11h-2.875l-.094.657a.1.1 0 0 1-.062.015q-.246.001-.281-.344l-.11-1.046h3.86l.078-.657h.078q.252 0 .281.329l.094 1h-.578v.015c.43.344.64.793.64 1.344Q.11-.78-1.5-.781Zm0 0"/><path id="s" d="M-4.297-.922h-.031q-.996.001-1.594-.484c-.351-.282-.531-.625-.531-1.031 0-.352.14-.532.422-.532.117 0 .226.055.328.156a1.2 1.2 0 0 0-.156.579q0 .328.172.468c.117.086.308.125.578.125h.812v-1.203l.469.078v1.125h3.36l.124-.625q.017-.124.11-.125.129.001.234.079v1.984a.1.1 0 0 1-.062.016c-.133 0-.235-.094-.297-.282l-.11-.328h-3.36v.688h-.062q-.216 0-.296-.282Zm0 0"/><path id="t" d="M-2.172-1.156q.845-.012 1.297-.375c.305-.239.453-.578.453-1.016q0-.59-.422-1.094.064-.106.25-.125.205.001.438.407.265.469.265 1.109.002.816-.5 1.297-.574.562-1.671.562-1.107.001-1.75-.578a1.71 1.71 0 0 1-.579-1.312q.001-.684.407-1.094.409-.359 1.093-.36.299 0 .72.094Zm-1.765-1.031q.001.909 1.343 1.015v-1.765a2.4 2.4 0 0 0-.375-.032q-.968.001-.969.781m0 0"/><path id="u" d="M-.469-.906h-3.328l-.094.64a.1.1 0 0 1-.062.016q-.246 0-.281-.328l-.11-1.063.75.063v-.031c-.531-.352-.797-.735-.797-1.141 0-.395.149-.594.438-.594q.188 0 .375.14-.14.33-.14.595 0 .61.515.968H-.47l.125-.625q.017-.124.11-.125.129 0 .234.094v1.985a.1.1 0 0 1-.062.015c-.133 0-.235-.094-.297-.281Zm0 0"/><path id="v" d="M-.578-1q.204-.264.203-.656c0-.508-.195-.766-.594-.766q-.234.002-.468.25a5 5 0 0 0-.407.578q-.327.534-.562.75-.374.362-.86.36a.95.95 0 0 1-.812-.407q-.312-.405-.313-1.015c0-.395.102-.719.297-.969q.346-.03.547-.031c.305 0 .453.117.453.344a.16.16 0 0 1-.015.078l-.641.109q-.187.299-.187.61c0 .43.171.64.515.64.242 0 .477-.164.703-.5q.316-.468.61-.937.409-.516.953-.516.55 0 .906.422.362.41.36 1.078c0 .45-.087.812-.25 1.094q-.406.08-.735.078-.436 0-.437-.328.002-.048.015-.094Zm0 0"/><path id="w" d="m-4.297-.86-1.187-.171v-.532h1.187V-2.89l.469.079v1.25h2.75q.674 0 .672-.579 0-.435-.235-.734a.5.5 0 0 1 .266-.062q.112 0 .266.234.217.33.218.828Q.11-.826-.92-.828h-2.907v.672a.1.1 0 0 1-.063.015q-.216 0-.296-.28Zm0 0"/><clipPath id="a"><path d="M40 165h1v11.281h-1Zm0 0"/></clipPath><clipPath id="b"><path d="M34 175h14v1.281H34Zm0 0"/></clipPath><clipPath id="c"><path d="M98 165h2v11.281h-2Zm0 0"/></clipPath><clipPath id="d"><path d="M92 175h14v1.281H92Zm0 0"/></clipPath><clipPath id="l"><path d="M186 165h1v11.281h-1Zm0 0"/></clipPath><clipPath id="m"><path d="M180 175h13v1.281h-13Zm0 0"/></clipPath><clipPath id="n"><path d="M202 165h2v11.281h-2Zm0 0"/></clipPath><clipPath id="o"><path d="M196 175h14v1.281h-14Zm0 0"/></clipPath><clipPath id="p"><path d="M215 53h13.578v16H215Zm0 0"/></clipPath><clipPath id="x"><path d="M186 .125h1V11h-1Zm0 0"/></clipPath><clipPath id="y"><path d="M180 .125h13V1h-13Zm0 0"/></clipPath></defs><path fill="none" stroke="#000" stroke-miterlimit="10" stroke-width=".39776310000000004" d="M1.781 88.203h16.723m5.445 0h16.727L51.41 77.47m7.703-7.7 10.735-10.738L80.582 69.77m7.703 7.699L99.02 88.203 88.285 98.941m-7.703 7.7-10.734 10.734-10.735-10.734m-7.703-7.7L40.676 88.203"/><path fill="none" stroke="#000" stroke-miterlimit="10" stroke-width=".7945293" d="M18.504 80.035v16.336m5.445-16.336v16.336"/><path fill="#FFF" stroke="#000" stroke-miterlimit="10" stroke-width=".39776310000000004" d="M3.363 88.203a1.583 1.583 0 1 0-3.166.002 1.583 1.583 0 0 0 3.166-.002Zm0 0"/><path stroke="#000" stroke-miterlimit="10" stroke-width=".39776310000000004" d="M42.258 88.203a1.583 1.583 0 1 0-3.166.002 1.583 1.583 0 0 0 3.166-.002Zm0 0"/><path fill="none" stroke="#000" stroke-miterlimit="10" stroke-width=".7945293" d="m51.41 77.469 2.89-12.512 9.626 9.625Zm0 0"/><path fill="none" stroke="#000" stroke-miterlimit="10" stroke-width=".39776310000000004" d="m51.41 77.469 7.703-7.7"/><path fill="none" stroke="#000" stroke-miterlimit="10" stroke-width=".7945293" d="m56.227 82.281-9.63-9.625"/><path stroke="#000" stroke-miterlimit="10" stroke-width=".39776310000000004" d="M71.43 59.031a1.583 1.583 0 1 0-3.166.002 1.583 1.583 0 0 0 3.166-.002Zm0 0"/><path fill="none" stroke="#000" stroke-miterlimit="10" stroke-width=".7945293" d="m80.582 69.77 12.516 2.886-9.625 9.625Zm0 0"/><path fill="none" stroke="#000" stroke-miterlimit="10" stroke-width=".39776310000000004" d="m80.582 69.77 7.703 7.699"/><path fill="none" stroke="#000" stroke-miterlimit="10" stroke-width=".7945293" d="m75.77 74.582 9.628-9.625"/><path stroke="#000" stroke-miterlimit="10" stroke-width=".39776310000000004" d="M100.602 88.203a1.583 1.583 0 1 0-3.166.002 1.583 1.583 0 0 0 3.166-.002Zm0 0"/><path fill="none" stroke="#000" stroke-miterlimit="10" stroke-width=".7945293" d="m88.285 98.941-2.887 12.512-9.628-9.625Zm0 0"/><path fill="none" stroke="#000" stroke-miterlimit="10" stroke-width=".39776310000000004" d="m88.285 98.941-7.703 7.7"/><path fill="none" stroke="#000" stroke-miterlimit="10" stroke-width=".7945293" d="m83.473 94.125 9.625 9.629"/><path stroke="#000" stroke-miterlimit="10" stroke-width=".39776310000000004" d="M71.43 117.375a1.583 1.583 0 1 0-3.166.002 1.583 1.583 0 0 0 3.166-.002Zm0 0"/><path fill="none" stroke="#000" stroke-miterlimit="10" stroke-width=".7945293" d="m59.113 106.64-12.515-2.886 9.629-9.629Zm0 0"/><path fill="none" stroke="#000" stroke-miterlimit="10" stroke-width=".39776310000000004" d="m59.113 106.64-7.703-7.699"/><path fill="none" stroke="#000" stroke-miterlimit="10" stroke-width=".7945293" d="m63.926 101.828-9.625 9.625"/><path fill="none" stroke="#000" stroke-miterlimit="10" stroke-width=".39776310000000004" d="M40.676 88.203v36.176m0 5.445v36.172"/><path fill="none" stroke="#000" stroke-miterlimit="10" stroke-width=".7945293" d="M48.844 124.379H32.508m16.336 5.445H32.508"/><g clip-path="url(#a)"><path fill="none" stroke="#000" stroke-miterlimit="10" stroke-width=".39776310000000004" d="M40.676 165.996v9.89"/></g><g clip-path="url(#b)"><path fill="none" stroke="#000" stroke-linecap="round" stroke-miterlimit="10" stroke-width=".7945293" d="M34.742 175.887H46.61"/></g><path fill="none" stroke="#000" stroke-miterlimit="10" stroke-width=".39776310000000004" d="M99.02 88.203v38.899m0 0v38.894"/><g clip-path="url(#c)"><path fill="none" stroke="#000" stroke-miterlimit="10" stroke-width=".39776310000000004" d="M99.02 165.996v9.89"/></g><g clip-path="url(#d)"><path fill="none" stroke="#000" stroke-linecap="round" stroke-miterlimit="10" stroke-width=".7945293" d="M93.086 175.887h11.867"/></g><path fill="none" stroke="#000" stroke-miterlimit="10" stroke-width=".39776310000000004" d="M69.848 59.031V49.31m0 0v-9.723H99.02m0 0h58.343m0 0h29.172M69.848 117.375v9.727m0 0v9.722H99.02m0 0h58.343m0 0h29.172M128.191 39.586v5.312m0 21.782v10.633m0 21.78v10.634m0 21.78v5.317"/><path fill="none" stroke="#000" stroke-miterlimit="10" stroke-width=".7945293" d="M124.11 66.68V44.898h8.167V66.68Zm0 0"/><path stroke="#000" stroke-miterlimit="10" stroke-width=".39776310000000004" d="M129.773 39.586a1.58 1.58 0 0 0-1.582-1.582 1.583 1.583 0 1 0 1.582 1.582Zm0 0"/><path fill="none" stroke="#000" stroke-miterlimit="10" stroke-width=".7945293" d="M124.379 77.313v21.78h7.625v-21.78ZM118.664 93.648l18.54-10.597"/><path fill="none" stroke="#000" stroke-miterlimit="10" stroke-width=".79448945" d="m135.848 80.281 3.054 5.348"/><use xlink:href="#e" x="107.125" y="90.348"/><use xlink:href="#f" x="112.39" y="92.225"/><path fill="none" stroke="#000" stroke-miterlimit="10" stroke-width=".7945293" d="M124.11 131.508v-21.781h8.167v21.78Zm0 0"/><path stroke="#000" stroke-miterlimit="10" stroke-width=".39776310000000004" d="M129.773 136.824a1.58 1.58 0 0 0-1.582-1.582 1.58 1.58 0 0 0-1.582 1.582 1.58 1.58 0 0 0 1.582 1.582 1.58 1.58 0 0 0 1.582-1.582Zm0 0"/><path fill="none" stroke="#000" stroke-miterlimit="10" stroke-width=".39776310000000004" d="M118.664 93.648v36.172m0 0v36.176"/><path fill="#FFF" stroke="#000" stroke-miterlimit="10" stroke-width=".39776310000000004" d="M120.246 165.996a1.583 1.583 0 1 0-3.166.002 1.583 1.583 0 0 0 3.166-.002Zm0 0"/><use xlink:href="#g" x="121.839" y="168.051"/><use xlink:href="#h" x="125.602" y="169.927"/><use xlink:href="#i" x="130.622" y="169.927"/><use xlink:href="#j" x="134.09" y="169.927"/><path fill="none" stroke="#000" stroke-linejoin="bevel" stroke-miterlimit="10" stroke-width=".7945293" d="M186.375 76.918c2.258 0 4.086.84 4.086 1.879s-1.828 1.883-4.086 1.883c2.258 0 4.086.84 4.086 1.879s-1.828 1.882-4.086 1.882c2.258 0 4.086.844 4.086 1.883s-1.828 1.88-4.086 1.88c2.258 0 4.086.843 4.086 1.882s-1.828 1.883-4.086 1.883c2.258 0 4.086.84 4.086 1.879s-1.828 1.882-4.086 1.882c2.258 0 4.086.84 4.086 1.88 0 1.038-1.828 1.882-4.086 1.882M203.031 95.41c-2.258 0-4.086-1.078-4.086-2.402 0-1.328 1.828-2.403 4.086-2.403-2.258 0-4.086-1.074-4.086-2.402 0-1.324 1.828-2.398 4.086-2.398-2.258 0-4.086-1.078-4.086-2.403 0-1.328 1.828-2.402 4.086-2.402"/><path fill="none" stroke="#000" stroke-miterlimit="10" stroke-width=".39776310000000004" d="M186.535 60.977v16.336m0 21.78v16.337m16.336-54.453v20.421m0 13.614v20.418"/><path fill="none" stroke="#000" stroke-miterlimit="10" stroke-width=".7945293" d="M195.723 101.816V74.59m-2.04 27.226V74.59M177.996 106.516l16.824-36.082"/><path fill="none" stroke="#000" stroke-miterlimit="10" stroke-width=".7945133600000001" d="m192.117 68.953 5.578 2.602"/><path fill="none" stroke="#000" stroke-miterlimit="10" stroke-width=".39776310000000004" d="M186.535 39.586V50.28m0 0v10.696H171.95m0 0h-14.586V85.48m0 5.446v24.504h14.586m0 0h14.586"/><path stroke="#000" stroke-miterlimit="10" stroke-width=".39776310000000004" d="M188.117 60.977a1.583 1.583 0 1 0-3.166.001 1.583 1.583 0 0 0 3.166-.001Zm0 0"/><path fill="none" stroke="#000" stroke-miterlimit="10" stroke-width=".7945293" d="M165.531 85.48h-16.336m16.336 5.446h-16.336"/><path stroke="#000" stroke-miterlimit="10" stroke-width=".39776310000000004" d="M188.117 115.43a1.583 1.583 0 1 0-3.166.001 1.583 1.583 0 0 0 3.166-.001Zm0 0"/><path fill="none" stroke="#000" stroke-miterlimit="10" stroke-width=".39776310000000004" d="M186.535 115.43v10.699m0 0v22.559m0 5.445v11.863"/><path stroke="#000" stroke-miterlimit="10" stroke-width=".39776310000000004" d="M188.117 136.824a1.58 1.58 0 0 0-1.582-1.582 1.58 1.58 0 0 0-1.582 1.582 1.58 1.58 0 0 0 1.582 1.582 1.58 1.58 0 0 0 1.582-1.582Zm0 0"/><path fill="none" stroke="#000" stroke-miterlimit="10" stroke-width=".7945293" d="M194.703 154.133h-16.336m16.336-5.445h-16.336M178.367 159.578l15.914-15.914"/><path fill="none" stroke="#000" stroke-miterlimit="10" stroke-width=".7945133600000001" d="m192.246 141.348 4.352 4.351"/><use xlink:href="#k" x="167.341" y="153.554"/><use xlink:href="#f" x="172.229" y="155.431"/><g clip-path="url(#l)"><path fill="none" stroke="#000" stroke-miterlimit="10" stroke-width=".39776310000000004" d="M186.535 165.996v9.89"/></g><g clip-path="url(#m)"><path fill="none" stroke="#000" stroke-linecap="round" stroke-miterlimit="10" stroke-width=".7945293" d="M180.602 175.887h11.867"/></g><path fill="none" stroke="#000" stroke-miterlimit="10" stroke-width=".39776310000000004" d="M202.871 115.43v25.285m0 0v25.281"/><g clip-path="url(#n)"><path fill="none" stroke="#000" stroke-miterlimit="10" stroke-width=".39776310000000004" d="M202.871 165.996v9.89"/></g><g clip-path="url(#o)"><path fill="none" stroke="#000" stroke-linecap="round" stroke-miterlimit="10" stroke-width=".7945293" d="M196.937 175.887h11.868"/></g><path fill="none" stroke="#000" stroke-miterlimit="10" stroke-width=".39776310000000004" d="M202.871 60.977h9.723m0 0h9.726"/><path fill="#FFF" d="M223.902 60.977a1.583 1.583 0 1 0-3.162.002 1.583 1.583 0 0 0 3.162-.002m0 0"/><g clip-path="url(#p)"><path fill="none" stroke="#000" stroke-miterlimit="10" stroke-width=".39776310000000004" d="M223.902 60.977a1.583 1.583 0 1 0-3.162.002 1.583 1.583 0 0 0 3.162-.002Zm0 0"/></g><use xlink:href="#q" x="225.49" y="106.382"/><use xlink:href="#r" x="225.49" y="101.242"/><use xlink:href="#s" x="225.49" y="96.156"/><use xlink:href="#s" x="225.49" y="93.189"/><use xlink:href="#t" x="225.49" y="90.355"/><use xlink:href="#u" x="225.49" y="86.19"/><use xlink:href="#v" x="225.49" y="82.739"/><use xlink:href="#w" x="225.49" y="79.28"/><use xlink:href="#r" x="225.49" y="76.241"/><use xlink:href="#s" x="225.49" y="71.155"/><use xlink:href="#t" x="225.49" y="68.321"/><path fill="none" stroke="#000" stroke-miterlimit="10" stroke-width=".39776310000000004" d="M186.535 39.586V27.723m0-5.446V10.414"/><path fill="none" stroke="#000" stroke-miterlimit="10" stroke-width=".7945293" d="M178.367 27.723h16.336m-16.336-5.446h16.336"/><g clip-path="url(#x)"><path fill="none" stroke="#000" stroke-miterlimit="10" stroke-width=".39776310000000004" d="M186.535 10.414V.524"/></g><g clip-path="url(#y)"><path fill="none" stroke="#000" stroke-linecap="round" stroke-miterlimit="10" stroke-width=".7945293" d="M192.469.523h-11.867"/></g></svg>