<svg xmlns="http://www.w3.org/2000/svg" width="114.626" height="98.644"><defs><clipPath id="a"><path d="M.02 84H4v4H.02Zm0 0"/></clipPath><clipPath id="b"><path d="M.02 78H9v16H.02Zm0 0"/></clipPath><clipPath id="c"><path d="M52 73h10v25.29H52Zm0 0"/></clipPath><clipPath id="d"><path d="M110 84h4.234v4H110Zm0 0"/></clipPath><clipPath id="e"><path d="M105 78h9.234v16H105Zm0 0"/></clipPath><clipPath id="f"><path d="M.02 10H4v4H.02Zm0 0"/></clipPath><clipPath id="g"><path d="M.02 5H9v15H.02Zm0 0"/></clipPath><clipPath id="h"><path d="M110 10h4.234v4H110Zm0 0"/></clipPath><clipPath id="i"><path d="M105 5h9.234v15H105Zm0 0"/></clipPath></defs><path fill="none" stroke="#000" stroke-miterlimit="10" stroke-width=".3975636" d="M1.8 86.031h9.22m0 0h42.152m7.91 0h42.152m0 0h9.22"/><g clip-path="url(#a)"><path fill="#FFF" d="M3.379 86.031a1.58 1.58 0 1 0-3.16-.005 1.58 1.58 0 0 0 3.16.005m0 0"/></g><g clip-path="url(#b)"><path fill="none" stroke="#000" stroke-miterlimit="10" stroke-width=".3975636" d="M3.379 86.031a1.58 1.58 0 1 0-3.16-.005 1.58 1.58 0 0 0 3.16.005Zm0 0"/></g><path stroke="#000" stroke-miterlimit="10" stroke-width=".3975636" d="M21.824 86.031a1.58 1.58 0 0 0-1.582-1.582 1.58 1.58 0 1 0 0 3.16 1.58 1.58 0 0 0 1.582-1.578Zm0 0"/><g clip-path="url(#c)"><path fill="none" stroke="#000" stroke-miterlimit="10" stroke-width=".7941308" d="M53.172 74.168v23.723m7.91-23.723v23.723"/></g><path stroke="#000" stroke-miterlimit="10" stroke-width=".3975636" d="M95.594 86.031a1.583 1.583 0 0 0-3.164 0 1.582 1.582 0 0 0 3.164 0Zm0 0"/><g clip-path="url(#d)"><path fill="#FFF" d="M114.035 86.031a1.58 1.58 0 1 0-3.16-.003 1.58 1.58 0 0 0 3.16.003m0 0"/></g><g clip-path="url(#e)"><path fill="none" stroke="#000" stroke-miterlimit="10" stroke-width=".3975636" d="M114.035 86.031a1.58 1.58 0 1 0-3.16-.003 1.58 1.58 0 0 0 3.16.003Zm0 0"/></g><path fill="none" stroke="#000" stroke-miterlimit="10" stroke-width=".3975636" d="M1.8 12.258h9.22m0 0h42.152m7.91 0h42.152m0 0h9.22"/><g clip-path="url(#f)"><path fill="#FFF" d="M3.379 12.258c0-.871-.707-1.582-1.578-1.582a1.583 1.583 0 0 0 0 3.164 1.58 1.58 0 0 0 1.578-1.582m0 0"/></g><g clip-path="url(#g)"><path fill="none" stroke="#000" stroke-miterlimit="10" stroke-width=".3975636" d="M3.379 12.258c0-.871-.707-1.582-1.578-1.582a1.583 1.583 0 0 0 0 3.164 1.58 1.58 0 0 0 1.578-1.582Zm0 0"/></g><path stroke="#000" stroke-miterlimit="10" stroke-width=".3975636" d="M21.824 12.258a1.583 1.583 0 1 0-3.166.002 1.583 1.583 0 0 0 3.166-.002Zm0 0"/><path fill="none" stroke="#000" stroke-miterlimit="10" stroke-width=".7941308" d="M53.172.395V24.12M61.082.395V24.12"/><path stroke="#000" stroke-miterlimit="10" stroke-width=".3975636" d="M95.594 12.258a1.583 1.583 0 1 0-3.166.002 1.583 1.583 0 0 0 3.166-.002Zm0 0"/><g clip-path="url(#h)"><path fill="#FFF" d="M114.035 12.258c0-.871-.707-1.582-1.582-1.582a1.582 1.582 0 0 0 0 3.164 1.58 1.58 0 0 0 1.582-1.582m0 0"/></g><g clip-path="url(#i)"><path fill="none" stroke="#000" stroke-miterlimit="10" stroke-width=".3975636" d="M114.035 12.258c0-.871-.707-1.582-1.582-1.582a1.582 1.582 0 0 0 0 3.164 1.58 1.58 0 0 0 1.582-1.582Zm0 0"/></g><path fill="none" stroke="#000" stroke-miterlimit="10" stroke-width=".3975636" d="M20.242 86.031v-21.07m0-31.633v-21.07"/><path fill="none" stroke="#000" stroke-linejoin="bevel" stroke-miterlimit="10" stroke-width=".7941308" d="M20.402 65.36c-3.277 0-5.933-1.817-5.933-4.055 0-2.239 2.656-4.055 5.933-4.055-3.277 0-5.933-1.812-5.933-4.05 0-2.24 2.656-4.055 5.933-4.055-3.277 0-5.933-1.817-5.933-4.055s2.656-4.05 5.933-4.05c-3.277 0-5.933-1.817-5.933-4.056s2.656-4.054 5.933-4.054"/><path fill="none" stroke="#000" stroke-miterlimit="10" stroke-width=".3975636" d="M94.012 86.031v-21.07m0-31.633v-21.07"/><path fill="none" stroke="#000" stroke-linejoin="bevel" stroke-miterlimit="10" stroke-width=".7941308" d="M94.172 65.36c-3.277 0-5.934-1.817-5.934-4.055 0-2.239 2.657-4.055 5.934-4.055-3.277 0-5.934-1.812-5.934-4.05 0-2.24 2.657-4.055 5.934-4.055-3.277 0-5.934-1.817-5.934-4.055s2.657-4.05 5.934-4.05c-3.277 0-5.934-1.817-5.934-4.056s2.657-4.054 5.934-4.054"/><path fill="none" stroke="#000" stroke-dasharray="2.978070212 1.98537682" stroke-miterlimit="10" stroke-width=".3975636" d="M12.324 33.328v31.633M86.094 33.328v31.633"/></svg>