<svg xmlns="http://www.w3.org/2000/svg" xmlns:xlink="http://www.w3.org/1999/xlink" width="229.622" height="125.036"><defs><path id="c" d="M2.016-.562v-4.422L.688-4.72a1 1 0 0 1-.016-.187q-.001-.2.203-.282l1.469-.593h.453v5.219l1.078.156q.14.033.14.11-.001.08-.109.296H.86v-.078q0-.311.282-.36Zm0 0"/><path id="d" d="M5.813-6.14v.093c0 .156-.102.262-.297.313l-.235.046L3.266 0H2.53L.453-5.672l-.375-.094q-.124-.03-.125-.125c0-.05.035-.132.094-.25H2.03v.094c0 .156-.101.258-.297.297l-.375.094L3-.891h.016l1.687-4.796-.687-.094q-.127-.029-.125-.11c0-.039.03-.125.093-.25Zm0 0"/><path id="e" d="M2.219-.39c.726 0 1.094-.833 1.094-2.5 0-1.665-.368-2.5-1.094-2.5q-1.094.001-1.094 2.5-.001 2.5 1.094 2.5m-.031.5q-.88.002-1.36-.735-.532-.778-.531-2.266 0-1.464.562-2.25.527-.75 1.407-.75.873 0 1.359.75.516.786.516 2.25 0 1.47-.563 2.266c-.344.492-.808.734-1.39.734m0 0"/><path id="f" d="M.875-.922q.264 0 .422.219.17.205.172.562 0 .574-.375.985-.316.328-.61.328c-.093 0-.164-.078-.203-.234Q.855.621.891.046a.5.5 0 0 1-.344-.125.47.47 0 0 1-.14-.344c0-.156.038-.273.124-.36a.47.47 0 0 1 .344-.14m0 0"/><path id="g" d="M1.125-5.781h2.531L3.61-5H1.516l-.11 1.406c.852.031 1.473.211 1.86.531q.546.456.547 1.376c0 .5-.18.93-.532 1.28Q2.747.11 1.891.11 1.17.108.813-.156a.61.61 0 0 1-.266-.516q0-.389.39-.531.171.362.282.484.293.345.828.344c.344 0 .617-.113.828-.344.195-.207.297-.476.297-.812q0-.732-.563-1.047-.55-.312-1.78-.313Zm0 0"/><path id="h" d="m.938-3.812-.47.03c-.171 0-.234.079-.25.141a1 1 0 0 0-.046.157c0 .015.031.015.062.015H.86L.313-1.047C.25-.766.188-.484.188-.313c0 .313.156.407.437.407.39 0 .984-.375 1.281-.922C1.891-.938 1.828-1 1.72-1c-.407.469-.578.563-.719.563-.016 0-.11-.032-.11-.125 0-.094.032-.266.094-.563l.532-2.344h.859c.11-.047.188-.281.094-.344h-.875l.093-.406c.032-.172.11-.422.11-.531 0-.156-.078-.234-.36-.234-.312 0-.296.39-.39.718Zm0 0"/><path id="i" d="M1.813.094c1.75 0 2.359-1.14 2.671-2.719l.485-2.437c.031-.25.172-.391.547-.422l.218-.016c.047 0 .079-.016.079-.062l.03-.172-.015-.016c-.39 0-.75.016-.937.016-.203 0-.532-.016-.938-.016l-.015.016-.032.172c-.015.046.016.062.047.062l.235.016c.28.03.406.109.406.297 0 .03-.016.078-.032.125l-.5 2.593c-.187 1-.546 2.188-2 2.188-.406 0-.718-.188-.921-.438-.188-.234-.25-.515-.25-.797 0-.296.062-.593.109-.875l.531-2.687c.047-.25.188-.375.547-.406l.219-.016c.047 0 .078-.016.078-.062l.047-.172-.016-.016c-.406 0-.765.016-1.094.016-.343 0-.687-.016-1.078-.016l-.03.016-.032.172c0 .046.031.062.062.062l.22.016c.28.03.405.093.405.28 0 .032 0 .079-.015.126L.266-2.094a3 3 0 0 0-.063.625c0 1.266.938 1.563 1.61 1.563m0 0"/><path id="j" d="M2.047-.875v-2.469c0-.422.015-.86.031-.953 0-.031-.015-.031-.047-.031-.39.234-.765.422-1.39.703 0 .078.03.156.093.203.329-.14.485-.187.625-.187.125 0 .141.172.141.422v2.312c0 .594-.187.625-.687.656-.047.047-.047.188 0 .235C1.156 0 1.422 0 1.797 0c.344 0 .516 0 .875.016.047-.047.047-.188 0-.235-.5-.031-.625-.062-.625-.656m0 0"/><path id="k" d="M.438-3.328c0 .14.125.265.28.265.126 0 .329-.124.329-.28 0-.063 0-.095-.016-.141C1.016-3.547.97-3.61.97-3.656c0-.188.187-.438.703-.438.266 0 .625.172.625.86 0 .453-.172.828-.594 1.25l-.516.53C.485-.75.375-.405.375.017c0 0 .36-.016.594-.016h1.234c.235 0 .563.016.563.016.093-.375.156-.907.172-1.125a.3.3 0 0 0-.204-.032c-.125.5-.25.672-.5.672H.97c0-.343.484-.828.515-.86l.72-.687c.405-.39.718-.703.718-1.25 0-.765-.625-1.078-1.203-1.078-.797 0-1.281.578-1.281 1.016m0 0"/><clipPath id="a"><path d="M.691 8H16v15H.691Zm0 0"/></clipPath><clipPath id="b"><path d="M.691 3H109v121.078H.691Zm0 0"/></clipPath></defs><path fill="none" stroke="#000" stroke-miterlimit="10" stroke-width=".39594765" d="M3.004 74.613H96.91"/><path stroke="#000" stroke-miterlimit="10" stroke-width=".39594765" d="m99.96 74.613-2.952-1.75v3.5Zm0 0"/><path fill="none" stroke="#000" stroke-miterlimit="10" stroke-width=".39594765" d="M7.871 123.29V17.214"/><path d="m7.871 14.164-1.75 2.95h3.5Zm0 0"/><g clip-path="url(#a)"><path fill="none" stroke="#000" stroke-miterlimit="10" stroke-width=".39594765" d="m7.871 14.164-1.75 2.95h3.5Zm0 0"/></g><g clip-path="url(#b)"><path fill="none" stroke="#000" stroke-miterlimit="10" stroke-width="1.5818059" d="M7.871 74.613c3.172-12.46 6.211-24.34 9.535-24.34h.399c3.324 0 6.363 11.88 9.488 24.149l.098.383c3.125 12.27 6.16 24.144 9.488 24.144h.394c3.329 0 6.364-11.875 9.489-24.144.027-.106.058-.282.074-.387 3.148-24.727 6.187-48.48 9.512-48.48h.394c3.328 0 6.363 23.753 9.516 48.48.012.105.035.281.047.39 3.148 24.727 6.187 48.481 9.511 48.481h.399c3.324 0 6.363-23.754 9.535-48.676"/></g><path fill="none" stroke="#000" stroke-dasharray="2.9659654505 1.9773069925" stroke-miterlimit="10" stroke-width=".39594765" d="M3.004 25.938h97.351M3.004 50.273h97.351"/><use xlink:href="#c" x="85.492" y="22.773"/><use xlink:href="#d" x="91.418" y="22.773"/><use xlink:href="#e" x="79.202" y="45.937"/><use xlink:href="#f" x="83.65" y="45.937"/><use xlink:href="#g" x="85.492" y="45.937"/><use xlink:href="#d" x="91.418" y="45.937"/><use xlink:href="#h" x="99.343" y="82.768"/><use xlink:href="#i" x="3.656" y="8.722"/><use xlink:href="#j" x="8.39" y="10.59"/><path fill="none" stroke="#000" stroke-miterlimit="10" stroke-width=".39594765" d="M117.39 105.035h24.34m0 0h36.508m0 0h24.336m0 0h12.172"/><path fill="#FFF" stroke="#000" stroke-miterlimit="10" stroke-width=".39594765" d="M118.969 105.035a1.575 1.575 0 1 0-3.151.003 1.575 1.575 0 0 0 3.15-.003ZM216.32 105.035a1.575 1.575 0 1 0-3.154.002 1.575 1.575 0 0 0 3.154-.002Zm0 0"/><path fill="none" stroke="#000" stroke-miterlimit="10" stroke-width=".39594765" d="M117.39 32.02h10.712m27.257 0h22.88m0 0h24.335m0 0h12.172"/><path fill="none" stroke="#000" stroke-miterlimit="10" stroke-width=".79090295" d="M128.102 26.91h27.257v10.223h-27.257Zm0 0"/><path fill="#FFF" stroke="#000" stroke-miterlimit="10" stroke-width=".39594765" d="M118.969 32.02a1.577 1.577 0 1 0-1.578 1.578c.87 0 1.578-.707 1.578-1.578ZM216.32 32.02a1.577 1.577 0 0 0-3.152 0c0 .87.707 1.578 1.578 1.578.867 0 1.574-.707 1.574-1.578Zm0 0"/><path fill="none" stroke="#000" stroke-miterlimit="10" stroke-width=".39594765" d="M166.066 32.02v29.695m0 13.629v29.691"/><path fill="none" stroke="#000" stroke-miterlimit="10" stroke-width=".79090295" d="m166.066 61.715 8.52 13.629H157.55Zm0 0"/><path fill="none" stroke="#000" stroke-miterlimit="10" stroke-width=".39594765" d="M166.066 61.715v13.629"/><path fill="none" stroke="#000" stroke-miterlimit="10" stroke-width=".79090295" d="M157.55 61.715h17.036"/><path stroke="#000" stroke-miterlimit="10" stroke-width=".39594765" d="M167.644 32.02a1.577 1.577 0 1 0-1.578 1.578c.871 0 1.578-.707 1.578-1.578ZM167.644 105.035a1.575 1.575 0 1 0-3.15.003 1.575 1.575 0 0 0 3.15-.003Zm0 0"/><path fill="none" stroke="#000" stroke-miterlimit="10" stroke-width=".39594765" d="M190.406 32.02v29.695m0 13.629v29.691"/><path fill="none" stroke="#000" stroke-miterlimit="10" stroke-width=".79090295" d="m190.406 75.344 8.52-13.63h-17.04Zm0 0"/><path fill="none" stroke="#000" stroke-miterlimit="10" stroke-width=".39594765" d="M190.406 75.344v-13.63"/><path fill="none" stroke="#000" stroke-miterlimit="10" stroke-width=".79090295" d="M181.887 75.344h17.039"/><path stroke="#000" stroke-miterlimit="10" stroke-width=".39594765" d="M191.98 32.02a1.575 1.575 0 0 0-3.148 0 1.575 1.575 0 1 0 3.148 0ZM191.98 105.035c0-.87-.703-1.574-1.574-1.574-.87 0-1.574.703-1.574 1.574s.703 1.574 1.574 1.574 1.574-.703 1.574-1.574Zm0 0"/><path fill="none" stroke="#000" stroke-miterlimit="10" stroke-width=".39594765" d="M117.39 42.926v51.207"/><path stroke="#000" stroke-miterlimit="10" stroke-width=".39594765" d="M117.39 89.95h-1.968l1.969 4.183 1.968-4.184Zm0 0"/><use xlink:href="#i" x="120.802" y="70.466"/><use xlink:href="#j" x="125.535" y="72.334"/><path fill="none" stroke="#000" stroke-miterlimit="10" stroke-width=".39594765" d="M214.746 42.926v51.207"/><path stroke="#000" stroke-miterlimit="10" stroke-width=".39594765" d="M214.746 89.95h-1.973l1.973 4.183 1.969-4.184Zm0 0"/><use xlink:href="#i" x="218.153" y="70.466"/><use xlink:href="#k" x="222.887" y="72.334"/></svg>