<svg xmlns="http://www.w3.org/2000/svg" xmlns:xlink="http://www.w3.org/1999/xlink" width="224.959" height="259.68"><defs><path id="b" d="M2.031-.578v-4.438L.687-4.75a1 1 0 0 1-.015-.187c0-.133.07-.235.219-.297l1.468-.578h.454v5.234l1.093.172q.124.016.125.11 0 .08-.093.296H.874a.16.16 0 0 1-.016-.078q0-.311.282-.36Zm0 0"/><path id="c" d="M.828-.469v-5.484l-.656-.094a.1.1 0 0 1-.016-.062q0-.246.344-.282L1.547-6.5v4h.547L3.28-3.875l-.625-.14v-.063q-.001-.218.25-.219h1.438c.07 0 .11.031.11.094a.5.5 0 0 1-.063.187l-.516.172-1.266 1.438L4.125-.453l.453.11q.124.015.125.109A.35.35 0 0 1 4.61 0H3.453l-1.5-2.047h-.406v1.594L2-.343q.124.015.125.109A.4.4 0 0 1 2.047 0H.219v-.062c0-.133.094-.235.281-.297Zm0 0"/><path id="d" d="M2.594-6.172c.008.024.015.047.015.078q0 .237-.312.297l-.422.094v2.281h3v-2.281l-.562-.125c-.086-.02-.125-.05-.125-.094q0-.075.093-.25H6.36a.2.2 0 0 1 .016.078q0 .237-.312.297l-.407.094V-.5l.61.14q.124.018.125.094 0 .048-.094.266h-2.11v-.078q0-.246.297-.328L4.875-.5v-2.39h-3V-.5l.625.14q.124.018.125.094 0 .048-.094.266H.421a.16.16 0 0 1-.015-.078Q.404-.324.72-.406L1.094-.5v-5.203l-.547-.125c-.086-.02-.125-.05-.125-.094q0-.075.094-.25Zm0 0"/><path id="e" d="M.469-3.406q0-.329.062-.89h2.907q.03.08.03.171 0 .158-.093.313L1.141-.47v.016h1.75l.328-.89q.077-.015.125-.016.248 0 .25.28Q3.593-.983 3.469 0H.406a.6.6 0 0 1-.094-.328q0-.124.094-.266l2.157-3.25v-.015h-1.47l-.25.75H.72q-.251 0-.25-.297m0 0"/><path id="f" d="M2.922-6.719h.625L.828 1.25h-.61Zm0 0"/><path id="g" d="M2.375-6.172q3.563 0 3.563 3 0 1.583-.938 2.39C4.383-.257 3.508 0 2.375 0H.422a.16.16 0 0 1-.016-.078Q.404-.324.72-.406L1.094-.5v-5.203l-.547-.125c-.086-.02-.125-.05-.125-.094q0-.075.094-.25ZM2.344-.5q1.325 0 2.047-.672c.476-.445.718-1.11.718-1.984q-.002-1.248-.718-1.875-.721-.64-2.047-.64h-.469V-.5Zm0 0"/><path id="h" d="M.906-.469v-3.343l-.64-.079a.2.2 0 0 1-.016-.078q0-.246.328-.281l1.063-.094v3.875l.53.125q.125.017.126.11A.4.4 0 0 1 2.219 0H.313a.1.1 0 0 1-.016-.062c0-.133.094-.235.281-.297Zm-.14-5.375q0-.234.14-.375a.52.52 0 0 1 .36-.14.507.507 0 0 1 .53.515.49.49 0 0 1-.155.375.53.53 0 0 1-.375.125.5.5 0 0 1-.36-.125.5.5 0 0 1-.14-.375m0 0"/><path id="i" d="M4.469-4.297c.07 0 .11.031.11.094a.5.5 0 0 1-.063.187l-.422.172L2.562 0h-.578L.454-3.875l-.407-.14a.2.2 0 0 1-.016-.063q-.001-.218.25-.219H1.75c.07 0 .11.031.11.094a.5.5 0 0 1-.063.187l-.5.141L2.375-.812h.016l1.172-3.063-.657-.14a.2.2 0 0 1-.015-.063q-.001-.218.25-.219Zm0 0"/><path id="j" d="M.406-.375q0-.218.14-.36a.47.47 0 0 1 .345-.14c.132 0 .25.047.343.14a.47.47 0 0 1 .157.36.47.47 0 0 1-.157.36.5.5 0 0 1-.343.124.5.5 0 0 1-.344-.125.48.48 0 0 1-.14-.359m0 0"/><path id="t" d="M2.234-.39q1.11.001 1.11-2.516 0-2.515-1.11-2.516-1.094.001-1.093 2.516c0 1.68.363 2.515 1.093 2.515m-.03.5q-.88 0-1.376-.75Q.296-1.42.297-2.907.296-4.39.875-5.187q.516-.734 1.406-.735.873.001 1.375.734.516.798.516 2.282 0 1.47-.563 2.265-.515.75-1.406.75m0 0"/><path id="u" d="M3.422-.516H3.39Q2.95.11 2.109.11 1.39.11.938-.359C.57-.723.39-1.273.39-2.016q0-1.183.703-1.828.609-.562 1.5-.562.404.001.765.125v-1.672l-.64-.094a.1.1 0 0 1-.016-.062q0-.246.328-.282L4.094-6.5v6l.656.094v.078q0 .252-.328.281l-1 .094Zm-1.094.047q.657 0 1.031-.39v-2.72q-.315-.327-.859-.327-.597.002-.953.437c-.274.324-.406.762-.406 1.313q-.001.86.343 1.281.311.408.844.406m0 0"/><path id="v" d="M2.563-6.172q2.295 0 2.296 1.547-.002 1.208-1.328 1.453v.016Q4.998-2.967 5-1.734 4.998-.95 4.406-.5c-.43.336-1.023.5-1.781.5H.422a.16.16 0 0 1-.016-.078Q.404-.324.72-.406L1.094-.5v-5.203l-.547-.125c-.086-.02-.125-.05-.125-.094q0-.075.094-.25ZM2.53-.5q.81.001 1.25-.344.388-.328.39-.89a.98.98 0 0 0-.421-.828q-.408-.33-1.156-.329h-.719V-.5ZM2.47-3.36q.796.001 1.219-.343c.238-.195.359-.469.359-.813 0-.77-.524-1.156-1.563-1.156h-.609v2.313Zm0 0"/><path id="k" d="M-.578-2.031h-4.438l.266 1.344q-.106.016-.187.015c-.133 0-.235-.07-.297-.219l-.578-1.468v-.453h5.234l.172-1.094q.016-.124.11-.125.08 0 .296.093v3.063a.16.16 0 0 1-.078.016q-.311 0-.36-.282Zm0 0"/><path id="l" d="M-.39-2.234q.001-1.11-2.516-1.11-2.515 0-2.516 1.11.001 1.094 2.516 1.093c1.68 0 2.515-.363 2.515-1.093m.5.03q0 .88-.75 1.376-.779.532-2.266.531-1.484.001-2.281-.578-.734-.515-.735-1.406.001-.873.734-1.375.798-.516 2.282-.516 1.47 0 2.265.563.75.515.75 1.406m0 0"/><path id="m" d="M-.516-3.422v.031q.626.44.625 1.282 0 .72-.468 1.172c-.364.367-.914.546-1.657.546q-1.183 0-1.828-.703-.562-.609-.562-1.5.001-.404.125-.765h-1.672l-.094.64a.1.1 0 0 1-.062.016q-.246 0-.282-.328L-6.5-4.094h6l.094-.656h.078q.252 0 .281.328l.094 1Zm.047 1.094q0-.657-.39-1.031h-2.72q-.327.315-.327.859.002.597.437.953c.324.274.762.406 1.313.406q.86.001 1.281-.343.408-.311.406-.844m0 0"/><path id="n" d="M-6.172-2.562q0-2.298 1.547-2.297 1.208.002 1.453 1.328h.016Q-2.967-4.998-1.734-5q.784.002 1.234.594c.336.43.5 1.023.5 1.781v2.203a.16.16 0 0 1-.078.016q-.246.002-.328-.313L-.5-1.094h-5.203l-.125.547c-.02.086-.05.125-.094.125q-.075 0-.25-.094Zm5.672.03q.001-.808-.344-1.25c-.219-.257-.515-.39-.89-.39a.98.98 0 0 0-.828.422q-.33.408-.329 1.156v.719H-.5Zm-2.86.063q.001-.796-.343-1.219c-.195-.238-.469-.359-.813-.359-.77 0-1.156.524-1.156 1.563v.609h2.313Zm0 0"/><path id="o" d="M-6.719-2.922v-.625L1.25-.828v.61Zm0 0"/><path id="p" d="M-6.172-2.375q0-3.562 3-3.562 1.583 0 2.39.937C-.257-4.383 0-3.508 0-2.375v1.953a.16.16 0 0 1-.078.016q-.246.002-.328-.313L-.5-1.094h-5.203l-.125.547c-.02.086-.05.125-.094.125q-.075 0-.25-.094Zm5.672.031q0-1.325-.672-2.047c-.445-.476-1.11-.718-1.984-.718q-1.248.002-1.875.718-.64.721-.64 2.047v.469H-.5Zm0 0"/><path id="q" d="M-.469-.906h-3.343l-.079.64a.2.2 0 0 1-.078.016q-.246 0-.281-.328l-.094-1.063h3.875l.125-.53q.017-.125.11-.126.129 0 .234.078v1.906a.1.1 0 0 1-.062.016c-.133 0-.235-.094-.297-.281Zm-5.375.14a.5.5 0 0 1-.375-.14.52.52 0 0 1-.14-.36.507.507 0 0 1 .515-.53q.236.002.375.155a.53.53 0 0 1 .125.375c0 .149-.039.266-.125.36a.5.5 0 0 1-.375.14m0 0"/><path id="r" d="M-4.297-4.469c0-.07.031-.11.094-.11.043 0 .105.024.187.063l.172.422L0-2.562v.578l-3.875 1.53-.14.407a.2.2 0 0 1-.063.016q-.218.001-.219-.25V-1.75c0-.07.031-.11.094-.11.043 0 .105.024.187.063l.141.5 3.063-1.078v-.016l-3.063-1.171-.14.656a.2.2 0 0 1-.063.015q-.218.001-.219-.25Zm0 0"/><path id="s" d="M-.375-.406a.5.5 0 0 1-.36-.14.47.47 0 0 1-.14-.345c0-.132.047-.25.14-.343a.47.47 0 0 1 .36-.157c.148 0 .266.055.36.157a.5.5 0 0 1 .124.343q-.001.204-.125.344a.48.48 0 0 1-.359.14m0 0"/><clipPath id="a"><path d="M27 6h197.8v231H27Zm0 0"/></clipPath></defs><g clip-path="url(#a)"><path fill="none" stroke="#000" stroke-miterlimit="10" stroke-width=".39850923000000005" d="M27.719 235.984h196.883M27.719 203.172h196.883M27.719 170.359h196.883M27.719 137.543h196.883M27.719 104.73h196.883M27.719 71.918h196.883M27.719 39.102h196.883M27.719 6.297h196.883M27.719 235.984V6.29m32.816 229.695V6.29m32.813 229.695V6.29m32.812 229.695V6.29m32.817 229.695V6.29m32.812 229.695V6.29m32.805 229.695V6.29"/></g><path fill="none" stroke="#000" stroke-miterlimit="10" stroke-width="1.5920393800000001" d="M53.973 235.984 85.855 44.688c.512-3.086 2.336-7.696 4.07-10.297l.282-.422c1.734-2.602 5.496-5.653 8.398-6.813l5.891-2.36c2.906-1.16 7.688-1.374 10.684-.476l5.558 1.672c2.996.899 7.852.899 10.848 0l5.559-1.672c2.996-.898 7.777-.683 10.68.477l5.894 2.36c2.902 1.16 6.664 4.21 8.398 6.812l.281.422c1.735 2.601 3.555 7.21 4.07 10.297l31.884 191.296"/><use xlink:href="#b" x="171.733" y="255.122"/><use xlink:href="#c" x="177.698" y="255.122"/><use xlink:href="#d" x="182.444" y="255.122"/><use xlink:href="#e" x="189.214" y="255.122"/><use xlink:href="#f" x="193.155" y="255.122"/><use xlink:href="#g" x="196.925" y="255.122"/><use xlink:href="#h" x="203.337" y="255.122"/><use xlink:href="#i" x="205.791" y="255.122"/><use xlink:href="#j" x="210.062" y="255.122"/><use xlink:href="#k" x="14.045" y="222.902"/><use xlink:href="#l" x="14.045" y="218.425"/><use xlink:href="#m" x="14.045" y="212.46"/><use xlink:href="#n" x="14.045" y="207.517"/><use xlink:href="#o" x="14.045" y="202.117"/><use xlink:href="#p" x="14.045" y="198.347"/><use xlink:href="#q" x="14.045" y="191.935"/><use xlink:href="#r" x="14.045" y="189.49"/><use xlink:href="#s" x="14.045" y="185.218"/><use xlink:href="#t" x="3.102" y="9.487"/><use xlink:href="#u" x="9.067" y="9.487"/><use xlink:href="#v" x="14.01" y="9.487"/></svg>