<svg xmlns="http://www.w3.org/2000/svg" width="113.388" height="85.041"><defs><clipPath id="a"><path d="M.328 3h112.125v78H.328Zm0 0"/></clipPath><clipPath id="b"><path d="M.328 0h112.125v65H.328Zm0 0"/></clipPath><clipPath id="c"><path d="M.328 19h112.125v65.094H.328Zm0 0"/></clipPath></defs><g clip-path="url(#a)"><path fill="#7F7F7F" fill-opacity=".5" d="m.328 22.934.567 1.476a286.947 286.947 0 0 0 1.125 2.922 170.008 170.008 0 0 0 1.691 4.16 75.728 75.728 0 0 0 1.125 2.531c.156.336.406.856.566 1.172.157.313.407.801.563 1.098.156.293.406.746.562 1.016s.407.683.563.93c.156.245.406.62.562.84a13.427 13.427 0 0 0 1.129 1.383c.157.163.407.401.563.538.156.133.406.324.562.426.156.105.41.246.567.32.156.07.406.164.562.203.156.043.406.082.563.09.156.012.406 0 .562-.023a3.3 3.3 0 0 0 1.13-.387 5.7 5.7 0 0 0 1.124-.836c.156-.145.41-.402.566-.578.157-.176.407-.48.563-.684.156-.203.406-.55.562-.781s.407-.621.563-.875c.156-.258.406-.687.566-.969.157-.277.407-.746.563-1.05.156-.301.406-.805.562-1.126a71 71 0 0 0 1.125-2.46c.157-.356.41-.946.567-1.317a162 162 0 0 0 1.125-2.77c.156-.394.406-1.035.562-1.437s.41-1.05.567-1.457c.156-.406.406-1.066.562-1.473l.563-1.48.562-1.477c.156-.406.41-1.058.567-1.46.156-.403.406-1.047.562-1.442s.406-1.027.563-1.41c.156-.387.406-1 .562-1.375s.41-.965.567-1.328c.156-.36.406-.926.562-1.274a62.925 62.925 0 0 1 1.125-2.352c.156-.304.406-.78.566-1.062a25.566 25.566 0 0 1 1.125-1.879c.157-.234.407-.59.563-.8.156-.207.406-.52.562-.704.157-.18.41-.445.567-.597a8 8 0 0 1 .562-.492c.157-.122.407-.293.563-.387.156-.09.406-.211.562-.27a3.4 3.4 0 0 1 .567-.16c.156-.027.406-.047.562-.047.156.004.406.035.563.07s.406.118.562.184c.156.067.41.2.567.297.156.098.406.277.562.406.156.13.406.36.563.516.156.16.406.437.562.621.156.188.41.512.567.727.156.21.406.578.562.82.156.238.406.648.563.914a38 38 0 0 1 1.125 2.082c.16.309.41.824.566 1.156a74 74 0 0 1 1.125 2.508c.156.363.406.961.562 1.34a126 126 0 0 1 1.13 2.8c.156.395.406 1.044.562 1.446l.562 1.465.567 1.476.562 1.48a590 590 0 0 0 1.125 2.927 274 274 0 0 0 1.13 2.828c.155.383.405.984.562 1.355.156.367.406.95.562 1.305s.41.91.567 1.25c.156.336.406.863.562 1.184.156.316.406.812.563 1.109s.406.758.562 1.035c.156.274.406.695.563.945.16.25.41.633.566.86.156.222.406.562.562.761a9.35 9.35 0 0 0 1.125 1.215c.157.141.41.34.567.45s.406.261.562.34c.157.078.407.18.563.226s.406.098.562.113c.157.016.41.016.567 0 .156-.015.406-.066.562-.117.157-.047.407-.148.563-.227.156-.082.406-.234.562-.343s.41-.309.567-.45c.156-.14.406-.39.562-.558.156-.172.406-.469.563-.664a19 19 0 0 0 1.129-1.625c.156-.25.406-.672.562-.95.156-.273.406-.734.563-1.03.156-.301.406-.797.562-1.114.156-.32.406-.848.563-1.187.16-.336.41-.895.566-1.25a109 109 0 0 0 1.125-2.66c.156-.383.406-1.008.563-1.399.156-.395.41-1.031.566-1.434.156-.398.406-1.046.562-1.453.157-.406.407-1.062.563-1.472l.562-1.477.567-1.476.562-1.47.563-1.445c.156-.398.406-1.027.562-1.418a166 166 0 0 1 1.13-2.718 73.957 73.957 0 0 1 1.125-2.504 55.024 55.024 0 0 1 1.129-2.238c.155-.286.405-.73.562-.997.156-.265.406-.671.562-.914.156-.238.406-.605.563-.816.156-.215.41-.535.566-.723s.406-.46.563-.62a6.337 6.337 0 0 1 1.125-.918c.156-.098.41-.227.566-.294s.406-.148.562-.18a3.5 3.5 0 0 1 .563-.07c.156 0 .406.02.562.047.157.031.41.102.567.164.156.059.406.184.562.274.157.093.407.265.563.386.156.122.406.344.562.497.157.152.41.417.567.601.156.18.406.496.562.703a21 21 0 0 1 1.125 1.7c.156.261.406.699.567.984.156.285.406.761.562 1.066a63 63 0 0 1 1.688 3.63c.156.358.41.952.566 1.327a166 166 0 0 1 1.688 4.23c.156.403.41 1.055.566 1.462.156.406.406 1.066.562 1.476l.563 1.477.562 1.472c.157.41.41 1.059.567 1.461s.406 1.043.562 1.434c.157.394.407 1.023.563 1.406s.406.992.562 1.363a111 111 0 0 0 1.13 2.579c.156.34.406.875.562 1.195s.406.824.562 1.125a34.9 34.9 0 0 0 1.129 2.012 19.332 19.332 0 0 0 1.125 1.656 9.984 9.984 0 0 0 1.129 1.258 5.696 5.696 0 0 0 1.125.832c.156.082.406.195.563.246.156.054.41.113.566.137.156.02.406.03.563.02a3.1 3.1 0 0 0 1.124-.302c.157-.074.41-.215.567-.32.156-.102.406-.297.562-.43a9 9 0 0 0 1.125-1.183c.157-.192.41-.524.567-.742.156-.223.406-.598.562-.844s.407-.66.563-.93c.156-.273.406-.727.562-1.02A57 57 0 0 0 110.2 34c.155-.336.405-.887.562-1.238a107 107 0 0 0 1.125-2.645c.156-.379.566-1.39.566-1.39v26.636l-.566-1.39a107.128 107.128 0 0 0-1.125-2.645 76 76 0 0 0-.563-1.234 57.41 57.41 0 0 0-1.129-2.273 40 40 0 0 0-.562-1.016 22.379 22.379 0 0 0-1.125-1.773 13.567 13.567 0 0 0-1.129-1.39 10 10 0 0 0-.563-.54 8 8 0 0 0-.562-.43 6 6 0 0 0-.567-.32 5 5 0 0 0-.562-.207 3.5 3.5 0 0 0-.562-.094 3.4 3.4 0 0 0-.563.023c-.156.02-.41.078-.566.133a4.4 4.4 0 0 0-.563.25 5 5 0 0 0-.562.36 8 8 0 0 0-.563.468c-.156.149-.41.403-.566.578-.157.176-.407.477-.563.68s-.406.55-.562.781-.407.621-.563.875-.406.684-.562.965c-.16.277-.41.746-.567 1.047s-.406.805-.562 1.125a71 71 0 0 0-1.125 2.457c-.156.36-.41.945-.567 1.316a162 162 0 0 0-1.125 2.77c-.156.394-.406 1.035-.562 1.437l-.567 1.457-.562 1.473-.563 1.48c-.156.41-.406 1.067-.562 1.473-.156.41-.41 1.063-.566 1.465-.157.402-.407 1.047-.563 1.441s-.406 1.028-.562 1.415a113.367 113.367 0 0 1-1.691 3.973c-.157.347-.407.886-.563 1.214-.157.324-.407.836-.563 1.14-.156.31-.406.786-.562 1.067-.16.285-.41.727-.567.984-.156.262-.406.665-.562.899s-.406.594-.563.8c-.156.212-.406.524-.562.708-.156.18-.41.449-.567.601a8 8 0 0 1-.562.492 5 5 0 0 1-.563.387 5 5 0 0 1-.562.278c-.156.058-.41.132-.567.16s-.406.05-.562.047a3.5 3.5 0 0 1-.563-.067 4.5 4.5 0 0 1-.562-.18c-.156-.066-.41-.199-.566-.296a6 6 0 0 1-.563-.403 10 10 0 0 1-.562-.515 13 13 0 0 1-.563-.618c-.156-.187-.41-.507-.566-.722a21 21 0 0 1-1.125-1.73 38 38 0 0 1-1.125-2.083 45 45 0 0 1-.567-1.152 93 93 0 0 1-.562-1.223 105 105 0 0 1-1.125-2.62c-.157-.38-.41-.993-.567-1.384-.156-.386-.406-1.02-.562-1.418-.156-.394-.406-1.043-.563-1.445s-.406-1.059-.562-1.465c-.156-.41-.41-1.066-.567-1.476l-.562-1.48c-.156-.407-.406-1.063-.563-1.47l-.562-1.457a274 274 0 0 0-1.129-2.828 120 120 0 0 0-1.125-2.664 68.272 68.272 0 0 0-1.129-2.434c-.156-.32-.406-.816-.562-1.113a50 50 0 0 0-.563-1.035c-.156-.273-.406-.699-.562-.949s-.41-.633-.567-.86a16 16 0 0 0-.562-.761 9.447 9.447 0 0 0-1.125-1.223 7 7 0 0 0-.567-.453 5 5 0 0 0-.562-.34 4 4 0 0 0-.563-.23 3.6 3.6 0 0 0-.562-.114c-.156-.019-.41-.019-.567-.003a3.6 3.6 0 0 0-.562.113 4 4 0 0 0-.563.226c-.156.079-.406.23-.562.34s-.41.309-.567.45c-.156.14-.406.386-.562.558-.156.168-.406.461-.563.66-.156.196-.406.535-.562.762-.156.223-.406.605-.566.855-.157.25-.407.676-.563.95a41 41 0 0 0-1.125 2.144c-.156.317-.406.844-.562 1.184-.157.336-.41.894-.567 1.246a110 110 0 0 0-1.125 2.664c-.156.379-.406 1.004-.562 1.394-.157.395-.41 1.032-.567 1.434-.156.398-.406 1.047-.562 1.453s-.407 1.063-.563 1.473c-.156.406-.406 1.066-.562 1.476l-.567 1.477a284.94 284.94 0 0 1-1.125 2.914 269 269 0 0 1-.562 1.418 154.005 154.005 0 0 1-1.129 2.719c-.156.363-.406.937-.563 1.285s-.406.894-.562 1.226a53 53 0 0 1-1.129 2.239c-.156.289-.406.734-.562 1-.157.265-.407.672-.563.914-.156.238-.406.605-.562.82s-.41.535-.567.723-.406.465-.562.62a6.4 6.4 0 0 1-1.125.926c-.157.094-.41.227-.567.294a4 4 0 0 1-.562.183 3.5 3.5 0 0 1-.563.07 3 3 0 0 1-1.129-.203 5 5 0 0 1-.562-.273 6 6 0 0 1-.563-.383 8 8 0 0 1-.562-.496c-.156-.148-.41-.418-.567-.598s-.406-.492-.562-.703a18 18 0 0 1-.563-.8 26 26 0 0 1-.562-.895 31 31 0 0 1-.563-.98c-.16-.286-.41-.762-.566-1.067a62 62 0 0 1-.562-1.14 90 90 0 0 1-.563-1.211 113.367 113.367 0 0 1-2.254-5.387c-.156-.395-.406-1.035-.562-1.442l-.567-1.46c-.156-.407-.406-1.067-.562-1.477-.157-.406-.407-1.066-.563-1.477l-.562-1.472-.567-1.461c-.156-.403-.406-1.043-.562-1.438-.156-.39-.406-1.02-.563-1.402a163 163 0 0 0-.562-1.367 99.983 99.983 0 0 0-1.129-2.578c-.156-.34-.406-.875-.563-1.196a51 51 0 0 0-.562-1.129c-.156-.3-.406-.77-.563-1.05-.16-.278-.41-.711-.566-.965a25 25 0 0 0-.563-.88c-.156-.23-.406-.577-.562-.78a15 15 0 0 0-.563-.684 11 11 0 0 0-.566-.578 9 9 0 0 0-.562-.473 6 6 0 0 0-.563-.363 5 5 0 0 0-.562-.25 4 4 0 0 0-.567-.137 3.4 3.4 0 0 0-.562-.023 3.5 3.5 0 0 0-.563.09 4 4 0 0 0-.562.207c-.157.07-.41.215-.567.316a8 8 0 0 0-.562.43 9 9 0 0 0-.563.535c-.156.164-.406.45-.562.64-.156.196-.41.524-.567.743a26 26 0 0 0-.562.84c-.156.246-.406.66-.563.933a40 40 0 0 0-1.125 2.113c-.16.313-.41.836-.566 1.168a95 95 0 0 0-1.125 2.532 158 158 0 0 0-1.691 4.164 285 285 0 0 0-.563 1.449L.895 59.68l-.567 1.476Zm0 0"/></g><g clip-path="url(#b)"><path fill="none" stroke="#000" stroke-miterlimit="10" stroke-width="1.5762269" d="M.328 22.934a2067 2067 0 0 0 1.692 4.398 170.025 170.025 0 0 0 1.691 4.16 75.729 75.729 0 0 0 1.125 2.531c.156.336.406.856.566 1.172.157.313.407.801.563 1.098.156.293.406.746.562 1.016s.407.683.563.93c.156.245.406.62.562.84a13.428 13.428 0 0 0 1.129 1.383c.157.163.407.401.563.538.156.133.406.324.562.426.157.105.41.246.567.32.156.07.406.164.562.203.156.043.406.082.563.09.156.012.406 0 .562-.023a3.3 3.3 0 0 0 1.13-.387 5.7 5.7 0 0 0 1.124-.836c.156-.145.41-.402.566-.578.157-.176.407-.48.563-.684.156-.203.406-.55.562-.781s.407-.621.563-.875c.156-.258.406-.688.566-.969.157-.277.407-.746.563-1.05.156-.301.406-.805.562-1.126a71 71 0 0 0 1.125-2.46c.157-.356.41-.946.567-1.317a162 162 0 0 0 1.125-2.77c.156-.394.406-1.035.562-1.437s.41-1.05.567-1.457c.156-.406.406-1.066.562-1.473l.563-1.48.562-1.477c.156-.406.41-1.058.567-1.46.156-.403.406-1.047.562-1.442s.406-1.027.563-1.41c.156-.387.406-1 .562-1.375s.41-.965.567-1.328c.156-.36.406-.926.562-1.274a62.925 62.925 0 0 1 1.125-2.352c.156-.304.406-.78.566-1.062a25.566 25.566 0 0 1 1.125-1.879c.157-.234.407-.59.563-.8.156-.207.406-.52.562-.704.157-.18.41-.445.567-.597a8 8 0 0 1 .562-.492c.157-.122.407-.293.563-.387.156-.09.406-.211.562-.27a3.4 3.4 0 0 1 .567-.16c.156-.027.406-.047.562-.047.156.004.406.035.563.07s.406.118.562.184c.156.067.41.2.567.297.156.098.406.277.562.406.156.13.406.36.563.516.156.16.406.437.562.621.156.188.41.512.567.727.156.21.406.578.562.82.156.238.406.648.563.914a38 38 0 0 1 1.125 2.082c.16.309.41.824.566 1.156a74 74 0 0 1 1.125 2.508c.156.363.406.961.562 1.34a126 126 0 0 1 1.13 2.8c.156.395.406 1.044.562 1.446l.562 1.465.567 1.476.562 1.48a590 590 0 0 0 1.125 2.927 274 274 0 0 0 1.13 2.828c.155.383.405.984.562 1.355.156.367.406.95.562 1.305s.41.91.567 1.25c.156.336.406.863.562 1.184.156.316.406.812.563 1.109s.406.758.562 1.035c.156.274.406.695.563.945.16.25.41.633.566.86.156.222.406.562.562.761a9.35 9.35 0 0 0 1.125 1.215c.157.141.41.34.567.45s.406.261.562.34c.157.078.407.18.563.226s.406.098.562.113c.157.016.41.016.567 0 .156-.015.406-.066.562-.117.157-.047.407-.148.563-.227.156-.082.406-.234.562-.343s.41-.309.567-.45c.156-.14.406-.39.562-.558.156-.172.406-.469.563-.664a19 19 0 0 0 1.129-1.625c.156-.25.406-.672.562-.95.156-.273.406-.734.563-1.03.156-.301.406-.797.562-1.114.156-.32.406-.848.563-1.187.16-.336.41-.895.566-1.25a109 109 0 0 0 1.125-2.66c.156-.383.406-1.008.563-1.399.156-.395.41-1.031.566-1.434a287 287 0 0 0 1.125-2.925l.562-1.477.567-1.476.562-1.47.563-1.445c.156-.398.406-1.027.562-1.418a166 166 0 0 1 1.13-2.718 73.954 73.954 0 0 1 1.125-2.504 55.024 55.024 0 0 1 1.129-2.238c.155-.286.405-.73.562-.997.156-.265.406-.671.562-.914.156-.238.406-.605.563-.816.156-.215.41-.535.566-.723s.406-.46.563-.62a6.337 6.337 0 0 1 1.125-.918c.156-.098.41-.227.566-.294s.406-.148.562-.18a3.5 3.5 0 0 1 .563-.07c.156 0 .406.02.562.047.157.031.41.102.567.164.156.059.406.184.562.274.157.093.407.265.563.386s.406.344.562.496.41.418.567.602c.156.18.406.496.562.703a21 21 0 0 1 1.125 1.7c.157.261.407.699.567.984.156.285.406.761.562 1.066a63 63 0 0 1 1.688 3.63c.156.358.41.952.566 1.327a166 166 0 0 1 1.688 4.23c.156.403.41 1.055.566 1.462.156.406.406 1.066.562 1.476l.563 1.477.562 1.472c.157.41.41 1.059.567 1.461s.406 1.043.562 1.434c.157.394.407 1.023.563 1.406s.406.992.562 1.363a111 111 0 0 0 1.13 2.579c.156.34.406.875.562 1.195s.406.824.562 1.125a34.898 34.898 0 0 0 1.129 2.012 19.333 19.333 0 0 0 1.125 1.656 9.984 9.984 0 0 0 1.129 1.258 5.696 5.696 0 0 0 1.125.832c.156.082.406.195.563.246.156.054.41.113.566.137.156.02.406.03.563.02a3.1 3.1 0 0 0 1.125-.302c.156-.074.41-.215.566-.32.156-.102.406-.297.562-.43a9 9 0 0 0 1.125-1.183c.157-.192.41-.524.567-.743.156-.222.406-.597.562-.843s.407-.66.563-.93c.156-.273.406-.727.562-1.02A57 57 0 0 0 110.2 34c.155-.336.405-.887.562-1.238a107 107 0 0 0 1.125-2.645c.156-.379.566-1.39.566-1.39"/></g><g clip-path="url(#c)"><path fill="none" stroke="#000" stroke-miterlimit="10" stroke-width="1.5762269" d="m.328 61.156.567-1.476.562-1.47a285 285 0 0 1 1.125-2.874 170 170 0 0 1 1.129-2.738c.156-.364.406-.942.562-1.293.157-.352.407-.903.563-1.239.156-.332.406-.855.566-1.168a39.562 39.562 0 0 1 1.125-2.113c.157-.273.407-.687.563-.933.156-.247.406-.618.562-.84.157-.219.41-.547.567-.742.156-.192.406-.477.562-.641s.407-.402.563-.535.406-.324.562-.43c.157-.102.41-.246.567-.316.156-.075.406-.164.562-.207a3.5 3.5 0 0 1 .563-.09c.156-.008.406 0 .562.023.156.024.41.082.567.137s.406.168.562.25c.156.086.406.246.563.363s.406.328.562.473.41.406.566.578c.157.176.407.48.563.684.156.203.406.55.562.78.157.231.407.622.563.88.156.254.406.687.566.965.157.28.407.75.563 1.05s.406.805.562 1.13a70 70 0 0 1 1.125 2.456c.157.36.41.946.567 1.317.156.375.406.98.562 1.367.157.383.407 1.012.563 1.402.156.395.406 1.035.562 1.438l.567 1.46.562 1.473c.156.41.406 1.07.563 1.477.156.41.406 1.07.562 1.476.156.407.41 1.06.567 1.461.156.407.406 1.047.562 1.442.156.398.406 1.027.563 1.414s.406 1 .562 1.371a113 113 0 0 0 1.129 2.602 62.408 62.408 0 0 0 1.125 2.352c.156.304.406.78.566 1.065.157.286.407.723.563.981.156.262.406.66.562.894.157.239.407.594.563.801.156.211.406.524.562.703.157.18.41.45.567.598.156.152.406.375.562.496s.407.293.563.383.406.21.562.273a3.038 3.038 0 0 0 1.129.203 3.5 3.5 0 0 0 .563-.07c.156-.035.406-.117.562-.183.156-.067.41-.2.567-.293a6.4 6.4 0 0 0 1.125-.926c.156-.156.406-.434.562-.621.156-.188.41-.508.567-.723s.406-.582.562-.82c.156-.242.406-.649.563-.914.156-.266.406-.711.562-1a55 55 0 0 0 1.129-2.239c.156-.332.406-.878.562-1.226a105 105 0 0 0 1.125-2.621c.157-.38.41-.996.567-1.383.156-.39.406-1.02.562-1.418s.407-1.043.563-1.45c.156-.402.406-1.054.562-1.464.157-.406.41-1.066.567-1.477.156-.41.406-1.07.562-1.476l.563-1.473c.156-.406.406-1.055.562-1.453.157-.402.41-1.039.567-1.434.156-.39.406-1.015.562-1.394a120 120 0 0 1 1.125-2.664c.156-.352.41-.91.567-1.246a57 57 0 0 1 1.125-2.297c.156-.297.406-.758.562-1.031.156-.274.406-.7.563-.95.16-.25.41-.632.566-.855.156-.227.406-.566.562-.762.157-.199.407-.492.563-.66.156-.172.406-.418.562-.559a5.386 5.386 0 0 1 1.129-.79c.157-.077.407-.178.563-.225s.406-.098.562-.113c.157-.016.41-.016.567.003.156.016.406.067.562.114s.407.148.563.23c.156.078.406.23.562.34s.41.313.567.453a9.5 9.5 0 0 1 1.125 1.223c.156.195.406.535.562.762s.41.609.567.859.406.676.562.95c.156.277.406.737.563 1.034a49 49 0 0 1 1.125 2.297c.16.34.41.895.566 1.25a110 110 0 0 1 1.125 2.664 273.96 273.96 0 0 1 1.129 2.828l.562 1.457c.157.407.407 1.063.563 1.47l.562 1.48.567 1.476c.156.406.406 1.063.562 1.465s.407 1.05.563 1.445c.156.399.406 1.032.562 1.418a154.007 154.007 0 0 0 1.129 2.719c.156.363.406.938.563 1.285.156.348.406.89.562 1.223.156.328.406.844.567 1.152.156.313.406.793.562 1.082s.406.735.563 1a21.322 21.322 0 0 0 1.125 1.73c.156.216.41.536.566.723.156.184.406.461.563.618s.406.386.562.515c.156.125.406.309.563.403.156.097.41.23.566.296.156.063.406.145.562.18s.407.063.563.067c.156.003.406-.02.562-.047.157-.028.41-.102.567-.16.156-.063.406-.184.562-.278.157-.09.407-.262.563-.387a8 8 0 0 0 .562-.492c.157-.152.41-.422.567-.601a16 16 0 0 0 1.125-1.508c.156-.235.406-.637.562-.899.157-.257.407-.699.567-.984.156-.281.406-.758.562-1.066.156-.305.406-.817.563-1.141a73 73 0 0 0 1.125-2.488 113 113 0 0 0 1.129-2.7c.156-.386.406-1.019.562-1.414.156-.394.406-1.039.563-1.44.156-.403.41-1.056.566-1.466l.562-1.472.563-1.48.562-1.474c.157-.406.41-1.058.567-1.457.156-.402.406-1.043.562-1.437s.407-1.02.563-1.406c.156-.383.406-.993.562-1.364a99.2 99.2 0 0 1 1.129-2.574c.157-.344.407-.875.563-1.2.156-.32.406-.823.562-1.124.157-.3.407-.77.567-1.047.156-.281.406-.71.562-.965a19.332 19.332 0 0 1 1.125-1.656c.156-.203.406-.504.563-.68s.41-.43.566-.578c.156-.144.406-.355.563-.469.156-.117.406-.277.562-.359.156-.086.406-.195.563-.25s.41-.113.566-.133c.156-.023.406-.031.563-.023.156.011.406.05.562.094.156.042.406.136.563.207.156.074.41.218.566.32.156.105.406.297.562.43.157.136.407.375.563.539a14 14 0 0 1 1.129 1.39 22 22 0 0 1 1.125 1.774c.156.27.406.722.562 1.015a57 57 0 0 1 1.692 3.508 107 107 0 0 1 1.125 2.645l.566 1.39"/></g></svg>