<svg xmlns="http://www.w3.org/2000/svg" xmlns:xlink="http://www.w3.org/1999/xlink" width="227.016" height="131.386"><defs><path id="a" d="M4.484-.484 3.906-2.11H1.672L1.094-.484l.672.125q.124.017.125.093 0 .066-.094.266H-.078a.2.2 0 0 1-.016-.078Q-.096-.342.22-.406l.25-.063 2.156-5.687.563-.078L5.328-.47l.406.11q.124.034.125.093-.002.048-.109.266H3.844v-.078q-.002-.246.297-.328Zm-2.64-2.11h1.89l-.921-2.61h-.016Zm0 0"/><path id="b" d="M.906-.469v-3.328l-.64-.078a.2.2 0 0 1-.016-.078q0-.246.328-.281l1.047-.11-.047.61h.031q.294-.294.516-.422.404-.235.953-.235c.438 0 .774.141 1.016.422q.359.422.36 1.172v2.328L5-.344q.124.017.125.11A.35.35 0 0 1 5.031 0h-1.89a.1.1 0 0 1-.016-.062c0-.133.094-.235.281-.297l.328-.11V-2.75q-.002-.544-.296-.812a.97.97 0 0 0-.657-.235c-.437 0-.824.149-1.156.438v2.89l.547.125q.124.017.125.11A.35.35 0 0 1 2.203 0H.313a.1.1 0 0 1-.016-.062c0-.133.094-.235.281-.297Zm0 0"/><path id="c" d="m.86-4.281.171-1.203h.516v1.203H2.89l-.094.468h-1.25v2.735q-.001.674.578.672.45 0 .75-.235.062.095.063.266-.002.112-.25.266-.332.217-.813.218Q.827.11.828-.92v-2.891H.156a.2.2 0 0 1-.015-.063q0-.233.28-.297Zm0 0"/><path id="d" d="M1.156-2.172q.012.845.375 1.297c.239.305.578.453 1.016.453q.576 0 1.094-.422.092.064.109.25c0 .137-.133.282-.39.438q-.487.265-1.126.265-.813.002-1.28-.5Q.39-.965.39-2.062.39-3.17.969-3.812c.351-.383.789-.579 1.312-.579q.686 0 1.078.422.375.41.375 1.078c0 .2-.039.438-.109.72Zm1.032-1.75q-.91.002-1.016 1.328h1.75q.047-.187.047-.375-.001-.951-.781-.953m0 0"/><path id="f" d="M2.594-6.156v.078c0 .156-.102.262-.297.312l-.422.079v2.28h2.984v-2.28l-.562-.125c-.086-.008-.125-.04-.125-.094q-.001-.075.11-.25h2.062q.013.033.015.078 0 .236-.312.312l-.422.079v5.203l.625.125q.124.017.125.093c0 .032-.04.121-.11.266H4.173v-.078q0-.246.297-.328l.39-.078v-2.391H1.875v2.39l.61.126q.123.017.124.093 0 .048-.093.266H.422a.16.16 0 0 1-.016-.078Q.404-.324.72-.406l.375-.078v-5.203l-.547-.125C.46-5.82.422-5.852.422-5.906q0-.075.094-.25Zm0 0"/><path id="g" d="M4.5-6.156q.062.752.063 1.047c0 .273-.086.406-.25.406a.5.5 0 0 1-.204-.047l-.203-.937H1.875v2.453h1.984v.5H1.875v2.25l.703.125q.124.017.125.093 0 .048-.094.266H.422a.16.16 0 0 1-.016-.078Q.404-.324.72-.406l.375-.078v-5.203l-.547-.125C.46-5.82.422-5.852.422-5.906q0-.075.094-.25Zm0 0"/><path id="h" d="M2.953-2.469H.547v-.515h2.406Zm0 0"/><path id="i" d="M2.36-6.156q3.562.001 3.562 2.984 0 1.583-.938 2.39C4.367-.257 3.492 0 2.36 0H.422a.16.16 0 0 1-.016-.078Q.404-.324.72-.406l.375-.078v-5.203l-.547-.125C.46-5.82.422-5.852.422-5.906q0-.075.094-.25ZM2.343-.5q1.313 0 2.015-.672c.477-.445.72-1.101.72-1.969 0-.832-.243-1.457-.72-1.875q-.702-.639-2.015-.64h-.469V-.5Zm0 0"/><path id="j" d="M.906-.469v-3.328l-.64-.078a.2.2 0 0 1-.016-.078q0-.246.328-.281l1.047-.11v3.875l.547.125q.124.017.125.11A.35.35 0 0 1 2.203 0H.313a.1.1 0 0 1-.016-.062c0-.133.094-.235.281-.297Zm-.14-5.36q0-.233.14-.374a.48.48 0 0 1 .36-.14q.217 0 .359.14a.49.49 0 0 1 .156.375.49.49 0 0 1-.156.375.5.5 0 0 1-.36.14.48.48 0 0 1-.359-.14.5.5 0 0 1-.14-.375m0 0"/><path id="k" d="M2.344.11Q1.512.111.984-.438C.586-.832.391-1.383.391-2.094q0-1.06.656-1.703a2.03 2.03 0 0 1 1.469-.594q.843.002 1.359.532.576.58.578 1.672 0 1.078-.656 1.718-.609.58-1.453.578m.062-.5q.563 0 .89-.422.376-.468.376-1.329 0-.857-.375-1.328a1.06 1.06 0 0 0-.89-.437c-.368 0-.657.148-.876.437q-.361.471-.36 1.328-.002.861.36 1.329c.219.28.508.421.875.421m0 0"/><path id="l" d="M3.406-.516h-.031Q2.935.11 2.109.11 1.39.11.922-.359.39-.903.39-2.016q0-1.168.703-1.812.591-.563 1.5-.563c.258 0 .515.04.765.11v-1.657l-.656-.078a.2.2 0 0 1-.015-.078q-.001-.246.343-.281l1.047-.11v6l.656.079v.078q0 .252-.328.281l-1 .094Zm-1.094.047q.656 0 1.047-.39v-2.703c-.218-.22-.507-.329-.859-.329-.398 0-.719.149-.969.438q-.39.468-.39 1.312-.001.846.343 1.282.295.39.829.39m0 0"/><path id="o" d="M3.984-.922q-.002.516.313.516.2.001.312-.125a.5.5 0 0 1 .079.25c0 .062-.055.133-.157.203A.9.9 0 0 1 4 .078q-.597 0-.656-.61h-.031q-.456.643-1.25.641-.438-.002-.766-.25.013 1.108.453 1.829-.016.06-.156.125a.6.6 0 0 1-.297.078Q.95 1.889.844 1.297C.789 1.023.766.539.766-.156v-4.078l.703-.11v2.813q0 1.064.797 1.062c.382 0 .722-.148 1.015-.453v-3.312l.703-.11Zm0 0"/><path id="m" d="M2.406.094c.828 0 1.672-.422 2.407-1.203-.032-.094-.079-.141-.172-.141-.735.703-1.391.969-2.172.969C1.39-.281.953-1.187.953-2.234c0-.235.016-.5.063-.75.359-1.813 1.718-2.563 2.39-2.563 1.188 0 1.547.734 1.61 1.5l.265-.047c.016-.453.032-.89.078-1.375-.484-.031-.734-.406-1.796-.406-1.407 0-2.985 1.313-3.329 3.063-.03.218-.062.437-.062.656C.172-.97.844.094 2.406.094m0 0"/><clipPath id="e"><path d="M.04 28H92v2H.04Zm0 0"/></clipPath><clipPath id="n"><path d="M89 95h48v35.773H89Zm0 0"/></clipPath></defs><path fill="none" stroke="#000" stroke-miterlimit="10" stroke-width=".39714465" d="M202.93 12.883 191.69 24.12"/><use xlink:href="#a" x="186.469" y="9.204"/><use xlink:href="#b" x="192.288" y="9.204"/><use xlink:href="#c" x="197.536" y="9.204"/><use xlink:href="#d" x="200.57" y="9.204"/><use xlink:href="#b" x="204.729" y="9.204"/><use xlink:href="#b" x="209.977" y="9.204"/><use xlink:href="#d" x="215.224" y="9.204"/><g clip-path="url(#e)"><path fill="none" stroke="#000" stroke-miterlimit="10" stroke-width="1.1904385999999998" d="M.633 28.617H45.59m0 0h44.953"/></g><path fill="none" stroke="#000" stroke-miterlimit="10" stroke-width=".39714465" d="M90.543 28.617h14.578m15.8 0h14.575"/><path fill="none" stroke="#000" stroke-miterlimit="10" stroke-width=".79329395" d="m120.922 28.617-15.801-9.875v19.75Zm0 0"/><path fill="none" stroke="#000" stroke-miterlimit="10" stroke-width=".39714465" d="M120.922 28.617H105.12"/><path fill="none" stroke="#000" stroke-miterlimit="10" stroke-width=".79329395" d="M120.922 38.492v-19.75"/><path stroke="#000" stroke-miterlimit="10" stroke-width=".39714465" d="M92.121 28.617a1.579 1.579 0 0 0-3.156 0 1.58 1.58 0 0 0 1.578 1.582 1.58 1.58 0 0 0 1.578-1.582ZM137.078 28.617a1.58 1.58 0 1 0-3.16.003 1.58 1.58 0 0 0 3.16-.003Zm0 0"/><use xlink:href="#f" x="94.263" y="14.544"/><use xlink:href="#g" x="101.01" y="14.544"/><use xlink:href="#h" x="105.642" y="14.544"/><use xlink:href="#i" x="109.006" y="14.544"/><use xlink:href="#j" x="115.397" y="14.544"/><use xlink:href="#k" x="117.851" y="14.544"/><use xlink:href="#l" x="122.688" y="14.544"/><use xlink:href="#d" x="127.614" y="14.544"/><path fill="none" stroke="#000" stroke-miterlimit="10" stroke-width="1.1904385999999998" d="M135.496 28.617h44.957m0 0h44.953"/><path fill="none" stroke="#000" stroke-miterlimit="10" stroke-width=".39714465" d="M90.543 73.574v-6.68m0-31.597v-6.68"/><path fill="none" stroke="#000" stroke-linejoin="bevel" stroke-miterlimit="10" stroke-width=".79329395" d="M90.703 67.293c-3.273 0-5.926-1.812-5.926-4.05 0-2.235 2.653-4.048 5.926-4.048-3.273 0-5.926-1.812-5.926-4.05 0-2.235 2.653-4.051 5.926-4.051-3.273 0-5.926-1.813-5.926-4.047 0-2.238 2.653-4.05 5.926-4.05-3.273 0-5.926-1.813-5.926-4.048 0-2.238 2.653-4.05 5.926-4.05"/><path fill="none" stroke="#000" stroke-miterlimit="10" stroke-width=".39714465" d="M135.496 28.617v6.68m0 31.598v6.68"/><path fill="none" stroke="#000" stroke-linejoin="bevel" stroke-miterlimit="10" stroke-width=".79329395" d="M135.34 34.899c3.27 0 5.926 1.812 5.926 4.05 0 2.235-2.657 4.047-5.926 4.047 3.27 0 5.926 1.813 5.926 4.05 0 2.235-2.657 4.048-5.926 4.048 3.27 0 5.926 1.816 5.926 4.05 0 2.239-2.657 4.051-5.926 4.051 3.27 0 5.926 1.813 5.926 4.047 0 2.239-2.657 4.051-5.926 4.051"/><path fill="none" stroke="#000" stroke-miterlimit="10" stroke-width=".39714465" d="M90.543 73.574v5.617m0 0v5.622h18.527m7.899 0h18.527V73.574"/><path stroke="#000" stroke-miterlimit="10" stroke-width=".39714465" d="M92.121 84.813a1.58 1.58 0 0 0-1.578-1.582 1.58 1.58 0 0 0 0 3.16c.871 0 1.578-.707 1.578-1.578Zm0 0"/><path fill="none" stroke="#000" stroke-miterlimit="10" stroke-width=".79329395" d="M109.07 72.961v23.7m7.899-23.7v23.7"/><path stroke="#000" stroke-miterlimit="10" stroke-width=".39714465" d="M137.078 84.813a1.58 1.58 0 1 0-3.16-.004 1.58 1.58 0 0 0 3.16.004Zm0 0"/><use xlink:href="#m" x="110.578" y="68.565"/><path fill="none" stroke="#000" stroke-miterlimit="10" stroke-width=".39714465" d="M90.543 84.813v16.855m0 0v16.86h10.625m23.703 0h10.625v-16.86m0 0V84.813"/><g clip-path="url(#n)"><path fill="none" stroke="#000" stroke-miterlimit="10" stroke-width=".79329395" d="M113.02 106.676c-6.543 0-11.852 5.308-11.852 11.851s5.309 11.852 11.851 11.852c6.547 0 11.852-5.309 11.852-11.852s-5.305-11.851-11.852-11.851Zm0 0"/></g><use xlink:href="#o" x="107.65" y="120.697"/><use xlink:href="#a" x="112.568" y="120.697"/></svg>