<svg xmlns="http://www.w3.org/2000/svg" xmlns:xlink="http://www.w3.org/1999/xlink" width="223.592" height="195.145"><defs><path id="b" d="M2.656-2.781q0-.576-.187-.86-.174-.28-.594-.28a1.5 1.5 0 0 0-.531.093q-.11.235-.203.781a2 2 0 0 1-.188.016q-.438 0-.437-.39 0-.39.468-.673A1.9 1.9 0 0 1 2-4.39c.914 0 1.375.508 1.375 1.516v1.953c0 .336.102.5.313.5q.216.001.328-.11.077.112.078.25c0 .063-.055.134-.157.204a.9.9 0 0 1-.53.156q-.63 0-.688-.61h-.031q-.41.643-1.22.641-.502 0-.812-.312-.313-.311-.312-.828c0-.438.219-.774.656-1.016.375-.195.848-.297 1.422-.297h.234Zm-.89 2.328q.498 0 .89-.469v-1.015l-.234.015q-1.299.096-1.297.813c0 .437.21.656.64.656m0 0"/><path id="c" d="m7.078-.469.531.125q.124.017.125.11A.35.35 0 0 1 7.641 0H5.75v-.062c0-.133.086-.235.266-.297l.343-.11V-2.75c0-.695-.289-1.047-.859-1.047q-.69.002-1.203.485.06.327.062.515v2.328l.532.125q.124.017.125.11A.35.35 0 0 1 4.922 0h-1.89v-.062c0-.133.085-.235.265-.297l.328-.11V-2.75c0-.695-.281-1.047-.844-1.047-.437 0-.824.149-1.156.438v2.89l.547.125q.124.017.125.11A.35.35 0 0 1 2.203 0H.313a.1.1 0 0 1-.016-.062c0-.133.094-.235.281-.297l.328-.11v-3.328l-.64-.078a.2.2 0 0 1-.016-.078q0-.246.328-.281l1.047-.11-.047.61h.031q.61-.657 1.422-.657c.54 0 .922.243 1.14.72.427-.477.938-.72 1.532-.72q.638 0 1 .422.375.41.375 1.172Zm0 0"/><path id="d" d="M.656-5.937 0-6.016c-.008-.03-.016-.054-.016-.078q0-.246.344-.281l1.047-.11v2.704h.031q.498-.61 1.313-.61c.476 0 .86.157 1.14.47q.516.563.516 1.671c0 .781-.234 1.383-.703 1.797q-.628.562-1.594.562-.893 0-1.422-.312Zm1.719 2.14c-.43 0-.762.149-1 .438v2.703q.374.251.875.25 1.373.001 1.375-1.75 0-.844-.375-1.281-.33-.36-.875-.36m0 0"/><path id="e" d="M2.922-3.031q1.109.487 1.11 1.531-.001.737-.548 1.188-.516.42-1.296.421Q1.42.11.952-.28.421-.716.422-1.453q0-.92 1.125-1.453C.898-3.226.578-3.72.578-4.375c0-.426.164-.785.5-1.078a1.75 1.75 0 0 1 1.188-.453c.476 0 .867.133 1.172.39q.451.376.453 1.063-.001.907-.97 1.422m-.39-.156q.656-.423.656-1.266-.002-.42-.25-.672-.254-.28-.735-.281c-.281 0-.508.093-.672.281a.94.94 0 0 0-.25.672q0 .504.328.797.247.222.922.469m-.563.468q-.798.44-.797 1.266 0 .456.281.766c.195.199.453.296.766.296q.467 0 .765-.28.296-.295.297-.735 0-.48-.36-.797-.268-.234-.952-.516m0 0"/><path id="f" d="M4.516.016c.14-.5.343-1.032.53-1.485l-.265-.047c-.297.641-.64 1.172-1.297 1.172h-2c-.14 0-.203-.047-.187-.125a.6.6 0 0 1 .11-.172l4.109-4.625c.234-.28.297-.421.297-.5 0-.062-.032-.078-.172-.078-.11 0-.297.063-.563.094h-2.75c-.406 0-.36-.094-.672-.125a13 13 0 0 1-.484 1.5l.25.031c.312-.61.547-1.047 1.187-1.047h1.97c.062 0 .093.016.077.063a.6.6 0 0 1-.093.156L.297-.344C.234-.28.172-.172.172-.109c0 .078.047.109.156.109h3.11c.234 0 1.078.016 1.078.016m0 0"/><path id="j" d="M.531-1.656c-.11.11-.11.343 0 .453H5.25c.11-.11.11-.344 0-.453Zm0-1.781c-.11.109-.11.343 0 .453H5.25c.11-.11.11-.344 0-.453Zm0 0"/><path id="k" d="M.547-4.172c0 .188.172.344.36.344.14 0 .421-.156.421-.36 0-.062-.031-.125-.047-.187-.015-.062-.062-.14-.062-.203 0-.234.234-.547.875-.547.328 0 .781.219.781 1.078 0 .563-.203 1.031-.734 1.563l-.657.656C.61-.938.47-.516.47.016c0 0 .453-.016.734-.016h1.563c.28 0 .703.016.703.016.11-.47.203-1.141.203-1.407-.047-.046-.172-.062-.25-.046-.156.64-.313.859-.625.859H1.203c0-.438.61-1.031.656-1.078l.907-.875c.515-.485.89-.875.89-1.563 0-.953-.781-1.343-1.5-1.343-1 0-1.61.734-1.61 1.265m0 0"/><path id="l" d="M2.031.094c.688 0 1.735-.703 1.735-2.797 0-.89-.22-1.64-.61-2.156-.234-.313-.61-.578-1.094-.578-.874 0-1.718 1.046-1.718 2.812 0 .953.297 1.844.797 2.344q.375.375.89.375m.031-5.219c.157 0 .297.047.407.14.281.235.515.923.515 2.11 0 .828-.015 1.39-.14 1.844-.203.734-.64.812-.797.812-.828 0-.922-1.531-.922-2.312 0-2.188.547-2.594.938-2.594m0 0"/><path id="m" d="M4.078-1.047c.984-.328 1.734-1.25 1.734-2.312 0-1.328-.906-2.516-2.687-2.516-1.75 0-2.672 1.328-2.672 2.516 0 1.14.766 1.984 1.735 2.312l.03.438h-.984c-.421 0-.578 0-.625-.453a.27.27 0 0 0-.218 0C.39-.703.406-.344.453 0H2.36Q2.5 0 2.5-.14l-.062-1.141c-.829-.547-1.172-1.094-1.172-2.094 0-1.14.625-2.187 1.859-2.187C4.297-5.562 5-4.625 5-3.36c0 .953-.36 1.609-1.172 2.078L3.75-.125c0 .078.047.125.156.125h1.86c.03-.297.062-.703.062-1.062q-.093-.048-.234 0c-.047.453-.203.453-.547.453h-1Zm0 0"/><path id="g" d="M2.094-.344c.047.219.125.422.484.422.266 0 .516-.125.672-.265-.016-.094-.047-.157-.125-.204a.47.47 0 0 1-.266.125c-.203 0-.203-.28-.203-.609v-1.047c0-1.016-.562-1.219-1.078-1.219-.594 0-1.187.391-1.187.797 0 .172.093.266.25.266.203 0 .343-.156.343-.25a.3.3 0 0 0-.03-.125c0-.031-.016-.063-.016-.14 0-.235.312-.313.578-.313.234 0 .578.125.578.937 0 .047-.016.078-.047.078l-.61.157C.75-1.562.25-1.187.25-.704c0 .595.406.782.906.782.25 0 .469-.062.782-.312l.14-.11Zm0-1.312v.937c0 .094-.047.14-.094.188-.187.14-.437.312-.64.312C1-.219.843-.5.843-.734c0-.313.156-.641.687-.782Zm0 0"/><path id="h" d="M1.313-2.562c-.047.062-.079.078-.079 0-.015-.188-.03-.47-.062-.532-.016-.047-.031-.062-.094-.062-.187.078-.375.14-.875.203a.45.45 0 0 0 .016.203c.39.031.469.078.469.484v1.391c0 .594-.079.625-.5.656C.14-.172.14-.03.188.016.406 0 .688 0 .968 0c.282 0 .5 0 .72.016.046-.047.046-.188 0-.235-.36-.031-.438-.062-.438-.656v-1.172c0-.14.063-.234.125-.297.266-.265.594-.422.86-.422.156 0 .296.094.39.266.063.14.078.328.078.547v1.078c0 .594-.062.625-.437.656-.032.047-.032.188 0 .235C2.484 0 2.703 0 2.984 0c.297 0 .547 0 .766.016.031-.047.031-.188 0-.235-.406-.031-.484-.062-.484-.656v-1.062c0-.391-.032-.735-.188-.954-.125-.156-.344-.25-.594-.25-.343 0-.75.094-1.171.579m0 0"/><path id="i" d="M.313-3.062c-.11 0-.141.078-.141.14v.094q0 .047.047.047H.64v2.14c0 .516.218.72.547.72.328 0 .687-.157.968-.485a.14.14 0 0 0-.14-.11.94.94 0 0 1-.578.188c-.188 0-.235-.203-.235-.656v-1.797h.734c.079 0 .172-.031.172-.094v-.14q0-.047-.046-.047h-.86v-.282c0-.469.031-.75.031-.75 0-.047-.03-.062-.062-.062-.031 0-.094.031-.156.062a1.2 1.2 0 0 1-.25.11c-.079.015-.157.046-.157.093 0 .079.032.032.032.829Zm0 0"/><clipPath id="a"><path d="M189 180h16v14.293h-16Zm0 0"/></clipPath></defs><path fill="none" stroke="#000" stroke-miterlimit="10" stroke-width=".39726036000000003" d="M14.3 5.227H60m0 0h45.7v11.125m0 69.148v22.254m0 69.144v11.13h45.698m0 0h45.704"/><path fill="#FFF" stroke="#000" stroke-miterlimit="10" stroke-width=".39726036000000003" d="M15.879 5.227a1.58 1.58 0 1 0-3.16-.005 1.58 1.58 0 0 0 3.16.005Zm0 0"/><path stroke="#000" stroke-miterlimit="10" stroke-width=".39726036000000003" d="M107.281 5.227a1.58 1.58 0 1 0-3.16-.004 1.58 1.58 0 0 0 3.16.004Zm0 0"/><path fill="none" stroke="#000" stroke-linejoin="bevel" stroke-miterlimit="10" stroke-width=".79352508" d="M105.54 15.957c3.273 0 5.929 1.957 5.929 4.371s-2.656 4.371-5.93 4.371c3.274 0 5.93 1.957 5.93 4.371s-2.656 4.371-5.93 4.371c3.274 0 5.93 1.957 5.93 4.372s-2.656 4.37-5.93 4.37c3.274 0 5.93 1.958 5.93 4.372s-2.656 4.37-5.93 4.37c3.274 0 5.93 1.958 5.93 4.372s-2.656 4.371-5.93 4.371c3.274 0 5.93 1.957 5.93 4.371s-2.656 4.371-5.93 4.371c3.274 0 5.93 1.957 5.93 4.371s-2.656 4.371-5.93 4.371c3.274 0 5.93 1.957 5.93 4.371s-2.656 4.372-5.93 4.372M105.54 107.355c3.273 0 5.929 1.958 5.929 4.372s-2.656 4.37-5.93 4.37c3.274 0 5.93 1.958 5.93 4.372s-2.656 4.37-5.93 4.37c3.274 0 5.93 1.958 5.93 4.372s-2.656 4.371-5.93 4.371c3.274 0 5.93 1.957 5.93 4.371s-2.656 4.371-5.93 4.371c3.274 0 5.93 1.957 5.93 4.371s-2.656 4.371-5.93 4.371c3.274 0 5.93 1.961 5.93 4.375 0 2.415-2.656 4.372-5.93 4.372 3.274 0 5.93 1.957 5.93 4.37 0 2.415-2.656 4.372-5.93 4.372 3.274 0 5.93 1.957 5.93 4.37 0 2.415-2.656 4.372-5.93 4.372"/><path fill="#FFF" d="M198.68 188.027a1.58 1.58 0 1 0-3.16-.005 1.58 1.58 0 0 0 3.16.005m0 0"/><g clip-path="url(#a)"><path fill="none" stroke="#000" stroke-miterlimit="10" stroke-width=".39726036000000003" d="M198.68 188.027a1.58 1.58 0 1 0-3.16-.005 1.58 1.58 0 0 0 3.16.005Zm0 0"/></g><path fill="none" stroke="#000" stroke-miterlimit="10" stroke-width=".39726036000000003" d="M105.7 5.227h45.698m0 0h45.704"/><path fill="#FFF" stroke="#000" stroke-miterlimit="10" stroke-width=".39726036000000003" d="M198.68 5.227a1.58 1.58 0 1 0-3.16-.005 1.58 1.58 0 0 0 3.16.005Zm0 0"/><path fill="none" stroke="#000" stroke-miterlimit="10" stroke-width=".39726036000000003" d="M105.7 96.625H82.847m0 0h-45.7m0 0H14.301"/><path stroke="#000" stroke-miterlimit="10" stroke-width=".39726036000000003" d="M107.281 96.625a1.58 1.58 0 1 0-3.159.003 1.58 1.58 0 0 0 3.16-.003ZM61.578 96.625a1.58 1.58 0 1 0-3.161.003 1.58 1.58 0 0 0 3.161-.003Zm0 0"/><path fill="#FFF" stroke="#000" stroke-miterlimit="10" stroke-width=".39726036000000003" d="M15.879 96.625a1.58 1.58 0 1 0-3.161.003 1.58 1.58 0 0 0 3.16-.003Zm0 0"/><path fill="none" stroke="#000" stroke-miterlimit="10" stroke-width=".39726036000000003" d="M60 96.625v11.855"/><path fill="none" stroke="#000" stroke-miterlimit="10" stroke-width=".79352508" d="M54.074 108.48h11.852m-9.88 1.973h7.903m-6.418 1.977h4.938"/><use xlink:href="#b" x="6.956" y="7.368"/><use xlink:href="#c" x="3.26" y="98.821"/><use xlink:href="#b" x="200.271" y="7.368"/><use xlink:href="#d" x="200.271" y="191.211"/><use xlink:href="#e" x="98.06" y="53.826"/><use xlink:href="#e" x="98.06" y="145.226"/><use xlink:href="#f" x="174.269" y="98.589"/><use xlink:href="#g" x="179.241" y="100.464"/><use xlink:href="#h" x="182.505" y="100.464"/><use xlink:href="#i" x="186.376" y="100.464"/><use xlink:href="#j" x="191.497" y="98.589"/><use xlink:href="#k" x="199.755" y="98.589"/><use xlink:href="#l" x="203.906" y="98.589"/><use xlink:href="#l" x="208.057" y="98.589"/><use xlink:href="#m" x="213.699" y="98.589"/><path fill="none" stroke="#000" stroke-dasharray="2.9757987012 2.9757987012" stroke-miterlimit="10" stroke-width=".39726036000000003" d="M113.61 16.352v160.546"/></svg>