<svg xmlns="http://www.w3.org/2000/svg" xmlns:xlink="http://www.w3.org/1999/xlink" width="226.938" height="71.503"><defs><path id="a" d="M2.016-.562v-4.422l-1.328.25a1 1 0 0 1-.016-.188Q.67-5.12.875-5.203l1.469-.594h.453v5.235l1.094.156q.124.016.125.11c0 .054-.04.151-.11.296H.86v-.078q0-.311.282-.36Zm0 0"/><path id="b" d="m.422-.453 1.5-1.719q.89-1.015.89-2-.001-1.249-.906-1.25-.362 0-.718.188a4 4 0 0 0-.11.875q-.11.016-.203.015-.422.001-.422-.343 0-.547.422-.875.42-.33 1.14-.329.734.001 1.172.407.453.408.454 1.156 0 .674-.422 1.36-.27.439-.89 1.109L1.343-.797v.016h2.015l.188-.766a.5.5 0 0 1 .187-.031q.235.002.235.344 0 .344-.094 1.234H.5Zm0 0"/><path id="c" d="M1.375-3.14c1.008-.126 1.516-.524 1.516-1.204q0-1.078-.891-1.078-.422.002-.703.203a3 3 0 0 0-.125.813.7.7 0 0 1-.203.031c-.281 0-.422-.117-.422-.36q-.001-.513.437-.827.45-.33 1.188-.329c.469 0 .836.125 1.11.375q.42.376.421 1.016 0 .61-.422 1.016-.298.27-.906.468v.032q.717.093 1.094.468c.258.243.39.547.39.922q0 .738-.546 1.219-.55.485-1.422.484C1.41.11 1.05.012.813-.17Q.53-.374.53-.672q0-.406.39-.548.14.347.298.5.293.328.828.328.984.001.984-1.046-.002-1.124-1.656-1.25Zm0 0"/><path id="d" d="m.125-1.984 2.531-3.782.656-.046v3.625h.75l-.046.671h-.703v1.032l.609.125q.124.017.125.093 0 .048-.094.266H1.906a.16.16 0 0 1-.015-.078c0-.164.101-.274.312-.328l.375-.078v-1.032H.156Zm.734-.203h1.72v-2.688h-.017L.86-2.203Zm0 0"/><path id="e" d="M4.438-5.672H3.016v5.188l.625.125q.124.017.125.093c0 .032-.04.121-.11.266H1.563v-.078q-.001-.246.296-.328l.391-.078v-5.188H.813l-.204.938a.5.5 0 0 1-.187.03c-.18 0-.266-.124-.266-.374q0-.232.063-1.063h4.828q.06.83.062 1.063-.001.375-.265.375a.5.5 0 0 1-.188-.031Zm0 0"/><path id="g" d="M6.25-6.14v.077c0 .157-.102.258-.297.297l-.422.094V0H5L1.64-5.172h-.015v4.688l.625.125q.124.017.125.093c0 .032-.04.121-.11.266H.423a.16.16 0 0 1-.016-.078Q.404-.324.72-.406l.375-.078v-5.188l-.547-.125c-.086-.02-.125-.05-.125-.094q0-.074.094-.25h1.422l3.046 4.704H5v-4.235l-.562-.125c-.086-.02-.125-.05-.125-.094q-.001-.074.109-.25Zm0 0"/><path id="i" d="M.969-6.25q.264 0 .422.219.17.205.172.562 0 .598-.375.985-.317.328-.61.328-.143 0-.203-.235.574-.31.61-.89a.49.49 0 0 1-.344-.125A.47.47 0 0 1 .5-5.75c0-.156.04-.273.125-.36a.47.47 0 0 1 .344-.14m0 0"/><path id="j" d="M.422 0a.16.16 0 0 1-.016-.078Q.404-.324.72-.406l.375-.078v-5.188l-.547-.125c-.086-.02-.125-.05-.125-.094q0-.074.094-.25h2.062a.2.2 0 0 1 .016.079q-.001.236-.313.296l-.406.094V-.5h2.047l.25-1.062a.6.6 0 0 1 .203-.032q.218 0 .219.36Q4.592-.78 4.516 0Zm0 0"/><path id="k" d="M2.313-6.14c1.664 0 2.5.574 2.5 1.718q-.002.89-.594 1.36-.645.515-1.875.515h-.469v2.063l.703.125q.124.017.125.093-.002.066-.11.266H.423a.16.16 0 0 1-.016-.078Q.404-.324.72-.406l.375-.078v-5.188l-.547-.125c-.086-.02-.125-.05-.125-.094q0-.074.094-.25Zm-.016 3.124q.856 0 1.297-.39.389-.36.39-.969 0-1.266-1.687-1.266h-.422v2.625Zm0 0"/><path id="l" d="M1.094-.484v-5.188l-.547-.125c-.086-.02-.125-.05-.125-.094q0-.074.094-.25H4.53c.04.5.063.852.063 1.047 0 .262-.086.39-.25.39a.6.6 0 0 1-.203-.03l-.22-.938H1.876v2.313h1.969v.484H1.875V-.5h2.11l.25-.969a.6.6 0 0 1 .202-.031q.219 0 .22.36Q4.655-.78 4.577 0H.422a.16.16 0 0 1-.016-.078Q.404-.324.72-.406Zm0 0"/><path id="n" d="M2.39.094c.829 0 1.672-.422 2.407-1.203-.016-.079-.063-.141-.172-.141-.734.703-1.375.969-2.172.969-1.062 0-1.515-.906-1.515-1.953 0-.235.03-.485.078-.735.359-1.812 1.703-2.562 2.39-2.562 1.188 0 1.531.718 1.61 1.484l.25-.031c.015-.469.03-.906.093-1.375-.484-.031-.75-.406-1.796-.406C2.14-5.86.578-4.562.233-2.812c-.03.234-.062.437-.062.671C.172-.969.844.094 2.39.094m0 0"/><path id="o" d="M2.047-.875v-2.469c0-.422.015-.86.031-.953 0-.031-.015-.031-.047-.031-.39.234-.765.422-1.39.703 0 .078.03.156.093.203.329-.14.485-.187.625-.187.125 0 .141.172.141.422v2.312c0 .594-.187.625-.687.656-.047.047-.047.188 0 .235C1.156 0 1.422 0 1.797 0c.344 0 .516 0 .875.016.047-.047.047-.188 0-.235-.5-.031-.625-.062-.625-.656m0 0"/><path id="p" d="M.438-3.328c0 .14.125.265.28.265.126 0 .329-.124.329-.28 0-.063 0-.095-.016-.141C1.016-3.547.97-3.61.97-3.656c0-.188.187-.438.703-.438.266 0 .625.172.625.86 0 .453-.172.828-.594 1.25l-.516.53C.485-.75.375-.405.375.017c0 0 .36-.016.594-.016h1.234c.235 0 .563.016.563.016.093-.375.156-.907.172-1.125a.3.3 0 0 0-.204-.032c-.125.5-.25.672-.5.672H.97c0-.343.484-.828.515-.86l.72-.687c.405-.39.718-.703.718-1.25 0-.765-.625-1.078-1.203-1.078-.797 0-1.281.578-1.281 1.016m0 0"/><path id="r" d="M1.531-4.094c.313 0 .594.188.594.64 0 .36-.422.907-1.125 1l.047.235c.11-.015.25-.015.328-.015.406 0 .938.109.938.922 0 .937-.626 1.14-.876 1.14-.375 0-.437-.172-.515-.297C.844-.563.75-.656.609-.656c-.14 0-.296.14-.296.25 0 .281.593.484 1.03.484.845 0 1.595-.562 1.595-1.5 0-.766-.579-1.047-1-1.125v-.015c.578-.266.734-.563.734-.938 0-.219-.047-.39-.219-.562-.156-.157-.406-.282-.765-.282-1.047 0-1.36.688-1.36.922 0 .094.078.235.25.235.25 0 .281-.235.281-.376 0-.453.485-.53.672-.53m0 0"/><clipPath id="f"><path d="M9 57h16v14.008H9Zm0 0"/></clipPath><clipPath id="h"><path d="M201 57h16v14.008h-16Zm0 0"/></clipPath><clipPath id="m"><path d="M44 57h16v14.008H44Zm0 0"/></clipPath><clipPath id="q"><path d="M173 57h16v14.008h-16Zm0 0"/></clipPath></defs><path fill="none" stroke="#000" stroke-linejoin="bevel" stroke-miterlimit="10" stroke-width=".7915007000000001" d="M93.348 47.426c0-3.246 1.8-5.88 4.02-5.88 2.222 0 4.019 2.634 4.019 5.88 0-3.246 1.8-5.88 4.023-5.88 2.219 0 4.02 2.634 4.02 5.88 0-3.246 1.8-5.88 4.02-5.88 2.222 0 4.019 2.634 4.019 5.88 0-3.246 1.8-5.88 4.023-5.88 2.219 0 4.02 2.634 4.02 5.88M125.512 23.582c0 3.246-1.801 5.883-4.02 5.883-2.222 0-4.023-2.637-4.023-5.883 0 3.246-1.797 5.883-4.02 5.883-2.219 0-4.02-2.637-4.02-5.883 0 3.246-1.8 5.883-4.019 5.883-2.222 0-4.023-2.637-4.023-5.883 0 3.246-1.797 5.883-4.02 5.883-2.219 0-4.02-2.637-4.02-5.883"/><path fill="none" stroke="#000" stroke-miterlimit="10" stroke-width=".3962469" d="M80.016 64.918V47.27h13.726m31.375 0h13.723v17.648M80.016 6.094v17.644h13.726m31.375 0h13.723V6.094"/><path fill="none" stroke="#000" stroke-miterlimit="10" stroke-width=".7915007000000001" d="M124.137 34.035H94.723m29.414 2.938H94.723"/><path stroke="#000" stroke-miterlimit="10" stroke-width=".3962469" d="M91.398 41.387a1.575 1.575 0 1 0-3.152 0 1.575 1.575 0 0 0 3.152 0ZM91.398 29.621c0-.871-.707-1.574-1.578-1.574a1.575 1.575 0 1 0 1.578 1.574Zm0 0"/><use xlink:href="#a" x="91.517" y="18.614"/><use xlink:href="#b" x="122.89" y="18.614"/><use xlink:href="#c" x="91.517" y="58.29"/><use xlink:href="#d" x="122.89" y="58.21"/><use xlink:href="#e" x="106.793" y="9.165"/><path fill="none" stroke="#000" stroke-miterlimit="10" stroke-width=".3962469" d="M80.016 64.918H66.012m0 0H34.5m0 0H16.992"/><path fill="#FFF" d="M18.566 64.918a1.575 1.575 0 1 0-3.15-.005 1.575 1.575 0 0 0 3.15.005m0 0"/><g clip-path="url(#f)"><path fill="none" stroke="#000" stroke-miterlimit="10" stroke-width=".3962469" d="M18.566 64.918a1.575 1.575 0 1 0-3.15-.005 1.575 1.575 0 0 0 3.15.005Zm0 0"/></g><use xlink:href="#g" x="7.246" y="67.988"/><path fill="none" stroke="#000" stroke-miterlimit="10" stroke-width=".3962469" d="M138.84 64.918h21.012m0 0h35.011m0 0h14.008"/><path fill="#FFF" d="M210.445 64.918a1.575 1.575 0 1 0-3.15-.005 1.575 1.575 0 0 0 3.15.005m0 0"/><g clip-path="url(#h)"><path fill="none" stroke="#000" stroke-miterlimit="10" stroke-width=".3962469" d="M210.445 64.918a1.575 1.575 0 1 0-3.15-.005 1.575 1.575 0 0 0 3.15.005Zm0 0"/></g><use xlink:href="#g" x="212.035" y="68.042"/><use xlink:href="#i" x="218.615" y="68.042"/><path fill="none" stroke="#000" stroke-miterlimit="10" stroke-width=".3962469" d="M80.016 6.094H66.012m0 0H34.5m0 0H16.992"/><path fill="#FFF" stroke="#000" stroke-miterlimit="10" stroke-width=".3962469" d="M18.566 6.094a1.575 1.575 0 1 0-3.15-.006 1.575 1.575 0 0 0 3.15.006Zm0 0"/><use xlink:href="#j" x="4.611" y="9.165"/><use xlink:href="#a" x="9.375" y="9.165"/><path fill="none" stroke="#000" stroke-miterlimit="10" stroke-width=".3962469" d="M138.84 6.094h21.012m0 0h35.011m0 0h14.008"/><path fill="#FFF" stroke="#000" stroke-miterlimit="10" stroke-width=".3962469" d="M210.445 6.094a1.575 1.575 0 1 0-3.15-.006 1.575 1.575 0 0 0 3.15.006Zm0 0"/><use xlink:href="#j" x="212.035" y="9.218"/><use xlink:href="#a" x="216.799" y="9.218"/><use xlink:href="#i" x="221.251" y="9.218"/><path fill="none" stroke="#000" stroke-miterlimit="10" stroke-width=".3962469" d="M16.992 35.504h7m0 0h7.004"/><use xlink:href="#k" x="3.72" y="38.577"/><use xlink:href="#l" x="8.786" y="38.577"/><path fill="#FFF" stroke="#000" stroke-miterlimit="10" stroke-width=".3962469" d="M18.566 35.504c0-.871-.703-1.574-1.574-1.574a1.575 1.575 0 1 0 0 3.152c.871 0 1.574-.707 1.574-1.578Zm0 0"/><path fill="none" stroke="#000" stroke-miterlimit="10" stroke-width=".3962469" d="M30.996 35.504v9.851"/><path fill="none" stroke="#000" stroke-linecap="round" stroke-miterlimit="10" stroke-width=".7915007000000001" d="M25.086 45.355H36.91"/><path fill="none" stroke="#000" stroke-miterlimit="10" stroke-width=".3962469" d="M52.004 6.094v25.488m0 7.844v25.492"/><path fill="none" stroke="#000" stroke-miterlimit="10" stroke-width=".7915007000000001" d="M63.77 31.582H40.242m23.528 7.844H40.242"/><path stroke="#000" stroke-miterlimit="10" stroke-width=".3962469" d="M53.582 6.094c0-.871-.707-1.578-1.578-1.578a1.577 1.577 0 1 0 1.578 1.578Zm0 0"/><path d="M53.582 64.918c0-.871-.707-1.578-1.578-1.578a1.577 1.577 0 1 0 1.578 1.578m0 0"/><g clip-path="url(#m)"><path fill="none" stroke="#000" stroke-miterlimit="10" stroke-width=".3962469" d="M53.582 64.918c0-.871-.707-1.578-1.578-1.578a1.577 1.577 0 1 0 1.578 1.578Zm0 0"/></g><use xlink:href="#n" x="66.551" y="37.641"/><use xlink:href="#o" x="71.421" y="39.511"/><path fill="none" stroke="#000" stroke-miterlimit="10" stroke-width=".3962469" d="M180.86 6.094v10.781m0 7.844v21.57m0 7.844v10.785"/><path fill="none" stroke="#000" stroke-miterlimit="10" stroke-width=".7915007000000001" d="M192.625 16.875h-23.531m23.531 7.844h-23.531"/><path stroke="#000" stroke-miterlimit="10" stroke-width=".3962469" d="M182.434 6.094a1.575 1.575 0 1 0-3.151-.006 1.575 1.575 0 0 0 3.15.006ZM182.434 35.504c0-.871-.704-1.574-1.575-1.574a1.575 1.575 0 1 0 0 3.152c.871 0 1.575-.707 1.575-1.578Zm0 0"/><use xlink:href="#n" x="195.402" y="22.936"/><use xlink:href="#p" x="200.273" y="24.806"/><path fill="none" stroke="#000" stroke-miterlimit="10" stroke-width=".7915007000000001" d="M192.625 46.29h-23.531m23.531 7.843h-23.531"/><path stroke="#000" stroke-miterlimit="10" stroke-width=".3962469" d="M182.434 35.504c0-.871-.704-1.574-1.575-1.574a1.575 1.575 0 1 0 0 3.152c.871 0 1.575-.707 1.575-1.578Zm0 0"/><path d="M182.434 64.918a1.575 1.575 0 1 0-3.151-.005 1.575 1.575 0 0 0 3.15.005m0 0"/><g clip-path="url(#q)"><path fill="none" stroke="#000" stroke-miterlimit="10" stroke-width=".3962469" d="M182.434 64.918a1.575 1.575 0 1 0-3.151-.005 1.575 1.575 0 0 0 3.15.005Zm0 0"/></g><use xlink:href="#n" x="195.402" y="52.347"/><use xlink:href="#r" x="200.273" y="54.217"/><path fill="none" stroke="#000" stroke-miterlimit="10" stroke-width=".3962469" d="M180.86 35.504h-14.008m0 0h-14.004M152.848 35.504v9.851"/><path fill="none" stroke="#000" stroke-linecap="round" stroke-miterlimit="10" stroke-width=".7915007000000001" d="M146.934 45.355h11.824"/></svg>