<svg xmlns="http://www.w3.org/2000/svg" xmlns:xlink="http://www.w3.org/1999/xlink" width="226.521" height="104.163"><defs><clipPath id="f"><path d="M.664 8H5v4H.664Zm0 0"/></clipPath><clipPath id="g"><path d="M.664 2H10v15H.664Zm0 0"/></clipPath><clipPath id="h"><path d="M.664 71H5v4H.664Zm0 0"/></clipPath><clipPath id="i"><path d="M.664 65H10v16H.664Zm0 0"/></clipPath><clipPath id="j"><path d="M222 39h3.379v4H222Zm0 0"/></clipPath><clipPath id="k"><path d="M216 34h9.379v15H216Zm0 0"/></clipPath><clipPath id="l"><path d="M222 99h3.379v4.332H222Zm0 0"/></clipPath><clipPath id="m"><path d="M216 94h9.379v9.332H216Zm0 0"/></clipPath><clipPath id="n"><path d="M131 99h4v4.332h-4Zm0 0"/></clipPath><clipPath id="o"><path d="M126 94h15v9.332h-15Zm0 0"/></clipPath><clipPath id="p"><path d="M191 99h5v4.332h-5Zm0 0"/></clipPath><clipPath id="q"><path d="M186 94h15v9.332h-15Zm0 0"/></clipPath><path id="a" d="M-3.547-4.39c.531.011.961.136 1.281.374q.47.345.47.797 0 .423-.532 1.11-.53.674-.531.89 0 .346.359.516.187.094.61.172v.437c-.458 0-.86-.101-1.204-.312q-.562-.34-.562-.89c0-.27.18-.618.531-1.048q.532-.654.531-.922.001-.592-.953-.703Zm0 0"/><path id="b" d="m-.453-.422-1.719-1.5q-1.013-.874-1.984-.875-1.249 0-1.25.89 0 .363.172.72c.242.062.539.101.89.109q.017.11.016.203c0 .293-.117.438-.36.438q-.545 0-.875-.422-.328-.435-.328-1.157 0-.714.422-1.171.41-.453 1.14-.454.693 0 1.36.422.44.27 1.125.89l1.047.985h.016v-2.015l-.766-.188a.5.5 0 0 1-.031-.187q.002-.219.344-.22.344.001 1.234.079V-.5Zm0 0"/><path id="c" d="M-3.14-1.375c-.114-1.008-.516-1.516-1.204-1.516-.707 0-1.062.305-1.062.907q.002.408.203.687.362.112.812.125.017.11.016.203c0 .282-.117.422-.36.422q-.513.001-.827-.437-.33-.452-.329-1.172 0-.715.375-1.125.376-.405 1.016-.406.628 0 1.016.421c.187.188.351.485.484.891h.016q.111-.702.468-1.094a1.2 1.2 0 0 1 .922-.39q.738 0 1.219.547.485.55.484 1.421c0 .48-.097.84-.28 1.079q-.202.28-.5.28-.406.002-.548-.39.347-.14.5-.281.345-.311.344-.828.002-.998-1.062-1-1.107.002-1.235 1.656Zm0 0"/><path id="d" d="M-.39-2.219c0-.726-.833-1.094-2.5-1.094-1.665 0-2.5.368-2.5 1.094q.001 1.094 2.5 1.094 2.5.001 2.5-1.094m.5.031q.002.88-.735 1.36-.778.532-2.266.531-1.464 0-2.25-.562-.75-.527-.75-1.407 0-.873.75-1.359.786-.516 2.25-.516 1.47 0 2.266.563c.492.344.734.808.734 1.39m0 0"/><path id="e" d="M-6.14-5.812h.093q.235.002.313.296l.046.235L0-3.266v.735L-5.672-.453l-.094.375q-.03.124-.125.125c-.05 0-.132-.035-.25-.094V-2.03h.094c.156 0 .258.101.297.297l.094.375L-.891-3v-.016l-4.796-1.687-.094.687q-.029.127-.11.125c-.039 0-.125-.03-.25-.093Zm0 0"/><path id="r" d="M4.39-3.547c-.011.531-.136.961-.374 1.281q-.345.47-.797.47-.423 0-1.11-.532-.674-.53-.89-.531-.346 0-.516.359-.094.187-.172.61H.094c0-.458.101-.86.312-1.204q.34-.562.89-.562c.27 0 .618.18 1.048.531q.654.532.922.531.592.001.703-.953Zm0 0"/><path id="s" d="M2.469-3.016h1.547v.47H2.469v1.655h-.5v-1.656H.422v-.469h1.547v-1.64h.5Zm0 0"/><path id="t" d="M4.281-2.453H.547v-.531H4.28Zm0 0"/><path id="u" d="M2.39.094c.829 0 1.672-.406 2.407-1.203-.031-.079-.078-.141-.172-.141-.734.703-1.375.969-2.172.969C1.391-.281.938-1.187.938-2.22c0-.25.03-.5.078-.75.359-1.812 1.703-2.547 2.375-2.547 1.187 0 1.547.72 1.609 1.485l.266-.047c0-.453.03-.89.078-1.375-.485-.031-.735-.39-1.782-.39-1.421 0-2.984 1.296-3.328 3.046-.03.219-.062.438-.062.656C.172-.953.844.094 2.39.094m0 0"/><path id="v" d="M3.281-4.453c-.36-.047-.312-.219-.953-.219-.594 0-1.375.406-1.515 1.156-.016.079-.016.157-.016.235 0 .625.547.969 1.031 1.219.328.156.594.39.594.812 0 .078 0 .156-.031.266-.11.578-.453.797-.97.797-.608 0-.968-.297-.968-1l-.219.015C.22-.625.204-.39.141-.032c.406 0 .593.11 1.172.11.78 0 1.53-.594 1.687-1.312.016-.094.016-.188.016-.266 0-.64-.485-.953-.97-1.172-.233-.11-.75-.406-.75-.89 0-.047.016-.094.016-.157a.91.91 0 0 1 .907-.719c.656 0 .75.422.781.891l.234.016c0-.344.032-.531.047-.922m0 0"/></defs><path fill="none" stroke="#000" stroke-linejoin="bevel" stroke-miterlimit="10" stroke-width=".79064791" d="M21.238 24.133c3.489 0 6.317 1.93 6.317 4.308 0 2.383-2.828 4.313-6.317 4.313 3.489 0 6.317 1.93 6.317 4.312 0 2.38-2.828 4.313-6.317 4.313 3.489 0 6.317 1.93 6.317 4.309 0 2.382-2.828 4.312-6.317 4.312 3.489 0 6.317 1.93 6.317 4.313s-2.828 4.312-6.317 4.312M46.828 58.625c-3.488 0-6.316-1.93-6.316-4.312S43.34 50 46.828 50c-3.488 0-6.316-1.93-6.316-4.312 0-2.38 2.828-4.31 6.316-4.31-3.488 0-6.316-1.933-6.316-4.312 0-2.382 2.828-4.312 6.316-4.312-3.488 0-6.316-1.93-6.316-4.313 0-2.379 2.828-4.308 6.316-4.308"/><path fill="none" stroke="#000" stroke-miterlimit="10" stroke-width=".39581997" d="M2.437 9.781h18.958v14.746m0 33.703v14.743H2.437M65.63 9.78H46.672v14.746m0 33.703v14.743h18.957"/><path fill="none" stroke="#000" stroke-miterlimit="10" stroke-width=".79064791" d="M35.613 57.176V25.578m-3.16 31.598V25.578"/><use xlink:href="#a" x="11.737" y="54.857"/><use xlink:href="#b" x="11.737" y="48.488"/><use xlink:href="#c" x="11.737" y="44.041"/><use xlink:href="#d" x="11.737" y="39.594"/><use xlink:href="#e" x="11.737" y="33.67"/><path fill="none" stroke="#000" stroke-miterlimit="10" stroke-width=".39581997" d="M2.437 9.781"/><g clip-path="url(#f)"><path fill="#FFF" d="M4.012 9.781a1.575 1.575 0 1 0-3.15.001 1.575 1.575 0 0 0 3.15 0m0 0"/></g><g clip-path="url(#g)"><path fill="none" stroke="#000" stroke-miterlimit="10" stroke-width=".39581997" d="M4.012 9.781a1.575 1.575 0 1 0-3.15 0 1.575 1.575 0 0 0 3.15 0Zm0 0"/></g><path fill="none" stroke="#000" stroke-miterlimit="10" stroke-width=".39581997" d="M2.437 72.973"/><g clip-path="url(#h)"><path fill="#FFF" d="M4.012 72.973a1.575 1.575 0 1 0-3.148 0 1.575 1.575 0 0 0 3.148 0m0 0"/></g><g clip-path="url(#i)"><path fill="none" stroke="#000" stroke-miterlimit="10" stroke-width=".39581997" d="M4.012 72.973a1.575 1.575 0 1 0-3.148 0 1.575 1.575 0 0 0 3.148 0Zm0 0"/></g><path fill="none" stroke="#000" stroke-miterlimit="10" stroke-width=".39581997" d="M65.629 9.781h11.285m0 0H88.2"/><path stroke="#000" stroke-miterlimit="10" stroke-width=".39581997" d="M89.773 9.781a1.575 1.575 0 1 0-3.149 0 1.575 1.575 0 0 0 3.15 0Zm0 0"/><path fill="none" stroke="#000" stroke-miterlimit="10" stroke-width=".39581997" d="M65.629 72.973h11.285m0 0H88.2"/><path stroke="#000" stroke-miterlimit="10" stroke-width=".39581997" d="M89.773 72.973a1.575 1.575 0 1 0-3.148 0 1.575 1.575 0 0 0 3.148 0Zm0 0"/><path fill="none" stroke="#000" stroke-miterlimit="10" stroke-width=".39581997" d="m88.2 9.781-9.239 9.7M67.34 31.68l-9.235 9.699 9.235 9.695M78.96 63.277l9.238 9.696"/><path fill="none" stroke="#000" stroke-miterlimit="10" stroke-width=".79064791" d="m78.961 19.477-3.992 19.468-15.254-14.527Zm0 0"/><path fill="none" stroke="#000" stroke-miterlimit="10" stroke-width=".39581997" d="M78.961 19.477 67.34 31.68"/><path fill="none" stroke="#000" stroke-miterlimit="10" stroke-width=".79064791" d="M71.336 12.215 86.59 26.742"/><path stroke="#000" stroke-miterlimit="10" stroke-width=".39581997" d="M59.68 41.379a1.575 1.575 0 1 0-3.148 0 1.575 1.575 0 0 0 3.148 0Zm0 0"/><path fill="none" stroke="#000" stroke-miterlimit="10" stroke-width=".79064791" d="m78.961 63.277-3.992-19.464-15.254 14.523Zm0 0"/><path fill="none" stroke="#000" stroke-miterlimit="10" stroke-width=".39581997" d="M78.961 63.277 67.34 51.074"/><path fill="none" stroke="#000" stroke-miterlimit="10" stroke-width=".79064791" d="M71.336 70.54 86.59 56.011"/><path fill="none" stroke="#000" stroke-miterlimit="10" stroke-width=".39581997" d="m88.2 9.781 9.234 9.7m11.62 12.199 9.235 9.699-9.234 9.695M97.434 63.277l-9.235 9.696"/><path fill="none" stroke="#000" stroke-miterlimit="10" stroke-width=".79064791" d="m109.055 31.68-3.996-19.465-15.25 14.527Zm0 0"/><path fill="none" stroke="#000" stroke-miterlimit="10" stroke-width=".39581997" d="m109.055 31.68-11.621-12.2"/><path fill="none" stroke="#000" stroke-miterlimit="10" stroke-width=".79064791" d="m101.43 38.945 15.25-14.527"/><path stroke="#000" stroke-miterlimit="10" stroke-width=".39581997" d="M119.863 41.379a1.575 1.575 0 1 0-3.148 0 1.575 1.575 0 0 0 3.148 0Zm0 0"/><path fill="none" stroke="#000" stroke-miterlimit="10" stroke-width=".79064791" d="m109.055 51.074-3.996 19.465-15.25-14.527Zm0 0"/><path fill="none" stroke="#000" stroke-miterlimit="10" stroke-width=".39581997" d="M109.055 51.074 97.434 63.277"/><path fill="none" stroke="#000" stroke-miterlimit="10" stroke-width=".79064791" d="m101.43 43.813 15.25 14.523"/><path fill="none" stroke="#000" stroke-miterlimit="10" stroke-width=".39581997" d="M118.29 41.379h7.523m0 0h20.761m33.703 0h28.29m0 0h15.042"/><path fill="none" stroke="#000" stroke-linejoin="bevel" stroke-miterlimit="10" stroke-width=".79064791" d="M146.18 41.535c0-3.488 1.93-6.32 4.312-6.32s4.313 2.832 4.313 6.32c0-3.488 1.93-6.32 4.312-6.32 2.38 0 4.309 2.832 4.309 6.32 0-3.488 1.933-6.32 4.312-6.32 2.383 0 4.313 2.832 4.313 6.32 0-3.488 1.93-6.32 4.312-6.32 2.38 0 4.309 2.832 4.309 6.32"/><g clip-path="url(#j)"><path fill="#FFF" d="M225.184 41.379a1.575 1.575 0 1 0-3.148 0 1.575 1.575 0 0 0 3.148 0m0 0"/></g><g clip-path="url(#k)"><path fill="none" stroke="#000" stroke-miterlimit="10" stroke-width=".39581997" d="M225.184 41.379a1.575 1.575 0 1 0-3.148 0 1.575 1.575 0 0 0 3.148 0Zm0 0"/></g><path fill="none" stroke="#000" stroke-miterlimit="10" stroke-width=".39581997" d="M58.105 41.379v30.09m0 0v30.094h37.618m0 0h67.703m0 0h45.14m0 0h15.043"/><g clip-path="url(#l)"><path fill="#FFF" d="M225.184 101.563a1.575 1.575 0 1 0-3.148 0 1.575 1.575 0 0 0 3.148 0m0 0"/></g><g clip-path="url(#m)"><path fill="none" stroke="#000" stroke-miterlimit="10" stroke-width=".39581997" d="M225.184 101.563a1.575 1.575 0 1 0-3.148 0 1.575 1.575 0 0 0 3.148 0Zm0 0"/></g><path fill="none" stroke="#000" stroke-miterlimit="10" stroke-width=".39581997" d="M133.336 41.379v25.879m0 8.426v25.879"/><path fill="none" stroke="#000" stroke-miterlimit="10" stroke-width=".79064791" d="M145.973 67.258h-25.278m25.278 8.426h-25.278"/><path stroke="#000" stroke-miterlimit="10" stroke-width=".39581997" d="M134.91 41.379a1.575 1.575 0 1 0-3.149 0 1.575 1.575 0 0 0 3.15 0Zm0 0"/><g clip-path="url(#n)"><path d="M134.91 101.563a1.575 1.575 0 1 0-3.149 0 1.575 1.575 0 0 0 3.15 0m0 0"/></g><g clip-path="url(#o)"><path fill="none" stroke="#000" stroke-miterlimit="10" stroke-width=".39581997" d="M134.91 101.563a1.575 1.575 0 1 0-3.149 0 1.575 1.575 0 0 0 3.15 0Zm0 0"/></g><path fill="none" stroke="#000" stroke-miterlimit="10" stroke-width=".39581997" d="M193.52 41.379v25.879m0 8.426v25.879"/><path fill="none" stroke="#000" stroke-miterlimit="10" stroke-width=".79064791" d="M206.156 67.258H180.88m25.277 8.426H180.88"/><path stroke="#000" stroke-miterlimit="10" stroke-width=".39581997" d="M195.094 41.379a1.575 1.575 0 1 0-3.15 0 1.575 1.575 0 0 0 3.15 0Zm0 0"/><g clip-path="url(#p)"><path d="M195.094 101.563a1.575 1.575 0 1 0-3.15 0 1.575 1.575 0 0 0 3.15 0m0 0"/></g><g clip-path="url(#q)"><path fill="none" stroke="#000" stroke-miterlimit="10" stroke-width=".39581997" d="M195.094 101.563a1.575 1.575 0 1 0-3.15 0 1.575 1.575 0 0 0 3.15 0Zm0 0"/></g><use xlink:href="#r" x="85.974" y="6.62"/><use xlink:href="#r" x="85.974" y="79.792"/><use xlink:href="#s" x="110.679" y="43.709"/><use xlink:href="#t" x="61.268" y="42.868"/><use xlink:href="#u" x="176.749" y="62.156"/><use xlink:href="#v" x="181.615" y="64.024"/></svg>