<svg xmlns="http://www.w3.org/2000/svg" width="35.436" height="44.451"><defs><clipPath id="a"><path d="M0 .078h34.879v43.754H0Zm0 0"/></clipPath><clipPath id="b"><path d="M13 .078h15V15H13Zm0 0"/></clipPath><clipPath id="c"><path d="M13 21h16v22.832H13Zm0 0"/></clipPath><clipPath id="d"><path d="M27 21h1v22.832h-1Zm0 0"/></clipPath><clipPath id="e"><path d="M21 22h13.879v15H21Zm0 0"/></clipPath></defs><g clip-path="url(#a)"><path fill="none" stroke="#000" stroke-miterlimit="10" stroke-width=".7845110100000001" d="M34.488 21.957c0-8.66-7.02-15.684-15.68-15.684S3.126 13.297 3.126 21.957s7.023 15.68 15.684 15.68 15.68-7.02 15.68-15.68Zm0 0"/></g><g clip-path="url(#b)"><path fill="none" stroke="#000" stroke-miterlimit="10" stroke-width=".39274767000000005" d="M27.738.273v14.165H14.063"/></g><path fill="none" stroke="#000" stroke-miterlimit="10" stroke-width=".7845110100000001" d="M14.063 11.215v21.484"/><g clip-path="url(#c)"><path fill="none" stroke="#000" stroke-miterlimit="10" stroke-width=".39274767000000005" d="M14.063 21.957h13.87m-13.87 7.52h13.675v14.16"/></g><path fill="none" stroke="#000" stroke-miterlimit="10" stroke-width=".7845110100000001" d="M10.781 14.238v15.434"/><path d="M21.438 21.957v2.25l-5.032-2.25 5.032-2.254Zm0 0"/><path fill="none" stroke="#000" stroke-miterlimit="10" stroke-width=".39274767000000005" d="M10.781 29.477H.195"/><g clip-path="url(#d)"><path fill="none" stroke="#000" stroke-miterlimit="10" stroke-width=".39274767000000005" d="M27.738 21.957v21.484"/></g><path d="M28.832 29.477a1.094 1.094 0 1 0-2.189.001 1.094 1.094 0 0 0 2.189-.001m0 0"/><g clip-path="url(#e)"><path fill="none" stroke="#000" stroke-miterlimit="10" stroke-width=".39274767000000005" d="M28.832 29.477a1.094 1.094 0 1 0-2.189.001 1.094 1.094 0 0 0 2.189-.001Zm0 0"/></g></svg>