<svg xmlns="http://www.w3.org/2000/svg" xmlns:xlink="http://www.w3.org/1999/xlink" width="232.286" height="130.642"><defs><path id="a" d="M1.828.094c1.75 0 2.375-1.14 2.672-2.735l.484-2.453c.047-.25.188-.39.563-.406l.219-.016c.046 0 .078-.03.078-.078l.031-.172-.016-.015c-.406 0-.75.015-.937.015-.203 0-.547-.015-.938-.015l-.03.015-.032.172c0 .047.031.078.062.078l.22.016c.296.016.405.094.405.281 0 .032 0 .078-.015.125l-.516 2.625c-.187 1-.547 2.188-2 2.188-.422 0-.734-.188-.937-.438C.953-.969.906-1.25.906-1.53s.047-.594.11-.875L1.53-5.11c.063-.25.203-.375.563-.391l.219-.016c.046 0 .078-.03.078-.078l.046-.172-.03-.015c-.391 0-.75.015-1.094.015S.64-5.78.234-5.78l-.03.015-.032.172c0 .047.031.078.062.078l.22.016c.28.016.405.078.405.266 0 .046 0 .078-.015.125l-.578 3a3 3 0 0 0-.063.625c0 1.28.953 1.578 1.625 1.578m0 0"/><path id="f" d="M1.578 1.563c-.094.156-.266.265-.406.265-.125 0-.156-.062-.219-.14-.078-.125-.25-.297-.437-.297-.25 0-.344.172-.344.328 0 .187.219.406.828.406.375 0 .766-.172 1.031-.562.25-.344.453-1.032.797-2.72.14-.702.297-1.421.422-2.171l.031-.156h.828c.079 0 .22-.032.235-.11 0 0 .047-.187.047-.203 0-.015-.016-.031-.063-.031h-.984l.094-.516c.14-.672.265-1.078.39-1.312.125-.25.25-.328.36-.328.125 0 .14.078.187.25.031.187.11.422.39.422.25 0 .313-.204.313-.282 0-.343-.281-.64-.828-.64-.187 0-.422.093-.61.234-.28.234-.656.578-1 2.172l-.578.015c-.171.016-.234.079-.25.157a1 1 0 0 0-.046.156c0 .016.015.016.046.016h.75c-.218 1.015-.25 1.547-.359 2.218-.14.86-.297 2.313-.625 2.829m0 0"/><path id="b" d="M2.031-.578V-5l-1.344.25a1 1 0 0 1-.015-.187c0-.133.07-.227.219-.282l1.468-.593h.454v5.234l1.078.172q.14.016.14.11-.002.08-.11.296H.86v-.078q0-.311.282-.36Zm0 0"/><path id="c" d="m.422-.453 1.516-1.734q.874-1.015.875-2c0-.833-.305-1.25-.907-1.25q-.345 0-.703.187a3.3 3.3 0 0 0-.125.875q-.11.017-.203.016-.422 0-.422-.344 0-.545.422-.875.42-.342 1.156-.344.715 0 1.172.422.451.408.453 1.156 0 .675-.422 1.36-.268.44-.906 1.125L1.344-.797v.016h2.031l.188-.781a.5.5 0 0 1 .187-.032q.234.002.234.344c0 .242-.03.656-.093 1.25H.5Zm0 0"/><path id="d" d="M6.016-.484 5.937-4.72h-.015l-1.89 4.64h-.485L1.703-4.75h-.016L1.595-.484l.625.125q.124.017.125.093 0 .048-.094.266H.39v-.078Q.39-.324.689-.406l.39-.078.063-5.203-.547-.125c-.086-.02-.125-.055-.125-.11q0-.075.094-.25h1.406L3.922-1.25h.015l1.985-4.922h1.516v.078c0 .157-.102.262-.297.313l-.422.093.078 5.204.61.125q.123.017.124.093 0 .048-.093.266h-2.11v-.078q0-.246.297-.328Zm0 0"/><path id="g" d="m7.094-.469.531.125q.124.017.125.11A.35.35 0 0 1 7.656 0h-1.89a.1.1 0 0 1-.016-.062c0-.133.094-.235.281-.297l.328-.11V-2.75c0-.695-.289-1.047-.859-1.047q-.674.002-1.187.485.046.315.046.515v2.328l.532.125q.124.017.125.11A.4.4 0 0 1 4.937 0H3.032v-.062c0-.133.094-.235.281-.297l.329-.11V-2.75c0-.695-.29-1.047-.86-1.047-.437 0-.82.149-1.14.438v2.89l.53.125q.125.017.126.11A.35.35 0 0 1 2.203 0H.313a.1.1 0 0 1-.016-.062c0-.133.094-.235.281-.297l.328-.11v-3.328l-.64-.094a.1.1 0 0 1-.016-.062q0-.246.328-.281l1.063-.11-.063.594h.031q.61-.64 1.422-.64.828 0 1.156.702.64-.703 1.532-.703.638 0 1 .422.375.41.375 1.172Zm0 0"/><path id="h" d="M3.422-.516H3.39Q2.935.11 2.109.11 1.39.11.922-.359.39-.903.39-2.016q0-1.168.703-1.812.609-.563 1.5-.563c.27 0 .523.04.765.11v-1.657l-.656-.093v-.078q0-.247.328-.266l1.047-.11v6l.656.079q.014.047.016.078 0 .252-.328.281l-1 .094Zm-1.094.047q.64 0 1.031-.39v-2.72c-.218-.206-.507-.312-.859-.312-.398 0-.719.149-.969.438q-.39.468-.39 1.312-.001.846.343 1.282.294.39.844.39m0 0"/><path id="i" d="M3.563-.844q.123.128.124.25 0 .222-.359.438-.44.265-1.078.265-.844 0-1.344-.562-.515-.563-.515-1.64c0-.72.21-1.29.64-1.72.407-.382.914-.578 1.532-.578.414 0 .726.086.937.25.164.125.25.274.25.438q0 .392-.375.484c-.219-.457-.555-.687-1-.687a1.07 1.07 0 0 0-.844.375q-.361.44-.36 1.25 0 1.862 1.36 1.86.657 0 1.031-.423m0 0"/><path id="j" d="M.656-5.937 0-6.031a.2.2 0 0 1-.016-.078q0-.247.344-.266l1.047-.11v2.704h.031q.498-.61 1.313-.61.715 0 1.156.47.499.548.5 1.655 0 1.19-.703 1.813-.628.562-1.594.562-.893 0-1.422-.312Zm1.735 2.14c-.43 0-.766.14-1.016.422v2.719q.375.251.89.25 1.36.001 1.36-1.75c0-.57-.125-1-.375-1.281q-.33-.36-.86-.36m0 0"/><path id="l" d="M2.656-2.781q0-.591-.172-.86-.175-.28-.609-.28a1.5 1.5 0 0 0-.531.093q-.11.22-.203.781a2 2 0 0 1-.188.016q-.438 0-.437-.39 0-.405.468-.688a1.97 1.97 0 0 1 1.032-.282q1.373 0 1.375 1.5v1.97c0 .335.101.5.312.5q.2 0 .313-.11a.38.38 0 0 1 .093.25c0 .062-.058.133-.171.203a.87.87 0 0 1-.532.156q-.628 0-.687-.61h-.016Q2.28.112 1.47.11.966.11.656-.203.343-.514.344-1.031c0-.438.219-.774.656-1.016.383-.195.86-.297 1.422-.297h.234Zm-.89 2.328q.498 0 .89-.469v-1.031l-.234.016q-1.299.11-1.297.812c0 .45.21.672.64.672m0 0"/><clipPath id="e"><path d="M217 108h14.574v16H217Zm0 0"/></clipPath><clipPath id="k"><path d="M134 12h97.574v75H134Zm0 0"/></clipPath></defs><path fill="none" stroke="#000" stroke-miterlimit="10" stroke-width=".39777906" d="M14.453 95.523H24.56m0 0h20.214m0 0h10.11"/><path fill="#FFF" stroke="#000" stroke-miterlimit="10" stroke-width=".39777906" d="M16.035 95.523a1.583 1.583 0 1 0-3.166.002 1.583 1.583 0 0 0 3.166-.002Zm0 0"/><path stroke="#000" stroke-miterlimit="10" stroke-width=".39777906" d="M36.25 95.523a1.58 1.58 0 0 0-1.582-1.582 1.58 1.58 0 0 0-1.582 1.582 1.58 1.58 0 0 0 1.582 1.582 1.58 1.58 0 0 0 1.582-1.582Zm0 0"/><path fill="none" stroke="#000" stroke-miterlimit="10" stroke-width=".39777906" d="M14.453 34.879H24.56m0 0h20.214m0 0h10.11v14.496m0 31.652v14.496"/><path fill="#FFF" stroke="#000" stroke-miterlimit="10" stroke-width=".39777906" d="M16.035 34.879c0-.875-.71-1.586-1.582-1.586a1.584 1.584 0 0 0 0 3.168c.871 0 1.582-.711 1.582-1.582Zm0 0"/><path stroke="#000" stroke-miterlimit="10" stroke-width=".39777906" d="M36.25 34.879c0-.875-.707-1.586-1.582-1.586a1.584 1.584 0 0 0 0 3.168c.875 0 1.582-.711 1.582-1.582Zm0 0"/><path fill="none" stroke="#000" stroke-linejoin="bevel" stroke-miterlimit="10" stroke-width=".7945611800000001" d="M54.723 48.977c3.277 0 5.937 1.816 5.937 4.058 0 2.238-2.66 4.055-5.937 4.055 3.277 0 5.937 1.816 5.937 4.055 0 2.242-2.66 4.054-5.937 4.054 3.277 0 5.937 1.817 5.937 4.059 0 2.238-2.66 4.054-5.937 4.054 3.277 0 5.937 1.817 5.937 4.055 0 2.242-2.66 4.055-5.937 4.055"/><path fill="none" stroke="#000" stroke-miterlimit="10" stroke-width=".39777906" d="M115.531 95.523h-10.11m0 0H85.208m0 0h-10.11V81.027m0-31.652V34.879"/><path fill="#FFF" stroke="#000" stroke-miterlimit="10" stroke-width=".39777906" d="M117.113 95.523a1.583 1.583 0 1 0-3.165.002 1.583 1.583 0 0 0 3.165-.002Zm0 0"/><path stroke="#000" stroke-miterlimit="10" stroke-width=".39777906" d="M96.898 95.523a1.584 1.584 0 0 0-3.168 0 1.583 1.583 0 0 0 3.168 0Zm0 0"/><path fill="none" stroke="#000" stroke-linejoin="bevel" stroke-miterlimit="10" stroke-width=".7945611800000001" d="M75.258 81.422c-3.278 0-5.934-1.813-5.934-4.055 0-2.238 2.656-4.055 5.934-4.055-3.278 0-5.934-1.816-5.934-4.054 0-2.242 2.656-4.059 5.934-4.059-3.278 0-5.934-1.812-5.934-4.054 0-2.239 2.656-4.055 5.934-4.055-3.278 0-5.934-1.817-5.934-4.055 0-2.242 2.656-4.058 5.934-4.058"/><path fill="none" stroke="#000" stroke-miterlimit="10" stroke-width=".39777906" d="M115.531 34.879h-10.11m0 0H85.208m0 0h-10.11"/><path fill="#FFF" stroke="#000" stroke-miterlimit="10" stroke-width=".39777906" d="M117.113 34.879c0-.875-.71-1.586-1.582-1.586a1.584 1.584 0 0 0 0 3.168c.871 0 1.582-.711 1.582-1.582Zm0 0"/><path stroke="#000" stroke-miterlimit="10" stroke-width=".39777906" d="M96.898 34.879c0-.875-.71-1.586-1.585-1.586-.872 0-1.583.71-1.583 1.586 0 .871.711 1.582 1.583 1.582.875 0 1.585-.711 1.585-1.582Zm0 0"/><path fill="none" stroke="#000" stroke-miterlimit="10" stroke-width=".39777906" d="M34.668 95.523V69.156m0-7.91V34.88"/><path fill="none" stroke="#000" stroke-miterlimit="10" stroke-width=".7945611800000001" d="M22.797 69.156h23.738m-23.738-7.91h23.738"/><path fill="none" stroke="#000" stroke-miterlimit="10" stroke-width=".39777906" d="M95.313 95.523V69.156m0-7.91V34.88"/><path fill="none" stroke="#000" stroke-miterlimit="10" stroke-width=".7945611800000001" d="M83.445 69.156h23.739m-23.739-7.91h23.739"/><path fill="none" stroke="#000" stroke-miterlimit="10" stroke-width=".39777906" d="M14.453 43.926v42.55"/><path stroke="#000" stroke-miterlimit="10" stroke-width=".39777906" d="M14.453 82.273h-1.98l1.98 4.204 1.977-4.204Zm0 0"/><use xlink:href="#a" x="1.987" y="66.796"/><use xlink:href="#b" x="6.742" y="69.388"/><path fill="none" stroke="#000" stroke-miterlimit="10" stroke-width=".39777906" d="M115.531 43.926v42.55"/><path stroke="#000" stroke-miterlimit="10" stroke-width=".39777906" d="M115.531 82.273h-1.98l1.98 4.204 1.977-4.204Zm0 0"/><use xlink:href="#a" x="118.384" y="66.743"/><use xlink:href="#c" x="123.139" y="69.442"/><use xlink:href="#d" x="61.052" y="37.962"/><path fill="none" stroke="#000" stroke-miterlimit="10" stroke-width=".39777906" d="M135.746 115.738h87.508"/><path d="m226.32 115.738-2.965-1.758v3.516Zm0 0"/><g clip-path="url(#e)"><path fill="none" stroke="#000" stroke-miterlimit="10" stroke-width=".39777906" d="m226.32 115.738-2.965-1.758v3.516Zm0 0"/></g><path fill="none" stroke="#000" stroke-miterlimit="10" stroke-width=".39777906" d="M135.746 115.738V18.125"/><path stroke="#000" stroke-miterlimit="10" stroke-width=".39777906" d="m135.746 15.059-1.758 2.964h3.516Zm0 0"/><path fill="none" stroke="#000" stroke-dasharray="2.9796841802 2.9796841802" stroke-miterlimit="10" stroke-width=".39777906" d="M186.285 115.738V14.66"/><use xlink:href="#f" x="180.271" y="125.157"/><use xlink:href="#g" x="184.034" y="127.033"/><use xlink:href="#f" x="224.832" y="125.157"/><use xlink:href="#a" x="130.94" y="8.785"/><use xlink:href="#c" x="135.695" y="11.484"/><path fill="none" stroke="#000" stroke-miterlimit="10" stroke-width=".7945611800000001" d="M176.176 105.633s.226 1.34 3.035-7.078c2.805-8.414 3.148-23.246 7.074-23.246s4.27 14.832 7.074 23.246c2.805 8.418 3.036 7.078 3.036 7.078"/><use xlink:href="#h" x="169.664" y="108.823"/><path fill="none" stroke="#000" stroke-miterlimit="10" stroke-width=".7945611800000001" d="M166.07 95.523s.453 1.895 6.063-12.128 6.297-38.41 14.152-38.41c7.852 0 8.54 24.386 14.153 38.41 5.609 14.023 6.062 12.128 6.062 12.128"/><use xlink:href="#i" x="160.013" y="97.67"/><path fill="none" stroke="#000" stroke-miterlimit="10" stroke-width=".7945611800000001" d="M155.961 85.418s4.047-7.418 6.066-12.133c2.02-4.71 15.668-40.77 18.192-44.473 2.523-3.703 9.605-3.703 12.129 0 2.527 3.704 16.176 39.762 18.195 44.473 2.02 4.715 6.066 12.133 6.066 12.133"/><use xlink:href="#j" x="149.529" y="88.607"/><g clip-path="url(#k)"><path fill="none" stroke="#000" stroke-miterlimit="10" stroke-width=".7945611800000001" d="M145.852 75.309s1.746-2.313 6.066-12.13 9.496-33.699 16.172-38.41 11.125 14.153 18.195 14.153c7.067 0 11.52-18.863 18.196-14.152 6.671 4.71 11.851 28.593 16.171 38.41s6.063 12.129 6.063 12.129"/></g><use xlink:href="#l" x="139.722" y="77.454"/></svg>