<svg xmlns="http://www.w3.org/2000/svg" xmlns:xlink="http://www.w3.org/1999/xlink" width="228.777" height="128.178"><defs><clipPath id="a"><path d="M216 105h11.938v16H216Zm0 0"/></clipPath><clipPath id="b"><path d="M74 1h101v111.887H74Zm0 0"/></clipPath><clipPath id="c"><path d="M11.234 112H213v.887H11.234Zm0 0"/></clipPath><clipPath id="d"><path d="M11.234.219H218v112.668H11.234Zm0 0"/></clipPath><clipPath id="f"><path d="M43 58h31v54.887H43Zm0 0"/></clipPath><clipPath id="g"><path d="M175 58h31v54.887h-31Zm0 0"/></clipPath><path id="e" d="M2.188-6.14c.007.023.015.046.015.077q0 .236-.312.313l-.313.063L2.75-3.703h.016l1.265-2-.61-.094q-.126 0-.124-.094-.001-.074.11-.25h1.78c.008.024.016.047.016.079q-.002.252-.297.312l-.312.063-1.532 2.453L4.735-.47l.422.11q.124.034.125.093 0 .048-.093.266H3.297a.16.16 0 0 1-.016-.078q-.002-.264.313-.328l.265-.047-1.265-2.125h-.016L1.266-.453l.562.094q.124.017.125.093A.6.6 0 0 1 1.86 0H.047v-.078q0-.264.297-.328l.25-.063 1.672-2.593-1.594-2.61-.438-.11C.148-5.8.11-5.835.11-5.89q0-.074.11-.25Zm0 0"/><path id="h" d="M1.578 1.563c-.094.14-.281.265-.406.265S1 1.766.953 1.672C.875 1.562.703 1.39.5 1.39a.307.307 0 0 0-.328.312c0 .203.219.422.828.422.36 0 .75-.187 1.031-.562.25-.344.438-1.032.797-2.72.14-.702.281-1.421.406-2.171l.032-.14h.828c.078 0 .218-.048.234-.11 0 0 .047-.188.047-.203s-.016-.047-.062-.047h-.985l.094-.5c.14-.672.265-1.063.39-1.313.141-.25.25-.312.36-.312.125 0 .14.078.187.25.032.187.11.406.391.406.25 0 .313-.203.313-.281 0-.328-.282-.64-.829-.64a.95.95 0 0 0-.593.25c-.297.218-.672.562-1 2.14l-.594.031c-.156.016-.235.078-.25.156 0 .032-.031.125-.031.157 0 .015.015.015.046.015h.75c-.218 1.016-.25 1.547-.374 2.219-.141.844-.282 2.297-.61 2.813m0 0"/><path id="i" d="M1.063-.625c-.047.234-.204.344-.547.36l-.22.03C.25-.234.22-.218.22-.171L.172 0l.031.016C.5.016.937 0 1.297 0c.328 0 .766.016 1.156.016L2.47 0l.047-.172c0-.047-.016-.062-.063-.062l-.312-.032C1.875-.28 1.75-.344 1.75-.53v-.094l.39-1.969c.172.063.329.078.626.078 1.562 0 2.218-1.062 2.359-1.812.016-.094.016-.172.016-.281 0-.532-.297-1.22-1.61-1.22-.234 0-.781.079-1.125.079s-.781 0-1.094-.016l-.015.016-.047.188c0 .046.016.062.047.062l.328.016c.125 0 .313.062.313.28v.095Zm1.562-4.484c.047-.266.156-.407.781-.407.5 0 .985.157.985.891 0 .125-.016.281-.047.453-.188.969-.735 1.36-1.563 1.36-.203 0-.5-.016-.594-.047Zm0 0"/></defs><path fill="none" stroke="#000" stroke-miterlimit="10" stroke-width=".39645837" d="M11.234 112.887H221.52"/><path d="m224.574 112.887-2.957-1.754v3.504Zm0 0"/><g clip-path="url(#a)"><path fill="none" stroke="#000" stroke-miterlimit="10" stroke-width=".39645837" d="m224.574 112.887-2.957-1.754v3.504Zm0 0"/></g><path fill="none" stroke="#000" stroke-miterlimit="10" stroke-width=".39645837" d="M11.234 112.887V3.672"/><path stroke="#000" stroke-miterlimit="10" stroke-width=".39645837" d="M11.234.617 9.484 3.57h3.504Zm0 0"/><g clip-path="url(#b)"><path fill="#7F7F7F" fill-opacity=".4" d="M74.098 85.43v-.024c2.617-13.648 4.543-64.957 6.289-76.394 1.742-11.438 4.539-5.969 6.285-6.043 1.742-.078 4.543-2.133 6.285 5.496 1.746 7.625 3.672 44.887 6.285 49.46 2.617 4.575 9.086-16.487 12.574-16.487 3.489 0 9.086 15.726 12.575 16.488s9.082-10.992 12.57-10.992 9.086 10.23 12.574 10.992c3.488.761 9.082-9.309 12.57-5.496 3.489 3.812 9.079 24.949 12.57 32.965l.005 27.492H74.098Zm0 0"/></g><g clip-path="url(#c)"><path fill="none" stroke="#000" stroke-miterlimit="10" stroke-width=".39645837" d="M-26.48 112.887h238.878"/></g><g clip-path="url(#d)"><path fill="none" stroke="#000" stroke-miterlimit="10" stroke-width=".39645837" d="M-26.48 112.887s9.082-2.367 12.57-2.75c3.488-.38 9.086-.38 12.574 0 3.488.383 9.082 2.902 12.57 2.75 3.493-.153 9.086-3.469 12.575-3.848 3.488-.383 9.082.945 12.574 1.098 3.488.152 9.082.383 12.57 0 3.488-.38 9.086.683 12.574-2.746 3.489-3.434 9.953-8.336 12.57-21.985s4.544-64.957 6.29-76.394c1.742-11.438 4.539-5.969 6.285-6.043 1.742-.078 4.543-2.133 6.285 5.496 1.746 7.625 3.672 44.887 6.285 49.46 2.617 4.575 9.086-16.488 12.574-16.488 3.489 0 9.086 15.727 12.575 16.489 3.488.761 9.082-10.992 12.57-10.992s9.086 10.23 12.574 10.992c3.488.761 9.082-9.309 12.57-5.496 3.493 3.812 9.086 24.968 12.575 32.976s9.082 21.68 12.574 24.73c3.488 3.052 9.082-3.128 12.57-2.745 3.489.379 12.574 5.496 12.574 5.496"/></g><use xlink:href="#e" x="46.289" y="61.002"/><g clip-path="url(#f)"><path fill="none" stroke="#000" stroke-miterlimit="10" stroke-width=".39645837" d="m48.953 64.168 18.86 43.223"/></g><use xlink:href="#e" x="197.159" y="61.002"/><g clip-path="url(#g)"><path fill="none" stroke="#000" stroke-miterlimit="10" stroke-width=".39645837" d="m199.824 64.168-18.86 43.223"/></g><use xlink:href="#h" x="218.05" y="122.272"/><use xlink:href="#i" x="3.587" y="9.216"/></svg>