<svg xmlns="http://www.w3.org/2000/svg" xmlns:xlink="http://www.w3.org/1999/xlink" width="227.518" height="81.508"><defs><path id="c" d="M1.516-1.906c-.086-.145-.125-.39-.125-.735q-.001-.45.343-.937.31-.422.625-.844a2.07 2.07 0 0 0 .329-1.11q0-.89-.938-.89-.268 0-.531.094-.129.252-.235.875H.781q-.485 0-.484-.422-.001-.435.484-.75.481-.328 1.11-.328.7 0 1.156.328.515.391.515 1.14c0 .4-.136.782-.406 1.157q-.361.439-.734.906c-.262.344-.39.68-.39 1q0 .363.046.516Zm.812 1.484a.55.55 0 0 1-.156.406.6.6 0 0 1-.406.141.53.53 0 0 1-.375-.14.54.54 0 0 1-.157-.407q-.001-.233.157-.39a.51.51 0 0 1 .375-.157c.164 0 .3.055.406.156a.54.54 0 0 1 .156.391m0 0"/><path id="f" d="M5.844-2.89v.078c0 .156-.102.257-.297.296l-.203.047v1.906q-.736.674-2.14.672-1.22 0-1.954-.765-.783-.845-.781-2.39-.002-1.607 1.015-2.47.855-.733 2.11-.734.591 0 1.078.14l.594.235c.03.43.046.734.046.922q-.001.391-.265.39a.44.44 0 0 1-.203-.046l-.188-.844q-.44-.282-1.11-.281-.954.001-1.546.593-.703.705-.703 2c0 .875.191 1.555.578 2.032q.56.689 1.531.687c.438 0 .82-.07 1.156-.219v-1.78l-.546-.126q-.127-.029-.125-.094 0-.074.093-.25Zm0 0"/><path id="n" d="M6.25-6.14v.077c0 .157-.102.258-.297.297l-.422.094V0H5L1.64-5.172h-.015v4.688l.625.125q.124.017.125.093c0 .032-.04.121-.11.266H.423a.16.16 0 0 1-.016-.078Q.404-.324.72-.406l.375-.078v-5.188l-.547-.125c-.086-.02-.125-.05-.125-.094q0-.074.094-.25h1.422l3.046 4.704H5v-4.235l-.562-.125c-.086-.02-.125-.05-.125-.094q-.001-.074.109-.25Zm0 0"/><path id="o" d="M4.484-6.14q.062.751.063 1.046c0 .262-.086.39-.25.39a.5.5 0 0 1-.188-.03l-.218-.938H1.875v2.438h1.969v.5H1.875v2.25l.703.125q.124.017.125.093-.002.048-.11.266H.423a.16.16 0 0 1-.016-.078Q.404-.324.72-.406l.375-.078v-5.188l-.547-.125c-.086-.02-.125-.05-.125-.094q0-.074.094-.25Zm0 0"/><path id="p" d="M3.406-.422q.561 0 1-.187l.266-1.188a.7.7 0 0 1 .203-.031c.164 0 .25.133.25.39l-.047.97Q4.358.11 3.25.108q-1.19 0-1.906-.703C.758-1.133.469-1.954.469-3.047c0-1.039.32-1.86.969-2.453q.826-.75 2-.75c.656 0 1.21.137 1.671.406q.047.643.047.922-.001.391-.265.39a.6.6 0 0 1-.203-.03L4.5-5.453a2.03 2.03 0 0 0-1.062-.281q-.939 0-1.5.609c-.43.46-.641 1.121-.641 1.984q-.001 1.376.625 2.079c.363.43.86.64 1.484.64m0 0"/><path id="q" d="M3.266-.39q.903 0 1.437-.72.53-.714.531-1.968 0-1.232-.562-1.953a1.75 1.75 0 0 0-1.453-.719q-.891.002-1.406.719-.516.722-.516 1.953 0 1.254.516 1.969.526.719 1.453.718m-.047.5q-1.22 0-1.969-.813Q.467-1.56.469-3.078c0-1 .273-1.785.828-2.36q.78-.81 2.016-.812 1.247.002 1.984.813c.508.562.766 1.351.766 2.359Q6.062-1.56 5.234-.703 4.45.11 3.22.109m0 0"/><path id="r" d="M5.813-6.14c.007.023.015.046.015.077q0 .253-.312.313l-.22.063L3.267 0H2.53L.453-5.687l-.375-.094q-.124-.029-.125-.11c0-.05.035-.132.094-.25H2.03c.008.024.016.047.016.079q-.001.235-.313.312l-.375.078L3-.906h.016l1.703-4.781-.688-.11q-.127-.029-.125-.094 0-.074.094-.25Zm0 0"/><path id="k" d="m3.484-.375-.453-1.266H1.297L.844-.375l.531.094q.094.018.094.078A.7.7 0 0 1 1.39 0H-.062v-.062c0-.133.078-.22.234-.25L.359-.36l1.688-4.422.437-.063L4.156-.375l.297.094q.094.033.094.078 0 .034-.078.203H2.984v-.062q0-.187.235-.25Zm-2.046-1.64h1.468l-.719-2.032h-.015Zm0 0"/><path id="l" d="M.328 0a.1.1 0 0 1-.016-.062q0-.187.25-.25L.86-.375v-4.047l-.437-.094q-.094-.012-.094-.078-.002-.058.078-.187h1.61v.062q0 .176-.235.235l-.328.062V-.39h1.61l.187-.828a1 1 0 0 1 .156-.015q.171 0 .172.28-.002.346-.062.954Zm0 0"/><path id="m" d="M2.656-.328q.436 0 .766-.14l.219-.923a.4.4 0 0 1 .156-.03q.187 0 .187.312l-.03.734c-.368.305-.84.453-1.423.453q-.924 0-1.484-.531-.69-.64-.688-1.922 0-1.216.75-1.906a2.25 2.25 0 0 1 1.563-.594q.78 0 1.312.313.031.501.032.734-.002.299-.203.297a.7.7 0 0 1-.157-.016L3.5-4.25a1.6 1.6 0 0 0-.828-.219q-.72 0-1.172.469c-.336.355-.5.875-.5 1.563q-.001 1.065.484 1.609c.29.336.68.5 1.172.5m0 0"/><path id="s" d="M1.797-4.781q1.952.002 1.953 1.328 0 .703-.469 1.078-.504.391-1.453.39h-.375v1.61L2-.281c.07.011.11.039.11.078A.7.7 0 0 1 2.03 0H.328a.1.1 0 0 1-.016-.062q0-.187.25-.25L.86-.375v-4.047l-.437-.094q-.094-.012-.094-.078-.002-.058.078-.187Zm0 2.422q.655 0 1-.297.311-.264.312-.75 0-.985-1.312-.985h-.344v2.032Zm0 0"/><path id="t" d="M3.469-4.422h-1.11v4.047l.47.094q.093.018.093.078 0 .034-.078.203H1.219v-.062q0-.187.234-.25l.297-.063v-4.047H.64l-.156.734a.4.4 0 0 1-.156.032q-.204.002-.203-.313 0-.169.047-.812h3.75q.047.644.047.812 0 .315-.188.313a.4.4 0 0 1-.156-.031Zm0 0"/><path id="u" d="M.703-.36v-2.593l-.5-.063a.1.1 0 0 1-.016-.062c0-.125.086-.192.266-.203l.813-.094-.032.594h.016q.406-.623.875-.625.47 0 .469.328a.5.5 0 0 1-.11.297c-.168-.07-.32-.11-.453-.11a.89.89 0 0 0-.765.407V-.36l.484.093c.07.012.11.04.11.079A.3.3 0 0 1 1.78 0H.25a.1.1 0 0 1-.016-.047c0-.101.07-.18.22-.234Zm0 0"/><path id="v" d="M.906-1.687q0 .657.282 1.015.281.345.796.344.451 0 .844-.328.075.048.094.203-.001.158-.313.328-.376.201-.875.203-.626 0-1-.39Q.314-.747.313-1.61.312-2.464.75-2.97c.281-.289.617-.437 1.016-.437q.545 0 .843.312.296.316.297.844 0 .234-.078.563Zm.797-1.36Q1-3.047.906-2.016h1.375q.03-.139.031-.296 0-.734-.609-.735m0 0"/><path id="w" d="M.703-.36v-2.593l-.5-.063a.1.1 0 0 1-.016-.062c0-.125.086-.192.266-.203l.813-.094v3.016l.422.093q.093.02.093.079A.36.36 0 0 1 1.72 0H.25a.1.1 0 0 1-.016-.047c0-.101.07-.18.22-.234ZM.593-4.53a.38.38 0 0 1 .11-.282.35.35 0 0 1 .281-.125q.17.001.282.125a.37.37 0 0 1 .125.282.38.38 0 0 1-.125.297.42.42 0 0 1-.282.093.4.4 0 0 1-.28-.093c-.075-.07-.11-.172-.11-.297m0 0"/><path id="x" d="M.5-4.61 0-4.686v-.047q-.001-.2.25-.22l.813-.077v2.093h.03a1.25 1.25 0 0 1 1.016-.468q.563 0 .891.36.406.44.406 1.296 0 .908-.562 1.406-.486.423-1.235.422Q.92.078.5-.156Zm1.36 1.657q-.505.002-.798.344v2.093q.295.205.688.204 1.062 0 1.063-1.36c0-.445-.094-.781-.282-1a.9.9 0 0 0-.672-.281m0 0"/><path id="y" d="m4.672-.375-.063-3.281h-.015L3.125-.062H2.75L1.313-3.687h-.016L1.234-.376l.485.094q.093.018.093.078 0 .034-.078.203H.313a.1.1 0 0 1-.016-.062q0-.187.234-.25l.297-.063.063-4.047-.438-.094Q.36-4.528.36-4.594q-.002-.058.079-.187H1.53l1.5 3.812h.016L4.594-4.78h1.172a.1.1 0 0 1 .015.062q0 .176-.234.235l-.328.062.047 4.047.484.094q.094.018.094.078-.002.034-.078.203H4.14v-.062q0-.187.234-.25Zm0 0"/><path id="z" d="M.781-.437q.2.14.5.14c.395 0 .594-.148.594-.453 0-.125-.062-.242-.187-.36a5 5 0 0 0-.454-.312q-.408-.263-.578-.437-.28-.31-.281-.672-.002-.406.313-.64.31-.235.796-.235.452 0 .75.234c.008.18.016.32.016.422q-.001.345-.266.344a.1.1 0 0 1-.062-.016l-.078-.484a.86.86 0 0 0-.469-.156c-.336 0-.5.136-.5.406q0 .281.39.547.357.234.72.468.405.33.406.735 0 .421-.328.703-.317.28-.844.281C.875.078.594.012.375-.109a3 3 0 0 1-.062-.578c0-.22.085-.329.265-.329.02 0 .04.008.063.016Zm0 0"/><path id="A" d="M2.766-.656a.3.3 0 0 1 .093.203q0 .158-.28.328-.348.201-.829.203c-.437 0-.79-.14-1.047-.422q-.391-.45-.39-1.281c0-.562.164-1.004.5-1.328q.45-.451 1.171-.453.482 0 .735.187.187.158.187.344 0 .316-.281.375c-.18-.352-.437-.531-.781-.531a.82.82 0 0 0-.657.297q-.28.329-.28.968c0 .961.35 1.438 1.062 1.438q.497 0 .797-.328m0 0"/><path id="B" d="M.64-.36v-4.25l-.515-.077v-.047q-.001-.2.25-.22l.828-.077v2.125h.016q.406-.499 1.062-.5c.75 0 1.125.414 1.125 1.234v1.813l.406.093q.094.02.094.079A.36.36 0 0 1 3.844 0H2.375a.1.1 0 0 1-.016-.047c0-.101.07-.18.22-.234l.265-.078v-1.782q0-.81-.75-.812-.55 0-.89.36V-.36l.405.093c.07.012.11.04.11.079A.3.3 0 0 1 1.64 0H.17v-.047q0-.152.204-.234Zm0 0"/><path id="C" d="m5.5-.36.422.094q.093.02.094.079A.36.36 0 0 1 5.953 0H4.47v-.047q-.002-.152.218-.234l.25-.078v-1.782q0-.81-.656-.812-.533 0-.937.375.047.253.047.406v1.813l.406.093c.07.012.11.04.11.079A.3.3 0 0 1 3.827 0H2.36v-.047q0-.152.204-.234l.265-.078v-1.782q-.002-.81-.672-.812-.504.002-.89.344v2.25l.422.093q.093.02.093.079A.36.36 0 0 1 1.72 0H.25a.1.1 0 0 1-.016-.047c0-.101.07-.18.22-.234l.25-.078v-2.594l-.5-.063a.1.1 0 0 1-.016-.062c0-.125.085-.192.265-.203l.813-.094-.032.469h.016q.48-.499 1.11-.5.62 0 .89.547.497-.546 1.188-.547.499 0 .78.328.282.315.282.906Zm0 0"/><path id="D" d="M1.828.078q-.657 0-1.062-.422-.47-.467-.47-1.281 0-.824.517-1.328.467-.451 1.14-.453.655 0 1.063.406c.3.305.453.734.453 1.297q0 .845-.516 1.344a1.59 1.59 0 0 1-1.125.437m.047-.375q.42 0 .688-.328.28-.374.28-1.047 0-.656-.28-1.031a.85.85 0 0 0-.688-.328q-.44 0-.687.328-.282.363-.282 1.031 0 .69.282 1.047.247.328.687.328m0 0"/><path id="E" d="M2.656-.39h-.031q-.346.468-.984.468c-.375 0-.684-.117-.922-.36-.274-.28-.406-.706-.406-1.28q-.001-.921.53-1.407.47-.435 1.173-.437.311 0 .593.078V-4.61l-.5-.079q-.016-.011-.015-.046-.002-.2.265-.22l.813-.077v4.656l.5.063q.014.033.015.062-.001.19-.265.203l-.766.094Zm-.86.015q.516 0 .813-.297v-2.11c-.168-.163-.39-.25-.671-.25a.95.95 0 0 0-.75.345Q.89-2.311.89-1.672q-.002.673.265 1c.157.2.367.297.64.297m0 0"/><path id="F" d="m.61-2.953-.5-.063a.1.1 0 0 1-.016-.062q-.002-.187.265-.203l.813-.094v2.188c0 .542.226.812.687.812q.545.001.86-.344v-2.234l-.5-.063v-.062q-.001-.187.25-.203l.812-.094v3l.516.063v.062q-.002.19-.25.203l-.781.094v-.469H2.75c-.262.336-.61.5-1.047.5Q.61.08.61-1.156Zm0 0"/><path id="G" d="M.672-.36v-4.25l-.5-.077Q.155-4.7.156-4.734c0-.133.086-.207.266-.22l.812-.077V-.36l.422.093q.094.02.094.079A.3.3 0 0 1 1.672 0H.203v-.047c0-.101.07-.18.219-.234Zm0 0"/><path id="H" d="M2.063-2.156q0-.45-.141-.672-.129-.218-.469-.219a1.1 1.1 0 0 0-.406.078q-.096.175-.156.61H.75q-.344 0-.344-.297c0-.207.117-.383.36-.531q.357-.219.797-.22 1.061 0 1.062 1.173V-.72q-.001.392.25.39a.34.34 0 0 0 .25-.093q.062.096.063.203 0 .082-.126.157a.7.7 0 0 1-.421.125q-.471.001-.532-.485h-.015c-.219.336-.54.5-.953.5Q.747.078.5-.156.266-.402.266-.812q0-.5.515-.782.437-.234 1.094-.234h.188ZM1.375-.36q.388.001.688-.36v-.797l-.188.016q-1.001.082-1 .625c0 .344.164.516.5.516m0 0"/><path id="I" d="m.672-3.328.14-.938h.391v.938H2.25l-.078.36h-.969v2.14q-.002.516.453.516A.9.9 0 0 0 2.234-.5a.4.4 0 0 1 .047.203q0 .095-.187.219a1.2 1.2 0 0 1-.64.156Q.64.078.64-.719v-2.25H.125a.1.1 0 0 1-.016-.047c0-.113.07-.191.22-.234Zm0 0"/><path id="J" d="M1.984-4.781q1.782.002 1.782 1.187 0 .938-1.032 1.125v.016q1.139.158 1.141 1.11c0 .398-.156.718-.469.968Q2.92 0 2.046 0H.329a.1.1 0 0 1-.016-.062q0-.187.25-.25L.86-.375v-4.047l-.437-.094q-.094-.012-.094-.078-.002-.058.078-.187ZM1.97-.391q.623.002.953-.265.311-.247.312-.688 0-.405-.328-.64-.314-.248-.906-.25h-.547v1.843Zm-.047-2.218c.406 0 .71-.082.922-.25A.78.78 0 0 0 3.14-3.5q0-.89-1.22-.89h-.468v1.78Zm0 0"/><path id="K" d="M.703-.36v-2.593l-.5-.063a.1.1 0 0 1-.016-.062c0-.125.086-.192.266-.203l.813-.094-.032.469h.016q.233-.235.406-.328.311-.171.735-.172.515 0 .797.328.28.315.28.906v1.813l.423.093q.093.02.093.079A.3.3 0 0 1 3.906 0H2.437v-.047c0-.101.07-.18.22-.234l.25-.078v-1.782q0-.419-.235-.64a.78.78 0 0 0-.516-.172q-.504.002-.89.344v2.25l.422.093q.093.02.093.079A.36.36 0 0 1 1.72 0H.25a.1.1 0 0 1-.016-.047c0-.101.07-.18.22-.234Zm0 0"/><path id="L" d="M2.297-1.922H.422v-.406h1.875Zm0 0"/><clipPath id="a"><path d="M.441 35H4v4H.441Zm0 0"/></clipPath><clipPath id="b"><path d="M.441 30H10v15H.441Zm0 0"/></clipPath><clipPath id="d"><path d="M202 0h24.598v24H202Zm0 0"/></clipPath><clipPath id="e"><path d="M36 63h19v18.02H36Zm0 0"/></clipPath><clipPath id="g"><path d="M89 63h19v18.02H89Zm0 0"/></clipPath><clipPath id="h"><path d="M88 68h21v13.02H88Zm0 0"/></clipPath><clipPath id="i"><path d="M86 61h22v20.02H86Zm0 0"/></clipPath><clipPath id="j"><path d="M167 63h19v18.02h-19Zm0 0"/></clipPath></defs><path fill="none" stroke="#000" stroke-miterlimit="10" stroke-width=".396606" d="M2.219 37.262h8.953m17.203 0h8.953"/><path fill="none" stroke="#000" stroke-miterlimit="10" stroke-width=".7922180000000001" d="M11.172 28.66h17.203v17.203H11.172Zm0 0"/><path d="M6.98 37.262v1.972l4.192-1.972-4.192-1.973Zm0 0"/><path fill="none" stroke="#000" stroke-miterlimit="10" stroke-width=".396606" d="m13.754 30.637 12.043 6.625-12.043 6.625Zm0 0"/><g clip-path="url(#a)"><path fill="#FFF" d="M3.797 37.262a1.579 1.579 0 1 0-3.158 0 1.579 1.579 0 0 0 3.158 0m0 0"/></g><g clip-path="url(#b)"><path fill="none" stroke="#000" stroke-miterlimit="10" stroke-width=".396606" d="M3.797 37.262a1.579 1.579 0 1 0-3.158.001 1.579 1.579 0 0 0 3.158-.001Zm0 0"/></g><path d="M33.137 37.262v1.972l4.191-1.972-4.191-1.973Zm0 0"/><path fill="none" stroke="#000" stroke-miterlimit="10" stroke-width=".7922180000000001" d="M37.328 28.66h17.207v17.203H37.328Zm0 0"/><path fill="none" stroke="#000" stroke-miterlimit="10" stroke-width=".396606" d="M51.953 37.262a6.02 6.02 0 0 0-6.023-6.02 6.02 6.02 0 0 0-6.02 6.02 6.023 6.023 0 0 0 6.02 6.023c3.328 0 6.023-2.7 6.023-6.023ZM41.672 33.004l8.516 8.516m0-8.516-8.516 8.516M54.535 37.262h8.953m17.203 0h8.954"/><path fill="none" stroke="#000" stroke-miterlimit="10" stroke-width=".7922180000000001" d="M63.488 28.66h17.203v17.203H63.488Zm0 0"/><path d="M59.297 37.262v1.972l4.191-1.972-4.191-1.973Zm0 0"/><use xlink:href="#c" x="70.112" y="40.678"/><path d="M85.453 37.262v1.972l4.192-1.972-4.192-1.973Zm0 0"/><path fill="none" stroke="#000" stroke-miterlimit="10" stroke-width=".7922180000000001" d="M89.645 28.66h17.203v17.203H89.645Zm0 0"/><path fill="none" stroke="#000" stroke-miterlimit="10" stroke-width=".396606" d="M104.27 37.262c0-3.325-2.7-6.02-6.024-6.02a6.02 6.02 0 0 0-6.02 6.02 6.023 6.023 0 0 0 6.02 6.023c3.324 0 6.024-2.7 6.024-6.023ZM93.988 33.004l8.516 8.516m0-8.516-8.516 8.516M106.848 37.262h8.953m17.203 0h8.957"/><path fill="none" stroke="#000" stroke-miterlimit="10" stroke-width=".7922180000000001" d="M115.8 28.66h17.204v17.203H115.8Zm0 0"/><path d="M111.61 37.262v1.972l4.19-1.972-4.19-1.973Zm0 0"/><path fill="none" stroke="#000" stroke-miterlimit="10" stroke-width=".396606" d="M120.102 32.96c.703-1.1 1.375-2.151 2.152-2.151s1.45 1.05 2.148 2.152c.703 1.102 1.375 2.152 2.153 2.152.777 0 1.449-1.05 2.148-2.152m-3.008-1.29-2.582 2.579M120.102 37.262c.703-1.102 1.375-2.149 2.152-2.149s1.45 1.047 2.148 2.149c.703 1.101 1.375 2.152 2.153 2.152.777 0 1.449-1.05 2.148-2.152M120.102 41.562c.703-1.101 1.375-2.148 2.152-2.148s1.45 1.047 2.148 2.148c.703 1.102 1.375 2.153 2.153 2.153.777 0 1.449-1.05 2.148-2.153m-3.008-1.289-2.582 2.579"/><path d="M137.77 37.262v1.972l4.19-1.972-4.19-1.973Zm0 0"/><path fill="none" stroke="#000" stroke-miterlimit="10" stroke-width=".7922180000000001" d="M141.96 28.66h17.204v17.203h-17.203Zm0 0"/><path fill="none" stroke="#000" stroke-miterlimit="10" stroke-width=".396606" d="m144.54 30.637 12.042 6.625-12.043 6.625ZM159.164 37.262h8.953m17.203 0h8.953"/><path fill="none" stroke="#000" stroke-miterlimit="10" stroke-width=".7922180000000001" d="M168.117 28.66h17.203v17.203h-17.203Zm0 0"/><path d="M163.926 37.262v1.972l4.191-1.972-4.191-1.973Zm0 0"/><path fill="none" stroke="#000" stroke-miterlimit="10" stroke-width=".396606" d="m170.695 30.637 12.043 6.625-12.043 6.625Zm0 0"/><path d="M190.082 37.262v1.972l4.191-1.972-4.191-1.973Zm0 0"/><path fill="none" stroke="#000" stroke-miterlimit="10" stroke-width=".7922180000000001" d="M194.273 28.66h17.204v17.203h-17.204Zm0 0"/><path fill="none" stroke="#000" stroke-miterlimit="10" stroke-width=".396606" d="M198.574 32.96c.703-1.1 1.371-2.151 2.153-2.151.777 0 1.449 1.05 2.148 2.152.703 1.102 1.375 2.152 2.152 2.152s1.45-1.05 2.149-2.152m-3.008-1.29-2.582 2.579M198.574 37.262c.703-1.102 1.371-2.149 2.153-2.149.777 0 1.449 1.047 2.148 2.149.703 1.101 1.375 2.152 2.152 2.152s1.45-1.05 2.149-2.152m-3.008-1.29-2.582 2.579M198.574 41.562c.703-1.101 1.371-2.148 2.153-2.148.777 0 1.449 1.047 2.148 2.148.703 1.102 1.375 2.153 2.152 2.153s1.45-1.05 2.149-2.153M211.477 37.262h4.39m0 0h4.39M220.059 37.262V.395"/><g clip-path="url(#d)"><path fill="none" stroke="#000" stroke-miterlimit="10" stroke-width=".7922180000000001" d="M220.059.395h6.144l-6.144 12.289-6.145-12.29h6.145"/></g><path fill="none" stroke="#000" stroke-miterlimit="10" stroke-width=".396606" d="M45.93 45.863v8.778m0 0v8.777"/><path d="M45.93 50.055h1.972l-1.972-4.192-1.973 4.192Zm0 0"/><g clip-path="url(#e)"><path fill="none" stroke="#000" stroke-miterlimit="10" stroke-width=".7922180000000001" d="M37.328 63.418h17.207v17.207H37.328Zm0 0"/></g><path fill="none" stroke="#000" stroke-miterlimit="10" stroke-width=".396606" d="M47.008 68.152c.347-.55.683-1.078 1.074-1.078.39 0 .723.528 1.074 1.078.352.551.688 1.075 1.074 1.075.391 0 .727-.524 1.079-1.075M47.008 70.3c.347-.55.683-1.073 1.074-1.073.39 0 .723.523 1.074 1.074.352.55.688 1.074 1.074 1.074.391 0 .727-.523 1.079-1.074M47.008 72.453c.347-.55.683-1.078 1.074-1.078.39 0 .723.527 1.074 1.078.352.55.688 1.074 1.074 1.074.391 0 .727-.523 1.079-1.074"/><use xlink:href="#f" x="39.003" y="72.946"/><path fill="none" stroke="#000" stroke-miterlimit="10" stroke-width=".396606" d="M39.91 75.031h12.043M39.91 78.043h12.043v-1.719H39.91ZM39.91 79.332h12.043M98.246 45.863v8.778m0 0v8.777"/><path d="M98.246 50.055h1.973l-1.973-4.192-1.973 4.192Zm0 0"/><g clip-path="url(#g)"><path fill="none" stroke="#000" stroke-miterlimit="10" stroke-width=".7922180000000001" d="M89.645 63.418h17.203v17.207H89.645Zm0 0"/></g><path fill="none" stroke="#000" stroke-miterlimit="10" stroke-width=".396606" d="M93.945 67.719c.7-1.098 1.371-2.149 2.149-2.149.781 0 1.453 1.051 2.152 2.149.7 1.101 1.371 2.152 2.152 2.152.778 0 1.45-1.05 2.149-2.152M93.945 72.023c.7-1.101 1.371-2.152 2.149-2.152.781 0 1.453 1.05 2.152 2.152.7 1.098 1.371 2.149 2.152 2.149.778 0 1.45-1.05 2.149-2.149"/><g clip-path="url(#h)"><path fill="none" stroke="#000" stroke-miterlimit="10" stroke-width=".396606" d="M93.945 76.324c.7-1.101 1.371-2.152 2.149-2.152.781 0 1.453 1.05 2.152 2.152.7 1.098 1.371 2.149 2.152 2.149.778 0 1.45-1.051 2.149-2.149"/></g><g clip-path="url(#i)"><path fill="none" stroke="#000" stroke-miterlimit="10" stroke-width=".396606" d="m92.227 76.324 9.511-8.836"/></g><path stroke="#000" stroke-miterlimit="10" stroke-width=".39659004" d="m103.977 65.41-3.36.727 1.195 1.285 1.192 1.285Zm0 0"/><path fill="none" stroke="#000" stroke-miterlimit="10" stroke-width=".396606" d="M176.719 45.863v8.778m0 0v8.777"/><path d="M176.719 59.227h-1.973l1.973 4.191 1.972-4.191Zm0 0"/><g clip-path="url(#j)"><path fill="none" stroke="#000" stroke-miterlimit="10" stroke-width=".7922180000000001" d="M168.117 63.418h17.203v17.207h-17.203Zm0 0"/></g><use xlink:href="#k" x="170.426" y="74.413"/><use xlink:href="#l" x="174.946" y="74.413"/><use xlink:href="#m" x="178.654" y="74.413"/><path fill="none" stroke="#000" stroke-miterlimit="10" stroke-width=".396606" d="M168.117 72.023h-17.554v-26.16"/><path d="M150.563 50.055h1.972l-1.972-4.192-1.973 4.192Zm0 0"/><use xlink:href="#n" x="14.097" y="55.182"/><use xlink:href="#o" x="20.683" y="55.182"/><use xlink:href="#p" x="57.701" y="75.096"/><use xlink:href="#q" x="63.254" y="75.096"/><use xlink:href="#r" x="110.016" y="75.096"/><use xlink:href="#o" x="115.791" y="75.096"/><use xlink:href="#q" x="120.559" y="75.096"/><use xlink:href="#s" x="172.645" y="25.491"/><use xlink:href="#k" x="176.27" y="25.491"/><use xlink:href="#t" x="140.033" y="25.408"/><use xlink:href="#u" x="143.728" y="25.408"/><use xlink:href="#v" x="146.314" y="25.408"/><use xlink:href="#w" x="149.544" y="25.408"/><use xlink:href="#x" x="151.478" y="25.408"/><use xlink:href="#v" x="155.18" y="25.408"/><use xlink:href="#u" x="158.41" y="25.408"/><use xlink:href="#y" x="86.367" y="25.408"/><use xlink:href="#w" x="92.474" y="25.408"/><use xlink:href="#z" x="94.408" y="25.408"/><use xlink:href="#A" x="97.091" y="25.408"/><use xlink:href="#B" x="100.211" y="25.408"/><use xlink:href="#v" x="104.217" y="25.408"/><use xlink:href="#u" x="107.448" y="25.408"/><use xlink:href="#C" x="30.133" y="25.408"/><use xlink:href="#D" x="36.24" y="25.408"/><use xlink:href="#E" x="39.997" y="25.408"/><use xlink:href="#F" x="43.824" y="25.408"/><use xlink:href="#G" x="47.768" y="25.408"/><use xlink:href="#H" x="49.702" y="25.408"/><use xlink:href="#I" x="52.939" y="25.408"/><use xlink:href="#D" x="55.296" y="25.408"/><use xlink:href="#u" x="59.053" y="25.408"/><use xlink:href="#J" x="33.041" y="13.955"/><use xlink:href="#H" x="37.304" y="13.955"/><use xlink:href="#G" x="40.542" y="13.955"/><use xlink:href="#H" x="42.476" y="13.955"/><use xlink:href="#K" x="45.713" y="13.955"/><use xlink:href="#A" x="49.789" y="13.955"/><use xlink:href="#v" x="52.874" y="13.955"/><use xlink:href="#L" x="56.104" y="13.955"/></svg>