<svg xmlns="http://www.w3.org/2000/svg" xmlns:xlink="http://www.w3.org/1999/xlink" width="167.092" height="112.978"><defs><clipPath id="d"><path d="M15 .293h15V14H15Zm0 0"/></clipPath><clipPath id="e"><path d="M45 .293h15V14H45Zm0 0"/></clipPath><clipPath id="f"><path d="M65 .293h34V8H65Zm0 0"/></clipPath><clipPath id="g"><path d="M105 .293h15V14h-15Zm0 0"/></clipPath><clipPath id="h"><path d="M135 .293h15V14h-15Zm0 0"/></clipPath><clipPath id="k"><path d="M76 107h13v5.66H76Zm0 0"/></clipPath><path id="a" d="M4.453-5.687H3.031v5.203l.61.125q.124.017.125.093 0 .048-.094.266h-2.11v-.078q0-.246.297-.328l.391-.078v-5.203H.828L.61-4.75a.4.4 0 0 1-.187.047c-.18 0-.266-.129-.266-.39q0-.234.063-1.063h4.828q.06.83.062 1.062c0 .262-.086.39-.25.39a.44.44 0 0 1-.203-.046Zm0 0"/><path id="b" d="M2.734-2.64a5 5 0 0 1-.375.015h-.484v2.14l.61.126q.123.017.124.093 0 .048-.093.266H.422a.16.16 0 0 1-.016-.078Q.404-.324.72-.406l.375-.078v-5.203l-.547-.125C.46-5.82.422-5.852.422-5.906q0-.075.094-.25h1.797q2.514.001 2.515 1.718c0 .844-.43 1.399-1.281 1.657L5.062-.47l.422.11q.124.034.125.093 0 .048-.093.266H4.328Zm-.437-.454Q3.998-3.092 4-4.39 3.998-5.64 2.297-5.64h-.422v2.547Zm0 0"/><path id="c" d="M2.188-6.156c.007.023.015.047.015.078q-.002.253-.297.312l-.328.079L2.75-3.72h.031l1.25-1.984-.593-.094q-.127-.014-.126-.11 0-.074.094-.25h1.797v.079q-.002.252-.297.328l-.297.063L3.063-3.25 4.75-.469l.422.11q.124.034.125.093c0 .032-.04.121-.11.266h-1.89v-.078q0-.264.297-.328l.281-.047-1.281-2.125h-.016L1.266-.453l.562.094q.124.017.125.093A.6.6 0 0 1 1.86 0H.047v-.078q0-.264.297-.328l.25-.063L2.28-3.062.671-5.687l-.437-.11C.148-5.805.11-5.844.11-5.907q0-.074.11-.25Zm0 0"/><path id="i" d="M4.484-.484 3.906-2.11H1.672L1.094-.484l.672.125q.124.017.125.093 0 .066-.094.266H-.078a.2.2 0 0 1-.016-.078Q-.096-.342.22-.406l.25-.063 2.156-5.687.563-.078L5.328-.47l.406.11q.124.034.125.093-.002.048-.109.266H3.844v-.078q-.002-.246.297-.328Zm-2.64-2.11h1.89l-.921-2.61h-.016Zm0 0"/><path id="j" d="M6.25-6.156c.008.023.016.047.016.078q-.001.236-.313.312l-.406.079V0H5L1.656-5.187h-.031v4.703l.625.125q.124.017.125.093 0 .048-.094.266H.421a.16.16 0 0 1-.015-.078Q.404-.324.72-.406l.375-.078v-5.203l-.547-.125C.46-5.82.422-5.852.422-5.906q0-.075.094-.25h1.422l3.046 4.719H5v-4.25l-.547-.125c-.086-.008-.125-.04-.125-.094q0-.075.094-.25Zm0 0"/></defs><path fill="none" stroke="#000" stroke-miterlimit="10" stroke-width=".3968454" d="M22.328 6.453h15.004m0 0h29.227m31.574 0h29.226m0 0h15.004"/><use xlink:href="#a" x="2.972" y="9.529"/><use xlink:href="#b" x="8.251" y="9.529"/><use xlink:href="#c" x="13.825" y="9.529"/><path fill="#FFF" d="M23.906 6.453c0-.875-.707-1.578-1.578-1.578s-1.578.703-1.578 1.578a1.579 1.579 0 0 0 3.156 0m0 0"/><g clip-path="url(#d)"><path fill="none" stroke="#000" stroke-miterlimit="10" stroke-width=".3968454" d="M23.906 6.453c0-.875-.707-1.578-1.578-1.578s-1.578.703-1.578 1.578a1.579 1.579 0 0 0 3.156 0Zm0 0"/></g><path d="M53.914 6.453c0-.875-.703-1.578-1.578-1.578a1.579 1.579 0 1 0 1.578 1.578m0 0"/><g clip-path="url(#e)"><path fill="none" stroke="#000" stroke-miterlimit="10" stroke-width=".3968454" d="M53.914 6.453c0-.875-.703-1.578-1.578-1.578a1.579 1.579 0 1 0 1.578 1.578Zm0 0"/></g><g clip-path="url(#f)"><path fill="none" stroke="#000" stroke-linejoin="bevel" stroke-miterlimit="10" stroke-width=".7926962000000001" d="M66.16 6.61c0-3.27 1.813-5.919 4.047-5.919s4.047 2.649 4.047 5.918c0-3.27 1.812-5.918 4.047-5.918s4.047 2.649 4.047 5.918c0-3.27 1.808-5.918 4.043-5.918 2.234 0 4.046 2.649 4.046 5.918 0-3.27 1.813-5.918 4.047-5.918s4.047 2.649 4.047 5.918"/></g><path d="M113.934 6.453c0-.875-.707-1.578-1.579-1.578a1.579 1.579 0 1 0 1.578 1.578m0 0"/><g clip-path="url(#g)"><path fill="none" stroke="#000" stroke-miterlimit="10" stroke-width=".3968454" d="M113.934 6.453c0-.875-.707-1.578-1.579-1.578a1.579 1.579 0 1 0 1.578 1.578Zm0 0"/></g><path fill="#FFF" d="M143.941 6.453c0-.875-.707-1.578-1.578-1.578a1.579 1.579 0 1 0 1.578 1.578m0 0"/><g clip-path="url(#h)"><path fill="none" stroke="#000" stroke-miterlimit="10" stroke-width=".3968454" d="M143.941 6.453c0-.875-.707-1.578-1.578-1.578a1.579 1.579 0 1 0 1.578 1.578Zm0 0"/></g><use xlink:href="#i" x="145.532" y="9.565"/><use xlink:href="#j" x="151.347" y="9.565"/><use xlink:href="#a" x="157.937" y="9.565"/><path fill="none" stroke="#000" stroke-miterlimit="10" stroke-width=".3968454" d="M52.336 6.453V47.52m0 7.89v41.067H67.34m0 0h15.008"/><path fill="none" stroke="#000" stroke-miterlimit="10" stroke-width=".7926962000000001" d="M64.18 47.52H40.496m23.684 7.89H40.496M43.996 43.125l20.184 20.18"/><path stroke="#000" stroke-miterlimit="10" stroke-width=".7926722900000001" d="m41.055 40.184 1.12 4.48 3.364-3.363Zm0 0"/><path stroke="#000" stroke-miterlimit="10" stroke-width=".3968454" d="M83.926 96.477a1.58 1.58 0 0 0-3.16 0 1.58 1.58 0 0 0 3.16 0Zm0 0"/><path fill="none" stroke="#000" stroke-miterlimit="10" stroke-width=".3968454" d="M112.355 6.453V47.52m0 7.89v41.067H97.352m0 0H82.348"/><path fill="none" stroke="#000" stroke-miterlimit="10" stroke-width=".7926962000000001" d="M124.195 47.52h-23.683m23.683 7.89h-23.683M104.016 43.125l20.18 20.18"/><path stroke="#000" stroke-miterlimit="10" stroke-width=".7926722900000001" d="m101.074 40.184 1.117 4.48 1.684-1.68 1.68-1.683Zm0 0"/><path fill="none" stroke="#000" stroke-miterlimit="10" stroke-width=".3968454" d="M82.348 96.477v11.843"/><g clip-path="url(#k)"><path fill="none" stroke="#000" stroke-miterlimit="10" stroke-width=".7926962000000001" d="M76.426 108.32h11.84m-9.868 1.973h7.895m-6.414 1.973h4.933"/></g></svg>