<svg xmlns="http://www.w3.org/2000/svg" xmlns:xlink="http://www.w3.org/1999/xlink" width="227.005" height="105.427"><defs><path id="b" d="M2.594-6.156v.078c0 .156-.102.262-.297.312l-.422.079v2.28h2.984v-2.28l-.562-.125c-.086-.008-.125-.04-.125-.094q-.001-.075.11-.25h2.062q.013.033.015.078 0 .236-.312.312l-.422.079v5.203l.625.125q.124.017.125.093c0 .032-.04.121-.11.266H4.173v-.078q0-.246.297-.328l.39-.078v-2.391H1.875v2.39l.61.126q.123.017.124.093 0 .048-.093.266H.422a.16.16 0 0 1-.016-.078Q.404-.324.72-.406l.375-.078v-5.203l-.547-.125C.46-5.82.422-5.852.422-5.906q0-.075.094-.25Zm0 0"/><path id="c" d="M4.5-6.156q.062.752.063 1.047c0 .273-.086.406-.25.406a.5.5 0 0 1-.204-.047l-.203-.937H1.875v2.453h1.984v.5H1.875v2.25l.703.125q.124.017.125.093 0 .048-.094.266H.422a.16.16 0 0 1-.016-.078Q.404-.324.72-.406l.375-.078v-5.203l-.547-.125C.46-5.82.422-5.852.422-5.906q0-.075.094-.25Zm0 0"/><path id="d" d="M2.031-.578V-5l-1.344.266a1 1 0 0 1-.015-.188c0-.133.07-.226.219-.281l1.468-.594h.438v5.219l1.094.172q.14.016.14.11-.002.08-.11.296H.86v-.078q0-.311.282-.36Zm0 0"/><path id="e" d="M.406-.375a.5.5 0 0 1 .125-.36.48.48 0 0 1 .36-.14c.132 0 .25.047.343.14a.47.47 0 0 1 .157.36.47.47 0 0 1-.157.36.5.5 0 0 1-.343.124.52.52 0 0 1-.36-.125.5.5 0 0 1-.125-.359m0 0"/><path id="f" d="M3.64-5.64v-.016H1.204l-.203 1a.6.6 0 0 1-.203.031q-.251 0-.25-.375 0-.388.062-1.156h3.907a.53.53 0 0 1 .093.297.5.5 0 0 1-.093.28L1.344-.561v.015h2.75l.234-1.015a.7.7 0 0 1 .203-.032q.218 0 .219.36c0 .218-.027.632-.078 1.234H.438Q.28-.06.28-.281q0-.123.063-.235Zm0 0"/><path id="g" d="m.422-.453 1.5-1.719q.89-1.015.89-2-.001-1.249-.906-1.25-.363.001-.703.172-.112.364-.125.89-.11.017-.203.016c-.281 0-.422-.117-.422-.36q0-.544.422-.874.42-.328 1.156-.328.715 0 1.172.422.451.409.453 1.14 0 .691-.422 1.36-.268.44-.906 1.125L1.344-.797v.016h2.031l.188-.766q.058-.047.187-.047.218 0 .219.36 0 .344-.094 1.234H.5Zm0 0"/><path id="i" d="M6.25-6.156c.008.023.016.047.016.078q-.001.236-.313.312l-.406.079V0H5L1.656-5.187h-.031v4.703l.625.125q.124.017.125.093 0 .048-.094.266H.421a.16.16 0 0 1-.015-.078Q.404-.324.72-.406l.375-.078v-5.203l-.547-.125C.46-5.82.422-5.852.422-5.906q0-.075.094-.25h1.422l3.046 4.719H5v-4.25l-.547-.125c-.086-.008-.125-.04-.125-.094q0-.075.094-.25Zm0 0"/><path id="o" d="M5.86-2.906v.094c0 .148-.102.246-.298.296l-.203.047v1.89C4.867-.116 4.15.11 3.203.11q-1.22 0-1.937-.765-.797-.845-.797-2.39-.002-1.607 1.015-2.485.873-.734 2.125-.735.576 0 1.063.141.06.018.594.234.046.643.046.922-.001.391-.265.39a.5.5 0 0 1-.188-.03l-.203-.86q-.44-.28-1.11-.281-.936 0-1.546.61-.703.688-.703 2c0 .874.191 1.554.578 2.03.375.462.883.688 1.531.688.438 0 .828-.07 1.172-.219v-1.78l-.547-.126q-.127-.029-.125-.11 0-.074.094-.25Zm0 0"/><path id="q" d="M5.828-6.156v.078q-.002.252-.297.328l-.234.047L3.28 0h-.734L.453-5.687l-.375-.11q-.124-.014-.125-.11c0-.05.035-.132.094-.25H2.03c.008.024.016.048.016.079q-.001.253-.313.312l-.375.079L3-.907h.031L4.72-5.702l-.688-.11q-.127-.011-.125-.093 0-.075.094-.25Zm0 0"/><path id="r" d="M3.266-.39q.903 0 1.437-.72.53-.714.531-1.968 0-1.232-.546-1.953-.552-.734-1.454-.735c-.605 0-1.078.243-1.421.72q-.516.72-.516 1.968 0 1.254.531 1.969.528.719 1.438.718m-.047.5q-1.22 0-1.969-.813Q.467-1.56.469-3.078c0-1 .273-1.79.828-2.375q.78-.812 2.016-.813c.843 0 1.507.274 2 .813q.75.844.75 2.375-.001 1.519-.829 2.375Q4.45.11 3.22.109m0 0"/><path id="s" d="M3.422-.422q.545 0 .984-.187l.282-1.188a.6.6 0 0 1 .203-.031c.156 0 .234.133.234.39l-.047.97Q4.375.11 3.25.108q-1.19 0-1.906-.703C.758-1.133.469-1.954.469-3.047c0-1.05.32-1.867.969-2.453.55-.508 1.218-.766 2-.766q.996.001 1.687.407.047.645.047.937 0 .391-.281.39a.5.5 0 0 1-.188-.03L4.5-5.453a1.9 1.9 0 0 0-1.062-.297q-.939 0-1.5.61c-.43.46-.641 1.124-.641 2q-.001 1.375.625 2.078c.375.43.875.64 1.5.64m0 0"/><path id="t" d="M-3.156-1.39c-.114-1.008-.516-1.516-1.203-1.516q-1.062.001-1.063.906 0 .41.188.703.376.112.828.125.016.096.015.203c0 .282-.117.422-.359.422-.344 0-.617-.144-.828-.437q-.328-.45-.328-1.188c0-.469.125-.836.375-1.11q.376-.42 1.015-.421.628 0 1.016.422.284.298.484.906h.032q.093-.716.468-1.11a1.2 1.2 0 0 1 .922-.39q.738.001 1.219.547.485.549.484 1.437c0 .48-.097.84-.28 1.079q-.202.28-.5.28-.406.002-.548-.39c.23-.101.399-.203.5-.297q.328-.293.328-.828c0-.664-.351-1-1.062-1-.738 0-1.149.555-1.234 1.656Zm0 0"/><path id="u" d="M-2.562-4.031v3.61h-.47v-3.61Zm0 0"/><path id="v" d="M-.39-2.234q.001-1.092-2.516-1.094c-1.664 0-2.5.367-2.5 1.094 0 .73.836 1.093 2.5 1.093 1.68 0 2.515-.363 2.515-1.093m.5.046q0 .862-.75 1.36-.779.532-2.266.531c-.977 0-1.735-.187-2.266-.562q-.733-.53-.734-1.422.001-.873.734-1.36c.531-.343 1.29-.515 2.266-.515q1.487 0 2.265.562.75.516.75 1.406m0 0"/><path id="w" d="m-.484-6-4.22.078v.016l4.626 1.875v.5L-4.75-1.687v.015l4.266.078.125-.625q.017-.124.093-.125c.032 0 .121.04.266.11v1.843h-.078q-.246.001-.328-.296l-.078-.391-5.203-.063-.125.547c-.008.086-.04.125-.094.125q-.075 0-.25-.094v-1.406l4.922-1.937v-.016l-4.922-2v-1.5a.2.2 0 0 1 .078-.016q.236.001.312.313l.079.422 5.203-.078.125-.61q.017-.124.093-.125.048 0 .266.094v2.094a.16.16 0 0 1-.078.016q-.246.002-.328-.313Zm0 0"/><path id="x" d="M-6.156-2.594h.078c.156 0 .262.102.312.297l.079.422h2.28v-2.984h-2.28l-.125.562c-.008.086-.04.125-.094.125q-.075.001-.25-.11v-2.062q.033-.013.078-.015.236 0 .312.312l.079.422h5.203l.125-.625q.017-.124.093-.125c.032 0 .121.04.266.11v2.093h-.078q-.246 0-.328-.297l-.078-.39h-2.391v2.984h2.39l.126-.61q.017-.123.093-.124.048 0 .266.093v2.094a.16.16 0 0 1-.078.016q-.246.002-.328-.313l-.078-.375h-5.203l-.125.547c-.008.086-.04.125-.094.125q-.075 0-.25-.094Zm0 0"/><path id="y" d="M-3.406-.469q-.311 0-.875-.062v-2.89a.34.34 0 0 1 .172-.048c.093 0 .199.04.312.11l3.328 2.218h.016v-1.734l-.89-.328v-.14q.001-.249.265-.25.093 0 1.078.124v3.063a.6.6 0 0 1-.328.094.5.5 0 0 1-.266-.094l-3.234-2.14h-.016v1.452l.735.25a.6.6 0 0 1 .015.125c0 .168-.101.25-.312.25m0 0"/><path id="z" d="M-5.797-1.125v-2.547l.781.047v2.094l1.407.125q.046-1.296.547-1.875.455-.546 1.374-.547a1.7 1.7 0 0 1 1.266.547q.533.532.531 1.375-.001.738-.265 1.078a.61.61 0 0 1-.516.281q-.405 0-.547-.39.376-.171.5-.282.328-.311.328-.828 0-.527-.328-.844-.31-.294-.812-.296-.732 0-1.047.562-.328.563-.328 1.781Zm0 0"/><path id="A" d="M-1.047-2.969c-.344-.187-.883-.289-1.625-.312q.375.468.375 1.172 0 .766-.39 1.234Q-3.14-.359-4-.359q-.89 0-1.422-.61-.482-.515-.484-1.281 0-.873.781-1.375.722-.452 1.953-.453 1.331 0 2.188.516Q.11-2.937.109-1.672q-.002.628-.203.969-.169.313-.437.312-.388 0-.5-.39c.43-.176.64-.52.64-1.031q0-.81-.656-1.157m-1.75.813q0-.715-.328-1.125-1.125 0-1.734.328-.546.3-.547.828 0 .44.328.703.361.282 1.016.281 1.265.002 1.265-1.015m0 0"/><path id="B" d="m-1.984-.125-3.782-2.531-.062-.656h3.64v-.75l.672.03v.72h1.032l.125-.626q.017-.123.093-.124.048 0 .266.093v2.063h-.078q-.246 0-.328-.297l-.078-.39h-1.032v2.437Zm-.203-.734v-1.735h-2.704v.031l2.672 1.704Zm0 0"/><path id="C" d="M-.469-.828h-5.468l-.079.656a.2.2 0 0 1-.078.016q-.246 0-.281-.328l-.11-1.063h4v-.531l-1.374-1.203-.141.625a.2.2 0 0 1-.062.015q-.219.001-.22-.25v-1.437c0-.07.032-.11.095-.11.042 0 .105.024.187.063l.156.516 1.453 1.265 1.938-1.515.11-.453q.015-.125.109-.125.129 0 .234.093v1.157l-2.047 1.484v.406h1.594L-.343-2q.015-.124.109-.125.129 0 .234.094V-.22h-.062c-.133 0-.235-.086-.297-.265Zm0 0"/><clipPath id="a"><path d="M.117 2H26v37H.117Zm0 0"/></clipPath><clipPath id="h"><path d="M185 55h40.898v1H185Zm0 0"/></clipPath><clipPath id="j"><path d="M221 53h4.898v5H221Zm0 0"/></clipPath><clipPath id="k"><path d="M47 84h21v20.855H47Zm0 0"/></clipPath><clipPath id="l"><path d="M46 91h22v13.855H46Zm0 0"/></clipPath><clipPath id="m"><path d="M44 83h24v21.855H44Zm0 0"/></clipPath><clipPath id="n"><path d="M106 84h21v20.855h-21Zm0 0"/></clipPath><clipPath id="p"><path d="M165 84h22v20.855h-22Zm0 0"/></clipPath></defs><path fill="none" stroke="#000" stroke-miterlimit="10" stroke-width=".39684141" d="M7.687 55.238h10.165m19.527 0h10.164M7.488 55.238V13.391"/><g clip-path="url(#a)"><path fill="none" stroke="#000" stroke-miterlimit="10" stroke-width=".79268823" d="M7.488 13.39h6.977L7.488 27.34.516 13.39h6.972"/></g><path fill="none" stroke="#000" stroke-miterlimit="10" stroke-width=".79268823" d="M17.852 45.473h19.527v19.53H17.852Zm0 0"/><path d="M13.656 55.238v1.973l4.196-1.973-4.196-1.972Zm0 0"/><path fill="none" stroke="#000" stroke-miterlimit="10" stroke-width=".39684141" d="M22.734 50.355c.793-1.25 1.555-2.44 2.442-2.44.883 0 1.644 1.19 2.441 2.44.793 1.25 1.555 2.442 2.442 2.442.882 0 1.644-1.192 2.441-2.442m-3.418-1.464-2.93 2.93M22.734 55.238c.793-1.25 1.555-2.441 2.442-2.441.883 0 1.644 1.191 2.441 2.441.793 1.25 1.555 2.442 2.442 2.442.882 0 1.644-1.192 2.441-2.442M22.734 60.121c.793-1.25 1.555-2.441 2.442-2.441.883 0 1.644 1.191 2.441 2.441.793 1.25 1.555 2.441 2.442 2.441.882 0 1.644-1.19 2.441-2.44m-3.418-1.466-2.93 2.93"/><use xlink:href="#b" x="21.86" y="75.18"/><use xlink:href="#c" x="28.602" y="75.18"/><path d="M43.352 55.238v1.973l4.191-1.973-4.191-1.972Zm0 0"/><path fill="none" stroke="#000" stroke-miterlimit="10" stroke-width=".79268823" d="M47.543 45.473h19.531v19.53H47.543Zm0 0"/><path fill="none" stroke="#000" stroke-miterlimit="10" stroke-width=".39684141" d="M64.145 55.238a6.84 6.84 0 0 0-6.836-6.836 6.836 6.836 0 1 0 6.836 6.836ZM52.477 50.406l9.664 9.664m0-9.664-9.664 9.664M67.074 55.238h10.164m19.528 0h10.164"/><path fill="none" stroke="#000" stroke-miterlimit="10" stroke-width=".79268823" d="M77.238 45.473h19.528v19.53H77.238Zm0 0"/><path d="M73.043 55.238v1.973l4.195-1.973-4.195-1.972Zm0 0"/><path fill="none" stroke="#000" stroke-miterlimit="10" stroke-width=".39684141" d="M82.117 50.355c.797-1.25 1.559-2.44 2.442-2.44.886 0 1.648 1.19 2.441 2.44.797 1.25 1.559 2.442 2.441 2.442.887 0 1.649-1.192 2.442-2.442m-3.418-1.464-2.93 2.93M82.117 55.238c.797-1.25 1.559-2.441 2.442-2.441.886 0 1.648 1.191 2.441 2.441.797 1.25 1.559 2.442 2.441 2.442.887 0 1.649-1.192 2.442-2.442M82.117 60.121c.797-1.25 1.559-2.441 2.442-2.441.886 0 1.648 1.191 2.441 2.441.797 1.25 1.559 2.441 2.441 2.441.887 0 1.649-1.19 2.442-2.44m-3.418-1.466-2.93 2.93"/><use xlink:href="#d" x="78.934" y="75.18"/><use xlink:href="#e" x="83.393" y="75.18"/><use xlink:href="#f" x="85.168" y="75.18"/><use xlink:href="#c" x="90.296" y="75.18"/><path d="M102.734 55.238v1.973l4.196-1.973-4.196-1.972Zm0 0"/><path fill="none" stroke="#000" stroke-miterlimit="10" stroke-width=".79268823" d="M106.93 45.473h19.53v19.53h-19.53Zm0 0"/><path fill="none" stroke="#000" stroke-miterlimit="10" stroke-width=".39684141" d="M123.531 55.238a6.836 6.836 0 1 0-13.672 0 6.836 6.836 0 0 0 13.672 0ZM111.86 50.406l9.667 9.664m0-9.664-9.668 9.664M126.46 55.238h10.161m19.531 0h10.164"/><path fill="none" stroke="#000" stroke-miterlimit="10" stroke-width=".79268823" d="M136.621 45.473h19.531v19.53h-19.531Zm0 0"/><path d="M132.43 55.238v1.973l4.191-1.973-4.191-1.972Zm0 0"/><path fill="none" stroke="#000" stroke-miterlimit="10" stroke-width=".39684141" d="M141.504 50.355c.797-1.25 1.558-2.44 2.441-2.44s1.645 1.19 2.442 2.44 1.558 2.442 2.441 2.442 1.645-1.192 2.441-2.442m-3.417-1.464-2.93 2.93M141.504 55.238c.797-1.25 1.558-2.441 2.441-2.441s1.645 1.191 2.442 2.441 1.558 2.442 2.441 2.442 1.645-1.192 2.441-2.442M141.504 60.121c.797-1.25 1.558-2.441 2.441-2.441s1.645 1.191 2.442 2.441 1.558 2.441 2.441 2.441 1.645-1.19 2.441-2.44m-3.417-1.466-2.93 2.93"/><use xlink:href="#g" x="138.32" y="75.18"/><use xlink:href="#e" x="142.779" y="75.18"/><use xlink:href="#f" x="144.553" y="75.18"/><use xlink:href="#c" x="149.681" y="75.18"/><path d="M162.121 55.238v1.973l4.195-1.973-4.195-1.972Zm0 0"/><path fill="none" stroke="#000" stroke-miterlimit="10" stroke-width=".79268823" d="M166.316 45.473h19.528v19.53h-19.528Zm0 0"/><path fill="none" stroke="#000" stroke-miterlimit="10" stroke-width=".39684141" d="M182.914 55.238a6.835 6.835 0 1 0-13.668 0 6.833 6.833 0 0 0 6.832 6.836 6.833 6.833 0 0 0 6.836-6.836ZM171.246 50.406l9.668 9.664m0-9.664-9.668 9.664"/><g clip-path="url(#h)"><path fill="none" stroke="#000" stroke-miterlimit="10" stroke-width=".39684141" d="M185.844 55.238h10.164m19.531 0h10.16"/></g><path fill="none" stroke="#000" stroke-miterlimit="10" stroke-width=".79268823" d="M196.008 45.473h19.531v19.53h-19.531Zm0 0"/><path d="M191.813 55.238v1.973l4.195-1.973-4.196-1.972Zm0 0"/><path fill="none" stroke="#000" stroke-miterlimit="10" stroke-width=".39684141" d="M200.89 50.355c.797-1.25 1.56-2.44 2.442-2.44s1.644 1.19 2.441 2.44 1.559 2.442 2.442 2.442 1.644-1.192 2.441-2.442m-3.418-1.464-2.93 2.93M200.89 55.238c.797-1.25 1.56-2.441 2.442-2.441s1.644 1.191 2.441 2.441 1.559 2.442 2.442 2.442 1.644-1.192 2.441-2.442M200.89 60.121c.797-1.25 1.56-2.441 2.442-2.441s1.644 1.191 2.441 2.441 1.559 2.441 2.442 2.441 1.644-1.19 2.441-2.44m-3.418-1.466-2.93 2.93"/><use xlink:href="#i" x="200.09" y="75.18"/><use xlink:href="#c" x="206.68" y="75.18"/><g clip-path="url(#j)"><path d="M221.508 55.238v1.973l4.191-1.973-4.191-1.972Zm0 0"/></g><path fill="none" stroke="#000" stroke-miterlimit="10" stroke-width=".39684141" d="M57.309 65.004v9.965m0 0v9.96"/><path d="M57.309 69.195h1.972l-1.972-4.191-1.973 4.191Zm0 0"/><g clip-path="url(#k)"><path fill="none" stroke="#000" stroke-miterlimit="10" stroke-width=".79268823" d="M47.543 84.93h19.531v19.53H47.543Zm0 0"/></g><path fill="none" stroke="#000" stroke-miterlimit="10" stroke-width=".39684141" d="M52.426 89.812c.797-1.25 1.558-2.44 2.441-2.44s1.645 1.19 2.442 2.44c.796 1.25 1.558 2.442 2.441 2.442s1.645-1.192 2.441-2.442M52.426 94.695c.797-1.25 1.558-2.441 2.441-2.441s1.645 1.191 2.442 2.441c.796 1.25 1.558 2.442 2.441 2.442s1.645-1.192 2.441-2.442"/><g clip-path="url(#l)"><path fill="none" stroke="#000" stroke-miterlimit="10" stroke-width=".39684141" d="M52.426 99.578c.797-1.25 1.558-2.441 2.441-2.441s1.645 1.191 2.442 2.441c.796 1.25 1.558 2.442 2.441 2.442s1.645-1.192 2.441-2.442"/></g><g clip-path="url(#m)"><path fill="none" stroke="#000" stroke-miterlimit="10" stroke-width=".39684141" d="m50.473 99.578 11.14-10.344"/></g><path stroke="#000" stroke-miterlimit="10" stroke-width=".39682944000000003" d="m63.852 87.152-3.36.73 1.195 1.286 1.192 1.285Zm0 0"/><path fill="none" stroke="#000" stroke-miterlimit="10" stroke-width=".39684141" d="M116.695 65.004v9.965m0 0v9.96"/><path d="M116.695 69.195h1.973l-1.973-4.191-1.972 4.191Zm0 0"/><g clip-path="url(#n)"><path fill="none" stroke="#000" stroke-miterlimit="10" stroke-width=".79268823" d="M106.93 84.93h19.53v19.53h-19.53Zm0 0"/></g><path fill="none" stroke="#000" stroke-miterlimit="10" stroke-width=".39684141" d="M117.914 90.3c.398-.624.781-1.218 1.223-1.218.441 0 .82.594 1.218 1.219.399.625.782 1.222 1.223 1.222s.82-.597 1.219-1.222M117.914 92.742c.398-.625.781-1.219 1.223-1.219.441 0 .82.594 1.218 1.22.399.624.782 1.222 1.223 1.222s.82-.598 1.219-1.223M117.914 95.184c.398-.625.781-1.22 1.223-1.22.441 0 .82.595 1.218 1.22.399.625.782 1.222 1.223 1.222s.82-.597 1.219-1.222"/><use xlink:href="#o" x="109.241" y="95.332"/><path fill="none" stroke="#000" stroke-miterlimit="10" stroke-width=".39684141" d="M109.86 98.113h13.671M109.86 101.531h13.671v-1.953H109.86ZM109.86 102.996h13.671M176.078 65.004v9.965m0 0v9.96"/><path d="M176.078 69.195h1.977l-1.977-4.191-1.973 4.191Zm0 0"/><g clip-path="url(#p)"><path fill="none" stroke="#000" stroke-miterlimit="10" stroke-width=".79268823" d="M166.316 84.93h19.528v19.53h-19.528Zm0 0"/></g><path fill="none" stroke="#000" stroke-miterlimit="10" stroke-width=".39684141" d="M177.3 90.3c.4-.624.778-1.218 1.22-1.218.445 0 .824.594 1.222 1.219.399.625.777 1.222 1.219 1.222.441 0 .824-.597 1.223-1.222M177.3 92.742c.4-.625.778-1.219 1.22-1.219.445 0 .824.594 1.222 1.22.399.624.777 1.222 1.219 1.222.441 0 .824-.598 1.223-1.223M177.3 95.184c.4-.625.778-1.22 1.22-1.22.445 0 .824.595 1.222 1.22.399.625.777 1.222 1.219 1.222.441 0 .824-.597 1.223-1.222"/><use xlink:href="#o" x="168.625" y="95.332"/><path fill="none" stroke="#000" stroke-miterlimit="10" stroke-width=".39684141" d="M169.246 98.113h13.668M169.246 101.531h13.668v-1.953h-13.668ZM169.246 102.996h13.668"/><use xlink:href="#q" x="70.244" y="97.773"/><use xlink:href="#c" x="76.022" y="97.773"/><use xlink:href="#r" x="80.794" y="97.773"/><use xlink:href="#s" x="129.629" y="97.773"/><use xlink:href="#r" x="135.185" y="97.773"/><use xlink:href="#d" x="141.713" y="97.773"/><use xlink:href="#s" x="189.013" y="97.773"/><use xlink:href="#r" x="194.569" y="97.773"/><use xlink:href="#g" x="201.097" y="97.773"/><use xlink:href="#t" x="30.639" y="42.304"/><use xlink:href="#u" x="30.639" y="36.365"/><use xlink:href="#t" x="30.639" y="31.906"/><use xlink:href="#v" x="30.639" y="27.447"/><use xlink:href="#w" x="30.639" y="21.499"/><use xlink:href="#x" x="30.639" y="13.642"/><use xlink:href="#y" x="30.639" y="6.9"/><use xlink:href="#z" x="90.024" y="42.304"/><use xlink:href="#v" x="90.024" y="37.845"/><use xlink:href="#w" x="90.024" y="31.906"/><use xlink:href="#x" x="90.024" y="24.049"/><use xlink:href="#y" x="90.024" y="17.307"/><use xlink:href="#A" x="149.409" y="42.304"/><use xlink:href="#w" x="149.409" y="36.365"/><use xlink:href="#x" x="149.409" y="28.508"/><use xlink:href="#y" x="149.409" y="21.766"/><use xlink:href="#B" x="208.955" y="42.304"/><use xlink:href="#z" x="208.955" y="37.845"/><use xlink:href="#z" x="208.955" y="33.386"/><use xlink:href="#C" x="208.955" y="27.447"/><use xlink:href="#x" x="208.955" y="22.72"/><use xlink:href="#y" x="208.955" y="15.978"/></svg>