<svg xmlns="http://www.w3.org/2000/svg" xmlns:xlink="http://www.w3.org/1999/xlink" width="226.732" height="84.742"><defs><path id="d" d="M4.344-4.797q.013.035.015.063c0 .117-.086.195-.25.234l-.218.078-1.532 1.906L4.031-.375l.407.094q.107.033.109.078 0 .034-.078.203h-.985l-1.64-2.219h-.39v1.844l.484.094q.093.018.093.078 0 .034-.078.203H.328a.1.1 0 0 1-.016-.062q0-.187.25-.25L.86-.375v-4.047l-.437-.11q-.094-.011-.094-.077-.002-.06.078-.188h1.61v.063q0 .188-.235.234l-.328.078v1.813h.5L3.36-4.437l-.437-.094q-.094-.013-.094-.078-.002-.048.078-.188Zm0 0"/><path id="e" d="M2.078-2.156q0-.468-.14-.672-.143-.218-.485-.219c-.148 0-.281.024-.406.063q-.096.188-.156.609a1 1 0 0 1-.141.016q-.344 0-.344-.297c0-.207.117-.383.36-.531q.357-.235.797-.235 1.078 0 1.078 1.172v1.531q0 .392.234.39a.34.34 0 0 0 .25-.093q.062.096.063.203 0 .082-.126.157a.65.65 0 0 1-.406.125Q2.17.064 2.11-.422h-.015c-.219.336-.54.5-.953.5Q.747.078.5-.156.266-.402.266-.812q0-.5.515-.782.435-.234 1.11-.234h.187ZM1.375-.36q.387.001.703-.36v-.797l-.187.016c-.68.055-1.016.262-1.016.625 0 .344.164.516.5.516m0 0"/><path id="f" d="M.703-.36v-2.593l-.5-.078q-.017-.012-.016-.047c0-.133.086-.207.266-.219l.813-.078-.032.469h.016q.233-.235.406-.328.31-.188.75-.188.5 0 .781.328.296.33.297.922v1.813l.407.093q.093.02.093.079A.36.36 0 0 1 3.922 0H2.453a.1.1 0 0 1-.015-.047c0-.101.07-.18.218-.234l.25-.078v-1.782q0-.419-.234-.64a.78.78 0 0 0-.516-.172q-.504.002-.89.344v2.25l.422.093q.093.02.093.079A.36.36 0 0 1 1.72 0H.25a.1.1 0 0 1-.016-.047c0-.101.07-.18.22-.234Zm0 0"/><path id="g" d="M.672-.36v-4.265l-.5-.062a.1.1 0 0 1-.016-.063c0-.125.086-.195.266-.219l.812-.078v4.688l.422.093q.094.02.094.079A.36.36 0 0 1 1.688 0H.202v-.047c0-.101.07-.18.219-.234Zm0 0"/><path id="h" d="M2.656-.39h-.015q-.364.468-1 .468c-.375 0-.684-.117-.922-.36-.274-.28-.406-.71-.406-1.296q-.001-.902.53-1.406.482-.437 1.173-.438.311 0 .593.094v-1.297l-.5-.062a.1.1 0 0 1-.015-.063c0-.125.086-.195.265-.219l.813-.078v4.672l.515.063v.062q-.001.19-.25.203l-.78.094Zm-.844.015q.499 0 .797-.297v-2.11a.9.9 0 0 0-.656-.25.93.93 0 0 0-.75.345Q.89-2.327.891-1.672c0 .438.086.774.265 1q.235.299.657.297m0 0"/><path id="i" d="M.906-1.687q0 .657.282 1.015.281.345.796.344.45 0 .86-.328.06.048.078.203-.001.158-.313.328a1.76 1.76 0 0 1-.859.203C1.32.078.984-.05.734-.312Q.314-.747.313-1.61c0-.57.148-1.024.453-1.36q.403-.451 1-.453.544 0 .859.328.281.316.281.844 0 .234-.078.563Zm.797-1.375Q1-3.06.906-2.016h1.375q.03-.139.031-.296 0-.75-.609-.75m0 0"/><path id="j" d="M2.766-.656a.3.3 0 0 1 .093.203q-.001.158-.265.328-.345.201-.844.203c-.437 0-.79-.14-1.047-.422q-.391-.45-.39-1.281c0-.562.164-1.008.5-1.344Q1.263-3.42 2-3.422c.313 0 .55.07.719.203q.187.143.187.344 0 .3-.281.375-.253-.53-.781-.531a.81.81 0 0 0-.64.281q-.299.346-.298.984Q.904-.326 1.97-.328q.497 0 .797-.328m0 0"/><path id="k" d="M1.828.078c-.43 0-.781-.14-1.062-.422Q.296-.81.296-1.64q0-.824.517-1.328.467-.451 1.14-.453.655.001 1.063.406.451.469.453 1.313 0 .845-.516 1.344a1.59 1.59 0 0 1-1.125.437m.047-.375q.434 0 .703-.328.281-.374.281-1.047 0-.668-.28-1.031a.86.86 0 0 0-.704-.344.84.84 0 0 0-.687.344Q.906-2.34.906-1.672q0 .674.282 1.047a.84.84 0 0 0 .687.328m0 0"/><path id="l" d="M.703-.36v-2.593l-.5-.078q-.017-.012-.016-.047c0-.133.086-.207.266-.219l.813-.078v3.016l.422.093q.093.02.093.079A.36.36 0 0 1 1.72 0H.25a.1.1 0 0 1-.016-.047c0-.101.07-.18.22-.234Zm-.11-4.187a.38.38 0 0 1 .11-.281.42.42 0 0 1 .281-.11c.114 0 .207.04.282.11a.37.37 0 0 1 .125.281.38.38 0 0 1-.125.297.38.38 0 0 1-.282.11.37.37 0 0 1-.28-.11c-.075-.07-.11-.172-.11-.297m0 0"/><path id="m" d="M.703-.36v-2.593l-.5-.078q-.017-.012-.016-.047c0-.133.086-.207.266-.219l.813-.078-.032.578h.016q.405-.623.89-.625.453.002.454.344c0 .094-.04.195-.11.297-.168-.07-.32-.11-.453-.11a.92.92 0 0 0-.765.391v2.14l.5.094q.093.02.093.079A.3.3 0 0 1 1.781 0H.25a.1.1 0 0 1-.016-.047c0-.101.07-.18.22-.234Zm0 0"/><path id="n" d="M1.844-4.797q2.766 0 2.765 2.328-.001 1.237-.734 1.86Q3.17 0 1.844 0H.328a.1.1 0 0 1-.016-.062q0-.187.25-.25L.86-.375v-4.047l-.437-.11q-.094-.011-.094-.077-.002-.06.078-.188ZM1.828-.39q1.015 0 1.578-.515.563-.527.563-1.547 0-.967-.563-1.453-.563-.499-1.578-.5h-.375v4.015Zm0 0"/><path id="o" d="M2.297-1.922H.422v-.406h1.875Zm0 0"/><path id="p" d="m4.672-.375-.063-3.297-1.468 3.61H2.75L1.328-3.703h-.016L1.25-.375l.469.094c.07.011.11.039.11.078Q1.827-.17 1.75 0H.313a.1.1 0 0 1-.016-.062q0-.187.234-.25l.297-.063.063-4.047-.438-.11Q.36-4.542.36-4.608q-.002-.06.079-.188H1.53L3.047-.969h.015L4.61-4.797h1.172c.008.024.016.043.016.063q0 .188-.234.234l-.329.078.047 4.047.485.094q.093.018.093.078 0 .034-.078.203H4.156a.1.1 0 0 1-.015-.062q0-.187.234-.25Zm0 0"/><path id="q" d="M.672 1.031v-3.984l-.516-.078v-.047q-.001-.2.25-.219l.828-.078-.046.453h.015q.422-.499 1.031-.5c.407 0 .723.149.954.438q.358.421.359 1.172-.002.925-.485 1.406-.438.455-1.234.453c-.2 0-.398-.035-.594-.094v1.078l.407.094c.07.008.109.035.109.078a.27.27 0 0 1-.078.188H.203a.1.1 0 0 1-.016-.047c0-.106.07-.184.22-.235Zm1.344-4q-.44 0-.782.328v2.079c.188.148.407.218.657.218q1.061.002 1.062-1.422-.002-.574-.25-.89a.84.84 0 0 0-.687-.313m0 0"/><path id="r" d="M2.828.063c-.105.007-.21.015-.312.015Q1.56.08.969-.547q-.61-.668-.61-1.86 0-1.17.657-1.843c.406-.414.93-.625 1.578-.625q.966.001 1.547.625.592.659.593 1.844 0 1.19-.656 1.86c-.187.198-.398.343-.625.437l.578.593q.201.2.485.282.124.03.265.03v.048q0 .17-.172.265a.66.66 0 0 1-.375.11c-.28 0-.53-.133-.75-.39Zm-.281-.375c.469 0 .836-.18 1.11-.547q.42-.563.421-1.547-.002-.95-.437-1.516a1.34 1.34 0 0 0-1.125-.562q-.705 0-1.11.562-.39.55-.39 1.516c0 .656.132 1.172.406 1.547q.404.549 1.125.547m0 0"/><path id="s" d="m.61-2.953-.5-.078q-.017-.012-.016-.047-.002-.2.265-.219l.813-.078v2.172c0 .555.234.828.703.828q.529.001.86-.344v-2.234l-.516-.078v-.047q-.001-.2.25-.219l.828-.078v3l.5.063q.014.033.015.062-.001.19-.265.203L2.78.047v-.469h-.015a1.3 1.3 0 0 1-1.063.5Q.61.08.61-1.156Zm0 0"/><path id="u" d="M2.203.078c.64 0 1.625-.656 1.625-2.625 0-.828-.203-1.531-.562-2.031a1.28 1.28 0 0 0-1.016-.516c-.828 0-1.625.969-1.625 2.625 0 .89.281 1.735.734 2.188.235.234.532.36.844.36m.047-4.89c.156 0 .313.046.422.14.297.219.5.844.5 1.969 0 .765-.016 1.297-.156 1.734-.22.688-.625.766-.797.766-.906 0-.922-1.453-.922-2.172 0-2.062.516-2.437.953-2.437m0 0"/><path id="v" d="M2.688-1.031v-2.89c0-.517 0-1.017.015-1.126q0-.047-.047-.047c-.406.266-1.11.703-1.734 1.047.015.094.078.234.14.281.329-.156.75-.359.891-.359.11 0 .14.203.14.484v2.61c0 .343-.046.531-.171.625-.11.094-.469.125-.719.14-.047.047-.047.235 0 .282C1.547 0 1.953 0 2.438 0c.359 0 .718 0 1.062.016.047-.047.047-.235 0-.282-.219-.015-.594-.046-.672-.125-.11-.093-.14-.28-.14-.64m0 0"/><path id="w" d="M1.234.047c.344 0 .891-.36.891-1.453 0-.469-.11-.86-.312-1.125a.68.68 0 0 0-.563-.297c-.469 0-.906.531-.906 1.453 0 .5.156.969.406 1.219.14.125.297.203.484.203m.016-2.719c.094 0 .172.031.234.078.172.125.282.469.282 1.094 0 .422-.016.719-.094.953-.11.39-.344.438-.438.438-.5 0-.515-.813-.515-1.203 0-1.157.281-1.36.531-1.36m0 0"/><path id="x" d="M1.484-.578v-1.594c0-.281.016-.562.016-.625 0-.015 0-.031-.016-.031-.234.156-.625.39-.968.578 0 .047.046.14.078.172.172-.094.422-.203.484-.203.063 0 .078.11.078.265v1.438c0 .203-.015.297-.093.36C1-.173.813-.157.672-.157c-.031.031-.031.14 0 .172C.859 0 1.094 0 1.359 0c.188 0 .391 0 .579.016.03-.032.03-.141 0-.172-.11 0-.313-.016-.375-.063-.047-.047-.079-.156-.079-.36m0 0"/><path id="y" d="M1.11-2.031v.828H.327c-.062 0-.14.094-.14.172 0 .047.03.078.078.078h.843v.875c0 .047.047.078.079.078.078 0 .171-.062.171-.125v-.828h.782c.078 0 .14-.11.14-.156 0-.047-.015-.094-.062-.094h-.86v-.89c0-.048-.046-.079-.078-.079-.047 0-.172.078-.172.14m0 0"/><path id="A" d="M4.5-6.172q.062.751.063 1.063c0 .261-.086.39-.25.39a.5.5 0 0 1-.188-.031l-.219-.937H1.875v2.437h1.984v.5H1.875v2.266l.703.125q.124.017.125.093 0 .048-.094.266H.422a.16.16 0 0 1-.016-.078Q.404-.324.72-.406l.375-.078v-5.203l-.547-.125c-.086-.02-.125-.055-.125-.11q0-.075.094-.25Zm0 0"/><path id="B" d="M2.313-6.172q2.514 0 2.515 1.734-.002.893-.594 1.375-.644.502-1.875.5h-.484v2.079l.703.125q.124.017.125.093 0 .066-.094.266H.422a.16.16 0 0 1-.016-.078Q.404-.324.72-.406l.375-.078v-5.203l-.547-.125c-.086-.02-.125-.055-.125-.11q0-.075.094-.25Zm0 3.14q.841.002 1.296-.39.389-.34.391-.969 0-1.265-1.687-1.265h-.438v2.625Zm0 0"/><path id="C" d="M5.86-2.906a.2.2 0 0 1 .015.078q0 .236-.312.312l-.204.047v1.89C4.867-.116 4.15.11 3.203.11q-1.207 0-1.937-.765Q.469-1.5.469-3.062q0-1.606 1.031-2.485.855-.733 2.11-.734.59.002 1.078.156.044.019.593.219.047.657.047.922-.001.408-.266.406a.44.44 0 0 1-.203-.047l-.187-.86q-.44-.264-1.11-.265-.953.002-1.562.594-.703.702-.703 2.015c0 .875.195 1.555.594 2.032.375.46.882.687 1.53.687.438 0 .821-.07 1.157-.219v-1.796l-.547-.126q-.127-.011-.125-.093 0-.076.094-.25Zm0 0"/><path id="D" d="m4.484-.484-.578-1.641H1.688l-.594 1.64.672.126q.124.017.125.093 0 .066-.094.266H-.078a.2.2 0 0 1-.016-.078Q-.096-.342.22-.406l.25-.063L2.64-6.172l.562-.062L5.343-.47l.391.11q.124.034.125.093 0 .048-.093.266H3.859a.16.16 0 0 1-.015-.078q-.002-.246.297-.328Zm-2.64-2.11h1.89l-.921-2.61h-.016Zm0 0"/><path id="E" d="M2.344.11Q1.512.111.984-.438C.586-.832.391-1.383.391-2.094q0-1.061.656-1.719a2.07 2.07 0 0 1 1.469-.578q.843 0 1.359.516.576.596.578 1.688 0 1.078-.656 1.718A2 2 0 0 1 2.344.11m.062-.5q.562 0 .906-.422.36-.468.36-1.329 0-.857-.36-1.343a1.1 1.1 0 0 0-.906-.438c-.367 0-.656.149-.875.438q-.361.469-.36 1.343-.002.861.36 1.329c.219.28.508.421.875.421m0 0"/><path id="F" d="M3.422-.516H3.39Q2.935.11 2.109.11 1.39.11.922-.359.39-.903.39-2.016q0-1.168.703-1.812.609-.563 1.5-.563c.27 0 .523.04.765.11v-1.657l-.656-.093v-.078q0-.247.328-.266l1.047-.11v6l.656.079q.014.047.016.078 0 .252-.328.281l-1 .094Zm-1.094.047q.64 0 1.031-.39v-2.72c-.218-.206-.507-.312-.859-.312-.398 0-.719.149-.969.438q-.39.468-.39 1.312-.001.846.343 1.282.294.39.844.39m0 0"/><path id="G" d="M1.156-2.172q.012.845.375 1.297c.239.305.578.453 1.016.453q.59 0 1.094-.422.106.064.125.25-.001.205-.407.438Q2.89.109 2.25.109 1.434.111.953-.39.391-.965.391-2.062.39-3.17.969-3.812c.351-.383.789-.579 1.312-.579q.684.001 1.094.407.359.409.36 1.093 0 .299-.094.72Zm1.032-1.765q-.91.001-1.016 1.343h1.766q.03-.187.03-.375 0-.968-.78-.969m0 0"/><path id="H" d="M.906-.469v-3.328l-.64-.094a.1.1 0 0 1-.016-.062q0-.246.328-.281l1.063-.11-.063.75h.031c.352-.531.735-.797 1.141-.797.395 0 .594.149.594.438q0 .188-.14.375a1.5 1.5 0 0 0-.595-.14q-.61 0-.968.515V-.47l.625.125q.124.017.125.11A.35.35 0 0 1 2.297 0H.312a.1.1 0 0 1-.015-.062c0-.133.094-.235.281-.297Zm0 0"/><path id="I" d="M3.203-5.547c-.305-.164-.601-.25-.89-.25q-.534.001-.829.266c-.187.18-.28.422-.28.734q0 .393.234.656.14.141.515.329l.828.468c.438.242.742.465.922.672q.359.41.36.985c0 .53-.172.96-.516 1.28Q3.013.11 2.094.11a3.46 3.46 0 0 1-1.5-.359q-.047-.482-.047-1 0-.389.281-.39.075 0 .188.046l.218.938q.403.298.954.297.574 0 .89-.328.281-.295.281-.782-.002-.406-.296-.687c-.137-.125-.438-.32-.907-.594l-.562-.312C1.25-3.25.992-3.445.828-3.656q-.313-.405-.312-.985c0-.5.18-.898.547-1.203q.515-.435 1.359-.437.764.002 1.375.343.03.645.031.844-.001.391-.265.39a.5.5 0 0 1-.188-.03Zm0 0"/><path id="J" d="M.922-4.297v-.031q-.001-.996.484-1.594c.282-.351.625-.531 1.032-.531q.528 0 .53.422a.46.46 0 0 1-.155.328 1.2 1.2 0 0 0-.579-.156q-.328 0-.468.172c-.086.117-.125.308-.125.578v.812h1.203l-.078.469H1.64v3.36l.625.124q.124.017.125.11A.4.4 0 0 1 2.312 0H.329a.1.1 0 0 1-.016-.062c0-.133.094-.235.282-.297l.328-.11v-3.36H.234v-.062q0-.216.282-.296Zm0 0"/><path id="K" d="m.86-4.297.171-1.187h.532v1.187H2.89l-.079.469h-1.25v2.75q0 .674.579.672.435 0 .734-.235.062.095.063.266 0 .112-.235.266-.33.217-.828.218Q.827.11.828-.92v-2.907H.156a.1.1 0 0 1-.015-.063q0-.216.28-.296Zm0 0"/><path id="L" d="M4.016-4.297q.107 0 .109.094A.5.5 0 0 1 4.063-4l-.5.14L4.578-.827h.016l1.125-3.047L5.094-4a.3.3 0 0 1-.016-.078q-.001-.218.25-.219h1.297c.07 0 .11.031.11.094A.5.5 0 0 1 6.671-4l-.422.156L4.766 0h-.547L3.39-2.281h-.016L2.5 0h-.562L.452-3.875.047-4a.3.3 0 0 1-.016-.078q-.001-.218.25-.219h1.39q.108 0 .11.094A.5.5 0 0 1 1.72-4l-.516.14 1.11 3.032h.015l.828-2.078-.344-.969L2.407-4v-.078q-.001-.218.25-.219Zm0 0"/><path id="M" d="M2.656-2.781q0-.591-.172-.86-.175-.28-.609-.28a1.5 1.5 0 0 0-.531.093q-.11.22-.203.781a2 2 0 0 1-.188.016q-.438 0-.437-.39 0-.405.468-.688a1.97 1.97 0 0 1 1.032-.282q1.373 0 1.375 1.5v1.97c0 .335.101.5.312.5q.2 0 .313-.11a.38.38 0 0 1 .093.25c0 .062-.058.133-.171.203a.87.87 0 0 1-.532.156q-.628 0-.687-.61h-.016Q2.28.112 1.47.11.966.11.656-.203.343-.514.344-1.031c0-.438.219-.774.656-1.016.383-.195.86-.297 1.422-.297h.234Zm-.89 2.328q.498 0 .89-.469v-1.031l-.234.016q-1.299.11-1.297.812c0 .45.21.672.64.672m0 0"/><clipPath id="a"><path d="M.21 29H32v17H.21Zm0 0"/></clipPath><clipPath id="b"><path d="M.21 60H32v17H.21Zm0 0"/></clipPath><clipPath id="c"><path d="M31 52h195.254v2H31Zm0 0"/></clipPath><clipPath id="t"><path d="M221 50h5.254v5H221Zm0 0"/></clipPath><clipPath id="z"><path d="M7 13h204v71.484H7Zm0 0"/></clipPath></defs><g clip-path="url(#a)"><path fill="none" stroke="#000" stroke-miterlimit="10" stroke-width=".39778704" d="M.41 29.621h15.563v15.563h7.781m0 0h7.781"/></g><path d="M27.332 45.184v1.976l4.203-1.976-4.203-1.98Zm0 0"/><g clip-path="url(#b)"><path fill="none" stroke="#000" stroke-miterlimit="10" stroke-width=".39778704" d="M.41 76.309h15.563V60.746h7.781m0 0h7.781"/></g><path d="M27.332 60.746v1.977l4.203-1.977-4.203-1.98Zm0 0"/><g clip-path="url(#c)"><path fill="none" stroke="#000" stroke-miterlimit="10" stroke-width=".39778704" d="M31.535 52.965h1.715m27.695 0H95.5m27.695 0h34.551m27.696 0h21.168m0 0h19.453"/></g><path fill="none" stroke="#000" stroke-miterlimit="10" stroke-width=".79457712" d="M33.25 39.117h27.695v27.696H33.25Zm0 0"/><path fill="none" stroke="#000" stroke-miterlimit="10" stroke-width=".39778704" d="m33.25 66.813 27.695-27.696"/><use xlink:href="#d" x="28.107" y="34.513"/><use xlink:href="#e" x="32.626" y="34.513"/><use xlink:href="#f" x="35.873" y="34.513"/><use xlink:href="#e" x="39.961" y="34.513"/><use xlink:href="#g" x="43.208" y="34.513"/><use xlink:href="#h" x="45.148" y="34.513"/><use xlink:href="#i" x="48.985" y="34.513"/><use xlink:href="#j" x="52.225" y="34.513"/><use xlink:href="#k" x="55.319" y="34.513"/><use xlink:href="#h" x="59.088" y="34.513"/><use xlink:href="#l" x="62.926" y="34.513"/><use xlink:href="#i" x="64.845" y="34.513"/><use xlink:href="#m" x="68.078" y="34.513"/><use xlink:href="#i" x="70.671" y="34.513"/><use xlink:href="#m" x="73.911" y="34.513"/><path fill="none" stroke="#000" stroke-miterlimit="10" stroke-width=".79457712" d="M95.5 39.117h27.695v27.696H95.5Zm0 0"/><path d="M91.293 52.965v1.976l4.207-1.976-4.207-1.98Zm0 0"/><path fill="none" stroke="#000" stroke-miterlimit="10" stroke-width=".39778704" d="m95.5 66.813 27.695-27.696"/><use xlink:href="#n" x="92.43" y="77.418"/><use xlink:href="#i" x="97.408" y="77.418"/><use xlink:href="#o" x="100.648" y="77.418"/><use xlink:href="#p" x="103.269" y="77.418"/><use xlink:href="#e" x="109.394" y="77.418"/><use xlink:href="#q" x="112.641" y="77.418"/><use xlink:href="#q" x="116.486" y="77.418"/><use xlink:href="#i" x="120.331" y="77.418"/><use xlink:href="#m" x="123.571" y="77.418"/><path fill="none" stroke="#000" stroke-miterlimit="10" stroke-width=".79457712" d="M157.746 39.117h27.696v27.696h-27.696Zm0 0"/><path d="M153.543 52.965v1.976l4.203-1.976-4.203-1.98Zm0 0"/><path fill="none" stroke="#000" stroke-miterlimit="10" stroke-width=".39778704" d="m157.746 66.813 27.696-27.696"/><use xlink:href="#r" x="144.13" y="34.513"/><use xlink:href="#s" x="149.227" y="34.513"/><use xlink:href="#i" x="153.183" y="34.513"/><use xlink:href="#g" x="156.423" y="34.513"/><use xlink:href="#g" x="158.362" y="34.513"/><use xlink:href="#i" x="160.274" y="34.513"/><use xlink:href="#f" x="163.514" y="34.513"/><use xlink:href="#h" x="167.603" y="34.513"/><use xlink:href="#i" x="171.44" y="34.513"/><use xlink:href="#j" x="174.68" y="34.513"/><use xlink:href="#k" x="177.774" y="34.513"/><use xlink:href="#h" x="181.543" y="34.513"/><use xlink:href="#l" x="185.381" y="34.513"/><use xlink:href="#i" x="187.293" y="34.513"/><use xlink:href="#m" x="190.533" y="34.513"/><use xlink:href="#i" x="193.126" y="34.513"/><use xlink:href="#m" x="196.366" y="34.513"/><g clip-path="url(#t)"><path d="M221.86 52.965v1.976l4.202-1.976-4.203-1.98Zm0 0"/></g><path fill="none" stroke="#000" stroke-miterlimit="10" stroke-width=".79457712" d="M103.121 40.516v12.449M96.899 46.738h12.449"/><path stroke="#000" stroke-miterlimit="10" stroke-width=".39778704" d="M101.004 43.625a.994.994 0 1 0-1.989.004.994.994 0 0 0 1.989-.004ZM107.227 43.625a.991.991 0 1 0-1.984 0 .992.992 0 1 0 1.984 0ZM101.004 49.852a.99.99 0 0 0-.996-.993.991.991 0 1 0 0 1.985c.55 0 .996-.446.996-.992ZM107.227 49.852a.99.99 0 0 0-.993-.993.99.99 0 0 0-.992.993.991.991 0 1 0 1.985 0Zm0 0"/><use xlink:href="#u" x="109.548" y="63.254"/><use xlink:href="#v" x="114.01" y="63.254"/><use xlink:href="#w" x="36.229" y="46.577"/><use xlink:href="#x" x="38.704" y="46.577"/><use xlink:href="#y" x="41.183" y="46.577"/><use xlink:href="#w" x="43.662" y="46.577"/><use xlink:href="#x" x="46.141" y="46.577"/><use xlink:href="#u" x="47.301" y="63.254"/><use xlink:href="#v" x="51.757" y="63.254"/><use xlink:href="#u" x="162.459" y="47.693"/><use xlink:href="#v" x="166.921" y="47.693"/><use xlink:href="#w" x="171.3" y="62.139"/><use xlink:href="#x" x="173.779" y="62.139"/><use xlink:href="#w" x="176.258" y="62.139"/><use xlink:href="#x" x="178.737" y="62.139"/><g clip-path="url(#z)"><path fill="none" stroke="#7F7F7F" stroke-dasharray="2.9797439568 2.9797439568" stroke-miterlimit="10" stroke-width=".79457712" d="M8.191 84.086V14.059h202.31v70.027Zm0 0"/></g><g fill="#7F7F7F"><use xlink:href="#A" x="71.047" y="9.469"/><use xlink:href="#B" x="75.829" y="9.469"/><use xlink:href="#C" x="80.969" y="9.469"/><use xlink:href="#D" x="87.102" y="9.469"/></g><g fill="#7F7F7F"><use xlink:href="#E" x="94.575" y="9.469"/><use xlink:href="#F" x="99.42" y="9.469"/><use xlink:href="#G" x="104.354" y="9.469"/><use xlink:href="#H" x="108.52" y="9.469"/></g><g fill="#7F7F7F"><use xlink:href="#I" x="113.901" y="9.469"/><use xlink:href="#E" x="118.398" y="9.469"/><use xlink:href="#J" x="123.243" y="9.469"/><use xlink:href="#K" x="126.21" y="9.469"/><use xlink:href="#L" x="129.25" y="9.469"/></g><g fill="#7F7F7F"><use xlink:href="#M" x="135.963" y="9.469"/><use xlink:href="#H" x="140.138" y="9.469"/></g><use xlink:href="#G" x="143.472" y="9.469" fill="#7F7F7F"/></svg>