<svg xmlns="http://www.w3.org/2000/svg" xmlns:xlink="http://www.w3.org/1999/xlink" width="220.83" height="133.34"><defs><path id="b" d="M2.031-.578V-5l-1.344.266a1 1 0 0 1-.015-.188c0-.133.07-.226.219-.281l1.468-.594h.438v5.219l1.094.172q.14.016.14.11-.002.08-.11.296H.86v-.078q0-.311.282-.36Zm0 0"/><path id="c" d="M1.39-3.156c1.008-.114 1.516-.516 1.516-1.203Q2.905-5.421 2-5.422q-.41 0-.703.188-.112.376-.125.828a1 1 0 0 1-.203.015c-.281 0-.422-.117-.422-.359 0-.344.144-.617.437-.828q.45-.328 1.188-.328c.469 0 .836.125 1.11.375q.42.376.421 1.015 0 .628-.422 1.016-.298.284-.906.484v.032q.716.093 1.11.468c.257.243.39.547.39.922q-.001.738-.547 1.219Q2.78.11 1.891.109C1.41.11 1.05.012.813-.17Q.53-.374.53-.672q0-.406.39-.548c.102.23.204.399.298.5q.293.328.828.328c.664 0 1-.351 1-1.062 0-.738-.555-1.149-1.656-1.234Zm0 0"/><path id="d" d="M4.344-3.422h-.032L3.141 0h-.72L.454-5.703l-.36-.094q-.126-.014-.124-.11 0-.074.094-.25h2v.079c0 .168-.102.273-.297.312l-.391.079L2.891-.875h.015l1.188-3.36-.469-1.468-.36-.094q-.126-.014-.124-.11 0-.074.093-.25h2v.079q-.002.253-.296.312l-.391.079L5.89-.875h.015l1.625-4.828-.703-.11c-.086-.007-.125-.039-.125-.093q-.001-.075.11-.25h1.78v.078q-.001.252-.296.328l-.219.047L6.141 0h-.72Zm0 0"/><path id="e" d="M1.156-2.172q.012.845.375 1.297c.239.305.578.453 1.016.453q.576 0 1.094-.422.092.064.109.25c0 .137-.133.282-.39.438q-.487.265-1.126.265-.813.002-1.28-.5Q.39-.965.39-2.062.39-3.17.969-3.812c.351-.383.789-.579 1.312-.579q.686 0 1.078.422.375.41.375 1.078c0 .2-.039.438-.109.72Zm1.032-1.75q-.91.002-1.016 1.328h1.75q.047-.187.047-.375-.001-.951-.781-.953m0 0"/><path id="f" d="M.906-.469v-3.328l-.64-.078a.2.2 0 0 1-.016-.078q0-.246.328-.281l1.047-.11v3.875l.547.125q.124.017.125.11A.35.35 0 0 1 2.203 0H.313a.1.1 0 0 1-.016-.062c0-.133.094-.235.281-.297Zm-.14-5.36q0-.233.14-.374a.48.48 0 0 1 .36-.14q.217 0 .359.14a.49.49 0 0 1 .156.375.49.49 0 0 1-.156.375.5.5 0 0 1-.36.14.48.48 0 0 1-.359-.14.5.5 0 0 1-.14-.375m0 0"/><path id="g" d="m.86-4.281.171-1.203h.516v1.203H2.89l-.094.468h-1.25v2.735q-.001.674.578.672.45 0 .75-.235.062.095.063.266-.002.112-.25.266-.332.217-.813.218Q.827.11.828-.92v-2.891H.156a.2.2 0 0 1-.015-.063q0-.233.28-.297Zm0 0"/><path id="h" d="M.906-.469v-3.328l-.64-.078a.2.2 0 0 1-.016-.078q0-.246.328-.281l1.047-.11-.047.75h.031q.517-.797 1.125-.797c.407 0 .61.149.61.438 0 .125-.055.25-.156.375a1.4 1.4 0 0 0-.579-.14q-.609 0-.984.515V-.47l.625.125q.124.017.125.11A.4.4 0 0 1 2.297 0H.312a.1.1 0 0 1-.015-.062c0-.133.094-.235.281-.297Zm0 0"/><path id="i" d="M4.453-5.687H3.031v5.203l.61.125q.124.017.125.093 0 .048-.094.266h-2.11v-.078q0-.246.297-.328l.391-.078v-5.203H.828L.61-4.75a.4.4 0 0 1-.187.047c-.18 0-.266-.129-.266-.39q0-.234.063-1.063h4.828q.06.83.062 1.062c0 .262-.086.39-.25.39a.44.44 0 0 1-.203-.046Zm0 0"/><path id="j" d="M.86-.469v-5.468l-.641-.079a.2.2 0 0 1-.016-.078q0-.246.328-.281l1.063-.11v6.016l.531.125q.124.017.125.11A.35.35 0 0 1 2.156 0H.266v-.062c0-.133.086-.235.265-.297Zm0 0"/><path id="k" d="M3.406-.516h-.031Q2.935.11 2.109.11 1.39.11.922-.359.39-.903.39-2.016q0-1.168.703-1.812.591-.563 1.5-.563c.258 0 .515.04.765.11v-1.657l-.656-.078a.2.2 0 0 1-.015-.078q-.001-.246.343-.281l1.047-.11v6l.656.079v.078q0 .252-.328.281l-1 .094Zm-1.094.047q.656 0 1.047-.39v-2.703c-.218-.22-.507-.329-.859-.329-.398 0-.719.149-.969.438q-.39.468-.39 1.312-.001.846.343 1.282.295.39.829.39m0 0"/><path id="l" d="M1-.578q.264.204.656.203c.508 0 .766-.195.766-.594q-.002-.234-.25-.468a11 11 0 0 0-.578-.407q-.534-.327-.75-.562a1.18 1.18 0 0 1-.36-.844c0-.352.133-.629.407-.828q.406-.312 1.015-.313c.395 0 .711.102.953.297q.047.346.047.547c0 .305-.117.453-.344.453a.16.16 0 0 1-.078-.015l-.109-.641a1.13 1.13 0 0 0-.61-.187c-.437 0-.656.18-.656.53q0 .363.516.688.469.316.938.61c.332.28.5.601.5.953q-.001.55-.407.906-.408.362-1.094.36C1.126.11.767.022.484-.14a3.7 3.7 0 0 1-.078-.735q0-.422.328-.422h.094Zm0 0"/><path id="m" d="M1.094-.484v-5.203l-.547-.125C.46-5.82.422-5.852.422-5.906q0-.075.094-.25H4.53q.062.752.063 1.047c0 .273-.086.406-.25.406a.4.4 0 0 1-.188-.047l-.218-.937H1.874v2.312h1.984v.5H1.875v2.36H4l.234-.954a.7.7 0 0 1 .204-.031q.234 0 .234.36 0 .361-.094 1.14H.422a.16.16 0 0 1-.016-.078Q.404-.324.72-.406Zm0 0"/><path id="n" d="m7.078-.469.531.125q.124.017.125.11A.35.35 0 0 1 7.641 0H5.75v-.062c0-.133.086-.235.266-.297l.343-.11V-2.75c0-.695-.289-1.047-.859-1.047q-.69.002-1.203.485.06.327.062.515v2.328l.532.125q.124.017.125.11A.35.35 0 0 1 4.922 0h-1.89v-.062c0-.133.085-.235.265-.297l.328-.11V-2.75c0-.695-.281-1.047-.844-1.047-.437 0-.824.149-1.156.438v2.89l.547.125q.124.017.125.11A.35.35 0 0 1 2.203 0H.313a.1.1 0 0 1-.016-.062c0-.133.094-.235.281-.297l.328-.11v-3.328l-.64-.078a.2.2 0 0 1-.016-.078q0-.246.328-.281l1.047-.11-.047.61h.031q.61-.657 1.422-.657c.54 0 .922.243 1.14.72.427-.477.938-.72 1.532-.72q.638 0 1 .422.375.41.375 1.172Zm0 0"/><path id="o" d="M.86 1.328v-5.125l-.657-.078v-.078q0-.246.328-.281l1.047-.11-.047.594h.016q.544-.64 1.328-.64.762 0 1.219.546.452.549.453 1.531 0 1.173-.61 1.782-.579.579-1.593.578c-.25 0-.508-.04-.766-.11v1.391l.531.11q.124.027.125.109a.4.4 0 0 1-.078.234H.266A.13.13 0 0 1 .25 1.72q0-.205.281-.297Zm1.734-5.14q-.581 0-1.016.421v2.672q.358.282.844.282 1.373 0 1.375-1.844 0-.715-.328-1.125-.314-.405-.875-.406m0 0"/><path id="p" d="M.922-4.281v-.047q-.001-.996.484-1.594c.282-.344.617-.516 1.016-.516q.546 0 .547.422a.46.46 0 0 1-.156.329 1.1 1.1 0 0 0-.579-.172q-.328 0-.468.187c-.086.117-.125.309-.125.578v.813h1.203l-.094.468H1.64v3.344l.626.125q.124.017.125.11A.35.35 0 0 1 2.297 0H.328a.1.1 0 0 1-.016-.062c0-.133.094-.235.282-.297l.328-.11v-3.343H.234v-.063q0-.233.282-.297Zm0 0"/><path id="q" d="M2.656-2.781q0-.576-.187-.86-.174-.28-.594-.28a1.5 1.5 0 0 0-.531.093q-.11.235-.203.781a2 2 0 0 1-.188.016q-.438 0-.437-.39 0-.39.468-.673A1.9 1.9 0 0 1 2-4.39c.914 0 1.375.508 1.375 1.516v1.953c0 .336.102.5.313.5q.216.001.328-.11.077.112.078.25c0 .063-.055.134-.157.204a.9.9 0 0 1-.53.156q-.63 0-.688-.61h-.031q-.41.643-1.22.641-.502 0-.812-.312-.313-.311-.312-.828c0-.438.219-.774.656-1.016.375-.195.848-.297 1.422-.297h.234Zm-.89 2.328q.498 0 .89-.469v-1.015l-.234.015q-1.299.096-1.297.813c0 .437.21.656.64.656m-.547-4.61a.43.43 0 0 1-.437-.453c0-.132.038-.242.124-.328a.43.43 0 0 1 .313-.125c.125 0 .226.043.312.125a.46.46 0 0 1 .125.328.45.45 0 0 1-.125.329.42.42 0 0 1-.312.125m1.515 0a.43.43 0 0 1-.437-.453q-.002-.199.125-.328a.43.43 0 0 1 .312-.125q.186.001.313.125a.46.46 0 0 1 .125.328.45.45 0 0 1-.125.329.42.42 0 0 1-.313.125m0 0"/><path id="r" d="M.906-.469v-3.328l-.64-.078a.2.2 0 0 1-.016-.078q0-.246.328-.281l1.047-.11-.047.61h.031q.294-.294.516-.422.404-.235.953-.235c.438 0 .774.141 1.016.422q.359.422.36 1.172v2.328L5-.344q.124.017.125.11A.35.35 0 0 1 5.031 0h-1.89a.1.1 0 0 1-.016-.062c0-.133.094-.235.281-.297l.328-.11V-2.75q-.002-.544-.296-.812a.97.97 0 0 0-.657-.235c-.437 0-.824.149-1.156.438v2.89l.547.125q.124.017.125.11A.35.35 0 0 1 2.203 0H.313a.1.1 0 0 1-.016-.062c0-.133.094-.235.281-.297Zm0 0"/><path id="s" d="M.484-2.969c0-.437.164-.789.5-1.062q.452-.36 1.125-.36c.239 0 .47.04.688.11h1.515l-.093.484h-.735q.265.361.266.828-.001.675-.5 1.078-.457.392-1.187.391-.206 0-.422-.047-.282.16-.282.406-.001.33.485.329h1.015q.577.001.907.265a.83.83 0 0 1 .343.703c0 .469-.203.867-.609 1.203-.43.352-.996.532-1.703.532C.742 1.89.219 1.539.219.844c0-.524.27-.875.812-1.063v-.015a.62.62 0 0 1-.36-.594q0-.5.61-.828v-.016Q.484-2.045.484-2.969m1.625 1q.938.001.938-1-.002-.45-.25-.703-.25-.264-.672-.265-.907.001-.906.968 0 1.001.89 1m-.39 1.86q-.19.002-.344-.032C1.07.012.922.266.922.61q-.001.797 1 .797.684-.002 1.094-.297.375-.251.375-.656 0-.562-.735-.562Zm0 0"/><path id="t" d="m.422-.453 1.5-1.719q.89-1.015.89-2-.001-1.249-.906-1.25-.363.001-.703.172-.112.364-.125.89-.11.017-.203.016c-.281 0-.422-.117-.422-.36q0-.544.422-.874.42-.328 1.156-.328.715 0 1.172.422.451.409.453 1.14 0 .691-.422 1.36-.268.44-.906 1.125L1.344-.797v.016h2.031l.188-.766q.058-.047.187-.047.218 0 .219.36 0 .344-.094 1.234H.5Zm0 0"/><path id="u" d="M5.578-6.156v.078q-.002.22-.297.312l-.297.079L3.031-3.22l2.14 2.735.532.125q.124.034.125.093 0 .048-.094.266h-1.28L2.358-2.86h-.484v2.376l.61.125q.123.017.124.093 0 .048-.093.266H.422a.16.16 0 0 1-.016-.078Q.404-.324.72-.406l.375-.078v-5.203l-.547-.125C.46-5.82.422-5.852.422-5.906q0-.075.094-.25h2.078v.078c0 .156-.102.262-.297.312l-.422.079v2.328H2.5l1.813-2.344-.563-.11q-.127-.011-.125-.093-.001-.075.11-.25Zm0 0"/><path id="v" d="M2.344.11Q1.512.111.984-.438C.586-.832.391-1.383.391-2.094q0-1.06.656-1.703a2.03 2.03 0 0 1 1.469-.594q.843.002 1.359.532.576.58.578 1.672 0 1.078-.656 1.718-.609.58-1.453.578m.062-.5q.563 0 .89-.422.376-.468.376-1.329 0-.857-.375-1.328a1.06 1.06 0 0 0-.89-.437c-.368 0-.657.148-.876.437q-.361.471-.36 1.328-.002.861.36 1.329c.219.28.508.421.875.421m0 0"/><path id="w" d="M2.953-2.469H.547v-.515h2.406Zm0 0"/><path id="x" d="M2.656-2.781q0-.576-.187-.86-.174-.28-.594-.28a1.5 1.5 0 0 0-.531.093q-.11.235-.203.781a2 2 0 0 1-.188.016q-.438 0-.437-.39 0-.39.468-.673A1.9 1.9 0 0 1 2-4.39c.914 0 1.375.508 1.375 1.516v1.953c0 .336.102.5.313.5q.216.001.328-.11.077.112.078.25c0 .063-.055.134-.157.204a.9.9 0 0 1-.53.156q-.63 0-.688-.61h-.031q-.41.643-1.22.641-.502 0-.812-.312-.313-.311-.312-.828c0-.438.219-.774.656-1.016.375-.195.848-.297 1.422-.297h.234Zm-.89 2.328q.498 0 .89-.469v-1.015l-.234.015q-1.299.096-1.297.813c0 .437.21.656.64.656m0 0"/><clipPath id="a"><path d="M.46 32H35v45H.46Zm0 0"/></clipPath></defs><path fill="none" stroke="#000" stroke-miterlimit="10" stroke-width=".39703692" d="M12.04 109.309h31.702m30.758 0h31.703M11.84 109.309V43.395"/><g clip-path="url(#a)"><path fill="none" stroke="#000" stroke-miterlimit="10" stroke-width=".79307876" d="M11.84 43.395h10.988L11.84 65.367.855 43.395H11.84"/></g><path fill="none" stroke="#000" stroke-miterlimit="10" stroke-width=".79307876" d="M43.742 93.93H74.5v30.758H43.742Zm0 0"/><path d="M39.547 109.309v1.976l4.195-1.976-4.195-1.973Zm0 0"/><use xlink:href="#b" x="56.89" y="112.209"/><path d="M102.008 109.309v1.976l4.195-1.976-4.195-1.973Zm0 0"/><path fill="none" stroke="#000" stroke-miterlimit="10" stroke-width=".79307876" d="M106.203 93.93h30.758v30.758h-30.758Zm0 0"/><use xlink:href="#c" x="119.35" y="112.209"/><path fill="none" stroke="#000" stroke-miterlimit="10" stroke-width=".39703692" d="M136.961 109.309h15.695m0 0h15.692"/><path d="M164.152 109.309v1.976l4.196-1.976-4.196-1.973Zm0 0"/><use xlink:href="#d" x="171.519" y="95.252"/><use xlink:href="#e" x="179.629" y="95.252"/><use xlink:href="#f" x="183.787" y="95.252"/><use xlink:href="#g" x="186.276" y="95.252"/><use xlink:href="#e" x="189.309" y="95.252"/><use xlink:href="#h" x="193.467" y="95.252"/><use xlink:href="#e" x="196.795" y="95.252"/><use xlink:href="#i" x="171.519" y="106.107"/><use xlink:href="#e" x="176.122" y="106.107"/><use xlink:href="#f" x="180.28" y="106.107"/><use xlink:href="#j" x="182.769" y="106.107"/><use xlink:href="#e" x="185.223" y="106.107"/><use xlink:href="#k" x="171.519" y="116.963"/><use xlink:href="#e" x="176.444" y="116.963"/><use xlink:href="#l" x="180.601" y="116.963"/><use xlink:href="#m" x="171.519" y="127.818"/><use xlink:href="#n" x="176.577" y="127.818"/><use xlink:href="#o" x="184.438" y="127.818"/><use xlink:href="#p" x="189.372" y="127.818"/><use xlink:href="#q" x="192.334" y="127.818"/><use xlink:href="#r" x="196.501" y="127.818"/><use xlink:href="#s" x="201.747" y="127.818"/><use xlink:href="#e" x="206.172" y="127.818"/><use xlink:href="#h" x="210.33" y="127.818"/><use xlink:href="#l" x="213.774" y="127.818"/><path fill="none" stroke="#000" stroke-miterlimit="10" stroke-width=".39703692" d="M121.582 93.93V62.543m0 0v-31.39"/><path d="M121.582 89.734h-1.973l1.973 4.196 1.973-4.196Zm0 0"/><path fill="none" stroke="#000" stroke-miterlimit="10" stroke-width=".79307876" d="M106.203.394h30.758v30.758h-30.758Zm0 0"/><use xlink:href="#t" x="119.35" y="18.729"/><path fill="none" stroke="#000" stroke-miterlimit="10" stroke-width=".39703692" d="M106.203 15.773H90.508m0 0H74.816"/><path d="M102.008 15.773v1.977l4.195-1.977-4.195-1.972Zm0 0"/><use xlink:href="#u" x="36.381" y="13.533"/><use xlink:href="#v" x="41.994" y="13.533"/><use xlink:href="#r" x="46.829" y="13.533"/><use xlink:href="#g" x="52.076" y="13.533"/><use xlink:href="#h" x="55.109" y="13.533"/><use xlink:href="#v" x="58.437" y="13.533"/><use xlink:href="#j" x="63.237" y="13.533"/><use xlink:href="#j" x="65.727" y="13.533"/><use xlink:href="#w" x="68.145" y="13.533"/><use xlink:href="#f" x="25.202" y="24.388"/><use xlink:href="#r" x="27.691" y="24.388"/><use xlink:href="#p" x="32.937" y="24.388"/><use xlink:href="#v" x="35.766" y="24.388"/><use xlink:href="#h" x="40.602" y="24.388"/><use xlink:href="#n" x="44.046" y="24.388"/><use xlink:href="#x" x="51.906" y="24.388"/><use xlink:href="#g" x="56.073" y="24.388"/><use xlink:href="#f" x="59.106" y="24.388"/><use xlink:href="#v" x="61.56" y="24.388"/><use xlink:href="#r" x="66.396" y="24.388"/></svg>