<svg xmlns="http://www.w3.org/2000/svg" xmlns:xlink="http://www.w3.org/1999/xlink" width="222.705" height="86.523"><defs><clipPath id="a"><path d="M.465 17H4v4H.465Zm0 0"/></clipPath><clipPath id="b"><path d="M.465 11H10v16H.465Zm0 0"/></clipPath><clipPath id="f"><path d="M195 32h26.95v28H195Zm0 0"/></clipPath><clipPath id="h"><path d="M.465 82H4v4H.465Zm0 0"/></clipPath><clipPath id="i"><path d="M.465 77H10v9.047H.465Zm0 0"/></clipPath><clipPath id="j"><path d="M93 77h15v9.047H93Zm0 0"/></clipPath><path id="c" d="m.422-.453 1.5-1.719q.89-1.015.89-2-.001-1.249-.906-1.25-.363.001-.703.172-.112.364-.125.89-.11.017-.203.016c-.281 0-.422-.117-.422-.36q0-.544.422-.874.42-.328 1.156-.328.715 0 1.172.422.451.409.453 1.14 0 .691-.422 1.36-.268.44-.906 1.125L1.344-.797v.016h2.031l.188-.766q.058-.047.187-.047.218 0 .219.36 0 .344-.094 1.234H.5Zm0 0"/><path id="d" d="M2.234-.39q1.092.001 1.094-2.516c0-1.664-.367-2.5-1.094-2.5-.73 0-1.093.836-1.093 2.5 0 1.68.363 2.515 1.093 2.515m-.046.5q-.862 0-1.36-.75Q.296-1.42.297-2.907c0-.977.187-1.735.562-2.266.352-.488.829-.734 1.422-.734q.873.001 1.36.734c.343.531.515 1.29.515 2.266q0 1.487-.562 2.265-.516.75-1.406.75m0 0"/><path id="e" d="M6.125-3.469q0 .924-.562 1.719-.488.69-1.157 1.047v.172H5.61l.125-.719a.44.44 0 0 1 .204-.047q.28.001.28.406 0 .365-.046.891H3.844v-.89C4.82-1.38 5.313-2.25 5.313-3.5q-.001-1.03-.547-1.64-.533-.61-1.375-.61-.845 0-1.391.61-.532.626-.531 1.64-.001.877.343 1.531.376.738 1.126 1.078V0H.624a10 10 0 0 1-.047-.89c0-.27.086-.407.266-.407q.107 0 .203.047l.14.719h1.188v-.156c-.43-.188-.809-.524-1.14-1.016Q.654-2.53.655-3.47q-.001-1.216.766-2 .762-.797 1.969-.797c.8 0 1.457.258 1.968.766.508.512.766 1.188.766 2.031m0 0"/><path id="k" d="M2.031-.578V-5l-1.344.266a1 1 0 0 1-.015-.188c0-.133.07-.226.219-.281l1.468-.594h.438v5.219l1.094.172q.14.016.14.11-.002.08-.11.296H.86v-.078q0-.311.282-.36Zm0 0"/><path id="g" d="M3.484-5.828c-.203 0-.75.078-1.078.078-.344 0-.687-.016-1.078-.016l-.031.016-.031.188c-.016.03 0 .046.03.046l.329.016c.125.016.313.078.313.297v.078L1.063-.641c-.047.25-.172.36-.547.375l-.22.032C.25-.234.22-.22.22-.172L.172 0l.031.016C.593.016.953 0 1.281 0c.344 0 .688.016 1.094.016L2.406 0l.016-.172c.015-.047-.016-.062-.047-.062l-.219-.032C1.86-.28 1.75-.344 1.75-.53v-.11l.39-1.953c.72 0 .86.125.954.344l.61 1.547c.171.422.468.797.983.797A1 1 0 0 0 5.063.03l.016-.218c-.375 0-.531-.297-.672-.688L3.688-2.75c.39-.125 1.25-.594 1.437-1.531.016-.11.031-.219.031-.328a1.17 1.17 0 0 0-.281-.782c-.328-.406-.844-.437-1.39-.437m-.046.297c.453 0 .968.156.968.89 0 .094-.015.235-.047.375-.203 1.11-.906 1.36-1.734 1.36h-.437l.437-2.219c.047-.25.203-.406.813-.406m0 0"/></defs><path fill="none" stroke="#000" stroke-miterlimit="10" stroke-width=".39681348" d="M2.238 18.922h33.227m31.574 0h66.453m31.574 0h33.227v16.887m0 31.574v16.89H2.238"/><path fill="none" stroke="#000" stroke-miterlimit="10" stroke-width=".79263244" d="M35.465 13h31.574v11.844H35.465Zm0 0"/><g clip-path="url(#a)"><path fill="#FFF" d="M3.82 18.922a1.58 1.58 0 0 0-3.16 0 1.58 1.58 0 0 0 3.16 0m0 0"/></g><g clip-path="url(#b)"><path fill="none" stroke="#000" stroke-miterlimit="10" stroke-width=".39681348" d="M3.82 18.922a1.58 1.58 0 0 0-3.16 0 1.58 1.58 0 0 0 3.16 0Zm0 0"/></g><use xlink:href="#c" x="40.433" y="9.199"/><use xlink:href="#d" x="44.892" y="9.199"/><use xlink:href="#d" x="49.351" y="9.199"/><use xlink:href="#e" x="55.29" y="9.199"/><path fill="none" stroke="#000" stroke-miterlimit="10" stroke-width=".79263244" d="M133.492 13h31.574v11.844h-31.574Zm0 0"/><use xlink:href="#c" x="138.458" y="9.199"/><use xlink:href="#d" x="142.917" y="9.199"/><use xlink:href="#d" x="147.375" y="9.199"/><use xlink:href="#e" x="153.314" y="9.199"/><path fill="none" stroke="#000" stroke-miterlimit="10" stroke-width=".79263244" d="M192.766 35.809v31.574h11.05V35.809ZM184.48 59.492 207.81 46.16"/><path d="m211.418 44.098-4.617-.102 1.18 2.066 1.18 2.063Zm0 0"/><g clip-path="url(#f)"><path fill="none" stroke="#000" stroke-miterlimit="10" stroke-width=".79259259" d="m211.418 44.098-4.617-.102 1.18 2.067 1.18 2.062Zm0 0"/></g><use xlink:href="#g" x="215.091" y="53.737"/><g clip-path="url(#h)"><path fill="#FFF" d="M3.82 84.273a1.58 1.58 0 0 0-3.16 0 1.58 1.58 0 0 0 3.16 0m0 0"/></g><g clip-path="url(#i)"><path fill="none" stroke="#000" stroke-miterlimit="10" stroke-width=".39681348" d="M3.82 84.273a1.58 1.58 0 0 0-3.16 0 1.58 1.58 0 0 0 3.16 0Zm0 0"/></g><path fill="none" stroke="#000" stroke-miterlimit="10" stroke-width=".39681348" d="M100.266 18.922v16.887m0 31.574v16.89"/><path fill="none" stroke="#000" stroke-miterlimit="10" stroke-width=".79263244" d="M94.348 67.383V35.809h11.84v31.574Zm0 0"/><path stroke="#000" stroke-miterlimit="10" stroke-width=".39681348" d="M101.844 18.922a1.579 1.579 0 1 0-3.158.001 1.579 1.579 0 0 0 3.158-.001Zm0 0"/><path d="M101.844 84.273a1.579 1.579 0 1 0-3.158.002 1.579 1.579 0 0 0 3.158-.002m0 0"/><g clip-path="url(#j)"><path fill="none" stroke="#000" stroke-miterlimit="10" stroke-width=".39681348" d="M101.844 84.273a1.579 1.579 0 1 0-3.158.002 1.579 1.579 0 0 0 3.158-.002Zm0 0"/></g><use xlink:href="#k" x="108.383" y="53.737"/><use xlink:href="#d" x="112.841" y="53.737"/><use xlink:href="#d" x="117.3" y="53.737"/><use xlink:href="#e" x="123.239" y="53.737"/></svg>