<svg xmlns="http://www.w3.org/2000/svg" xmlns:xlink="http://www.w3.org/1999/xlink" width="222.703" height="142.117"><defs><path id="b" d="M2.719-2.64a5 5 0 0 1-.375.015h-.469v2.14l.61.126q.123.017.124.093 0 .048-.093.266H.422a.16.16 0 0 1-.016-.078Q.404-.324.72-.406l.375-.078v-5.188l-.547-.125c-.086-.02-.125-.05-.125-.094q0-.074.094-.25h1.797c1.664 0 2.5.575 2.5 1.72Q4.81-3.169 3.53-2.782L5.047-.47l.437.11q.124.034.125.093Q5.607-.218 5.5 0H4.313Zm-.422-.438q1.687.002 1.687-1.297 0-1.266-1.687-1.266h-.422v2.563Zm0 0"/><path id="c" d="M2.188-6.14c.007.023.015.046.015.077q0 .236-.312.313l-.313.063L2.75-3.703h.016l1.265-2-.61-.094q-.126 0-.124-.094-.001-.074.11-.25h1.78c.008.024.016.047.016.079q-.002.252-.297.312l-.312.063-1.532 2.453L4.735-.47l.422.11q.124.034.125.093 0 .048-.093.266H3.297a.16.16 0 0 1-.016-.078q-.002-.264.313-.328l.265-.047-1.265-2.125h-.016L1.266-.453l.562.094q.124.017.125.093A.6.6 0 0 1 1.86 0H.047v-.078q0-.264.297-.328l.25-.063 1.672-2.593-1.594-2.61-.438-.11C.148-5.8.11-5.835.11-5.89q0-.074.11-.25Zm0 0"/><path id="d" d="M4.469-.484 3.89-2.11H1.67L1.095-.484l.672.125q.124.017.125.093 0 .066-.094.266H-.078a.2.2 0 0 1-.016-.078Q-.096-.342.22-.406l.25-.063L2.625-6.14l.563-.078 2.14 5.75.39.11q.125.034.126.093 0 .048-.094.266H3.844a.16.16 0 0 1-.016-.078q0-.246.297-.328ZM1.844-2.578h1.875l-.906-2.61H2.78Zm0 0"/><path id="e" d="m.781-3.781-.64-.094a.16.16 0 0 1-.016-.078c0-.156.11-.242.328-.266l1.047-.11v2.798q0 1.048.89 1.047.688 0 1.11-.438v-2.86l-.656-.093v-.078c0-.156.11-.242.328-.266l1.047-.11v3.845l.656.078v.078q0 .252-.328.281l-1 .094v-.578H3.53c-.344.43-.793.64-1.344.64Q.782.11.782-1.484Zm0 0"/><path id="f" d="M.922-4.281v-.032q0-.996.469-1.593.433-.53 1.03-.532c.352 0 .532.141.532.422a.45.45 0 0 1-.14.329 1.2 1.2 0 0 0-.579-.157q-.345.001-.468.172c-.086.117-.125.313-.125.594v.797h1.203l-.094.468H1.64v3.344l.626.125q.124.017.125.11A.35.35 0 0 1 2.297 0H.328a.1.1 0 0 1-.016-.062c0-.133.094-.235.282-.297l.328-.11v-3.343H.234v-.063c0-.145.086-.242.266-.297Zm0 0"/><path id="g" d="M3.406-.5h-.031q-.44.61-1.266.61-.737 0-1.187-.47Q.39-.902.39-2.015q0-1.156.703-1.812.592-.546 1.484-.547c.27 0 .524.04.766.11v-1.657l-.64-.094a.1.1 0 0 1-.017-.062q0-.246.329-.281l1.047-.11v5.985l.656.078q.013.047.015.078 0 .252-.328.281l-1 .094Zm-1.094.031q.657 0 1.032-.39v-2.703q-.316-.33-.844-.329c-.406 0-.73.149-.969.438q-.39.486-.39 1.312-.001.846.343 1.282.295.39.829.39m0 0"/><path id="h" d="M2.656-2.766q0-.59-.187-.859-.174-.28-.594-.281-.298 0-.531.078-.11.234-.203.797H.953q-.438 0-.437-.375c0-.27.148-.5.453-.688A1.97 1.97 0 0 1 2-4.375q1.373 0 1.375 1.5v1.953c0 .336.102.5.313.5a.48.48 0 0 0 .328-.11q.077.112.078.25c0 .063-.059.134-.172.204a.87.87 0 0 1-.531.156q-.611 0-.688-.61h-.015q-.423.643-1.22.641-.502 0-.812-.312-.313-.311-.312-.828c0-.438.219-.774.656-1.016.375-.195.844-.297 1.406-.297h.25Zm-.89 2.313q.498 0 .89-.469v-1.015l-.25.015q-1.282.096-1.281.813c0 .437.21.656.64.656m0 0"/><path id="i" d="M1-.562q.264.187.64.187c.508 0 .766-.195.766-.594q0-.234-.234-.468a8 8 0 0 0-.594-.391q-.517-.34-.734-.563a1.23 1.23 0 0 1-.36-.859c0-.344.133-.613.407-.812q.406-.312 1.015-.313c.395 0 .711.102.953.297q.031.346.032.547 0 .438-.328.437h-.094l-.094-.64a1.13 1.13 0 0 0-.61-.188q-.656 0-.656.516 0 .363.516.703.469.3.938.594c.332.28.5.601.5.953q-.001.55-.407.906-.408.362-1.094.36C1.126.11.767.022.484-.14a3.7 3.7 0 0 1-.078-.735q0-.422.328-.422h.079Zm0 0"/><path id="j" d="M3.188-5.516a1.8 1.8 0 0 0-.891-.25q-.518.001-.813.266-.297.25-.296.719-.001.392.25.656.138.14.5.328l.843.469q.64.362.922.672.342.392.344.984 0 .797-.516 1.266-.533.516-1.453.515Q1.357.111.594-.25q-.047-.482-.047-1-.002-.389.265-.39.094 0 .204.046l.218.938q.386.298.938.297.575 0 .89-.328c.188-.196.282-.454.282-.766a.95.95 0 0 0-.281-.703q-.222-.187-.922-.578l-.563-.313q-.516-.279-.75-.594-.313-.404-.312-.984c0-.5.18-.898.547-1.203q.513-.422 1.343-.422.764 0 1.375.328.047.645.047.844 0 .391-.281.39a.5.5 0 0 1-.188-.03Zm0 0"/><path id="k" d="M.86-4.281 1.03-5.47h.516v1.188H2.89l-.094.468h-1.25v2.75q-.001.657.578.657c.3 0 .55-.07.75-.219q.062.082.063.25-.002.112-.25.266-.332.217-.813.218Q.827.11.828-.92v-2.891H.156a.1.1 0 0 1-.015-.063q0-.216.28-.297Zm0 0"/><path id="l" d="M2.344.11Q1.512.111.984-.438C.586-.832.391-1.383.391-2.094q0-1.06.656-1.703.59-.576 1.469-.578.827 0 1.343.516c.383.398.579.953.579 1.672q0 1.078-.657 1.718A1.98 1.98 0 0 1 2.344.11m.062-.5q.545 0 .89-.422.36-.468.36-1.329 0-.857-.36-1.328a1.1 1.1 0 0 0-.89-.437q-.55.002-.89.437-.344.471-.344 1.328-.001.861.344 1.329.34.42.89.421m-.75-4.657A.43.43 0 0 1 1.22-5.5a.427.427 0 0 1 .438-.453.38.38 0 0 1 .296.125.46.46 0 0 1 .125.328.45.45 0 0 1-.125.328.37.37 0 0 1-.297.125m1.5 0a.41.41 0 0 1-.312-.125.47.47 0 0 1-.11-.328q0-.2.11-.328a.43.43 0 0 1 .312-.125q.186.001.313.125a.46.46 0 0 1 .125.328.45.45 0 0 1-.125.328.42.42 0 0 1-.313.125m0 0"/><path id="m" d="M.906-.469V-3.78l-.64-.094a.16.16 0 0 1-.016-.078c0-.156.11-.242.328-.266l1.047-.11-.047.75h.031q.517-.796 1.125-.796.593 0 .594.422 0 .188-.14.375a1.6 1.6 0 0 0-.594-.125c-.399 0-.719.168-.969.5V-.47l.625.125q.124.017.125.11A.35.35 0 0 1 2.281 0H.312a.1.1 0 0 1-.015-.062c0-.133.094-.235.281-.297Zm0 0"/><path id="n" d="M.906-.469V-3.78l-.64-.094a.16.16 0 0 1-.016-.078c0-.156.11-.242.328-.266l1.047-.11v3.86l.547.125c.07.012.11.047.11.11A.4.4 0 0 1 2.202 0H.313a.1.1 0 0 1-.016-.062c0-.133.094-.235.281-.297ZM.75-5.812q0-.236.14-.375a.53.53 0 0 1 .376-.141q.217 0 .359.14a.49.49 0 0 1 .156.375.49.49 0 0 1-.156.375.5.5 0 0 1-.36.125.56.56 0 0 1-.374-.125.5.5 0 0 1-.141-.375m0 0"/><path id="o" d="M.484-2.969c0-.437.164-.789.5-1.062q.452-.342 1.125-.344.357 0 .672.094h1.516l-.078.484h-.75q.28.376.281.828-.001.691-.5 1.078-.47.392-1.187.391-.206 0-.422-.047-.282.159-.282.422 0 .314.47.313h1.015q.576.001.906.265a.83.83 0 0 1 .344.703c0 .469-.2.867-.594 1.203-.437.352-1.008.532-1.703.532C.742 1.89.219 1.539.219.844c0-.524.27-.875.812-1.063v-.015a.62.62 0 0 1-.36-.594q0-.497.61-.813v-.03Q.484-2.045.484-2.97M2.11-1.953q.938.001.938-1c0-.313-.09-.55-.266-.719a.9.9 0 0 0-.656-.25q-.907 0-.906.969 0 1.001.89 1M1.72-.11q-.19.002-.344-.032C1.07.012.922.266.922.61q-.001.781 1 .782.67 0 1.094-.282.375-.251.375-.656 0-.562-.735-.562Zm0 0"/><path id="p" d="M.906-.469V-3.78l-.64-.094a.16.16 0 0 1-.016-.078c0-.156.11-.242.328-.266l1.047-.11-.047.595h.031q.294-.294.516-.422.404-.218.953-.219.638 0 1 .422.375.41.375 1.172V-.47l.531.125q.124.017.125.11A.35.35 0 0 1 5.016 0H3.14a.1.1 0 0 1-.016-.062c0-.133.094-.235.281-.297l.328-.11V-2.75q0-.53-.312-.812-.252-.219-.656-.22c-.43 0-.809.15-1.141.438v2.875l.547.125c.07.012.11.047.11.11A.4.4 0 0 1 2.202 0H.313a.1.1 0 0 1-.016-.062c0-.133.094-.235.281-.297Zm0 0"/><path id="q" d="M.86-.469v-5.453l-.641-.094a.1.1 0 0 1-.016-.062q0-.246.328-.281l1.047-.11v6l.547.125q.124.017.125.11A.35.35 0 0 1 2.156 0H.266v-.062c0-.133.086-.235.265-.297Zm0 0"/><path id="r" d="M.656-5.922 0-6.016a.2.2 0 0 1-.016-.062q0-.246.344-.281l1.047-.11v2.703h.016q.497-.609 1.328-.609.702 0 1.14.469.499.55.5 1.656c0 .781-.234 1.383-.703 1.797q-.628.562-1.578.562-.893 0-1.422-.312Zm1.719 2.14q-.644 0-1 .423v2.703q.374.251.875.25 1.36 0 1.36-1.735c0-.57-.126-1-.376-1.28-.218-.24-.507-.36-.859-.36m0 0"/><path id="s" d="M1.156-2.172q.012.845.375 1.297c.239.305.57.453 1 .453q.593 0 1.11-.422.092.064.109.25-.001.205-.406.438-.47.265-1.11.265Q1.42.111.938-.39C.57-.773.39-1.332.39-2.062Q.39-3.152.969-3.798a1.7 1.7 0 0 1 1.297-.578q.702.001 1.093.406.36.41.36 1.078 0 .299-.094.72Zm1.032-1.75q-.91.002-1.016 1.328h1.75q.047-.17.047-.375-.001-.951-.781-.953m0 0"/><path id="t" d="m7.063-.469.53.125q.125.017.126.11A.35.35 0 0 1 7.625 0H5.75a.1.1 0 0 1-.016-.062c0-.133.094-.235.282-.297l.328-.11V-2.75c0-.687-.29-1.031-.86-1.031-.449 0-.843.164-1.187.484q.047.317.047.516V-.47l.531.125q.124.017.125.11A.4.4 0 0 1 4.922 0h-1.89a.1.1 0 0 1-.016-.062c0-.133.093-.235.28-.297l.329-.11V-2.75c0-.687-.29-1.031-.86-1.031q-.644.002-1.14.437v2.875l.547.125c.07.012.11.047.11.11A.4.4 0 0 1 2.202 0H.313a.1.1 0 0 1-.016-.062c0-.133.094-.235.281-.297l.328-.11V-3.78l-.64-.094a.16.16 0 0 1-.016-.078c0-.156.11-.242.328-.266l1.047-.11-.047.595h.031q.61-.64 1.422-.641.812 0 1.14.703.639-.703 1.516-.703.638 0 1 .422.375.41.375 1.172Zm0 0"/><clipPath id="a"><path d="M172 43h49.867v98.238H172Zm0 0"/></clipPath></defs><path fill="none" stroke="#000" stroke-miterlimit="10" stroke-width=".39653418" d="M91.293 124.742V96.094m0-7.887V59.555h8.668m31.555 0h24.964m0 0h16.297"/><path fill="none" stroke="#000" stroke-miterlimit="10" stroke-width=".7920745400000001" d="M79.46 96.094h23.665m-23.664-7.887h23.664M103.125 103.98 79.879 80.738"/><path fill="none" stroke="#000" stroke-miterlimit="10" stroke-width=".7920586000000001" d="m77.57 82.77 4.34-4.344"/><path fill="none" stroke="#000" stroke-linejoin="bevel" stroke-miterlimit="10" stroke-width=".7920745400000001" d="M99.566 59.715c0-3.27 1.809-5.918 4.043-5.918s4.043 2.648 4.043 5.918c0-3.27 1.809-5.918 4.043-5.918s4.043 2.648 4.043 5.918c0-3.27 1.809-5.918 4.043-5.918s4.043 2.648 4.043 5.918c0-3.27 1.809-5.918 4.043-5.918s4.043 2.648 4.043 5.918"/><path stroke="#000" stroke-miterlimit="10" stroke-width=".39653418" d="M141.762 59.555a1.579 1.579 0 1 0-3.158 0 1.579 1.579 0 0 0 3.158 0Zm0 0"/><path fill="none" stroke="#000" stroke-miterlimit="10" stroke-width=".39653418" d="M91.293 124.742h24.445m0 0h40.742m0 0h16.297"/><path stroke="#000" stroke-miterlimit="10" stroke-width=".39653418" d="M141.762 124.742c0-.87-.707-1.574-1.578-1.574a1.575 1.575 0 1 0 0 3.152c.87 0 1.578-.707 1.578-1.578Zm0 0"/><g clip-path="url(#a)"><path fill="none" stroke="#000" stroke-miterlimit="10" stroke-width=".39653418" d="M172.777 141.043V43.258h48.895v97.785Zm0 0"/></g><use xlink:href="#b" x="191.775" y="95.224"/><use xlink:href="#c" x="197.344" y="95.224"/><path fill="none" stroke="#000" stroke-miterlimit="10" stroke-width=".39653418" d="M139.984 59.555V.395"/><path fill="none" stroke="#000" stroke-miterlimit="10" stroke-width=".7920745400000001" d="M139.984.395h9.864l-9.864 19.718L130.125.395h9.86"/><path fill="none" stroke="#000" stroke-miterlimit="10" stroke-width=".39653418" d="M140.184 124.742v11.832"/><path fill="none" stroke="#000" stroke-miterlimit="10" stroke-width=".7920745400000001" d="M134.27 136.574h11.832m-9.864 1.973h7.89m-6.41 1.973h4.93"/><use xlink:href="#d" x="12.002" y="79.034"/><use xlink:href="#e" x="17.723" y="79.034"/><use xlink:href="#f" x="22.793" y="79.034"/><use xlink:href="#g" x="27.676" y="79.034"/><use xlink:href="#h" x="32.595" y="79.034"/><use xlink:href="#i" x="36.757" y="79.034"/><use xlink:href="#j" x="7.119" y="94.44"/><use xlink:href="#k" x="11.548" y="94.44"/><use xlink:href="#l" x="14.578" y="94.44"/><use xlink:href="#m" x="19.407" y="94.44"/><use xlink:href="#i" x="22.847" y="94.44"/><use xlink:href="#n" x="26.296" y="94.44"/><use xlink:href="#o" x="28.782" y="94.44"/><use xlink:href="#p" x="33.202" y="94.44"/><use xlink:href="#h" x="38.441" y="94.44"/><use xlink:href="#q" x="42.603" y="94.44"/><use xlink:href="#h" x="3.51" y="110.737"/><use xlink:href="#r" x="7.671" y="110.737"/><use xlink:href="#o" x="12.429" y="110.737"/><use xlink:href="#s" x="16.849" y="110.737"/><use xlink:href="#i" x="21.002" y="110.737"/><use xlink:href="#k" x="24.45" y="110.737"/><use xlink:href="#n" x="27.48" y="110.737"/><use xlink:href="#t" x="29.966" y="110.737"/><use xlink:href="#t" x="37.817" y="110.737"/><use xlink:href="#k" x="45.668" y="110.737"/><path fill="none" stroke="#000" stroke-miterlimit="10" stroke-width=".39653418" d="M55.438 92.148h16.105"/><path stroke="#000" stroke-miterlimit="10" stroke-width=".39653418" d="m74.598 92.148-2.953-1.75v3.504Zm0 0"/></svg>