<svg xmlns="http://www.w3.org/2000/svg" xmlns:xlink="http://www.w3.org/1999/xlink" width="230.234" height="93.702"><defs><path id="b" d="M3.64-5.656v-.016H1.204l-.203 1a.46.46 0 0 1-.203.047q-.251 0-.25-.39 0-.373.062-1.157h3.907a.53.53 0 0 1 .093.297.5.5 0 0 1-.093.281L1.344-.562v.015h2.765l.22-1.015a.7.7 0 0 1 .218-.032q.217 0 .219.36c0 .218-.028.632-.079 1.234H.438Q.28-.06.282-.281q0-.123.063-.235Zm0 0"/><path id="c" d="M4.5-6.172q.062.751.063 1.063c0 .261-.086.39-.25.39a.5.5 0 0 1-.188-.031l-.219-.937H1.875v2.437h1.984v.5H1.875v2.266l.703.125q.124.017.125.093 0 .048-.094.266H.422a.16.16 0 0 1-.016-.078Q.404-.324.72-.406l.375-.078v-5.203l-.547-.125c-.086-.02-.125-.055-.125-.11q0-.075.094-.25Zm0 0"/><path id="d" d="M4.047-1.906H.422v-.469h3.625Zm0-1.297H.422v-.469h3.625Zm0 0"/><path id="e" d="M2.031-.578V-5l-1.344.25a1 1 0 0 1-.015-.187c0-.133.07-.227.219-.282l1.468-.593h.454v5.234l1.078.172q.14.016.14.11-.002.08-.11.296H.86v-.078q0-.311.282-.36Zm0 0"/><path id="f" d="M2.234-.39q1.092.001 1.094-2.516-.002-2.515-1.094-2.516-1.094.001-1.093 2.516c0 1.68.363 2.515 1.093 2.515m-.03.5q-.88 0-1.376-.75Q.296-1.42.297-2.907c0-.977.187-1.735.562-2.266.352-.5.829-.75 1.422-.75q.873 0 1.36.75.528.784.53 2.266 0 1.47-.562 2.265-.533.75-1.406.75m0 0"/><path id="g" d="M.89-.922q.248.002.407.203.17.204.172.578 0 .592-.375.985c-.211.226-.414.344-.61.344-.093 0-.164-.086-.203-.25q.574-.3.61-.891a.5.5 0 0 1-.344-.125.47.47 0 0 1-.14-.344c0-.156.038-.273.124-.36a.48.48 0 0 1 .36-.14m0 0"/><path id="h" d="M.484-4.656q0-.56.063-1.157h3.578a.3.3 0 0 1 .047.188c0 .125-.04.262-.11.406L1.704 0h-.656l2.406-5.062H1.078l-.14.75a.46.46 0 0 1-.204.046q-.251 0-.25-.39m0 0"/><path id="i" d="M6.016-.484 5.937-4.72h-.015l-1.89 4.64h-.485L1.703-4.75h-.016L1.595-.484l.625.125q.124.017.125.093 0 .048-.094.266H.39v-.078Q.39-.324.689-.406l.39-.078.063-5.203-.547-.125c-.086-.02-.125-.055-.125-.11q0-.075.094-.25h1.406L3.922-1.25h.015l1.985-4.922h1.516v.078c0 .157-.102.262-.297.313l-.422.093.078 5.204.61.125q.123.017.124.093 0 .048-.093.266h-2.11v-.078q0-.246.297-.328Zm0 0"/><path id="j" d="M2.594-6.172v.078c0 .157-.102.262-.297.313l-.422.093v2.266h2.984v-2.265l-.546-.125c-.086-.02-.125-.055-.125-.11q0-.075.093-.25H6.36v.078q-.002.236-.296.313l-.422.093v5.204l.609.125q.124.017.125.093 0 .048-.094.266H4.188a.16.16 0 0 1-.016-.078c0-.164.101-.274.312-.328l.375-.078v-2.407H1.875v2.407L2.5-.36q.124.017.125.093c0 .032-.04.121-.11.266H.423a.16.16 0 0 1-.016-.078Q.404-.324.72-.406l.375-.078v-5.203l-.547-.125c-.086-.02-.125-.055-.125-.11q0-.075.094-.25Zm0 0"/><path id="k" d="M.469-3.406q0-.329.062-.89h2.907q.03.093.03.187a.57.57 0 0 1-.093.297L1.141-.47v.016h1.75l.312-.89h.14q.249.001.25.265 0 .093-.124 1.078H.406a.6.6 0 0 1-.094-.328q0-.124.094-.266l2.157-3.234v-.031h-1.47l-.25.75a.6.6 0 0 1-.124.015c-.168 0-.25-.101-.25-.312m0 0"/><path id="l" d="M6.266-6.172c.007.031.015.059.015.078q0 .236-.312.313l-.422.093V0h-.531l-3.36-5.187h-.015v4.703l.609.125q.124.017.125.093 0 .048-.094.266H.421a.16.16 0 0 1-.015-.078Q.404-.324.72-.406l.375-.078v-5.203l-.547-.125c-.086-.02-.125-.055-.125-.11q0-.075.094-.25h1.422L5-1.437h.016v-4.25l-.563-.125c-.086-.02-.125-.055-.125-.11q-.001-.075.11-.25Zm0 0"/><path id="m" d="M1.578 1.563c-.094.156-.266.265-.406.265-.125 0-.156-.062-.219-.14-.078-.125-.25-.297-.437-.297-.25 0-.344.172-.344.328 0 .187.219.406.828.406.375 0 .766-.172 1.031-.562.25-.344.453-1.032.797-2.72.14-.702.297-1.421.422-2.171l.031-.156h.828c.079 0 .22-.032.235-.11 0 0 .047-.187.047-.203 0-.015-.016-.031-.063-.031h-.984l.094-.516c.14-.672.265-1.078.39-1.312.125-.25.25-.328.36-.328.125 0 .14.078.187.25.031.187.11.422.39.422.25 0 .313-.204.313-.282 0-.343-.281-.64-.828-.64-.187 0-.422.093-.61.234-.28.234-.656.578-1 2.172l-.578.015c-.171.016-.234.079-.25.157a1 1 0 0 0-.046.156c0 .016.015.016.046.016h.75c-.218 1.015-.25 1.547-.359 2.218-.14.86-.297 2.313-.625 2.829m0 0"/><path id="r" d="M4.922.016c.047-.5.14-1.032.25-1.485a.7.7 0 0 0-.281-.047C4.609-.89 4.39-.39 3.42-.375l-1.733.031c-.157 0-.22-.047-.22-.125 0-.047.032-.094.063-.172.657-.953 2.297-3.28 3.36-4.64.187-.235.218-.313.218-.407 0-.062-.046-.093-.125-.093-.109 0-.375.015-.656.015H2.36c-.421 0-1.28-.046-1.625-.078-.03.485-.125 1-.187 1.36a.8.8 0 0 0 .265.046c.188-.609.532-.937 1.204-.937l1.875-.047q.093 0 .093.094c0 .031-.03.094-.062.156C3.047-4.078 1.344-1.703.438-.344.39-.266.359-.204.359-.14.36-.047.406 0 .531 0h3.266c.234 0 1.125.016 1.125.016m0 0"/><path id="s" d="M2.531-2.89c.75 0 .781.203.813.609.047.062.234.062.297 0-.016-.219-.016-.485-.016-.781 0-.313 0-.547.016-.766-.063-.063-.25-.063-.297 0-.031.484-.063.61-.813.61h-.828v-1.61c0-.484.11-.578.5-.578h.39c.954 0 1.173.36 1.376.968q.165 0 .281-.046a44 44 0 0 0-.203-1.297c0-.016 0-.016-.031-.016-.157.016-.203.031-.422.031H1.313c-.282 0-.797-.015-1.157-.015-.047.047-.047.234 0 .297.625.03.782.062.782.812v3.578c0 .75-.157.797-.782.813-.047.062-.047.25 0 .297C.47.016.922 0 1.328 0c.39 0 .828.016 1.14.016.063-.047.063-.235 0-.297-.624-.016-.765-.063-.765-.813V-2.89Zm0 0"/><path id="n" d="M1.266-2.562c-.016-.282-.032-.47-.063-.547-.016-.032-.031-.047-.094-.047-.187.078-.375.14-.875.203a.45.45 0 0 0 .016.203c.39.031.469.063.469.484v1.391c0 .594-.094.625-.531.656C.14-.172.14-.03.188.016.438 0 .718 0 1 0c.281 0 .625 0 .875.016.031-.047.031-.188 0-.235-.516-.031-.594-.062-.594-.656v-1c0-.172.078-.344.172-.469.078-.125.25-.36.328-.36a.22.22 0 0 1 .188.095c.047.078.14.172.25.172.172 0 .344-.188.344-.36 0-.14-.126-.344-.438-.344-.328 0-.625.313-.781.594-.047.078-.078.016-.078-.015m0 0"/><path id="o" d="M2.766-.672c-.266.281-.47.39-.891.39-.25 0-.562-.14-.781-.515-.14-.234-.235-.562-.235-.984l1.907.015c.093 0 .14-.03.14-.109 0-.61-.219-1.25-1.203-1.25-.625 0-1.437.594-1.437 1.672 0 .406.093.797.328 1.062.25.297.594.47 1.11.47.53 0 .921-.25 1.202-.626-.015-.078-.062-.11-.14-.125M.89-2.016c.125-.812.64-.875.812-.875.266 0 .594.157.594.75 0 .063-.031.094-.11.094Zm0 0"/><path id="p" d="M.344-.984C.375-.641.39-.297.39 0c.078-.016.14-.016.187-.016s.094 0 .14.016c.188.047.391.078.641.078.407 0 1.141-.203 1.141-.906 0-.485-.344-.781-.828-.953-.438-.172-.719-.266-.719-.672 0-.281.25-.453.5-.453.156 0 .578.062.672.672.031.03.172.03.219-.016.031-.25.047-.516.047-.75-.22-.047-.563-.14-.938-.14-.531 0-1.016.343-1.016.796 0 .531.25.75.797.985.594.234.72.39.72.687 0 .36-.329.5-.595.5-.28 0-.437-.078-.515-.172C.688-.5.609-.812.563-1c-.047-.031-.172-.031-.22.016m0 0"/><path id="q" d="m2 .156.375-1.422h1.922c.11 0 .203-.093.203-.203a.207.207 0 0 0-.203-.203H2.5l.313-1.172h1.484c.11 0 .203-.094.203-.219 0-.093-.094-.203-.203-.203h-1.39l.359-1.343c.03-.079-.016-.157-.125-.157-.063 0-.125.032-.141.094l-.375 1.406H.719c-.11 0-.203.11-.203.204 0 .124.093.218.203.218h1.797l-.313 1.172H.72a.207.207 0 0 0-.203.203c0 .11.093.203.203.203h1.375L1.734.078c-.015.078.032.172.141.172.063 0 .11-.031.125-.094m0 0"/><clipPath id="a"><path d="M112 .008h37V39h-37Zm0 0"/></clipPath></defs><path fill="none" stroke="#000" stroke-miterlimit="10" stroke-width=".39767532" d="M3.703 18.574h10.613m27.016 0h16.645m0 0h12.062m0 0h18.09m0 0h18.094m0 0h17.367m13.508 0h23.398m0 0h32.805m6.754 0H220.8"/><path fill="none" stroke="#000" stroke-miterlimit="10" stroke-width=".79435396" d="M14.316 13.508h27.016V23.64H14.316Zm0 0"/><path fill="#FFF" stroke="#000" stroke-miterlimit="10" stroke-width=".39767532" d="M5.285 18.574a1.58 1.58 0 0 0-1.582-1.582 1.583 1.583 0 1 0 1.582 1.582Zm0 0"/><path stroke="#000" stroke-miterlimit="10" stroke-width=".39767532" d="M53.531 18.574a1.583 1.583 0 1 0-3.166.002 1.583 1.583 0 0 0 3.166-.002ZM77.652 18.574a1.583 1.583 0 1 0-3.165.002 1.583 1.583 0 0 0 3.165-.002ZM101.773 18.574a1.58 1.58 0 0 0-1.582-1.582 1.583 1.583 0 1 0 1.582 1.582Zm0 0"/><g clip-path="url(#a)"><path fill="none" stroke="#000" stroke-miterlimit="10" stroke-width=".79435396" d="M137.098 18.574 123.59 10.13v16.887Zm0 0"/></g><path fill="none" stroke="#000" stroke-miterlimit="10" stroke-width=".39767532" d="M137.098 18.574H123.59"/><path fill="none" stroke="#000" stroke-miterlimit="10" stroke-width=".79435396" d="M137.098 27.016V10.129"/><path stroke="#000" stroke-miterlimit="10" stroke-width=".39767532" d="M150.016 18.574a1.58 1.58 0 1 0-3.16 0c0 .871.707 1.582 1.578 1.582.875 0 1.582-.71 1.582-1.582ZM174.14 18.574a1.583 1.583 0 1 0-3.165.002 1.583 1.583 0 0 0 3.166-.002Zm0 0"/><path fill="none" stroke="#000" stroke-miterlimit="10" stroke-width=".79435396" d="M193.3 8.441v20.262m6.755-20.262v20.262"/><path fill="#FFF" stroke="#000" stroke-miterlimit="10" stroke-width=".39767532" d="M222.383 18.574a1.583 1.583 0 1 0-3.162.002 1.583 1.583 0 0 0 3.162-.002Zm0 0"/><path fill="none" stroke="#000" stroke-miterlimit="10" stroke-width=".39767532" d="M51.95 18.574v10.614m0 27.015v10.613h6.027m0 0h12.062m0 0h18.09m0 0h18.094m0 0h24.12m0 0h30.153m0 0h12.063V56.203m0-27.015V18.574"/><path fill="none" stroke="#000" stroke-miterlimit="10" stroke-width=".79435396" d="M46.883 56.203V29.188h10.129v27.015Zm0 0"/><path stroke="#000" stroke-miterlimit="10" stroke-width=".39767532" d="M53.531 66.816a1.583 1.583 0 1 0-3.162.002 1.583 1.583 0 0 0 3.162-.002Zm0 0"/><path fill="none" stroke="#000" stroke-miterlimit="10" stroke-width=".39767532" d="M51.95 66.816v9.891"/><path fill="none" stroke="#000" stroke-linecap="round" stroke-miterlimit="10" stroke-width=".79435396" d="M46.016 76.707h11.863"/><path stroke="#000" stroke-miterlimit="10" stroke-width=".39767532" d="M77.652 66.816a1.583 1.583 0 1 0-3.162.002 1.583 1.583 0 0 0 3.162-.002ZM101.773 66.816a1.583 1.583 0 1 0-3.165.002 1.583 1.583 0 0 0 3.165-.002ZM150.016 66.816c0-.87-.707-1.582-1.582-1.582a1.582 1.582 0 0 0 0 3.164 1.58 1.58 0 0 0 1.582-1.582Zm0 0"/><path fill="none" stroke="#000" stroke-miterlimit="10" stroke-width=".79435396" d="M177.625 29.188v27.015h-10.133V29.188Zm0 0"/><use xlink:href="#b" x="2.978" y="9.151"/><use xlink:href="#c" x="8.117" y="9.151"/><use xlink:href="#d" x="12.898" y="9.151"/><use xlink:href="#e" x="17.366" y="9.151"/><use xlink:href="#f" x="21.834" y="9.151"/><use xlink:href="#g" x="26.303" y="9.151"/><use xlink:href="#h" x="28.153" y="9.151"/><use xlink:href="#i" x="34.104" y="9.151"/><use xlink:href="#j" x="41.978" y="9.151"/><use xlink:href="#k" x="48.734" y="9.151"/><use xlink:href="#l" x="215.106" y="15.397"/><use xlink:href="#c" x="221.711" y="15.397"/><path fill="none" stroke="#000" stroke-miterlimit="10" stroke-width=".39767532" d="M76.07 18.574v10.614m0 27.015v10.613"/><path fill="none" stroke="#000" stroke-linejoin="bevel" stroke-miterlimit="10" stroke-width=".79435396" d="M75.91 56.602c2.797 0 5.067-1.559 5.067-3.477 0-1.922-2.27-3.477-5.067-3.477 2.797 0 5.067-1.558 5.067-3.476 0-1.922-2.27-3.477-5.067-3.477 2.797 0 5.067-1.554 5.067-3.476s-2.27-3.477-5.067-3.477c2.797 0 5.067-1.554 5.067-3.476 0-1.918-2.27-3.477-5.067-3.477M72.691 48.098l13.043-10.434"/><path fill="none" stroke="#000" stroke-miterlimit="10" stroke-width=".79430614" d="m83.969 35.137 3.844 4.808"/><path fill="none" stroke="#000" stroke-miterlimit="10" stroke-width=".39767532" d="M100.191 18.574v20.742m0 6.754v20.746"/><path fill="none" stroke="#000" stroke-miterlimit="10" stroke-width=".79435396" d="M110.324 39.316H90.06m20.265 6.754H90.06"/><path fill="none" stroke="#000" stroke-miterlimit="10" stroke-width=".39767532" d="M148.434 18.574v20.742m0 6.754v20.746"/><path fill="none" stroke="#000" stroke-miterlimit="10" stroke-width=".79435396" d="M158.566 39.316h-20.261m20.261 6.754h-20.261"/><path fill="none" stroke="#000" stroke-dasharray="2.9789070844000003 2.9789070844000003" stroke-miterlimit="10" stroke-width=".39767532" d="M83.121 56.203V29.188"/><path fill="none" stroke="#7F7F7F" stroke-dasharray="2.9789070844000003 2.9789070844000003" stroke-miterlimit="10" stroke-width=".39767532" d="M64.008 18.574V6.512h24.12m0 0h24.126v72.367H88.129m0 0H64.008V18.574"/><use xlink:href="#m" x="71.882" y="88.293" fill="#7F7F7F"/><g fill="#7F7F7F"><use xlink:href="#n" x="75.644" y="90.169"/><use xlink:href="#o" x="78.304" y="90.169"/><use xlink:href="#p" x="81.5" y="90.169"/></g><use xlink:href="#q" x="87.155" y="88.293" fill="#7F7F7F"/><g fill="#7F7F7F"><use xlink:href="#r" x="94.645" y="88.293"/><use xlink:href="#s" x="100.043" y="88.293"/></g></svg>