<svg xmlns="http://www.w3.org/2000/svg" xmlns:xlink="http://www.w3.org/1999/xlink" width="226.772" height="125.1"><defs><path id="a" d="M2.234-.39q1.092 0 1.094-2.5-.002-2.499-1.094-2.5c-.742 0-1.109.835-1.109 2.5 0 1.667.367 2.5 1.11 2.5m-.046.5q-.88.002-1.36-.735-.532-.796-.531-2.266c0-.976.187-1.734.562-2.265q.527-.734 1.407-.735.872 0 1.375.735.515.784.515 2.265 0 1.47-.562 2.266c-.344.492-.813.734-1.406.734m0 0"/><path id="b" d="M5.813-6.14c.007.023.015.046.015.077q0 .253-.312.313l-.22.063L3.267 0H2.53L.453-5.687l-.375-.094q-.124-.029-.125-.11c0-.05.035-.132.094-.25H2.03c.008.024.016.047.016.079q-.001.235-.313.312l-.375.078L3-.906h.016l1.703-4.781-.688-.11q-.127-.029-.125-.094 0-.074.094-.25Zm0 0"/><path id="d" d="M2.469-3.016H4.03v.454H2.47v1.671h-.485v-1.671H.422v-.454h1.562v-1.656h.485Zm0 0"/><path id="e" d="M2.016-.562v-4.422l-1.328.25a1 1 0 0 1-.016-.188Q.67-5.12.875-5.203l1.469-.594h.453v5.235l1.094.156q.124.016.125.11c0 .054-.04.151-.11.296H.86v-.078q0-.311.282-.36Zm0 0"/><path id="f" d="M1.375-3.14c1.008-.126 1.516-.524 1.516-1.204q0-1.078-.891-1.078-.422.002-.703.203a3 3 0 0 0-.125.813.7.7 0 0 1-.203.031c-.281 0-.422-.117-.422-.36q-.001-.513.437-.827.45-.33 1.188-.329c.469 0 .836.125 1.11.375q.42.376.421 1.016 0 .61-.422 1.016-.298.27-.906.468v.032q.717.093 1.094.468c.258.243.39.547.39.922q0 .738-.546 1.219-.55.485-1.422.484C1.41.11 1.05.012.813-.17Q.53-.374.53-.672q0-.406.39-.548.14.347.298.5.293.328.828.328.984.001.984-1.046-.002-1.124-1.656-1.25Zm0 0"/><path id="g" d="M.875-.922q.264 0 .422.219.17.205.172.562 0 .592-.375.985-.316.328-.61.328c-.093 0-.164-.078-.203-.234Q.855.621.891.046a.5.5 0 0 1-.344-.125.47.47 0 0 1-.14-.344c0-.156.038-.273.124-.36a.47.47 0 0 1 .344-.14m0 0"/><path id="h" d="M2.922-3.031c.726.336 1.094.844 1.094 1.531q-.001.752-.547 1.188-.503.42-1.281.421-.769 0-1.25-.39Q.422-.716.422-1.437q0-.938 1.125-1.454-.984-.497-.984-1.468c0-.438.164-.801.5-1.094q.513-.437 1.203-.438c.476 0 .867.133 1.172.391.3.25.453.602.453 1.047q-.001.907-.97 1.422m-.406-.156q.656-.405.656-1.266 0-.404-.235-.656-.252-.282-.734-.282c-.281 0-.508.094-.672.282a.92.92 0 0 0-.25.656q0 .504.328.797c.164.156.47.312.907.469m-.563.484q-.783.44-.781 1.265 0 .44.281.75c.195.2.453.297.766.297q.468 0 .75-.28c.195-.196.297-.442.297-.735q0-.48-.36-.797c-.18-.156-.496-.32-.953-.5m0 0"/><path id="i" d="M3.484-5.828c-.218 0-.75.078-1.093.078-.328 0-.672 0-1.078-.016l-.016.016-.047.188c0 .046.016.062.047.062l.328.016c.125 0 .313.062.313.28v.095L1.063-.641c-.047.25-.188.36-.547.375l-.22.032C.25-.234.22-.22.22-.172L.172 0l.031.016C.593.016.937 0 1.281 0s.688.016 1.094.016L2.391 0l.03-.172c.017-.047-.015-.062-.046-.062l-.234-.032C1.859-.28 1.75-.344 1.75-.53v-.11l.39-1.953c.704 0 .86.14.954.344l.61 1.547c.155.422.452.797.968.797.125 0 .281-.016.375-.063l.031-.218c-.39 0-.531-.297-.687-.688L3.67-2.75c.392-.125 1.25-.578 1.438-1.516.032-.109.032-.234.032-.343 0-.297-.079-.547-.266-.766-.328-.406-.86-.453-1.39-.453m-.062.312c.469 0 .984.157.984.875 0 .11-.031.235-.047.391-.218 1.11-.906 1.36-1.734 1.36h-.437l.437-2.22c.047-.265.203-.406.797-.406m0 0"/><path id="l" d="m1.906-5.062-.86 4.39c-.062.25-.187.375-.562.406L.22-.234c-.047.03-.063.172-.016.25C.593.016.922 0 1.266 0S2 .016 2.39.016c.03-.032.062-.22.03-.25l-.296-.032c-.36-.03-.453-.14-.39-.406l.859-4.39c.047-.25.187-.375.547-.422l.28-.016a.38.38 0 0 0 .017-.266c-.407.016-.72.016-1.063.016-.344 0-.75 0-1.14-.016-.016.032-.048.22-.016.266l.297.016c.343.03.437.156.39.422m0 0"/><path id="j" d="M3.188-4.375c.53.031.53.234.374.61L2.439-.907h-.016l-1.14-2.906c-.173-.422-.126-.516.359-.563.046-.047.046-.187 0-.234-.282 0-.61.015-.86.015-.265 0-.515-.015-.75-.015-.031.046-.031.187.016.234.39.031.437.156.64.656l1.407 3.64c.031.11.094.157.156.157.078 0 .125-.062.172-.156l1.469-3.64c.14-.329.25-.61.703-.657.047-.047.047-.187 0-.234-.219 0-.469.015-.625.015s-.485-.015-.781-.015c-.032.046-.032.187 0 .234m0 0"/><path id="m" d="M3.922.016c.047-.407.11-.828.203-1.188-.062-.016-.14-.047-.234-.047-.22.516-.391.907-1.172.922l-1.375.031c-.125 0-.172-.046-.172-.109a.4.4 0 0 1 .047-.14c.531-.75 1.844-2.61 2.672-3.688.156-.203.172-.25.172-.328 0-.047-.032-.078-.094-.078-.078 0-.297.015-.516.015H1.875c-.328 0-1.016-.031-1.281-.062-.031.39-.11.797-.156 1.093a.8.8 0 0 0 .203.032c.156-.5.422-.75.968-.766l1.5-.016c.047 0 .063.016.063.063a.25.25 0 0 1-.047.125C2.422-3.25 1.078-1.359.344-.265a.3.3 0 0 0-.047.156c0 .078.031.109.125.109h2.594c.203 0 .906.016.906.016m0 0"/><path id="o" d="M1.063 0h1.515c.188 0 .844.016.844.016.078-.36.14-.828.187-1.188-.062-.047-.14-.047-.234-.047-.14.516-.406.938-1.156.938h-.453c-.282 0-.407-.125-.407-.5V-3.72c0-.594.125-.64.625-.656.047-.047.047-.187 0-.234-.328 0-.656.015-.937.015-.25 0-.578-.015-.906-.015-.047.046-.047.187 0 .234.5.016.609.063.609.656v2.844c0 .594-.11.625-.61.656-.046.047-.046.188 0 .235C.407 0 .814 0 1.064 0m0 0"/><clipPath id="c"><path d="M26 110h15v14.207H26Zm0 0"/></clipPath><clipPath id="k"><path d="M138 110h15v14.207h-15Zm0 0"/></clipPath><clipPath id="n"><path d="M213 46h12.848v33H213Zm0 0"/></clipPath><clipPath id="p"><path d="M211 19h14.848v16H211Zm0 0"/></clipPath><clipPath id="q"><path d="M175 110h15v14.207h-15Zm0 0"/></clipPath></defs><path fill="none" stroke="#000" stroke-miterlimit="10" stroke-width=".39615114" d="M33.73 118.113h74.325m0 0h74.328"/><use xlink:href="#a" x="18.86" y="121.133"/><use xlink:href="#b" x="24.789" y="121.133"/><path fill="#FFF" d="M35.305 118.113c0-.87-.707-1.574-1.575-1.574a1.575 1.575 0 1 0 1.575 1.574m0 0"/><g clip-path="url(#c)"><path fill="none" stroke="#000" stroke-miterlimit="10" stroke-width=".39615114" d="M35.305 118.113c0-.87-.707-1.574-1.575-1.574a1.575 1.575 0 1 0 1.575 1.574Zm0 0"/></g><path fill="none" stroke="#000" stroke-miterlimit="10" stroke-width=".39615114" d="M33.73 6.625h39.985m31.52 0H163.8m0 0h18.582"/><use xlink:href="#d" x="3.663" y="9.11"/><use xlink:href="#e" x="8.115" y="9.11"/><use xlink:href="#f" x="12.566" y="9.11"/><use xlink:href="#g" x="17.017" y="9.11"/><use xlink:href="#h" x="18.86" y="9.11"/><use xlink:href="#b" x="24.789" y="9.11"/><path fill="none" stroke="#000" stroke-miterlimit="10" stroke-width=".79130942" d="M73.715.715h31.52v11.82h-31.52Zm0 0"/><path fill="#FFF" stroke="#000" stroke-miterlimit="10" stroke-width=".39615114" d="M35.305 6.625c0-.871-.707-1.574-1.575-1.574a1.575 1.575 0 1 0 1.575 1.574Zm0 0"/><path stroke="#000" stroke-miterlimit="10" stroke-width=".39615114" d="M146.793 6.625c0-.871-.703-1.574-1.574-1.574s-1.574.703-1.574 1.574.703 1.574 1.574 1.574c.87 0 1.574-.703 1.574-1.574Zm0 0"/><use xlink:href="#i" x="84.338" y="22.311"/><use xlink:href="#j" x="89.581" y="24.181"/><path fill="#FFF" stroke="#000" stroke-miterlimit="10" stroke-width=".39615114" d="M183.957 6.625c0-.871-.703-1.574-1.574-1.574a1.575 1.575 0 1 0 1.574 1.574Zm0 0"/><path fill="none" stroke="#000" stroke-miterlimit="10" stroke-width=".39615114" d="M145.219 118.113V70.25m0-15.762V6.625"/><path fill="none" stroke="#000" stroke-miterlimit="10" stroke-width=".79130942" d="m145.219 54.488 9.851 15.762h-19.703Zm0 0"/><path fill="none" stroke="#000" stroke-miterlimit="10" stroke-width=".39615114" d="M145.219 54.488V70.25"/><path fill="none" stroke="#000" stroke-miterlimit="10" stroke-width=".79130942" d="M135.367 54.488h19.703v3.153"/><path d="M146.793 118.113c0-.87-.703-1.574-1.574-1.574s-1.574.703-1.574 1.574a1.575 1.575 0 1 0 3.148 0m0 0"/><g clip-path="url(#k)"><path fill="none" stroke="#000" stroke-miterlimit="10" stroke-width=".39615114" d="M146.793 118.113c0-.87-.703-1.574-1.574-1.574s-1.574.703-1.574 1.574a1.575 1.575 0 1 0 3.148 0Zm0 0"/></g><path stroke="#000" stroke-miterlimit="10" stroke-width=".39615114" d="M145.219 28.832h-1.969l1.969 4.188 1.968-4.188Zm0 0"/><use xlink:href="#l" x="134.866" y="32.496"/><use xlink:href="#m" x="137.367" y="34.366"/><path fill="none" stroke="#000" stroke-miterlimit="10" stroke-width=".39615114" d="M182.383 6.625h18.582m0 0h18.582v39.984m0 31.52v39.984h-18.582m0 0h-18.582"/><path fill="#FFF" stroke="#000" stroke-miterlimit="10" stroke-width=".39615114" d="M183.957 6.625c0-.871-.703-1.574-1.574-1.574a1.575 1.575 0 1 0 1.574 1.574Zm0 0"/><g clip-path="url(#n)"><path fill="none" stroke="#000" stroke-miterlimit="10" stroke-width=".79130942" d="M213.633 78.129v-31.52h11.824v31.52Zm0 0"/></g><use xlink:href="#i" x="202.052" y="64.507"/><use xlink:href="#o" x="207.295" y="66.376"/><path d="M219.547 24.895h-1.973l1.973 4.183 1.969-4.183Zm0 0"/><g clip-path="url(#p)"><path fill="none" stroke="#000" stroke-miterlimit="10" stroke-width=".39615114" d="M219.547 24.895h-1.973l1.973 4.183 1.969-4.183Zm0 0"/></g><use xlink:href="#l" x="209.733" y="28.557"/><use xlink:href="#o" x="212.235" y="30.426"/><path fill="#FFF" d="M183.957 118.113a1.575 1.575 0 1 0-1.574 1.578c.87 0 1.574-.707 1.574-1.578m0 0"/><g clip-path="url(#q)"><path fill="none" stroke="#000" stroke-miterlimit="10" stroke-width=".39615114" d="M183.957 118.113a1.575 1.575 0 1 0-1.574 1.578c.87 0 1.574-.707 1.574-1.578Zm0 0"/></g></svg>