<svg xmlns="http://www.w3.org/2000/svg" xmlns:xlink="http://www.w3.org/1999/xlink" width="171.613" height="30.488"><defs><clipPath id="a"><path d="M19 23h151.004v2H19Zm0 0"/></clipPath><clipPath id="b"><path d="M1.227 0H70v29.984H1.227Zm0 0"/></clipPath><clipPath id="c"><path d="M48 0h68v29.984H48Zm0 0"/></clipPath><clipPath id="d"><path d="M94 0h68v29.984H94Zm0 0"/></clipPath><path id="e" d="M2.203-.39c.719 0 1.078-.82 1.078-2.47q0-2.484-1.078-2.484T1.125-2.859c0 1.648.36 2.468 1.078 2.468m-.031.5q-.88.002-1.36-.735-.515-.781-.515-2.234 0-1.455.562-2.25c.344-.477.805-.72 1.391-.72.57 0 1.02.243 1.344.72q.515.784.515 2.25 0 1.453-.562 2.234c-.336.492-.793.734-1.375.734m0 0"/><path id="f" d="M5.75-6.078c.008.023.016.047.016.078 0 .168-.102.273-.297.313l-.235.062-2 5.625h-.718L.453-5.625l-.375-.094q-.124-.028-.125-.11c0-.05.035-.132.094-.25h1.969V-6c0 .156-.102.262-.297.313l-.375.078L2.969-.891h.015l1.672-4.734-.672-.11q-.127-.029-.125-.093 0-.075.094-.25Zm0 0"/></defs><g clip-path="url(#a)"><path fill="none" stroke="#000" stroke-miterlimit="10" stroke-width=".39240852000000004" d="M19.23 23.95h150.583"/></g><path d="M165.664 23.95v1.952l4.149-1.953L165.664 22Zm0 0"/><g clip-path="url(#b)"><path fill="none" stroke="#000" stroke-miterlimit="10" stroke-width="1.56766712" d="M23.863 23.95C27.641 12.09 31.253.784 35.25.784h.39c4 0 7.614 11.305 11.391 23.164"/></g><g clip-path="url(#c)"><path fill="none" stroke="#000" stroke-miterlimit="10" stroke-width="1.56766712" d="M70.195 23.95C73.973 12.09 77.585.784 81.582.784h.395c3.996 0 7.609 11.305 11.386 23.164"/></g><g clip-path="url(#d)"><path fill="none" stroke="#000" stroke-miterlimit="10" stroke-width="1.56766712" d="M116.531 23.95C120.305 12.09 123.918.784 127.918.784h.39c3.997 0 7.61 11.305 11.387 23.164"/></g><use xlink:href="#e" x="4.166" y="26.94"/><use xlink:href="#f" x="10.039" y="26.94"/></svg>