<svg xmlns="http://www.w3.org/2000/svg" xmlns:xlink="http://www.w3.org/1999/xlink" width="223.555" height="225.574"><defs><path id="a" d="M2.406.094c.828 0 1.688-.422 2.422-1.219-.031-.078-.078-.125-.172-.125-.75.688-1.39.969-2.187.969C1.39-.281.953-1.187.953-2.234c0-.25.016-.5.063-.75.359-1.828 1.718-2.578 2.406-2.578 1.187 0 1.547.734 1.625 1.5l.25-.032c.016-.468.031-.906.078-1.39-.484-.032-.734-.407-1.797-.407-1.422 0-3 1.313-3.344 3.079-.03.218-.062.437-.062.656C.172-.97.844.094 2.406.094m0 0"/><path id="c" d="M.531-2.547a.33.33 0 0 0 0 .438h4.735a.33.33 0 0 0 0-.438Zm0 0"/><path id="d" d="M3.5-5.86c-.219 0-.75.079-1.094.079s-.672 0-1.078-.016l-.031.016-.031.187c-.016.047 0 .063.046.063l.329.015c.125.016.312.079.312.282 0 .03 0 .062-.016.093l-.874 4.5c-.047.25-.172.36-.547.375l-.22.032C.25-.234.22-.22.22-.172L.172 0l.031.016C.593.016.953 0 1.297 0c.328 0 .687.016 1.078.016L2.406 0l.031-.172c0-.047-.015-.062-.062-.062l-.219-.032C1.875-.28 1.75-.344 1.75-.53c0-.031 0-.063.016-.11l.39-1.968c.703 0 .86.14.953.343l.61 1.563c.172.422.469.797.984.797.125 0 .281-.016.375-.063l.031-.218c-.39 0-.546-.313-.703-.688L3.703-2.75c.39-.14 1.25-.594 1.438-1.531.03-.125.03-.235.03-.344a1.17 1.17 0 0 0-.28-.781c-.328-.407-.86-.453-1.391-.453m-.047.313c.453 0 .969.156.969.875 0 .11-.016.25-.047.39-.219 1.126-.906 1.376-1.75 1.376h-.422l.438-2.235c.046-.265.203-.406.812-.406m0 0"/><path id="h" d="M1.922-5.094 1.047-.687C1-.437.859-.297.5-.266l-.281.032c-.047.03-.063.172-.016.25C.593.016.922 0 1.266 0s.75.016 1.14.016c.031-.032.063-.22.031-.25l-.312-.032c-.344-.03-.437-.14-.39-.421l.874-4.407c.047-.25.188-.375.547-.406l.281-.031c.032-.032.047-.188.016-.266-.406.016-.719.016-1.078.016-.328 0-.734 0-1.125-.016-.031.047-.062.219-.031.266l.297.031c.359.016.453.14.406.406m0 0"/><path id="j" d="M2.672.047c.11.11.344.11.453 0V-2.11h2.14a.33.33 0 0 0 0-.438h-2.14v-2.156c-.11-.11-.344-.11-.453 0v2.156H.532a.33.33 0 0 0 0 .438h2.14Zm0 0"/><path id="o" d="M2.047.094C2.734.094 3.78-.61 3.78-2.72c0-.875-.219-1.64-.61-2.156-.233-.312-.608-.594-1.093-.594-.89 0-1.734 1.063-1.734 2.844 0 .953.297 1.844.797 2.344.25.25.547.375.906.375m.031-5.235c.156 0 .297.047.406.141.266.234.516.922.516 2.11 0 .828-.031 1.39-.156 1.859-.188.734-.625.812-.797.812-.828 0-.922-1.531-.922-2.312 0-2.203.547-2.61.953-2.61m0 0"/><path id="p" d="M.938-.844c-.282 0-.485.188-.485.438 0 .265.235.36.39.39.173.016.329.063.329.282 0 .187-.328.593-.781.703 0 .094.015.156.078.219C1 1.094 1.516.656 1.516.03c0-.531-.22-.875-.578-.875m0 0"/><path id="q" d="M1.297-3.078c.234-.813.812-1.719 2-2.156 0-.11-.031-.188-.11-.235-.906.266-1.453.64-1.953 1.219-.562.656-.843 1.469-.843 2.172C.39-.266 1.42.094 2.109.094c1.172 0 1.657-1.125 1.657-1.906 0-.766-.407-1.454-1.625-1.454-.235 0-.578.063-.844.188m-.094.328c.297-.203.594-.203.75-.203.875 0 1.078.86 1.078 1.312 0 .985-.375 1.422-.812 1.422-.578 0-1.078-.297-1.078-1.828 0-.203.015-.437.062-.703m0 0"/><path id="r" d="M4.016-5.5c.656.047.656.297.468.766L3.078-1.141h-.047L1.61-4.78c-.218-.532-.156-.657.454-.719.046-.047.046-.234 0-.297-.36.016-.766.016-1.094.016-.313 0-.625 0-.922-.016-.063.063-.047.25 0 .297.5.047.578.203.812.813L2.625-.095c.047.14.11.203.203.203s.156-.078.219-.203L4.89-4.672c.172-.406.312-.766.89-.828.047-.047.047-.234 0-.297-.281.016-.593.016-.797.016-.203 0-.609 0-.968-.016-.063.063-.063.25 0 .297m0 0"/><path id="b" d="M2.063-.875v-2.484c0-.422 0-.86.015-.953 0-.032-.015-.032-.031-.032-.406.235-.781.422-1.406.703a.33.33 0 0 0 .109.204c.328-.141.484-.188.61-.188.124 0 .156.172.156.422v2.328c0 .594-.203.625-.703.656-.047.047-.047.188 0 .235C1.172 0 1.422 0 1.813 0c.343 0 .515 0 .875.016.03-.047.03-.188 0-.235-.5-.031-.626-.062-.626-.656m0 0"/><path id="e" d="M2.016-2.578h-.657v-1.297c0-.312.094-.453.47-.453h.546c.531 0 .64.281.797.781.094.016.172 0 .234-.031-.031-.297-.14-.985-.156-1.047 0-.016 0-.016-.016-.016-.125.016-.187.032-.359.032H1.047c-.203 0-.625-.016-.922-.016-.047.031-.047.188 0 .234.5.016.625.047.625.641v2.875c0 .594-.125.625-.625.656-.047.047-.047.188 0 .235C.391 0 .828 0 1.063 0h1.53c.345 0 .923.016.923.016.093-.36.203-.828.265-1.203a.45.45 0 0 0-.25-.032c-.14.516-.39.938-.937.938h-.828c-.313 0-.407-.11-.407-.453v-1.578h.657c.609 0 .625.171.64.484.047.047.203.047.235 0v-1.235c-.032-.046-.188-.046-.235 0-.015.391-.031.485-.64.485m0 0"/><path id="g" d="M2.563.078C3.25.078 3.89-.25 4.375-.89A.19.19 0 0 0 4.203-1c-.5.563-.984.781-1.656.781-.969 0-1.625-1.093-1.625-2.14 0-.61.156-1.125.422-1.453.36-.438.765-.626 1.14-.626.985 0 1.375.579 1.563 1.204.094.015.156 0 .234-.047a10 10 0 0 0-.156-1.11c-.36-.03-.687-.312-1.562-.312-.61 0-1.11.219-1.547.61-.47.437-.75 1.124-.75 1.874 0 1.25.75 2.297 2.297 2.297m0 0"/><path id="k" d="M.438-3.344c0 .14.14.281.28.281.126 0 .345-.14.345-.296 0-.047-.016-.094-.032-.141-.015-.062-.062-.125-.062-.172 0-.187.187-.437.719-.437.25 0 .609.172.609.859 0 .453-.156.828-.578 1.266l-.532.515C.485-.75.375-.406.375.016c0 0 .36-.016.594-.016h1.25c.234 0 .562.016.562.016a8 8 0 0 0 .172-1.125c-.047-.047-.14-.063-.219-.047-.109.515-.234.687-.5.687H.97c0-.343.484-.828.531-.86l.719-.702c.406-.39.719-.703.719-1.25 0-.766-.641-1.078-1.22-1.078-.78 0-1.28.578-1.28 1.015m0 0"/><path id="n" d="M1.063-4.61c-.266 0-.641-.015-.922-.015-.047.031-.047.188 0 .234.5.016.625.047.625.641v2.875c0 .594-.125.625-.625.656-.047.047-.047.188 0 .235C.42 0 .797 0 1.063 0c.265 0 .453.016 1.046.016 1.422 0 1.813-.72 1.813-1.328 0-.688-.485-1.079-1.11-1.266v-.016c.36-.172.688-.547.688-.937 0-.469-.219-1.094-1.547-1.094-.25 0-.64.016-.89.016m.296 2.235h.5c.985 0 1.391.547 1.391 1.188 0 .53-.203.968-1.297.968-.5 0-.594-.187-.594-.625Zm0-1.562c0-.376 0-.454.625-.454.407 0 .922.22.922.954 0 .609-.422.812-1.015.812h-.532Zm0 0"/><clipPath id="f"><path d="M134 .012h15V13h-15Zm0 0"/></clipPath><clipPath id="i"><path d="M203 .012h16V13h-16Zm0 0"/></clipPath><clipPath id="l"><path d="M169 224h14v1.137h-14Zm0 0"/></clipPath><clipPath id="m"><path d="M64 .012h15V13H64Zm0 0"/></clipPath></defs><path fill="none" stroke="#000" stroke-miterlimit="10" stroke-width=".39820599" d="M1.781 110.156h30.934m7.922 0H71.57"/><path fill="none" stroke="#000" stroke-miterlimit="10" stroke-width=".79541397" d="M32.715 98.273v23.766m7.922-23.766v23.766"/><path fill="#FFF" stroke="#000" stroke-miterlimit="10" stroke-width=".39820599" d="M3.367 110.156a1.584 1.584 0 1 0-3.168-.004 1.584 1.584 0 0 0 3.168.004Zm0 0"/><use xlink:href="#a" x="32.373" y="93.864"/><use xlink:href="#b" x="37.268" y="95.743"/><path fill="none" stroke="#000" stroke-miterlimit="10" stroke-width=".39820599" d="M211.152 214.84h-34.894m0 0h-34.899v-19.051m0-31.687V145.05m0 0v-13.114m0-43.566v-13.11m0 0V56.208m0-31.684V5.473h34.899m0 0h34.894"/><use xlink:href="#c" x="214.33" y="216.113"/><path fill="#FFF" stroke="#000" stroke-miterlimit="10" stroke-width=".39820599" d="M212.734 214.84a1.584 1.584 0 1 0-3.167-.005 1.584 1.584 0 0 0 3.167.005Zm0 0"/><path fill="none" stroke="#000" stroke-miterlimit="10" stroke-width=".79541397" d="M147.3 164.102v31.687h-11.878v-31.687Zm0 0"/><use xlink:href="#d" x="123.571" y="182.091"/><use xlink:href="#e" x="128.842" y="183.97"/><path fill="none" stroke="#000" stroke-miterlimit="10" stroke-width=".39820599" d="M141.36 88.172v13.27l-11.88 5.445"/><path fill="none" stroke="#000" stroke-miterlimit="10" stroke-width=".79541397" d="M129.48 101.441v17.426"/><path fill="none" stroke="#000" stroke-miterlimit="10" stroke-width=".39820599" d="m129.48 113.422 11.88 5.445v13.27"/><path d="m133.664 115.34.95-2.074 3.687 4.199-5.586-.05Zm0 0"/><path fill="none" stroke="#000" stroke-miterlimit="10" stroke-width=".39820599" d="M129.48 110.156h-12.082"/><path stroke="#000" stroke-miterlimit="10" stroke-width=".39820599" d="M142.945 145.05c0-.874-.71-1.585-1.586-1.585a1.583 1.583 0 1 0 1.586 1.586Zm0 0"/><path fill="none" stroke="#000" stroke-miterlimit="10" stroke-width=".79541397" d="M147.3 24.523v31.684h-11.878V24.523Zm0 0"/><path d="M142.945 5.473c0-.875-.71-1.586-1.586-1.586a1.583 1.583 0 1 0 1.586 1.586m0 0"/><g clip-path="url(#f)"><path fill="none" stroke="#000" stroke-miterlimit="10" stroke-width=".39820599" d="M142.945 5.473c0-.875-.71-1.586-1.586-1.586a1.583 1.583 0 1 0 1.586 1.586Zm0 0"/></g><use xlink:href="#d" x="149.505" y="42.514"/><use xlink:href="#g" x="154.777" y="44.393"/><path stroke="#000" stroke-miterlimit="10" stroke-width=".39820599" d="M141.36 64h-1.977l1.976 4.211L143.34 64Zm0 0"/><use xlink:href="#h" x="130.655" y="67.655"/><use xlink:href="#g" x="133.169" y="69.534"/><path fill="#FFF" d="M212.734 5.473a1.584 1.584 0 1 0-3.167-.005 1.584 1.584 0 0 0 3.167.005m0 0"/><g clip-path="url(#i)"><path fill="none" stroke="#000" stroke-miterlimit="10" stroke-width=".39820599" d="M212.734 5.473a1.584 1.584 0 1 0-3.167-.005 1.584 1.584 0 0 0 3.167.005Zm0 0"/></g><use xlink:href="#j" x="214.33" y="7.799"/><path fill="none" stroke="#000" stroke-miterlimit="10" stroke-width=".39820599" d="M149 110.156c0-7.687-6.23-13.922-13.918-13.922-7.691 0-13.922 6.235-13.922 13.922s6.23 13.918 13.922 13.918c7.687 0 13.918-6.23 13.918-13.918ZM141.36 83.984h30.937m7.918 0h30.937"/><path fill="none" stroke="#000" stroke-miterlimit="10" stroke-width=".79541397" d="M172.297 72.102v23.765m7.918-23.765v23.765"/><path stroke="#000" stroke-miterlimit="10" stroke-width=".39820599" d="M142.945 83.984c0-.875-.71-1.586-1.586-1.586a1.583 1.583 0 1 0 1.586 1.586Zm0 0"/><path fill="#FFF" stroke="#000" stroke-miterlimit="10" stroke-width=".39820599" d="M212.734 83.984a1.584 1.584 0 1 0-3.167-.004 1.584 1.584 0 0 0 3.167.004Zm0 0"/><use xlink:href="#a" x="171.95" y="106.287"/><use xlink:href="#k" x="176.845" y="108.166"/><path fill="none" stroke="#000" stroke-miterlimit="10" stroke-width=".39820599" d="M176.258 214.84v9.902"/><g clip-path="url(#l)"><path fill="none" stroke="#000" stroke-linecap="round" stroke-miterlimit="10" stroke-width=".79541397" d="M170.316 224.742h11.88"/></g><path stroke="#000" stroke-miterlimit="10" stroke-width=".39820599" d="M177.84 214.84c0-.875-.711-1.586-1.582-1.586a1.584 1.584 0 1 0 1.582 1.586ZM142.945 214.84c0-.875-.71-1.586-1.586-1.586a1.583 1.583 0 1 0 1.586 1.586Zm0 0"/><path fill="none" stroke="#000" stroke-miterlimit="10" stroke-width=".39820599" d="M141.36 145.05h34.898v30.934m0 7.922v30.934"/><path fill="none" stroke="#000" stroke-miterlimit="10" stroke-width=".79541397" d="M188.137 175.984h-23.762m23.762 7.922h-23.762"/><use xlink:href="#a" x="190.935" y="182.091"/><use xlink:href="#e" x="195.83" y="183.97"/><path fill="none" stroke="#000" stroke-miterlimit="10" stroke-width=".39820599" d="M1.781 214.84h69.79m0 0h69.788"/><path fill="#FFF" stroke="#000" stroke-miterlimit="10" stroke-width=".39820599" d="M3.367 214.84a1.584 1.584 0 1 0-3.168-.004 1.584 1.584 0 0 0 3.168.004Zm0 0"/><path stroke="#000" stroke-miterlimit="10" stroke-width=".39820599" d="M142.945 214.84c0-.875-.71-1.586-1.586-1.586a1.583 1.583 0 1 0 1.586 1.586Zm0 0"/><path fill="none" stroke="#000" stroke-miterlimit="10" stroke-width=".39820599" d="M36.676 40.367V26.88m0-7.922V5.473h104.683M36.676 40.367v9.899"/><path fill="none" stroke="#000" stroke-linecap="round" stroke-miterlimit="10" stroke-width=".79541397" d="M30.734 50.266h11.883"/><path fill="none" stroke="#000" stroke-miterlimit="10" stroke-width=".79541397" d="M24.797 26.879h23.762m-23.762-7.922h23.762"/><path fill="none" stroke="#000" stroke-miterlimit="10" stroke-width=".39820599" d="M71.57 214.84v-36.5m0-31.684v-73m0-31.687V5.473"/><path fill="none" stroke="#000" stroke-miterlimit="10" stroke-width=".79541397" d="M77.512 146.656v31.684H65.629v-31.684Zm0 0"/><path stroke="#000" stroke-miterlimit="10" stroke-width=".39820599" d="M73.156 214.84a1.584 1.584 0 1 0-3.168-.004 1.584 1.584 0 0 0 3.168.004ZM73.156 110.156a1.584 1.584 0 1 0-3.168-.004 1.584 1.584 0 0 0 3.168.004Zm0 0"/><use xlink:href="#d" x="54.442" y="164.645"/><use xlink:href="#k" x="59.712" y="166.524"/><path fill="none" stroke="#000" stroke-miterlimit="10" stroke-width=".79541397" d="M77.512 41.969v31.687H65.629V41.97Zm0 0"/><path stroke="#000" stroke-miterlimit="10" stroke-width=".39820599" d="M73.156 110.156a1.584 1.584 0 1 0-3.168-.004 1.584 1.584 0 0 0 3.168.004Zm0 0"/><path d="M73.156 5.473a1.584 1.584 0 1 0-3.168-.004 1.584 1.584 0 0 0 3.168.004m0 0"/><g clip-path="url(#m)"><path fill="none" stroke="#000" stroke-miterlimit="10" stroke-width=".39820599" d="M73.156 5.473a1.584 1.584 0 1 0-3.168-.004 1.584 1.584 0 0 0 3.168.004Zm0 0"/></g><use xlink:href="#d" x="79.717" y="59.961"/><use xlink:href="#b" x="84.988" y="61.84"/><path fill="none" stroke="#000" stroke-miterlimit="10" stroke-width=".39820599" d="M117.598 110.156H94.586m0 0H71.57"/><path stroke="#000" stroke-miterlimit="10" stroke-width=".39820599" d="M92.852 110.156v1.98l4.207-1.98-4.207-1.98Zm0 0"/><use xlink:href="#h" x="91.03" y="105.08"/><use xlink:href="#n" x="93.544" y="106.96"/><path fill="none" stroke="#000" stroke-miterlimit="10" stroke-width=".39820599" d="m111.664 115.355 24.496 24.497"/><path stroke="#000" stroke-miterlimit="10" stroke-width=".39820599" d="m133.187 136.875-1.402 1.402 4.375 1.575-1.574-4.375Zm0 0"/><use xlink:href="#o" x="109.682" y="135.325"/><use xlink:href="#p" x="113.843" y="135.325"/><use xlink:href="#q" x="115.811" y="135.325"/><use xlink:href="#r" x="121.458" y="135.325"/></svg>