<svg xmlns="http://www.w3.org/2000/svg" xmlns:xlink="http://www.w3.org/1999/xlink" width="165.26" height="114.335"><defs><path id="c" d="M1.688-1.094v-1.5c.75 0 .921.125 1.046.344l.954 1.547c.25.422.64.797 1.171.797.141 0 .282-.016.375-.063a.27.27 0 0 0 0-.218c-.406 0-.625-.297-.859-.688L3.25-2.75c.375-.125 1.188-.594 1.188-1.531a1.5 1.5 0 0 0-.47-1.11c-.437-.406-.984-.421-1.546-.421-.422 0-.797.062-1.125.062-.313 0-.719-.016-1.14-.016-.063.047-.063.235 0 .282.624.03.765.078.765.812v3.578c0 .75-.14.797-.766.813-.062.062-.062.25 0 .297C.546.016.97 0 1.313 0c.343 0 .75.016 1.156.016.047-.047.047-.235 0-.297-.625-.016-.781-.063-.781-.813m.734-4.422c.547 0 1.187.204 1.187 1.25 0 1.11-.625 1.36-1.5 1.36h-.421v-2.031c0-.266.109-.579.734-.579m0 0"/><path id="d" d="m4.797-.906-1.36-1.875c-.093-.125-.14-.203-.14-.297 0-.078 0-.156.078-.266l1.234-1.578c.313-.406.579-.516.985-.562.047-.047.047-.235 0-.282-.266 0-.594.016-.797.016-.219 0-.578-.016-.938-.016-.062.047-.062.235 0 .282.391.03.563.093.344.375L3.11-3.547c-.062.078-.109.11-.14.11s-.063-.032-.11-.094L1.875-5c-.266-.36-.297-.453.203-.484.047-.047.047-.235 0-.282-.328 0-.656.016-1.015.016-.344 0-.641-.016-.907-.016-.062.047-.047.235 0 .282.375.03.547.078.922.609l1.266 1.813c.062.093.125.171.125.265 0 .047-.047.125-.094.203L1.047-.828C.75-.422.469-.312.063-.281c-.047.062-.047.25 0 .297C.328.016.656 0 .859 0c.22 0 .594.016.938.016.062-.047.062-.235 0-.297-.39-.016-.563-.063-.344-.375l1.172-1.64c.063-.079.11-.126.14-.126.032 0 .079.016.126.094L4-.766c.25.36.281.47-.219.485-.047.062-.047.25 0 .297C4.11.016 4.437 0 4.797 0c.344 0 .64.016.906.016.063-.047.047-.235 0-.297-.375-.016-.531-.11-.906-.625m0 0"/><path id="e" d="M2.406.094c.828 0 1.672-.422 2.407-1.203-.032-.094-.079-.141-.172-.141-.735.703-1.391.969-2.172.969C1.39-.281.953-1.187.953-2.234c0-.235.016-.5.063-.75.359-1.813 1.718-2.563 2.39-2.563 1.188 0 1.547.734 1.61 1.5l.265-.047c.016-.453.032-.89.078-1.375-.484-.031-.734-.406-1.796-.406-1.407 0-2.985 1.313-3.329 3.063-.03.218-.062.437-.062.656C.172-.97.844.094 2.406.094m0 0"/><path id="j" d="M1.328 0h1.906c.235 0 1.063.016 1.063.016.078-.438.172-1.032.219-1.485a.42.42 0 0 0-.282-.047C4.047-.875 3.72-.344 2.781-.344H2.22c-.36 0-.516-.172-.516-.625v-3.703c0-.734.156-.781.781-.812.047-.047.047-.235 0-.282-.406 0-.828.016-1.156.016s-.75-.016-1.156-.016c-.063.047-.063.235 0 .282.625.03.781.078.781.812v3.578c0 .75-.156.797-.781.813-.063.062-.063.25 0 .297C.516.016 1.032 0 1.328 0m0 0"/><path id="k" d="M4.953-4.562v2.906c0 .172 0 .265-.062.265-.032 0-.157-.156-.422-.484L1.406-5.75.203-5.766c-.047.047-.047.235 0 .282.39.03.656.343.703.578v3.718c0 .797-.14.844-.765.907-.063.062-.063.25 0 .297C.516.016.92 0 1.14 0c.203 0 .609.016.984.016.047-.047.047-.235 0-.297-.625-.063-.781-.094-.781-.906v-2.735c0-.297 0-.437.078-.437.047 0 .14.109.297.297l3.11 3.937c.109.14.218.219.359.219.125 0 .203-.11.203-.281v-4.375c0-.797.156-.86.78-.922.063-.047.063-.235 0-.282-.359 0-.78.016-1 .016-.187 0-.593-.016-.984-.016-.062.047-.062.235 0 .282.625.062.766.109.766.922m0 0"/><path id="l" d="M1.39-.703 1.876-2c.047-.11.094-.156.313-.156h1.874l.516 1.515c.11.297-.219.344-.656.36-.047.062-.047.25 0 .297C4.25.016 4.75 0 5.094 0c.36 0 .703.016 1.015.016.063-.047.063-.235 0-.297-.343-.031-.656-.063-.796-.485L3.468-5.875c-.125.078-.375.188-.485.188L.954-.907c-.235.548-.5.61-.891.626-.047.062-.047.25 0 .297C.297.016.593 0 .859 0 1.22 0 1.672.016 2 .016c.047-.047.047-.235 0-.297-.344-.016-.766-.063-.61-.422m.954-1.828c-.188 0-.25-.016-.219-.11l.906-2.312h.063l.828 2.422Zm0 0"/><path id="o" d="M1.328-5.75C1-5.75.531-5.766.172-5.766c-.063.047-.063.235 0 .282.625.03.781.078.781.812v3.578c0 .75-.156.797-.781.813-.063.062-.063.25 0 .297C.516.016.984 0 1.328 0c.328 0 .703.016 1.625.016 1.266 0 2.922-.563 2.922-2.766 0-1.656-1.375-3.016-3.078-3.016-.64 0-1.125.016-1.469.016m.375 5v-4.281c0-.313.313-.438.75-.438 1.922 0 2.563 1.563 2.563 2.938 0 1.797-1.078 2.25-2.344 2.25-.875 0-.969-.188-.969-.469m0 0"/><path id="p" d="M3.188.094c.859 0 1.656-.422 2.265-1.203-.047-.094-.11-.141-.203-.141-.64.703-1.25.969-2.078.969-1.203 0-2.031-1.344-2.031-2.656 0-.766.203-1.407.53-1.813.438-.547.954-.797 1.423-.797 1.234 0 1.719.734 1.953 1.5.11.047.203.016.297-.047-.047-.453-.11-.89-.203-1.375-.453-.047-.844-.406-1.953-.406-.75 0-1.391.281-1.907.766-.593.547-.953 1.422-.953 2.343 0 1.547.938 2.86 2.86 2.86m0 0"/><path id="f" d="M2.047-.875v-2.469c0-.422.015-.86.031-.953 0-.031-.015-.031-.047-.031-.39.234-.765.422-1.39.703 0 .078.03.156.093.203.329-.14.485-.187.625-.187.125 0 .141.172.141.422v2.312c0 .594-.187.625-.687.656-.047.047-.047.188 0 .235C1.156 0 1.422 0 1.797 0c.344 0 .516 0 .875.016.047-.047.047-.188 0-.235-.5-.031-.625-.062-.625-.656m0 0"/><path id="g" d="M.438-3.328c0 .14.125.265.28.265.126 0 .329-.124.329-.28 0-.063 0-.095-.016-.141C1.016-3.547.97-3.61.97-3.656c0-.188.187-.438.703-.438.266 0 .625.172.625.86 0 .453-.172.828-.594 1.25l-.516.53C.485-.75.375-.405.375.017c0 0 .36-.016.594-.016h1.234c.235 0 .563.016.563.016.093-.375.156-.907.172-1.125a.3.3 0 0 0-.204-.032c-.125.5-.25.672-.5.672H.97c0-.343.484-.828.515-.86l.72-.687c.405-.39.718-.703.718-1.25 0-.765-.625-1.078-1.203-1.078-.797 0-1.281.578-1.281 1.016m0 0"/><clipPath id="a"><path d="M.11 17.54h15.78v6.308H.11Zm0 6.308h6.312v3.156H.109Zm0 3.156h15.78v6.312H.11Zm0 0"/></clipPath><clipPath id="b"><path d="M.11 12H21v27H.11Zm0 0"/></clipPath><clipPath id="h"><path d="M143.84 17.54h15.777v6.308H143.84Zm9.469 6.308h6.308v3.156h-6.308Zm-9.47 3.156h15.778v6.312H143.84Zm0 0"/></clipPath><clipPath id="i"><path d="M138 12h26.414v27H138Zm0 0"/></clipPath><clipPath id="m"><path d="M147 103h1v10.676h-1Zm0 0"/></clipPath><clipPath id="n"><path d="M141 112h14v1.676h-14Zm0 0"/></clipPath></defs><g clip-path="url(#a)"><path fill="none" stroke="#000" stroke-miterlimit="10" stroke-width=".7923933400000001" d="M11.945 25.426A3.947 3.947 0 0 0 8 21.48a3.944 3.944 0 1 0 0 7.89 3.944 3.944 0 0 0 3.945-3.944Zm0 0"/></g><g clip-path="url(#b)"><path fill="none" stroke="#000" stroke-miterlimit="10" stroke-width=".7923933400000001" d="M9.578 25.426a1.579 1.579 0 1 0-3.157.001 1.579 1.579 0 0 0 3.157-.001Zm0 0"/></g><path fill="none" stroke="#000" stroke-miterlimit="10" stroke-width=".39669378" d="M9.578 25.426h2.367"/><use xlink:href="#c" x="2.441" y="18.531"/><use xlink:href="#d" x="7.674" y="18.531"/><path fill="none" stroke="#000" stroke-miterlimit="10" stroke-width=".39669378" d="M11.945 25.426h30.012m7.895 0h30.011v18.18m0 31.562v18.18H49.852m-7.895 0H11.945"/><path fill="none" stroke="#000" stroke-miterlimit="10" stroke-width=".7923933400000001" d="M41.957 13.59v23.676m7.895-23.676v23.676"/><use xlink:href="#e" x="41.617" y="9.198"/><use xlink:href="#f" x="46.492" y="11.07"/><path fill="none" stroke="#000" stroke-linejoin="bevel" stroke-miterlimit="10" stroke-width=".7923933400000001" d="M79.707 43.207c3.266 0 5.918 1.813 5.918 4.047s-2.652 4.043-5.918 4.043c3.266 0 5.918 1.812 5.918 4.047s-2.652 4.043-5.918 4.043c3.266 0 5.918 1.812 5.918 4.047 0 2.23-2.652 4.043-5.918 4.043 3.266 0 5.918 1.812 5.918 4.043 0 2.234-2.652 4.046-5.918 4.046"/><path stroke="#000" stroke-miterlimit="10" stroke-width=".39669378" d="M81.441 25.426a1.579 1.579 0 1 0-3.157.001 1.579 1.579 0 0 0 3.157-.001ZM81.441 93.348a1.579 1.579 0 1 0-3.157 0 1.579 1.579 0 0 0 3.157 0Zm0 0"/><path fill="none" stroke="#000" stroke-miterlimit="10" stroke-width=".7923933400000001" d="M49.852 105.184V81.512m-7.895 23.672V81.512"/><use xlink:href="#e" x="41.617" y="77.116"/><use xlink:href="#g" x="46.492" y="78.989"/><path fill="none" stroke="#000" stroke-miterlimit="10" stroke-width=".39669378" d="M11.945 93.348v8.488M11.945 101.836v9.863"/><path fill="none" stroke="#000" stroke-linecap="round" stroke-miterlimit="10" stroke-width=".7923933400000001" d="M6.027 111.7h11.836"/><path fill="none" stroke="#000" stroke-miterlimit="10" stroke-width=".39669378" d="M8 29.371v9.863"/><path fill="none" stroke="#000" stroke-linecap="round" stroke-miterlimit="10" stroke-width=".7923933400000001" d="M2.082 39.234h11.836"/><path fill="none" stroke="#000" stroke-miterlimit="10" stroke-width=".39669378" d="M79.863 25.426h67.922"/><g clip-path="url(#h)"><path fill="none" stroke="#000" stroke-miterlimit="10" stroke-width=".7923933400000001" d="M147.785 25.426a3.947 3.947 0 0 1 3.945-3.946 3.95 3.95 0 0 1 3.946 3.946c0 2.18-1.77 3.945-3.946 3.945a3.944 3.944 0 0 1-3.945-3.945Zm0 0"/></g><g clip-path="url(#i)"><path fill="none" stroke="#000" stroke-miterlimit="10" stroke-width=".7923933400000001" d="M150.152 25.426a1.579 1.579 0 1 1 3.158.001 1.579 1.579 0 0 1-3.158-.001Zm0 0"/></g><path fill="none" stroke="#000" stroke-miterlimit="10" stroke-width=".39669378" d="M150.152 25.426h-2.367"/><use xlink:href="#j" x="144.31" y="14.731"/><use xlink:href="#k" x="149.017" y="14.731"/><use xlink:href="#l" x="155.248" y="14.731"/><path fill="none" stroke="#000" stroke-miterlimit="10" stroke-width=".39669378" d="M151.73 29.371v9.863"/><path fill="none" stroke="#000" stroke-linecap="round" stroke-miterlimit="10" stroke-width=".7923933400000001" d="M145.812 39.234h11.836"/><path fill="none" stroke="#000" stroke-miterlimit="10" stroke-width=".39669378" d="M79.863 93.348h67.922"/><path fill="#FFF" stroke="#000" stroke-miterlimit="10" stroke-width=".39669378" d="M149.363 93.348a1.579 1.579 0 1 0-3.157 0 1.579 1.579 0 0 0 3.157 0Zm0 0"/><path fill="none" stroke="#000" stroke-miterlimit="10" stroke-width=".39669378" d="M147.785 101.836"/><path fill="#FFF" stroke="#000" stroke-miterlimit="10" stroke-width=".39669378" d="M149.363 101.836a1.579 1.579 0 1 0-3.157.001 1.579 1.579 0 0 0 3.157-.001Zm0 0"/><path fill="none" stroke="#000" stroke-miterlimit="10" stroke-width=".39669378" d="M147.785 103.414"/><g clip-path="url(#m)"><path fill="none" stroke="#000" stroke-miterlimit="10" stroke-width=".39669378" d="M147.785 103.414v9.863"/></g><g clip-path="url(#n)"><path fill="none" stroke="#000" stroke-linecap="round" stroke-miterlimit="10" stroke-width=".7923933400000001" d="M141.867 113.277h11.836"/></g><path fill="none" stroke="#000" stroke-miterlimit="10" stroke-width=".39669378" d="M139.293 110.328V84.855h16.98v25.473Zm0 0"/><use xlink:href="#o" x="141.779" y="79.254"/><use xlink:href="#p" x="148.028" y="79.254"/></svg>