<svg xmlns="http://www.w3.org/2000/svg" xmlns:xlink="http://www.w3.org/1999/xlink" width="221.384" height="140.911"><defs><clipPath id="a"><path d="M217 124h3.77v4H217Zm0 0"/></clipPath><clipPath id="b"><path d="M211 118h9.77v16H211Zm0 0"/></clipPath><clipPath id="d"><path d="M9 .152h4V4H9Zm0 0"/></clipPath><clipPath id="e"><path d="M3 .152h16V10H3Zm0 0"/></clipPath><clipPath id="g"><path d="M115 .152h1V127h-1Zm0 0"/></clipPath><path id="c" d="M1.578 1.563c-.094.156-.266.265-.406.265-.125 0-.156-.062-.219-.14-.078-.125-.25-.297-.437-.297-.25 0-.344.172-.344.328 0 .187.219.406.828.406.375 0 .766-.172 1.031-.562.25-.344.453-1.032.797-2.72.14-.702.297-1.421.422-2.171l.031-.156h.828c.079 0 .22-.032.235-.11 0 0 .047-.187.047-.203 0-.015-.016-.031-.063-.031h-.984l.094-.516c.14-.672.265-1.078.39-1.312.125-.25.25-.328.36-.328.125 0 .14.078.187.25.031.187.11.422.39.422.25 0 .313-.204.313-.282 0-.343-.281-.64-.828-.64-.187 0-.422.093-.61.234-.28.234-.656.578-1 2.172l-.578.015c-.171.016-.234.079-.25.157a1 1 0 0 0-.046.156c0 .016.015.016.046.016h.75c-.218 1.015-.25 1.547-.359 2.218-.14.86-.297 2.313-.625 2.829m0 0"/><path id="f" d="M1.828.094c1.75 0 2.375-1.14 2.672-2.735l.484-2.453c.047-.25.188-.39.563-.406l.219-.016c.046 0 .078-.03.078-.078l.031-.172-.016-.015c-.406 0-.75.015-.937.015-.203 0-.547-.015-.938-.015l-.03.015-.032.172c0 .047.031.078.062.078l.22.016c.296.016.405.094.405.281 0 .032 0 .078-.015.125l-.516 2.625c-.187 1-.547 2.188-2 2.188-.422 0-.734-.188-.937-.438C.953-.969.906-1.25.906-1.53s.047-.594.11-.875L1.53-5.11c.063-.25.203-.375.563-.391l.219-.016c.046 0 .078-.03.078-.078l.046-.172-.03-.015c-.391 0-.75.015-1.094.015S.64-5.78.234-5.78l-.03.015-.032.172c0 .047.031.078.062.078l.22.016c.28.016.405.078.405.266 0 .046 0 .078-.015.125l-.578 3a3 3 0 0 0-.063.625c0 1.28.953 1.578 1.625 1.578m0 0"/></defs><path fill="none" stroke="#000" stroke-miterlimit="10" stroke-width=".39789477" d="M10.914 126.14H217.11"/><g clip-path="url(#a)"><path d="m220.176 126.14-2.965-1.757v3.52Zm0 0"/></g><g clip-path="url(#b)"><path fill="none" stroke="#000" stroke-miterlimit="10" stroke-width=".39789477" d="m220.176 126.14-2.965-1.757v3.52Zm0 0"/></g><use xlink:href="#c" x="213.629" y="135.563"/><path fill="none" stroke="#000" stroke-miterlimit="10" stroke-width=".39789477" d="M10.914 126.14V3.81"/><g clip-path="url(#d)"><path d="M10.914.746 9.156 3.711h3.52Zm0 0"/></g><g clip-path="url(#e)"><path fill="none" stroke="#000" stroke-miterlimit="10" stroke-width=".39789477" d="M10.914.746 9.156 3.711h3.52Zm0 0"/></g><use xlink:href="#f" x="2.98" y="9.314"/><path fill="none" stroke="#000" stroke-miterlimit="10" stroke-width=".79479231" d="M44.46 121.95s22.153-14.005 41.935-41.934c19.777-27.926 13.058-58.703 29.351-58.703 16.29 0 9.57 30.777 29.352 58.703 19.78 27.93 41.93 41.933 41.93 41.933"/><g clip-path="url(#g)"><path fill="none" stroke="#000" stroke-dasharray="2.9805509409 2.9805509409" stroke-miterlimit="10" stroke-width=".39789477" d="M115.746 126.14V.349"/></g></svg>