<svg xmlns="http://www.w3.org/2000/svg" xmlns:xlink="http://www.w3.org/1999/xlink" width="226.964" height="88.318"><defs><path id="b" d="M4.469-.484 3.89-2.11H1.67L1.079-.484l.688.125q.124.017.125.093c0 .043-.04.133-.11.266h-1.86a.2.2 0 0 1-.015-.078Q-.096-.342.22-.406l.25-.063L2.625-6.14l.563-.062L5.313-.47l.39.11q.124.034.125.093 0 .048-.094.266H3.828v-.078q0-.246.297-.328ZM1.844-2.578h1.875l-.922-2.61H2.78Zm0 0"/><path id="c" d="M2.36-6.14c2.35 0 3.53.995 3.53 2.984q0 1.58-.921 2.375-.924.783-2.61.781H.422a.16.16 0 0 1-.016-.078Q.404-.324.72-.406l.375-.078v-5.172l-.547-.125c-.086-.02-.125-.055-.125-.11q0-.074.094-.25ZM2.327-.5q1.312 0 2.016-.656.716-.669.718-1.969Q5.06-4.373 4.345-5q-.703-.64-2.016-.64H1.86V-.5Zm0 0"/><path id="g" d="M5.828-2.89a.2.2 0 0 1 .016.078q-.001.235-.313.312l-.203.031v1.906q-.721.674-2.14.672Q1.98.11 1.25-.656q-.783-.845-.781-2.39-.002-1.593 1.015-2.47.855-.716 2.11-.718.575 0 1.062.14.06.019.594.219c.031.43.047.734.047.922q-.001.391-.266.39a.5.5 0 0 1-.187-.03l-.203-.86q-.44-.265-1.11-.266-.937.002-1.547.594-.688.689-.687 2-.001 1.301.578 2.016.562.689 1.516.687c.437 0 .828-.07 1.172-.219v-1.78l-.547-.126q-.127-.012-.125-.094 0-.074.093-.25Zm0 0"/><path id="h" d="M2.578-6.14a.4.4 0 0 1 .016.093q-.001.222-.313.297l-.422.094v5.172l.625.125q.124.017.125.093c0 .032-.039.121-.109.266H.422a.16.16 0 0 1-.016-.078Q.404-.324.72-.406l.375-.078v-5.172l-.547-.125c-.086-.02-.125-.055-.125-.11q0-.074.094-.25Zm0 0"/><path id="i" d="M3.625.078q-.205.03-.422.031-1.22 0-1.953-.812c-.523-.57-.781-1.36-.781-2.36s.273-1.789.828-2.374q.78-.797 2.016-.797 1.247 0 1.984.797.75.844.75 2.375c0 1-.277 1.789-.828 2.359q-.362.375-.813.562l.75.766c.164.164.375.281.625.344q.153.047.328.047v.062q-.002.216-.203.344a.83.83 0 0 1-.484.14q-.549 0-.969-.515ZM3.25-.39q.903.001 1.438-.718.528-.717.53-1.953 0-1.231-.546-1.954-.551-.733-1.453-.734-.891.002-1.406.719-.516.72-.516 1.968 0 1.238.516 1.954.528.719 1.437.718m0 0"/><path id="d" d="M1.516-1.906c-.086-.145-.125-.383-.125-.719q-.001-.45.343-.953.31-.42.625-.828a2.07 2.07 0 0 0 .329-1.11c0-.601-.32-.906-.954-.906-.168 0-.34.04-.515.11q-.129.25-.235.859a2 2 0 0 1-.203.016q-.485 0-.484-.422-.001-.45.484-.766.481-.311 1.11-.312.701 0 1.14.328.516.377.516 1.14c0 .387-.133.766-.39 1.14a53 53 0 0 1-.735.907q-.391.533-.39 1 0 .363.046.516Zm.812 1.484a.52.52 0 0 1-.172.406.56.56 0 0 1-.39.141.53.53 0 0 1-.375-.14.54.54 0 0 1-.157-.407q-.001-.233.157-.39a.51.51 0 0 1 .375-.157c.156 0 .285.055.39.156a.51.51 0 0 1 .172.391m0 0"/><clipPath id="a"><path d="M.852 23H33v34H.852Zm0 0"/></clipPath><clipPath id="e"><path d="M201 0h25.078v25H201Zm0 0"/></clipPath><clipPath id="f"><path d="M134 68h20v19.64h-20Zm0 0"/></clipPath></defs><g clip-path="url(#a)"><path fill="none" stroke="#000" stroke-miterlimit="10" stroke-width=".79089498" d="M21.203 34.984v10.641H6.035v-10.64Zm-15.168 7.98-4.789 1.599v-8.516l4.79 1.598Zm0 0"/></g><path fill="none" stroke="#000" stroke-miterlimit="10" stroke-width=".39594366000000003" d="M21.203 40.305h9.692m18.625 0h9.69"/><path fill="none" stroke="#000" stroke-miterlimit="10" stroke-width=".79089498" d="M30.895 30.992H49.52v18.625H30.895Zm0 0"/><path d="M26.71 40.305v1.968l4.185-1.968-4.184-1.97Zm0 0"/><path fill="none" stroke="#000" stroke-miterlimit="10" stroke-width=".39594366000000003" d="M30.895 49.617 49.52 30.992"/><use xlink:href="#b" x="33.116" y="39.22"/><use xlink:href="#c" x="41.211" y="47.565"/><path d="M55.027 40.305v1.968l4.184-1.968-4.184-1.97Zm0 0"/><path fill="none" stroke="#000" stroke-miterlimit="10" stroke-width=".79089498" d="M59.21 30.992h18.626v18.625H59.21Zm0 0"/><use xlink:href="#d" x="66.55" y="43.715"/><path fill="none" stroke="#000" stroke-miterlimit="10" stroke-width=".39594366000000003" d="M77.836 35.648h4.75m0 0h4.75V16.645h9.504"/><path d="M92.656 16.645v1.968l4.184-1.968-4.184-1.97Zm0 0"/><path fill="none" stroke="#000" stroke-miterlimit="10" stroke-width=".79089498" d="M96.84 7.332h18.625v18.625H96.84Zm0 0"/><path fill="none" stroke="#000" stroke-miterlimit="10" stroke-width=".39594366000000003" d="m96.84 25.957 18.625-18.625"/><use xlink:href="#c" x="98.776" y="15.524"/><use xlink:href="#b" x="107.442" y="23.94"/><path fill="none" stroke="#000" stroke-miterlimit="10" stroke-width=".39594366000000003" d="M77.836 44.96h4.75m0 0h4.75v19.005h9.504"/><path d="M92.656 63.965v1.969l4.184-1.97-4.184-1.968Zm0 0"/><path fill="none" stroke="#000" stroke-miterlimit="10" stroke-width=".79089498" d="M96.84 54.652h18.625v18.625H96.84Zm0 0"/><path fill="none" stroke="#000" stroke-miterlimit="10" stroke-width=".39594366000000003" d="m96.84 73.277 18.625-18.625"/><use xlink:href="#c" x="98.776" y="62.845"/><use xlink:href="#b" x="107.442" y="71.261"/><path fill="none" stroke="#000" stroke-miterlimit="10" stroke-width=".79089498" d="M134.469 30.992h18.625v18.625h-18.625Zm0 0"/><path fill="none" stroke="#000" stroke-miterlimit="10" stroke-width=".39594366000000003" d="M150.3 40.305a6.52 6.52 0 0 0-6.519-6.52 6.52 6.52 0 0 0-6.52 6.52 6.52 6.52 0 0 0 6.52 6.52 6.52 6.52 0 0 0 6.52-6.52ZM139.172 35.695l9.219 9.22m0-9.22-9.22 9.22M115.465 16.645h4.75m0 0h4.754v19.003h9.5"/><path d="M130.285 35.648v1.97l4.184-1.97-4.184-1.968Zm0 0"/><path fill="none" stroke="#000" stroke-miterlimit="10" stroke-width=".39594366000000003" d="M115.465 63.965h4.75m0 0h4.754V44.96h9.5"/><path d="M130.285 44.96v1.97l4.184-1.97-4.184-1.968Zm0 0"/><path fill="none" stroke="#000" stroke-miterlimit="10" stroke-width=".39594366000000003" d="M153.094 40.305h9.691m18.625 0h9.692"/><path fill="none" stroke="#000" stroke-miterlimit="10" stroke-width=".79089498" d="M162.785 30.992h18.625v18.625h-18.625Zm0 0"/><path fill="none" stroke="#000" stroke-miterlimit="10" stroke-width=".39594366000000003" d="m165.578 33.133 13.04 7.172-13.04 7.172Zm0 0"/><path fill="none" stroke="#000" stroke-miterlimit="10" stroke-width=".79089498" d="M191.102 30.992h18.625v18.625h-18.625Zm0 0"/><path fill="none" stroke="#000" stroke-miterlimit="10" stroke-width=".39594366000000003" d="M195.758 35.648c.762-1.191 1.488-2.328 2.328-2.328.844 0 1.57 1.137 2.328 2.328.762 1.192 1.488 2.329 2.328 2.329.844 0 1.57-1.137 2.328-2.329m-3.258-1.398-2.792 2.797M195.758 40.305c.762-1.192 1.488-2.328 2.328-2.328.844 0 1.57 1.136 2.328 2.328.762 1.191 1.488 2.328 2.328 2.328.844 0 1.57-1.137 2.328-2.328M195.758 44.96c.762-1.19 1.488-2.327 2.328-2.327.844 0 1.57 1.137 2.328 2.328.762 1.191 1.488 2.328 2.328 2.328.844 0 1.57-1.137 2.328-2.328m-3.258-1.398-2.792 2.796M209.727 40.305h4.753m0 0h4.75M219.031 40.305V.395"/><g clip-path="url(#e)"><path fill="none" stroke="#000" stroke-miterlimit="10" stroke-width=".79089498" d="M219.031.395h6.653l-6.653 13.304L212.38.395h6.652"/></g><path fill="none" stroke="#000" stroke-miterlimit="10" stroke-width=".39594366000000003" d="M143.781 49.617v9.504m0 0v9.5"/><path d="M143.781 53.8h1.969l-1.969-4.183-1.969 4.184Zm0 0"/><g clip-path="url(#f)"><path fill="none" stroke="#000" stroke-miterlimit="10" stroke-width=".79089498" d="M134.469 68.621h18.625v18.625h-18.625Zm0 0"/></g><path fill="none" stroke="#000" stroke-miterlimit="10" stroke-width=".39594366000000003" d="M144.945 73.742c.38-.594.742-1.164 1.164-1.164s.786.57 1.164 1.164c.38.598.743 1.164 1.164 1.164.422 0 .786-.566 1.165-1.164M144.945 76.07c.38-.593.742-1.164 1.164-1.164s.786.57 1.164 1.164c.38.598.743 1.164 1.164 1.164.422 0 .786-.566 1.165-1.164M144.945 78.398c.38-.593.742-1.164 1.164-1.164s.786.57 1.164 1.164c.38.598.743 1.164 1.164 1.164.422 0 .786-.566 1.165-1.164"/><use xlink:href="#g" x="136.538" y="78.675"/><path fill="none" stroke="#000" stroke-miterlimit="10" stroke-width=".39594366000000003" d="M137.262 81.191H150.3M137.262 84.453H150.3V82.59h-13.04ZM137.262 85.848H150.3"/><use xlink:href="#h" x="139.073" y="26.263"/><use xlink:href="#i" x="141.965" y="26.263"/></svg>