<svg xmlns="http://www.w3.org/2000/svg" xmlns:xlink="http://www.w3.org/1999/xlink" width="228.297" height="113.783"><defs><path id="f" d="M2.063-.875v-2.484c0-.422 0-.86.015-.953 0-.032-.015-.032-.031-.032-.406.235-.781.422-1.406.703a.33.33 0 0 0 .109.204c.328-.141.484-.188.61-.188.124 0 .156.172.156.422v2.328c0 .594-.203.625-.703.656-.047.047-.047.188 0 .235C1.172 0 1.422 0 1.813 0c.343 0 .515 0 .875.016.03-.047.03-.188 0-.235-.5-.031-.626-.062-.626-.656m0 0"/><path id="g" d="M.438-3.344c0 .14.14.281.28.281.126 0 .345-.14.345-.296 0-.047-.016-.094-.032-.141-.015-.062-.062-.125-.062-.172 0-.187.187-.437.719-.437.25 0 .609.172.609.859 0 .453-.156.828-.578 1.266l-.532.515C.485-.75.375-.406.375.016c0 0 .36-.016.594-.016h1.25c.234 0 .562.016.562.016a8 8 0 0 0 .172-1.125c-.047-.047-.14-.063-.219-.047-.109.515-.234.687-.5.687H.97c0-.343.484-.828.531-.86l.719-.702c.406-.39.719-.703.719-1.25 0-.766-.641-1.078-1.22-1.078-.78 0-1.28.578-1.28 1.015m0 0"/><path id="i" d="M1.11-.562 1.5-1.61c.031-.094.078-.11.25-.11h1.516l.406 1.203c.094.25-.172.266-.516.297-.047.047-.047.188 0 .235C3.406 0 3.812 0 4.094 0s.562 0 .812.016c.032-.047.032-.188 0-.235-.281-.031-.531-.047-.64-.39L2.78-4.703c-.11.062-.297.14-.39.14L.766-.733C.578-.281.359-.25.046-.22 0-.172 0-.03.047.016.235 0 .47 0 .689 0c.296 0 .656 0 .921.016.032-.047.032-.188 0-.235C1.33-.25 1-.266 1.11-.562m.765-1.47c-.156 0-.203-.015-.172-.093l.734-1.844h.032l.687 1.938Zm0 0"/><path id="j" d="M1.531-4.11c.313 0 .594.188.594.641 0 .36-.406.906-1.11 1l.032.235c.125-.016.25-.016.344-.016.406 0 .937.125.937.922 0 .953-.64 1.156-.89 1.156-.36 0-.422-.172-.516-.297a.34.34 0 0 0-.313-.187c-.14 0-.296.14-.296.25 0 .281.609.484 1.03.484.86 0 1.61-.562 1.61-1.5 0-.781-.578-1.062-1-1.14h-.016c.594-.282.75-.579.75-.954a.77.77 0 0 0-.218-.578c-.156-.156-.406-.265-.781-.265-1.047 0-1.344.687-1.344.922 0 .093.062.234.234.234.25 0 .281-.235.281-.375 0-.453.5-.531.672-.531m0 0"/><path id="h" d="M1.578 1.563c-.094.156-.266.265-.406.265-.125 0-.156-.062-.219-.14-.078-.125-.25-.297-.437-.297-.25 0-.344.172-.344.328 0 .187.219.406.828.406.375 0 .766-.172 1.031-.562.25-.344.453-1.032.797-2.72.14-.702.297-1.421.422-2.171l.031-.156h.828c.079 0 .22-.032.235-.11 0 0 .047-.187.047-.203 0-.015-.016-.031-.063-.031h-.984l.094-.516c.14-.672.265-1.078.39-1.312.125-.25.25-.328.36-.328.125 0 .14.078.187.25.031.187.11.422.39.422.25 0 .313-.204.313-.282 0-.343-.281-.64-.828-.64-.187 0-.422.093-.61.234-.28.234-.656.578-1 2.172l-.578.015c-.171.016-.234.079-.25.157a1 1 0 0 0-.046.156c0 .016.015.016.046.016h.75c-.218 1.015-.25 1.547-.359 2.218-.14.86-.297 2.313-.625 2.829m0 0"/><path id="z" d="M1.594-.703 2.344-2c.062-.125.125-.156.328-.156h1.781l.234 1.515v.079c0 .203-.14.28-.437.296L4-.234c-.031 0-.062.015-.062.062L3.922 0v.016C4.25.016 4.734 0 5.062 0c.344 0 .688.016 1 .016L6.095 0l.015-.172c0-.047-.03-.062-.078-.062L5.938-.25c-.329-.031-.485-.172-.532-.516l-.828-4.843c-.016-.172-.047-.266-.172-.266s-.203.078-.343.313L1.25-.907c-.344.547-.594.64-.969.672-.047 0-.062.015-.078.062L.172 0l.016.016C.516.016.656 0 .984 0c.344 0 .797.016 1.11.016L2.125 0l.016-.172c.015-.047-.016-.062-.047-.062l-.25-.032C1.625-.28 1.53-.359 1.53-.5c0-.062.016-.14.063-.203M2.89-2.531c-.141 0-.203-.016-.203-.063 0-.015.015-.031.015-.047L4-4.92h.016l.375 2.39Zm0 0"/><path id="l" d="M1.844-4.797q2.766 0 2.765 2.328-.001 1.237-.734 1.86Q3.17 0 1.844 0H.328a.1.1 0 0 1-.016-.062q0-.187.25-.25L.86-.375v-4.047l-.437-.11q-.094-.011-.094-.077-.002-.06.078-.188ZM1.828-.39q1.015 0 1.578-.515.563-.527.563-1.547 0-.967-.563-1.453-.563-.499-1.578-.5h-.375v4.015Zm0 0"/><path id="m" d="m.61-2.953-.5-.078q-.017-.012-.016-.047-.002-.2.265-.219l.813-.078v2.172c0 .555.234.828.703.828q.529.001.86-.344v-2.234l-.516-.078v-.047q-.001-.2.25-.219l.828-.078v3l.5.063q.014.033.015.062-.001.19-.265.203L2.78.047v-.469h-.015a1.3 1.3 0 0 1-1.063.5Q.61.08.61-1.156Zm0 0"/><path id="n" d="M.703-.36v-2.593l-.5-.078q-.017-.012-.016-.047c0-.133.086-.207.266-.219l.813-.078-.032.578h.016q.405-.623.89-.625.453.002.454.344c0 .094-.04.195-.11.297-.168-.07-.32-.11-.453-.11a.92.92 0 0 0-.765.391v2.14l.5.094q.093.02.093.079A.3.3 0 0 1 1.781 0H.25a.1.1 0 0 1-.016-.047c0-.101.07-.18.22-.234Zm0 0"/><path id="o" d="M2.766-.656a.3.3 0 0 1 .093.203q-.001.158-.265.328-.345.201-.844.203c-.437 0-.79-.14-1.047-.422q-.391-.45-.39-1.281c0-.562.164-1.008.5-1.344Q1.263-3.42 2-3.422c.313 0 .55.07.719.203q.187.143.187.344 0 .3-.281.375-.253-.53-.781-.531a.81.81 0 0 0-.64.281q-.299.346-.298.984Q.904-.326 1.97-.328q.497 0 .797-.328m0 0"/><path id="p" d="M.64-.36v-4.265l-.515-.062v-.063c0-.125.082-.195.25-.219l.828-.078v2.125h.016q.406-.499 1.062-.5 1.125.001 1.125 1.25v1.813l.422.093q.094.02.094.079A.36.36 0 0 1 3.859 0H2.375v-.047c0-.101.07-.18.219-.234l.25-.078v-1.782q0-.81-.75-.812-.55 0-.89.36V-.36l.421.093q.094.02.094.079A.3.3 0 0 1 1.64 0H.17v-.047q0-.152.204-.234Zm0 0"/><path id="q" d="M.672-.36v-4.265l-.5-.062a.1.1 0 0 1-.016-.063c0-.125.086-.195.266-.219l.812-.078v4.688l.422.093q.094.02.094.079A.36.36 0 0 1 1.688 0H.202v-.047c0-.101.07-.18.219-.234Zm0 0"/><path id="r" d="M2.078-2.156q0-.468-.14-.672-.143-.218-.485-.219c-.148 0-.281.024-.406.063q-.096.188-.156.609a1 1 0 0 1-.141.016q-.344 0-.344-.297c0-.207.117-.383.36-.531q.357-.235.797-.235 1.078 0 1.078 1.172v1.531q0 .392.234.39a.34.34 0 0 0 .25-.093q.062.096.063.203 0 .082-.126.157a.65.65 0 0 1-.406.125Q2.17.064 2.11-.422h-.015c-.219.336-.54.5-.953.5Q.747.078.5-.156.266-.402.266-.812q0-.5.515-.782.435-.234 1.11-.234h.187ZM1.375-.36q.387.001.703-.36v-.797l-.187.016c-.68.055-1.016.262-1.016.625 0 .344.164.516.5.516m0 0"/><path id="s" d="M.781-.437q.2.14.5.14c.407 0 .61-.148.61-.453q-.002-.187-.203-.375a6 6 0 0 0-.454-.312q-.408-.249-.578-.438a.93.93 0 0 1-.281-.656q-.002-.406.313-.64.327-.249.796-.25.47 0 .75.233.031.27.032.422c0 .243-.09.36-.266.36-.031 0-.055-.004-.062-.016l-.094-.5a.86.86 0 0 0-.469-.14c-.336 0-.5.136-.5.406q0 .281.39.547.373.234.735.468.388.315.39.735 0 .421-.328.703-.316.28-.843.281C.875.078.594.012.375-.109a3 3 0 0 1-.062-.578c0-.22.085-.329.265-.329h.063Zm0 0"/><path id="t" d="M2.297-1.922H.422v-.406h1.875Zm0 0"/><path id="u" d="M.5-4.625 0-4.687v-.063c0-.125.082-.195.25-.219l.828-.078v2.11h.016a1.26 1.26 0 0 1 1.031-.485q.545 0 .89.375c.258.281.391.711.391 1.281q0 .926-.547 1.422-.485.423-1.234.422Q.922.078.5-.156Zm1.36 1.672c-.337 0-.594.11-.782.328v2.11c.188.136.414.203.688.203q1.061 0 1.062-1.36c0-.445-.101-.781-.297-1q-.25-.28-.672-.281m0 0"/><path id="v" d="M.906-1.687q0 .657.282 1.015.281.345.796.344.45 0 .86-.328.06.048.078.203-.001.158-.313.328a1.76 1.76 0 0 1-.859.203C1.32.078.984-.05.734-.312Q.314-.747.313-1.61c0-.57.148-1.024.453-1.36q.403-.451 1-.453.544 0 .859.328.281.316.281.844 0 .234-.078.563Zm.797-1.375Q1-3.06.906-2.016h1.375q.03-.139.031-.296 0-.75-.609-.75m0 0"/><path id="w" d="M.703-.36v-2.593l-.5-.078q-.017-.012-.016-.047c0-.133.086-.207.266-.219l.813-.078v3.016l.422.093q.093.02.093.079A.36.36 0 0 1 1.72 0H.25a.1.1 0 0 1-.016-.047c0-.101.07-.18.22-.234Zm-.11-4.187a.38.38 0 0 1 .11-.281.42.42 0 0 1 .281-.11c.114 0 .207.04.282.11a.37.37 0 0 1 .125.281.38.38 0 0 1-.125.297.38.38 0 0 1-.282.11.37.37 0 0 1-.28-.11c-.075-.07-.11-.172-.11-.297m0 0"/><path id="x" d="M2.484-4.312a1.44 1.44 0 0 0-.687-.188c-.274 0-.484.07-.64.203-.15.137-.22.324-.22.563q0 .315.188.515c.07.074.203.156.39.25l.657.375q.497.27.719.516.264.315.265.765c0 .418-.133.75-.39 1Q2.342.08 1.625.079 1.062.08.453-.187A9 9 0 0 1 .422-.97c0-.207.07-.312.219-.312q.06 0 .156.031l.156.75q.31.22.75.219.451.001.688-.25a.86.86 0 0 0 .218-.61.78.78 0 0 0-.218-.546q-.175-.14-.72-.454l-.437-.234c-.273-.145-.468-.3-.593-.469q-.235-.309-.235-.765 0-.592.422-.938.406-.328 1.063-.328c.394 0 .75.086 1.062.25q.03.504.031.656-.002.315-.203.313a.4.4 0 0 1-.156-.031Zm0 0"/><path id="y" d="M.672 1.031v-3.984l-.516-.078v-.047q-.001-.2.25-.219l.828-.078-.046.453h.015q.422-.499 1.031-.5c.407 0 .723.149.954.438q.358.421.359 1.172-.002.925-.485 1.406-.438.455-1.234.453c-.2 0-.398-.035-.594-.094v1.078l.407.094c.07.008.109.035.109.078a.27.27 0 0 1-.078.188H.203a.1.1 0 0 1-.016-.047c0-.106.07-.184.22-.235Zm1.344-4q-.44 0-.782.328v2.079c.188.148.407.218.657.218q1.061.002 1.062-1.422-.002-.574-.25-.89a.84.84 0 0 0-.687-.313m0 0"/><clipPath id="a"><path d="M224 88h3.598v5H224Zm0 0"/></clipPath><clipPath id="b"><path d="M218 83h9.598v16H218Zm0 0"/></clipPath><clipPath id="c"><path d="M12 3h1v110.5h-1Zm0 0"/></clipPath><clipPath id="d"><path d="M10 .066h5V4h-5Zm0 0"/></clipPath><clipPath id="e"><path d="M5 .066h15V10H5Zm0 0"/></clipPath><clipPath id="k"><path d="M6.3 9H25v88H6.3Zm0 0"/></clipPath></defs><path fill="none" stroke="#7F7F7F" stroke-miterlimit="10" stroke-width=".19838907" d="M73.86 92.813v-4.239m61.413 4.239v-4.239m61.418 4.239v-4.239"/><path fill="none" stroke="#000" stroke-miterlimit="10" stroke-width=".39777507" d="M6.3 90.695h217.637"/><g clip-path="url(#a)"><path d="m227.004 90.695-2.965-1.757v3.515Zm0 0"/></g><g clip-path="url(#b)"><path fill="none" stroke="#000" stroke-miterlimit="10" stroke-width=".39777507" d="m227.004 90.695-2.965-1.757v3.515Zm0 0"/></g><g clip-path="url(#c)"><path fill="none" stroke="#000" stroke-miterlimit="10" stroke-width=".39777507" d="M12.441 113.3V3.728"/></g><g clip-path="url(#d)"><path d="m12.441.66-1.757 2.965h3.515Zm0 0"/></g><g clip-path="url(#e)"><path fill="none" stroke="#000" stroke-miterlimit="10" stroke-width=".39777507" d="m12.441.66-1.757 2.965h3.515Zm0 0"/></g><use xlink:href="#f" x="67.636" y="100.34"/><path fill="none" stroke="#000" stroke-miterlimit="10" stroke-width=".58121019" d="M67.637 102.305h3.324"/><use xlink:href="#g" x="67.636" y="108.92"/><use xlink:href="#h" x="72.153" y="104.63"/><use xlink:href="#i" x="75.916" y="106.508"/><use xlink:href="#h" x="130.714" y="102.231"/><use xlink:href="#i" x="134.478" y="104.108"/><use xlink:href="#j" x="190.468" y="100.354"/><path fill="none" stroke="#000" stroke-miterlimit="10" stroke-width=".58121019" d="M190.469 102.32h3.324"/><use xlink:href="#g" x="190.468" y="108.935"/><use xlink:href="#h" x="194.986" y="104.644"/><use xlink:href="#i" x="198.748" y="106.522"/><g clip-path="url(#k)"><path fill="none" stroke="#000" stroke-miterlimit="10" stroke-width=".39777507" d="M12.441 90.695s.446-.847.614-1.843c.172-1 .445-3.454.613-5.352.172-1.902.445-5.723.617-8.336.168-2.617.442-7.434.613-10.504.168-3.074.442-8.414.614-11.644s.445-8.57.613-11.645c.172-3.074.445-7.89.617-10.504.168-2.613.442-6.437.613-8.336.168-1.898.442-4.351.614-5.351s.613-1.844.613-1.844"/></g><path fill="none" stroke="#000" stroke-miterlimit="10" stroke-width=".39777507" d="M18.582 15.336h49.13299999999997M67.715 15.336s.445.844.617 1.844c.168 1 .441 3.453.613 5.351.168 1.899.442 5.723.614 8.336s.445 7.43.613 10.504c.172 3.074.445 8.414.613 11.645.172 3.23.445 8.57.617 11.644.168 3.07.442 7.887.614 10.504.171 2.613.445 6.434.613 8.336.172 1.898.445 4.352.613 5.352.172.996.617 1.843.617 1.843M73.86 90.695H196.69"/><use xlink:href="#l" x="27.165" y="50.06"/><use xlink:href="#m" x="32.143" y="50.06"/><use xlink:href="#n" x="36.099" y="50.06"/><use xlink:href="#o" x="38.692" y="50.06"/><use xlink:href="#p" x="41.821" y="50.06"/><use xlink:href="#q" x="45.84" y="50.06"/><use xlink:href="#r" x="47.779" y="50.06"/><use xlink:href="#s" x="51.026" y="50.06"/><use xlink:href="#s" x="53.717" y="50.06"/><use xlink:href="#t" x="56.407" y="50.06"/><use xlink:href="#u" x="32.227" y="60.935"/><use xlink:href="#v" x="35.939" y="60.935"/><use xlink:href="#n" x="39.179" y="60.935"/><use xlink:href="#v" x="41.772" y="60.935"/><use xlink:href="#w" x="45.012" y="60.935"/><use xlink:href="#o" x="46.924" y="60.935"/><use xlink:href="#p" x="50.053" y="60.935"/><use xlink:href="#x" x="116.402" y="77.451"/><use xlink:href="#y" x="119.85" y="77.451"/><use xlink:href="#v" x="123.695" y="77.451"/><use xlink:href="#n" x="126.935" y="77.451"/><use xlink:href="#n" x="129.618" y="77.451"/><use xlink:href="#u" x="132.302" y="77.451"/><use xlink:href="#v" x="136.014" y="77.451"/><use xlink:href="#n" x="139.254" y="77.451"/><use xlink:href="#v" x="141.847" y="77.451"/><use xlink:href="#w" x="145.087" y="77.451"/><use xlink:href="#o" x="146.999" y="77.451"/><use xlink:href="#p" x="150.128" y="77.451"/><use xlink:href="#h" x="220.456" y="100.111"/><use xlink:href="#z" x="2.979" y="9.325"/></svg>