<svg xmlns="http://www.w3.org/2000/svg" xmlns:xlink="http://www.w3.org/1999/xlink" width="226.954" height="90.984"><defs><path id="a" d="m4.5-.484-.578-1.641H1.688l-.594 1.64.687.11q.124.034.125.11-.002.064-.11.265H-.077a.2.2 0 0 1-.016-.078Q-.096-.342.22-.406l.25-.063L2.64-6.187l.562-.079L5.36-.469l.407.094q.124.048.125.11c0 .03-.04.12-.11.265H3.86v-.078q0-.246.297-.328Zm-2.64-2.11h1.89l-.922-2.64h-.015Zm0 0"/><path id="b" d="M2.375-6.187q3.576 0 3.578 3c0 1.062-.32 1.867-.953 2.406Q4.092.002 2.375 0H.422a.16.16 0 0 1-.016-.078Q.404-.324.72-.406l.39-.094v-5.219l-.562-.125C.46-5.852.422-5.883.422-5.937q0-.075.094-.25ZM2.344-.5q1.325 0 2.047-.672c.476-.445.718-1.11.718-1.984q-.002-1.247-.718-1.89-.721-.64-2.047-.641H1.89V-.5Zm0 0"/><path id="f" d="M5.89-2.922v.094c0 .156-.1.258-.296.297l-.219.047v1.906Q4.638.11 3.219.109q-1.22 0-1.953-.765Q.469-1.5.469-3.062q0-1.623 1.031-2.5.873-.734 2.125-.735.592 0 1.078.14l.594.235c.031.43.047.734.047.922q-.001.408-.266.406a.5.5 0 0 1-.203-.047L4.688-5.5q-.44-.28-1.125-.281-.939 0-1.547.61-.72.702-.72 2.015-.002 1.313.595 2.047c.375.449.882.672 1.53.672q.669 0 1.173-.204v-1.796l-.547-.126q-.127-.029-.125-.093c0-.063.031-.149.094-.266Zm0 0"/><path id="g" d="M2.594-6.187c.008.023.015.046.015.078q-.002.235-.296.312l-.422.078V-.5l.609.125q.124.034.125.11 0 .046-.094.265H.421a.16.16 0 0 1-.015-.078Q.404-.324.72-.406l.39-.094v-5.219l-.562-.125C.46-5.852.422-5.883.422-5.937q0-.075.094-.25Zm0 0"/><path id="h" d="M3.656.078q-.204.03-.422.031-1.22 0-1.984-.812-.783-.855-.781-2.39 0-1.513.844-2.391.778-.812 2.03-.813c.833 0 1.5.274 2 .813q.75.86.75 2.39-.001 1.518-.827 2.39-.363.375-.813.563l.75.766c.164.164.375.285.625.36q.153.029.328.046c.008.02.016.04.016.063q0 .216-.219.343a.83.83 0 0 1-.484.141q-.551 0-.985-.516ZM3.281-.39q.92.001 1.453-.718.53-.732.532-1.985 0-1.248-.563-1.969-.55-.733-1.453-.734-.909.001-1.437.734-.516.721-.516 1.97 0 1.252.531 1.984.545.719 1.453.718m0 0"/><path id="c" d="M1.516-1.906c-.075-.157-.11-.399-.11-.735q0-.468.328-.953c.22-.281.43-.562.641-.844a2.07 2.07 0 0 0 .328-1.109c0-.601-.32-.906-.953-.906q-.251 0-.531.094c-.086.18-.157.468-.219.875q-.159.016-.219.015-.485.001-.484-.437-.001-.435.484-.75a2 2 0 0 1 1.125-.328c.469 0 .852.109 1.157.328q.515.393.515 1.156-.001.581-.406 1.156-.361.439-.735.907c-.261.343-.39.68-.39 1 0 .25.015.43.047.53Zm.828 1.484a.52.52 0 0 1-.172.406.56.56 0 0 1-.39.141.56.56 0 0 1-.391-.14.58.58 0 0 1-.141-.407c0-.164.047-.297.14-.39a.54.54 0 0 1 .391-.157c.157 0 .285.055.39.156a.48.48 0 0 1 .173.391m0 0"/><clipPath id="d"><path d="M201 0h25.906v26H201Zm0 0"/></clipPath><clipPath id="e"><path d="M131 70h21v20.965h-21Zm0 0"/></clipPath></defs><path fill="none" stroke="#000" stroke-miterlimit="10" stroke-width=".7968406" d="M7.305 34.93a6.905 6.905 0 1 0 0 13.808 6.905 6.905 0 1 0 0-13.809ZM.398 48.738V34.93"/><path fill="none" stroke="#000" stroke-miterlimit="10" stroke-width=".3989202" d="M14.21 41.832h10.063m19.336 0h10.063"/><path fill="none" stroke="#000" stroke-miterlimit="10" stroke-width=".7968406" d="M24.273 32.164H43.61V51.5H24.273Zm0 0"/><path d="M20.059 41.832v1.984l4.214-1.984-4.214-1.98Zm0 0"/><path fill="none" stroke="#000" stroke-miterlimit="10" stroke-width=".3989202" d="M24.273 51.5 43.61 32.164"/><use xlink:href="#a" x="26.668" y="40.612"/><use xlink:href="#b" x="35.082" y="49.277"/><path d="M49.457 41.832v1.984l4.215-1.984-4.215-1.98Zm0 0"/><path fill="none" stroke="#000" stroke-miterlimit="10" stroke-width=".7968406" d="M53.672 32.164h19.336V51.5H53.672Zm0 0"/><use xlink:href="#c" x="61.353" y="45.27"/><path fill="none" stroke="#000" stroke-miterlimit="10" stroke-width=".3989202" d="M73.008 37h4.933m0 0h4.934V17.27h9.863"/><path d="M88.523 17.27v1.984l4.215-1.984-4.215-1.985Zm0 0"/><path fill="none" stroke="#000" stroke-miterlimit="10" stroke-width=".7968406" d="M92.738 7.602h19.336v19.336H92.738Zm0 0"/><path fill="none" stroke="#000" stroke-miterlimit="10" stroke-width=".3989202" d="m92.738 26.938 19.336-19.336"/><use xlink:href="#b" x="94.846" y="16.011"/><use xlink:href="#a" x="103.834" y="24.748"/><path fill="none" stroke="#000" stroke-miterlimit="10" stroke-width=".3989202" d="M73.008 46.668h4.933m0 0h4.934v19.73h9.863"/><path d="M88.523 66.398v1.985l4.215-1.985-4.215-1.984Zm0 0"/><path fill="none" stroke="#000" stroke-miterlimit="10" stroke-width=".7968406" d="M92.738 56.73h19.336v19.336H92.738Zm0 0"/><path fill="none" stroke="#000" stroke-miterlimit="10" stroke-width=".3989202" d="m92.738 76.066 19.336-19.336"/><use xlink:href="#b" x="94.846" y="65.141"/><use xlink:href="#a" x="103.834" y="73.877"/><path fill="none" stroke="#000" stroke-miterlimit="10" stroke-width=".7968406" d="M131.805 32.164h19.34V51.5h-19.34Zm0 0"/><path fill="none" stroke="#000" stroke-miterlimit="10" stroke-width=".3989202" d="M148.242 41.832a6.768 6.768 0 0 0-13.535 0 6.77 6.77 0 0 0 6.77 6.77 6.77 6.77 0 0 0 6.765-6.77ZM136.687 37.047l9.575 9.574m0-9.574-9.575 9.574M112.074 17.27h4.934m0 0h4.933V37h9.864"/><path d="M127.59 37v1.984L131.805 37l-4.215-1.984Zm0 0"/><path fill="none" stroke="#000" stroke-miterlimit="10" stroke-width=".3989202" d="M112.074 66.398h4.934m0 0h4.933v-19.73h9.864"/><path d="M127.59 46.668v1.984l4.215-1.984-4.215-1.984Zm0 0"/><path fill="none" stroke="#000" stroke-miterlimit="10" stroke-width=".3989202" d="M151.144 41.832h10.063m19.336 0h10.062"/><path fill="none" stroke="#000" stroke-miterlimit="10" stroke-width=".7968406" d="M161.207 32.164h19.336V51.5h-19.336Zm0 0"/><path fill="none" stroke="#000" stroke-miterlimit="10" stroke-width=".3989202" d="m164.105 34.39 13.536 7.442-13.536 7.445Zm0 0"/><path fill="none" stroke="#000" stroke-miterlimit="10" stroke-width=".7968406" d="M190.605 32.164h19.336V51.5h-19.336Zm0 0"/><path fill="none" stroke="#000" stroke-miterlimit="10" stroke-width=".3989202" d="M195.437 37c.79-1.238 1.543-2.418 2.418-2.418s1.63 1.18 2.418 2.418c.79 1.238 1.543 2.418 2.418 2.418s1.63-1.18 2.414-2.418m-3.382-1.45-2.899 2.9M195.437 41.832c.79-1.234 1.543-2.414 2.418-2.414s1.63 1.18 2.418 2.414c.79 1.238 1.543 2.418 2.418 2.418s1.63-1.18 2.414-2.418M195.437 46.668c.79-1.238 1.543-2.418 2.418-2.418s1.63 1.18 2.418 2.418c.79 1.238 1.543 2.418 2.418 2.418s1.63-1.18 2.414-2.418m-3.382-1.45-2.899 2.9M209.941 41.832h4.934m0 0h4.93M219.605 41.832V.398"/><g clip-path="url(#d)"><path fill="none" stroke="#000" stroke-miterlimit="10" stroke-width=".7968406" d="M219.605.398h6.907l-6.907 13.813L212.703.398h6.902"/></g><path fill="none" stroke="#000" stroke-miterlimit="10" stroke-width=".3989202" d="M141.477 51.5v9.867m0 0v9.867"/><path d="M141.477 55.719h1.98l-1.98-4.219-1.985 4.219Zm0 0"/><g clip-path="url(#e)"><path fill="none" stroke="#000" stroke-miterlimit="10" stroke-width=".7968406" d="M131.805 71.234h19.34V90.57h-19.34Zm0 0"/></g><path fill="none" stroke="#000" stroke-miterlimit="10" stroke-width=".3989202" d="M142.684 76.55c.394-.62.77-1.21 1.207-1.21s.816.59 1.21 1.21c.395.618.77 1.208 1.208 1.208s.816-.59 1.207-1.207M142.684 78.969c.394-.621.77-1.211 1.207-1.211s.816.59 1.21 1.21c.395.618.77 1.208 1.208 1.208s.816-.59 1.207-1.207M142.684 81.383c.394-.617.77-1.207 1.207-1.207s.816.59 1.21 1.207c.395.62.77 1.21 1.208 1.21s.816-.59 1.207-1.21"/><use xlink:href="#f" x="134.047" y="81.576"/><path fill="none" stroke="#000" stroke-miterlimit="10" stroke-width=".3989202" d="M134.707 84.285h13.535M134.707 87.668h13.535v-1.934h-13.535ZM134.707 89.117h13.535"/><use xlink:href="#g" x="136.73" y="27.401"/><use xlink:href="#h" x="139.644" y="27.401"/></svg>