<svg xmlns="http://www.w3.org/2000/svg" width="195.067" height="162.185"><defs><clipPath id="a"><path d="M.023 0H194v161.375H.023Zm0 0"/></clipPath><clipPath id="b"><path d="M.023 0h194.09v161.375H.023Zm0 0"/></clipPath><clipPath id="c"><path d="M.418 12h193.3v137H.419Zm0 0"/></clipPath></defs><g fill="none" stroke="#000" stroke-miterlimit="10" stroke-width=".199" clip-path="url(#a)"><path stroke-width=".19800500000000001" d="M.418 160.977V.395m32.219 160.582V.395m32.215 160.582V.395M97.07 160.977V.395m32.215 160.582V.395m32.219 160.582V.395m32.215 160.582V.395M.418 160.977h193.3M.419 134.215h193.3M.419 107.449h193.3M.419 80.688h193.3M.419 53.922h193.3M.419 27.16h193.3M.419.395h193.3"/></g><g clip-path="url(#b)"><path fill="none" stroke="#000" stroke-miterlimit="10" stroke-width=".793015" d="M.418 160.977V.395h193.3v160.582Zm0 0"/></g><g clip-path="url(#c)"><path fill="none" stroke="#000" stroke-miterlimit="10" stroke-width="1.58603" d="m.418 80.688.973-2.543.972-2.536.969-2.523c.27-.7.703-1.813.973-2.508l.972-2.484c.27-.684.7-1.778.97-2.453a498.525 498.525 0 0 1 1.945-4.805c.269-.652.699-1.695.968-2.336.27-.645.703-1.66.973-2.29a316 316 0 0 1 1.941-4.401c.27-.594.703-1.532.973-2.11a185.223 185.223 0 0 1 1.941-4c.27-.531.703-1.37.973-1.883.27-.511.703-1.312.973-1.8.27-.489.699-1.25.968-1.711.27-.465.703-1.188.973-1.625s.703-1.118.973-1.528.699-1.156.968-1.43c.27-.269.704-.46.973-.534.27-.075.703 0 .973 0h19.425c.27 0 .704-.043.973 0 .27.042.703.082.973.32.27.242.699 1.008.969 1.414a73 73 0 0 1 1.945 3.121c.27.46.7 1.215.969 1.7.27.484.703 1.28.972 1.788.27.508.703 1.34.973 1.871a151 151 0 0 1 1.941 3.977c.27.57.703 1.504.973 2.094a294 294 0 0 1 1.941 4.386c.27.625.704 1.641.973 2.278a473 473 0 0 1 2.914 7.12 829.912 829.912 0 0 1 2.914 7.434c.27.7.7 1.82.969 2.524.27.7.703 1.828.973 2.535.27.703.703 1.832.972 2.54.27.702.7 1.835.969 2.542l.973 2.535.972 2.528c.27.695.7 1.812.97 2.507a812.518 812.518 0 0 0 1.945 4.95c.269.675.699 1.757.968 2.425.27.668.703 1.73.973 2.391a339.584 339.584 0 0 0 1.941 4.637 256 256 0 0 0 1.946 4.425c.269.594.699 1.54.968 2.118.27.578.703 1.488.973 2.047.27.558.703 1.437.973 1.976.27.535.699 1.379.968 1.895a109 109 0 0 0 1.946 3.543c.27.464.699 1.195.968 1.636.27.442.703 1.125.973 1.543.27.414.703 1.137.973 1.442.27.308.699.652.968.754.27.105.704 0 .973 0h19.43c.27 0 .699.015.969 0 .27-.016.703.101.972-.11.27-.21.703-.996.973-1.398.27-.403.7-1.067.969-1.496.27-.43.703-1.14.972-1.594.27-.453.703-1.207.973-1.684a122 122 0 0 0 1.941-3.632c.27-.528.703-1.391.973-1.938a197 197 0 0 0 3.883-8.469c.27-.62.703-1.633.972-2.27a351 351 0 0 0 1.942-4.69 513 513 0 0 0 2.914-7.333 864.225 864.225 0 0 0 1.945-5.02c.27-.698.7-1.827.969-2.53.27-.704.703-1.832.973-2.54.27-.703.703-1.835.972-2.542l.969-2.536a1744 1744 0 0 1 1.945-5.043c.27-.691.7-1.8.97-2.488a526.503 526.503 0 0 1 3.887-9.648 323.76 323.76 0 0 1 1.941-4.55 242 242 0 0 1 1.945-4.321c.27-.582.699-1.497.968-2.059.27-.563.703-1.445.973-1.988a143 143 0 0 1 1.941-3.735c.27-.496.703-1.27.973-1.742.27-.469.703-1.203.973-1.648.27-.446.699-1.14.968-1.559.27-.418.704-1.125.973-1.46.27-.337.703-.837.973-.973.27-.137.699 0 .968 0h20.399c.27 0 .703-.18.973 0s.703.898.972 1.285c.27.382.7 1.054.969 1.48.27.426.703 1.129.973 1.578s.703 1.196.972 1.672c.27.477.7 1.258.969 1.758a133 133 0 0 1 1.945 3.773 175.826 175.826 0 0 1 1.941 4.078c.27.583.704 1.54.973 2.141.27.602.7 1.586.97 2.203a329 329 0 0 1 1.944 4.578 509.07 509.07 0 0 1 3.887 9.676c.27.692.7 1.8.969 2.5a1750.921 1750.921 0 0 1 1.945 5.047c.27.703.7 1.832.969 2.54l.973 2.538"/></g></svg>