<svg xmlns="http://www.w3.org/2000/svg" xmlns:xlink="http://www.w3.org/1999/xlink" width="226.772" height="200.843"><defs><path id="a" d="M1.703-1.094v-3.593c0-.735.156-.782.781-.813.063-.047.063-.234 0-.297-.39.016-.812.016-1.156.016-.297 0-.734 0-1.156-.016-.063.063-.063.25 0 .297.625.031.781.078.781.813v3.593c0 .75-.156.797-.781.813-.063.062-.063.25 0 .297C.578.016 1.016 0 1.328 0c.328 0 .766.016 1.156.016.063-.047.063-.235 0-.297-.625-.016-.78-.063-.78-.813m0 0"/><path id="b" d="M3.203.094c.86 0 1.656-.422 2.266-1.219-.047-.078-.11-.125-.203-.125-.641.688-1.25.969-2.078.969-1.204 0-2.047-1.36-2.047-2.672 0-.766.218-1.406.53-1.813.454-.546.97-.796 1.438-.796 1.235 0 1.72.734 1.954 1.5.109.046.203.015.296-.032-.046-.468-.109-.906-.187-1.39-.469-.047-.86-.407-1.969-.407-.765 0-1.39.282-1.922.766-.593.547-.953 1.422-.953 2.344 0 1.562.938 2.875 2.875 2.875m0 0"/><path id="d" d="M3.5-5.86c-.219 0-.75.079-1.094.079s-.672 0-1.078-.016l-.031.016-.031.187c-.016.047 0 .063.046.063l.329.015c.125.016.312.079.312.282 0 .03 0 .062-.016.093l-.874 4.5c-.047.25-.172.36-.547.375l-.22.032C.25-.234.22-.22.22-.172L.172 0l.031.016C.593.016.953 0 1.297 0c.328 0 .687.016 1.078.016L2.406 0l.031-.172c0-.047-.015-.062-.062-.062l-.219-.032C1.875-.28 1.75-.344 1.75-.53c0-.031 0-.063.016-.11l.39-1.968c.703 0 .86.14.953.343l.61 1.563c.172.422.469.797.984.797.125 0 .281-.016.375-.063l.031-.218c-.39 0-.546-.313-.703-.688L3.703-2.75c.39-.14 1.25-.594 1.438-1.531.03-.125.03-.235.03-.344a1.17 1.17 0 0 0-.28-.781c-.328-.407-.86-.453-1.391-.453m-.047.313c.453 0 .969.156.969.875 0 .11-.016.25-.047.39-.219 1.126-.906 1.376-1.75 1.376h-.422l.438-2.235c.046-.265.203-.406.812-.406m0 0"/><path id="e" d="M4.984-4.578v2.922c0 .172 0 .265-.062.265-.047 0-.172-.156-.438-.484L1.422-5.781.203-5.797c-.047.063-.047.25 0 .297.39.031.656.344.703.578v3.734c0 .797-.14.844-.765.907-.063.062-.063.25 0 .297C.516.016.92 0 1.14 0c.203 0 .609.016.984.016.063-.047.063-.235 0-.297-.625-.063-.766-.094-.766-.906v-2.75c0-.297 0-.438.063-.438.062 0 .156.11.312.297L4.86-.125c.094.14.204.219.344.219s.219-.11.219-.281v-4.391c0-.797.14-.86.781-.922.047-.047.047-.234 0-.297-.375.016-.797.016-1.016.016-.187 0-.593 0-.984-.016-.062.063-.062.25 0 .297.625.063.781.094.781.922m0 0"/><path id="f" d="M2.531-2.89c.766 0 .797.203.813.609.062.047.25.047.297 0 0-.219-.016-.485-.016-.797 0-.297.016-.531.016-.766-.047-.047-.235-.047-.297 0-.016.5-.047.61-.813.61h-.828v-1.61c0-.484.11-.578.5-.578h.406c.938 0 1.172.36 1.36.984.11 0 .219-.015.281-.046a40 40 0 0 0-.187-1.297c0-.016-.016-.032-.047-.032-.141.032-.188.032-.422.032H1.313c-.282 0-.797 0-1.157-.016-.047.063-.047.25 0 .297.625.031.782.078.782.813v3.593c0 .75-.157.797-.782.813-.047.062-.047.25 0 .297C.47.016.922 0 1.328 0s.844.016 1.156.016c.047-.047.047-.235 0-.297-.625-.016-.78-.063-.78-.813V-2.89Zm0 0"/><path id="i" d="M2.406.094c.828 0 1.688-.422 2.422-1.219-.031-.078-.078-.125-.172-.125-.75.688-1.39.969-2.187.969C1.39-.281.953-1.187.953-2.234c0-.25.016-.5.063-.75.359-1.828 1.718-2.578 2.406-2.578 1.187 0 1.547.734 1.625 1.5l.25-.032c.016-.468.031-.906.078-1.39-.484-.032-.734-.407-1.797-.407-1.422 0-3 1.313-3.344 3.079-.03.218-.062.437-.062.656C.172-.97.844.094 2.406.094m0 0"/><path id="m" d="M4.016-5.5c.656.047.656.297.468.766L3.078-1.141h-.047L1.61-4.78c-.218-.532-.156-.657.454-.719.046-.047.046-.234 0-.297-.36.016-.766.016-1.094.016-.313 0-.625 0-.922-.016-.063.063-.047.25 0 .297.5.047.578.203.812.813L2.625-.095c.047.14.11.203.203.203s.156-.078.219-.203L4.89-4.672c.172-.406.312-.766.89-.828.047-.047.047-.234 0-.297-.281.016-.593.016-.797.016-.203 0-.609 0-.968-.016-.063.063-.063.25 0 .297m0 0"/><path id="B" d="M1.39-.703 1.876-2c.047-.125.11-.156.313-.156h1.89L4.61-.641c.094.297-.234.344-.671.36-.047.062-.047.25 0 .297C4.266.016 4.766 0 5.109 0c.375 0 .704.016 1.032.016.046-.047.046-.235 0-.297-.36-.031-.657-.063-.813-.485L3.484-5.89c-.14.079-.375.172-.5.172L.954-.906c-.235.547-.5.61-.891.625-.047.062-.047.25 0 .297C.297.016.593 0 .859 0 1.234 0 1.672.016 2 .016c.063-.047.063-.235 0-.297-.328-.016-.75-.063-.61-.422m.97-1.828c-.204 0-.266-.031-.235-.125l.922-2.313h.047l.844 2.438Zm0 0"/><path id="C" d="M1.938.094c.359 0 .78-.188 1.218-.547.047-.031.125-.047.125.016.031.218.11.53.11.53.062.016.109.016.156 0 .203-.171.515-.296 1.062-.359a.19.19 0 0 0 0-.25c-.578-.046-.656-.203-.656-.64v-1.735c0-.265.047-.921.047-.921 0-.016-.031-.047-.078-.047-.047.015-.172.015-.313.015-.28 0-.609 0-.921-.015-.047.046-.047.25 0 .297.453.03.562.14.562.718v1.735c0 .172-.016.234-.14.343-.329.297-.672.438-.891.438-.281 0-.719-.125-.719-.922v-1.64c0-.266.031-.922.031-.922 0-.016-.031-.047-.078-.047-.031.015-.172.015-.312.015-.282 0-.61 0-.907-.015-.062.046-.062.25 0 .297.422.03.547.14.547.718v1.719c0 .61.282 1.219 1.156 1.219m0 0"/><path id="D" d="M2.984-.453c.047-.031.125-.047.141.016.031.218.094.53.094.53a.3.3 0 0 0 .172 0c.203-.171.515-.296 1.062-.359a.24.24 0 0 0 0-.25c-.578-.046-.656-.203-.656-.64V-5.22c0-.578.031-.937.031-.937 0-.063-.031-.094-.11-.094-.234.094-.905.219-1.25.25-.03.063 0 .203.048.266h.078c.39.015.5.015.5.734v1.14c0 .063-.016.079-.078.079-.047 0-.407-.156-.703-.156-.594 0-.985.203-1.344.546-.39.375-.625.907-.625 1.579C.344-.72.906.093 1.875.093c.344 0 .672-.188 1.11-.547m.11-.656c0 .172-.016.234-.14.343-.345.297-.626.438-.845.438-.484 0-.984-.531-.984-1.656 0-.641.125-1 .25-1.188.281-.422.656-.437.844-.437a.91.91 0 0 1 .719.312c.124.14.156.203.156.485Zm0 0"/><path id="E" d="M1.625-1.094v-1.781c0-.453.031-1.016.031-1.016 0-.046-.047-.062-.11-.062-.25.094-.608.172-1.233.25a.7.7 0 0 0 .015.25c.5.047.578.11.578.61v1.75c0 .75-.094.765-.64.812-.047.062-.047.25 0 .297.297 0 .64-.016 1-.016.359 0 .703.016 1 .016.046-.047.046-.235 0-.297-.547-.031-.641-.063-.641-.813M.813-5.359c0 .234.203.468.421.468.25 0 .47-.25.47-.437 0-.219-.188-.469-.438-.469-.203 0-.453.219-.453.438m0 0"/><path id="F" d="M.36-1.828C.36-.922.968.094 2.25.094c.563 0 1.016-.203 1.313-.5.406-.406.578-.969.578-1.516 0-.922-.5-2.016-1.875-2.016-.594 0-1.078.25-1.407.641-.328.375-.5.89-.5 1.469M2.124-3.61c.781 0 1.25.687 1.25 1.984 0 1.125-.578 1.406-1 1.406-.937 0-1.234-1.14-1.234-1.828 0-.765.187-1.562.984-1.562m0 0"/><path id="G" d="M2.906-3.562c.485.03.547.14.36.593L2.53-1.203c-.14.344-.187.344-.328-.031l-.64-1.735c-.172-.422-.204-.531.265-.594.063-.046.063-.25 0-.296-.281.015-.594.015-.89.015s-.579 0-.844-.015c-.047.046-.047.25 0 .297.484.046.547.203.719.656l1.14 2.828c.063.125.11.187.234.187.094 0 .157-.062.22-.203l1.187-2.812c.172-.39.265-.61.765-.656.047-.047.047-.25 0-.297-.171.015-.39.015-.625.015-.296 0-.593 0-.828-.015-.047.046-.047.25 0 .297m0 0"/><path id="H" d="M3.453-.828c-.328.328-.594.484-1.11.484-.327 0-.702-.187-.968-.656-.187-.297-.297-.703-.297-1.219l2.39.016c.11 0 .173-.047.173-.156 0-.75-.282-1.547-1.516-1.547-.781 0-1.797.734-1.797 2.094 0 .5.125.984.422 1.328.313.359.734.578 1.375.578.672 0 1.156-.313 1.516-.781-.032-.094-.079-.141-.188-.141M1.11-2.531c.172-1 .797-1.078 1.016-1.078.344 0 .734.187.734.937 0 .078-.03.125-.125.125Zm0 0"/><path id="I" d="M1.578-3.203c-.016-.36-.031-.594-.078-.688-.016-.046-.031-.062-.11-.062-.25.094-.484.172-1.093.25a.7.7 0 0 0 .016.25c.484.047.578.094.578.61v1.75c0 .75-.11.78-.657.812-.062.062-.062.25 0 .297C.547.016.891 0 1.25 0c.36 0 .766.016 1.094.016.047-.047.047-.235 0-.297-.64-.047-.735-.063-.735-.813v-1.25c0-.219.094-.437.204-.594.109-.14.312-.437.421-.437.079 0 .157.016.235.11.062.093.156.218.312.218.219 0 .422-.234.422-.453 0-.172-.156-.437-.531-.437-.422 0-.797.406-1 .75-.047.093-.094.03-.094-.016m0 0"/><path id="J" d="M.438-1.234C.468-.797.5-.375.5 0c.078-.016.172-.031.219-.031.062 0 .11 0 .172.015.25.063.484.11.812.11.516 0 1.438-.25 1.438-1.125 0-.61-.453-.969-1.047-1.203-.547-.203-.906-.328-.906-.828 0-.36.328-.579.625-.579.203 0 .718.079.843.844.047.047.235.047.281-.015.032-.329.047-.657.047-.954-.265-.046-.703-.171-1.171-.171-.657 0-1.25.437-1.25 1.015 0 .64.28.922.984 1.219.734.297.906.484.906.875 0 .437-.437.625-.765.625-.344 0-.547-.125-.625-.219-.204-.203-.297-.594-.36-.828-.047-.047-.219-.047-.265.016m0 0"/><path id="K" d="M.39-3.844c-.124 0-.171.11-.171.188v.11c0 .046.015.062.047.062h.53v2.687c0 .64.282.89.688.89.407 0 .86-.202 1.204-.593-.016-.094-.063-.14-.157-.156-.234.187-.5.25-.734.25S1.5-.672 1.5-1.234v-2.25h.938c.093 0 .218-.047.218-.125v-.172c0-.047-.031-.063-.078-.063H1.5v-.344c0-.578.047-.937.047-.937 0-.062-.031-.078-.078-.078a.7.7 0 0 0-.203.078c-.094.047-.188.094-.297.125-.11.031-.203.063-.203.125 0 .11.03.047.03 1.031Zm0 0"/><path id="L" d="M2.625-.437c.047.28.156.53.594.53.344 0 .672-.155.86-.327-.016-.11-.063-.203-.157-.25-.063.046-.219.14-.328.14-.266 0-.266-.343-.266-.75v-1.328c0-1.265-.703-1.515-1.36-1.515-.734 0-1.468.484-1.468 1 0 .218.094.328.313.328.25 0 .421-.188.421-.313a.4.4 0 0 0-.03-.156c-.016-.031-.016-.078-.016-.188 0-.265.375-.375.703-.375.312 0 .734.157.734 1.172 0 .063-.031.094-.062.11l-.766.187C.937-1.953.328-1.484.328-.875c0 .734.5.969 1.125.969.313 0 .578-.078.969-.375l.187-.156Zm0-1.657v1.188c0 .125-.062.187-.125.234-.234.188-.547.39-.797.39a.627.627 0 0 1-.64-.624c0-.406.187-.828.859-.985ZM.75-5.14a.414.414 0 0 0 .828 0 .434.434 0 0 0-.422-.437c-.218 0-.406.203-.406.437m1.5 0c0 .22.188.407.422.407a.417.417 0 0 0 .422-.407.434.434 0 0 0-.422-.437.434.434 0 0 0-.422.437m0 0"/><path id="M" d="M.766-1.094c0 .75-.094.782-.594.813-.063.062-.063.25 0 .297C.469.016.766 0 1.125 0c.313 0 .61.016.813.016C2-.031 2-.22 1.938-.281c-.36-.031-.454-.063-.454-.813v-.781c.157.016.282.016.375.047.094.078.188.156.297.297l.64.875c.267.36.376.515.376.625q0 .047.047.047C3.39.016 3.594 0 3.766 0c.28 0 .562.016.734.016.063-.047.063-.235 0-.297-.297-.031-.531-.063-.766-.375L2.547-2.141c-.031-.046-.063-.078-.063-.125 0-.03 0-.046.047-.093l.781-.813c.266-.281.579-.36.938-.39.063-.047.063-.25 0-.297-.203.015-.453.015-.781.015s-.672 0-.875-.015c-.047.046-.047.25 0 .297.5.03.297.343.203.453a4.5 4.5 0 0 1-.703.734c-.203.14-.453.25-.61.281v-3.125c0-.578.032-.937.032-.937 0-.063-.032-.094-.125-.094C1.17-6.156.5-6.031.14-6c-.016.063 0 .203.062.266h.078c.39.015.485.015.485.734Zm0 0"/><path id="c" d="M2.063-.875v-2.484c0-.438.015-.875.03-.97 0-.03-.015-.03-.046-.03-.39.25-.781.422-1.406.718a.3.3 0 0 0 .109.188c.328-.125.484-.172.625-.172.11 0 .14.172.14.406v2.344c0 .594-.202.625-.702.656C.78-.172.78-.03.813.016 1.172 0 1.422 0 1.813 0c.343 0 .515 0 .875.016.046-.047.046-.188 0-.235-.5-.031-.626-.062-.626-.656m0 0"/><path id="g" d="M1.375-.875V-3.75c0-.594.11-.625.625-.656.031-.047.031-.188 0-.235-.328 0-.656.016-.937.016-.235 0-.594-.016-.922-.016-.047.047-.047.188 0 .235.5.031.625.062.625.656v2.875c0 .594-.125.625-.625.656-.047.047-.047.188 0 .235C.453 0 .813 0 1.063 0c.265 0 .609 0 .937.016.031-.047.031-.188 0-.235-.516-.031-.625-.062-.625-.656m0 0"/><path id="h" d="M3.984-3.672v2.344c0 .14 0 .219-.046.219-.032 0-.141-.125-.344-.391L1.14-4.625l-.97-.016c-.046.047-.046.188 0 .235a.69.69 0 0 1 .563.468v2.985c0 .64-.125.687-.625.734-.046.047-.046.188 0 .235C.422 0 .734 0 .906 0s.5 0 .797.016c.047-.047.047-.188 0-.235-.5-.047-.625-.078-.625-.734v-2.203c0-.235 0-.344.063-.344.046 0 .125.078.25.234l2.5 3.172c.078.094.172.172.28.172.11 0 .173-.094.173-.234v-3.516c0-.64.11-.687.625-.734.031-.047.031-.188 0-.235-.297 0-.64.016-.813.016-.14 0-.484-.016-.797-.016-.03.047-.03.188 0 .235.5.047.625.078.625.734m0 0"/><path id="n" d="M.344-.984C.375-.641.39-.297.39 0c.078-.016.14-.016.187-.016s.094 0 .14.016c.188.047.391.078.657.078.39 0 1.14-.203 1.14-.906 0-.485-.359-.781-.843-.953-.438-.172-.719-.282-.719-.672 0-.297.266-.453.5-.453.156 0 .578.047.672.656.047.047.188.047.234 0 .016-.266.032-.531.032-.766-.22-.03-.563-.14-.938-.14-.531 0-1.016.36-1.016.812 0 .516.25.75.797.969.594.25.735.406.735.703 0 .36-.344.5-.61.5-.28 0-.437-.094-.515-.172C.688-.5.609-.812.563-1 .53-1.047.39-1.031.343-.984m0 0"/><path id="p" d="M.438-3.36c0 .157.14.282.28.282.126 0 .345-.125.345-.281 0-.063-.016-.11-.032-.157-.015-.046-.062-.109-.062-.171 0-.172.187-.438.719-.438.25 0 .625.188.625.875 0 .453-.172.828-.594 1.25l-.532.531C.485-.75.375-.406.375.016c0 0 .36-.016.594-.016h1.25c.234 0 .562.016.562.016.094-.375.172-.922.172-1.141a.3.3 0 0 0-.203-.031c-.125.515-.25.687-.5.687H.969c0-.343.5-.828.531-.86l.719-.702c.406-.39.719-.703.719-1.25 0-.781-.626-1.094-1.204-1.094-.796 0-1.296.594-1.296 1.016m0 0"/><path id="y" d="M4.781-2.36c0-1.484-1.031-2.359-2.312-2.359-1.39 0-2.203 1.11-2.203 2.5 0 1.406 1.03 2.297 2.25 2.297.797 0 1.422-.344 1.812-.906.297-.406.453-.922.453-1.531M2.375-4.452c.953 0 1.719.781 1.719 2.234 0 1.281-.625 2.031-1.438 2.031-.875 0-1.703-.78-1.703-2.156 0-1.5.703-2.11 1.422-2.11m0 0"/><path id="z" d="M1.234-3.75c0-.594.11-.625.657-.656.046-.047.046-.188 0-.235-.328 0-.688.016-.97.016-.28 0-.577-.016-.843-.016-.047.047-.047.188 0 .235.422.031.547.062.547.656v2.078c0 1.469.953 1.75 1.672 1.75 1.469 0 1.828-.922 1.828-2.187V-3.75c0-.578.125-.61.547-.656.047-.047.047-.188 0-.235-.266 0-.563.016-.734.016-.141 0-.5-.016-.829-.016-.046.047-.046.188 0 .235.547.047.657.078.657.656v1.766c0 .797-.094 1.765-1.313 1.765a1.2 1.2 0 0 1-.86-.343c-.343-.329-.359-.875-.359-1.344Zm0 0"/><path id="A" d="M2.516-.875v-2.734c0-.47.062-.735.328-.735H3c.531 0 .875.188 1 .735.078 0 .172 0 .234-.032a12 12 0 0 1-.093-1.015c0-.016-.016-.032-.016-.032-.25.032-1.047.063-1.61.063h-.609c-.562 0-1.406-.031-1.672-.062a.034.034 0 0 0-.03.03c-.032.313-.11.688-.188 1.032a.7.7 0 0 0 .25.047c.14-.578.468-.766.953-.766h.343c.266 0 .344.266.344.703v2.766c0 .594-.125.625-.703.656-.047.047-.047.188 0 .235.36-.016.719-.016 1-.016s.64 0 1 .016c.047-.047.047-.188 0-.235-.578-.031-.687-.062-.687-.656m0 0"/><path id="q" d="m.422-.453 1.516-1.734q.874-1.015.875-2 0-1.25-.891-1.25-.362 0-.719.171-.112.365-.125.891-.11.017-.203.016-.422.002-.422-.36 0-.545.422-.875.42-.328 1.156-.328.715.001 1.172.406.451.41.453 1.172 0 .675-.422 1.36-.27.44-.89 1.125L1.359-.797v.016h2.032l.187-.781a.44.44 0 0 1 .188-.032q.217.002.218.344c0 .242-.03.656-.093 1.25H.5Zm0 0"/><path id="r" d="M1.39-3.156c1.008-.125 1.516-.531 1.516-1.219Q2.905-5.436 2-5.437q-.41 0-.703.187a3 3 0 0 0-.11.828 1.4 1.4 0 0 1-.218.016c-.281 0-.422-.117-.422-.36q-.001-.513.437-.828.45-.328 1.188-.328.714 0 1.125.375.422.376.422 1.016 0 .628-.422 1.015-.299.284-.906.485V-3q.715.094 1.109.469.389.361.39.922 0 .737-.562 1.234Q2.78.11 1.891.109C1.41.11 1.05.012.813-.17A.61.61 0 0 1 .53-.688c0-.258.133-.442.407-.547q.14.363.28.515.295.328.829.328c.664 0 1-.351 1-1.062 0-.738-.555-1.149-1.656-1.234Zm0 0"/><path id="s" d="m.125-1.984 2.547-3.813.656-.047v3.64h.75l-.047.688h-.703V-.5l.625.14q.124.018.125.094-.002.048-.11.266H1.923a.16.16 0 0 1-.016-.078q-.002-.246.313-.328L2.594-.5v-1.016H.156Zm.734-.22h1.735v-2.702h-.016L.86-2.22Zm0 0"/><path id="t" d="M.484-4.672q0-.562.063-1.14h3.578a.3.3 0 0 1 .047.171c0 .125-.04.262-.11.407L1.704 0h-.64l2.406-5.062h-2.39l-.141.75a.5.5 0 0 1-.188.03q-.268.002-.266-.39m0 0"/><path id="u" d="M1.125-5.812h2.563l-.047.765H1.53l-.11 1.422q1.297.048 1.876.547c.363.305.547.765.547 1.39a1.7 1.7 0 0 1-.547 1.266q-.534.533-1.39.531Q1.185.108.827-.156a.61.61 0 0 1-.281-.516q0-.405.39-.547.17.376.297.5.295.328.829.328.527 0 .843-.328.296-.311.297-.828 0-.731-.562-1.047c-.375-.219-.977-.328-1.797-.328Zm0 0"/><path id="v" d="M3.703-4.781a1.1 1.1 0 0 0-.328-.407 1.2 1.2 0 0 0-.734-.25c-.918 0-1.414.79-1.485 2.36a1.95 1.95 0 0 1 1.219-.406q.78 0 1.219.375.515.421.515 1.265-.001.798-.5 1.344-.532.61-1.359.61C1.625.11 1.148-.157.828-.688Q.36-1.42.36-2.72.357-3.966.953-4.875c.445-.695 1.063-1.047 1.844-1.047q.621.002.984.203.312.205.313.469c0 .25-.133.406-.39.469M1.156-2.625q.029 1.127.344 1.703.31.533.813.531.451.001.734-.343c.195-.239.297-.582.297-1.032q-.001-1.202-1.016-1.203-.75.002-1.172.344m0 0"/><path id="w" d="M2.031-.578v-4.438L.687-4.75a1 1 0 0 1-.015-.187c0-.133.07-.235.219-.297l1.468-.578h.454v5.234l1.093.172q.124.016.125.11 0 .08-.093.296H.874a.16.16 0 0 1-.016-.078q0-.311.282-.36Zm0 0"/><path id="x" d="M2.938-3.047Q4.029-2.543 4.03-1.5q0 .737-.547 1.188-.503.42-1.28.421-.77 0-1.25-.39Q.436-.716.437-1.453q0-.92 1.125-1.453-.985-.499-.985-1.485c0-.437.164-.8.5-1.093.344-.29.742-.438 1.203-.438.477 0 .867.133 1.172.39q.451.376.453 1.063 0 .908-.969 1.422m-.407-.156q.67-.405.672-1.266-.002-.42-.25-.672c-.18-.187-.422-.28-.734-.28a.9.9 0 0 0-.688.28.94.94 0 0 0-.25.672q0 .504.344.797c.164.149.469.305.906.469m-.562.484c-.524.293-.782.715-.782 1.266q0 .456.282.766.28.297.765.296.47 0 .75-.28.296-.294.297-.75 0-.47-.36-.798-.268-.217-.952-.5m0 0"/><clipPath id="j"><path d="M119 190h1v10.664h-1Zm0 0"/></clipPath><clipPath id="k"><path d="M113 199h13v1.664h-13Zm0 0"/></clipPath><clipPath id="l"><path d="M10 .023h15V15H10Zm0 0"/></clipPath><clipPath id="o"><path d="M45 .023h15V15H45Zm0 0"/></clipPath></defs><path fill="none" stroke="#000" stroke-miterlimit="10" stroke-width=".796203" d="m131.656 106.348 42.817 21.406-42.817 21.41Zm0 0"/><path fill="none" stroke="#000" stroke-miterlimit="10" stroke-width=".39860100000000004" d="M131.656 138.46h-3.566m3.566-21.41h-3.566m46.383 10.704h3.566m-14.27 5.351v3.57m-21.41 7.138v3.566m24.977-23.192v-3.57m-14.274-3.566v-3.567m-14.269-3.57v-3.566"/><use xlink:href="#a" x="144.08" y="129.755"/><use xlink:href="#b" x="146.74" y="129.755"/><use xlink:href="#c" x="152.527" y="131.635"/><path fill="none" stroke="#000" stroke-miterlimit="10" stroke-width=".39860100000000004" d="M128.09 117.05H74.75m-31.715 0H24.297"/><path fill="none" stroke="#000" stroke-miterlimit="10" stroke-width=".796203" d="M43.035 111.105H74.75v11.891H43.035Zm0 0"/><use xlink:href="#d" x="54.398" y="107.286"/><use xlink:href="#c" x="59.674" y="109.167"/><path fill="#FFF" stroke="#000" stroke-miterlimit="10" stroke-width=".39860100000000004" d="M25.883 117.05a1.587 1.587 0 0 0-3.172 0 1.587 1.587 0 0 0 3.172 0Zm0 0"/><use xlink:href="#e" x="2.985" y="118.982"/><use xlink:href="#f" x="9.246" y="118.982"/><use xlink:href="#g" x="13.591" y="120.863"/><use xlink:href="#h" x="15.72" y="120.863"/><path fill="none" stroke="#000" stroke-miterlimit="10" stroke-width=".39860100000000004" d="M128.09 138.46h-8.653v34.595M142.36 147.379v25.676h-22.923m0 0"/><path stroke="#000" stroke-miterlimit="10" stroke-width=".39860100000000004" d="M121.023 173.055c0-.875-.71-1.582-1.586-1.582a1.584 1.584 0 1 0 0 3.168c.875 0 1.586-.707 1.586-1.586Zm0 0"/><path fill="none" stroke="#000" stroke-miterlimit="10" stroke-width=".39860100000000004" d="M93.492 117.05v21.985m0 7.93v26.09h25.945v17.3"/><path fill="none" stroke="#000" stroke-miterlimit="10" stroke-width=".796203" d="M105.383 139.035H81.598m23.785 7.93H81.598"/><path stroke="#000" stroke-miterlimit="10" stroke-width=".39860100000000004" d="M95.078 117.05a1.587 1.587 0 1 0-3.174.003 1.587 1.587 0 0 0 3.174-.002Zm0 0"/><use xlink:href="#i" x="70.179" y="145.149"/><use xlink:href="#c" x="75.079" y="147.03"/><g clip-path="url(#j)"><path fill="none" stroke="#000" stroke-miterlimit="10" stroke-width=".39860100000000004" d="M119.437 190.355v9.91"/></g><g clip-path="url(#k)"><path fill="none" stroke="#000" stroke-linecap="round" stroke-miterlimit="10" stroke-width=".796203" d="M113.492 200.266h11.895"/></g><path fill="none" stroke="#000" stroke-miterlimit="10" stroke-width=".39860100000000004" d="M163.77 136.676v5.187m0 0v5.192M138.793 106.348V56.613m0 0V6.88H17.703"/><path fill="#FFF" d="M19.29 6.879a1.587 1.587 0 1 0-3.175.002 1.587 1.587 0 0 0 3.174-.002m0 0"/><g clip-path="url(#l)"><path fill="none" stroke="#000" stroke-miterlimit="10" stroke-width=".39860100000000004" d="M19.289 6.879a1.587 1.587 0 1 0-3.174.002 1.587 1.587 0 0 0 3.174-.002Zm0 0"/></g><use xlink:href="#m" x="5.498" y="8.803"/><use xlink:href="#n" x="11.339" y="10.684"/><path fill="none" stroke="#000" stroke-miterlimit="10" stroke-width=".39860100000000004" d="M52.3 6.879v21.984m0 7.93v21.984"/><path fill="none" stroke="#000" stroke-miterlimit="10" stroke-width=".796203" d="M64.191 28.863H40.406m23.785 7.93H40.406"/><path d="M53.883 6.879a1.584 1.584 0 1 0-3.168 0 1.585 1.585 0 1 0 3.168 0m0 0"/><g clip-path="url(#o)"><path fill="none" stroke="#000" stroke-miterlimit="10" stroke-width=".39860100000000004" d="M53.883 6.879a1.584 1.584 0 1 0-3.168 0 1.585 1.585 0 1 0 3.168 0Zm0 0"/></g><use xlink:href="#i" x="66.996" y="34.979"/><use xlink:href="#p" x="71.896" y="36.86"/><path fill="none" stroke="#000" stroke-miterlimit="10" stroke-width=".39860100000000004" d="M52.3 58.777v9.91"/><path fill="none" stroke="#000" stroke-linecap="round" stroke-miterlimit="10" stroke-width=".796203" d="M46.352 68.687h11.894"/><path fill="none" stroke="#000" stroke-miterlimit="10" stroke-width=".39860100000000004" d="M178.04 127.754h8.651m0 0h8.649"/><path fill="#FFF" stroke="#000" stroke-miterlimit="10" stroke-width=".39860100000000004" d="M196.926 127.754a1.587 1.587 0 0 0-3.172 0 1.587 1.587 0 0 0 3.172 0Zm0 0"/><path fill="none" stroke="#000" stroke-miterlimit="10" stroke-width=".39860100000000004" d="M153.062 113.484v-5.191m0 0v-5.188M167.336 120.617v-5.187m0 0v-5.192"/><use xlink:href="#q" x="120.425" y="113.867"/><use xlink:href="#r" x="120.425" y="135.168"/><use xlink:href="#s" x="145.545" y="156.413"/><use xlink:href="#t" x="156.105" y="145.682"/><use xlink:href="#u" x="175.8" y="136.762"/><use xlink:href="#v" x="141.976" y="103.056"/><use xlink:href="#w" x="156.249" y="110.299"/><use xlink:href="#x" x="170.521" y="117.328"/><use xlink:href="#e" x="198.522" y="129.686"/><use xlink:href="#f" x="204.784" y="129.686"/><use xlink:href="#y" x="209.129" y="131.566"/><use xlink:href="#z" x="214.159" y="131.566"/><use xlink:href="#A" x="218.896" y="131.566"/><use xlink:href="#B" x="157.702" y="27.032"/><use xlink:href="#C" x="163.928" y="27.032"/><use xlink:href="#D" x="168.684" y="27.032"/><use xlink:href="#E" x="173.217" y="27.032"/><use xlink:href="#F" x="175.644" y="27.032"/><use xlink:href="#G" x="180.159" y="27.032"/><use xlink:href="#H" x="184.61" y="27.032"/><use xlink:href="#I" x="188.614" y="27.032"/><use xlink:href="#J" x="191.946" y="27.032"/><use xlink:href="#K" x="195.44" y="27.032"/><use xlink:href="#L" x="198.27" y="27.032"/><use xlink:href="#I" x="202.364" y="27.032"/><use xlink:href="#M" x="205.696" y="27.032"/><use xlink:href="#H" x="210.282" y="27.032"/><use xlink:href="#I" x="214.286" y="27.032"/></svg>