<svg xmlns="http://www.w3.org/2000/svg" xmlns:xlink="http://www.w3.org/1999/xlink" width="226.772" height="126.802"><defs><clipPath id="a"><path d="M150 123h5v3.605h-5Zm0 0"/></clipPath><clipPath id="b"><path d="M145 117h15v9.605h-15Zm0 0"/></clipPath><clipPath id="c"><path d="M12 123h4v3.605h-4Zm0 0"/></clipPath><clipPath id="d"><path d="M7 117h15v9.605H7Zm0 0"/></clipPath><clipPath id="e"><path d="M210 123h4v3.605h-4Zm0 0"/></clipPath><clipPath id="f"><path d="M204 117h15v9.605h-15Zm0 0"/></clipPath><path id="g" d="M1.828.094c1.766 0 2.375-1.14 2.688-2.735L5-5.109c.047-.25.188-.375.547-.407l.234-.015c.032 0 .063-.032.078-.078l.032-.172-.016-.016c-.406.016-.75.016-.953.016-.188 0-.531 0-.938-.016l-.015.016-.031.172c-.016.046.015.078.046.078l.235.015c.281.016.406.094.406.282 0 .046-.016.093-.016.125l-.515 2.625c-.203 1-.563 2.203-2.016 2.203-.406 0-.719-.188-.937-.438C.953-.969.906-1.25.906-1.53s.047-.594.11-.875l.53-2.719c.048-.25.188-.36.548-.39l.219-.016c.046 0 .078-.032.093-.078l.031-.172-.015-.016c-.406.016-.766.016-1.11.016-.343 0-.671 0-1.078-.016l-.03.016-.032.172c0 .046.031.078.062.078l.22.015c.28.016.421.094.421.282 0 .03-.016.062-.031.109L.266-2.109a3 3 0 0 0-.063.625c0 1.28.953 1.578 1.625 1.578m0 0"/><path id="h" d="M2.016-2.578h-.657v-1.297c0-.312.094-.453.47-.453h.546c.531 0 .64.281.797.781.094.016.172 0 .234-.031-.031-.297-.14-.985-.156-1.047 0-.016 0-.016-.016-.016-.125.016-.187.032-.359.032H1.047c-.203 0-.625-.016-.922-.016-.047.031-.047.188 0 .234.5.016.625.047.625.641v2.875c0 .594-.125.625-.625.656-.047.047-.047.188 0 .235C.391 0 .828 0 1.063 0h1.53c.345 0 .923.016.923.016.093-.36.203-.828.265-1.203a.45.45 0 0 0-.25-.032c-.14.516-.39.938-.937.938h-.828c-.313 0-.407-.11-.407-.453v-1.578h.657c.609 0 .625.171.64.484.047.047.203.047.235 0v-1.235c-.032-.046-.188-.046-.235 0-.015.391-.031.485-.64.485m0 0"/><path id="i" d="M1.11-.562 1.5-1.61c.031-.094.078-.11.25-.11h1.516l.406 1.203c.094.25-.172.266-.516.297-.047.047-.047.188 0 .235C3.406 0 3.812 0 4.094 0s.562 0 .812.016c.032-.047.032-.188 0-.235-.281-.031-.531-.047-.64-.39L2.78-4.703c-.11.062-.297.14-.39.14L.766-.733C.578-.281.359-.25.046-.22 0-.172 0-.03.047.016.235 0 .47 0 .689 0c.296 0 .656 0 .921.016.032-.047.032-.188 0-.235C1.33-.25 1-.266 1.11-.562m.765-1.47c-.156 0-.203-.015-.172-.093l.734-1.844h.032l.687 1.938Zm0 0"/></defs><path fill="none" stroke="#000" stroke-miterlimit="10" stroke-width=".39837756" d="M14.293 124.82h69.113m0 0h98.735m0 0h29.62"/><g clip-path="url(#a)"><path d="M154.105 124.82c0-.875-.71-1.582-1.585-1.582a1.584 1.584 0 1 0 0 3.168c.875 0 1.585-.71 1.585-1.586m0 0"/></g><g clip-path="url(#b)"><path fill="none" stroke="#000" stroke-miterlimit="10" stroke-width=".39837756" d="M154.105 124.82c0-.875-.71-1.582-1.585-1.582a1.584 1.584 0 1 0 0 3.168c.875 0 1.585-.71 1.585-1.586Zm0 0"/></g><path fill="none" stroke="#000" stroke-miterlimit="10" stroke-width=".39837756" d="M14.293 6.34h43.39m31.7 0h53.265m0 0h39.493m0 0h29.62"/><path fill="none" stroke="#000" stroke-miterlimit="10" stroke-width=".79575668" d="M57.684.398h31.699v11.887h-31.7Zm0 0"/><path stroke="#000" stroke-miterlimit="10" stroke-width=".39837756" d="M154.105 6.34c0-.875-.71-1.582-1.585-1.582a1.584 1.584 0 1 0 0 3.168c.875 0 1.585-.711 1.585-1.586Zm0 0"/><path fill="none" stroke="#000" stroke-miterlimit="10" stroke-width=".39837756" d="M152.52 123.238V69.543m0-7.926V7.926"/><path fill="none" stroke="#000" stroke-miterlimit="10" stroke-width=".79575668" d="M140.633 69.543h23.773m-23.773-7.926h23.773"/><path fill="#FFF" stroke="#000" stroke-miterlimit="10" stroke-width=".39837756" d="M15.879 6.34c0-.875-.711-1.582-1.586-1.582a1.584 1.584 0 1 0 0 3.168c.875 0 1.586-.711 1.586-1.586Zm0 0"/><g clip-path="url(#c)"><path fill="#FFF" d="M15.879 124.82c0-.875-.711-1.582-1.586-1.582a1.584 1.584 0 1 0 0 3.168c.875 0 1.586-.71 1.586-1.586m0 0"/></g><g clip-path="url(#d)"><path fill="none" stroke="#000" stroke-miterlimit="10" stroke-width=".39837756" d="M15.879 124.82c0-.875-.711-1.582-1.586-1.582a1.584 1.584 0 1 0 0 3.168c.875 0 1.586-.71 1.586-1.586Zm0 0"/></g><path fill="#FFF" stroke="#000" stroke-miterlimit="10" stroke-width=".39837756" d="M213.344 6.34a1.584 1.584 0 1 0-3.168.003 1.584 1.584 0 0 0 3.168-.003Zm0 0"/><g clip-path="url(#e)"><path fill="#FFF" d="M213.344 124.82a1.584 1.584 0 1 0-3.168.003 1.584 1.584 0 0 0 3.168-.003m0 0"/></g><g clip-path="url(#f)"><path fill="none" stroke="#000" stroke-miterlimit="10" stroke-width=".39837756" d="M213.344 124.82a1.584 1.584 0 1 0-3.168.003 1.584 1.584 0 0 0 3.168-.003Zm0 0"/></g><path fill="none" stroke="#000" stroke-miterlimit="10" stroke-width=".39837756" d="M14.293 24.062v83.036"/><path stroke="#000" stroke-miterlimit="10" stroke-width=".39837756" d="M14.293 102.887h-1.98l1.98 4.21 1.98-4.21Zm0 0"/><use xlink:href="#g" x="2.053" y="67.531"/><use xlink:href="#h" x="6.815" y="69.411"/><path fill="none" stroke="#000" stroke-miterlimit="10" stroke-width=".39837756" d="M211.762 24.062v83.036"/><path stroke="#000" stroke-miterlimit="10" stroke-width=".39837756" d="M211.762 102.887h-1.985l1.985 4.21 1.98-4.21Zm0 0"/><use xlink:href="#g" x="214.367" y="67.531"/><use xlink:href="#i" x="219.13" y="69.411"/></svg>