<svg xmlns="http://www.w3.org/2000/svg" xmlns:xlink="http://www.w3.org/1999/xlink" width="226.837" height="51.087"><defs><path id="c" d="M1.563 1.547c-.094.14-.282.266-.407.266-.11 0-.156-.063-.218-.157-.079-.11-.235-.281-.438-.281-.25 0-.328.172-.328.313 0 .203.219.406.812.406.36 0 .75-.172 1.032-.547.234-.344.437-1.016.78-2.688.142-.687.282-1.406.407-2.14l.031-.156h.813c.094 0 .219-.032.234-.11l.047-.187c0-.032-.016-.047-.062-.047h-.97l.095-.5c.14-.657.25-1.063.375-1.297.14-.25.25-.313.359-.313.125 0 .156.079.188.235.03.187.109.422.39.422.25 0 .313-.203.313-.282 0-.328-.297-.64-.828-.64-.172 0-.422.11-.594.25-.281.218-.656.562-.985 2.125l-.578.031c-.156 0-.234.078-.25.14a.7.7 0 0 0-.031.157c0 .015.016.015.031.015h.75c-.219 1-.25 1.532-.36 2.188-.14.844-.28 2.297-.608 2.797m0 0"/><path id="g" d="M1.875-5.14c.14-.563.219-.923.219-.923 0-.062-.016-.093-.11-.093-.234.093-.859.203-1.218.234l-.032.219c0 .016 0 .031.047.031l.266.016c.11 0 .187.062.187.25 0 .093-.015.25-.062.437L.297-1.047c-.063.281-.125.578-.125.75s.047.39.375.39c.39 0 .875-.234 1.281-.89-.047-.094-.078-.156-.203-.156-.266.312-.547.516-.64.516-.079 0-.11-.063-.11-.125 0-.079.031-.204.11-.563Zm0 0"/><path id="d" d="M1.234-2.516c-.015-.28-.015-.468-.046-.546-.016-.032-.032-.047-.094-.047-.188.078-.375.14-.86.203-.015.031 0 .156.016.187.375.047.453.078.453.485V-.86c0 .578-.078.609-.515.64C.14-.172.14-.03.188.016.438 0 .703 0 .984 0s.61 0 .86.016c.031-.047.031-.188 0-.235-.5-.031-.578-.062-.578-.64v-.985c0-.172.078-.343.172-.468.078-.11.234-.344.312-.344a.22.22 0 0 1 .188.094c.046.062.14.156.25.156.171 0 .328-.172.328-.344 0-.14-.125-.344-.422-.344-.328 0-.61.313-.781.578-.032.079-.079.032-.079 0m0 0"/><path id="e" d="M2.719-.656c-.266.265-.469.375-.875.375-.25 0-.547-.14-.766-.5C.938-1.016.86-1.344.86-1.75l1.875.016c.079 0 .125-.047.125-.125 0-.578-.203-1.22-1.187-1.22-.61 0-1.406.579-1.406 1.657 0 .39.093.781.328 1.047.234.281.562.453 1.078.453.531 0 .922-.25 1.203-.625-.031-.062-.078-.094-.156-.11M.875-1.984c.125-.797.625-.86.797-.86.266 0 .578.14.578.735 0 .062-.016.093-.094.093Zm0 0"/><path id="f" d="M.344-.969C.359-.625.39-.297.39 0c.062-.016.14-.016.172-.016.046 0 .093 0 .14.016.188.047.375.078.64.078.391 0 1.126-.203 1.126-.89 0-.485-.344-.766-.828-.938-.422-.172-.703-.266-.703-.656 0-.297.25-.453.5-.453.14 0 .562.062.64.656.047.047.188.031.235-.016.015-.25.03-.515.046-.734-.218-.047-.562-.14-.921-.14-.532 0-1 .343-1 .796 0 .5.234.719.78.953.579.235.72.39.72.688 0 .344-.344.5-.61.5S.906-.25.828-.328C.672-.5.594-.797.563-.984c-.047-.032-.188-.032-.22.015m0 0"/><clipPath id="a"><path d="M1.91 25H16v1H1.91Zm0 0"/></clipPath><clipPath id="b"><path d="M211 25h13.766v1H211Zm0 0"/></clipPath></defs><path fill="none" stroke="#000" stroke-miterlimit="10" stroke-width="1.1749982399999999" d="M26.437 25.75h11.59m0 0h11.586"/><g clip-path="url(#a)"><path fill="none" stroke="#000" stroke-dasharray="2.9363461452 2.9363461452" stroke-miterlimit="10" stroke-width=".39199356" d="M2.105 25.75h12.747"/></g><path fill="none" stroke="#000" stroke-miterlimit="10" stroke-width=".39199356" d="M14.852 25.75h5.793m0 0h5.792"/><path fill="#FFF" stroke="#000" stroke-miterlimit="10" stroke-width=".39199356" d="M16.41 25.75a1.558 1.558 0 1 0-3.117 0 1.559 1.559 0 1 0 3.117 0ZM28 25.75a1.561 1.561 0 1 0-3.122.005A1.561 1.561 0 0 0 28 25.75Zm0 0"/><path fill="none" stroke="#000" stroke-miterlimit="10" stroke-width=".39199356" d="M49.613 25.75v-4.055m0 0v-4.054"/><path stroke="#000" stroke-miterlimit="10" stroke-width=".39199356" d="M51.172 25.75a1.558 1.558 0 1 0-3.117 0 1.559 1.559 0 1 0 3.117 0Zm0 0"/><path fill="none" stroke="#000" stroke-miterlimit="10" stroke-width=".39199356" d="M61.2 17.64a2.897 2.897 0 0 0-5.794 0 2.897 2.897 0 0 0-5.793 0M61.2 17.64v4.055m0 0v4.055M49.613 25.75v4.059m0 0v4.054h3.844m3.898 0H61.2V29.81m0 0V25.75"/><path fill="none" stroke="#000" stroke-miterlimit="10" stroke-width=".78300468" d="M53.457 28.016V39.71m3.898-11.695V39.71"/><path stroke="#000" stroke-miterlimit="10" stroke-width=".39199356" d="M62.758 25.75c0-.86-.7-1.559-1.559-1.559a1.56 1.56 0 0 0 0 3.122c.86 0 1.559-.7 1.559-1.563Zm0 0"/><path fill="none" stroke="#000" stroke-miterlimit="10" stroke-width="1.1749982399999999" d="M61.2 25.75H84.37m0 0h23.176M119.133 25.75h23.172m0 0h23.175"/><path fill="none" stroke="#000" stroke-miterlimit="10" stroke-width=".39199356" d="M165.48 25.75v-4.055m0 0v-4.054"/><path stroke="#000" stroke-miterlimit="10" stroke-width=".39199356" d="M167.039 25.75a1.558 1.558 0 1 0-3.117 0 1.559 1.559 0 1 0 3.117 0Zm0 0"/><path fill="none" stroke="#000" stroke-miterlimit="10" stroke-width=".39199356" d="M177.066 17.64a2.897 2.897 0 0 0-5.793 0 2.897 2.897 0 0 0-5.793 0M177.066 17.64v4.055m0 0v4.055M165.48 25.75v4.059m0 0v4.054h3.844m3.899 0h3.843V29.81m0 0V25.75"/><path fill="none" stroke="#000" stroke-miterlimit="10" stroke-width=".78300468" d="M169.324 28.016V39.71m3.899-11.695V39.71"/><path stroke="#000" stroke-miterlimit="10" stroke-width=".39199356" d="M178.625 25.75c0-.86-.7-1.559-1.559-1.559a1.56 1.56 0 0 0 0 3.122c.86 0 1.559-.7 1.559-1.563Zm0 0"/><path fill="none" stroke="#000" stroke-miterlimit="10" stroke-width="1.1749982399999999" d="M177.066 25.75h11.586m0 0h11.586"/><path fill="none" stroke="#000" stroke-miterlimit="10" stroke-width=".39199356" d="M200.238 25.75h5.797m0 0h5.793"/><path fill="#FFF" stroke="#000" stroke-miterlimit="10" stroke-width=".39199356" d="M201.8 25.75a1.561 1.561 0 1 0-3.122.005 1.561 1.561 0 0 0 3.123-.005Zm0 0"/><g clip-path="url(#b)"><path fill="none" stroke="#000" stroke-dasharray="2.9363461452 2.9363461452" stroke-miterlimit="10" stroke-width=".39199356" d="M211.828 25.75h12.742"/></g><path fill="none" stroke="#000" stroke-miterlimit="10" stroke-width=".39199356" d="M211.828 25.75"/><path fill="#FFF" stroke="#000" stroke-miterlimit="10" stroke-width=".39199356" d="M213.387 25.75a1.56 1.56 0 1 0-3.121.004 1.56 1.56 0 0 0 3.12-.004Zm0 0"/><path fill="none" stroke="#000" stroke-miterlimit="10" stroke-width=".39199356" d="M107.547 25.75"/><path stroke="#000" stroke-miterlimit="10" stroke-width=".39199356" d="M109.105 25.75a1.558 1.558 0 1 0-3.117 0 1.559 1.559 0 1 0 3.117 0Zm0 0"/><path fill="none" stroke="#000" stroke-miterlimit="10" stroke-width=".39199356" d="M119.133 25.75"/><path stroke="#000" stroke-miterlimit="10" stroke-width=".39199356" d="M120.691 25.75c0-.86-.699-1.559-1.558-1.559a1.56 1.56 0 0 0 0 3.122c.86 0 1.558-.7 1.558-1.563Zm0 0"/><use xlink:href="#c" x="66.481" y="45.158"/><use xlink:href="#d" x="70.19" y="47.007"/><use xlink:href="#e" x="72.812" y="47.007"/><use xlink:href="#f" x="75.962" y="47.007"/><path fill="none" stroke="#000" stroke-miterlimit="10" stroke-width=".39199356" d="M65.832 38.496 55.406 25.75"/><path fill="none" stroke="#999" stroke-miterlimit="10" stroke-width=".0098244" d="M165.48 6.055"/><path fill="none" stroke="#000" stroke-miterlimit="10" stroke-width=".39199356" d="M61.492 6.055h103.695"/><path stroke="#000" stroke-miterlimit="10" stroke-width=".39199356" d="m61.98 6.055 2.922 1.73V4.32Zm0 0"/><path fill="none" stroke="#000" stroke-miterlimit="10" stroke-width=".39199356" d="M61.395 8.305v-4.5"/><path stroke="#000" stroke-miterlimit="10" stroke-width=".39199356" d="m164.695 6.055-2.922-1.735v3.465Zm0 0"/><path fill="none" stroke="#000" stroke-miterlimit="10" stroke-width=".39199356" d="M165.285 3.805v4.5"/><path fill="#FFF" d="M109.555 12.11h7.57V0h-7.57Zm0 0"/><use xlink:href="#g" x="112.488" y="9.085"/></svg>