<svg xmlns="http://www.w3.org/2000/svg" xmlns:xlink="http://www.w3.org/1999/xlink" width="164.815" height="213.475"><defs><path id="a" d="m1.906-5.078-.86 4.406c-.062.25-.187.375-.562.406L.22-.234c-.047.03-.063.172-.016.25C.593.016.922 0 1.266 0s.75.016 1.14.016c.031-.032.047-.22.031-.25l-.312-.032c-.344-.03-.437-.14-.39-.406l.859-4.406c.062-.25.187-.375.562-.422l.281-.016a.38.38 0 0 0 .016-.265c-.406 0-.734.015-1.078.015S1.641-5.78 1.25-5.78c-.031.031-.062.218-.031.265l.297.016c.359.031.453.14.39.422m0 0"/><path id="c" d="M3.5-5.844c-.219 0-.75.078-1.094.078S1.72-5.78 1.328-5.78l-.031.015-.031.188c-.016.031 0 .062.046.062l.329.016c.125 0 .312.063.312.281 0 .032 0 .063-.016.094L1.064-.641c-.047.25-.172.36-.547.375l-.22.032C.25-.234.22-.22.22-.172L.172 0l.031.016C.593.016.953 0 1.281 0c.344 0 .688.016 1.094.016L2.406 0l.031-.172c0-.047-.03-.062-.062-.062l-.219-.032C1.875-.28 1.75-.344 1.75-.53c0-.031 0-.063.016-.11l.375-1.953c.718 0 .875.125.953.328l.61 1.563c.171.422.468.797.983.797.125 0 .282-.016.375-.063l.032-.218c-.39 0-.532-.297-.688-.688L3.688-2.75c.39-.125 1.25-.594 1.437-1.531.031-.11.047-.235.047-.344a1.13 1.13 0 0 0-.281-.766c-.328-.406-.86-.453-1.391-.453m-.062.297c.453 0 .984.172.984.89 0 .11-.031.235-.047.391-.219 1.11-.922 1.36-1.75 1.36h-.422l.438-2.219c.046-.266.187-.422.797-.422m0 0"/><path id="e" d="M1.828.094c1.75 0 2.375-1.14 2.672-2.735l.484-2.453c.047-.25.188-.39.563-.406l.219-.016c.046 0 .078-.03.078-.078l.031-.172-.016-.015c-.406 0-.75.015-.937.015-.203 0-.547-.015-.938-.015l-.03.015-.032.172c0 .047.031.078.062.078l.22.016c.296.016.405.094.405.281 0 .032 0 .078-.015.125l-.516 2.625c-.187 1-.547 2.188-2 2.188-.422 0-.734-.188-.937-.438C.953-.969.906-1.25.906-1.53s.047-.594.11-.875L1.53-5.11c.063-.25.203-.375.563-.391l.219-.016c.046 0 .078-.03.078-.078l.046-.172-.03-.015c-.391 0-.75.015-1.094.015S.64-5.78.234-5.78l-.03.015-.032.172c0 .047.031.078.062.078l.22.016c.28.016.405.078.405.266 0 .046 0 .078-.015.125l-.578 3a3 3 0 0 0-.063.625c0 1.28.953 1.578 1.625 1.578m0 0"/><path id="b" d="M2.063-.875v-2.484c0-.422 0-.86.015-.953 0-.032-.015-.032-.031-.032-.406.235-.781.422-1.406.703a.33.33 0 0 0 .109.204c.328-.141.484-.188.61-.188.124 0 .156.172.156.422v2.328c0 .594-.203.625-.703.656-.047.047-.047.188 0 .235C1.172 0 1.422 0 1.813 0c.343 0 .515 0 .875.016.03-.047.03-.188 0-.235-.5-.031-.626-.062-.626-.656m0 0"/><path id="d" d="M1.625-.453V-4l-1.078.203a1 1 0 0 1-.016-.156q-.002-.154.172-.219l1.188-.484h.359v4.203l.875.125c.07.012.11.043.11.094q0 .064-.094.234H.688v-.062q0-.247.234-.282Zm0 0"/><path id="f" d="m.344-.36 1.203-1.39q.703-.809.703-1.594c0-.664-.242-1-.719-1-.187 0-.383.047-.578.14A2.8 2.8 0 0 0 .86-3.5a.7.7 0 0 1-.156.016q-.344 0-.344-.282 0-.433.329-.703.34-.264.937-.265.574 0 .938.328.358.328.359.922 0 .55-.328 1.093-.222.345-.719.907l-.797.843v.016h1.625l.156-.625A.27.27 0 0 1 3-1.281q.188 0 .188.281-.001.283-.079 1H.406Zm0 0"/><path id="h" d="M.344 0a.1.1 0 0 1-.016-.062q-.001-.2.25-.266l.297-.063v-4.171l-.437-.094q-.094-.03-.094-.078c0-.04.023-.11.078-.203h1.656v.062q0 .189-.234.25l-.344.063v4.156h1.656l.188-.844a.5.5 0 0 1 .172-.031q.17.002.172.297c0 .242-.024.57-.063.984Zm0 0"/><path id="j" d="M2.047-4.937q1.828.002 1.828 1.234c0 .648-.352 1.031-1.047 1.156v.016Q4-2.372 4-1.375c0 .406-.164.734-.484.984Q3.012.001 2.109 0H.344a.1.1 0 0 1-.016-.062q-.001-.2.25-.266l.297-.063v-4.171l-.437-.094q-.094-.03-.094-.078c0-.04.023-.11.078-.203ZM2.03-.407q.639 0 .985-.28.311-.248.312-.688A.8.8 0 0 0 3-2.047q-.328-.248-.937-.25H1.5v1.89Zm-.062-2.28c.426 0 .75-.086.968-.266a.82.82 0 0 0 .297-.656q-.001-.921-1.25-.922H1.5v1.843Zm0 0"/><clipPath id="g"><path d="M7 202h15v10.953H7Zm0 0"/></clipPath><clipPath id="i"><path d="M72 202h16v10.953H72Zm0 0"/></clipPath></defs><path fill="#FFF" stroke="#000" stroke-miterlimit="10" stroke-width=".39802245" d="M16.117 13.84c0-.875-.707-1.586-1.582-1.586a1.584 1.584 0 0 0 0 3.168 1.58 1.58 0 0 0 1.582-1.582Zm0 0"/><path fill="none" stroke="#000" stroke-miterlimit="10" stroke-width=".39802245" d="M16.117 13.84h31.106m0 0H79.91v33.195m-9.699-18.433V97.14m9.7-18.434v66.395m-9.7-18.434v68.539m9.7-18.434v33.196H47.222m0 0H14.535"/><path stroke="#000" stroke-miterlimit="10" stroke-width=".39802245" d="M45.492 13.84v1.976L49.7 13.84l-4.207-1.98Zm0 0"/><use xlink:href="#a" x="44.11" y="8.768"/><use xlink:href="#b" x="46.624" y="10.647"/><path fill="none" stroke="#000" stroke-miterlimit="10" stroke-width=".79504735" d="M73.973 78.707V47.035h11.879v31.672Zm0 0"/><path stroke="#000" stroke-miterlimit="10" stroke-width=".39802245" d="M81.496 111.906c0-.875-.71-1.586-1.586-1.586-.87 0-1.582.711-1.582 1.586 0 .871.711 1.582 1.582 1.582.875 0 1.586-.71 1.586-1.582Zm0 0"/><use xlink:href="#c" x="88.053" y="65.019"/><use xlink:href="#d" x="93.321" y="66.897"/><path stroke="#000" stroke-miterlimit="10" stroke-width=".39802245" d="M70.211 92.934h-1.977l1.977 4.207 1.98-4.207Zm0 0"/><use xlink:href="#e" x="59.304" y="64.828"/><use xlink:href="#d" x="64.063" y="66.706"/><path fill="none" stroke="#000" stroke-miterlimit="10" stroke-width=".79504735" d="M73.973 176.773v-31.671h11.879v31.671Zm0 0"/><use xlink:href="#c" x="88.053" y="163.084"/><use xlink:href="#f" x="93.321" y="164.962"/><path stroke="#000" stroke-miterlimit="10" stroke-width=".39802245" d="M70.211 191h-1.977l1.977 4.207 1.98-4.207Zm0 0"/><use xlink:href="#e" x="59.304" y="162.892"/><use xlink:href="#f" x="64.063" y="164.771"/><path stroke="#000" stroke-miterlimit="10" stroke-width=".39802245" d="M79.91 191.64h-1.976l1.976 4.208 1.98-4.207Zm0 0"/><use xlink:href="#a" x="83.091" y="195.326"/><use xlink:href="#f" x="85.605" y="197.204"/><path fill="#FFF" d="M16.117 209.969a1.583 1.583 0 1 0-3.166.002 1.583 1.583 0 0 0 3.166-.002m0 0"/><g clip-path="url(#g)"><path fill="none" stroke="#000" stroke-miterlimit="10" stroke-width=".39802245" d="M16.117 209.969a1.583 1.583 0 1 0-3.166.002 1.583 1.583 0 0 0 3.166-.002Zm0 0"/></g><path fill="none" stroke="#000" stroke-miterlimit="10" stroke-width=".39802245" d="M79.91 111.906h32.692m0 0h32.687v33.196m0 31.671v33.196h-32.687m0 0H79.91"/><path fill="none" stroke="#000" stroke-miterlimit="10" stroke-width=".79504735" d="M139.352 176.773v-31.671h11.875v31.671Zm0 0"/><use xlink:href="#c" x="153.43" y="163.084"/><use xlink:href="#h" x="158.698" y="164.962"/><path stroke="#000" stroke-miterlimit="10" stroke-width=".39802245" d="M145.29 191.64h-1.981l1.98 4.208 1.98-4.207Zm0 0"/><use xlink:href="#a" x="148.467" y="195.326"/><use xlink:href="#h" x="150.981" y="197.204"/><path d="M81.496 209.969c0-.871-.71-1.582-1.586-1.582-.87 0-1.582.71-1.582 1.582 0 .875.711 1.586 1.582 1.586.875 0 1.586-.711 1.586-1.586m0 0"/><g clip-path="url(#i)"><path fill="none" stroke="#000" stroke-miterlimit="10" stroke-width=".39802245" d="M81.496 209.969c0-.871-.71-1.582-1.586-1.582-.87 0-1.582.71-1.582 1.582 0 .875.711 1.586 1.582 1.586.875 0 1.586-.711 1.586-1.586Zm0 0"/></g><path fill="none" stroke="#000" stroke-miterlimit="10" stroke-width=".39802245" d="M14.535 43.21v137.392"/><path stroke="#000" stroke-miterlimit="10" stroke-width=".39802245" d="M14.535 176.395h-1.98l1.98 4.207 1.98-4.207Zm0 0"/><use xlink:href="#e" x="2.098" y="113.86"/><use xlink:href="#j" x="6.856" y="115.738"/></svg>