<svg xmlns="http://www.w3.org/2000/svg" xmlns:xlink="http://www.w3.org/1999/xlink" width="228.512" height="191.385"><defs><path id="f" d="M4.297-2.469H.547V-3h3.75Zm0 0"/><path id="g" d="M2.484-3.031h1.563v.469H2.484v1.671h-.5v-1.671H.422v-.47h1.562v-1.655h.5Zm0 0"/><path id="h" d="m5.484-.516.422.11q.124.033.125.11-.002.063-.11.296H3.626a.5.5 0 0 1-.016-.11c0-.163.102-.28.313-.343l.297-.078-.516-1.531h-2L1.172-.516l.687.11q.124.033.125.11 0 .08-.093.296H-.187c-.008-.05-.016-.086-.016-.11q0-.261.312-.343l.313-.078 2.156-5.625.828-.078ZM2.72-4.937l-.813 2.296h1.61l-.782-2.296Zm0 0"/><path id="i" d="M5.047-4.61q0 1.067-1.266 1.407v.015q.657.129 1.031.516.389.377.391.953-.001.767-.64 1.235Q3.888 0 2.688 0H.344a.5.5 0 0 1-.016-.11c0-.163.102-.28.313-.343l.343-.078v-5.125L.47-5.781c-.086-.008-.125-.04-.125-.094q0-.028.094-.297h2.187c1.613 0 2.422.524 2.422 1.563m-1.11 2.86q0-.5-.312-.781-.363-.296-.984-.297h-.453V-.61h.406q1.343 0 1.344-1.141M3.829-4.5q0-1.061-1.297-1.062h-.344v2.171h.344q.657 0 .985-.328.311-.279.312-.781m0 0"/><path id="j" d="M4.563-5.39q-.423-.265-1.079-.266-.845.002-1.328.578-.515.657-.515 1.953Q1.64-.53 3.438-.531q.607.002 1.015-.172l.266-1.188q.14-.03.234-.03.312 0 .313.546-.001.345-.032.89c-.5.4-1.152.594-1.953.594-.824 0-1.492-.226-2-.687q-.89-.797-.89-2.438-.001-1.593 1-2.484.873-.78 2.093-.781c.664 0 1.266.148 1.797.437q.047.55.047.89 0 .533-.375.532a.5.5 0 0 1-.187-.031Zm0 0"/><path id="k" d="M6.094-3.172Q6.094.002 2.437 0H.345a.5.5 0 0 1-.016-.11c0-.163.102-.28.313-.343l.343-.078v-5.125L.47-5.781c-.086-.008-.125-.04-.125-.094q0-.028.094-.297h2q3.656 0 3.656 3m-1.25.031q0-2.42-2.438-2.421h-.219V-.61h.22q2.437 0 2.437-2.532m0 0"/><clipPath id="a"><path d="M.121 111H7v43H.121Zm0 0"/></clipPath><clipPath id="b"><path d="M215 5h12.902v15H215Zm0 0"/></clipPath><clipPath id="c"><path d="M174 180h1v10.773h-1Zm0 0"/></clipPath><clipPath id="d"><path d="M168 189h13v1.773h-13Zm0 0"/></clipPath><clipPath id="e"><path d="M215 173h12.902v15H215Zm0 0"/></clipPath></defs><path fill="none" stroke="#000" stroke-miterlimit="10" stroke-width=".7944496000000001" d="M182.438 84.39c0-8.1-6.57-14.667-14.672-14.667s-14.668 6.566-14.668 14.668 6.566 14.671 14.668 14.671 14.672-6.57 14.672-14.671Zm0 0"/><path fill="none" stroke="#000" stroke-miterlimit="10" stroke-width=".39772320000000005" d="M174.457 62.437v13.25L162.59 81.13"/><path fill="none" stroke="#000" stroke-miterlimit="10" stroke-width=".7944496000000001" d="M162.59 75.687v17.407"/><path fill="none" stroke="#000" stroke-miterlimit="10" stroke-width=".39772320000000005" d="m162.59 87.656 11.867 5.438v13.254"/><path d="m166.77 89.57.953-2.07 3.68 4.195-5.583-.05Zm0 0"/><path fill="none" stroke="#000" stroke-miterlimit="10" stroke-width=".39772320000000005" d="M162.59 84.39h-12.067M6.297 156.46v-4.241m0-39.559V84.39h36.031v44.094m0 7.91v44.09"/><g clip-path="url(#a)"><path fill="none" stroke="#000" stroke-linejoin="bevel" stroke-miterlimit="10" stroke-width=".7944496000000001" d="M6.453 152.613c-3.277 0-5.933-2.258-5.933-5.043s2.656-5.043 5.933-5.043c-3.277 0-5.933-2.257-5.933-5.043 0-2.789 2.656-5.047 5.933-5.047-3.277 0-5.933-2.257-5.933-5.042 0-2.786 2.656-5.043 5.933-5.043-3.277 0-5.933-2.258-5.933-5.047 0-2.785 2.656-5.043 5.933-5.043"/></g><path stroke="#000" stroke-miterlimit="10" stroke-width=".39772320000000005" d="M43.91 84.39a1.583 1.583 0 1 0-3.166.002 1.583 1.583 0 0 0 3.166-.001Zm0 0"/><path fill="none" stroke="#000" stroke-miterlimit="10" stroke-width=".7944496000000001" d="M54.2 136.395H30.46m23.74-7.91H30.46M30.46 144.305l20.485-20.48"/><path stroke="#000" stroke-miterlimit="10" stroke-width=".7944256900000001" d="m53.637 121.133-4.09 1.012 1.539 1.539 1.535 1.539Zm0 0"/><path fill="#FFF" stroke="#000" stroke-miterlimit="10" stroke-width=".39772320000000005" d="M43.91 84.39a1.583 1.583 0 1 0-3.166.002 1.583 1.583 0 0 0 3.166-.001Zm0 0"/><path stroke="#000" stroke-miterlimit="10" stroke-width=".39772320000000005" d="M43.91 180.484a1.583 1.583 0 1 0-3.166.002 1.583 1.583 0 0 0 3.166-.002Zm0 0"/><path fill="none" stroke="#000" stroke-miterlimit="10" stroke-width=".39772320000000005" d="M6.297 156.46v24.024h36.031M43.91 84.39h34.453v20.07m0 7.911v40.137m0 7.91v20.066"/><path fill="none" stroke="#000" stroke-miterlimit="10" stroke-width=".7944496000000001" d="M90.234 104.46H66.496m23.738 7.911H66.496"/><path stroke="#000" stroke-miterlimit="10" stroke-width=".39772320000000005" d="M79.945 84.39a1.583 1.583 0 1 0-3.165.002 1.583 1.583 0 0 0 3.165-.001ZM79.945 132.437a1.583 1.583 0 1 0-3.165.002 1.583 1.583 0 0 0 3.165-.002Zm0 0"/><path fill="none" stroke="#000" stroke-miterlimit="10" stroke-width=".7944496000000001" d="M90.234 152.508H66.496m23.738 7.91H66.496"/><path stroke="#000" stroke-miterlimit="10" stroke-width=".39772320000000005" d="M79.945 132.437a1.583 1.583 0 1 0-3.165.002 1.583 1.583 0 0 0 3.165-.002ZM79.945 180.484a1.583 1.583 0 1 0-3.165.002 1.583 1.583 0 0 0 3.165-.002Zm0 0"/><path fill="none" stroke="#000" stroke-miterlimit="10" stroke-width=".39772320000000005" d="M42.328 180.484h36.035M78.363 84.39h20.07m7.91 0h20.067"/><path fill="none" stroke="#000" stroke-miterlimit="10" stroke-width=".7944496000000001" d="M98.434 72.523v23.735m7.91-23.735v23.735"/><path stroke="#000" stroke-miterlimit="10" stroke-width=".39772320000000005" d="M79.945 84.39a1.583 1.583 0 1 0-3.165.002 1.583 1.583 0 0 0 3.165-.001ZM127.992 84.39a1.583 1.583 0 1 0-3.166.002 1.583 1.583 0 0 0 3.166-.001Zm0 0"/><path fill="none" stroke="#000" stroke-miterlimit="10" stroke-width=".39772320000000005" d="M78.363 180.484h48.047v-8.199m0-31.644V64.18m0-31.645V12.32H78.363v8.059m0 7.91v8.055"/><path fill="none" stroke="#000" stroke-miterlimit="10" stroke-width=".7944496000000001" d="M132.344 140.64v31.645h-11.867v-31.644Zm0 0"/><path stroke="#000" stroke-miterlimit="10" stroke-width=".39772320000000005" d="M127.992 180.484a1.583 1.583 0 1 0-3.166.002 1.583 1.583 0 0 0 3.166-.002Zm0 0"/><path fill="none" stroke="#000" stroke-miterlimit="10" stroke-width=".7944496000000001" d="M132.344 32.535V64.18h-11.867V32.535Zm0 0"/><path stroke="#000" stroke-miterlimit="10" stroke-width=".39772320000000005" d="M127.992 84.39a1.583 1.583 0 1 0-3.166.002 1.583 1.583 0 0 0 3.166-.001Zm0 0"/><path fill="#FFF" stroke="#000" stroke-miterlimit="10" stroke-width=".39772320000000005" d="M127.992 12.32a1.583 1.583 0 1 0-3.166.002 1.583 1.583 0 0 0 3.166-.002Zm0 0"/><path fill="none" stroke="#000" stroke-miterlimit="10" stroke-width=".7944496000000001" d="M90.234 20.379H66.496m23.738 7.91H66.496"/><path fill="none" stroke="#000" stroke-miterlimit="10" stroke-width=".39772320000000005" d="M78.363 36.344v9.89"/><path fill="none" stroke="#000" stroke-linecap="round" stroke-miterlimit="10" stroke-width=".7944496000000001" d="M72.43 46.234H84.3"/><path fill="none" stroke="#000" stroke-miterlimit="10" stroke-width=".39772320000000005" d="M127.992 12.32h46.465v50.317M174.457 12.32h8.203m31.645 0h8.199"/><path fill="none" stroke="#000" stroke-miterlimit="10" stroke-width=".7944496000000001" d="M182.66 6.387h31.645v11.867H182.66Zm0 0"/><path stroke="#000" stroke-miterlimit="10" stroke-width=".39772320000000005" d="M176.04 12.32a1.583 1.583 0 1 0-3.167.002 1.583 1.583 0 0 0 3.166-.002Zm0 0"/><path fill="#FFF" d="M224.086 12.32a1.583 1.583 0 1 0-3.166.002 1.583 1.583 0 0 0 3.166-.002m0 0"/><g clip-path="url(#b)"><path fill="none" stroke="#000" stroke-miterlimit="10" stroke-width=".39772320000000005" d="M224.086 12.32a1.583 1.583 0 1 0-3.166.002 1.583 1.583 0 0 0 3.166-.002Zm0 0"/></g><path fill="none" stroke="#000" stroke-miterlimit="10" stroke-width=".39772320000000005" d="M126.41 84.39h24.313"/><path fill="#FFF" stroke="#000" stroke-miterlimit="10" stroke-width=".39772320000000005" d="M146.012 84.39a1.583 1.583 0 1 0-3.166.002 1.583 1.583 0 0 0 3.166-.001Zm0 0"/><path fill="none" stroke="#000" stroke-miterlimit="10" stroke-width=".39772320000000005" d="M78.363 132.437h96.094v8.204m0 31.644v8.2"/><path fill="#FFF" stroke="#000" stroke-miterlimit="10" stroke-width=".39772320000000005" d="M176.04 132.437a1.583 1.583 0 1 0-3.167.002 1.583 1.583 0 0 0 3.166-.002Zm0 0"/><path fill="none" stroke="#000" stroke-miterlimit="10" stroke-width=".7944496000000001" d="M168.523 172.285v-31.644h11.868v31.644Zm0 0"/><path stroke="#000" stroke-miterlimit="10" stroke-width=".39772320000000005" d="M176.04 180.484a1.583 1.583 0 1 0-3.167.002 1.583 1.583 0 0 0 3.166-.002Zm0 0"/><g clip-path="url(#c)"><path fill="none" stroke="#000" stroke-miterlimit="10" stroke-width=".39772320000000005" d="M174.457 180.484v9.891"/></g><g clip-path="url(#d)"><path fill="none" stroke="#000" stroke-linecap="round" stroke-miterlimit="10" stroke-width=".7944496000000001" d="M168.523 190.375h11.868"/></g><path fill="none" stroke="#000" stroke-miterlimit="10" stroke-width=".39772320000000005" d="M174.457 130.855v-24.707M126.41 180.484h48.047M174.457 180.484h48.047"/><path fill="#FFF" d="M224.086 180.484a1.583 1.583 0 1 0-3.166.002 1.583 1.583 0 0 0 3.166-.002m0 0"/><g clip-path="url(#e)"><path fill="none" stroke="#000" stroke-miterlimit="10" stroke-width=".39772320000000005" d="M224.086 180.484a1.583 1.583 0 1 0-3.166.002 1.583 1.583 0 0 0 3.166-.002Zm0 0"/></g><use xlink:href="#f" x="220.08" y="177.308"/><use xlink:href="#g" x="220.268" y="20.184"/><use xlink:href="#h" x="39.358" y="81.215"/><use xlink:href="#i" x="123.608" y="9.147"/><use xlink:href="#j" x="141.585" y="81.108"/><use xlink:href="#k" x="177.633" y="135.523"/></svg>