<svg xmlns="http://www.w3.org/2000/svg" xmlns:xlink="http://www.w3.org/1999/xlink" width="228.314" height="71.264"><defs><clipPath id="a"><path d="M223 33h3.809v5H223Zm0 0"/></clipPath><clipPath id="b"><path d="M217 27h9.809v16H217Zm0 0"/></clipPath><clipPath id="c"><path d="M11 3h1v67.535h-1Zm0 0"/></clipPath><clipPath id="d"><path d="M11.66 4H226v62H11.66Zm0 0"/></clipPath><path id="e" d="m.938-3.812-.47.03c-.171.016-.234.079-.25.157a.5.5 0 0 0-.046.14c0 .016.031.016.062.016H.86L.313-1.047C.25-.766.188-.484.188-.313c0 .313.156.407.437.407.39 0 .984-.375 1.281-.922C1.875-.938 1.813-1 1.72-1c-.422.469-.578.563-.719.563a.12.12 0 0 1-.11-.125q0-.118.094-.563l.532-2.344h.859c.11-.031.188-.265.094-.344h-.875l.078-.39c.047-.172.125-.422.125-.531 0-.157-.078-.25-.36-.25-.312 0-.296.406-.39.734Zm0 0"/><path id="f" d="M1.813.094c1.75 0 2.359-1.125 2.656-2.719l.484-2.437c.047-.25.188-.375.547-.407l.219-.015c.047 0 .078-.032.078-.079l.047-.156-.016-.015c-.406 0-.75.015-.953.015-.187 0-.531-.015-.922-.015l-.015.015-.047.157c0 .046.03.078.062.078l.235.015c.28.016.39.094.39.282 0 .046 0 .078-.016.125l-.5 2.609c-.203.984-.562 2.172-2 2.172-.406 0-.718-.188-.921-.438-.188-.234-.25-.515-.25-.797 0-.28.062-.593.109-.875l.531-2.687c.047-.25.188-.36.547-.39l.219-.016c.047 0 .078-.032.078-.079l.031-.156-.015-.015c-.391 0-.75.015-1.094.015-.328 0-.672-.015-1.063-.015l-.03.015-.032.157c0 .046.016.078.062.078l.22.015c.28.016.405.094.405.282 0 .03 0 .062-.015.109L.25-2.094c-.031.235-.062.438-.062.625C.188-.187 1.14.094 1.813.094m0 0"/></defs><path fill="none" stroke="#000" stroke-miterlimit="10" stroke-width=".39492222000000005" d="M11.66 35.27h211.516"/><g clip-path="url(#a)"><path d="m226.219 35.27-2.946-1.747v3.489Zm0 0"/></g><g clip-path="url(#b)"><path fill="none" stroke="#000" stroke-miterlimit="10" stroke-width=".39492222000000005" d="m226.219 35.27-2.946-1.747v3.489Zm0 0"/></g><g clip-path="url(#c)"><path fill="none" stroke="#000" stroke-miterlimit="10" stroke-width=".39492222000000005" d="M11.66 70.34V3.633"/></g><path stroke="#000" stroke-miterlimit="10" stroke-width=".39492222000000005" d="M11.66.59 9.918 3.535h3.488Zm0 0"/><g clip-path="url(#d)"><path fill="none" stroke="#000" stroke-miterlimit="10" stroke-width=".78885466" d="m11.875 35.266.215-.196.215-.191.43-.39.218-.196.43-.39.215-.192.43-.39.214-.192.215-.195.215-.192.215-.195.43-.383.214-.195.645-.574.215-.188.43-.383.214-.187.215-.192 1.074-.937.215-.184.215-.187.86-.735.214-.18.215-.183.43-.36.218-.179.215-.18 1.074-.879.86-.687.86-.672.859-.656.644-.48.86-.626.644-.457.645-.445.644-.434.43-.28.219-.142.43-.273.214-.133.215-.136.215-.13.215-.132.43-.258.644-.375.43-.242.644-.352.43-.226.644-.328.43-.211.43-.204.644-.292.43-.188.43-.18.644-.257.215-.083.219-.078.215-.082.214-.074.215-.078.215-.07.215-.075.215-.066.215-.07.214-.067.645-.187.215-.059.644-.164.43-.101.215-.047.215-.043.215-.047.644-.117.43-.07.43-.063.43-.055.429-.047.43-.039.43-.031.218-.012.215-.011.644-.024h.215l.215-.004.215.004h.215l.215.008.214.004.215.008.43.023.43.031.43.04.429.046.645.082.214.035.215.032.215.035.43.078.644.129.215.047.43.101.644.164.22.059.214.059.215.062.215.067.214.062.86.281.215.078.215.075.214.078.645.246.43.172.43.18.429.187.644.293.43.203.645.316.215.11.214.113.215.11.215.117.215.113.43.234.214.121.22.121.644.375.644.387.43.266.86.547.214.14.215.145.215.14.43.29.644.445.86.61.43.312.214.16.215.156.215.16.215.164.214.16.645.493.215.168.218.168.43.336.86.687 1.074.879 1.074.898.43.368.215.18.214.187.43.367.215.187.215.184.644.563.215.191.43.375 1.289 1.148.219.192.43.383.214.195.215.191.215.196.215.191.644.586.215.191 1.074.977.215.191 1.29 1.172.214.192.43.39.215.192.43.39.214.192.215.195.644.574.215.196.215.191.219.191.215.188.43.383.214.187.215.192 1.074.937.215.184.215.187 1.074.918 1.074.899.215.175.215.18.43.352.215.171.215.176.43.344.214.168.215.172.644.504.215.164.219.164.43.328.86.64.429.313.215.152.214.157.215.152.215.149.215.152.215.148.215.145.215.148.43.29.644.421.644.41.43.266.86.516.214.125.215.12.215.126.215.117.215.121.218.117.215.117.43.227.644.328.43.211.645.305.43.195.429.187.644.27.215.086.645.246.43.156.43.149.644.21.215.067.644.188.43.117.215.054.218.051.215.055.645.14.644.13.215.035.215.039.215.03.215.036.215.031.43.055.429.047.43.039.644.047.215.008.215.011.215.008.43.008h.644l.215-.008.215-.004.214-.008.43-.023.43-.031.219-.016.214-.023.215-.02.215-.023.43-.055.644-.094.215-.035.645-.117.215-.043.644-.14.215-.051.644-.164.43-.118.43-.125.43-.132.43-.141.644-.223.215-.078.644-.246.219-.086.215-.086.43-.18.644-.28.43-.196.43-.203.644-.317.43-.218.43-.227.644-.352.644-.363.43-.25.644-.387.645-.398.43-.273.644-.422.219-.145.644-.433.43-.297.86-.61.43-.312.214-.16.215-.157.43-.32.859-.656.215-.168.215-.164.215-.168.214-.172.215-.168.43-.344.215-.175.215-.172.859-.703.644-.54.22-.18.214-.179.215-.184.215-.18.43-.366.214-.188.43-.367 1.074-.938.215-.191.215-.187.215-.192.215-.187 1.074-.957.215-.196.43-.383.214-.195.215-.191.43-.39.215-.192.43-.39.214-.192.645-.586.218-.196.645-.586.215-.19.86-.782.214-.192.43-.39.214-.192.43-.39.43-.383.215-.195 1.289-1.149.215-.187.214-.192.215-.187.215-.192.86-.75.214-.183.215-.188.645-.55.219-.184.214-.184 1.29-1.078.644-.527.215-.172.215-.176.644-.515.215-.168.215-.172.215-.164.43-.336.644-.492.644-.48.215-.157.215-.16.215-.157.215-.152.215-.156.215-.153.214-.148.215-.152.215-.149.219-.148.644-.434.215-.14.215-.145.215-.137.215-.14.215-.137.214-.133.215-.137.215-.132.86-.516.43-.25.429-.242.215-.117.215-.121.214-.114.215-.117.215-.113.645-.328.644-.317.215-.101.644-.293.43-.188.219-.093.215-.09.644-.258.43-.164.43-.156.644-.223.215-.07.645-.2.43-.125.429-.117.43-.11.43-.1.429-.095.43-.085.43-.079.644-.105.215-.031.43-.055.214-.023.219-.024.215-.023.215-.02.43-.031.644-.035.215-.008.644-.012h.215l.43.008.644.023.215.012.645.047.215.02.644.07.215.027.645.094.214.035.645.117.215.043.215.047.218.047.215.047.43.102.43.109.43.117.429.125.43.133.644.21.215.075.645.234.43.164.429.172.43.18.214.094.215.09.645.293.644.304.215.106.215.11.215.105.215.113.218.11.215.113.86.468.215.121.859.5.215.13.215.132.214.129.215.133.215.137.215.132.215.141.215.137.644.422.43.289.86.593.429.305.215.156.215.153.214.156.215.16.215.156.215.16.219.16 1.074.821.43.336.214.172.215.168.645.515.215.176.215.172.43.352.214.18.215.175.86.719.429.367.215.18.215.187.43.367.214.188.215.183.86.75.214.192.215.187.219.192.215.187 1.289 1.149.215.195.214.191.215.196.215.191.215.195.215.192.43.39.214.192 1.29 1.172"/></g><use xlink:href="#e" x="221.44" y="43.402"/><use xlink:href="#f" x="3.785" y="9.094"/></svg>