<svg xmlns="http://www.w3.org/2000/svg" xmlns:xlink="http://www.w3.org/1999/xlink" width="234.888" height="288.307"><defs><path id="c" d="M-1.094-5.516h-3.578c-.75 0-.781-.156-.812-.78-.063-.063-.25-.063-.297 0 0 .359.015.812.015 1.155 0 .329-.015.766-.015 1.157.047.046.234.046.297 0 .03-.625.062-.782.812-.782h1.422v3.063h-1.422c-.75 0-.781-.156-.812-.781-.063-.047-.25-.047-.297 0 0 .343.015.703.015 1.156s-.015.812-.015 1.156c.047.063.234.063.297 0 .03-.625.062-.781.812-.781h3.578c.75 0 .797.156.813.781.062.063.25.063.297 0C.016-.562 0-.984 0-1.328c0-.328.016-.766.016-1.156-.047-.047-.235-.047-.297 0-.016.625-.063.78-.813.78h-1.781v-3.062h1.781c.75 0 .797.157.813.782.062.046.25.046.297 0C.016-4.391 0-4.812 0-5.141c0-.343.016-.765.016-1.156-.047-.062-.235-.062-.297 0-.016.625-.063.781-.813.781m0 0"/><path id="d" d="M-2.89-2.531c0-.75.203-.781.609-.813.062-.047.062-.234 0-.297-.219.016-.485.016-.781.016-.313 0-.547 0-.766-.016-.063.063-.063.25 0 .297.484.031.61.063.61.813v.828h-1.61c-.484 0-.578-.11-.578-.5v-.39c0-.954.36-1.173.968-1.376a.8.8 0 0 0-.046-.281c-.36.047-1.22.188-1.297.203-.016 0-.016 0-.016.031.016.157.031.204.031.422v2.282c0 .28-.015.796-.015 1.156.047.047.234.047.297 0 .03-.625.062-.781.812-.781h3.578c.75 0 .797.156.813.78.062.048.25.048.297 0C.016-.468 0-.921 0-1.327c0-.39.016-.828.016-1.14-.047-.063-.235-.063-.297 0-.016.624-.063.765-.813.765H-2.89Zm0 0"/><path id="e" d="M-2.36-4.766c-1.468 0-2.343 1.016-2.343 2.297 0 1.39 1.094 2.203 2.484 2.203C-.813-.266.078-1.28.078-2.5c0-.797-.344-1.422-.906-1.828-.406-.281-.922-.438-1.531-.438m-2.093 2.391c0-.937.797-1.703 2.234-1.703 1.281 0 2.031.61 2.031 1.437 0 .86-.78 1.688-2.156 1.688-1.5 0-2.11-.703-2.11-1.422m0 0"/><path id="f" d="M-3.75-1.234c-.594 0-.625-.11-.64-.657-.048-.046-.204-.046-.235 0 0 .344.016.688.016.97 0 .28-.016.577-.016.843.031.047.188.047.234 0 .016-.422.047-.547.641-.547h2.078c1.469 0 1.75-.937 1.75-1.672 0-1.469-.922-1.812-2.187-1.812H-3.75c-.562 0-.594-.125-.64-.563-.048-.031-.204-.031-.235 0 0 .281.016.578.016.734s-.016.5-.016.829c.031.046.188.046.234 0 .047-.532.063-.657.641-.657h1.766c.797 0 1.765.11 1.765 1.313 0 .344-.125.64-.343.86-.329.343-.875.359-1.344.359Zm0 0"/><path id="g" d="M-.875-2.5h-2.734c-.453 0-.735-.078-.735-.328v-.156c0-.547.188-.875.75-1a.7.7 0 0 0-.047-.25 5.6 5.6 0 0 1-1.015.093s-.016.016-.016.032c.016.234.063 1.03.063 1.593v.625c0 .547-.047 1.391-.063 1.657 0 .015.016.03.016.03.328.032.703.11 1.047.188.03-.078.03-.156.03-.25-.577-.14-.765-.468-.765-.937v-.36c0-.265.282-.328.719-.328h2.75c.594 0 .625.11.656.688.047.047.188.047.235 0C0-1.547 0-1.922 0-2.203c0-.266 0-.64.016-1-.047-.031-.188-.031-.235 0-.031.578-.062.703-.656.703m0 0"/><path id="q" d="M-.875-1.36H-3.75c-.594 0-.625-.124-.64-.624-.048-.047-.204-.047-.235 0 0 .312.016.64.016.922 0 .234-.016.593-.016.921.031.047.188.047.234 0 .016-.5.047-.625.641-.625h2.875c.594 0 .625.125.656.625.047.047.188.047.235 0C0-.453 0-.812 0-1.062c0-.266 0-.61.016-.922-.047-.047-.188-.047-.235 0-.031.5-.062.625-.656.625m0 0"/><path id="r" d="M-3.656-3.984h2.328c.14 0 .219 0 .219.062 0 .016-.125.125-.391.344l-3.11 2.453-.015.953c.031.047.188.047.234 0a.65.65 0 0 1 .454-.562h2.984c.64 0 .687.125.734.625.047.047.188.047.235 0C0-.422 0-.734 0-.906s0-.5.016-.797c-.047-.047-.188-.047-.235 0-.047.5-.078.625-.734.625h-2.188c-.25 0-.359 0-.359-.063 0-.046.094-.125.25-.234l3.156-2.5c.094-.078.172-.172.172-.297 0-.094-.094-.156-.234-.156h-3.5c-.64 0-.688-.125-.735-.625-.046-.047-.203-.047-.234 0 0 .297.016.625.016.797 0 .156-.016.484-.016.797.031.046.188.046.234 0 .047-.5.079-.625.735-.625m0 0"/><path id="h" d="M2.484-3.031h1.563v.469H2.484v1.671h-.5v-1.671H.422v-.47h1.562v-1.655h.5Zm0 0"/><path id="i" d="M1.125-5.812h2.563l-.063.78H1.531l-.125 1.407q1.296.066 1.875.547c.364.305.547.765.547 1.39 0 .493-.18.915-.531 1.266q-.534.533-1.39.531Q1.185.108.827-.156a.61.61 0 0 1-.281-.516q0-.405.39-.547.171.376.282.5.31.328.843.328.514 0 .829-.328c.195-.207.297-.476.297-.812q0-.732-.563-1.047-.55-.328-1.781-.328Zm0 0"/><path id="j" d="M2.234-.39q1.092.001 1.094-2.516-.002-2.515-1.094-2.516-1.094.001-1.093 2.516c0 1.68.363 2.515 1.093 2.515m-.03.5q-.88 0-1.376-.75Q.296-1.42.297-2.907c0-.977.187-1.735.562-2.266.352-.5.829-.75 1.422-.75q.873 0 1.36.75.528.784.53 2.266 0 1.47-.562 2.265-.533.75-1.406.75m0 0"/><path id="k" d="M5.844-6.172v.078c0 .168-.102.278-.297.328l-.234.047L3.28 0h-.734L.453-5.703l-.375-.094q-.124-.03-.125-.125c0-.05.035-.133.094-.25H2.03c.008.031.016.059.016.078 0 .168-.102.274-.297.313l-.375.093 1.64 4.782h.016L4.734-5.72l-.687-.093q-.127-.029-.125-.11c0-.039.031-.125.094-.25Zm0 0"/><path id="l" d="M2.672.047c.11.11.344.11.453 0v-2.14h2.14c.11-.11.11-.344 0-.454h-2.14v-2.14c-.11-.11-.344-.11-.453 0v2.14H.532c-.11.11-.11.344 0 .453h2.14Zm0 0"/><path id="m" d="M2.844-1.687c0 .843-.438 1.468-.969 1.468-.344 0-.469-.218-.594-.39-.125-.157-.265-.297-.453-.297-.172 0-.344.156-.344.328 0 .375.766.672 1.266.672 1.11 0 1.89-.813 1.89-1.938 0-.875-.593-1.656-1.593-1.656-.39 0-.719.078-.875.14l.172-1.484c.343.032.625.078 1.047.078q.398 0 .937-.046l.156-.61-.062-.031c-.516.047-1 .094-1.469.094-.328 0-.656-.016-.969-.047L.672-2.828a2.9 2.9 0 0 1 1.14-.219c.579 0 1.032.39 1.032 1.36m0 0"/><path id="n" d="M4-5.484c.672.046.672.28.484.765L3.063-1.14H3.03L1.594-4.766c-.203-.546-.14-.656.468-.718.047-.063.047-.25 0-.297-.359 0-.765.015-1.093.015-.313 0-.625-.015-.922-.015-.063.047-.047.234 0 .297.5.046.562.187.812.812L2.625-.094c.047.14.11.203.203.203s.156-.078.203-.203l1.86-4.562c.172-.422.312-.766.875-.828.046-.063.046-.25 0-.297-.266 0-.578.015-.782.015-.218 0-.609-.015-.984-.015-.047.047-.047.234 0 .297m0 0"/><path id="D" d="M1.828.094c1.75 0 2.375-1.14 2.672-2.735l.484-2.453c.047-.25.188-.39.563-.406l.219-.016c.046 0 .078-.03.078-.078l.031-.172-.016-.015c-.406 0-.75.015-.937.015-.203 0-.547-.015-.938-.015l-.03.015-.032.172c0 .047.031.078.062.078l.22.016c.296.016.405.094.405.281 0 .032 0 .078-.015.125l-.516 2.625c-.187 1-.547 2.188-2 2.188-.422 0-.734-.188-.937-.438C.953-.969.906-1.25.906-1.53s.047-.594.11-.875L1.53-5.11c.063-.25.203-.375.563-.391l.219-.016c.046 0 .078-.03.078-.078l.046-.172-.03-.015c-.391 0-.75.015-1.094.015S.64-5.78.234-5.78l-.03.015-.032.172c0 .047.031.078.062.078l.22.016c.28.016.405.078.405.266 0 .046 0 .078-.015.125l-.578 3a3 3 0 0 0-.063.625c0 1.28.953 1.578 1.625 1.578m0 0"/><path id="I" d="M3.5-5.844c-.219 0-.75.078-1.094.078S1.72-5.78 1.328-5.78l-.031.015-.031.188c-.016.031 0 .062.046.062l.329.016c.125 0 .312.063.312.281 0 .032 0 .063-.016.094L1.064-.641c-.047.25-.172.36-.547.375l-.22.032C.25-.234.22-.22.22-.172L.172 0l.031.016C.593.016.953 0 1.281 0c.344 0 .688.016 1.094.016L2.406 0l.031-.172c0-.047-.03-.062-.062-.062l-.219-.032C1.875-.28 1.75-.344 1.75-.53c0-.031 0-.063.016-.11l.375-1.953c.718 0 .875.125.953.328l.61 1.563c.171.422.468.797.983.797.125 0 .282-.016.375-.063l.032-.218c-.39 0-.532-.297-.688-.688L3.688-2.75c.39-.125 1.25-.594 1.437-1.531.031-.11.047-.235.047-.344a1.13 1.13 0 0 0-.281-.766c-.328-.406-.86-.453-1.391-.453m-.062.297c.453 0 .984.172.984.89 0 .11-.031.235-.047.391-.219 1.11-.922 1.36-1.75 1.36h-.422l.438-2.219c.046-.266.187-.422.797-.422m0 0"/><path id="s" d="M3.484-5.937c.313 0 .75.421.75 1.343 0 .266-.03.547-.109.89-.875 0-1.25-.187-1.422-.374a1.18 1.18 0 0 1-.265-.734c0-.313.156-1.125 1.046-1.125m-1.64 1.25c0 .296.093.515.281.78.266.376.781.548 1.922.548-.234 1.03-.938 3.187-1.75 3.187-.422 0-.656-.203-.656-.672 0-.156.015-.328.062-.531l.344-1.469h-.125c-.188 0-.297.203-1.14.328l-.016.266c.14-.031.25-.047.359-.047.078 0 .125.031.125.156 0 .063-.016.141-.047.25l-.125.532c-.047.203-.062.39-.062.562 0 .625.359.906 1.109.906 1.234 0 2.078-1.484 2.516-3.468.187 0 .297.078.375.14.078-.125.172-.265.28-.375-.093-.078-.265-.11-.546-.11.063-.25.078-.53.078-.796 0-.906-.39-1.734-1.453-1.734-.61 0-1.531.422-1.531 1.547m0 0"/><path id="t" d="M-.328-.734h-3.469l-.094.375q-.012.08-.062.078a.5.5 0 0 1-.172-.063V-3.03a9 9 0 0 1 .703-.047c.18 0 .266.058.266.172a.4.4 0 0 1-.016.125l-.625.156v1.375h1.547v-1.328h.328v1.328h1.578v-1.422l-.64-.156a.3.3 0 0 1-.032-.14c0-.102.086-.157.25-.157q.237.002.766.063v2.78h-.047q-.17.001-.219-.202Zm0 0"/><path id="u" d="M-.312-.61h-2.22l-.062.438h-.047c-.113 0-.175-.07-.187-.219l-.078-.703h2.594l.078-.36q.018-.076.078-.077.08.002.156.062v1.266h-.047q-.123 0-.187-.188Zm-3.579.11a.34.34 0 0 1-.25-.094.35.35 0 0 1-.109-.25c0-.101.04-.187.11-.25a.34.34 0 0 1 .25-.093q.14 0 .234.093a.34.34 0 0 1 .094.25q0 .143-.094.25a.32.32 0 0 1-.235.094m0 0"/><path id="v" d="M-.312-.61h-2.22l-.062.438h-.047c-.113 0-.175-.07-.187-.219l-.078-.703.406.032v-.016a1.8 1.8 0 0 1-.281-.344 1.26 1.26 0 0 1-.156-.64q0-.436.28-.672.283-.248.782-.25h1.563l.078-.36q.018-.076.078-.078c.054 0 .105.024.156.063v1.265h-.047q-.123 0-.187-.187L-.312-2.5h-1.532q-.358.002-.547.203a.68.68 0 0 0-.14.438q0 .439.281.765h1.938l.078-.36q.018-.076.078-.077.08.002.156.062v1.266h-.047q-.123 0-.187-.188Zm0 0"/><path id="w" d="M-1.984-.328a.9.9 0 0 1-.72-.328q-.233-.31-.233-.766 0-.232.078-.453v-1.016l.312.063v.5a.92.92 0 0 1 .563-.188c.304 0 .543.118.718.344q.251.3.25.781c0 .094-.004.196-.015.297q.094.188.265.188.222 0 .22-.328v-.672q0-.387.171-.61a.57.57 0 0 1 .484-.234q.47.001.797.406.36.439.36 1.14C1.266-.491 1.03-.14.563-.14q-.515.002-.72-.546-.123.234-.405.234c-.22 0-.399-.133-.547-.406q-.247.531-.875.53m.672-1.094c0-.414-.223-.625-.672-.625q-.31.001-.47.172a.62.62 0 0 0-.171.453q.001.61.64.61.674 0 .673-.61m1.234.266q.001.129-.016.234.154.298.5.297c.352 0 .532-.219.532-.656 0-.313-.063-.555-.188-.735q-.174-.248-.453-.25-.375.002-.375.485Zm0 0"/><path id="x" d="M-1.86-1.781q-.388.001-.577.125-.188.111-.188.406.002.19.063.344.156.081.53.14v.125q.002.299-.25.297c-.175 0-.327-.101-.452-.312a1.25 1.25 0 0 1-.203-.688q.001-.92 1.015-.922h1.297q.345.001.344-.203c0-.094-.024-.164-.078-.219a.34.34 0 0 1 .172-.046c.042 0 .09.039.14.109.059.094.094.21.094.344q.002.421-.406.469v.015q.438.284.437.813-.002.346-.203.547a.78.78 0 0 1-.562.203q-.437 0-.672-.438-.201-.374-.203-.953v-.156Zm1.563.593c0-.218-.101-.414-.312-.593h-.688v.156c.055.586.234.875.547.875.305 0 .453-.145.453-.437m0 0"/><path id="y" d="M-.375-.672a.7.7 0 0 0 .125-.437q0-.516-.39-.516-.17.001-.329.172-.076.11-.265.39c-.145.243-.27.407-.375.5a.8.8 0 0 1-.563.235.67.67 0 0 1-.562-.266q-.201-.265-.203-.687.002-.388.203-.64.235-.015.359-.016.298.001.297.218v.063l-.422.062a.8.8 0 0 0-.125.407q.002.438.344.437.234.001.469-.344.205-.31.406-.625.268-.328.625-.328.376 0 .625.281.234.268.234.72 0 .437-.172.718a3 3 0 0 1-.484.047c-.195 0-.297-.07-.297-.219 0-.02.008-.035.016-.047Zm0 0"/><path id="z" d="M-1.64-1.969v1.61H-2v-1.61Zm0 0"/><path id="A" d="M.89-.578H-2.53l-.063.437a.1.1 0 0 1-.047.016q-.17 0-.187-.234l-.078-.703.406.046v-.015q-.436-.358-.437-.89 0-.516.374-.813.362-.296 1.016-.297.785 0 1.188.406.39.375.39 1.063 0 .252-.078.5h.938l.078-.36q.014-.077.062-.078.094.002.157.063v1.265h-.032c-.093 0-.164-.062-.203-.187Zm-3.437-1.156q0 .39.281.672h1.782a.87.87 0 0 0 .187-.563q0-.904-1.219-.906-.497 0-.765.219-.265.204-.266.578m0 0"/><path id="B" d="m-2.531-.531-.063.437a.1.1 0 0 1-.047.016c-.113 0-.175-.07-.187-.219l-.078-.719h1.875c.468 0 .703-.195.703-.593q0-.452-.297-.735h-1.906l-.063.438h-.047c-.113 0-.175-.07-.187-.219l-.078-.703h2.578l.062-.438h.047q.176.001.188.22l.062.671h-.39q.438.362.437.906Q.078-.53-1-.53Zm0 0"/><path id="C" d="m-.328-3-1.094.39v1.485l1.094.39.078-.452q.02-.078.078-.079c.031 0 .09.024.172.063v1.25Q-.03.06-.047.063q-.187 0-.234-.204l-.031-.171-3.813-1.454-.047-.375 3.86-1.421.062-.266q.033-.094.078-.094.019 0 .172.078v1.266a.1.1 0 0 1-.047.015q-.17.001-.219-.203Zm-1.406 1.766V-2.5l-1.75.625Zm0 0"/><path id="E" d="M1.063-4.61c-.266 0-.641-.015-.922-.015-.047.031-.047.188 0 .234.5.016.625.047.625.641v2.875c0 .594-.125.625-.625.656-.047.047-.047.188 0 .235C.42 0 .797 0 1.063 0c.265 0 .453.016 1.046.016 1.422 0 1.813-.72 1.813-1.328 0-.688-.485-1.079-1.11-1.266v-.016c.36-.172.688-.547.688-.937 0-.469-.219-1.094-1.547-1.094-.25 0-.64.016-.89.016m.296 2.235h.5c.985 0 1.391.547 1.391 1.188 0 .53-.203.968-1.297.968-.5 0-.594-.187-.594-.625Zm0-1.562c0-.376 0-.454.625-.454.407 0 .922.22.922.954 0 .609-.422.812-1.015.812h-.532Zm0 0"/><path id="F" d="M1.36-.875V-3.75c0-.594.124-.625.624-.64.047-.048.047-.204 0-.235-.312 0-.64.016-.921.016-.235 0-.594-.016-.922-.016-.047.031-.047.188 0 .234.5.016.625.047.625.641v2.875c0 .594-.125.625-.625.656-.047.047-.047.188 0 .235C.453 0 .813 0 1.063 0c.265 0 .609 0 .921.016.047-.047.047-.188 0-.235-.5-.031-.625-.062-.625-.656m0 0"/><path id="G" d="M1.11-.562 1.5-1.61c.031-.094.078-.11.25-.11h1.516l.406 1.203c.094.25-.172.266-.516.297-.047.047-.047.188 0 .235C3.406 0 3.812 0 4.094 0s.562 0 .812.016c.032-.047.032-.188 0-.235-.281-.031-.531-.047-.64-.39L2.78-4.703c-.11.062-.297.14-.39.14L.766-.733C.578-.281.359-.25.046-.22 0-.172 0-.03.047.016.235 0 .47 0 .689 0c.296 0 .656 0 .921.016.032-.047.032-.188 0-.235C1.33-.25 1-.266 1.11-.562m.765-1.47c-.156 0-.203-.015-.172-.093l.734-1.844h.032l.687 1.938Zm0 0"/><path id="H" d="M2.828-4.516c-.422-.062-.406-.187-1.11-.187C1-4.703.36-4.234.36-3.47c0 .75.625 1.094 1.266 1.344.422.156.953.36.953 1.063 0 .578-.328.875-.89.875C1.015-.187.593-.5.422-1.203c-.078-.031-.156-.016-.234.016.03.562.062.75.156 1.093.437 0 .64.172 1.281.172.328 0 .625-.078.875-.25.422-.25.672-.687.672-1.14 0-.766-.563-1.094-1.156-1.329C1.594-2.797.875-3.062.875-3.656c0-.406.36-.813.781-.813.703 0 .922.453 1.063.922.078.016.172 0 .234-.047a11 11 0 0 0-.125-.922m0 0"/><path id="J" d="M2.063-.875v-2.484c0-.422 0-.86.015-.953 0-.032-.015-.032-.031-.032-.406.235-.781.422-1.406.703a.33.33 0 0 0 .109.204c.328-.141.484-.188.61-.188.124 0 .156.172.156.422v2.328c0 .594-.203.625-.703.656-.047.047-.047.188 0 .235C1.172 0 1.422 0 1.813 0c.343 0 .515 0 .875.016.03-.047.03-.188 0-.235-.5-.031-.626-.062-.626-.656m0 0"/><path id="K" d="M.438-3.344c0 .14.14.281.28.281.126 0 .345-.14.345-.296 0-.047-.016-.094-.032-.141-.015-.062-.062-.125-.062-.172 0-.187.187-.437.719-.437.25 0 .609.172.609.859 0 .453-.156.828-.578 1.266l-.532.515C.485-.75.375-.406.375.016c0 0 .36-.016.594-.016h1.25c.234 0 .562.016.562.016a8 8 0 0 0 .172-1.125c-.047-.047-.14-.063-.219-.047-.109.515-.234.687-.5.687H.97c0-.343.484-.828.531-.86l.719-.702c.406-.39.719-.703.719-1.25 0-.766-.641-1.078-1.22-1.078-.78 0-1.28.578-1.28 1.015m0 0"/><clipPath id="a"><path d="M218.719 145.207h15.832v6.336h-15.832Zm9.5 6.336h6.332v3.164h-6.332Zm-9.5 3.164h15.832v6.336h-15.832Zm0 0"/></clipPath><clipPath id="b"><path d="M213 140h21.55v26H213Zm0 0"/></clipPath><clipPath id="o"><path d="M.227 145.207h15.832v6.336H.227Zm0 6.336h6.332v3.164H.227Zm0 3.164h15.832v6.336H.227Zm0 0"/></clipPath><clipPath id="p"><path d="M.227 140H21v26H.227Zm0 0"/></clipPath></defs><path fill="none" stroke="#000" stroke-miterlimit="10" stroke-width=".7950872000000001" d="M21.418 189.648h26.09v-73.046h-26.09Zm0 0"/><path fill="none" stroke="#000" stroke-miterlimit="10" stroke-width=".3980424" d="M47.508 121.82h30.004m5.215 0h36.152m15.656 0h6.149"/><path fill="none" stroke="#000" stroke-miterlimit="10" stroke-width=".7950872000000001" d="M77.512 113.992v15.653m5.215-15.653v15.653"/><path stroke="#000" stroke-miterlimit="10" stroke-width=".3980424" d="M114.312 121.82c0-.875-.707-1.586-1.582-1.586a1.584 1.584 0 0 0 0 3.168c.875 0 1.582-.71 1.582-1.582Zm0 0"/><path fill="none" stroke="#000" stroke-miterlimit="10" stroke-width=".7950872000000001" d="M132.969 117.906h-12.524c-.863 0-1.566 1.75-1.566 3.914 0 2.16.703 3.91 1.566 3.91h12.524c.863 0 1.566-1.75 1.566-3.91 0-2.164-.703-3.914-1.566-3.914"/><path fill="none" stroke="#000" stroke-miterlimit="10" stroke-width=".7950872000000001" d="M132.969 117.906c-.864 0-1.567 1.75-1.567 3.914 0 2.16.703 3.91 1.567 3.91"/><path fill="none" stroke="#000" stroke-miterlimit="10" stroke-width=".3980424" d="M132.969 121.82h1.566M158.945 102.25v9.523h-9.133"/><path fill="none" stroke="#000" stroke-miterlimit="10" stroke-width=".7950872000000001" d="M149.812 109.621v3.945m0 1.438v3.586m0 1.433v3.946"/><path fill="none" stroke="#000" stroke-miterlimit="10" stroke-width=".3980424" d="M149.812 116.797h9.333m-9.333 5.023h9.133v9.524"/><path fill="none" stroke="#000" stroke-miterlimit="10" stroke-width=".7950872000000001" d="M147.621 111.574v10.442"/><path d="M155.398 116.797v2.281l-5.097-2.281 5.097-2.281Zm0 0"/><path fill="none" stroke="#000" stroke-miterlimit="10" stroke-width=".3980424" d="M147.621 121.82h-7.137M158.945 116.797v14.348"/><path stroke="#000" stroke-miterlimit="10" stroke-width=".3980424" d="M160.055 121.82a1.109 1.109 0 1 0-2.218-.001 1.109 1.109 0 0 0 2.218.001Zm0 0"/><path fill="none" stroke="#000" stroke-miterlimit="10" stroke-width=".3980424" d="M47.508 184.43h30.004m5.215 0h36.152m15.656 0h6.149"/><path fill="none" stroke="#000" stroke-miterlimit="10" stroke-width=".7950872000000001" d="M77.512 176.605v15.653m5.215-15.653v15.653"/><path stroke="#000" stroke-miterlimit="10" stroke-width=".3980424" d="M114.312 184.43a1.583 1.583 0 1 0-3.165.001 1.583 1.583 0 0 0 3.165-.001Zm0 0"/><path fill="none" stroke="#000" stroke-miterlimit="10" stroke-width=".7950872000000001" d="M132.969 180.52h-12.524c-.863 0-1.566 1.75-1.566 3.91 0 2.164.703 3.914 1.566 3.914h12.524c.863 0 1.566-1.75 1.566-3.914 0-2.16-.703-3.91-1.566-3.91"/><path fill="none" stroke="#000" stroke-miterlimit="10" stroke-width=".7950872000000001" d="M132.969 180.52c-.864 0-1.567 1.75-1.567 3.91 0 2.164.703 3.914 1.567 3.914"/><path fill="none" stroke="#000" stroke-miterlimit="10" stroke-width=".3980424" d="M132.969 184.43h1.566M158.945 204v-9.523h-9.133"/><path fill="none" stroke="#000" stroke-miterlimit="10" stroke-width=".7950872000000001" d="M149.812 196.629v-3.945m0-1.438v-3.586m0-1.433v-3.95"/><path fill="none" stroke="#000" stroke-miterlimit="10" stroke-width=".3980424" d="M149.812 189.453h9.333m-9.333-5.023h9.133v-9.524"/><path fill="none" stroke="#000" stroke-miterlimit="10" stroke-width=".7950872000000001" d="M147.621 194.676v-10.442"/><path d="M155.398 189.453v-2.281l-5.097 2.281 5.097 2.281Zm0 0"/><path fill="none" stroke="#000" stroke-miterlimit="10" stroke-width=".3980424" d="M147.621 184.43h-7.137M158.945 189.453v-14.348"/><path stroke="#000" stroke-miterlimit="10" stroke-width=".3980424" d="M160.055 184.43a1.109 1.109 0 1 1-2.218.001 1.109 1.109 0 0 1 2.218-.001Zm0 0"/><path fill="none" stroke="#000" stroke-miterlimit="10" stroke-width=".7950872000000001" d="M187.27 189.648h26.09v-73.046h-26.09Zm0 0"/><path fill="none" stroke="#000" stroke-miterlimit="10" stroke-width=".3980424" d="M158.945 102.445V93.13m0 0v-9.316h6.707m5.22 0h6.71v38.007h9.688"/><path fill="none" stroke="#000" stroke-miterlimit="10" stroke-width=".7950872000000001" d="M165.652 75.984v15.653m5.22-15.653v15.653"/><path stroke="#000" stroke-miterlimit="10" stroke-width=".3980424" d="M160.527 83.813c0-.875-.707-1.586-1.582-1.586a1.584 1.584 0 0 0 0 3.168 1.58 1.58 0 0 0 1.582-1.582Zm0 0"/><path fill="none" stroke="#000" stroke-miterlimit="10" stroke-width=".3980424" d="M158.945 203.805v9.316m0 0v9.316h6.707m5.22 0h6.71V184.43h9.688"/><path fill="none" stroke="#000" stroke-miterlimit="10" stroke-width=".7950872000000001" d="M165.652 214.61v15.656m5.22-15.657v15.657"/><path stroke="#000" stroke-miterlimit="10" stroke-width=".3980424" d="M160.527 222.437a1.58 1.58 0 0 0-1.582-1.582 1.58 1.58 0 0 0-1.582 1.582 1.58 1.58 0 0 0 1.582 1.583 1.58 1.58 0 0 0 1.582-1.583Zm0 0"/><path fill="none" stroke="#000" stroke-miterlimit="10" stroke-width=".3980424" d="M213.36 153.125h4.66m0 0h4.66"/><g clip-path="url(#a)"><path fill="none" stroke="#000" stroke-miterlimit="10" stroke-width=".7950872000000001" d="M222.68 153.125a3.954 3.954 0 0 1 3.957-3.957 3.954 3.954 0 0 1 3.957 3.957 3.954 3.954 0 0 1-3.957 3.957 3.954 3.954 0 0 1-3.957-3.957Zm0 0"/></g><g clip-path="url(#b)"><path fill="none" stroke="#000" stroke-miterlimit="10" stroke-width=".7950872000000001" d="M225.055 153.125a1.58 1.58 0 0 1 1.582-1.582 1.58 1.58 0 0 1 1.582 1.582 1.58 1.58 0 0 1-1.582 1.582 1.58 1.58 0 0 1-1.582-1.582Zm0 0"/></g><path fill="none" stroke="#000" stroke-miterlimit="10" stroke-width=".3980424" d="M225.055 153.125h-2.375"/><use xlink:href="#c" x="228.562" y="145.987"/><use xlink:href="#d" x="228.562" y="139.457"/><use xlink:href="#e" x="230.44" y="135.119"/><use xlink:href="#f" x="230.44" y="130.096"/><use xlink:href="#g" x="230.44" y="125.366"/><path fill="none" stroke="#000" stroke-miterlimit="10" stroke-width=".3980424" d="M158.945 131.145v21.98m0 0v21.98M158.945 153.125h-4.66m0 0h-4.656"/><path stroke="#000" stroke-miterlimit="10" stroke-width=".3980424" d="M160.527 153.125a1.58 1.58 0 0 0-1.582-1.582 1.58 1.58 0 0 0-1.582 1.582 1.58 1.58 0 0 0 1.582 1.582 1.58 1.58 0 0 0 1.582-1.582Zm0 0"/><path fill="none" stroke="#000" stroke-miterlimit="10" stroke-width=".3980424" d="M149.629 153.125v9.898"/><path fill="none" stroke="#000" stroke-linecap="round" stroke-miterlimit="10" stroke-width=".7950872000000001" d="M143.687 163.023h11.88"/><path fill="none" stroke="#000" stroke-miterlimit="10" stroke-width=".3980424" d="M112.73 121.82v28.696m0 5.218v28.696"/><path fill="none" stroke="#000" stroke-miterlimit="10" stroke-width=".7950872000000001" d="M120.559 155.734h-15.657m15.657-5.218h-15.657M104.902 160.953l15.235-15.234"/><path fill="none" stroke="#000" stroke-miterlimit="10" stroke-width=".7950712600000001" d="m118.098 143.402 4.355 4.356"/><path fill="none" stroke="#000" stroke-miterlimit="10" stroke-width=".3980424" d="M112.73 121.82V85.668m0-20.875V28.641"/><path fill="none" stroke="#000" stroke-linejoin="bevel" stroke-miterlimit="10" stroke-width=".7950872000000001" d="M112.89 86.063c-2.163 0-3.913-1.211-3.913-2.708 0-1.496 1.75-2.707 3.914-2.707-2.164 0-3.914-1.214-3.914-2.71 0-1.497 1.75-2.708 3.914-2.708-2.164 0-3.914-1.21-3.914-2.707s1.75-2.71 3.914-2.71c-2.164 0-3.914-1.211-3.914-2.708 0-1.496 1.75-2.707 3.914-2.707"/><path fill="none" stroke="#000" stroke-miterlimit="10" stroke-width=".7950872000000001" d="M102.293 14.293h20.875v7.828h-20.875Zm0 0"/><path fill="none" stroke="#000" stroke-miterlimit="10" stroke-width=".3980424" d="M112.73 28.64v-3.058"/><path stroke="#000" stroke-miterlimit="10" stroke-width=".3980424" d="m112.73 22.516-1.757 2.968h3.515Zm0 0"/><path fill="none" stroke="#000" stroke-dasharray="2.9816568080000003 2.9816568080000003" stroke-miterlimit="10" stroke-width=".3980424" d="M106.828 85.668V64.793"/><path fill="none" stroke="#000" stroke-miterlimit="10" stroke-width=".3980424" d="M123.168 18.207h4.656m0 0h4.66M132.484 18.207v9.898"/><path fill="none" stroke="#000" stroke-linecap="round" stroke-miterlimit="10" stroke-width=".7950872000000001" d="M126.547 28.105h11.875"/><path fill="none" stroke="#000" stroke-miterlimit="10" stroke-width=".3980424" d="M112.73 184.43v26.836m0 20.87v26.837"/><path fill="none" stroke="#000" stroke-linejoin="bevel" stroke-miterlimit="10" stroke-width=".7950872000000001" d="M112.89 210.867c-2.163 0-3.913 1.215-3.913 2.711s1.75 2.707 3.914 2.707c-2.164 0-3.914 1.211-3.914 2.707s1.75 2.711 3.914 2.711c-2.164 0-3.914 1.211-3.914 2.707s1.75 2.707 3.914 2.707c-2.164 0-3.914 1.215-3.914 2.711s1.75 2.707 3.914 2.707"/><path fill="none" stroke="#000" stroke-miterlimit="10" stroke-width=".7950872000000001" d="M102.293 265.496h20.875v7.824h-20.875Zm0 0"/><path fill="none" stroke="#000" stroke-miterlimit="10" stroke-width=".3980424" d="M112.73 258.973v3.058"/><path stroke="#000" stroke-miterlimit="10" stroke-width=".3980424" d="m112.73 265.098 1.758-2.97h-3.515Zm0 0"/><path fill="none" stroke="#000" stroke-dasharray="2.9816568080000003 2.9816568080000003" stroke-miterlimit="10" stroke-width=".3980424" d="M106.828 211.266v20.87"/><path fill="none" stroke="#000" stroke-miterlimit="10" stroke-width=".3980424" d="M123.168 269.406h4.656m0 0h4.66M132.484 269.406v9.899"/><path fill="none" stroke="#000" stroke-linecap="round" stroke-miterlimit="10" stroke-width=".7950872000000001" d="M126.547 279.305h11.875"/><path fill="none" stroke="#000" stroke-miterlimit="10" stroke-width=".3980424" d="M158.945 83.813V61.637m0-20.871V18.59"/><path fill="none" stroke="#000" stroke-linejoin="bevel" stroke-miterlimit="10" stroke-width=".7950872000000001" d="M159.105 62.035c-2.164 0-3.914-1.215-3.914-2.71 0-1.497 1.75-2.708 3.914-2.708-2.164 0-3.914-1.215-3.914-2.707 0-1.496 1.75-2.71 3.914-2.71-2.164 0-3.914-1.212-3.914-2.708s1.75-2.707 3.914-2.707c-2.164 0-3.914-1.215-3.914-2.71 0-1.497 1.75-2.708 3.914-2.708"/><path fill="#FFF" stroke="#000" stroke-miterlimit="10" stroke-width=".3980424" d="M160.527 18.59c0-.875-.707-1.586-1.582-1.586a1.584 1.584 0 0 0 0 3.168 1.58 1.58 0 0 0 1.582-1.582Zm0 0"/><use xlink:href="#h" x="148.592" y="15.303"/><use xlink:href="#i" x="153.065" y="15.303"/><use xlink:href="#j" x="157.537" y="15.303"/><use xlink:href="#k" x="163.494" y="15.303"/><path fill="none" stroke="#000" stroke-dasharray="2.9816568080000003 2.9816568080000003" stroke-miterlimit="10" stroke-width=".3980424" d="M153.043 61.637V40.766"/><path fill="none" stroke="#000" stroke-miterlimit="10" stroke-width=".3980424" d="M158.945 222.437v12.86m0 20.871v12.86"/><path fill="none" stroke="#000" stroke-linejoin="bevel" stroke-miterlimit="10" stroke-width=".7950872000000001" d="M159.105 234.898c-2.164 0-3.914 1.215-3.914 2.707 0 1.497 1.75 2.711 3.914 2.711-2.164 0-3.914 1.211-3.914 2.707 0 1.497 1.75 2.707 3.914 2.707-2.164 0-3.914 1.215-3.914 2.711s1.75 2.707 3.914 2.707c-2.164 0-3.914 1.211-3.914 2.707 0 1.497 1.75 2.711 3.914 2.711"/><path fill="#FFF" stroke="#000" stroke-miterlimit="10" stroke-width=".3980424" d="M160.527 269.027c0-.875-.707-1.586-1.582-1.586a1.584 1.584 0 0 0 0 3.168 1.58 1.58 0 0 0 1.582-1.582Zm0 0"/><use xlink:href="#h" x="148.592" y="278.377"/><use xlink:href="#i" x="153.065" y="278.377"/><use xlink:href="#j" x="157.537" y="278.377"/><use xlink:href="#k" x="163.494" y="278.377"/><path fill="none" stroke="#000" stroke-dasharray="2.9816568080000003 2.9816568080000003" stroke-miterlimit="10" stroke-width=".3980424" d="M153.043 235.297v20.871"/><path fill="none" stroke="#000" stroke-miterlimit="10" stroke-width=".3980424" d="M102.293 18.207h-4.656m0 0H81.328m0 0H58.035m0 0H38.191m-20.875 0H9.117"/><path stroke="#000" stroke-miterlimit="10" stroke-width=".3980424" d="M94.559 18.207a1.58 1.58 0 0 0-1.582-1.582 1.58 1.58 0 0 0-1.582 1.582 1.58 1.58 0 0 0 1.582 1.582 1.58 1.58 0 0 0 1.582-1.582ZM71.266 18.207a1.58 1.58 0 0 0-1.582-1.582 1.58 1.58 0 0 0-1.582 1.582 1.58 1.58 0 0 0 1.582 1.582 1.58 1.58 0 0 0 1.582-1.582ZM47.973 18.207a1.583 1.583 0 1 0-3.166.002 1.583 1.583 0 0 0 3.166-.002Zm0 0"/><path fill="none" stroke="#000" stroke-miterlimit="10" stroke-width=".7950872000000001" d="M17.316 14.293h20.875v7.828H17.316Zm0 0"/><path fill="#FFF" stroke="#000" stroke-miterlimit="10" stroke-width=".3980424" d="M10.703 18.207a1.584 1.584 0 0 0-3.168 0 1.584 1.584 0 0 0 3.168 0Zm0 0"/><use xlink:href="#l" x="12.299" y="10.217"/><use xlink:href="#m" x="18.095" y="10.217"/><use xlink:href="#n" x="23.739" y="10.217"/><path fill="none" stroke="#000" stroke-miterlimit="10" stroke-width=".3980424" d="M21.418 153.125h-4.66m0 0h-4.656"/><g clip-path="url(#o)"><path fill="none" stroke="#000" stroke-miterlimit="10" stroke-width=".7950872000000001" d="M12.102 153.125a3.96 3.96 0 0 0-3.961-3.957 3.957 3.957 0 1 0 0 7.914c2.187 0 3.96-1.77 3.96-3.957Zm0 0"/></g><g clip-path="url(#p)"><path fill="none" stroke="#000" stroke-miterlimit="10" stroke-width=".7950872000000001" d="M9.727 153.125a1.584 1.584 0 0 0-3.168 0 1.584 1.584 0 0 0 3.168 0Zm0 0"/></g><path fill="none" stroke="#000" stroke-miterlimit="10" stroke-width=".3980424" d="M9.727 153.125h2.375"/><use xlink:href="#c" x="10.07" y="145.987"/><use xlink:href="#d" x="10.07" y="139.457"/><use xlink:href="#q" x="11.949" y="135.119"/><use xlink:href="#r" x="11.949" y="132.994"/><path fill="none" stroke="#000" stroke-miterlimit="10" stroke-width=".3980424" d="M92.977 18.207v251.2h9.316M69.684 18.207v30.004m0 5.215V83.43"/><path fill="none" stroke="#000" stroke-miterlimit="10" stroke-width=".7950872000000001" d="M77.512 48.21H61.855m15.657 5.216H61.855"/><path fill="none" stroke="#000" stroke-miterlimit="10" stroke-width=".3980424" d="M69.684 83.43v9.898"/><path fill="none" stroke="#000" stroke-linecap="round" stroke-miterlimit="10" stroke-width=".7950872000000001" d="M63.746 93.328h11.875"/><path fill="none" stroke="#000" stroke-miterlimit="10" stroke-width=".3980424" d="M46.39 18.207v5.871m0 20.871v11.739m0 20.87v5.872"/><path fill="none" stroke="#000" stroke-miterlimit="10" stroke-width=".7950872000000001" d="M42.477 44.95V24.077H50.3V44.95ZM42.48 77.559V56.688h7.817v20.87Zm0 0"/><path fill="none" stroke="#000" stroke-miterlimit="10" stroke-width=".7950872000000001" d="m51.973 77.559-12.285-14.61v-6.261"/><path fill="none" stroke="#000" stroke-miterlimit="10" stroke-width=".3980424" d="M46.39 83.43v9.898"/><path fill="none" stroke="#000" stroke-linecap="round" stroke-miterlimit="10" stroke-width=".7950872000000001" d="M40.45 93.328h11.878"/><use xlink:href="#s" x="32.044" y="66.024"/><path fill="none" stroke="#000" stroke-miterlimit="10" stroke-width=".3980424" d="M34.285 77.559V74.5"/><path stroke="#000" stroke-miterlimit="10" stroke-width=".3980424" d="m34.285 71.434-1.762 2.968h3.52Zm0 0"/><path fill="none" stroke="#000" stroke-miterlimit="10" stroke-width=".3980424" d="M37.078 74.094v-3.055"/><path stroke="#000" stroke-miterlimit="10" stroke-width=".3980424" d="m37.078 77.164 1.762-2.969h-3.52Zm0 0"/><use xlink:href="#t" x="30.509" y="165.827"/><use xlink:href="#u" x="30.509" y="162.446"/><use xlink:href="#v" x="30.509" y="160.782"/><use xlink:href="#w" x="30.509" y="157.276"/><use xlink:href="#x" x="30.509" y="154.318"/><use xlink:href="#v" x="30.509" y="151.534"/><use xlink:href="#w" x="30.509" y="148.027"/><use xlink:href="#y" x="30.509" y="145.069"/><use xlink:href="#z" x="30.509" y="142.762"/><use xlink:href="#x" x="41.392" y="166.549"/><use xlink:href="#v" x="41.392" y="163.764"/><use xlink:href="#A" x="41.392" y="160.257"/><use xlink:href="#x" x="41.392" y="156.96"/><use xlink:href="#y" x="41.392" y="154.175"/><use xlink:href="#y" x="41.392" y="151.867"/><use xlink:href="#B" x="41.392" y="149.559"/><use xlink:href="#v" x="41.392" y="146.166"/><use xlink:href="#w" x="41.392" y="142.66"/><use xlink:href="#C" x="196.321" y="166.316"/><use xlink:href="#B" x="196.321" y="162.488"/><use xlink:href="#y" x="196.321" y="159.095"/><use xlink:href="#w" x="196.321" y="156.787"/><use xlink:href="#x" x="196.321" y="153.829"/><use xlink:href="#v" x="196.321" y="151.044"/><use xlink:href="#w" x="196.321" y="147.538"/><use xlink:href="#y" x="196.321" y="144.58"/><use xlink:href="#z" x="196.321" y="142.272"/><use xlink:href="#x" x="207.204" y="166.549"/><use xlink:href="#v" x="207.204" y="163.764"/><use xlink:href="#A" x="207.204" y="160.257"/><use xlink:href="#x" x="207.204" y="156.96"/><use xlink:href="#y" x="207.204" y="154.175"/><use xlink:href="#y" x="207.204" y="151.867"/><use xlink:href="#B" x="207.204" y="149.559"/><use xlink:href="#v" x="207.204" y="146.166"/><use xlink:href="#w" x="207.204" y="142.66"/><use xlink:href="#D" x="69.876" y="13.079"/><use xlink:href="#E" x="74.635" y="14.957"/><use xlink:href="#F" x="78.843" y="14.957"/><use xlink:href="#G" x="80.968" y="14.957"/><use xlink:href="#H" x="85.941" y="14.957"/><use xlink:href="#I" x="108.239" y="8.831"/><use xlink:href="#J" x="113.507" y="10.709"/><use xlink:href="#I" x="108.239" y="282.741"/><use xlink:href="#K" x="113.507" y="284.62"/></svg>