<svg xmlns="http://www.w3.org/2000/svg" xmlns:xlink="http://www.w3.org/1999/xlink" width="223.555" height="225.574"><defs><path id="a" d="M.531-2.547a.33.33 0 0 0 0 .438h4.735a.33.33 0 0 0 0-.438Zm0 0"/><path id="c" d="M3.5-5.86c-.219 0-.75.079-1.094.079s-.672 0-1.078-.016l-.031.016-.031.187c-.016.047 0 .063.046.063l.329.015c.125.016.312.079.312.282 0 .03 0 .062-.016.093l-.874 4.5c-.047.25-.172.36-.547.375l-.22.032C.25-.234.22-.22.22-.172L.172 0l.031.016C.593.016.953 0 1.297 0c.328 0 .687.016 1.078.016L2.406 0l.031-.172c0-.047-.015-.062-.062-.062l-.219-.032C1.875-.28 1.75-.344 1.75-.53c0-.031 0-.063.016-.11l.39-1.968c.703 0 .86.14.953.343l.61 1.563c.172.422.469.797.984.797.125 0 .281-.016.375-.063l.031-.218c-.39 0-.546-.313-.703-.688L3.703-2.75c.39-.14 1.25-.594 1.438-1.531.03-.125.03-.235.03-.344a1.17 1.17 0 0 0-.28-.781c-.328-.407-.86-.453-1.391-.453m-.047.313c.453 0 .969.156.969.875 0 .11-.016.25-.047.39-.219 1.126-.906 1.376-1.75 1.376h-.422l.438-2.235c.046-.265.203-.406.812-.406m0 0"/><path id="e" d="M1.922-5.094 1.047-.687C1-.437.859-.297.5-.266l-.281.032c-.047.03-.063.172-.016.25C.593.016.922 0 1.266 0s.75.016 1.14.016c.031-.032.063-.22.031-.25l-.312-.032c-.344-.03-.437-.14-.39-.421l.874-4.407c.047-.25.188-.375.547-.406l.281-.031c.032-.032.047-.188.016-.266-.406.016-.719.016-1.078.016-.328 0-.734 0-1.125-.016-.031.047-.062.219-.031.266l.297.031c.359.016.453.14.406.406m0 0"/><path id="g" d="M2.672.047c.11.11.344.11.453 0V-2.11h2.14a.33.33 0 0 0 0-.438h-2.14v-2.156c-.11-.11-.344-.11-.453 0v2.156H.532a.33.33 0 0 0 0 .438h2.14Zm0 0"/><path id="d" d="M2.563.078C3.25.078 3.89-.25 4.375-.89A.19.19 0 0 0 4.203-1c-.5.563-.984.781-1.656.781-.969 0-1.625-1.093-1.625-2.14 0-.61.156-1.125.422-1.453.36-.438.765-.626 1.14-.626.985 0 1.375.579 1.563 1.204.094.015.156 0 .234-.047a10 10 0 0 0-.156-1.11c-.36-.03-.687-.312-1.562-.312-.61 0-1.11.219-1.547.61-.47.437-.75 1.124-.75 1.874 0 1.25.75 2.297 2.297 2.297m0 0"/><path id="i" d="M.438-3.344c0 .14.14.281.28.281.126 0 .345-.14.345-.296 0-.047-.016-.094-.032-.141-.015-.062-.062-.125-.062-.172 0-.187.187-.437.719-.437.25 0 .609.172.609.859 0 .453-.156.828-.578 1.266l-.532.515C.485-.75.375-.406.375.016c0 0 .36-.016.594-.016h1.25c.234 0 .562.016.562.016a8 8 0 0 0 .172-1.125c-.047-.047-.14-.063-.219-.047-.109.515-.234.687-.5.687H.97c0-.343.484-.828.531-.86l.719-.702c.406-.39.719-.703.719-1.25 0-.766-.641-1.078-1.22-1.078-.78 0-1.28.578-1.28 1.015m0 0"/><path id="k" d="M2.063-.875v-2.484c0-.422 0-.86.015-.953 0-.032-.015-.032-.031-.032-.406.235-.781.422-1.406.703a.33.33 0 0 0 .109.204c.328-.141.484-.188.61-.188.124 0 .156.172.156.422v2.328c0 .594-.203.625-.703.656-.047.047-.047.188 0 .235C1.172 0 1.422 0 1.813 0c.343 0 .515 0 .875.016.03-.047.03-.188 0-.235-.5-.031-.626-.062-.626-.656m0 0"/><clipPath id="b"><path d="M134 .012h15V13h-15Zm0 0"/></clipPath><clipPath id="f"><path d="M203 .012h16V13h-16Zm0 0"/></clipPath><clipPath id="h"><path d="M169 224h14v1.137h-14Zm0 0"/></clipPath><clipPath id="j"><path d="M64 .012h15V13H64Zm0 0"/></clipPath><clipPath id="l"><path d="M40 171h63v54.137H40Zm0 0"/></clipPath></defs><path fill="none" stroke="#000" stroke-miterlimit="10" stroke-width=".39820599" d="M1.781 127.602h30.934m7.922 0H71.57"/><path fill="none" stroke="#000" stroke-miterlimit="10" stroke-width=".79541397" d="M32.715 115.719v23.765m7.922-23.765v23.765"/><path fill="#FFF" stroke="#000" stroke-miterlimit="10" stroke-width=".39820599" d="M3.367 127.602a1.584 1.584 0 1 0-3.167.003 1.584 1.584 0 0 0 3.167-.003Zm0 0"/><path fill="none" stroke="#000" stroke-miterlimit="10" stroke-width=".39820599" d="M211.152 214.84h-34.894m0 0h-34.899"/><use xlink:href="#a" x="214.33" y="216.113"/><path fill="#FFF" stroke="#000" stroke-miterlimit="10" stroke-width=".39820599" d="M212.734 214.84a1.584 1.584 0 1 0-3.167-.005 1.584 1.584 0 0 0 3.167.005Zm0 0"/><path fill="none" stroke="#000" stroke-miterlimit="10" stroke-width=".39820599" d="M141.36 105.82V71.488m0-31.687V5.473h34.898m0 0h34.894M141.36 105.621v13.27l-11.88 5.445"/><path fill="none" stroke="#000" stroke-miterlimit="10" stroke-width=".79541397" d="M129.48 118.89v17.426"/><path fill="none" stroke="#000" stroke-miterlimit="10" stroke-width=".39820599" d="m129.48 130.871 11.88 5.445v13.27"/><path d="m133.664 132.79.95-2.075 3.687 4.2-5.586-.052Zm0 0"/><path fill="none" stroke="#000" stroke-miterlimit="10" stroke-width=".39820599" d="M129.48 127.602h-12.082"/><path fill="none" stroke="#000" stroke-miterlimit="10" stroke-width=".79541397" d="M147.3 39.8v31.688h-11.878V39.801Zm0 0"/><path d="M142.945 5.473c0-.875-.71-1.586-1.586-1.586a1.583 1.583 0 1 0 1.586 1.586m0 0"/><g clip-path="url(#b)"><path fill="none" stroke="#000" stroke-miterlimit="10" stroke-width=".39820599" d="M142.945 5.473c0-.875-.71-1.586-1.586-1.586a1.583 1.583 0 1 0 1.586 1.586Zm0 0"/></g><use xlink:href="#c" x="149.505" y="57.793"/><use xlink:href="#d" x="154.777" y="59.673"/><path stroke="#000" stroke-miterlimit="10" stroke-width=".39820599" d="M141.36 86.922h-1.977l1.976 4.207 1.98-4.207Zm0 0"/><use xlink:href="#e" x="130.655" y="90.573"/><use xlink:href="#d" x="133.169" y="92.452"/><path fill="#FFF" d="M212.734 5.473a1.584 1.584 0 1 0-3.167-.005 1.584 1.584 0 0 0 3.167.005m0 0"/><g clip-path="url(#f)"><path fill="none" stroke="#000" stroke-miterlimit="10" stroke-width=".39820599" d="M212.734 5.473a1.584 1.584 0 1 0-3.167-.005 1.584 1.584 0 0 0 3.167.005Zm0 0"/></g><use xlink:href="#g" x="214.33" y="7.799"/><path fill="none" stroke="#000" stroke-miterlimit="10" stroke-width=".39820599" d="M149 127.602c0-7.688-6.23-13.918-13.918-13.918-7.691 0-13.922 6.23-13.922 13.918s6.23 13.921 13.922 13.921c7.687 0 13.918-6.234 13.918-13.921ZM141.36 105.82h30.937m7.918 0h30.937"/><path fill="none" stroke="#000" stroke-miterlimit="10" stroke-width=".79541397" d="M172.297 93.938v23.761m7.918-23.761v23.761"/><path stroke="#000" stroke-miterlimit="10" stroke-width=".39820599" d="M142.945 105.82c0-.875-.71-1.586-1.586-1.586a1.583 1.583 0 1 0 1.586 1.586Zm0 0"/><path fill="#FFF" stroke="#000" stroke-miterlimit="10" stroke-width=".39820599" d="M212.734 105.82a1.584 1.584 0 1 0-3.167-.004 1.584 1.584 0 0 0 3.167.004Zm0 0"/><path fill="none" stroke="#000" stroke-miterlimit="10" stroke-width=".39820599" d="M176.258 214.84v9.902"/><g clip-path="url(#h)"><path fill="none" stroke="#000" stroke-linecap="round" stroke-miterlimit="10" stroke-width=".79541397" d="M170.316 224.742h11.88"/></g><path stroke="#000" stroke-miterlimit="10" stroke-width=".39820599" d="M177.84 214.84c0-.875-.711-1.586-1.582-1.586a1.584 1.584 0 1 0 1.582 1.586ZM142.945 214.84c0-.875-.71-1.586-1.586-1.586a1.583 1.583 0 1 0 1.586 1.586Zm0 0"/><path fill="none" stroke="#000" stroke-miterlimit="10" stroke-width=".39820599" d="M1.781 214.84h69.79m0 0h69.788v-65.453"/><path fill="#FFF" stroke="#000" stroke-miterlimit="10" stroke-width=".39820599" d="M3.367 214.84a1.584 1.584 0 1 0-3.168-.004 1.584 1.584 0 0 0 3.168.004Zm0 0"/><path stroke="#000" stroke-miterlimit="10" stroke-width=".39820599" d="M142.945 214.84c0-.875-.71-1.586-1.586-1.586a1.583 1.583 0 1 0 1.586 1.586Zm0 0"/><path fill="none" stroke="#000" stroke-miterlimit="10" stroke-width=".39820599" d="M36.676 40.367V26.88m0-7.922V5.473h104.683M36.676 40.367v9.899"/><path fill="none" stroke="#000" stroke-linecap="round" stroke-miterlimit="10" stroke-width=".79541397" d="M30.734 50.266h11.883"/><path fill="none" stroke="#000" stroke-miterlimit="10" stroke-width=".79541397" d="M24.797 26.879h23.762m-23.762-7.922h23.762"/><path fill="none" stroke="#000" stroke-miterlimit="10" stroke-width=".39820599" d="M71.57 214.84v-27.778m0-31.683v-73m0-31.684V5.473"/><path fill="none" stroke="#000" stroke-miterlimit="10" stroke-width=".79541397" d="M77.512 155.379v31.683H65.629V155.38Zm0 0"/><path stroke="#000" stroke-miterlimit="10" stroke-width=".39820599" d="M73.156 214.84a1.584 1.584 0 1 0-3.168-.004 1.584 1.584 0 0 0 3.168.004ZM73.156 127.602a1.584 1.584 0 1 0-3.167.003 1.584 1.584 0 0 0 3.167-.003Zm0 0"/><use xlink:href="#c" x="79.717" y="173.368"/><use xlink:href="#i" x="84.988" y="175.247"/><path fill="none" stroke="#000" stroke-miterlimit="10" stroke-width=".79541397" d="M77.512 50.695V82.38H65.629V50.695Zm0 0"/><path stroke="#000" stroke-miterlimit="10" stroke-width=".39820599" d="M73.156 127.602a1.584 1.584 0 1 0-3.167.003 1.584 1.584 0 0 0 3.167-.003Zm0 0"/><path d="M73.156 5.473a1.584 1.584 0 1 0-3.168-.004 1.584 1.584 0 0 0 3.168.004m0 0"/><g clip-path="url(#j)"><path fill="none" stroke="#000" stroke-miterlimit="10" stroke-width=".39820599" d="M73.156 5.473a1.584 1.584 0 1 0-3.168-.004 1.584 1.584 0 0 0 3.168.004Zm0 0"/></g><use xlink:href="#c" x="79.717" y="68.685"/><use xlink:href="#k" x="84.988" y="70.564"/><path fill="none" stroke="#000" stroke-miterlimit="10" stroke-width=".39820599" d="M117.598 127.602H94.586m0 0H71.57"/><g fill="none" stroke="#000" stroke-miterlimit="10" stroke-width="1.594" clip-path="url(#l)"><path stroke-width="1.59082794" d="m62.848 211.352 17.449-17.45M80.297 211.352l-17.45-17.45"/></g></svg>