<svg xmlns="http://www.w3.org/2000/svg" xmlns:xlink="http://www.w3.org/1999/xlink" width="226.576" height="195.155"><defs><path id="c" d="M1.125-5.797h2.547l-.047.781H1.531l-.125 1.407q1.296.046 1.875.547.546.455.547 1.374a1.7 1.7 0 0 1-.547 1.266Q2.75.111 1.906.11 1.168.108.828-.156a.61.61 0 0 1-.281-.516q0-.405.39-.547.171.376.282.5.311.328.828.328.527 0 .844-.328c.195-.207.297-.476.297-.812q0-.732-.563-1.047-.563-.328-1.781-.328Zm0 0"/><path id="d" d="m7.078-.469.531.125q.124.017.125.11A.35.35 0 0 1 7.641 0H5.75v-.062c0-.133.086-.235.266-.297l.343-.11V-2.75c0-.695-.289-1.047-.859-1.047q-.69.002-1.203.485.06.327.062.515v2.328l.532.125q.124.017.125.11A.35.35 0 0 1 4.922 0h-1.89v-.062c0-.133.085-.235.265-.297l.328-.11V-2.75c0-.695-.281-1.047-.844-1.047-.437 0-.824.149-1.156.438v2.89l.547.125q.124.017.125.11A.35.35 0 0 1 2.203 0H.313a.1.1 0 0 1-.016-.062c0-.133.094-.235.281-.297l.328-.11v-3.328l-.64-.078a.2.2 0 0 1-.016-.078q0-.246.328-.281l1.047-.11-.047.61h.031q.61-.657 1.422-.657c.54 0 .922.243 1.14.72.427-.477.938-.72 1.532-.72q.638 0 1 .422.375.41.375 1.172Zm0 0"/><path id="e" d="M1-.578q.264.204.656.203c.508 0 .766-.195.766-.594q-.002-.234-.25-.468a11 11 0 0 0-.578-.407q-.534-.327-.75-.562a1.18 1.18 0 0 1-.36-.844c0-.352.133-.629.407-.828q.406-.312 1.015-.313c.395 0 .711.102.953.297q.047.346.047.547c0 .305-.117.453-.344.453a.16.16 0 0 1-.078-.015l-.109-.641a1.13 1.13 0 0 0-.61-.187c-.437 0-.656.18-.656.53q0 .363.516.688.469.316.938.61c.332.28.5.601.5.953q-.001.55-.407.906-.408.362-1.094.36C1.126.11.767.022.484-.14a3.7 3.7 0 0 1-.078-.735q0-.422.328-.422h.094Zm0 0"/><path id="f" d="M2.922-6.687h.61L.827 1.25h-.61Zm0 0"/><path id="g" d="M2.36-6.156q3.562.001 3.562 2.984 0 1.583-.938 2.39C4.367-.257 3.492 0 2.36 0H.422a.16.16 0 0 1-.016-.078Q.404-.324.72-.406l.375-.078v-5.203l-.547-.125C.46-5.82.422-5.852.422-5.906q0-.075.094-.25ZM2.343-.5q1.313 0 2.015-.672c.477-.445.72-1.101.72-1.969 0-.832-.243-1.457-.72-1.875q-.702-.639-2.015-.64h-.469V-.5Zm0 0"/><path id="h" d="M.906-.469v-3.328l-.64-.078a.2.2 0 0 1-.016-.078q0-.246.328-.281l1.047-.11v3.875l.547.125q.124.017.125.11A.35.35 0 0 1 2.203 0H.313a.1.1 0 0 1-.016-.062c0-.133.094-.235.281-.297Zm-.14-5.36q0-.233.14-.374a.48.48 0 0 1 .36-.14q.217 0 .359.14a.49.49 0 0 1 .156.375.49.49 0 0 1-.156.375.5.5 0 0 1-.36.14.48.48 0 0 1-.359-.14.5.5 0 0 1-.14-.375m0 0"/><path id="i" d="M4.453-4.281c.07 0 .11.031.11.093A.5.5 0 0 1 4.5-4l-.422.156L2.562 0h-.578L.454-3.86.046-4a.2.2 0 0 1-.016-.062q-.001-.219.25-.22h1.453c.07 0 .11.032.11.095A.5.5 0 0 1 1.78-4l-.5.14L2.36-.796h.016l1.172-3.062L2.89-4a.2.2 0 0 1-.016-.062q-.001-.219.25-.22Zm0 0"/><path id="j" d="M.406-.375a.5.5 0 0 1 .125-.36.48.48 0 0 1 .36-.14c.132 0 .25.047.343.14a.47.47 0 0 1 .157.36.47.47 0 0 1-.157.36.5.5 0 0 1-.343.124.52.52 0 0 1-.36-.125.5.5 0 0 1-.125-.359m0 0"/><path id="r" d="M2.234-.39q1.092.001 1.094-2.516c0-1.664-.367-2.5-1.094-2.5-.73 0-1.093.836-1.093 2.5 0 1.68.363 2.515 1.093 2.515m-.046.5q-.862 0-1.36-.75Q.296-1.42.297-2.907c0-.977.187-1.735.562-2.266.352-.488.829-.734 1.422-.734q.873.001 1.36.734c.343.531.515 1.29.515 2.266q0 1.487-.562 2.265-.516.75-1.406.75m0 0"/><path id="s" d="M5.828-6.156v.078q-.002.252-.297.328l-.234.047L3.28 0h-.734L.453-5.687l-.375-.11q-.124-.014-.125-.11c0-.05.035-.132.094-.25H2.03c.008.024.016.048.016.079q-.001.253-.313.312l-.375.079L3-.907h.031L4.72-5.702l-.688-.11q-.127-.011-.125-.093 0-.075.094-.25Zm0 0"/><path id="k" d="M-3.156-1.39c-.114-1.008-.516-1.516-1.203-1.516q-1.062.001-1.063.906 0 .41.188.703.376.112.828.125.016.096.015.203c0 .282-.117.422-.359.422-.344 0-.617-.144-.828-.437q-.328-.45-.328-1.188c0-.469.125-.836.375-1.11q.376-.42 1.015-.421.628 0 1.016.422.284.298.484.906h.032q.093-.716.468-1.11a1.2 1.2 0 0 1 .922-.39q.738.001 1.219.547.485.549.484 1.437c0 .48-.097.84-.28 1.079q-.202.28-.5.28-.406.002-.548-.39c.23-.101.399-.203.5-.297q.328-.293.328-.828c0-.664-.351-1-1.062-1-.738 0-1.149.555-1.234 1.656Zm0 0"/><path id="l" d="M-6.156-5.828h.078q.252.002.328.297l.047.234L0-3.28v.734L-5.687-.453l-.11.375q-.014.124-.11.125c-.05 0-.132-.035-.25-.094V-2.03c.024-.008.048-.016.079-.016q.253.001.312.313l.079.375L-.907-3v-.031L-5.702-4.72l-.11.688q-.011.127-.093.125-.075 0-.25-.094Zm0 0"/><path id="m" d="M-6.687-2.922v-.61L1.25-.827v.61Zm0 0"/><path id="n" d="M-6.156-2.36q.001-3.562 2.984-3.562 1.583 0 2.39.938C-.257-4.367 0-3.492 0-2.36v1.937a.16.16 0 0 1-.078.016q-.246.002-.328-.313l-.078-.375h-5.203l-.125.547c-.008.086-.04.125-.094.125q-.075 0-.25-.094Zm5.656.016q0-1.313-.672-2.015c-.445-.477-1.101-.72-1.969-.72-.832 0-1.457.243-1.875.72q-.639.702-.64 2.015v.469H-.5Zm0 0"/><path id="o" d="M-.469-.906h-3.328l-.078.64a.2.2 0 0 1-.078.016q-.246 0-.281-.328l-.11-1.047h3.875l.125-.547q.017-.124.11-.125.129 0 .234.094v1.89a.1.1 0 0 1-.062.016c-.133 0-.235-.094-.297-.281Zm-5.36.14a.5.5 0 0 1-.374-.14.48.48 0 0 1-.14-.36q0-.217.14-.359a.49.49 0 0 1 .375-.156q.234.002.375.156.14.142.14.36a.48.48 0 0 1-.14.359.5.5 0 0 1-.375.14m0 0"/><path id="p" d="M-4.281-4.453c0-.07.031-.11.093-.11.043 0 .106.024.188.063l.156.422L0-2.562v.578l-3.86 1.53-.14.407a.2.2 0 0 1-.062.016q-.219.001-.22-.25v-1.453c0-.07.032-.11.095-.11.042 0 .105.024.187.063l.14.5L-.796-2.36v-.016l-3.062-1.172L-4-2.89a.2.2 0 0 1-.062.016q-.219.001-.22-.25Zm0 0"/><path id="q" d="M-.375-.406a.5.5 0 0 1-.36-.125.48.48 0 0 1-.14-.36c0-.132.047-.25.14-.343a.47.47 0 0 1 .36-.157c.148 0 .266.055.36.157a.5.5 0 0 1 .124.343.52.52 0 0 1-.125.36.5.5 0 0 1-.359.125m0 0"/><clipPath id="a"><path d="M23 0h202.875v174H23Zm0 0"/></clipPath><clipPath id="b"><path d="M1 5h224.875v76H1Zm0 0"/></clipPath></defs><g clip-path="url(#a)"><path fill="none" stroke="#000" stroke-miterlimit="10" stroke-width=".39728031" d="M23.52 172.969h201.566M23.52 144.172h201.566M23.52 115.379h201.566M23.52 86.582h201.566M23.52 57.789h201.566M23.52 28.992h201.566M23.52.207h201.566M23.52 172.969V.199m28.793 172.77V.199m28.796 172.77V.199m28.797 172.77V.199M138.7 172.97V.199m28.797 172.77V.199m28.793 172.77V.199m28.785 172.77V.199"/></g><g clip-path="url(#b)"><path fill="none" stroke="#000" stroke-miterlimit="10" stroke-width="1.5871298600000001" d="m23.52 57.79 15.753-25.884c2.43-3.996 7.243-4.722 10.743-1.62l31.093 27.503 15.754-25.883c2.43-3.996 7.242-4.722 10.742-1.62L138.7 57.788l15.754-25.883c2.434-3.996 7.242-4.722 10.746-1.62l31.09 27.503 15.754-25.883c2.434-3.996 7.203-4.676 10.656-1.523l2.387 2.18"/></g><use xlink:href="#c" x="178.34" y="190.088"/><use xlink:href="#d" x="184.286" y="190.088"/><use xlink:href="#e" x="192.152" y="190.088"/><use xlink:href="#f" x="195.607" y="190.088"/><use xlink:href="#g" x="199.365" y="190.088"/><use xlink:href="#h" x="205.757" y="190.088"/><use xlink:href="#i" x="208.204" y="190.088"/><use xlink:href="#j" x="212.462" y="190.088"/><use xlink:href="#k" x="11.844" y="43.973"/><use xlink:href="#l" x="11.844" y="38.027"/><use xlink:href="#m" x="11.844" y="32.634"/><use xlink:href="#n" x="11.844" y="28.876"/><use xlink:href="#o" x="11.844" y="22.484"/><use xlink:href="#p" x="11.844" y="20.046"/><use xlink:href="#q" x="11.844" y="15.788"/><use xlink:href="#r" x="3.252" y="175.994"/><use xlink:href="#s" x="9.198" y="175.994"/></svg>