<svg xmlns="http://www.w3.org/2000/svg" xmlns:xlink="http://www.w3.org/1999/xlink" width="226.777" height="118.957"><defs><clipPath id="a"><path d="M0 .035h226.555V97H0Zm0 0"/></clipPath><clipPath id="b"><path d="M0 31h226.555v66H0Zm0 0"/></clipPath><clipPath id="c"><path d="M0 52h226.555v45H0Zm0 0"/></clipPath><clipPath id="d"><path d="M0 63h226.555v34H0Zm0 0"/></clipPath><clipPath id="e"><path d="M115 84h111.555v25H115Zm0 0"/></clipPath><clipPath id="j"><path d="M0 105h10v13.879H0Zm0 0"/></clipPath><clipPath id="k"><path d="M216 105h10.555v13.879H216Zm0 0"/></clipPath><clipPath id="l"><path d="M101 107h24v11.879h-24Zm0 0"/></clipPath><path id="f" d="M3.422-.516H3.39Q2.95.11 2.109.11 1.39.11.938-.359C.57-.723.39-1.273.39-2.016q0-1.183.703-1.828.609-.562 1.5-.562.404.001.765.125v-1.672l-.64-.094a.1.1 0 0 1-.016-.062q0-.246.328-.282L4.094-6.5v6l.656.094v.078q0 .252-.328.281l-1 .094Zm-1.094.047q.657 0 1.031-.39v-2.72q-.315-.327-.859-.327-.597.002-.953.437c-.274.324-.406.762-.406 1.313q-.001.86.343 1.281.311.408.844.406m0 0"/><path id="g" d="M3.563-.844q.123.128.124.25 0 .222-.359.438-.44.265-1.078.265-.844 0-1.344-.562-.515-.563-.515-1.64c0-.72.21-1.29.64-1.72.407-.394.914-.593 1.532-.593.414 0 .734.086.953.25q.234.206.234.453 0 .392-.36.484-.346-.686-1.015-.687-.517 0-.828.375-.375.44-.375 1.25Q1.17-.436 2.547-.437c.426 0 .765-.133 1.015-.407m0 0"/><path id="h" d="M.656-5.953 0-6.047a.2.2 0 0 1-.016-.062q0-.246.344-.282L1.375-6.5v2.719h.031c.332-.414.774-.625 1.328-.625.477 0 .86.156 1.141.468q.516.564.516 1.672 0 1.19-.703 1.813-.645.562-1.594.562-.91 0-1.438-.312Zm1.735 2.14c-.43 0-.766.149-1.016.438v2.719q.375.251.89.25 1.374.001 1.376-1.75 0-.856-.375-1.297a1.17 1.17 0 0 0-.875-.36m0 0"/><path id="i" d="M2.672-2.781q0-.594-.188-.875-.175-.281-.609-.281-.281 0-.516.093c-.086.156-.156.422-.218.797H.953q-.438 0-.437-.375 0-.406.468-.687a1.9 1.9 0 0 1 1.032-.297c.914 0 1.375.508 1.375 1.515v1.954c0 .343.101.515.312.515a.48.48 0 0 0 .328-.11q.077.112.078.25c0 .063-.054.134-.156.204a.94.94 0 0 1-.547.156q-.61 0-.687-.61h-.016Q2.282.112 1.484.11.97.11.656-.203.343-.514.344-1.031c0-.438.219-.774.656-1.016.383-.207.86-.312 1.422-.312h.25ZM1.766-.453q.514 0 .906-.469v-1.031l-.25.016q-1.299.11-1.297.812c0 .45.21.672.64.672m0 0"/><path id="m" d="M3.844-1.953h-.735v-2.625c0-.438 0-.797.016-.86l-.016-.03h-.296c-.063 0-.094.062-.141.109-.563.687-1.594 2.156-2.422 3.437.031.14.078.375.344.375h1.828v.828c0 .422-.328.422-.719.438-.062.062-.062.25 0 .297C1.984.016 2.343 0 2.75 0c.36 0 .703.016.984.016.047-.047.047-.235 0-.297-.437-.031-.625-.016-.625-.438v-.828h.61c.125 0 .265-.156.265-.266 0-.093-.03-.14-.14-.14M2.422-4.547v2.594H.719c.453-.734 1.094-1.75 1.703-2.594m0 0"/><path id="n" d="M2.047.094C2.734.094 3.78-.61 3.78-2.72c0-.875-.219-1.64-.61-2.156-.233-.312-.608-.594-1.093-.594-.89 0-1.734 1.063-1.734 2.844 0 .953.297 1.844.797 2.344.25.25.547.375.906.375m.031-5.235c.156 0 .297.047.406.141.266.234.516.922.516 2.11 0 .828-.031 1.39-.156 1.859-.188.734-.625.812-.797.812-.828 0-.922-1.531-.922-2.312 0-2.203.547-2.61.953-2.61m0 0"/><path id="o" d="M1.516-3.203c0-.266-.016-.594-.063-.688-.016-.046-.031-.062-.11-.062-.25.094-.484.172-1.109.25a.45.45 0 0 0 .032.25c.484.047.578.094.578.61v1.75c0 .734-.125.78-.61.812-.062.062-.062.25 0 .297C.5.016.844 0 1.204 0c.359 0 .624.016.905.016.047-.047.047-.235 0-.297-.468-.047-.562-.078-.562-.813v-1.468c0-.188.078-.297.156-.376.36-.343.688-.53.969-.53.344 0 .594.218.594.812v1.562c0 .735-.079.782-.563.813-.047.062-.047.25 0 .297.219 0 .563-.016.906-.016.36 0 .657.016.891.016.047-.047.047-.235 0-.297-.453-.031-.531-.078-.531-.813v-1.422c0-.125 0-.25-.016-.359.438-.469.844-.594 1.188-.594s.53.203.53.797v1.578c0 .735-.077.782-.546.813-.047.062-.047.25 0 .297.219 0 .547-.016.906-.016.36 0 .672.016.922.016C7-.031 7-.22 6.953-.281c-.484-.031-.562-.078-.562-.813V-2.5c0-.797-.141-1.437-.922-1.437-.469 0-1.016.171-1.485.671-.03.032-.078.063-.093-.015-.079-.36-.438-.656-.907-.656-.515 0-.984.312-1.359.734-.047.047-.094.11-.11 0m0 0"/></defs><g clip-path="url(#a)"><path fill="none" stroke="#000" stroke-miterlimit="10" stroke-width=".79621894" d="M.598 84.945C37.332 41.675 72.488.434 113.278.434c40.792 0 75.949 41.242 112.683 84.511"/></g><g clip-path="url(#b)"><path fill="none" stroke="#000" stroke-miterlimit="10" stroke-width=".79621894" d="M.598 84.945c18.367-21.636 35.945-42.258 56.34-42.258 20.394 0 37.972 20.622 56.34 42.258 18.367-21.636 35.945-42.258 56.343-42.258 20.395 0 37.973 20.622 56.34 42.258"/></g><g clip-path="url(#c)"><path fill="none" stroke="#000" stroke-miterlimit="10" stroke-width=".79621894" d="M.598 84.945C9.78 74.13 18.57 63.816 28.77 63.816c10.195 0 18.984 10.313 28.168 21.13 9.183-10.817 17.972-21.13 28.171-21.13 10.196 0 18.985 10.313 28.168 21.13 9.184-10.817 17.973-21.13 28.172-21.13s18.989 10.313 28.172 21.13c9.184-10.817 17.973-21.13 28.168-21.13 10.2 0 18.988 10.313 28.172 21.13"/></g><g clip-path="url(#d)"><path fill="none" stroke="#000" stroke-miterlimit="10" stroke-width=".79621894" d="M.598 84.945c4.59-5.05 8.984-9.86 14.086-9.86 5.097 0 9.492 4.81 14.086 9.86 4.59-5.05 8.984-9.86 14.082-9.86 5.101 0 9.496 4.81 14.086 9.86 4.593-5.05 8.988-9.86 14.085-9.86s9.493 4.81 14.086 9.86c4.59-5.05 8.985-9.86 14.086-9.86 5.098 0 9.493 4.81 14.082 9.86 4.594-5.05 8.989-9.86 14.086-9.86 5.098 0 9.493 4.81 14.086 9.86 4.59-5.05 8.985-9.86 14.086-9.86 5.098 0 9.492 4.81 14.086 9.86 4.59-5.05 8.985-9.86 14.082-9.86 5.102 0 9.496 4.81 14.086 9.86 4.594-5.05 8.988-9.86 14.086-9.86s9.492 4.81 14.086 9.86"/></g><path fill="none" stroke="#000" stroke-miterlimit="10" stroke-width="1.19482792" d="M.598 84.945H55.53m0 0h54.93v11.266m0 0v11.27"/><g clip-path="url(#e)"><path fill="none" stroke="#000" stroke-miterlimit="10" stroke-width="1.19482792" d="M225.961 84.945h-54.934m0 0h-54.93v11.266m0 0v11.27"/></g><use xlink:href="#f" x="189.68" y="37.436"/><use xlink:href="#g" x="91.543" y="50.473"/><use xlink:href="#h" x="40.46" y="65.606"/><use xlink:href="#i" x="26.676" y="78.644"/><path fill="none" stroke="#999" stroke-miterlimit="10" stroke-width=".009990200000000001" d="M225.961 113.113"/><path fill="none" stroke="#000" stroke-miterlimit="10" stroke-width=".39860898" d="M.895 113.113H225.66"/><path d="m1.395 113.113 2.968 1.762v-3.523Zm0 0"/><g clip-path="url(#j)"><path fill="none" stroke="#000" stroke-miterlimit="10" stroke-width=".39860898" d="m1.395 113.113 2.968 1.762v-3.523Zm0 0"/></g><path fill="none" stroke="#000" stroke-miterlimit="10" stroke-width=".39860898" d="M.797 115.402v-4.578"/><path d="m225.164 113.113-2.973-1.761v3.523Zm0 0"/><g clip-path="url(#k)"><path fill="none" stroke="#000" stroke-miterlimit="10" stroke-width=".39860898" d="m225.164 113.113-2.973-1.761v3.523Zm0 0"/></g><path fill="none" stroke="#000" stroke-miterlimit="10" stroke-width=".39860898" d="M225.762 110.824v4.578"/><g clip-path="url(#l)"><path fill="#FFF" d="M101.844 118.879h22.87v-11.527h-22.87Zm0 0"/></g><use xlink:href="#m" x="104.827" y="115.802"/><use xlink:href="#n" x="108.992" y="115.802"/><use xlink:href="#o" x="114.644" y="115.802"/></svg>