<svg xmlns="http://www.w3.org/2000/svg" xmlns:xlink="http://www.w3.org/1999/xlink" width="223.211" height="222.302"><defs><path id="a" d="M4.297-2.469H.547V-3h3.75Zm0 0"/><path id="j" d="M2.484-3.031h1.563v.469H2.484v1.671h-.5v-1.671H.422v-.47h1.562v-1.655h.5Zm0 0"/><path id="k" d="M1.094-.484v-5.203l-.547-.125c-.086-.02-.125-.055-.125-.11q0-.075.094-.25h4.03q.062.751.063 1.063c0 .261-.086.39-.25.39a.6.6 0 0 1-.203-.031l-.218-.937H1.874v2.312h1.984v.5H1.875v2.36H4l.25-.954a.4.4 0 0 1 .203-.047q.218 0 .219.375 0 .363-.078 1.141H.422a.16.16 0 0 1-.016-.078Q.404-.324.72-.406Zm0 0"/><path id="l" d="m4.484-.484-.578-1.641H1.688l-.594 1.64.672.126q.124.017.125.093 0 .066-.094.266H-.078a.2.2 0 0 1-.016-.078Q-.096-.342.22-.406l.25-.063L2.64-6.172l.562-.062L5.343-.47l.391.11q.124.034.125.093 0 .048-.093.266H3.859a.16.16 0 0 1-.015-.078q-.002-.246.297-.328Zm-2.64-2.11h1.89l-.921-2.61h-.016Zm0 0"/><path id="d" d="M3.5-5.844c-.219 0-.75.078-1.094.078S1.72-5.78 1.328-5.78l-.031.015-.031.188c-.016.031 0 .062.046.062l.329.016c.125 0 .312.063.312.281 0 .032 0 .063-.016.094L1.064-.641c-.047.25-.172.36-.547.375l-.22.032C.25-.234.22-.22.22-.172L.172 0l.031.016C.593.016.953 0 1.281 0c.344 0 .688.016 1.094.016L2.406 0l.031-.172c0-.047-.03-.062-.062-.062l-.219-.032C1.875-.28 1.75-.344 1.75-.53c0-.031 0-.063.016-.11l.375-1.953c.718 0 .875.125.953.328l.61 1.563c.171.422.468.797.983.797.125 0 .282-.016.375-.063l.032-.218c-.39 0-.532-.297-.688-.688L3.688-2.75c.39-.125 1.25-.594 1.437-1.531.031-.11.047-.235.047-.344a1.13 1.13 0 0 0-.281-.766c-.328-.406-.86-.453-1.391-.453m-.062.297c.453 0 .984.172.984.89 0 .11-.031.235-.047.391-.219 1.11-.922 1.36-1.75 1.36h-.422l.438-2.219c.046-.266.187-.422.797-.422m0 0"/><path id="e" d="M.438-3.344c0 .156.14.281.28.281.126 0 .345-.124.345-.28 0-.063-.016-.11-.032-.157-.015-.047-.062-.11-.062-.172 0-.172.187-.437.703-.437.266 0 .625.187.625.875 0 .453-.156.828-.578 1.25l-.532.515C.485-.75.375-.406.375.016c0 0 .36-.016.594-.016h1.25c.219 0 .547.016.547.016.093-.375.172-.922.172-1.125-.032-.047-.126-.047-.204-.047-.125.515-.25.687-.5.687H.97c0-.343.484-.828.531-.86l.719-.687c.406-.39.703-.718.703-1.25 0-.78-.625-1.093-1.203-1.093-.797 0-1.281.593-1.281 1.015m0 0"/><path id="g" d="M2.063-.875v-2.469c0-.437 0-.875.015-.969 0-.03-.015-.03-.047-.03-.39.25-.765.421-1.39.718.015.078.03.14.109.188.328-.141.484-.172.61-.172.124 0 .14.172.14.406v2.328c0 .594-.187.625-.687.656-.047.047-.047.188 0 .235C1.156 0 1.422 0 1.813 0c.343 0 .515 0 .859.016.047-.047.047-.188 0-.235-.5-.031-.61-.062-.61-.656m0 0"/><clipPath id="b"><path d="M132 211h1v10.563h-1Zm0 0"/></clipPath><clipPath id="c"><path d="M125 220h14v1.563h-14Zm0 0"/></clipPath><clipPath id="f"><path d="M66 .043h16V13H66Zm0 0"/></clipPath><clipPath id="h"><path d="M125 .043h15V13h-15Zm0 0"/></clipPath><clipPath id="i"><path d="M159 .043h15V13h-15Zm0 0"/></clipPath></defs><path fill="none" stroke="#000" stroke-miterlimit="10" stroke-width=".39759552000000004" d="M5.512 211.277h34.32m0 0h102.957m0 0h68.64"/><path fill="#FFF" stroke="#000" stroke-miterlimit="10" stroke-width=".39759552000000004" d="M7.094 211.277a1.582 1.582 0 0 0-3.164 0 1.583 1.583 0 0 0 3.164 0Zm0 0"/><path stroke="#000" stroke-miterlimit="10" stroke-width=".39759552000000004" d="M75.73 211.277a1.58 1.58 0 1 0-3.161.003 1.58 1.58 0 0 0 3.161-.003Zm0 0"/><path fill="#FFF" stroke="#000" stroke-miterlimit="10" stroke-width=".39759552000000004" d="M213.012 211.277a1.582 1.582 0 0 0-3.164 0 1.583 1.583 0 0 0 3.164 0Zm0 0"/><use xlink:href="#a" x="214.604" y="212.776"/><path fill="none" stroke="#000" stroke-miterlimit="10" stroke-width=".39759552000000004" d="M5.512 108.32h30.363m7.91 0H91.31m0 0h17.16"/><path fill="none" stroke="#000" stroke-miterlimit="10" stroke-width=".7941945600000001" d="M35.875 96.457v23.727m7.91-23.727v23.727"/><path fill="#FFF" stroke="#000" stroke-miterlimit="10" stroke-width=".39759552000000004" d="M7.094 108.32a1.583 1.583 0 1 0-3.166.002 1.583 1.583 0 0 0 3.166-.002Zm0 0"/><path stroke="#000" stroke-miterlimit="10" stroke-width=".39759552000000004" d="M75.73 108.32a1.58 1.58 0 1 0-3.16 0c0 .871.707 1.582 1.582 1.582.871 0 1.578-.71 1.578-1.582Zm0 0"/><path fill="none" stroke="#000" stroke-miterlimit="10" stroke-width=".7941945600000001" d="M140.172 108.32c0-8.101-6.563-14.668-14.664-14.668-8.098 0-14.664 6.567-14.664 14.668 0 8.098 6.566 14.664 14.664 14.664 8.101 0 14.664-6.566 14.664-14.664Zm0 0"/><path fill="none" stroke="#000" stroke-miterlimit="10" stroke-width=".39759552000000004" d="M132.2 86.371v13.25l-11.864 5.438"/><path fill="none" stroke="#000" stroke-miterlimit="10" stroke-width=".7941945600000001" d="M120.336 99.621v17.399"/><path fill="none" stroke="#000" stroke-miterlimit="10" stroke-width=".39759552000000004" d="m120.336 111.582 11.863 5.438v13.25"/><path d="m124.512 113.496.949-2.07 3.68 4.191-5.578-.05Zm0 0"/><path fill="none" stroke="#000" stroke-miterlimit="10" stroke-width=".39759552000000004" d="M120.336 108.32h-12.063M132.2 130.07v24.785m0 31.637v24.785"/><path fill="none" stroke="#000" stroke-miterlimit="10" stroke-width=".7941945600000001" d="M126.266 186.492v-31.637h11.863v31.637Zm0 0"/><path stroke="#000" stroke-miterlimit="10" stroke-width=".39759552000000004" d="M133.781 211.277a1.582 1.582 0 0 0-3.164 0 1.583 1.583 0 0 0 3.164 0Zm0 0"/><g clip-path="url(#b)"><path fill="none" stroke="#000" stroke-miterlimit="10" stroke-width=".39759552000000004" d="M132.2 211.277v9.887"/></g><g clip-path="url(#c)"><path fill="none" stroke="#000" stroke-linecap="round" stroke-miterlimit="10" stroke-width=".7941945600000001" d="M126.266 221.164h11.863"/></g><path fill="none" stroke="#000" stroke-miterlimit="10" stroke-width=".39759552000000004" d="M132.2 86.57h35.66m7.91 0h35.66"/><path fill="none" stroke="#000" stroke-miterlimit="10" stroke-width=".7941945600000001" d="M167.86 74.707v23.727m7.91-23.727v23.727"/><path stroke="#000" stroke-miterlimit="10" stroke-width=".39759552000000004" d="M133.781 86.57a1.583 1.583 0 1 0-3.166.002 1.583 1.583 0 0 0 3.166-.002Zm0 0"/><path fill="#FFF" stroke="#000" stroke-miterlimit="10" stroke-width=".39759552000000004" d="M213.012 86.57a1.583 1.583 0 1 0-3.162.002 1.583 1.583 0 0 0 3.162-.002Zm0 0"/><path fill="none" stroke="#000" stroke-miterlimit="10" stroke-width=".39759552000000004" d="M132.2 130.07h17.16m0 0h17.16v36.649m0 7.91v36.648"/><path stroke="#000" stroke-miterlimit="10" stroke-width=".39759552000000004" d="M133.781 130.07a1.583 1.583 0 1 0-3.166.002 1.583 1.583 0 0 0 3.166-.002Zm0 0"/><path fill="none" stroke="#000" stroke-miterlimit="10" stroke-width=".7941945600000001" d="M178.383 166.719h-23.73m23.73 7.91h-23.73"/><path stroke="#000" stroke-miterlimit="10" stroke-width=".39759552000000004" d="M168.098 211.277a1.58 1.58 0 1 0-3.161.003 1.58 1.58 0 0 0 3.16-.003Zm0 0"/><path fill="none" stroke="#000" stroke-miterlimit="10" stroke-width=".39759552000000004" d="M74.152 108.32v35.66m0 31.637v35.66"/><path fill="none" stroke="#000" stroke-miterlimit="10" stroke-width=".7941945600000001" d="M68.219 175.617V143.98h11.863v31.637Zm0 0"/><use xlink:href="#d" x="82.283" y="161.944"/><use xlink:href="#e" x="87.546" y="163.821"/><path fill="none" stroke="#000" stroke-miterlimit="10" stroke-width=".39759552000000004" d="M74.152 108.32V72.656m0-31.637V5.36h29.024m0 0h29.023v24.785m0 31.637v24.79"/><path fill="none" stroke="#000" stroke-miterlimit="10" stroke-width=".7941945600000001" d="M80.082 41.02v31.636H68.22V41.02Zm0 0"/><path d="M75.73 5.36a1.58 1.58 0 1 0-3.16 0 1.58 1.58 0 1 0 3.16 0m0 0"/><g clip-path="url(#f)"><path fill="none" stroke="#000" stroke-miterlimit="10" stroke-width=".39759552000000004" d="M75.73 5.36a1.58 1.58 0 1 0-3.16 0 1.58 1.58 0 1 0 3.16 0Zm0 0"/></g><use xlink:href="#d" x="82.283" y="58.985"/><use xlink:href="#g" x="87.546" y="60.862"/><path fill="none" stroke="#000" stroke-miterlimit="10" stroke-width=".7941945600000001" d="M126.266 61.781V30.144h11.863v31.637Zm0 0"/><path fill="none" stroke="#000" stroke-miterlimit="10" stroke-width=".39759552000000004" d="M74.152 5.36h-17.16m0 0h-17.16v13.206m0 7.907V39.68"/><path fill="none" stroke="#000" stroke-miterlimit="10" stroke-width=".7941945600000001" d="M51.695 18.566h-23.73m23.73 7.907h-23.73"/><path fill="none" stroke="#000" stroke-miterlimit="10" stroke-width=".39759552000000004" d="M39.832 39.68v9.886"/><path fill="none" stroke="#000" stroke-linecap="round" stroke-miterlimit="10" stroke-width=".7941945600000001" d="M33.898 49.566h11.864"/><path fill="none" stroke="#000" stroke-miterlimit="10" stroke-width=".39759552000000004" d="M132.2 5.36h17.16m0 0h17.16"/><path d="M133.781 5.36a1.583 1.583 0 1 0-3.166.001 1.583 1.583 0 0 0 3.166-.002m0 0"/><g clip-path="url(#h)"><path fill="none" stroke="#000" stroke-miterlimit="10" stroke-width=".39759552000000004" d="M133.781 5.36a1.583 1.583 0 1 0-3.166.001 1.583 1.583 0 0 0 3.166-.002Zm0 0"/></g><path fill="#FFF" d="M168.098 5.36a1.58 1.58 0 1 0-3.16 0 1.58 1.58 0 1 0 3.16 0m0 0"/><g clip-path="url(#i)"><path fill="none" stroke="#000" stroke-miterlimit="10" stroke-width=".39759552000000004" d="M168.098 5.36a1.58 1.58 0 1 0-3.16 0 1.58 1.58 0 1 0 3.16 0Zm0 0"/></g><use xlink:href="#j" x="169.693" y="7.703"/><use xlink:href="#k" x="2.977" y="105.144"/><use xlink:href="#l" x="208.515" y="83.394"/></svg>