<svg xmlns="http://www.w3.org/2000/svg" width="113.388" height="85.041"><defs><clipPath id="a"><path d="M.328 5h112.125v74H.328Zm0 0"/></clipPath><clipPath id="b"><path d="M.328 0h112.125v48H.328Zm0 0"/></clipPath><clipPath id="c"><path d="M.328 36h112.125v48.094H.328Zm0 0"/></clipPath></defs><g clip-path="url(#a)"><path fill="#7F7F7F" fill-opacity=".5" d="M.328 15.29s.41-.993.567-1.368a83.123 83.123 0 0 1 1.125-2.625c.156-.348.406-.887.562-1.203.156-.32.41-.809.566-1.098.157-.285.407-.715.563-.965.156-.246.406-.613.562-.816s.407-.492.563-.649c.156-.156.406-.363.566-.468.157-.106.407-.23.563-.282a2 2 0 0 1 .562-.082c.157.004.407.055.563.11.156.058.406.199.562.308.157.114.41.332.567.496.156.16.406.465.562.672.156.211.406.586.563.84s.406.692.562.985c.156.289.41.789.567 1.113.156.32.406.867.562 1.215.156.347.406.925.563 1.293s.406.968.562 1.347a488 488 0 0 1 1.13 2.735 81.851 81.851 0 0 0 1.125 2.61c.155.339.41.874.565 1.187.157.316.407.796.563 1.078.156.28.406.707.562.945.157.242.407.598.563.793.156.2.406.477.566.625.157.148.407.348.563.445s.406.211.562.254.407.067.563.055.406-.074.562-.14.41-.216.567-.333c.156-.12.406-.351.562-.523a9 9 0 0 0 .563-.696c.156-.218.406-.601.562-.859.157-.262.41-.71.567-1.004.156-.297.406-.8.562-1.129a62 62 0 0 0 1.125-2.531c.156-.367.41-.973.567-1.352l.562-1.37c.156-.38.406-.989.563-1.364s.406-.969.562-1.328.41-.926.567-1.266c.156-.336.406-.863.562-1.172.156-.312.406-.785.563-1.062.156-.274.406-.688.562-.926.156-.234.406-.578.566-.77a6.5 6.5 0 0 1 .563-.597c.156-.145.406-.328.562-.418s.407-.191.563-.227c.156-.035.406-.046.562-.027.157.02.41.094.567.168.156.07.406.234.562.36.157.124.407.37.563.546s.406.5.562.723c.157.219.41.617.567.879.156.265.406.723.562 1.023.156.301.406.813.563 1.145.156.328.406.883.562 1.238a110 110 0 0 1 1.13 2.668c.155.379.405.992.562 1.371.156.38.406.988.562 1.36a89 89 0 0 0 1.129 2.574 28.04 28.04 0 0 0 1.125 2.203c.156.27.406.676.563.906.16.227.41.563.566.746s.406.442.562.574c.157.133.407.31.563.391s.406.172.562.2c.157.027.41.027.567 0 .156-.028.406-.114.562-.196.157-.078.407-.254.563-.387s.406-.39.562-.57c.157-.184.41-.52.567-.746.156-.23.406-.633.562-.902.157-.27.407-.735.563-1.043a46 46 0 0 0 1.129-2.41 111 111 0 0 0 1.125-2.676c.156-.38.406-.996.562-1.375.156-.38.41-.985.567-1.356a64.103 64.103 0 0 1 1.125-2.555c.156-.328.406-.843.562-1.144s.406-.758.563-1.024c.16-.265.41-.66.566-.882.156-.223.406-.547.562-.727.157-.176.407-.422.563-.547.156-.129.406-.289.562-.363a2.2 2.2 0 0 1 .567-.172c.156-.02.406-.008.562.027.157.032.407.133.563.223.156.086.406.274.562.414s.41.406.567.594c.156.191.406.535.562.77s.407.648.563.921c.156.278.406.75.562 1.059.157.312.41.836.567 1.176.156.336.406.902.562 1.261a162.205 162.205 0 0 1 1.125 2.691l.567 1.372c.156.375.406.98.562 1.351.156.368.406.954.563 1.305.156.352.406.902.562 1.227.156.328.406.836.563 1.129.16.297.41.75.566 1.007.156.258.406.645.563.864.156.215.406.527.562.699.156.168.406.406.563.523.156.121.41.27.566.336.156.067.406.133.562.145s.407-.012.563-.055.406-.152.562-.25c.157-.094.41-.293.567-.441.156-.145.406-.426.562-.621.157-.196.407-.551.563-.79.156-.242.406-.663.562-.945.157-.277.41-.761.567-1.074.156-.316.406-.848.562-1.187.156-.344.406-.915.563-1.274.156-.363.406-.96.562-1.336.156-.37.406-.984.567-1.363.156-.379.406-.996.562-1.371.156-.38.406-.98.563-1.348.156-.367.406-.945.562-1.293.156-.351.406-.894.563-1.219.156-.324.41-.82.566-1.113a22 22 0 0 1 .563-.988c.156-.254.406-.629.562-.84a9 9 0 0 1 .563-.676c.156-.164.41-.386.566-.496.156-.113.406-.254.562-.312.157-.059.407-.11.563-.114a2 2 0 0 1 .562.082c.157.047.41.172.567.278.156.101.406.308.562.465.157.156.407.445.563.648.156.2.406.566.562.813.157.246.41.675.567.96.156.286.406.778.562 1.094.156.32.406.856.563 1.203.156.344.406.918.562 1.282.156.363.406.964.567 1.34.156.374.406.988.562 1.367.156.382.406.996.563 1.37.156.376.406.977.562 1.34a51.006 51.006 0 0 0 1.129 2.492c.156.317.406.81.563 1.095.156.289.406.722.562.968s.406.614.563.817c.156.207.41.496.566.652s.406.367.562.473.407.234.563.285.406.09.562.086.41-.051.567-.11c.156-.054.406-.191.562-.304.157-.11.407-.328.563-.492.156-.16.406-.461.562-.672.157-.207.41-.582.567-.832.156-.254.406-.696.562-.985s.407-.789.563-1.11c.156-.323.406-.866.562-1.214s.407-.926.567-1.293c.156-.367.406-.969.562-1.344.156-.379.406-.992.563-1.37.156-.38.406-.993.562-1.368s.406-.973.563-1.336.41-.934.566-1.273c.156-.344.406-.875.563-1.192s.406-.8.562-1.082c.156-.281.406-.703.563-.945s.41-.598.566-.797c.156-.195.406-.477.563-.625.156-.152.406-.352.562-.45.156-.097.406-.21.563-.253s.41-.07.566-.063c.156.012.406.075.562.141.157.063.407.21.563.328.156.117.406.352.562.52s.41.48.567.695.406.598.562.855c.157.258.407.707.563 1.004s.406.801.562 1.125c.157.328.407.875.563 1.227.16.351.41.934.566 1.305.156.367.406.972.563 1.347l.562 1.371c.156.383.406.993.563 1.368.156.37.566 1.328.566 1.328v47.398s-.41.953-.566 1.328c-.157.375-.407.985-.563 1.364l-.562 1.37c-.157.38-.407.985-.563 1.352a68 68 0 0 1-1.129 2.528c-.156.328-.406.832-.562 1.124a23 23 0 0 1-.563 1.004c-.156.258-.406.641-.562.856-.156.219-.41.527-.567.695a5 5 0 0 1-.562.52 3.3 3.3 0 0 1-.563.332 2.1 2.1 0 0 1-.562.136 2 2 0 0 1-.567-.058 2.8 2.8 0 0 1-.562-.258 4.3 4.3 0 0 1-.562-.445 7 7 0 0 1-.563-.63 13 13 0 0 1-.566-.792 20 20 0 0 1-1.125-2.031 49 49 0 0 1-.563-1.188c-.156-.344-.41-.914-.566-1.277-.157-.364-.407-.961-.563-1.336-.156-.371-.406-.985-.562-1.363-.157-.383-.407-.997-.563-1.372-.156-.378-.406-.98-.562-1.347-.16-.363-.41-.945-.567-1.293s-.406-.89-.562-1.211a21.903 21.903 0 0 0-1.125-2.094 13 13 0 0 0-.567-.836 9 9 0 0 0-.562-.672 5 5 0 0 0-.563-.492 3 3 0 0 0-.562-.305 2.2 2.2 0 0 0-.567-.109 2 2 0 0 0-.562.09c-.156.05-.406.176-.563.281a4.6 4.6 0 0 0-.562.473c-.156.156-.41.45-.566.652-.157.203-.407.57-.563.817-.156.25-.406.683-.562.968s-.407.778-.563 1.098-.41.86-.566 1.203c-.157.344-.407.922-.563 1.285-.156.364-.406.965-.562 1.34-.157.379-.407.992-.563 1.371-.156.38-.406.992-.562 1.367-.16.375-.41.977-.567 1.34s-.406.942-.562 1.285c-.156.344-.406.883-.563 1.2-.156.32-.406.808-.562 1.093-.156.286-.41.72-.567.965-.156.246-.406.61-.562.813a7 7 0 0 1-.563.644 4.6 4.6 0 0 1-.562.469c-.156.102-.41.227-.567.277a2 2 0 0 1-.562.082 2 2 0 0 1-.563-.117 3 3 0 0 1-.562-.308 5 5 0 0 1-.566-.5 8 8 0 0 1-.563-.676c-.156-.211-.406-.586-.562-.84a22 22 0 0 1-.563-.988c-.156-.29-.41-.79-.566-1.114-.157-.32-.407-.867-.563-1.214-.156-.348-.406-.93-.562-1.297-.157-.368-.407-.97-.563-1.344l-.562-1.371c-.16-.383-.41-.992-.567-1.367s-.406-.973-.562-1.332a68 68 0 0 0-.563-1.274 30.228 30.228 0 0 0-1.129-2.266 18 18 0 0 0-.562-.94 12 12 0 0 0-.563-.794 7 7 0 0 0-.562-.62 4.3 4.3 0 0 0-.567-.442 2.7 2.7 0 0 0-.562-.25 2 2 0 0 0-.563-.055 2.3 2.3 0 0 0-.562.145c-.156.066-.41.218-.567.335a6 6 0 0 0-.562.524 9 9 0 0 0-.562.703c-.157.215-.407.602-.563.86-.156.261-.406.71-.566 1.007a38 38 0 0 0-1.125 2.36c-.157.351-.407.933-.563 1.304-.156.367-.406.973-.562 1.352-.157.375-.41.992-.567 1.37-.156.38-.406.99-.562 1.364-.157.371-.407.965-.563 1.324s-.406.926-.562 1.266c-.157.336-.41.863-.567 1.172a29 29 0 0 1-.562 1.059 19 19 0 0 1-.563.921 12 12 0 0 1-.562.77c-.156.187-.41.457-.567.598a4 4 0 0 1-.562.414 2.6 2.6 0 0 1-.563.222 2 2 0 0 1-.562.028 2.4 2.4 0 0 1-.567-.172 3.5 3.5 0 0 1-.562-.364 6 6 0 0 1-.563-.55 10 10 0 0 1-.562-.723 21 21 0 0 1-.566-.883 27 27 0 0 1-1.125-2.172 64 64 0 0 1-1.125-2.554c-.157-.368-.41-.977-.567-1.356l-.562-1.37c-.157-.38-.407-.99-.563-1.36s-.406-.965-.562-1.32-.41-.919-.567-1.25a41 41 0 0 0-.562-1.16c-.157-.305-.407-.77-.563-1.04s-.406-.676-.562-.902c-.157-.23-.41-.563-.567-.746a7 7 0 0 0-.562-.574 3.7 3.7 0 0 0-.563-.387 2.5 2.5 0 0 0-.562-.195 2 2 0 0 0-.567.003 2.3 2.3 0 0 0-.562.196 4 4 0 0 0-.563.39 7 7 0 0 0-.562.578c-.156.18-.406.516-.566.747-.157.23-.407.632-.563.902-.156.273-.406.738-.562 1.043-.157.309-.407.828-.563 1.16a79 79 0 0 0-1.129 2.574c-.156.371-.406.98-.562 1.36-.157.379-.407.996-.563 1.375-.156.375-.406.984-.562 1.355-.157.367-.41.957-.567 1.309a39 39 0 0 1-1.125 2.383c-.156.3-.406.761-.562 1.023-.157.266-.41.66-.567.883s-.406.543-.562.722a6 6 0 0 1-.563.547 3.5 3.5 0 0 1-.562.36c-.156.074-.41.148-.567.168s-.406.004-.562-.032a2.6 2.6 0 0 1-.563-.222 4 4 0 0 1-.562-.418 7 7 0 0 1-.563-.602 10 10 0 0 1-.566-.77 18 18 0 0 1-.562-.925 29 29 0 0 1-1.125-2.234c-.157-.34-.41-.907-.567-1.266-.156-.36-.406-.953-.562-1.324-.157-.375-.407-.985-.563-1.368l-.562-1.37c-.157-.376-.41-.981-.567-1.352a62.61 62.61 0 0 0-1.125-2.531 38 38 0 0 0-.562-1.125c-.157-.297-.41-.746-.567-1.004a15 15 0 0 0-.562-.86 8 8 0 0 0-.563-.699 5 5 0 0 0-.562-.52 3 3 0 0 0-.567-.335 2.1 2.1 0 0 0-.562-.141 2 2 0 0 0-.563.059 2.6 2.6 0 0 0-.562.254 4 4 0 0 0-.563.44 7 7 0 0 0-.566.626c-.156.195-.406.55-.563.793-.156.242-.406.664-.562.945a34 34 0 0 0-1.129 2.266c-.156.344-.406.914-.562 1.277-.157.36-.407.957-.563 1.332s-.406.988-.562 1.367l-.567 1.371c-.156.375-.406.98-.562 1.348-.157.363-.407.945-.563 1.293s-.406.89-.562 1.215c-.157.324-.41.82-.567 1.11a22 22 0 0 1-.562.988c-.156.25-.406.625-.563.836a9 9 0 0 1-.562.675c-.156.16-.41.383-.567.493-.156.113-.406.25-.562.308-.156.059-.406.11-.563.113a2 2 0 0 1-.562-.086 2.7 2.7 0 0 1-.563-.28 4 4 0 0 1-.566-.47 7 7 0 0 1-.563-.648c-.156-.203-.406-.57-.562-.816s-.406-.68-.563-.965-.41-.778-.566-1.094c-.156-.32-.406-.86-.562-1.203a84 84 0 0 1-.563-1.285c-.156-.364-.406-.965-.562-1.34s-.567-1.367-.567-1.367Zm0 0"/></g><g clip-path="url(#b)"><path fill="none" stroke="#000" stroke-miterlimit="10" stroke-width="1.5762269" d="M.328 15.29s.41-.993.567-1.368a83.12 83.12 0 0 1 1.125-2.625c.156-.348.406-.887.562-1.203.156-.32.41-.809.566-1.098.157-.285.407-.715.563-.965.156-.246.406-.613.562-.816s.407-.492.563-.649c.156-.156.406-.363.566-.468.157-.106.407-.23.563-.282a2 2 0 0 1 .562-.082c.157.004.407.055.563.11.156.058.406.199.562.308.157.114.41.332.567.496.156.16.406.465.562.672.157.211.407.586.563.84s.406.692.562.985c.157.289.41.789.567 1.113.156.32.406.867.562 1.215.156.347.406.925.563 1.293s.406.968.562 1.347a489 489 0 0 1 1.13 2.735 81.86 81.86 0 0 0 1.125 2.61c.155.339.41.874.565 1.187.157.316.407.796.563 1.078.156.28.406.707.562.945.157.242.407.598.563.793.156.2.406.476.566.625.157.148.407.348.563.445s.406.211.562.254.407.067.563.055.406-.074.562-.14.41-.216.567-.333c.156-.12.406-.351.562-.523a9 9 0 0 0 .563-.696c.156-.218.406-.601.562-.859.157-.262.41-.71.567-1.004.156-.297.406-.8.562-1.129a62 62 0 0 0 1.125-2.531c.156-.367.41-.973.567-1.352l.562-1.37c.156-.38.406-.989.563-1.364s.406-.969.562-1.328.41-.926.567-1.266c.156-.336.406-.863.562-1.172.156-.312.406-.785.563-1.062.156-.274.406-.688.562-.926.156-.234.406-.578.566-.77a6.5 6.5 0 0 1 .563-.597c.156-.145.406-.328.562-.418s.407-.191.563-.227c.156-.035.406-.046.562-.027.157.02.41.094.567.168.156.07.406.234.562.36.157.124.407.37.563.546s.406.5.562.723c.157.219.41.617.567.879.156.265.406.723.562 1.023.156.301.406.813.563 1.145.156.328.406.883.562 1.238a110 110 0 0 1 1.13 2.668c.155.379.405.992.562 1.371.156.38.406.988.562 1.36a89 89 0 0 0 1.129 2.574 28.039 28.039 0 0 0 1.125 2.203c.156.27.406.676.563.906.16.227.41.563.566.746s.406.442.562.574c.157.133.407.31.563.391s.406.172.562.2c.157.027.41.027.567 0 .156-.028.406-.114.562-.196.157-.078.407-.254.563-.387s.406-.39.562-.57c.157-.184.41-.52.567-.746.156-.23.406-.633.562-.902.157-.27.407-.735.563-1.043a46 46 0 0 0 1.129-2.41 111 111 0 0 0 1.125-2.676c.156-.38.406-.996.562-1.375.156-.38.41-.985.567-1.356a64.101 64.101 0 0 1 1.125-2.555c.156-.328.406-.843.562-1.144s.406-.758.563-1.024c.16-.265.41-.66.566-.882.156-.223.406-.547.562-.727.157-.176.407-.422.563-.547.156-.129.406-.289.562-.363a2.2 2.2 0 0 1 .567-.172c.156-.02.406-.008.562.027.157.032.407.133.563.223.156.086.406.274.562.414s.41.406.567.594c.156.191.406.535.562.77s.407.648.563.921c.156.278.406.75.562 1.059.157.312.41.836.567 1.176.156.336.406.902.562 1.261a162.18 162.18 0 0 1 1.125 2.691l.567 1.372c.156.375.406.98.562 1.351.156.368.406.954.563 1.305.156.352.406.902.562 1.227.156.328.406.836.563 1.129.16.296.41.75.566 1.007.156.258.406.645.563.864.156.215.406.527.562.699.156.168.406.406.563.523.156.121.41.27.566.336.156.067.406.133.562.145s.407-.012.563-.055.406-.152.562-.25c.157-.094.41-.293.567-.441.156-.145.406-.426.562-.621.157-.196.407-.551.563-.79.156-.242.406-.663.562-.945.157-.277.41-.761.567-1.074.156-.316.406-.848.562-1.187.156-.344.406-.915.563-1.274.156-.363.406-.96.562-1.336.156-.37.406-.984.567-1.363.156-.379.406-.996.562-1.371.156-.38.406-.98.563-1.348.156-.367.406-.945.562-1.293.156-.351.406-.894.563-1.219.156-.324.41-.82.566-1.113a22 22 0 0 1 .563-.988c.156-.254.406-.629.562-.84a9 9 0 0 1 .563-.676c.156-.164.41-.386.566-.496.156-.113.406-.254.562-.312.157-.059.407-.11.563-.114a2 2 0 0 1 .562.082c.157.047.41.172.567.278.156.101.406.308.562.465.157.156.407.445.563.648.156.2.406.566.562.813.157.246.41.675.567.96.156.286.406.778.562 1.094.157.32.407.856.563 1.203.156.344.406.918.562 1.282.157.363.407.964.567 1.34.156.374.406.988.562 1.367.156.382.406.996.563 1.37.156.376.406.977.562 1.34a51.005 51.005 0 0 0 1.129 2.492c.156.317.406.81.563 1.094.156.29.406.723.562.97.156.245.406.613.563.816.156.207.41.496.566.652s.406.367.562.473.407.234.563.285.406.09.562.086.41-.051.567-.11c.156-.054.406-.191.562-.304.157-.11.407-.328.563-.493.156-.16.406-.46.562-.671.157-.207.41-.582.567-.832.156-.254.406-.696.562-.985s.407-.789.563-1.11c.156-.323.406-.866.562-1.214s.407-.926.567-1.293c.156-.367.406-.969.562-1.344.156-.379.406-.992.563-1.37.156-.38.406-.993.562-1.368s.406-.973.563-1.336.41-.934.566-1.273c.156-.344.406-.875.563-1.192s.406-.8.562-1.082c.156-.281.406-.703.563-.945s.41-.598.566-.797c.156-.195.406-.477.563-.625.156-.152.406-.352.562-.45.156-.097.406-.21.563-.253s.41-.07.566-.063c.156.012.406.075.562.141.157.062.407.21.563.328.156.117.406.352.562.52s.41.48.567.695.406.598.562.855c.157.258.407.707.563 1.004s.406.801.562 1.125c.157.328.407.875.563 1.227.16.351.41.933.566 1.305.156.367.406.972.563 1.347l.562 1.371c.156.383.406.993.563 1.368.156.37.566 1.328.566 1.328"/></g><g clip-path="url(#c)"><path fill="none" stroke="#000" stroke-miterlimit="10" stroke-width="1.5762269" d="M.328 68.805s.41.992.567 1.367.406.976.562 1.34A59.226 59.226 0 0 0 2.582 74c.156.316.41.809.566 1.094.157.285.407.718.563.965.156.246.406.613.562.816s.407.496.563.648c.156.157.406.368.566.47.157.105.407.23.563.28s.406.09.562.086.407-.054.563-.113.406-.195.562-.309c.157-.109.41-.332.567-.492a9 9 0 0 0 .562-.675c.157-.211.407-.586.563-.836a22 22 0 0 0 .562-.989 32 32 0 0 0 1.13-2.324c.155-.348.405-.93.562-1.293.156-.367.406-.973.562-1.348l.567-1.37c.156-.38.406-.993.562-1.368s.406-.972.563-1.332c.156-.363.406-.933.562-1.277a34.093 34.093 0 0 1 1.129-2.266c.156-.281.406-.703.562-.945s.407-.598.563-.793a7 7 0 0 1 .566-.625c.157-.149.407-.348.563-.442.156-.097.406-.21.562-.253a2 2 0 0 1 .563-.059c.156.012.406.074.562.14s.41.215.567.337c.156.117.406.351.562.52.157.167.407.48.563.698.156.215.406.602.562.86.157.257.41.707.567 1.004.156.293.406.8.562 1.125a63 63 0 0 1 1.125 2.53l.567 1.352.562 1.371c.156.383.406.993.563 1.368.156.37.406.965.562 1.324s.41.926.567 1.266.406.863.562 1.175c.156.309.406.785.563 1.059.156.277.406.691.562.926.156.234.406.582.566.77.157.19.407.46.563.6.156.141.406.329.562.419.157.086.407.187.563.222s.406.051.562.032c.157-.02.41-.094.567-.168s.406-.235.562-.36c.157-.129.407-.37.563-.547.156-.18.406-.5.562-.722.157-.223.41-.617.567-.883.156-.262.406-.723.562-1.023a39 39 0 0 0 1.125-2.383c.156-.352.41-.942.567-1.309.156-.371.406-.98.562-1.355.156-.38.406-.996.563-1.375.156-.38.406-.989.562-1.36.156-.37.41-.965.567-1.32s.406-.918.562-1.254c.156-.332.406-.852.563-1.16.156-.305.406-.77.562-1.043.156-.27.406-.672.563-.902.16-.23.41-.567.566-.747.156-.183.406-.44.562-.578.157-.132.407-.308.563-.39s.406-.168.562-.196.41-.03.567-.003.406.117.562.195c.157.082.407.254.563.387.156.136.406.39.562.574s.41.515.567.746c.156.226.406.633.562.902.157.27.407.735.563 1.04.156.304.406.823.562 1.16.157.331.41.894.567 1.25.156.355.406.949.562 1.32.156.37.406.98.563 1.36l.562 1.37a159 159 0 0 0 1.13 2.668 39.323 39.323 0 0 0 1.125 2.387c.155.3.405.762.562 1.027.16.262.41.66.566.883s.406.547.562.723.407.422.563.55c.156.125.406.29.562.364s.41.148.567.172c.156.02.406.007.562-.028s.407-.136.563-.222a4 4 0 0 0 .562-.414c.157-.141.41-.41.567-.598.156-.191.406-.535.562-.77a19 19 0 0 0 .563-.921c.156-.274.406-.75.562-1.06.157-.308.41-.835.567-1.17a81 81 0 0 0 1.125-2.59l.562-1.364c.156-.379.41-.996.567-1.371.156-.38.406-.985.562-1.352a62.608 62.608 0 0 1 1.125-2.535c.156-.328.406-.832.563-1.129.16-.297.41-.746.566-1.008.156-.257.406-.644.563-.859.156-.219.406-.531.562-.703.156-.168.406-.402.563-.524.156-.117.41-.27.566-.335.156-.067.406-.13.562-.145.157-.012.407.012.563.055s.406.156.562.25c.157.097.41.293.567.441s.406.426.562.621.407.551.563.793c.156.238.406.66.562.942a30 30 0 0 1 1.13 2.265c.155.34.405.91.562 1.274.156.359.406.957.562 1.332s.406.984.567 1.367l.562 1.37c.156.376.406.977.563 1.345a51.99 51.99 0 0 0 1.125 2.512c.156.324.41.824.566 1.113.156.293.406.734.563.988s.406.629.562.84.406.515.563.676a5 5 0 0 0 .566.5c.156.113.406.25.562.308.157.059.407.113.563.117a2 2 0 0 0 .562-.082c.157-.05.41-.175.567-.277.156-.105.406-.313.562-.469.157-.152.407-.441.563-.644s.406-.567.562-.813.41-.68.567-.965.406-.773.562-1.093a50 50 0 0 0 1.125-2.485c.157-.363.407-.965.567-1.34.156-.375.406-.988.562-1.367s.406-.992.563-1.37a83.763 83.763 0 0 1 1.125-2.625c.156-.345.41-.884.566-1.204s.406-.813.563-1.098.406-.718.562-.968c.156-.247.406-.614.563-.817s.41-.496.566-.652a4.6 4.6 0 0 1 .562-.473c.157-.105.407-.23.563-.281.156-.05.406-.094.562-.09s.41.055.567.11c.156.058.406.195.562.304.157.11.407.332.563.492.156.164.406.461.562.672.157.207.41.582.567.836.156.25.406.692.562.98.157.294.407.79.563 1.114.156.32.406.863.562 1.21.157.348.407.93.567 1.294.156.367.406.969.562 1.347.156.375.406.989.563 1.372.156.378.406.992.562 1.363a82.194 82.194 0 0 0 1.129 2.613c.156.34.406.875.563 1.188.156.316.406.8.562 1.082.156.28.406.707.563.949.156.238.41.598.566.793.156.2.406.48.563.629.156.148.406.347.562.445s.406.211.563.258c.156.043.41.07.566.058.156-.011.406-.07.562-.136.157-.067.407-.215.563-.332s.406-.348.562-.52c.157-.168.41-.476.567-.695.156-.215.406-.598.562-.856.157-.257.407-.707.563-1.004.156-.292.406-.796.562-1.125a68.33 68.33 0 0 0 1.129-2.527c.156-.367.406-.973.563-1.351l.562-1.372c.156-.378.406-.988.563-1.363s.566-1.328.566-1.328"/></g></svg>