<svg xmlns="http://www.w3.org/2000/svg" width="114.626" height="83.967"><defs><clipPath id="a"><path d="M0 80h4v3.813H0Zm0 0"/></clipPath><clipPath id="b"><path d="M0 74h9v9.813H0Zm0 0"/></clipPath><clipPath id="c"><path d="M110 80h4.254v3.813H110Zm0 0"/></clipPath><clipPath id="d"><path d="M105 74h9.254v9.813H105Zm0 0"/></clipPath><clipPath id="e"><path d="M110 6h4.254v4H110Zm0 0"/></clipPath><clipPath id="f"><path d="M105 1h9.254v15H105Zm0 0"/></clipPath><clipPath id="g"><path d="M18 80h4v3.813h-4Zm0 0"/></clipPath><clipPath id="h"><path d="M13 74h15v9.813H13Zm0 0"/></clipPath><clipPath id="i"><path d="M92 80h4v3.813h-4Zm0 0"/></clipPath><clipPath id="j"><path d="M86 74h16v9.813H86Zm0 0"/></clipPath><clipPath id="k"><path d="M41 .121h33V1H41Zm0 0"/></clipPath></defs><path fill="none" stroke="#000" stroke-miterlimit="10" stroke-width=".39770325" d="M1.781 82.035h9.223m0 0h30.3m31.645 0h30.301m0 0h9.223"/><g clip-path="url(#a)"><path fill="#FFF" d="M3.363 82.035a1.583 1.583 0 1 0-3.166.002 1.583 1.583 0 0 0 3.166-.002m0 0"/></g><g clip-path="url(#b)"><path fill="none" stroke="#000" stroke-miterlimit="10" stroke-width=".39770325" d="M3.363 82.035a1.583 1.583 0 1 0-3.166.002 1.583 1.583 0 0 0 3.166-.002Zm0 0"/></g><path fill="none" stroke="#000" stroke-linejoin="bevel" stroke-miterlimit="10" stroke-width=".79440975" d="M40.906 82.191c0-3.277 1.817-5.933 4.055-5.933 2.242 0 4.055 2.656 4.055 5.933 0-3.277 1.816-5.933 4.054-5.933 2.243 0 4.059 2.656 4.059 5.933 0-3.277 1.812-5.933 4.055-5.933 2.238 0 4.054 2.656 4.054 5.933 0-3.277 1.813-5.933 4.055-5.933 2.238 0 4.055 2.656 4.055 5.933"/><g clip-path="url(#c)"><path fill="#FFF" d="M114.055 82.035a1.583 1.583 0 1 0-3.162.002 1.583 1.583 0 0 0 3.162-.002m0 0"/></g><g clip-path="url(#d)"><path fill="none" stroke="#000" stroke-miterlimit="10" stroke-width=".39770325" d="M114.055 82.035a1.583 1.583 0 1 0-3.162.002 1.583 1.583 0 0 0 3.162-.002Zm0 0"/></g><path fill="none" stroke="#000" stroke-miterlimit="10" stroke-width=".39770325" d="M1.781 8.238h9.223m0 0h30.3m31.645 0h30.301m0 0h9.223"/><path fill="#FFF" stroke="#000" stroke-miterlimit="10" stroke-width=".39770325" d="M3.363 8.238a1.583 1.583 0 1 0-3.166.002 1.583 1.583 0 0 0 3.166-.002Zm0 0"/><path fill="none" stroke="#000" stroke-linejoin="bevel" stroke-miterlimit="10" stroke-width=".79440975" d="M40.906 8.398c0-3.277 1.817-5.933 4.055-5.933 2.242 0 4.055 2.656 4.055 5.933 0-3.277 1.816-5.933 4.054-5.933 2.243 0 4.059 2.656 4.059 5.933 0-3.277 1.812-5.933 4.055-5.933 2.238 0 4.054 2.656 4.054 5.933 0-3.277 1.813-5.933 4.055-5.933 2.238 0 4.055 2.656 4.055 5.933"/><g clip-path="url(#e)"><path fill="#FFF" d="M114.055 8.238a1.583 1.583 0 1 0-3.162.002 1.583 1.583 0 0 0 3.162-.002m0 0"/></g><g clip-path="url(#f)"><path fill="none" stroke="#000" stroke-miterlimit="10" stroke-width=".39770325" d="M114.055 8.238a1.583 1.583 0 1 0-3.162.002 1.583 1.583 0 0 0 3.162-.002Zm0 0"/></g><path fill="none" stroke="#000" stroke-miterlimit="10" stroke-width=".39770325" d="M20.23 82.035V49.09m0-7.91V8.238"/><path fill="none" stroke="#000" stroke-miterlimit="10" stroke-width=".79440975" d="M8.363 49.09h23.735M8.363 41.18h23.735"/><g clip-path="url(#g)"><path d="M21.813 82.035a1.583 1.583 0 1 0-3.166.002 1.583 1.583 0 0 0 3.166-.002m0 0"/></g><g clip-path="url(#h)"><path fill="none" stroke="#000" stroke-miterlimit="10" stroke-width=".39770325" d="M21.813 82.035a1.583 1.583 0 1 0-3.166.002 1.583 1.583 0 0 0 3.166-.002Zm0 0"/></g><path stroke="#000" stroke-miterlimit="10" stroke-width=".39770325" d="M21.813 8.238a1.583 1.583 0 1 0-3.166.002 1.583 1.583 0 0 0 3.166-.002Zm0 0"/><path fill="none" stroke="#000" stroke-miterlimit="10" stroke-width=".39770325" d="M94.023 82.035V49.09m0-7.91V8.238"/><path fill="none" stroke="#000" stroke-miterlimit="10" stroke-width=".79440975" d="M82.156 49.09h23.735m-23.735-7.91h23.735"/><g clip-path="url(#i)"><path d="M95.605 82.035a1.583 1.583 0 1 0-3.162.002 1.583 1.583 0 0 0 3.162-.002m0 0"/></g><g clip-path="url(#j)"><path fill="none" stroke="#000" stroke-miterlimit="10" stroke-width=".39770325" d="M95.605 82.035a1.583 1.583 0 1 0-3.162.002 1.583 1.583 0 0 0 3.162-.002Zm0 0"/></g><path stroke="#000" stroke-miterlimit="10" stroke-width=".39770325" d="M95.605 8.238a1.583 1.583 0 1 0-3.162.002 1.583 1.583 0 0 0 3.162-.002Zm0 0"/><path fill="none" stroke="#000" stroke-dasharray="2.9791163025 1.9860742125000002" stroke-miterlimit="10" stroke-width=".39770325" d="M41.305 74.113h31.644"/><g clip-path="url(#k)"><path fill="none" stroke="#000" stroke-dasharray="2.9791163025 1.9860742125000002" stroke-miterlimit="10" stroke-width=".39770325" d="M41.305.32h31.644"/></g></svg>