<svg xmlns="http://www.w3.org/2000/svg" xmlns:xlink="http://www.w3.org/1999/xlink" width="226.907" height="98.394"><defs><path id="c" d="M1.453-4.094a.1.1 0 0 1 .016.047q-.002.16-.203.219l-.22.047.782 1.312h.016l.843-1.328-.406-.062q-.08.002-.078-.079 0-.045.063-.156h1.203v.047q-.002.174-.203.219l-.203.047-1.016 1.625 1.11 1.844.28.062q.078.033.079.078c0 .012-.024.07-.063.172h-1.25a.1.1 0 0 1-.015-.047q-.001-.17.203-.219l.187-.03-.844-1.423H1.72L.844-.297l.375.047q.077.033.078.078c0 .031-.024.09-.063.172H.031v-.047c0-.125.067-.195.203-.219l.157-.046 1.125-1.72-1.063-1.75-.297-.077q-.08-.013-.078-.079 0-.045.063-.156Zm0 0"/><path id="d" d="M.484-4.64c0-.376.02-.758.063-1.157h3.562a.3.3 0 0 1 .047.188q-.002.188-.11.406L1.704 0h-.656l2.406-5.047H1.078l-.14.75a.46.46 0 0 1-.204.047q-.251 0-.25-.39m0 0"/><path id="e" d="M1.125-5.797h2.547l-.063.781H1.516l-.11 1.407q1.296.065 1.875.547.546.455.547 1.374c0 .5-.183.93-.547 1.282q-.534.516-1.39.515Q1.17.108.813-.156a.61.61 0 0 1-.266-.516q0-.388.39-.547.171.376.282.5.293.328.828.328.527 0 .844-.328.28-.31.28-.812 0-.732-.562-1.047-.549-.328-1.765-.328Zm0 0"/><path id="f" d="M6.11-3.469q-.001.924-.548 1.719-.486.689-1.156 1.063v.156h1.188l.14-.719a.44.44 0 0 1 .204-.047q.264 0 .265.422 0 .346-.047.875H3.844v-.875c.976-.5 1.469-1.375 1.469-2.625q-.001-1.03-.547-1.625-.533-.61-1.375-.61-.864.002-1.391.594-.549.627-.547 1.657c0 .574.117 1.086.36 1.53q.375.721 1.125 1.079V0H.624a7 7 0 0 1-.062-.875q0-.422.28-.422.108 0 .204.047l.14.719h1.188v-.156c-.43-.188-.809-.524-1.14-1.016Q.654-2.53.655-3.47q-.001-1.199.766-1.984.762-.797 1.969-.797c.8 0 1.453.258 1.953.766q.763.767.765 2.015m0 0"/><path id="g" d="M2.563-1.094v-3.078c0-.547.015-1.078.03-1.203 0-.047-.015-.047-.062-.047-.484.313-.953.531-1.734.89.015.11.047.188.125.25.422-.171.61-.218.781-.218.156 0 .172.203.172.516v2.89c0 .75-.234.797-.86.813-.046.062-.046.25 0 .297C1.454.016 1.766 0 2.25 0c.438 0 .64.016 1.094.016.047-.047.047-.235 0-.297-.625-.016-.781-.063-.781-.813m0 0"/><path id="h" d="M2.031.094c.688 0 1.735-.703 1.735-2.797 0-.875-.22-1.64-.61-2.156-.234-.313-.61-.578-1.094-.578-.874 0-1.718 1.062-1.718 2.812 0 .953.297 1.844.781 2.344.25.25.563.375.906.375m.031-5.219c.157 0 .297.063.407.156.281.235.515.907.515 2.094 0 .828-.03 1.39-.156 1.844-.187.734-.625.812-.781.812-.828 0-.922-1.531-.922-2.297 0-2.203.547-2.609.938-2.609m0 0"/><path id="i" d="M.922-.844c-.266 0-.469.188-.469.438 0 .265.235.36.39.39.173.016.329.063.329.282 0 .187-.328.593-.781.703 0 .094.015.156.078.219C1 1.094 1.516.656 1.516.03c0-.531-.235-.875-.594-.875m0 0"/><path id="j" d="M1.922-5.125c.375 0 .734.234.734.813 0 .437-.515 1.125-1.406 1.25l.047.28c.156-.015.312-.015.437-.015.5 0 1.157.14 1.157 1.156 0 1.172-.782 1.422-1.094 1.422-.453 0-.547-.203-.64-.375-.095-.125-.22-.219-.391-.219C.578-.812.39-.655.39-.5c0 .344.75.594 1.28.594 1.063 0 2-.688 2-1.86 0-.984-.718-1.328-1.25-1.406l-.015-.031c.735-.344.938-.703.938-1.172 0-.281-.063-.484-.266-.703-.203-.203-.515-.36-.969-.36-1.312 0-1.687.86-1.687 1.157 0 .125.078.297.297.297.312 0 .344-.297.344-.453 0-.579.625-.688.859-.688m0 0"/><path id="k" d="M1.516-3.187c-.016-.266-.032-.594-.079-.672-.015-.047-.03-.079-.093-.079-.25.094-.485.172-1.11.266a.5.5 0 0 0 .032.25c.468.031.578.078.578.594v1.734c0 .735-.125.782-.61.813-.062.062-.062.25 0 .297C.5.016.844 0 1.188 0c.359 0 .64.016.906.016.047-.047.047-.235 0-.297-.453-.047-.547-.078-.547-.813v-1.453c0-.187.078-.297.14-.375.36-.344.688-.531.97-.531.343 0 .577.219.577.812v1.547c0 .735-.062.782-.546.813-.047.062-.047.25 0 .297.218 0 .546-.016.906-.016s.656.016.875.016c.047-.047.047-.235 0-.297-.438-.031-.516-.078-.516-.813V-2.5c0-.125 0-.25-.015-.36.421-.468.828-.593 1.171-.593s.532.203.532.797v1.562c0 .735-.079.782-.547.813-.047.062-.047.25 0 .297C5.312.016 5.64 0 6 0c.36 0 .672.016.922.016.047-.047.047-.235 0-.297-.484-.031-.578-.078-.578-.813V-2.5c0-.781-.125-1.406-.907-1.406-.453 0-1.015.172-1.468.656-.031.031-.078.078-.11-.016-.078-.359-.421-.64-.89-.64-.516 0-.969.297-1.344.719-.047.046-.11.109-.11 0m0 0"/><path id="l" d="M.547-4.172c0 .188.172.344.36.344.14 0 .406-.156.406-.344 0-.078-.016-.125-.032-.187-.015-.063-.062-.141-.062-.22 0-.218.218-.546.875-.546.312 0 .781.219.781 1.078 0 .578-.219 1.031-.734 1.578l-.657.64C.61-.936.47-.5.47.017c0 0 .453-.016.734-.016h1.563c.28 0 .687.016.687.016.125-.47.203-1.141.219-1.407-.063-.046-.172-.062-.266-.046-.14.64-.297.859-.625.859H1.203c0-.422.61-1.031.656-1.078l.907-.86c.5-.5.89-.89.89-1.562 0-.969-.781-1.36-1.515-1.36-.985 0-1.594.735-1.594 1.266m0 0"/><clipPath id="a"><path d="M.648 20H11v1H.648Zm0 0"/></clipPath><clipPath id="b"><path d="M216 20h10.168v1H216Zm0 0"/></clipPath></defs><path fill="none" stroke="#000" stroke-miterlimit="10" stroke-width="1.18868048" d="M19.605 20.352h44.56m0 0h44.554"/><path fill="none" stroke="#000" stroke-miterlimit="10" stroke-width="1.3864626" d="M108.719 67.25h9.379"/><path fill="none" stroke="#FFF" stroke-miterlimit="10" stroke-width=".59434024" d="M108.719 67.25h9.379"/><path fill="none" stroke="#000" stroke-miterlimit="10" stroke-width="1.3864626" d="M108.719 57.871h9.379"/><path fill="none" stroke="#FFF" stroke-miterlimit="10" stroke-width=".59434024" d="M108.719 57.871h9.379"/><path fill="none" stroke="#000" stroke-miterlimit="10" stroke-width="1.3864626" d="M108.719 48.492h9.379"/><path fill="none" stroke="#FFF" stroke-miterlimit="10" stroke-width=".59434024" d="M108.719 48.492h9.379"/><path fill="none" stroke="#000" stroke-miterlimit="10" stroke-width="1.3864626" d="M108.719 39.11h9.379"/><path fill="none" stroke="#FFF" stroke-miterlimit="10" stroke-width=".59434024" d="M108.719 39.11h9.379"/><path fill="none" stroke="#000" stroke-miterlimit="10" stroke-width="1.3864626" d="M108.719 29.73h9.379"/><path fill="none" stroke="#FFF" stroke-miterlimit="10" stroke-width=".59434024" d="M108.719 29.73h9.379"/><g clip-path="url(#a)"><path fill="none" stroke="#000" stroke-dasharray="2.9705383604 2.9705383604" stroke-miterlimit="10" stroke-width=".39655812" d="M.848 20.352h9.379"/></g><g clip-path="url(#b)"><path fill="none" stroke="#000" stroke-dasharray="2.9705383604 2.9705383604" stroke-miterlimit="10" stroke-width=".39655812" d="M225.973 20.352h-9.383"/></g><path fill="none" stroke="#000" stroke-miterlimit="10" stroke-width=".39655812" d="M10.227 20.352h4.691m0 0h4.687"/><path fill="#FFF" stroke="#000" stroke-miterlimit="10" stroke-width=".39655812" d="M11.805 20.352a1.579 1.579 0 0 0-3.157 0c0 .87.707 1.574 1.579 1.574.87 0 1.578-.703 1.578-1.574ZM21.184 20.352a1.579 1.579 0 0 0-3.157 0c0 .87.707 1.574 1.578 1.574s1.579-.703 1.579-1.574Zm0 0"/><path stroke="#000" stroke-miterlimit="10" stroke-width=".39655812" d="M110.297 20.352a1.579 1.579 0 0 0-3.156 0c0 .87.707 1.574 1.578 1.574.87 0 1.578-.703 1.578-1.574ZM119.676 20.352a1.579 1.579 0 0 0-3.156 0c0 .87.707 1.574 1.578 1.574.87 0 1.578-.703 1.578-1.574Zm0 0"/><path fill="none" stroke="#000" stroke-miterlimit="10" stroke-width="1.18868048" d="M118.098 20.352h44.558m0 0h44.555"/><path fill="none" stroke="#000" stroke-miterlimit="10" stroke-width=".39655812" d="M207.211 20.352h4.691m0 0h4.688"/><path fill="#FFF" stroke="#000" stroke-miterlimit="10" stroke-width=".39655812" d="M208.79 20.352a1.579 1.579 0 0 0-3.157 0c0 .87.707 1.574 1.578 1.574s1.578-.703 1.578-1.574ZM218.168 20.352a1.579 1.579 0 0 0-3.156 0c0 .87.707 1.574 1.578 1.574s1.578-.703 1.578-1.574Zm0 0"/><path fill="none" stroke="#000" stroke-miterlimit="10" stroke-width=".39655812" d="M108.719 20.352v28.14m0 0v28.14"/><path stroke="#000" stroke-miterlimit="10" stroke-width=".39655812" d="M110.297 76.633a1.579 1.579 0 0 0-3.156 0c0 .87.707 1.574 1.578 1.574.87 0 1.578-.703 1.578-1.574Zm0 0"/><path fill="none" stroke="#000" stroke-miterlimit="10" stroke-width=".39655812" d="M118.098 20.352v28.14m0 0v28.14"/><path stroke="#000" stroke-miterlimit="10" stroke-width=".39655812" d="M119.676 76.633a1.579 1.579 0 0 0-3.156 0c0 .87.707 1.574 1.578 1.574.87 0 1.578-.703 1.578-1.574Zm0 0"/><use xlink:href="#c" x="106.941" y="84.31"/><use xlink:href="#c" x="116.321" y="84.31"/><use xlink:href="#d" x="104.823" y="94.715"/><use xlink:href="#e" x="109.278" y="94.715"/><use xlink:href="#f" x="115.213" y="94.715"/><path fill="none" stroke="#999" stroke-miterlimit="10" stroke-width=".0099388" d="M138.734 76.633"/><path fill="none" stroke="#000" stroke-miterlimit="10" stroke-width=".39655812" d="M138.734 23.8v52.536"/><path stroke="#000" stroke-miterlimit="10" stroke-width=".39655812" d="m138.734 20.746-1.75 2.957h3.504ZM138.734 75.84l1.754-2.957h-3.504Zm0 0"/><path fill="none" stroke="#000" stroke-miterlimit="10" stroke-width=".39655812" d="M141.012 76.434h-4.555"/><path fill="#FFF" d="M124.305 54.77h28.86V42.21h-28.86Zm0 0"/><use xlink:href="#g" x="127.275" y="50.617"/><use xlink:href="#h" x="131.419" y="50.617"/><use xlink:href="#i" x="135.563" y="50.617"/><use xlink:href="#j" x="137.524" y="50.617"/><use xlink:href="#k" x="143.147" y="50.617"/><path fill="none" stroke="#999" stroke-miterlimit="10" stroke-width=".0099388" d="M207.211 6.281"/><path fill="none" stroke="#000" stroke-miterlimit="10" stroke-width=".39655812" d="M19.902 6.281h187.012"/><path stroke="#000" stroke-miterlimit="10" stroke-width=".39655812" d="m20.398 6.281 2.957 1.75V4.527Zm0 0"/><path fill="none" stroke="#000" stroke-miterlimit="10" stroke-width=".39655812" d="M19.805 8.559V4.004"/><path stroke="#000" stroke-miterlimit="10" stroke-width=".39655812" d="m206.418 6.281-2.957-1.754v3.504Zm0 0"/><path fill="none" stroke="#000" stroke-miterlimit="10" stroke-width=".39655812" d="M207.012 4.004v4.555"/><path fill="#FFF" d="M98.98 12.559h28.856V0H98.98Zm0 0"/><use xlink:href="#j" x="101.948" y="8.406"/><use xlink:href="#g" x="106.092" y="8.406"/><use xlink:href="#i" x="110.236" y="8.406"/><use xlink:href="#l" x="112.197" y="8.406"/><use xlink:href="#k" x="117.82" y="8.406"/></svg>