<svg xmlns="http://www.w3.org/2000/svg" xmlns:xlink="http://www.w3.org/1999/xlink" width="125.145" height="102.762"><defs><clipPath id="a"><path d="M115 18h9.297v16H115Zm0 0"/></clipPath><clipPath id="b"><path d="M18 .23h4V4h-4Zm0 0"/></clipPath><clipPath id="c"><path d="M12 .23h16V10H12Zm0 0"/></clipPath><clipPath id="d"><path d="M19.824.43h104.274v28.152H19.824Zm0 0"/></clipPath><clipPath id="h"><path d="M115 55h9.297v15H115Zm0 0"/></clipPath><clipPath id="i"><path d="M19.824 37.184h104.274V65.34H19.824Zm0 0"/></clipPath><clipPath id="l"><path d="M115 80h9.297v16H115Zm0 0"/></clipPath><clipPath id="m"><path d="M19 77h2v25.297h-2Zm0 0"/></clipPath><clipPath id="n"><path d="M19.824 73.941h104.274v28.157H19.824Zm0 0"/></clipPath><path id="e" d="m.938-3.828-.47.031c-.171.016-.234.078-.25.156a.6.6 0 0 0-.046.157c0 .015.031.015.062.015H.86L.313-1.047C.25-.766.188-.484.188-.328c0 .328.156.422.437.422.406 0 .984-.375 1.297-.922C1.89-.938 1.828-1 1.719-1c-.407.469-.563.547-.719.547-.016 0-.11-.016-.11-.11 0-.093.032-.265.094-.562l.532-2.344h.875c.109-.047.187-.281.078-.36h-.875l.093-.39c.032-.172.11-.437.11-.531 0-.156-.063-.25-.36-.25-.312 0-.296.406-.39.734Zm0 0"/><path id="f" d="m1.906-5.062-.86 4.39c-.062.25-.187.375-.562.406L.22-.234c-.047.03-.063.172-.016.25C.593.016.922 0 1.266 0S2 .016 2.39.016c.03-.032.062-.22.03-.25l-.296-.032c-.36-.03-.453-.14-.39-.406l.859-4.39c.047-.25.187-.375.547-.422l.28-.016a.38.38 0 0 0 .017-.266c-.407.016-.72.016-1.063.016-.344 0-.75 0-1.14-.016-.016.032-.048.22-.016.266l.297.016c.343.03.437.156.39.422m0 0"/><path id="j" d="M1.813.094c1.765 0 2.375-1.14 2.671-2.719l.485-2.453c.047-.25.187-.375.547-.406L5.75-5.5c.047 0 .063-.031.078-.078l.031-.172-.015-.016c-.407.016-.75.016-.938.016-.203 0-.547 0-.937-.016l-.016.016-.047.172c0 .047.031.078.063.078l.219.016c.296.015.406.093.406.28 0 .032 0 .079-.016.126l-.516 2.61c-.187 1-.546 2.187-2 2.187-.406 0-.718-.188-.921-.438-.188-.25-.235-.515-.235-.797 0-.296.047-.593.094-.875l.531-2.703c.047-.25.203-.36.547-.39l.235-.016c.03 0 .062-.031.078-.078l.03-.172-.015-.016c-.406.016-.765.016-1.094.016-.343 0-.687 0-1.078-.016l-.03.016-.032.172c0 .047.031.078.062.078l.22.016c.28.015.405.093.405.28 0 .032 0 .063-.015.11L.266-2.109a3 3 0 0 0-.063.625c0 1.28.953 1.578 1.61 1.578m0 0"/><path id="g" d="M2.547.078c.687 0 1.328-.328 1.812-.969C4.313-.953 4.266-1 4.188-1c-.5.563-.985.781-1.657.781-.953 0-1.625-1.078-1.625-2.125 0-.61.172-1.125.422-1.453.36-.422.781-.625 1.14-.625.985 0 1.376.578 1.563 1.188.094.03.157.015.235-.032a10 10 0 0 0-.157-1.109c-.359-.031-.687-.312-1.562-.312-.61 0-1.11.218-1.531.609-.47.437-.75 1.125-.75 1.875 0 1.234.75 2.281 2.28 2.281m0 0"/><path id="k" d="M2-2.578h-.64V-3.86c0-.313.077-.453.468-.453h.531c.532 0 .641.28.797.78.094.016.172 0 .25-.03a51 51 0 0 0-.172-1.047s0-.016-.015-.016c-.125.016-.188.031-.36.031H1.047c-.219 0-.64-.015-.922-.015-.047.046-.047.187 0 .234.5.016.625.063.625.656v2.844c0 .594-.125.625-.625.656-.047.047-.047.188 0 .235C.391 0 .813 0 1.047 0h1.547c.328 0 .906.016.906.016.094-.36.203-.828.266-1.188a.35.35 0 0 0-.25-.047c-.141.516-.391.938-.938.938H1.75c-.297 0-.39-.11-.39-.453v-1.563H2c.61 0 .625.156.656.485.031.03.188.03.235 0-.016-.188-.016-.391-.016-.625 0-.204 0-.454.016-.626-.047-.03-.203-.03-.235 0-.031.391-.047.485-.656.485m0 0"/><path id="o" d="m1.11-.562.39-1.032c.031-.093.078-.125.25-.125h1.5l.406 1.203c.094.25-.172.266-.515.297-.047.047-.047.188 0 .235C3.406 0 3.797 0 4.063 0c.296 0 .562 0 .812.016.047-.047.047-.188 0-.235-.266-.031-.516-.047-.64-.39l-1.47-4.078c-.093.062-.296.14-.39.14L.765-.734C.579-.281.36-.25.048-.22 0-.172 0-.03.047.016.234 0 .469 0 .687 0c.282 0 .641 0 .907.016.047-.047.047-.188 0-.235-.266-.031-.61-.047-.485-.343m.765-1.454c-.156 0-.203-.015-.172-.093l.719-1.844h.047l.672 1.937Zm0 0"/></defs><path fill="none" stroke="#000" stroke-miterlimit="10" stroke-width=".39629079000000006" d="M19.824 25.77h100.828"/><path d="m123.703 25.77-2.953-1.754v3.504Zm0 0"/><g clip-path="url(#a)"><path fill="none" stroke="#000" stroke-miterlimit="10" stroke-width=".39629079000000006" d="m123.703 25.77-2.953-1.754v3.504Zm0 0"/></g><path fill="none" stroke="#000" stroke-miterlimit="10" stroke-width=".39629079000000006" d="M19.824 28.582V3.879"/><g clip-path="url(#b)"><path d="m19.824.824-1.75 2.953h3.504Zm0 0"/></g><g clip-path="url(#c)"><path fill="none" stroke="#000" stroke-miterlimit="10" stroke-width=".39629079000000006" d="m19.824.824-1.75 2.953h3.504Zm0 0"/></g><g clip-path="url(#d)"><path fill="none" stroke="#000" stroke-miterlimit="10" stroke-width=".39629079000000006" d="m19.824 12.254.2-.285c.054-.078.144-.203.199-.281.054-.083.144-.208.199-.286l.2-.28c.054-.079.144-.204.198-.282l.2-.281c.054-.079.144-.204.199-.282.054-.078.144-.199.199-.277s.144-.203.2-.277c.054-.078.144-.2.198-.278.055-.074.145-.195.2-.273l.199-.27c.055-.078.144-.195.2-.27.054-.073.14-.194.198-.269.055-.074.14-.191.2-.265.054-.07.14-.188.199-.262.054-.07.14-.188.195-.258.059-.074.145-.187.2-.258.058-.07.144-.183.198-.254l.2-.25c.054-.066.144-.18.199-.246l.2-.242c.054-.066.144-.176.198-.238l.2-.238c.054-.063.144-.168.199-.23L25 5.394c.055-.063.145-.16.2-.223.054-.063.144-.16.198-.219l.2-.215c.054-.058.144-.148.199-.207s.144-.148.2-.203c.054-.058.144-.144.198-.2.055-.054.14-.14.2-.194.054-.055.14-.137.199-.188.054-.05.14-.133.199-.183l.195-.18c.059-.047.145-.125.2-.172.058-.047.144-.121.199-.164l.199-.16.2-.157c.054-.042.144-.105.198-.148l.2-.14c.054-.04.144-.102.199-.137.054-.04.144-.094.199-.13l.2-.124.198-.117c.055-.032.145-.079.2-.11a5 5 0 0 1 .398-.199c.055-.027.145-.066.2-.094.054-.023.144-.058.199-.082.054-.023.144-.054.199-.078l.199-.07c.055-.016.14-.043.2-.063l.195-.054c.058-.016.144-.036.199-.047.058-.016.144-.032.199-.043.059-.012.144-.028.2-.035l.198-.028c.055-.008.145-.015.2-.02.054-.007.144-.011.199-.015.055 0 .144-.004.2-.004.054-.004.144 0 .198 0s.145.004.2.008c.054.004.144.008.199.016.054.004.144.015.199.02.055.007.144.023.2.03.054.008.144.028.198.036.055.011.145.03.2.046.054.012.144.036.199.047l.199.059c.055.02.14.047.2.066.054.02.14.051.198.07.055.02.141.055.2.079l.195.086c.059.023.145.066.2.093.058.024.144.07.198.098s.145.074.2.106c.054.03.144.078.199.113.055.031.144.082.2.117l.198.125c.055.035.145.094.2.133.054.035.144.098.199.137.054.039.144.101.199.144.055.04.144.106.2.149l.198.156.2.16c.054.047.144.121.199.168s.144.125.2.176c.054.047.144.129.198.18.055.046.14.128.2.183.054.05.14.137.199.187a9.773 9.773 0 0 1 .395.398c.058.056.144.145.198.204.06.059.145.152.2.211.058.059.144.152.199.215.055.058.144.156.2.219l.198.222c.055.063.145.164.2.23.054.063.144.169.199.231.054.067.144.172.199.238l.2.239c.054.066.144.176.198.246.055.066.145.176.2.246.054.07.144.18.199.25l.2.254c.054.074.144.187.198.258.055.074.145.187.2.261l.199.262c.054.074.14.191.199.266.055.074.14.195.2.27.054.073.14.195.194.269.06.074.145.195.2.273.058.074.144.196.199.274.059.074.144.199.2.277l.198.277.2.278c.054.078.144.203.199.28.054.079.144.204.199.282l.2.281c.054.079.144.204.198.282l.2.285c.054.078.144.203.199.281s.144.207.2.285l.198.281c.055.083.145.208.2.286.054.078.144.203.199.28.054.083.144.208.199.286s.14.203.2.281c.054.078.14.203.198.282l.196.277c.058.078.144.203.199.277.059.078.144.203.2.278.058.078.144.199.198.277.055.074.145.195.2.273.054.075.144.196.199.27l.2.27c.054.074.144.19.198.265.055.074.145.191.2.266.054.074.144.187.199.261l.199.258c.055.07.144.188.2.258.054.07.144.184.198.25.055.07.145.184.2.25.054.07.144.18.199.246l.199.242.2.239c.054.066.14.171.198.234.055.066.141.168.2.23.054.063.14.164.199.227l.195.223c.059.058.145.156.2.214.058.06.144.157.199.215.054.059.144.149.199.207l.2.203c.054.055.144.141.198.196l.2.195c.054.05.144.133.199.188l.199.18c.055.05.144.128.2.175l.198.172c.055.047.145.121.2.164.054.047.144.117.199.16l.2.153c.054.042.144.105.198.148l.2.14c.054.036.14.098.199.133.054.036.14.094.199.13.055.034.14.09.2.12l.194.118c.06.027.145.078.2.105.058.031.144.074.199.102.058.03.144.07.2.097.054.024.144.067.198.09.055.024.145.059.2.082.054.02.144.055.199.074.054.02.144.051.199.067.055.02.145.047.2.062l.198.055.2.047c.054.012.144.027.199.039s.144.023.2.031c.054.012.144.02.198.027.055.008.145.016.2.02l.199.012c.054 0 .144.004.199.004s.14 0 .2-.004a4 4 0 0 0 .394-.028c.058-.004.144-.015.199-.023.059-.008.144-.02.2-.031.058-.008.144-.028.198-.04.055-.007.145-.03.2-.042.054-.016.144-.04.199-.055.054-.012.144-.04.199-.059.055-.015.145-.046.2-.066l.198-.07c.055-.024.145-.059.2-.082l.199-.086c.055-.028.144-.067.2-.094l.198-.102c.055-.027.145-.078.2-.105l.199-.113c.054-.036.144-.086.199-.121s.145-.09.2-.13l.198-.132c.055-.035.141-.098.2-.137l.199-.148c.055-.04.14-.106.195-.149.059-.043.145-.113.2-.16.058-.043.144-.117.199-.16l.199-.172c.055-.047.144-.125.199-.176.055-.047.145-.129.2-.18l.198-.183c.055-.055.145-.137.2-.191.054-.055.144-.141.199-.2l.2-.199c.054-.058.144-.148.198-.207l.2-.21.199-.216c.054-.062.144-.16.199-.222.055-.063.145-.16.2-.223.054-.066.144-.168.198-.23.055-.067.141-.168.2-.235.054-.066.14-.172.199-.238.055-.067.14-.172.2-.238.054-.07.14-.18.194-.246.059-.07.145-.18.2-.25.058-.067.144-.18.199-.25.058-.07.144-.184.2-.254.054-.075.144-.188.198-.258.055-.074.145-.192.2-.262.054-.074.144-.191.199-.266.054-.07.144-.191.199-.265s.144-.192.2-.27l.198-.27c.055-.073.145-.195.2-.273.054-.074.144-.195.199-.273l.199-.277.2-.278c.054-.078.144-.203.198-.277l.2-.281c.054-.079.144-.204.199-.282s.14-.203.2-.28c.054-.083.14-.208.198-.286l.196-.281.199-.285c.058-.079.144-.204.2-.286.058-.078.144-.203.198-.28l.2-.286c.054-.078.144-.203.199-.281l.199-.282.2-.28c.054-.079.144-.204.198-.282l.2-.281.199-.278c.055-.074.144-.199.2-.273.054-.078.144-.2.198-.277.055-.075.145-.196.2-.274l.199-.27.199-.269.2-.266c.054-.074.14-.19.198-.261.055-.074.141-.192.2-.262.054-.074.14-.187.199-.258l.195-.254c.059-.07.145-.183.2-.254.058-.07.144-.18.199-.25l.199-.242.199-.242.2-.238.198-.23c.055-.067.145-.169.2-.231l.199-.227c.055-.062.144-.16.2-.218.054-.063.144-.157.198-.215.055-.063.145-.157.2-.215.054-.055.144-.149.199-.203.054-.059.144-.149.199-.203s.145-.145.2-.196c.054-.054.144-.14.198-.191a9.17 9.17 0 0 1 .398-.367c.056-.051.141-.13.2-.176l.195-.168c.059-.047.145-.117.2-.164.058-.043.144-.113.199-.156l.199-.153c.055-.043.145-.105.2-.144.054-.04.144-.102.198-.14a6 6 0 0 1 .2-.134c.054-.035.144-.093.199-.125.055-.035.144-.09.2-.12l.198-.114c.055-.031.145-.078.2-.11l.199-.097c.054-.027.144-.07.199-.094.055-.027.145-.066.2-.09.054-.02.144-.058.198-.078.055-.023.145-.055.2-.074.054-.02.144-.047.199-.066l.2-.06c.054-.015.14-.038.198-.05.055-.015.141-.035.196-.047.058-.011.144-.027.199-.039l.2-.031c.058-.008.144-.016.198-.023l.2-.016.199-.012c.054 0 .144-.004.199 0 .055 0 .144 0 .2.004.054 0 .144.008.198.012s.145.012.2.015l.199.028.199.031.2.043c.054.012.144.031.198.047.055.012.145.039.2.055l.199.058.2.07c.054.02.14.051.198.075.055.02.141.058.2.082.054.023.14.062.199.09.054.023.14.066.195.093.059.028.145.075.2.102.058.031.144.078.199.11l.199.113.199.125.2.125c.054.039.144.097.198.136s.145.102.2.14c.054.04.144.106.199.15.055.038.144.109.2.152l.198.156.2.168c.054.047.144.121.199.168.054.05.144.129.199.176l.2.183c.054.051.144.133.198.188.055.05.141.136.2.191.054.055.14.145.199.2.055.054.14.144.199.202.055.055.14.149.195.208.059.058.145.152.2.21.058.059.144.157.199.22.054.058.144.16.199.222.055.058.145.16.2.223.054.066.144.167.198.23.055.066.145.172.2.234.054.067.144.172.199.239l.2.242c.054.07.144.18.198.246l.2.25.199.254.199.254c.055.074.145.187.2.258.054.074.144.19.198.261l.2.266c.054.074.14.191.199.266.055.074.14.195.2.269.054.078.14.195.198.273.055.075.14.196.196.274.058.074.144.2.199.273.058.078.144.2.199.278.059.078.145.199.2.277l.198.281.2.282c.054.078.144.203.199.28l.2.282.198.281c.055.082.145.207.2.285.054.079.144.204.199.286.054.078.144.203.199.28l.2.286.198.281.2.285c.054.079.144.204.199.282l.2.28c.054.079.14.204.198.278.055.078.14.203.2.282l.195.277c.058.078.144.2.2.277.058.074.144.196.198.274.059.074.145.195.2.27.054.077.144.198.199.273.054.074.144.191.199.265l.2.266c.054.074.144.191.198.265l.2.258c.054.075.144.188.199.258l.199.254c.055.07.145.184.2.25.054.07.144.18.198.25l.2.242.199.242c.055.067.144.172.2.235.054.066.144.168.198.234.055.063.141.164.2.227.054.062.14.164.199.222.054.063.14.16.199.223.055.059.14.156.195.215.059.058.145.152.2.207.058.058.144.152.199.207l.199.2.2.194c.054.055.144.137.198.192l.2.183c.054.051.144.13.199.18l.2.172.198.168c.055.047.145.117.2.164l.199.156c.054.04.144.106.199.149.055.039.144.105.2.144.054.04.144.098.198.137s.145.098.2.133c.054.035.14.09.199.125.055.031.14.086.199.117.055.031.14.082.2.113.054.028.14.074.195.106.058.027.144.07.199.097.058.028.144.067.199.09.059.028.145.063.2.086.054.024.144.059.198.078.055.024.145.055.2.075a4 4 0 0 0 .199.062c.055.02.144.043.2.059.054.015.144.039.198.05l.2.043c.054.012.144.028.199.036.054.011.144.023.199.03.055.009.145.016.2.024l.198.016c.055 0 .145.004.2.008h.199c.055 0 .144-.004.2-.008.054 0 .14-.008.198-.012.055-.004.14-.016.2-.02.054-.007.14-.019.195-.03.058-.008.144-.024.199-.032l.2-.043c.058-.012.144-.035.198-.05.055-.012.145-.04.2-.055a4 4 0 0 0 .199-.063l.2-.07c.054-.02.144-.055.198-.078.055-.02.145-.059.2-.082.054-.024.144-.063.199-.09.054-.028.144-.07.199-.098l.2-.101.198-.114c.055-.03.145-.082.2-.117a5 5 0 0 0 .199-.121l.2-.129c.054-.039.144-.098.198-.137l.2-.144.199-.149c.054-.043.14-.109.199-.152.055-.043.14-.117.195-.16.059-.047.145-.121.2-.168.058-.047.144-.125.199-.172.054-.047.144-.129.199-.176l.2-.183c.054-.055.144-.137.198-.192.055-.05.145-.136.2-.191l.199-.2c.055-.054.144-.148.199-.202l.2-.211c.054-.059.144-.153.198-.215l.2-.215c.054-.063.144-.16.199-.223.055-.062.144-.164.2-.23.054-.063.144-.164.198-.23.055-.063.145-.169.2-.235.054-.066.14-.172.199-.238.054-.067.14-.176.199-.246.055-.067.14-.176.2-.246.054-.067.14-.18.195-.25.058-.07.144-.18.199-.254.058-.07.144-.184.199-.254.055-.075.145-.188.2-.262.054-.07.144-.188.198-.262l.2-.265c.054-.075.144-.192.199-.266l.2-.27c.054-.074.144-.195.198-.273.055-.074.145-.195.2-.273.054-.075.144-.2.199-.274.054-.078.144-.203.199-.277l.2-.281c.054-.075.144-.2.198-.278l.2-.281c.054-.078.144-.203.199-.281l.199-.285c.055-.079.14-.204.2-.282.054-.078.14-.207.198-.285l.196-.281"/></g><use xlink:href="#e" x="118.911" y="33.93"/><use xlink:href="#f" x="9.171" y="9.356"/><use xlink:href="#g" x="11.674" y="11.226"/><path fill="none" stroke="#000" stroke-miterlimit="10" stroke-width=".39629079000000006" d="M19.824 62.523h100.828"/><path d="m123.703 62.523-2.953-1.75v3.504Zm0 0"/><g clip-path="url(#h)"><path fill="none" stroke="#000" stroke-miterlimit="10" stroke-width=".39629079000000006" d="m123.703 62.523-2.953-1.75v3.504Zm0 0"/></g><path fill="none" stroke="#000" stroke-miterlimit="10" stroke-width=".39629079000000006" d="M19.824 65.34V40.633"/><path stroke="#000" stroke-miterlimit="10" stroke-width=".39629079000000006" d="m19.824 37.582-1.75 2.953h3.504Zm0 0"/><g clip-path="url(#i)"><path fill="none" stroke="#000" stroke-miterlimit="10" stroke-width=".39629079000000006" d="m19.824 49.008.2-.281.199-.286c.054-.078.144-.203.199-.28l.2-.282.198-.285.2-.281.199-.278c.054-.078.144-.203.199-.277.055-.078.144-.203.2-.278.054-.078.144-.199.198-.277.055-.074.145-.2.2-.273.054-.075.144-.196.199-.274l.2-.27c.054-.073.14-.19.198-.265.055-.074.14-.191.2-.266.054-.074.14-.19.199-.261.054-.074.14-.188.195-.258.059-.074.145-.188.2-.258.058-.07.144-.183.198-.254l.2-.25c.054-.07.144-.18.199-.246.055-.07.144-.176.2-.242.054-.07.144-.176.198-.242.055-.067.145-.168.2-.235.054-.066.144-.168.199-.23l.199-.227c.055-.062.145-.164.2-.222.054-.063.144-.16.198-.22.055-.062.145-.155.2-.214.054-.058.144-.152.199-.207.055-.059.144-.148.2-.207.054-.055.144-.144.198-.2.055-.054.14-.14.2-.19a5 5 0 0 1 .199-.188c.054-.055.14-.137.199-.184l.195-.18c.059-.046.145-.124.2-.171.058-.047.144-.121.199-.164l.199-.16c.055-.047.144-.114.2-.157.054-.043.144-.11.198-.148.055-.04.145-.106.2-.14.054-.04.144-.102.199-.137a6 6 0 0 1 .398-.254c.055-.036.145-.086.2-.118.054-.03.144-.082.199-.109.054-.031.144-.078.199-.105l.2-.098.198-.09c.055-.023.145-.062.2-.082.054-.023.144-.059.199-.078l.199-.07c.055-.016.14-.047.2-.063l.195-.055c.058-.015.144-.035.199-.05.058-.012.144-.032.199-.04.059-.011.144-.027.2-.035.054-.007.144-.023.198-.027.055-.008.145-.016.2-.023l.199-.012c.055-.004.144-.004.2-.008.054 0 .144 0 .198.004.055 0 .145.004.2.008.054 0 .144.008.199.015.054.004.144.012.199.02s.144.02.2.031c.054.008.144.024.198.035l.2.043c.054.016.144.036.199.051l.199.059c.055.015.14.047.2.066.054.016.14.05.198.07.055.02.141.055.2.079.054.023.14.058.195.086.059.023.145.066.2.09.058.027.144.07.198.1.055.028.145.075.2.106a5 5 0 0 1 .398.23c.055.032.145.09.2.126l.199.129.199.14c.054.04.144.102.199.141l.2.152c.054.043.144.11.198.157.055.043.145.113.2.16.054.047.144.12.199.168l.2.172c.054.05.144.129.198.18s.14.132.2.187c.054.05.14.133.199.187.054.055.14.14.199.196.055.054.14.144.195.199.059.058.145.148.2.207.058.058.144.152.199.21.058.06.144.153.199.216.055.058.144.156.2.218.054.063.144.16.198.223s.145.164.2.23c.054.063.144.165.199.231l.199.238c.055.063.145.172.2.239l.198.242.2.25c.054.07.144.18.199.25l.2.254.198.257c.055.07.145.188.2.262l.199.262c.054.074.14.191.199.266.055.074.14.19.2.269.054.074.14.191.194.27.06.074.145.195.2.27.058.077.144.198.199.276.059.075.144.2.2.274.054.078.144.203.198.277l.2.281c.054.079.144.204.199.278.054.078.144.203.199.281l.2.285.198.281.2.282c.054.082.144.207.199.285s.144.207.2.285l.198.281.2.285c.054.079.144.204.199.282.054.078.144.203.199.28.055.083.14.208.2.286.054.078.14.203.198.277l.196.282c.058.078.144.203.199.277.059.078.144.2.2.277.058.079.144.2.198.278l.2.27c.054.077.144.198.199.273l.2.27c.054.073.144.19.198.265l.2.265.199.262.199.258.2.254c.054.074.144.184.198.254l.2.25c.054.07.144.18.199.246l.199.242.2.238c.054.067.14.168.198.235.055.062.141.168.2.23.054.063.14.164.199.227.055.062.14.16.195.219.059.062.145.16.2.218.058.059.144.153.199.211.054.059.144.153.199.211l.2.2c.054.058.144.144.198.199.055.054.145.14.2.191.054.055.144.137.199.188l.199.183c.055.05.144.129.2.176l.198.172c.055.047.145.117.2.164l.199.156c.055.047.144.113.2.156l.198.145c.055.039.145.105.2.14.054.04.14.098.199.137.054.035.14.094.199.13.055.03.14.085.2.12l.194.113c.06.032.145.083.2.11.058.031.144.074.199.101l.2.098.198.086c.055.023.145.063.2.082.054.023.144.055.199.078.054.02.144.047.199.067a4 4 0 0 0 .398.113c.055.015.145.035.2.05.054.012.144.028.199.04.055.008.144.023.2.03.054.009.144.02.198.028.055.004.145.016.2.02l.199.012.199.003.2-.003c.054 0 .14-.008.198-.008.055-.004.141-.012.196-.02.058-.004.144-.015.199-.023.059-.008.144-.02.2-.031.058-.008.144-.028.198-.04.055-.011.145-.03.2-.043l.199-.054.199-.059c.055-.015.145-.047.2-.066.054-.02.144-.051.198-.074.055-.02.145-.055.2-.079l.199-.085c.055-.028.144-.07.2-.094l.198-.102c.055-.031.145-.078.2-.11.054-.027.144-.077.199-.112l.199-.118.2-.129.198-.132c.055-.04.141-.098.2-.141l.199-.145c.055-.039.14-.109.195-.152.059-.043.145-.11.2-.156.058-.043.144-.117.199-.164.054-.047.144-.121.199-.168s.144-.125.199-.176c.055-.047.145-.129.2-.18.054-.05.144-.132.198-.187.055-.05.145-.137.2-.188l.199-.199.2-.2c.054-.058.144-.147.198-.206l.2-.211c.054-.059.144-.156.199-.219.054-.058.144-.156.199-.219.055-.062.145-.16.2-.226l.198-.227c.055-.066.141-.168.2-.234.054-.066.14-.172.199-.238.055-.067.14-.172.2-.242l.194-.243c.059-.07.145-.18.2-.25.058-.07.144-.18.199-.25.058-.07.144-.183.2-.257.054-.07.144-.184.198-.258l.2-.258c.054-.074.144-.192.199-.266.054-.074.144-.191.199-.265l.2-.27.198-.27.2-.273c.054-.074.144-.2.199-.273l.199-.278c.055-.078.145-.199.2-.277l.198-.281.2-.278c.054-.078.144-.203.199-.28.055-.079.14-.208.2-.286.054-.078.14-.203.198-.281.055-.078.141-.203.196-.285.058-.079.144-.204.199-.282.058-.078.144-.207.2-.285.058-.078.144-.203.198-.281.055-.082.145-.207.2-.285.054-.078.144-.203.199-.281l.199-.286.2-.28c.054-.079.144-.2.198-.278l.2-.281c.054-.079.144-.2.199-.278s.144-.199.2-.277l.198-.274.2-.273.199-.27.199-.27.2-.265c.054-.074.14-.191.198-.265.055-.07.141-.188.2-.258.054-.074.14-.188.199-.258a15 15 0 0 1 .394-.508c.059-.07.145-.18.2-.25l.199-.242c.054-.07.144-.176.199-.242l.2-.238c.054-.067.144-.168.198-.235l.2-.226c.054-.067.144-.164.199-.227.055-.062.144-.16.2-.219.054-.062.144-.16.198-.218l.2-.211c.054-.059.144-.149.199-.207l.199-.2.2-.199.198-.187a5 5 0 0 1 .2-.188c.054-.05.14-.133.199-.18.055-.05.14-.128.2-.175l.194-.168c.059-.047.145-.121.2-.164l.199-.157c.055-.043.144-.113.199-.152.055-.043.145-.105.2-.144.054-.043.144-.102.198-.141.055-.04.145-.098.2-.133l.199-.129c.055-.031.144-.086.2-.117.054-.035.144-.086.198-.113.055-.032.145-.078.2-.11l.199-.101c.054-.024.144-.067.199-.094l.2-.086c.054-.023.144-.058.198-.078.055-.023.145-.055.2-.074.054-.02.144-.051.199-.067.055-.015.14-.043.2-.058.054-.016.14-.04.198-.055l.196-.043c.058-.012.144-.031.199-.039.058-.012.144-.023.2-.031.058-.008.144-.02.198-.024.055-.007.145-.015.2-.02.054 0 .144-.007.199-.007.054 0 .144-.004.199-.004s.144.004.2.004l.198.012c.055.004.145.015.2.02l.199.027c.055.007.144.023.199.03.055.013.145.028.2.04.054.016.144.035.198.05a4 4 0 0 1 .399.114c.055.02.144.047.2.066.054.024.14.055.198.079.055.019.141.058.2.082.054.023.14.062.199.085l.195.098c.059.027.145.07.2.102.058.027.144.078.199.11l.199.112c.054.036.144.09.199.121l.2.13c.054.038.144.097.198.136.055.035.145.102.2.14l.199.145c.055.043.144.11.2.156l.198.157c.055.047.145.117.2.164l.199.172c.054.047.144.125.199.175l.2.184c.054.05.144.133.198.188.055.05.141.136.2.19.054.056.14.142.199.2.055.055.14.145.199.2l.195.21c.059.059.145.153.2.211.058.059.144.157.199.219.054.059.144.156.199.219l.2.226.198.23c.055.067.145.169.2.235.054.067.144.172.199.238l.2.243c.054.066.144.175.198.246l.2.25c.054.07.144.18.199.254l.199.254.2.257c.054.075.144.192.198.262.055.074.145.191.2.266.054.074.14.191.199.265.055.075.14.196.2.27.054.074.14.195.198.273.055.075.14.196.196.27.058.078.144.199.199.277.058.078.144.2.199.278.059.074.145.199.2.277l.198.281c.055.074.145.2.2.277.054.079.144.204.199.282.055.082.144.207.2.285l.198.281.2.285.199.282.199.285c.055.078.145.203.2.285l.198.281.2.281.199.285.2.282c.054.074.14.199.198.277.055.078.14.203.2.281.054.075.14.2.195.278.058.074.144.199.2.273.058.078.144.2.198.277.059.075.145.196.2.27.054.078.144.195.199.27.054.078.144.195.199.269l.2.266c.054.074.144.191.198.261.055.075.145.192.2.262l.199.258.199.254.2.25c.054.07.144.18.198.246.055.07.145.18.2.246.054.066.144.176.199.238l.2.239c.054.066.144.168.198.23.055.066.141.168.2.23.054.063.14.16.199.223.054.063.14.16.199.219.055.062.14.156.195.215.059.058.145.152.2.21l.199.208.199.199.2.195c.054.055.144.137.198.188.055.054.145.136.2.187.054.051.144.13.199.18l.2.172c.054.047.144.12.198.168.055.047.145.117.2.16.054.047.144.113.199.156.054.043.144.11.199.153l.2.14c.054.04.144.102.198.14l.2.13c.054.035.14.093.199.125.055.035.14.09.199.12.055.032.14.083.2.11.054.031.14.078.195.106l.199.101c.058.024.144.067.199.09.059.027.145.063.2.086.054.023.144.059.198.078s.145.055.2.07c.054.02.144.051.199.067.055.015.144.043.2.058.054.016.144.036.198.051l.2.043c.054.012.144.028.199.035.054.012.144.024.199.032.055.007.145.015.2.02.054.007.144.015.198.015.055.004.145.008.2.008.054.003.144.003.199.003.055-.003.144-.003.2-.007l.198-.012c.055-.008.14-.016.2-.024.054-.003.14-.02.195-.027.058-.008.144-.023.199-.035.059-.008.145-.027.2-.04.058-.015.144-.034.198-.05l.2-.055c.054-.015.144-.046.199-.062l.2-.07c.054-.02.144-.055.198-.078.055-.02.145-.06.2-.083.054-.023.144-.066.199-.09l.199-.097c.055-.027.145-.074.2-.105a5 5 0 0 0 .198-.11c.055-.031.145-.082.2-.117a5 5 0 0 0 .398-.254 6 6 0 0 0 .2-.137c.054-.035.14-.101.199-.14l.199-.149.199-.156c.055-.043.14-.113.195-.16.059-.043.145-.117.2-.164.058-.047.144-.125.199-.172l.199-.18a4 4 0 0 0 .2-.183c.054-.051.144-.133.198-.188.055-.05.145-.14.2-.191l.199-.2c.055-.058.144-.148.199-.207.055-.054.145-.148.2-.207.054-.058.144-.152.198-.214.055-.059.145-.157.2-.22.054-.058.144-.16.199-.222l.2-.226c.054-.063.144-.164.198-.23.055-.067.145-.169.2-.235.054-.067.14-.172.199-.242l.199-.243c.055-.066.14-.175.2-.246l.195-.25c.058-.07.144-.183.199-.254.058-.07.144-.183.199-.257.055-.07.145-.184.2-.258.054-.07.144-.188.198-.262s.145-.191.2-.266c.054-.074.144-.191.199-.265l.2-.27c.054-.078.144-.199.198-.273l.2-.274c.054-.078.144-.199.199-.277l.199-.277c.055-.074.144-.2.2-.278l.198-.28.2-.278.199-.285.199-.282c.055-.078.14-.203.2-.28.054-.079.14-.208.198-.286.055-.078.196-.285.196-.285"/></g><use xlink:href="#e" x="118.911" y="70.687"/><use xlink:href="#j" x="2.968" y="46.113"/><use xlink:href="#g" x="7.706" y="47.983"/><use xlink:href="#k" x="12.309" y="47.983"/><path fill="none" stroke="#000" stroke-miterlimit="10" stroke-width=".39629079000000006" d="M19.824 88.02h100.828"/><path d="m123.703 88.02-2.953-1.75v3.5Zm0 0"/><g clip-path="url(#l)"><path fill="none" stroke="#000" stroke-miterlimit="10" stroke-width=".39629079000000006" d="m123.703 88.02-2.953-1.75v3.5Zm0 0"/></g><g clip-path="url(#m)"><path fill="none" stroke="#000" stroke-miterlimit="10" stroke-width=".39629079000000006" d="M19.824 102.098V77.39"/></g><path stroke="#000" stroke-miterlimit="10" stroke-width=".39629079000000006" d="m19.824 74.336-1.75 2.957h3.504Zm0 0"/><g clip-path="url(#n)"><path fill="none" stroke="#000" stroke-miterlimit="10" stroke-width=".39629079000000006" d="M19.824 88.02s.145.203.2.285c.054.078.144.203.199.28.054.08.144.204.199.286l.2.281c.054.078.144.203.198.282l.2.28c.054.079.144.204.199.282l.199.277c.055.079.144.2.2.278l.198.273c.055.078.145.2.2.274.054.078.144.199.199.273l.2.27c.054.074.14.195.198.27.055.07.14.19.2.26.054.075.14.192.199.263.054.074.14.191.195.261.059.07.145.184.2.258.058.07.144.184.198.25.055.07.145.184.2.25.054.07.144.18.199.25.055.067.144.176.2.242.054.067.144.172.198.239.055.066.145.171.2.234.054.066.144.168.199.234l.199.227c.055.062.145.16.2.223.054.058.144.156.198.218l.2.211c.054.059.144.153.199.211.055.055.144.149.2.203l.198.2c.055.054.14.14.2.195.054.05.14.137.199.187.054.051.14.133.199.184.055.05.14.129.195.176l.2.172c.058.046.144.12.199.168.058.043.144.117.199.16s.144.113.2.152c.054.043.144.11.198.149.055.042.145.105.2.144.054.04.144.098.199.137l.199.129.2.125.198.113c.055.035.145.082.2.113l.199.102.2.097c.054.028.144.067.198.09l.2.086c.054.02.144.055.199.074.054.02.14.051.199.07.055.02.14.048.2.063l.195.059c.058.012.144.035.199.047.058.011.144.031.199.043.059.008.144.023.2.035l.198.027c.055.004.145.016.2.02.054.004.144.011.199.011.055.004.144.008.2.008h.198c.055-.004.145-.004.2-.008.054-.003.144-.011.199-.015.054-.004.144-.016.199-.024l.2-.027c.054-.012.144-.027.198-.039l.2-.043c.054-.012.144-.035.199-.05.054-.016.144-.04.199-.06.055-.015.14-.042.2-.062l.198-.07c.055-.024.141-.059.2-.082.054-.02.14-.059.195-.082.059-.028.145-.067.2-.094a10 10 0 0 0 .398-.203l.199-.113.2-.118.198-.125a6 6 0 0 0 .2-.132l.199-.137c.054-.04.144-.102.199-.145.055-.039.144-.105.2-.148l.198-.156c.055-.047.145-.118.2-.164.054-.043.144-.121.199-.168l.2-.172c.054-.051.144-.13.198-.18s.14-.133.2-.184c.054-.05.14-.136.199-.19.054-.052.14-.142.199-.196l.195-.2c.059-.054.145-.148.2-.203.058-.058.144-.152.199-.21.058-.06.144-.157.199-.215.055-.063.144-.16.2-.22l.198-.226.2-.226c.054-.063.144-.168.199-.235l.199-.234c.055-.066.145-.172.2-.242l.198-.242c.055-.07.145-.18.2-.246l.199-.254.2-.254c.054-.07.144-.184.198-.258l.2-.258c.054-.074.144-.191.199-.266.054-.07.14-.19.199-.265.055-.07.14-.192.2-.266l.194-.27c.06-.077.145-.199.2-.273.058-.074.144-.199.199-.273.059-.078.144-.2.2-.278.054-.078.144-.199.198-.277s.145-.2.2-.277c.054-.078.144-.203.199-.281.054-.079.144-.204.199-.282l.2-.281c.054-.078.144-.203.198-.285l.2-.281c.054-.078.144-.203.199-.286l.2-.28.198-.286.2-.281.199-.285.199-.282c.055-.078.14-.203.2-.28.054-.079.14-.204.198-.282l.196-.281c.058-.075.144-.2.199-.278.059-.078.144-.199.2-.277.058-.074.144-.2.198-.273.055-.079.145-.2.2-.274.054-.074.144-.195.199-.273.055-.075.144-.192.2-.266l.198-.27c.055-.074.145-.19.2-.261.054-.074.144-.192.199-.262.054-.074.144-.187.199-.262l.2-.254.198-.253.2-.25.199-.243c.054-.07.144-.175.199-.242.055-.066.145-.176.2-.238.054-.067.14-.172.198-.234.055-.067.141-.168.2-.231.054-.066.14-.164.199-.227l.195-.222c.059-.063.145-.156.2-.219.058-.059.144-.152.199-.21.054-.06.144-.153.199-.208.055-.058.144-.148.2-.203l.198-.2c.055-.054.145-.136.2-.19l.199-.188c.054-.05.144-.133.199-.18l.2-.18c.054-.046.144-.12.198-.167s.145-.122.2-.165c.054-.046.144-.117.199-.16s.144-.113.2-.152c.054-.043.144-.11.198-.148.055-.04.145-.102.2-.141.054-.04.14-.098.199-.133.054-.039.14-.094.199-.129.055-.035.14-.09.2-.12a5 5 0 0 1 .394-.227c.058-.028.144-.075.199-.102.058-.027.144-.07.2-.094.054-.027.144-.066.198-.09s.145-.058.2-.082l.199-.074.199-.07.2-.059.198-.054c.055-.016.145-.036.2-.047.054-.012.144-.032.199-.04a4 4 0 0 1 .398-.058c.055-.008.145-.016.2-.02.054-.003.144-.011.199-.011.054-.004.144-.004.199-.004h.2l.198.012c.055.003.141.011.196.015.058.008.144.016.199.024.059.007.144.023.2.03.058.013.144.028.198.04s.145.031.2.047c.054.012.144.035.199.05l.199.06c.055.019.145.046.2.066l.198.074c.055.023.145.058.2.082.054.023.144.058.199.086.055.023.144.066.2.094.054.027.144.07.198.101.055.027.145.074.2.106l.199.113c.054.031.144.086.199.12.055.036.145.09.2.126.054.039.14.098.198.133.055.039.141.101.2.14.054.04.14.106.199.145l.195.152c.059.043.145.114.2.156.058.047.144.118.199.165.054.046.144.12.199.168.055.05.144.128.199.175.055.051.145.13.2.18l.198.187c.055.051.145.137.2.192.054.055.144.14.199.195l.2.203c.054.055.144.149.198.207.055.055.145.153.2.211.054.059.144.153.199.215.054.059.144.16.199.219l.2.226c.054.063.144.165.198.23.055.063.141.169.2.231.054.067.14.172.199.239.055.066.14.175.2.242.054.066.14.176.194.246.059.066.145.176.2.246.058.07.144.184.199.254.058.07.144.184.2.254l.198.258c.055.07.145.187.2.261l.199.262c.054.074.144.192.199.266l.2.27c.054.073.144.195.198.273l.2.27c.054.077.144.198.199.277l.199.273.2.281c.054.074.144.2.198.278l.2.28c.054.079.144.204.199.282s.14.203.2.281l.198.286.196.28c.058.079.144.204.199.286.058.078.144.203.2.281.058.078.144.207.198.285l.2.282.199.285c.054.078.144.203.199.281l.2.281.198.281c.055.079.145.2.2.278.054.078.144.203.199.277.055.078.144.203.2.278.054.078.144.199.198.273.055.078.145.2.2.273.054.079.144.196.199.274.054.074.144.191.199.265s.144.196.2.266c.054.074.14.191.198.266.055.074.141.187.2.261.054.07.14.188.199.258l.195.254c.059.07.145.184.2.254.058.066.144.18.199.246.054.07.144.18.199.246l.199.242c.055.067.145.172.2.235.054.066.144.172.198.234.055.067.145.168.2.23.054.063.144.165.199.223.055.063.144.16.2.223l.198.215.2.21c.054.06.144.153.199.208.054.058.144.148.199.203l.2.195c.054.055.144.137.198.192.055.05.141.132.2.183.054.051.14.133.199.184.055.047.14.125.2.172a8 8 0 0 0 .394.336c.058.043.144.113.199.156l.199.152.2.145c.054.039.144.101.198.136.055.04.145.098.2.137l.199.125c.055.035.144.086.2.121l.198.114c.055.03.145.078.2.105.054.031.144.074.199.102.054.027.144.07.199.093l.2.086c.054.024.144.059.198.082l.2.07c.054.02.144.051.199.067.055.02.14.047.2.063.054.015.14.039.198.05a4 4 0 0 0 .395.082c.058.012.144.024.2.032l.198.027.2.016c.054.003.144.007.199.007.054.004.144.004.199.004s.144 0 .2-.004l.198-.011c.055-.004.145-.012.2-.02a4 4 0 0 0 .398-.058c.055-.008.145-.028.2-.04.054-.011.144-.035.198-.046l.2-.055a4 4 0 0 0 .199-.063c.055-.015.144-.046.2-.066.054-.02.14-.055.198-.074.055-.024.141-.059.2-.082a8 8 0 0 0 .394-.184c.059-.027.145-.074.2-.101l.199-.11c.054-.031.144-.082.199-.117.054-.031.144-.086.199-.121l.2-.129c.054-.035.144-.098.198-.133l.2-.14c.054-.043.144-.106.199-.149l.2-.152c.054-.043.144-.113.198-.16.055-.043.145-.118.2-.164.054-.047.144-.122.199-.172.054-.047.144-.125.199-.176.055-.047.144-.129.2-.18l.198-.187c.055-.055.141-.14.2-.196.054-.05.14-.14.199-.195l.199-.203.195-.207c.059-.059.145-.152.2-.215.058-.058.144-.156.199-.215.054-.062.144-.16.199-.222l.2-.227c.054-.062.144-.164.198-.23.055-.063.145-.168.2-.235l.199-.238c.055-.066.144-.172.2-.242.054-.067.144-.176.198-.246.055-.067.145-.18.2-.246l.199-.254c.054-.07.144-.184.199-.258.055-.07.145-.184.2-.258.054-.07.144-.187.198-.262.055-.074.145-.191.2-.261.054-.075.14-.196.199-.27.055-.074.14-.191.2-.27.054-.074.14-.195.198-.269.055-.074.14-.2.196-.273.058-.079.144-.2.199-.278.058-.074.144-.199.199-.273.059-.078.145-.203.2-.281.054-.075.144-.2.198-.278l.2-.281c.054-.078.144-.203.199-.281l.2-.282.198-.285.2-.281.199-.285c.054-.078.144-.203.199-.285l.2-.282.198-.285.2-.281c.054-.078.144-.203.199-.281l.2-.281c.054-.079.14-.204.198-.282.055-.078.14-.199.2-.277.054-.078.14-.203.195-.277l.2-.278c.058-.074.144-.199.198-.273.059-.078.145-.2.2-.274l.199-.27.199-.269.2-.265c.054-.07.144-.188.198-.262s.145-.188.2-.262l.199-.254c.055-.074.144-.187.199-.254l.2-.253.198-.247c.055-.07.145-.175.2-.246l.199-.238.2-.238.198-.23c.055-.063.141-.165.2-.227.054-.067.14-.164.199-.227.054-.062.14-.16.199-.219.055-.058.14-.156.195-.214.059-.059.145-.153.2-.211.058-.055.144-.149.199-.203.054-.06.144-.145.199-.204.055-.054.145-.14.2-.191.054-.055.144-.14.198-.191l.2-.184c.054-.05.144-.133.199-.18.055-.05.144-.125.2-.175.054-.047.144-.122.198-.165l.2-.164.199-.156c.054-.043.144-.11.199-.148.055-.043.144-.106.2-.145.054-.039.144-.101.198-.137a8.886 8.886 0 0 1 .797-.488 5 5 0 0 1 .395-.203c.058-.027.144-.07.199-.094.059-.023.145-.062.2-.086.054-.02.144-.054.198-.078l.2-.07c.054-.02.144-.047.199-.066.055-.016.144-.043.2-.055.054-.016.144-.04.198-.05.055-.017.145-.036.2-.044.054-.012.144-.027.199-.039l.199-.027c.055-.008.145-.02.2-.024l.198-.015c.055-.004.145-.008.2-.008h.199c.055 0 .144.004.2.004l.198.015c.055.004.14.012.2.02l.195.027c.058.008.144.024.199.035l.2.043c.058.012.144.036.198.047.055.016.145.04.2.059a4 4 0 0 1 .199.062c.055.016.144.047.2.07.054.02.144.051.198.075.055.023.145.058.2.086.054.023.144.062.199.09.054.023.144.066.199.097.055.028.145.07.2.102.054.031.144.078.198.11.055.03.145.085.2.116.054.036.144.09.199.125l.2.13c.054.038.144.097.198.136s.14.102.2.14c.054.044.14.11.199.15.054.042.14.112.199.155.055.043.14.114.195.16.059.047.145.122.2.168.058.047.144.122.199.172.054.047.144.125.199.176l.2.184.198.187c.055.055.145.14.2.196.054.054.144.14.199.199.055.054.144.144.199.203.055.058.145.148.2.207l.198.215c.055.062.145.156.2.219.054.062.144.16.199.222l.2.227c.054.066.144.168.198.23l.2.238c.054.067.14.172.199.239.054.066.14.176.199.242.055.07.14.18.2.246l.195.25c.058.07.144.184.199.254.058.07.144.187.199.258l.2.258c.054.074.144.191.198.261.055.075.145.192.2.266l.199.27.2.269.198.27c.055.078.145.199.2.273.054.078.144.2.199.277.054.078.144.2.199.278s.144.199.2.277l.198.281.2.281c.054.079.144.204.199.282l.199.281c.055.078.14.207.2.285.054.078.14.203.198.281l.196.286"/></g><use xlink:href="#e" x="118.911" y="96.182"/><use xlink:href="#j" x="6.587" y="82.87"/><use xlink:href="#o" x="11.326" y="84.74"/></svg>