<svg xmlns="http://www.w3.org/2000/svg" xmlns:xlink="http://www.w3.org/1999/xlink" width="226.715" height="95.606"><defs><path id="b" d="M2.828.063A4 4 0 0 1 2.5.078Q1.544.08.969-.547q-.61-.67-.61-1.844 0-1.17.657-1.843.59-.64 1.562-.641.984.001 1.547.64.593.659.594 1.844-.001 1.175-.64 1.844-.283.299-.641.438l.593.593a.9.9 0 0 0 .485.266.7.7 0 0 0 .25.047v.047a.3.3 0 0 1-.157.265.7.7 0 0 1-.39.11q-.411-.001-.75-.407Zm-.281-.375c.469 0 .836-.18 1.11-.547.28-.375.421-.883.421-1.532q-.002-.968-.437-1.53a1.34 1.34 0 0 0-1.125-.563q-.705 0-1.11.562Q.998-3.358 1-2.39c0 .649.133 1.157.406 1.532q.422.549 1.14.547m0 0"/><path id="c" d="m.61-2.953-.5-.063a.1.1 0 0 1-.016-.062q-.002-.187.265-.203l.813-.094v2.188c0 .542.226.812.687.812q.545.001.86-.344v-2.234l-.5-.063v-.062q-.001-.187.25-.203l.812-.094v3l.516.063v.062q-.002.19-.25.203l-.781.094v-.469H2.75c-.262.336-.61.5-1.047.5Q.61.08.61-1.156Zm0 0"/><path id="d" d="M.906-1.687q0 .657.282 1.015.281.345.796.344.451 0 .844-.328.075.048.094.203-.001.158-.313.328-.376.201-.875.203-.626 0-1-.39Q.314-.747.313-1.61.312-2.464.75-2.97c.281-.289.617-.437 1.016-.437q.545 0 .843.312.296.316.297.844 0 .234-.078.563Zm.797-1.36Q1-3.047.906-2.016h1.375q.03-.139.031-.296 0-.734-.609-.735m0 0"/><path id="e" d="M.672-.36v-4.25l-.5-.077Q.155-4.7.156-4.734c0-.133.086-.207.266-.22l.812-.077V-.36l.422.093q.094.02.094.079A.3.3 0 0 1 1.672 0H.203v-.047c0-.101.07-.18.219-.234Zm0 0"/><path id="f" d="M.703-.36v-2.593l-.5-.063a.1.1 0 0 1-.016-.062c0-.125.086-.192.266-.203l.813-.094-.032.469h.016q.233-.235.406-.328.311-.171.735-.172.515 0 .797.328.28.315.28.906v1.813l.423.093q.093.02.093.079A.3.3 0 0 1 3.906 0H2.437v-.047c0-.101.07-.18.22-.234l.25-.078v-1.782q0-.419-.235-.64a.78.78 0 0 0-.516-.172q-.504.002-.89.344v2.25l.422.093q.093.02.093.079A.36.36 0 0 1 1.72 0H.25a.1.1 0 0 1-.016-.047c0-.101.07-.18.22-.234Zm0 0"/><path id="g" d="M2.766-.656a.3.3 0 0 1 .093.203q0 .158-.28.328-.348.201-.829.203c-.437 0-.79-.14-1.047-.422q-.391-.45-.39-1.281c0-.562.164-1.004.5-1.328q.45-.451 1.171-.453.482 0 .735.187.187.158.187.344 0 .316-.281.375c-.18-.352-.437-.531-.781-.531a.82.82 0 0 0-.657.297q-.28.329-.28.968c0 .961.35 1.438 1.062 1.438q.497 0 .797-.328m0 0"/><path id="h" d="M1.828.078q-.657 0-1.062-.422-.47-.467-.47-1.281 0-.824.517-1.328.467-.451 1.14-.453.655 0 1.063.406c.3.305.453.734.453 1.297q0 .845-.516 1.344a1.59 1.59 0 0 1-1.125.437m.047-.375q.42 0 .688-.328.28-.374.28-1.047 0-.656-.28-1.031a.85.85 0 0 0-.688-.328q-.44 0-.687.328-.282.363-.282 1.031 0 .69.282 1.047.247.328.687.328m0 0"/><path id="i" d="M2.656-.39h-.031q-.346.468-.984.468c-.375 0-.684-.117-.922-.36-.274-.28-.406-.706-.406-1.28q-.001-.921.53-1.407.47-.435 1.173-.437.311 0 .593.078V-4.61l-.5-.079q-.016-.011-.015-.046-.002-.2.265-.22l.813-.077v4.656l.5.063q.014.033.015.062-.001.19-.265.203l-.766.094Zm-.86.015q.516 0 .813-.297v-2.11c-.168-.163-.39-.25-.671-.25a.95.95 0 0 0-.75.345Q.89-2.311.89-1.672q-.002.673.265 1c.157.2.367.297.64.297m0 0"/><path id="j" d="M.703-.36v-2.593l-.5-.063a.1.1 0 0 1-.016-.062c0-.125.086-.192.266-.203l.813-.094v3.016l.422.093q.093.02.093.079A.36.36 0 0 1 1.72 0H.25a.1.1 0 0 1-.016-.047c0-.101.07-.18.22-.234ZM.593-4.53a.38.38 0 0 1 .11-.282.35.35 0 0 1 .281-.125q.17.001.282.125a.37.37 0 0 1 .125.282.38.38 0 0 1-.125.297.42.42 0 0 1-.282.093.4.4 0 0 1-.28-.093c-.075-.07-.11-.172-.11-.297m0 0"/><path id="k" d="M.703-.36v-2.593l-.5-.063a.1.1 0 0 1-.016-.062c0-.125.086-.192.266-.203l.813-.094-.032.594h.016q.406-.623.875-.625.47 0 .469.328a.5.5 0 0 1-.11.297c-.168-.07-.32-.11-.453-.11a.89.89 0 0 0-.765.407V-.36l.484.093c.07.012.11.04.11.079A.3.3 0 0 1 1.78 0H.25a.1.1 0 0 1-.016-.047c0-.101.07-.18.22-.234Zm0 0"/><path id="l" d="M4.344-4.781v.062q0 .159-.235.235l-.234.062L2.359-2.5 4.016-.375l.422.094q.093.033.093.078 0 .034-.078.203H3.47L1.844-2.219h-.39v1.844l.484.094q.093.018.093.078 0 .034-.078.203H.328a.1.1 0 0 1-.016-.062q0-.187.25-.25L.86-.375v-4.047l-.437-.094q-.094-.012-.094-.078-.002-.058.078-.187h1.61v.062q0 .176-.235.235l-.328.062v1.813h.5L3.36-4.437l-.437-.079q-.094-.012-.094-.078-.002-.046.078-.187Zm0 0"/><path id="m" d="M2.063-2.156q0-.45-.141-.672-.129-.218-.469-.219a1.1 1.1 0 0 0-.406.078q-.096.175-.156.61H.75q-.344 0-.344-.297c0-.207.117-.383.36-.531q.357-.219.797-.22 1.061 0 1.062 1.173V-.72q-.001.392.25.39a.34.34 0 0 0 .25-.093q.062.096.063.203 0 .082-.126.157a.7.7 0 0 1-.421.125q-.471.001-.532-.485h-.015c-.219.336-.54.5-.953.5Q.747.078.5-.156.266-.402.266-.812q0-.5.515-.782.437-.234 1.094-.234h.188ZM1.375-.36q.388.001.688-.36v-.797l-.188.016q-1.001.082-1 .625c0 .344.164.516.5.516m0 0"/><path id="n" d="m4.672-.375-.063-3.281h-.015L3.125-.062H2.75L1.313-3.687h-.016L1.234-.376l.485.094q.093.018.093.078 0 .034-.078.203H.313a.1.1 0 0 1-.016-.062q0-.187.234-.25l.297-.063.063-4.047-.438-.094Q.36-4.528.36-4.594q-.002-.058.079-.187H1.53l1.5 3.812h.016L4.594-4.78h1.172a.1.1 0 0 1 .015.062q0 .176-.234.235l-.328.062.047 4.047.484.094q.094.018.094.078-.002.034-.078.203H4.14v-.062q0-.187.234-.25Zm0 0"/><path id="o" d="M.672 1.031v-3.984l-.516-.063v-.062q-.001-.187.25-.203l.828-.094-.046.469h.015q.422-.499 1.031-.5.592 0 .938.422c.238.28.36.68.36 1.187q0 .91-.47 1.39-.455.456-1.234.454c-.2 0-.398-.035-.594-.094v1.078l.407.078q.093.03.093.094a.36.36 0 0 1-.062.188H.203a.1.1 0 0 1-.016-.047c0-.117.07-.196.22-.235Zm1.344-4c-.305 0-.563.11-.782.328v2.079a.96.96 0 0 0 .641.218q1.078.002 1.078-1.422-.002-.574-.25-.89a.84.84 0 0 0-.687-.313m0 0"/><path id="r" d="M1.234.047c.344 0 .891-.36.891-1.453 0-.469-.11-.86-.312-1.125a.68.68 0 0 0-.563-.297c-.469 0-.906.531-.906 1.453 0 .5.156.969.406 1.219.14.125.297.203.484.203m.016-2.719c.094 0 .172.031.234.078.172.125.282.469.282 1.094 0 .422-.016.719-.094.953-.11.39-.344.438-.438.438-.5 0-.515-.813-.515-1.203 0-1.157.281-1.36.531-1.36m0 0"/><path id="s" d="M1.484-.578v-1.594c0-.281.016-.562.016-.625 0-.015 0-.031-.016-.031-.234.156-.625.39-.968.578 0 .047.046.14.078.172.172-.094.422-.203.484-.203.063 0 .078.11.078.265v1.438c0 .203-.015.297-.093.36C1-.173.813-.157.672-.157c-.031.031-.031.14 0 .172C.859 0 1.094 0 1.359 0c.188 0 .391 0 .579.016.03-.032.03-.141 0-.172-.11 0-.313-.016-.375-.063-.047-.047-.079-.156-.079-.36m0 0"/><path id="v" d="M1.11-2.031v.828H.327c-.062 0-.14.094-.14.172 0 .047.03.078.078.078h.843v.875c0 .047.047.078.079.078.078 0 .171-.062.171-.125v-.828h.782c.078 0 .14-.11.14-.156 0-.047-.015-.094-.062-.094h-.86v-.89c0-.048-.046-.079-.078-.079-.047 0-.172.078-.172.14m0 0"/><path id="t" d="M2.203.078c.64 0 1.625-.656 1.625-2.61 0-.827-.203-1.546-.562-2.03a1.25 1.25 0 0 0-1.016-.532c-.828 0-1.625.969-1.625 2.625 0 .906.281 1.735.734 2.188.235.234.532.36.844.36m.047-4.875c.156 0 .313.047.422.14.297.204.5.829.5 1.954 0 .765-.016 1.297-.156 1.734-.22.688-.625.766-.797.766-.906 0-.922-1.438-.922-2.172 0-2.062.516-2.422.953-2.422m0 0"/><path id="u" d="M2.688-1.031v-2.89c0-.5 0-1 .015-1.11 0-.047-.015-.047-.047-.047-.406.266-1.11.687-1.734 1.031a.66.66 0 0 0 .14.297c.329-.156.75-.36.891-.36.11 0 .14.188.14.47v2.609c0 .343-.046.531-.171.625-.11.094-.469.125-.719.14-.047.047-.047.235 0 .282C1.547 0 1.953 0 2.438 0c.359 0 .718 0 1.062.016.047-.047.047-.235 0-.282-.219-.015-.594-.046-.672-.125-.11-.093-.14-.28-.14-.64m0 0"/><path id="x" d="M4.5-6.156q.062.752.063 1.047c0 .273-.086.406-.25.406a.5.5 0 0 1-.204-.047l-.203-.937H1.875v2.453h1.984v.5H1.875v2.25l.703.125q.124.017.125.093 0 .048-.094.266H.422a.16.16 0 0 1-.016-.078Q.404-.324.72-.406l.375-.078v-5.203l-.547-.125C.46-5.82.422-5.852.422-5.906q0-.075.094-.25Zm0 0"/><path id="y" d="M2.313-6.156q2.514.001 2.515 1.718 0 .893-.61 1.375-.626.516-1.859.516h-.484v2.063l.703.125q.124.017.125.093 0 .066-.094.266H.422a.16.16 0 0 1-.016-.078Q.404-.324.72-.406l.375-.078v-5.203l-.547-.125C.46-5.82.422-5.852.422-5.906q0-.075.094-.25Zm-.016 3.125q.856 0 1.297-.375Q4-3.764 4-4.391 3.998-5.64 2.297-5.64h-.422v2.61Zm0 0"/><path id="z" d="M5.86-2.906v.094c0 .148-.102.246-.298.296l-.203.047v1.89C4.867-.116 4.15.11 3.203.11q-1.22 0-1.937-.765-.797-.845-.797-2.39-.002-1.607 1.015-2.485.873-.734 2.125-.735.576 0 1.063.141.06.018.594.234.046.643.046.922-.001.391-.265.39a.5.5 0 0 1-.188-.03l-.203-.86q-.44-.28-1.11-.281-.936 0-1.546.61-.703.688-.703 2c0 .874.191 1.554.578 2.03.375.462.883.688 1.531.688.438 0 .828-.07 1.172-.219v-1.78l-.547-.126q-.127-.029-.125-.11 0-.074.094-.25Zm0 0"/><path id="A" d="M4.484-.484 3.906-2.11H1.672L1.094-.484l.672.125q.124.017.125.093 0 .066-.094.266H-.078a.2.2 0 0 1-.016-.078Q-.096-.342.22-.406l.25-.063 2.156-5.687.563-.078L5.328-.47l.406.11q.124.034.125.093-.002.048-.109.266H3.844v-.078q-.002-.246.297-.328Zm-2.64-2.11h1.89l-.921-2.61h-.016Zm0 0"/><path id="B" d="M2.344.11Q1.512.111.984-.438C.586-.832.391-1.383.391-2.094q0-1.06.656-1.703a2.03 2.03 0 0 1 1.469-.594q.843.002 1.359.532.576.58.578 1.672 0 1.078-.656 1.718-.609.58-1.453.578m.062-.5q.563 0 .89-.422.376-.468.376-1.329 0-.857-.375-1.328a1.06 1.06 0 0 0-.89-.437c-.368 0-.657.148-.876.437q-.361.471-.36 1.328-.002.861.36 1.329c.219.28.508.421.875.421m0 0"/><path id="C" d="M3.406-.516h-.031Q2.935.11 2.109.11 1.39.11.922-.359.39-.903.39-2.016q0-1.168.703-1.812.591-.563 1.5-.563c.258 0 .515.04.765.11v-1.657l-.656-.078a.2.2 0 0 1-.015-.078q-.001-.246.343-.281l1.047-.11v6l.656.079v.078q0 .252-.328.281l-1 .094Zm-1.094.047q.656 0 1.047-.39v-2.703c-.218-.22-.507-.329-.859-.329-.398 0-.719.149-.969.438q-.39.468-.39 1.312-.001.846.343 1.282.295.39.829.39m0 0"/><path id="D" d="M1.156-2.172q.012.845.375 1.297c.239.305.578.453 1.016.453q.576 0 1.094-.422.092.064.109.25c0 .137-.133.282-.39.438q-.487.265-1.126.265-.813.002-1.28-.5Q.39-.965.39-2.062.39-3.17.969-3.812c.351-.383.789-.579 1.312-.579q.686 0 1.078.422.375.41.375 1.078c0 .2-.039.438-.109.72Zm1.032-1.75q-.91.002-1.016 1.328h1.75q.047-.187.047-.375-.001-.951-.781-.953m0 0"/><path id="E" d="M.906-.469v-3.328l-.64-.078a.2.2 0 0 1-.016-.078q0-.246.328-.281l1.047-.11-.047.75h.031q.517-.797 1.125-.797c.407 0 .61.149.61.438 0 .125-.055.25-.156.375a1.4 1.4 0 0 0-.579-.14q-.609 0-.984.515V-.47l.625.125q.124.017.125.11A.4.4 0 0 1 2.297 0H.312a.1.1 0 0 1-.015-.062c0-.133.094-.235.281-.297Zm0 0"/><path id="F" d="M3.188-5.531a1.8 1.8 0 0 0-.891-.25q-.518.001-.813.265-.28.269-.28.72 0 .391.234.655a2.3 2.3 0 0 0 .5.344l.843.453c.438.242.742.465.922.672q.359.41.36 1 0 .785-.516 1.266-.551.516-1.453.515a3.46 3.46 0 0 1-1.5-.359q-.047-.482-.047-1 0-.389.281-.39.075 0 .188.046l.218.938q.386.298.938.297.575 0 .89-.328.296-.295.297-.782-.002-.406-.296-.687-.204-.187-.907-.578l-.562-.313c-.344-.195-.602-.398-.766-.61Q.515-4.06.516-4.64q-.002-.749.547-1.187.515-.437 1.359-.438.764 0 1.375.329.03.643.031.859-.001.391-.265.39a.5.5 0 0 1-.204-.046Zm0 0"/><path id="G" d="M.922-4.281v-.047q-.001-.996.484-1.594c.282-.344.617-.516 1.016-.516q.546 0 .547.422a.46.46 0 0 1-.156.329 1.1 1.1 0 0 0-.579-.172q-.328 0-.468.187c-.086.117-.125.309-.125.578v.813h1.203l-.094.468H1.64v3.344l.626.125q.124.017.125.11A.35.35 0 0 1 2.297 0H.328a.1.1 0 0 1-.016-.062c0-.133.094-.235.282-.297l.328-.11v-3.343H.234v-.063q0-.233.282-.297Zm0 0"/><path id="H" d="m.86-4.281.171-1.203h.516v1.203H2.89l-.094.468h-1.25v2.735q-.001.674.578.672.45 0 .75-.235.062.095.063.266-.002.112-.25.266-.332.217-.813.218Q.827.11.828-.92v-2.891H.156a.2.2 0 0 1-.015-.063q0-.233.28-.297Zm0 0"/><path id="I" d="M4.016-4.281q.107 0 .109.093A.5.5 0 0 1 4.063-4l-.516.14L4.562-.827h.016L5.703-3.86 5.078-4v-.062q-.001-.219.25-.22H6.61c.07 0 .11.032.11.095A.5.5 0 0 1 6.656-4l-.422.156L4.75 0h-.531L3.39-2.281h-.016L2.5 0h-.562L.452-3.86.047-4a.2.2 0 0 1-.016-.062q-.001-.219.25-.22h1.39q.108 0 .11.095A.5.5 0 0 1 1.72-4l-.516.14 1.11 3.032h.015l.828-2.078-.344-.953L2.407-4v-.062q-.001-.219.25-.22Zm0 0"/><path id="J" d="M2.656-2.781q0-.576-.187-.86-.174-.28-.594-.28a1.5 1.5 0 0 0-.531.093q-.11.235-.203.781a2 2 0 0 1-.188.016q-.438 0-.437-.39 0-.39.468-.673A1.9 1.9 0 0 1 2-4.39c.914 0 1.375.508 1.375 1.516v1.953c0 .336.102.5.313.5q.216.001.328-.11.077.112.078.25c0 .063-.055.134-.157.204a.9.9 0 0 1-.53.156q-.63 0-.688-.61h-.031q-.41.643-1.22.641-.502 0-.812-.312-.313-.311-.312-.828c0-.438.219-.774.656-1.016.375-.195.848-.297 1.422-.297h.234Zm-.89 2.328q.498 0 .89-.469v-1.015l-.234.015q-1.299.096-1.297.813c0 .437.21.656.64.656m0 0"/><clipPath id="a"><path d="M.324 54H194v1H.324Zm0 0"/></clipPath><clipPath id="p"><path d="M193 30h33.11v17H193Zm0 0"/></clipPath><clipPath id="q"><path d="M193 62h33.11v17H193Zm0 0"/></clipPath><clipPath id="w"><path d="M8 13h195v82.215H8Zm0 0"/></clipPath></defs><g clip-path="url(#a)"><path fill="none" stroke="#000" stroke-miterlimit="10" stroke-width=".3973641" d="M.523 54.57h16.098m0 0h18.367m27.664 0h36.73m27.669 0h36.73m27.668 0h2.266"/></g><path fill="none" stroke="#000" stroke-miterlimit="10" stroke-width=".7937323000000001" d="M34.988 40.734h27.664v27.668H34.988Zm0 0"/><path d="M30.79 54.57v1.977l4.198-1.977-4.199-1.976Zm0 0"/><path fill="none" stroke="#000" stroke-miterlimit="10" stroke-width=".3973641" d="m34.988 68.402 27.664-27.668"/><use xlink:href="#b" x="24.924" y="36.138"/><use xlink:href="#c" x="30.015" y="36.138"/><use xlink:href="#d" x="33.967" y="36.138"/><use xlink:href="#e" x="37.203" y="36.138"/><use xlink:href="#e" x="39.141" y="36.138"/><use xlink:href="#d" x="41.051" y="36.138"/><use xlink:href="#f" x="44.287" y="36.138"/><use xlink:href="#g" x="48.371" y="36.138"/><use xlink:href="#h" x="51.462" y="36.138"/><use xlink:href="#i" x="55.226" y="36.138"/><use xlink:href="#j" x="59.06" y="36.138"/><use xlink:href="#d" x="60.97" y="36.138"/><use xlink:href="#k" x="64.206" y="36.138"/><use xlink:href="#d" x="66.797" y="36.138"/><use xlink:href="#k" x="70.033" y="36.138"/><path fill="none" stroke="#000" stroke-miterlimit="10" stroke-width=".7937323000000001" d="M99.383 40.734h27.668v27.668H99.383Zm0 0"/><path d="M95.184 54.57v1.977l4.199-1.977-4.2-1.976Zm0 0"/><path fill="none" stroke="#000" stroke-miterlimit="10" stroke-width=".3973641" d="m99.383 68.402 27.668-27.668"/><use xlink:href="#l" x="92.546" y="78.997"/><use xlink:href="#m" x="97.061" y="78.997"/><use xlink:href="#f" x="100.304" y="78.997"/><use xlink:href="#m" x="104.388" y="78.997"/><use xlink:href="#e" x="107.631" y="78.997"/><use xlink:href="#g" x="109.548" y="78.997"/><use xlink:href="#h" x="112.639" y="78.997"/><use xlink:href="#i" x="116.403" y="78.997"/><use xlink:href="#j" x="120.237" y="78.997"/><use xlink:href="#d" x="122.147" y="78.997"/><use xlink:href="#k" x="125.383" y="78.997"/><use xlink:href="#d" x="127.967" y="78.997"/><use xlink:href="#k" x="131.203" y="78.997"/><path fill="none" stroke="#000" stroke-miterlimit="10" stroke-width=".7937323000000001" d="M163.781 40.734h27.668v27.668h-27.668Zm0 0"/><path fill="none" stroke="#000" stroke-miterlimit="10" stroke-width=".3973641" d="m163.781 68.402 27.668-27.668"/><use xlink:href="#n" x="166.132" y="36.138"/><use xlink:href="#m" x="172.251" y="36.138"/><use xlink:href="#o" x="175.494" y="36.138"/><use xlink:href="#o" x="179.335" y="36.138"/><use xlink:href="#d" x="183.176" y="36.138"/><use xlink:href="#k" x="186.412" y="36.138"/><g clip-path="url(#p)"><path fill="none" stroke="#000" stroke-miterlimit="10" stroke-width=".3973641" d="M193.715 46.52h16.098V30.422h8.05m0 0h8.051"/></g><path d="M221.715 30.422v1.973l4.2-1.973-4.2-1.977Zm0 0"/><g clip-path="url(#q)"><path fill="none" stroke="#000" stroke-miterlimit="10" stroke-width=".3973641" d="M193.715 62.617h16.098V78.72h8.05m0 0h8.051"/></g><path d="M221.715 78.719v1.976l4.2-1.976-4.2-1.977Zm0 0"/><use xlink:href="#r" x="39.037" y="47.913"/><use xlink:href="#s" x="41.513" y="47.913"/><use xlink:href="#r" x="43.99" y="47.913"/><use xlink:href="#s" x="46.466" y="47.913"/><use xlink:href="#t" x="49.191" y="65.126"/><use xlink:href="#u" x="53.649" y="65.126"/><use xlink:href="#t" x="103.928" y="49.027"/><use xlink:href="#u" x="108.386" y="49.027"/><use xlink:href="#r" x="111.854" y="64.011"/><use xlink:href="#s" x="114.33" y="64.011"/><use xlink:href="#v" x="116.807" y="64.011"/><use xlink:href="#r" x="119.283" y="64.011"/><use xlink:href="#s" x="121.76" y="64.011"/><path fill="none" stroke="#000" stroke-miterlimit="10" stroke-width=".7937323000000001" d="M184.055 54.57v12.88M177.613 61.008h12.88"/><path stroke="#000" stroke-miterlimit="10" stroke-width=".3973641" d="M181.828 57.79a.991.991 0 1 0-1.987-.002.991.991 0 0 0 1.987.001ZM188.266 57.79a.994.994 0 0 0-.993-.993.994.994 0 0 0-.992.992c0 .547.446.992.992.992a.994.994 0 0 0 .993-.992ZM181.828 64.227a.991.991 0 1 0-1.984 0c0 .55.441.992.992.992a.99.99 0 0 0 .992-.992ZM188.266 64.227a.994.994 0 0 0-.993-.993.991.991 0 1 0 .992.992Zm0 0"/><use xlink:href="#t" x="168.325" y="49.027"/><use xlink:href="#u" x="172.783" y="49.027"/><g clip-path="url(#w)"><path fill="none" stroke="#7F7F7F" stroke-dasharray="2.976575797 2.976575797" stroke-miterlimit="10" stroke-width=".7937323000000001" d="M8.57 94.816V14.32h193.196v80.496Zm0 0"/></g><g fill="#7F7F7F"><use xlink:href="#x" x="66.912" y="9.459"/><use xlink:href="#y" x="71.689" y="9.459"/><use xlink:href="#z" x="76.824" y="9.459"/><use xlink:href="#A" x="82.949" y="9.459"/></g><g fill="#7F7F7F"><use xlink:href="#B" x="90.415" y="9.459"/><use xlink:href="#C" x="95.254" y="9.459"/><use xlink:href="#D" x="100.184" y="9.459"/><use xlink:href="#E" x="104.345" y="9.459"/></g><g fill="#7F7F7F"><use xlink:href="#F" x="109.72" y="9.459"/><use xlink:href="#B" x="114.212" y="9.459"/><use xlink:href="#G" x="119.052" y="9.459"/><use xlink:href="#H" x="122.016" y="9.459"/><use xlink:href="#I" x="125.052" y="9.459"/></g><g fill="#7F7F7F"><use xlink:href="#J" x="131.759" y="9.459"/><use xlink:href="#E" x="135.929" y="9.459"/></g><use xlink:href="#D" x="139.259" y="9.459" fill="#7F7F7F"/></svg>