<svg xmlns="http://www.w3.org/2000/svg" xmlns:xlink="http://www.w3.org/1999/xlink" width="226.814" height="83.134"><defs><path id="d" d="M3.11-1.078v-3.39c0-.579.078-.907.406-.907h.187c.672 0 1.094.234 1.235.906.109 0 .234 0 .312-.047-.062-.406-.11-.859-.125-1.25 0-.015-.016-.03-.016-.03-.312.03-1.296.077-2 .077h-.75c-.687 0-1.734-.047-2.078-.078a.034.034 0 0 0-.031.031c-.031.391-.125.86-.219 1.282a.9.9 0 0 0 .297.046C.5-5.14.922-5.374 1.5-5.374h.438c.328 0 .421.328.421.875v3.422c0 .734-.156.781-.875.797-.046.062-.046.25 0 .297.438 0 .891-.016 1.25-.016.344 0 .782.016 1.235.016.047-.047.047-.235 0-.297-.719-.016-.86-.063-.86-.797m0 0"/><path id="e" d="M.547-4.156c0 .187.156.343.344.343.156 0 .422-.156.422-.343 0-.078-.016-.125-.032-.188-.015-.062-.078-.14-.078-.218 0-.22.234-.547.875-.547.328 0 .781.234.781 1.078 0 .562-.203 1.031-.734 1.562l-.656.656c-.86.876-1 1.313-1 1.829 0 0 .453-.016.734-.016H2.75c.281 0 .688.016.688.016.124-.47.203-1.141.218-1.407-.047-.03-.172-.062-.25-.03-.156.624-.312.843-.625.843H1.203c0-.422.61-1.031.656-1.078l.891-.86c.5-.484.89-.875.89-1.546 0-.954-.78-1.344-1.5-1.344-.984 0-1.593.718-1.593 1.25m0 0"/><path id="f" d="M1.906-5.11c.39 0 .735.235.735.813 0 .438-.516 1.125-1.391 1.25l.047.281c.156-.015.312-.015.422-.015.515 0 1.172.14 1.172 1.14 0 1.172-.797 1.422-1.11 1.422-.453 0-.531-.203-.64-.36C1.062-.702.938-.812.766-.812.578-.812.39-.64.39-.5c0 .344.75.594 1.28.594 1.048 0 2-.688 2-1.86 0-.968-.733-1.312-1.265-1.406v-.015c.735-.344.938-.704.938-1.172 0-.266-.063-.485-.281-.703-.204-.204-.5-.344-.97-.344-1.296 0-1.671.843-1.671 1.14 0 .125.078.297.297.297.312 0 .344-.297.344-.453 0-.578.609-.687.843-.687m0 0"/><path id="h" d="m.938-3.812-.47.03c-.171.016-.234.079-.25.157a.5.5 0 0 0-.046.14c0 .016.031.016.062.016H.86L.313-1.047C.25-.766.188-.484.188-.313c0 .313.156.407.437.407.39 0 .984-.375 1.281-.922C1.875-.938 1.813-1 1.72-1c-.422.469-.578.563-.719.563a.12.12 0 0 1-.11-.125q0-.118.094-.563l.532-2.344h.859c.11-.031.188-.265.094-.344h-.875l.078-.39c.047-.172.125-.422.125-.531 0-.157-.078-.25-.36-.25-.312 0-.296.406-.39.734Zm0 0"/><path id="i" d="M1.813.094c1.75 0 2.359-1.125 2.656-2.719l.484-2.437c.047-.25.188-.375.547-.407l.219-.015c.047 0 .078-.032.078-.079l.047-.156-.016-.015c-.406 0-.75.015-.953.015-.187 0-.531-.015-.922-.015l-.015.015-.047.157c0 .046.03.078.062.078l.235.015c.28.016.39.094.39.282 0 .046 0 .078-.016.125l-.5 2.609c-.203.984-.562 2.172-2 2.172-.406 0-.718-.188-.921-.438-.188-.234-.25-.515-.25-.797 0-.28.062-.593.109-.875l.531-2.687c.047-.25.188-.36.547-.39l.219-.016c.047 0 .078-.032.078-.079l.031-.156-.015-.015c-.391 0-.75.015-1.094.015-.328 0-.672-.015-1.063-.015l-.03.015-.032.157c0 .046.016.078.062.078l.22.015c.28.016.405.094.405.282 0 .03 0 .062-.015.109L.25-2.094c-.031.235-.062.438-.062.625C.188-.187 1.14.094 1.813.094m0 0"/><clipPath id="a"><path d="M1.078 50H223v1H1.078Zm0 0"/></clipPath><clipPath id="b"><path d="M216 43h9.555v15H216Zm0 0"/></clipPath><clipPath id="c"><path d="M27 15h2v67.277h-2Zm0 0"/></clipPath><clipPath id="g"><path d="M1.273 13H34v41H1.273Zm0 0"/></clipPath></defs><path fill="none" stroke="#7F7F7F" stroke-miterlimit="10" stroke-width=".19694831000000002" d="M81.305 52.508V48.3m53.351 4.207V48.3m53.356 4.207V48.3"/><g clip-path="url(#a)"><path fill="none" stroke="#000" stroke-miterlimit="10" stroke-width=".39488631" d="M1.273 50.406h220.649"/></g><path d="m224.965 50.406-2.945-1.746v3.488Zm0 0"/><g clip-path="url(#b)"><path fill="none" stroke="#000" stroke-miterlimit="10" stroke-width=".39488631" d="m224.965 50.406-2.945-1.746v3.488Zm0 0"/></g><g clip-path="url(#c)"><path fill="none" stroke="#000" stroke-miterlimit="10" stroke-width=".39488631" d="M27.95 82.078v-66.7"/></g><path stroke="#000" stroke-miterlimit="10" stroke-width=".39488631" d="m27.95 12.336-1.743 2.945h3.488Zm0 0"/><use xlink:href="#d" x="78.655" y="61.459"/><use xlink:href="#e" x="129.945" y="61.459"/><use xlink:href="#d" x="134.071" y="61.459"/><use xlink:href="#f" x="183.297" y="61.459"/><use xlink:href="#d" x="187.423" y="61.459"/><g clip-path="url(#g)"><path fill="none" stroke="#000" stroke-dasharray="2.9580151626999998 2.9580151626999998" stroke-miterlimit="10" stroke-width=".39488631" d="m-25.402 33.438.535-.926c.144-.254.383-.664.531-.918l.535-.914c.149-.25.383-.653.531-.903l.536-.886a169 169 0 0 1 1.066-1.715c.148-.235.387-.598.535-.824.149-.223.383-.579.531-.797.149-.215.387-.555.536-.762.148-.207.386-.531.53-.73a32.272 32.272 0 0 1 1.07-1.348 21 21 0 0 1 1.068-1.176c.148-.152.382-.383.53-.52a14 14 0 0 1 1.071-.89c.145-.11.383-.274.531-.367.149-.094.387-.235.536-.313.148-.078.382-.191.53-.258.15-.062.388-.152.536-.199a5.7 5.7 0 0 1 1.066-.234c.149-.016.387-.028.536-.028.144 0 .382.012.53.028a5.364 5.364 0 0 1 1.066.234c.15.047.388.137.536.2.149.066.387.18.535.257.145.078.383.219.532.313.148.093.386.258.535.367a14.354 14.354 0 0 1 1.066.89c.149.137.387.368.532.52.148.152.386.402.535.566.148.165.386.434.535.61.144.176.383.469.531.656.149.184.387.492.535.692a59 59 0 0 1 1.067 1.492c.148.218.386.574.535.797.144.226.383.59.531.824.149.23.387.61.535.847.149.239.383.625.531.868l.536.886c.148.25.386.653.53.903l.536.914.535.918c.145.258.383.668.531.926.149.253.387.667.536.921.148.258.382.668.53.922l.536.91c.148.254.387.653.531.903.149.25.387.644.535.886A160.804 160.804 0 0 0 5.007 39.7c.15.23.388.598.536.82.148.227.387.583.531.797.149.215.387.559.535.766s.387.531.536.727a25 25 0 0 0 1.066 1.347c.148.176.383.45.531.614.149.16.387.414.535.566.149.148.387.379.532.516.148.14.386.347.535.472a10.816 10.816 0 0 0 1.066.785c.149.094.387.235.535.313.149.082.387.195.532.258.148.066.386.156.535.203.148.047.386.113.535.144.144.032.383.07.531.086s.387.032.535.032.383-.016.532-.032a6 6 0 0 0 .535-.086 5.984 5.984 0 0 0 1.066-.348c.149-.062.387-.175.535-.257a9.4 9.4 0 0 0 1.598-1.098c.148-.125.387-.332.535-.472.148-.137.387-.368.535-.516.145-.152.383-.406.531-.566.149-.165.387-.438.536-.614a32 32 0 0 0 1.597-2.074 47.012 47.012 0 0 0 1.07-1.562c.149-.223.383-.59.532-.82.148-.235.387-.61.535-.848.148-.239.387-.625.531-.872.149-.242.387-.636.535-.886s.387-.649.536-.903c.144-.25.382-.656.53-.91.15-.254.388-.664.536-.922.148-.254.531-.921.531-.921"/></g><path fill="none" stroke="#000" stroke-miterlimit="10" stroke-width=".39488631" d="m27.95 33.438.534-.926c.149-.254.387-.664.532-.918l.535-.914.535-.903.531-.886c.149-.243.387-.63.535-.868l.532-.847c.148-.235.386-.598.535-.824.148-.223.386-.579.535-.797a38 38 0 0 1 1.066-1.492 32.272 32.272 0 0 1 1.066-1.348c.15-.176.387-.445.532-.61a16.541 16.541 0 0 1 1.07-1.086 12.616 12.616 0 0 1 1.066-.89c.15-.11.383-.274.532-.367.148-.094.387-.235.535-.313s.387-.191.535-.258c.145-.062.383-.152.531-.199a5.4 5.4 0 0 1 1.067-.234c.148-.016.387-.028.535-.028s.387.012.531.028a5.435 5.435 0 0 1 1.07.234c.149.047.383.137.532.2.148.066.387.18.535.257a9.4 9.4 0 0 1 1.602 1.102 16.54 16.54 0 0 1 1.598 1.555c.148.164.386.433.534.609s.387.469.532.656c.148.184.386.492.535.692.148.199.387.523.535.73s.383.547.531.762c.149.218.387.574.535.797a80.324 80.324 0 0 1 1.602 2.54c.144.245.383.64.531.885l.535.903c.149.254.383.66.532.914l.535.918c.148.258.386.668.531.926l.535.921.535.922c.149.254.383.66.532.91.148.254.386.653.535.903a89 89 0 0 0 1.066 1.758c.149.238.387.613.535.847.145.23.383.598.532.82.148.227.386.583.535.797.148.215.382.559.53.766.15.207.388.531.536.727.149.199.387.507.531.695a28.663 28.663 0 0 0 1.07 1.266c.15.16.383.414.532.566.148.148.387.379.535.516.148.14.383.347.531.472a10.899 10.899 0 0 0 1.07.785 8 8 0 0 0 .532.313 6.7 6.7 0 0 0 1.066.46c.149.048.387.114.535.145.149.032.387.07.532.086.148.016.386.032.535.032.148 0 .387-.016.535-.032.148-.015.383-.054.531-.086.149-.03.387-.097.535-.144s.383-.137.532-.203c.148-.063.386-.176.535-.258a10 10 0 0 0 .535-.313c.144-.093.383-.257.531-.367s.387-.297.535-.418c.149-.125.383-.332.532-.472.148-.137.386-.368.535-.516.148-.152.386-.406.531-.566a29 29 0 0 0 1.07-1.266c.149-.188.383-.496.532-.695.148-.196.386-.52.535-.727.148-.207.383-.55.531-.766a74.908 74.908 0 0 0 1.07-1.617c.145-.234.383-.61.532-.847a85 85 0 0 0 1.066-1.758c.148-.25.387-.649.535-.903.149-.25.387-.656.531-.91.149-.254.387-.664.535-.922.149-.254.387-.668.536-.921l.53-.926c.15-.254.388-.664.536-.918l.531-.914.535-.903.536-.886a64 64 0 0 1 1.066-1.715c.148-.235.383-.598.531-.824.149-.223.387-.579.535-.797l.532-.762c.148-.207.386-.531.535-.73.148-.2.387-.508.535-.692.148-.187.383-.48.531-.656s.387-.445.535-.61.383-.414.532-.566a14.353 14.353 0 0 1 1.602-1.41 9.404 9.404 0 0 1 1.066-.68c.148-.078.386-.191.535-.258.148-.062.386-.152.531-.199a5.4 5.4 0 0 1 1.07-.234c.149-.016.383-.028.532-.028.148 0 .386.012.535.028.148.02.383.055.531.09.148.03.387.093.535.144.149.047.387.137.535.2.145.066.383.18.532.257.148.078.386.219.535.313a11 11 0 0 1 1.066.789 16.54 16.54 0 0 1 1.602 1.555c.148.164.382.433.53.609a32 32 0 0 1 1.067 1.348c.149.199.387.523.535.73s.387.547.536.762l.53.797c.15.226.388.59.536.824.148.23.383.61.531.847.149.239.387.625.535.868.149.246.387.64.532.886l.535.903.535.914.531.918.535.926c.149.253.383.667.532.921a193 193 0 0 0 1.07 1.832c.145.254.383.653.531.903s.387.644.535.886c.149.247.383.633.532.872.148.238.386.613.535.847l.531.82a47 47 0 0 0 1.602 2.29 31.884 31.884 0 0 0 1.066 1.348c.148.175.387.448.535.613a16.418 16.418 0 0 0 1.602 1.555c.148.12.383.308.531.417.148.11.387.274.535.367.149.094.387.235.531.313a6.7 6.7 0 0 0 1.07.46c.15.048.384.114.532.145.148.032.387.07.535.086s.383.032.531.032.387-.016.536-.032a6 6 0 0 0 .535-.086 5.984 5.984 0 0 0 1.066-.348c.149-.062.383-.175.531-.257a10 10 0 0 0 .535-.313c.149-.093.387-.257.532-.367.148-.11.386-.297.535-.418a15 15 0 0 0 1.066-.988c.149-.152.387-.406.535-.566a29 29 0 0 0 1.067-1.266 36 36 0 0 0 1.066-1.422 47.037 47.037 0 0 0 1.066-1.562c.15-.223.387-.59.536-.82.148-.235.387-.61.531-.848.148-.239.387-.625.535-.872a89 89 0 0 0 1.067-1.789l.535-.91c.148-.254.383-.664.531-.922l.535-.921.535-.926c.145-.254.383-.664.532-.918l.535-.914.531-.903.535-.886c.149-.243.387-.63.531-.868.149-.238.387-.617.536-.847.148-.235.386-.598.535-.824.148-.223.383-.579.531-.797a64 64 0 0 1 1.066-1.492 32.272 32.272 0 0 1 1.07-1.348 21 21 0 0 1 1.067-1.176c.149-.152.383-.383.531-.52a14 14 0 0 1 1.067-.89 11 11 0 0 1 .535-.367c.148-.094.387-.235.535-.313.145-.078.383-.191.531-.258.149-.062.387-.152.535-.199a5.4 5.4 0 0 1 1.067-.234c.148-.016.387-.028.535-.028.145 0 .383.012.531.028a5.364 5.364 0 0 1 1.066.234c.15.047.387.137.536.2.148.066.387.18.531.257.149.078.387.219.535.313.149.093.387.258.535.367a14.354 14.354 0 0 1 1.066.89c.15.137.384.368.532.52s.387.402.535.566c.149.165.387.434.535.61.145.176.383.469.532.656.148.184.386.492.535.692a59 59 0 0 1 1.066 1.492c.149.218.387.574.531.797a80.34 80.34 0 0 1 1.07 1.672l.532.867.535.886c.149.25.383.653.531.903l.536.914.535.918c.144.258.383.668.531.926l.535.921c.149.258.383.668.531.922s.387.66.536.91c.148.254.386.653.53.903.15.25.387.644.536.886.148.247.387.633.535.872.145.238.383.613.531.847.149.23.387.598.535.82a47 47 0 0 0 1.067 1.563c.148.207.387.531.535.727a25 25 0 0 0 1.066 1.347c.149.176.383.45.532.614.148.16.386.414.535.566a14.51 14.51 0 0 0 1.066.988c.149.121.387.309.535.418.145.11.383.274.532.367.148.094.386.235.535.313a6.6 6.6 0 0 0 1.066.46c.149.048.387.114.531.145.149.032.387.07.536.086.148.016.386.032.535.032.148 0 .383-.016.531-.032a6 6 0 0 0 .535-.086 5.984 5.984 0 0 0 1.066-.348c.149-.062.387-.175.536-.257.144-.078.383-.219.531-.313.148-.093.387-.257.535-.367s.383-.297.531-.418a15 15 0 0 0 1.067-.988c.148-.152.387-.406.535-.566.148-.165.387-.438.535-.614a32 32 0 0 0 1.598-2.074 47.006 47.006 0 0 0 1.07-1.562l.531-.82c.149-.235.387-.61.536-.848.148-.239.382-.625.53-.872.15-.242.387-.636.536-.886.148-.25.387-.649.531-.903a188 188 0 0 0 1.07-1.832c.149-.254.532-.921.532-.921"/><path fill="none" stroke="#000" stroke-dasharray="2.9580151626999998 2.9580151626999998" stroke-miterlimit="10" stroke-width=".39488631" d="m188.008 33.438.535-.926c.148-.254.387-.664.531-.918l.535-.914.535-.903c.145-.246.383-.64.532-.886.148-.243.386-.63.535-.868.148-.238.383-.617.531-.847.149-.235.387-.598.535-.824l.532-.797c.148-.215.386-.555.535-.762.148-.207.386-.531.535-.73.148-.2.383-.508.531-.692.149-.187.387-.48.535-.656s.387-.445.531-.61c.149-.164.387-.414.536-.566.148-.152.386-.383.535-.52a12.616 12.616 0 0 1 1.066-.89c.149-.11.383-.274.531-.367.149-.094.387-.235.536-.313.148-.078.386-.191.53-.258.15-.062.388-.152.536-.199a5.4 5.4 0 0 1 1.066-.234c.149-.016.387-.028.536-.028.148 0 .386.012.53.028a5.435 5.435 0 0 1 1.07.234c.146.047.384.137.532.2.149.066.387.18.536.257a9 9 0 0 1 1.066.68 14.353 14.353 0 0 1 1.602 1.41 25 25 0 0 1 1.066 1.176c.148.176.383.469.531.656.149.184.387.492.535.692s.387.523.535.73l.532.762c.148.218.386.574.535.797.148.226.383.59.531.824a80 80 0 0 1 1.067 1.715l.535.886.535.903.531.914.535.918.531.926"/><use xlink:href="#h" x="220.187" y="58.538"/><use xlink:href="#i" x="20.075" y="8.699"/></svg>