<svg xmlns="http://www.w3.org/2000/svg" xmlns:xlink="http://www.w3.org/1999/xlink" width="226.905" height="119.778"><defs><path id="c" d="M2.031-.578v-4.438L.687-4.75a1 1 0 0 1-.015-.187c0-.133.07-.235.219-.297l1.468-.578h.454v5.234l1.093.172q.124.016.125.11 0 .08-.093.296H.874a.16.16 0 0 1-.016-.078q0-.311.282-.36Zm0 0"/><path id="d" d="M.547-.375q0-.218.14-.36a.47.47 0 0 1 .344-.14q.201 0 .344.14a.47.47 0 0 1 .156.36.47.47 0 0 1-.156.36.5.5 0 0 1-.344.124.5.5 0 0 1-.343-.125.48.48 0 0 1-.141-.359m0-3.531q0-.218.14-.36a.47.47 0 0 1 .344-.14q.201 0 .344.14a.47.47 0 0 1 .156.36.47.47 0 0 1-.156.36.5.5 0 0 1-.344.124.49.49 0 0 1-.343-.125.48.48 0 0 1-.141-.36m0 0"/><path id="e" d="M3.703-4.781a1.1 1.1 0 0 0-.328-.407 1.2 1.2 0 0 0-.734-.25c-.918 0-1.414.79-1.485 2.36a1.95 1.95 0 0 1 1.219-.406q.78 0 1.219.375.515.421.515 1.265-.001.798-.5 1.344-.532.61-1.359.61C1.625.11 1.148-.157.828-.688Q.36-1.42.36-2.72.357-3.966.953-4.875c.445-.695 1.063-1.047 1.844-1.047q.621.002.984.203.312.205.313.469c0 .25-.133.406-.39.469M1.156-2.625q.029 1.127.344 1.703.31.533.813.531.451.001.734-.343c.195-.239.297-.582.297-1.032q-.001-1.202-1.016-1.203-.75.002-1.172.344m0 0"/><path id="g" d="M2.578-1.094v-3.11c0-.53.016-1.077.031-1.202 0-.032-.015-.032-.062-.032-.485.297-.969.516-1.75.891.015.094.047.188.14.234.407-.156.61-.218.766-.218s.188.218.188.515v2.922c0 .75-.25.797-.875.813-.047.062-.047.25 0 .297C1.453.016 1.78 0 2.266 0c.422 0 .64.016 1.093.016.047-.047.047-.235 0-.297-.625-.016-.78-.063-.78-.813m0 0"/><path id="h" d="M1.922-5.14c.39 0 .75.218.75.796 0 .453-.516 1.14-1.406 1.266l.046.281c.141-.015.313-.015.422-.015.516 0 1.172.14 1.172 1.156C2.906-.47 2.11-.22 1.796-.22c-.452 0-.53-.218-.64-.375-.093-.125-.203-.234-.39-.234-.188 0-.375.172-.375.312 0 .36.75.61 1.297.61 1.062 0 2.015-.688 2.015-1.875 0-.969-.734-1.328-1.265-1.422l-.016-.016c.734-.344.937-.719.937-1.187a.95.95 0 0 0-.265-.703c-.203-.203-.516-.36-.985-.36-1.312 0-1.687.86-1.687 1.157 0 .125.094.312.297.312.312 0 .36-.297.36-.469 0-.578.609-.672.843-.672m0 0"/><path id="i" d="M.938-.844c-.282 0-.485.188-.485.438 0 .265.235.36.39.39.173.016.329.063.329.282 0 .187-.328.593-.781.703 0 .094.015.156.078.219C1 1.094 1.516.656 1.516.03c0-.531-.22-.875-.578-.875m0 0"/><path id="j" d="M3.516-4.344c0-.64-.5-1.125-1.375-1.125-.907 0-1.5.547-1.5 1.25 0 .5.234.86.78 1.203l.235.141c-.265.14-.5.297-.718.5-.375.313-.532.719-.532 1.063C.406-.391 1.063.093 2 .093c1.172 0 1.75-.86 1.75-1.547 0-.516-.219-.969-.703-1.266l-.625-.375c.422-.203 1.094-.672 1.094-1.25m-1.5 4.125c-.391 0-1-.281-1-1.093 0-.266.109-.891.875-1.407l.422.25c.562.344.78.766.78 1.203 0 .891-.671 1.047-1.077 1.047m.078-4.922c.578 0 .797.375.797.797 0 .469-.47.875-.72 1.063l-.28-.172c-.563-.375-.625-.672-.625-.938 0-.421.297-.75.828-.75m0 0"/><path id="k" d="M1.516-3.203c0-.266-.016-.594-.063-.688-.016-.046-.031-.062-.11-.062-.25.094-.484.172-1.109.25a.45.45 0 0 0 .032.25c.484.047.578.094.578.61v1.75c0 .734-.125.78-.61.812-.062.062-.062.25 0 .297C.5.016.844 0 1.204 0c.359 0 .624.016.905.016.047-.047.047-.235 0-.297-.468-.047-.562-.078-.562-.813v-1.468c0-.188.078-.297.156-.376.36-.343.688-.53.969-.53.344 0 .594.218.594.812v1.562c0 .735-.079.782-.563.813-.047.062-.047.25 0 .297.219 0 .563-.016.906-.016.36 0 .657.016.891.016.047-.047.047-.235 0-.297-.453-.031-.531-.078-.531-.813v-1.422c0-.125 0-.25-.016-.359.438-.469.844-.594 1.188-.594s.53.203.53.797v1.578c0 .735-.077.782-.546.813-.047.062-.047.25 0 .297.219 0 .547-.016.906-.016.36 0 .672.016.922.016C7-.031 7-.22 6.953-.281c-.484-.031-.562-.078-.562-.813V-2.5c0-.797-.141-1.437-.922-1.437-.469 0-1.016.171-1.485.671-.03.032-.078.063-.093-.015-.079-.36-.438-.656-.907-.656-.515 0-.984.312-1.359.734-.047.047-.094.11-.11 0m0 0"/><path id="l" d="M3.844-1.953h-.735v-2.625c0-.438 0-.797.016-.86l-.016-.03h-.296c-.063 0-.094.062-.141.109-.563.687-1.594 2.156-2.422 3.437.031.14.078.375.344.375h1.828v.828c0 .422-.328.422-.719.438-.062.062-.062.25 0 .297C1.984.016 2.343 0 2.75 0c.36 0 .703.016.984.016.047-.047.047-.235 0-.297-.437-.031-.625-.016-.625-.438v-.828h.61c.125 0 .265-.156.265-.266 0-.093-.03-.14-.14-.14M2.422-4.547v2.594H.719c.453-.734 1.094-1.75 1.703-2.594m0 0"/><path id="m" d="M2.86-1.687c0 .843-.454 1.468-.985 1.468-.344 0-.453-.218-.594-.406-.125-.14-.265-.281-.453-.281-.172 0-.344.156-.344.328 0 .375.766.672 1.266.672 1.11 0 1.906-.813 1.906-1.953 0-.86-.61-1.641-1.61-1.641-.374 0-.718.078-.874.14l.187-1.5c.329.048.61.094 1.047.094.266 0 .563-.03.938-.062l.14-.61-.062-.03c-.516.046-1 .093-1.469.093-.328 0-.656-.016-.969-.047L.688-2.844a3.1 3.1 0 0 1 1.125-.203c.593 0 1.046.375 1.046 1.36m0 0"/><clipPath id="a"><path d="M216 24h10.648v2H216Zm0 0"/></clipPath><clipPath id="b"><path d="M.164 24H10v2H.164Zm0 0"/></clipPath><clipPath id="f"><path d="M81 100h2v19.555h-2Zm0 0"/></clipPath></defs><g clip-path="url(#a)"><path fill="none" stroke="#000" stroke-dasharray="2.9833006645 2.9833006645" stroke-miterlimit="10" stroke-width=".39826185000000003" d="M217.031 25.152h9.422"/></g><path fill="none" stroke="#000" stroke-miterlimit="10" stroke-width=".39826185000000003" d="M82.004 25.152v4.711m0 65.942v4.71"/><path fill="none" stroke="#000" stroke-miterlimit="10" stroke-width=".79552555" d="M85.96 94.223V31.445c0-.875-1.769-1.582-3.956-1.582-2.184 0-3.957.707-3.957 1.582v62.778c0 .875 1.773 1.582 3.957 1.582 2.187 0 3.957-.707 3.957-1.582"/><path fill="none" stroke="#000" stroke-miterlimit="10" stroke-width=".79552555" d="M85.96 94.223c0-.871-1.769-1.582-3.956-1.582-2.184 0-3.957.71-3.957 1.582"/><path fill="none" stroke="#000" stroke-miterlimit="10" stroke-width=".39826185000000003" d="M82.004 94.223v1.582"/><path fill="none" stroke="#000" stroke-miterlimit="10" stroke-width="1.1937874" d="M19.203 25.152H207.61"/><g clip-path="url(#b)"><path fill="none" stroke="#000" stroke-dasharray="2.9833006645 2.9833006645" stroke-miterlimit="10" stroke-width=".39826185000000003" d="M.36 25.152H9.78"/></g><path fill="none" stroke="#000" stroke-miterlimit="10" stroke-width=".39826185000000003" d="M9.781 25.152h4.711m0 0h58.281m18.465 0h84.973m0 0h36.11m0 0h4.71"/><path fill="#FFF" stroke="#000" stroke-miterlimit="10" stroke-width=".39826185000000003" d="M11.367 25.152a1.584 1.584 0 1 0-3.167.004 1.584 1.584 0 0 0 3.167-.004ZM20.785 25.152a1.584 1.584 0 1 0-3.168.003 1.584 1.584 0 0 0 3.168-.003Zm0 0"/><path fill="#FFF" stroke="#000" stroke-miterlimit="10" stroke-width=".79552555" d="M72.773 15.922h18.465v18.46H72.773Zm0 0"/><use xlink:href="#c" x="76.491" y="28.062"/><use xlink:href="#d" x="80.966" y="28.062"/><use xlink:href="#e" x="83.042" y="28.062"/><path fill="#FFF" stroke="#000" stroke-miterlimit="10" stroke-width=".39826185000000003" d="M209.195 25.152a1.584 1.584 0 1 0-3.167.004 1.584 1.584 0 0 0 3.167-.004ZM218.617 25.152c0-.875-.71-1.582-1.586-1.582a1.584 1.584 0 1 0 0 3.168c.875 0 1.586-.71 1.586-1.586Zm0 0"/><g clip-path="url(#f)"><path fill="none" stroke="#000" stroke-dasharray="2.9833006645 2.9833006645" stroke-miterlimit="10" stroke-width=".39826185000000003" d="M82.004 100.516v18.843"/></g><path fill="none" stroke="#999" stroke-miterlimit="10" stroke-width=".0099815" d="M72.773 43.992"/><path fill="none" stroke="#000" stroke-miterlimit="10" stroke-width=".39826185000000003" d="M19.5 43.992h52.973"/><path stroke="#000" stroke-miterlimit="10" stroke-width=".39826185000000003" d="m19.996 43.992 2.969 1.762v-3.52Zm0 0"/><path fill="none" stroke="#000" stroke-miterlimit="10" stroke-width=".39826185000000003" d="M19.402 46.281v-4.574"/><path stroke="#000" stroke-miterlimit="10" stroke-width=".39826185000000003" d="m71.977 43.992-2.97-1.758v3.52Zm0 0"/><path fill="none" stroke="#000" stroke-miterlimit="10" stroke-width=".39826185000000003" d="M72.574 41.707v4.574"/><path fill="#FFF" d="M31.496 50.3H60.48V37.689H31.496Zm0 0"/><use xlink:href="#g" x="34.479" y="46.129"/><use xlink:href="#h" x="38.641" y="46.129"/><use xlink:href="#i" x="42.802" y="46.129"/><use xlink:href="#j" x="44.771" y="46.129"/><use xlink:href="#k" x="50.418" y="46.129"/><path fill="none" stroke="#999" stroke-miterlimit="10" stroke-width=".0099815" d="M207.61 6.313"/><path fill="none" stroke="#000" stroke-miterlimit="10" stroke-width=".39826185000000003" d="M19.5 6.313h187.813"/><path stroke="#000" stroke-miterlimit="10" stroke-width=".39826185000000003" d="m19.996 6.312 2.969 1.758V4.55Zm0 0"/><path fill="none" stroke="#000" stroke-miterlimit="10" stroke-width=".39826185000000003" d="M19.402 8.598V4.023"/><path stroke="#000" stroke-miterlimit="10" stroke-width=".39826185000000003" d="m206.816 6.312-2.968-1.761v3.52Zm0 0"/><path fill="none" stroke="#000" stroke-miterlimit="10" stroke-width=".39826185000000003" d="M207.41 4.023v4.575"/><path fill="#FFF" d="M98.914 12.625h28.984V0H98.914Zm0 0"/><use xlink:href="#l" x="101.897" y="8.451"/><use xlink:href="#g" x="106.059" y="8.451"/><use xlink:href="#i" x="110.22" y="8.451"/><use xlink:href="#m" x="112.189" y="8.451"/><use xlink:href="#k" x="117.836" y="8.451"/></svg>