<svg xmlns="http://www.w3.org/2000/svg" width="113.388" height="85.041"><defs><clipPath id="a"><path d="M.328 5h112.125v74H.328Zm0 0"/></clipPath><clipPath id="b"><path d="M.328 0h112.125v48H.328Zm0 0"/></clipPath><clipPath id="c"><path d="M.328 36h112.125v48.094H.328Zm0 0"/></clipPath></defs><g clip-path="url(#a)"><path fill="#7F7F7F" fill-opacity=".5" d="m.328 15.29.567-9.556H12.16l.567 19.11h11.832l.562-19.11h11.832l.563 19.11h11.832l.562-19.11h11.832l.567 19.11H74.14l.562-19.11h11.832l.563 19.11h11.27l.562-19.11h11.832l.562 19.11h1.13v34.402h-1.13l-.562 19.113H98.93l-.563-19.113h-11.27l-.562 19.113H74.703l-.562-19.113H62.309l-.567 19.113H49.91l-.562-19.113H37.516l-.563 19.113H25.121l-.562-19.113H12.727L12.16 78.36H.895l-.567-9.554Zm0 0"/></g><g clip-path="url(#b)"><path fill="none" stroke="#000" stroke-miterlimit="10" stroke-width="1.5762269" d="m.328 15.29.567-9.556H12.16l.567 19.11h11.832l.562-19.11h11.832l.563 19.11h11.832l.562-19.11h11.832l.567 19.11H74.14l.562-19.11h11.832l.563 19.11h11.27l.562-19.11h11.832l.562 19.11h1.13"/></g><g clip-path="url(#c)"><path fill="none" stroke="#000" stroke-miterlimit="10" stroke-width="1.5762269" d="m.328 68.805.567 9.554H12.16l.567-19.113h11.832l.562 19.113h11.832l.563-19.113h11.832l.562 19.113h11.832l.567-19.113H74.14l.562 19.113h11.832l.563-19.113h11.27l.562 19.113h11.832l.562-19.113h1.13"/></g></svg>