<svg xmlns="http://www.w3.org/2000/svg" xmlns:xlink="http://www.w3.org/1999/xlink" width="228.973" height="117.485"><defs><clipPath id="a"><path d="M.484 8.355H16.29v6.325H.484Zm0 6.325h6.32v3.16H.485Zm0 3.16H16.29v6.32H.484Zm0 0"/></clipPath><clipPath id="b"><path d="M.484 3H22v27H.484Zm0 0"/></clipPath><clipPath id="f"><path d="M109 113h4v3.973h-4Zm0 0"/></clipPath><clipPath id="g"><path d="M104 108h15v8.973h-15Zm0 0"/></clipPath><clipPath id="h"><path d="M35 113h4v3.973h-4Zm0 0"/></clipPath><clipPath id="i"><path d="M29 108h16v8.973H29Zm0 0"/></clipPath><clipPath id="j"><path d="M84 113h5v3.973h-5Zm0 0"/></clipPath><clipPath id="k"><path d="M79 108h15v8.973H79Zm0 0"/></clipPath><clipPath id="l"><path d="M109 113h4v3.973h-4Zm0 0"/></clipPath><clipPath id="m"><path d="M104 108h15v8.973h-15Zm0 0"/></clipPath><clipPath id="n"><path d="M215 58h13.46v15H215Zm0 0"/></clipPath><clipPath id="p"><path d="M183 113h5v3.973h-5Zm0 0"/></clipPath><clipPath id="q"><path d="M178 108h15v8.973h-15Zm0 0"/></clipPath><clipPath id="r"><path d="M220 113h5v3.973h-5Zm0 0"/></clipPath><clipPath id="s"><path d="M215 108h13.46v8.973H215Zm0 0"/></clipPath><path id="c" d="M1.39-3.156c1.008-.114 1.516-.516 1.516-1.203Q2.905-5.421 2-5.422q-.41 0-.703.188-.112.376-.125.828a1 1 0 0 1-.203.015c-.281 0-.422-.117-.422-.359 0-.344.144-.617.437-.828q.45-.328 1.188-.328c.469 0 .836.125 1.11.375q.42.376.421 1.015 0 .628-.422 1.016-.298.284-.906.484v.032q.716.093 1.11.468c.257.243.39.547.39.922q-.001.738-.547 1.219Q2.78.11 1.891.109C1.41.11 1.05.012.813-.17Q.53-.374.53-.672q0-.406.39-.548c.102.23.204.399.298.5q.293.328.828.328c.664 0 1-.351 1-1.062 0-.738-.555-1.149-1.656-1.234Zm0 0"/><path id="d" d="M2.234-.39q1.092.001 1.094-2.516c0-1.664-.367-2.5-1.094-2.5-.73 0-1.093.836-1.093 2.5 0 1.68.363 2.515 1.093 2.515m-.046.5q-.862 0-1.36-.75Q.296-1.42.297-2.907c0-.977.187-1.735.562-2.266.352-.488.829-.734 1.422-.734q.873.001 1.36.734c.343.531.515 1.29.515 2.266q0 1.487-.562 2.265-.516.75-1.406.75m0 0"/><path id="e" d="M6.125-3.469q0 .924-.562 1.719-.488.69-1.157 1.047v.172H5.61l.125-.719a.44.44 0 0 1 .204-.047q.28.001.28.406 0 .365-.046.891H3.844v-.89C4.82-1.38 5.313-2.25 5.313-3.5q-.001-1.03-.547-1.64-.533-.61-1.375-.61-.845 0-1.391.61-.532.626-.531 1.64-.001.877.343 1.531.376.738 1.126 1.078V0H.624a10 10 0 0 1-.047-.89c0-.27.086-.407.266-.407q.107 0 .203.047l.14.719h1.188v-.156c-.43-.188-.809-.524-1.14-1.016Q.654-2.53.655-3.47q-.001-1.216.766-2 .762-.797 1.969-.797c.8 0 1.457.258 1.968.766.508.512.766 1.188.766 2.031m0 0"/><path id="o" d="M4.484-.484 3.906-2.11H1.672L1.094-.484l.672.125q.124.017.125.093 0 .066-.094.266H-.078a.2.2 0 0 1-.016-.078Q-.096-.342.22-.406l.25-.063 2.156-5.687.563-.078L5.328-.47l.406.11q.124.034.125.093-.002.048-.109.266H3.844v-.078q-.002-.246.297-.328Zm-2.64-2.11h1.89l-.921-2.61h-.016Zm0 0"/><path id="t" d="m.125-1.984 2.531-3.782.656-.062v3.64h.75l-.03.672h-.72v1.032l.626.125q.123.017.124.093 0 .048-.093.266H1.906v-.078q0-.246.297-.328l.39-.078v-1.032H.157Zm.734-.203h1.735v-2.704h-.031L.859-2.219Zm0 0"/><path id="u" d="M.89-.922q.248.002.407.203.17.204.172.578 0 .592-.375.985-.316.328-.61.328c-.093 0-.164-.078-.203-.234q.574-.3.61-.891a.5.5 0 0 1-.344-.125.47.47 0 0 1-.14-.344c0-.156.038-.273.124-.36a.48.48 0 0 1 .36-.14m0 0"/><path id="v" d="M.484-4.64c0-.376.02-.758.063-1.157h3.562a.3.3 0 0 1 .047.172q-.002.188-.11.422L1.704 0h-.656l2.406-5.047H1.078l-.14.75a.6.6 0 0 1-.204.031q-.251 0-.25-.375m0 0"/><path id="w" d="M.906-.469v-3.328l-.64-.078a.2.2 0 0 1-.016-.078q0-.246.328-.281l1.047-.11-.047.61h.031q.294-.294.516-.422.404-.235.953-.235c.438 0 .774.141 1.016.422q.359.422.36 1.172v2.328L5-.344q.124.017.125.11A.35.35 0 0 1 5.031 0h-1.89a.1.1 0 0 1-.016-.062c0-.133.094-.235.281-.297l.328-.11V-2.75q-.002-.544-.296-.812a.97.97 0 0 0-.657-.235c-.437 0-.824.149-1.156.438v2.89l.547.125q.124.017.125.11A.35.35 0 0 1 2.203 0H.313a.1.1 0 0 1-.016-.062c0-.133.094-.235.281-.297Zm0 0"/><path id="x" d="M4.5-6.156q.062.752.063 1.047c0 .273-.086.406-.25.406a.5.5 0 0 1-.204-.047l-.203-.937H1.875v2.453h1.984v.5H1.875v2.25l.703.125q.124.017.125.093 0 .048-.094.266H.422a.16.16 0 0 1-.016-.078Q.404-.324.72-.406l.375-.078v-5.203l-.547-.125C.46-5.82.422-5.852.422-5.906q0-.075.094-.25Zm0 0"/><path id="A" d="M2.031-.578V-5l-1.344.266a1 1 0 0 1-.015-.188c0-.133.07-.226.219-.281l1.468-.594h.438v5.219l1.094.172q.14.016.14.11-.002.08-.11.296H.86v-.078q0-.311.282-.36Zm0 0"/><path id="B" d="M3.688-4.766a.95.95 0 0 0-.329-.406 1.16 1.16 0 0 0-.734-.25c-.906 0-1.398.79-1.469 2.36q.516-.406 1.219-.407.762 0 1.219.375.499.423.5 1.25-.001.798-.5 1.36c-.356.398-.809.593-1.36.593-.617 0-1.086-.257-1.406-.78Q.36-1.407.36-2.72q-.002-1.25.594-2.14c.445-.696 1.063-1.047 1.844-1.047.406 0 .726.074.969.218q.328.189.328.454-.001.375-.407.468M1.156-2.609Q1.17-1.484 1.5-.922c.195.356.469.531.813.531q.435.001.718-.343.296-.359.297-1.016-.001-1.219-1.015-1.219-.751 0-1.157.36m0 0"/><path id="C" d="M4.344-3.422h-.032L3.141 0h-.72L.454-5.703l-.36-.094q-.126-.014-.124-.11 0-.074.094-.25h2v.079c0 .168-.102.273-.297.312l-.391.079L2.891-.875h.015l1.188-3.36-.469-1.468-.36-.094q-.126-.014-.124-.11 0-.074.093-.25h2v.079q-.002.253-.296.312l-.391.079L5.89-.875h.015l1.625-4.828-.703-.11c-.086-.007-.125-.039-.125-.093q-.001-.075.11-.25h1.78v.078q-.001.252-.296.328l-.219.047L6.141 0h-.72Zm0 0"/><path id="D" d="M1.094-.484v-5.203l-.547-.125C.46-5.82.422-5.852.422-5.906q0-.075.094-.25H4.53q.062.752.063 1.047c0 .273-.086.406-.25.406a.4.4 0 0 1-.188-.047l-.218-.937H1.874v2.312h1.984v.5H1.875v2.36H4l.234-.954a.7.7 0 0 1 .204-.031q.234 0 .234.36 0 .361-.094 1.14H.422a.16.16 0 0 1-.016-.078Q.404-.324.72-.406Zm0 0"/><path id="y" d="M.547-4.172c0 .188.172.344.36.344.14 0 .421-.156.421-.36 0-.062-.031-.125-.047-.187-.015-.062-.062-.14-.062-.203 0-.234.234-.547.875-.547.328 0 .781.219.781 1.078 0 .563-.203 1.031-.734 1.563l-.657.656C.61-.938.47-.516.47.016c0 0 .453-.016.734-.016h1.563c.28 0 .703.016.703.016.11-.47.203-1.141.203-1.407-.047-.046-.172-.062-.25-.046-.156.64-.313.859-.625.859H1.203c0-.438.61-1.031.656-1.078l.907-.875c.515-.485.89-.875.89-1.563 0-.953-.781-1.343-1.5-1.343-1 0-1.61.734-1.61 1.265m0 0"/><path id="z" d="M4.36-4.062A.2.2 0 0 0 4.202-4L2.75-2.547 1.297-4c-.031-.047-.094-.062-.14-.062-.157 0-.204.14-.204.203 0 .046.016.109.063.14L2.469-2.25 1.016-.797c-.047.031-.063.078-.063.14 0 .126.094.204.203.204.047 0 .11-.016.14-.063L2.75-1.969 4.203-.516a.2.2 0 0 0 .156.063.206.206 0 0 0 .204-.203.2.2 0 0 0-.063-.14L3.047-2.25 4.5-3.719a.2.2 0 0 0 .063-.14.197.197 0 0 0-.204-.203m0 0"/></defs><path fill="none" stroke="#000" stroke-miterlimit="10" stroke-width=".39726036000000003" d="M12.336 16.258h12.367m0 0h37.102m0 0h37.101m0 0h12.367V27.14m0 27.703v21.765m0 27.703v10.883"/><g clip-path="url(#a)"><path fill="none" stroke="#000" stroke-miterlimit="10" stroke-width=".79352508" d="M12.336 16.258a3.949 3.949 0 1 0-7.899 0 3.946 3.946 0 0 0 3.95 3.949 3.946 3.946 0 0 0 3.949-3.95Zm0 0"/></g><g clip-path="url(#b)"><path fill="none" stroke="#000" stroke-miterlimit="10" stroke-width=".79352508" d="M9.969 16.258a1.582 1.582 0 0 0-3.164 0 1.583 1.583 0 0 0 3.164 0Zm0 0"/></g><path fill="none" stroke="#000" stroke-miterlimit="10" stroke-width=".39726036000000003" d="M9.969 16.258h2.367"/><path stroke="#000" stroke-miterlimit="10" stroke-width=".39726036000000003" d="M38.652 16.258a1.58 1.58 0 1 0-3.159.003 1.58 1.58 0 0 0 3.16-.003ZM88.121 16.258a1.582 1.582 0 0 0-3.164 0 1.583 1.583 0 0 0 3.164 0Zm0 0"/><path fill="none" stroke="#000" stroke-miterlimit="10" stroke-width=".79352508" d="M106.078 54.844V27.14h10.39v27.703Zm0 0"/><path stroke="#000" stroke-miterlimit="10" stroke-width=".39726036000000003" d="M112.852 65.727a1.58 1.58 0 1 0-3.16-.005 1.58 1.58 0 0 0 3.16.005Zm0 0"/><use xlink:href="#c" x="118.593" y="43.135"/><use xlink:href="#c" x="123.056" y="43.135"/><use xlink:href="#d" x="127.52" y="43.135"/><use xlink:href="#e" x="133.465" y="43.135"/><path fill="none" stroke="#000" stroke-miterlimit="10" stroke-width=".79352508" d="M106.078 104.312V76.61h10.39v27.703Zm0 0"/><g clip-path="url(#f)"><path d="M112.852 115.195a1.58 1.58 0 1 0-3.16-.005 1.58 1.58 0 0 0 3.16.005m0 0"/></g><g clip-path="url(#g)"><path fill="none" stroke="#000" stroke-miterlimit="10" stroke-width=".39726036000000003" d="M112.852 115.195a1.58 1.58 0 1 0-3.16-.005 1.58 1.58 0 0 0 3.16.005Zm0 0"/></g><use xlink:href="#c" x="118.593" y="92.602"/><use xlink:href="#c" x="123.056" y="92.602"/><use xlink:href="#d" x="127.52" y="92.602"/><use xlink:href="#e" x="133.465" y="92.602"/><path fill="none" stroke="#000" stroke-miterlimit="10" stroke-width=".39726036000000003" d="M8.387 20.207v94.988h16.316m0 0h37.102m0 0h37.101m0 0h12.367"/><g clip-path="url(#h)"><path d="M38.652 115.195a1.58 1.58 0 1 0-3.16-.003 1.58 1.58 0 0 0 3.16.003m0 0"/></g><g clip-path="url(#i)"><path fill="none" stroke="#000" stroke-miterlimit="10" stroke-width=".39726036000000003" d="M38.652 115.195a1.58 1.58 0 1 0-3.16-.003 1.58 1.58 0 0 0 3.16.003Zm0 0"/></g><g clip-path="url(#j)"><path d="M88.121 115.195a1.583 1.583 0 0 0-3.164 0 1.582 1.582 0 0 0 3.164 0m0 0"/></g><g clip-path="url(#k)"><path fill="none" stroke="#000" stroke-miterlimit="10" stroke-width=".39726036000000003" d="M88.121 115.195a1.583 1.583 0 0 0-3.164 0 1.582 1.582 0 0 0 3.164 0Zm0 0"/></g><g clip-path="url(#l)"><path d="M112.852 115.195a1.58 1.58 0 1 0-3.16-.005 1.58 1.58 0 0 0 3.16.005m0 0"/></g><g clip-path="url(#m)"><path fill="none" stroke="#000" stroke-miterlimit="10" stroke-width=".39726036000000003" d="M112.852 115.195a1.58 1.58 0 1 0-3.16-.005 1.58 1.58 0 0 0 3.16.005Zm0 0"/></g><path fill="none" stroke="#000" stroke-miterlimit="10" stroke-width=".39726036000000003" d="M111.273 65.727h30.176m13.852 0h48.726m0 0h18.547"/><path fill="none" stroke="#000" stroke-miterlimit="10" stroke-width=".79352508" d="m155.3 65.727-13.85-8.657v17.313Zm0 0"/><path fill="none" stroke="#000" stroke-miterlimit="10" stroke-width=".39726036000000003" d="M155.3 65.727h-13.85"/><path fill="none" stroke="#000" stroke-miterlimit="10" stroke-width=".79352508" d="M155.3 74.383V57.07"/><path stroke="#000" stroke-miterlimit="10" stroke-width=".39726036000000003" d="M187.055 65.727a1.58 1.58 0 1 0-3.16-.005 1.58 1.58 0 0 0 3.16.005Zm0 0"/><path fill="#FFF" d="M224.156 65.727a1.58 1.58 0 1 0-3.16-.004 1.58 1.58 0 0 0 3.16.004m0 0"/><g clip-path="url(#n)"><path fill="none" stroke="#000" stroke-miterlimit="10" stroke-width=".39726036000000003" d="M224.156 65.727a1.58 1.58 0 1 0-3.16-.004 1.58 1.58 0 0 0 3.16.004Zm0 0"/></g><use xlink:href="#o" x="219.663" y="62.553"/><path fill="none" stroke="#000" stroke-miterlimit="10" stroke-width=".39726036000000003" d="M111.273 115.195h37.102m0 0h55.652m0 0h18.547"/><g clip-path="url(#p)"><path d="M187.055 115.195a1.58 1.58 0 1 0-3.16-.005 1.58 1.58 0 0 0 3.16.005m0 0"/></g><g clip-path="url(#q)"><path fill="none" stroke="#000" stroke-miterlimit="10" stroke-width=".39726036000000003" d="M187.055 115.195a1.58 1.58 0 1 0-3.16-.005 1.58 1.58 0 0 0 3.16.005Zm0 0"/></g><g clip-path="url(#r)"><path fill="#FFF" d="M224.156 115.195a1.58 1.58 0 1 0-3.16-.003 1.58 1.58 0 0 0 3.16.003m0 0"/></g><g clip-path="url(#s)"><path fill="none" stroke="#000" stroke-miterlimit="10" stroke-width=".39726036000000003" d="M224.156 115.195a1.58 1.58 0 1 0-3.16-.003 1.58 1.58 0 0 0 3.16.003Zm0 0"/></g><path fill="none" stroke="#000" stroke-miterlimit="10" stroke-width=".39726036000000003" d="M37.07 16.258v35.617m0 27.703v35.617"/><path fill="none" stroke="#000" stroke-miterlimit="10" stroke-width=".79352508" d="M31.879 79.578V51.875h10.387v27.703Zm0 0"/><path fill="none" stroke="#000" stroke-miterlimit="10" stroke-width=".39726036000000003" d="M86.54 16.258v35.617m0 27.703v35.617"/><path fill="none" stroke="#000" stroke-miterlimit="10" stroke-width=".79352508" d="M81.344 79.578V51.875h10.39v27.703Zm0 0"/><path fill="none" stroke="#000" stroke-miterlimit="10" stroke-width=".39726036000000003" d="M185.477 65.727v21.27m0 6.925v21.273"/><path fill="none" stroke="#000" stroke-miterlimit="10" stroke-width=".79352508" d="M195.863 86.996h-20.777m20.777 6.926h-20.777"/><use xlink:href="#t" x="198.507" y="92.602"/><use xlink:href="#u" x="202.971" y="92.602"/><use xlink:href="#v" x="204.819" y="92.602"/><use xlink:href="#w" x="211.211" y="92.602"/><use xlink:href="#x" x="216.46" y="92.602"/><use xlink:href="#y" x="56.977" y="56.998"/><use xlink:href="#z" x="61.128" y="56.998"/><use xlink:href="#A" x="50.973" y="67.86"/><use xlink:href="#A" x="55.437" y="67.86"/><use xlink:href="#d" x="59.9" y="67.86"/><use xlink:href="#e" x="65.846" y="67.86"/><use xlink:href="#d" x="51.397" y="78.722"/><use xlink:href="#u" x="55.861" y="78.722"/><use xlink:href="#B" x="57.709" y="78.722"/><use xlink:href="#C" x="63.654" y="78.722"/><use xlink:href="#D" x="5.857" y="9.135"/></svg>