<svg xmlns="http://www.w3.org/2000/svg" xmlns:xlink="http://www.w3.org/1999/xlink" width="230.527" height="245.327"><defs><path id="f" d="M.094-1.828c0-1.75-1.14-2.375-2.735-2.672l-2.453-.484c-.25-.047-.39-.188-.406-.563l-.016-.219c0-.046-.03-.078-.078-.078l-.172-.031-.015.016c0 .406.015.75.015.937 0 .203-.015.547-.015.938l.015.03.172.032c.047 0 .078-.031.078-.062l.016-.22c.016-.296.094-.405.281-.405.032 0 .078 0 .125.015l2.625.516c1 .187 2.188.547 2.188 2 0 .422-.188.734-.438.937-.25.188-.531.235-.812.235a4.2 4.2 0 0 1-.875-.11L-5.11-1.53c-.25-.063-.375-.203-.391-.563l-.016-.219c0-.046-.03-.078-.078-.078l-.172-.046-.015.03c0 .391.015.75.015 1.095 0 .343-.015.671-.015 1.078l.015.03.172.032c.047 0 .078-.031.078-.062l.016-.22c.016-.28.078-.405.266-.405.046 0 .078 0 .125.015l3 .578c.234.047.437.063.625.063 1.28 0 1.578-.953 1.578-1.625m0 0"/><path id="k" d="M-1.656-.531c.11.11.343.11.453 0v-4.735c-.11-.109-.344-.109-.453 0Zm-1.781 0c.109.11.343.11.437 0v-4.735c-.094-.109-.328-.109-.437 0Zm0 0"/><path id="l" d="M-1.094-2.578h-3.093c-.547 0-1.079 0-1.204-.016-.046 0-.046.016-.046.047.312.485.53.969.89 1.75.11-.015.188-.047.25-.125-.172-.422-.219-.61-.219-.781 0-.156.204-.188.516-.188h2.906c.75 0 .797.25.813.875.062.047.25.047.297 0C.016-1.453 0-1.78 0-2.266c0-.421.016-.64.016-1.093-.047-.047-.235-.047-.297 0-.016.64-.063.78-.813.78m0 0"/><path id="m" d="M-4.187-.547c.187 0 .359-.172.359-.36 0-.14-.172-.421-.36-.421a.4.4 0 0 0-.187.047c-.062.015-.14.062-.219.062-.218 0-.547-.234-.547-.875 0-.328.22-.781 1.079-.781.578 0 1.046.203 1.578.734l.656.657C-.938-.61-.516-.47.016-.47c0 0-.016-.453-.016-.734v-1.563c0-.296.016-.703.016-.703-.47-.11-1.141-.203-1.407-.219-.046.063-.062.172-.046.266.64.156.859.297.859.625v1.594c-.438 0-1.047-.625-1.078-.672l-.875-.89c-.485-.516-.89-.907-1.563-.907-.968 0-1.36.797-1.36 1.516 0 1 .735 1.61 1.266 1.61m0 0"/><path id="n" d="M-5.484-4c.046-.672.28-.672.765-.484l3.578 1.422v.03l-3.625 1.438c-.546.203-.656.14-.718-.468-.063-.047-.25-.047-.297 0 0 .359.015.765.015 1.093 0 .313-.015.625-.015.922.047.063.234.047.297 0 .046-.5.187-.562.812-.812l4.578-1.766c.14-.047.203-.11.203-.203s-.078-.156-.203-.203l-4.562-1.86c-.422-.171-.766-.312-.828-.875-.063-.046-.25-.046-.297 0 0 .266.015.579.015.782 0 .218-.015.609-.015.984.047.047.234.047.297 0m0 0"/><path id="J" d="M-5.844-3.5c0 .219.078.75.078 1.094s-.015.687-.015 1.078l.015.031.188.031c.031.016.062 0 .062-.046l.016-.329c0-.125.063-.312.281-.312.032 0 .063 0 .094.016l4.484.875c.25.046.36.171.375.546l.032.22c0 .046.015.077.062.077L0-.172l.016-.031C.016-.593 0-.953 0-1.281c0-.344.016-.688.016-1.094L0-2.406l-.172-.031c-.047 0-.062.03-.062.062l-.032.219c-.015.281-.078.406-.265.406-.031 0-.063 0-.11-.016l-1.953-.375c0-.718.125-.875.328-.953l1.563-.61c.422-.171.797-.468.797-.983 0-.125-.016-.282-.063-.375l-.218-.032c0 .39-.297.532-.688.688l-1.875.718c-.125-.39-.594-1.25-1.531-1.437a1.3 1.3 0 0 0-.344-.047 1.13 1.13 0 0 0-.766.281c-.406.329-.453.86-.453 1.391m.297.063c0-.454.172-.985.89-.985.11 0 .235.031.391.047 1.11.219 1.36.922 1.36 1.75v.422l-2.219-.438c-.266-.046-.422-.187-.422-.796m0 0"/><path id="Q" d="M.094-2.406c0-.828-.422-1.672-1.219-2.406-.078.015-.125.062-.125.171.703.735.969 1.375.969 2.172 0 1.078-.906 1.516-1.953 1.516-.235 0-.5-.016-.75-.063-1.813-.359-2.563-1.718-2.563-2.406 0-1.187.719-1.531 1.484-1.61l-.03-.265c-.47 0-.907-.016-1.391-.078-.016.484-.391.75-.391 1.797 0 1.422 1.297 3 3.063 3.344.218.03.437.062.656.062 1.187 0 2.25-.672 2.25-2.234m0 0"/><path id="R" d="M.094-2.031c0-.688-.703-1.735-2.797-1.735-.89 0-1.656.204-2.172.61a1.32 1.32 0 0 0-.578 1.078c0 .89 1.062 1.734 2.828 1.734.953 0 1.844-.297 2.344-.797q.375-.374.375-.89m-5.235-.047c0-.14.063-.297.157-.39C-4.75-2.75-4.078-3-2.875-3c.813 0 1.375.031 1.844.156.734.203.812.64.812.797 0 .828-1.531.922-2.312.922-2.203 0-2.61-.547-2.61-.953m0 0"/><path id="S" d="M-3.203-1.64c.062.046.078.109 0 .109-.235 0-.594.015-.672.062-.047.016-.078.032-.078.11.094.25.187.484.265 1.093.047.032.188 0 .25-.015.047-.485.079-.578.61-.578h1.734c.735 0 .766.093.813.625.062.062.25.062.297 0C.016-.5 0-.86 0-1.22s.016-.625.016-.89c-.047-.047-.235-.047-.297 0-.047.453-.078.547-.813.547h-1.468c-.188 0-.282-.079-.376-.157-.328-.343-.515-.734-.515-1.093 0-.172.11-.36.312-.47.188-.093.422-.109.688-.109h1.36c.734 0 .765.094.812.563.062.047.25.047.297 0C.016-3.094 0-3.391 0-3.75s.016-.672.016-.937c-.047-.047-.235-.047-.297 0-.047.5-.078.593-.813.593h-1.328c-.484 0-.922.032-1.203.235-.187.156-.297.437-.297.75 0 .437.11.937.719 1.468m0 0"/><path id="T" d="M-2.89-2.531c0-.75.203-.781.609-.813.062-.047.062-.234 0-.297-.219.016-.485.016-.781.016-.313 0-.547 0-.766-.016-.063.063-.063.25 0 .297.484.031.61.063.61.813v.828h-1.61c-.484 0-.578-.11-.578-.5v-.39c0-.954.36-1.173.968-1.376a.8.8 0 0 0-.046-.281c-.36.047-1.22.188-1.297.203-.016 0-.016 0-.016.031.016.157.031.204.031.422v2.282c0 .28-.015.796-.015 1.156.047.047.234.047.297 0 .03-.625.062-.781.812-.781h3.578c.75 0 .797.156.813.78.062.048.25.048.297 0C.016-.468 0-.921 0-1.327c0-.39.016-.828.016-1.14-.047-.063-.235-.063-.297 0-.016.624-.063.765-.813.765H-2.89Zm0 0"/><path id="ar" d="M-1.953-3.844v.75h-2.61c-.453 0-.796 0-.875-.031l-.015.031v.281c0 .063.062.11.094.141.687.563 2.172 1.594 3.453 2.422.125-.031.375-.078.375-.344v-1.828h.812c.422 0 .422.344.438.719.062.062.25.062.297 0C.016-1.984 0-2.343 0-2.75c0-.344.016-.687.016-.984-.047-.047-.235-.047-.297 0-.031.453-.016.64-.438.64h-.812v-.625c0-.125-.172-.265-.282-.265q-.14 0-.14.14m-2.578 1.422h2.578v1.703a45 45 0 0 1-2.578-1.703m0 0"/><path id="as" d="M-4.781-1.516v-1.609c1.734.703 3.468 1.406 4.828 2.016l.062-.079-.015-.593c-1.531-.516-3-1-5.453-2.016l-.094.156c.031.141.094.344.094.688v1.828c0 .313-.094.297-.125.453 0 .031 0 .031.03.031.423.016.954.11 1.423.188C-4-.547-4-.641-4-.734c-.719-.203-.781-.5-.781-.782m0 0"/><path id="ax" d="M-1.687-2.844c.843 0 1.468.438 1.468.969 0 .344-.218.469-.39.594-.157.125-.297.265-.297.453 0 .172.156.344.328.344.375 0 .672-.766.672-1.266 0-1.11-.813-1.89-1.938-1.89-.875 0-1.656.593-1.656 1.593 0 .39.078.719.14.875l-1.484-.172c.032-.343.078-.625.078-1.047q0-.398-.046-.937l-.61-.156-.031.062c.047.516.094 1 .094 1.469 0 .328-.016.656-.047.969l2.578.312a2.9 2.9 0 0 1-.219-1.14c0-.579.39-1.032 1.36-1.032m0 0"/><path id="g" d="M-4.61-1.062c0 .265-.015.64-.015.921.031.047.188.047.234 0 .016-.5.047-.625.641-.625h2.875c.594 0 .625.125.656.625.047.047.188.047.235 0C0-.42 0-.797 0-1.062c0-.266.016-.454.016-1.047 0-1.422-.72-1.813-1.328-1.813-.688 0-1.079.485-1.266 1.11h-.016c-.172-.36-.547-.688-.937-.688-.469 0-1.094.219-1.094 1.547 0 .25.016.64.016.89m2.235-.297v-.5c0-.985.547-1.391 1.188-1.391.53 0 .968.203.968 1.297 0 .5-.187.594-.625.594Zm-1.562 0c-.376 0-.454 0-.454-.625 0-.407.22-.922.954-.922.609 0 .812.422.812 1.015v.532Zm0 0"/><path id="h" d="M-.875-1.36H-3.75c-.594 0-.625-.124-.64-.624-.048-.047-.204-.047-.235 0 0 .312.016.64.016.922 0 .234-.016.593-.016.921.031.047.188.047.234 0 .016-.5.047-.625.641-.625h2.875c.594 0 .625.125.656.625.047.047.188.047.235 0C0-.453 0-.812 0-1.062c0-.266 0-.61.016-.922-.047-.047-.188-.047-.235 0-.031.5-.062.625-.656.625m0 0"/><path id="i" d="M-.562-1.11-1.61-1.5c-.094-.031-.11-.078-.11-.25v-1.516l1.203-.406c.25-.094.266.172.297.516.047.047.188.047.235 0C0-3.406 0-3.812 0-4.094s0-.562.016-.812c-.047-.032-.188-.032-.235 0-.031.281-.047.531-.39.64L-4.703-2.78c.062.11.14.297.14.39L-.733-.766c.453.188.484.407.515.72.047.046.188.046.235 0C0-.235 0-.47 0-.688c0-.297 0-.657.016-.922-.047-.032-.188-.032-.235 0-.031.28-.047.609-.343.5m-1.47-.765c0 .156-.015.203-.093.172l-1.844-.734v-.032l1.938-.687Zm0 0"/><path id="j" d="M-4.516-2.828c-.062.422-.187.406-.187 1.11C-4.703-1-4.234-.36-3.47-.36c.75 0 1.094-.625 1.344-1.266.156-.422.36-.953 1.063-.953.578 0 .875.328.875.89 0 .672-.313 1.094-1.016 1.266-.031.078-.016.156.016.235.562-.032.75-.063 1.093-.157 0-.437.172-.64.172-1.281 0-.328-.078-.625-.25-.875a1.34 1.34 0 0 0-1.14-.672c-.766 0-1.094.563-1.329 1.156-.156.422-.421 1.141-1.015 1.141-.406 0-.813-.36-.813-.781 0-.703.453-.922.922-1.063a.3.3 0 0 0-.047-.234c-.344.031-.547.062-.922.125m0 0"/><path id="x" d="M.016-3.937a10 10 0 0 1-1.203-.204c0 .047-.032.141-.032.22.516.233.907.405.922 1.187l.031 1.375c0 .125-.046.187-.109.187-.031 0-.078-.016-.14-.062-.766-.516-2.626-1.828-3.72-2.688-.187-.14-.234-.172-.312-.172-.047 0-.078.047-.078.094 0 .094.016.313.016.531v1.578c0 .344-.047 1.032-.063 1.297.39.031.797.094 1.094.156.015-.078.031-.14.031-.218-.5-.14-.75-.422-.765-.953l-.032-1.516c0-.031.032-.062.078-.062a.25.25 0 0 1 .125.046c.875.704 2.782 2.063 3.875 2.797.047.031.11.047.157.047.078 0 .109-.031.109-.125v-2.61c0-.202.016-.905.016-.905m0 0"/><path id="K" d="M-2.453-1.031a2.57 2.57 0 0 1-1.735-1.61c-.078 0-.156.032-.187.094.219.719.516 1.172.984 1.563a2.7 2.7 0 0 0 1.735.672c1.453 0 1.734-.829 1.734-1.375 0-.938-.906-1.329-1.531-1.329-.61 0-1.156.329-1.156 1.313 0 .172.046.453.156.672m.25.062c-.156-.234-.156-.468-.156-.593 0-.704.687-.86 1.047-.86.78 0 1.14.297 1.14.656 0 .454-.25.86-1.469.86-.156 0-.343-.016-.562-.063m0 0"/><path id="N" d="M-1.562-3.078v.594h-2.094c-.36 0-.64 0-.688-.016l-.015.016v.234c0 .047.03.078.078.11.547.453 1.718 1.28 2.75 1.937.11-.016.297-.063.297-.281v-1.453h.656c.328 0 .328.265.36.578.046.046.187.046.234 0C0-1.594 0-1.875 0-2.203c0-.281 0-.547.016-.781-.047-.047-.188-.047-.235 0-.031.343-.015.5-.36.5h-.655v-.5c0-.094-.125-.203-.22-.203-.077 0-.109.03-.109.109m-2.063 1.14h2.063v1.36c-.594-.36-1.391-.875-2.063-1.36m0 0"/><path id="am" d="M-3.344-.437c.14 0 .281-.141.281-.282 0-.125-.14-.343-.296-.343-.047 0-.094.015-.141.03-.062.016-.125.063-.172.063-.187 0-.437-.187-.437-.718 0-.25.172-.61.859-.61.453 0 .828.156 1.266.578l.515.532c.719.703 1.063.812 1.485.812 0 0-.016-.36-.016-.594v-1.25c0-.234.016-.562.016-.562a8 8 0 0 0-1.125-.172c-.047.047-.063.14-.047.219.515.109.687.234.687.5V-.97c-.343 0-.828-.484-.86-.531l-.702-.719c-.39-.406-.703-.719-1.25-.719-.766 0-1.078.641-1.078 1.22 0 .78.578 1.28 1.015 1.28m0 0"/><path id="aq" d="M-4.11-1.531c0-.313.188-.594.641-.594.36 0 .906.406 1 1.11l.235-.032c-.016-.125-.016-.25-.016-.344 0-.406.125-.937.922-.937.953 0 1.156.64 1.156.89 0 .36-.172.422-.297.516a.34.34 0 0 0-.187.313c0 .14.14.297.25.297.281 0 .484-.61.484-1.032 0-.86-.562-1.61-1.5-1.61-.781 0-1.062.579-1.14 1v.016c-.282-.593-.579-.75-.954-.75a.77.77 0 0 0-.578.22c-.156.155-.265.406-.265.78 0 1.047.687 1.344.922 1.344.093 0 .234-.062.234-.234 0-.25-.235-.281-.375-.281-.453 0-.531-.5-.531-.672m0 0"/><path id="aw" d="M-4.61-1.062c0 .265-.015.64-.015.921.031.047.188.047.234 0 .016-.5.047-.625.641-.625h2.875c.594 0 .625.125.656.625.047.047.188.047.235 0C0-.42 0-.797 0-1.062c0-.266.016-.563.016-1.313 0-1-.453-2.328-2.22-2.328-1.327 0-2.421 1.094-2.421 2.469 0 .5.016.89.016 1.172m4.016-.297H-4.03c-.25 0-.36-.266-.36-.61 0-1.547 1.25-2.047 2.36-2.047 1.437 0 1.797.86 1.797 1.875 0 .688-.141.782-.36.782m0 0"/><path id="q" d="M3.5-5.844c-.219 0-.75.078-1.094.078S1.72-5.78 1.328-5.78l-.031.015-.031.188c-.016.031 0 .062.046.062l.329.016c.125 0 .312.063.312.281 0 .032 0 .063-.016.094L1.064-.641c-.047.25-.172.36-.547.375l-.22.032C.25-.234.22-.22.22-.172L.172 0l.031.016C.593.016.953 0 1.281 0c.344 0 .688.016 1.094.016L2.406 0l.031-.172c0-.047-.03-.062-.062-.062l-.219-.032C1.875-.28 1.75-.344 1.75-.53c0-.031 0-.063.016-.11l.375-1.953c.718 0 .875.125.953.328l.61 1.563c.171.422.468.797.983.797.125 0 .282-.016.375-.063l.032-.218c-.39 0-.532-.297-.688-.688L3.688-2.75c.39-.125 1.25-.594 1.437-1.531.031-.11.047-.235.047-.344a1.13 1.13 0 0 0-.281-.766c-.328-.406-.86-.453-1.391-.453m-.062.297c.453 0 .984.172.984.89 0 .11-.031.235-.047.391-.219 1.11-.922 1.36-1.75 1.36h-.422l.438-2.219c.046-.266.187-.422.797-.422m0 0"/><path id="V" d="M1.234-5.766c-.234 0-.421-.078-.64-.109-.11.438-.219.688-.422 1.156a.6.6 0 0 0 .281.063c.25-.578.469-.766.953-.766h.61c.359 0 .406.094.359.36l-.844 4.39c-.062.25-.187.375-.562.406l-.266.032c-.047.03-.062.172-.031.25C1.078.016 1.406 0 1.75 0s.75.016 1.14.016c.016-.032.047-.22.016-.25L2.61-.266c-.343-.03-.453-.14-.39-.406l.844-4.375c.062-.297.187-.375.484-.375h.484c.469 0 .594.234.75.844.094 0 .157 0 .266-.047a5.4 5.4 0 0 1-.094-1.25c-.297.031-.406.11-.734.11Zm0 0"/><path id="ad" d="M5.516-1.094v-3.578c0-.75.156-.781.78-.812.063-.063.063-.25 0-.297-.359 0-.812.015-1.155.015-.328 0-.766-.015-1.157-.015-.046.047-.046.234 0 .297.625.03.782.062.782.812v1.422H1.703v-1.422c0-.75.156-.781.781-.812.047-.063.047-.25 0-.297-.343 0-.703.015-1.156.015S.516-5.78.172-5.78c-.063.047-.063.234 0 .297.625.03.781.062.781.812v3.578c0 .75-.156.797-.781.813-.063.062-.063.25 0 .297C.562.016.984 0 1.328 0c.328 0 .766.016 1.156.016.047-.047.047-.235 0-.297-.625-.016-.78-.063-.78-.813v-1.781h3.062v1.781c0 .75-.157.797-.782.813-.046.062-.046.25 0 .297C4.391.016 4.813 0 5.141 0c.343 0 .765.016 1.156.016.062-.047.062-.235 0-.297-.625-.016-.781-.063-.781-.813m0 0"/><path id="ae" d="M2.531-2.89c.75 0 .781.203.813.609.047.062.234.062.297 0-.016-.219-.016-.485-.016-.781 0-.313 0-.547.016-.766-.063-.063-.25-.063-.297 0-.031.484-.063.61-.813.61h-.828v-1.61c0-.484.11-.578.5-.578h.39c.954 0 1.173.36 1.376.968q.165 0 .281-.046a44 44 0 0 0-.203-1.297c0-.016 0-.016-.031-.016-.157.016-.203.031-.422.031H1.313c-.282 0-.797-.015-1.157-.015-.047.047-.047.234 0 .297.625.03.782.062.782.812v3.578c0 .75-.157.797-.782.813-.047.062-.047.25 0 .297C.47.016.922 0 1.328 0c.39 0 .828.016 1.14.016.063-.047.063-.235 0-.297-.624-.016-.765-.063-.765-.813V-2.89Zm0 0"/><path id="r" d="M2.063-.875v-2.484c0-.422 0-.86.015-.953 0-.032-.015-.032-.031-.032-.406.235-.781.422-1.406.703a.33.33 0 0 0 .109.204c.328-.141.484-.188.61-.188.124 0 .156.172.156.422v2.328c0 .594-.203.625-.703.656-.047.047-.047.188 0 .235C1.172 0 1.422 0 1.813 0c.343 0 .515 0 .875.016.03-.047.03-.188 0-.235-.5-.031-.626-.062-.626-.656m0 0"/><path id="D" d="M.438-3.344c0 .14.14.281.28.281.126 0 .345-.14.345-.296 0-.047-.016-.094-.032-.141-.015-.062-.062-.125-.062-.172 0-.187.187-.437.719-.437.25 0 .609.172.609.859 0 .453-.156.828-.578 1.266l-.532.515C.485-.75.375-.406.375.016c0 0 .36-.016.594-.016h1.25c.234 0 .562.016.562.016a8 8 0 0 0 .172-1.125c-.047-.047-.14-.063-.219-.047-.109.515-.234.687-.5.687H.97c0-.343.484-.828.531-.86l.719-.702c.406-.39.719-.703.719-1.25 0-.766-.641-1.078-1.22-1.078-.78 0-1.28.578-1.28 1.015m0 0"/><path id="G" d="M1.531-4.11c.313 0 .594.188.594.641 0 .36-.406.906-1.11 1l.032.235c.125-.016.25-.016.344-.016.406 0 .937.125.937.922 0 .953-.64 1.156-.89 1.156-.36 0-.422-.172-.516-.297a.34.34 0 0 0-.313-.187c-.14 0-.296.14-.296.25 0 .281.609.484 1.03.484.86 0 1.61-.562 1.61-1.5 0-.781-.578-1.062-1-1.14h-.016c.594-.282.75-.579.75-.954a.77.77 0 0 0-.218-.578c-.156-.156-.406-.265-.781-.265-1.047 0-1.344.687-1.344.922 0 .093.062.234.234.234.25 0 .281-.235.281-.375 0-.453.5-.531.672-.531m0 0"/><path id="U" d="M2.281-1.36c0 .688-.36 1.188-.781 1.188-.281 0-.375-.172-.484-.328C.937-.61.813-.719.656-.719a.274.274 0 0 0-.265.266c0 .281.609.531 1.015.531.89 0 1.516-.656 1.516-1.562 0-.688-.485-1.313-1.281-1.313-.313 0-.578.063-.703.11l.14-1.188c.266.031.5.063.844.063q.305 0 .75-.047l.11-.485-.048-.031c-.406.047-.796.078-1.171.078-.266 0-.532-.016-.782-.031L.547-2.266c.375-.14.64-.171.906-.171.469 0 .828.312.828 1.078m0 0"/><path id="af" d="M1.36-.875V-3.75c0-.594.124-.625.624-.64.047-.048.047-.204 0-.235-.312 0-.64.016-.921.016-.235 0-.594-.016-.922-.016-.047.031-.047.188 0 .234.5.016.625.047.625.641v2.875c0 .594-.125.625-.625.656-.047.047-.047.188 0 .235C.453 0 .813 0 1.063 0c.265 0 .609 0 .921.016.047-.047.047-.188 0-.235-.5-.031-.625-.062-.625-.656m0 0"/><path id="ag" d="M3.984-3.656v2.328c0 .14 0 .219-.062.219-.016 0-.125-.125-.344-.391L1.125-4.61l-.953-.015c-.047.031-.047.188 0 .234a.65.65 0 0 1 .562.454v2.984c0 .64-.125.687-.625.734-.046.047-.046.188 0 .235C.422 0 .734 0 .906 0s.5 0 .797.016c.047-.047.047-.188 0-.235-.5-.047-.625-.078-.625-.734v-2.188c0-.25 0-.359.063-.359.046 0 .125.094.234.25l2.5 3.156c.078.094.172.172.297.172.094 0 .156-.094.156-.234v-3.5c0-.64.125-.688.625-.735.047-.046.047-.203 0-.234-.297 0-.625.016-.797.016-.156 0-.484-.016-.797-.016-.046.031-.046.188 0 .234.5.047.625.079.625.735m0 0"/><path id="aj" d="M4.766-2.36c0-1.468-1.016-2.343-2.297-2.343C1.079-4.703.266-3.61.266-2.22.266-.813 1.28.078 2.5.078c.797 0 1.422-.344 1.828-.906.281-.406.438-.922.438-1.531M2.375-4.452c.938 0 1.703.797 1.703 2.234 0 1.281-.61 2.031-1.437 2.031-.86 0-1.688-.78-1.688-2.156 0-1.5.703-2.11 1.422-2.11m0 0"/><path id="ak" d="M1.234-3.75c0-.594.11-.625.657-.64.046-.048.046-.204 0-.235-.344 0-.688.016-.97.016-.28 0-.577-.016-.843-.016-.047.031-.047.188 0 .234.422.016.547.047.547.641v2.078c0 1.469.938 1.75 1.672 1.75 1.469 0 1.812-.922 1.812-2.187V-3.75c0-.562.125-.594.563-.64.031-.048.031-.204 0-.235-.281 0-.578.016-.734.016s-.5-.016-.829-.016c-.046.031-.046.188 0 .234.532.047.657.063.657.641v1.766c0 .797-.11 1.765-1.313 1.765a1.2 1.2 0 0 1-.86-.343c-.343-.329-.359-.875-.359-1.344Zm0 0"/><path id="al" d="M2.5-.875v-2.734c0-.453.078-.735.328-.735h.156c.547 0 .875.188 1 .75a.7.7 0 0 0 .25-.047 5.6 5.6 0 0 1-.093-1.015s-.016-.016-.032-.016c-.234.016-1.03.063-1.593.063H1.89C1.344-4.61.5-4.656.234-4.672c-.015 0-.03.016-.03.016-.032.328-.11.703-.188 1.047a.7.7 0 0 0 .25.03c.14-.577.468-.765.937-.765h.36c.265 0 .328.282.328.719v2.75c0 .594-.11.625-.688.656-.047.047-.047.188 0 .235C1.547 0 1.922 0 2.203 0c.266 0 .64 0 1 .016.031-.047.031-.188 0-.235C2.625-.25 2.5-.28 2.5-.875m0 0"/><path id="s" d="M1.39-3.156c1.008-.114 1.516-.516 1.516-1.203Q2.905-5.438 2-5.437q-.41.002-.703.203-.11.362-.11.812a.7.7 0 0 1-.218.031c-.281 0-.422-.117-.422-.359q-.001-.516.437-.844.45-.328 1.188-.328.714 0 1.125.375.406.375.406 1.031 0 .628-.422 1.016-.28.284-.89.484V-3q.702.11 1.093.484c.258.243.391.547.391.922q-.001.738-.547 1.219Q2.78.11 1.891.109C1.41.11 1.05.012.813-.17Q.53-.374.53-.672q0-.406.39-.548c.102.23.204.399.298.5q.293.328.828.328c.664 0 1-.351 1-1.062 0-.738-.555-1.149-1.656-1.234Zm0 0"/><path id="t" d="M2.234-.39q1.092.001 1.094-2.516-.002-2.515-1.094-2.516-1.094.001-1.093 2.516c0 1.68.363 2.515 1.093 2.515m-.03.5q-.88 0-1.376-.75Q.296-1.42.297-2.907c0-.977.187-1.735.562-2.266.352-.5.829-.75 1.422-.75q.873 0 1.36.75.528.784.53 2.266 0 1.47-.562 2.265-.533.75-1.406.75m0 0"/><path id="u" d="M6.125-3.484q-.001.926-.547 1.734-.486.69-1.156 1.047v.172h1.187l.141-.719a.44.44 0 0 1 .203-.047q.282.001.281.406-.002.365-.062.891H3.859v-.89c.977-.5 1.47-1.376 1.47-2.626Q5.327-4.545 4.78-5.14q-.534-.609-1.39-.609c-.563 0-1.024.2-1.375.594-.368.418-.547.968-.547 1.656q-.001.862.343 1.531.387.72 1.126 1.078V0H.624a10 10 0 0 1-.047-.89c0-.27.086-.407.266-.407q.107 0 .203.047l.14.719h1.204v-.156c-.43-.188-.809-.524-1.141-1.016a2.98 2.98 0 0 1-.594-1.781q-.001-1.203.766-2 .78-.797 1.969-.797 1.218 0 1.968.781c.508.512.766 1.184.766 2.016m0 0"/><path id="E" d="m.422-.453 1.516-1.734q.874-1.015.875-2c0-.833-.305-1.25-.907-1.25q-.345 0-.703.187a3.3 3.3 0 0 0-.125.875q-.11.017-.203.016-.422 0-.422-.344 0-.545.422-.875.42-.342 1.156-.344.715 0 1.172.422.451.408.453 1.156 0 .675-.422 1.36-.268.44-.906 1.125L1.344-.797v.016h2.031l.188-.781a.5.5 0 0 1 .187-.032q.234.002.234.344c0 .242-.03.656-.093 1.25H.5Zm0 0"/><path id="F" d="M.484-4.656q0-.56.063-1.157h3.578a.3.3 0 0 1 .047.188c0 .125-.04.262-.11.406L1.704 0h-.656l2.406-5.062H1.078l-.14.75a.46.46 0 0 1-.204.046q-.251 0-.25-.39m0 0"/><path id="W" d="M2.125-6.703q-1.001 1.968-1 3.984-.001 2.081.953 3.969H1.61A6.1 6.1 0 0 1 .734-.469a7 7 0 0 1-.375-2.25q0-1.138.422-2.265a7.2 7.2 0 0 1 .922-1.72Zm0 0"/><path id="X" d="m.125-1.984 2.531-3.797.672-.063v3.64h.75l-.047.688h-.703v1.032l.61.125q.123.017.124.093 0 .048-.093.266H1.906v-.078q0-.246.297-.328l.39-.078v-1.032H.157Zm.734-.22h1.735V-4.89h-.016L.86-2.219Zm0 0"/><path id="Y" d="M.547-.375a.5.5 0 0 1 .125-.36.48.48 0 0 1 .36-.14c.132 0 .25.047.343.14a.47.47 0 0 1 .156.36.47.47 0 0 1-.156.36.5.5 0 0 1-.344.124.52.52 0 0 1-.36-.125.5.5 0 0 1-.124-.359m0-3.516a.5.5 0 0 1 .125-.359.48.48 0 0 1 .36-.14c.132 0 .25.046.343.14a.47.47 0 0 1 .156.36.47.47 0 0 1-.156.359.5.5 0 0 1-.344.125.5.5 0 0 1-.36-.125.5.5 0 0 1-.124-.36m0 0"/><path id="Z" d="M2.031-.578V-5l-1.344.25a1 1 0 0 1-.015-.187c0-.133.07-.227.219-.282l1.468-.593h.454v5.234l1.078.172q.14.016.14.11-.002.08-.11.296H.86v-.078q0-.311.282-.36Zm0 0"/><path id="aa" d="M.64-6.703q.575.769.938 1.719.406 1.126.406 2.265 0 1.143-.359 2.25a6.6 6.6 0 0 1-.89 1.719h-.47a8.7 8.7 0 0 0 .954-3.969c0-1.344-.336-2.672-1-3.984Zm0 0"/><path id="ah" d="M2.969-1.047q.279-.528.312-1.625-.468.375-1.172.375-.766.002-1.234-.406-.516-.434-.516-1.313 0-.889.61-1.421c.351-.32.781-.485 1.281-.485q.89.001 1.375.781c.3.493.453 1.141.453 1.954q-.001 1.347-.5 2.203Q2.95.11 1.672.109 1.044.107.703-.094.39-.263.391-.53q0-.388.39-.5c.176.43.524.64 1.047.64q.812 0 1.14-.656m-.813-1.765q.715.002 1.125-.313 0-1.137-.328-1.734-.299-.563-.812-.563a.86.86 0 0 0-.72.344q-.28.344-.28 1-.002 1.266 1.015 1.266m0 0"/><path id="ao" d="M3.984-.922q-.002.516.313.516.2.001.328-.125a.5.5 0 0 1 .078.25c0 .062-.055.133-.156.203A.94.94 0 0 1 4 .078q-.58 0-.656-.61h-.016Q2.871.112 2.063.11a1.22 1.22 0 0 1-.75-.25c0 .739.148 1.352.453 1.844q-.018.06-.172.125a.7.7 0 0 1-.282.063Q.95 1.889.845 1.297C.789 1.023.766.539.766-.156v-4.078l.703-.11v2.813q0 1.064.797 1.062c.382 0 .722-.148 1.015-.453v-3.312l.703-.11Zm0 0"/><path id="ap" d="M2.594-6.172v.078c0 .157-.102.262-.297.313l-.422.093v2.266h2.984v-2.265l-.546-.125c-.086-.02-.125-.055-.125-.11q0-.075.093-.25H6.36v.078q-.002.236-.296.313l-.422.093v5.204l.609.125q.124.017.125.093 0 .048-.094.266H4.188a.16.16 0 0 1-.016-.078c0-.164.101-.274.312-.328l.375-.078v-2.407H1.875v2.407L2.5-.36q.124.017.125.093c0 .032-.04.121-.11.266H.423a.16.16 0 0 1-.016-.078Q.404-.324.72-.406l.375-.078v-5.203l-.547-.125c-.086-.02-.125-.055-.125-.11q0-.075.094-.25Zm0 0"/><path id="y" d="M-1.906-4.047v3.625h-.469v-3.625Zm-1.297 0v3.625h-.469v-3.625Zm0 0"/><path id="z" d="M-4.766-3.703a1.04 1.04 0 0 0-.421.328 1.24 1.24 0 0 0-.235.734q0 1.378 2.344 1.485a1.95 1.95 0 0 1-.406-1.219q.002-.762.39-1.219c.274-.344.688-.515 1.25-.515q.798.001 1.36.5c.398.355.593.808.593 1.359 0 .625-.257 1.102-.78 1.422q-.735.469-2.048.469-1.247.002-2.156-.594c-.695-.445-1.047-1.063-1.047-1.844q0-.622.219-.969.205-.328.469-.328c.242 0 .398.133.468.39m2.141 2.547q1.127-.029 1.703-.344.533-.31.531-.812.001-.452-.343-.735-.358-.28-1.032-.281-1.202.002-1.203 1 .002.75.344 1.172m0 0"/><path id="A" d="M-.922-.89q.002-.248.203-.407.204-.17.578-.172.592 0 .985.375c.226.211.344.414.344.61 0 .093-.086.164-.25.203q-.3-.574-.891-.61-.001.204-.125.344a.47.47 0 0 1-.344.14c-.156 0-.273-.038-.36-.124a.48.48 0 0 1-.14-.36m0 0"/><path id="B" d="m-.453-.422-1.734-1.515q-1.015-.875-2-.875-1.25.001-1.25.906 0 .345.187.703.361.112.875.125.017.11.016.203 0 .422-.344.422-.545 0-.875-.422-.342-.42-.344-1.156 0-.715.422-1.172.408-.451 1.156-.453.675 0 1.36.422.44.268 1.125.906l1.062.984h.016v-2.031l-.781-.187a.5.5 0 0 1-.032-.188q.002-.234.344-.234c.242 0 .656.03 1.25.093V-.5Zm0 0"/><path id="C" d="M-6.172-5.844h.078c.168 0 .278.102.328.297l.047.234L0-3.28v.734L-5.703-.453l-.094.375q-.03.124-.125.125c-.05 0-.133-.035-.25-.094V-2.03c.031-.008.059-.016.078-.016.168 0 .274.102.313.297l.093.375 4.782-1.64v-.016L-5.72-4.734l-.093.687q-.029.127-.11.125c-.039 0-.125-.031-.25-.094Zm0 0"/><path id="H" d="M-.39-2.234q.001-1.092-2.516-1.094-2.515.002-2.516 1.094.001 1.094 2.516 1.093c1.68 0 2.515-.363 2.515-1.093m.5.03q0 .88-.75 1.376-.779.532-2.266.531c-.977 0-1.735-.187-2.266-.562q-.75-.53-.75-1.422 0-.873.75-1.36.784-.528 2.266-.53 1.47 0 2.265.562.75.533.75 1.406m0 0"/><path id="I" d="M-3.484-6.125q.926.001 1.734.547.69.486 1.047 1.156h.172v-1.187l-.719-.141a.44.44 0 0 1-.047-.203q.001-.282.406-.281.365.002.891.062v2.313h-.89c-.5-.977-1.376-1.47-2.626-1.47q-1.029.001-1.625.548-.609.534-.609 1.39c0 .563.2 1.024.594 1.375.418.368.968.547 1.656.547q.862.001 1.531-.343.72-.387 1.078-1.125H0v2.312q-.527.047-.89.047c-.27 0-.407-.086-.407-.266q0-.107.047-.203l.719-.14v-1.204h-.156c-.188.43-.524.809-1.016 1.141a2.98 2.98 0 0 1-1.781.594q-1.203.001-2-.766-.797-.78-.797-1.969 0-1.218.781-1.968c.512-.508 1.184-.766 2.016-.766m0 0"/><path id="L" d="M-.578-2.031H-5l.25 1.344q-.106.016-.187.015c-.133 0-.227-.07-.282-.219l-.593-1.468v-.453h5.234l.172-1.079q.016-.14.11-.14.08.002.296.11V-.86h-.078q-.311 0-.36-.282Zm0 0"/><path id="M" d="M-5.812-1.125v-2.562l.78.062v2.094l1.407.125q.066-1.296.547-1.875c.305-.364.765-.547 1.39-.547.493 0 .915.18 1.266.531q.533.534.531 1.39-.001.721-.265 1.079a.61.61 0 0 1-.516.281q-.405 0-.547-.39.376-.171.5-.282.328-.31.328-.843 0-.514-.328-.829-.31-.294-.812-.296-.732 0-1.047.562-.328.55-.328 1.781Zm0 0"/><path id="O" d="M-3.031-2.937Q-2.544-4.03-1.5-4.032q.737 0 1.188.547c.28.343.421.773.421 1.28q0 .77-.39 1.25-.435.533-1.172.532-.92 0-1.453-1.14c-.32.656-.813.984-1.469.984-.437 0-.8-.164-1.094-.5a1.75 1.75 0 0 1-.453-1.188c0-.488.133-.879.39-1.171q.394-.453 1.063-.454.91.002 1.438.954m-.172.406q-.405-.656-1.266-.656-.404 0-.656.234c-.195.18-.297.43-.297.75 0 .281.094.508.281.672q.284.251.672.25.516 0 .797-.344c.156-.164.313-.469.469-.906m.484.562c.293.524.715.782 1.266.782q.456 0 .766-.282.297-.28.296-.75c0-.32-.093-.578-.28-.765a1 1 0 0 0-.735-.297q-.48 0-.797.36-.234.268-.516.952m0 0"/><path id="P" d="M-.469-.828h-5.468l-.094.656a.16.16 0 0 1-.078.016q-.247 0-.266-.328l-.11-1.063H-2.5v-.531l-1.375-1.203-.125.625a.3.3 0 0 1-.078.015q-.218.001-.219-.25v-1.437c0-.07.031-.11.094-.11A.5.5 0 0 1-4-4.374l.156.516 1.453 1.265 1.938-1.515.11-.453q.015-.125.109-.125.129 0 .234.078v1.156l-2.047 1.5v.406h1.594L-.343-2q.015-.124.109-.125.129 0 .234.094V-.22h-.062c-.133 0-.235-.086-.297-.265Zm0 0"/><path id="at" d="M1.36-.375v-2.969l-.907.172v-.125q0-.14.14-.187l.985-.391h.297v3.5l.734.11q.078.015.079.062c0 .043-.024.11-.063.203H.578v-.047q0-.215.188-.25Zm0 0"/><path id="au" d="m.281-.297 1.016-1.156q.576-.686.578-1.344-.002-.826-.594-.828c-.168 0-.328.04-.484.11q-.065.252-.078.593a.5.5 0 0 1-.14.016q-.282 0-.282-.235c0-.25.094-.445.281-.593.188-.145.445-.22.781-.22q.481 0 .782.282c.195.18.297.434.297.766q0 .455-.282.906c-.117.2-.312.453-.594.766l-.656.703v.015H2.25l.125-.515a.23.23 0 0 1 .125-.032q.154 0 .156.235-.002.235-.062.828H.328Zm0 0"/><path id="av" d="M.922-2.11q1.015-.105 1.015-.796-.001-.717-.593-.719a.9.9 0 0 0-.485.125q-.065.253-.078.547a.5.5 0 0 1-.125.015q-.298 0-.297-.234 0-.34.297-.562.31-.219.797-.22c.313 0 .563.087.75.25q.281.255.281.688a.88.88 0 0 1-.28.672q-.206.188-.61.328V-2q.481.065.734.313a.83.83 0 0 1 .266.625q0 .485-.375.812-.363.328-.953.328C.94.078.703.012.546-.109Q.36-.25.36-.453c0-.176.086-.297.266-.36q.094.235.188.329a.68.68 0 0 0 .546.234q.67.001.672-.719c0-.5-.37-.773-1.11-.828Zm0 0"/><clipPath id="a"><path d="M.078 232H4v4H.078Zm0 0"/></clipPath><clipPath id="b"><path d="M.078 227H10v15H.078Zm0 0"/></clipPath><clipPath id="c"><path d="M218 227h11.977v15H218Zm0 0"/></clipPath><clipPath id="d"><path d="M.078 210H5v5H.078Zm0 0"/></clipPath><clipPath id="e"><path d="M.078 205H10v16H.078Zm0 0"/></clipPath><clipPath id="o"><path d="M.078 102H4v4H.078Zm0 0"/></clipPath><clipPath id="p"><path d="M.078 96H10v16H.078Zm0 0"/></clipPath><clipPath id="v"><path d="M39 234h1v10.656h-1Zm0 0"/></clipPath><clipPath id="w"><path d="M33 243h13v1.656H33Zm0 0"/></clipPath><clipPath id="ab"><path d="M.078 18H4v4H.078Zm0 0"/></clipPath><clipPath id="ac"><path d="M.078 12H10v15H.078Zm0 0"/></clipPath><clipPath id="ai"><path d="M218 12h11.977v15H218Zm0 0"/></clipPath><clipPath id="an"><path d="M218 96h11.977v16H218Zm0 0"/></clipPath></defs><path fill="none" stroke="#000" stroke-miterlimit="10" stroke-width=".39790674000000004" d="M2.258 234.363H114.03m0 0h111.774"/><g clip-path="url(#a)"><path fill="#FFF" d="M3.84 234.363a1.583 1.583 0 1 0-3.166.002 1.583 1.583 0 0 0 3.166-.002m0 0"/></g><g clip-path="url(#b)"><path fill="none" stroke="#000" stroke-miterlimit="10" stroke-width=".39790674000000004" d="M3.84 234.363a1.583 1.583 0 1 0-3.166.002 1.583 1.583 0 0 0 3.166-.002Zm0 0"/></g><path fill="#FFF" d="M227.387 234.363a1.583 1.583 0 1 0-3.166.002 1.583 1.583 0 0 0 3.166-.002m0 0"/><g clip-path="url(#c)"><path fill="none" stroke="#000" stroke-miterlimit="10" stroke-width=".39790674000000004" d="M227.387 234.363a1.583 1.583 0 1 0-3.166.002 1.583 1.583 0 0 0 3.166-.002Zm0 0"/></g><path fill="none" stroke="#000" stroke-miterlimit="10" stroke-width=".39790674000000004" d="M2.258 123.473v91.379m0-110.891h8.195m20.863 0h8.2v59.984m0 10.434v59.984"/><g clip-path="url(#d)"><path d="M2.258 210.648H.278l1.98 4.204 1.976-4.204Zm0 0"/></g><g clip-path="url(#e)"><path fill="none" stroke="#000" stroke-miterlimit="10" stroke-width=".39790674000000004" d="M2.258 210.648H.278l1.98 4.204 1.976-4.204Zm0 0"/></g><use xlink:href="#f" x="11.838" y="192.319"/><use xlink:href="#g" x="13.716" y="187.562"/><use xlink:href="#h" x="13.716" y="183.356"/><use xlink:href="#i" x="13.716" y="181.232"/><use xlink:href="#j" x="13.716" y="176.26"/><use xlink:href="#k" x="11.838" y="169.923"/><use xlink:href="#l" x="11.838" y="161.652"/><use xlink:href="#m" x="11.838" y="157.494"/><use xlink:href="#n" x="11.838" y="151.842"/><path fill="none" stroke="#000" stroke-miterlimit="10" stroke-width=".7948162200000001" d="M10.453 100.05h20.863v7.825H10.453Zm0 0"/><g clip-path="url(#o)"><path fill="#FFF" d="M3.84 103.96a1.583 1.583 0 1 0-3.166.003 1.583 1.583 0 0 0 3.166-.002m0 0"/></g><g clip-path="url(#p)"><path fill="none" stroke="#000" stroke-miterlimit="10" stroke-width=".39790674000000004" d="M3.84 103.961a1.583 1.583 0 1 0-3.166.002 1.583 1.583 0 0 0 3.166-.002Zm0 0"/></g><path stroke="#000" stroke-miterlimit="10" stroke-width=".39790674000000004" d="M41.098 103.961a1.583 1.583 0 1 0-3.166.002 1.583 1.583 0 0 0 3.166-.002Zm0 0"/><use xlink:href="#q" x="16.397" y="96.441"/><use xlink:href="#r" x="21.663" y="98.319"/><use xlink:href="#s" x="10.036" y="117.492"/><use xlink:href="#s" x="14.507" y="117.492"/><use xlink:href="#t" x="18.978" y="117.492"/><use xlink:href="#u" x="24.933" y="117.492"/><path fill="none" stroke="#000" stroke-miterlimit="10" stroke-width=".7948162200000001" d="m39.516 163.945 6.52 10.434h-13.04Zm0 0"/><path fill="none" stroke="#000" stroke-miterlimit="10" stroke-width=".39790674000000004" d="M39.516 163.945v10.434"/><path fill="none" stroke="#000" stroke-miterlimit="10" stroke-width=".7948162200000001" d="M32.996 163.945h13.04v2.09"/><path stroke="#000" stroke-miterlimit="10" stroke-width=".39790674000000004" d="M41.098 234.363a1.583 1.583 0 1 0-3.166.002 1.583 1.583 0 0 0 3.166-.002Zm0 0"/><g clip-path="url(#v)"><path fill="none" stroke="#000" stroke-miterlimit="10" stroke-width=".39790674000000004" d="M39.516 234.363v9.895"/></g><g clip-path="url(#w)"><path fill="none" stroke="#000" stroke-linecap="round" stroke-miterlimit="10" stroke-width=".7948162200000001" d="M33.578 244.258H45.45"/></g><use xlink:href="#f" x="35.133" y="209.57"/><use xlink:href="#x" x="37.011" y="204.813"/><use xlink:href="#y" x="35.133" y="200.108"/><use xlink:href="#z" x="35.133" y="195.637"/><use xlink:href="#A" x="35.133" y="191.166"/><use xlink:href="#B" x="35.133" y="189.315"/><use xlink:href="#C" x="35.133" y="183.36"/><path fill="none" stroke="#000" stroke-miterlimit="10" stroke-width=".39790674000000004" d="M39.516 103.961h8.195m20.863 0h8.2v13.973m0 0v17.511m0 20.864v30.367m0 20.863v26.824"/><path fill="none" stroke="#000" stroke-miterlimit="10" stroke-width=".7948162200000001" d="M47.71 100.05h20.864v7.825H47.711Zm0 0"/><use xlink:href="#q" x="53.655" y="96.441"/><use xlink:href="#D" x="58.921" y="98.319"/><use xlink:href="#E" x="47.293" y="117.492"/><use xlink:href="#F" x="51.764" y="117.492"/><use xlink:href="#t" x="56.235" y="117.492"/><use xlink:href="#u" x="62.19" y="117.492"/><path fill="none" stroke="#000" stroke-miterlimit="10" stroke-width=".7948162200000001" d="M80.422 135.445v20.864h-7.3v-20.864ZM85.898 151.094 68.16 140.957"/><path fill="none" stroke="#000" stroke-miterlimit="10" stroke-width=".7947763700000001" d="m66.46 143.531 3.056-5.347"/><use xlink:href="#q" x="88.422" y="148.024"/><use xlink:href="#G" x="93.689" y="149.902"/><use xlink:href="#B" x="65.014" y="155.789"/><use xlink:href="#B" x="65.014" y="151.318"/><use xlink:href="#H" x="65.014" y="146.847"/><use xlink:href="#I" x="65.014" y="140.892"/><path fill="none" stroke="#000" stroke-miterlimit="10" stroke-width=".7948162200000001" d="M72.86 207.54v-20.864h7.824v20.863Zm0 0"/><path stroke="#000" stroke-miterlimit="10" stroke-width=".39790674000000004" d="M78.355 234.363a1.583 1.583 0 1 0-3.165.002 1.583 1.583 0 0 0 3.165-.002Zm0 0"/><use xlink:href="#J" x="68.903" y="214.666"/><use xlink:href="#K" x="70.781" y="209.4"/><use xlink:href="#y" x="68.903" y="205.689"/><use xlink:href="#L" x="68.903" y="201.218"/><use xlink:href="#M" x="68.903" y="196.747"/><use xlink:href="#H" x="68.903" y="192.276"/><use xlink:href="#I" x="68.903" y="186.321"/><path fill="none" stroke="#000" stroke-miterlimit="10" stroke-width=".39790674000000004" d="M85.898 151.094h9.317m0 0h9.312v4.375m0 0v31.207m0 20.863v26.824"/><path stroke="#000" stroke-miterlimit="10" stroke-width=".39790674000000004" d="M106.113 151.094a1.584 1.584 0 0 0-3.168 0 1.583 1.583 0 0 0 3.168 0Zm0 0"/><path fill="none" stroke="#000" stroke-miterlimit="10" stroke-width=".7948162200000001" d="M100.617 207.54v-20.864h7.824v20.863Zm0 0"/><path stroke="#000" stroke-miterlimit="10" stroke-width=".39790674000000004" d="M106.113 234.363a1.584 1.584 0 0 0-3.168 0 1.583 1.583 0 0 0 3.168 0Zm0 0"/><use xlink:href="#J" x="96.723" y="215.587"/><use xlink:href="#N" x="98.601" y="210.32"/><use xlink:href="#y" x="96.723" y="206.609"/><use xlink:href="#z" x="96.723" y="202.138"/><use xlink:href="#A" x="96.723" y="197.667"/><use xlink:href="#O" x="96.723" y="195.816"/><use xlink:href="#P" x="96.723" y="189.861"/><use xlink:href="#I" x="96.723" y="185.122"/><path fill="none" stroke="#000" stroke-miterlimit="10" stroke-width=".39790674000000004" d="M104.527 151.094h16.301m0 0h16.3v39.027m0 5.215v39.027"/><path fill="none" stroke="#000" stroke-miterlimit="10" stroke-width=".7948162200000001" d="M144.953 190.121h-15.648m15.648 5.215h-15.648"/><path stroke="#000" stroke-miterlimit="10" stroke-width=".39790674000000004" d="M138.71 234.363a1.58 1.58 0 0 0-1.581-1.582 1.58 1.58 0 0 0-1.582 1.582 1.58 1.58 0 0 0 1.582 1.582 1.58 1.58 0 0 0 1.582-1.582Zm0 0"/><use xlink:href="#Q" x="125.021" y="214.136"/><use xlink:href="#N" x="126.899" y="209.245"/><use xlink:href="#k" x="125.021" y="203.05"/><use xlink:href="#l" x="125.021" y="194.779"/><use xlink:href="#R" x="125.021" y="190.621"/><use xlink:href="#R" x="125.021" y="186.463"/><use xlink:href="#S" x="125.021" y="180.812"/><use xlink:href="#T" x="125.021" y="175.965"/><path fill="none" stroke="#000" stroke-miterlimit="10" stroke-width=".39790674000000004" d="M104.527 151.094v-36.14m0-20.864V48.633m0 0V39.32"/><path fill="none" stroke="#000" stroke-miterlimit="10" stroke-width=".7948162200000001" d="M108.441 94.09v20.863h-7.824V94.09Zm0 0"/><use xlink:href="#q" x="89.638" y="106.668"/><use xlink:href="#U" x="94.904" y="108.546"/><use xlink:href="#M" x="116.719" y="112.197"/><use xlink:href="#L" x="116.719" y="107.726"/><use xlink:href="#I" x="116.719" y="101.771"/><path fill="none" stroke="#000" stroke-linejoin="bevel" stroke-miterlimit="10" stroke-width=".7948162200000001" d="M59.289 28.488c2.16 0 3.91 1.215 3.91 2.707 0 1.496-1.75 2.711-3.91 2.711 2.16 0 3.91 1.211 3.91 2.707 0 1.493-1.75 2.707-3.91 2.707 2.16 0 3.91 1.211 3.91 2.707s-1.75 2.707-3.91 2.707c2.16 0 3.91 1.211 3.91 2.707 0 1.497-1.75 2.707-3.91 2.707M75.254 50.148c-2.16 0-3.91-1.21-3.91-2.707s1.75-2.707 3.91-2.707c-2.16 0-3.91-1.21-3.91-2.707s1.75-2.707 3.91-2.707c-2.16 0-3.91-1.214-3.91-2.707 0-1.496 1.75-2.707 3.91-2.707-2.16 0-3.91-1.215-3.91-2.71 0-1.493 1.75-2.708 3.91-2.708"/><path fill="none" stroke="#000" stroke-miterlimit="10" stroke-width=".39790674000000004" d="M59.445 19.758v9.129m0 20.863v9.129m15.649-39.121v9.129m0 20.863v9.129"/><path fill="none" stroke="#000" stroke-miterlimit="10" stroke-width=".7948162200000001" d="M68.25 49.098V29.539m-1.957 19.559V29.539"/><use xlink:href="#V" x="30.855" y="41.73"/><use xlink:href="#r" x="34.906" y="43.607"/><use xlink:href="#W" x="40.548" y="41.73"/><use xlink:href="#X" x="42.9" y="41.73"/><use xlink:href="#Y" x="47.371" y="41.73"/><use xlink:href="#Z" x="49.446" y="41.73"/><use xlink:href="#aa" x="53.917" y="41.73"/><path fill="none" stroke="#000" stroke-miterlimit="10" stroke-width=".39790674000000004" d="M59.445 58.879v9.894"/><path fill="none" stroke="#000" stroke-linecap="round" stroke-miterlimit="10" stroke-width=".7948162200000001" d="M53.512 68.773h11.87"/><path fill="none" stroke="#000" stroke-miterlimit="10" stroke-width=".39790674000000004" d="M59.445 19.758H30.852m0 0H2.258"/><g clip-path="url(#ab)"><path fill="#FFF" d="M3.84 19.758c0-.871-.711-1.582-1.582-1.582-.875 0-1.586.71-1.586 1.582 0 .875.71 1.586 1.586 1.586.87 0 1.582-.711 1.582-1.586m0 0"/></g><g clip-path="url(#ac)"><path fill="none" stroke="#000" stroke-miterlimit="10" stroke-width=".39790674000000004" d="M3.84 19.758c0-.871-.711-1.582-1.582-1.582-.875 0-1.586.71-1.586 1.582 0 .875.71 1.586 1.586 1.586.87 0 1.582-.711 1.582-1.586Zm0 0"/></g><use xlink:href="#ad" x="5.436" y="14.634"/><use xlink:href="#ae" x="11.963" y="14.634"/><use xlink:href="#af" x="16.3" y="16.512"/><use xlink:href="#ag" x="18.425" y="16.512"/><path fill="none" stroke="#000" stroke-miterlimit="10" stroke-width=".39790674000000004" d="M104.527 39.32H89.812m0 0H75.094"/><path stroke="#000" stroke-miterlimit="10" stroke-width=".39790674000000004" d="M76.68 39.32a1.584 1.584 0 0 0-3.168 0 1.583 1.583 0 0 0 3.168 0Zm0 0"/><path fill="none" stroke="#000" stroke-miterlimit="10" stroke-width=".39790674000000004" d="M75.094 19.758h18.629m0 0h18.629M130.61.195V9.72h-9.13"/><path fill="none" stroke="#000" stroke-miterlimit="10" stroke-width=".7948162200000001" d="M121.48 7.566v3.946m0 1.433v3.586m0 1.434v3.945"/><path fill="none" stroke="#000" stroke-miterlimit="10" stroke-width=".39790674000000004" d="M121.48 14.738h9.329m-9.329 5.02h9.13v9.523"/><path fill="none" stroke="#000" stroke-miterlimit="10" stroke-width=".7948162200000001" d="M119.289 9.52v10.437"/><path d="M127.063 14.738v2.282l-5.098-2.282 5.097-2.281Zm0 0"/><path fill="none" stroke="#000" stroke-miterlimit="10" stroke-width=".39790674000000004" d="M119.289 19.758h-7.133M130.61 14.738v14.344"/><path stroke="#000" stroke-miterlimit="10" stroke-width=".39790674000000004" d="M131.719 19.758c0-.61-.496-1.106-1.11-1.106a1.108 1.108 0 1 0 0 2.215c.614 0 1.11-.496 1.11-1.11Zm0 0"/><path fill="none" stroke="#000" stroke-miterlimit="10" stroke-width=".39790674000000004" d="M75.094 58.879h18.629m0 0h18.629M130.61 78.441v-9.52h-9.13"/><path fill="none" stroke="#000" stroke-miterlimit="10" stroke-width=".7948162200000001" d="M121.48 71.07V67.13m0-1.438v-3.585m0-1.434v-3.945"/><path fill="none" stroke="#000" stroke-miterlimit="10" stroke-width=".39790674000000004" d="M121.48 63.898h9.329m-9.329-5.02h9.13v-9.522"/><path fill="none" stroke="#000" stroke-miterlimit="10" stroke-width=".7948162200000001" d="M119.289 69.121V58.68"/><path d="M127.063 63.898v-2.277l-5.098 2.277 5.097 2.282Zm0 0"/><path fill="none" stroke="#000" stroke-miterlimit="10" stroke-width=".39790674000000004" d="M119.289 58.879h-7.133M130.61 63.898V49.555"/><path stroke="#000" stroke-miterlimit="10" stroke-width=".39790674000000004" d="M131.719 58.879a1.109 1.109 0 1 1-2.218.001 1.109 1.109 0 0 1 2.218-.001Zm0 0"/><path fill="none" stroke="#000" stroke-miterlimit="10" stroke-width=".39790674000000004" d="M130.61 29.082V39.32m0 0v10.235M130.61 39.32h-4.657m0 0h-4.656"/><path stroke="#000" stroke-miterlimit="10" stroke-width=".39790674000000004" d="M132.191 39.32a1.58 1.58 0 0 0-1.582-1.582 1.58 1.58 0 0 0-1.582 1.582 1.58 1.58 0 0 0 1.582 1.582 1.58 1.58 0 0 0 1.582-1.582Zm0 0"/><path fill="none" stroke="#000" stroke-miterlimit="10" stroke-width=".39790674000000004" d="M121.297 39.32v9.895"/><path fill="none" stroke="#000" stroke-linecap="round" stroke-miterlimit="10" stroke-width=".7948162200000001" d="M115.36 49.215h11.87"/><path fill="none" stroke="#000" stroke-miterlimit="10" stroke-width=".39790674000000004" d="M130.61.395h18.628m0 0h18.63v9.683m0 0v9.68"/><path fill="none" stroke="#000" stroke-linejoin="bevel" stroke-miterlimit="10" stroke-width=".7948162200000001" d="M167.707 28.488c2.16 0 3.914 1.215 3.914 2.707 0 1.496-1.754 2.711-3.914 2.711 2.16 0 3.914 1.211 3.914 2.707 0 1.493-1.754 2.707-3.914 2.707 2.16 0 3.914 1.211 3.914 2.707s-1.754 2.707-3.914 2.707c2.16 0 3.914 1.211 3.914 2.707 0 1.497-1.754 2.707-3.914 2.707M183.676 50.148c-2.16 0-3.914-1.21-3.914-2.707s1.754-2.707 3.914-2.707c-2.16 0-3.914-1.21-3.914-2.707s1.754-2.707 3.914-2.707c-2.16 0-3.914-1.214-3.914-2.707 0-1.496 1.754-2.707 3.914-2.707-2.16 0-3.914-1.215-3.914-2.71 0-1.493 1.754-2.708 3.914-2.708"/><path fill="none" stroke="#000" stroke-miterlimit="10" stroke-width=".39790674000000004" d="M167.867 19.758v9.129m0 20.863v9.129m15.649-39.121v9.129m0 20.863v9.129"/><path fill="none" stroke="#000" stroke-miterlimit="10" stroke-width=".7948162200000001" d="M176.668 49.098V29.539m-1.953 19.559V29.539"/><use xlink:href="#V" x="186.693" y="41.73"/><use xlink:href="#D" x="190.743" y="43.607"/><use xlink:href="#W" x="196.386" y="41.73"/><use xlink:href="#Z" x="198.738" y="41.73"/><use xlink:href="#Y" x="203.209" y="41.73"/><use xlink:href="#ah" x="205.283" y="41.73"/><use xlink:href="#aa" x="209.754" y="41.73"/><path fill="none" stroke="#000" stroke-miterlimit="10" stroke-width=".39790674000000004" d="M183.516 58.879v9.894"/><path fill="none" stroke="#000" stroke-linecap="round" stroke-miterlimit="10" stroke-width=".7948162200000001" d="M177.578 68.773h11.875"/><path fill="none" stroke="#000" stroke-miterlimit="10" stroke-width=".39790674000000004" d="M183.516 19.758h21.144m0 0h21.145"/><path fill="#FFF" d="M227.387 19.758a1.583 1.583 0 1 0-3.162.002 1.583 1.583 0 0 0 3.162-.002m0 0"/><g clip-path="url(#ai)"><path fill="none" stroke="#000" stroke-miterlimit="10" stroke-width=".39790674000000004" d="M227.387 19.758a1.583 1.583 0 1 0-3.162.002 1.583 1.583 0 0 0 3.162-.002Zm0 0"/></g><use xlink:href="#ad" x="197.352" y="14.634"/><use xlink:href="#ae" x="203.88" y="14.634"/><use xlink:href="#aj" x="208.217" y="16.512"/><use xlink:href="#ak" x="213.238" y="16.512"/><use xlink:href="#al" x="217.967" y="16.512"/><path fill="none" stroke="#000" stroke-miterlimit="10" stroke-width=".39790674000000004" d="M130.61 78.246h37.257V58.88"/><path fill="none" stroke="#000" stroke-miterlimit="10" stroke-width=".39790674000000004" d="M167.867 39.32h-4.656m0 0h-4.656v32.32m0 0v66.973m0 5.215v62.594m0 0v27.941"/><path stroke="#000" stroke-miterlimit="10" stroke-width=".39790674000000004" d="M169.45 39.32a1.58 1.58 0 0 0-1.583-1.582 1.58 1.58 0 0 0-1.582 1.582 1.58 1.58 0 0 0 1.582 1.582 1.58 1.58 0 0 0 1.582-1.582Zm0 0"/><path fill="none" stroke="#000" stroke-miterlimit="10" stroke-width=".7948162200000001" d="M166.379 138.613H150.73m15.649 5.215H150.73"/><use xlink:href="#Q" x="146.443" y="162.627"/><use xlink:href="#am" x="148.321" y="157.735"/><use xlink:href="#k" x="146.443" y="151.54"/><use xlink:href="#l" x="146.443" y="143.269"/><use xlink:href="#R" x="146.443" y="139.111"/><use xlink:href="#R" x="146.443" y="134.953"/><use xlink:href="#S" x="146.443" y="129.302"/><use xlink:href="#T" x="146.443" y="124.455"/><path stroke="#000" stroke-miterlimit="10" stroke-width=".39790674000000004" d="M160.137 234.363a1.583 1.583 0 1 0-3.166.002 1.583 1.583 0 0 0 3.166-.002Zm0 0"/><path fill="none" stroke="#000" stroke-miterlimit="10" stroke-width=".39790674000000004" d="M158.555 103.961h8.195m20.863 0h23.196m0 0h14.996"/><path fill="none" stroke="#000" stroke-linejoin="bevel" stroke-miterlimit="10" stroke-width=".7948162200000001" d="M166.352 104.121c0-2.16 1.21-3.914 2.707-3.914s2.707 1.754 2.707 3.914c0-2.16 1.214-3.914 2.707-3.914 1.496 0 2.71 1.754 2.71 3.914 0-2.16 1.211-3.914 2.708-3.914 1.492 0 2.707 1.754 2.707 3.914 0-2.16 1.21-3.914 2.707-3.914s2.707 1.754 2.707 3.914"/><path stroke="#000" stroke-miterlimit="10" stroke-width=".39790674000000004" d="M160.137 103.961a1.583 1.583 0 1 0-3.166.002 1.583 1.583 0 0 0 3.166-.002ZM197.394 103.961a1.583 1.583 0 1 0-3.165.002 1.583 1.583 0 0 0 3.165-.002Zm0 0"/><path fill="#FFF" d="M227.387 103.96a1.583 1.583 0 1 0-3.166.003 1.583 1.583 0 0 0 3.166-.002m0 0"/><g clip-path="url(#an)"><path fill="none" stroke="#000" stroke-miterlimit="10" stroke-width=".39790674000000004" d="M227.387 103.961a1.583 1.583 0 1 0-3.166.002 1.583 1.583 0 0 0 3.166-.002Zm0 0"/></g><use xlink:href="#Z" x="169.927" y="94.976"/><use xlink:href="#t" x="174.397" y="94.976"/><use xlink:href="#t" x="178.868" y="94.976"/><use xlink:href="#ao" x="184.824" y="94.976"/><use xlink:href="#ap" x="189.751" y="94.976"/><path fill="none" stroke="#000" stroke-miterlimit="10" stroke-width=".39790674000000004" d="M195.812 103.961v23.566m0 0v62.594m0 5.215v39.027"/><path fill="none" stroke="#000" stroke-miterlimit="10" stroke-width=".7948162200000001" d="M203.637 190.121h-15.649m15.649 5.215h-15.649"/><use xlink:href="#Q" x="183.643" y="214.163"/><use xlink:href="#aq" x="185.521" y="209.272"/><use xlink:href="#k" x="183.643" y="203.077"/><use xlink:href="#ar" x="183.643" y="194.806"/><use xlink:href="#as" x="183.643" y="190.648"/><use xlink:href="#R" x="183.643" y="186.49"/><use xlink:href="#S" x="183.643" y="180.839"/><use xlink:href="#T" x="183.643" y="175.992"/><path fill="none" stroke="#000" stroke-dasharray="2.9806406058 2.9806406058" stroke-miterlimit="10" stroke-width=".39790674000000004" d="M166.75 98.063h20.863"/><use xlink:href="#at" x="79.74" y="132.267"/><use xlink:href="#au" x="89.078" y="158.22"/><use xlink:href="#av" x="70.822" y="163.436"/><path fill="none" stroke="#000" stroke-miterlimit="10" stroke-width=".39790674000000004" d="M216.488 123.473v91.379"/><path stroke="#000" stroke-miterlimit="10" stroke-width=".39790674000000004" d="M216.488 210.648h-1.976l1.976 4.204 1.98-4.204Zm0 0"/><use xlink:href="#f" x="226.096" y="189.949"/><use xlink:href="#aw" x="227.974" y="185.192"/><use xlink:href="#aw" x="227.974" y="180.177"/><use xlink:href="#k" x="226.096" y="172.294"/><use xlink:href="#ax" x="226.096" y="164.023"/><use xlink:href="#R" x="226.096" y="159.865"/><use xlink:href="#n" x="226.096" y="154.214"/></svg>