<svg xmlns="http://www.w3.org/2000/svg" xmlns:xlink="http://www.w3.org/1999/xlink" width="228.416" height="192.045"><defs><path id="b" d="M2.313-6.156q2.514.001 2.515 1.718 0 .893-.61 1.375-.626.516-1.859.516h-.484v2.063l.703.125q.124.017.125.093 0 .066-.094.266H.422a.16.16 0 0 1-.016-.078Q.404-.324.72-.406l.375-.078v-5.203l-.547-.125C.46-5.82.422-5.852.422-5.906q0-.075.094-.25Zm-.016 3.125q.856 0 1.297-.375Q4-3.764 4-4.391 3.998-5.64 2.297-5.64h-.422v2.61Zm0 0"/><path id="c" d="M3.422-.422q.545 0 .984-.187l.282-1.188a.6.6 0 0 1 .203-.031c.156 0 .234.133.234.39l-.047.97Q4.375.11 3.25.108q-1.19 0-1.906-.703C.758-1.133.469-1.954.469-3.047c0-1.05.32-1.867.969-2.453.55-.508 1.218-.766 2-.766q.996.001 1.687.407.047.645.047.937 0 .391-.281.39a.5.5 0 0 1-.188-.03L4.5-5.453a1.9 1.9 0 0 0-1.062-.297q-.939 0-1.5.61c-.43.46-.641 1.124-.641 2q-.001 1.375.625 2.078c.375.43.875.64 1.5.64m0 0"/><path id="d" d="M3.188-5.531a1.8 1.8 0 0 0-.891-.25q-.518.001-.813.265-.28.269-.28.72 0 .391.234.655a2.3 2.3 0 0 0 .5.344l.843.453c.438.242.742.465.922.672q.359.41.36 1 0 .785-.516 1.266-.551.516-1.453.515a3.46 3.46 0 0 1-1.5-.359q-.047-.482-.047-1 0-.389.281-.39.075 0 .188.046l.218.938q.386.298.938.297.575 0 .89-.328.296-.295.297-.782-.002-.406-.296-.687-.204-.187-.907-.578l-.562-.313c-.344-.195-.602-.398-.766-.61Q.515-4.06.516-4.64q-.002-.749.547-1.187.515-.437 1.359-.438.764 0 1.375.329.03.643.031.859-.001.391-.265.39a.5.5 0 0 1-.204-.046Zm0 0"/><path id="e" d="M2.36-6.156q3.562.001 3.562 2.984 0 1.583-.938 2.39C4.367-.257 3.492 0 2.36 0H.422a.16.16 0 0 1-.016-.078Q.404-.324.72-.406l.375-.078v-5.203l-.547-.125C.46-5.82.422-5.852.422-5.906q0-.075.094-.25ZM2.343-.5q1.313 0 2.015-.672c.477-.445.72-1.101.72-1.969 0-.832-.243-1.457-.72-1.875q-.702-.639-2.015-.64h-.469V-.5Zm0 0"/><path id="f" d="M2.734-2.64a5 5 0 0 1-.375.015h-.484v2.14l.61.126q.123.017.124.093 0 .048-.093.266H.422a.16.16 0 0 1-.016-.078Q.404-.324.72-.406l.375-.078v-5.203l-.547-.125C.46-5.82.422-5.852.422-5.906q0-.075.094-.25h1.797q2.514.001 2.515 1.718c0 .844-.43 1.399-1.281 1.657L5.062-.47l.422.11q.124.034.125.093 0 .048-.093.266H4.328Zm-.437-.454Q3.998-3.092 4-4.39 3.998-5.64 2.297-5.64h-.422v2.547Zm0 0"/><path id="g" d="M.422 0a.16.16 0 0 1-.016-.078Q.404-.324.72-.406l.375-.078v-5.203l-.547-.125C.46-5.82.422-5.852.422-5.906q0-.075.094-.25h2.078v.078c0 .156-.102.262-.297.312l-.422.079v5.171h2.063l.234-1.046a.7.7 0 0 1 .203-.032q.234 0 .234.36Q4.61-.78 4.516 0Zm0 0"/><path id="h" d="M6.25-6.156c.008.023.016.047.016.078q-.001.236-.313.312l-.406.079V0H5L1.656-5.187h-.031v4.703l.625.125q.124.017.125.093 0 .048-.094.266H.421a.16.16 0 0 1-.015-.078Q.404-.324.72-.406l.375-.078v-5.203l-.547-.125C.46-5.82.422-5.852.422-5.906q0-.075.094-.25h1.422l3.046 4.719H5v-4.25l-.547-.125c-.086-.008-.125-.04-.125-.094q0-.075.094-.25Zm0 0"/><path id="i" d="M2.547-6.156q2.28 0 2.281 1.547c0 .804-.433 1.28-1.297 1.437v.016q1.453.206 1.453 1.437-.001.767-.593 1.235C3.96-.16 3.375 0 2.625 0H.422a.16.16 0 0 1-.016-.078Q.404-.324.72-.406l.375-.078v-5.203l-.547-.125C.46-5.82.422-5.852.422-5.906q0-.075.094-.25ZM2.53-.5q.811.001 1.235-.344c.257-.219.39-.508.39-.875q0-.527-.406-.843-.41-.312-1.172-.313h-.703V-.5ZM2.47-3.344q.78.001 1.203-.344.359-.294.36-.812c0-.77-.524-1.156-1.563-1.156h-.594v2.312Zm0 0"/><path id="j" d="M2.031-.578V-5l-1.344.266a1 1 0 0 1-.015-.188c0-.133.07-.226.219-.281l1.468-.594h.438v5.219l1.094.172q.14.016.14.11-.002.08-.11.296H.86v-.078q0-.311.282-.36Zm0 0"/><path id="k" d="M2.234-.39q1.092.001 1.094-2.516c0-1.664-.367-2.5-1.094-2.5-.73 0-1.093.836-1.093 2.5 0 1.68.363 2.515 1.093 2.515m-.046.5q-.862 0-1.36-.75Q.296-1.42.297-2.907c0-.977.187-1.735.562-2.266.352-.488.829-.734 1.422-.734q.873.001 1.36.734c.343.531.515 1.29.515 2.266q0 1.487-.562 2.265-.516.75-1.406.75m0 0"/><path id="l" d="M5.86-2.906v.094c0 .148-.102.246-.298.296l-.203.047v1.89C4.867-.116 4.15.11 3.203.11q-1.22 0-1.937-.765-.797-.845-.797-2.39-.002-1.607 1.015-2.485.873-.734 2.125-.735.576 0 1.063.141.06.018.594.234.046.643.046.922-.001.391-.265.39a.5.5 0 0 1-.188-.03l-.203-.86q-.44-.28-1.11-.281-.936 0-1.546.61-.703.688-.703 2c0 .874.191 1.554.578 2.03.375.462.883.688 1.531.688.438 0 .828-.07 1.172-.219v-1.78l-.547-.126q-.127-.029-.125-.11 0-.074.094-.25Zm0 0"/><path id="m" d="M2.594-6.156v.078c0 .156-.102.262-.297.312l-.422.079v2.28h2.984v-2.28l-.562-.125c-.086-.008-.125-.04-.125-.094q-.001-.075.11-.25h2.062q.013.033.015.078 0 .236-.312.312l-.422.079v5.203l.625.125q.124.017.125.093c0 .032-.04.121-.11.266H4.173v-.078q0-.246.297-.328l.39-.078v-2.391H1.875v2.39l.61.126q.123.017.124.093 0 .048-.093.266H.422a.16.16 0 0 1-.016-.078Q.404-.324.72-.406l.375-.078v-5.203l-.547-.125C.46-5.82.422-5.852.422-5.906q0-.075.094-.25Zm0 0"/><path id="n" d="M.469-3.406q0-.311.062-.875h2.89q.048.08.048.172c0 .093-.04.199-.11.312L1.141-.469v.016h1.734l.328-.89h.14q.249.001.25.265 0 .093-.124 1.078H.406a.6.6 0 0 1-.094-.328q0-.124.094-.266l2.14-3.234v-.016H1.095l-.25.735a.6.6 0 0 1-.125.015c-.168 0-.25-.101-.25-.312m0 0"/><path id="o" d="m.422-.453 1.5-1.719q.89-1.015.89-2-.001-1.249-.906-1.25-.363.001-.703.172-.112.364-.125.89-.11.017-.203.016c-.281 0-.422-.117-.422-.36q0-.544.422-.874.42-.328 1.156-.328.715 0 1.172.422.451.409.453 1.14 0 .691-.422 1.36-.268.44-.906 1.125L1.344-.797v.016h2.031l.188-.766q.058-.047.187-.047.218 0 .219.36 0 .344-.094 1.234H.5Zm0 0"/><path id="p" d="M.89-.922q.248.002.407.203.17.204.172.578 0 .592-.375.985-.316.328-.61.328c-.093 0-.164-.078-.203-.234q.574-.3.61-.891a.5.5 0 0 1-.344-.125.47.47 0 0 1-.14-.344c0-.156.038-.273.124-.36a.48.48 0 0 1 .36-.14m0 0"/><path id="q" d="m.125-1.984 2.531-3.782.656-.062v3.64h.75l-.03.672h-.72v1.032l.626.125q.123.017.124.093 0 .048-.093.266H1.906v-.078q0-.246.297-.328l.39-.078v-1.032H.157Zm.734-.203h1.735v-2.704h-.031L.859-2.219Zm0 0"/><path id="u" d="M4.453-5.687H3.031v5.203l.61.125q.124.017.125.093 0 .048-.094.266h-2.11v-.078q0-.246.297-.328l.391-.078v-5.203H.828L.61-4.75a.4.4 0 0 1-.187.047c-.18 0-.266-.129-.266-.39q0-.234.063-1.063h4.828q.06.83.062 1.062c0 .262-.086.39-.25.39a.44.44 0 0 1-.203-.046Zm0 0"/><path id="v" d="M2.188-6.156c.007.023.015.047.015.078q-.002.253-.297.312l-.328.079L2.75-3.72h.031l1.25-1.984-.593-.094q-.127-.014-.126-.11 0-.074.094-.25h1.797v.079q-.002.252-.297.328l-.297.063L3.063-3.25 4.75-.469l.422.11q.124.034.125.093c0 .032-.04.121-.11.266h-1.89v-.078q0-.264.297-.328l.281-.047-1.281-2.125h-.016L1.266-.453l.562.094q.124.017.125.093A.6.6 0 0 1 1.86 0H.047v-.078q0-.264.297-.328l.25-.063L2.28-3.062.671-5.687l-.437-.11C.148-5.805.11-5.844.11-5.907q0-.074.11-.25Zm0 0"/><path id="w" d="M3.266-.39q.903 0 1.437-.72.53-.714.531-1.968 0-1.232-.546-1.953-.552-.734-1.454-.735c-.605 0-1.078.243-1.421.72q-.516.72-.516 1.968 0 1.254.531 1.969.528.719 1.438.718m-.047.5q-1.22 0-1.969-.813Q.467-1.56.469-3.078c0-1 .273-1.79.828-2.375q.78-.812 2.016-.813c.843 0 1.507.274 2 .813q.75.844.75 2.375-.001 1.519-.829 2.375Q4.45.11 3.22.109m0 0"/><path id="x" d="M5.828-6.156v.078q-.002.252-.297.328l-.234.047L3.28 0h-.734L.453-5.687l-.375-.11q-.124-.014-.125-.11c0-.05.035-.132.094-.25H2.03c.008.024.016.048.016.079q-.001.253-.313.312l-.375.079L3-.907h.031L4.72-5.702l-.688-.11q-.127-.011-.125-.093 0-.075.094-.25Zm0 0"/><path id="y" d="M-1.984-3.14v2.812h-.375v-2.813Zm0 0"/><path id="z" d="M-4.516-.875v-1.984l.61.046v1.626l1.094.093q.046-1.014.421-1.453.364-.422 1.079-.422.579 0 .984.422c.273.274.406.625.406 1.063q-.002.563-.203.843a.46.46 0 0 1-.39.22q-.311.002-.422-.313.28-.124.375-.22c.18-.155.265-.366.265-.64q.002-.405-.265-.656a.87.87 0 0 0-.625-.234q-.575.002-.829.437-.248.44-.25 1.39Zm0 0"/><path id="A" d="M-.39-2.656v.031q.468.346.468.984c0 .375-.117.684-.36.922-.28.274-.706.407-1.28.407q-.921.001-1.407-.532-.435-.468-.437-1.172 0-.311.078-.593H-4.61l-.079.5q-.011.016-.046.015-.2.002-.22-.265l-.077-.813h4.656l.063-.5q.033-.014.062-.015.19.001.203.265l.094.766Zm.015.86q0-.516-.297-.813h-2.11c-.163.168-.25.39-.25.672a.95.95 0 0 0 .345.75q.376.297 1.015.296.673.002 1-.265a.77.77 0 0 0 .297-.64m0 0"/><path id="B" d="M-4.781-1.984q.002-1.782 1.187-1.782.938 0 1.125 1.032h.016q.158-1.139 1.11-1.141c.398 0 .718.156.968.469Q0-2.92 0-2.046v1.718a.1.1 0 0 1-.062.016q-.187 0-.25-.25L-.375-.86h-4.047l-.094.437q-.012.094-.078.094-.058.002-.187-.078Zm4.39.015q.002-.623-.265-.953-.247-.311-.688-.312-.405 0-.64.328-.248.314-.25.906v.547h1.843Zm-2.218.047c0-.406-.082-.71-.25-.922A.78.78 0 0 0-3.5-3.14q-.89 0-.89 1.22v.468h1.78Zm0 0"/><path id="C" d="m-.36-5.5.094-.422q.02-.093.079-.094c.062 0 .125.024.187.063v1.484h-.047q-.152.002-.234-.218l-.078-.25h-1.782q-.81 0-.812.656 0 .533.375.937.253-.047.406-.047h1.813l.093-.406c.012-.07.04-.11.079-.11A.3.3 0 0 1 0-3.827v1.469h-.047q-.152 0-.234-.203l-.078-.266h-1.782q-.81.002-.812.672.002.504.344.89h2.25l.093-.421q.02-.094.079-.094.094.002.187.062V-.25a.1.1 0 0 1-.047.016c-.101 0-.18-.07-.234-.22l-.078-.25h-2.594l-.063.5a.1.1 0 0 1-.062.016c-.125 0-.192-.085-.203-.265l-.094-.813.469.032v-.016q-.499-.48-.5-1.11 0-.62.547-.89-.546-.497-.547-1.187 0-.5.328-.782.315-.28.906-.281Zm0 0"/><path id="D" d="M-.437-1.578h-3.454l.204 1.047a.6.6 0 0 1-.141.015c-.102 0-.176-.054-.219-.171l-.469-1.141v-.344h4.079l.125-.86q.018-.093.078-.093A.7.7 0 0 1 0-3.047v2.375h-.062c-.165 0-.258-.07-.282-.219Zm0 0"/><path id="E" d="M-3.703-2.875c-.113.055-.223.14-.328.266a.92.92 0 0 0-.188.562q0 1.066 1.828 1.14a1.45 1.45 0 0 1-.312-.937q.002-.591.297-.937.329-.405.984-.406c.406 0 .758.132 1.047.39.305.274.453.625.453 1.063q0 .719-.61 1.093c-.374.243-.898.36-1.577.36q-.968 0-1.672-.469-.812-.514-.813-1.422.001-.48.172-.75.142-.248.36-.25c.187 0 .308.102.359.297m1.672 1.969q.879-.013 1.312-.266c.274-.156.407-.363.407-.625a.7.7 0 0 0-.266-.562c-.188-.157-.445-.235-.781-.235q-.938 0-.938.797.001.58.266.89m0 0"/><path id="F" d="m-1.547-.094-2.937-1.968-.047-.516h2.828v-.578l.531.031v.547h.797l.094-.485q.018-.093.078-.093.034 0 .203.078v1.594h-.062q-.187 0-.25-.235l-.063-.297h-.797v1.891Zm-.156-.578v-1.344h-2.094V-2l2.078 1.328Zm0 0"/><path id="G" d="M-2.453-1.078q-.14-1.172-.938-1.172-.827 0-.828.703c0 .211.055.39.157.547.187.055.402.078.64.078a1 1 0 0 1 .016.172q0 .328-.281.328a.78.78 0 0 1-.657-.344c-.164-.226-.25-.535-.25-.921 0-.364.102-.649.297-.86q.283-.328.781-.328.487 0 .797.328c.149.149.274.375.375.688h.016q.083-.546.375-.844a.93.93 0 0 1 .719-.313c.375 0 .687.149.937.438q.375.422.375 1.11-.002.562-.203.843a.51.51 0 0 1-.406.203q-.31 0-.422-.297.269-.106.39-.219c.18-.156.266-.375.266-.656 0-.508-.273-.765-.828-.765-.57 0-.895.43-.969 1.28Zm0 0"/><path id="H" d="M-.312-1.734c0-.57-.645-.86-1.938-.86-1.3 0-1.953.29-1.953.86q0 .86 1.953.859 1.939.001 1.938-.86m.39.03Q.08-1.027-.5-.64c-.406.274-.988.407-1.75.407q-1.156 0-1.766-.438c-.382-.27-.578-.633-.578-1.094 0-.457.196-.812.578-1.062q.61-.405 1.766-.406 1.142.002 1.75.437.58.41.578 1.094m0 0"/><path id="I" d="M-.719-.687q.001-.2.172-.329.158-.124.438-.125.45 0 .765.282.265.251.266.484 0 .11-.188.156Q.5-.669.047-.687c0 .105-.04.195-.11.265a.35.35 0 0 1-.265.11.38.38 0 0 1-.281-.11.37.37 0 0 1-.11-.265m0 0"/><path id="J" d="M-2.656-3.375v.016L0-2.437v.562L-4.437-.359l-.063.297q-.013.093-.094.093a.5.5 0 0 1-.187-.078v-1.562h.062q.187 0 .235.234l.062.313L-.688-2.25v-.016l-2.593-.906-1.156.36-.063.265q-.013.11-.094.11-.058.002-.187-.079v-1.546a.1.1 0 0 1 .062-.016q.187 0 .235.234l.062.313 3.734-1.047v-.016l-3.75-1.265-.078.547q-.012.093-.078.093a.5.5 0 0 1-.187-.078v-1.39h.062c.125 0 .211.078.25.234l.032.172L0-4.781v.562Zm0 0"/><path id="K" d="M-.36-.328-1.687-1.5q-.794-.686-1.562-.687-.968 0-.969.703 0 .281.14.562.283.065.688.078a1 1 0 0 1 .016.156q0 .345-.281.344a.8.8 0 0 1-.672-.328q-.265-.328-.266-.906 0-.562.328-.906.317-.36.891-.36.533 0 1.063.328.328.223.874.704l.813.765h.016v-1.578l-.594-.14a.3.3 0 0 1-.031-.141q.001-.188.265-.188.283.002.969.078V-.39Zm0 0"/><clipPath id="a"><path d="M.273 88H27v27H.273Zm0 0"/></clipPath><clipPath id="r"><path d="M63 113h2v78.094h-2Zm0 0"/></clipPath><clipPath id="s"><path d="M63 152h59v39.094H63Zm0 0"/></clipPath><clipPath id="t"><path d="M120 152h53v39.094h-53Zm0 0"/></clipPath></defs><g clip-path="url(#a)"><path fill="none" stroke="#000" stroke-miterlimit="10" stroke-width=".7930548500000001" d="M.672 88.89h25.117v25.118H.672Zm0 0"/></g><use xlink:href="#b" x="7.863" y="104.528"/><use xlink:href="#c" x="12.993" y="104.528"/><path fill="none" stroke="#000" stroke-miterlimit="10" stroke-width=".39702495000000004" d="M25.79 101.45h12.812m0 0h12.816"/><path d="M29.984 101.45v-1.973l-4.195 1.972 4.195 1.977Zm0 0"/><path fill="none" stroke="#000" stroke-miterlimit="10" stroke-width=".7930548500000001" d="M51.418 88.89h25.117v25.118H51.418Zm0 0"/><use xlink:href="#d" x="55.802" y="104.528"/><use xlink:href="#e" x="60.29" y="104.528"/><use xlink:href="#f" x="66.571" y="104.528"/><path d="M47.223 101.45v1.976l4.195-1.977-4.195-1.972Zm0 0"/><path fill="none" stroke="#000" stroke-miterlimit="10" stroke-width=".39702495000000004" d="M76.535 95.172h4.485m0 0h4.484v-16.02m0 0v-16.02h11.535m0 0h11.531"/><path d="M80.73 95.172v-1.977l-4.195 1.977 4.195 1.973Zm0 0"/><path fill="none" stroke="#000" stroke-miterlimit="10" stroke-width=".7930548500000001" d="M108.57 50.574h25.118v25.117H108.57Zm0 0"/><path fill="none" stroke="#000" stroke-miterlimit="10" stroke-width=".39702495000000004" d="M111.082 69.414h3.77m0 0v-3.77m0 3.77v3.766m2.511-3.766v-3.77m0 3.77v3.766m0-3.766h3.766"/><path d="M122.07 69.414a.943.943 0 0 0-.941-.945.943.943 0 0 0 0 1.886c.52 0 .941-.421.941-.94m0 0"/><path fill="none" stroke="#000" stroke-miterlimit="10" stroke-width=".39702495000000004" d="M121.129 69.414h10.047M121.129 69.414v-3.77M121.129 65.645a1.13 1.13 0 1 0 0-2.262m0 0a1.13 1.13 0 0 0 1.133-1.13 1.13 1.13 0 0 0-1.133-1.128m0 0c.625 0 1.133-.508 1.133-1.133 0-.62-.508-1.129-1.133-1.129m0-.25c.625 0 1.133-.508 1.133-1.133 0-.62-.508-1.128-1.133-1.128M121.129 56.602v-3.516M133.688 63.133h12.816m0 0h12.812"/><path d="M137.883 63.133V61.16l-4.196 1.973 4.196 1.976Zm0 0"/><path fill="none" stroke="#000" stroke-miterlimit="10" stroke-width=".7930548500000001" d="M159.316 50.574h25.118v25.117h-25.118Zm0 0"/><use xlink:href="#g" x="163.448" y="66.212"/><use xlink:href="#h" x="168.221" y="66.212"/><use xlink:href="#i" x="174.815" y="66.212"/><path fill="none" stroke="#000" stroke-miterlimit="10" stroke-width=".39702495000000004" d="M184.434 63.133h12.816m0 0h12.816V50.316m0 0V37.504"/><path fill="none" stroke="#000" stroke-linejoin="bevel" stroke-miterlimit="10" stroke-width=".7930548500000001" d="m210.066 37.504 8.97-17.942h-17.942Zm0 0"/><path fill="none" stroke="#000" stroke-miterlimit="10" stroke-width=".39702495000000004" d="M210.066 37.504V19.562"/><use xlink:href="#j" x="196.462" y="16.285"/><use xlink:href="#k" x="200.923" y="16.285"/><use xlink:href="#l" x="206.865" y="16.285"/><use xlink:href="#m" x="212.986" y="16.285"/><use xlink:href="#n" x="219.731" y="16.285"/><path fill="none" stroke="#000" stroke-miterlimit="10" stroke-width=".39702495000000004" d="M76.535 107.73h4.485m0 0h4.484v16.016m0 0v16.02h11.535m0 0h11.531"/><path d="M104.375 139.766v1.976l4.195-1.976-4.195-1.973Zm0 0"/><path fill="none" stroke="#000" stroke-miterlimit="10" stroke-width=".7930548500000001" d="M108.57 127.207h25.118v25.117H108.57Zm0 0"/><path fill="none" stroke="#000" stroke-miterlimit="10" stroke-width=".39702495000000004" d="m112.34 130.098 17.582 9.668-17.582 9.672ZM133.688 139.766h12.816m0 0h12.812"/><path d="M155.121 139.766v1.976l4.195-1.976-4.195-1.973Zm0 0"/><path fill="none" stroke="#000" stroke-miterlimit="10" stroke-width=".7930548500000001" d="M159.316 127.207h25.118v25.117h-25.118Zm0 0"/><path fill="none" stroke="#000" stroke-miterlimit="10" stroke-width=".39702495000000004" d="m163.086 130.098 17.582 9.668-17.582 9.672ZM184.434 139.766h12.816m0 0h12.816v-12.817m0 0v-12.812"/><path fill="none" stroke="#000" stroke-linejoin="bevel" stroke-miterlimit="10" stroke-width=".7930548500000001" d="m210.066 114.137-8.972-17.942h17.941Zm0 0"/><path fill="none" stroke="#000" stroke-miterlimit="10" stroke-width=".39702495000000004" d="M210.066 114.137V96.195"/><use xlink:href="#o" x="195.539" y="91.846"/><use xlink:href="#p" x="200" y="91.846"/><use xlink:href="#q" x="201.846" y="91.846"/><use xlink:href="#l" x="207.788" y="91.846"/><use xlink:href="#m" x="213.909" y="91.846"/><use xlink:href="#n" x="220.654" y="91.846"/><path fill="none" stroke="#000" stroke-miterlimit="10" stroke-width=".39702495000000004" d="M63.977 88.89V63.263m0 0v-25.63"/><path d="M63.977 84.695H62l1.977 4.196 1.972-4.196Zm0 0"/><path fill="none" stroke="#000" stroke-miterlimit="10" stroke-width=".7930548500000001" d="M51.418 12.516h25.117v25.117H51.418Zm0 0"/><path fill="none" stroke="#000" stroke-miterlimit="10" stroke-width=".39702495000000004" d="M65.547 19.422c.512-.805 1-1.57 1.57-1.57.567 0 1.055.765 1.567 1.57.511.805 1.004 1.57 1.57 1.57.57 0 1.059-.765 1.57-1.57M65.547 22.562c.512-.804 1-1.57 1.57-1.57.567 0 1.055.766 1.567 1.57.511.801 1.004 1.57 1.57 1.57.57 0 1.059-.769 1.57-1.57M65.547 25.7c.512-.802 1-1.567 1.57-1.567.567 0 1.055.765 1.567 1.566.511.805 1.004 1.57 1.57 1.57.57 0 1.059-.765 1.57-1.57"/><use xlink:href="#l" x="55.264" y="25.013"/><path fill="none" stroke="#000" stroke-miterlimit="10" stroke-width=".39702495000000004" d="M55.184 29.469h17.582M55.184 33.863h17.582v-2.511H55.184ZM55.184 35.746h17.582M121.129 50.574v-6.472m0 0v-6.47"/><path d="M121.129 46.379h-1.973l1.973 4.195 1.976-4.195Zm0 0"/><path fill="none" stroke="#000" stroke-miterlimit="10" stroke-width=".7930548500000001" d="M108.57 12.516h25.118v25.117H108.57Zm0 0"/><use xlink:href="#e" x="115.133" y="28.152"/><use xlink:href="#c" x="121.522" y="28.152"/><path fill="none" stroke="#000" stroke-miterlimit="10" stroke-width=".39702495000000004" d="M171.875 50.574v-6.472m0 0v-6.47"/><path d="M171.875 46.379h-1.973l1.973 4.195 1.977-4.195Zm0 0"/><path fill="none" stroke="#000" stroke-miterlimit="10" stroke-width=".7930548500000001" d="M159.316 12.516h25.118v25.117h-25.118Zm0 0"/><path fill="none" stroke="#000" stroke-miterlimit="10" stroke-width=".39702495000000004" d="M173.445 19.422c.512-.805 1.004-1.57 1.57-1.57.571 0 1.06.765 1.571 1.57.512.805 1 1.57 1.57 1.57.567 0 1.059-.765 1.57-1.57M173.445 22.562c.512-.804 1.004-1.57 1.57-1.57.571 0 1.06.766 1.571 1.57.512.801 1 1.57 1.57 1.57.567 0 1.059-.769 1.57-1.57M173.445 25.7c.512-.802 1.004-1.567 1.57-1.567.571 0 1.06.765 1.571 1.566.512.805 1 1.57 1.57 1.57.567 0 1.059-.765 1.57-1.57"/><use xlink:href="#l" x="163.164" y="25.013"/><path fill="none" stroke="#000" stroke-miterlimit="10" stroke-width=".39702495000000004" d="M163.086 29.469h17.582M163.086 33.863h17.582v-2.511h-17.582ZM163.086 35.746h17.582"/><g clip-path="url(#r)"><path fill="none" stroke="#000" stroke-dasharray="2.9740352915 2.9740352915" stroke-miterlimit="10" stroke-width=".39702495000000004" d="M63.977 114.008v38.445m0 0v38.445"/></g><g clip-path="url(#s)"><path fill="none" stroke="#000" stroke-dasharray="2.9740352915 2.9740352915" stroke-miterlimit="10" stroke-width=".39702495000000004" d="M63.977 190.898h57.152v-38.574"/></g><path d="M121.129 156.52h1.976l-1.976-4.196-1.973 4.196Zm0 0"/><g clip-path="url(#t)"><path fill="none" stroke="#000" stroke-dasharray="2.9740352915 2.9740352915" stroke-miterlimit="10" stroke-width=".39702495000000004" d="M121.129 190.898h50.746v-38.574"/></g><path d="M171.875 156.52h1.977l-1.977-4.196-1.973 4.196Zm0 0"/><use xlink:href="#u" x="52.698" y="9.237"/><use xlink:href="#v" x="57.98" y="9.237"/><use xlink:href="#c" x="63.163" y="9.237"/><use xlink:href="#w" x="68.722" y="9.237"/><use xlink:href="#u" x="160.597" y="9.237"/><use xlink:href="#v" x="165.879" y="9.237"/><use xlink:href="#c" x="171.063" y="9.237"/><use xlink:href="#w" x="176.621" y="9.237"/><use xlink:href="#b" x="45.11" y="155.531"/><use xlink:href="#u" x="50.24" y="155.531"/><use xlink:href="#u" x="55.522" y="155.531"/><use xlink:href="#j" x="113.034" y="9.345"/><use xlink:href="#o" x="117.495" y="9.345"/><use xlink:href="#x" x="123.437" y="9.345"/><use xlink:href="#y" x="99.515" y="136.594"/><use xlink:href="#z" x="99.515" y="133.124"/><use xlink:href="#A" x="99.515" y="128.502"/><use xlink:href="#B" x="99.515" y="124.672"/><use xlink:href="#C" x="99.515" y="120.404"/><use xlink:href="#D" x="148.979" y="136.594"/><use xlink:href="#E" x="148.979" y="133.124"/><use xlink:href="#A" x="148.979" y="128.502"/><use xlink:href="#B" x="148.979" y="124.672"/><use xlink:href="#C" x="148.979" y="120.404"/><use xlink:href="#F" x="199.725" y="136.594"/><use xlink:href="#G" x="199.725" y="133.124"/><use xlink:href="#A" x="199.725" y="128.502"/><use xlink:href="#B" x="199.725" y="124.672"/><use xlink:href="#C" x="199.725" y="120.404"/><use xlink:href="#H" x="98.974" y="164.85"/><use xlink:href="#I" x="98.974" y="161.381"/><use xlink:href="#G" x="98.974" y="159.944"/><use xlink:href="#C" x="98.974" y="155.323"/><use xlink:href="#J" x="98.974" y="149.584"/><use xlink:href="#F" x="148.855" y="163.413"/><use xlink:href="#H" x="148.855" y="159.944"/><use xlink:href="#C" x="148.855" y="155.322"/><use xlink:href="#J" x="148.855" y="149.583"/><use xlink:href="#K" x="199.6" y="157.682"/><use xlink:href="#H" x="199.6" y="154.212"/><use xlink:href="#J" x="199.6" y="149.591"/></svg>