<svg xmlns="http://www.w3.org/2000/svg" xmlns:xlink="http://www.w3.org/1999/xlink" width="226.729" height="125.683"><defs><path id="b" d="M5.86-2.906a.2.2 0 0 1 .015.078q0 .236-.312.312l-.204.047v1.89C4.867-.116 4.15.11 3.203.11q-1.207 0-1.937-.765Q.469-1.5.469-3.062q0-1.606 1.031-2.485.855-.733 2.11-.734.59.002 1.078.156.044.019.593.219.047.657.047.922-.001.408-.266.406a.44.44 0 0 1-.203-.047l-.187-.86q-.44-.264-1.11-.265-.953.002-1.562.594-.703.702-.703 2.015c0 .875.195 1.555.594 2.032.375.46.882.687 1.53.687.438 0 .821-.07 1.157-.219v-1.796l-.547-.126q-.127-.011-.125-.093 0-.076.094-.25Zm0 0"/><path id="d" d="M5.844-6.172v.078c0 .168-.102.278-.297.328l-.234.047L3.28 0h-.734L.453-5.703l-.375-.094q-.124-.03-.125-.125c0-.05.035-.133.094-.25H2.03c.008.031.016.059.016.078 0 .168-.102.274-.297.313l-.375.093 1.64 4.782h.016L4.734-5.72l-.687-.093q-.127-.029-.125-.11c0-.039.031-.125.094-.25Zm0 0"/><path id="e" d="M3.422-.422q.561 0 1-.187l.266-1.188a.7.7 0 0 1 .203-.031c.164 0 .25.133.25.39l-.047.97q-.72.578-1.828.577-1.19 0-1.922-.703C.758-1.133.469-1.957.469-3.062c0-1.04.32-1.86.969-2.454.55-.507 1.222-.765 2.015-.765q.982 0 1.672.406.047.644.047.938-.001.39-.266.39a.6.6 0 0 1-.203-.031l-.187-.89a2.03 2.03 0 0 0-1.063-.282c-.625 0-1.133.203-1.515.61-.43.46-.641 1.124-.641 2q-.001 1.375.625 2.078c.375.43.875.64 1.5.64m0 0"/><path id="f" d="M3.266-.39q.92 0 1.453-.72c.351-.476.531-1.132.531-1.968q0-1.248-.562-1.969-.552-.733-1.454-.734-.907.001-1.421.734-.516.72-.516 1.969 0 1.254.531 1.969.528.719 1.438.718m-.047.5q-1.22 0-1.969-.813Q.467-1.56.469-3.078q0-1.512.844-2.375.761-.827 2.015-.828 1.247 0 1.985.828c.507.562.765 1.355.765 2.375q0 1.501-.828 2.375-.784.813-2.031.812m0 0"/><path id="p" d="M.547-.375a.5.5 0 0 1 .125-.36.48.48 0 0 1 .36-.14c.132 0 .25.047.343.14a.47.47 0 0 1 .156.36.47.47 0 0 1-.156.36.5.5 0 0 1-.344.124.52.52 0 0 1-.36-.125.5.5 0 0 1-.124-.359m0-3.516a.5.5 0 0 1 .125-.359.48.48 0 0 1 .36-.14c.132 0 .25.046.343.14a.47.47 0 0 1 .156.36.47.47 0 0 1-.156.359.5.5 0 0 1-.344.125.5.5 0 0 1-.36-.125.5.5 0 0 1-.124-.36m0 0"/><path id="q" d="M.906-.469v-3.328l-.64-.094a.1.1 0 0 1-.016-.062q0-.246.328-.281l1.063-.11-.063.594h.031q.294-.293.516-.422.404-.217.953-.219c.438 0 .774.141 1.016.422q.375.41.375 1.172v2.328L5-.344q.124.017.125.11A.4.4 0 0 1 5.047 0H3.14v-.062c0-.133.093-.235.28-.297l.329-.11V-2.75q0-.545-.312-.828-.252-.218-.657-.219c-.43 0-.808.149-1.14.438v2.89l.53.125q.125.017.126.11A.35.35 0 0 1 2.203 0H.313a.1.1 0 0 1-.016-.062c0-.133.094-.235.281-.297Zm0 0"/><path id="r" d="m4.484-.484-.578-1.641H1.688l-.594 1.64.672.126q.124.017.125.093 0 .066-.094.266H-.078a.2.2 0 0 1-.016-.078Q-.096-.342.22-.406l.25-.063L2.64-6.172l.562-.062L5.343-.47l.391.11q.124.034.125.093 0 .048-.093.266H3.859a.16.16 0 0 1-.015-.078q-.002-.246.297-.328Zm-2.64-2.11h1.89l-.921-2.61h-.016Zm0 0"/><path id="s" d="M2.563-6.172q2.28 0 2.28 1.547 0 1.208-1.312 1.453v.016Q4.998-2.95 5-1.72q0 .767-.61 1.235Q3.764 0 2.626 0H.422a.16.16 0 0 1-.016-.078Q.404-.324.72-.406l.375-.078v-5.203l-.547-.125c-.086-.02-.125-.055-.125-.11q0-.075.094-.25ZM2.53-.5q.811.001 1.235-.344c.27-.219.406-.508.406-.875q0-.527-.422-.843-.41-.312-1.172-.313h-.703V-.5ZM2.47-3.36q.78 0 1.203-.328.375-.311.375-.828 0-1.155-1.578-1.156h-.594v2.313Zm0 0"/><path id="c" d="M3.234-.219 3.875-3c.25-1.094.578-1.375.969-1.375.39 0 .547.344.547.906 0 1.047-.485 3.016-2.157 3.25M3.063-4.5l-.141-.234c-.516.25-1.688 1.14-1.953 2.265-.063.313-.11.594-.11.875 0 1 .532 1.625 1.72 1.703-.22.922-.36 1.625-.36 2.079l.61.374.155-.203a1.8 1.8 0 0 1-.078-.546c0-.375.078-.891.266-1.704a3.355 3.355 0 0 0 2.922-2.687q.093-.399.093-.75c0-.813-.359-1.485-1.234-1.485-1.36 0-1.656 1.829-1.703 1.985L2.656-.203C1.875-.281 1.625-.75 1.625-1.406c0-.969.422-2.375 1.438-3.094m0 0"/><path id="i" d="m-.484-4.484-1.641.578v2.219l1.64.593.126-.672q.017-.124.093-.125.066 0 .266.094V.078a.2.2 0 0 1-.078.016Q-.342.096-.406-.22l-.063-.25-5.703-2.172-.062-.562 5.765-2.14.11-.391q.034-.124.093-.125.048 0 .266.093v1.907a.16.16 0 0 1-.078.015q-.246.002-.328-.297Zm-2.11 2.64v-1.89l-2.61.922v.015Zm0 0"/><path id="j" d="m-3.797-.781-.094.64a.1.1 0 0 1-.062.016q-.246 0-.281-.328l-.11-1.063h2.813q1.048 0 1.047-.89 0-.686-.438-1.11h-2.875l-.094.657a.1.1 0 0 1-.062.015q-.246.001-.281-.344l-.11-1.046h3.86l.078-.657h.078q.252 0 .281.329l.094 1h-.578v.015c.43.344.64.793.64 1.344Q.11-.78-1.5-.781Zm0 0"/><path id="k" d="M-.578-1q.204-.264.203-.656c0-.508-.195-.766-.594-.766q-.234.002-.468.25a5 5 0 0 0-.407.578q-.327.534-.562.75-.374.362-.86.36a.95.95 0 0 1-.812-.407q-.312-.405-.313-1.015c0-.395.102-.719.297-.969q.346-.03.547-.031c.305 0 .453.117.453.344a.16.16 0 0 1-.015.078l-.641.109q-.187.299-.187.61c0 .43.171.64.515.64.242 0 .477-.164.703-.5q.316-.468.61-.937.409-.516.953-.516.55 0 .906.422.362.41.36 1.078c0 .45-.087.812-.25 1.094q-.406.08-.735.078-.436 0-.437-.328.002-.048.015-.094Zm0 0"/><path id="l" d="M-2.969-.484c-.445 0-.804-.164-1.078-.5-.226-.301-.344-.68-.344-1.141q0-.342.094-.672v-1.515l.484.078v.75q.376-.282.844-.282.675.001 1.078.5.375.471.375 1.188 0 .204-.046.437c.117.18.257.266.421.266q.33 0 .329-.469v-1.015q.001-.577.265-.907a.83.83 0 0 1 .703-.343c.469 0 .867.199 1.203.593.352.438.532 1.008.532 1.704C1.89-.75 1.539-.22.844-.22c-.524 0-.875-.27-1.063-.812h-.015a.62.62 0 0 1-.594.36q-.5 0-.828-.61h-.016q-.373.797-1.297.797m1-1.641q.001-.937-1-.937-.467.001-.719.265a.9.9 0 0 0-.25.656c0 .618.325.922.97.922q1 .002 1-.906m1.86.406q.002.19-.032.344c.153.305.407.453.75.453q.797.001.797-1 0-.684-.281-1.094Q.857-3.39.453-3.39q-.562 0-.562.735Zm0 0"/><path id="m" d="M-2.781-2.656q-.591 0-.86.172-.28.175-.28.609 0 .284.093.531.22.11.781.203.017.141.016.188 0 .438-.39.437-.405 0-.688-.468a1.97 1.97 0 0 1-.282-1.032q0-1.373 1.5-1.375h1.97c.335 0 .5-.101.5-.312q0-.2-.11-.313a.38.38 0 0 1 .25-.093c.062 0 .133.058.203.172a.87.87 0 0 1 .156.53q0 .63-.61.688v.016Q.112-2.28.11-1.47q0 .503-.312.813-.311.313-.828.312c-.438 0-.774-.219-1.016-.656-.195-.383-.297-.86-.297-1.422v-.234Zm2.328.89q0-.498-.469-.89h-1.031l.016.234q.11 1.299.812 1.297c.45 0 .672-.21.672-.64m0 0"/><path id="n" d="M-.469-.906h-3.328l-.094.64a.1.1 0 0 1-.062.016q-.246 0-.281-.328l-.11-1.063.594.063v-.031a2.7 2.7 0 0 1-.422-.516 2 2 0 0 1-.219-.953c0-.438.141-.774.422-1.016q.41-.375 1.172-.375h2.328L-.344-5q.017-.124.11-.125.129 0 .234.078v1.906h-.062c-.133 0-.235-.093-.297-.28l-.11-.329H-2.75q-.545 0-.828.313-.218.25-.219.656c0 .43.149.808.438 1.14h2.89l.125-.53q.017-.125.11-.126.129 0 .234.094v1.89a.1.1 0 0 1-.062.016c-.133 0-.235-.094-.297-.281Zm0 0"/><clipPath id="a"><path d="M.148 26H29v29H.148Zm0 0"/></clipPath><clipPath id="g"><path d="M222 39h4.309v4H222Zm0 0"/></clipPath><clipPath id="h"><path d="M217 33h9.309v15H217Zm0 0"/></clipPath><clipPath id="o"><path d="M112 96h29v29.367h-29Zm0 0"/></clipPath></defs><g clip-path="url(#a)"><path fill="none" stroke="#000" stroke-miterlimit="10" stroke-width=".79499156" d="M.547 26.836h27.71v27.707H.548Zm0 0"/></g><path fill="none" stroke="#000" stroke-miterlimit="10" stroke-width=".39799452" d="M16.133 34.453c.566-.887 1.105-1.73 1.734-1.73.625 0 1.164.843 1.73 1.73s1.106 1.735 1.731 1.735c.629 0 1.168-.848 1.734-1.735M16.133 37.918c.566-.887 1.105-1.73 1.734-1.73.625 0 1.164.843 1.73 1.73s1.106 1.73 1.731 1.73c.629 0 1.168-.843 1.734-1.73M16.133 41.383c.566-.887 1.105-1.735 1.734-1.735.625 0 1.164.848 1.73 1.735s1.106 1.73 1.731 1.73c.629 0 1.168-.843 1.734-1.73"/><use xlink:href="#b" x="5.1" y="40.311"/><path fill="none" stroke="#000" stroke-miterlimit="10" stroke-width=".39799452" d="M4.703 45.54h19.399M4.703 50.387h19.399v-2.77H4.703ZM4.703 52.465h19.399M28.258 40.688h14.14m0 0h14.145"/><path d="M52.336 40.688v1.98l4.207-1.98-4.207-1.977Zm0 0"/><path fill="none" stroke="#000" stroke-miterlimit="10" stroke-width=".79499156" d="M56.543 26.836h27.71v27.707h-27.71Zm0 0"/><use xlink:href="#c" x="67.078" y="41.747"/><path fill="none" stroke="#000" stroke-miterlimit="10" stroke-width=".39799452" d="M84.254 40.688h14.14m0 0h14.145"/><path d="M108.332 40.688v1.98l4.207-1.98-4.207-1.977Zm0 0"/><path fill="none" stroke="#000" stroke-miterlimit="10" stroke-width=".79499156" d="M112.54 26.836h27.71v27.707h-27.71Zm0 0"/><path fill="none" stroke="#000" stroke-miterlimit="10" stroke-width=".39799452" d="M119.465 33.762c1.129-1.774 2.21-3.465 3.465-3.465s2.336 1.691 3.465 3.465c1.128 1.773 2.207 3.465 3.46 3.465s2.336-1.692 3.465-3.465m-4.847-2.078-4.157 4.156M119.465 40.688c1.129-1.774 2.21-3.461 3.465-3.461s2.336 1.687 3.465 3.46c1.128 1.774 2.207 3.465 3.46 3.465s2.336-1.691 3.465-3.464m-4.847-2.079-4.157 4.157M119.465 47.617c1.129-1.773 2.21-3.465 3.465-3.465s2.336 1.692 3.465 3.465c1.128 1.774 2.207 3.465 3.46 3.465s2.336-1.691 3.465-3.465M140.25 40.688h14.14m0 0h14.145"/><path d="M164.328 40.688v1.98l4.207-1.98-4.207-1.977Zm0 0"/><path fill="none" stroke="#000" stroke-miterlimit="10" stroke-width=".79499156" d="M168.535 26.836h27.707v27.707h-27.707Zm0 0"/><use xlink:href="#d" x="173.506" y="43.775"/><use xlink:href="#e" x="179.149" y="43.775"/><use xlink:href="#f" x="184.721" y="43.775"/><path fill="none" stroke="#000" stroke-miterlimit="10" stroke-width=".39799452" d="M196.242 40.688h14.145m0 0h14.144"/><g clip-path="url(#g)"><path fill="#FFF" d="M226.113 40.688c0-.872-.71-1.583-1.582-1.583-.875 0-1.586.711-1.586 1.583 0 .874.711 1.585 1.586 1.585.871 0 1.582-.71 1.582-1.586m0 0"/></g><g clip-path="url(#h)"><path fill="none" stroke="#000" stroke-miterlimit="10" stroke-width=".39799452" d="M226.113 40.688c0-.872-.71-1.583-1.582-1.583-.875 0-1.586.711-1.586 1.583 0 .875.711 1.585 1.586 1.585.871 0 1.582-.71 1.582-1.585Zm0 0"/></g><use xlink:href="#i" x="219.451" y="76.469"/><use xlink:href="#j" x="219.451" y="70.727"/><use xlink:href="#k" x="219.451" y="65.638"/><use xlink:href="#l" x="219.451" y="62.177"/><use xlink:href="#m" x="219.451" y="57.741"/><use xlink:href="#n" x="219.451" y="53.564"/><use xlink:href="#l" x="219.451" y="48.305"/><path fill="none" stroke="#000" stroke-miterlimit="10" stroke-width=".39799452" d="M182.39 54.543v28.289m0 0v28.285h-42.14m-27.71 0H70.397V82.832m0 0V54.543"/><g clip-path="url(#o)"><path fill="none" stroke="#000" stroke-miterlimit="10" stroke-width=".79499156" d="M112.54 97.262h27.71v27.71h-27.71Zm0 0"/></g><path d="M144.453 111.117v-1.98l-4.203 1.98 4.203 1.977Zm0 0"/><use xlink:href="#p" x="122.725" y="113.261"/><use xlink:href="#q" x="124.8" y="113.261"/><path d="M70.398 58.75h1.98l-1.98-4.207-1.98 4.207Zm0 0"/><path fill="none" stroke="#000" stroke-miterlimit="10" stroke-width=".39799452" d="M42.398 40.688V26.547m0 0V12.402"/><path stroke="#000" stroke-miterlimit="10" stroke-width=".39799452" d="M43.984 40.688c0-.872-.71-1.583-1.586-1.583-.87 0-1.582.711-1.582 1.583 0 .875.711 1.585 1.582 1.585.875 0 1.586-.71 1.586-1.585Zm0 0"/><path fill="#FFF" stroke="#000" stroke-miterlimit="10" stroke-width=".39799452" d="M43.984 12.402a1.584 1.584 0 1 0-3.167.004 1.584 1.584 0 0 0 3.167-.004Zm0 0"/><use xlink:href="#r" x="39.484" y="9.224"/><path fill="none" stroke="#000" stroke-miterlimit="10" stroke-width=".39799452" d="M154.39 111.117V96.973m0 0V82.832"/><path stroke="#000" stroke-miterlimit="10" stroke-width=".39799452" d="M155.973 111.117c0-.875-.707-1.586-1.582-1.586a1.584 1.584 0 0 0 0 3.168 1.58 1.58 0 0 0 1.582-1.582Zm0 0"/><path fill="#FFF" stroke="#000" stroke-miterlimit="10" stroke-width=".39799452" d="M155.973 82.832c0-.875-.707-1.586-1.582-1.586a1.584 1.584 0 0 0 0 3.168c.875 0 1.582-.71 1.582-1.582Zm0 0"/><use xlink:href="#e" x="151.581" y="79.542"/><path fill="none" stroke="#000" stroke-miterlimit="10" stroke-width=".39799452" d="M98.395 111.117V96.973m0 0V82.832"/><path stroke="#000" stroke-miterlimit="10" stroke-width=".39799452" d="M99.98 111.117a1.584 1.584 0 1 0-3.168-.004 1.584 1.584 0 0 0 3.168.004Zm0 0"/><path fill="#FFF" stroke="#000" stroke-miterlimit="10" stroke-width=".39799452" d="M99.98 82.832a1.584 1.584 0 1 0-3.168-.004 1.584 1.584 0 0 0 3.168.004Zm0 0"/><use xlink:href="#s" x="95.644" y="79.649"/></svg>