<svg xmlns="http://www.w3.org/2000/svg" xmlns:xlink="http://www.w3.org/1999/xlink" width="244.275" height="256.537"><defs><path id="a" d="M2.234-.39q1.092.001 1.094-2.516-.002-2.515-1.094-2.516-1.094.001-1.093 2.516c0 1.68.363 2.515 1.093 2.515m-.03.5q-.88 0-1.376-.75Q.296-1.42.297-2.907c0-.977.187-1.735.562-2.266.352-.5.829-.75 1.422-.75q.873 0 1.36.75.528.784.53 2.266 0 1.47-.562 2.265-.533.75-1.406.75m0 0"/><path id="b" d="M5.844-6.172v.078c0 .168-.102.278-.297.328l-.234.047L3.28 0h-.734L.453-5.703l-.375-.094q-.124-.03-.125-.125c0-.05.035-.133.094-.25H2.03c.008.031.016.059.016.078 0 .168-.102.274-.297.313l-.375.093 1.64 4.782h.016L4.734-5.72l-.687-.093q-.127-.029-.125-.11c0-.039.031-.125.094-.25Zm0 0"/><path id="e" d="M1.094-.484v-5.203l-.547-.125c-.086-.02-.125-.055-.125-.11q0-.075.094-.25h4.03q.062.751.063 1.063c0 .261-.086.39-.25.39a.6.6 0 0 1-.203-.031l-.218-.937H1.874v2.312h1.984v.5H1.875v2.36H4l.25-.954a.4.4 0 0 1 .203-.047q.218 0 .219.375 0 .363-.078 1.141H.422a.16.16 0 0 1-.016-.078Q.404-.324.72-.406Zm0 0"/><path id="h" d="M2.484-3.031h1.563v.469H2.484v1.671h-.5v-1.671H.422v-.47h1.562v-1.655h.5Zm0 0"/><path id="i" d="M2.031-.578V-5l-1.344.25a1 1 0 0 1-.015-.187c0-.133.07-.227.219-.282l1.468-.593h.454v5.234l1.078.172q.14.016.14.11-.002.08-.11.296H.86v-.078q0-.311.282-.36Zm0 0"/><path id="l" d="M.89-.922q.248.002.407.203.17.204.172.578 0 .592-.375.985c-.211.226-.414.344-.61.344-.093 0-.164-.086-.203-.25q.574-.3.61-.891a.5.5 0 0 1-.344-.125.47.47 0 0 1-.14-.344c0-.156.038-.273.124-.36a.48.48 0 0 1 .36-.14m0 0"/><path id="m" d="M3.703-4.766a1.04 1.04 0 0 0-.328-.421 1.24 1.24 0 0 0-.734-.235q-1.378 0-1.485 2.344a1.95 1.95 0 0 1 1.219-.406q.762.002 1.219.39c.344.274.515.688.515 1.25q-.001.798-.5 1.36c-.355.398-.808.593-1.359.593-.625 0-1.102-.257-1.422-.78Q.36-1.407.36-2.72.357-3.966.953-4.875c.445-.695 1.063-1.047 1.844-1.047q.622 0 .969.219.328.205.328.469c0 .242-.133.398-.39.468M1.156-2.625q.029 1.127.344 1.703.31.533.813.531.451.001.734-.343.28-.358.281-1.032-.002-1.202-1-1.203-.75.002-1.172.344m0 0"/><path id="c" d="M1.828.094c1.75 0 2.375-1.14 2.672-2.735l.484-2.453c.047-.25.188-.39.563-.406l.219-.016c.046 0 .078-.03.078-.078l.031-.172-.016-.015c-.406 0-.75.015-.937.015-.203 0-.547-.015-.938-.015l-.03.015-.032.172c0 .047.031.078.062.078l.22.016c.296.016.405.094.405.281 0 .032 0 .078-.015.125l-.516 2.625c-.187 1-.547 2.188-2 2.188-.422 0-.734-.188-.937-.438C.953-.969.906-1.25.906-1.53s.047-.594.11-.875L1.53-5.11c.063-.25.203-.375.563-.391l.219-.016c.046 0 .078-.03.078-.078l.046-.172-.03-.015c-.391 0-.75.015-1.094.015S.64-5.78.234-5.78l-.03.015-.032.172c0 .047.031.078.062.078l.22.016c.28.016.405.078.405.266 0 .046 0 .078-.015.125l-.578 3a3 3 0 0 0-.063.625c0 1.28.953 1.578 1.625 1.578m0 0"/><path id="o" d="m.938-3.828-.47.015c-.171.016-.234.079-.25.157a1 1 0 0 0-.046.156c0 .016.031.016.062.016H.86L.313-1.047C.25-.766.188-.484.188-.328c0 .328.156.422.437.422.406 0 1-.375 1.297-.922C1.89-.953 1.828-1 1.719-1c-.407.469-.563.547-.703.547C.984-.453.89-.47.89-.578c0-.078.03-.25.093-.563l.532-2.343h.875c.109-.047.187-.282.093-.344h-.89l.093-.406c.032-.172.125-.438.125-.532 0-.156-.078-.25-.359-.25-.328 0-.312.407-.406.735Zm0 0"/><path id="d" d="M2.016-2.578h-.657v-1.297c0-.312.094-.453.47-.453h.546c.531 0 .64.281.797.781.094.016.172 0 .234-.031-.031-.297-.14-.985-.156-1.047 0-.016 0-.016-.016-.016-.125.016-.187.032-.359.032H1.047c-.203 0-.625-.016-.922-.016-.047.031-.047.188 0 .234.5.016.625.047.625.641v2.875c0 .594-.125.625-.625.656-.047.047-.047.188 0 .235C.391 0 .828 0 1.063 0h1.53c.345 0 .923.016.923.016.093-.36.203-.828.265-1.203a.45.45 0 0 0-.25-.032c-.14.516-.39.938-.937.938h-.828c-.313 0-.407-.11-.407-.453v-1.578h.657c.609 0 .625.171.64.484.047.047.203.047.235 0v-1.235c-.032-.046-.188-.046-.235 0-.015.391-.031.485-.64.485m0 0"/><path id="j" d="M1.11-.562 1.5-1.61c.031-.094.078-.11.25-.11h1.516l.406 1.203c.094.25-.172.266-.516.297-.047.047-.047.188 0 .235C3.406 0 3.812 0 4.094 0s.562 0 .812.016c.032-.047.032-.188 0-.235-.281-.031-.531-.047-.64-.39L2.78-4.703c-.11.062-.297.14-.39.14L.766-.733C.578-.281.359-.25.046-.22 0-.172 0-.03.047.016.235 0 .47 0 .689 0c.296 0 .656 0 .921.016.032-.047.032-.188 0-.235C1.33-.25 1-.266 1.11-.562m.765-1.47c-.156 0-.203-.015-.172-.093l.734-1.844h.032l.687 1.938Zm0 0"/><clipPath id="f"><path d="M157 .148h15V14h-15Zm0 0"/></clipPath><clipPath id="g"><path d="M209 .148h15V14h-15Zm0 0"/></clipPath><clipPath id="k"><path d="M26 202h1v53.926h-1Zm0 0"/></clipPath><clipPath id="n"><path d="M26.508 206H194v49.727H26.508Zm0 0"/></clipPath></defs><path fill="none" stroke="#000" stroke-miterlimit="10" stroke-width=".39781896000000005" d="M26.508 180.184h19.02m0 0h95.097m0 0h76.078"/><path fill="#FFF" stroke="#000" stroke-miterlimit="10" stroke-width=".39781896000000005" d="M28.09 180.184a1.583 1.583 0 1 0-3.166.001 1.583 1.583 0 0 0 3.166-.001Zm0 0"/><path stroke="#000" stroke-miterlimit="10" stroke-width=".39781896000000005" d="M66.129 180.184a1.583 1.583 0 1 0-3.166.001 1.583 1.583 0 0 0 3.166-.001Zm0 0"/><path fill="#FFF" stroke="#000" stroke-miterlimit="10" stroke-width=".39781896000000005" d="M218.285 180.184a1.58 1.58 0 0 0-1.582-1.582 1.58 1.58 0 0 0-1.582 1.582 1.58 1.58 0 0 0 1.582 1.582 1.58 1.58 0 0 0 1.582-1.582Zm0 0"/><use xlink:href="#a" x="219.879" y="183.214"/><use xlink:href="#b" x="225.833" y="183.214"/><path fill="none" stroke="#000" stroke-miterlimit="10" stroke-width=".39781896000000005" d="M26.508 115.469v53.351m0-64.715h19.02m0 0h41.23m31.656 0h22.211"/><path stroke="#000" stroke-miterlimit="10" stroke-width=".39781896000000005" d="M26.508 164.617h-1.98l1.98 4.203 1.976-4.203Zm0 0"/><use xlink:href="#c" x="29.605" y="144.092"/><use xlink:href="#d" x="34.361" y="145.969"/><use xlink:href="#e" x="23.972" y="100.928"/><path fill="#FFF" stroke="#000" stroke-miterlimit="10" stroke-width=".39781896000000005" d="M28.09 104.105a1.583 1.583 0 1 0-3.166.002 1.583 1.583 0 0 0 3.166-.002Zm0 0"/><path stroke="#000" stroke-miterlimit="10" stroke-width=".39781896000000005" d="M66.129 104.105a1.583 1.583 0 1 0-3.166.002 1.583 1.583 0 0 0 3.166-.002Zm0 0"/><path fill="none" stroke="#000" stroke-miterlimit="10" stroke-width=".7946408800000001" d="M86.758 98.172h31.656v11.867H86.758ZM172.344 104.105c0-8.105-6.567-14.671-14.672-14.671C149.57 89.434 143 96 143 104.105s6.57 14.672 14.672 14.672c8.105 0 14.672-6.566 14.672-14.672Zm0 0"/><path fill="none" stroke="#000" stroke-miterlimit="10" stroke-width=".39781896000000005" d="M164.367 82.145v13.257l-11.87 5.438"/><path fill="none" stroke="#000" stroke-miterlimit="10" stroke-width=".7946408800000001" d="M152.496 95.402v17.407"/><path fill="none" stroke="#000" stroke-miterlimit="10" stroke-width=".39781896000000005" d="m152.496 107.371 11.871 5.438v13.257"/><path d="m156.676 109.285.949-2.07 3.684 4.195-5.582-.05Zm0 0"/><path fill="none" stroke="#000" stroke-miterlimit="10" stroke-width=".39781896000000005" d="M152.496 104.105h-12.07M164.367 125.867v27.16m0 0v27.157"/><path stroke="#000" stroke-miterlimit="10" stroke-width=".39781896000000005" d="M165.95 180.184a1.583 1.583 0 1 0-3.167.001 1.583 1.583 0 0 0 3.166-.001Zm0 0"/><path fill="none" stroke="#000" stroke-miterlimit="10" stroke-width=".39781896000000005" d="M164.367 180.184v9.894"/><path fill="none" stroke="#000" stroke-linecap="round" stroke-miterlimit="10" stroke-width=".7946408800000001" d="M158.43 190.078h11.87"/><path fill="none" stroke="#000" stroke-miterlimit="10" stroke-width=".39781896000000005" d="M164.367 82.344h26.168m0 0h26.168"/><path stroke="#000" stroke-miterlimit="10" stroke-width=".39781896000000005" d="M165.95 82.344a1.583 1.583 0 1 0-3.167.001 1.583 1.583 0 0 0 3.166-.001Zm0 0"/><path fill="#FFF" stroke="#000" stroke-miterlimit="10" stroke-width=".39781896000000005" d="M218.285 82.344a1.58 1.58 0 0 0-1.582-1.582 1.58 1.58 0 0 0-1.582 1.582 1.58 1.58 0 0 0 1.582 1.582 1.58 1.58 0 0 0 1.582-1.582Zm0 0"/><path fill="none" stroke="#000" stroke-miterlimit="10" stroke-width=".39781896000000005" d="M164.367 82.344V60.129m0-31.652V6.266h26.168m0 0h26.168"/><path fill="none" stroke="#000" stroke-miterlimit="10" stroke-width=".7946408800000001" d="M170.3 28.477v31.652h-11.87V28.477Zm0 0"/><path d="M165.95 6.266c0-.875-.712-1.586-1.583-1.586a1.584 1.584 0 0 0 0 3.168c.871 0 1.582-.711 1.582-1.582m0 0"/><g clip-path="url(#f)"><path fill="none" stroke="#000" stroke-miterlimit="10" stroke-width=".39781896000000005" d="M165.95 6.266c0-.875-.712-1.586-1.583-1.586a1.584 1.584 0 0 0 0 3.168c.871 0 1.582-.711 1.582-1.582Zm0 0"/></g><path fill="#FFF" d="M218.285 6.266c0-.875-.707-1.586-1.582-1.586a1.584 1.584 0 0 0 0 3.168c.875 0 1.582-.711 1.582-1.582m0 0"/><g clip-path="url(#g)"><path fill="none" stroke="#000" stroke-miterlimit="10" stroke-width=".39781896000000005" d="M218.285 6.266c0-.875-.707-1.586-1.582-1.586a1.584 1.584 0 0 0 0 3.168c.875 0 1.582-.711 1.582-1.582Zm0 0"/></g><use xlink:href="#h" x="219.879" y="9.297"/><use xlink:href="#i" x="224.349" y="9.297"/><use xlink:href="#a" x="228.819" y="9.297"/><use xlink:href="#b" x="234.773" y="9.297"/><path fill="none" stroke="#000" stroke-miterlimit="10" stroke-width=".39781896000000005" d="M164.367 6.266h-49.91m0 0h-49.91v15.062m0 7.914v15.063"/><path fill="none" stroke="#000" stroke-miterlimit="10" stroke-width=".7946408800000001" d="M76.418 21.328H52.676m23.742 7.914H52.676"/><path fill="none" stroke="#000" stroke-miterlimit="10" stroke-width=".39781896000000005" d="M64.547 44.305v9.89"/><path fill="none" stroke="#000" stroke-linecap="round" stroke-miterlimit="10" stroke-width=".7946408800000001" d="M58.61 54.195h11.87"/><path fill="none" stroke="#000" stroke-miterlimit="10" stroke-width=".39781896000000005" d="M216.703 96.969v68.59"/><path stroke="#000" stroke-miterlimit="10" stroke-width=".39781896000000005" d="M216.703 161.352h-1.976l1.976 4.207 1.98-4.207Zm0 0"/><use xlink:href="#c" x="219.307" y="133.21"/><use xlink:href="#j" x="224.063" y="135.087"/><path fill="none" stroke="#000" stroke-miterlimit="10" stroke-width=".39781896000000005" d="M64.547 180.184v-22.211m0-31.657v-22.21"/><path fill="none" stroke="#000" stroke-miterlimit="10" stroke-width=".7946408800000001" d="M70.48 126.316v31.657H58.61v-31.657Zm0 0"/><path fill="none" stroke="#BFBFBF" stroke-miterlimit="10" stroke-width=".19841096000000003" d="M26.508 216.16H195.64"/><path fill="none" stroke="#000" stroke-miterlimit="10" stroke-width=".7946408800000001" d="M24.387 216.16h4.238"/><path fill="none" stroke="#000" stroke-miterlimit="10" stroke-width=".39781896000000005" d="M26.508 231.234h165.668"/><path stroke="#000" stroke-miterlimit="10" stroke-width=".39781896000000005" d="m195.242 231.234-2.965-1.757v3.515Zm0 0"/><g clip-path="url(#k)"><path fill="none" stroke="#000" stroke-miterlimit="10" stroke-width=".39781896000000005" d="M26.508 255.727v-53.063"/></g><path stroke="#000" stroke-miterlimit="10" stroke-width=".39781896000000005" d="m26.508 199.602-1.758 2.964h3.516Zm0 0"/><use xlink:href="#a" x="2.979" y="218.655"/><use xlink:href="#l" x="7.449" y="218.655"/><use xlink:href="#m" x="9.3" y="218.655"/><use xlink:href="#b" x="15.414" y="218.655"/><g clip-path="url(#n)"><path fill="none" stroke="#000" stroke-miterlimit="10" stroke-width=".39781896000000005" d="M26.508 231.234s.23-.343.32-.472c.09-.133.235-.344.324-.477s.235-.34.325-.473c.086-.132.23-.343.32-.472l.324-.473c.09-.129.234-.34.32-.469l.325-.468.324-.465c.09-.13.23-.336.32-.465l.324-.46c.09-.13.235-.333.325-.458l.32-.457.324-.45c.09-.124.235-.323.324-.448.086-.122.23-.32.32-.442l.325-.437.32-.434.324-.43c.09-.12.235-.308.325-.425l.32-.418c.09-.114.234-.301.324-.414.09-.114.235-.293.324-.407.09-.11.23-.289.32-.398l.325-.395c.09-.109.234-.28.324-.386a32.053 32.053 0 0 1 .645-.754l.32-.364a30 30 0 0 1 .648-.707c.09-.097.23-.25.32-.343.09-.09.235-.239.325-.332l.324-.325c.09-.086.23-.226.32-.316.09-.086.235-.219.325-.305l.324-.297c.09-.082.23-.21.32-.289s.235-.199.324-.277l.325-.27.32-.257c.09-.07.234-.18.324-.246a16.569 16.569 0 0 1 .645-.469l.324-.215c.09-.059.23-.152.32-.207s.235-.145.324-.195c.09-.055.235-.137.325-.184.09-.05.23-.129.32-.176s.234-.117.324-.16a6 6 0 0 1 .324-.152c.086-.04.23-.102.32-.14l.325-.13c.09-.031.234-.086.32-.117.09-.031.235-.074.325-.105.09-.028.234-.067.324-.09.09-.028.23-.063.32-.082.09-.024.234-.055.324-.07.09-.02.235-.044.324-.06a9 9 0 0 1 .645-.081c.09-.008.234-.016.324-.024.086-.004.23-.007.32-.007.09-.004.235 0 .325 0 .09.003.234.007.32.015.09.004.234.016.324.024.09.007.235.027.325.039.09.011.23.03.32.047.09.015.234.042.324.062s.234.05.324.074c.09.02.23.059.32.082l.325.098c.09.027.234.074.324.11.086.03.23.081.32.116s.235.094.325.133l.32.14c.09.044.234.11.324.157a13 13 0 0 1 .969.528c.09.054.234.14.324.199.09.054.23.148.32.207l.325.222c.09.063.234.164.324.23.09.063.23.173.32.24.09.07.234.179.324.253a20.084 20.084 0 0 1 .645.531c.09.075.234.2.324.282.09.078.23.207.32.289l.325.297.324.308.32.32.324.325.325.336c.09.093.23.246.32.343l.324.352a30 30 0 0 1 .645.726 32 32 0 0 1 .644.758c.09.106.235.278.324.387l.325.395.32.402c.09.113.234.293.324.41.09.113.235.297.324.414.09.113.23.3.32.418l.325.426a41 41 0 0 1 .644.867l.325.438c.09.125.234.32.32.445l.324.45c.09.124.235.323.324.448.09.13.23.332.32.457.09.13.235.332.325.461.09.125.234.332.324.461.09.13.23.336.32.465l.325.465.324.469c.086.129.23.34.32.468l.324.473c.09.133.235.344.32.473l.325.472.324.477c.09.133.23.344.32.473l.325.476c.09.129.234.34.324.473s.23.344.32.472l.324.473c.09.133.235.34.325.473.086.129.23.34.32.468l.324.47a47.12 47.12 0 0 0 .645.926c.09.128.234.335.324.46.09.129.23.332.32.457.09.129.235.328.324.453.09.129.235.328.325.453l.32.446c.09.125.234.32.324.441l.324.437.32.434c.09.121.235.309.325.43.09.117.234.304.32.422.09.117.235.3.325.414.09.117.234.3.324.414s.23.293.32.402l.324.402c.09.11.235.282.324.391l.32.387c.09.105.235.273.325.375.09.105.234.27.324.37.09.102.23.266.32.364.09.102.235.258.325.356s.234.254.324.347c.086.098.23.246.32.34s.235.238.325.332l.32.32c.09.09.234.227.324.313s.234.223.324.305.23.214.32.297l.325.285c.09.078.234.199.324.273a18.703 18.703 0 0 0 1.29 1.004l.323.227c.09.058.235.156.32.214.09.055.235.149.325.204s.234.14.324.191.23.133.32.184c.09.046.235.125.325.168a12.5 12.5 0 0 0 1.613.687c.09.027.234.074.324.102s.234.066.32.09a10 10 0 0 0 1.293.242c.09.011.235.027.325.03a8.978 8.978 0 0 0 .645.027c.089.001.233.001.323-.003.086-.004.23-.008.32-.015l.325-.028c.09-.011.234-.027.32-.043a9 9 0 0 0 .649-.113c.09-.02.23-.055.32-.078l.324-.086c.09-.027.235-.07.324-.102.09-.027.23-.078.32-.109s.235-.086.325-.121a12 12 0 0 0 .644-.281l.325-.157.324-.167c.086-.047.23-.13.32-.18a14 14 0 0 0 .645-.39l.324-.212.324-.222c.09-.063.23-.168.32-.235l.325-.242.324-.254c.09-.07.23-.187.32-.262.09-.078.235-.199.324-.273.09-.078.235-.203.325-.285l.32-.293c.09-.082.234-.215.324-.3.09-.087.235-.224.32-.313.09-.086.235-.227.325-.32.09-.09.234-.235.324-.329.09-.09.23-.242.32-.336s.235-.246.324-.344.235-.253.325-.355c.09-.098.23-.258.32-.36.09-.1.234-.265.324-.37a32 32 0 0 0 .645-.758c.09-.11.234-.282.324-.39.09-.11.234-.286.32-.4.09-.109.235-.288.324-.402l.325-.41c.09-.113.23-.3.32-.414l.324-.422.324-.426c.09-.12.23-.312.32-.433l.325-.438c.09-.12.234-.316.324-.441l.32-.445c.09-.121.235-.325.325-.45s.234-.324.32-.453l.324-.453.324-.46.32-.462.325-.465c.09-.132.234-.34.324-.468.09-.13.23-.34.32-.47.09-.128.235-.339.325-.472.09-.129.234-.34.324-.468l.32-.477c.09-.129.235-.34.325-.473s.234-.343.32-.472l.324-.477c.09-.129.234-.34.324-.473s.23-.343.32-.472l.325-.477.324-.469c.09-.132.23-.343.32-.472l.325-.469.324-.469c.09-.129.23-.336.32-.465l.324-.46c.09-.13.235-.333.325-.461.085-.125.23-.329.32-.454.09-.128.234-.328.324-.453s.23-.328.32-.449c.09-.125.235-.324.325-.445.09-.125.234-.32.324-.442.09-.12.23-.316.32-.437l.324-.434.325-.425c.09-.118.23-.305.32-.422.09-.114.234-.301.324-.414l.324-.41c.086-.114.23-.294.32-.403.09-.113.235-.289.325-.398s.234-.282.32-.391l.324-.383c.09-.105.235-.273.325-.375.09-.105.23-.27.32-.37.09-.102.234-.263.324-.36.09-.102.234-.258.324-.356s.23-.25.32-.343.235-.247.325-.336c.09-.094.234-.239.324-.332.086-.09.23-.23.32-.317.09-.09.235-.226.325-.312l.32-.301c.09-.082.234-.215.324-.293.09-.082.235-.207.324-.285.09-.074.23-.196.32-.274.09-.074.235-.191.325-.261l.324-.254a17 17 0 0 1 .645-.477l.324-.223c.086-.058.23-.152.32-.21a34.397 34.397 0 0 1 .645-.39c.09-.052.234-.134.324-.18l.324-.169.32-.156c.09-.043.235-.105.325-.145s.234-.101.324-.136.23-.09.32-.121c.09-.032.235-.082.324-.11.09-.031.235-.074.325-.101s.23-.067.32-.086c.09-.024.234-.059.324-.078s.235-.047.32-.063a9 9 0 0 1 .325-.05c.09-.016.234-.032.324-.044l.32-.027c.09-.008.235-.016.324-.016a8.763 8.763 0 0 1 .645.004c.09 0 .234.012.324.016.09.008.235.023.324.035.09.008.23.027.32.043a9.54 9.54 0 0 1 1.293.29c.09.026.235.073.321.1.09.032.234.083.324.118.09.031.235.086.324.125.09.035.23.098.32.137a12 12 0 0 1 .65.308c.09.043.23.121.32.168l.324.184c.09.05.234.136.324.191.086.055.23.149.32.203l.324.215c.09.063.235.164.32.227a17 17 0 0 1 .97.738c.09.07.234.187.324.266.09.074.234.195.324.273s.23.207.32.285l.325.297c.09.082.234.219.324.305.086.086.23.222.32.312.09.086.234.23.324.32s.235.239.32.333c.09.093.235.242.325.34a28 28 0 0 1 .644.703 31.51 31.51 0 0 1 .648.734c.09.102.231.27.321.375.09.11.234.277.324.387s.235.28.325.39l.32.403a36 36 0 0 1 .644.812c.09.117.235.3.325.418l.324.422.32.43.324.433.325.438c.09.12.23.316.32.441l.324.445.324.45.32.457c.09.125.235.328.325.457.09.125.234.332.324.46.086.126.23.333.32.462l.325.464c.09.13.23.34.32.47.09.128.234.34.324.468l.324.473c.09.129.23.34.32.472.09.13.235.34.325.473.09.129.234.34.324.473s.23.343.32.476c.09.13.235.34.325.473s.234.344.324.472c.086.133.23.344.32.477.09.129.235.34.324.473.09.129.235.34.32.472l.325.47c.09.128.234.339.324.468s.23.336.32.465l.325.465c.09.128.234.335.324.46l.32.461.324.454c.09.128.235.328.325.453.086.125.23.324.32.449l.324.445c.09.121.235.317.32.438l.325.437c.09.121.234.313.324.43s.23.308.32.426l.324.418c.09.117.235.3.325.414.09.117.23.297.32.41l.324.402.324.395c.086.11.23.281.32.386.09.11.235.278.325.383l.32.375.324.367c.09.102.235.262.325.36s.23.254.32.351c.09.098.234.25.324.344s.235.242.324.336l.32.324c.09.09.235.23.325.317.09.09.234.226.324.312.09.082.23.215.32.297s.235.211.325.29a18 18 0 0 0 .968.812c.09.074.23.183.32.254.09.066.235.175.325.238a17 17 0 0 0 .645.45c.09.062.234.155.324.21l.324.2a14 14 0 0 0 .644.362c.09.047.235.122.325.165.086.046.23.113.32.156l.324.14c.09.04.235.098.32.133.09.035.235.086.325.117s.234.082.324.11l.32.097c.09.024.235.063.325.082.09.024.234.055.324.075s.23.047.32.062c.09.016.234.035.324.047s.235.031.324.04c.086.007.231.019.32.023.09.007.235.011.325.015.09 0 .234.004.32 0 .09 0 .235-.004.325-.008.09-.007.234-.015.324-.023a9 9 0 0 0 .644-.082c.09-.016.235-.04.325-.059.09-.015.23-.047.32-.07.09-.02.234-.055.324-.082.09-.023.234-.063.324-.09.086-.031.23-.078.32-.105l.325-.118.32-.128.324-.141a12.236 12.236 0 0 0 1.293-.672c.09-.05.23-.14.32-.195s.235-.149.325-.207c.09-.059.234-.157.324-.215.086-.063.23-.164.32-.23.09-.063.235-.169.325-.239.09-.066.234-.176.32-.246.09-.07.234-.187.324-.258l.324-.27.32-.277c.09-.078.235-.207.325-.289l.324-.297c.09-.086.23-.218.32-.308l.325-.313.324-.324c.09-.094.23-.242.32-.332.09-.094.235-.246.324-.344.09-.093.235-.25.325-.347l.32-.36c.09-.097.234-.261.324-.363l.32-.375c.09-.102.235-.273.325-.379s.234-.277.324-.387.23-.285.32-.394l.324-.399.325-.406c.09-.117.23-.3.32-.414.09-.117.234-.3.324-.418s.235-.305.324-.426l.32-.43c.09-.117.235-.312.325-.433s.234-.316.32-.437l.324-.442.325-.449.32-.45c.09-.128.234-.327.324-.456.09-.125.235-.328.324-.457l.32-.461.325-.465.324-.465c.086-.129.23-.34.32-.469l.325-.468c.09-.133.234-.34.32-.473.09-.129.234-.34.324-.473s.235-.344.324-.472l.32-.477c.09-.129.325-.473.325-.473"/></g><use xlink:href="#o" x="190.43" y="239.428"/><use xlink:href="#c" x="29.685" y="208.166"/><use xlink:href="#d" x="34.441" y="210.044"/></svg>