<svg xmlns="http://www.w3.org/2000/svg" xmlns:xlink="http://www.w3.org/1999/xlink" width="219.82" height="142.901"><defs><clipPath id="a"><path d="M205 120h14.64v16H205Zm0 0"/></clipPath><clipPath id="c"><path d="M3 .008h16V15H3Zm0 0"/></clipPath><clipPath id="e"><path d="M0 15h219.64v117H0Zm0 0"/></clipPath><path id="b" d="M1.578 1.563c-.094.156-.266.265-.406.265-.11 0-.156-.062-.219-.14-.078-.125-.25-.297-.437-.297-.25 0-.344.172-.344.328 0 .203.219.406.828.406.375 0 .766-.172 1.047-.562.25-.344.437-1.032.797-2.72.14-.702.281-1.437.422-2.187l.015-.14h.844c.078 0 .203-.047.219-.11 0 0 .047-.187.047-.203 0-.031-.016-.047-.063-.047h-.984l.11-.5c.124-.672.25-1.078.374-1.328.14-.25.25-.312.36-.312.14 0 .156.078.187.25.031.187.11.422.39.422a.31.31 0 0 0 .329-.297c0-.328-.297-.641-.828-.641a1 1 0 0 0-.61.25c-.297.219-.672.563-1 2.156l-.594.031c-.171 0-.234.079-.25.157a.5.5 0 0 0-.046.14c0 .032.03.032.046.032h.75c-.203 1.015-.25 1.547-.359 2.218-.14.86-.281 2.329-.625 2.829m0 0"/><path id="d" d="M1.828.094c1.766 0 2.375-1.14 2.688-2.735L5-5.109c.047-.25.188-.375.547-.407l.234-.015c.032 0 .063-.032.078-.078l.032-.172-.016-.016c-.406.016-.75.016-.953.016-.188 0-.531 0-.938-.016l-.015.016-.031.172c-.016.046.015.078.046.078l.235.015c.281.016.406.094.406.282 0 .046-.016.093-.016.125l-.515 2.625c-.203 1-.563 2.203-2.016 2.203-.406 0-.719-.188-.937-.438C.953-.969.906-1.25.906-1.53s.047-.594.11-.875l.53-2.719c.048-.25.188-.36.548-.39l.219-.016c.046 0 .078-.032.093-.078l.031-.172-.015-.016c-.406.016-.766.016-1.11.016-.343 0-.671 0-1.078-.016l-.03.016-.032.172c0 .046.031.078.062.078l.22.015c.28.016.421.094.421.282 0 .03-.016.062-.031.109L.266-2.109a3 3 0 0 0-.063.625c0 1.28.953 1.578 1.625 1.578m0 0"/></defs><path fill="none" stroke="#000" stroke-miterlimit="10" stroke-width=".39867282" d="M10.937 128.234h200.364"/><path d="m214.371 128.234-2.973-1.761v3.523Zm0 0"/><g clip-path="url(#a)"><path fill="none" stroke="#000" stroke-miterlimit="10" stroke-width=".39867282" d="m214.371 128.234-2.973-1.761v3.523Zm0 0"/></g><use xlink:href="#b" x="212.882" y="137.675"/><path fill="none" stroke="#000" stroke-miterlimit="10" stroke-width=".39867282" d="M10.937 128.234V9.406"/><path d="M10.938 6.336 9.176 9.305h3.523Zm0 0"/><g clip-path="url(#c)"><path fill="none" stroke="#000" stroke-miterlimit="10" stroke-width=".39867282" d="M10.937 6.336 9.176 9.305h3.523Zm0 0"/></g><use xlink:href="#d" x="2.986" y="8.792"/><g clip-path="url(#e)"><path fill="none" stroke="#000" stroke-miterlimit="10" stroke-width=".79634646" d="M10.937 26.32h71.34c5.63 0 10.688 4.535 11.293 10.13l7.993 73.503c.605 5.594 5.664 10.129 11.292 10.129 5.625 0 10.684-4.535 11.29-10.129l7.992-73.504c.605-5.594 5.664-10.129 11.293-10.129h67.261"/></g><path fill="none" stroke="#000" stroke-dasharray="2.9863791593999998 2.9863791593999998" stroke-miterlimit="10" stroke-width=".39867282" d="M112.855 128.234V5.937"/></svg>