<svg xmlns="http://www.w3.org/2000/svg" xmlns:xlink="http://www.w3.org/1999/xlink" width="223.211" height="222.302"><defs><path id="a" d="M4.297-2.469H.547V-3h3.75Zm0 0"/><path id="d" d="m.422-.453 1.516-1.734q.874-1.015.875-2c0-.833-.305-1.25-.907-1.25q-.345 0-.703.187a3.3 3.3 0 0 0-.125.875q-.11.017-.203.016-.422 0-.422-.344 0-.545.422-.875.42-.342 1.156-.344.715 0 1.172.422.451.408.453 1.156 0 .675-.422 1.36-.268.44-.906 1.125L1.344-.797v.016h2.031l.188-.781a.5.5 0 0 1 .187-.032q.234.002.234.344c0 .242-.03.656-.093 1.25H.5Zm0 0"/><path id="e" d="M.89-.922q.248.002.407.203.17.204.172.578 0 .592-.375.985c-.211.226-.414.344-.61.344-.093 0-.164-.086-.203-.25q.574-.3.61-.891a.5.5 0 0 1-.344-.125.47.47 0 0 1-.14-.344c0-.156.038-.273.124-.36a.48.48 0 0 1 .36-.14m0 0"/><path id="f" d="M.828-.469v-5.468l-.656-.094a.16.16 0 0 1-.016-.078q0-.247.328-.266l1.063-.11V-2.5h.531l1.203-1.375L2.656-4a.3.3 0 0 1-.015-.078q-.001-.218.25-.219h1.437c.07 0 .11.031.11.094A.5.5 0 0 1 4.375-4l-.516.156L2.594-2.39 4.109-.453l.454.11q.124.015.125.109A.4.4 0 0 1 4.609 0H3.453l-1.5-2.047h-.406v1.594L2-.343q.124.015.125.109A.35.35 0 0 1 2.031 0H.22v-.062c0-.133.086-.235.265-.297Zm0 0"/><path id="g" d="M6.125-3.484q-.001.926-.547 1.734-.486.69-1.156 1.047v.172h1.187l.141-.719a.44.44 0 0 1 .203-.047q.282.001.281.406-.002.365-.062.891H3.859v-.89c.977-.5 1.47-1.376 1.47-2.626Q5.327-4.545 4.78-5.14q-.534-.609-1.39-.609c-.563 0-1.024.2-1.375.594-.368.418-.547.968-.547 1.656q-.001.862.343 1.531.387.72 1.126 1.078V0H.624a10 10 0 0 1-.047-.89c0-.27.086-.407.266-.407q.107 0 .203.047l.14.719h1.204v-.156c-.43-.188-.809-.524-1.141-1.016a2.98 2.98 0 0 1-.594-1.781q-.001-1.203.766-2 .78-.797 1.969-.797 1.218 0 1.968.781c.508.512.766 1.184.766 2.016m0 0"/><path id="k" d="M2.234-.39q1.092.001 1.094-2.516-.002-2.515-1.094-2.516-1.094.001-1.093 2.516c0 1.68.363 2.515 1.093 2.515m-.03.5q-.88 0-1.376-.75Q.296-1.42.297-2.907c0-.977.187-1.735.562-2.266.352-.5.829-.75 1.422-.75q.873 0 1.36.75.528.784.53 2.266 0 1.47-.562 2.265-.533.75-1.406.75m0 0"/><path id="n" d="M2.484-3.031h1.563v.469H2.484v1.671h-.5v-1.671H.422v-.47h1.562v-1.655h.5Zm0 0"/><path id="o" d="M1.094-.484v-5.203l-.547-.125c-.086-.02-.125-.055-.125-.11q0-.075.094-.25h4.03q.062.751.063 1.063c0 .261-.086.39-.25.39a.6.6 0 0 1-.203-.031l-.218-.937H1.874v2.312h1.984v.5H1.875v2.36H4l.25-.954a.4.4 0 0 1 .203-.047q.218 0 .219.375 0 .363-.078 1.141H.422a.16.16 0 0 1-.016-.078Q.404-.324.72-.406Zm0 0"/><path id="p" d="m4.484-.484-.578-1.641H1.688l-.594 1.64.672.126q.124.017.125.093 0 .066-.094.266H-.078a.2.2 0 0 1-.016-.078Q-.096-.342.22-.406l.25-.063L2.64-6.172l.562-.062L5.343-.47l.391.11q.124.034.125.093 0 .048-.093.266H3.859a.16.16 0 0 1-.015-.078q-.002-.246.297-.328Zm-2.64-2.11h1.89l-.921-2.61h-.016Zm0 0"/><path id="b" d="M1.828.094c1.75 0 2.375-1.14 2.672-2.735l.484-2.453c.047-.25.188-.39.563-.406l.219-.016c.046 0 .078-.03.078-.078l.031-.172-.016-.015c-.406 0-.75.015-.937.015-.203 0-.547-.015-.938-.015l-.03.015-.032.172c0 .047.031.078.062.078l.22.016c.296.016.405.094.405.281 0 .032 0 .078-.015.125l-.516 2.625c-.187 1-.547 2.188-2 2.188-.422 0-.734-.188-.937-.438C.953-.969.906-1.25.906-1.53s.047-.594.11-.875L1.53-5.11c.063-.25.203-.375.563-.391l.219-.016c.046 0 .078-.03.078-.078l.046-.172-.03-.015c-.391 0-.75.015-1.094.015S.64-5.78.234-5.78l-.03.015-.032.172c0 .047.031.078.062.078l.22.016c.28.016.405.078.405.266 0 .046 0 .078-.015.125l-.578 3a3 3 0 0 0-.063.625c0 1.28.953 1.578 1.625 1.578m0 0"/><path id="c" d="M2-2.578h-.64V-3.86c0-.313.077-.453.468-.453h.531c.547 0 .657.28.813.765a.4.4 0 0 0 .234-.031c-.031-.297-.14-.985-.156-1.031a.034.034 0 0 0-.031-.032c-.125.032-.172.032-.344.032H1.047c-.219 0-.625 0-.922-.016-.047.047-.047.203 0 .234.5.032.625.063.625.657v2.859c0 .594-.125.625-.625.656-.047.047-.047.188 0 .235C.391 0 .828 0 1.063 0h1.53c.345 0 .907.016.907.016.11-.36.219-.828.266-1.188a.33.33 0 0 0-.25-.047c-.141.516-.391.938-.938.938H1.75c-.297 0-.39-.11-.39-.453v-1.578H2c.61 0 .64.171.656.484.047.047.188.047.235 0 0-.172-.016-.375-.016-.625 0-.203.016-.438.016-.61-.047-.046-.188-.046-.235 0-.015.391-.047.485-.656.485m0 0"/><path id="q" d="m1.11-.562.39-1.032c.031-.093.078-.125.25-.125h1.5l.422 1.203c.078.25-.188.266-.531.297-.047.047-.047.188 0 .235C3.406 0 3.797 0 4.078 0c.297 0 .563 0 .813.016.046-.047.046-.188 0-.235-.282-.031-.516-.047-.641-.39L2.781-4.703c-.11.062-.297.14-.39.14L.766-.733C.578-.281.359-.25.046-.22 0-.172 0-.03.047.016.235 0 .47 0 .689 0c.296 0 .64 0 .906.016.047-.047.047-.188 0-.235C1.328-.25 1-.266 1.109-.562m.765-1.454c-.156 0-.203-.03-.172-.093l.719-1.86h.047l.672 1.953Zm0 0"/><clipPath id="h"><path d="M132 211h1v10.563h-1Zm0 0"/></clipPath><clipPath id="i"><path d="M125 220h14v1.563h-14Zm0 0"/></clipPath><clipPath id="j"><path d="M66 .043h16V13H66Zm0 0"/></clipPath><clipPath id="l"><path d="M125 .043h15V13h-15Zm0 0"/></clipPath><clipPath id="m"><path d="M159 .043h15V13h-15Zm0 0"/></clipPath></defs><path fill="none" stroke="#000" stroke-miterlimit="10" stroke-width=".39759552000000004" d="M5.512 211.277h34.32m0 0h102.957m0 0h68.64"/><path fill="#FFF" stroke="#000" stroke-miterlimit="10" stroke-width=".39759552000000004" d="M7.094 211.277a1.582 1.582 0 0 0-3.164 0 1.583 1.583 0 0 0 3.164 0Zm0 0"/><path stroke="#000" stroke-miterlimit="10" stroke-width=".39759552000000004" d="M75.73 211.277a1.58 1.58 0 1 0-3.161.003 1.58 1.58 0 0 0 3.161-.003Zm0 0"/><path fill="#FFF" stroke="#000" stroke-miterlimit="10" stroke-width=".39759552000000004" d="M213.012 211.277a1.582 1.582 0 0 0-3.164 0 1.583 1.583 0 0 0 3.164 0Zm0 0"/><use xlink:href="#a" x="214.604" y="212.776"/><path fill="none" stroke="#000" stroke-miterlimit="10" stroke-width=".39759552000000004" d="M5.512 123.715v72.168m0-87.563h30.363m7.91 0H91.31m0 0h17.16"/><path stroke="#000" stroke-miterlimit="10" stroke-width=".39759552000000004" d="M5.512 191.684H3.535l1.977 4.199 1.976-4.2Zm0 0"/><use xlink:href="#b" x="8.609" y="161.745"/><use xlink:href="#c" x="13.362" y="163.622"/><path fill="none" stroke="#000" stroke-miterlimit="10" stroke-width=".7941945600000001" d="M35.875 96.457v23.727m7.91-23.727v23.727"/><path fill="#FFF" stroke="#000" stroke-miterlimit="10" stroke-width=".39759552000000004" d="M7.094 108.32a1.583 1.583 0 1 0-3.166.002 1.583 1.583 0 0 0 3.166-.002Zm0 0"/><path stroke="#000" stroke-miterlimit="10" stroke-width=".39759552000000004" d="M75.73 108.32a1.58 1.58 0 1 0-3.16 0c0 .871.707 1.582 1.582 1.582.871 0 1.578-.71 1.578-1.582Zm0 0"/><path fill="none" stroke="#000" stroke-miterlimit="10" stroke-width=".7941945600000001" d="M140.172 108.32c0-8.101-6.563-14.668-14.664-14.668-8.098 0-14.664 6.567-14.664 14.668 0 8.098 6.566 14.664 14.664 14.664 8.101 0 14.664-6.566 14.664-14.664Zm0 0"/><path fill="none" stroke="#000" stroke-miterlimit="10" stroke-width=".39759552000000004" d="M132.2 86.371v13.25l-11.864 5.438"/><path fill="none" stroke="#000" stroke-miterlimit="10" stroke-width=".7941945600000001" d="M120.336 99.621v17.399"/><path fill="none" stroke="#000" stroke-miterlimit="10" stroke-width=".39759552000000004" d="m120.336 111.582 11.863 5.438v13.25"/><path d="m124.512 113.496.949-2.07 3.68 4.191-5.578-.05Zm0 0"/><path fill="none" stroke="#000" stroke-miterlimit="10" stroke-width=".39759552000000004" d="M120.336 108.32h-12.063M132.2 130.07v24.785m0 31.637v24.785"/><path fill="none" stroke="#000" stroke-miterlimit="10" stroke-width=".7941945600000001" d="M126.266 186.492v-31.637h11.863v31.637Zm0 0"/><path stroke="#000" stroke-miterlimit="10" stroke-width=".39759552000000004" d="M133.781 211.277a1.582 1.582 0 0 0-3.164 0 1.583 1.583 0 0 0 3.164 0Zm0 0"/><use xlink:href="#d" x="100.264" y="172.819"/><use xlink:href="#e" x="104.731" y="172.819"/><use xlink:href="#d" x="106.58" y="172.819"/><use xlink:href="#f" x="112.531" y="172.819"/><use xlink:href="#g" x="117.267" y="172.819"/><g clip-path="url(#h)"><path fill="none" stroke="#000" stroke-miterlimit="10" stroke-width=".39759552000000004" d="M132.2 211.277v9.887"/></g><g clip-path="url(#i)"><path fill="none" stroke="#000" stroke-linecap="round" stroke-miterlimit="10" stroke-width=".7941945600000001" d="M126.266 221.164h11.863"/></g><path fill="none" stroke="#000" stroke-miterlimit="10" stroke-width=".39759552000000004" d="M132.2 86.57h35.66m7.91 0h35.66"/><path fill="none" stroke="#000" stroke-miterlimit="10" stroke-width=".7941945600000001" d="M167.86 74.707v23.727m7.91-23.727v23.727"/><path stroke="#000" stroke-miterlimit="10" stroke-width=".39759552000000004" d="M133.781 86.57a1.583 1.583 0 1 0-3.166.002 1.583 1.583 0 0 0 3.166-.002Zm0 0"/><path fill="#FFF" stroke="#000" stroke-miterlimit="10" stroke-width=".39759552000000004" d="M213.012 86.57a1.583 1.583 0 1 0-3.162.002 1.583 1.583 0 0 0 3.162-.002Zm0 0"/><path fill="none" stroke="#000" stroke-miterlimit="10" stroke-width=".39759552000000004" d="M132.2 130.07h17.16m0 0h17.16v36.649m0 7.91v36.648"/><path stroke="#000" stroke-miterlimit="10" stroke-width=".39759552000000004" d="M133.781 130.07a1.583 1.583 0 1 0-3.166.002 1.583 1.583 0 0 0 3.166-.002Zm0 0"/><path fill="none" stroke="#000" stroke-miterlimit="10" stroke-width=".7941945600000001" d="M178.383 166.719h-23.73m23.73 7.91h-23.73"/><path stroke="#000" stroke-miterlimit="10" stroke-width=".39759552000000004" d="M168.098 211.277a1.58 1.58 0 1 0-3.161.003 1.58 1.58 0 0 0 3.16-.003Zm0 0"/><path fill="none" stroke="#000" stroke-miterlimit="10" stroke-width=".39759552000000004" d="M74.152 108.32v35.66m0 31.637v35.66"/><path fill="none" stroke="#000" stroke-miterlimit="10" stroke-width=".7941945600000001" d="M68.219 175.617V143.98h11.863v31.637Zm0 0"/><use xlink:href="#d" x="44.066" y="161.944"/><use xlink:href="#d" x="48.534" y="161.944"/><use xlink:href="#f" x="54.484" y="161.944"/><use xlink:href="#g" x="59.22" y="161.944"/><path fill="none" stroke="#000" stroke-miterlimit="10" stroke-width=".39759552000000004" d="M74.152 108.32V72.656m0-31.637V5.36h29.024m0 0h29.023v24.785m0 31.637v24.79"/><path fill="none" stroke="#000" stroke-miterlimit="10" stroke-width=".7941945600000001" d="M80.082 41.02v31.636H68.22V41.02Zm0 0"/><path d="M75.73 5.36a1.58 1.58 0 1 0-3.16 0 1.58 1.58 0 1 0 3.16 0m0 0"/><g clip-path="url(#j)"><path fill="none" stroke="#000" stroke-miterlimit="10" stroke-width=".39759552000000004" d="M75.73 5.36a1.58 1.58 0 1 0-3.16 0 1.58 1.58 0 1 0 3.16 0Zm0 0"/></g><use xlink:href="#d" x="82.283" y="58.985"/><use xlink:href="#d" x="86.751" y="58.985"/><use xlink:href="#k" x="91.218" y="58.985"/><use xlink:href="#f" x="97.169" y="58.985"/><use xlink:href="#g" x="101.904" y="58.985"/><path fill="none" stroke="#000" stroke-miterlimit="10" stroke-width=".7941945600000001" d="M126.266 61.781V30.144h11.863v31.637Zm0 0"/><use xlink:href="#d" x="140.33" y="48.111"/><use xlink:href="#d" x="144.797" y="48.111"/><use xlink:href="#f" x="150.748" y="48.111"/><use xlink:href="#g" x="155.483" y="48.111"/><path fill="none" stroke="#000" stroke-miterlimit="10" stroke-width=".39759552000000004" d="M74.152 5.36h-17.16m0 0h-17.16v13.206m0 7.907V39.68"/><path fill="none" stroke="#000" stroke-miterlimit="10" stroke-width=".7941945600000001" d="M51.695 18.566h-23.73m23.73 7.907h-23.73"/><path fill="none" stroke="#000" stroke-miterlimit="10" stroke-width=".39759552000000004" d="M39.832 39.68v9.886"/><path fill="none" stroke="#000" stroke-linecap="round" stroke-miterlimit="10" stroke-width=".7941945600000001" d="M33.898 49.566h11.864"/><path fill="none" stroke="#000" stroke-miterlimit="10" stroke-width=".39759552000000004" d="M132.2 5.36h17.16m0 0h17.16"/><path d="M133.781 5.36a1.583 1.583 0 1 0-3.166.001 1.583 1.583 0 0 0 3.166-.002m0 0"/><g clip-path="url(#l)"><path fill="none" stroke="#000" stroke-miterlimit="10" stroke-width=".39759552000000004" d="M133.781 5.36a1.583 1.583 0 1 0-3.166.001 1.583 1.583 0 0 0 3.166-.002Zm0 0"/></g><path fill="#FFF" d="M168.098 5.36a1.58 1.58 0 1 0-3.16 0 1.58 1.58 0 1 0 3.16 0m0 0"/><g clip-path="url(#m)"><path fill="none" stroke="#000" stroke-miterlimit="10" stroke-width=".39759552000000004" d="M168.098 5.36a1.58 1.58 0 1 0-3.16 0 1.58 1.58 0 1 0 3.16 0Zm0 0"/></g><use xlink:href="#n" x="169.693" y="7.703"/><use xlink:href="#o" x="2.977" y="105.144"/><use xlink:href="#p" x="208.515" y="83.394"/><path fill="none" stroke="#000" stroke-miterlimit="10" stroke-width=".39759552000000004" d="M211.43 105.227v87.394"/><path stroke="#000" stroke-miterlimit="10" stroke-width=".39759552000000004" d="M211.43 188.422h-1.977l1.977 4.2 1.976-4.2Zm0 0"/><use xlink:href="#b" x="198.719" y="150.871"/><use xlink:href="#q" x="203.472" y="152.747"/><path fill="none" stroke="#000" stroke-miterlimit="10" stroke-width="1.19179008" d="m178.383 156.422-23.73 28.504M154.652 156.422l23.73 28.504"/></svg>