<svg xmlns="http://www.w3.org/2000/svg" xmlns:xlink="http://www.w3.org/1999/xlink" width="231.193" height="130.592"><defs><path id="b" d="M4.297-2.469H.547V-3h3.75Zm0 0"/><path id="d" d="M2.484-3.031h1.563v.469H2.484v1.671h-.5v-1.671H.422v-.47h1.562v-1.655h.5Zm0 0"/><path id="g" d="M-6.172-6.266c.031-.007.059-.015.078-.015q.236 0 .313.312l.093.422H0v.531l-5.187 3.36v.015h4.703l.125-.609q.017-.124.093-.125.048 0 .266.094v1.86a.16.16 0 0 1-.078.015q-.246.002-.328-.313l-.078-.375h-5.203l-.125.547c-.02.086-.055.125-.11.125q-.075 0-.25-.094v-1.421L-1.437-5v-.016h-4.25l-.125.563c-.02.086-.055.125-.11.125q-.075.001-.25-.11Zm0 0"/><path id="h" d="M-6.172-4.5q.751-.061 1.063-.062.39.001.39.25a.5.5 0 0 1-.031.187l-.937.219v2.031h2.437v-1.984h.5v1.984h2.266l.125-.703q.017-.124.093-.125.048 0 .266.094v2.187a.16.16 0 0 1-.078.016q-.246.002-.328-.313l-.078-.375h-5.203l-.125.547c-.02.086-.055.125-.11.125q-.075 0-.25-.094Zm0 0"/><path id="i" d="M-6.703-2.922v-.625L1.25-.828v.61Zm0 0"/><path id="j" d="M-6.172-2.562q0-2.281 1.547-2.282 1.208 0 1.453 1.313h.016Q-2.95-4.998-1.72-5q.767 0 1.235.61Q0-3.764 0-2.626v2.203a.16.16 0 0 1-.078.016q-.246.002-.328-.313l-.078-.375h-5.203l-.125.547c-.02.086-.055.125-.11.125q-.075 0-.25-.094Zm5.672.03q.001-.809-.344-1.234a1.07 1.07 0 0 0-.875-.406q-.527 0-.843.422-.312.41-.313 1.172v.703H-.5Zm-2.86.063q0-.78-.328-1.203a1.02 1.02 0 0 0-.828-.375q-1.155 0-1.156 1.578v.594h2.313Zm0 0"/><clipPath id="a"><path d="M217 112h13.39v16H217Zm0 0"/></clipPath><clipPath id="c"><path d="M217 3h13.39v16H217Zm0 0"/></clipPath><clipPath id="e"><path d="M179 129h14v1.16h-14Zm0 0"/></clipPath><clipPath id="f"><path d="M217 76h13.39v15H217Zm0 0"/></clipPath></defs><path fill="none" stroke="#000" stroke-miterlimit="10" stroke-width=".39761148" d="M6.953 119.879h18.172m0 0h36.34m0 0h27.254m0 0h18.168m0 0h27.254m0 0h54.511m0 0h36.34"/><path fill="#FFF" stroke="#000" stroke-miterlimit="10" stroke-width=".39761148" d="M8.535 119.879a1.583 1.583 0 1 0-3.162.002 1.583 1.583 0 0 0 3.162-.002Zm0 0"/><path stroke="#000" stroke-miterlimit="10" stroke-width=".39761148" d="M44.875 119.879a1.58 1.58 0 0 0-1.582-1.582 1.583 1.583 0 1 0 1.582 1.582ZM81.215 119.879a1.58 1.58 0 0 0-1.582-1.582 1.583 1.583 0 1 0 1.582 1.582ZM99.383 119.879a1.58 1.58 0 1 0-3.16 0c0 .871.707 1.582 1.578 1.582.875 0 1.582-.711 1.582-1.582ZM117.555 119.879a1.58 1.58 0 0 0-1.582-1.582 1.583 1.583 0 1 0 1.582 1.582ZM153.895 119.879a1.583 1.583 0 1 0-3.166.002 1.583 1.583 0 0 0 3.166-.002Zm0 0"/><path fill="#FFF" d="M226.574 119.879a1.583 1.583 0 1 0-3.166.002 1.583 1.583 0 0 0 3.166-.002m0 0"/><g clip-path="url(#a)"><path fill="none" stroke="#000" stroke-miterlimit="10" stroke-width=".39761148" d="M226.574 119.879a1.583 1.583 0 1 0-3.166.002 1.583 1.583 0 0 0 3.166-.002Zm0 0"/></g><use xlink:href="#b" x="222.567" y="126.048"/><path fill="none" stroke="#000" stroke-miterlimit="10" stroke-width=".39761148" d="M6.953 47.2h7.996m20.348 0h23.621m5.09 0h24.71m0 0h18.169m0 0h24.71m5.09 0H161.4m0 0h9.082"/><path fill="none" stroke="#000" stroke-miterlimit="10" stroke-width=".79422644" d="M14.95 43.383h20.347v7.633H14.949Zm0 0"/><path fill="#FFF" stroke="#000" stroke-miterlimit="10" stroke-width=".39761148" d="M8.535 47.2a1.583 1.583 0 1 0-3.162.002 1.583 1.583 0 0 0 3.162-.003Zm0 0"/><path stroke="#000" stroke-miterlimit="10" stroke-width=".39761148" d="M44.875 47.2a1.58 1.58 0 0 0-1.582-1.583 1.583 1.583 0 1 0 1.582 1.582Zm0 0"/><path fill="none" stroke="#000" stroke-miterlimit="10" stroke-width=".79422644" d="M58.918 39.566v15.262m5.09-15.262v15.262"/><path stroke="#000" stroke-miterlimit="10" stroke-width=".39761148" d="M81.215 47.2a1.58 1.58 0 0 0-1.582-1.583 1.583 1.583 0 1 0 1.582 1.582ZM99.383 47.2a1.58 1.58 0 1 0-3.16 0c0 .87.707 1.581 1.578 1.581.875 0 1.582-.71 1.582-1.582ZM117.555 47.2a1.58 1.58 0 0 0-1.582-1.583 1.583 1.583 0 1 0 1.582 1.582Zm0 0"/><path fill="none" stroke="#000" stroke-miterlimit="10" stroke-width=".79422644" d="M131.598 39.566v15.262m5.09-15.262v15.262"/><path stroke="#000" stroke-miterlimit="10" stroke-width=".39761148" d="M153.895 47.2a1.583 1.583 0 1 0-3.166 0 1.583 1.583 0 0 0 3.166 0Zm0 0"/><path fill="none" stroke="#000" stroke-miterlimit="10" stroke-width=".79422644" d="M190.875 47.2a9.43 9.43 0 0 0-9.434-9.434 9.43 9.43 0 0 0-9.433 9.433 9.43 9.43 0 0 0 9.433 9.434 9.43 9.43 0 0 0 9.434-9.434Zm0 0"/><path fill="none" stroke="#000" stroke-miterlimit="10" stroke-width=".39761148" d="M185.746 33.008v8.594l-7.633 3.5"/><path fill="none" stroke="#000" stroke-miterlimit="10" stroke-width=".79422644" d="M178.113 41.602v11.19"/><path fill="none" stroke="#000" stroke-miterlimit="10" stroke-width=".39761148" d="m178.113 49.297 7.633 3.496v8.594"/><path d="m180.176 50.242.949-2.07 3.68 4.191-5.578-.05Zm0 0"/><path fill="none" stroke="#000" stroke-miterlimit="10" stroke-width=".39761148" d="M178.113 47.2h-7.828M152.313 47.2v-7.997m0-20.351v-7.993h16.714m0 0h16.72v11.172m0 0v11.176"/><path fill="none" stroke="#000" stroke-miterlimit="10" stroke-width=".79422644" d="M156.129 18.852v20.351h-7.633V18.852Zm0 0"/><path stroke="#000" stroke-miterlimit="10" stroke-width=".39761148" d="M153.895 10.86a1.583 1.583 0 1 0-3.166.001 1.583 1.583 0 0 0 3.166-.002ZM187.324 10.86a1.58 1.58 0 1 0-3.16 0c0 .87.707 1.581 1.582 1.581.871 0 1.578-.71 1.578-1.582Zm0 0"/><path fill="none" stroke="#000" stroke-miterlimit="10" stroke-width=".39761148" d="M152.313 10.86H134.14m0 0h-18.168v6.538m0 5.09v6.54"/><path fill="none" stroke="#000" stroke-miterlimit="10" stroke-width=".79422644" d="M123.606 17.398H108.34m15.266 5.09H108.34"/><path fill="none" stroke="#000" stroke-miterlimit="10" stroke-width=".39761148" d="M115.973 29.027v9.887"/><path fill="none" stroke="#000" stroke-linecap="round" stroke-miterlimit="10" stroke-width=".79422644" d="M110.04 38.914h11.866"/><path fill="none" stroke="#000" stroke-miterlimit="10" stroke-width=".39761148" d="M185.746 10.86h9.445m20.352 0h9.45"/><path fill="none" stroke="#000" stroke-miterlimit="10" stroke-width=".79422644" d="M195.191 7.043h20.352v7.633h-20.352Zm0 0"/><path fill="#FFF" d="M226.574 10.86a1.583 1.583 0 1 0-3.166.001 1.583 1.583 0 0 0 3.166-.002m0 0"/><g clip-path="url(#c)"><path fill="none" stroke="#000" stroke-miterlimit="10" stroke-width=".39761148" d="M226.574 10.86a1.583 1.583 0 1 0-3.165.001 1.583 1.583 0 0 0 3.165-.002Zm0 0"/></g><use xlink:href="#d" x="222.755" y="7.684"/><path fill="none" stroke="#000" stroke-miterlimit="10" stroke-width=".39761148" d="M43.293 47.2v31.25m0 10.175v31.254"/><path fill="none" stroke="#000" stroke-miterlimit="10" stroke-width=".79422644" d="m43.293 78.45 6.36 10.175h-12.72Zm0 0"/><path fill="none" stroke="#000" stroke-miterlimit="10" stroke-width=".39761148" d="M43.293 78.45v10.175"/><path fill="none" stroke="#000" stroke-miterlimit="10" stroke-width=".79422644" d="M36.934 78.45h12.718"/><path fill="none" stroke="#000" stroke-miterlimit="10" stroke-width=".39761148" d="M79.633 47.2v26.163m0 20.352v26.164"/><path fill="none" stroke="#000" stroke-linejoin="bevel" stroke-miterlimit="10" stroke-width=".79422644" d="M79.473 72.965c2.11 0 3.816 1.183 3.816 2.644s-1.707 2.641-3.816 2.641c2.11 0 3.816 1.184 3.816 2.645 0 1.46-1.707 2.644-3.816 2.644 2.11 0 3.816 1.184 3.816 2.64 0 1.462-1.707 2.645-3.816 2.645 2.11 0 3.816 1.184 3.816 2.645 0 1.457-1.707 2.64-3.816 2.64"/><path fill="none" stroke="#000" stroke-miterlimit="10" stroke-width=".39761148" d="M97.8 47.2v33.796m0 5.086v33.797"/><path fill="none" stroke="#000" stroke-miterlimit="10" stroke-width=".79422644" d="M105.434 80.996H90.172m15.262 5.086H90.172"/><path fill="none" stroke="#000" stroke-miterlimit="10" stroke-width=".39761148" d="M115.973 47.2v15.624m0 5.086v31.254m0 5.086v15.629"/><path fill="none" stroke="#000" stroke-miterlimit="10" stroke-width=".79422644" d="M123.606 62.824H108.34m15.266 5.086H108.34"/><path stroke="#000" stroke-miterlimit="10" stroke-width=".39761148" d="M117.555 83.539a1.58 1.58 0 0 0-1.582-1.582 1.583 1.583 0 1 0 1.582 1.582Zm0 0"/><path fill="none" stroke="#000" stroke-miterlimit="10" stroke-width=".79422644" d="M123.606 99.164H108.34m15.266 5.086H108.34"/><path fill="none" stroke="#000" stroke-miterlimit="10" stroke-width=".39761148" d="M152.313 47.2v18.167m0 0v26.164m0 20.352v7.996"/><path fill="none" stroke="#000" stroke-miterlimit="10" stroke-width=".79422644" d="M148.496 111.883V91.53h7.633v20.352Zm0 0"/><path fill="none" stroke="#000" stroke-miterlimit="10" stroke-width=".39761148" d="M115.973 83.539h34.886m0 0h34.887V72.363m0 0V61.187"/><path stroke="#000" stroke-miterlimit="10" stroke-width=".39761148" d="M187.324 83.539a1.58 1.58 0 1 0-3.16 0c0 .871.707 1.582 1.582 1.582.871 0 1.578-.71 1.578-1.582Zm0 0"/><path fill="none" stroke="#000" stroke-miterlimit="10" stroke-width=".39761148" d="M185.746 83.539v18.168m0 0v18.172"/><path stroke="#000" stroke-miterlimit="10" stroke-width=".39761148" d="M187.324 119.879a1.58 1.58 0 1 0-3.16 0c0 .871.707 1.582 1.582 1.582.871 0 1.578-.711 1.578-1.582Zm0 0"/><path fill="none" stroke="#000" stroke-miterlimit="10" stroke-width=".39761148" d="M185.746 119.879v9.887"/><g clip-path="url(#e)"><path fill="none" stroke="#000" stroke-linecap="round" stroke-miterlimit="10" stroke-width=".79422644" d="M179.813 129.766h11.863"/></g><path fill="none" stroke="#000" stroke-miterlimit="10" stroke-width=".39761148" d="M185.746 83.539h17.078m5.086 0h17.082"/><path fill="none" stroke="#000" stroke-miterlimit="10" stroke-width=".79422644" d="M202.824 75.906v15.262m5.086-15.262v15.262"/><path fill="#FFF" d="M226.574 83.54a1.583 1.583 0 1 0-3.166 0 1.583 1.583 0 0 0 3.166 0m0 0"/><g clip-path="url(#f)"><path fill="none" stroke="#000" stroke-miterlimit="10" stroke-width=".39761148" d="M226.574 83.539a1.583 1.583 0 1 0-3.166.002 1.583 1.583 0 0 0 3.166-.002Zm0 0"/></g><path fill="none" stroke="#000" stroke-miterlimit="10" stroke-width=".39761148" d="M54.195 88.625v-4.36m0-1.453V78.45"/><path fill="none" stroke="#000" stroke-miterlimit="10" stroke-width=".79422644" d="M52.016 84.266h4.359m-4.36-1.454h4.36"/><use xlink:href="#g" x="9.679" y="96.4"/><use xlink:href="#h" x="9.679" y="89.797"/><use xlink:href="#i" x="9.679" y="85.348"/><use xlink:href="#j" x="9.679" y="81.586"/><use xlink:href="#j" x="9.679" y="76.171"/></svg>