<svg xmlns="http://www.w3.org/2000/svg" width="225.68" height="24.608"><defs><clipPath id="a"><path d="M181 0h9v24.223h-9Zm0 0"/></clipPath><clipPath id="b"><path d="M1.613 10H5v4H1.613Zm0 0"/></clipPath><clipPath id="c"><path d="M1.613 5H11v15H1.613Zm0 0"/></clipPath><clipPath id="d"><path d="M220 10h3.754v4H220Zm0 0"/></clipPath><clipPath id="e"><path d="M214 5h9.754v15H214Zm0 0"/></clipPath></defs><path fill="none" stroke="#000" stroke-miterlimit="10" stroke-width=".39274368" d="M3.371 12.11h20.813m31.25 0h41.625m31.25 0h53.343m7.813 0h32.531"/><path fill="none" stroke="#000" stroke-miterlimit="10" stroke-width=".78450304" d="M24.184 6.25h31.25v11.719h-31.25Zm0 0"/><path fill="none" stroke="#000" stroke-linejoin="bevel" stroke-miterlimit="10" stroke-width=".78450304" d="M96.664 12.27c0-3.239 1.793-5.86 4.008-5.86 2.21 0 4.004 2.621 4.004 5.86 0-3.239 1.793-5.86 4.004-5.86s4.004 2.621 4.004 5.86c0-3.239 1.793-5.86 4.004-5.86s4.003 2.621 4.003 5.86c0-3.239 1.793-5.86 4.004-5.86 2.215 0 4.004 2.621 4.004 5.86"/><g clip-path="url(#a)"><path fill="none" stroke="#000" stroke-miterlimit="10" stroke-width=".78450304" d="M181.652.39v23.442M189.465.391v23.441"/></g><g clip-path="url(#b)"><path fill="#FFF" d="M4.934 12.11c0-.86-.7-1.563-1.563-1.563s-1.562.703-1.562 1.562a1.562 1.562 0 1 0 3.125 0m0 0"/></g><g clip-path="url(#c)"><path fill="none" stroke="#000" stroke-miterlimit="10" stroke-width=".39274368" d="M4.934 12.11c0-.86-.7-1.563-1.563-1.563s-1.562.703-1.562 1.562a1.562 1.562 0 1 0 3.125 0Zm0 0"/></g><g clip-path="url(#d)"><path fill="#FFF" d="M223.559 12.11c0-.86-.7-1.563-1.563-1.563s-1.562.703-1.562 1.562a1.562 1.562 0 1 0 3.125 0m0 0"/></g><g clip-path="url(#e)"><path fill="none" stroke="#000" stroke-miterlimit="10" stroke-width=".39274368" d="M223.559 12.11c0-.86-.7-1.563-1.563-1.563s-1.562.703-1.562 1.562a1.562 1.562 0 1 0 3.125 0Zm0 0"/></g></svg>