<svg xmlns="http://www.w3.org/2000/svg" xmlns:xlink="http://www.w3.org/1999/xlink" width="170.079" height="89.104"><defs><path id="b" d="M2.64-2.766q0-.574-.171-.843-.175-.282-.61-.282-.28.001-.515.079-.129.235-.203.78a2 2 0 0 1-.188.016q-.438 0-.437-.39c0-.258.148-.485.453-.672A1.97 1.97 0 0 1 2-4.36q1.36 0 1.36 1.5v1.937c0 .336.1.5.312.5A.48.48 0 0 0 4-.532q.077.112.078.25c0 .063-.058.134-.172.204a.87.87 0 0 1-.531.156c-.406 0-.633-.203-.672-.61h-.015q-.423.643-1.22.641-.515 0-.827-.312-.299-.311-.297-.828 0-.638.656-1 .563-.296 1.406-.297h.235ZM1.75-.453q.498 0 .89-.469v-1.015l-.234.015q-1.282.11-1.281.813-.001.656.625.656m0 0"/><path id="c" d="M.64-5.906 0-5.984c-.008-.032-.016-.055-.016-.079q0-.246.329-.28l1.046-.095v2.688h.032q.499-.61 1.312-.61c.477 0 .86.157 1.14.47q.5.55.5 1.64 0 1.173-.702 1.813c-.407.367-.934.546-1.578.546Q1.184.11.64-.203Zm1.735 2.14c-.43 0-.766.141-1.016.422v2.688q.375.251.891.25 1.36 0 1.36-1.735 0-.843-.376-1.28c-.218-.227-.507-.345-.859-.345m0 0"/><path id="d" d="M1.797-.5v-3.922l-1.188.234a1 1 0 0 1-.015-.171q0-.17.187-.25l1.297-.516h.406V-.5l.954.14q.123.018.124.094c0 .055-.03.141-.093.266H.766A.16.16 0 0 1 .75-.078c0-.176.086-.281.266-.313Zm0 0"/><path id="e" d="M.484-.328q0-.2.11-.313a.43.43 0 0 1 .312-.125q.186.001.313.125.124.113.125.313-.001.188-.125.312a.48.48 0 0 1-.313.11.47.47 0 0 1-.312-.11.45.45 0 0 1-.11-.312m0-3.11q0-.2.11-.312a.43.43 0 0 1 .312-.125q.186.001.313.125.124.112.125.313-.001.188-.125.312a.46.46 0 0 1-.313.11.45.45 0 0 1-.312-.11.45.45 0 0 1-.11-.312m0 0"/><path id="f" d="m.11-1.75 2.234-3.36.594-.046v3.218h.656l-.031.594h-.626v.907l.547.109c.07.023.11.055.11.094Q3.594-.2 3.5 0H1.688v-.078c0-.145.085-.238.265-.281l.328-.079v-.906H.141Zm.64-.187h1.531v-2.391h-.015L.75-1.953Zm0 0"/><path id="g" d="m.688-3.36-.563-.078A.1.1 0 0 1 .109-3.5q0-.218.297-.234l.922-.094v2.469q0 .924.797.922.607 0 .969-.391V-3.36l-.563-.079a.1.1 0 0 1-.015-.062q-.002-.218.297-.234l.921-.094v3.39l.579.079c.007.023.015.043.015.062q-.002.222-.297.25l-.89.094V-.47h-.016q-.457.563-1.187.563-1.252 0-1.25-1.406Zm.828-1.109a.37.37 0 0 1-.282-.11q-.11-.107-.109-.296-.001-.187.11-.297c.07-.07.163-.11.28-.11.102 0 .192.04.266.11.07.074.11.172.11.297s-.04.227-.11.297a.36.36 0 0 1-.265.11m1.328 0a.35.35 0 0 1-.266-.11q-.11-.107-.11-.296 0-.187.11-.297c.07-.07.16-.11.266-.11.113 0 .207.04.281.11.07.074.11.172.11.297s-.04.227-.11.297a.38.38 0 0 1-.281.11m0 0"/><path id="h" d="M3.469-5.797c-.219 0-.75.078-1.078.078-.344 0-.672-.015-1.078-.015l-.032.015-.031.188q0 .047.047.047l.328.015c.125.016.313.078.313.282 0 .03 0 .062-.016.093L1.062-.64c-.046.25-.187.36-.546.391l-.22.016C.25-.234.22-.22.22-.172L.172 0l.016.016C.594.016.938 0 1.28 0 1.61 0 1.97.016 2.36.016L2.391 0l.015-.172c.016-.047-.015-.062-.047-.062L2.141-.25c-.282-.031-.407-.094-.407-.281 0-.031 0-.063.016-.11l.375-1.937c.719 0 .86.125.953.328l.61 1.547c.171.422.453.797.968.797.125 0 .282-.016.375-.063l.032-.218c-.391 0-.532-.297-.688-.688l-.703-1.86c.39-.124 1.234-.578 1.422-1.515.031-.11.031-.234.031-.344 0-.281-.078-.547-.266-.765-.328-.407-.859-.438-1.39-.438m-.047.297c.453 0 .969.156.969.875 0 .11-.032.234-.047.375-.219 1.11-.907 1.36-1.735 1.36h-.421l.437-2.204c.031-.25.188-.406.797-.406m0 0"/><clipPath id="a"><path d="M4 74h15v14.219H4Zm0 0"/></clipPath></defs><path fill="none" stroke="#000" stroke-linejoin="bevel" stroke-miterlimit="10" stroke-width=".7890618800000001" d="M28.77 36.402c3.253 0 5.89 1.805 5.89 4.032 0 2.222-2.637 4.027-5.89 4.027 3.253 0 5.89 1.8 5.89 4.027 0 2.223-2.637 4.028-5.89 4.028 3.253 0 5.89 1.8 5.89 4.027 0 2.223-2.637 4.027-5.89 4.027 3.253 0 5.89 1.805 5.89 4.028 0 2.226-2.637 4.027-5.89 4.027M52.656 68.625c-3.254 0-5.89-1.8-5.89-4.027 0-2.223 2.636-4.028 5.89-4.028-3.254 0-5.89-1.804-5.89-4.027 0-2.227 2.636-4.027 5.89-4.027-3.254 0-5.89-1.805-5.89-4.028 0-2.226 2.636-4.027 5.89-4.027-3.254 0-5.89-1.805-5.89-4.027 0-2.227 2.636-4.032 5.89-4.032"/><path fill="none" stroke="#000" stroke-miterlimit="10" stroke-width=".39502596" d="M11.246 23.047h17.68v13.75m0 31.433v13.754h-17.68M70.18 23.047H52.5v13.75m0 31.433v13.754h17.68"/><path fill="none" stroke="#000" stroke-miterlimit="10" stroke-width=".7890618800000001" d="M42.187 67.25V37.781M39.238 67.25V37.781"/><path fill="#FFF" stroke="#000" stroke-miterlimit="10" stroke-width=".39502596" d="M12.816 23.047a1.57 1.57 0 1 0-3.14 0 1.57 1.57 0 0 0 3.14 0Zm0 0"/><path fill="#FFF" d="M12.816 81.984a1.571 1.571 0 1 0-1.57 1.57 1.57 1.57 0 0 0 1.57-1.57m0 0"/><g clip-path="url(#a)"><path fill="none" stroke="#000" stroke-miterlimit="10" stroke-width=".39502596" d="M12.816 81.984a1.571 1.571 0 1 0-1.57 1.57 1.57 1.57 0 0 0 1.57-1.57Zm0 0"/></g><path fill="none" stroke="#000" stroke-miterlimit="10" stroke-width=".39502596" d="M70.18 23.047h41.847m0 0h41.844M70.18 81.984h41.847m0 0h41.844"/><use xlink:href="#b" x="3.944" y="25.179"/><use xlink:href="#c" x="3.349" y="85.152"/><use xlink:href="#d" x="35.852" y="19.797"/><use xlink:href="#e" x="39.797" y="19.797"/><use xlink:href="#f" x="41.628" y="19.797"/><use xlink:href="#g" x="38.468" y="8.238"/><path fill="none" stroke="#000" stroke-miterlimit="10" stroke-width=".39502596" d="M153.871 23.047v13.75m0 31.433v13.754"/><path fill="none" stroke="#000" stroke-miterlimit="10" stroke-width=".7890618800000001" d="M147.977 68.23V36.797h11.789V68.23Zm0 0"/><use xlink:href="#h" x="161.95" y="54.646"/></svg>