<svg xmlns="http://www.w3.org/2000/svg" width="114.077" height="36.946"><defs><clipPath id="a"><path d="M4 .121h105V36H4Zm0 0"/></clipPath><clipPath id="b"><path d="M0 .121h113.16V36.77H0Zm0 0"/></clipPath></defs><g clip-path="url(#a)"><path fill="#BFBFBF" d="M7.168 18.445h11.156c3.524 0 8.055-2.308 10.125-5.156l5.254-7.219C35.773 3.22 40.31.91 43.828.91h25.504c3.523 0 8.055 2.309 10.129 5.16l5.25 7.22c2.07 2.847 6.605 5.155 10.129 5.155h11.156q5.286 0 0 0H94.84c-3.524 0-8.059 2.309-10.13 5.157l-5.25 7.222c-2.073 2.848-6.605 5.156-10.128 5.156H43.828c-3.52 0-8.055-2.308-10.125-5.156l-5.254-7.222c-2.07-2.848-6.601-5.157-10.125-5.157zq-5.284 0 0 0m0 0"/></g><g clip-path="url(#b)"><path fill="none" stroke="#000" stroke-miterlimit="10" stroke-width="1.5812001800000002" d="M7.168 18.445h11.156c3.524 0 8.055-2.308 10.125-5.156l5.254-7.219C35.773 3.22 40.31.91 43.828.91h25.504c3.523 0 8.055 2.309 10.129 5.16l5.25 7.22c2.07 2.847 6.605 5.155 10.129 5.155h11.156q5.286 0 0 0H94.84c-3.524 0-8.059 2.309-10.13 5.157l-5.25 7.222c-2.073 2.848-6.605 5.156-10.128 5.156H43.828c-3.52 0-8.055-2.308-10.125-5.156l-5.254-7.222c-2.07-2.848-6.601-5.157-10.125-5.157H7.168q-5.284 0 0 0Zm0 0"/></g></svg>