<svg xmlns="http://www.w3.org/2000/svg" xmlns:xlink="http://www.w3.org/1999/xlink" width="227.159" height="80.18"><defs><path id="b" d="M4.453-.484 3.875-2.11H1.672L1.078-.484l.672.125q.124.017.125.093c0 .055-.031.141-.094.266h-1.86a.2.2 0 0 1-.015-.078Q-.096-.342.22-.406l.25-.063 2.156-5.656.547-.062L5.312-.47l.391.11q.124.034.125.093-.002.048-.11.266h-1.89a.16.16 0 0 1-.015-.078c0-.164.101-.274.312-.328Zm-2.61-2.094h1.86l-.906-2.594H2.78Zm0 0"/><path id="c" d="M2.36-6.125c2.35 0 3.53.992 3.53 2.969q0 1.581-.937 2.39Q4.046.001 2.36 0H.422a.16.16 0 0 1-.016-.078q0-.246.297-.328l.39-.078v-5.172l-.546-.125C.46-5.79.422-5.821.422-5.875q0-.075.094-.25ZM2.327-.5q1.312 0 2.016-.656.716-.669.718-1.969-.002-1.23-.718-1.86-.703-.639-2.016-.64H1.86V-.5Zm0 0"/><path id="g" d="M5.828-2.89v.093q-.002.222-.297.297l-.203.047v1.89q-.736.674-2.14.672Q1.98.11 1.25-.656.467-1.484.469-3.031c0-1.063.336-1.883 1.015-2.469q.857-.733 2.094-.734.592 0 1.078.14l.594.235c.031.43.047.734.047.922q0 .39-.281.39a.4.4 0 0 1-.188-.047l-.203-.843q-.423-.282-1.094-.282-.937.002-1.547.594-.702.704-.703 2c0 .875.196 1.555.594 2.031q.562.674 1.516.672c.437 0 .82-.07 1.156-.219v-1.765L4-2.531q-.127-.029-.125-.11 0-.074.094-.25Zm0 0"/><path id="h" d="M2.578-6.125v.078q-.002.235-.297.313l-.422.078v5.172l.61.125q.124.017.125.093 0 .048-.094.266H.422a.16.16 0 0 1-.016-.078q0-.246.297-.328l.39-.078v-5.172l-.546-.125C.46-5.79.422-5.821.422-5.875q0-.075.094-.25Zm0 0"/><path id="i" d="M3.61.078a3 3 0 0 1-.407.031q-1.22 0-1.953-.812-.783-.843-.781-2.36c0-1 .273-1.785.828-2.359q.763-.81 2-.812 1.247.002 1.984.812.75.846.75 2.36c0 1-.277 1.789-.828 2.359a2.25 2.25 0 0 1-.797.562l.735.766c.164.164.375.281.625.344q.151.047.328.047.013.044.015.062-.001.216-.218.344a.83.83 0 0 1-.485.14q-.534 0-.968-.515ZM3.25-.39q.905 0 1.422-.703c.351-.476.531-1.133.531-1.968q0-1.231-.547-1.954a1.7 1.7 0 0 0-1.437-.718q-.908.002-1.422.718-.516.721-.516 1.954-.001 1.253.532 1.968.528.703 1.437.703m0 0"/><path id="d" d="M1.516-1.89c-.086-.157-.125-.4-.125-.735q0-.45.328-.937c.218-.282.426-.555.625-.829.226-.351.344-.722.344-1.109q-.002-.905-.954-.906-.252.002-.515.11-.14.25-.235.859a2 2 0 0 1-.203.015q-.485 0-.484-.422-.001-.45.484-.765.481-.312 1.11-.313.685 0 1.14.328c.344.25.516.633.516 1.14q-.001.58-.406 1.141l-.72.907c-.273.344-.405.672-.405.984 0 .25.02.43.062.531Zm.797 1.468a.55.55 0 0 1-.157.406.56.56 0 0 1-.39.141.56.56 0 0 1-.391-.14.58.58 0 0 1-.14-.407q0-.233.14-.39a.54.54 0 0 1 .39-.157c.157 0 .286.055.391.156a.54.54 0 0 1 .156.391m0 0"/><clipPath id="a"><path d="M.734 0H25v24H.734Zm0 0"/></clipPath><clipPath id="e"><path d="M200 15h25.594v43H200Zm0 0"/></clipPath><clipPath id="f"><path d="M41 61h18v18.367H41Zm0 0"/></clipPath></defs><path fill="none" stroke="#000" stroke-miterlimit="10" stroke-width=".39496212" d="M7.344 36.504h8.77m16.85 0h8.77M7.145 36.504V.394"/><g clip-path="url(#a)"><path fill="none" stroke="#000" stroke-miterlimit="10" stroke-width=".7889343600000001" d="M7.145.395h6.02L7.144 12.43 1.129.395h6.016"/></g><path fill="none" stroke="#000" stroke-miterlimit="10" stroke-width=".7889343600000001" d="M16.113 28.078h16.852V44.93H16.113Zm0 0"/><path d="M11.938 36.504v1.965l4.175-1.965-4.175-1.965Zm0 0"/><path fill="none" stroke="#000" stroke-miterlimit="10" stroke-width=".39496212" d="m18.64 30.016 11.798 6.488-11.797 6.488Zm0 0"/><path fill="none" stroke="#000" stroke-miterlimit="10" stroke-width=".7889343600000001" d="M41.734 28.078h16.848V44.93H41.734Zm0 0"/><path fill="none" stroke="#000" stroke-miterlimit="10" stroke-width=".39496212" d="M56.055 36.504a5.897 5.897 0 1 0-11.793 0 5.897 5.897 0 1 0 11.793 0ZM45.988 32.332l8.34 8.344m0-8.344-8.34 8.344M58.582 32.29h4.3m0 0h4.298V15.097h8.597"/><path d="M71.605 15.098v1.96l4.172-1.96-4.172-1.965Zm0 0"/><path fill="none" stroke="#000" stroke-miterlimit="10" stroke-width=".7889343600000001" d="M75.777 6.672H92.63v16.851H75.777Zm0 0"/><path fill="none" stroke="#000" stroke-miterlimit="10" stroke-width=".39496212" d="M79.992 10.883c.688-1.078 1.344-2.106 2.106-2.106s1.418 1.028 2.105 2.106 1.344 2.105 2.106 2.105c.765 0 1.422-1.027 2.109-2.105m-2.95-1.262-2.527 2.527M79.992 15.098c.688-1.078 1.344-2.11 2.106-2.11s1.418 1.032 2.105 2.11 1.344 2.105 2.106 2.105c.765 0 1.422-1.027 2.109-2.105m-2.95-1.266-2.527 2.527M79.992 19.309c.688-1.079 1.344-2.106 2.106-2.106s1.418 1.027 2.105 2.106 1.344 2.105 2.106 2.105c.765 0 1.422-1.027 2.109-2.105M92.629 15.098h4.3m0 0h4.298"/><path d="M97.055 15.098v1.96l4.172-1.96-4.172-1.965Zm0 0"/><path fill="none" stroke="#000" stroke-miterlimit="10" stroke-width=".7889343600000001" d="M101.227 6.672h16.851v16.851h-16.851Zm0 0"/><path fill="none" stroke="#000" stroke-miterlimit="10" stroke-width=".39496212" d="m101.227 23.523 16.851-16.851"/><use xlink:href="#b" x="102.966" y="14.403"/><use xlink:href="#c" x="110.265" y="21.95"/><path fill="none" stroke="#000" stroke-miterlimit="10" stroke-width=".39496212" d="M58.582 40.715h4.3m0 0h4.298V57.91h8.597"/><path d="M71.605 57.91v1.965l4.172-1.965-4.172-1.965Zm0 0"/><path fill="none" stroke="#000" stroke-miterlimit="10" stroke-width=".7889343600000001" d="M75.777 49.484H92.63v16.852H75.777Zm0 0"/><path fill="none" stroke="#000" stroke-miterlimit="10" stroke-width=".39496212" d="M79.992 53.7c.688-1.079 1.344-2.106 2.106-2.106s1.418 1.027 2.105 2.105 1.344 2.106 2.106 2.106c.765 0 1.422-1.028 2.109-2.106m-2.95-1.265-2.527 2.527M79.992 57.91c.688-1.078 1.344-2.105 2.106-2.105s1.418 1.027 2.105 2.105 1.344 2.11 2.106 2.11c.765 0 1.422-1.032 2.109-2.11m-2.95-1.262-2.527 2.528M79.992 62.125c.688-1.078 1.344-2.105 2.106-2.105s1.418 1.027 2.105 2.105 1.344 2.105 2.106 2.105c.765 0 1.422-1.027 2.109-2.105M92.629 57.91h4.3m0 0h4.298"/><path d="M97.055 57.91v1.965l4.172-1.965-4.172-1.965Zm0 0"/><path fill="none" stroke="#000" stroke-miterlimit="10" stroke-width=".7889343600000001" d="M101.227 49.484h16.851v16.852h-16.851Zm0 0"/><path fill="none" stroke="#000" stroke-miterlimit="10" stroke-width=".39496212" d="m101.227 66.336 16.851-16.852"/><use xlink:href="#b" x="102.966" y="57.217"/><use xlink:href="#c" x="110.265" y="64.764"/><path fill="none" stroke="#000" stroke-miterlimit="10" stroke-width=".7889343600000001" d="M135.273 28.078h16.852V44.93h-16.852Zm0 0"/><use xlink:href="#d" x="141.729" y="39.906"/><path fill="none" stroke="#000" stroke-miterlimit="10" stroke-width=".39496212" d="M118.078 15.098h4.297m0 0h4.3v17.191h8.598"/><path d="M131.098 32.29v1.964l4.175-1.965-4.175-1.96Zm0 0"/><path fill="none" stroke="#000" stroke-miterlimit="10" stroke-width=".39496212" d="M118.078 57.91h4.297m0 0h4.3V40.715h8.598"/><path d="M131.098 40.715v1.965l4.175-1.965-4.175-1.961Zm0 0"/><path fill="none" stroke="#000" stroke-miterlimit="10" stroke-width=".39496212" d="M152.125 36.504h8.77m16.847 0h8.77"/><path fill="none" stroke="#000" stroke-miterlimit="10" stroke-width=".7889343600000001" d="M160.895 28.078h16.847V44.93h-16.847Zm0 0"/><path d="M156.719 36.504v1.965l4.176-1.965-4.176-1.965Zm0 0"/><path fill="none" stroke="#000" stroke-miterlimit="10" stroke-width=".39496212" d="m160.895 44.93 16.847-16.852"/><use xlink:href="#c" x="162.348" y="35.774"/><use xlink:href="#b" x="170.214" y="43.392"/><path d="M182.34 36.504v1.965l4.172-1.965-4.172-1.965Zm0 0"/><path fill="none" stroke="#000" stroke-miterlimit="10" stroke-width=".7889343600000001" d="M186.512 28.078h16.851V44.93h-16.851Zm0 0"/><path fill="none" stroke="#000" stroke-miterlimit="10" stroke-width=".39496212" d="m189.04 30.016 11.796 6.488-11.797 6.488ZM203.363 36.504h4.301m0 0h4.297"/><path d="M207.79 36.504v1.965l4.17-1.965-4.17-1.965Zm0 0"/><g clip-path="url(#e)"><path fill="none" stroke="#000" stroke-miterlimit="10" stroke-width=".7889343600000001" d="M211.961 46.133V26.875h7.461v19.258Zm7.461-14.446 5.781-2.886v15.406l-5.781-2.89Zm0 0"/></g><path fill="none" stroke="#000" stroke-miterlimit="10" stroke-width=".39496212" d="M50.156 44.93v8.597m0 0v8.598"/><g clip-path="url(#f)"><path fill="none" stroke="#000" stroke-miterlimit="10" stroke-width=".7889343600000001" d="M41.734 62.125h16.848v16.852H41.734Zm0 0"/></g><path fill="none" stroke="#000" stroke-miterlimit="10" stroke-width=".39496212" d="M51.211 66.758c.344-.54.672-1.055 1.055-1.055.379 0 .707.516 1.05 1.055s.672 1.055 1.055 1.055.711-.516 1.055-1.055M51.211 68.863c.344-.539.672-1.05 1.055-1.05.379 0 .707.511 1.05 1.05.344.54.672 1.055 1.055 1.055s.711-.516 1.055-1.055M51.211 70.969c.344-.54.672-1.051 1.055-1.051.379 0 .707.512 1.05 1.05.344.544.672 1.055 1.055 1.055s.711-.511 1.055-1.054"/><use xlink:href="#g" x="43.322" y="71.505"/><path fill="none" stroke="#000" stroke-miterlimit="10" stroke-width=".39496212" d="M44.262 73.5h11.793M44.262 76.445h11.793v-1.683H44.262ZM44.262 77.711h11.793"/><use xlink:href="#h" x="45.463" y="23.36"/><use xlink:href="#i" x="48.348" y="23.36"/></svg>