<svg xmlns="http://www.w3.org/2000/svg" xmlns:xlink="http://www.w3.org/1999/xlink" width="227.788" height="184.925"><defs><path id="f" d="M4.313-2.469H.547V-3h3.766Zm0 0"/><path id="g" d="M2.484-3.031h1.563v.469H2.484v1.671h-.5v-1.671H.438v-.47h1.546v-1.655h.5Zm0 0"/><path id="h" d="M4.14-1.422h-.687v.89l.578.126q.124.033.125.11A.8.8 0 0 1 4.063 0H1.688v-.11c0-.163.097-.28.296-.343l.36-.078v-.89H.063L.03-1.907l2.407-3.86 1.015-.093v3.672h.719ZM2.314-4.594.937-2.219v.031h1.407v-2.406Zm0 0"/><path id="i" d="M2.5-3.062c.469.062.836.226 1.11.484q.405.393.406.937-.002.751-.594 1.25c-.387.336-.902.5-1.547.5Q1.078.11.703-.203a.71.71 0 0 1-.281-.563q0-.546.61-.64c.038.086.077.172.109.265q.122.252.297.422c.164.149.359.219.578.219.562 0 .843-.32.843-.969q0-1.075-1.671-1.203v-.5q.435-.047.765-.187.78-.329.781-1.078-.002-.921-.765-.922-.362.001-.532.125c-.062.199-.101.507-.109.922a.8.8 0 0 1-.266.046q-.625.001-.624-.484-.001-.516.484-.844.5-.328 1.297-.328.732 0 1.172.375.451.376.453.969Q3.842-3.482 2.5-3.094Zm0 0"/><path id="j" d="M3.828-4.328q0 .627-.469 1.312-.28.423-.984 1.157l-.86.922v.03h1.86l.188-.827q.123-.031.234-.032c.195 0 .297.168.297.5Q4.092-1.078 4.016 0H.375L.297-.5l1.516-1.687q.81-.92.812-1.985 0-1.185-.75-1.187-.363.002-.562.109-.096.375-.11.984a.8.8 0 0 1-.25.032q-.626.001-.625-.485 0-.545.469-.875.468-.341 1.265-.343.828 0 1.297.421.47.41.47 1.188m0 0"/><path id="k" d="m3-.594.938.14q.186.048.187.142A1 1 0 0 1 4.031 0H.75a.5.5 0 0 1-.016-.11q0-.293.375-.359l.75-.125v-4.312l-1.265.234a2 2 0 0 1-.016-.234c0-.133.086-.235.266-.297l1.469-.61H3Zm0 0"/><clipPath id="a"><path d="M81 174h2v10.8h-2Zm0 0"/></clipPath><clipPath id="b"><path d="M75 184h14v.8H75Zm0 0"/></clipPath><clipPath id="c"><path d="M214 73h13.578v16H214Zm0 0"/></clipPath><clipPath id="d"><path d="M214 167h13.578v15H214Zm0 0"/></clipPath><clipPath id="e"><path d="M214 3h13.578v16H214Zm0 0"/></clipPath></defs><path fill="none" stroke="#000" stroke-miterlimit="10" stroke-width=".7962587900000001" d="M88.55 81.02c0-6.704-5.429-12.133-12.128-12.133-6.703 0-12.133 5.43-12.133 12.133 0 6.699 5.43 12.132 12.133 12.132 6.7 0 12.129-5.433 12.129-12.132Zm0 0"/><path fill="none" stroke="#000" stroke-miterlimit="10" stroke-width=".39862893000000005" d="M81.953 62.824V73.82l-9.812 4.5"/><path fill="none" stroke="#000" stroke-miterlimit="10" stroke-width=".7962587900000001" d="M72.14 73.82v14.395"/><path fill="none" stroke="#000" stroke-miterlimit="10" stroke-width=".39862893000000005" d="m72.14 83.719 9.813 4.496V99.21"/><path d="m75.29 85.16.952-2.078 3.688 4.207-5.594-.05Zm0 0"/><path fill="none" stroke="#000" stroke-miterlimit="10" stroke-width=".39862893000000005" d="M72.14 81.02H62.126"/><path fill="none" stroke="#000" stroke-miterlimit="10" stroke-width=".7962587900000001" d="M182.027 116.07c0-6.699-5.433-12.133-12.132-12.133-6.7 0-12.133 5.434-12.133 12.133 0 6.703 5.433 12.133 12.133 12.133s12.132-5.43 12.132-12.133Zm0 0"/><path fill="none" stroke="#000" stroke-miterlimit="10" stroke-width=".39862893000000005" d="M175.43 97.879v10.996l-9.817 4.496"/><path fill="none" stroke="#000" stroke-miterlimit="10" stroke-width=".7962587900000001" d="M165.613 108.875v14.395"/><path fill="none" stroke="#000" stroke-miterlimit="10" stroke-width=".39862893000000005" d="m165.613 118.77 9.817 4.5v10.996"/><path d="m168.766 120.215.949-2.078 3.691 4.203-5.594-.05Zm0 0"/><path fill="none" stroke="#000" stroke-miterlimit="10" stroke-width=".39862893000000005" d="M165.613 116.07h-10.011M11.848 81.02v16.824m0 13.086v36.922m0 6.543v20.097h35.054v-20.097m0-6.543V107.66m0-6.547V59.051m0-26.172V10.914H11.848v8.41m0 6.543v8.414"/><path fill="#FFF" stroke="#000" stroke-miterlimit="10" stroke-width=".39862893000000005" d="M13.434 81.02c0-.88-.707-1.586-1.586-1.586a1.587 1.587 0 1 0 1.586 1.586Zm0 0"/><path fill="none" stroke="#000" stroke-miterlimit="10" stroke-width=".7962587900000001" d="M23.3 97.844H.399m22.903 13.086H.398M1.055 108.312v-7.851h21.59v7.851Zm0 0"/><path fill="#FFF" stroke="#000" stroke-miterlimit="10" stroke-width=".39862893000000005" d="M13.434 81.02c0-.88-.707-1.586-1.586-1.586a1.587 1.587 0 1 0 1.586 1.586Zm0 0"/><path fill="none" stroke="#000" stroke-miterlimit="10" stroke-width=".7962587900000001" d="M21.664 154.395H2.035m19.63-6.543H2.034M2.035 160.937l19.207-19.207"/><path fill="none" stroke="#000" stroke-miterlimit="10" stroke-width=".7962428500000001" d="m19.2 139.41 4.363 4.363"/><path fill="#FFF" stroke="#000" stroke-miterlimit="10" stroke-width=".39862893000000005" d="M13.434 127.754a1.587 1.587 0 1 0-3.17.002 1.587 1.587 0 0 0 3.17-.002Zm0 0"/><path fill="none" stroke="#000" stroke-miterlimit="10" stroke-width=".7962587900000001" d="M37.086 154.395h19.629m-19.63-6.543h19.63"/><path stroke="#000" stroke-miterlimit="10" stroke-width=".39862893000000005" d="M48.488 174.492a1.587 1.587 0 0 0-3.172 0 1.587 1.587 0 0 0 3.172 0ZM48.488 127.754a1.587 1.587 0 1 0-3.174.002 1.587 1.587 0 0 0 3.174-.002Zm0 0"/><path fill="none" stroke="#000" stroke-miterlimit="10" stroke-width=".7962587900000001" d="M37.086 107.66h19.629m-19.63-6.547h19.63"/><path stroke="#000" stroke-miterlimit="10" stroke-width=".39862893000000005" d="M48.488 81.02c0-.88-.71-1.586-1.586-1.586a1.587 1.587 0 1 0 1.586 1.586Zm0 0"/><path fill="none" stroke="#000" stroke-miterlimit="10" stroke-width=".7962587900000001" d="M51.809 32.879V59.05h-9.813V32.879Zm0 0"/><path stroke="#000" stroke-miterlimit="10" stroke-width=".39862893000000005" d="M48.488 10.914c0-.879-.71-1.586-1.586-1.586a1.585 1.585 0 1 0 0 3.168c.875 0 1.586-.707 1.586-1.582Zm0 0"/><path fill="none" stroke="#000" stroke-miterlimit="10" stroke-width=".7962587900000001" d="M21.664 19.324H2.035m19.63 6.543H2.034"/><path fill="none" stroke="#000" stroke-miterlimit="10" stroke-width=".39862893000000005" d="M11.848 34.281v9.91"/><path fill="none" stroke="#000" stroke-linecap="round" stroke-miterlimit="10" stroke-width=".7962587900000001" d="M5.902 44.191h11.895"/><path fill="none" stroke="#000" stroke-miterlimit="10" stroke-width=".39862893000000005" d="M13.434 81.02h48.89M46.902 174.492h35.051v-10.281m0-26.172V116.07h20.098m6.543 0h20.097"/><path fill="none" stroke="#000" stroke-miterlimit="10" stroke-width=".7962587900000001" d="M86.863 138.04v26.17h-9.816v-26.17Zm0 0"/><path stroke="#000" stroke-miterlimit="10" stroke-width=".39862893000000005" d="M83.539 174.492a1.587 1.587 0 1 0-3.17.002 1.587 1.587 0 0 0 3.17-.002ZM83.539 127.754a1.587 1.587 0 1 0-3.17.002 1.587 1.587 0 0 0 3.17-.002Zm0 0"/><path fill="#FFF" stroke="#000" stroke-miterlimit="10" stroke-width=".39862893000000005" d="M83.539 116.07a1.587 1.587 0 1 0-3.17.002 1.587 1.587 0 0 0 3.17-.002Zm0 0"/><path fill="none" stroke="#000" stroke-miterlimit="10" stroke-width=".7962587900000001" d="M102.05 106.258v19.629m6.544-19.63v19.63"/><path fill="#FFF" stroke="#000" stroke-miterlimit="10" stroke-width=".39862893000000005" d="M83.539 116.07a1.587 1.587 0 1 0-3.17.002 1.587 1.587 0 0 0 3.17-.002Zm0 0"/><path stroke="#000" stroke-miterlimit="10" stroke-width=".39862893000000005" d="M130.277 116.07a1.587 1.587 0 0 0-3.172 0 1.587 1.587 0 0 0 3.172 0Zm0 0"/><path fill="none" stroke="#000" stroke-miterlimit="10" stroke-width=".39862893000000005" d="M128.691 116.07v21.97m0 26.17v10.282"/><path fill="none" stroke="#000" stroke-miterlimit="10" stroke-width=".7962587900000001" d="M123.785 164.21v-26.17h9.813v26.17Zm0 0"/><path stroke="#000" stroke-miterlimit="10" stroke-width=".39862893000000005" d="M130.277 174.492a1.587 1.587 0 0 0-3.172 0 1.587 1.587 0 0 0 3.172 0Zm0 0"/><path fill="none" stroke="#000" stroke-miterlimit="10" stroke-width=".39862893000000005" d="M46.902 127.754h35.051"/><g clip-path="url(#a)"><path fill="none" stroke="#000" stroke-miterlimit="10" stroke-width=".39862893000000005" d="M81.953 174.492v9.914"/></g><g clip-path="url(#b)"><path fill="none" stroke="#000" stroke-linecap="round" stroke-miterlimit="10" stroke-width=".7962587900000001" d="M76.008 184.406h11.894"/></g><path fill="none" stroke="#000" stroke-miterlimit="10" stroke-width=".39862893000000005" d="M81.953 174.492h46.738M81.953 114.484V99.012M46.902 10.914h35.051M81.953 63.023V36.97m0 0V10.914"/><path stroke="#000" stroke-miterlimit="10" stroke-width=".39862893000000005" d="M83.539 10.914c0-.879-.707-1.586-1.586-1.586a1.585 1.585 0 1 0 0 3.168c.879 0 1.586-.707 1.586-1.582Zm0 0"/><path fill="none" stroke="#000" stroke-miterlimit="10" stroke-width=".39862893000000005" d="M128.691 116.07V81.02h10.282m26.175 0h10.282v17.058"/><path fill="none" stroke="#000" stroke-miterlimit="10" stroke-width=".7962587900000001" d="M138.973 76.11h26.175v9.816h-26.175Zm0 0"/><path stroke="#000" stroke-miterlimit="10" stroke-width=".39862893000000005" d="M177.016 81.02c0-.88-.711-1.586-1.586-1.586s-1.586.707-1.586 1.586a1.587 1.587 0 0 0 3.172 0Zm0 0"/><path fill="none" stroke="#000" stroke-miterlimit="10" stroke-width=".39862893000000005" d="M128.691 116.07h27.11M128.691 174.492h23.371v-14.254m0-6.543v-14.254"/><path fill="none" stroke="#000" stroke-miterlimit="10" stroke-width=".7962587900000001" d="M142.246 160.238h19.629m-19.629-6.543h19.629"/><path stroke="#000" stroke-miterlimit="10" stroke-width=".39862893000000005" d="M153.645 174.492a1.584 1.584 0 1 0-3.168 0 1.585 1.585 0 1 0 3.168 0Zm0 0"/><path fill="none" stroke="#000" stroke-miterlimit="10" stroke-width=".39862893000000005" d="M152.062 174.492h23.368v-4.441m0-26.172v-9.813"/><path fill="none" stroke="#000" stroke-miterlimit="10" stroke-width=".7962587900000001" d="M180.336 143.879v26.172h-9.813v-26.172Zm0 0"/><path stroke="#000" stroke-miterlimit="10" stroke-width=".39862893000000005" d="M177.016 174.492a1.587 1.587 0 0 0-3.172 0 1.587 1.587 0 0 0 3.172 0ZM177.016 139.441c0-.879-.711-1.586-1.586-1.586a1.585 1.585 0 1 0 0 3.168c.875 0 1.586-.707 1.586-1.582Zm0 0"/><path fill="none" stroke="#000" stroke-miterlimit="10" stroke-width=".39862893000000005" d="M152.062 139.441h23.368M175.43 81.02h20.097m6.543 0h20.098"/><path fill="none" stroke="#000" stroke-miterlimit="10" stroke-width=".7962587900000001" d="M195.527 71.203v19.629m6.543-19.629v19.629"/><path fill="#FFF" d="M223.754 81.02c0-.88-.711-1.586-1.586-1.586-.879 0-1.586.707-1.586 1.586a1.587 1.587 0 0 0 3.172 0m0 0"/><g clip-path="url(#c)"><path fill="none" stroke="#000" stroke-miterlimit="10" stroke-width=".39862893000000005" d="M223.754 81.02c0-.88-.711-1.586-1.586-1.586-.879 0-1.586.707-1.586 1.586a1.587 1.587 0 0 0 3.172 0Zm0 0"/></g><path fill="none" stroke="#000" stroke-miterlimit="10" stroke-width=".39862893000000005" d="M175.43 174.492h46.738"/><path fill="#FFF" d="M223.754 174.492a1.587 1.587 0 1 0-3.174.002 1.587 1.587 0 0 0 3.174-.002m0 0"/><g clip-path="url(#d)"><path fill="none" stroke="#000" stroke-miterlimit="10" stroke-width=".39862893000000005" d="M223.754 174.492a1.587 1.587 0 1 0-3.174.002 1.587 1.587 0 0 0 3.174-.002Zm0 0"/></g><path fill="none" stroke="#000" stroke-miterlimit="10" stroke-width=".39862893000000005" d="M175.43 81.02V59.05m0-26.171V10.914h10.28m26.173 0h10.285"/><path fill="none" stroke="#000" stroke-miterlimit="10" stroke-width=".7962587900000001" d="M180.336 32.879V59.05h-9.813V32.879Zm0 0"/><path fill="none" stroke="#000" stroke-linejoin="bevel" stroke-miterlimit="10" stroke-width=".7962587900000001" d="M185.312 11.07c0-2.707 1.512-4.906 3.372-4.906 1.863 0 3.37 2.2 3.37 4.906 0-2.707 1.512-4.906 3.372-4.906 1.863 0 3.37 2.2 3.37 4.906 0-2.707 1.513-4.906 3.372-4.906 1.863 0 3.371 2.2 3.371 4.906 0-2.707 1.512-4.906 3.371-4.906 1.863 0 3.371 2.2 3.371 4.906"/><path stroke="#000" stroke-miterlimit="10" stroke-width=".39862893000000005" d="M177.016 10.914c0-.879-.711-1.586-1.586-1.586a1.585 1.585 0 1 0 0 3.168c.875 0 1.586-.707 1.586-1.582Zm0 0"/><path fill="#FFF" d="M223.754 10.914c0-.879-.711-1.586-1.586-1.586-.879 0-1.586.707-1.586 1.586 0 .875.707 1.582 1.586 1.582.875 0 1.586-.707 1.586-1.582m0 0"/><g clip-path="url(#e)"><path fill="none" stroke="#000" stroke-miterlimit="10" stroke-width=".39862893000000005" d="M223.754 10.914c0-.879-.711-1.586-1.586-1.586-.879 0-1.586.707-1.586 1.586 0 .875.707 1.582 1.586 1.582.875 0 1.586-.707 1.586-1.582Zm0 0"/></g><path fill="none" stroke="#000" stroke-dasharray="2.9860503881000002 2.9860503881000002" stroke-miterlimit="10" stroke-width=".39862893000000005" d="M185.71 4.016h26.173"/><path fill="none" stroke="#000" stroke-miterlimit="10" stroke-width=".39862893000000005" d="M81.953 10.914h93.477"/><use xlink:href="#f" x="219.735" y="180.677"/><use xlink:href="#g" x="219.923" y="7.728"/><use xlink:href="#h" x="219.923" y="77.833"/><use xlink:href="#i" x="74.29" y="118.982"/><use xlink:href="#j" x="4.185" y="83.987"/><use xlink:href="#k" x="4.185" y="130.666"/></svg>