<svg xmlns="http://www.w3.org/2000/svg" xmlns:xlink="http://www.w3.org/1999/xlink" width="228.167" height="106.821"><defs><clipPath id="a"><path d="M62 103h5v3.54h-5Zm0 0"/></clipPath><clipPath id="b"><path d="M57 97h15v9.54H57Zm0 0"/></clipPath><clipPath id="c"><path d="M167 103h4v3.54h-4Zm0 0"/></clipPath><clipPath id="d"><path d="M161 97h16v9.54h-16Zm0 0"/></clipPath><clipPath id="e"><path d="M168 .105h54V105h-54Zm0 0"/></clipPath><clipPath id="f"><path d="M220 35h7.336v35H220Zm0 0"/></clipPath><path id="g" d="M2.203-6.172v.078q-.002.253-.297.313l-.328.078L2.766-3.72h.015l1.266-2-.61-.093q-.126 0-.124-.11-.001-.075.109-.25h1.781q.014.048.016.078c0 .168-.102.278-.297.328l-.313.063L3.08-3.25 4.75-.469l.422.11q.124.034.125.093 0 .048-.094.266h-1.89a.16.16 0 0 1-.016-.078c0-.176.101-.285.312-.328l.266-.047-1.281-2.125h-.016L1.266-.453l.562.094q.124.017.125.093A.6.6 0 0 1 1.86 0H.047v-.078q0-.264.297-.328l.25-.063L2.28-3.062.671-5.687l-.437-.11C.148-5.817.11-5.859.11-5.922q0-.075.11-.25Zm0 0"/></defs><path fill="none" stroke="#000" stroke-miterlimit="10" stroke-width=".39754764000000004" d="M12.258 104.758V71.52m0-11.864V26.418h26.117m0 0h26.113V49.77m0 31.632v23.356H38.375m0 0H12.258M12.258 67.543v3.977m0-7.891v-3.973"/><path fill="none" stroke="#000" stroke-miterlimit="10" stroke-width=".79409892" d="M.398 63.629h23.723"/><path fill="none" stroke="#000" stroke-miterlimit="10" stroke-width="2.38229676" d="M6.328 67.543h11.863"/><path fill="none" stroke="#000" stroke-miterlimit="10" stroke-width=".79409892" d="M70.023 81.402V49.77h-11.07v31.632ZM78.328 57.68 54.641 71.215"/><path stroke="#000" stroke-miterlimit="10" stroke-width=".7940590700000001" d="m51.336 73.102 4.21.097-2.155-3.773Zm0 0"/><g clip-path="url(#a)"><path d="M66.07 104.758a1.583 1.583 0 1 0-3.166.002 1.583 1.583 0 0 0 3.166-.002m0 0"/></g><g clip-path="url(#b)"><path fill="none" stroke="#000" stroke-miterlimit="10" stroke-width=".39754764000000004" d="M66.07 104.758a1.583 1.583 0 1 0-3.166.002 1.583 1.583 0 0 0 3.166-.002Zm0 0"/></g><path fill="none" stroke="#000" stroke-miterlimit="10" stroke-width=".39754764000000004" d="M64.488 104.758h52.227m0 0h52.226V86.55m0-15.817V52.531H145.59m-31.633 0H78.328v5.149"/><path fill="none" stroke="#000" stroke-miterlimit="10" stroke-width=".79409892" d="m168.941 70.734-9.882 15.817h19.77Zm0 0"/><path fill="none" stroke="#000" stroke-miterlimit="10" stroke-width=".39754764000000004" d="M168.941 70.734v15.817"/><path fill="none" stroke="#000" stroke-miterlimit="10" stroke-width=".79409892" d="M178.828 70.734h-19.77"/><g clip-path="url(#c)"><path d="M170.523 104.758a1.583 1.583 0 1 0-3.162.002 1.583 1.583 0 0 0 3.162-.002m0 0"/></g><g clip-path="url(#d)"><path fill="none" stroke="#000" stroke-miterlimit="10" stroke-width=".39754764000000004" d="M170.523 104.758a1.583 1.583 0 1 0-3.162.002 1.583 1.583 0 0 0 3.162-.002Zm0 0"/></g><path stroke="#000" stroke-miterlimit="10" stroke-width=".39754764000000004" d="M170.523 52.531a1.583 1.583 0 1 0-3.162.002 1.583 1.583 0 0 0 3.162-.002Zm0 0"/><path fill="none" stroke="#000" stroke-miterlimit="10" stroke-width=".79409892" d="M113.957 46.598h31.633V58.46h-31.633Zm0 0"/><g clip-path="url(#e)"><path fill="none" stroke="#000" stroke-miterlimit="10" stroke-width=".39754764000000004" d="M168.941 104.758h26.114m0 0h26.117v-36.41m0-31.633V.3h-26.117m0 0H168.94v22.16m0 7.91v22.16"/></g><g clip-path="url(#f)"><path fill="none" stroke="#000" stroke-linejoin="bevel" stroke-miterlimit="10" stroke-width=".79409892" d="M221.012 68.742c3.273 0 5.93-1.812 5.93-4.05 0-2.239-2.657-4.055-5.93-4.055 3.273 0 5.93-1.813 5.93-4.055 0-2.238-2.657-4.05-5.93-4.05 3.273 0 5.93-1.817 5.93-4.055 0-2.239-2.657-4.055-5.93-4.055 3.273 0 5.93-1.813 5.93-4.05 0-2.24-2.657-4.056-5.93-4.056"/></g><path fill="none" stroke="#000" stroke-miterlimit="10" stroke-width=".79409892" d="M180.805 22.461h-23.723m23.723 7.91h-23.723"/><path stroke="#000" stroke-miterlimit="10" stroke-width=".39754764000000004" d="M170.523 52.531a1.583 1.583 0 1 0-3.162.002 1.583 1.583 0 0 0 3.162-.002Zm0 0"/><path fill="none" stroke="#000" stroke-miterlimit="10" stroke-width=".39754764000000004" d="M185.355 86.55v-6.777m0-2.257v-6.782"/><path fill="none" stroke="#000" stroke-miterlimit="10" stroke-width=".79409892" d="M181.969 79.773h6.777m-6.777-2.257h6.777"/><use xlink:href="#g" x="69.807" y="46.595"/></svg>