<svg xmlns="http://www.w3.org/2000/svg" xmlns:xlink="http://www.w3.org/1999/xlink" width="227.342" height="120.505"><defs><path id="j" d="M2.484-3.031h1.563v.469H2.484v1.671h-.5v-1.671H.422v-.47h1.562v-1.655h.5Zm0 0"/><path id="k" d="M-4.797-4.875h.063q.188 0 .234.234l.078.329H0v.406l-4.047 2.625v.015h3.672l.094-.484q.018-.093.078-.094.034.001.203.078v1.438a.1.1 0 0 1-.062.016q-.187 0-.25-.25L-.375-.86h-4.047l-.11.437q-.011.094-.077.094-.06.002-.188-.078v-1.11l3.672-2.375v-.015h-3.297l-.11.437q-.011.094-.077.094c-.04 0-.102-.023-.188-.078Zm0 0"/><path id="l" d="M-4.797-3.5q.579-.047.813-.047.313 0 .312.188a.4.4 0 0 1-.031.156l-.719.172v1.578h1.89V-3h.391v1.547h1.766l.094-.563q.018-.093.078-.093.034 0 .203.078v1.703a.1.1 0 0 1-.062.016q-.187 0-.25-.25L-.375-.86h-4.047l-.11.437q-.011.094-.077.094-.06.002-.188-.078Zm0 0"/><path id="m" d="M-5.219-2.281v-.469L.97-.64v.468Zm0 0"/><path id="n" d="M-4.797-1.984q0-1.782 1.203-1.782.938.001 1.125 1.016h.016q.158-1.138 1.11-1.14c.398 0 .718.156.968.468Q0-2.919 0-2.047v1.719a.1.1 0 0 1-.062.016q-.187 0-.25-.25L-.375-.86h-4.047l-.11.437q-.011.094-.077.094-.06.002-.188-.078Zm4.406.015q.002-.622-.265-.968-.247-.296-.688-.297-.405 0-.64.328-.248.316-.25.89v.563h1.843Zm-2.218.047c0-.406-.086-.719-.266-.937q-.232-.282-.64-.282-.891 0-.891 1.22v.468h1.797Zm0 0"/><path id="o" d="M-2.156-2.078q-.468 0-.672.14-.218.143-.219.485c0 .148.024.281.063.406q.188.096.609.156.017.112.016.141 0 .345-.297.344c-.207 0-.383-.117-.531-.36a1.42 1.42 0 0 1-.235-.796q0-1.08 1.172-1.079h1.531q.392 0 .39-.234a.34.34 0 0 0-.093-.25.4.4 0 0 1 .203-.062q.082 0 .157.124a.65.65 0 0 1 .125.407q.001.487-.485.547v.015c.336.219.5.54.5.953q0 .394-.234.641-.246.234-.656.234-.5 0-.782-.515-.234-.435-.234-1.11v-.187Zm1.797.703q.001-.387-.36-.703h-.797l.016.187c.055.68.262 1.016.625 1.016.344 0 .516-.164.516-.5m0 0"/><path id="p" d="M-.437-.781q.14-.2.14-.5c0-.407-.148-.61-.453-.61q-.187.002-.375.204a6 6 0 0 0-.312.453q-.249.408-.438.578a.93.93 0 0 1-.656.281.75.75 0 0 1-.64-.312 1.3 1.3 0 0 1-.25-.797q0-.47.233-.75.27-.031.422-.032c.243 0 .36.09.36.266 0 .031-.004.055-.016.063l-.5.093a.86.86 0 0 0-.14.469c0 .336.136.5.406.5q.281 0 .547-.39.234-.373.468-.735.315-.388.735-.39.421 0 .703.328.28.316.281.843c0 .344-.066.625-.187.844a3 3 0 0 1-.578.063c-.22 0-.329-.086-.329-.266v-.063Zm0 0"/><path id="q" d="M-.36-.703h-2.593l-.078.5q-.012.017-.047.016c-.133 0-.207-.086-.219-.266l-.078-.813h3.016l.093-.421q.02-.094.079-.094.094.002.187.062V-.25a.1.1 0 0 1-.047.016c-.101 0-.18-.07-.234-.22Zm-4.187.11a.38.38 0 0 1-.281-.11.42.42 0 0 1-.11-.281c0-.114.04-.207.11-.282a.37.37 0 0 1 .281-.125c.125 0 .227.043.297.125a.38.38 0 0 1 .11.282q0 .175-.11.28c-.07.075-.172.11-.297.11m0 0"/><path id="r" d="m-4.625-.5-.062.5h-.063c-.125 0-.195-.082-.219-.25l-.078-.828h2.11v-.016a1.26 1.26 0 0 1-.485-1.031q0-.545.375-.89c.281-.258.711-.391 1.281-.391q.926 0 1.422.547.423.485.422 1.234 0 .703-.234 1.125Zm1.672-1.36c0 .337.11.594.328.782h2.11c.136-.188.203-.414.203-.688q0-1.061-1.36-1.062c-.445 0-.781.101-1 .297q-.28.25-.281.672m0 0"/><path id="s" d="M-.36-.703h-2.593l-.078.5q-.012.017-.047.016c-.133 0-.207-.086-.219-.266l-.078-.813.469.032v-.016a1.9 1.9 0 0 1-.328-.406 1.4 1.4 0 0 1-.188-.75q0-.5.328-.781.33-.296.922-.297h1.813l.093-.407q.02-.093.079-.093.094.002.187.062v1.469a.1.1 0 0 1-.047.015c-.101 0-.18-.07-.234-.218l-.078-.25h-1.782q-.419 0-.64.234a.78.78 0 0 0-.172.516q.002.504.344.89h2.25l.093-.421q.02-.094.079-.094.094.002.187.062V-.25a.1.1 0 0 1-.047.016c-.101 0-.18-.07-.234-.22Zm0 0"/><path id="t" d="M-.39-2.656v.015q.468.364.468 1c0 .375-.117.684-.36.922-.28.274-.71.407-1.296.407q-.902.001-1.406-.532a1.7 1.7 0 0 1-.438-1.172q0-.311.094-.593h-1.297l-.062.5a.1.1 0 0 1-.063.015c-.125 0-.195-.086-.219-.265l-.078-.813h4.672l.063-.515h.062q.19.001.203.25l.094.78Zm.015.844q0-.499-.297-.797h-2.11a.9.9 0 0 0-.25.656c0 .312.118.562.345.75q.361.313 1.015.312c.438 0 .774-.086 1-.265q.299-.235.297-.657m0 0"/><path id="u" d="M-2.656-.36q-.247 0-.688-.046v-2.266a.3.3 0 0 1 .14-.031q.112 0 .235.078l2.61 1.734h.015V-2.25l-.703-.25v-.094q0-.201.219-.203.065 0 .828.094v2.39a.5.5 0 0 1-.25.063.5.5 0 0 1-.219-.062l-2.515-1.672H-3V-.86l.578.203a.4.4 0 0 1 .016.094q.001.203-.25.203m0 0"/><path id="v" d="m-2.953-.61-.078.5q-.012.017-.047.016-.2.002-.219-.265l-.078-.813h2.172c.555 0 .828-.234.828-.703q.001-.529-.344-.86h-2.234l-.078.516h-.047q-.2.001-.219-.25l-.078-.828h3l.063-.5q.033-.014.062-.015.19.001.203.265l.094.766h-.469v.015c.336.274.5.625.5 1.063Q.08-.608-1.156-.61Zm0 0"/><path id="w" d="m-.36-5.516.094-.421q.02-.094.079-.094A.3.3 0 0 1 0-5.953v1.469h-.047q-.152 0-.234-.203l-.078-.266h-1.782q-.81.002-.812.672 0 .533.375.937.253-.047.406-.047h1.813l.093-.421q.02-.094.079-.094.094.002.187.062v1.485h-.047c-.101 0-.18-.07-.234-.22l-.078-.25h-1.782q-.81.002-.812.673.002.504.344.89h2.25l.093-.421q.02-.094.079-.094.094.002.187.062V-.25a.1.1 0 0 1-.047.016c-.101 0-.18-.07-.234-.22l-.078-.25h-2.594l-.078.5q-.012.018-.047.016c-.133 0-.207-.085-.219-.265l-.078-.813.469.032v-.016q-.516-.48-.516-1.11 0-.638.563-.89-.563-.497-.563-1.187 0-.5.328-.782c.211-.195.516-.297.922-.297Zm0 0"/><path id="x" d="M-.312-2.547c0-.469-.18-.836-.547-1.11q-.563-.42-1.547-.421-.95.002-1.516.437a1.34 1.34 0 0 0-.562 1.125q0 .705.562 1.11.55.39 1.516.39c.656 0 1.172-.132 1.547-.406q.549-.404.547-1.125m.39.031Q.08-1.56-.547-.969q-.668.61-1.86.61-1.17 0-1.843-.657c-.414-.406-.625-.93-.625-1.578q.001-.966.625-1.547.659-.592 1.844-.593 1.19 0 1.86.656.625.597.624 1.562m0 0"/><path id="y" d="M-.36-.672h-4.265l-.062.5a.1.1 0 0 1-.063.016c-.125 0-.195-.086-.219-.266l-.078-.812h4.688l.093-.422q.02-.094.079-.094.094.002.187.063v1.484h-.047c-.101 0-.18-.07-.234-.219Zm0 0"/><path id="z" d="m-3.344-.672-.922-.14v-.391h.922V-2.25l.375.063v.984h2.14q.517.002.517-.453 0-.357-.188-.578a.4.4 0 0 1 .203-.047q.095 0 .219.187c.101.168.156.383.156.64q0 .815-.797.813h-2.25v.516a.1.1 0 0 1-.062.016c-.114 0-.188-.07-.219-.22Zm0 0"/><path id="A" d="M.078-1.828c0 .43-.14.781-.422 1.062q-.466.47-1.297.47-.824 0-1.328-.516a1.58 1.58 0 0 1-.453-1.141q.001-.655.406-1.063.469-.451 1.313-.453.845 0 1.344.516.438.468.437 1.125m-.375-.047q0-.434-.328-.703-.374-.281-1.047-.281-.668 0-1.031.28a.86.86 0 0 0-.344.704q.002.423.344.688.363.28 1.031.28.674 0 1.047-.28a.84.84 0 0 0 .328-.688m0 0"/><path id="B" d="M-.36-.703h-2.593l-.078.5q-.012.017-.047.016c-.133 0-.207-.086-.219-.266l-.078-.813.578.032v-.016q-.623-.405-.625-.89.002-.453.344-.454c.094 0 .195.04.297.11-.07.168-.11.32-.11.453 0 .312.133.57.391.765h2.14l.094-.5q.02-.093.079-.093A.3.3 0 0 1 0-1.781V-.25a.1.1 0 0 1-.047.016c-.101 0-.18-.07-.234-.22Zm0 0"/><clipPath id="a"><path d="M.137 111H14v9.012H.137Zm0 0"/></clipPath><clipPath id="b"><path d="M106 111h15v9.012h-15Zm0 0"/></clipPath><clipPath id="c"><path d="M160 111h15v9.012h-15Zm0 0"/></clipPath><clipPath id="d"><path d="M186 111h16v9.012h-16Zm0 0"/></clipPath><clipPath id="e"><path d="M186 111h16v9.012h-16Zm0 0"/></clipPath><clipPath id="f"><path d="M213 111h13.55v9.012H213Zm0 0"/></clipPath><clipPath id="g"><path d="M.137 30H14v15H.137Zm0 0"/></clipPath><clipPath id="h"><path d="M213 30h13.55v15H213Zm0 0"/></clipPath><clipPath id="i"><path d="M213 3h13.55v16H213Zm0 0"/></clipPath></defs><path fill="none" stroke="#000" stroke-miterlimit="10" stroke-width=".39736809" d="M6.203 118.234h53.703m0 0h80.555m0 0h40.277m0 0h26.848m0 0h13.426"/><path fill="#FFF" d="M7.785 118.234a1.58 1.58 0 1 0-3.16-.003 1.58 1.58 0 0 0 3.16.003m0 0"/><g clip-path="url(#a)"><path fill="none" stroke="#000" stroke-miterlimit="10" stroke-width=".39736809" d="M7.785 118.234a1.58 1.58 0 1 0-3.16-.003 1.58 1.58 0 0 0 3.16.003Zm0 0"/></g><path d="M115.191 118.234a1.583 1.583 0 0 0-3.164 0 1.582 1.582 0 0 0 3.164 0m0 0"/><g clip-path="url(#b)"><path fill="none" stroke="#000" stroke-miterlimit="10" stroke-width=".39736809" d="M115.191 118.234a1.583 1.583 0 0 0-3.164 0 1.582 1.582 0 0 0 3.164 0Zm0 0"/></g><path d="M168.89 118.234a1.58 1.58 0 1 0-3.159-.005 1.58 1.58 0 0 0 3.16.005m0 0"/><g clip-path="url(#c)"><path fill="none" stroke="#000" stroke-miterlimit="10" stroke-width=".39736809" d="M168.89 118.234a1.58 1.58 0 1 0-3.159-.005 1.58 1.58 0 0 0 3.16.005Zm0 0"/></g><path d="M195.742 118.234a1.58 1.58 0 1 0-3.16-.003 1.58 1.58 0 0 0 3.16.003m0 0"/><g clip-path="url(#d)"><path fill="none" stroke="#000" stroke-miterlimit="10" stroke-width=".39736809" d="M195.742 118.234a1.58 1.58 0 1 0-3.16-.003 1.58 1.58 0 0 0 3.16.003Zm0 0"/></g><path d="M195.742 118.234a1.58 1.58 0 1 0-3.16-.003 1.58 1.58 0 0 0 3.16.003m0 0"/><g clip-path="url(#e)"><path fill="none" stroke="#000" stroke-miterlimit="10" stroke-width=".39736809" d="M195.742 118.234a1.58 1.58 0 1 0-3.16-.003 1.58 1.58 0 0 0 3.16.003Zm0 0"/></g><path fill="#FFF" d="M222.594 118.234a1.58 1.58 0 1 0-3.161-.003 1.58 1.58 0 0 0 3.16.003m0 0"/><g clip-path="url(#f)"><path fill="none" stroke="#000" stroke-miterlimit="10" stroke-width=".39736809" d="M222.594 118.234a1.58 1.58 0 1 0-3.161-.003 1.58 1.58 0 0 0 3.16.003Zm0 0"/></g><path fill="none" stroke="#000" stroke-miterlimit="10" stroke-width=".39736809" d="M6.203 37.68h17.758m31.617 0H89.52m7.902 0h39.086m7.906 0h36.324m0 0h26.848m0 0h13.426"/><path fill="none" stroke="#000" stroke-linejoin="bevel" stroke-miterlimit="10" stroke-width=".79374027" d="M23.562 37.84c0-3.274 1.813-5.93 4.051-5.93s4.051 2.656 4.051 5.93c0-3.274 1.816-5.93 4.05-5.93 2.24 0 4.056 2.656 4.056 5.93 0-3.274 1.812-5.93 4.05-5.93 2.239 0 4.051 2.656 4.051 5.93 0-3.274 1.813-5.93 4.05-5.93 2.24 0 4.052 2.656 4.052 5.93"/><path fill="#FFF" d="M7.785 37.68c0-.871-.707-1.582-1.582-1.582a1.582 1.582 0 0 0 0 3.164 1.58 1.58 0 0 0 1.582-1.582m0 0"/><g clip-path="url(#g)"><path fill="none" stroke="#000" stroke-miterlimit="10" stroke-width=".39736809" d="M7.785 37.68c0-.871-.707-1.582-1.582-1.582a1.582 1.582 0 0 0 0 3.164 1.58 1.58 0 0 0 1.582-1.582Zm0 0"/></g><path fill="none" stroke="#000" stroke-miterlimit="10" stroke-width=".79374027" d="M89.52 25.824v23.711m7.902-23.71v23.71"/><path stroke="#000" stroke-miterlimit="10" stroke-width=".39736809" d="M115.191 37.68a1.583 1.583 0 1 0-3.162.002 1.583 1.583 0 0 0 3.162-.002Zm0 0"/><path fill="none" stroke="#000" stroke-miterlimit="10" stroke-width=".79374027" d="M136.508 25.824v23.711m7.906-23.71v23.71"/><path stroke="#000" stroke-miterlimit="10" stroke-width=".39736809" d="M168.89 37.68c0-.871-.706-1.582-1.578-1.582a1.583 1.583 0 0 0 0 3.164 1.58 1.58 0 0 0 1.579-1.582ZM195.742 37.68c0-.871-.707-1.582-1.582-1.582a1.582 1.582 0 0 0 0 3.164 1.58 1.58 0 0 0 1.582-1.582Zm0 0"/><path stroke="#000" stroke-miterlimit="10" stroke-width=".39736809" d="M195.742 37.68c0-.871-.707-1.582-1.582-1.582a1.582 1.582 0 0 0 0 3.164 1.58 1.58 0 0 0 1.582-1.582Zm0 0"/><path fill="#FFF" d="M222.594 37.68c0-.871-.707-1.582-1.582-1.582a1.582 1.582 0 0 0 0 3.164 1.58 1.58 0 0 0 1.582-1.582m0 0"/><g clip-path="url(#h)"><path fill="none" stroke="#000" stroke-miterlimit="10" stroke-width=".39736809" d="M222.594 37.68c0-.871-.707-1.582-1.582-1.582a1.582 1.582 0 0 0 0 3.164 1.58 1.58 0 0 0 1.582-1.582Zm0 0"/></g><path fill="none" stroke="#000" stroke-miterlimit="10" stroke-width=".39736809" d="M113.61 37.68V24.254m0 0V10.828h37.89m31.621 0h37.89"/><path fill="none" stroke="#000" stroke-miterlimit="10" stroke-width=".79374027" d="M151.5 4.902h31.621v11.856H151.5Zm0 0"/><path fill="#FFF" d="M222.594 10.828a1.58 1.58 0 1 0-3.16.003 1.58 1.58 0 0 0 3.16-.003m0 0"/><g clip-path="url(#i)"><path fill="none" stroke="#000" stroke-miterlimit="10" stroke-width=".39736809" d="M222.594 10.828a1.58 1.58 0 1 0-3.16.003 1.58 1.58 0 0 0 3.16-.003Zm0 0"/></g><use xlink:href="#j" x="218.778" y="7.656"/><path fill="none" stroke="#000" stroke-miterlimit="10" stroke-width=".39736809" d="M113.61 37.68v32.37m0 15.81v32.374"/><path fill="none" stroke="#000" stroke-miterlimit="10" stroke-width=".79374027" d="m113.61 70.05 9.878 15.81h-19.761Zm0 0"/><path fill="none" stroke="#000" stroke-miterlimit="10" stroke-width=".39736809" d="M113.61 70.05v15.81"/><path fill="none" stroke="#000" stroke-miterlimit="10" stroke-width=".79374027" d="M103.727 70.05h19.761"/><path fill="none" stroke="#000" stroke-miterlimit="10" stroke-width=".39736809" d="M130.203 85.86v-6.774m0-2.258v-6.777"/><path fill="none" stroke="#000" stroke-miterlimit="10" stroke-width=".79374027" d="M126.816 79.086h6.774m-6.774-2.258h6.774"/><path fill="none" stroke="#000" stroke-miterlimit="10" stroke-width=".39736809" d="M167.312 37.68v36.324m0 7.906v36.324"/><path fill="none" stroke="#000" stroke-miterlimit="10" stroke-width=".79374027" d="M179.168 81.91h-23.715m23.715-7.906h-23.715M155.453 89.813l23.293-23.293"/><path fill="none" stroke="#000" stroke-miterlimit="10" stroke-width=".79371636" d="m176.71 64.207 4.352 4.348"/><path fill="none" stroke="#000" stroke-miterlimit="10" stroke-width=".39736809" d="M194.16 37.68v24.468m0 31.618v24.468"/><path fill="none" stroke="#000" stroke-linejoin="bevel" stroke-miterlimit="10" stroke-width=".79374027" d="M194.004 61.75c3.273 0 5.926 1.816 5.926 4.05 0 2.24-2.653 4.055-5.926 4.055 3.273 0 5.926 1.813 5.926 4.051s-2.653 4.051-5.926 4.051c3.273 0 5.926 1.813 5.926 4.05 0 2.24-2.653 4.052-5.926 4.052 3.273 0 5.926 1.816 5.926 4.05 0 2.239-2.653 4.055-5.926 4.055"/><use xlink:href="#k" x="8.323" y="98.563"/><use xlink:href="#l" x="8.323" y="93.431"/><use xlink:href="#m" x="8.323" y="89.972"/><use xlink:href="#n" x="8.323" y="87.048"/><use xlink:href="#o" x="8.323" y="82.776"/><use xlink:href="#p" x="8.323" y="79.533"/><use xlink:href="#q" x="8.323" y="76.845"/><use xlink:href="#p" x="8.323" y="74.907"/><use xlink:href="#r" x="8.323" y="72.22"/><use xlink:href="#o" x="8.323" y="68.511"/><use xlink:href="#s" x="8.323" y="65.267"/><use xlink:href="#t" x="8.323" y="61.183"/><use xlink:href="#u" x="223.49" y="99.616"/><use xlink:href="#v" x="223.49" y="96.56"/><use xlink:href="#w" x="223.49" y="92.608"/><use xlink:href="#x" x="223.49" y="84.989"/><use xlink:href="#p" x="223.49" y="79.905"/><use xlink:href="#u" x="223.49" y="77.217"/><use xlink:href="#q" x="223.49" y="74.161"/><use xlink:href="#y" x="223.49" y="72.223"/><use xlink:href="#y" x="223.49" y="70.286"/><use xlink:href="#o" x="223.49" y="68.348"/><use xlink:href="#z" x="223.49" y="65.105"/><use xlink:href="#A" x="223.49" y="62.743"/><use xlink:href="#B" x="223.49" y="58.979"/><path fill="none" stroke="#000" stroke-dasharray="2.9766056853 2.9766056853" stroke-miterlimit="10" stroke-width=".39736809" d="M23.96 29.766h31.618"/></svg>