<svg xmlns="http://www.w3.org/2000/svg" xmlns:xlink="http://www.w3.org/1999/xlink" width="226.773" height="127.853"><defs><path id="a" d="M2.594-6.172c.008.024.015.047.015.078q0 .237-.312.297l-.422.094v2.281h3v-2.281l-.562-.125c-.086-.02-.125-.05-.125-.094q0-.075.093-.25H6.36a.2.2 0 0 1 .016.078q0 .237-.312.297l-.407.094V-.5l.61.14q.124.018.125.094 0 .048-.094.266h-2.11v-.078q0-.246.297-.328L4.875-.5v-2.39h-3V-.5l.625.14q.124.018.125.094 0 .048-.094.266H.421a.16.16 0 0 1-.015-.078Q.404-.324.72-.406L1.094-.5v-5.203l-.547-.125c-.086-.02-.125-.05-.125-.094q0-.075.094-.25Zm0 0"/><path id="b" d="M4.516-6.172c.039.5.062.852.062 1.047 0 .262-.086.39-.25.39a.6.6 0 0 1-.203-.03l-.219-.938H1.875v2.453h2v.5h-2V-.5l.719.14q.124.018.125.094c0 .032-.04.121-.11.266H.422a.16.16 0 0 1-.016-.078Q.404-.324.72-.406L1.094-.5v-5.203l-.547-.125c-.086-.02-.125-.05-.125-.094q0-.075.094-.25Zm0 0"/><path id="e" d="m6.031-.5-.093-4.234h-.016L4.032-.078h-.485L1.703-4.766h-.016L1.61-.5l.61.14q.124.018.125.094 0 .048-.094.266H.39v-.078Q.39-.324.689-.406l.39-.094.063-5.203-.547-.125c-.086-.02-.125-.05-.125-.094q0-.075.094-.25h1.421L3.922-1.25h.015l2-4.922h1.516v.078q-.002.237-.297.297l-.422.094L6.797-.5l.625.14q.124.018.125.094 0 .048-.094.266h-2.11v-.078q-.001-.246.298-.328Zm0 0"/><path id="f" d="M.906-.469v-3.343l-.64-.079a.2.2 0 0 1-.016-.078q0-.246.328-.281l1.063-.094v3.875l.53.125q.125.017.126.11A.4.4 0 0 1 2.219 0H.313a.1.1 0 0 1-.016-.062c0-.133.094-.235.281-.297Zm-.14-5.375q0-.234.14-.375a.52.52 0 0 1 .36-.14.507.507 0 0 1 .53.515.49.49 0 0 1-.155.375.53.53 0 0 1-.375.125.5.5 0 0 1-.36-.125.5.5 0 0 1-.14-.375m0 0"/><path id="g" d="M1-.578q.264.204.656.203c.508 0 .766-.195.766-.594q-.002-.234-.25-.468a5 5 0 0 0-.578-.407q-.534-.327-.75-.562a1.26 1.26 0 0 1-.344-.86q0-.513.39-.828.405-.311 1.032-.312.576 0 .953.312.03.33.031.547-.002.439-.344.438h-.078l-.109-.657a1.08 1.08 0 0 0-.61-.187c-.43 0-.64.18-.64.531 0 .242.164.477.5.703q.48.3.938.61.515.409.515.953 0 .532-.422.906-.41.362-1.078.36C1.128.11.766.022.484-.14a3.7 3.7 0 0 1-.078-.735q0-.436.344-.437.03.002.078.015Zm0 0"/><path id="h" d="M3.563-.844q.123.128.124.25 0 .222-.359.438-.44.265-1.078.265-.844 0-1.344-.562-.515-.563-.515-1.64c0-.72.21-1.29.64-1.72.407-.394.914-.593 1.532-.593.414 0 .734.086.953.25q.234.206.234.453 0 .392-.36.484-.346-.686-1.015-.687-.517 0-.828.375-.375.44-.375 1.25Q1.17-.436 2.547-.437c.426 0 .765-.133 1.015-.407m0 0"/><path id="i" d="M.828-.469v-5.484l-.656-.094a.1.1 0 0 1-.016-.062q0-.246.344-.282L1.547-6.5v2.734h.031q.514-.639 1.375-.64 1.437.002 1.438 1.61V-.47l.53.125q.125.017.126.11A.35.35 0 0 1 4.953 0h-1.89a.1.1 0 0 1-.016-.062c0-.133.094-.235.281-.297l.328-.11V-2.75q0-1.061-.969-1.062-.69 0-1.14.468v2.875l.547.125q.124.017.125.11A.35.35 0 0 1 2.125 0H.219v-.062c0-.133.094-.235.281-.297Zm0 0"/><path id="j" d="M1.156-2.172q.012.845.375 1.297.359.439 1.016.438c.394 0 .765-.133 1.11-.407q.092.064.109.25-.001.205-.407.438Q2.89.109 2.25.109 1.434.111.953-.39.391-.965.391-2.062.39-3.173.969-3.828q.527-.576 1.312-.578.702 0 1.094.422.375.41.375 1.078c0 .199-.04.445-.11.734Zm1.032-1.765q-.892.002-1.016 1.328h1.766q.046-.171.046-.375 0-.951-.796-.953m0 0"/><path id="k" d="M.906-.469v-3.343l-.64-.079a.2.2 0 0 1-.016-.078q0-.246.328-.281l1.063-.094-.063.75h.031c.352-.539.735-.812 1.141-.812q.593.002.594.437 0 .188-.14.375a1.6 1.6 0 0 0-.595-.125q-.61.001-.968.5v2.75l.625.125q.124.017.125.11A.35.35 0 0 1 2.297 0H.312a.1.1 0 0 1-.015-.062c0-.133.094-.235.281-.297Zm0 0"/><path id="r" d="M5.844-6.172c.008.024.015.047.015.078q0 .253-.312.313l-.234.062L3.28 0h-.734L.453-5.719l-.375-.093q-.124-.029-.125-.11c0-.05.035-.133.094-.25h2v.078c0 .157-.102.262-.297.313l-.375.078 1.64 4.797h.016L4.734-5.72l-.687-.11q-.127-.029-.125-.093 0-.075.094-.25Zm0 0"/><path id="s" d="M3.422-.437q.561.002 1-.172l.281-1.188a.7.7 0 0 1 .203-.031c.157 0 .235.133.235.39l-.032.97Q4.39.11 3.266.108q-1.19 0-1.922-.703C.758-1.144.469-1.969.469-3.062c0-1.051.32-1.876.969-2.47q.843-.75 2.015-.75.996.001 1.688.407.046.644.046.938-.001.39-.265.39a.6.6 0 0 1-.203-.031l-.203-.906a2 2 0 0 0-1.063-.282c-.625 0-1.133.204-1.515.61-.43.46-.641 1.125-.641 2 0 .93.207 1.625.625 2.094q.563.625 1.5.625m0 0"/><path id="t" d="M3.281-.39q.903 0 1.438-.72c.351-.476.531-1.14.531-1.984q-.001-1.23-.547-1.953a1.75 1.75 0 0 0-1.469-.734c-.593 0-1.07.242-1.421.718q-.516.721-.516 1.97c0 .843.176 1.507.531 1.984q.528.719 1.453.718m-.047.5Q2 .11 1.25-.704q-.783-.855-.781-2.39 0-1.514.844-2.376.778-.81 2.015-.812 1.264.002 2 .812c.508.563.766 1.356.766 2.375q0 1.518-.844 2.39-.784.815-2.016.813m0 0"/><path id="w" d="M3.656-5.656v-.016H1.203l-.203 1a.5.5 0 0 1-.187.031q-.268 0-.266-.375 0-.387.062-1.156h3.922a.49.49 0 0 1 0 .578L1.36-.562v.015h2.75l.235-1.015a.44.44 0 0 1 .203-.047q.217 0 .219.375c0 .218-.028.632-.079 1.234H.438Q.28-.06.282-.281q0-.123.063-.235Zm0 0"/><path id="l" d="M1.578 1.563c-.094.156-.266.265-.406.265-.11 0-.156-.062-.219-.14-.078-.125-.25-.297-.437-.297-.25 0-.344.172-.344.328 0 .203.219.406.828.406.375 0 .766-.172 1.047-.562.25-.344.437-1.032.797-2.72.14-.702.281-1.437.422-2.187l.015-.14h.844c.078 0 .203-.047.219-.11 0 0 .047-.187.047-.203 0-.031-.016-.047-.063-.047h-.984l.11-.5c.124-.672.25-1.078.374-1.328.14-.25.25-.312.36-.312.14 0 .156.078.187.25.031.187.11.422.39.422a.31.31 0 0 0 .329-.297c0-.328-.297-.641-.828-.641a1 1 0 0 0-.61.25c-.297.219-.672.563-1 2.156l-.594.031c-.171 0-.234.079-.25.157a.5.5 0 0 0-.046.14c0 .032.03.032.046.032h.75c-.203 1.015-.25 1.547-.359 2.218-.14.86-.281 2.329-.625 2.829m0 0"/><path id="m" d="M4.781-2.36c0-1.484-1.031-2.359-2.312-2.359-1.39 0-2.203 1.11-2.203 2.5 0 1.406 1.03 2.297 2.25 2.297.797 0 1.422-.344 1.812-.906.297-.406.453-.922.453-1.531M2.375-4.452c.953 0 1.719.781 1.719 2.234 0 1.281-.625 2.031-1.438 2.031-.875 0-1.703-.78-1.703-2.156 0-1.5.703-2.11 1.422-2.11m0 0"/><path id="n" d="M2.828-4.531c-.406-.047-.39-.188-1.094-.188C1-4.719.36-4.234.36-3.484c0 .765.625 1.109 1.266 1.343.422.172.953.375.953 1.079 0 .578-.312.875-.89.875C1.015-.187.593-.5.438-1.203a.34.34 0 0 0-.25.016c.03.562.062.75.156 1.093.437 0 .64.172 1.281.172.328 0 .64-.078.89-.25.407-.25.672-.687.672-1.14 0-.766-.578-1.11-1.171-1.329C1.594-2.797.875-3.062.875-3.67c0-.407.36-.798.781-.798.703 0 .922.438 1.063.907a.35.35 0 0 0 .25-.032 8 8 0 0 0-.14-.937m0 0"/><path id="o" d="M3.953.016c.031-.407.11-.828.188-1.203a.7.7 0 0 0-.22-.032c-.218.516-.405.907-1.187.922L1.36-.266c-.125 0-.187-.046-.187-.109 0-.031.031-.078.062-.14.516-.766 1.844-2.641 2.688-3.72.156-.202.172-.25.172-.327 0-.047-.032-.079-.094-.079-.078 0-.312.016-.516.016H1.891c-.328 0-1.032-.031-1.297-.062-.031.39-.094.796-.156 1.093.078.016.14.031.218.031.14-.484.422-.75.953-.75l1.516-.03c.047 0 .078.015.078.062 0 .031-.031.078-.062.125A95 95 0 0 0 .344-.266a.3.3 0 0 0-.047.157c0 .078.031.109.14.109h2.61c.187 0 .906.016.906.016m0 0"/><clipPath id="c"><path d="M.016 25H4v4H.016Zm0 0"/></clipPath><clipPath id="d"><path d="M.016 19H10v15H.016Zm0 0"/></clipPath><clipPath id="p"><path d="M80 99h29v28.707H80Zm0 0"/></clipPath><clipPath id="q"><path d="M81 111h26v16.707H81Zm0 0"/></clipPath><clipPath id="u"><path d="M108 26h118.531v1H108Zm0 0"/></clipPath><clipPath id="v"><path d="M222 24h4.531v5H222Zm0 0"/></clipPath></defs><path fill="none" stroke="#000" stroke-miterlimit="10" stroke-width=".39854115" d="M1.8 26.652h39.356m0 0h39.36"/><use xlink:href="#a" x="4.985" y="23.469"/><use xlink:href="#b" x="11.756" y="23.469"/><g clip-path="url(#c)"><path fill="#FFF" d="M3.387 26.652a1.587 1.587 0 0 0-3.172 0 1.587 1.587 0 0 0 3.172 0m0 0"/></g><g clip-path="url(#d)"><path fill="none" stroke="#000" stroke-miterlimit="10" stroke-width=".39854115" d="M3.387 26.652a1.587 1.587 0 0 0-3.172 0 1.587 1.587 0 0 0 3.172 0Zm0 0"/></g><path d="M76.3 26.652v1.98l4.216-1.98-4.215-1.98Zm0 0"/><path fill="none" stroke="#000" stroke-miterlimit="10" stroke-width=".79608345" d="M80.516 12.777h27.746v27.75H80.516Zm0 0"/><path fill="none" stroke="#000" stroke-miterlimit="10" stroke-width=".39854115" d="M104.102 26.652c0-5.363-4.352-9.71-9.715-9.71-5.364 0-9.711 4.347-9.711 9.71s4.347 9.711 9.71 9.711 9.716-4.347 9.716-9.71ZM87.52 19.785l13.734 13.735m0-13.735L87.52 33.52"/><use xlink:href="#e" x="79.041" y="9.487"/><use xlink:href="#f" x="86.931" y="9.487"/><use xlink:href="#g" x="89.43" y="9.487"/><use xlink:href="#h" x="92.896" y="9.487"/><use xlink:href="#i" x="96.926" y="9.487"/><use xlink:href="#j" x="102.103" y="9.487"/><use xlink:href="#k" x="106.276" y="9.487"/><path fill="none" stroke="#000" stroke-miterlimit="10" stroke-width=".39854115" d="M94.387 40.527v29.516m0 0v29.52"/><path d="M94.387 44.738h1.984l-1.984-4.21-1.98 4.21Zm0 0"/><use xlink:href="#l" x="99.964" y="72.193"/><use xlink:href="#m" x="103.735" y="74.074"/><use xlink:href="#n" x="108.764" y="74.074"/><use xlink:href="#o" x="112.239" y="74.074"/><g clip-path="url(#p)"><path fill="none" stroke="#000" stroke-miterlimit="10" stroke-width=".79608345" d="M80.516 99.563h27.746v27.746H80.516Zm0 0"/></g><path fill="none" stroke="#000" stroke-miterlimit="10" stroke-width=".39854115" d="M87.453 106.5c1.13-1.777 2.211-3.469 3.465-3.469 1.258 0 2.34 1.692 3.469 3.469 1.133 1.773 2.215 3.469 3.469 3.469 1.257 0 2.34-1.696 3.468-3.469M87.453 113.434c1.13-1.774 2.211-3.465 3.465-3.465 1.258 0 2.34 1.691 3.469 3.465 1.133 1.777 2.215 3.468 3.469 3.468 1.257 0 2.34-1.691 3.468-3.468"/><g clip-path="url(#q)"><path fill="none" stroke="#000" stroke-miterlimit="10" stroke-width=".39854115" d="M87.453 120.371c1.13-1.773 2.211-3.469 3.465-3.469 1.258 0 2.34 1.696 3.469 3.47 1.133 1.776 2.215 3.468 3.469 3.468 1.257 0 2.34-1.692 3.468-3.469"/></g><path fill="none" stroke="#000" stroke-miterlimit="10" stroke-width=".39854115" d="m84.676 120.371 16.883-15.676"/><path stroke="#000" stroke-miterlimit="10" stroke-width=".39852519000000003" d="m103.809 102.605-3.375.73 1.199 1.294 1.195 1.289Zm0 0"/><use xlink:href="#r" x="111.445" y="116.524"/><use xlink:href="#s" x="117.105" y="116.524"/><use xlink:href="#t" x="122.685" y="116.524"/><g clip-path="url(#u)"><path fill="none" stroke="#000" stroke-miterlimit="10" stroke-width=".39854115" d="M108.262 26.652h45.16m27.75 0h45.16"/></g><path fill="none" stroke="#000" stroke-miterlimit="10" stroke-width=".79608345" d="M153.422 12.777h27.75v27.75h-27.75Zm0 0"/><path d="M149.21 26.652v1.98l4.212-1.98-4.211-1.98Zm0 0"/><path fill="none" stroke="#000" stroke-miterlimit="10" stroke-width=".39854115" d="M160.36 19.715c1.132-1.774 2.214-3.469 3.468-3.469 1.258 0 2.34 1.695 3.469 3.469 1.133 1.777 2.215 3.469 3.469 3.469s2.336-1.692 3.468-3.47m-4.855-2.081-4.164 4.164M160.36 26.652c1.132-1.777 2.214-3.468 3.468-3.468 1.258 0 2.34 1.691 3.469 3.468 1.133 1.778 2.215 3.47 3.469 3.47s2.336-1.692 3.468-3.47M160.36 33.59c1.132-1.777 2.214-3.469 3.468-3.469 1.258 0 2.34 1.692 3.469 3.469 1.133 1.773 2.215 3.469 3.469 3.469s2.336-1.696 3.468-3.47m-4.855-2.081-4.164 4.164"/><g clip-path="url(#v)"><path d="M222.121 26.652v1.98l4.211-1.98-4.21-1.98Zm0 0"/></g><use xlink:href="#w" x="213.205" y="23.469"/><use xlink:href="#b" x="218.354" y="23.469"/></svg>