<svg xmlns="http://www.w3.org/2000/svg" xmlns:xlink="http://www.w3.org/1999/xlink" width="232.485" height="57.358"><defs><path id="e" d="M2.938-2.437H.547v-.532h2.39Zm0 0"/><path id="f" d="M2.016-.562V-4.97l-1.328.266a1 1 0 0 1-.016-.188q-.001-.198.203-.28l1.469-.595h.437v5.204l1.078.156Q4-.373 4-.296c0 .054-.04.151-.11.296H.86a.16.16 0 0 1-.016-.078q-.002-.311.297-.36Zm0 0"/><path id="g" d="M2.219-.39q1.078 0 1.078-2.485c0-1.664-.36-2.5-1.078-2.5-.73 0-1.094.836-1.094 2.5Q1.124-.391 2.219-.391m-.047.5Q1.31.111.828-.626q-.532-.78-.531-2.25 0-1.466.562-2.25.516-.733 1.407-.734.857.001 1.343.734.516.784.516 2.25-.001 1.454-.547 2.25c-.344.492-.812.734-1.406.734m0 0"/><path id="h" d="M5.781-6.11c.008.024.016.048.016.079 0 .168-.102.273-.297.312l-.234.063L3.25 0h-.719L.453-5.656.078-5.75q-.124-.029-.125-.11c0-.05.035-.132.094-.25h1.969a.2.2 0 0 1 .015.079q-.002.235-.297.312l-.375.078L2.984-.89H3l1.688-4.765L4-5.766q-.127-.03-.125-.093-.001-.075.11-.25Zm0 0"/><path id="i" d="M2.469-3H4v.453H2.469V-.89h-.5v-1.656H.422V-3h1.547v-1.64h.5Zm0 0"/><path id="k" d="m.938-3.797-.485.016c-.156.015-.219.094-.234.156a1 1 0 0 0-.047.156c0 .016.031.016.062.016h.61L.313-1.047C.25-.766.188-.484.188-.313c0 .313.156.407.437.407.39 0 .984-.375 1.281-.922C1.875-.938 1.813-1 1.703-1c-.406.469-.562.563-.703.563-.031 0-.11-.016-.11-.125 0-.079.016-.266.094-.563L1.5-3.453h.875c.11-.047.188-.281.094-.344h-.89l.093-.406c.031-.172.125-.422.125-.531 0-.141-.078-.235-.36-.235-.328 0-.296.39-.39.719Zm0 0"/><path id="l" d="M1.813.094c1.734 0 2.343-1.125 2.656-2.703l.468-2.438c.047-.25.188-.39.563-.406l.219-.016c.047 0 .062-.031.078-.078l.031-.172-.016-.015c-.406.015-.75.015-.937.015-.203 0-.531 0-.937-.015l-.016.015-.031.172c-.016.047.03.078.046.078l.235.016c.281.016.406.094.406.281 0 .031-.016.078-.031.125l-.5 2.594C3.859-1.47 3.5-.281 2.063-.281c-.422 0-.72-.172-.922-.438-.188-.234-.25-.515-.25-.797 0-.28.062-.578.109-.875l.531-2.671c.047-.25.188-.375.547-.391l.219-.016c.047 0 .062-.031.078-.078l.031-.172-.015-.015c-.391.015-.75.015-1.094.015-.328 0-.672 0-1.063-.015l-.03.015-.032.172c0 .047.016.078.062.078l.22.016c.265.016.405.078.405.266 0 .046-.015.078-.015.125L.25-2.094c-.031.235-.062.438-.062.625C.188-.187 1.14.094 1.813.094m0 0"/><path id="m" d="m1.094-.562.39-1.032c.047-.093.079-.11.25-.11h1.5l.407 1.188c.093.25-.172.282-.516.297-.047.047-.047.188 0 .235C3.391 0 3.781 0 4.047 0c.297 0 .562 0 .812.016.047-.047.047-.188 0-.235-.28-.031-.515-.047-.64-.39L2.766-4.672c-.11.063-.297.14-.391.14L.765-.718c-.187.438-.406.485-.718.5C0-.172 0-.03.047.016.234 0 .469 0 .687 0c.282 0 .641 0 .907.016.031-.047.031-.188 0-.235-.282-.015-.61-.047-.5-.343M1.859-2c-.156 0-.203-.031-.171-.094l.718-1.844h.047L3.125-2Zm0 0"/><clipPath id="a"><path d="M29 13h201.945v38H29Zm0 0"/></clipPath><clipPath id="b"><path d="M227 30h3.945v4H227Zm0 0"/></clipPath><clipPath id="c"><path d="M221 24h9.945v16H221Zm0 0"/></clipPath><clipPath id="d"><path d="M29 3h2v53.723h-2Zm0 0"/></clipPath><clipPath id="j"><path d="M29.922 7H227v31H29.922Zm0 0"/></clipPath></defs><g clip-path="url(#a)"><path fill="none" stroke="#BFBFBF" stroke-miterlimit="10" stroke-width=".19679707000000002" d="M29.922 50.656H230.75M29.922 13.277H230.75"/></g><path fill="none" stroke="#000" stroke-miterlimit="10" stroke-width=".7881772100000001" d="M27.816 50.656h4.207m-4.207-37.379h4.207"/><path fill="none" stroke="#000" stroke-miterlimit="10" stroke-width=".39458307000000004" d="M29.922 31.969h197.394"/><g clip-path="url(#b)"><path d="m230.355 31.969-2.94-1.746v3.488Zm0 0"/></g><g clip-path="url(#c)"><path fill="none" stroke="#000" stroke-miterlimit="10" stroke-width=".39458307000000004" d="m230.355 31.969-2.94-1.746v3.488Zm0 0"/></g><g clip-path="url(#d)"><path fill="none" stroke="#000" stroke-miterlimit="10" stroke-width=".39458307000000004" d="M29.922 56.262V3.632"/></g><path stroke="#000" stroke-miterlimit="10" stroke-width=".39458307000000004" d="M29.922.59 28.176 3.53h3.488Zm0 0"/><use xlink:href="#e" x="4.945" y="53.661"/><use xlink:href="#f" x="8.421" y="53.661"/><use xlink:href="#g" x="12.855" y="53.661"/><use xlink:href="#h" x="18.92" y="53.661"/><use xlink:href="#i" x="3.987" y="16.285"/><use xlink:href="#f" x="8.421" y="16.285"/><use xlink:href="#g" x="12.854" y="16.285"/><use xlink:href="#h" x="18.919" y="16.285"/><g clip-path="url(#j)"><path fill="none" stroke="#000" stroke-miterlimit="10" stroke-width=".39458307000000004" d="M29.922 31.969H91.25c.105 0 .273.082.383 0 .105-.086.277-.328.383-.602s.277-.992.382-1.367c.106-.371.278-.96.383-1.32a117.193 117.193 0 0 1 .766-2.488c.11-.329.277-.848.383-1.169.11-.316.277-.812.386-1.113.106-.305.274-.777.383-1.066a61.023 61.023 0 0 1 .766-1.965 44.836 44.836 0 0 1 .766-1.75c.105-.227.277-.578.382-.793.11-.211.278-.54.383-.734.11-.196.277-.5.387-.68a17.803 17.803 0 0 1 .766-1.187 11 11 0 0 1 .765-.954 7 7 0 0 1 .766-.726c.11-.082.277-.203.382-.274.11-.066.278-.16.387-.21a3 3 0 0 1 .766-.255c.105-.02.277-.035.383-.035.105-.004.277.008.382.02.106.015.278.05.383.082.106.031.278.094.383.14a4 4 0 0 1 .77.461c.105.079.273.22.382.317.106.094.278.262.383.375.106.113.278.304.383.433.106.13.277.348.383.493.105.148.277.39.383.55.105.164.277.434.382.61.11.176.278.472.383.664.11.191.278.515.387.722.105.207.273.555.383.778.105.222.277.594.383.832a51 51 0 0 1 1.148 2.828c.106.285.277.754.383 1.05.11.302.277.794.383 1.106.11.313.277.828.386 1.153.106.328.274.867.383 1.207a141.246 141.246 0 0 1 .766 2.566c.105.367.277 1.035.383 1.352.105.32.277.816.382.949.106.129.278 0 .383 0h75.129c.106 0 .274.18.383 0 .105-.18.277-.926.383-1.29.105-.366.277-.98.383-1.343.105-.367.277-.941.382-1.297a122 122 0 0 1 .766-2.437c.11-.325.277-.832.383-1.141.11-.309.277-.797.387-1.09.105-.297.273-.758.382-1.039a56.63 56.63 0 0 1 .766-1.91 41.337 41.337 0 0 1 .766-1.695 47 47 0 0 1 .382-.766c.11-.203.278-.516.383-.707.11-.188.278-.477.387-.649a14 14 0 0 1 .766-1.128 8.117 8.117 0 0 1 1.148-1.262 4.822 4.822 0 0 1 .766-.547c.11-.059.277-.14.386-.184.106-.043.274-.101.383-.125.106-.027.278-.058.383-.07a3 3 0 0 1 .383-.004 2.6 2.6 0 0 1 .765.16 3.553 3.553 0 0 1 .766.402c.11.071.277.2.387.286.105.09.273.242.383.347.105.106.277.286.382.407a12 12 0 0 1 .766.984c.106.152.277.41.383.578.105.172.277.453.383.637.11.187.277.492.383.695.109.2.277.532.386.75.106.215.274.574.383.805.106.23.277.613.383.86a55 55 0 0 1 1.148 2.91c.106.292.278.773.383 1.078.11.304.277.808.383 1.129.11.32.277.847.387 1.18.105.335.273.882.382 1.234a133 133 0 0 1 .766 2.609c.106.379.277 1.156.383 1.383.105.222.277.215.383.25s.277 0 .383 0h13.417"/></g><use xlink:href="#k" x="225.582" y="40.094"/><use xlink:href="#l" x="33.073" y="9.086"/><use xlink:href="#m" x="37.791" y="10.948"/></svg>