<svg xmlns="http://www.w3.org/2000/svg" xmlns:xlink="http://www.w3.org/1999/xlink" width="226.814" height="83.134"><defs><path id="d" d="M3.11-1.078v-3.39c0-.579.078-.907.406-.907h.187c.672 0 1.094.234 1.235.906.109 0 .234 0 .312-.047-.062-.406-.11-.859-.125-1.25 0-.015-.016-.03-.016-.03-.312.03-1.296.077-2 .077h-.75c-.687 0-1.734-.047-2.078-.078a.034.034 0 0 0-.031.031c-.031.391-.125.86-.219 1.282a.9.9 0 0 0 .297.046C.5-5.14.922-5.374 1.5-5.374h.438c.328 0 .421.328.421.875v3.422c0 .734-.156.781-.875.797-.046.062-.046.25 0 .297.438 0 .891-.016 1.25-.016.344 0 .782.016 1.235.016.047-.047.047-.235 0-.297-.719-.016-.86-.063-.86-.797m0 0"/><path id="e" d="M.547-4.156c0 .187.156.343.344.343.156 0 .422-.156.422-.343 0-.078-.016-.125-.032-.188-.015-.062-.078-.14-.078-.218 0-.22.234-.547.875-.547.328 0 .781.234.781 1.078 0 .562-.203 1.031-.734 1.562l-.656.656c-.86.876-1 1.313-1 1.829 0 0 .453-.016.734-.016H2.75c.281 0 .688.016.688.016.124-.47.203-1.141.218-1.407-.047-.03-.172-.062-.25-.03-.156.624-.312.843-.625.843H1.203c0-.422.61-1.031.656-1.078l.891-.86c.5-.484.89-.875.89-1.546 0-.954-.78-1.344-1.5-1.344-.984 0-1.593.718-1.593 1.25m0 0"/><path id="f" d="M1.906-5.11c.39 0 .735.235.735.813 0 .438-.516 1.125-1.391 1.25l.047.281c.156-.015.312-.015.422-.015.515 0 1.172.14 1.172 1.14 0 1.172-.797 1.422-1.11 1.422-.453 0-.531-.203-.64-.36C1.062-.702.938-.812.766-.812.578-.812.39-.64.39-.5c0 .344.75.594 1.28.594 1.048 0 2-.688 2-1.86 0-.968-.733-1.312-1.265-1.406v-.015c.735-.344.938-.704.938-1.172 0-.266-.063-.485-.281-.703-.204-.204-.5-.344-.97-.344-1.296 0-1.671.843-1.671 1.14 0 .125.078.297.297.297.312 0 .344-.297.344-.453 0-.578.609-.687.843-.687m0 0"/><path id="h" d="m.938-3.812-.47.03c-.171.016-.234.079-.25.157a.5.5 0 0 0-.046.14c0 .016.031.016.062.016H.86L.313-1.047C.25-.766.188-.484.188-.313c0 .313.156.407.437.407.39 0 .984-.375 1.281-.922C1.875-.938 1.813-1 1.72-1c-.422.469-.578.563-.719.563a.12.12 0 0 1-.11-.125q0-.118.094-.563l.532-2.344h.859c.11-.031.188-.265.094-.344h-.875l.078-.39c.047-.172.125-.422.125-.531 0-.157-.078-.25-.36-.25-.312 0-.296.406-.39.734Zm0 0"/><path id="i" d="M1.813.094c1.75 0 2.359-1.125 2.656-2.719l.484-2.437c.047-.25.188-.375.547-.407l.219-.015c.047 0 .078-.032.078-.079l.047-.156-.016-.015c-.406 0-.75.015-.953.015-.187 0-.531-.015-.922-.015l-.015.015-.047.157c0 .046.03.078.062.078l.235.015c.28.016.39.094.39.282 0 .046 0 .078-.016.125l-.5 2.609c-.203.984-.562 2.172-2 2.172-.406 0-.718-.188-.921-.438-.188-.234-.25-.515-.25-.797 0-.28.062-.593.109-.875l.531-2.687c.047-.25.188-.36.547-.39l.219-.016c.047 0 .078-.032.078-.079l.031-.156-.015-.015c-.391 0-.75.015-1.094.015-.328 0-.672-.015-1.063-.015l-.03.015-.032.157c0 .046.016.078.062.078l.22.015c.28.016.405.094.405.282 0 .03 0 .062-.015.109L.25-2.094c-.031.235-.062.438-.062.625C.188-.187 1.14.094 1.813.094m0 0"/><clipPath id="a"><path d="M1.078 50H223v1H1.078Zm0 0"/></clipPath><clipPath id="b"><path d="M216 43h9.555v15H216Zm0 0"/></clipPath><clipPath id="c"><path d="M27 15h2v67.277h-2Zm0 0"/></clipPath><clipPath id="g"><path d="M1.273 22H34v57H1.273Zm0 0"/></clipPath></defs><path fill="none" stroke="#7F7F7F" stroke-miterlimit="10" stroke-width=".19694831000000002" d="M81.305 52.508V48.3m53.351 4.207V48.3m53.356 4.207V48.3"/><g clip-path="url(#a)"><path fill="none" stroke="#000" stroke-miterlimit="10" stroke-width=".39488631" d="M1.273 50.406h220.649"/></g><path d="m224.965 50.406-2.945-1.746v3.488Zm0 0"/><g clip-path="url(#b)"><path fill="none" stroke="#000" stroke-miterlimit="10" stroke-width=".39488631" d="m224.965 50.406-2.945-1.746v3.488Zm0 0"/></g><g clip-path="url(#c)"><path fill="none" stroke="#000" stroke-miterlimit="10" stroke-width=".39488631" d="M27.95 82.078v-66.7"/></g><path stroke="#000" stroke-miterlimit="10" stroke-width=".39488631" d="m27.95 12.336-1.743 2.945h3.488Zm0 0"/><use xlink:href="#d" x="82.488" y="61.459"/><use xlink:href="#e" x="137.611" y="61.459"/><use xlink:href="#d" x="141.737" y="61.459"/><use xlink:href="#f" x="190.964" y="61.459"/><use xlink:href="#d" x="195.09" y="61.459"/><g clip-path="url(#g)"><path fill="none" stroke="#000" stroke-dasharray="2.9580151626999998 2.9580151626999998" stroke-miterlimit="10" stroke-width=".39488631" d="m-25.402 50.406.535-1.422c.144-.394.383-1.023.531-1.414l.535-1.406c.149-.387.383-1.004.531-1.387.149-.379.387-.988.536-1.363.148-.375.386-.973.535-1.336.144-.367.383-.95.531-1.305.148-.359.387-.921.535-1.27.149-.343.383-.89.531-1.222s.387-.855.536-1.176c.148-.316.386-.816.53-1.12a46.952 46.952 0 0 1 1.602-3.012 28.506 28.506 0 0 1 1.066-1.672c.15-.211.388-.531.536-.723.148-.187.387-.476.535-.644.145-.168.383-.418.531-.567.149-.144.387-.36.536-.48.148-.121.382-.297.53-.395.15-.097.388-.238.536-.312s.387-.172.531-.223a5 5 0 0 1 .535-.133c.149-.023.387-.043.536-.043.144 0 .382.02.53.043.15.028.387.086.536.133.148.05.383.148.531.223.149.074.387.215.535.312.149.098.387.274.535.395.145.12.383.336.532.48.148.149.386.399.535.567.148.168.383.457.531.644.149.192.387.512.535.723s.387.57.532.8a33.743 33.743 0 0 1 1.07 1.812c.144.27.383.716.531 1.005.149.285.387.762.535 1.066s.383.805.532 1.121c.148.32.386.844.535 1.176.148.332.386.88.535 1.223.144.348.383.91.531 1.27.149.355.387.937.535 1.304.149.363.383.961.531 1.336s.387.984.536 1.363c.148.383.386 1 .53 1.387a551.105 551.105 0 0 1 1.07 2.82c.146.395.384 1.028.532 1.422.149.395.387 1.028.536 1.418.148.395.382 1.028.53 1.418l.536 1.403c.148.386.387 1.003.531 1.386.149.383.387.992.535 1.367s.387.97.536 1.336c.148.368.382.95.53 1.305.15.356.388.922.536 1.266l.531 1.222a77.071 77.071 0 0 0 1.07 2.3c.145.302.383.778.532 1.068a50.717 50.717 0 0 0 1.066 1.945c.149.25.387.637.535.87.149.231.387.587.532.798a15.623 15.623 0 0 0 1.07 1.367c.148.168.383.422.531.566.149.145.387.36.535.48.149.122.387.302.532.4.148.097.386.234.535.308.148.074.386.172.535.223a3.537 3.537 0 0 0 1.066.18 3.5 3.5 0 0 0 1.067-.18c.148-.051.386-.149.53-.223.15-.074.388-.211.536-.309.149-.097.387-.277.535-.398a10 10 0 0 0 .531-.48c.149-.145.387-.399.536-.567.148-.168.386-.453.53-.645a19 19 0 0 0 1.071-1.52c.145-.233.383-.62.531-.87.149-.254.387-.672.536-.942a59 59 0 0 0 1.066-2.07 85.948 85.948 0 0 0 1.602-3.523c.148-.344.382-.91.53-1.266a149 149 0 0 0 1.067-2.64 252 252 0 0 0 1.07-2.754 555.11 555.11 0 0 0 1.066-2.82c.15-.391.532-1.419.532-1.419"/></g><path fill="none" stroke="#000" stroke-miterlimit="10" stroke-width=".39488631" d="m27.95 50.406.534-1.422c.149-.394.387-1.023.532-1.414l.535-1.406c.148-.387.386-1.004.535-1.387.148-.379.383-.988.531-1.363s.387-.973.535-1.336l.532-1.305c.148-.359.386-.921.535-1.27a126 126 0 0 1 1.066-2.398c.149-.316.387-.816.535-1.12s.383-.782.532-1.067a47 47 0 0 1 1.066-1.945c.148-.25.387-.64.535-.871s.387-.59.535-.801.383-.531.532-.723c.148-.187.386-.476.535-.644.148-.168.382-.418.53-.567.15-.144.388-.36.536-.48.149-.121.387-.297.535-.395.145-.097.383-.238.531-.312s.387-.172.536-.223c.148-.047.382-.105.53-.133.15-.023.388-.043.536-.043s.387.02.531.043c.149.028.387.086.535.133.149.05.387.148.536.223a6.3 6.3 0 0 1 1.066.707c.148.12.383.336.531.48.149.149.387.399.535.567s.387.457.536.644c.144.192.382.512.53.723.15.21.388.57.536.8a34 34 0 0 1 1.066 1.813 54.161 54.161 0 0 1 1.066 2.07c.15.305.388.805.536 1.121a115 115 0 0 1 1.066 2.399c.149.348.383.91.532 1.27a149 149 0 0 1 1.07 2.64c.144.375.383.984.531 1.363.149.383.387 1 .535 1.387.149.39.383 1.016.532 1.406l.535 1.414c.148.395.386 1.028.531 1.422l.535 1.418.535 1.418c.149.39.383 1.016.532 1.403.148.386.386 1.003.535 1.386.148.383.383.992.53 1.367.15.375.388.97.536 1.336a149 149 0 0 0 1.067 2.57c.148.344.386.891.535 1.223.148.332.382.86.53 1.176.15.32.388.82.536 1.125l.531 1.067c.149.285.387.734.535 1.003.149.27.387.688.536.942.148.25.382.637.53.87.15.231.388.587.536.798.148.21.383.535.531.722a12.574 12.574 0 0 0 1.07 1.21c.145.146.383.36.532.482.148.121.387.3.535.398s.383.235.531.309.387.172.535.223a3.537 3.537 0 0 0 1.066.18 3.5 3.5 0 0 0 1.067-.18c.149-.051.387-.149.535-.223a6 6 0 0 0 .532-.309c.148-.097.386-.277.535-.398.148-.121.386-.336.535-.48.144-.145.383-.399.531-.567s.387-.453.535-.645c.149-.187.383-.511.532-.722.148-.211.386-.567.535-.797.148-.234.386-.621.531-.871.148-.254.387-.672.535-.942s.387-.718.535-1.003c.149-.29.383-.766.532-1.067.148-.305.386-.805.535-1.125.148-.316.383-.844.531-1.176s.387-.879.535-1.222c.149-.344.387-.91.535-1.266l.532-1.305c.148-.367.386-.96.535-1.336.148-.375.382-.984.53-1.367.15-.383.388-1 .536-1.386.149-.387.387-1.012.531-1.403.149-.39.387-1.023.535-1.418.149-.39.387-1.023.536-1.418.148-.394.382-1.027.53-1.422l.536-1.414.531-1.406.535-1.387c.149-.379.387-.988.536-1.363.144-.375.382-.973.53-1.336.15-.367.388-.95.536-1.305.148-.359.383-.921.531-1.27.149-.343.387-.89.535-1.222s.387-.855.532-1.176c.148-.316.386-.816.535-1.12a54 54 0 0 1 1.066-2.07 34 34 0 0 1 1.067-1.813c.148-.23.386-.59.535-.801.148-.211.387-.531.535-.723.144-.187.383-.476.531-.644s.387-.418.535-.567a10 10 0 0 1 .532-.48c.148-.121.386-.297.535-.395.148-.097.386-.238.531-.312.148-.075.387-.172.535-.223a5 5 0 0 1 .535-.133c.149-.023.383-.043.532-.043.148 0 .386.02.535.043.148.028.383.086.531.133.148.05.387.148.535.223.149.074.387.215.535.312.145.098.383.274.532.395.148.12.386.336.535.48.148.149.383.399.531.567s.387.457.535.644c.149.192.387.512.531.723.149.21.387.57.536.8.148.231.386.622.535.872a46.957 46.957 0 0 1 1.066 1.945c.149.285.383.762.531 1.066s.387.805.535 1.121c.149.32.387.844.536 1.176l.53 1.223c.15.348.388.91.536 1.27.148.355.383.937.531 1.304a158 158 0 0 1 1.067 2.7l.535 1.386.535 1.406c.148.391.383 1.02.531 1.414l.535 1.422c.149.395.383 1.028.532 1.418a555 555 0 0 0 1.601 4.207c.149.383.387.992.535 1.367s.383.97.532 1.336c.148.368.386.95.535 1.305.148.356.387.922.531 1.266a85.924 85.924 0 0 0 1.602 3.523c.148.3.386.777.535 1.067.148.285.383.734.531 1.003.148.27.387.688.535.942.149.25.387.637.535.87a19.323 19.323 0 0 0 1.066 1.52c.15.192.384.477.532.645s.387.422.535.566c.149.145.387.36.531.48.149.122.387.302.536.4.148.097.386.234.535.308.148.074.383.172.53.223a3.486 3.486 0 0 0 1.066.18 3.5 3.5 0 0 0 1.072-.18c.144-.051.382-.149.53-.223.15-.074.388-.211.536-.309a8 8 0 0 0 1.066-.879c.149-.144.387-.398.532-.566a16 16 0 0 0 1.07-1.367c.148-.211.383-.567.531-.797.149-.234.387-.621.535-.871a51 51 0 0 0 1.067-1.945c.148-.29.387-.766.535-1.067.145-.305.383-.805.531-1.125.149-.316.387-.844.535-1.176s.383-.879.532-1.222c.148-.344.386-.91.535-1.266.148-.355.387-.937.531-1.305.148-.367.387-.96.535-1.336.149-.375.387-.984.535-1.367s.383-1 .532-1.386l.535-1.403c.148-.39.383-1.023.531-1.418l.535-1.418.535-1.422c.145-.394.383-1.023.532-1.414l.535-1.406c.148-.387.383-1.004.531-1.387l.535-1.363.531-1.336a149 149 0 0 1 1.07-2.574c.15-.344.384-.89.532-1.223.148-.332.387-.855.535-1.176.149-.316.383-.816.531-1.12s.387-.782.536-1.067a47 47 0 0 1 1.066-1.945 28.506 28.506 0 0 1 1.066-1.672c.149-.211.387-.531.535-.723.149-.187.387-.476.532-.644.148-.168.386-.418.535-.567.148-.144.387-.36.535-.48.145-.121.383-.297.531-.395.149-.097.387-.238.535-.312a5 5 0 0 1 .532-.223 5 5 0 0 1 .535-.133c.148-.023.387-.043.535-.043.145 0 .383.02.531.043.149.028.387.086.535.133.149.05.383.148.532.223.148.074.386.215.535.312.148.098.387.274.531.395.149.12.387.336.535.48.149.149.387.399.535.567.145.168.383.457.532.644.148.192.386.512.535.723a29 29 0 0 1 1.066 1.672c.149.25.387.668.535.941a54.167 54.167 0 0 1 1.066 2.07c.15.305.384.805.532 1.121a71.777 71.777 0 0 1 1.066 2.398 139 139 0 0 1 1.07 2.575c.145.363.384.961.532 1.336l.535 1.363c.149.383.383 1 .531 1.387l.536 1.406.535 1.414c.144.395.383 1.028.531 1.422l.535 1.418c.149.395.383 1.028.531 1.418s.387 1.016.536 1.403c.148.386.386 1.003.53 1.386.15.383.387.992.536 1.367a238 238 0 0 0 1.066 2.641c.149.356.387.922.535 1.266s.383.89.532 1.222a77.071 77.071 0 0 0 1.07 2.3c.145.302.383.778.531 1.068a50.711 50.711 0 0 0 1.066 1.945c.15.25.387.637.536.87.148.231.387.587.531.798a15.623 15.623 0 0 0 1.07 1.367c.145.168.383.422.532.566a7.841 7.841 0 0 0 1.066.879c.149.098.387.235.535.309s.387.172.531.223a3.537 3.537 0 0 0 1.07.18 3.5 3.5 0 0 0 1.067-.18c.149-.051.387-.149.531-.223.149-.074.387-.211.536-.309.148-.097.386-.277.535-.398.144-.121.383-.336.531-.48.148-.145.387-.399.535-.567s.383-.453.531-.645a19 19 0 0 0 1.067-1.52 43 43 0 0 0 .535-.87c.148-.254.387-.672.535-.942a59 59 0 0 0 1.067-2.07c.148-.305.386-.805.53-1.125a86 86 0 0 0 1.071-2.398 149.033 149.033 0 0 0 1.066-2.57c.149-.368.383-.962.532-1.337a252 252 0 0 0 1.066-2.753 539 539 0 0 0 1.07-2.82c.149-.391.532-1.419.532-1.419"/><path fill="none" stroke="#000" stroke-dasharray="2.9580151626999998 2.9580151626999998" stroke-miterlimit="10" stroke-width=".39488631" d="m188.008 50.406.535-1.422c.148-.394.387-1.023.531-1.414l.535-1.406a524 524 0 0 1 1.067-2.75c.148-.375.386-.973.535-1.336.148-.367.383-.95.531-1.305.149-.359.387-.921.535-1.27l.532-1.222c.148-.332.386-.855.535-1.176.148-.316.386-.816.535-1.12.148-.305.383-.782.531-1.067a47 47 0 0 1 1.066-1.945c.149-.25.387-.64.536-.871.148-.23.386-.59.535-.801.144-.211.383-.531.531-.723.148-.187.387-.476.535-.644s.383-.418.531-.567c.149-.144.387-.36.536-.48.148-.121.386-.297.53-.395.15-.097.388-.238.536-.312s.387-.172.535-.223c.149-.047.383-.105.531-.133.149-.023.387-.043.536-.043.148 0 .386.02.53.043.15.028.388.086.536.133.148.05.387.148.535.223.145.074.383.215.531.312.149.098.387.274.536.395.148.12.382.336.53.48.15.149.387.399.536.567.148.168.387.457.531.644.149.192.387.512.535.723s.387.57.535.8a34 34 0 0 1 1.067 1.813 54.167 54.167 0 0 1 1.066 2.07c.149.305.387.805.535 1.121.145.32.383.844.532 1.176.148.332.386.88.535 1.223.148.348.383.91.531 1.27a149 149 0 0 1 1.067 2.64l.535 1.363.535 1.387.531 1.406c.149.391.387 1.02.535 1.414.149.395.531 1.422.531 1.422"/><use xlink:href="#h" x="220.187" y="58.538"/><use xlink:href="#i" x="20.075" y="8.699"/></svg>