<svg xmlns="http://www.w3.org/2000/svg" xmlns:xlink="http://www.w3.org/1999/xlink" width="231.888" height="90.527"><defs><path id="a" d="M3.64-5.64v-.016H1.204l-.203 1a.6.6 0 0 1-.203.031q-.251 0-.25-.375 0-.388.062-1.156h3.907a.53.53 0 0 1 .093.297.5.5 0 0 1-.093.28L1.344-.561v.015h2.75l.234-1.015a.7.7 0 0 1 .203-.032q.218 0 .219.36c0 .218-.027.632-.078 1.234H.438Q.28-.06.28-.281q0-.123.063-.235Zm0 0"/><path id="b" d="M4.5-6.156q.062.752.063 1.047c0 .273-.086.406-.25.406a.5.5 0 0 1-.204-.047l-.203-.937H1.875v2.453h1.984v.5H1.875v2.25l.703.125q.124.017.125.093 0 .048-.094.266H.422a.16.16 0 0 1-.016-.078Q.404-.324.72-.406l.375-.078v-5.203l-.547-.125C.46-5.82.422-5.852.422-5.906q0-.075.094-.25Zm0 0"/><path id="d" d="M2.484-3.031h1.547v.469H2.484v1.671h-.5v-1.671H.422v-.47h1.562v-1.64h.5Zm0 0"/><path id="e" d="M6.25-6.156c.008.023.016.047.016.078q-.001.236-.313.312l-.406.079V0H5L1.656-5.187h-.031v4.703l.625.125q.124.017.125.093 0 .048-.094.266H.421a.16.16 0 0 1-.015-.078Q.404-.324.72-.406l.375-.078v-5.203l-.547-.125C.46-5.82.422-5.852.422-5.906q0-.075.094-.25h1.422l3.046 4.719H5v-4.25l-.547-.125c-.086-.008-.125-.04-.125-.094q0-.075.094-.25Zm0 0"/><clipPath id="c"><path d="M139 89h14v1.055h-14Zm0 0"/></clipPath></defs><path fill="none" stroke="#000" stroke-linejoin="bevel" stroke-miterlimit="10" stroke-width=".7928556000000001" d="M45.078 43.082c2.613 0 4.734 1.457 4.734 3.254 0 1.8-2.12 3.258-4.734 3.258 2.613 0 4.734 1.457 4.734 3.258 0 1.796-2.12 3.257-4.734 3.257 2.613 0 4.734 1.457 4.734 3.254 0 1.801-2.12 3.258-4.734 3.258 2.613 0 4.734 1.457 4.734 3.258 0 1.797-2.12 3.258-4.734 3.258M64.34 69.137c-2.613 0-4.735-1.461-4.735-3.258 0-1.8 2.122-3.258 4.735-3.258-2.613 0-4.735-1.457-4.735-3.258 0-1.797 2.122-3.254 4.735-3.254-2.613 0-4.735-1.46-4.735-3.257 0-1.801 2.122-3.258 4.735-3.258-2.613 0-4.735-1.457-4.735-3.258 0-1.797 2.122-3.254 4.735-3.254"/><path fill="none" stroke="#000" stroke-miterlimit="10" stroke-width=".39692520000000003" d="M31.027 32.426h14.207v11.05m0 25.262V79.79H31.027m47.364-47.363H64.184v11.05m0 25.262V79.79H78.39"/><path fill="none" stroke="#000" stroke-miterlimit="10" stroke-width=".7928556000000001" d="M55.895 67.95V44.265m-2.372 23.683V44.266"/><path fill="none" stroke="#000" stroke-miterlimit="10" stroke-width=".39692520000000003" d="m40.5 71.895 28.219-31.356"/><path fill="none" stroke="#000" stroke-miterlimit="10" stroke-width=".39691323000000006" d="m67.09 38.941 3.39 3.051"/><path fill="none" stroke="#000" stroke-miterlimit="10" stroke-width=".39692520000000003" d="M31.027 32.426v20.523m0 6.317v20.523"/><path fill="none" stroke="#000" stroke-miterlimit="10" stroke-width=".7928556000000001" d="M40.5 52.95H21.55m18.95 6.316H21.55"/><path stroke="#000" stroke-miterlimit="10" stroke-width=".39692520000000003" d="M32.605 32.426a1.58 1.58 0 1 0-3.159-.005 1.58 1.58 0 0 0 3.16.005ZM32.605 79.79a1.58 1.58 0 1 0-1.578 1.582 1.58 1.58 0 0 0 1.578-1.583Zm0 0"/><path fill="none" stroke="#000" stroke-miterlimit="10" stroke-width=".39692520000000003" d="M31.027 32.426H19.75m0 0H8.469"/><path fill="#FFF" stroke="#000" stroke-miterlimit="10" stroke-width=".39692520000000003" d="M10.05 32.426a1.58 1.58 0 1 0-3.16-.003 1.58 1.58 0 0 0 3.16.003Zm0 0"/><path fill="none" stroke="#000" stroke-miterlimit="10" stroke-width=".39692520000000003" d="M31.027 79.79H19.75m0 0H8.469"/><path fill="#FFF" stroke="#000" stroke-miterlimit="10" stroke-width=".39692520000000003" d="M10.05 79.79a1.58 1.58 0 1 0-3.158.002 1.58 1.58 0 0 0 3.159-.003Zm0 0"/><use xlink:href="#a" x="3.519" y="59.185"/><use xlink:href="#b" x="8.648" y="59.185"/><path fill="none" stroke="#000" stroke-miterlimit="10" stroke-width=".39692520000000003" d="M78.39 32.426v20.523m0 6.317v20.523"/><path fill="none" stroke="#000" stroke-miterlimit="10" stroke-width=".7928556000000001" d="M87.863 52.95H68.918m18.945 6.316H68.918"/><path stroke="#000" stroke-miterlimit="10" stroke-width=".39692520000000003" d="M79.973 32.426a1.58 1.58 0 1 0-3.161-.003 1.58 1.58 0 0 0 3.16.003ZM79.973 79.79a1.58 1.58 0 1 0-3.16.002 1.58 1.58 0 0 0 3.16-.003Zm0 0"/><path fill="none" stroke="#000" stroke-miterlimit="10" stroke-width=".39692520000000003" d="M78.39 32.426h16.243m12.629 0h27.52m0 0h21.198m25.266 0h21.2m0 0h11.277"/><path fill="none" stroke="#000" stroke-miterlimit="10" stroke-width=".7928556000000001" d="m107.262 32.426-12.63-7.895v15.79Zm0 0"/><path fill="none" stroke="#000" stroke-miterlimit="10" stroke-width=".39692520000000003" d="M107.262 32.426h-12.63"/><path fill="none" stroke="#000" stroke-miterlimit="10" stroke-width=".7928556000000001" d="M107.262 40.32V24.531"/><path stroke="#000" stroke-miterlimit="10" stroke-width=".39692520000000003" d="M125.082 32.426a1.58 1.58 0 1 0-3.16-.005 1.58 1.58 0 0 0 3.16.005ZM147.637 32.426a1.58 1.58 0 0 0-1.578-1.582 1.58 1.58 0 0 0 0 3.16c.87 0 1.578-.707 1.578-1.578Zm0 0"/><path fill="none" stroke="#000" stroke-miterlimit="10" stroke-width=".7928556000000001" d="M155.98 27.688h25.266v9.472H155.98Zm0 0"/><path stroke="#000" stroke-miterlimit="10" stroke-width=".39692520000000003" d="M192.746 32.426a1.58 1.58 0 0 0-1.578-1.582 1.58 1.58 0 0 0 0 3.16c.871 0 1.578-.707 1.578-1.578Zm0 0"/><path fill="#FFF" stroke="#000" stroke-miterlimit="10" stroke-width=".39692520000000003" d="M215.305 32.426a1.58 1.58 0 1 0-3.161-.003 1.58 1.58 0 0 0 3.16.003Zm0 0"/><path fill="none" stroke="#000" stroke-miterlimit="10" stroke-width=".39692520000000003" d="M78.39 79.79h22.56m0 0h33.831m0 0h33.832m0 0h33.832m0 0h11.278"/><path stroke="#000" stroke-miterlimit="10" stroke-width=".39692520000000003" d="M125.082 79.79a1.58 1.58 0 1 0-1.578 1.582 1.58 1.58 0 0 0 1.578-1.583ZM147.637 79.79a1.579 1.579 0 0 0-3.157 0 1.58 1.58 0 0 0 1.579 1.581 1.58 1.58 0 0 0 1.578-1.582Zm0 0"/><path fill="none" stroke="#000" stroke-miterlimit="10" stroke-width=".39692520000000003" d="M146.059 79.79v9.87"/><g clip-path="url(#c)"><path fill="none" stroke="#000" stroke-linecap="round" stroke-miterlimit="10" stroke-width=".7928556000000001" d="M140.137 89.66h11.843"/></g><path stroke="#000" stroke-miterlimit="10" stroke-width=".39692520000000003" d="M192.746 79.79a1.579 1.579 0 0 0-3.156 0 1.58 1.58 0 0 0 1.578 1.581 1.58 1.58 0 0 0 1.578-1.582Zm0 0"/><path fill="#FFF" stroke="#000" stroke-miterlimit="10" stroke-width=".39692520000000003" d="M215.305 79.79a1.58 1.58 0 1 0-3.16.002 1.58 1.58 0 0 0 3.16-.003Zm0 0"/><path fill="none" stroke="#000" stroke-miterlimit="10" stroke-width=".39692520000000003" d="M123.504 32.426v20.523m0 6.317v20.523"/><path fill="none" stroke="#000" stroke-miterlimit="10" stroke-width=".7928556000000001" d="M132.977 52.95H114.03m18.946 6.316H114.03"/><path fill="none" stroke="#000" stroke-miterlimit="10" stroke-width=".39692520000000003" d="M146.059 32.426v11.05m0 25.262V79.79"/><path fill="none" stroke="#000" stroke-miterlimit="10" stroke-width=".7928556000000001" d="M141.32 68.738V43.477h9.473v25.261Zm0 0"/><path fill="none" stroke="#000" stroke-miterlimit="10" stroke-width=".39692520000000003" d="M191.168 32.426v20.523m0 6.317v20.523"/><path fill="none" stroke="#000" stroke-miterlimit="10" stroke-width=".7928556000000001" d="M200.64 52.95h-18.945m18.946 6.316h-18.946"/><use xlink:href="#d" x="179.463" y="49.779"/><path fill="none" stroke="#000" stroke-miterlimit="10" stroke-width=".39692520000000003" d="M146.059 32.426V21.148m0 0V9.871h30.675m6.313 0h30.676"/><path fill="none" stroke="#000" stroke-miterlimit="10" stroke-width=".7928556000000001" d="M176.734.395v18.949m6.313-18.95v18.95"/><path fill="#FFF" stroke="#000" stroke-miterlimit="10" stroke-width=".39692520000000003" d="M215.305 9.871a1.58 1.58 0 1 0-3.161-.003 1.58 1.58 0 0 0 3.16.003Zm0 0"/><use xlink:href="#e" x="216.893" y="12.947"/><use xlink:href="#b" x="223.484" y="12.947"/></svg>