<svg xmlns="http://www.w3.org/2000/svg" xmlns:xlink="http://www.w3.org/1999/xlink" width="228.314" height="82.36"><defs><clipPath id="a"><path d="M217 63h10.094v15H217Zm0 0"/></clipPath><clipPath id="b"><path d="M11.402.195H226v70.32H11.402Zm0 0"/></clipPath><path id="c" d="m.938-3.812-.47.03c-.171 0-.234.079-.25.141a1 1 0 0 0-.046.157c0 .015.031.015.062.015H.86L.313-1.047C.25-.766.188-.484.188-.313c0 .313.156.407.437.407.39 0 .984-.375 1.281-.922C1.891-.938 1.828-1 1.72-1c-.407.469-.578.563-.719.563-.016 0-.11-.032-.11-.125 0-.094.032-.266.094-.563l.532-2.344h.859c.11-.047.188-.281.094-.344h-.875l.093-.406c.032-.172.11-.422.11-.531 0-.156-.078-.234-.36-.234-.312 0-.296.39-.39.718Zm0 0"/><path id="d" d="M1.813.094c1.75 0 2.359-1.14 2.671-2.719l.485-2.437c.031-.25.172-.391.547-.422l.218-.016c.047 0 .079-.016.079-.062l.03-.172-.015-.016c-.39 0-.75.016-.937.016-.203 0-.532-.016-.938-.016l-.015.016-.032.172c-.015.046.016.062.047.062l.235.016c.28.03.406.109.406.297 0 .03-.016.078-.032.125l-.5 2.593c-.187 1-.546 2.188-2 2.188-.406 0-.718-.188-.921-.438-.188-.234-.25-.515-.25-.797 0-.296.062-.593.109-.875l.531-2.687c.047-.25.188-.375.547-.406l.219-.016c.047 0 .078-.016.078-.062l.047-.172-.016-.016c-.406 0-.765.016-1.094.016-.343 0-.687-.016-1.078-.016l-.03.016-.032.172c0 .046.031.062.062.062l.22.016c.28.03.405.093.405.28 0 .032 0 .079-.015.126L.266-2.094a3 3 0 0 0-.063.625c0 1.266.938 1.563 1.61 1.563m0 0"/></defs><path fill="none" stroke="#000" stroke-miterlimit="10" stroke-width=".39592371000000004" d="M11.402 70.516h212.051"/><path d="m226.504 70.516-2.953-1.75v3.5Zm0 0"/><g clip-path="url(#a)"><path fill="none" stroke="#000" stroke-miterlimit="10" stroke-width=".39592371000000004" d="m226.504 70.516-2.953-1.75v3.5Zm0 0"/></g><path fill="none" stroke="#000" stroke-miterlimit="10" stroke-width=".39592371000000004" d="M11.402 70.516V3.64"/><path stroke="#000" stroke-miterlimit="10" stroke-width=".39592371000000004" d="m11.402.59-1.75 2.953h3.5Zm0 0"/><g clip-path="url(#b)"><path fill="none" stroke="#000" stroke-miterlimit="10" stroke-width=".7908551300000001" d="m11.617 70.516.215-5.727.215-5.695.215-5.543.218-5.274.215-4.89.215-4.403.215-3.808.215-3.13.215-2.374.218-1.559.215-.699.215.188.215 1.082.215 1.964.215 2.825.218 3.629.215 4.375.215 5.039.215 5.601.215 6.063.215 6.398.218 5.938h4.524l.215-1.508.214-7.574.22-7.465.214-7.196.215-6.777.215-6.219.215-5.515.214-4.696.22-3.765.214-2.758.215-1.672.215-.547.215.602.214 1.746.22 2.871.214 3.937.215 4.938.215 5.844.215 6.636.214 7.297.22 7.809.214 8.168.215 5.844h4.523l.219-3.621.215-9.04.215-8.828.215-8.441.214-7.871.215-7.137.219-6.246.215-5.227.215-4.09.215-2.863.214-1.57.215-.238.219 1.105.215 2.438.215 3.718.214 4.934.215 6.05.215 7.048.219 7.906.215 8.598.215 9.117.214 9.453.215 4.805h4.528l.214-5.946.215-9.836.215-9.53.215-9.028.219-8.34.215-7.473.214-6.457.215-5.297.215-4.03.215-2.68.219-1.266.215.168.214 1.605.215 3.008.215 4.356.215 5.609.219 6.75.215 7.754.214 8.594.215 9.257.215 9.735.215 10.004.219 3.043h4.523l.215-7.97.215-9.812.219-9.43.214-8.855.215-8.094.215-7.167.215-6.102.215-4.906.219-3.61.214-2.25.215-.84.215.583.215 1.988.215 3.347.218 4.637.215 5.828.215 6.89.215 7.81.215 8.566.219 9.144.214 9.528.215 9.719.215.996h4.527l.215-9.192.215-8.976.215-8.551.215-7.957.215-7.195.218-6.293.215-5.266.215-4.137.215-2.93.215-1.667.215-.38.218.907.215 2.164.215 3.371.215 4.5.215 5.531.215 6.434.218 7.207.215 7.82.215 8.266.215 8.543.215 7.8h4.527l.215-1.542.215-7.758.215-7.492.214-7.07.22-6.512.214-5.825.215-5.02.215-4.12.215-3.153.214-2.12.22-1.063.214.012.215 1.07.215 2.094.215 3.066.214 3.969.22 4.77.214 5.468.215 6.047.215 6.496.215 6.8.214 6.966.22 4.918h4.523l.214-2.383.215-5.899.219-5.644.215-5.277.215-4.805.215-4.238.214-3.598.215-2.89.219-2.134.215-1.347.215-.54.215.262.214 1.047.215 1.797.219 2.5.215 3.14.215 3.704.214 4.184.215 4.566.215 4.852.219 5.03.215 5.106.215 2.567h4.523l.219-2.453.215-4.004.214-3.79.215-3.507.215-3.153.215-2.746.219-2.285.215-1.789.214-1.27.215-.726.215-.188.215.348.219.867.215 1.352.214 1.805.215 2.207.215 2.554.215 2.844.219 3.066.215 3.223.214 3.313.215 3.328.215 1.004h4.527l.215-2.008.215-2.43.215-2.281.215-2.094.219-1.86.214-1.597.215-1.308.215-1.004.215-.676.215-.352.219-.023.214.297.215.601.215.89.215 1.15.215 1.382.218 1.582.215 1.742.215 1.868.215 1.945.43 3.969.218.207h4.524l.215-1.528.215-1.48.218-1.39.215-1.278.215-1.145.215-.984.215-.813.215-.625.218-.43.215-.226.215-.027.215.176.215.37.215.56.218.726.215.883.215 1.015.215 1.133.215 1.223.214 1.293.22 1.328.214 1.219h4.524l.214-.262.22-1.336.214-1.32.215-1.266.215-1.195.214-1.098.215-.976.22-.833.214-.675.215-.496.215-.313.214-.117.215.086.219.285.215.484.215.68.215.86.214 1.027.215 1.18.219 1.304.215 1.41.215 1.489.215 1.082h4.527l.215-.77.215-1.973.214-1.96.215-1.907.215-1.82.219-1.684.215-1.511.215-1.309.214-1.066.215-.801.215-.512.219-.203.215.117.215.442.214.765.215 1.082.215 1.383.219 1.66.215 1.914.214 2.13.215 2.308.215 2.441.215 1.274h4.527l.215-1.946.215-3.3.215-3.266.219-3.16.214-2.989.215-2.742.215-2.441.215-2.078.215-1.664.219-1.207.214-.715.215-.195.215.34.215.874.215 1.407.219 1.921.214 2.403.215 2.844.215 3.238.215 3.566.215 3.832.219 4.02.214 1.258h4.524l.215-4.016.218-5.059.215-4.96.215-4.75.215-4.442.215-4.027.215-3.528.218-2.945.215-2.293.215-1.578.215-.82.215-.032.215.766.218 1.566.215 2.34.215 3.082.215 3.766.215 4.387.215 4.922.218 5.359.215 5.7.215 5.917.215.645h4.527l.215-6.907.215-6.902.215-6.695.215-6.352.214-5.87.22-5.259.214-4.527.215-3.703.215-2.781.215-1.801.214-.766.22.297.214 1.363.215 2.41.215 3.422.215 4.371.214 5.243.22 6.007.214 6.66.215 7.18.215 7.555.214 7.055h4.528l.215-1.649.215-8.605.214-8.461.215-8.133.219-7.637.215-6.98.215-6.176.214-5.23.215-4.176.215-3.024.219-1.804.215-.536.215.75.214 2.028.215 3.273.215 4.461.219 5.559.215 6.55.215 7.415.214 8.125.215 8.672.215 9.046.219 6.532h4.523l.215-3.805.215-9.672.219-9.426.215-8.984.214-8.356.215-7.554.215-6.594.215-5.488.219-4.274.215-2.96.214-1.583.215-.175.215 1.246.215 2.644.219 3.988.215 5.254.214 6.414.215 7.446.215 8.324.215 9.031.219 9.555.214 9.879.215 5.09h4.524l.219-5.95.214-9.949.215-9.617.215-9.09.215-8.37.215-7.485.218-6.438.215-5.262.215-3.976.215-2.613.215-1.196.215.246.218 1.68.215 3.074.215 4.407.215 5.648.215 6.766.215 7.742.218 8.562.215 9.2.215 9.644.215 9.895.215 3.082h4.527l.215-7.567.215-9.394.215-9.004.218-8.43.215-7.687.215-6.786.215-5.75.215-4.605.215-3.363.218-2.063.215-.722.215.625.215 1.949.215 3.23.215 4.438.218 5.543.215 6.53.215 7.38.215 8.07.215 8.59.215 8.93.218 9.082.215 1.004h4.524l.214-8.258.22-8.106.214-7.703.215-7.144.215-6.442.215-5.613.214-4.676.22-3.652.214-2.559.215-1.425.215-.274.215.879.214 1.996.22 3.063.214 4.058.215 4.961.215 5.754.215 6.414.214 6.941.22 7.317.214 7.543.215 6.926h4.523l.219-1.262.215-6.59.215-6.344.215-5.972.214-5.48.215-4.884.219-4.191.215-3.422.215-2.594.214-1.722.215-.832.215.07.219.957.215 1.805.215 2.613.214 3.352.215 4.007.215 4.578.219 5.04.215 5.394.215 5.633.214 5.75.215 4.094"/></g><use xlink:href="#c" x="221.712" y="78.671"/><use xlink:href="#d" x="3.505" y="9.117"/></svg>