<svg xmlns="http://www.w3.org/2000/svg" xmlns:xlink="http://www.w3.org/1999/xlink" width="232.485" height="57.358"><defs><path id="e" d="M2.938-2.437H.547v-.532h2.39Zm0 0"/><path id="f" d="M2.016-.562V-4.97l-1.328.266a1 1 0 0 1-.016-.188q-.001-.198.203-.28l1.469-.595h.437v5.204l1.078.156Q4-.373 4-.296c0 .054-.04.151-.11.296H.86a.16.16 0 0 1-.016-.078q-.002-.311.297-.36Zm0 0"/><path id="g" d="M2.219-.39q1.078 0 1.078-2.485c0-1.664-.36-2.5-1.078-2.5-.73 0-1.094.836-1.094 2.5Q1.124-.391 2.219-.391m-.047.5Q1.31.111.828-.626q-.532-.78-.531-2.25 0-1.466.562-2.25.516-.733 1.407-.734.857.001 1.343.734.516.784.516 2.25-.001 1.454-.547 2.25c-.344.492-.812.734-1.406.734m0 0"/><path id="h" d="M5.781-6.11c.008.024.016.048.016.079 0 .168-.102.273-.297.312l-.234.063L3.25 0h-.719L.453-5.656.078-5.75q-.124-.029-.125-.11c0-.05.035-.132.094-.25h1.969a.2.2 0 0 1 .015.079q-.002.235-.297.312l-.375.078L2.984-.89H3l1.688-4.765L4-5.766q-.127-.03-.125-.093-.001-.075.11-.25Zm0 0"/><path id="i" d="M2.469-3H4v.453H2.469V-.89h-.5v-1.656H.422V-3h1.547v-1.64h.5Zm0 0"/><path id="k" d="m.938-3.797-.485.016c-.156.015-.219.094-.234.156a1 1 0 0 0-.047.156c0 .016.031.016.062.016h.61L.313-1.047C.25-.766.188-.484.188-.313c0 .313.156.407.437.407.39 0 .984-.375 1.281-.922C1.875-.938 1.813-1 1.703-1c-.406.469-.562.563-.703.563-.031 0-.11-.016-.11-.125 0-.079.016-.266.094-.563L1.5-3.453h.875c.11-.047.188-.281.094-.344h-.89l.093-.406c.031-.172.125-.422.125-.531 0-.141-.078-.235-.36-.235-.328 0-.296.39-.39.719Zm0 0"/><path id="l" d="M1.813.094c1.734 0 2.343-1.125 2.656-2.703l.468-2.438c.047-.25.188-.39.563-.406l.219-.016c.047 0 .062-.031.078-.078l.031-.172-.016-.015c-.406.015-.75.015-.937.015-.203 0-.531 0-.937-.015l-.016.015-.031.172c-.016.047.03.078.046.078l.235.016c.281.016.406.094.406.281 0 .031-.016.078-.031.125l-.5 2.594C3.859-1.47 3.5-.281 2.063-.281c-.422 0-.72-.172-.922-.438-.188-.234-.25-.515-.25-.797 0-.28.062-.578.109-.875l.531-2.671c.047-.25.188-.375.547-.391l.219-.016c.047 0 .062-.031.078-.078l.031-.172-.015-.015c-.391.015-.75.015-1.094.015-.328 0-.672 0-1.063-.015l-.03.015-.032.172c0 .047.016.078.062.078l.22.016c.265.016.405.078.405.266 0 .046-.015.078-.015.125L.25-2.094c-.031.235-.062.438-.062.625C.188-.187 1.14.094 1.813.094m0 0"/><path id="m" d="m1.094-.562.39-1.032c.047-.093.079-.11.25-.11h1.5l.407 1.188c.093.25-.172.282-.516.297-.047.047-.047.188 0 .235C3.391 0 3.781 0 4.047 0c.297 0 .562 0 .812.016.047-.047.047-.188 0-.235-.28-.031-.515-.047-.64-.39L2.766-4.672c-.11.063-.297.14-.391.14L.765-.718c-.187.438-.406.485-.718.5C0-.172 0-.03.047.016.234 0 .469 0 .687 0c.282 0 .641 0 .907.016.031-.047.031-.188 0-.235-.282-.015-.61-.047-.5-.343M1.859-2c-.156 0-.203-.031-.171-.094l.718-1.844h.047L3.125-2Zm0 0"/><clipPath id="a"><path d="M29 13h201.945v38H29Zm0 0"/></clipPath><clipPath id="b"><path d="M227 30h3.945v4H227Zm0 0"/></clipPath><clipPath id="c"><path d="M221 24h9.945v16H221Zm0 0"/></clipPath><clipPath id="d"><path d="M29 3h2v53.723h-2Zm0 0"/></clipPath><clipPath id="j"><path d="M29.922 7H227v31H29.922Zm0 0"/></clipPath></defs><g clip-path="url(#a)"><path fill="none" stroke="#BFBFBF" stroke-miterlimit="10" stroke-width=".19679707000000002" d="M29.922 50.656H230.75M29.922 13.277H230.75"/></g><path fill="none" stroke="#000" stroke-miterlimit="10" stroke-width=".7881772100000001" d="M27.816 50.656h4.207m-4.207-37.379h4.207"/><path fill="none" stroke="#000" stroke-miterlimit="10" stroke-width=".39458307000000004" d="M29.922 31.969h197.394"/><g clip-path="url(#b)"><path d="m230.355 31.969-2.94-1.746v3.488Zm0 0"/></g><g clip-path="url(#c)"><path fill="none" stroke="#000" stroke-miterlimit="10" stroke-width=".39458307000000004" d="m230.355 31.969-2.94-1.746v3.488Zm0 0"/></g><g clip-path="url(#d)"><path fill="none" stroke="#000" stroke-miterlimit="10" stroke-width=".39458307000000004" d="M29.922 56.262V3.632"/></g><path stroke="#000" stroke-miterlimit="10" stroke-width=".39458307000000004" d="M29.922.59 28.176 3.53h3.488Zm0 0"/><use xlink:href="#e" x="4.945" y="53.661"/><use xlink:href="#f" x="8.421" y="53.661"/><use xlink:href="#g" x="12.855" y="53.661"/><use xlink:href="#h" x="18.92" y="53.661"/><use xlink:href="#i" x="3.987" y="16.285"/><use xlink:href="#f" x="8.421" y="16.285"/><use xlink:href="#g" x="12.854" y="16.285"/><use xlink:href="#h" x="18.919" y="16.285"/><g clip-path="url(#j)"><path fill="none" stroke="#000" stroke-miterlimit="10" stroke-width=".39458307000000004" d="M29.922 31.969h13.414c.105 0 .277.035.383 0s.277-.028.383-.25c.109-.227.277-1.004.382-1.383.11-.375.278-.965.387-1.328.106-.363.274-.934.383-1.281.105-.352.277-.899.383-1.235a94.394 94.394 0 0 1 1.148-3.387c.106-.289.277-.746.383-1.023.11-.277.277-.707.383-.969.11-.261.277-.672.386-.918a39.428 39.428 0 0 1 .766-1.664 27 27 0 0 1 .766-1.445c.105-.184.277-.465.383-.637.105-.168.277-.426.382-.578.11-.152.278-.383.383-.52.11-.136.278-.343.387-.464.105-.121.273-.301.383-.407.105-.105.277-.257.383-.347.105-.086.277-.215.382-.285a4 4 0 0 1 .383-.23 4 4 0 0 1 .383-.173 2.57 2.57 0 0 1 .766-.16c.109-.008.277-.004.386.004a2.915 2.915 0 0 1 .766.195c.105.043.277.125.383.184s.277.168.383.246c.105.074.277.211.382.3a8.2 8.2 0 0 1 1.153 1.263c.105.14.273.378.383.535a20 20 0 0 1 .765 1.242c.106.191.277.504.383.707a33.067 33.067 0 0 1 .766 1.586c.105.234.277.625.382.875.11.25.278.664.387.93.106.265.274.703.383.98a76 76 0 0 1 1.148 3.27 110 110 0 0 1 .766 2.437c.105.356.277.93.383 1.297.11.363.277.977.383 1.344.109.363.277 1.11.386 1.289.106.18.278 0 .383 0h75.125c.106 0 .277.129.383 0 .105-.133.277-.63.383-.95.11-.316.277-.984.383-1.351.109-.371.277-.953.386-1.309.106-.355.274-.914.383-1.257.106-.34.277-.88.383-1.207.105-.325.277-.84.383-1.153.105-.312.277-.804.383-1.105.105-.297.277-.766.382-1.051.106-.281.278-.727.383-.996.11-.27.278-.688.383-.942.11-.253.277-.652.387-.89a36.25 36.25 0 0 1 .766-1.61c.105-.207.277-.53.382-.722.106-.192.277-.488.383-.664s.277-.446.383-.61a14.802 14.802 0 0 1 .766-1.043c.109-.129.277-.32.386-.433.106-.113.274-.281.383-.375a5.5 5.5 0 0 1 .766-.578 5 5 0 0 1 .382-.2c.106-.046.278-.109.383-.14.106-.031.278-.067.383-.082a2.588 2.588 0 0 1 .77.016c.105.019.273.062.382.097.106.035.278.102.383.156.106.051.277.145.383.211.105.07.277.192.383.274a7.4 7.4 0 0 1 1.148 1.175c.11.13.278.356.387.504.105.149.273.403.383.567.105.164.277.441.383.62a27 27 0 0 1 .765 1.415c.106.215.278.566.383.793a45 45 0 0 1 .766 1.75c.109.258.277.684.386.957.106.273.274.723.383 1.008a81 81 0 0 1 .766 2.18c.105.32.277.84.383 1.167a117 117 0 0 1 .765 2.489c.11.36.278.949.383 1.32.11.371.277 1.094.387 1.367.105.274.273.516.383.602.105.082.277 0 .382 0h61.328"/></g><use xlink:href="#k" x="225.582" y="40.094"/><use xlink:href="#l" x="33.073" y="9.086"/><use xlink:href="#m" x="37.791" y="10.948"/></svg>