<svg xmlns="http://www.w3.org/2000/svg" xmlns:xlink="http://www.w3.org/1999/xlink" width="229.012" height="142.971"><defs><clipPath id="a"><path d="M43 137h14v5.648H43Zm0 0"/></clipPath><clipPath id="e"><path d="M215 119h13.027v15H215Zm0 0"/></clipPath><clipPath id="f"><path d="M215 27h13.027v15H215Zm0 0"/></clipPath><clipPath id="g"><path d="M215 3h13.027v16H215Zm0 0"/></clipPath><path id="b" d="M2.406.094c.828 0 1.672-.422 2.407-1.203-.032-.094-.079-.141-.172-.141-.735.703-1.391.969-2.172.969C1.39-.281.953-1.187.953-2.234c0-.235.016-.5.063-.75.359-1.813 1.718-2.563 2.39-2.563 1.188 0 1.547.734 1.61 1.5l.265-.047c.016-.453.032-.89.078-1.375-.484-.031-.734-.406-1.796-.406-1.407 0-2.985 1.313-3.329 3.063-.03.218-.062.437-.062.656C.172-.97.844.094 2.406.094m0 0"/><path id="c" d="M2.063-.875v-2.469c0-.437 0-.875.015-.969 0-.03-.015-.03-.047-.03-.39.25-.765.421-1.39.718.015.078.03.14.109.188.328-.141.484-.172.61-.172.124 0 .14.172.14.406v2.328c0 .594-.187.625-.687.656-.047.047-.047.188 0 .235C1.156 0 1.422 0 1.813 0c.343 0 .515 0 .859.016.047-.047.047-.188 0-.235-.5-.031-.61-.062-.61-.656m0 0"/><path id="d" d="M.438-3.344c0 .156.14.281.28.281.126 0 .345-.124.345-.28 0-.063-.016-.11-.032-.157-.015-.047-.062-.11-.062-.172 0-.172.187-.437.703-.437.266 0 .625.187.625.875 0 .453-.156.828-.578 1.25l-.532.515C.485-.75.375-.406.375.016c0 0 .36-.016.594-.016h1.25c.219 0 .547.016.547.016.093-.375.172-.922.172-1.125-.032-.047-.126-.047-.204-.047-.125.515-.25.687-.5.687H.97c0-.343.484-.828.531-.86l.719-.687c.406-.39.703-.718.703-1.25 0-.78-.625-1.093-1.203-1.093-.797 0-1.281.593-1.281 1.015m0 0"/><path id="h" d="M2.484-3.031h1.547v.469H2.484v1.671h-.5v-1.671H.422v-.47h1.562v-1.64h.5Zm0 0"/></defs><path fill="none" stroke="#000" stroke-miterlimit="10" stroke-width=".39728430000000003" d="M1.777 126.45h9.614m0 0h24.023m0 0h14.418"/><path fill="#FFF" stroke="#000" stroke-miterlimit="10" stroke-width=".39728430000000003" d="M3.36 126.45a1.58 1.58 0 1 0-3.161-.004 1.58 1.58 0 0 0 3.16.003Zm0 0"/><path stroke="#000" stroke-miterlimit="10" stroke-width=".39728430000000003" d="M22.578 126.45a1.58 1.58 0 1 0-3.159-.006 1.58 1.58 0 0 0 3.16.005ZM51.41 126.45a1.58 1.58 0 1 0-3.159-.006 1.58 1.58 0 0 0 3.16.005Zm0 0"/><path fill="none" stroke="#000" stroke-miterlimit="10" stroke-width=".39728430000000003" d="M49.832 126.45v11.85"/><g clip-path="url(#a)"><path fill="none" stroke="#000" stroke-miterlimit="10" stroke-width=".7935729" d="M43.902 138.3h11.856m-9.88 1.977h7.903m-6.418 1.977h4.938"/></g><path fill="none" stroke="#000" stroke-miterlimit="10" stroke-width=".39728430000000003" d="M21 126.45V79.546m0-21.527V11.12h14.414m0 0h14.418v26.14m0 5.384v52.28m0 5.38v26.144"/><path fill="none" stroke="#000" stroke-linejoin="bevel" stroke-miterlimit="10" stroke-width=".7935729" d="M20.84 57.621c2.23 0 4.039 1.25 4.039 2.793 0 1.54-1.809 2.79-4.04 2.79 2.231 0 4.04 1.25 4.04 2.788 0 1.543-1.809 2.793-4.04 2.793 2.231 0 4.04 1.246 4.04 2.79 0 1.538-1.809 2.788-4.04 2.788 2.231 0 4.04 1.25 4.04 2.79 0 1.542-1.809 2.792-4.04 2.792M18.773 64.852l10.301 8.238"/><path fill="none" stroke="#000" stroke-miterlimit="10" stroke-width=".79352508" d="m16.7 67.129 3.84-4.805"/><path fill="none" stroke="#000" stroke-miterlimit="10" stroke-width=".7935729" d="M57.906 37.262H41.758m16.148 5.383H41.758"/><path stroke="#000" stroke-miterlimit="10" stroke-width=".39728430000000003" d="M51.41 68.785a1.58 1.58 0 1 0-3.159-.005 1.58 1.58 0 0 0 3.16.005Zm0 0"/><use xlink:href="#b" x="30.755" y="42.095"/><use xlink:href="#c" x="35.639" y="43.97"/><path fill="none" stroke="#000" stroke-miterlimit="10" stroke-width=".7935729" d="M57.906 94.926H41.758m16.148 5.379H41.758"/><use xlink:href="#b" x="30.755" y="99.759"/><use xlink:href="#d" x="35.639" y="101.632"/><path fill="none" stroke="#000" stroke-dasharray="2.9759780310000004 2.9759780310000004" stroke-miterlimit="10" stroke-width=".39728430000000003" d="M27.02 58.02v21.527"/><path fill="none" stroke="#000" stroke-miterlimit="10" stroke-width=".39728430000000003" d="M21 68.785h-9.61m0 0H1.778"/><path stroke="#000" stroke-miterlimit="10" stroke-width=".39728430000000003" d="M22.578 68.785a1.58 1.58 0 1 0-3.159-.005 1.58 1.58 0 0 0 3.16.005Zm0 0"/><path fill="#FFF" stroke="#000" stroke-miterlimit="10" stroke-width=".39728430000000003" d="M3.36 68.785a1.58 1.58 0 1 0-3.161-.003 1.58 1.58 0 0 0 3.16.003Zm0 0"/><path fill="none" stroke="#000" stroke-miterlimit="10" stroke-width=".39728430000000003" d="M49.832 68.785h14.414m0 0h14.418M49.832 126.45h14.414m0 0h14.418v-18.071m0-21.527V50.715m0-21.527V11.12"/><path stroke="#000" stroke-miterlimit="10" stroke-width=".39728430000000003" d="M80.242 126.45a1.58 1.58 0 1 0-3.159-.006 1.58 1.58 0 0 0 3.16.005Zm0 0"/><path fill="none" stroke="#000" stroke-miterlimit="10" stroke-width=".7935729" d="M82.7 86.852v21.527h-8.075V86.852Zm0 0"/><path stroke="#000" stroke-miterlimit="10" stroke-width=".39728430000000003" d="M80.242 68.785a1.58 1.58 0 1 0-3.159-.005 1.58 1.58 0 0 0 3.16.005Zm0 0"/><path fill="none" stroke="#000" stroke-miterlimit="10" stroke-width=".7935729" d="M82.7 29.188v21.527h-8.075V29.188Zm0 0"/><path fill="none" stroke="#000" stroke-miterlimit="10" stroke-width=".39728430000000003" d="M78.664 68.785h14.414m0 0h14.418"/><path fill="none" stroke="#000" stroke-miterlimit="10" stroke-width=".7935729" d="M129.066 68.785c0-5.512-4.464-9.98-9.976-9.98s-9.98 4.468-9.98 9.98 4.468 9.977 9.98 9.977a9.974 9.974 0 0 0 9.976-9.977Zm0 0"/><path fill="none" stroke="#000" stroke-miterlimit="10" stroke-width=".39728430000000003" d="M123.64 53.785v9.078l-8.074 3.7"/><path fill="none" stroke="#000" stroke-miterlimit="10" stroke-width=".7935729" d="M115.566 62.863v11.84"/><path fill="none" stroke="#000" stroke-miterlimit="10" stroke-width=".39728430000000003" d="m115.566 71.004 8.075 3.7v9.077"/><path d="m117.852 72.05.949-2.07 3.676 4.192-5.575-.05Zm0 0"/><path fill="none" stroke="#000" stroke-miterlimit="10" stroke-width=".39728430000000003" d="M115.566 68.785h-8.27M78.664 126.45h72.078m0 0h72.082"/><path fill="#FFF" d="M224.402 126.45a1.58 1.58 0 1 0-3.159-.006 1.58 1.58 0 0 0 3.16.005m0 0"/><g clip-path="url(#e)"><path fill="none" stroke="#000" stroke-miterlimit="10" stroke-width=".39728430000000003" d="M224.402 126.45a1.58 1.58 0 1 0-3.159-.006 1.58 1.58 0 0 0 3.16.005Zm0 0"/></g><path fill="none" stroke="#000" stroke-miterlimit="10" stroke-width=".39728430000000003" d="M123.64 83.586V94.25m0 21.531v10.668"/><path fill="none" stroke="#000" stroke-miterlimit="10" stroke-width=".7935729" d="M119.605 115.781V94.25h8.07v21.531Zm0 0"/><path stroke="#000" stroke-miterlimit="10" stroke-width=".39728430000000003" d="M125.223 83.586a1.58 1.58 0 1 0-3.161-.003 1.58 1.58 0 0 0 3.16.003ZM125.223 126.45a1.58 1.58 0 1 0-3.161-.004 1.58 1.58 0 0 0 3.16.003Zm0 0"/><path fill="none" stroke="#000" stroke-miterlimit="10" stroke-width=".39728430000000003" d="M123.64 83.586h-14.413m0 0H94.809v18.738m0 5.383v18.742"/><path fill="none" stroke="#000" stroke-miterlimit="10" stroke-width=".7935729" d="M102.883 102.324H86.734m16.149 5.383H86.734"/><path stroke="#000" stroke-miterlimit="10" stroke-width=".39728430000000003" d="M96.39 126.45a1.58 1.58 0 1 0-3.16-.004 1.58 1.58 0 0 0 3.16.003Zm0 0"/><path fill="none" stroke="#000" stroke-miterlimit="10" stroke-width=".39728430000000003" d="M123.64 53.984v-9.613m0 0v-9.61h9.61m0 0h9.613v43.153m0 5.383v43.152"/><path stroke="#000" stroke-miterlimit="10" stroke-width=".39728430000000003" d="M144.441 34.762a1.58 1.58 0 1 0-3.161.003 1.58 1.58 0 0 0 3.161-.003Zm0 0"/><path fill="none" stroke="#000" stroke-miterlimit="10" stroke-width=".7935729" d="M150.934 77.914h-16.145m16.145 5.383h-16.145"/><path stroke="#000" stroke-miterlimit="10" stroke-width=".39728430000000003" d="M144.441 126.45a1.58 1.58 0 1 0-3.159-.006 1.58 1.58 0 0 0 3.16.005Zm0 0"/><path fill="none" stroke="#000" stroke-miterlimit="10" stroke-width=".39728430000000003" d="M142.863 34.762h19.219m0 0h19.223"/><path fill="none" stroke="#000" stroke-linejoin="bevel" stroke-miterlimit="10" stroke-width=".7935729" d="M181.144 43.785c2.23 0 4.04 1.246 4.04 2.79 0 1.538-1.81 2.788-4.04 2.788 2.23 0 4.04 1.25 4.04 2.79 0 1.542-1.81 2.792-4.04 2.792 2.23 0 4.04 1.25 4.04 2.79 0 1.538-1.81 2.788-4.04 2.788 2.23 0 4.04 1.25 4.04 2.793 0 1.54-1.81 2.79-4.04 2.79M197.61 60.723c-2.231 0-4.036-1.293-4.036-2.89 0-1.595 1.805-2.888 4.035-2.888-2.23 0-4.035-1.293-4.035-2.89 0-1.594 1.805-2.89 4.035-2.89"/><path fill="none" stroke="#000" stroke-miterlimit="10" stroke-width=".39728430000000003" d="M181.305 34.762v9.418m0 21.527v9.418m16.144-40.363v14.8m0 10.762v14.801"/><path fill="none" stroke="#000" stroke-miterlimit="10" stroke-width=".7935729" d="M190.387 65.035V44.852m-2.02 20.183V44.852M175.445 67.512l11.469-24.598"/><path fill="none" stroke="#000" stroke-miterlimit="10" stroke-width=".7935649300000001" d="m184.21 41.437 5.575 2.598"/><path fill="none" stroke="#000" stroke-miterlimit="10" stroke-width=".39728430000000003" d="M181.305 75.125h-7.207m0 0h-7.207v22.973m0 5.379v22.972"/><path stroke="#000" stroke-miterlimit="10" stroke-width=".39728430000000003" d="M168.469 75.125a1.58 1.58 0 1 0-3.161.003 1.58 1.58 0 0 0 3.16-.003Zm0 0"/><path fill="none" stroke="#000" stroke-miterlimit="10" stroke-width=".7935729" d="M174.96 98.098h-16.144m16.145 5.379h-16.145"/><path stroke="#000" stroke-miterlimit="10" stroke-width=".39728430000000003" d="M168.469 126.45a1.58 1.58 0 1 0-3.16-.006 1.58 1.58 0 0 0 3.16.005Zm0 0"/><path fill="none" stroke="#000" stroke-miterlimit="10" stroke-width=".39728430000000003" d="M166.89 75.125v-32m0 0V11.121h-44.113m0 0H78.664"/><path stroke="#000" stroke-miterlimit="10" stroke-width=".39728430000000003" d="M168.469 11.121a1.58 1.58 0 1 0-3.16-.005 1.58 1.58 0 0 0 3.16.005Zm0 0"/><path fill="none" stroke="#000" stroke-miterlimit="10" stroke-width=".39728430000000003" d="M197.45 75.125v25.66m0 0v25.664"/><path stroke="#000" stroke-miterlimit="10" stroke-width=".39728430000000003" d="M199.031 126.45a1.58 1.58 0 1 0-3.16-.004 1.58 1.58 0 0 0 3.16.003Zm0 0"/><path fill="none" stroke="#000" stroke-miterlimit="10" stroke-width=".39728430000000003" d="M197.45 34.762h12.687m0 0h12.687"/><path fill="#FFF" d="M224.402 34.762a1.58 1.58 0 1 0-3.161.003 1.58 1.58 0 0 0 3.161-.003m0 0"/><g clip-path="url(#f)"><path fill="none" stroke="#000" stroke-miterlimit="10" stroke-width=".39728430000000003" d="M224.402 34.762a1.58 1.58 0 1 0-3.161.003 1.58 1.58 0 0 0 3.161-.003Zm0 0"/></g><path fill="none" stroke="#000" stroke-miterlimit="10" stroke-width=".39728430000000003" d="M166.89 11.121h17.204m21.527 0h17.203"/><path fill="none" stroke="#000" stroke-linejoin="bevel" stroke-miterlimit="10" stroke-width=".7935729" d="M183.695 11.277c0-2.226 1.25-4.035 2.79-4.035 1.542 0 2.792 1.809 2.792 4.035 0-2.226 1.246-4.035 2.79-4.035 1.538 0 2.788 1.809 2.788 4.035 0-2.226 1.25-4.035 2.79-4.035 1.542 0 2.792 1.809 2.792 4.035 0-2.226 1.247-4.035 2.79-4.035 1.539 0 2.789 1.809 2.789 4.035"/><path fill="#FFF" d="M224.402 11.121a1.58 1.58 0 1 0-3.159-.005 1.58 1.58 0 0 0 3.16.005m0 0"/><g clip-path="url(#g)"><path fill="none" stroke="#000" stroke-miterlimit="10" stroke-width=".39728430000000003" d="M224.402 11.121a1.58 1.58 0 1 0-3.159-.005 1.58 1.58 0 0 0 3.16.005Zm0 0"/></g><use xlink:href="#h" x="220.588" y="7.947"/><path fill="none" stroke="#000" stroke-dasharray="2.9759780310000004 2.9759780310000004" stroke-miterlimit="10" stroke-width=".39728430000000003" d="M184.094 5.098h21.527"/></svg>