<svg xmlns="http://www.w3.org/2000/svg" xmlns:xlink="http://www.w3.org/1999/xlink" width="228.675" height="225.514"><defs><clipPath id="a"><path d="M.082 88H4v4H.082Zm0 0"/></clipPath><clipPath id="b"><path d="M.082 82H10v16H.082Zm0 0"/></clipPath><clipPath id="c"><path d="M.082 147H4v4H.082Zm0 0"/></clipPath><clipPath id="d"><path d="M.082 142H10v15H.082Zm0 0"/></clipPath><clipPath id="e"><path d="M215 142h13.266v15H215Zm0 0"/></clipPath><clipPath id="f"><path d="M215 82h13.266v16H215Zm0 0"/></clipPath><clipPath id="g"><path d="M118 224h14v1.027h-14Zm0 0"/></clipPath><clipPath id="h"><path d="M215 207h13.266v15H215Zm0 0"/></clipPath><clipPath id="j"><path d="M215 3h13.266v16H215Zm0 0"/></clipPath><path id="i" d="M4.313-2.469H.547V-3h3.766Zm0 0"/><path id="k" d="M2.484-3.031h1.563v.469H2.484v1.671h-.5v-1.671H.438v-.47h1.546v-1.655h.5Zm0 0"/></defs><path fill="none" stroke="#000" stroke-linejoin="bevel" stroke-miterlimit="10" stroke-width=".7952864500000001" d="M19.527 107.309c3.282 0 5.938 1.832 5.938 4.093s-2.656 4.094-5.938 4.094c3.282 0 5.938 1.832 5.938 4.09 0 2.262-2.656 4.094-5.938 4.094 3.282 0 5.938 1.832 5.938 4.093 0 2.258-2.656 4.09-5.938 4.09M43.605 135.824c-3.28 0-5.94-1.816-5.94-4.058s2.66-4.059 5.94-4.059c-3.28 0-5.94-1.816-5.94-4.059 0-2.242 2.66-4.062 5.94-4.062-3.28 0-5.94-1.816-5.94-4.059 0-2.242 2.66-4.058 5.94-4.058-3.28 0-5.94-1.817-5.94-4.059s2.66-4.058 5.94-4.058"/><path fill="none" stroke="#000" stroke-miterlimit="10" stroke-width=".39814215000000003" d="M1.867 89.887h17.82v17.82m0 23.762v17.82H1.867m59.399-59.402h-17.82v13.86m0 31.679v13.863h17.82"/><path fill="none" stroke="#000" stroke-miterlimit="10" stroke-width=".7952864500000001" d="M33.05 134.438v-29.7m-2.968 29.7v-29.7"/><path fill="none" stroke="#000" stroke-miterlimit="10" stroke-width=".39814215000000003" d="M1.867 89.887"/><g clip-path="url(#a)"><path fill="#FFF" d="M3.45 89.887a1.584 1.584 0 1 0-3.168.003 1.584 1.584 0 0 0 3.167-.003m0 0"/></g><g clip-path="url(#b)"><path fill="none" stroke="#000" stroke-miterlimit="10" stroke-width=".39814215000000003" d="M3.45 89.887a1.584 1.584 0 1 0-3.168.003 1.584 1.584 0 0 0 3.167-.003Zm0 0"/></g><path fill="none" stroke="#000" stroke-miterlimit="10" stroke-width=".39814215000000003" d="M1.867 149.29"/><g clip-path="url(#c)"><path fill="#FFF" d="M3.45 149.29a1.584 1.584 0 1 0-3.168-.005 1.584 1.584 0 0 0 3.167.004m0 0"/></g><g clip-path="url(#d)"><path fill="none" stroke="#000" stroke-miterlimit="10" stroke-width=".39814215000000003" d="M3.45 149.29a1.584 1.584 0 1 0-3.168-.005 1.584 1.584 0 0 0 3.167.004Zm0 0"/></g><path fill="none" stroke="#000" stroke-miterlimit="10" stroke-width=".39814215000000003" d="M61.266 89.887h6.797m0 0h6.796"/><path fill="none" stroke="#000" stroke-miterlimit="10" stroke-width=".7952864500000001" d="M106.606 89.887c0-8.11-6.575-14.684-14.688-14.684-8.11 0-14.684 6.574-14.684 14.684s6.575 14.687 14.684 14.687c8.113 0 14.688-6.578 14.688-14.687Zm0 0"/><path fill="none" stroke="#000" stroke-miterlimit="10" stroke-width=".39814215000000003" d="M98.617 67.91v13.266L86.738 86.62"/><path fill="none" stroke="#000" stroke-miterlimit="10" stroke-width=".7952864500000001" d="M86.738 81.176v17.422"/><path fill="none" stroke="#000" stroke-miterlimit="10" stroke-width=".39814215000000003" d="m86.738 93.152 11.88 5.446v13.27"/><path d="m90.922 95.07.953-2.074 3.684 4.2-5.586-.051Zm0 0"/><path fill="none" stroke="#000" stroke-miterlimit="10" stroke-width=".39814215000000003" d="M86.738 89.887H74.66M61.266 149.29h6.797m0 0h6.796"/><path fill="none" stroke="#000" stroke-miterlimit="10" stroke-width=".7952864500000001" d="M106.606 149.29c0 8.108-6.575 14.683-14.688 14.683-8.11 0-14.684-6.575-14.684-14.684 0-8.113 6.575-14.687 14.684-14.687 8.113 0 14.688 6.574 14.688 14.687Zm0 0"/><path fill="none" stroke="#000" stroke-miterlimit="10" stroke-width=".39814215000000003" d="M98.617 171.266V158l-11.879-5.445"/><path fill="none" stroke="#000" stroke-miterlimit="10" stroke-width=".7952864500000001" d="M86.738 158v-17.426"/><path fill="none" stroke="#000" stroke-miterlimit="10" stroke-width=".39814215000000003" d="m86.738 146.02 11.88-5.446V127.31"/><path d="m90.922 144.102.953 2.074 3.684-4.2-5.586.051Zm0 0"/><path fill="none" stroke="#000" stroke-miterlimit="10" stroke-width=".39814215000000003" d="M86.738 149.29H74.66M98.617 111.668v7.918m0 0v7.922"/><path fill="none" stroke="#000" stroke-linejoin="bevel" stroke-miterlimit="10" stroke-width=".7952864500000001" d="M206.711 131.863c-3.281 0-5.937-1.832-5.937-4.09 0-2.261 2.656-4.093 5.937-4.093-3.281 0-5.937-1.832-5.937-4.094 0-2.258 2.656-4.09 5.937-4.09-3.281 0-5.937-1.832-5.937-4.094 0-2.261 2.656-4.093 5.937-4.093M182.633 103.348c3.281 0 5.941 1.82 5.941 4.062s-2.66 4.059-5.941 4.059c3.281 0 5.941 1.816 5.941 4.058s-2.66 4.059-5.941 4.059c3.281 0 5.941 1.82 5.941 4.062 0 2.239-2.66 4.059-5.941 4.059 3.281 0 5.941 1.816 5.941 4.059 0 2.242-2.66 4.058-5.941 4.058"/><path fill="none" stroke="#000" stroke-miterlimit="10" stroke-width=".39814215000000003" d="M206.55 149.29v-17.821m0-23.762v-17.82m-23.757 59.402v-13.863m0-31.68v-13.86"/><path fill="none" stroke="#000" stroke-miterlimit="10" stroke-width=".7952864500000001" d="M193.188 104.738v29.7m2.968-29.7v29.7"/><path fill="none" stroke="#000" stroke-miterlimit="10" stroke-width=".39814215000000003" d="M98.617 68.105h84.176v21.782M98.617 171.066h84.176V149.29M206.55 149.29h8.157m0 0h8.156"/><path fill="#FFF" d="M224.445 149.29c0-.876-.707-1.587-1.582-1.587a1.584 1.584 0 0 0 0 3.168c.875 0 1.582-.71 1.582-1.582m0 0"/><g clip-path="url(#e)"><path fill="none" stroke="#000" stroke-miterlimit="10" stroke-width=".39814215000000003" d="M224.445 149.29c0-.876-.707-1.587-1.582-1.587a1.584 1.584 0 0 0 0 3.168c.875 0 1.582-.71 1.582-1.582Zm0 0"/></g><path fill="none" stroke="#000" stroke-miterlimit="10" stroke-width=".39814215000000003" d="M206.55 89.887h8.157m0 0h8.156"/><path fill="#FFF" d="M224.445 89.887a1.58 1.58 0 0 0-1.582-1.582 1.584 1.584 0 0 0 0 3.168c.875 0 1.582-.711 1.582-1.586m0 0"/><g clip-path="url(#f)"><path fill="none" stroke="#000" stroke-miterlimit="10" stroke-width=".39814215000000003" d="M224.445 89.887a1.58 1.58 0 0 0-1.582-1.582 1.584 1.584 0 0 0 0 3.168c.875 0 1.582-.711 1.582-1.586Zm0 0"/></g><path fill="none" stroke="#000" stroke-miterlimit="10" stroke-width=".39814215000000003" d="M43.445 119.586h6.797m0 0h6.797V99.199m0 0V60.672m0-31.684V10.852"/><path stroke="#000" stroke-miterlimit="10" stroke-width=".39814215000000003" d="M45.031 119.586a1.584 1.584 0 1 0-3.167.003 1.584 1.584 0 0 0 3.167-.003ZM58.621 119.586a1.584 1.584 0 1 0-3.168.003 1.584 1.584 0 0 0 3.168-.003Zm0 0"/><path fill="none" stroke="#000" stroke-miterlimit="10" stroke-width=".7952864500000001" d="M62.977 28.988v31.684h-11.88V28.988Zm0 0"/><path fill="none" stroke="#000" stroke-miterlimit="10" stroke-width=".39814215000000003" d="M57.04 10.852H43.444m0 0h-13.59v9.628m0 7.922v9.633"/><path stroke="#000" stroke-miterlimit="10" stroke-width=".39814215000000003" d="M58.621 10.852a1.584 1.584 0 1 0-3.167-.005 1.584 1.584 0 0 0 3.167.005Zm0 0"/><path fill="none" stroke="#000" stroke-miterlimit="10" stroke-width=".7952864500000001" d="M41.734 20.48H17.973m23.761 7.922H17.973"/><path fill="none" stroke="#000" stroke-miterlimit="10" stroke-width=".39814215000000003" d="M29.855 38.035v9.899"/><path fill="none" stroke="#000" stroke-linecap="round" stroke-miterlimit="10" stroke-width=".7952864500000001" d="M23.914 47.934h11.879"/><path fill="none" stroke="#000" stroke-miterlimit="10" stroke-width=".39814215000000003" d="M57.04 119.586v20.39m0 0v31.731m0 31.68v11.347h33.98m0 0h82.91m0 0h48.933"/><path fill="none" stroke="#000" stroke-miterlimit="10" stroke-width=".7952864500000001" d="M51.098 203.387v-31.68h11.879v31.68Zm0 0"/><path stroke="#000" stroke-miterlimit="10" stroke-width=".39814215000000003" d="M126.582 214.734a1.584 1.584 0 1 0-3.167-.004 1.584 1.584 0 0 0 3.167.004Zm0 0"/><path fill="none" stroke="#000" stroke-miterlimit="10" stroke-width=".39814215000000003" d="M125 214.734v9.899"/><g clip-path="url(#g)"><path fill="none" stroke="#000" stroke-linecap="round" stroke-miterlimit="10" stroke-width=".7952864500000001" d="M119.059 224.633h11.879"/></g><path fill="#FFF" d="M224.445 214.734c0-.875-.707-1.586-1.582-1.586a1.584 1.584 0 0 0 0 3.168c.875 0 1.582-.71 1.582-1.582m0 0"/><g clip-path="url(#h)"><path fill="none" stroke="#000" stroke-miterlimit="10" stroke-width=".39814215000000003" d="M224.445 214.734c0-.875-.707-1.586-1.582-1.586a1.584 1.584 0 0 0 0 3.168c.875 0 1.582-.71 1.582-1.582Zm0 0"/></g><use xlink:href="#i" x="220.436" y="211.551"/><path fill="none" stroke="#000" stroke-miterlimit="10" stroke-width=".39814215000000003" d="M57.04 10.852h82.91m0 0h82.913"/><path fill="#FFF" d="M224.445 10.852c0-.875-.707-1.586-1.582-1.586a1.584 1.584 0 0 0 0 3.168c.875 0 1.582-.711 1.582-1.582m0 0"/><g clip-path="url(#j)"><path fill="none" stroke="#000" stroke-miterlimit="10" stroke-width=".39814215000000003" d="M224.445 10.852c0-.875-.707-1.586-1.582-1.586a1.584 1.584 0 0 0 0 3.168c.875 0 1.582-.711 1.582-1.582Zm0 0"/></g><use xlink:href="#k" x="220.623" y="7.67"/><path fill="none" stroke="#000" stroke-miterlimit="10" stroke-width=".39814215000000003" d="M182.793 119.586h-13.594m0 0h-13.59v9.633m0 7.922v9.632"/><path stroke="#000" stroke-miterlimit="10" stroke-width=".39814215000000003" d="M184.375 119.586a1.584 1.584 0 1 0-3.168.003 1.584 1.584 0 0 0 3.168-.003ZM157.191 119.586a1.583 1.583 0 1 0-3.165.002 1.583 1.583 0 0 0 3.165-.002Zm0 0"/><path fill="none" stroke="#000" stroke-miterlimit="10" stroke-width=".7952864500000001" d="M167.488 129.219h-23.761m23.761 7.922h-23.761"/><path fill="none" stroke="#000" stroke-miterlimit="10" stroke-width=".39814215000000003" d="M155.61 146.773v9.899"/><path fill="none" stroke="#000" stroke-linecap="round" stroke-miterlimit="10" stroke-width=".7952864500000001" d="M149.668 156.672h11.879"/><path fill="none" stroke="#000" stroke-miterlimit="10" stroke-width=".39814215000000003" d="M155.61 119.586V92.402m0 0V53.875m0-31.68V10.852"/><path fill="none" stroke="#000" stroke-linejoin="bevel" stroke-miterlimit="10" stroke-width=".7952864500000001" d="M155.766 54.273c-3.282 0-5.938-1.82-5.938-4.062s2.656-4.059 5.938-4.059c-3.282 0-5.938-1.816-5.938-4.058s2.656-4.059 5.938-4.059c-3.282 0-5.938-1.82-5.938-4.058 0-2.243 2.656-4.063 5.938-4.063-3.282 0-5.938-1.816-5.938-4.059 0-2.242 2.656-4.058 5.938-4.058"/><path stroke="#000" stroke-miterlimit="10" stroke-width=".39814215000000003" d="M157.191 10.852c0-.875-.71-1.586-1.582-1.586-.875 0-1.586.71-1.586 1.586 0 .87.711 1.582 1.586 1.582.872 0 1.582-.711 1.582-1.582Zm0 0"/><path fill="none" stroke="#000" stroke-miterlimit="10" stroke-width=".39814215000000003" d="M98.617 119.586H125v95.148"/><path stroke="#000" stroke-miterlimit="10" stroke-width=".39814215000000003" d="M100.203 119.586a1.584 1.584 0 1 0-3.167.003 1.584 1.584 0 0 0 3.167-.003Zm0 0"/></svg>