<svg xmlns="http://www.w3.org/2000/svg" xmlns:xlink="http://www.w3.org/1999/xlink" width="227.69" height="227.996"><defs><clipPath id="a"><path d="M0 8.535h15.848v6.34H0Zm0 6.34h6.34v3.168H0Zm0 3.168h15.848v6.34H0Zm0 0"/></clipPath><clipPath id="f"><path d="M49 224h4v3.84h-4Zm0 0"/></clipPath><clipPath id="g"><path d="M43 218h16v9.84H43Zm0 0"/></clipPath><clipPath id="h"><path d="M88 224h5v3.84h-5Zm0 0"/></clipPath><clipPath id="i"><path d="M83 218h15v9.84H83Zm0 0"/></clipPath><clipPath id="j"><path d="M128 224h4v3.84h-4Zm0 0"/></clipPath><clipPath id="k"><path d="M122 218h15v9.84h-15Zm0 0"/></clipPath><clipPath id="l"><path d="M215 27h12.379v31H215Zm0 0"/></clipPath><clipPath id="m"><path d="M215 79h12.379v32H215Zm0 0"/></clipPath><clipPath id="n"><path d="M215 132h12.379v31H215Zm0 0"/></clipPath><clipPath id="o"><path d="M215 184h12.379v31H215Zm0 0"/></clipPath><path id="b" d="M-.578-2.031h-4.438l.266 1.344q-.106.016-.187.015c-.133 0-.235-.07-.297-.219l-.578-1.468v-.453h5.234l.172-1.094q.016-.124.11-.125.08 0 .296.093v3.063a.16.16 0 0 1-.078.016q-.311 0-.36-.282Zm0 0"/><path id="c" d="M-5.812-1.125v-2.562l.765.046v2.11l1.422.11q.048-1.296.547-1.876c.305-.363.765-.547 1.39-.547a1.7 1.7 0 0 1 1.266.547q.533.534.531 1.39-.001.721-.265 1.079a.61.61 0 0 1-.516.281q-.405 0-.547-.39.376-.17.5-.297.328-.295.328-.828 0-.528-.328-.844-.311-.296-.828-.297-.731 0-1.047.562c-.219.375-.328.977-.328 1.797Zm0 0"/><path id="d" d="M-.39-2.234q.001-1.11-2.516-1.11-2.515 0-2.516 1.11.001 1.094 2.516 1.093c1.68 0 2.515-.363 2.515-1.093m.5.03q0 .88-.75 1.376-.779.532-2.266.531-1.484.001-2.281-.578-.734-.515-.735-1.406.001-.873.734-1.375.798-.516 2.282-.516 1.47 0 2.265.563.75.515.75 1.406m0 0"/><path id="e" d="M-3.484-6.14q.926 0 1.734.546.69.486 1.047 1.172h.172v-1.203l-.719-.125a.5.5 0 0 1-.047-.219q.001-.264.406-.265.365 0 .891.046v2.329h-.89q-.75-1.484-2.626-1.485-1.03.001-1.64.547a1.79 1.79 0 0 0-.61 1.39q.002.864.594 1.391c.418.368.969.547 1.656.547q.88.001 1.547-.343c.48-.258.84-.641 1.078-1.141H0v2.328q-.527.047-.89.047c-.27 0-.407-.086-.407-.266q0-.106.047-.219l.719-.125V-2.39h-.156c-.188.43-.524.809-1.016 1.141q-.844.596-1.781.594-1.218.001-2-.766-.797-.779-.797-1.984c0-.801.258-1.457.765-1.969.512-.508 1.188-.766 2.032-.766m0 0"/><path id="p" d="M1.094-.5v-5.203l-.547-.125c-.086-.02-.125-.05-.125-.094q0-.075.094-.25h4.03c.04.5.063.852.063 1.047 0 .262-.086.39-.25.39a.6.6 0 0 1-.203-.03l-.203-.938H1.875v2.312h2v.5h-2v2.375h2.14l.235-.968a.7.7 0 0 1 .203-.032q.234 0 .234.375 0 .363-.078 1.141H.422a.16.16 0 0 1-.016-.078Q.404-.324.72-.406Zm0 0"/></defs><path fill="none" stroke="#000" stroke-miterlimit="10" stroke-width=".39845736" d="M11.887 16.457h65.5m0 0h65.496m52.402 0h13.098m0 0h13.101"/><g clip-path="url(#a)"><path fill="none" stroke="#000" stroke-miterlimit="10" stroke-width=".79591608" d="M11.887 16.457a3.96 3.96 0 0 0-3.961-3.96 3.962 3.962 0 1 0 0 7.925 3.96 3.96 0 0 0 3.96-3.965Zm0 0"/></g><path fill="none" stroke="#000" stroke-miterlimit="10" stroke-width=".79591608" d="M9.508 16.457a1.584 1.584 0 1 0-3.168.003 1.584 1.584 0 0 0 3.168-.003Zm0 0"/><path fill="none" stroke="#000" stroke-miterlimit="10" stroke-width=".39845736" d="M9.508 16.457h2.379"/><path fill="none" stroke="#000" stroke-dasharray="2.9847651912 2.9847651912" stroke-miterlimit="10" stroke-width=".39845736" d="M142.883 16.457h52.402"/><path fill="none" stroke="#000" stroke-miterlimit="10" stroke-width=".39845736" d="M51.187 16.457v11.527m0 29.344v23.059m0 29.34v23.058m0 29.344v23.055m0 29.343v11.528"/><path fill="none" stroke="#000" stroke-miterlimit="10" stroke-width=".79591608" d="M45.684 57.328V27.984h11.003v29.344Zm0 0"/><path stroke="#000" stroke-miterlimit="10" stroke-width=".39845736" d="M52.77 16.457a1.584 1.584 0 1 0-3.168.003 1.584 1.584 0 0 0 3.168-.003Zm0 0"/><use xlink:href="#b" x="43.415" y="52.586"/><use xlink:href="#c" x="43.415" y="48.109"/><use xlink:href="#d" x="43.415" y="43.631"/><use xlink:href="#e" x="43.415" y="37.668"/><path fill="none" stroke="#000" stroke-miterlimit="10" stroke-width=".79591608" d="M45.684 109.727v-29.34h11.003v29.34Zm0 0"/><use xlink:href="#b" x="43.415" y="104.983"/><use xlink:href="#c" x="43.415" y="100.506"/><use xlink:href="#d" x="43.415" y="96.029"/><use xlink:href="#e" x="43.415" y="90.066"/><path fill="none" stroke="#000" stroke-miterlimit="10" stroke-width=".79591608" d="M45.684 162.129v-29.344h11.003v29.344Zm0 0"/><use xlink:href="#b" x="43.415" y="157.382"/><use xlink:href="#c" x="43.415" y="152.905"/><use xlink:href="#d" x="43.415" y="148.428"/><use xlink:href="#e" x="43.415" y="142.464"/><path fill="none" stroke="#000" stroke-miterlimit="10" stroke-width=".79591608" d="M45.684 214.527v-29.343h11.003v29.343Zm0 0"/><g clip-path="url(#f)"><path d="M52.77 226.055a1.584 1.584 0 1 0-3.168 0 1.584 1.584 0 1 0 3.168 0m0 0"/></g><g clip-path="url(#g)"><path fill="none" stroke="#000" stroke-miterlimit="10" stroke-width=".39845736" d="M52.77 226.055a1.584 1.584 0 1 0-3.168 0 1.584 1.584 0 1 0 3.168 0Zm0 0"/></g><use xlink:href="#b" x="43.415" y="209.781"/><use xlink:href="#c" x="43.415" y="205.303"/><use xlink:href="#d" x="43.415" y="200.826"/><use xlink:href="#e" x="43.415" y="194.863"/><path fill="none" stroke="#000" stroke-miterlimit="10" stroke-width=".39845736" d="M90.484 16.457v11.527m0 29.344v23.059m0 29.34v23.058m0 29.344v23.055m0 29.343v11.528"/><path fill="none" stroke="#000" stroke-miterlimit="10" stroke-width=".79591608" d="M84.984 57.328V27.984h11.004v29.344Zm0 0"/><path stroke="#000" stroke-miterlimit="10" stroke-width=".39845736" d="M92.07 16.457c0-.875-.71-1.582-1.586-1.582a1.584 1.584 0 1 0 0 3.168c.875 0 1.586-.71 1.586-1.586Zm0 0"/><use xlink:href="#b" x="82.713" y="52.586"/><use xlink:href="#c" x="82.713" y="48.109"/><use xlink:href="#d" x="82.713" y="43.631"/><use xlink:href="#e" x="82.713" y="37.668"/><path fill="none" stroke="#000" stroke-miterlimit="10" stroke-width=".79591608" d="M84.984 109.727v-29.34h11.004v29.34Zm0 0"/><use xlink:href="#b" x="82.713" y="104.983"/><use xlink:href="#c" x="82.713" y="100.506"/><use xlink:href="#d" x="82.713" y="96.029"/><use xlink:href="#e" x="82.713" y="90.066"/><path fill="none" stroke="#000" stroke-miterlimit="10" stroke-width=".79591608" d="M84.984 162.129v-29.344h11.004v29.344Zm0 0"/><use xlink:href="#b" x="82.713" y="157.382"/><use xlink:href="#c" x="82.713" y="152.905"/><use xlink:href="#d" x="82.713" y="148.428"/><use xlink:href="#e" x="82.713" y="142.464"/><path fill="none" stroke="#000" stroke-miterlimit="10" stroke-width=".79591608" d="M84.984 214.527v-29.343h11.004v29.343Zm0 0"/><g clip-path="url(#h)"><path d="M92.07 226.055a1.587 1.587 0 0 0-3.172 0 1.587 1.587 0 0 0 3.172 0m0 0"/></g><g clip-path="url(#i)"><path fill="none" stroke="#000" stroke-miterlimit="10" stroke-width=".39845736" d="M92.07 226.055a1.587 1.587 0 0 0-3.172 0 1.587 1.587 0 0 0 3.172 0Zm0 0"/></g><use xlink:href="#b" x="82.713" y="209.781"/><use xlink:href="#c" x="82.713" y="205.303"/><use xlink:href="#d" x="82.713" y="200.826"/><use xlink:href="#e" x="82.713" y="194.863"/><path fill="none" stroke="#000" stroke-miterlimit="10" stroke-width=".39845736" d="M129.785 16.457v11.527m0 29.344v23.059m0 29.34v23.058m0 29.344v23.055m0 29.343v11.528"/><path fill="none" stroke="#000" stroke-miterlimit="10" stroke-width=".79591608" d="M124.281 57.328V27.984h11.004v29.344Zm0 0"/><path stroke="#000" stroke-miterlimit="10" stroke-width=".39845736" d="M131.371 16.457c0-.875-.71-1.582-1.586-1.582a1.584 1.584 0 1 0 0 3.168c.875 0 1.586-.71 1.586-1.586Zm0 0"/><use xlink:href="#b" x="122.012" y="52.586"/><use xlink:href="#c" x="122.012" y="48.109"/><use xlink:href="#d" x="122.012" y="43.631"/><use xlink:href="#e" x="122.012" y="37.668"/><path fill="none" stroke="#000" stroke-miterlimit="10" stroke-width=".79591608" d="M124.281 109.727v-29.34h11.004v29.34Zm0 0"/><use xlink:href="#b" x="122.012" y="104.983"/><use xlink:href="#c" x="122.012" y="100.506"/><use xlink:href="#d" x="122.012" y="96.029"/><use xlink:href="#e" x="122.012" y="90.066"/><path fill="none" stroke="#000" stroke-miterlimit="10" stroke-width=".79591608" d="M124.281 162.129v-29.344h11.004v29.344Zm0 0"/><use xlink:href="#b" x="122.012" y="157.382"/><use xlink:href="#c" x="122.012" y="152.905"/><use xlink:href="#d" x="122.012" y="148.428"/><use xlink:href="#e" x="122.012" y="142.464"/><path fill="none" stroke="#000" stroke-miterlimit="10" stroke-width=".79591608" d="M124.281 214.527v-29.343h11.004v29.343Zm0 0"/><g clip-path="url(#j)"><path d="M131.371 226.055a1.587 1.587 0 0 0-3.172 0 1.587 1.587 0 0 0 3.172 0m0 0"/></g><g clip-path="url(#k)"><path fill="none" stroke="#000" stroke-miterlimit="10" stroke-width=".39845736" d="M131.371 226.055a1.587 1.587 0 0 0-3.172 0 1.587 1.587 0 0 0 3.172 0Zm0 0"/></g><use xlink:href="#b" x="122.012" y="209.781"/><use xlink:href="#c" x="122.012" y="205.303"/><use xlink:href="#d" x="122.012" y="200.826"/><use xlink:href="#e" x="122.012" y="194.863"/><path fill="none" stroke="#000" stroke-miterlimit="10" stroke-width=".39845736" d="M221.484 16.457v11.527m0 29.344v23.059m0 29.34v23.058m0 29.344v23.055m0 29.343v11.528"/><g clip-path="url(#l)"><path fill="none" stroke="#000" stroke-miterlimit="10" stroke-width=".79591608" d="M215.98 57.328V27.984h11.004v29.344Zm0 0"/></g><use xlink:href="#b" x="213.709" y="52.586"/><use xlink:href="#c" x="213.709" y="48.109"/><use xlink:href="#d" x="213.709" y="43.631"/><use xlink:href="#e" x="213.709" y="37.668"/><g clip-path="url(#m)"><path fill="none" stroke="#000" stroke-miterlimit="10" stroke-width=".79591608" d="M215.98 109.727v-29.34h11.004v29.34Zm0 0"/></g><use xlink:href="#b" x="213.709" y="104.983"/><use xlink:href="#c" x="213.709" y="100.506"/><use xlink:href="#d" x="213.709" y="96.029"/><use xlink:href="#e" x="213.709" y="90.066"/><g clip-path="url(#n)"><path fill="none" stroke="#000" stroke-miterlimit="10" stroke-width=".79591608" d="M215.98 162.129v-29.344h11.004v29.344Zm0 0"/></g><use xlink:href="#b" x="213.709" y="157.382"/><use xlink:href="#c" x="213.709" y="152.905"/><use xlink:href="#d" x="213.709" y="148.428"/><use xlink:href="#e" x="213.709" y="142.464"/><g clip-path="url(#o)"><path fill="none" stroke="#000" stroke-miterlimit="10" stroke-width=".79591608" d="M215.98 214.527v-29.343h11.004v29.343Zm0 0"/></g><use xlink:href="#b" x="213.709" y="209.781"/><use xlink:href="#c" x="213.709" y="205.303"/><use xlink:href="#d" x="213.709" y="200.826"/><use xlink:href="#e" x="213.709" y="194.863"/><path fill="none" stroke="#000" stroke-miterlimit="10" stroke-width=".39845736" d="M7.926 20.422v102.816m0 0v102.817h65.496m0 0h65.5m52.398 0h15.082m0 0h15.082"/><path fill="none" stroke="#000" stroke-dasharray="2.9847651912 2.9847651912" stroke-miterlimit="10" stroke-width=".39845736" d="M138.922 226.055h52.398"/><use xlink:href="#p" x="5.387" y="9.316"/></svg>