<svg xmlns="http://www.w3.org/2000/svg" xmlns:xlink="http://www.w3.org/1999/xlink" width="112.937" height="38.896"><defs><path id="f" d="M2.656-2.781q0-.591-.172-.86-.175-.28-.609-.28a1.5 1.5 0 0 0-.531.093q-.11.22-.203.781a2 2 0 0 1-.188.016q-.438 0-.437-.39 0-.405.468-.688a1.97 1.97 0 0 1 1.032-.282q1.373 0 1.375 1.5v1.97c0 .335.101.5.312.5q.2 0 .313-.11a.38.38 0 0 1 .093.25c0 .062-.058.133-.171.203a.87.87 0 0 1-.532.156q-.628 0-.687-.61h-.016Q2.28.112 1.47.11.966.11.656-.203.343-.514.344-1.031c0-.438.219-.774.656-1.016.383-.195.86-.297 1.422-.297h.234Zm-.89 2.328q.498 0 .89-.469v-1.031l-.234.016q-1.299.11-1.297.812c0 .45.21.672.64.672m0 0"/><path id="g" d="M4.531.016c.14-.5.328-1.032.516-1.485l-.25-.047C4.5-.875 4.14-.344 3.5-.344h-2c-.156 0-.219-.047-.187-.125 0-.047.03-.094.093-.172l4.11-4.64c.234-.266.312-.422.312-.5 0-.063-.031-.078-.172-.078-.11 0-.297.062-.578.093h-2.75c-.39 0-.36-.093-.672-.109a15 15 0 0 1-.468 1.484l.25.047c.296-.61.53-1.062 1.187-1.062h1.969c.062 0 .093.015.078.078-.016.031-.047.094-.11.156L.298-.344C.234-.28.172-.172.172-.109c0 .078.047.109.156.109h3.125c.219 0 1.078.016 1.078.016m0 0"/><path id="h" d="M.531-1.656c-.11.11-.11.343 0 .453h4.735c.109-.11.109-.344 0-.453Zm0-1.781c-.11.109-.11.343 0 .437h4.735c.109-.094.109-.328 0-.437Zm0 0"/><path id="i" d="M2.844-1.687c0 .843-.438 1.468-.969 1.468-.344 0-.469-.218-.594-.39-.125-.157-.265-.297-.453-.297-.172 0-.344.156-.344.328 0 .375.766.672 1.266.672 1.11 0 1.89-.813 1.89-1.938 0-.875-.593-1.656-1.593-1.656-.39 0-.719.078-.875.14l.172-1.484c.343.032.625.078 1.047.078q.398 0 .937-.046l.156-.61-.062-.031c-.516.047-1 .094-1.469.094-.328 0-.656-.016-.969-.047L.672-2.828a2.9 2.9 0 0 1 1.14-.219c.579 0 1.032.39 1.032 1.36m0 0"/><path id="j" d="M2.031.094c.688 0 1.735-.703 1.735-2.797 0-.89-.203-1.656-.61-2.172a1.32 1.32 0 0 0-1.078-.578c-.89 0-1.734 1.062-1.734 2.828 0 .953.297 1.844.797 2.344q.375.375.89.375m.047-5.235c.14 0 .297.063.39.157.282.234.532.906.532 2.109 0 .813-.031 1.375-.156 1.844-.203.734-.64.812-.797.812-.828 0-.922-1.531-.922-2.312 0-2.203.547-2.61.953-2.61m0 0"/><path id="k" d="M4.078-1.047c1-.328 1.75-1.25 1.75-2.328 0-1.312-.906-2.5-2.687-2.5-1.766 0-2.688 1.328-2.688 2.5 0 1.156.766 2 1.735 2.328l.03.438h-.984c-.421 0-.578 0-.625-.453a.27.27 0 0 0-.218 0C.39-.703.406-.344.453 0H2.36c.094 0 .157-.047.157-.14l-.079-1.141c-.812-.547-1.171-1.094-1.171-2.094 0-1.14.625-2.203 1.875-2.203 1.156 0 1.875.953 1.875 2.203 0 .969-.36 1.625-1.188 2.094L3.766-.125c0 .078.046.125.156.125h1.86c.03-.297.062-.703.062-1.062a.3.3 0 0 0-.235 0c-.046.453-.218.453-.562.453h-.985Zm0 0"/><clipPath id="a"><path d="M.121 6H108v7H.121Zm0 0"/></clipPath><clipPath id="b"><path d="M100 0h12.754v14H100Zm0 0"/></clipPath><clipPath id="c"><path d="M.121 6H94v1H.121Zm0 0"/></clipPath><clipPath id="d"><path d="M106 35h4v3.793h-4Zm0 0"/></clipPath><clipPath id="e"><path d="M100 29h12.754v9.793H100Zm0 0"/></clipPath></defs><g clip-path="url(#a)"><path fill="none" stroke="#000" stroke-miterlimit="10" stroke-width=".39793467000000005" d="M107.687 6.336H93.582m-79.16 0H.316v5.934h16.48m0 0"/></g><path fill="none" stroke="#000" stroke-miterlimit="10" stroke-width=".7948720100000001" d="M16.797 12.27h74.41c1.313 0 2.375-2.657 2.375-5.934 0-3.281-1.062-5.938-2.375-5.938h-74.41c-1.313 0-2.375 2.657-2.375 5.938 0 3.277 1.062 5.934 2.375 5.934"/><path fill="none" stroke="#000" stroke-miterlimit="10" stroke-width=".7948720100000001" d="M16.797 12.27c1.312 0 2.375-2.657 2.375-5.934 0-3.281-1.063-5.938-2.375-5.938"/><path fill="none" stroke="#000" stroke-miterlimit="10" stroke-width=".39793467000000005" d="M16.797 6.336h-2.375"/><path fill="#FFF" d="M109.27 6.336c0-.875-.707-1.586-1.582-1.586a1.584 1.584 0 0 0 0 3.168c.874 0 1.582-.711 1.582-1.582m0 0"/><g clip-path="url(#b)"><path fill="none" stroke="#000" stroke-miterlimit="10" stroke-width=".39793467000000005" d="M109.27 6.336a1.584 1.584 0 1 0-1.582 1.582c.874 0 1.582-.711 1.582-1.582Zm0 0"/></g><path stroke="#000" stroke-miterlimit="10" stroke-width=".39793467000000005" d="M18.379 12.27a1.583 1.583 0 1 0-3.166.001 1.583 1.583 0 0 0 3.166-.001Zm0 0"/><g clip-path="url(#c)"><path fill="none" stroke="#000" stroke-dasharray="2.9808498239000003 2.9808498239000003" stroke-miterlimit="10" stroke-width=".39793467000000005" d="M93.582 6.336H.316"/></g><path fill="none" stroke="#000" stroke-miterlimit="10" stroke-width=".39793467000000005" d="M107.687 37.012h-16.48V12.27m0 0"/><g clip-path="url(#d)"><path fill="#FFF" d="M109.27 37.012a1.58 1.58 0 0 0-1.582-1.582 1.58 1.58 0 0 0-1.583 1.582 1.58 1.58 0 0 0 1.582 1.582 1.58 1.58 0 0 0 1.583-1.582m0 0"/></g><g clip-path="url(#e)"><path fill="none" stroke="#000" stroke-miterlimit="10" stroke-width=".39793467000000005" d="M109.27 37.012a1.58 1.58 0 0 0-1.583-1.582 1.58 1.58 0 0 0-1.582 1.582 1.58 1.58 0 0 0 1.582 1.582 1.58 1.58 0 0 0 1.583-1.582Zm0 0"/></g><path stroke="#000" stroke-miterlimit="10" stroke-width=".39793467000000005" d="M92.79 12.27a1.583 1.583 0 1 0-3.167.001 1.583 1.583 0 0 0 3.166-.001Zm0 0"/><use xlink:href="#f" x="105.598" y="23.818"/><use xlink:href="#g" x="37.596" y="21.334"/><use xlink:href="#h" x="46.082" y="21.334"/><use xlink:href="#i" x="54.363" y="21.334"/><use xlink:href="#j" x="58.521" y="21.334"/><use xlink:href="#k" x="64.173" y="21.334"/></svg>