<svg xmlns="http://www.w3.org/2000/svg" xmlns:xlink="http://www.w3.org/1999/xlink" width="227.158" height="79.755"><defs><path id="c" d="m4.484-.484-.578-1.641H1.688l-.594 1.64.672.126q.124.017.125.093 0 .066-.094.266H-.078a.2.2 0 0 1-.016-.078Q-.096-.342.22-.406l.25-.063L2.64-6.172l.562-.062L5.343-.47l.391.11q.124.034.125.093 0 .048-.093.266H3.859a.16.16 0 0 1-.015-.078q-.002-.246.297-.328Zm-2.64-2.11h1.89l-.921-2.61h-.016Zm0 0"/><path id="d" d="M2.375-6.172q3.546 0 3.547 3 0 1.583-.938 2.39C4.38-.257 3.508 0 2.375 0H.422a.16.16 0 0 1-.016-.078Q.404-.324.72-.406l.375-.078v-5.203l-.547-.125c-.086-.02-.125-.055-.125-.11q0-.075.094-.25ZM2.344-.5q1.326 0 2.031-.672.717-.667.719-1.969-.002-1.246-.719-1.89-.705-.64-2.031-.64h-.469V-.5Zm0 0"/><path id="h" d="M5.86-2.906a.2.2 0 0 1 .015.078q0 .236-.312.312l-.204.047v1.89C4.867-.116 4.15.11 3.203.11q-1.207 0-1.937-.765Q.469-1.5.469-3.062q0-1.606 1.031-2.485.855-.733 2.11-.734.59.002 1.078.156.044.019.593.219.047.657.047.922-.001.408-.266.406a.44.44 0 0 1-.203-.047l-.187-.86q-.44-.264-1.11-.265-.953.002-1.562.594-.703.702-.703 2.015c0 .875.195 1.555.594 2.032.375.46.882.687 1.53.687.438 0 .821-.07 1.157-.219v-1.796l-.547-.126q-.127-.011-.125-.093 0-.076.094-.25Zm0 0"/><path id="i" d="M2.594-6.172v.078c0 .157-.102.262-.297.313l-.422.093v5.204L2.5-.36q.124.017.125.093c0 .032-.04.121-.11.266H.423a.16.16 0 0 1-.016-.078Q.404-.324.72-.406l.375-.078v-5.203l-.547-.125c-.086-.02-.125-.055-.125-.11q0-.075.094-.25Zm0 0"/><path id="j" d="M3.64.078q-.205.03-.421.031-1.22 0-1.969-.812Q.467-1.56.469-3.078q0-1.512.844-2.375.761-.827 2.015-.828 1.247 0 1.985.828c.507.562.765 1.355.765 2.375q0 1.501-.828 2.375-.362.375-.812.562l.75.766c.164.164.375.281.625.344q.151.045.328.062c.007.02.015.04.015.063q-.001.216-.218.343a.87.87 0 0 1-.5.141c-.356 0-.68-.18-.97-.531ZM3.267-.39q.92.001 1.453-.718c.351-.477.531-1.133.531-1.97q0-1.247-.562-1.968-.552-.733-1.454-.734-.907.001-1.421.734-.516.72-.516 1.969 0 1.254.531 1.969.528.719 1.438.718m0 0"/><path id="e" d="M1.516-1.906c-.075-.157-.11-.399-.11-.735q0-.45.328-.937.31-.434.625-.844.342-.528.344-1.11c0-.6-.32-.905-.953-.905q-.268 0-.531.093-.129.268-.235.875a2 2 0 0 1-.203.016q-.485 0-.484-.438-.001-.433.484-.75.481-.328 1.11-.328.7 0 1.156.328.515.394.515 1.157-.002.58-.39 1.156-.376.44-.735.89-.408.533-.406 1c0 .25.016.43.047.532Zm.812 1.484a.55.55 0 0 1-.156.406.56.56 0 0 1-.39.141.56.56 0 0 1-.391-.14.54.54 0 0 1-.157-.407c0-.164.051-.297.157-.39a.54.54 0 0 1 .39-.157c.157 0 .285.055.39.156a.51.51 0 0 1 .157.391m0 0"/><clipPath id="a"><path d="M6 .023h1V37H6Zm0 0"/></clipPath><clipPath id="b"><path d="M0 .023h24V24H0Zm0 0"/></clipPath><clipPath id="f"><path d="M200 18h26.32v38H200Zm0 0"/></clipPath><clipPath id="g"><path d="M40 61h19v18.484H40Zm0 0"/></clipPath></defs><path fill="none" stroke="#000" stroke-miterlimit="10" stroke-width=".39752769000000004" d="M6.621 36.57h8.777m16.872 0h8.777"/><g clip-path="url(#a)"><path fill="none" stroke="#000" stroke-miterlimit="10" stroke-width=".39752769000000004" d="M6.422 36.57V.422"/></g><g clip-path="url(#b)"><path fill="none" stroke="#000" stroke-miterlimit="10" stroke-width=".7940590700000001" d="M6.422.422h6.023l-6.023 12.05L.398.423h6.024"/></g><path fill="none" stroke="#000" stroke-miterlimit="10" stroke-width=".7940590700000001" d="M15.398 28.137H32.27v16.867H15.398Zm0 0"/><path d="M11.2 36.57v1.977l4.198-1.977-4.199-1.976Zm0 0"/><path fill="none" stroke="#000" stroke-miterlimit="10" stroke-width=".39752769000000004" d="m17.93 30.074 11.808 6.496-11.808 6.496Zm0 0"/><path fill="none" stroke="#000" stroke-miterlimit="10" stroke-width=".7940590700000001" d="M41.047 28.137h16.871v16.867H41.047Zm0 0"/><path fill="none" stroke="#000" stroke-miterlimit="10" stroke-width=".39752769000000004" d="M55.387 36.57a5.9 5.9 0 0 0-5.903-5.902 5.903 5.903 0 0 0-5.906 5.902 5.907 5.907 0 0 0 5.906 5.907 5.906 5.906 0 0 0 5.903-5.907ZM45.309 32.395l8.347 8.351m0-8.351-8.347 8.351M57.918 32.352h4.305m0 0h4.3V15.14h8.61"/><path d="M70.93 15.14v1.977l4.203-1.976-4.203-1.977Zm0 0"/><path fill="none" stroke="#000" stroke-miterlimit="10" stroke-width=".7940590700000001" d="M75.133 6.703H92v16.871H75.133Zm0 0"/><path fill="none" stroke="#000" stroke-miterlimit="10" stroke-width=".39752769000000004" d="M79.348 10.922c.687-1.078 1.347-2.11 2.109-2.11.766 0 1.422 1.032 2.11 2.11s1.343 2.11 2.109 2.11c.761 0 1.422-1.032 2.11-2.11m-2.954-1.266-2.531 2.532M79.348 15.14c.687-1.081 1.347-2.109 2.109-2.109.766 0 1.422 1.028 2.11 2.11.687 1.078 1.343 2.109 2.109 2.109.761 0 1.422-1.031 2.11-2.11m-2.954-1.265-2.531 2.531M79.348 19.355c.687-1.078 1.347-2.105 2.109-2.105.766 0 1.422 1.027 2.11 2.105.687 1.082 1.343 2.11 2.109 2.11.761 0 1.422-1.028 2.11-2.11M92 15.14h4.305m0 0h4.304"/><path d="M96.406 15.14v1.977l4.203-1.976-4.203-1.977Zm0 0"/><path fill="none" stroke="#000" stroke-miterlimit="10" stroke-width=".7940590700000001" d="M100.61 6.703h16.867v16.871h-16.868Zm0 0"/><path fill="none" stroke="#000" stroke-miterlimit="10" stroke-width=".39752769000000004" d="m100.61 23.574 16.867-16.87"/><use xlink:href="#c" x="102.334" y="14.462"/><use xlink:href="#d" x="109.639" y="22.018"/><path fill="none" stroke="#000" stroke-miterlimit="10" stroke-width=".39752769000000004" d="M57.918 40.79h4.305m0 0h4.3v17.214h8.61"/><path d="M70.93 58.004v1.976l4.203-1.976-4.203-1.98Zm0 0"/><path fill="none" stroke="#000" stroke-miterlimit="10" stroke-width=".7940590700000001" d="M75.133 49.566H92v16.871H75.133Zm0 0"/><path fill="none" stroke="#000" stroke-miterlimit="10" stroke-width=".39752769000000004" d="M79.348 53.785c.687-1.082 1.347-2.11 2.109-2.11.766 0 1.422 1.028 2.11 2.11.687 1.078 1.343 2.11 2.109 2.11.761 0 1.422-1.032 2.11-2.11m-2.954-1.265-2.531 2.53M79.348 58.004c.687-1.082 1.347-2.11 2.109-2.11.766 0 1.422 1.028 2.11 2.11.687 1.078 1.343 2.105 2.109 2.105.761 0 1.422-1.027 2.11-2.105m-2.954-1.266-2.531 2.528M79.348 62.219c.687-1.078 1.347-2.11 2.109-2.11.766 0 1.422 1.032 2.11 2.11.687 1.082 1.343 2.11 2.109 2.11.761 0 1.422-1.028 2.11-2.11M92 58.004h4.305m0 0h4.304"/><path d="M96.406 58.004v1.976l4.203-1.976-4.203-1.98Zm0 0"/><path fill="none" stroke="#000" stroke-miterlimit="10" stroke-width=".7940590700000001" d="M100.61 49.566h16.867v16.871h-16.868Zm0 0"/><path fill="none" stroke="#000" stroke-miterlimit="10" stroke-width=".39752769000000004" d="m100.61 66.437 16.867-16.87"/><use xlink:href="#c" x="102.334" y="57.324"/><use xlink:href="#d" x="109.639" y="64.88"/><path fill="none" stroke="#000" stroke-miterlimit="10" stroke-width=".7940590700000001" d="M134.691 28.137h16.871v16.867h-16.87Zm0 0"/><use xlink:href="#e" x="141.144" y="39.995"/><path fill="none" stroke="#000" stroke-miterlimit="10" stroke-width=".39752769000000004" d="M117.477 15.14h4.304m0 0h4.305v17.212h8.605"/><path d="M130.492 32.352v1.98l4.2-1.98-4.2-1.977Zm0 0"/><path fill="none" stroke="#000" stroke-miterlimit="10" stroke-width=".39752769000000004" d="M117.477 58.004h4.304m0 0h4.305V40.789h8.605"/><path d="M130.492 40.79v1.976l4.2-1.977-4.2-1.977Zm0 0"/><path fill="none" stroke="#000" stroke-miterlimit="10" stroke-width=".39752769000000004" d="M151.562 36.57h8.778m16.87 0h8.778"/><path fill="none" stroke="#000" stroke-miterlimit="10" stroke-width=".7940590700000001" d="M160.34 28.137h16.87v16.867h-16.87Zm0 0"/><path d="M156.14 36.57v1.977l4.2-1.977-4.2-1.976Zm0 0"/><path fill="none" stroke="#000" stroke-miterlimit="10" stroke-width=".39752769000000004" d="m160.34 45.004 16.87-16.867"/><use xlink:href="#d" x="161.779" y="35.857"/><use xlink:href="#c" x="169.656" y="43.484"/><path d="M181.79 36.57v1.977l4.198-1.977-4.199-1.976Zm0 0"/><path fill="none" stroke="#000" stroke-miterlimit="10" stroke-width=".7940590700000001" d="M185.988 28.137h16.871v16.867h-16.87Zm0 0"/><path fill="none" stroke="#000" stroke-miterlimit="10" stroke-width=".39752769000000004" d="m188.52 30.074 11.808 6.496-11.808 6.496ZM202.86 36.57h4.3m0 0h4.305"/><path d="M207.266 36.57v1.977l4.199-1.977-4.2-1.976Zm0 0"/><g clip-path="url(#f)"><path fill="none" stroke="#000" stroke-miterlimit="10" stroke-width=".7940590700000001" d="M225.926 41.992V31.148c0-1-.809-1.808-1.809-1.808h-10.844c-1 0-1.808.808-1.808 1.808v10.844c0 1 .808 1.809 1.808 1.809h10.844c1 0 1.809-.809 1.809-1.809Zm0 0"/></g><path fill="none" stroke="#000" stroke-miterlimit="10" stroke-opacity=".5" stroke-width=".19826569000000002" d="M213.273 40.168h10.844m-10.844-1.797h10.844m-10.844-1.8h10.844m-10.844-1.798h10.844m-10.844-1.8h10.844m-10.816 7.214v-7.23m1.797 7.23v-7.23m1.8 7.23v-7.23m1.797 7.23v-7.23m1.797 7.23v-7.23m1.801 7.23v-7.23m1.797 7.23v-7.23"/><path fill="none" stroke="#000" stroke-miterlimit="10" stroke-width=".39752769000000004" d="M49.484 45.004v8.61m0 0v8.605"/><g clip-path="url(#g)"><path fill="none" stroke="#000" stroke-miterlimit="10" stroke-width=".7940590700000001" d="M41.047 62.219h16.871v16.87H41.047Zm0 0"/></g><path fill="none" stroke="#000" stroke-miterlimit="10" stroke-width=".39752769000000004" d="M50.54 66.86c.343-.54.67-1.055 1.05-1.055.383 0 .71.515 1.055 1.054.343.54.675 1.055 1.054 1.055.383 0 .711-.516 1.055-1.055M50.54 68.969c.343-.543.67-1.055 1.05-1.055.383 0 .71.512 1.055 1.055.343.539.675 1.054 1.054 1.054.383 0 .711-.515 1.055-1.054M50.54 71.074c.343-.539.67-1.05 1.05-1.05.383 0 .71.511 1.055 1.05.343.543.675 1.055 1.054 1.055.383 0 .711-.512 1.055-1.055"/><use xlink:href="#h" x="42.623" y="71.628"/><path fill="none" stroke="#000" stroke-miterlimit="10" stroke-width=".39752769000000004" d="M43.578 73.605h11.809M43.578 76.559h11.809V74.87H43.578ZM43.578 77.824h11.809"/><use xlink:href="#i" x="44.757" y="23.389"/><use xlink:href="#j" x="47.66" y="23.389"/></svg>