<svg xmlns="http://www.w3.org/2000/svg" width="195.064" height="162.185"><defs><clipPath id="a"><path d="M.023 0H194v161.375H.023Zm0 0"/></clipPath><clipPath id="b"><path d="M.023 0H194.11v161.375H.023Zm0 0"/></clipPath><clipPath id="c"><path d="M.418.395h193.297v160.582H.418Zm0 0"/></clipPath></defs><g fill="none" stroke="#000" stroke-miterlimit="10" stroke-width=".199" clip-path="url(#a)"><path stroke-width=".19800500000000001" d="M.418 160.977V.395m27.613 160.582V.395m27.614 160.582V.395m27.617 160.582V.395m27.613 160.582V.395m27.613 160.582V.395m27.614 160.582V.395m27.613 160.582V.395M.418 160.977h193.297M.418 134.215h193.297M.418 107.449h193.297M.418 80.688h193.297M.418 53.922h193.297M.418 27.16h193.297M.418.395h193.297"/></g><g clip-path="url(#b)"><path fill="none" stroke="#000" stroke-miterlimit="10" stroke-width=".793015" d="M.418 160.977V.395h193.297v160.582Zm0 0"/></g><g clip-path="url(#c)"><path fill="none" stroke="#000" stroke-miterlimit="10" stroke-width="1.58603" d="M.418 80.688s.703-9.891.973-13.567c.27-3.68.699-9.52.968-12.941.27-3.422.704-8.711.973-11.73.27-3.02.703-7.54.973-10.044s.699-6.093.968-8.008c.27-1.918.704-4.5.973-5.796.27-1.301.703-2.868.973-3.567s.699-1.316.969-1.476c.269-.164.703.03.972.312.27.281.703 1.102.973 1.703.27.602.699 1.84.969 2.633s.703 2.223.972 3.074c.27.848.703 2.258.973 3.047s.7 2 .969 2.629c.27.633.703 1.512.972 1.922.27.41.703.875.973 1.031s.7.188.969.094c.27-.094.703-.457.972-.766.27-.308.703-.988.973-1.453.27-.469.7-1.351.969-1.898.27-.547.703-1.5.972-2.051.27-.55.704-1.441.973-1.918.27-.48.7-1.188.969-1.535.27-.344.703-.79.972-.961.27-.172.704-.297.973-.281.27.02.7.21.969.406.27.2.703.676.973 1.02s.703 1.023.972 1.464c.27.442.7 1.235.969 1.707.27.473.703 1.262.973 1.7.27.44.703 1.117.972 1.46.27.344.7.82.969 1.028.27.203.703.41.973.445s.699-.055.968-.195c.27-.137.704-.508.973-.801.27-.293.703-.898.973-1.309.27-.406.699-1.164.968-1.628.27-.47.704-1.274.973-1.735.27-.46.703-1.2.973-1.59s.699-.96.969-1.222.703-.575.972-.664c.27-.094.703-.098.973 0 .27.093.7.414.969.695.27.277.703.887.972 1.32.27.43.703 1.258.973 1.79.27.53.7 1.476.969 2.034.27.559.703 1.485.972 1.993.27.507.703 1.285.973 1.664s.7.886.969 1.07c.27.187.703.32.972.27.27-.055.703-.348.973-.657.27-.308.7-1.031.969-1.578.27-.547.703-1.64.972-2.375.27-.734.704-2.082.973-2.922.27-.836.7-2.285.969-3.117.27-.828.703-2.172.972-2.863.27-.696.704-1.711.973-2.137.27-.426.7-.898.969-.926.27-.027.703.242.973.715.27.477.703 1.649.972 2.703.27 1.051.7 3.219.969 4.887.27 1.668.703 4.86.973 7.133s.703 6.437.972 9.262c.27 2.824.7 7.824.969 11.101.27 3.277.703 8.922.973 12.52.27 3.593.703 9.636.972 13.386.27 3.75.7 9.91.97 13.645.269 3.73.702 9.723.972 13.265.27 3.543.703 9.082.972 12.282.27 3.195.7 8.047.97 10.77.269 2.722.702 6.698.972 8.859.27 2.156.703 5.152.972 6.699.27 1.547.7 3.515.97 4.45.269.937.702 1.92.972 2.292.27.367.703.477.973.363.27-.117.699-.71.968-1.199.27-.488.703-1.586.973-2.316.27-.735.703-2.114.973-2.957.27-.84.699-2.282.968-3.11.27-.824.703-2.136.973-2.84s.703-1.73.973-2.234.699-1.14.968-1.402c.27-.258.704-.461.973-.465.27-.008.703.207.973.433.27.227.699.793.968 1.208.27.41.704 1.23.973 1.753.27.524.703 1.465.973 2.024s.699 1.484.969 2c.27.515.703 1.312.972 1.719.27.406.703.964.973 1.207.27.246.7.504.969.562.27.059.703-.008.972-.137.27-.128.703-.496.973-.785.27-.293.7-.902.969-1.312.27-.407.703-1.168.972-1.637.27-.469.7-1.27.97-1.73.269-.461.702-1.196.972-1.582.27-.391.703-.961.972-1.223.27-.266.7-.586.97-.692a1.9 1.9 0 0 1 .972-.066c.27.07.703.332.972.566.27.235.7.754.97 1.125.269.368.702 1.075.972 1.528.27.449.703 1.25.973 1.719.269.472.699 1.25.968 1.675.27.426.703 1.075.973 1.395.27.316.703.742.973.91.27.164.699.293.968.273.27-.02.703-.21.973-.417.27-.208.703-.708.973-1.083s.699-1.128.968-1.628c.27-.497.703-1.41.973-1.97.27-.554.703-1.5.973-2.038.27-.54.699-1.39.968-1.832.27-.438.704-1.07.973-1.34.27-.27.703-.563.973-.61.27-.042.699.07.969.278.269.207.703.758.972 1.215.27.453.703 1.406.973 2.074s.699 1.934.969 2.742c.27.809.703 2.238.972 3.086.27.848.703 2.258.973 3.023s.7 1.938.969 2.489c.27.547.703 1.265.972 1.468.27.204.703.25.973-.011.27-.258.7-1.055.969-1.867.27-.813.703-2.575.972-3.993.27-1.421.703-4.203.973-6.238s.7-5.816.969-8.43c.27-2.613.703-7.293.972-10.406.27-3.11.704-8.523.973-12.008.27-3.484.7-9.402.969-13.109.27-3.707.703-9.855.972-13.617.27-3.762.704-9.852.973-13.492.27-3.641.7-9.391.969-12.746.27-3.356.703-8.504.973-11.434.27-2.926.703-7.274.972-9.668.27-2.395.7-5.79.969-7.586.27-1.793.703-4.176.973-5.352.27-1.18.703-2.55.972-3.14.27-.59.7-1.035.969-1.102.27-.066.703.266.973.621.27.352.703 1.274.972 1.926.27.649.7 1.942.97 2.754.269.813.702 2.254.972 3.102.27.843.703 2.234.972 2.996.27.765.7 1.922.97 2.511.269.594.702 1.395.972 1.754.27.364.703.743.972.848.27.11.7.059.97-.082.269-.137.702-.574.972-.918s.703-1.078.972-1.562c.27-.489.7-1.395.97-1.95.269-.554.702-1.504.972-2.047s.703-1.406.973-1.863.699-1.121.968-1.433c.27-.317.703-.696.973-.832.27-.133.703-.196.973-.141.27.05.699.3.968.531.27.23.704.754.973 1.121.27.371.7 1.082.969 1.531.27.454.703 1.25.972 1.723.27.469.704 1.246.973 1.672.27.426.7 1.07.969 1.395.27.32.703.746.972.918.27.171.704.32.973.32.27 0 .7-.145.969-.317.27-.168.703-.593.973-.91.27-.32.703-.965.972-1.39.27-.422.7-1.2.969-1.672.27-.469.703-1.27.973-1.719.27-.453.703-1.164.972-1.535.27-.371.7-.899.969-1.13.27-.23.703-.483.973-.538s.703.004.972.137c.27.132.7.511.97.824.269.312.702.972.972 1.43s.703 1.316.972 1.859c.27.539.7 1.488.97 2.043.269.555.702 1.465.972 1.953s.703 1.223.972 1.57c.27.348.7.785.97.926.269.14.702.195.972.09.27-.102.703-.477.973-.836.27-.36.699-1.156.968-1.746.27-.59.703-1.742.973-2.504.27-.766.703-2.148.973-2.996.27-.844.699-2.29.968-3.102.27-.812.703-2.11.973-2.761.27-.653.703-1.582.973-1.938s.699-.695.968-.633c.27.063.704.496.973 1.082.27.582.703 1.946.973 3.118s.699 3.539.968 5.328c.27 1.789.704 5.175.973 7.566.27 2.387.703 6.727.973 9.648.27 2.922.699 8.063.969 11.415s.703 9.097.972 12.738c.27 3.637.973 13.484.973 13.484"/></g></svg>