<svg xmlns="http://www.w3.org/2000/svg" xmlns:xlink="http://www.w3.org/1999/xlink" width="227.108" height="86.479"><defs><path id="b" d="M2.578-6.14a.2.2 0 0 1 .016.077q-.001.237-.313.297l-.406.094v2.266h2.969v-2.266l-.547-.125c-.086-.02-.125-.05-.125-.094q0-.074.094-.25h2.062a.2.2 0 0 1 .016.079q-.001.236-.313.296l-.406.094v5.188l.61.125q.123.017.124.093 0 .048-.093.266H4.172a.16.16 0 0 1-.016-.078q-.002-.246.313-.328l.375-.078v-2.391H1.875v2.39l.61.126q.123.017.124.093 0 .048-.093.266H.422a.16.16 0 0 1-.016-.078Q.404-.324.72-.406l.375-.078v-5.188l-.547-.125c-.086-.02-.125-.05-.125-.094q0-.074.094-.25Zm0 0"/><path id="c" d="M4.484-6.14q.062.751.063 1.046c0 .262-.086.39-.25.39a.5.5 0 0 1-.188-.03l-.218-.938H1.875v2.438h1.969v.5H1.875v2.25l.703.125q.124.017.125.093-.002.048-.11.266H.423a.16.16 0 0 1-.016-.078Q.404-.324.72-.406l.375-.078v-5.188l-.547-.125c-.086-.02-.125-.05-.125-.094q0-.074.094-.25Zm0 0"/><path id="d" d="M2.016-.562v-4.422l-1.328.25a1 1 0 0 1-.016-.188Q.67-5.12.875-5.203l1.469-.594h.453v5.235l1.094.156q.124.016.125.11c0 .054-.04.151-.11.296H.86v-.078q0-.311.282-.36Zm0 0"/><path id="e" d="M.406-.375a.5.5 0 0 1 .125-.36.47.47 0 0 1 .344-.14q.218 0 .36.14.14.142.14.36a.48.48 0 0 1-.14.36.53.53 0 0 1-.36.124.5.5 0 0 1-.344-.125.5.5 0 0 1-.125-.359m0 0"/><path id="f" d="M3.64-5.625v-.016H1.189L1-4.656a.46.46 0 0 1-.203.047Q.546-4.61.547-5q0-.374.062-1.14H4.5a.49.49 0 0 1 0 .577l-3.156 5v.016h2.75l.218-1.015a.7.7 0 0 1 .22-.032q.217 0 .218.36c0 .218-.027.632-.078 1.234H.438Q.28-.06.28-.281q0-.124.063-.219Zm0 0"/><path id="g" d="m.422-.453 1.5-1.719q.89-1.015.89-2-.001-1.249-.906-1.25-.362 0-.718.188a4 4 0 0 0-.11.875q-.11.016-.203.015-.422.001-.422-.343 0-.547.422-.875.42-.33 1.14-.329.734.001 1.172.407.453.408.454 1.156 0 .674-.422 1.36-.27.439-.89 1.109L1.343-.797v.016h2.015l.188-.766a.5.5 0 0 1 .187-.031q.235.002.235.344 0 .344-.094 1.234H.5Zm0 0"/><path id="h" d="M6.25-6.14v.077c0 .157-.102.258-.297.297l-.422.094V0H5L1.64-5.172h-.015v4.688l.625.125q.124.017.125.093c0 .032-.04.121-.11.266H.423a.16.16 0 0 1-.016-.078Q.404-.324.72-.406l.375-.078v-5.188l-.547-.125c-.086-.02-.125-.05-.125-.094q0-.074.094-.25h1.422l3.046 4.704H5v-4.235l-.562-.125c-.086-.02-.125-.05-.125-.094q-.001-.074.109-.25Zm0 0"/><path id="n" d="M5.844-2.89v.078c0 .156-.102.257-.297.296l-.203.047v1.906q-.736.674-2.14.672-1.22 0-1.954-.765-.783-.845-.781-2.39-.002-1.607 1.015-2.47.855-.733 2.11-.734.591 0 1.078.14l.594.235c.03.43.046.734.046.922q-.001.391-.265.39a.44.44 0 0 1-.203-.046l-.188-.844q-.44-.282-1.11-.281-.954.001-1.546.593-.703.705-.703 2c0 .875.191 1.555.578 2.032q.56.689 1.531.687c.438 0 .82-.07 1.156-.219v-1.78l-.546-.126q-.127-.029-.125-.094 0-.074.093-.25Zm0 0"/><path id="q" d="M2.188-6.14c.007.023.015.046.015.077q0 .236-.312.313l-.313.063L2.75-3.703h.016l1.265-2-.61-.094q-.126 0-.124-.094-.001-.074.11-.25h1.78c.008.024.016.047.016.079q-.002.252-.297.312l-.312.063-1.532 2.453L4.735-.47l.422.11q.124.034.125.093 0 .048-.093.266H3.297a.16.16 0 0 1-.016-.078q-.002-.264.313-.328l.265-.047-1.265-2.125h-.016L1.266-.453l.562.094q.124.017.125.093A.6.6 0 0 1 1.86 0H.047v-.078q0-.264.297-.328l.25-.063 1.672-2.593-1.594-2.61-.438-.11C.148-5.8.11-5.835.11-5.89q0-.074.11-.25Zm0 0"/><path id="r" d="M5.25-6.14v.077c0 .168-.102.274-.297.313l-.234.063L3-2.25v1.766l.61.125q.123.017.124.093 0 .048-.093.266H1.547a.16.16 0 0 1-.016-.078q0-.246.297-.328l.39-.078V-2.22L.439-5.672l-.391-.11q-.124-.027-.125-.109 0-.074.094-.25h1.968v.079q-.002.235-.296.312l-.375.078 1.39 2.813h.016l1.406-2.844-.64-.094c-.087-.02-.126-.05-.126-.094q0-.074.094-.25Zm0 0"/><clipPath id="a"><path d="M.238 0H25v25H.238Zm0 0"/></clipPath><clipPath id="i"><path d="M200 17h25.984v45H200Zm0 0"/></clipPath><clipPath id="j"><path d="M44 66h20v19.96H44Zm0 0"/></clipPath><clipPath id="k"><path d="M43 73h21v12.96H43Zm0 0"/></clipPath><clipPath id="l"><path d="M41 65h23v20.96H41Zm0 0"/></clipPath><clipPath id="m"><path d="M99 66h20v19.96H99Zm0 0"/></clipPath><clipPath id="o"><path d="M155 66h20v19.96h-20Zm0 0"/></clipPath><clipPath id="p"><path d="M154 73h22v12.96h-22Zm0 0"/></clipPath></defs><path fill="none" stroke="#000" stroke-miterlimit="10" stroke-width=".39660999" d="M7.355 39.531h9.504m18.262 0h9.508M7.156 39.531V.395"/><g clip-path="url(#a)"><path fill="none" stroke="#000" stroke-miterlimit="10" stroke-width=".79222597" d="M7.156.395h6.524L7.156 13.44.633.395h6.523"/></g><path fill="none" stroke="#000" stroke-miterlimit="10" stroke-width=".79222597" d="M16.86 30.402H35.12v18.262H16.86Zm0 0"/><path d="M12.668 39.531v1.973l4.191-1.973-4.191-1.972Zm0 0"/><path fill="none" stroke="#000" stroke-miterlimit="10" stroke-width=".39660999" d="m19.598 32.5 12.785 7.031-12.785 7.035Zm0 0"/><use xlink:href="#b" x="20.237" y="58.773"/><use xlink:href="#c" x="26.975" y="58.773"/><path d="M40.438 39.531v1.973l4.19-1.973-4.19-1.972Zm0 0"/><path fill="none" stroke="#000" stroke-miterlimit="10" stroke-width=".79222597" d="M44.629 30.402H62.89v18.262H44.629Zm0 0"/><path fill="none" stroke="#000" stroke-miterlimit="10" stroke-width=".39660999" d="M60.152 39.531a6.393 6.393 0 1 0-6.395 6.395 6.395 6.395 0 0 0 6.395-6.395ZM49.238 35.012l9.043 9.043m0-9.043-9.043 9.043M62.89 39.531h9.508m18.262 0h9.504"/><path fill="none" stroke="#000" stroke-miterlimit="10" stroke-width=".79222597" d="M72.398 30.402H90.66v18.262H72.398Zm0 0"/><path d="M68.207 39.531v1.973l4.191-1.973-4.191-1.972Zm0 0"/><path fill="none" stroke="#000" stroke-miterlimit="10" stroke-width=".39660999" d="m75.137 32.5 12.785 7.031-12.785 7.035Zm0 0"/><use xlink:href="#d" x="73.467" y="58.773"/><use xlink:href="#e" x="77.923" y="58.773"/><use xlink:href="#f" x="79.696" y="58.773"/><use xlink:href="#c" x="84.821" y="58.773"/><path d="M95.973 39.531v1.973l4.191-1.973-4.191-1.972Zm0 0"/><path fill="none" stroke="#000" stroke-miterlimit="10" stroke-width=".79222597" d="M100.164 30.402h18.266v18.262h-18.266Zm0 0"/><path fill="none" stroke="#000" stroke-miterlimit="10" stroke-width=".39660999" d="M115.691 39.531a6.394 6.394 0 0 0-6.394-6.39 6.39 6.39 0 0 0-6.39 6.39 6.392 6.392 0 1 0 12.784 0ZM104.777 35.012l9.04 9.043m0-9.043-9.04 9.043M118.43 39.531h9.504m18.265 0h9.504"/><path fill="none" stroke="#000" stroke-miterlimit="10" stroke-width=".79222597" d="M127.934 30.402h18.265v18.262h-18.265Zm0 0"/><path d="M123.742 39.531v1.973l4.192-1.973-4.192-1.972Zm0 0"/><path fill="none" stroke="#000" stroke-miterlimit="10" stroke-width=".39660999" d="m130.676 32.5 12.781 7.031-12.781 7.035Zm0 0"/><use xlink:href="#g" x="129.003" y="58.773"/><use xlink:href="#e" x="133.459" y="58.773"/><use xlink:href="#f" x="135.233" y="58.773"/><use xlink:href="#c" x="140.358" y="58.773"/><path d="M151.512 39.531v1.973l4.191-1.973-4.191-1.972Zm0 0"/><path fill="none" stroke="#000" stroke-miterlimit="10" stroke-width=".79222597" d="M155.703 30.402h18.266v18.262h-18.266Zm0 0"/><path fill="none" stroke="#000" stroke-miterlimit="10" stroke-width=".39660999" d="M171.226 39.531a6.39 6.39 0 0 0-6.39-6.39 6.394 6.394 0 0 0-6.395 6.39 6.392 6.392 0 1 0 12.785 0ZM160.316 35.012l9.04 9.043m0-9.043-9.04 9.043M173.969 39.531h9.504m18.265 0h9.504"/><path fill="none" stroke="#000" stroke-miterlimit="10" stroke-width=".79222597" d="M183.473 30.402h18.265v18.262h-18.265Zm0 0"/><path d="M179.281 39.531v1.973l4.192-1.973-4.192-1.972Zm0 0"/><path fill="none" stroke="#000" stroke-miterlimit="10" stroke-width=".39660999" d="m186.21 32.5 12.786 7.031-12.785 7.035Zm0 0"/><use xlink:href="#h" x="186.925" y="58.773"/><use xlink:href="#c" x="193.511" y="58.773"/><path d="M207.05 39.531v1.973l4.192-1.973-4.191-1.972Zm0 0"/><g clip-path="url(#i)"><path fill="none" stroke="#000" stroke-miterlimit="10" stroke-width=".79222597" d="M211.242 49.969V29.098h8.086v20.87Zm8.086-15.653 6.266-3.132v16.699l-6.266-3.133Zm0 0"/></g><path fill="none" stroke="#000" stroke-miterlimit="10" stroke-width=".39660999" d="M53.758 48.664v9.32m0 0v9.317"/><path d="M53.758 52.855h1.972l-1.972-4.19-1.969 4.19Zm0 0"/><g clip-path="url(#j)"><path fill="none" stroke="#000" stroke-miterlimit="10" stroke-width=".79222597" d="M44.629 67.3H62.89v18.266H44.629Zm0 0"/></g><path fill="none" stroke="#000" stroke-miterlimit="10" stroke-width=".39660999" d="M49.195 71.867c.742-1.168 1.453-2.281 2.282-2.281.828 0 1.539 1.113 2.28 2.281.747 1.168 1.458 2.285 2.286 2.285.824 0 1.539-1.117 2.281-2.285M49.195 76.434c.742-1.168 1.453-2.282 2.282-2.282.828 0 1.539 1.114 2.28 2.282.747 1.168 1.458 2.28 2.286 2.28.824 0 1.539-1.112 2.281-2.28"/><g clip-path="url(#k)"><path fill="none" stroke="#000" stroke-miterlimit="10" stroke-width=".39660999" d="M49.195 81c.742-1.168 1.453-2.285 2.282-2.285.828 0 1.539 1.117 2.28 2.285.747 1.168 1.458 2.281 2.286 2.281.824 0 1.539-1.113 2.281-2.281"/></g><g clip-path="url(#l)"><path fill="none" stroke="#000" stroke-miterlimit="10" stroke-width=".39660999" d="m47.367 81 10.254-9.523"/></g><path stroke="#000" stroke-miterlimit="10" stroke-width=".39659403000000004" d="m59.863 69.398-3.36.727 2.384 2.57Zm0 0"/><path fill="none" stroke="#000" stroke-miterlimit="10" stroke-width=".39660999" d="M109.297 48.664v9.32m0 0v9.317"/><path d="M109.297 52.855h1.973l-1.973-4.19-1.973 4.19Zm0 0"/><g clip-path="url(#m)"><path fill="none" stroke="#000" stroke-miterlimit="10" stroke-width=".79222597" d="M100.164 67.3h18.266v18.266h-18.266Zm0 0"/></g><path fill="none" stroke="#000" stroke-miterlimit="10" stroke-width=".39660999" d="M110.437 72.324c.375-.586.73-1.14 1.145-1.14.41 0 .77.554 1.14 1.14.372.586.727 1.14 1.141 1.14s.77-.554 1.14-1.14M110.437 74.605c.375-.582.73-1.14 1.145-1.14.41 0 .77.558 1.14 1.14.372.586.727 1.145 1.141 1.145s.77-.559 1.14-1.145M110.437 76.89c.375-.585.73-1.14 1.145-1.14.41 0 .77.555 1.14 1.14.372.587.727 1.141 1.141 1.141s.77-.554 1.14-1.14"/><use xlink:href="#n" x="102.13" y="77.225"/><path fill="none" stroke="#000" stroke-miterlimit="10" stroke-width=".39660999" d="M102.906 79.629h12.785M102.906 82.824h12.785V81h-12.785ZM102.906 84.195h12.785M164.836 48.664v9.32m0 0v9.317"/><path d="M164.836 52.855h1.973l-1.973-4.19-1.973 4.19Zm0 0"/><g clip-path="url(#o)"><path fill="none" stroke="#000" stroke-miterlimit="10" stroke-width=".79222597" d="M155.703 67.3h18.266v18.266h-18.266Zm0 0"/></g><path fill="none" stroke="#000" stroke-miterlimit="10" stroke-width=".39660999" d="M160.27 71.867c.746-1.168 1.456-2.281 2.28-2.281.829 0 1.54 1.113 2.286 2.281.742 1.168 1.457 2.285 2.281 2.285.828 0 1.54-1.117 2.285-2.285M160.27 76.434c.746-1.168 1.456-2.282 2.28-2.282.829 0 1.54 1.114 2.286 2.282.742 1.168 1.457 2.28 2.281 2.28.828 0 1.54-1.112 2.285-2.28"/><g clip-path="url(#p)"><path fill="none" stroke="#000" stroke-miterlimit="10" stroke-width=".39660999" d="M160.27 81c.746-1.168 1.456-2.285 2.28-2.285.829 0 1.54 1.117 2.286 2.285.742 1.168 1.457 2.281 2.281 2.281.828 0 1.54-1.113 2.285-2.281"/></g><path fill="none" stroke="#000" stroke-miterlimit="10" stroke-width=".39660999" d="M164.836 30.402v-9.32m0 0v-9.316M164.836 11.766h-27.77v18.636"/><path d="M137.066 26.21h-1.972l1.972 4.192 1.973-4.191Zm0 0"/><path fill="none" stroke="#000" stroke-miterlimit="10" stroke-width=".39660999" d="M137.066 11.766H81.527v18.636"/><path stroke="#000" stroke-miterlimit="10" stroke-width=".39660999" d="M138.644 11.766c0-.875-.707-1.578-1.578-1.578a1.576 1.576 0 1 0 0 3.152c.871 0 1.578-.703 1.578-1.574Zm0 0"/><path d="M81.527 26.21h-1.972l1.972 4.192 1.973-4.191Zm0 0"/><path fill="none" stroke="#000" stroke-miterlimit="10" stroke-width=".39660999" d="M81.527 11.766H25.992v18.636"/><path stroke="#000" stroke-miterlimit="10" stroke-width=".39660999" d="M83.105 11.766c0-.875-.707-1.578-1.578-1.578a1.576 1.576 0 1 0 0 3.152c.871 0 1.578-.703 1.578-1.574Zm0 0"/><path d="M25.992 26.21H24.02l1.972 4.192 1.973-4.191Zm0 0"/><use xlink:href="#q" x="66.059" y="79.508"/><use xlink:href="#r" x="121.597" y="79.508"/><use xlink:href="#f" x="177.134" y="79.508"/></svg>