<svg xmlns="http://www.w3.org/2000/svg" xmlns:xlink="http://www.w3.org/1999/xlink" width="228.837" height="166.876"><defs><clipPath id="a"><path d="M10.941.2h211.02v70.812H10.94Zm0 0"/></clipPath><clipPath id="g"><path d="M225 105h3.672v4H225Zm0 0"/></clipPath><clipPath id="h"><path d="M219 99h9.672v15H219Zm0 0"/></clipPath><clipPath id="i"><path d="M155 156h1v10.754h-1Zm0 0"/></clipPath><clipPath id="j"><path d="M149 165h14v1.754h-14Zm0 0"/></clipPath><clipPath id="k"><path d="M225 154h3.672v5H225Zm0 0"/></clipPath><clipPath id="l"><path d="M219 149h9.672v15H219Zm0 0"/></clipPath><clipPath id="n"><path d="M225 81h3.672v4H225Zm0 0"/></clipPath><clipPath id="o"><path d="M219 75h9.672v16H219Zm0 0"/></clipPath><path id="b" d="m.938-3.844-.47.031c-.171 0-.234.079-.25.157a.5.5 0 0 0-.046.14c0 .032.031.032.062.032H.86L.313-1.062C.25-.766.188-.5.188-.328c0 .328.156.422.437.422.406 0 1-.375 1.297-.922C1.89-.953 1.828-1 1.734-1c-.421.469-.578.547-.718.547C.984-.453.89-.47.89-.578c0-.078.03-.25.109-.563l.516-2.343h.89c.094-.047.188-.282.078-.36H1.61l.079-.406c.046-.156.125-.422.125-.531 0-.157-.079-.235-.36-.235-.328 0-.312.391-.39.735Zm0 0"/><path id="c" d="M1.828.094c1.766 0 2.375-1.14 2.688-2.735L5-5.109c.047-.25.188-.375.547-.407l.234-.015c.032 0 .063-.032.078-.078l.032-.172-.016-.016c-.406.016-.75.016-.953.016-.188 0-.531 0-.938-.016l-.015.016-.031.172c-.016.046.015.078.046.078l.235.015c.281.016.406.094.406.282 0 .046-.016.093-.016.125l-.515 2.625c-.203 1-.563 2.203-2.016 2.203-.406 0-.719-.188-.937-.438C.953-.969.906-1.25.906-1.53s.047-.594.11-.875l.53-2.719c.048-.25.188-.36.548-.39l.219-.016c.046 0 .078-.032.093-.078l.031-.172-.015-.016c-.406.016-.766.016-1.11.016-.343 0-.671 0-1.078-.016l-.03.016-.032.172c0 .046.031.078.062.078l.22.015c.28.016.421.094.421.282 0 .03-.016.062-.031.109L.266-2.109a3 3 0 0 0-.063.625c0 1.28.953 1.578 1.625 1.578m0 0"/><path id="d" d="M3.656-5.656v-.016H1.203l-.203 1a.5.5 0 0 1-.187.031q-.268 0-.266-.375 0-.387.062-1.156h3.922a.49.49 0 0 1 0 .578L1.36-.562v.015h2.75l.235-1.015a.44.44 0 0 1 .203-.047q.217 0 .219.375c0 .218-.028.632-.079 1.234H.438Q.28-.06.282-.281q0-.123.063-.235Zm0 0"/><path id="e" d="M4.516-6.172c.039.5.062.852.062 1.047 0 .262-.086.39-.25.39a.6.6 0 0 1-.203-.03l-.219-.938H1.875v2.453h2v.5h-2V-.5l.719.14q.124.018.125.094c0 .032-.04.121-.11.266H.422a.16.16 0 0 1-.016-.078Q.404-.324.72-.406L1.094-.5v-5.203l-.547-.125c-.086-.02-.125-.05-.125-.094q0-.075.094-.25Zm0 0"/><path id="f" d="M2.203-6.172a.2.2 0 0 1 .016.078q-.001.236-.313.313l-.328.062 1.188 2h.015l1.266-2.015-.594-.079c-.086-.007-.125-.046-.125-.109q0-.075.094-.25h1.797c.008.024.015.047.015.078q0 .253-.312.313l-.297.062-1.547 2.453L4.766-.469l.422.11q.124.034.125.093c0 .032-.04.121-.11.266h-1.89a.16.16 0 0 1-.016-.078c0-.176.101-.285.312-.328l.282-.047-1.282-2.14h-.015L1.266-.454l.562.094q.124.017.125.093A.6.6 0 0 1 1.86 0H.047v-.078q0-.264.297-.328l.25-.063 1.687-2.61-1.61-2.624-.437-.11C.148-5.831.11-5.866.11-5.921q0-.075.11-.25Zm0 0"/><path id="m" d="M2.484-3.031h1.563v.469H2.484v1.671h-.5v-1.671H.438v-.47h1.546v-1.655h.5Zm0 0"/></defs><path fill="none" stroke="#000" stroke-miterlimit="10" stroke-width=".39870474000000006" d="M10.941 35.605h207.551"/><path stroke="#000" stroke-miterlimit="10" stroke-width=".39870474000000006" d="m221.566 35.605-2.972-1.761v3.523Zm0 0"/><path fill="none" stroke="#000" stroke-miterlimit="10" stroke-width=".39870474000000006" d="M10.941 71.012V3.668"/><path stroke="#000" stroke-miterlimit="10" stroke-width=".39870474000000006" d="M10.941.598 9.18 3.57h3.523Zm0 0"/><g clip-path="url(#a)"><path fill="none" stroke="#000" stroke-miterlimit="10" stroke-width=".7964102200000001" d="m11.152 35.605.211-2.882.211-2.868.211-2.789.211-2.656.211-2.465.211-2.215.21-1.917.212-1.575.21-1.195.212-.785.21-.352.212.094.21.543.211.988.211 1.422.211 1.828.211 2.203.211 2.54.211 2.82.211 3.05.211 3.223.211 3.324.215 3.36.21 3.328.212 3.223.21 3.05.212 2.817.21 2.511.211 2.16.211 1.755.211 1.304.211.828.211.325.211-.192.211-.707.211-1.215.21-1.703.212-2.16.21-2.582.212-2.95.21-3.261.212-3.512.21-3.687.211-3.785.211-3.817.211-3.754.211-3.625.211-3.414.211-3.129.211-2.777.211-2.363.211-1.899.21-1.386.212-.844.21-.274.212.301.21.883.212 1.441.21 1.985.211 2.488.211 2.941.211 3.34.211 3.672.211 3.934.211 4.113.211 4.207.211 4.215.211 4.137.21 3.972.216 3.723.21 3.39.212 2.993.21 2.523.212 2.004.21 1.434.211.828.211.207.211-.43.211-1.054.211-1.668.211-2.247.211-2.785.211-3.273.21-3.688.212-4.035.21-4.3.212-4.473.21-4.563.212-4.547.21-4.449.211-4.25.211-3.96.211-3.595.211-3.144.211-2.633.211-2.058.211-1.442.211-.793.211-.117.21.559.212 1.222.21 1.875.212 2.485.21 3.046.212 3.547.21 3.98.211 4.329.211 4.594.211 4.758.211 4.828.211 4.8.211 4.672.211 4.442.211 4.125.211 3.718.21 3.235.216 2.68.21 2.07.212 1.41.21.727.211.02.211-.688.211-1.383.211-2.051.211-2.68.211-3.254.211-3.761.211-4.196.211-4.543.21-4.793.212-4.953.21-5 .212-4.953.21-4.8.212-4.544.21-4.199.211-3.762.211-3.25.211-2.667.211-2.032.211-1.347.211-.641.211.086.211.809.211 1.515.21 2.192.212 2.824.21 3.398.212 3.906.21 4.325.212 4.664.21 4.898.211 5.04.211 5.07.211 5 .211 4.824.211 4.55.211 4.184.211 3.727.211 3.191.211 2.598.21 1.945.212 1.254.215.535.21-.191.212-.918.21-1.617.211-2.29.211-2.91.211-3.472.211-3.961.211-4.367.211-4.68.211-4.902.211-5.02.211-5.031.21-4.942.212-4.746.21-4.457.212-4.078.21-3.61.212-3.07.21-2.468.211-1.82.211-1.133.211-.422.211.293.211 1 .211 1.687.211 2.332.211 2.934.21 3.472.212 3.93.21 4.317.212 4.601.21 4.797.212 4.894.21 4.883.212 4.778.21 4.574.211 4.273.211 3.883.211 3.422.211 2.887.211 2.297.211 1.66.211.992.21.305.212-.383.215-1.059.21-1.715.212-2.328.21-2.89.211-3.391.211-3.82.211-4.168.211-4.426.211-4.594.211-4.668.211-4.64.211-4.52.211-4.305.21-4.004.212-3.625.21-3.168.212-2.652.21-2.082.212-1.473.21-.84.211-.195.211.457.211 1.09.211 1.7.211 2.265.211 2.785.211 3.238.211 3.63.211 3.937.21 4.164.212 4.3.21 4.348.212 4.309.21 4.18.212 3.96.21 3.669.211 3.3.211 2.868.211 2.375.211 1.843.211 1.274.211.683.211.09.211-.512.211-1.086.21-1.64.212-2.156.215-2.618.21-3.023.212-3.367.21-3.633.211-3.82.211-3.934.211-3.96.211-3.907.211-3.77.211-3.562.211-3.277.211-2.934.21-2.527.212-2.075.21-1.586.212-1.07.21-.535.212.008.21.539.212 1.055.21 1.542.211 1.997.211 2.402.211 2.754.211 3.047.211 3.27.211 3.421.211 3.508.21 3.516.212 3.453.21 3.32.212 3.117.21 2.856.212 2.535.21 2.172.212 1.761.21 1.329.211.867.211.394.211-.078.211-.547.211-.992.211-1.414.211-1.8.21-2.15.212-2.44.21-2.684.216-2.867.21-2.985.212-3.047.21-3.039.211-2.968.211-2.844.211-2.656.211-2.418.211-2.137.211-1.809.211-1.457.211-1.074.21-.676.212-.273.21.133.212.523.21.906.212 1.262.21 1.578.211 1.867.211 2.106.211 2.3.211 2.442.211 2.531.211 2.57.211 2.555.211 2.485.211 2.363.21 2.2.212 1.987.21 1.746.212 1.465.21 1.164.212.84.21.512.211.172.211-.164.211-.492.211-.797.211-1.086.211-1.348.211-1.57.211-1.766.211-1.914.21-2.02.212-2.085.21-2.106.216-2.082.21-2.016.211-1.91.211-1.765.211-1.586.211-1.383.211-1.152.211-.899.211-.64.211-.364.211-.093.21.171.212.438.21.68.212.91.21 1.11.212 1.284.21 1.434.211 1.543.211 1.625.211 1.668.211 1.676.211 1.648.211 1.586.211 1.5.211 1.375.211 1.234.21 1.063.212.879.21.68.212.468.21.254.212.043.21-.168.211-.375.211-.559.211-.734.211-.89.211-1.024.211-1.129.211-1.215.211-1.27.211-1.3.21-1.297.212-1.277.21-1.223.216-1.148.21-1.055.212-.934.21-.804.211-.66.211-.504.211-.344.211-.176.211-.012.211.149.211.305.211.449.21.578.212.695.21.797.212.879.21.937.212.98.421 2 .211.977.211.938.211.879.211.805.211.714.211.614.211.504.211.379.21.257.212.133.21.004.212-.121.21-.238.212-.352.21-.453.211-.543.211-.625.211-.687.211-.735.211-.77.211-.785.211-.789.211-.773.211-.742.21-.703.212-.645.21-.574.216-.496.21-.41.211-.313.211-.219.211-.113.211-.012.211.09.211.184.211.281.211.367.211.442.21.515.212.57.21.614.212.652.21.668.212.68.21.668.211.652.211.621.211.575.211.519.211.457.211.383.211.3.211.22.211.124.21.032.212-.059.21-.156.212-.238.21-.329.212-.406.21-.476.211-.536.211-.59.211-.628.211-.657.211-.671.211-.676.211-.664.211-.637.211-.602.21-.554.212-.489.21-.421.212-.34.215-.25.21-.156.211-.06.211.044.211.144.211.243.211.343.211.434.211.516.211.593.21.657.212.71.21.75.212.774.21.781.212.778.21.757.212.715.21.664.211.598.211.516.211.418.211.316.211.203.211.086.211-.04.21-.167.212-.293.21-.414.212-.527.21-.641.212-.734.21-.825.212-.886.21-.946.211-.976.211-.992.211-.989.211-.96.211-.915.211-.847.211-.762.21-.66.212-.54.21-.402.212-.257.21-.102.216.059.21.222.211.387.211.543.211.695.211.84.211.961.211 1.074.211 1.16.211 1.23.21 1.274.212 1.29.21 1.28.212 1.247.21 1.183.212 1.09.21.98.211.84.211.68.211.504.211.309.211.109.211-.102.211-.312.211-.527.211-.73.21-.927.212-1.105.21-1.262.212-1.406.21-1.512.212-1.597.21-1.645.211-1.66.211-1.645.211-1.593.211-1.5.211-1.383.211-1.23.211-1.048.211-.836.211-.609.21-.36.212-.097.21.172.212.441.215.707.21.97.211 1.206.211 1.434.211 1.629.211 1.797.211 1.93.211 2.023.211 2.078.211 2.086.21 2.058.212 1.98.21 1.86.212 1.7.21 1.5.212 1.265.21 1 .212.707.21.395.211.07.211-.266.211-.601.211-.93.211-1.246.211-1.535.211-1.809.21-2.039.212-2.234.21-2.387.212-2.492.21-2.547.212-2.55.21-2.497.211-2.39.211-2.235.211-2.031.211-1.778.211-1.48.211-1.156.211-.793.211-.414.211-.016.21.387.212.789.21 1.18.212 1.55.21 1.895.216 2.207.21 2.48.211 2.7.211 2.867.211 2.98.211 3.032.211 3.015.211 2.945.211 2.805.211 2.606.21 2.351.212 2.043.21 1.684.212 1.293.21.86.212.41.21-.055.211-.528.211-.996.211-1.45.211-1.874.211-2.266.211-2.62.211-2.927.211-3.164.211-3.351.21-3.461.212-3.504.21-3.477.212-3.37.21-3.196.212-2.957.21-2.649.211-2.28.211-1.864.211-1.398.211-.907.211-.386.211.148.211.687.211 1.215.211 1.723.21 2.2.212 2.64.21 3.023.212 3.356.21 3.613.215 3.805.211 3.914.211 3.945.211 3.895.211 3.761.211 3.551.211 3.266.211 2.902.211 2.484.21 2.004.212 1.48.21.923.212.336.21-.258.212-.852.21-1.433.211-1.996.211-2.512.211-2.988.211-3.403.211-3.75.211-4.02.211-4.214.211-4.317.211-4.332.21-4.257.212-4.094.21-3.848.212-3.515.21-3.106.212-2.637.21-2.101.211-1.524.211-.906.211-.27.211.376.211 1.023.211 1.648.211 2.247.211 2.796.211 3.301.21 3.73.212 4.09.21 4.368.212 4.554.21 4.649.212 4.644.214 4.547.211 4.352.211 4.07.211 3.7.211 3.245.211 2.73.211 2.153.211 1.528.211.863.21.187.212-.504.21-1.183.212-1.844.21-2.465.212-3.043.21-3.554.211-4 .211-4.364.211-4.632.211-4.813.211-4.89.211-4.872.211-4.746.211-4.523.211-4.207.21-3.805.212-3.316.21-2.766.212-2.152.21-1.489.212-.8.21-.086.211.629.211 1.328.211 2.008.211 2.648.211 3.23.211 3.747.211 4.191.211 4.547.211 4.812.21 4.973.212 5.035.21 4.992.212 4.848.21 4.598.212 4.257.214 3.829.211 3.316.211 2.734.211 2.102.211 1.418.211.71.211-.019.211-.742.21-1.457.212-2.133.21-2.773.212-3.356.21-3.867.212-4.293.21-4.64.211-4.887.211-5.031.211-5.075.211-5.007.211-4.844.211-4.574.211-4.22.211-3.765.211-3.242.21-2.648.212-2.004.21-1.313.212-.601.21.12.212.848.21 1.547.211 2.219.211 2.844.211 3.406.211 3.898.211 4.313.211 4.629.211 4.86.211 4.98.211 5.004.21 4.918.212 4.738.21 4.457.212 4.082.21 3.629.212 3.097.214 2.508.211 1.864.211 1.187.211.484.211-.222.211-.93.211-1.605.211-2.254.21-2.848.212-3.383.21-3.851.212-4.23.21-4.524.212-4.727.21-4.828.212-4.824.21-4.73.211-4.532.211-4.246.211-3.871.211-3.418.211-2.895.211-2.316.211-1.695.21-1.035.212-.368.21.317.212.98.21 1.625.212 2.235.21 2.793.212 3.289.21 3.715.211 4.062.211 4.324.211 4.496.211 4.575.211 4.554.211 4.446.211 4.242.21 3.953.212 3.586.21 3.144.212 2.645.21 2.09.212 1.5.21.879.215.246.211-.387.211-1.012.211-1.601.211-2.164.211-2.672.211-3.125.211-3.504.21-3.817.212-4.039.21-4.18.212-4.234.21-4.203.212-4.082.21-3.879.211-3.597.211-3.243.211-2.828.211-2.351.211-1.84.211-1.29.211-.718.211-.137.211.442.21 1.008.212 1.543.21 2.043.212 2.496.21 2.894.212 3.23.21 3.497.211 3.683.211 3.797.211 3.828.211 3.785.211 3.657.211 3.46.211 3.192.211 2.863.211 2.473.21 2.043.212 1.574.21 1.074.212.563.21.043.212-.473.21-.972.215-1.446.211-1.883.211-2.273.211-2.617.211-2.903.211-3.125.211-3.273.21-3.363.212-3.375.21-3.317.212-3.195.21-3.004.212-2.762.21-2.457.211-2.109.211-1.723.211-1.308.211-.867.211-.418.211.035.211.48.211.91.211 1.317.21 1.687.212 2.02.21 2.3.212 2.54.21 2.715.212 2.835.21 2.895.211 2.062"/></g><use xlink:href="#b" x="216.741" y="43.817"/><use xlink:href="#c" x="2.989" y="9.181"/><path fill="none" stroke="#000" stroke-linejoin="bevel" stroke-miterlimit="10" stroke-width=".7964102200000001" d="M49.46 117.836c2.755 0 4.985 1.535 4.985 3.422 0 1.89-2.23 3.422-4.984 3.422 2.754 0 4.984 1.535 4.984 3.422 0 1.89-2.23 3.421-4.984 3.421 2.754 0 4.984 1.536 4.984 3.422 0 1.89-2.23 3.422-4.984 3.422 2.754 0 4.984 1.531 4.984 3.422 0 1.89-2.23 3.422-4.984 3.422M69.715 145.21c-2.754 0-4.985-1.53-4.985-3.421s2.23-3.422 4.985-3.422c-2.754 0-4.985-1.531-4.985-3.422 0-1.886 2.23-3.422 4.985-3.422-2.754 0-4.985-1.53-4.985-3.421 0-1.887 2.23-3.422 4.985-3.422-2.754 0-4.985-1.532-4.985-3.422 0-1.887 2.23-3.422 4.985-3.422"/><path fill="none" stroke="#000" stroke-miterlimit="10" stroke-width=".39870474000000006" d="M34.672 106.61h14.95v11.624m0 26.578v11.63h-14.95m49.832-49.833h-14.95v11.625m0 26.578v11.63h14.95"/><path fill="none" stroke="#000" stroke-miterlimit="10" stroke-width=".7964102200000001" d="M60.836 143.984v-24.918m-2.492 24.918v-24.918"/><path fill="none" stroke="#000" stroke-miterlimit="10" stroke-width=".39870474000000006" d="m44.64 148.137 29.7-33"/><path fill="none" stroke="#000" stroke-miterlimit="10" stroke-width=".39869277000000003" d="m72.703 113.531 3.402 3.063"/><path fill="none" stroke="#000" stroke-miterlimit="10" stroke-width=".39870474000000006" d="M34.672 106.61v21.593m0 6.645v21.593"/><path fill="none" stroke="#000" stroke-miterlimit="10" stroke-width=".7964102200000001" d="M44.637 128.203H24.703m19.934 6.645H24.703"/><path stroke="#000" stroke-miterlimit="10" stroke-width=".39870474000000006" d="M36.258 106.61c0-.88-.711-1.587-1.586-1.587s-1.586.707-1.586 1.586a1.587 1.587 0 0 0 3.172 0ZM36.258 156.441a1.587 1.587 0 0 0-3.172 0 1.587 1.587 0 0 0 3.172 0Zm0 0"/><path fill="none" stroke="#000" stroke-miterlimit="10" stroke-width=".39870474000000006" d="M34.672 106.61H22.805m0 0H10.94"/><path fill="#FFF" stroke="#000" stroke-miterlimit="10" stroke-width=".39870474000000006" d="M12.527 106.61c0-.88-.71-1.587-1.586-1.587a1.587 1.587 0 1 0 1.586 1.586Zm0 0"/><path fill="none" stroke="#000" stroke-miterlimit="10" stroke-width=".39870474000000006" d="M34.672 156.441H22.805m0 0H10.94"/><path fill="#FFF" stroke="#000" stroke-miterlimit="10" stroke-width=".39870474000000006" d="M12.527 156.441a1.587 1.587 0 0 0-3.172 0 1.587 1.587 0 0 0 3.172 0Zm0 0"/><use xlink:href="#d" x="5.969" y="134.615"/><use xlink:href="#e" x="11.121" y="134.615"/><path fill="none" stroke="#000" stroke-miterlimit="10" stroke-width=".39870474000000006" d="M84.504 106.61v21.593m0 6.645v21.593"/><path fill="none" stroke="#000" stroke-miterlimit="10" stroke-width=".7964102200000001" d="M94.473 128.203H74.539m19.934 6.645H74.539"/><path stroke="#000" stroke-miterlimit="10" stroke-width=".39870474000000006" d="M86.09 106.61c0-.88-.707-1.587-1.586-1.587a1.587 1.587 0 1 0 1.586 1.586ZM86.09 156.441a1.587 1.587 0 1 0-3.17.002 1.587 1.587 0 0 0 3.17-.002Zm0 0"/><path fill="none" stroke="#000" stroke-miterlimit="10" stroke-width=".39870474000000006" d="M84.504 106.61h17.086m13.289 0h28.953m0 0h22.305m26.578 0h22.308m0 0h11.864"/><path fill="none" stroke="#000" stroke-miterlimit="10" stroke-width=".7964102200000001" d="m114.879 106.61-13.29-8.31v16.614Zm0 0"/><path fill="none" stroke="#000" stroke-miterlimit="10" stroke-width=".39870474000000006" d="M114.879 106.61h-13.29"/><path fill="none" stroke="#000" stroke-miterlimit="10" stroke-width=".7964102200000001" d="M114.879 114.914V98.301"/><path stroke="#000" stroke-miterlimit="10" stroke-width=".39870474000000006" d="M133.55 106.61c0-.88-.706-1.587-1.585-1.587a1.587 1.587 0 1 0 1.586 1.586Zm0 0"/><use xlink:href="#f" x="129.286" y="103.421"/><path stroke="#000" stroke-miterlimit="10" stroke-width=".39870474000000006" d="M157.281 106.61c0-.88-.707-1.587-1.586-1.587a1.587 1.587 0 1 0 1.586 1.586Zm0 0"/><path fill="none" stroke="#000" stroke-miterlimit="10" stroke-width=".7964102200000001" d="M166.137 101.625h26.578v9.965h-26.578Zm0 0"/><path stroke="#000" stroke-miterlimit="10" stroke-width=".39870474000000006" d="M204.742 106.61c0-.88-.707-1.587-1.586-1.587a1.587 1.587 0 1 0 1.586 1.586Zm0 0"/><g clip-path="url(#g)"><path fill="#FFF" d="M228.473 106.61c0-.88-.707-1.587-1.586-1.587a1.587 1.587 0 1 0 1.586 1.586m0 0"/></g><g clip-path="url(#h)"><path fill="none" stroke="#000" stroke-miterlimit="10" stroke-width=".39870474000000006" d="M228.473 106.61c0-.88-.707-1.587-1.586-1.587a1.587 1.587 0 1 0 1.586 1.586Zm0 0"/></g><path fill="none" stroke="#000" stroke-miterlimit="10" stroke-width=".39870474000000006" d="M84.504 156.441h23.73m0 0h35.598m0 0h35.594m0 0h35.597m0 0h11.864"/><path stroke="#000" stroke-miterlimit="10" stroke-width=".39870474000000006" d="M133.55 156.441c0-.875-.706-1.586-1.585-1.586a1.587 1.587 0 1 0 1.586 1.586ZM157.281 156.441a1.587 1.587 0 1 0-3.17.002 1.587 1.587 0 0 0 3.17-.002Zm0 0"/><g clip-path="url(#i)"><path fill="none" stroke="#000" stroke-miterlimit="10" stroke-width=".39870474000000006" d="M155.695 156.441v9.914"/></g><g clip-path="url(#j)"><path fill="none" stroke="#000" stroke-linecap="round" stroke-miterlimit="10" stroke-width=".7964102200000001" d="M149.75 166.355h11.894"/></g><path stroke="#000" stroke-miterlimit="10" stroke-width=".39870474000000006" d="M204.742 156.441a1.587 1.587 0 1 0-3.17.002 1.587 1.587 0 0 0 3.17-.002Zm0 0"/><g clip-path="url(#k)"><path fill="#FFF" d="M228.473 156.441a1.587 1.587 0 1 0-3.17.002 1.587 1.587 0 0 0 3.17-.002m0 0"/></g><g clip-path="url(#l)"><path fill="none" stroke="#000" stroke-miterlimit="10" stroke-width=".39870474000000006" d="M228.473 156.441a1.587 1.587 0 1 0-3.17.002 1.587 1.587 0 0 0 3.17-.002Zm0 0"/></g><path fill="none" stroke="#000" stroke-miterlimit="10" stroke-width=".39870474000000006" d="M131.965 106.61v21.593m0 6.645v21.593"/><path fill="none" stroke="#000" stroke-miterlimit="10" stroke-width=".7964102200000001" d="M141.934 128.203H122m19.934 6.645H122"/><path fill="none" stroke="#000" stroke-miterlimit="10" stroke-width=".39870474000000006" d="M155.695 106.61v11.624m0 26.578v11.63"/><path fill="none" stroke="#000" stroke-miterlimit="10" stroke-width=".7964102200000001" d="M150.715 144.812v-26.578h9.965v26.578Zm0 0"/><path fill="none" stroke="#000" stroke-miterlimit="10" stroke-width=".39870474000000006" d="M203.156 106.61v21.593m0 6.645v21.593"/><path fill="none" stroke="#000" stroke-miterlimit="10" stroke-width=".7964102200000001" d="M213.125 128.203H193.19m19.934 6.645H193.19"/><use xlink:href="#m" x="210.883" y="125.016"/><path fill="none" stroke="#000" stroke-miterlimit="10" stroke-width=".39870474000000006" d="M155.695 106.61V94.741m0 0V82.88h32.274m6.644 0h32.274"/><path fill="none" stroke="#000" stroke-miterlimit="10" stroke-width=".7964102200000001" d="M187.969 72.91v19.934m6.644-19.934v19.934"/><g clip-path="url(#n)"><path fill="#FFF" d="M228.473 82.879c0-.879-.707-1.586-1.586-1.586a1.587 1.587 0 1 0 1.586 1.586m0 0"/></g><g clip-path="url(#o)"><path fill="none" stroke="#000" stroke-miterlimit="10" stroke-width=".39870474000000006" d="M228.473 82.879c0-.879-.707-1.586-1.586-1.586a1.587 1.587 0 1 0 1.586 1.586Zm0 0"/></g></svg>