<svg xmlns="http://www.w3.org/2000/svg" xmlns:xlink="http://www.w3.org/1999/xlink" width="231.424" height="142.726"><defs><path id="a" d="M2.734-2.64h-.859v2.156L2.5-.36q.124.017.125.093c0 .032-.04.121-.11.266H.423a.16.16 0 0 1-.016-.078Q.404-.324.72-.406l.375-.078v-5.203l-.547-.125c-.086-.02-.125-.055-.125-.11q0-.075.094-.25h1.797q2.514 0 2.515 1.734c0 .836-.43 1.387-1.281 1.657L5.062-.47l.438.11q.124.034.125.093c0 .032-.04.121-.11.266H4.329Zm-.421-.454Q3.999-3.092 4-4.39q0-1.265-1.687-1.265h-.438v2.562Zm0 0"/><path id="b" d="M.906-.469v-3.328l-.64-.094a.1.1 0 0 1-.016-.062q0-.246.328-.281l1.063-.11v3.875l.53.125q.125.017.126.11A.35.35 0 0 1 2.203 0H.313a.1.1 0 0 1-.016-.062c0-.133.094-.235.281-.297Zm-.14-5.375q0-.217.14-.36a.47.47 0 0 1 .36-.155q.233.002.375.156.14.142.14.36a.5.5 0 0 1-.14.374.5.5 0 0 1-.375.14.48.48 0 0 1-.36-.14.5.5 0 0 1-.14-.375m0 0"/><path id="c" d="M3.563-.844q.123.128.124.25 0 .222-.359.438-.44.265-1.078.265-.844 0-1.344-.562-.515-.563-.515-1.64c0-.72.21-1.29.64-1.72.407-.382.914-.578 1.532-.578.414 0 .726.086.937.25.164.125.25.274.25.438q0 .392-.375.484c-.219-.457-.555-.687-1-.687a1.07 1.07 0 0 0-.844.375q-.361.44-.36 1.25 0 1.862 1.36 1.86.657 0 1.031-.423m0 0"/><path id="d" d="M.828-.469v-5.468l-.656-.094a.16.16 0 0 1-.016-.078q0-.247.328-.266l1.063-.11v2.735h.031q.516-.64 1.36-.64 1.436 0 1.437 1.593v2.328l.547.125q.124.017.125.11A.35.35 0 0 1 4.953 0h-1.89a.1.1 0 0 1-.016-.062c0-.133.094-.235.281-.297l.328-.11V-2.75c0-.695-.324-1.047-.969-1.047q-.69 0-1.14.469v2.86l.531.124q.124.017.125.11A.4.4 0 0 1 2.125 0H.219v-.062c0-.133.086-.235.265-.297Zm0 0"/><path id="e" d="m.86-4.297.171-1.187h.532v1.187H2.89l-.079.469h-1.25v2.75q0 .674.579.672.435 0 .734-.235.062.095.063.266 0 .112-.235.266-.33.217-.828.218Q.827.11.828-.92v-2.907H.156a.1.1 0 0 1-.015-.063q0-.216.28-.296Zm0 0"/><path id="f" d="M2.656-2.781q0-.591-.172-.86-.175-.28-.609-.28a1.5 1.5 0 0 0-.531.093q-.11.22-.203.781a2 2 0 0 1-.188.016q-.438 0-.437-.39 0-.405.468-.688a1.97 1.97 0 0 1 1.032-.282q1.373 0 1.375 1.5v1.97c0 .335.101.5.312.5q.2 0 .313-.11a.38.38 0 0 1 .093.25c0 .062-.058.133-.171.203a.87.87 0 0 1-.532.156q-.628 0-.687-.61h-.016Q2.28.112 1.47.11.966.11.656-.203.343-.514.344-1.031c0-.438.219-.774.656-1.016.383-.195.86-.297 1.422-.297h.234Zm-.89 2.328q.498 0 .89-.469v-1.031l-.234.016q-1.299.11-1.297.812c0 .45.21.672.64.672m0 0"/><path id="g" d="M.906-.469v-3.328l-.64-.094a.1.1 0 0 1-.016-.062q0-.246.328-.281l1.063-.11-.063.594h.031q.294-.293.516-.422.404-.217.953-.219c.438 0 .774.141 1.016.422q.375.41.375 1.172v2.328L5-.344q.124.017.125.11A.4.4 0 0 1 5.047 0H3.14v-.062c0-.133.093-.235.28-.297l.329-.11V-2.75q0-.545-.312-.828-.252-.218-.657-.219c-.43 0-.808.149-1.14.438v2.89l.53.125q.125.017.126.11A.35.35 0 0 1 2.203 0H.313a.1.1 0 0 1-.016-.062c0-.133.094-.235.281-.297Zm0 0"/><path id="h" d="M1.156-2.172q.012.845.375 1.297c.239.305.578.453 1.016.453q.59 0 1.094-.422.106.064.125.25-.001.205-.407.438Q2.89.109 2.25.109 1.434.111.953-.39.391-.965.391-2.062.39-3.17.969-3.812c.351-.383.789-.579 1.312-.579q.684.001 1.094.407.359.409.36 1.093 0 .299-.094.72Zm1.032-1.765q-.91.001-1.016 1.343h1.766q.03-.187.03-.375 0-.968-.78-.969m0 0"/><path id="i" d="M2.375-6.172q3.546 0 3.547 3 0 1.583-.938 2.39C4.38-.257 3.508 0 2.375 0H.422a.16.16 0 0 1-.016-.078Q.404-.324.72-.406l.375-.078v-5.203l-.547-.125c-.086-.02-.125-.055-.125-.11q0-.075.094-.25ZM2.344-.5q1.326 0 2.031-.672.717-.667.719-1.969-.002-1.246-.719-1.89-.705-.64-2.031-.64h-.469V-.5Zm0 0"/><path id="j" d="M.86 1.328v-5.125L.202-3.89v-.062q0-.246.328-.281l1.047-.11-.047.594h.032q.527-.64 1.312-.64.762 0 1.219.546.452.55.453 1.516 0 1.188-.61 1.797-.562.579-1.593.578c-.25 0-.508-.04-.766-.11v1.391l.547.11q.124.03.125.125a.3.3 0 0 1-.094.218H.266A.13.13 0 0 1 .25 1.72q0-.205.281-.282Zm1.734-5.14q-.581 0-1.016.421v2.672q.358.282.844.282 1.373 0 1.375-1.844 0-.733-.328-1.125-.314-.405-.875-.406m0 0"/><path id="k" d="M2.344.11Q1.512.111.984-.438C.586-.832.391-1.383.391-2.094q0-1.061.656-1.719a2.07 2.07 0 0 1 1.469-.578q.843 0 1.359.516.576.596.578 1.688 0 1.078-.656 1.718A2 2 0 0 1 2.344.11m.062-.5q.562 0 .906-.422.36-.468.36-1.329 0-.857-.36-1.343a1.1 1.1 0 0 0-.906-.438c-.367 0-.656.149-.875.438q-.361.469-.36 1.343-.002.861.36 1.329c.219.28.508.421.875.421m0 0"/><path id="l" d="M.86-.469v-5.468l-.641-.094a.16.16 0 0 1-.016-.078q0-.247.328-.266l1.063-.11v6.016l.531.125q.124.017.125.11A.35.35 0 0 1 2.156 0H.266v-.062c0-.133.086-.235.265-.297Zm0 0"/><path id="n" d="M1.063-.64c-.047.25-.204.359-.547.374l-.22.032C.25-.234.22-.22.22-.172L.172 0l.031.016C.516.016.937 0 1.297 0c.344 0 .766.016 1.172.016L2.484 0l.032-.172c.015-.047-.016-.062-.047-.062l-.313-.032C1.875-.28 1.75-.344 1.75-.53c0-.016 0-.063.016-.11l.375-1.968c.187.062.328.093.64.093 1.563 0 2.219-1.062 2.36-1.828.015-.093.03-.172.03-.281 0-.531-.312-1.219-1.624-1.219-.235 0-.781.078-1.14.078-.329 0-.766-.015-1.079-.015l-.031.015-.031.188c-.016.031 0 .062.046.062l.329.016c.125 0 .312.063.312.281 0 .032 0 .063-.016.094ZM2.64-5.126c.046-.266.156-.422.78-.422.5 0 .985.172.985.906 0 .125-.015.282-.047.454-.187.968-.734 1.359-1.562 1.359-.219 0-.516-.016-.594-.047Zm0 0"/><path id="o" d="M1.36-.875v-1.203c.593 0 .734.11.827.265l.766 1.25c.203.329.516.641.953.641a.63.63 0 0 0 .297-.062c.031-.047.016-.11-.016-.172-.312 0-.5-.235-.687-.547l-.89-1.5c.296-.094.953-.469.953-1.219 0-.36-.126-.656-.391-.906-.344-.313-.781-.344-1.235-.344-.328 0-.64.063-.89.063s-.594-.016-.922-.016c-.047.031-.047.188 0 .234.5.016.625.047.625.641v2.875c0 .594-.125.625-.625.656-.047.047-.047.188 0 .235C.438 0 .781 0 1.047 0c.281 0 .61 0 .922.016.047-.047.047-.188 0-.235-.5-.031-.61-.062-.61-.656m.593-3.547c.438 0 .938.156.938 1 0 .89-.5 1.094-1.188 1.094H1.36v-1.64c0-.204.079-.454.594-.454m0 0"/><path id="p" d="M3.203-4.39c.531.03.531.218.375.609L2.453-.906h-.031l-1.14-2.922c-.173-.422-.126-.516.359-.563.046-.046.046-.203 0-.234-.282 0-.61.016-.86.016-.265 0-.515-.016-.75-.016-.031.031-.031.188.016.234.39.032.453.157.64.641L2.095-.078c.047.11.094.156.172.156s.125-.062.172-.156l1.484-3.656c.125-.328.25-.61.687-.657.047-.046.047-.203 0-.234-.203 0-.453.016-.625.016-.156 0-.484-.016-.78-.016-.048.031-.048.188 0 .234m0 0"/><path id="t" d="M1.063-4.61c-.266 0-.641-.015-.922-.015-.047.031-.047.188 0 .234.5.016.625.047.625.641v2.875c0 .594-.125.625-.625.656-.047.047-.047.188 0 .235C.42 0 .797 0 1.063 0c.265 0 .562.016 1.312.016 1 0 2.328-.453 2.328-2.22 0-1.327-1.094-2.421-2.469-2.421-.5 0-.89.016-1.171.016m.296 4.016V-4.03c0-.25.266-.36.61-.36 1.547 0 2.047 1.25 2.047 2.36 0 1.437-.86 1.797-1.875 1.797-.688 0-.782-.141-.782-.36m0 0"/><clipPath id="m"><path d="M66 .04h16V14H66Zm0 0"/></clipPath><clipPath id="q"><path d="M78 128h15v14.414H78Zm0 0"/></clipPath><clipPath id="r"><path d="M145 128h15v14.414h-15Zm0 0"/></clipPath><clipPath id="s"><path d="M111 128h16v14.414h-16Zm0 0"/></clipPath><clipPath id="u"><path d="M73 128h16v14.414H73Zm0 0"/></clipPath><clipPath id="v"><path d="M7 128h15v14.414H7Zm0 0"/></clipPath><clipPath id="w"><path d="M39 128h17v14.414H39Zm0 0"/></clipPath></defs><path fill="none" stroke="#7F7F7F" stroke-miterlimit="10" stroke-width="1.19303392" d="M83.316 76.187v.004s-.003 0-.003.004l-.004.004c0 .004-.004.004-.008.008q-.001.005-.008.016l-.012.02c-.004.003-.011.019-.02.027-.007.011-.015.03-.023.042l-.035.063a.5.5 0 0 0-.043.078c-.015.027-.043.074-.058.106l-.079.136-.097.176a3 3 0 0 1-.13.211l-.155.262-.203.304c-.063.09-.172.25-.25.356-.075.105-.211.285-.31.402a11 11 0 0 1-.827.934 11.5 11.5 0 0 1-1.906 1.57c-.22.145-.59.371-.832.504a15 15 0 0 1-.934.457c-.274.117-.73.297-1.027.39s-.797.231-1.114.294c-.316.066-.843.148-1.175.18a13 13 0 0 1-1.211.03c-.34-.011-.891-.062-1.227-.12a11 11 0 0 1-1.203-.293 10 10 0 0 1-1.152-.465 9 9 0 0 1-1.051-.633 8 8 0 0 1-.922-.797 8 8 0 0 1-.754-.934 7.3 7.3 0 0 1-.563-1.046 7 7 0 0 1-.347-1.125 7 7 0 0 1-.125-1.165c0-.32.058-.843.125-1.164.062-.316.222-.82.347-1.12.13-.301.383-.774.567-1.048.18-.273.516-.695.75-.933.23-.242.644-.598.922-.797a9 9 0 0 1 1.05-.637c.31-.152.825-.36 1.153-.46.328-.106.867-.235 1.203-.294s.887-.109 1.227-.125c.336-.011.878.004 1.21.036.333.027.86.113 1.176.175.317.067.813.2 1.11.297.297.094.757.27 1.03.387.27.117.688.324.935.457.242.137.613.363.832.504.218.144.543.383.734.527a13 13 0 0 1 1.172 1.043c.137.14.34.36.453.488a11 11 0 0 1 .684.852 13.74 13.74 0 0 1 .453.66l.156.258c.043.066.098.16.129.215s.074.129.097.172l.075.136.062.11.043.078c.012.02.027.047.035.058.008.016.016.036.024.043a.4.4 0 0 1 .031.051.03.03 0 0 1 .008.016q.007.001.008.008l.004.004.003.003M83.316 76.187h.012l.016-.003.031-.012.055-.016.093-.035c.028-.016.086-.039.133-.059.043-.019.125-.058.188-.09.066-.03.18-.09.265-.136.086-.043.243-.129.352-.191l.457-.27c.144-.086.402-.246.582-.36.18-.117.496-.324.719-.472s.61-.41.879-.594c.265-.187.73-.512 1.05-.742.32-.227.872-.625 1.247-.898a114 114 0 0 0 1.464-1.07c.434-.321 1.184-.88 1.688-1.25l1.933-1.438a783 783 0 0 1 2.204-1.625c.648-.477 1.75-1.278 2.48-1.801a261 261 0 0 1 2.773-1.973 204 204 0 0 1 6.477-4.355c.984-.633 2.645-1.672 3.723-2.324a175 175 0 0 1 4.05-2.371c1.172-.66 3.13-1.723 4.387-2.372a142 142 0 0 1 4.696-2.308 135 135 0 0 1 5.003-2.195c1.43-.586 3.786-1.493 5.293-2.024 1.504-.527 3.98-1.328 5.551-1.785a115 115 0 0 1 5.781-1.484c1.625-.36 4.27-.86 5.93-1.11s4.352-.562 6.035-.687c1.684-.13 4.41-.239 6.098-.227 1.691.008 4.398.137 6.07.293 1.668.152 4.348.516 5.977.824 1.625.309 4.187.938 5.742 1.403 1.559.468 4.008 1.343 5.477 1.965 1.464.625 3.738 1.75 5.09 2.523 1.35.773 3.433 2.137 4.644 3.05 1.21.915 3.05 2.493 4.094 3.54 1.043 1.043 2.574 2.828 3.433 3.98.86 1.157 2.102 3.098 2.762 4.34s1.559 3.313 2.008 4.625c.449 1.309 1.004 3.469 1.238 4.82.23 1.352.438 3.551.438 4.914 0 1.368-.207 3.567-.438 4.918-.234 1.352-.789 3.508-1.238 4.817-.45 1.312-1.352 3.383-2.016 4.625-.66 1.246-1.894 3.187-2.754 4.34-.855 1.156-2.39 2.941-3.433 3.984s-2.883 2.625-4.094 3.54c-1.211.913-3.293 2.276-4.645 3.05-1.351.773-3.62 1.898-5.09 2.523-1.464.621-3.917 1.496-5.476 1.961-1.555.47-4.117 1.094-5.742 1.407-1.63.308-4.309.668-5.977.824a85 85 0 0 1-6.062.297c-1.688.007-4.414-.102-6.102-.227a100 100 0 0 1-6.039-.691c-1.66-.25-4.305-.75-5.93-1.11s-4.207-1.035-5.78-1.488a124 124 0 0 1-5.548-1.781 132 132 0 0 1-5.289-2.02 145 145 0 0 1-5.011-2.199 155 155 0 0 1-4.692-2.305 167 167 0 0 1-4.387-2.375 175 175 0 0 1-4.054-2.37 194 194 0 0 1-3.723-2.329 207 207 0 0 1-3.394-2.234c-.899-.606-2.27-1.551-3.083-2.117a287 287 0 0 1-2.773-1.973c-.73-.524-1.832-1.328-2.48-1.8-.649-.477-1.63-1.204-2.204-1.626-.574-.426-1.43-1.066-1.933-1.437s-1.254-.93-1.688-1.25c-.437-.325-1.086-.801-1.464-1.075a130 130 0 0 0-2.297-1.636c-.27-.184-.657-.45-.88-.598l-.718-.469-.578-.36-.461-.269c-.113-.062-.266-.148-.352-.191a6 6 0 0 0-.265-.137l-.188-.09-.133-.058c-.03-.012-.07-.028-.093-.035l-.086-.028q-.008-.005-.016-.004-.007.001-.008-.004h-.004"/><path fill="none" stroke="#000" stroke-miterlimit="10" stroke-width=".79502344" d="M83.316 76.187v.004l-.003.004v.008q-.005.005-.004.016c-.004.004-.004.015-.008.023a.2.2 0 0 1-.008.043.4.4 0 0 1-.008.063c0 .023-.004.062-.004.097a1 1 0 0 0-.008.14v.47c.004.09.008.25.012.37 0 .118.008.329.012.485.004.152.012.43.012.63a46.005 46.005 0 0 1-.004 1.79c-.008.303-.028.842-.055 1.213A41 41 0 0 1 83.129 83c-.05.441-.149 1.21-.234 1.727-.086.52-.25 1.41-.387 2.003-.14.594-.403 1.606-.61 2.274a39 39 0 0 1-.894 2.539 41 41 0 0 1-1.25 2.762c-.41.789-1.152 2.11-1.691 2.937-.536.828-1.504 2.192-2.196 3.031-.687.836-1.91 2.192-2.762 3.004-.851.813-2.347 2.106-3.37 2.86-1.02.754-2.801 1.922-3.997 2.578-1.195.652-3.254 1.62-4.61 2.125-1.358.508-3.671 1.207-5.163 1.515-1.492.31-4 .637-5.594.707-1.594.075-4.246 0-5.898-.195-1.653-.199-4.356-.734-6.012-1.226-1.656-.493-4.328-1.52-5.926-2.313-1.594-.797-4.105-2.32-5.57-3.414-1.461-1.098-3.707-3.105-4.973-4.477-1.265-1.37-3.137-3.796-4.148-5.402-1.008-1.605-2.418-4.379-3.125-6.164s-1.59-4.805-1.957-6.703c-.364-1.898-.68-5.043-.68-6.98 0-1.934.316-5.079.68-6.977.367-1.898 1.25-4.914 1.957-6.7.707-1.784 2.125-4.558 3.136-6.163 1.008-1.606 2.875-4.035 4.137-5.407 1.266-1.37 3.512-3.378 4.973-4.472 1.465-1.098 3.976-2.625 5.57-3.418 1.598-.797 4.27-1.82 5.926-2.313 1.656-.488 4.36-1.027 6.012-1.226 1.652-.196 4.304-.27 5.898-.2s4.102.403 5.594.711c1.492.309 3.805 1.008 5.164 1.512 1.355.508 3.41 1.473 4.605 2.125 1.196.653 2.977 1.824 4 2.578s2.52 2.047 3.371 2.864c.852.812 2.075 2.168 2.762 3.003.688.84 1.656 2.204 2.196 3.032.539.828 1.28 2.144 1.687 2.933.41.793.957 2.028 1.254 2.762.297.738.684 1.871.894 2.54.207.667.47 1.679.606 2.273.14.593.305 1.488.39 2.007.086.516.184 1.282.235 1.723.047.441.098 1.09.121 1.46.027.372.047.911.055 1.216s.011.742.011.992c.004.246-.003.598-.007.797 0 .2-.008.472-.012.629-.004.152-.012.367-.012.484-.004.117-.008.281-.012.367v.473c0 .047.004.11.008.14 0 .036.004.075.004.094.004.024.008.051.008.067l.008.039c.004.012.004.02.008.027q-.001.008.004.016v.004q.002.004.003.007"/><path fill="none" stroke="#000" stroke-miterlimit="10" stroke-width=".79502344" d="M83.316 76.187h.004v-.007q.005-.002.004-.004l.004-.016q.001-.01.008-.027.002-.014.004-.04a.3.3 0 0 0 .008-.066 1 1 0 0 0 .007-.093c0-.032.004-.094.004-.141.004-.047.004-.133.004-.2 0-.062 0-.183-.004-.273 0-.086-.004-.25-.007-.367-.004-.117-.008-.332-.012-.484-.004-.157-.012-.43-.016-.63-.004-.198-.008-.55-.008-.796.004-.25.004-.688.016-.992.008-.305.027-.844.05-1.215.028-.371.075-1.016.126-1.457.047-.441.144-1.211.23-1.727.086-.52.254-1.41.39-2.004.142-.593.4-1.609.61-2.277.207-.668.594-1.8.89-2.535.302-.734.849-1.969 1.255-2.762.406-.789 1.148-2.11 1.687-2.937.54-.828 1.508-2.192 2.196-3.032.687-.835 1.914-2.19 2.765-3.003.852-.817 2.344-2.106 3.367-2.86s2.805-1.926 4-2.578c1.196-.652 3.254-1.621 4.61-2.129 1.355-.504 3.672-1.207 5.164-1.515 1.492-.31 3.996-.637 5.59-.707 1.597-.07 4.246 0 5.898.199s4.36.734 6.016 1.226 4.328 1.516 5.922 2.313c1.593.793 4.109 2.32 5.57 3.414 1.465 1.094 3.71 3.105 4.973 4.476 1.265 1.372 3.14 3.797 4.148 5.403 1.012 1.601 2.422 4.379 3.129 6.164.703 1.785 1.59 4.805 1.953 6.703.367 1.898.684 5.043.684 6.976 0 1.938-.317 5.083-.684 6.981-.363 1.898-1.246 4.914-1.953 6.7-.707 1.784-2.129 4.558-3.137 6.163s-2.875 4.035-4.14 5.406c-1.262 1.372-3.508 3.38-4.97 4.473-1.464 1.094-3.98 2.621-5.573 3.418-1.594.793-4.266 1.82-5.922 2.309-1.656.492-4.36 1.031-6.012 1.226-1.652.2-4.305.274-5.902.2-1.594-.07-4.098-.399-5.59-.708s-3.809-1.007-5.164-1.515c-1.356-.504-3.414-1.469-4.606-2.121-1.195-.653-2.976-1.824-4-2.578-1.023-.754-2.52-2.047-3.37-2.864-.852-.812-2.075-2.168-2.762-3.004-.692-.84-1.66-2.203-2.2-3.03-.539-.829-1.277-2.145-1.687-2.938a39 39 0 0 1-1.25-2.762c-.301-.734-.688-1.867-.895-2.535a41 41 0 0 1-.61-2.274 39 39 0 0 1-.39-2.007 35 35 0 0 1-.23-1.723c-.051-.445-.098-1.09-.125-1.461-.024-.371-.043-.91-.051-1.215-.012-.308-.012-.742-.016-.992 0-.25.004-.602.008-.797.004-.2.012-.473.016-.629.004-.152.008-.367.012-.484.003-.121.007-.281.007-.371.004-.086.004-.207.004-.274 0-.062 0-.148-.004-.195 0-.047-.004-.11-.004-.14a1 1 0 0 0-.007-.098.3.3 0 0 0-.008-.063c0-.015-.004-.031-.004-.043l-.008-.023q-.002-.011-.004-.016c0-.004 0-.004-.004-.008v-.004h-.004v-.004"/><path fill="none" stroke="#000" stroke-miterlimit="10" stroke-width=".39801048" d="M.2 76.187h225.609"/><g fill="#7F7F7F"><use xlink:href="#a" x="176.251" y="122.13"/><use xlink:href="#b" x="181.841" y="122.13"/></g><g fill="#7F7F7F"><use xlink:href="#c" x="184.301" y="122.13"/><use xlink:href="#d" x="188.326" y="122.13"/><use xlink:href="#e" x="193.496" y="122.13"/><use xlink:href="#f" x="196.537" y="122.13"/><use xlink:href="#g" x="200.713" y="122.13"/><use xlink:href="#e" x="205.973" y="122.13"/><use xlink:href="#h" x="209.014" y="122.13"/><use xlink:href="#g" x="213.182" y="122.13"/><use xlink:href="#g" x="218.441" y="122.13"/><use xlink:href="#h" x="223.7" y="122.13"/></g><use xlink:href="#i" x="13.371" y="35.795"/><use xlink:href="#b" x="19.775" y="35.795"/><use xlink:href="#j" x="22.27" y="35.795"/><use xlink:href="#k" x="27.216" y="35.795"/><use xlink:href="#l" x="32.028" y="35.795"/><path fill="none" stroke="#CCC" stroke-miterlimit="10" stroke-width=".0099752" d="M65.387 16.816v70.692M83.316 16.816v70.692"/><path fill="none" stroke="#7F7F7F" stroke-miterlimit="10" stroke-width=".39801048" d="M65.684 16.816H83.02"/><path fill="#7F7F7F" stroke="#7F7F7F" stroke-miterlimit="10" stroke-width=".39801048" d="m66.184 16.816 2.964 1.762v-3.52Zm0 0"/><path fill="none" stroke="#7F7F7F" stroke-miterlimit="10" stroke-width=".39801048" d="M65.586 19.102v-4.57"/><path fill="#7F7F7F" stroke="#7F7F7F" stroke-miterlimit="10" stroke-width=".39801048" d="m82.523 16.816-2.968-1.757v3.52Zm0 0"/><path fill="none" stroke="#7F7F7F" stroke-miterlimit="10" stroke-width=".39801048" d="M83.117 14.531v4.57"/><g clip-path="url(#m)"><path fill="#FFF" d="M66.828 13.8h15.047V.04H66.828Zm0 0"/></g><use xlink:href="#n" x="69.811" y="8.872" fill="#7F7F7F"/><use xlink:href="#o" x="74.31" y="10.75" fill="#7F7F7F"/><path fill="none" stroke="#CCC" stroke-miterlimit="10" stroke-width=".0099752" d="M83.316 16.816v70.692M212.035 16.816v70.692"/><path fill="none" stroke="#7F7F7F" stroke-miterlimit="10" stroke-width=".39801048" d="M83.617 16.816h128.121"/><path fill="#7F7F7F" stroke="#7F7F7F" stroke-miterlimit="10" stroke-width=".39801048" d="m84.113 16.816 2.965 1.762v-3.52Zm0 0"/><path fill="none" stroke="#7F7F7F" stroke-miterlimit="10" stroke-width=".39801048" d="M83.516 19.102v-4.57"/><path fill="#7F7F7F" stroke="#7F7F7F" stroke-miterlimit="10" stroke-width=".39801048" d="m211.238 16.816-2.965-1.757v3.52Zm0 0"/><path fill="none" stroke="#7F7F7F" stroke-miterlimit="10" stroke-width=".39801048" d="M211.836 14.531v4.57"/><path fill="#FFF" d="M139.922 23.707h15.512V9.93h-15.512Zm0 0"/><use xlink:href="#n" x="142.901" y="18.761" fill="#7F7F7F"/><use xlink:href="#p" x="147.4" y="20.639" fill="#7F7F7F"/><path fill="none" stroke="#999" stroke-miterlimit="10" stroke-width=".0099752" d="M83.316 135.562v-70.69M154.562 135.562v-70.69"/><path fill="none" stroke="#000" stroke-miterlimit="10" stroke-width=".39801048" d="M83.617 135.562h70.649"/><path d="m84.113 135.563 2.965 1.757v-3.52Zm0 0"/><g clip-path="url(#q)"><path fill="none" stroke="#000" stroke-miterlimit="10" stroke-width=".39801048" d="m84.113 135.562 2.965 1.758v-3.52Zm0 0"/></g><path fill="none" stroke="#000" stroke-miterlimit="10" stroke-width=".39801048" d="M83.516 137.848v-4.575"/><path d="m153.77 135.563-2.97-1.762v3.52Zm0 0"/><g clip-path="url(#r)"><path fill="none" stroke="#000" stroke-miterlimit="10" stroke-width=".39801048" d="m153.77 135.562-2.97-1.761v3.52Zm0 0"/></g><path fill="none" stroke="#000" stroke-miterlimit="10" stroke-width=".39801048" d="M154.363 133.273v4.575"/><g clip-path="url(#s)"><path fill="#FFF" d="M111.008 142.414h15.863v-13.707h-15.863Zm0 0"/></g><use xlink:href="#n" x="113.991" y="137.538"/><use xlink:href="#t" x="118.49" y="139.417"/><path fill="none" stroke="#999" stroke-miterlimit="10" stroke-width=".0099752" d="M83.316 135.562v-70.69M12.07 135.562v-70.69"/><path fill="none" stroke="#000" stroke-miterlimit="10" stroke-width=".39801048" d="M83.02 135.562H12.37"/><path d="m82.523 135.563-2.968-1.762v3.52Zm0 0"/><g clip-path="url(#u)"><path fill="none" stroke="#000" stroke-miterlimit="10" stroke-width=".39801048" d="m82.523 135.562-2.968-1.761v3.52Zm0 0"/></g><path fill="none" stroke="#000" stroke-miterlimit="10" stroke-width=".39801048" d="M83.117 133.273v4.575"/><path d="m12.867 135.563 2.965 1.757v-3.52Zm0 0"/><g clip-path="url(#v)"><path fill="none" stroke="#000" stroke-miterlimit="10" stroke-width=".39801048" d="m12.867 135.562 2.965 1.758v-3.52Zm0 0"/></g><path fill="none" stroke="#000" stroke-miterlimit="10" stroke-width=".39801048" d="M12.27 137.848v-4.575"/><g clip-path="url(#w)"><path fill="#FFF" d="M39.766 142.414h15.859v-13.707h-15.86Zm0 0"/></g><use xlink:href="#n" x="42.746" y="137.538"/><use xlink:href="#t" x="47.244" y="139.417"/></svg>