<svg xmlns="http://www.w3.org/2000/svg" xmlns:xlink="http://www.w3.org/1999/xlink" width="222.849" height="191.005"><defs><path id="a" d="m1.906-5.078-.86 4.406c-.062.25-.187.375-.562.406L.22-.234c-.047.03-.063.172-.016.25C.593.016.922 0 1.266 0S2 .016 2.406.016c.016-.032.047-.22.016-.25l-.297-.032c-.344-.03-.453-.14-.39-.406l.859-4.406c.062-.25.187-.375.562-.406l.266-.032c.047-.03.062-.171.015-.25-.39 0-.718.016-1.062.016s-.75-.016-1.14-.016c-.016.032-.048.204-.016.25l.297.032c.343.03.453.14.39.406m0 0"/><path id="o" d="M1.813.094c1.765 0 2.375-1.14 2.687-2.719l.484-2.453c.032-.25.188-.39.547-.422l.219-.016c.047 0 .078-.03.078-.062l.047-.172-.016-.016c-.406 0-.75.016-.953.016s-.531-.016-.937-.016l-.016.016-.031.172c-.016.031.015.062.047.062l.234.016c.281.016.406.11.406.297 0 .031-.015.078-.03.125l-.5 2.61c-.204 1-.548 2.187-2.016 2.187-.407 0-.72-.188-.922-.438-.188-.25-.235-.515-.235-.812 0-.282.047-.578.11-.875L1.53-5.11c.063-.25.203-.36.563-.391l.219-.016c.046 0 .062-.03.078-.062l.03-.172-.015-.016c-.406 0-.75.016-1.094.016-.343 0-.671-.016-1.078-.016l-.03.016-.032.172c0 .031.031.062.062.062l.22.016c.28.016.405.094.405.281 0 .032 0 .078-.015.11l-.578 3a3 3 0 0 0-.063.625c0 1.28.953 1.578 1.61 1.578m0 0"/><path id="b" d="M2.031-.578V-5l-1.344.266a1 1 0 0 1-.015-.188c0-.133.07-.226.219-.281l1.468-.594h.438v5.219l1.094.172q.14.016.14.11-.002.08-.11.296H.86v-.078q0-.311.282-.36Zm0 0"/><path id="c" d="M4.484-.484 3.906-2.11H1.672L1.094-.484l.672.125q.124.017.125.093 0 .066-.094.266H-.078a.2.2 0 0 1-.016-.078Q-.096-.342.22-.406l.25-.063 2.156-5.687.563-.078L5.328-.47l.406.11q.124.034.125.093-.002.048-.109.266H3.844v-.078q-.002-.246.297-.328Zm-2.64-2.11h1.89l-.921-2.61h-.016Zm0 0"/><path id="g" d="M2.234-.39q1.092.001 1.094-2.516c0-1.664-.367-2.5-1.094-2.5-.73 0-1.093.836-1.093 2.5 0 1.68.363 2.515 1.093 2.515m-.046.5q-.862 0-1.36-.75Q.296-1.42.297-2.907c0-.977.187-1.735.562-2.266.352-.488.829-.734 1.422-.734q.873.001 1.36.734c.343.531.515 1.29.515 2.266q0 1.487-.562 2.265-.516.75-1.406.75m0 0"/><path id="h" d="M.406-.375a.5.5 0 0 1 .125-.36.48.48 0 0 1 .36-.14c.132 0 .25.047.343.14a.47.47 0 0 1 .157.36.47.47 0 0 1-.157.36.5.5 0 0 1-.343.124.52.52 0 0 1-.36-.125.5.5 0 0 1-.125-.359m0 0"/><path id="i" d="M3.688-4.766a.95.95 0 0 0-.329-.406 1.16 1.16 0 0 0-.734-.25c-.906 0-1.398.79-1.469 2.36q.516-.406 1.219-.407.762 0 1.219.375.499.423.5 1.25-.001.798-.5 1.36c-.356.398-.809.593-1.36.593-.617 0-1.086-.257-1.406-.78Q.36-1.407.36-2.72q-.002-1.25.594-2.14c.445-.696 1.063-1.047 1.844-1.047.406 0 .726.074.969.218q.328.189.328.454-.001.375-.407.468M1.156-2.609Q1.17-1.484 1.5-.922c.195.356.469.531.813.531q.435.001.718-.343.296-.359.297-1.016-.001-1.219-1.015-1.219-.751 0-1.157.36m0 0"/><path id="j" d="M5.828-6.156v.078q-.002.252-.297.328l-.234.047L3.28 0h-.734L.453-5.687l-.375-.11q-.124-.014-.125-.11c0-.05.035-.132.094-.25H2.03c.008.024.016.048.016.079q-.001.253-.313.312l-.375.079L3-.907h.031L4.72-5.702l-.688-.11q-.127-.011-.125-.093 0-.075.094-.25Zm0 0"/><path id="p" d="M1.39-3.156c1.008-.114 1.516-.516 1.516-1.203Q2.905-5.421 2-5.422q-.41 0-.703.188-.112.376-.125.828a1 1 0 0 1-.203.015c-.281 0-.422-.117-.422-.359 0-.344.144-.617.437-.828q.45-.328 1.188-.328c.469 0 .836.125 1.11.375q.42.376.421 1.015 0 .628-.422 1.016-.298.284-.906.484v.032q.716.093 1.11.468c.257.243.39.547.39.922q-.001.738-.547 1.219Q2.78.11 1.891.109C1.41.11 1.05.012.813-.17Q.53-.374.53-.672q0-.406.39-.548c.102.23.204.399.298.5q.293.328.828.328c.664 0 1-.351 1-1.062 0-.738-.555-1.149-1.656-1.234Zm0 0"/><path id="q" d="M3.188-5.531a1.8 1.8 0 0 0-.891-.25q-.518.001-.813.265-.28.269-.28.72 0 .391.234.655a2.3 2.3 0 0 0 .5.344l.843.453c.438.242.742.465.922.672q.359.41.36 1 0 .785-.516 1.266-.551.516-1.453.515a3.46 3.46 0 0 1-1.5-.359q-.047-.482-.047-1 0-.389.281-.39.075 0 .188.046l.218.938q.386.298.938.297.575 0 .89-.328.296-.295.297-.782-.002-.406-.296-.687-.204-.187-.907-.578l-.562-.313c-.344-.195-.602-.398-.766-.61Q.515-4.06.516-4.64q-.002-.749.547-1.187.515-.437 1.359-.438.764 0 1.375.329.03.643.031.859-.001.391-.265.39a.5.5 0 0 1-.204-.046Zm0 0"/><path id="r" d="m.86-4.281.171-1.203h.516v1.203H2.89l-.094.468h-1.25v2.735q-.001.674.578.672.45 0 .75-.235.062.095.063.266-.002.112-.25.266-.332.217-.813.218Q.827.11.828-.92v-2.891H.156a.2.2 0 0 1-.015-.063q0-.233.28-.297Zm0 0"/><clipPath id="d"><path d="M.504 50H25v6H.504Zm0 0"/></clipPath><clipPath id="e"><path d="M.504 84H25v5H.504Zm0 0"/></clipPath><clipPath id="f"><path d="M.504 151H25v5H.504Zm0 0"/></clipPath><clipPath id="k"><path d="M189 179h15v11.016h-15Zm0 0"/></clipPath><clipPath id="l"><path d="M72 179h15v11.016H72Zm0 0"/></clipPath><clipPath id="m"><path d="M105 179h16v11.016h-16Zm0 0"/></clipPath><clipPath id="n"><path d="M139 179h15v11.016h-15Zm0 0"/></clipPath></defs><path fill="none" stroke="#000" stroke-miterlimit="10" stroke-width=".39693318000000005" d="M196.813 2.969h8.367m0 0h8.367v76.246m0 31.582v76.246h-8.367m0 0h-8.367"/><path fill="none" stroke="#000" stroke-miterlimit="10" stroke-width=".79287154" d="M207.625 110.797V79.215h11.844v31.582Zm0 0"/><path stroke="#000" stroke-miterlimit="10" stroke-width=".39693318000000005" d="M213.547 147.191h-1.973l1.973 4.196 1.976-4.196Zm0 0"/><use xlink:href="#a" x="216.717" y="151.797"/><path fill="none" stroke="#000" stroke-miterlimit="10" stroke-width=".39693318000000005" d="M12.742 2.969v16.734m0 0V47.25m0 11.844v21.625m0 11.843v10.81m0 33.468v10.812m0 11.844v19.18m0 0v8.367h92.035m0 0h92.036"/><path stroke="#000" stroke-miterlimit="10" stroke-width=".39693318000000005" d="M12.742 21.43h1.973l-1.973-4.196-1.972 4.196Zm0 0"/><use xlink:href="#b" x="15.914" y="22.819"/><use xlink:href="#c" x="20.374" y="22.819"/><path fill="none" stroke="#000" stroke-miterlimit="10" stroke-width=".39693318000000005" d="M12.742 55.125v3.969m0-7.875V47.25"/><g clip-path="url(#d)"><path fill="none" stroke="#000" stroke-miterlimit="10" stroke-width=".79287154" d="M18.664 55.125H6.82m17.766-3.906H.898"/></g><path fill="none" stroke="#000" stroke-miterlimit="10" stroke-width=".39693318000000005" d="M12.742 88.594v3.968m0-7.878v-3.965"/><g clip-path="url(#e)"><path fill="none" stroke="#000" stroke-miterlimit="10" stroke-width=".79287154" d="M18.664 88.594H6.82m17.766-3.91H.898"/></g><path fill="none" stroke="#000" stroke-miterlimit="10" stroke-width=".39693318000000005" d="M12.742 155.527v3.97m0-7.876v-3.969"/><g clip-path="url(#f)"><path fill="none" stroke="#000" stroke-miterlimit="10" stroke-width=".79287154" d="M18.664 155.527H6.82m17.766-3.906H.898"/></g><use xlink:href="#g" x="27.376" y="155.716"/><use xlink:href="#h" x="31.836" y="155.716"/><use xlink:href="#i" x="33.611" y="155.716"/><use xlink:href="#j" x="38.071" y="155.716"/><path fill="#FFF" d="M198.395 187.043a1.58 1.58 0 1 0-3.161-.003 1.58 1.58 0 0 0 3.16.003m0 0"/><g clip-path="url(#k)"><path fill="none" stroke="#000" stroke-miterlimit="10" stroke-width=".39693318000000005" d="M198.395 187.043a1.58 1.58 0 1 0-3.161-.003 1.58 1.58 0 0 0 3.16.003Zm0 0"/></g><path fill="none" stroke="#000" stroke-dasharray="2.9733478606 2.9733478606" stroke-miterlimit="10" stroke-width=".39693318000000005" d="M12.742 103.371v33.469"/><path fill="none" stroke="#000" stroke-miterlimit="10" stroke-width=".39693318000000005" d="M79.68 2.969v16.734m0 0V47.25m0 11.844v21.625m0 11.843v10.81m0 33.468v10.812m0 11.844v19.18m0 0v8.367"/><path stroke="#000" stroke-miterlimit="10" stroke-width=".39693318000000005" d="M81.258 2.969a1.58 1.58 0 0 0-3.16 0c0 .875.707 1.578 1.582 1.578.87 0 1.578-.703 1.578-1.578ZM79.68 21.43h1.972l-1.972-4.196-1.977 4.196Zm0 0"/><path fill="none" stroke="#000" stroke-miterlimit="10" stroke-width=".39693318000000005" d="M79.68 55.125v3.969m0-7.875V47.25"/><path fill="none" stroke="#000" stroke-miterlimit="10" stroke-width=".79287154" d="M85.602 55.125H73.754m17.77-3.906H67.831"/><path fill="none" stroke="#000" stroke-miterlimit="10" stroke-width=".39693318000000005" d="M79.68 88.594v3.968m0-7.878v-3.965"/><path fill="none" stroke="#000" stroke-miterlimit="10" stroke-width=".79287154" d="M85.602 88.594H73.754m17.77-3.91H67.831"/><path fill="none" stroke="#000" stroke-miterlimit="10" stroke-width=".39693318000000005" d="M79.68 155.527v3.97m0-7.876v-3.969"/><path fill="none" stroke="#000" stroke-miterlimit="10" stroke-width=".79287154" d="M85.602 155.527H73.754m17.77-3.906H67.831"/><path d="M81.258 187.043a1.58 1.58 0 1 0-3.16-.005 1.58 1.58 0 0 0 3.16.005m0 0"/><g clip-path="url(#l)"><path fill="none" stroke="#000" stroke-miterlimit="10" stroke-width=".39693318000000005" d="M81.258 187.043a1.58 1.58 0 1 0-3.16-.005 1.58 1.58 0 0 0 3.16.005Zm0 0"/></g><path fill="none" stroke="#000" stroke-dasharray="2.9733478606 2.9733478606" stroke-miterlimit="10" stroke-width=".39693318000000005" d="M79.68 103.371v33.469"/><path fill="none" stroke="#000" stroke-miterlimit="10" stroke-width=".39693318000000005" d="M113.145 2.969v16.734m0 0V47.25m0 11.844v21.625m0 11.843v10.81m0 33.468v10.812m0 11.844v19.18m0 0v8.367"/><path stroke="#000" stroke-miterlimit="10" stroke-width=".39693318000000005" d="M114.723 2.969a1.579 1.579 0 1 0-3.158 0 1.579 1.579 0 0 0 3.158 0ZM113.145 21.43h1.976l-1.976-4.196-1.973 4.196Zm0 0"/><path fill="none" stroke="#000" stroke-miterlimit="10" stroke-width=".39693318000000005" d="M113.145 55.125v3.969m0-7.875V47.25"/><path fill="none" stroke="#000" stroke-miterlimit="10" stroke-width=".79287154" d="M119.066 55.125h-11.843m17.765-3.906h-23.687"/><path fill="none" stroke="#000" stroke-miterlimit="10" stroke-width=".39693318000000005" d="M113.145 88.594v3.968m0-7.878v-3.965"/><path fill="none" stroke="#000" stroke-miterlimit="10" stroke-width=".79287154" d="M119.066 88.594h-11.843m17.765-3.91h-23.687"/><path fill="none" stroke="#000" stroke-miterlimit="10" stroke-width=".39693318000000005" d="M113.145 155.527v3.97m0-7.876v-3.969"/><path fill="none" stroke="#000" stroke-miterlimit="10" stroke-width=".79287154" d="M119.066 155.527h-11.843m17.765-3.906h-23.687"/><path d="M114.723 187.043a1.58 1.58 0 0 0-1.578-1.582 1.58 1.58 0 0 0 0 3.16c.87 0 1.578-.707 1.578-1.578m0 0"/><g clip-path="url(#m)"><path fill="none" stroke="#000" stroke-miterlimit="10" stroke-width=".39693318000000005" d="M114.723 187.043a1.58 1.58 0 0 0-1.578-1.582 1.58 1.58 0 0 0 0 3.16c.87 0 1.578-.707 1.578-1.578Zm0 0"/></g><path fill="none" stroke="#000" stroke-dasharray="2.9733478606 2.9733478606" stroke-miterlimit="10" stroke-width=".39693318000000005" d="M113.145 103.371v33.469"/><path fill="none" stroke="#000" stroke-miterlimit="10" stroke-width=".39693318000000005" d="M146.613 2.969v16.734m0 0V47.25m0 11.844v21.625m0 11.843v10.81m0 33.468v10.812m0 11.844v19.18m0 0v8.367"/><path stroke="#000" stroke-miterlimit="10" stroke-width=".39693318000000005" d="M148.191 2.969a1.579 1.579 0 1 0-3.157 0 1.579 1.579 0 0 0 3.157 0ZM146.613 21.43h1.973l-1.973-4.196-1.972 4.196Zm0 0"/><path fill="none" stroke="#000" stroke-miterlimit="10" stroke-width=".39693318000000005" d="M146.613 55.125v3.969m0-7.875V47.25"/><path fill="none" stroke="#000" stroke-miterlimit="10" stroke-width=".79287154" d="M152.535 55.125h-11.844m17.766-3.906H134.77"/><path fill="none" stroke="#000" stroke-miterlimit="10" stroke-width=".39693318000000005" d="M146.613 88.594v3.968m0-7.878v-3.965"/><path fill="none" stroke="#000" stroke-miterlimit="10" stroke-width=".79287154" d="M152.535 88.594h-11.844m17.766-3.91H134.77"/><path fill="none" stroke="#000" stroke-miterlimit="10" stroke-width=".39693318000000005" d="M146.613 155.527v3.97m0-7.876v-3.969"/><path fill="none" stroke="#000" stroke-miterlimit="10" stroke-width=".79287154" d="M152.535 155.527h-11.844m17.766-3.906H134.77"/><path d="M148.191 187.043a1.58 1.58 0 0 0-1.578-1.582 1.58 1.58 0 0 0 0 3.16c.871 0 1.578-.707 1.578-1.578m0 0"/><g clip-path="url(#n)"><path fill="none" stroke="#000" stroke-miterlimit="10" stroke-width=".39693318000000005" d="M148.191 187.043a1.58 1.58 0 0 0-1.578-1.582 1.58 1.58 0 0 0 0 3.16c.871 0 1.578-.707 1.578-1.578Zm0 0"/></g><path fill="none" stroke="#000" stroke-dasharray="2.9733478606 2.9733478606" stroke-miterlimit="10" stroke-width=".39693318000000005" d="M146.613 103.371v33.469"/><path fill="none" stroke="#000" stroke-miterlimit="10" stroke-width=".39693318000000005" d="M12.742 2.969h92.035m0 0h92.036"/><path fill="#FFF" stroke="#000" stroke-miterlimit="10" stroke-width=".39693318000000005" d="M198.395 2.969a1.58 1.58 0 0 0-3.16 0c0 .875.706 1.578 1.578 1.578.875 0 1.582-.703 1.582-1.578Zm0 0"/><path fill="none" stroke="#000" stroke-miterlimit="10" stroke-width=".39693318000000005" d="M196.813 13.012v81.992m0 0V177"/><path stroke="#000" stroke-miterlimit="10" stroke-width=".39693318000000005" d="M196.813 175.273h-1.973l1.973 4.196 1.976-4.196Zm0 0"/><use xlink:href="#o" x="184.399" y="97.848"/><use xlink:href="#p" x="29.472" y="123.185"/><use xlink:href="#g" x="33.932" y="123.185"/><use xlink:href="#q" x="40.319" y="123.185"/><use xlink:href="#r" x="44.752" y="123.185"/><use xlink:href="#h" x="47.785" y="123.185"/></svg>