<svg xmlns="http://www.w3.org/2000/svg" xmlns:xlink="http://www.w3.org/1999/xlink" width="231.045" height="113.781"><defs><path id="e" d="M2.953-2.469H.547v-.515h2.406Zm0 0"/><path id="f" d="m.422-.453 1.5-1.719q.89-1.015.89-2-.001-1.249-.906-1.25-.363.001-.703.172-.112.364-.125.89-.11.017-.203.016c-.281 0-.422-.117-.422-.36q0-.544.422-.874.42-.328 1.156-.328.715 0 1.172.422.451.409.453 1.14 0 .691-.422 1.36-.268.44-.906 1.125L1.344-.797v.016h2.031l.188-.766q.058-.047.187-.047.218 0 .219.36 0 .344-.094 1.234H.5Zm0 0"/><path id="g" d="M5.828-6.156v.078q-.002.252-.297.328l-.234.047L3.28 0h-.734L.453-5.687l-.375-.11q-.124-.014-.125-.11c0-.05.035-.132.094-.25H2.03c.008.024.016.048.016.079q-.001.253-.313.312l-.375.079L3-.907h.031L4.72-5.702l-.688-.11q-.127-.011-.125-.093 0-.075.094-.25Zm0 0"/><path id="h" d="M2.031-.578V-5l-1.344.266a1 1 0 0 1-.015-.188c0-.133.07-.226.219-.281l1.468-.594h.438v5.219l1.094.172q.14.016.14.11-.002.08-.11.296H.86v-.078q0-.311.282-.36Zm0 0"/><path id="j" d="m.938-3.828-.47.031c-.171 0-.234.078-.25.14a1 1 0 0 0-.046.157c0 .016.031.016.062.016H.86L.313-1.047C.25-.766.188-.484.188-.328c0 .328.156.422.437.422.406 0 .984-.375 1.297-.922C1.89-.953 1.828-1 1.719-1c-.407.469-.563.547-.703.547C.984-.453.89-.47.89-.578c0-.078.03-.25.093-.563l.532-2.343h.875c.109-.047.187-.266.093-.344h-.89l.093-.406c.032-.172.11-.422.11-.532 0-.156-.063-.234-.344-.234-.328 0-.312.39-.406.719Zm0 0"/><path id="k" d="M1.813.094c1.765 0 2.375-1.14 2.687-2.719l.484-2.453c.032-.25.188-.39.547-.422l.219-.016c.047 0 .078-.03.078-.062l.047-.172-.016-.016c-.406 0-.75.016-.953.016s-.531-.016-.937-.016l-.016.016-.031.172c-.016.031.015.062.047.062l.234.016c.281.016.406.11.406.297 0 .031-.015.078-.03.125l-.5 2.61c-.204 1-.548 2.187-2.016 2.187-.407 0-.72-.188-.922-.438-.188-.25-.235-.515-.235-.812 0-.282.047-.578.11-.875L1.53-5.11c.063-.25.203-.36.563-.391l.219-.016c.046 0 .062-.03.078-.062l.03-.172-.015-.016c-.406 0-.75.016-1.094.016-.343 0-.671-.016-1.078-.016l-.03.016-.032.172c0 .031.031.062.062.062l.22.016c.28.016.405.094.405.281 0 .032 0 .078-.015.11l-.578 3a3 3 0 0 0-.063.625c0 1.28.953 1.578 1.61 1.578m0 0"/><path id="l" d="m1.11-.562.39-1.032c.031-.093.078-.125.25-.125h1.5l.422 1.203c.078.25-.188.266-.531.297-.047.047-.047.188 0 .235C3.406 0 3.797 0 4.078 0c.297 0 .563 0 .813.016.046-.047.046-.188 0-.235-.282-.031-.516-.047-.641-.39L2.781-4.703c-.11.062-.297.14-.39.14L.766-.733C.578-.281.359-.25.046-.22 0-.172 0-.03.047.016.235 0 .47 0 .689 0c.296 0 .64 0 .906.016.047-.047.047-.188 0-.235C1.328-.25 1-.266 1.109-.562m.765-1.454c-.156 0-.203-.03-.172-.093l.719-1.86h.047l.672 1.953Zm0 0"/><clipPath id="a"><path d="M220 55h10.094v16H220Zm0 0"/></clipPath><clipPath id="b"><path d="M23 3h1v110.438h-1Zm0 0"/></clipPath><clipPath id="c"><path d="M21 .125h5V4h-5Zm0 0"/></clipPath><clipPath id="d"><path d="M16 .125h16V10H16Zm0 0"/></clipPath><clipPath id="i"><path d="M23.664 26H226v75H23.664Zm0 0"/></clipPath></defs><path fill="none" stroke="#BFBFBF" stroke-miterlimit="10" stroke-width=".19818012000000002" d="M23.664 104.875H229.9M23.664 83.965H229.9M23.664 42.145H229.9M23.664 21.235H229.9"/><path fill="none" stroke="#000" stroke-miterlimit="10" stroke-width=".79371636" d="M21.543 104.875h4.238m-4.238-20.91h4.238m-4.238-41.82h4.238m-4.238-20.91h4.238"/><path fill="none" stroke="#000" stroke-miterlimit="10" stroke-width=".39735612000000003" d="M23.664 63.055h202.777"/><path d="m229.5 63.055-2.96-1.758v3.512Zm0 0"/><g clip-path="url(#a)"><path fill="none" stroke="#000" stroke-miterlimit="10" stroke-width=".39735612000000003" d="m229.5 63.055-2.96-1.758v3.512Zm0 0"/></g><g clip-path="url(#b)"><path fill="none" stroke="#000" stroke-miterlimit="10" stroke-width=".39735612000000003" d="M23.664 113.238V3.781"/></g><g clip-path="url(#c)"><path d="m23.664.719-1.758 2.96h3.512Zm0 0"/></g><g clip-path="url(#d)"><path fill="none" stroke="#000" stroke-miterlimit="10" stroke-width=".39735612000000003" d="m23.664.719-1.758 2.96h3.512Zm0 0"/></g><use xlink:href="#e" x="2.976" y="107.955"/><use xlink:href="#f" x="6.476" y="107.955"/><use xlink:href="#g" x="12.584" y="107.955"/><use xlink:href="#h" x="6.476" y="87.046"/><use xlink:href="#g" x="12.584" y="87.046"/><use xlink:href="#h" x="6.476" y="45.225"/><use xlink:href="#g" x="12.584" y="45.225"/><use xlink:href="#f" x="6.476" y="24.315"/><use xlink:href="#g" x="12.584" y="24.315"/><g clip-path="url(#i)"><path fill="none" stroke="#000" stroke-miterlimit="10" stroke-width=".39735612000000003" d="m23.664 63.055.39-.79.395-.788.395-.79.394-.785c.11-.218.282-.57.39-.785l.395-.781.395-.781.395-.778.39-.77.395-.769.394-.761.395-.758c.11-.207.285-.543.39-.75.11-.207.286-.54.395-.742l.394-.739c.11-.203.286-.531.395-.73l.394-.723c.11-.2.282-.52.391-.715a110.543 110.543 0 0 1 .79-1.402c.109-.191.284-.5.394-.688s.28-.492.39-.675a101 101 0 0 1 .79-1.325l.394-.644c.11-.176.281-.457.39-.633.11-.172.286-.45.395-.617.11-.172.285-.441.395-.61a75.2 75.2 0 0 1 .79-1.176c.104-.16.28-.413.39-.57s.284-.402.394-.554c.11-.149.285-.39.394-.54.11-.148.286-.378.395-.523.11-.144.281-.37.39-.511.11-.137.286-.36.395-.493.11-.136.285-.347.395-.48.109-.129.285-.336.394-.461a23 23 0 0 1 1.18-1.293c.11-.113.285-.29.394-.395.11-.109.285-.277.39-.378a17 17 0 0 1 .79-.707c.11-.094.285-.239.395-.325.109-.09.285-.226.394-.308a14 14 0 0 1 .785-.559c.11-.074.285-.183.395-.254a21 21 0 0 1 .785-.445l.394-.195c.11-.051.286-.13.395-.172.11-.047.285-.117.395-.157a8 8 0 0 1 .785-.253l.394-.098c.11-.024.285-.059.395-.074.11-.02.285-.047.39-.059.11-.012.286-.031.395-.035.11-.008.285-.016.394-.02.11 0 .286 0 .395.004s.285.012.394.02l.391.043c.11.015.285.043.395.062.109.02.285.059.394.082.11.028.285.07.395.102s.28.086.39.121.285.102.395.14c.11.044.285.114.394.16.11.048.286.13.395.18.11.055.281.145.39.2.11.058.286.156.395.218l.395.239c.109.07.285.183.394.258.11.074.285.195.395.273l.39.293c.11.086.285.223.395.312.11.09.285.239.394.332s.286.247.395.348c.11.098.281.262.39.363a37 37 0 0 1 .79.786c.109.113.285.3.394.418s.281.312.39.433c.11.125.286.324.395.453.11.125.285.336.395.465.11.133.285.348.394.484.11.137.285.36.391.5a31.338 31.338 0 0 1 .79 1.043 65 65 0 0 1 .788 1.098c.11.156.281.414.39.574.11.16.286.418.395.582s.285.434.395.602.285.437.394.61c.11.171.282.448.39.624.11.172.286.457.395.633l.395.649c.11.18.285.472.395.66.109.183.28.48.39.668.11.187.285.488.395.68.109.187.285.495.394.687l.395.699c.11.195.285.512.394.707.106.2.282.52.39.719l.395.722c.11.204.286.528.395.735.11.203.285.531.394.738s.282.54.391.746c.11.207.285.543.395.754.109.207.285.547.394.758s.285.55.395.762l.39.77.395.773c.11.214.285.562.394.777s.286.562.395.781c.11.215.285.563.39.781l.395.786.395.789.394.785.395.793c.105.219.28.57.39.789l.395.789.394.789.395.79c.11.218.281.565.39.784l.395.785c.11.215.285.563.395.782l.394.777c.11.215.281.562.39.773l.395.774c.11.21.285.555.395.765l.394.762c.11.211.285.547.391.754l.394.75c.11.207.286.54.395.742a127 127 0 0 0 .79 1.465c.108.203.28.524.39.723.11.195.285.515.394.71l.395.704.394.695.39.684.395.676c.11.183.286.48.395.66.11.183.285.476.395.656.109.18.28.465.39.64.11.176.285.458.395.63s.285.449.394.617l.395.605c.11.164.285.43.394.59.106.164.282.422.39.578.11.16.286.41.395.567l.395.55.394.535c.11.149.282.38.391.52.11.145.285.371.395.508l.394.492c.11.133.285.344.395.473s.281.336.39.46c.11.126.285.32.395.442.11.121.285.312.394.426.11.117.286.297.395.41l.39.39c.11.11.286.274.395.376s.285.261.395.359c.109.094.285.246.394.336a14 14 0 0 0 .785.625c.11.082.285.207.395.285s.285.195.394.266a22 22 0 0 0 .786.476c.109.059.285.153.394.207.11.055.285.14.395.192.109.047.285.125.394.168a8 8 0 0 0 .785.28 8 8 0 0 0 .79.204c.109.023.284.055.394.074.105.016.281.04.39.051.11.012.286.027.395.031.11.008.285.012.395.016.109 0 .285-.004.394-.008l.39-.027a6.962 6.962 0 0 0 .79-.117c.11-.02.285-.06.394-.086.11-.028.282-.075.39-.106.11-.031.286-.09.395-.125.11-.039.286-.105.395-.148s.285-.118.395-.164c.109-.047.285-.133.39-.184.11-.055.285-.145.395-.207.11-.059.285-.156.394-.223a11.477 11.477 0 0 0 .79-.504l.39-.277c.11-.082.285-.215.394-.3.11-.083.286-.223.395-.317.11-.09.285-.238.394-.332l.391-.352a18.507 18.507 0 0 0 .79-.762c.109-.109.284-.288.394-.402.11-.117.281-.304.39-.422.11-.12.286-.316.395-.437a48 48 0 0 0 .789-.93c.11-.133.285-.347.39-.484a59.199 59.199 0 0 0 .79-1.02c.109-.148.285-.383.394-.535.11-.148.285-.39.395-.547.11-.152.28-.402.39-.558l.395-.575.394-.59c.11-.163.286-.433.395-.601s.281-.441.39-.613c.11-.172.286-.453.395-.63.11-.175.285-.456.395-.636a96 96 0 0 0 1.18-1.984l.394-.68.394-.691.395-.703c.105-.196.281-.512.39-.711a122.245 122.245 0 0 0 1.184-2.18c.11-.203.281-.531.39-.738.11-.207.286-.54.395-.75.11-.207.285-.543.395-.754l.394-.758c.11-.211.282-.555.39-.766.11-.215.286-.554.395-.77l.395-.773.395-.777c.109-.219.285-.566.39-.781l.395-.785.394-.786.395-.789c.11-.218.285-.57.394-.789.11-.218.282-.57.39-.789l.395-.789.395-.789.395-.789c.109-.219.28-.57.39-.79l.395-.784c.109-.219.285-.567.394-.781.11-.22.285-.567.395-.782l.39-.777c.11-.215.286-.563.395-.773l.394-.774c.11-.21.286-.55.395-.762l.394-.761c.106-.211.282-.547.391-.754l.395-.746c.109-.207.285-.54.394-.743.11-.207.285-.53.395-.734s.28-.527.39-.726l.395-.72a116 116 0 0 1 .789-1.41c.11-.195.281-.503.39-.69a106 106 0 0 1 .79-1.356c.109-.184.285-.48.394-.66.11-.184.285-.473.39-.653l.395-.636c.11-.176.285-.454.395-.625l.394-.618c.11-.168.286-.433.395-.601.105-.164.281-.426.39-.586.11-.164.286-.418.395-.574.11-.16.285-.41.395-.563.109-.152.285-.398.394-.547.11-.148.281-.386.39-.531a30 30 0 0 1 .79-1.02c.11-.14.285-.355.394-.488s.282-.344.39-.472c.11-.13.286-.329.395-.454s.286-.32.395-.437c.11-.121.285-.309.395-.422.109-.117.285-.297.39-.406.11-.11.285-.281.395-.387a17 17 0 0 1 .789-.723c.11-.097.285-.246.394-.336s.282-.23.39-.316c.11-.086.286-.219.395-.3.11-.079.286-.204.395-.278s.285-.191.395-.262c.109-.07.28-.176.39-.242.11-.062.285-.164.395-.223.109-.058.285-.148.394-.203.11-.054.285-.136.395-.187.11-.047.281-.121.39-.164.11-.043.286-.11.395-.145.11-.039.285-.094.394-.129.11-.031.286-.078.395-.105a7 7 0 0 1 .394-.086c.106-.024.282-.051.391-.067.11-.015.285-.039.395-.046.109-.012.285-.024.394-.028.11-.008.285-.008.395-.008s.281.004.39.012c.11.008.285.02.395.031.11.012.285.035.394.055.11.016.286.047.395.07s.281.063.39.09c.11.031.286.078.395.113s.285.094.395.133c.109.04.285.106.394.149.11.047.285.12.39.172a9.686 9.686 0 0 1 .79.398c.11.059.285.16.394.227.11.066.286.175.395.246.105.074.281.191.39.265.11.078.286.203.395.285.11.083.285.22.395.305a14 14 0 0 1 .785.66c.11.094.285.254.394.356s.285.27.395.375.285.281.394.39c.11.114.282.293.391.41.11.118.285.305.394.426a46 46 0 0 1 .79.903c.109.129.285.34.39.476.11.133.285.352.395.489.11.14.285.363.394.507.11.141.285.375.395.52.11.148.285.387.394.539.11.148.282.394.39.55.11.153.286.403.395.563l.395.578c.11.164.285.426.395.594.109.164.28.434.39.602l.395.617c.11.176.285.453.394.633.11.175.285.46.395.64s.281.469.39.653a102.315 102.315 0 0 1 .79 1.336l.394.687.394.691c.106.196.282.508.391.704l.395.714.394.72.395.73c.11.203.281.53.39.734l.395.742c.11.207.285.543.394.75l.395.758c.11.211.281.547.39.758.11.215.286.555.395.77.11.21.285.554.395.769l.394.773c.11.215.285.563.39.782.11.214.286.562.395.78.11.216.285.567.395.782l.394.79.395.784c.11.22.281.57.39.79l.395.792.395.79.394.788c.11.22.281.57.39.79.11.218.286.566.395.785.11.218.285.57.395.785l.394.785c.11.215.282.563.391.777.11.22.285.563.394.778l.395.773c.11.215.285.559.395.77l.394.761c.106.211.281.551.39.762l.395.75c.11.207.285.543.395.746l.394.742.39.73c.11.204.286.524.395.727l.395.715c.11.2.285.512.395.707.109.196.28.508.39.7.11.19.285.5.395.69l.394.68c.11.184.285.485.395.669.11.183.285.476.39.656.11.183.286.469.395.648s.285.461.394.637l.395.621a84 84 0 0 0 1.18 1.797 72 72 0 0 0 .789 1.129c.11.152.281.394.39.543a62 62 0 0 0 .79 1.043c.109.14.285.36.394.496.11.137.281.351.39.484.11.133.286.34.395.469.11.125.285.328.395.45.109.12.285.316.394.433l.39.418c.11.113.286.293.395.402s.285.277.395.383l.394.367c.11.098.286.254.395.348s.281.238.39.328a14 14 0 0 0 .79.605c.109.079.285.204.394.278.11.07.281.187.39.254.11.07.286.175.395.238.11.062.285.16.395.219s.285.144.394.199c.11.05.286.133.391.18.11.046.285.117.395.16.109.043.285.105.394.14s.285.09.395.121c.109.032.285.079.394.102.106.027.281.063.39.082.11.02.286.047.395.063.11.015.285.035.395.043s.285.02.394.023c.11.004.282.004.39 0a7 7 0 0 0 .79-.055c.11-.011.285-.039.395-.054.109-.02.28-.055.39-.079.11-.023.285-.066.395-.097.11-.028.285-.082.394-.117s.285-.094.395-.133l.39-.156c.11-.047.286-.125.395-.176s.285-.137.394-.196c.11-.054.286-.152.395-.214a10 10 0 0 0 .785-.485c.11-.07.285-.191.395-.27.109-.077.285-.206.394-.288s.285-.22.395-.305a29 29 0 0 0 1.18-1.031l.394-.38a38 38 0 0 0 1.18-1.241c.109-.121.285-.32.394-.446.11-.125.285-.332.395-.465l.39-.476c.11-.137.285-.356.395-.496a58 58 0 0 0 .789-1.035 65 65 0 0 0 .785-1.094c.11-.156.285-.41.395-.567l.394-.582c.11-.164.281-.43.39-.597.11-.164.286-.438.395-.606l.395-.62.394-.634c.11-.175.286-.464.391-.644.11-.18.285-.473.395-.656l.394-.664.395-.68c.109-.188.285-.492.394-.688.106-.191.281-.5.39-.695l.395-.703.395-.715.394-.723c.11-.203.282-.527.39-.73.11-.203.286-.535.395-.738l.395-.746.395-.75c.109-.211.28-.547.39-.758l.395-.762c.11-.21.285-.555.394-.766l.395-.773c.11-.215.285-.559.39-.777l.395-.778.394-.78.395-.786.395-.79c.109-.218.28-.57.39-.788l.395-.79.394-.788"/></g><use xlink:href="#j" x="224.694" y="71.239"/><use xlink:href="#k" x="10.389" y="9.276"/><use xlink:href="#l" x="15.139" y="11.151"/></svg>