<svg xmlns="http://www.w3.org/2000/svg" xmlns:xlink="http://www.w3.org/1999/xlink" width="228.784" height="149.113"><defs><clipPath id="a"><path d="M215 130h13v16h-13Zm0 0"/></clipPath><clipPath id="c"><path d="M.57 90H6v23H.57Zm0 0"/></clipPath><clipPath id="g"><path d="M183 137h1v11.23h-1Zm0 0"/></clipPath><clipPath id="h"><path d="M177 147h13v1.23h-13Zm0 0"/></clipPath><clipPath id="i"><path d="M215 94h13v15h-13Zm0 0"/></clipPath><clipPath id="j"><path d="M215 3h13v15h-13Zm0 0"/></clipPath><path id="b" d="M4.281-2.453H.547v-.531H4.28Zm0 0"/><path id="k" d="M2.469-3.016H4.03v.454H2.47v1.671h-.485v-1.671H.422v-.454h1.562v-1.656h.485Zm0 0"/><path id="d" d="M2.39.094c.829 0 1.672-.422 2.407-1.203-.016-.079-.063-.141-.172-.141-.734.703-1.375.969-2.172.969-1.062 0-1.515-.906-1.515-1.953 0-.235.03-.485.078-.735.359-1.812 1.703-2.562 2.39-2.562 1.188 0 1.531.718 1.61 1.484l.25-.031c.015-.469.03-.906.093-1.375-.484-.031-.75-.406-1.796-.406C2.14-5.86.578-4.562.233-2.812c-.03.234-.062.437-.062.671C.172-.969.844.094 2.39.094m0 0"/><path id="l" d="M2.656.047c.11.11.344.11.453 0v-2.14H5.25c.11-.11.11-.344 0-.438H3.11v-2.14c-.11-.11-.344-.11-.454 0v2.14H.531c-.11.094-.11.328 0 .437h2.125Zm0 0"/><path id="e" d="M2.047-.875v-2.469c0-.422.015-.86.031-.953 0-.031-.015-.031-.047-.031-.39.234-.765.422-1.39.703 0 .078.03.156.093.203.329-.14.485-.187.625-.187.125 0 .141.172.141.422v2.312c0 .594-.187.625-.687.656-.047.047-.047.188 0 .235C1.156 0 1.422 0 1.797 0c.344 0 .516 0 .875.016.047-.047.047-.188 0-.235-.5-.031-.625-.062-.625-.656m0 0"/><path id="f" d="M.438-3.328c0 .14.125.265.28.265.126 0 .329-.124.329-.28 0-.063 0-.095-.016-.141C1.016-3.547.97-3.61.97-3.656c0-.188.187-.438.703-.438.266 0 .625.172.625.86 0 .453-.172.828-.594 1.25l-.516.53C.485-.75.375-.405.375.017c0 0 .36-.016.594-.016h1.234c.235 0 .563.016.563.016.093-.375.156-.907.172-1.125a.3.3 0 0 0-.204-.032c-.125.5-.25.672-.5.672H.97c0-.343.484-.828.515-.86l.72-.687c.405-.39.718-.703.718-1.25 0-.765-.625-1.078-1.203-1.078-.797 0-1.281.578-1.281 1.016m0 0"/></defs><path fill="none" stroke="#000" stroke-miterlimit="10" stroke-width=".39664191000000004" d="M4.621 137.973H22.79m0 0h36.332m0 0h36.332m0 0h36.332m0 0h54.5m0 0h36.332"/><path stroke="#000" stroke-miterlimit="10" stroke-width=".39664191000000004" d="M42.531 137.973a1.579 1.579 0 1 0-3.157 0 1.579 1.579 0 0 0 3.157 0ZM78.863 137.973a1.579 1.579 0 1 0-3.157 0 1.579 1.579 0 0 0 3.157 0ZM115.195 137.973a1.579 1.579 0 1 0-3.157 0 1.579 1.579 0 0 0 3.157 0ZM151.527 137.973a1.575 1.575 0 1 0-3.152 0 1.575 1.575 0 1 0 3.152 0Zm0 0"/><path fill="#FFF" d="M224.195 137.973a1.579 1.579 0 1 0-3.157 0 1.579 1.579 0 0 0 3.157 0m0 0"/><g clip-path="url(#a)"><path fill="none" stroke="#000" stroke-miterlimit="10" stroke-width=".39664191000000004" d="M224.195 137.973a1.579 1.579 0 1 0-3.157 0 1.579 1.579 0 0 0 3.157 0Zm0 0"/></g><use xlink:href="#b" x="220.198" y="144.128"/><path fill="none" stroke="#000" stroke-miterlimit="10" stroke-width=".39664191000000004" d="M4.621 137.973v-26.16m0-20.348V65.309H22.79m0 0h36.332m0 0h36.332m0 0h33.79m5.085 0h24.707m0 0h9.082"/><g clip-path="url(#c)"><path fill="none" stroke="#000" stroke-linejoin="bevel" stroke-miterlimit="10" stroke-width=".79228973" d="M4.781 112.21c-2.11 0-3.816-1.183-3.816-2.644 0-1.46 1.707-2.64 3.816-2.64-2.11 0-3.816-1.184-3.816-2.645 0-1.457 1.707-2.64 3.816-2.64-2.11 0-3.816-1.184-3.816-2.645 0-1.457 1.707-2.64 3.816-2.64-2.11 0-3.816-1.184-3.816-2.641 0-1.461 1.707-2.645 3.816-2.645"/></g><path stroke="#000" stroke-miterlimit="10" stroke-width=".39664191000000004" d="M42.531 65.309a1.579 1.579 0 1 0-3.157 0 1.579 1.579 0 0 0 3.157 0ZM78.863 65.309a1.579 1.579 0 1 0-3.157 0 1.579 1.579 0 0 0 3.157 0ZM115.195 65.309a1.579 1.579 0 1 0-3.157 0 1.579 1.579 0 0 0 3.157 0Zm0 0"/><path fill="none" stroke="#000" stroke-miterlimit="10" stroke-width=".79228973" d="M129.242 57.676v15.261m5.086-15.261v15.261"/><path stroke="#000" stroke-miterlimit="10" stroke-width=".39664191000000004" d="M151.527 65.309a1.575 1.575 0 1 0-3.152 0 1.575 1.575 0 1 0 3.152 0Zm0 0"/><path fill="none" stroke="#000" stroke-miterlimit="10" stroke-width=".79228973" d="M188.508 65.309a9.432 9.432 0 1 0-18.865-.003 9.432 9.432 0 0 0 18.865.003Zm0 0"/><path fill="none" stroke="#000" stroke-miterlimit="10" stroke-width=".39664191000000004" d="M183.375 51.121v8.59l-7.629 3.5"/><path fill="none" stroke="#000" stroke-miterlimit="10" stroke-width=".79228973" d="M175.746 59.71v11.192"/><path fill="none" stroke="#000" stroke-miterlimit="10" stroke-width=".39664191000000004" d="m175.746 67.406 7.63 3.496v8.59"/><path d="m177.813 68.352.949-2.067 3.668 4.184-5.563-.051Zm0 0"/><path fill="none" stroke="#000" stroke-miterlimit="10" stroke-width=".39664191000000004" d="M175.746 65.309h-7.828M40.953 137.973v-33.79m0-5.085v-33.79"/><path fill="none" stroke="#000" stroke-miterlimit="10" stroke-width=".79228973" d="M33.324 104.184h15.258m-15.258-5.086h15.258M48.582 109.27 36.566 97.254"/><path stroke="#000" stroke-miterlimit="10" stroke-width=".7922658200000001" d="m33.883 94.57 1.012 4.078 1.53-1.535 1.536-1.531Zm0 0"/><path fill="none" stroke="#000" stroke-miterlimit="10" stroke-width=".39664191000000004" d="M77.285 137.973v-33.79m0-5.085v-33.79"/><path fill="none" stroke="#000" stroke-miterlimit="10" stroke-width=".79228973" d="M69.656 104.184h15.258m-15.258-5.086h15.258M84.914 109.27 70.078 94.43"/><path fill="none" stroke="#000" stroke-miterlimit="10" stroke-width=".7922658200000001" d="m67.766 96.46 4.34-4.339"/><path fill="none" stroke="#000" stroke-miterlimit="10" stroke-width=".39664191000000004" d="M113.617 65.309v15.62m0 5.087v31.246m0 5.086v15.625"/><path fill="none" stroke="#000" stroke-miterlimit="10" stroke-width=".79228973" d="M121.25 80.93h-15.262m15.262 5.086h-15.262"/><use xlink:href="#d" x="95.046" y="85.614"/><use xlink:href="#e" x="99.921" y="87.486"/><path fill="none" stroke="#000" stroke-miterlimit="10" stroke-width=".79228973" d="M121.25 117.262h-15.262m15.262 5.086h-15.262"/><path stroke="#000" stroke-miterlimit="10" stroke-width=".39664191000000004" d="M115.195 101.64a1.579 1.579 0 1 0-3.157.002 1.579 1.579 0 0 0 3.157-.001Zm0 0"/><use xlink:href="#d" x="95.046" y="121.946"/><use xlink:href="#f" x="99.921" y="123.817"/><path fill="none" stroke="#000" stroke-miterlimit="10" stroke-width=".39664191000000004" d="M149.95 65.309v18.164m0 0v26.16m0 20.347v7.993"/><path fill="none" stroke="#000" stroke-miterlimit="10" stroke-width=".79228973" d="M146.137 129.98v-20.347h7.629v20.347Zm0 0"/><path fill="none" stroke="#000" stroke-miterlimit="10" stroke-width=".39664191000000004" d="M183.375 79.297v11.172m0 0v19.164m0 20.347v7.993"/><path stroke="#000" stroke-miterlimit="10" stroke-width=".39664191000000004" d="M184.953 101.64a1.576 1.576 0 1 0-3.152 0 1.575 1.575 0 1 0 3.152 0Zm0 0"/><path fill="none" stroke="#000" stroke-miterlimit="10" stroke-width=".79228973" d="M179.563 129.98v-20.347h7.628v20.347Zm0 0"/><path stroke="#000" stroke-miterlimit="10" stroke-width=".39664191000000004" d="M184.953 137.973a1.576 1.576 0 1 0-3.152 0 1.575 1.575 0 1 0 3.152 0Zm0 0"/><g clip-path="url(#g)"><path fill="none" stroke="#000" stroke-miterlimit="10" stroke-width=".39664191000000004" d="M183.375 137.973v9.863"/></g><g clip-path="url(#h)"><path fill="none" stroke="#000" stroke-linecap="round" stroke-miterlimit="10" stroke-width=".79228973" d="M177.461 147.836h11.832"/></g><path fill="none" stroke="#000" stroke-miterlimit="10" stroke-width=".39664191000000004" d="M113.617 101.64h34.88m0 0h51.956m5.086 0h17.078"/><path fill="none" stroke="#000" stroke-miterlimit="10" stroke-width=".79228973" d="M200.453 94.012v15.258m5.086-15.258v15.258"/><path fill="#FFF" d="M224.195 101.64a1.579 1.579 0 1 0-3.157.002 1.579 1.579 0 0 0 3.157-.001m0 0"/><g clip-path="url(#i)"><path fill="none" stroke="#000" stroke-miterlimit="10" stroke-width=".39664191000000004" d="M224.195 101.64a1.579 1.579 0 1 0-3.157.002 1.579 1.579 0 0 0 3.157-.001Zm0 0"/></g><path fill="none" stroke="#000" stroke-miterlimit="10" stroke-width=".39664191000000004" d="M149.95 65.309V48.23m0-20.343V10.809h16.714m0 0h16.711v20.253m0 0V51.32"/><path fill="none" stroke="#000" stroke-miterlimit="10" stroke-width=".79228973" d="M153.766 27.887V48.23h-7.63V27.887Zm0 0"/><path stroke="#000" stroke-miterlimit="10" stroke-width=".39664191000000004" d="M151.527 10.809a1.575 1.575 0 1 0-3.152 0 1.575 1.575 0 1 0 3.152 0ZM184.953 10.809a1.576 1.576 0 1 0-3.152 0 1.575 1.575 0 1 0 3.152 0Zm0 0"/><path fill="none" stroke="#000" stroke-miterlimit="10" stroke-width=".39664191000000004" d="M183.375 10.809h9.45m20.343 0h9.45"/><path fill="none" stroke="#000" stroke-miterlimit="10" stroke-width=".79228973" d="M192.824 6.992h20.344v7.633h-20.344Zm0 0"/><path fill="#FFF" d="M224.195 10.809a1.579 1.579 0 1 0-3.157 0 1.579 1.579 0 0 0 3.157 0m0 0"/><g clip-path="url(#j)"><path fill="none" stroke="#000" stroke-miterlimit="10" stroke-width=".39664191000000004" d="M224.195 10.809a1.579 1.579 0 1 0-3.157 0 1.579 1.579 0 0 0 3.157 0Zm0 0"/></g><use xlink:href="#k" x="220.385" y="7.642"/><path fill="none" stroke="#000" stroke-miterlimit="10" stroke-width=".39664191000000004" d="M149.95 10.809h-18.165m0 0H95.453m0 0H59.121m0 0H40.953v15.625m0 5.085v15.622h18.168m0 0h36.332m0 0h18.164V34.062m0-10.175V10.809"/><path stroke="#000" stroke-miterlimit="10" stroke-width=".39664191000000004" d="M115.195 10.809a1.579 1.579 0 1 0-3.157 0 1.579 1.579 0 0 0 3.157 0ZM78.863 10.809a1.579 1.579 0 1 0-3.157 0 1.579 1.579 0 0 0 3.157 0Zm0 0"/><path fill="none" stroke="#000" stroke-miterlimit="10" stroke-width=".79228973" d="M48.582 26.434H33.324m15.258 5.085H33.324"/><path fill="none" stroke="#000" stroke-miterlimit="10" stroke-width=".39664191000000004" d="M77.285 47.14v9.864"/><path fill="none" stroke="#000" stroke-linecap="round" stroke-miterlimit="10" stroke-width=".79228973" d="M71.367 57.004h11.836"/><path fill="none" stroke="#000" stroke-miterlimit="10" stroke-width=".79228973" d="m113.617 23.887-6.355 10.175h12.715Zm0 0"/><path fill="none" stroke="#000" stroke-miterlimit="10" stroke-width=".39664191000000004" d="M113.617 23.887v10.175"/><path fill="none" stroke="#000" stroke-miterlimit="10" stroke-width=".79228973" d="M119.977 23.887h-12.715v2.035"/><path fill="none" stroke="#000" stroke-miterlimit="10" stroke-width=".39664191000000004" d="M77.285 10.809v15.625m0 5.085v15.622"/><path fill="none" stroke="#000" stroke-miterlimit="10" stroke-width=".79228973" d="M84.914 26.434H69.656m15.258 5.085H69.656"/><use xlink:href="#l" x="30.435" y="23.113"/></svg>