<svg xmlns="http://www.w3.org/2000/svg" xmlns:xlink="http://www.w3.org/1999/xlink" width="229.874" height="178.653"><defs><path id="b" d="M2.578-1.094v-3.11c0-.53.016-1.077.031-1.202 0-.032-.015-.032-.062-.032-.485.297-.969.516-1.75.891.015.094.047.188.14.234.407-.156.61-.218.766-.218s.188.218.188.515v2.922c0 .75-.25.797-.875.813-.047.062-.047.25 0 .297C1.453.016 1.78 0 2.266 0c.422 0 .64.016 1.093.016.047-.047.047-.235 0-.297-.625-.016-.78-.063-.78-.813m0 0"/><path id="c" d="M.766-1.094c0 .75-.094.782-.594.813-.063.062-.063.25 0 .297C.469.016.766 0 1.125 0c.313 0 .61.016.813.016C2-.031 2-.22 1.938-.281c-.36-.031-.454-.063-.454-.813v-.781c.157.016.282.016.375.047.094.078.188.156.297.297l.64.875c.267.36.376.515.376.625q0 .047.047.047C3.39.016 3.594 0 3.766 0c.28 0 .562.016.734.016.063-.047.063-.235 0-.297-.297-.031-.531-.063-.766-.375L2.547-2.141c-.031-.046-.063-.078-.063-.125 0-.03 0-.046.047-.093l.781-.813c.266-.281.579-.36.938-.39.063-.047.063-.25 0-.297-.203.015-.453.015-.781.015s-.672 0-.875-.015c-.047.046-.047.25 0 .297.5.03.297.343.203.453a4.5 4.5 0 0 1-.703.734c-.203.14-.453.25-.61.281v-3.125c0-.578.032-.937.032-.937 0-.063-.032-.094-.125-.094C1.17-6.156.5-6.031.14-6c-.016.063 0 .203.062.266h.078c.39.015.485.015.485.734Zm0 0"/><path id="d" d="M4.094-1.047c.984-.328 1.75-1.25 1.75-2.328 0-1.328-.922-2.516-2.703-2.516C1.375-5.89.453-4.562.453-3.375c0 1.14.781 2 1.735 2.328l.046.422h-1c-.421 0-.578 0-.609-.437a.3.3 0 0 0-.234 0C.39-.703.406-.344.453 0H2.36c.11 0 .157-.047.157-.14l-.079-1.141c-.812-.547-1.171-1.094-1.171-2.11 0-1.14.625-2.203 1.875-2.203 1.172 0 1.875.953 1.875 2.219 0 .969-.344 1.625-1.172 2.094L3.766-.125c0 .078.046.125.156.125h1.86c.03-.297.062-.703.062-1.062q-.093-.048-.235 0c-.046.453-.203.453-.546.437h-1Zm0 0"/><path id="f" d="M4.016-5.5c.656.047.656.297.468.766L3.078-1.141h-.047L1.61-4.78c-.218-.532-.156-.657.454-.719.046-.047.046-.234 0-.297-.36.016-.766.016-1.094.016-.313 0-.625 0-.922-.016-.063.063-.047.25 0 .297.5.047.578.203.812.813L2.625-.095c.047.14.11.203.203.203s.156-.078.219-.203L4.89-4.672c.172-.406.312-.766.89-.828.047-.047.047-.234 0-.297-.281.016-.593.016-.797.016-.203 0-.609 0-.968-.016-.063.063-.063.25 0 .297m0 0"/><path id="h" d="M1.922-5.14c.39 0 .75.218.75.796 0 .453-.516 1.14-1.406 1.266l.046.281c.141-.015.313-.015.422-.015.516 0 1.172.14 1.172 1.156C2.906-.47 2.11-.22 1.796-.22c-.452 0-.53-.218-.64-.375-.093-.125-.203-.234-.39-.234-.188 0-.375.172-.375.312 0 .36.75.61 1.297.61 1.062 0 2.015-.688 2.015-1.875 0-.969-.734-1.328-1.265-1.422l-.016-.016c.734-.344.937-.719.937-1.187a.95.95 0 0 0-.265-.703c-.203-.203-.516-.36-.985-.36-1.312 0-1.687.86-1.687 1.157 0 .125.094.312.297.312.312 0 .36-.297.36-.469 0-.578.609-.672.843-.672m0 0"/><path id="i" d="M.938-.844c-.282 0-.485.188-.485.438 0 .265.235.36.39.39.173.016.329.063.329.282 0 .187-.328.593-.781.703 0 .094.015.156.078.219C1 1.094 1.516.656 1.516.03c0-.531-.22-.875-.578-.875m0 0"/><path id="j" d="M1.516-4.797h1.609C2.422-3.047 1.719-1.313 1.109.047l.079.062.609-.015c.5-1.531 1-3.016 2-5.453l-.14-.11c-.157.047-.36.094-.688.094H1.125c-.312 0-.297-.094-.453-.125-.031 0-.031 0-.031.031C.625-5.047.53-4.5.453-4.03c.11.015.188.031.297.015.188-.718.484-.78.766-.78m0 0"/><path id="k" d="M5.938-1.031c.046.718 0 .734-.579.75-.046.062-.046.25 0 .297.329 0 .688-.016.97-.016.265 0 .671.016.968.016.047-.047.047-.235 0-.297-.61-.016-.64-.063-.688-.797L6.344-4.86c-.047-.485 0-.61.61-.641.062-.047.062-.234 0-.297L5.78-5.78l-1.89 4.547c-.047.093-.063.125-.079.125-.03 0-.046-.047-.078-.125L1.891-5.781.594-5.797c-.047.063-.047.25 0 .297.625.031.672.063.61.734l-.36 3.688c-.047.531-.156.75-.672.797-.047.062-.047.25 0 .297C.453.016.734 0 .953 0c.203 0 .563.016.844.016.047-.047.047-.235 0-.297-.594-.047-.64-.313-.594-.813l.344-3.593h.016l1.843 4.64c.031.063.078.14.14.14.048 0 .095-.062.126-.14L5.687-4.78h.016Zm0 0"/><path id="l" d="M5.531-1.094v-3.593c0-.735.157-.782.782-.813.046-.047.046-.234 0-.297-.375.016-.829.016-1.172.016-.328 0-.75 0-1.141-.016-.062.063-.062.25 0 .297.625.031.766.078.766.813v1.437H1.703v-1.437c0-.735.156-.782.781-.813.063-.047.063-.234 0-.297-.328.016-.703.016-1.156.016s-.812 0-1.156-.016c-.063.063-.063.25 0 .297.625.031.781.078.781.813v3.593c0 .75-.156.797-.781.813-.063.062-.063.25 0 .297C.562.016 1 0 1.328 0s.766.016 1.156.016c.063-.047.063-.235 0-.297-.625-.016-.78-.063-.78-.813v-1.781h3.062v1.781c0 .75-.141.797-.766.813-.062.062-.062.25 0 .297C4.39.016 4.828 0 5.156 0s.766.016 1.157.016c.046-.047.046-.235 0-.297-.625-.016-.782-.063-.782-.813m0 0"/><path id="m" d="M.64-3.937c-.015 0-.062.046-.062.062 0 .406-.047.719-.125 1.156a.6.6 0 0 0 .297.031c.172-.656.453-.812.719-.828l1.14-.015C2-2.516 1.11-1.234.406-.281c-.078.11-.078.125-.078.172 0 .062.078.109.203.109l2.797.031a7 7 0 0 0 .281-1.218c-.046-.047-.156-.063-.265-.063l-.125.266c-.219.468-.406.672-.875.687H1.156c.657-.844 1.594-2.25 2.14-3.172.142-.219.173-.297.173-.328s-.047-.062-.11-.062c-.046 0-.296.015-.562.015h-1.64c-.282 0-.391-.047-.516-.094m0 0"/><path id="u" d="M1.578 1.563c-.094.156-.266.265-.406.265-.11 0-.156-.062-.219-.14-.078-.125-.25-.297-.437-.297-.25 0-.344.172-.344.328 0 .203.219.406.828.406.375 0 .766-.172 1.047-.562.25-.344.437-1.032.797-2.72.14-.702.281-1.437.422-2.187l.015-.14h.844c.078 0 .203-.047.219-.11 0 0 .047-.187.047-.203 0-.031-.016-.047-.063-.047h-.984l.11-.5c.124-.672.25-1.078.374-1.328.14-.25.25-.312.36-.312.14 0 .156.078.187.25.031.187.11.422.39.422a.31.31 0 0 0 .329-.297c0-.328-.297-.641-.828-.641a1 1 0 0 0-.61.25c-.297.219-.672.563-1 2.156l-.594.031c-.171 0-.234.079-.25.157a.5.5 0 0 0-.046.14c0 .032.03.032.046.032h.75c-.203 1.015-.25 1.547-.359 2.218-.14.86-.281 2.329-.625 2.829m0 0"/><path id="w" d="M.531-1.656c-.11.11-.11.343 0 .453h4.735c.109-.11.109-.344 0-.453Zm0-1.797c-.11.11-.11.344 0 .453h4.735c.109-.11.109-.344 0-.453Zm0 0"/><path id="g" d="M4.5-2.75c0-.125-.047-.25-.203-.25-.11 0-.203.078-.203.188-.032.343-.235.89-.657.89-.624 0-1.015-1.094-1.859-1.094C.75-3.016.516-2 .516-1.78c0 .125.046.25.203.25.11 0 .187-.078.203-.188.031-.343.234-.89.656-.89.61 0 1.016 1.093 1.86 1.093.828 0 1.062-1.03 1.062-1.234m0 0"/><path id="o" d="m4.5-.484-.594-1.641H1.688l-.594 1.64.672.126q.124.017.125.093 0 .066-.094.266H-.078a.2.2 0 0 1-.016-.078Q-.096-.342.22-.406l.25-.063L2.64-6.172l.562-.078L5.36-.469l.391.11q.124.034.125.093 0 .048-.094.266H3.86a.16.16 0 0 1-.015-.078c0-.164.101-.274.312-.328Zm-2.64-2.11h1.89l-.937-2.625h-.016Zm0 0"/><path id="p" d="m.781-3.812-.64-.079a.2.2 0 0 1-.016-.078q0-.246.328-.281l1.063-.094v2.797q0 1.048.89 1.047.686 0 1.11-.437v-2.875l-.657-.079v-.078q0-.246.329-.281l1.062-.094V-.5l.64.094q.014.047.016.078 0 .252-.328.281l-1 .094v-.578h-.031c-.344.43-.793.64-1.344.64Q.78.11.781-1.5Zm0 0"/><path id="q" d="M1-.578q.264.204.656.203c.508 0 .766-.195.766-.594q-.002-.234-.25-.468a5 5 0 0 0-.578-.407q-.534-.327-.75-.562a1.26 1.26 0 0 1-.344-.86q0-.513.39-.828.405-.311 1.032-.312.576 0 .953.312.03.33.031.547-.002.439-.344.438h-.078l-.109-.657a1.08 1.08 0 0 0-.61-.187c-.43 0-.64.18-.64.531 0 .242.164.477.5.703q.48.3.938.61.515.409.515.953 0 .532-.422.906-.41.362-1.078.36C1.128.11.766.022.484-.14a3.7 3.7 0 0 1-.078-.735q0-.436.344-.437.03.002.078.015Zm0 0"/><path id="r" d="M.5-2.984Q.499-3.64.984-4.047q.45-.359 1.141-.36c.238 0 .46.04.672.11h1.531l-.094.484h-.75c.188.243.282.516.282.829q-.001.69-.5 1.093-.471.375-1.188.375-.204 0-.437-.046c-.18.117-.266.257-.266.421q0 .33.469.329h1.015q.594.001.922.265a.83.83 0 0 1 .344.703q0 .717-.61 1.203c-.437.352-1.007.532-1.703.532C.75 1.89.22 1.539.22.844c0-.524.27-.875.812-1.063v-.015a.64.64 0 0 1-.343-.594q0-.5.609-.828v-.016Q.5-2.047.5-2.984M2.125-1.97q.938.001.938-1-.001-.467-.266-.719a.87.87 0 0 0-.656-.265c-.618 0-.922.328-.922.984 0 .668.3 1 .906 1m-.39 1.86q-.19.002-.36-.032C1.082.012.938.266.938.61q0 .797.984.797.686 0 1.11-.281.374-.268.374-.672-.001-.562-.734-.562Zm0 0"/><path id="s" d="M2.672-2.781q0-.594-.188-.875-.175-.281-.609-.281-.281 0-.516.093c-.086.156-.156.422-.218.797H.953q-.438 0-.437-.375 0-.406.468-.687a1.9 1.9 0 0 1 1.032-.297c.914 0 1.375.508 1.375 1.515v1.954c0 .343.101.515.312.515a.48.48 0 0 0 .328-.11q.077.112.078.25c0 .063-.054.134-.156.204a.94.94 0 0 1-.547.156q-.61 0-.687-.61h-.016Q2.282.112 1.484.11.97.11.656-.203.343-.514.344-1.031c0-.438.219-.774.656-1.016.383-.207.86-.312 1.422-.312h.25ZM1.766-.453q.514 0 .906-.469v-1.031l-.25.016q-1.299.11-1.297.812c0 .45.21.672.64.672m0 0"/><path id="t" d="M.906-.469v-3.343l-.64-.079a.2.2 0 0 1-.016-.078q0-.246.328-.281l1.063-.094-.063.594h.031q.311-.293.516-.422.42-.234.969-.234.654 0 1.015.422c.239.28.36.68.36 1.187v2.328l.547.125q.124.017.125.11A.35.35 0 0 1 5.047 0h-1.89a.1.1 0 0 1-.016-.062c0-.133.093-.235.28-.297l.329-.11V-2.75c0-.363-.102-.64-.297-.828a.99.99 0 0 0-.672-.235q-.644.001-1.14.454v2.89l.53.125q.125.017.126.11A.4.4 0 0 1 2.219 0H.313a.1.1 0 0 1-.016-.062c0-.133.094-.235.281-.297Zm0 0"/><path id="v" d="M.297-1.469c0 .735.484 1.547 1.5 1.547.453 0 .812-.172 1.047-.406.328-.313.469-.766.469-1.203 0-.75-.407-1.61-1.5-1.61-.47 0-.86.188-1.125.5-.266.313-.391.72-.391 1.172M1.703-2.89c.61 0 1 .563 1 1.594 0 .89-.469 1.125-.812 1.125-.735 0-.985-.906-.985-1.453 0-.625.156-1.266.797-1.266m0 0"/><clipPath id="a"><path d="M10.031 21.445h15.84v6.336h-15.84Zm0 6.336h6.336v3.168h-6.336Zm0 3.168h15.84v6.336h-15.84Zm0 0"/></clipPath><clipPath id="e"><path d="M202.379 60.965h15.84V67.3h-15.84Zm9.504 6.336h6.336v3.168h-6.336Zm-9.504 3.168h15.84v6.336h-15.84Zm0 0"/></clipPath><clipPath id="n"><path d="M10.031 100.484h15.84v6.336h-15.84Zm0 6.336h6.336v3.168h-6.336Zm0 3.168h15.84v6.336h-15.84Zm0 0"/></clipPath></defs><path fill="none" stroke="#000" stroke-miterlimit="10" stroke-width=".39822594" d="M21.91 29.363h10.504m31.688 0h10.503v19.762m0 0v19.762h18.426m15.844 0h40.809m7.921 0h35.559m0 0h13.176"/><g clip-path="url(#a)"><path fill="none" stroke="#000" stroke-miterlimit="10" stroke-width=".79545382" d="M21.91 29.363a3.96 3.96 0 1 0-7.916.006 3.96 3.96 0 0 0 7.916-.006Zm0 0"/></g><path fill="none" stroke="#000" stroke-miterlimit="10" stroke-width=".79545382" d="M19.535 29.363a1.584 1.584 0 1 0-3.168.003 1.584 1.584 0 0 0 3.168-.003Zm0 0"/><path fill="none" stroke="#000" stroke-miterlimit="10" stroke-width=".39822594" d="M19.535 29.363h2.375"/><path fill="none" stroke="#000" stroke-miterlimit="10" stroke-width=".79545382" d="M32.414 23.422h31.688v11.883H32.414Zm0 0"/><use xlink:href="#b" x="40.023" y="45.132"/><use xlink:href="#c" x="45.669" y="45.132"/><use xlink:href="#d" x="50.251" y="45.132"/><path stroke="#000" stroke-miterlimit="10" stroke-width=".39822594" d="M76.187 68.887a1.584 1.584 0 1 0-3.167-.005 1.584 1.584 0 0 0 3.167.005Zm0 0"/><path fill="none" stroke="#000" stroke-miterlimit="10" stroke-width=".79545382" d="m108.875 68.887-15.844-9.903v19.801Zm0 0"/><path fill="none" stroke="#000" stroke-miterlimit="10" stroke-width=".39822594" d="M108.875 68.887H93.031"/><path fill="none" stroke="#000" stroke-miterlimit="10" stroke-width=".79545382" d="M108.875 78.785v-19.8"/><path stroke="#000" stroke-miterlimit="10" stroke-width=".39822594" d="M128.883 68.887a1.584 1.584 0 1 0-3.168-.004 1.584 1.584 0 0 0 3.168.004Zm0 0"/><path fill="none" stroke="#000" stroke-miterlimit="10" stroke-width=".79545382" d="M149.684 57.004v23.762m7.921-23.762v23.762"/><path stroke="#000" stroke-miterlimit="10" stroke-width=".39822594" d="M181.574 68.887a1.584 1.584 0 1 0-3.167-.005 1.584 1.584 0 0 0 3.167.005Zm0 0"/><g clip-path="url(#e)"><path fill="none" stroke="#000" stroke-miterlimit="10" stroke-width=".79545382" d="M206.34 68.887c0-2.188 1.77-3.961 3.957-3.961a3.96 3.96 0 1 1-3.957 3.96Zm0 0"/></g><path fill="none" stroke="#000" stroke-miterlimit="10" stroke-width=".79545382" d="M208.715 68.887a1.584 1.584 0 1 1 3.167-.005 1.584 1.584 0 0 1-3.167.005Zm0 0"/><path fill="none" stroke="#000" stroke-miterlimit="10" stroke-width=".39822594" d="M208.715 68.887h-2.375"/><use xlink:href="#b" x="8.734" y="22.116"/><use xlink:href="#f" x="14.381" y="22.116"/><use xlink:href="#g" x="22.154" y="22.116"/><use xlink:href="#h" x="3.142" y="8.772"/><use xlink:href="#i" x="7.303" y="8.772"/><use xlink:href="#j" x="9.272" y="8.772"/><use xlink:href="#k" x="14.919" y="8.772"/><use xlink:href="#l" x="22.427" y="8.772"/><use xlink:href="#m" x="28.96" y="8.772"/><path fill="none" stroke="#000" stroke-miterlimit="10" stroke-width=".39822594" d="M74.605 68.887v39.52H64.102m-31.688 0H21.91"/><path fill="none" stroke="#000" stroke-miterlimit="10" stroke-width=".79545382" d="M32.414 102.465h31.688v11.883H32.414Zm0 0"/><use xlink:href="#b" x="40.023" y="124.171"/><use xlink:href="#c" x="45.669" y="124.171"/><use xlink:href="#d" x="50.251" y="124.171"/><g clip-path="url(#n)"><path fill="none" stroke="#000" stroke-miterlimit="10" stroke-width=".79545382" d="M21.91 108.406c0-2.187-1.77-3.96-3.957-3.96a3.96 3.96 0 0 0-3.96 3.96 3.96 3.96 0 0 0 3.96 3.957 3.954 3.954 0 0 0 3.957-3.957Zm0 0"/></g><path fill="none" stroke="#000" stroke-miterlimit="10" stroke-width=".79545382" d="M19.535 108.406a1.584 1.584 0 1 0-3.167-.004 1.584 1.584 0 0 0 3.167.004Zm0 0"/><path fill="none" stroke="#000" stroke-miterlimit="10" stroke-width=".39822594" d="M19.535 108.406h2.375"/><use xlink:href="#b" x="8.734" y="101.155"/><use xlink:href="#f" x="14.381" y="101.155"/><use xlink:href="#g" x="22.154" y="101.155"/><use xlink:href="#b" x="7.67" y="88.974"/><use xlink:href="#c" x="13.317" y="88.974"/><use xlink:href="#l" x="17.899" y="88.974"/><use xlink:href="#m" x="24.432" y="88.974"/><path fill="none" stroke="#000" stroke-miterlimit="10" stroke-width=".39822594" d="M127.297 68.887v13.172m0 0v23.675m0 31.688v10.504"/><path fill="none" stroke="#000" stroke-linejoin="bevel" stroke-miterlimit="10" stroke-width=".79545382" d="M127.14 105.336c3.282 0 5.942 1.82 5.942 4.062s-2.66 4.059-5.941 4.059c3.28 0 5.941 1.816 5.941 4.062 0 2.243-2.66 4.06-5.941 4.06 3.28 0 5.941 1.815 5.941 4.058s-2.66 4.062-5.941 4.062c3.28 0 5.941 1.817 5.941 4.059s-2.66 4.062-5.941 4.062"/><path fill="none" stroke="#000" stroke-miterlimit="10" stroke-width=".39822594" d="M127.297 147.926v9.902"/><path fill="none" stroke="#000" stroke-linecap="round" stroke-miterlimit="10" stroke-width=".79545382" d="M121.355 157.828h11.883"/><path fill="none" stroke="#000" stroke-miterlimit="10" stroke-width=".39822594" d="M17.953 33.324v9.903"/><path fill="none" stroke="#000" stroke-linecap="round" stroke-miterlimit="10" stroke-width=".79545382" d="M12.012 43.227h11.883"/><path fill="none" stroke="#000" stroke-miterlimit="10" stroke-width=".39822594" d="M210.297 72.844v9.902"/><path fill="none" stroke="#000" stroke-linecap="round" stroke-miterlimit="10" stroke-width=".79545382" d="M204.355 82.746h11.883"/><path fill="none" stroke="#000" stroke-miterlimit="10" stroke-width=".39822594" d="M17.953 112.363v9.903"/><path fill="none" stroke="#000" stroke-linecap="round" stroke-miterlimit="10" stroke-width=".79545382" d="M12.012 122.266h11.883"/><path fill="none" stroke="#000" stroke-dasharray="2.9830316698 1.9886844529999999" stroke-miterlimit="10" stroke-width=".39822594" d="M135.227 105.734v31.688"/><path fill="none" stroke="#000" stroke-miterlimit="10" stroke-width=".39822594" d="M179.992 68.887V95.23H160.23v10.504m0 31.688v10.504"/><path stroke="#000" stroke-miterlimit="10" stroke-width=".39822594" d="M181.574 95.23a1.584 1.584 0 1 0-3.168.003 1.584 1.584 0 0 0 3.168-.003Zm0 0"/><path fill="none" stroke="#000" stroke-linejoin="bevel" stroke-miterlimit="10" stroke-width=".79545382" d="M160.074 105.336c3.277 0 5.938 1.82 5.938 4.062s-2.66 4.059-5.938 4.059c3.277 0 5.938 1.816 5.938 4.062 0 2.243-2.66 4.06-5.938 4.06 3.277 0 5.938 1.815 5.938 4.058s-2.66 4.062-5.938 4.062c3.277 0 5.938 1.817 5.938 4.059s-2.66 4.062-5.938 4.062"/><path fill="none" stroke="#000" stroke-miterlimit="10" stroke-width=".39822594" d="M160.23 147.926v9.902"/><path fill="none" stroke="#000" stroke-linecap="round" stroke-miterlimit="10" stroke-width=".79545382" d="M154.289 157.828h11.883"/><path fill="none" stroke="#000" stroke-dasharray="2.9830316698 1.9886844529999999" stroke-miterlimit="10" stroke-width=".39822594" d="M168.16 105.734v31.688"/><path fill="none" stroke="#000" stroke-miterlimit="10" stroke-width=".39822594" d="M179.992 95.23h19.758v22.387m0 7.922v22.387"/><path fill="none" stroke="#000" stroke-miterlimit="10" stroke-width=".79545382" d="M211.633 117.617h-23.766m23.766 7.922h-23.766"/><path fill="none" stroke="#000" stroke-miterlimit="10" stroke-width=".39822594" d="M199.75 147.926v9.902"/><path fill="none" stroke="#000" stroke-linecap="round" stroke-miterlimit="10" stroke-width=".79545382" d="M193.809 157.828h11.882"/><use xlink:href="#o" x="193.986" y="59.846"/><use xlink:href="#p" x="199.732" y="59.846"/><use xlink:href="#q" x="204.824" y="59.846"/><use xlink:href="#r" x="208.287" y="59.846"/><use xlink:href="#s" x="212.726" y="59.846"/><use xlink:href="#t" x="216.905" y="59.846"/><use xlink:href="#r" x="222.167" y="59.846"/><use xlink:href="#u" x="155.914" y="173.195"/><use xlink:href="#v" x="159.682" y="175.073"/><use xlink:href="#w" x="166.162" y="173.195"/><use xlink:href="#h" x="174.439" y="173.195"/><use xlink:href="#i" x="178.601" y="173.195"/><use xlink:href="#j" x="180.569" y="173.195"/><use xlink:href="#k" x="186.225" y="173.195"/><use xlink:href="#l" x="193.733" y="173.195"/><use xlink:href="#m" x="200.266" y="173.195"/></svg>