<svg xmlns="http://www.w3.org/2000/svg" xmlns:xlink="http://www.w3.org/1999/xlink" width="227.833" height="158.215"><defs><path id="b" d="m6-.484-.078-4.22h-.016L4.031-.077h-.5L1.687-4.75h-.015L1.594-.484l.625.125q.124.017.125.093c0 .032-.04.121-.11.266H.391v-.078Q.389-.324.688-.406l.39-.078.063-5.203-.547-.125c-.086-.008-.125-.04-.125-.094q0-.075.094-.25h1.406l1.937 4.922h.016l2-4.922h1.5a.2.2 0 0 1 .016.078q-.001.236-.313.312l-.422.079.078 5.203.61.125q.124.017.125.093 0 .048-.094.266H5.328a.16.16 0 0 1-.016-.078q-.002-.246.313-.328Zm0 0"/><path id="c" d="M2.594-6.156v.078c0 .156-.102.262-.297.312l-.422.079v2.28h2.984v-2.28l-.562-.125c-.086-.008-.125-.04-.125-.094q-.001-.075.11-.25h2.062q.013.033.015.078 0 .236-.312.312l-.422.079v5.203l.625.125q.124.017.125.093c0 .032-.04.121-.11.266H4.173v-.078q0-.246.297-.328l.39-.078v-2.391H1.875v2.39l.61.126q.123.017.124.093 0 .048-.093.266H.422a.16.16 0 0 1-.016-.078Q.404-.324.72-.406l.375-.078v-5.203l-.547-.125C.46-5.82.422-5.852.422-5.906q0-.075.094-.25Zm0 0"/><path id="d" d="M.469-3.406q0-.311.062-.875h2.89q.048.08.048.172c0 .093-.04.199-.11.312L1.141-.469v.016h1.734l.328-.89h.14q.249.001.25.265 0 .093-.124 1.078H.406a.6.6 0 0 1-.094-.328q0-.124.094-.266l2.14-3.234v-.016H1.095l-.25.735a.6.6 0 0 1-.125.015c-.168 0-.25-.101-.25-.312m0 0"/><path id="e" d="M.547-.375a.5.5 0 0 1 .125-.36.48.48 0 0 1 .36-.14c.132 0 .25.047.343.14a.47.47 0 0 1 .156.36.47.47 0 0 1-.156.36.5.5 0 0 1-.344.124.52.52 0 0 1-.36-.125.5.5 0 0 1-.124-.359m0-3.516a.5.5 0 0 1 .125-.359.48.48 0 0 1 .36-.14c.132 0 .25.046.343.14a.47.47 0 0 1 .156.36.47.47 0 0 1-.156.359.5.5 0 0 1-.344.125.5.5 0 0 1-.36-.125.5.5 0 0 1-.124-.36m0 0"/><path id="f" d="m.422-.453 1.5-1.719q.89-1.015.89-2-.001-1.249-.906-1.25-.363.001-.703.172-.112.364-.125.89-.11.017-.203.016c-.281 0-.422-.117-.422-.36q0-.544.422-.874.42-.328 1.156-.328.715 0 1.172.422.451.409.453 1.14 0 .691-.422 1.36-.268.44-.906 1.125L1.344-.797v.016h2.031l.188-.766q.058-.047.187-.047.218 0 .219.36 0 .344-.094 1.234H.5Zm0 0"/><path id="g" d="M.89-.922q.248.002.407.203.17.204.172.578 0 .592-.375.985-.316.328-.61.328c-.093 0-.164-.078-.203-.234q.574-.3.61-.891a.5.5 0 0 1-.344-.125.47.47 0 0 1-.14-.344c0-.156.038-.273.124-.36a.48.48 0 0 1 .36-.14m0 0"/><path id="h" d="M1.125-5.797h2.547l-.047.781H1.531l-.125 1.407q1.296.046 1.875.547.546.455.547 1.374a1.7 1.7 0 0 1-.547 1.266Q2.75.111 1.906.11 1.168.108.828-.156a.61.61 0 0 1-.281-.516q0-.405.39-.547.171.376.282.5.311.328.828.328.527 0 .844-.328c.195-.207.297-.476.297-.812q0-.732-.563-1.047-.563-.328-1.781-.328Zm0 0"/><path id="i" d="M1.39-3.156c1.008-.114 1.516-.516 1.516-1.203Q2.905-5.421 2-5.422q-.41 0-.703.188-.112.376-.125.828a1 1 0 0 1-.203.015c-.281 0-.422-.117-.422-.359 0-.344.144-.617.437-.828q.45-.328 1.188-.328c.469 0 .836.125 1.11.375q.42.376.421 1.015 0 .628-.422 1.016-.298.284-.906.484v.032q.716.093 1.11.468c.257.243.39.547.39.922q-.001.738-.547 1.219Q2.78.11 1.891.109C1.41.11 1.05.012.813-.17Q.53-.374.53-.672q0-.406.39-.548c.102.23.204.399.298.5q.293.328.828.328c.664 0 1-.351 1-1.062 0-.738-.555-1.149-1.656-1.234Zm0 0"/><path id="j" d="M2.234-.39q1.092.001 1.094-2.516c0-1.664-.367-2.5-1.094-2.5-.73 0-1.093.836-1.093 2.5 0 1.68.363 2.515 1.093 2.515m-.046.5q-.862 0-1.36-.75Q.296-1.42.297-2.907c0-.977.187-1.735.562-2.266.352-.488.829-.734 1.422-.734q.873.001 1.36.734c.343.531.515 1.29.515 2.266q0 1.487-.562 2.265-.516.75-1.406.75m0 0"/><path id="k" d="m.125-1.984 2.531-3.782.656-.062v3.64h.75l-.03.672h-.72v1.032l.626.125q.123.017.124.093 0 .048-.093.266H1.906v-.078q0-.246.297-.328l.39-.078v-1.032H.157Zm.734-.203h1.735v-2.704h-.031L.859-2.219Zm0 0"/><path id="l" d="M2.031-.578V-5l-1.344.266a1 1 0 0 1-.015-.188c0-.133.07-.226.219-.281l1.468-.594h.438v5.219l1.094.172q.14.016.14.11-.002.08-.11.296H.86v-.078q0-.311.282-.36Zm0 0"/><path id="m" d="M3.188-5.531a1.8 1.8 0 0 0-.891-.25q-.518.001-.813.265-.28.269-.28.72 0 .391.234.655a2.3 2.3 0 0 0 .5.344l.843.453c.438.242.742.465.922.672q.359.41.36 1 0 .785-.516 1.266-.551.516-1.453.515a3.46 3.46 0 0 1-1.5-.359q-.047-.482-.047-1 0-.389.281-.39.075 0 .188.046l.218.938q.386.298.938.297.575 0 .89-.328.296-.295.297-.782-.002-.406-.296-.687-.204-.187-.907-.578l-.562-.313c-.344-.195-.602-.398-.766-.61Q.515-4.06.516-4.64q-.002-.749.547-1.187.515-.437 1.359-.438.764 0 1.375.329.03.643.031.859-.001.391-.265.39a.5.5 0 0 1-.204-.046Zm0 0"/><path id="n" d="M4.344-3.422h-.032L3.141 0h-.72L.454-5.703l-.36-.094q-.126-.014-.124-.11 0-.074.094-.25h2v.079c0 .168-.102.273-.297.312l-.391.079L2.891-.875h.015l1.188-3.36-.469-1.468-.36-.094q-.126-.014-.124-.11 0-.074.093-.25h2v.079q-.002.253-.296.312l-.391.079L5.89-.875h.015l1.625-4.828-.703-.11c-.086-.007-.125-.039-.125-.093q-.001-.075.11-.25h1.78v.078q-.001.252-.296.328l-.219.047L6.141 0h-.72Zm0 0"/><path id="o" d="M2.734-2.64a5 5 0 0 1-.375.015h-.484v2.14l.61.126q.123.017.124.093 0 .048-.093.266H.422a.16.16 0 0 1-.016-.078Q.404-.324.72-.406l.375-.078v-5.203l-.547-.125C.46-5.82.422-5.852.422-5.906q0-.075.094-.25h1.797q2.514.001 2.515 1.718c0 .844-.43 1.399-1.281 1.657L5.062-.47l.422.11q.124.034.125.093 0 .048-.093.266H4.328Zm-.437-.454Q3.998-3.092 4-4.39 3.998-5.64 2.297-5.64h-.422v2.547Zm0 0"/><clipPath id="a"><path d="M93 0h101v157.434H93Zm0 0"/></clipPath></defs><path fill="none" stroke="#000" stroke-miterlimit="10" stroke-width=".39702894" d="M27.305 142.96h191.527M27.305 115.603h191.527M27.305 88.238h191.527M27.305 60.878h191.527M27.305 33.52h191.527M27.305 6.168h191.527M27.305 142.961V6.156m27.363 136.805V6.156m27.36 136.805V6.156m27.359 136.805V6.156m27.363 136.805V6.156m27.36 136.805V6.156m27.359 136.805V6.156m27.351 136.805V6.156"/><g clip-path="url(#a)"><path fill="none" stroke="#000" stroke-miterlimit="10" stroke-width="1.58612564" d="m116.227 6.156 22.316 122.735c2.789 15.328 7.305 15.328 10.09 0L170.949 6.156"/></g><use xlink:href="#b" x="17.006" y="152.288"/><use xlink:href="#c" x="24.867" y="152.288"/><use xlink:href="#d" x="31.612" y="152.288"/><use xlink:href="#e" x="35.538" y="152.288"/><use xlink:href="#f" x="49.282" y="152.039"/><use xlink:href="#g" x="53.743" y="152.039"/><use xlink:href="#h" x="55.59" y="152.039"/><use xlink:href="#i" x="76.642" y="152.039"/><use xlink:href="#g" x="81.103" y="152.039"/><use xlink:href="#j" x="82.95" y="152.039"/><use xlink:href="#i" x="104.003" y="152.039"/><use xlink:href="#g" x="108.464" y="152.039"/><use xlink:href="#h" x="110.311" y="152.039"/><use xlink:href="#k" x="131.363" y="152.039"/><use xlink:href="#g" x="135.824" y="152.039"/><use xlink:href="#j" x="137.671" y="152.039"/><use xlink:href="#k" x="158.723" y="151.959"/><use xlink:href="#g" x="163.184" y="151.959"/><use xlink:href="#h" x="165.031" y="151.959"/><use xlink:href="#h" x="186.084" y="152.039"/><use xlink:href="#g" x="190.545" y="152.039"/><use xlink:href="#j" x="192.392" y="152.039"/><use xlink:href="#h" x="213.445" y="151.932"/><use xlink:href="#g" x="217.906" y="151.932"/><use xlink:href="#h" x="219.753" y="151.932"/><use xlink:href="#l" x="19.673" y="139.788"/><use xlink:href="#f" x="19.673" y="112.428"/><use xlink:href="#i" x="19.673" y="84.96"/><use xlink:href="#k" x="19.673" y="57.708"/><use xlink:href="#h" x="19.673" y="30.24"/><use xlink:href="#m" x="3.453" y="9.237"/><use xlink:href="#n" x="7.94" y="9.237"/><use xlink:href="#o" x="16.488" y="9.237"/><use xlink:href="#e" x="22.064" y="9.237"/></svg>