<svg xmlns="http://www.w3.org/2000/svg" xmlns:xlink="http://www.w3.org/1999/xlink" width="227.512" height="168.089"><defs><path id="a" d="m4.766-.39-.063-3.344h-.016l-1.5 3.672h-.39L1.344-3.766h-.016L1.266-.39l.484.094c.07.024.11.047.11.078A.8.8 0 0 1 1.78 0H.313a.1.1 0 0 1-.016-.062c0-.133.082-.22.25-.25l.297-.079.062-4.125-.437-.093q-.094-.013-.094-.079c0-.039.023-.109.078-.203h1.11l1.53 3.907h.016l1.579-3.907H5.89v.079q0 .175-.235.234l-.328.062.047 4.125.5.094c.063.024.094.047.094.078A.8.8 0 0 1 5.89 0H4.219v-.062c0-.133.078-.22.234-.25Zm0 0"/><path id="b" d="M2.047-4.89a.2.2 0 0 1 .015.077q-.001.177-.25.235l-.328.062V-.39l.485.094c.07.024.11.047.11.078A.8.8 0 0 1 2 0H.328v-.062c0-.133.078-.22.235-.25l.312-.079v-4.125l-.437-.093q-.111-.013-.11-.079-.002-.06.078-.203Zm0 0"/><path id="c" d="M2.719-.344q.434 0 .781-.14l.219-.938a.4.4 0 0 1 .156-.031q.188 0 .188.312l-.032.766c-.375.305-.86.453-1.453.453-.625 0-1.133-.18-1.515-.547q-.69-.654-.688-1.953-.001-1.249.766-1.953.656-.593 1.593-.594.779.001 1.329.313.03.515.03.75c0 .21-.07.312-.202.312a.4.4 0 0 1-.157-.031l-.156-.703a1.56 1.56 0 0 0-.844-.234q-.75.002-1.203.484c-.336.367-.5.898-.5 1.594q-.001 1.077.485 1.64c.3.336.703.5 1.203.5m0 0"/><path id="f" d="M2.406.094c.828 0 1.672-.422 2.407-1.203-.032-.094-.079-.141-.172-.141-.735.703-1.391.969-2.172.969C1.39-.281.953-1.187.953-2.234c0-.235.016-.5.063-.75.359-1.813 1.718-2.563 2.39-2.563 1.188 0 1.547.734 1.61 1.5l.265-.047c.016-.453.032-.89.078-1.375-.484-.031-.734-.406-1.796-.406-1.407 0-2.985 1.313-3.329 3.063-.03.218-.062.437-.062.656C.172-.97.844.094 2.406.094m0 0"/><path id="k" d="M3.484-5.828c-.203 0-.75.078-1.078.078-.344 0-.687-.016-1.078-.016l-.031.016-.031.188c-.016.03 0 .046.03.046l.329.016c.125.016.313.078.313.297v.078L1.063-.641c-.047.25-.172.36-.547.375l-.22.032C.25-.234.22-.22.22-.172L.172 0l.031.016C.593.016.953 0 1.281 0c.344 0 .688.016 1.094.016L2.406 0l.016-.172c.015-.047-.016-.062-.047-.062l-.219-.032C1.86-.28 1.75-.344 1.75-.53v-.11l.39-1.953c.72 0 .86.125.954.344l.61 1.547c.171.422.468.797.983.797A1 1 0 0 0 5.063.03l.016-.218c-.375 0-.531-.297-.672-.688L3.688-2.75c.39-.125 1.25-.594 1.437-1.531.016-.11.031-.219.031-.328a1.17 1.17 0 0 0-.281-.782c-.328-.406-.844-.437-1.39-.437m-.046.297c.453 0 .968.156.968.89 0 .094-.015.235-.047.375-.203 1.11-.906 1.36-1.734 1.36h-.437l.437-2.219c.047-.25.203-.406.813-.406m0 0"/><path id="g" d="M2.063-.875v-2.469c0-.437 0-.875.015-.969 0-.03-.015-.03-.047-.03-.39.25-.765.421-1.39.718.015.078.03.14.109.188.328-.141.484-.172.61-.172.124 0 .14.172.14.406v2.328c0 .594-.187.625-.687.656-.047.047-.047.188 0 .235C1.156 0 1.422 0 1.813 0c.343 0 .515 0 .859.016.047-.047.047-.188 0-.235-.5-.031-.61-.062-.61-.656m0 0"/><path id="j" d="M1.531-4.11c.313 0 .594.188.594.641 0 .36-.406.906-1.125 1.016l.047.219h.344c.406 0 .937.109.937.906 0 .953-.64 1.156-.89 1.156-.36 0-.438-.172-.516-.297C.844-.579.75-.656.609-.656c-.14 0-.296.14-.296.25 0 .281.593.484 1.03.484.845 0 1.61-.562 1.61-1.5 0-.781-.594-1.062-1.015-1.125v-.015c.578-.282.75-.579.75-.954 0-.218-.047-.39-.22-.562-.155-.156-.405-.281-.78-.281-1.047 0-1.36.687-1.36.922 0 .109.078.25.25.25.25 0 .281-.235.281-.376 0-.453.485-.546.672-.546m0 0"/><path id="p" d="M.438-3.344c0 .156.14.281.28.281.126 0 .345-.124.345-.28 0-.063-.016-.11-.032-.157-.015-.047-.062-.11-.062-.172 0-.172.187-.437.703-.437.266 0 .625.187.625.875 0 .453-.156.828-.578 1.25l-.532.515C.485-.75.375-.406.375.016c0 0 .36-.016.594-.016h1.25c.219 0 .547.016.547.016.093-.375.172-.922.172-1.125-.032-.047-.126-.047-.204-.047-.125.515-.25.687-.5.687H.97c0-.343.484-.828.531-.86l.719-.687c.406-.39.703-.718.703-1.25 0-.78-.625-1.093-1.203-1.093-.797 0-1.281.593-1.281 1.015m0 0"/><path id="l" d="M2.047-4.922q1.828.002 1.828 1.234c0 .637-.352 1.024-1.047 1.157v.015q1.156.158 1.156 1.141a1.2 1.2 0 0 1-.468.984Q2.998.001 2.094 0H.328v-.062q-.001-.2.25-.266l.297-.063v-4.156l-.437-.11q-.111-.011-.11-.077 0-.06.094-.188ZM2.016-.406c.437 0 .77-.086 1-.266a.88.88 0 0 0 .312-.703A.8.8 0 0 0 3-2.047q-.328-.248-.937-.25H1.5v1.89Zm-.047-2.266q.622 0 .968-.281.296-.234.297-.656-.001-.921-1.25-.922H1.5v1.86Zm0 0"/><path id="m" d="M2.078-4.922v.063c0 .125-.086.203-.25.234l-.328.078V-.39l.5.094c.063.024.094.047.094.078A.8.8 0 0 1 2.016 0H.328v-.062q-.001-.2.25-.266l.297-.063v-4.156l-.437-.11q-.111-.011-.11-.077 0-.06.094-.188Zm0 0"/><path id="n" d="m3.578-.39-.453-1.297H1.344L.875-.391l.531.094c.07.024.11.047.11.078A.6.6 0 0 1 1.437 0h-1.5a.2.2 0 0 1-.015-.062q-.001-.2.25-.266l.203-.047 1.734-4.547.454-.062L4.266-.375l.312.078c.07.024.11.047.11.078A.8.8 0 0 1 4.609 0H3.08v-.062q0-.2.233-.266ZM1.484-2.079h1.5L2.25-4.156h-.016Zm0 0"/><path id="o" d="M2.563-4.422a1.5 1.5 0 0 0-.72-.203q-.421 0-.655.219-.235.204-.235.578 0 .316.203.515.106.114.407.266l.671.375c.344.188.586.367.735.531q.28.33.281.797c0 .43-.14.766-.422 1.016Q2.405.08 1.672.078C1.273.078.875-.016.469-.203A9 9 0 0 1 .438-1q-.002-.311.218-.312.076 0 .156.03l.172.766q.328.222.766.22.45 0 .703-.25.235-.234.235-.626a.77.77 0 0 0-.235-.562q-.174-.14-.734-.453l-.453-.25q-.41-.234-.594-.485a1.27 1.27 0 0 1-.25-.797q0-.59.422-.953c.281-.226.644-.344 1.094-.344q.608.001 1.093.266.03.516.031.688-.001.313-.218.312a.4.4 0 0 1-.156-.031Zm0 0"/><path id="s" d="M-2.64-2.734q.016.233.015.375v.484h2.14l.126-.61q.017-.123.093-.124.048 0 .266.093v2.094a.16.16 0 0 1-.078.016q-.246.002-.328-.313l-.078-.375h-5.203l-.125.547c-.008.086-.04.125-.094.125q-.075 0-.25-.094v-1.796q.001-2.515 1.718-2.516c.844 0 1.399.43 1.657 1.281L-.47-5.062l.11-.422q.034-.124.093-.125.048 0 .266.093v1.188Zm-.454.437Q-3.092-3.998-4.39-4q-1.249.002-1.25 1.703v.422h2.547Zm0 0"/><path id="t" d="M-6.156-4.5q.752-.061 1.047-.062.408.001.406.25a.5.5 0 0 1-.047.203l-.937.203v2.031h2.453v-1.984h.5v1.984h2.25l.125-.703q.017-.124.093-.125.048 0 .266.094v2.187a.16.16 0 0 1-.078.016q-.246.002-.328-.313l-.078-.375h-5.203l-.125.547c-.008.086-.04.125-.094.125q-.075 0-.25-.094Zm0 0"/><path id="G" d="M-1.906-4.031v3.61h-.469v-3.61Zm-1.297 0v3.61h-.469v-3.61Zm0 0"/><path id="H" d="m-1.984-.125-3.782-2.531-.062-.656h3.64v-.75l.672.03v.72h1.032l.125-.626q.017-.123.093-.124.048 0 .266.093v2.063h-.078q-.246 0-.328-.297l-.078-.39h-1.032v2.437Zm-.203-.734v-1.735h-2.704v.031l2.672 1.704Zm0 0"/><path id="I" d="M-6.156-5.828h.078q.252.002.328.297l.047.234L0-3.28v.734L-5.687-.453l-.11.375q-.014.124-.11.125c-.05 0-.132-.035-.25-.094V-2.03c.024-.008.048-.016.079-.016q.253.001.312.313l.079.375L-.907-3v-.031L-5.702-4.72l-.11.688q-.011.127-.093.125-.075 0-.25-.094Zm0 0"/><path id="u" d="M-4.922-2.078h.063c.125 0 .203.086.234.25l.078.328H-.39l.094-.5c.024-.062.047-.094.078-.094q.049.002.219.078v1.688h-.062q-.2.001-.266-.25l-.063-.297h-4.156l-.11.438q-.011.11-.077.109-.06 0-.188-.094Zm0 0"/><path id="v" d="M-4.922-5a.1.1 0 0 1 .063-.016c.125 0 .203.086.234.25l.078.329H0V-4l-4.156 2.672v.016h3.765l.094-.485c.024-.07.047-.11.078-.11q.049.001.219.079v1.5h-.062q-.2.001-.266-.25l-.063-.297h-4.156l-.11.438q-.011.11-.077.109-.06 0-.188-.094v-1.125l3.766-2.437V-4h-3.39l-.11.438q-.013.093-.078.093c-.04 0-.102-.023-.188-.078Zm0 0"/><path id="w" d="M-.312-2.61q0-.732-.579-1.156-.574-.42-1.578-.421-.984.002-1.562.437a1.4 1.4 0 0 0-.578 1.172q.002.72.578 1.14c.375.274.898.407 1.562.407q1.004 0 1.578-.422.58-.436.579-1.156m.39.032c0 .656-.21 1.183-.64 1.578q-.687.626-1.907.625-1.2 0-1.89-.672-.657-.608-.657-1.61 0-.995.657-1.593.673-.61 1.89-.61c.813 0 1.45.227 1.906.673q.643.611.641 1.609m0 0"/><path id="x" d="M-4.922-1.953a.1.1 0 0 1 .063-.016c.125 0 .203.086.234.25l.078.328h2.422q.971 0 1.39-.328.392-.31.391-.953.002-.655-.406-.953-.45-.342-1.5-.344h-2.297l-.11.453q-.011.094-.077.094c-.04 0-.102-.023-.188-.078v-1.469h.063q.188 0 .234.235l.078.343h2.344Q.08-4.39.078-2.609q.002.86-.406 1.312Q-.842-.764-2-.766h-2.547l-.11.438q-.011.11-.077.11-.06.002-.188-.079Zm0 0"/><path id="y" d="M-4.547-3.562v1.14H-.39l.094-.484c.024-.07.047-.11.078-.11q.049.001.219.079v1.687h-.062q-.2.001-.266-.25l-.063-.297h-4.156v1.14l.75.157a.4.4 0 0 1 .031.172c0 .137-.101.203-.312.203q-.187 0-.844-.047v-3.875q.657-.047.844-.047.313.002.312.203a.4.4 0 0 1-.03.157Zm0 0"/><path id="A" d="M-.344-2.734q0-.435-.14-.797l-.953-.219a.4.4 0 0 1-.032-.156q.001-.201.313-.203l.781.046c.305.375.453.86.453 1.454q.002.956-.547 1.53-.656.704-1.969.704-1.265.002-1.968-.781-.61-.657-.61-1.594 0-.795.329-1.344.515-.047.75-.047.313.001.312.22a.4.4 0 0 1-.031.155l-.719.157c-.145.25-.219.539-.219.859q.002.75.485 1.203.55.516 1.593.516c.743 0 1.297-.164 1.672-.5.336-.301.5-.703.5-1.203m0 0"/><path id="F" d="M-4.922-1.89q0-2.843 2.39-2.844 1.268 0 1.907.75.626.736.625 2.093v1.563h-.062q-.2.001-.266-.25l-.063-.297h-4.156l-.11.438q-.011.11-.077.109-.06 0-.188-.094Zm4.516.015q0-1.044-.531-1.61c-.352-.382-.88-.578-1.579-.578-.664 0-1.164.196-1.5.579-.343.375-.515.914-.515 1.609v.375h4.125Zm0 0"/><path id="z" d="M.094-1.812c0-1.766-1.14-2.375-2.719-2.688l-2.453-.484c-.25-.032-.39-.188-.422-.547l-.016-.219c0-.047-.03-.078-.062-.078l-.172-.047-.016.016c0 .406.016.75.016.953s-.016.531-.016.937l.016.016.172.031c.031.016.062-.015.062-.047l.016-.234c.016-.281.11-.406.297-.406.031 0 .078.015.125.03l2.61.5c1 .204 2.187.548 2.187 2.016 0 .407-.188.72-.438.922-.25.188-.515.235-.812.235-.282 0-.578-.047-.875-.11L-5.11-1.53c-.25-.063-.36-.203-.391-.563l-.016-.219c0-.046-.03-.062-.062-.078l-.172-.03-.016.015c0 .406.016.75.016 1.094 0 .343-.016.671-.016 1.078l.016.03.172.032a.07.07 0 0 0 .062-.062l.016-.22c.016-.28.094-.405.281-.405.032 0 .078 0 .11.015l3 .578c.234.047.437.063.625.063 1.28 0 1.578-.953 1.578-1.61m0 0"/><path id="B" d="M2.031-.578V-5l-1.344.266a1 1 0 0 1-.015-.188c0-.133.07-.226.219-.281l1.468-.594h.438v5.219l1.094.172q.14.016.14.11-.002.08-.11.296H.86v-.078q0-.311.282-.36Zm0 0"/><path id="C" d="m.422-.453 1.5-1.719q.89-1.015.89-2-.001-1.249-.906-1.25-.363.001-.703.172-.112.364-.125.89-.11.017-.203.016c-.281 0-.422-.117-.422-.36q0-.544.422-.874.42-.328 1.156-.328.715 0 1.172.422.451.409.453 1.14 0 .691-.422 1.36-.268.44-.906 1.125L1.344-.797v.016h2.031l.188-.766q.058-.047.187-.047.218 0 .219.36 0 .344-.094 1.234H.5Zm0 0"/><path id="D" d="m.125-1.984 2.531-3.782.656-.062v3.64h.75l-.03.672h-.72v1.032l.626.125q.123.017.124.093 0 .048-.093.266H1.906v-.078q0-.246.297-.328l.39-.078v-1.032H.157Zm.734-.203h1.735v-2.704h-.031L.859-2.219Zm0 0"/><path id="E" d="M1.39-3.156c1.008-.114 1.516-.516 1.516-1.203Q2.905-5.421 2-5.422q-.41 0-.703.188-.112.376-.125.828a1 1 0 0 1-.203.015c-.281 0-.422-.117-.422-.359 0-.344.144-.617.437-.828q.45-.328 1.188-.328c.469 0 .836.125 1.11.375q.42.376.421 1.015 0 .628-.422 1.016-.298.284-.906.484v.032q.716.093 1.11.468c.257.243.39.547.39.922q-.001.738-.547 1.219Q2.78.11 1.891.109C1.41.11 1.05.012.813-.17Q.53-.374.53-.672q0-.406.39-.548c.102.23.204.399.298.5q.293.328.828.328c.664 0 1-.351 1-1.062 0-.738-.555-1.149-1.656-1.234Zm0 0"/><clipPath id="d"><path d="M.371 88H4v4H.371Zm0 0"/></clipPath><clipPath id="e"><path d="M.371 82H10v16H.371Zm0 0"/></clipPath><clipPath id="h"><path d="M223 88h3.656v4H223Zm0 0"/></clipPath><clipPath id="i"><path d="M217 82h9.656v16H217Zm0 0"/></clipPath><clipPath id="q"><path d="M223 21h3.656v4H223Zm0 0"/></clipPath><clipPath id="r"><path d="M217 15h9.656v15H217Zm0 0"/></clipPath><clipPath id="J"><path d="M151 166h14v1.184h-14Zm0 0"/></clipPath><clipPath id="K"><path d="M85 166h13v1.184H85Zm0 0"/></clipPath></defs><path fill="none" stroke="#000" stroke-miterlimit="10" stroke-width=".79270417" d="m54.027 52.262 75.141 37.57-75.14 37.566Zm0 0"/><path fill="none" stroke="#000" stroke-miterlimit="10" stroke-width=".39684939" d="M54.027 89.832h-6.261m81.402 0h6.262m-43.832 18.785v6.262m0-43.832v-6.262"/><use xlink:href="#a" x="81.996" y="92.271"/><use xlink:href="#a" x="88.228" y="92.271"/><use xlink:href="#b" x="94.46" y="92.271"/><use xlink:href="#c" x="96.759" y="92.271"/><path fill="none" stroke="#000" stroke-miterlimit="10" stroke-width=".39684939" d="M2.145 89.832h19.68m6.261 0h19.68"/><path fill="none" stroke="#000" stroke-miterlimit="10" stroke-width=".79270417" d="M21.824 80.438v18.785m6.262-18.785v18.785"/><g clip-path="url(#d)"><path fill="#FFF" d="M3.727 89.832a1.58 1.58 0 0 0-3.16 0 1.58 1.58 0 0 0 3.16 0m0 0"/></g><g clip-path="url(#e)"><path fill="none" stroke="#000" stroke-miterlimit="10" stroke-width=".39684939" d="M3.727 89.832a1.58 1.58 0 0 0-3.16 0 1.58 1.58 0 0 0 3.16 0Zm0 0"/></g><use xlink:href="#f" x="20.669" y="76.289"/><use xlink:href="#g" x="25.546" y="78.161"/><path fill="none" stroke="#000" stroke-miterlimit="10" stroke-width=".39684939" d="M135.43 89.832h52.777m6.262 0h30.41"/><path fill="none" stroke="#000" stroke-miterlimit="10" stroke-width=".79270417" d="M188.207 80.438v18.785m6.262-18.785v18.785"/><g clip-path="url(#h)"><path fill="#FFF" d="M226.46 89.832a1.58 1.58 0 0 0-3.16 0 1.58 1.58 0 0 0 3.16 0m0 0"/></g><g clip-path="url(#i)"><path fill="none" stroke="#000" stroke-miterlimit="10" stroke-width=".39684939" d="M226.46 89.832a1.58 1.58 0 0 0-3.16 0 1.58 1.58 0 0 0 3.16 0Zm0 0"/></g><use xlink:href="#f" x="187.046" y="76.289"/><use xlink:href="#j" x="191.923" y="78.161"/><path fill="none" stroke="#000" stroke-miterlimit="10" stroke-width=".39684939" d="M157.793 89.832V68.809m0-25.047v-21.02"/><path fill="none" stroke="#000" stroke-miterlimit="10" stroke-width=".79270417" d="M162.488 43.762v25.047h-9.394V43.762Zm0 0"/><path stroke="#000" stroke-miterlimit="10" stroke-width=".39684939" d="M159.371 89.832a1.579 1.579 0 1 0-3.157.001 1.579 1.579 0 0 0 3.157-.001ZM159.371 22.742a1.579 1.579 0 1 0-3.157.001 1.579 1.579 0 0 0 3.157 0Zm0 0"/><use xlink:href="#k" x="130.43" y="58.427"/><use xlink:href="#l" x="135.682" y="60.3"/><use xlink:href="#m" x="140.013" y="60.3"/><use xlink:href="#n" x="142.403" y="60.3"/><use xlink:href="#o" x="147.054" y="60.3"/><path fill="none" stroke="#000" stroke-miterlimit="10" stroke-width=".39684939" d="M157.793 22.742h-29.969m-6.262 0H80.418m0 0H69.234"/><path fill="none" stroke="#000" stroke-miterlimit="10" stroke-width=".79270417" d="M127.824 32.133V13.352m-6.262 18.78v-18.78"/><path stroke="#000" stroke-miterlimit="10" stroke-width=".39684939" d="M93.176 22.742a1.579 1.579 0 1 0-3.158.001 1.579 1.579 0 0 0 3.158 0Zm0 0"/><use xlink:href="#f" x="120.405" y="9.2"/><use xlink:href="#p" x="125.284" y="11.073"/><path fill="none" stroke="#000" stroke-miterlimit="10" stroke-width=".39684939" d="M69.234 22.742v9.867"/><path fill="none" stroke="#000" stroke-linecap="round" stroke-miterlimit="10" stroke-width=".79270417" d="M63.313 32.61h11.843"/><path fill="none" stroke="#000" stroke-miterlimit="10" stroke-width=".39684939" d="M91.598 64.785V22.742M157.793 22.742h21.02m25.046 0h21.02"/><path fill="none" stroke="#000" stroke-linejoin="bevel" stroke-miterlimit="10" stroke-width=".79270417" d="M178.418 22.902c0-2.593 1.445-4.699 3.226-4.699 1.786 0 3.231 2.106 3.231 4.7 0-2.594 1.45-4.7 3.23-4.7 1.786 0 3.23 2.106 3.23 4.7 0-2.594 1.446-4.7 3.231-4.7 1.786 0 3.23 2.106 3.23 4.7 0-2.594 1.446-4.7 3.231-4.7 1.782 0 3.227 2.106 3.227 4.7"/><path stroke="#000" stroke-miterlimit="10" stroke-width=".39684939" d="M159.371 22.742a1.579 1.579 0 1 0-3.157.001 1.579 1.579 0 0 0 3.157 0Zm0 0"/><g clip-path="url(#q)"><path fill="#FFF" d="M226.46 22.742a1.58 1.58 0 0 0-3.16 0 1.58 1.58 0 0 0 3.16 0m0 0"/></g><g clip-path="url(#r)"><path fill="none" stroke="#000" stroke-miterlimit="10" stroke-width=".39684939" d="M226.46 22.742a1.58 1.58 0 0 0-3.16 0 1.58 1.58 0 0 0 3.16 0Zm0 0"/></g><path fill="none" stroke="#000" stroke-dasharray="2.9727202063 2.9727202063" stroke-miterlimit="10" stroke-width=".39684939" d="M178.812 16.063h25.047"/><use xlink:href="#s" x="11.471" y="111.392"/><use xlink:href="#t" x="11.471" y="105.819"/><use xlink:href="#u" x="13.344" y="101.047"/><use xlink:href="#v" x="13.344" y="98.657"/><use xlink:href="#s" x="219.75" y="118.27"/><use xlink:href="#t" x="219.75" y="112.696"/><use xlink:href="#w" x="221.622" y="107.925"/><use xlink:href="#x" x="221.622" y="102.753"/><use xlink:href="#y" x="221.622" y="97.602"/><use xlink:href="#z" x="219.75" y="39.966"/><use xlink:href="#A" x="221.622" y="35.221"/><use xlink:href="#A" x="221.622" y="30.776"/><use xlink:href="#B" x="45.539" y="98.798"/><use xlink:href="#C" x="94.769" y="117.828"/><use xlink:href="#D" x="94.769" y="67.697"/><use xlink:href="#E" x="133.199" y="98.905"/><path fill="none" stroke="#000" stroke-miterlimit="10" stroke-width=".39684939" d="M157.793 99.844v47.062"/><path stroke="#000" stroke-miterlimit="10" stroke-width=".39684939" d="M159.371 156.922a1.577 1.577 0 1 0-3.156 0 1.579 1.579 0 0 0 3.156 0ZM157.793 142.71h-1.977l1.977 4.196 1.973-4.195Zm0 0"/><use xlink:href="#z" x="152.289" y="138.511"/><use xlink:href="#F" x="154.162" y="133.767"/><use xlink:href="#G" x="152.289" y="126.349"/><use xlink:href="#H" x="152.289" y="119.964"/><use xlink:href="#I" x="152.289" y="114.024"/><path fill="none" stroke="#000" stroke-miterlimit="10" stroke-width=".39684939" d="M157.793 156.922v9.867"/><g clip-path="url(#J)"><path fill="none" stroke="#000" stroke-linecap="round" stroke-miterlimit="10" stroke-width=".79270417" d="M151.871 166.789h11.84"/></g><path fill="none" stroke="#000" stroke-miterlimit="10" stroke-width=".39684939" d="M91.598 114.879v21.02m0 0v21.023M91.598 156.922v9.867"/><g clip-path="url(#K)"><path fill="none" stroke="#000" stroke-linecap="round" stroke-miterlimit="10" stroke-width=".79270417" d="M85.676 166.789H97.52"/></g></svg>