<svg xmlns="http://www.w3.org/2000/svg" xmlns:xlink="http://www.w3.org/1999/xlink" width="226.773" height="96.248"><defs><clipPath id="a"><path d="M.766 1.754H15.02v5.7H.766Zm0 5.7h5.703v2.85H.766Zm0 2.85H15.02v5.704H.766Zm0 0"/></clipPath><clipPath id="b"><path d="M.766 0H21v22H.766Zm0 0"/></clipPath><clipPath id="c"><path d="M211.531 1.754h14.25v5.7h-14.25Zm8.551 5.7h5.7v2.85h-5.7Zm-8.55 2.85h14.25v5.704h-14.25Zm0 0"/></clipPath><clipPath id="d"><path d="M206 0h19.781v22H206Zm0 0"/></clipPath><clipPath id="e"><path d="M43 92h4v3.5h-4Zm0 0"/></clipPath><clipPath id="f"><path d="M38 86h15v9.5H38Zm0 0"/></clipPath><clipPath id="g"><path d="M61 58h37v37.5H61Zm0 0"/></clipPath><clipPath id="i"><path d="M94 92h4v3.5h-4Zm0 0"/></clipPath><clipPath id="j"><path d="M89 86h15v9.5H89Zm0 0"/></clipPath><clipPath id="k"><path d="M179 92h4v3.5h-4Zm0 0"/></clipPath><clipPath id="l"><path d="M173 86h16v9.5h-16Zm0 0"/></clipPath><clipPath id="m"><path d="M128 58h38v37.5h-38Zm0 0"/></clipPath><clipPath id="n"><path d="M128 92h4v3.5h-4Zm0 0"/></clipPath><clipPath id="o"><path d="M123 86h15v9.5h-15Zm0 0"/></clipPath><clipPath id="p"><path d="M.766 5H16v15H.766Zm0 0"/></clipPath><clipPath id="q"><path d="M211 5h14.781v15H211Zm0 0"/></clipPath><path id="h" d="M4.469-.484 3.89-2.11H1.67L1.079-.484l.688.125q.124.017.125.093c0 .043-.04.133-.11.266h-1.86a.2.2 0 0 1-.015-.078Q-.096-.342.22-.406l.25-.063L2.625-6.14l.563-.062L5.313-.47l.39.11q.124.034.125.093 0 .048-.094.266H3.828v-.078q0-.246.297-.328ZM1.844-2.578h1.875l-.922-2.61H2.78Zm0 0"/></defs><path fill="none" stroke="#000" stroke-miterlimit="10" stroke-width=".39590775" d="M11.457 8.879h101.82m0 0h101.817"/><g clip-path="url(#a)"><path fill="none" stroke="#000" stroke-miterlimit="10" stroke-width=".79082325" d="M11.457 8.879a3.564 3.564 0 0 0-7.129 0 3.564 3.564 0 0 0 7.129 0Zm0 0"/></g><g clip-path="url(#b)"><path fill="none" stroke="#000" stroke-miterlimit="10" stroke-width=".79082325" d="M9.316 8.879c0-.785-.636-1.426-1.421-1.426a1.426 1.426 0 0 0 0 2.852c.785 0 1.421-.637 1.421-1.426Zm0 0"/></g><path fill="none" stroke="#000" stroke-miterlimit="10" stroke-width=".39590775" d="M9.316 8.879h2.141"/><g clip-path="url(#c)"><path fill="none" stroke="#000" stroke-miterlimit="10" stroke-width=".79082325" d="M215.094 8.879a3.564 3.564 0 0 1 7.129 0 3.564 3.564 0 0 1-7.129 0Zm0 0"/></g><g clip-path="url(#d)"><path fill="none" stroke="#000" stroke-miterlimit="10" stroke-width=".79082325" d="M217.234 8.879c0-.785.637-1.426 1.426-1.426a1.425 1.425 0 0 1 0 2.852c-.789 0-1.426-.637-1.426-1.426Zm0 0"/></g><path fill="none" stroke="#000" stroke-miterlimit="10" stroke-width=".39590775" d="M217.234 8.879h-2.14"/><path fill="none" stroke="#000" stroke-miterlimit="10" stroke-width=".79082325" d="M24.184 8.879c0-4.684-1.899-8.484-4.243-8.484-2.343 0-4.242 3.8-4.242 8.484 0 4.687 1.899 8.484 4.242 8.484s4.243-3.797 4.243-8.484ZM206.61 17.363c2.343 0 4.241-3.797 4.241-8.484 0-4.684-1.898-8.484-4.242-8.484"/><path fill="none" stroke="#000" stroke-miterlimit="10" stroke-width=".39590775" d="M19.941 17.363v16.973m0 0v16.969h10.352m4.75 0h10.352v-14.34m0-9.504v-14.34h25.457m0 0h25.453"/><path stroke="#000" stroke-miterlimit="10" stroke-width=".39590775" d="M21.516 17.363a1.575 1.575 0 0 0-3.149 0 1.575 1.575 0 1 0 3.149 0ZM21.516 51.305c0-.871-.704-1.575-1.575-1.575-.87 0-1.574.704-1.574 1.575 0 .87.703 1.574 1.574 1.574s1.575-.703 1.575-1.574Zm0 0"/><path fill="none" stroke="#000" stroke-miterlimit="10" stroke-width=".79082325" d="M30.293 44.176v14.258m4.75-14.258v14.258"/><path stroke="#000" stroke-miterlimit="10" stroke-width=".39590775" d="M46.969 51.305a1.575 1.575 0 1 0-3.148 0 1.575 1.575 0 0 0 3.148 0Zm0 0"/><path fill="none" stroke="#000" stroke-miterlimit="10" stroke-width=".79082325" d="m45.395 36.965-5.938-9.504h11.879Zm0 0"/><path fill="none" stroke="#000" stroke-miterlimit="10" stroke-width=".39590775" d="M45.395 36.965V27.46"/><path fill="none" stroke="#000" stroke-miterlimit="10" stroke-width=".79082325" d="M51.336 36.965H39.457"/><path fill="none" stroke="#000" stroke-miterlimit="10" stroke-width=".39590775" d="M45.395 51.305v11.71m0 19.005v11.71H19.94V51.305"/><path fill="none" stroke="#000" stroke-miterlimit="10" stroke-width=".79082325" d="M48.723 63.016V82.02H42.07V63.016ZM53.71 77.27l-12.655-7.23"/><path stroke="#000" stroke-miterlimit="10" stroke-width=".7907834" d="m37.766 68.156 2.046 3.664 1.07-1.882 1.075-1.88Zm0 0"/><g clip-path="url(#e)"><path d="M46.969 93.73a1.575 1.575 0 1 0-3.148 0 1.575 1.575 0 0 0 3.148 0m0 0"/></g><g clip-path="url(#f)"><path fill="none" stroke="#000" stroke-miterlimit="10" stroke-width=".39590775" d="M46.969 93.73a1.575 1.575 0 1 0-3.148 0 1.575 1.575 0 0 0 3.148 0Zm0 0"/></g><path fill="none" stroke="#000" stroke-miterlimit="10" stroke-width=".39590775" d="M96.305 13.121v22.57m0 19.008v22.57h-9.84m-14.258 0H58.039m0 0h-4.328"/><path fill="none" stroke="#000" stroke-miterlimit="10" stroke-width=".79082325" d="M92.742 54.7V35.69h7.13V54.7Zm0 0"/><path stroke="#000" stroke-miterlimit="10" stroke-width=".39590775" d="M97.879 77.27a1.575 1.575 0 1 0-3.148 0 1.575 1.575 0 0 0 3.148 0Zm0 0"/><g clip-path="url(#g)"><path fill="none" stroke="#000" stroke-miterlimit="10" stroke-width=".79082325" d="M79.336 84.395a7.125 7.125 0 0 0 7.129-7.125 7.13 7.13 0 0 0-7.13-7.13 7.13 7.13 0 0 0-7.128 7.13 7.125 7.125 0 0 0 7.129 7.125Zm0 0"/></g><use xlink:href="#h" x="76.434" y="80.374"/><path fill="none" stroke="#000" stroke-miterlimit="10" stroke-width=".39590775" d="M96.305 77.27v8.23m0 0v8.23"/><g clip-path="url(#i)"><path d="M97.879 93.73a1.575 1.575 0 1 0-3.148 0 1.575 1.575 0 0 0 3.148 0m0 0"/></g><g clip-path="url(#j)"><path fill="none" stroke="#000" stroke-miterlimit="10" stroke-width=".39590775" d="M97.879 93.73a1.575 1.575 0 1 0-3.148 0 1.575 1.575 0 0 0 3.148 0Zm0 0"/></g><path fill="none" stroke="#000" stroke-miterlimit="10" stroke-width=".39590775" d="M206.61 17.363v16.973m0 0v16.969h-10.352m-4.75 0h-10.352v-14.34m0-9.504v-14.34H155.7m0 0h-25.453"/><path stroke="#000" stroke-miterlimit="10" stroke-width=".39590775" d="M208.184 17.363a1.575 1.575 0 0 0-3.149 0c0 .871.707 1.578 1.574 1.578.871 0 1.575-.707 1.575-1.578ZM208.184 51.305a1.575 1.575 0 1 0-3.148 0 1.575 1.575 0 0 0 3.148 0Zm0 0"/><path fill="none" stroke="#000" stroke-miterlimit="10" stroke-width=".79082325" d="M196.258 58.434V44.176m-4.75 14.258V44.176"/><path stroke="#000" stroke-miterlimit="10" stroke-width=".39590775" d="M182.73 51.305a1.575 1.575 0 1 0-3.149 0 1.575 1.575 0 0 0 3.15 0Zm0 0"/><path fill="none" stroke="#000" stroke-miterlimit="10" stroke-width=".79082325" d="m181.156 36.965-5.941-9.504h11.879Zm0 0"/><path fill="none" stroke="#000" stroke-miterlimit="10" stroke-width=".39590775" d="M181.156 36.965V27.46"/><path fill="none" stroke="#000" stroke-miterlimit="10" stroke-width=".79082325" d="M187.094 36.965h-11.88"/><path fill="none" stroke="#000" stroke-miterlimit="10" stroke-width=".39590775" d="M181.156 51.305v11.71m0 19.005v11.71h25.453V51.305"/><path fill="none" stroke="#000" stroke-miterlimit="10" stroke-width=".79082325" d="M177.828 63.016V82.02h6.652V63.016ZM172.84 77.27l12.656-7.23"/><path stroke="#000" stroke-miterlimit="10" stroke-width=".7907834" d="m188.785 68.156-4.191-.097 1.074 1.879 1.074 1.882Zm0 0"/><g clip-path="url(#k)"><path d="M182.73 93.73a1.575 1.575 0 1 0-3.149.001 1.575 1.575 0 0 0 3.15 0m0 0"/></g><g clip-path="url(#l)"><path fill="none" stroke="#000" stroke-miterlimit="10" stroke-width=".39590775" d="M182.73 93.73a1.575 1.575 0 1 0-3.149.001 1.575 1.575 0 0 0 3.15 0Zm0 0"/></g><path fill="none" stroke="#000" stroke-miterlimit="10" stroke-width=".39590775" d="M130.246 13.121v22.57m0 19.008v22.57h9.844m14.254 0h14.168m0 0h4.328"/><path fill="none" stroke="#000" stroke-miterlimit="10" stroke-width=".79082325" d="M126.684 54.7V35.69h7.125V54.7Zm0 0"/><path stroke="#000" stroke-miterlimit="10" stroke-width=".39590775" d="M131.82 77.27c0-.872-.703-1.575-1.574-1.575s-1.574.703-1.574 1.575a1.575 1.575 0 0 0 3.148 0Zm0 0"/><g clip-path="url(#m)"><path fill="none" stroke="#000" stroke-miterlimit="10" stroke-width=".79082325" d="M147.215 70.14a7.125 7.125 0 0 0-7.125 7.13 7.12 7.12 0 0 0 7.125 7.125 7.125 7.125 0 0 0 7.129-7.125 7.13 7.13 0 0 0-7.13-7.13Zm0 0"/></g><use xlink:href="#h" x="144.313" y="80.374"/><path fill="none" stroke="#000" stroke-miterlimit="10" stroke-width=".39590775" d="M130.246 77.27v8.23m0 0v8.23"/><g clip-path="url(#n)"><path d="M131.82 93.73c0-.87-.703-1.574-1.574-1.574s-1.574.703-1.574 1.574a1.575 1.575 0 0 0 3.148 0m0 0"/></g><g clip-path="url(#o)"><path fill="none" stroke="#000" stroke-miterlimit="10" stroke-width=".39590775" d="M131.82 93.73c0-.87-.703-1.574-1.574-1.574s-1.574.703-1.574 1.574a1.575 1.575 0 0 0 3.148 0Zm0 0"/></g><path fill="none" stroke="#000" stroke-miterlimit="10" stroke-width=".39590775" d="M45.395 93.73h67.882m0 0h67.88"/><path fill="none" stroke="#000" stroke-miterlimit="10" stroke-width=".79082325" d="M19.941.395H206.61M19.941 17.363h22.91m5.09 0h45.82m5.09 0h28m5.09 0h45.82m5.09 0h23.758"/><path fill="none" stroke="#000" stroke-dasharray="2.9656665675 2.9656665675" stroke-miterlimit="10" stroke-width=".39590775" d="M62.367 77.27v12.726h101.817V77.27"/><path fill="none" stroke="#000" stroke-miterlimit="10" stroke-width=".39590775" d="M19.941 17.363H7.895v-4.922m0 0"/><path d="M9.469 12.441a1.577 1.577 0 0 0-3.153 0c0 .871.707 1.579 1.579 1.579.867 0 1.574-.707 1.574-1.579m0 0"/><g clip-path="url(#p)"><path fill="none" stroke="#000" stroke-miterlimit="10" stroke-width=".39590775" d="M9.469 12.441a1.577 1.577 0 0 0-3.153 0c0 .872.707 1.579 1.579 1.579.867 0 1.574-.707 1.574-1.579Zm0 0"/></g><path fill="none" stroke="#000" stroke-miterlimit="10" stroke-width=".39590775" d="M206.61 17.363h12.05v-4.922m0 0"/><path d="M220.234 12.441a1.577 1.577 0 0 0-3.152 0c0 .871.707 1.579 1.578 1.579.867 0 1.574-.707 1.574-1.579m0 0"/><g clip-path="url(#q)"><path fill="none" stroke="#000" stroke-miterlimit="10" stroke-width=".39590775" d="M220.234 12.441a1.577 1.577 0 0 0-3.152 0c0 .872.707 1.579 1.578 1.579.867 0 1.574-.707 1.574-1.579Zm0 0"/></g></svg>