<svg xmlns="http://www.w3.org/2000/svg" xmlns:xlink="http://www.w3.org/1999/xlink" width="235.094" height="248.492"><defs><path id="a" d="M4.297-2.469H.547V-3h3.75Zm0 0"/><path id="i" d="M2.484-3.031h1.563v.469H2.484v1.671h-.5v-1.671H.422v-.47h1.562v-1.655h.5Zm0 0"/><path id="b" d="M1.828.094c1.75 0 2.375-1.14 2.672-2.735l.484-2.453c.047-.25.188-.39.563-.406l.219-.016c.046 0 .078-.03.078-.078l.031-.172-.016-.015c-.406 0-.75.015-.937.015-.203 0-.547-.015-.938-.015l-.03.015-.032.172c0 .047.031.078.062.078l.22.016c.296.016.405.094.405.281 0 .032 0 .078-.015.125l-.516 2.625c-.187 1-.547 2.188-2 2.188-.422 0-.734-.188-.937-.438C.953-.969.906-1.25.906-1.53s.047-.594.11-.875L1.53-5.11c.063-.25.203-.375.563-.391l.219-.016c.046 0 .078-.03.078-.078l.046-.172-.03-.015c-.391 0-.75.015-1.094.015S.64-5.78.234-5.78l-.03.015-.032.172c0 .047.031.078.062.078l.22.016c.28.016.405.078.405.266 0 .046 0 .078-.015.125l-.578 3a3 3 0 0 0-.063.625c0 1.28.953 1.578 1.625 1.578m0 0"/><path id="d" d="m1.906-5.078-.86 4.406c-.062.25-.187.375-.562.406L.22-.234c-.047.03-.063.172-.016.25C.593.016.922 0 1.266 0s.75.016 1.14.016c.031-.032.047-.22.031-.25l-.312-.032c-.344-.03-.437-.14-.39-.406l.859-4.406c.062-.25.187-.375.562-.422l.281-.016a.38.38 0 0 0 .016-.265c-.406 0-.734.015-1.078.015S1.641-5.78 1.25-5.78c-.031.031-.062.218-.031.265l.297.016c.359.031.453.14.39.422m0 0"/><path id="m" d="m.938-3.828-.47.015c-.171.016-.234.079-.25.157a1 1 0 0 0-.046.156c0 .016.031.016.062.016H.86L.313-1.047C.25-.766.188-.484.188-.328c0 .328.156.422.437.422.406 0 1-.375 1.297-.922C1.89-.953 1.828-1 1.719-1c-.407.469-.563.547-.703.547C.984-.453.89-.47.89-.578c0-.078.03-.25.093-.563l.532-2.343h.875c.109-.047.187-.282.093-.344h-.89l.093-.406c.032-.172.125-.438.125-.532 0-.156-.078-.25-.359-.25-.328 0-.312.407-.406.735Zm0 0"/><path id="c" d="M2-2.578h-.64V-3.86c0-.313.077-.453.468-.453h.531c.547 0 .657.28.813.765a.4.4 0 0 0 .234-.031c-.031-.297-.14-.985-.156-1.031a.034.034 0 0 0-.031-.032c-.125.032-.172.032-.344.032H1.047c-.219 0-.625 0-.922-.016-.047.047-.047.203 0 .234.5.032.625.063.625.657v2.859c0 .594-.125.625-.625.656-.047.047-.047.188 0 .235C.391 0 .828 0 1.063 0h1.53c.345 0 .907.016.907.016.11-.36.219-.828.266-1.188a.33.33 0 0 0-.25-.047c-.141.516-.391.938-.938.938H1.75c-.297 0-.39-.11-.39-.453v-1.578H2c.61 0 .64.171.656.484.047.047.188.047.235 0 0-.172-.016-.375-.016-.625 0-.203.016-.438.016-.61-.047-.046-.188-.046-.235 0-.015.391-.047.485-.656.485m0 0"/><path id="e" d="M1.063-4.61c-.266 0-.641 0-.922-.015-.047.047-.047.203 0 .234.5.032.609.063.609.657v2.859c0 .594-.11.625-.61.656-.046.047-.046.188 0 .235C.423 0 .798 0 1.064 0c.265 0 .437.016 1.046.016 1.422 0 1.797-.72 1.797-1.328 0-.688-.484-1.079-1.094-1.266.344-.188.672-.563.672-.938 0-.484-.203-1.109-1.53-1.109-.25 0-.641.016-.891.016m.296 2.235h.5c.97 0 1.375.547 1.375 1.203 0 .516-.187.953-1.28.953-.5 0-.595-.187-.595-.625Zm0-1.547c0-.39 0-.453.625-.453.407 0 .922.219.922.938 0 .609-.422.828-1.015.828h-.532Zm0 0"/><path id="f" d="M2.547.078c.687 0 1.328-.328 1.812-.969C4.33-.953 4.281-1 4.203-1c-.516.563-1 .781-1.656.781-.969 0-1.64-1.093-1.64-2.125 0-.625.171-1.14.421-1.453.36-.437.781-.64 1.156-.64.985 0 1.375.593 1.563 1.203.078.03.156 0 .234-.032a32 32 0 0 0-.156-1.109c-.375-.031-.687-.328-1.562-.328-.61 0-1.126.219-1.547.61-.47.437-.75 1.14-.75 1.874 0 1.25.75 2.297 2.28 2.297m0 0"/><path id="k" d="m1.11-.562.39-1.032c.031-.093.078-.125.25-.125h1.5l.422 1.203c.078.25-.188.266-.531.297-.047.047-.047.188 0 .235C3.406 0 3.797 0 4.078 0c.297 0 .563 0 .813.016.046-.047.046-.188 0-.235-.282-.031-.516-.047-.641-.39L2.781-4.703c-.11.062-.297.14-.39.14L.766-.733C.578-.281.359-.25.046-.22 0-.172 0-.03.047.016.235 0 .47 0 .689 0c.296 0 .64 0 .906.016.047-.047.047-.188 0-.235C1.328-.25 1-.266 1.109-.562m.765-1.454c-.156 0-.203-.03-.172-.093l.719-1.86h.047l.672 1.953Zm0 0"/><clipPath id="g"><path d="M133 .223h16V13h-16Zm0 0"/></clipPath><clipPath id="h"><path d="M212 .223h15V13h-15Zm0 0"/></clipPath><clipPath id="j"><path d="M89 .223h16V13H89Zm0 0"/></clipPath><clipPath id="l"><path d="M15.27 211.094h72.644v28.238H15.27Zm0 0"/></clipPath><clipPath id="n"><path d="M121.781 211.094h72.645V235H121.78Zm0 0"/></clipPath></defs><path fill="none" stroke="#000" stroke-miterlimit="10" stroke-width=".39746784" d="M15.27 190.672h40.847m0 0h102.117m0 0h61.27"/><path fill="#FFF" stroke="#000" stroke-miterlimit="10" stroke-width=".39746784" d="M16.848 190.672a1.58 1.58 0 1 0-3.16 0c0 .871.707 1.582 1.582 1.582.87 0 1.578-.711 1.578-1.582Zm0 0"/><path stroke="#000" stroke-miterlimit="10" stroke-width=".39746784" d="M98.543 190.672a1.58 1.58 0 1 0-3.16 0c0 .871.707 1.582 1.578 1.582.875 0 1.582-.711 1.582-1.582Zm0 0"/><path fill="#FFF" stroke="#000" stroke-miterlimit="10" stroke-width=".39746784" d="M221.086 190.672a1.583 1.583 0 1 0-3.162.002 1.583 1.583 0 0 0 3.162-.002Zm0 0"/><use xlink:href="#a" x="222.677" y="192.167"/><path fill="none" stroke="#000" stroke-miterlimit="10" stroke-width=".39746784" d="M15.27 121.18v57.285m0-69.488h36.89m7.91 0h47.106m0 0h10.21"/><path stroke="#000" stroke-miterlimit="10" stroke-width=".39746784" d="M15.27 174.266h-1.977l1.977 4.199 1.976-4.2Zm0 0"/><use xlink:href="#b" x="18.365" y="151.769"/><use xlink:href="#c" x="23.117" y="153.645"/><path fill="none" stroke="#000" stroke-miterlimit="10" stroke-width=".7939395200000001" d="M52.16 97.117v23.719m7.91-23.719v23.719"/><path fill="#FFF" stroke="#000" stroke-miterlimit="10" stroke-width=".39746784" d="M16.848 108.977a1.58 1.58 0 1 0-3.16 0 1.58 1.58 0 1 0 3.16 0Zm0 0"/><path stroke="#000" stroke-miterlimit="10" stroke-width=".39746784" d="M98.543 108.977a1.58 1.58 0 1 0-3.16 0 1.58 1.58 0 1 0 3.16 0ZM105.445 108.977v1.976l4.2-1.976-4.2-1.977Zm0 0"/><use xlink:href="#d" x="103.626" y="103.912"/><use xlink:href="#e" x="106.136" y="105.788"/><path fill="none" stroke="#000" stroke-miterlimit="10" stroke-width=".7939395200000001" d="M149.078 108.977c0-8.098-6.562-14.66-14.66-14.66s-14.66 6.562-14.66 14.66 6.562 14.66 14.66 14.66 14.66-6.563 14.66-14.66Zm0 0"/><path fill="none" stroke="#000" stroke-miterlimit="10" stroke-width=".39746784" d="M141.105 87.035v13.246l-11.859 5.434"/><path fill="none" stroke="#000" stroke-miterlimit="10" stroke-width=".7939395200000001" d="M129.246 100.281v17.39"/><path fill="none" stroke="#000" stroke-miterlimit="10" stroke-width=".39746784" d="m129.246 112.238 11.86 5.434v13.246"/><path d="m133.422 114.152.95-2.07 3.679 4.191-5.578-.05Zm0 0"/><path fill="none" stroke="#000" stroke-miterlimit="10" stroke-width=".39746784" d="M129.246 108.977h-12.059M141.105 130.719v29.976m0 0v29.977"/><path stroke="#000" stroke-miterlimit="10" stroke-width=".39746784" d="M142.687 190.672a1.583 1.583 0 1 0-3.162.002 1.583 1.583 0 0 0 3.162-.002Zm0 0"/><path fill="none" stroke="#000" stroke-miterlimit="10" stroke-width=".39746784" d="M141.105 190.672v9.883"/><path fill="none" stroke="#000" stroke-linecap="round" stroke-miterlimit="10" stroke-width=".7939395200000001" d="M135.176 200.555h11.86"/><path fill="none" stroke="#000" stroke-miterlimit="10" stroke-width=".39746784" d="M141.105 87.234h35.247m7.906 0h35.246"/><path fill="none" stroke="#000" stroke-miterlimit="10" stroke-width=".7939395200000001" d="M176.352 75.375v23.719m7.906-23.719v23.719"/><path stroke="#000" stroke-miterlimit="10" stroke-width=".39746784" d="M142.687 87.234a1.583 1.583 0 0 0-3.164 0 1.582 1.582 0 0 0 3.164 0Zm0 0"/><path fill="#FFF" stroke="#000" stroke-miterlimit="10" stroke-width=".39746784" d="M221.086 87.234a1.583 1.583 0 0 0-3.164 0 1.582 1.582 0 0 0 3.164 0Zm0 0"/><path fill="none" stroke="#000" stroke-miterlimit="10" stroke-width=".39746784" d="M161.531 102.7v72.503"/><path stroke="#000" stroke-miterlimit="10" stroke-width=".39746784" d="M161.531 171.004h-1.976l1.976 4.2 1.977-4.2Zm0 0"/><use xlink:href="#b" x="162.316" y="140.869"/><use xlink:href="#f" x="167.068" y="142.745"/><use xlink:href="#c" x="171.684" y="142.745"/><path fill="none" stroke="#000" stroke-miterlimit="10" stroke-width=".39746784" d="M141.105 87.234V62.2m0-31.625V5.54h39.2m0 0h39.199"/><path fill="none" stroke="#000" stroke-miterlimit="10" stroke-width=".7939395200000001" d="M147.035 30.574V62.2h-11.86V30.574Zm0 0"/><path d="M142.688 5.54a1.583 1.583 0 1 0-3.162.002 1.583 1.583 0 0 0 3.162-.003m0 0"/><g clip-path="url(#g)"><path fill="none" stroke="#000" stroke-miterlimit="10" stroke-width=".39746784" d="M142.687 5.54a1.583 1.583 0 1 0-3.162.002 1.583 1.583 0 0 0 3.162-.003Zm0 0"/></g><path stroke="#000" stroke-miterlimit="10" stroke-width=".39746784" d="M141.105 72.988h-1.976l1.976 4.2 1.977-4.2Zm0 0"/><use xlink:href="#d" x="130.419" y="76.634"/><use xlink:href="#f" x="132.929" y="78.509"/><path fill="#FFF" d="M221.086 5.54a1.583 1.583 0 1 0-3.162.002 1.583 1.583 0 0 0 3.162-.003m0 0"/><g clip-path="url(#h)"><path fill="none" stroke="#000" stroke-miterlimit="10" stroke-width=".39746784" d="M221.086 5.54a1.583 1.583 0 1 0-3.162.002 1.583 1.583 0 0 0 3.162-.003Zm0 0"/></g><use xlink:href="#i" x="222.677" y="7.881"/><path fill="none" stroke="#000" stroke-miterlimit="10" stroke-width=".39746784" d="M141.105 5.54h-22.07m0 0H96.961v25.034m0 31.625v35.906m0 0v10.872"/><path fill="none" stroke="#000" stroke-miterlimit="10" stroke-width=".7939395200000001" d="M91.031 62.2V30.573h11.86V62.2Zm0 0"/><path fill="none" stroke="#000" stroke-miterlimit="10" stroke-width=".39746784" d="M96.96 5.54H76.54m0 0H56.116v16.468m0 7.906v16.473"/><path d="M98.543 5.54a1.58 1.58 0 1 0-3.16 0 1.58 1.58 0 1 0 3.16 0m0 0"/><g clip-path="url(#j)"><path fill="none" stroke="#000" stroke-miterlimit="10" stroke-width=".39746784" d="M98.543 5.54a1.58 1.58 0 1 0-3.16 0 1.58 1.58 0 1 0 3.16 0Zm0 0"/></g><path fill="none" stroke="#000" stroke-miterlimit="10" stroke-width=".7939395200000001" d="M67.977 22.008H44.254m23.723 7.906H44.254"/><path fill="none" stroke="#000" stroke-miterlimit="10" stroke-width=".39746784" d="M56.117 46.387v9.883"/><path fill="none" stroke="#000" stroke-linecap="round" stroke-miterlimit="10" stroke-width=".7939395200000001" d="M50.184 56.27h11.863"/><path fill="none" stroke="#000" stroke-miterlimit="10" stroke-width=".39746784" d="M219.504 102.7v72.503"/><path stroke="#000" stroke-miterlimit="10" stroke-width=".39746784" d="M219.504 171.004h-1.977l1.977 4.2 1.976-4.2Zm0 0"/><use xlink:href="#b" x="222.105" y="140.898"/><use xlink:href="#k" x="226.857" y="142.774"/><path fill="none" stroke="#000" stroke-miterlimit="10" stroke-width=".39746784" d="M96.96 190.672v-25.035m0-31.625v-25.035"/><path fill="none" stroke="#000" stroke-miterlimit="10" stroke-width=".7939395200000001" d="M102.89 134.012v31.625H91.032v-31.625Zm0 0"/><path fill="none" stroke="#000" stroke-miterlimit="10" stroke-width=".39746784" d="M15.27 225.21h69.183"/><path stroke="#000" stroke-miterlimit="10" stroke-width=".39746784" d="m87.516 225.21-2.961-1.753v3.512Zm0 0"/><path fill="none" stroke="#000" stroke-miterlimit="10" stroke-width=".39746784" d="M15.27 239.332v-24.777"/><path stroke="#000" stroke-miterlimit="10" stroke-width=".39746784" d="m15.27 211.492-1.758 2.961h3.511Zm0 0"/><g clip-path="url(#l)"><path fill="none" stroke="#000" stroke-miterlimit="10" stroke-width=".39746784" d="m15.27 225.21.136-.233c.04-.067.102-.172.14-.239.036-.066.099-.172.138-.234l.14-.238c.035-.067.098-.168.137-.235s.101-.172.14-.234c.036-.067.098-.168.137-.234.04-.067.102-.168.14-.235.036-.062.099-.168.138-.23.039-.063.101-.168.14-.23a7 7 0 0 1 .137-.227c.039-.067.102-.168.14-.23.036-.063.098-.161.137-.223l.14-.227c.036-.059.099-.16.138-.219.039-.062.101-.16.14-.219.035-.062.098-.16.137-.218.04-.059.102-.157.14-.215.036-.059.098-.152.137-.211l.141-.207a9.148 9.148 0 0 1 .277-.41c.035-.059.098-.145.137-.2l.14-.199c.036-.054.098-.14.137-.191.04-.055.102-.14.137-.192.04-.05.102-.132.14-.187.04-.05.102-.129.137-.18l.141-.18c.04-.046.102-.124.137-.175l.14-.168c.04-.047.102-.121.137-.168.04-.043.102-.117.14-.16.04-.047.102-.117.137-.16l.141-.153c.04-.043.102-.105.137-.148l.14-.145.137-.136c.04-.04.102-.098.14-.137a3.878 3.878 0 0 1 .277-.25l.138-.121.14-.114c.04-.03.102-.078.137-.109.04-.027.102-.074.14-.101.04-.028.102-.07.138-.098.039-.028.101-.067.14-.094.04-.023.102-.062.137-.086l.14-.082c.04-.02.102-.055.137-.074l.14-.07c.04-.02.098-.047.138-.063.039-.02.101-.043.14-.059l.137-.054c.039-.012.101-.035.14-.047s.098-.027.137-.04c.04-.01.102-.026.14-.034.04-.008.099-.024.138-.028.039-.007.101-.02.14-.023.04-.008.098-.016.137-.02l.14-.011c.04 0 .098-.004.137-.004h.14c.04 0 .099.004.138.008l.14.011c.04.004.098.012.137.02.039.004.102.015.14.023.04.008.098.024.137.032.04.007.102.027.14.035.04.011.099.03.138.043.039.011.101.035.14.05.04.012.098.036.137.051.04.016.102.043.14.063.04.015.098.047.137.062.04.02.102.051.141.074.039.02.098.055.137.075.039.023.101.058.14.086.04.023.098.062.137.086.04.027.102.066.14.093l.137.098c.04.031.102.078.141.105l.137.11c.039.031.101.082.14.117.04.031.098.086.137.117.04.035.102.09.14.13.036.034.098.089.137.128.04.035.102.098.141.137l.137.136c.039.043.101.106.14.149l.137.148.14.153c.036.043.098.117.137.16s.102.117.141.164l.137.168.14.168c.036.05.098.129.137.176.04.05.102.128.14.18.036.05.098.132.137.183s.102.137.141.187c.035.055.098.137.137.192l.14.195c.036.055.098.14.137.195s.102.145.14.204l.137.203a10 10 0 0 1 .278.418l.14.21c.036.06.098.157.137.215.04.059.102.157.14.22l.138.218c.039.062.101.16.136.223l.14.222c.04.063.102.164.138.227l.14.226c.04.063.102.164.137.23l.14.231c.04.063.102.168.137.23.04.067.102.169.14.235.04.063.102.168.138.234.039.063.101.168.14.235s.102.172.137.234l.14.238c.04.067.102.172.137.235.04.066.102.172.14.238.04.067.103.172.138.238.039.063.101.172.14.235a12.391 12.391 0 0 0 .277.473c.04.066.102.171.137.238l.141.234c.039.067.102.172.137.235l.14.234c.04.066.102.168.137.234.04.063.102.164.14.23.04.063.102.165.137.231l.141.227c.04.062.098.164.137.226l.14.227c.04.062.098.16.137.223l.14.218c.04.063.098.16.137.219.04.063.102.156.141.219.04.058.098.152.137.21l.14.212c.04.058.098.152.137.21.04.055.102.149.14.204.04.058.098.148.137.203s.102.144.141.2c.04.054.098.14.137.194.039.055.101.141.14.192.04.054.098.14.137.191l.14.184c.04.05.098.133.137.183.04.047.102.13.141.176l.137.176.14.168c.04.047.098.121.137.164l.14.16c.04.047.098.117.137.16.04.04.102.11.141.149.04.043.098.11.137.148l.14.145.137.136c.04.036.102.098.14.133.04.035.098.094.138.13.039.034.101.089.14.12.04.035.098.086.137.117l.14.114c.04.03.098.078.137.105.04.031.102.074.14.102.036.027.098.07.138.097.039.028.101.067.14.09.035.028.098.063.137.086l.14.082c.036.02.098.055.137.074.04.02.102.047.14.067.036.02.099.047.138.062l.14.059c.035.016.098.035.137.05l.14.044c.036.011.098.03.137.039.04.011.102.027.14.035l.138.027c.039.008.101.016.14.024l.137.015c.039.004.102.008.14.008.036.004.098.004.137.004s.102 0 .14-.004a2 2 0 0 0 .138-.008c.039 0 .101-.008.14-.011.035-.004.098-.016.137-.02l.14-.027c.036-.008.098-.024.137-.032.04-.011.102-.027.141-.039l.137-.043c.039-.011.101-.035.136-.05l.141-.055c.04-.016.102-.043.137-.063.039-.015.101-.046.14-.066s.102-.05.137-.07l.14-.082c.04-.02.102-.059.137-.082.04-.024.102-.063.141-.09.04-.024.102-.067.137-.094.039-.027.101-.074.14-.102s.102-.074.137-.105c.04-.031.102-.078.14-.11.04-.034.102-.085.137-.117.04-.035.102-.09.141-.12.04-.036.102-.094.137-.13l.14-.128.137-.137c.04-.04.102-.102.14-.145.04-.039.102-.101.137-.144l.141-.153c.04-.043.102-.109.137-.152.039-.047.101-.117.14-.16l.137-.164.14-.168c.04-.05.102-.125.138-.176.039-.047.101-.125.14-.176.04-.047.098-.129.137-.18l.14-.183c.04-.05.098-.137.137-.187l.14-.192.138-.195.14-.2c.04-.054.098-.144.137-.203.039-.054.101-.144.14-.203.04-.058.098-.148.137-.207s.102-.152.14-.21c.04-.06.099-.153.138-.215.039-.059.101-.153.14-.215.04-.059.098-.157.137-.219.039-.059.101-.156.14-.219.04-.062.098-.16.137-.222.04-.063.102-.16.14-.223.04-.063.099-.164.138-.227.039-.066.101-.168.14-.23.04-.063.098-.164.137-.23.039-.063.102-.165.14-.231.04-.063.098-.168.137-.23.04-.067.102-.169.14-.235.04-.062.099-.168.138-.234l.14-.235c.04-.066.098-.172.137-.234.04-.066.102-.172.14-.238.04-.067.098-.172.137-.239.04-.062.102-.168.141-.234l.137-.238.14-.239c.04-.062.098-.168.137-.234s.102-.172.14-.238c.04-.063.098-.168.137-.235l.141-.234c.035-.066.098-.172.137-.234l.14-.235c.035-.062.098-.168.137-.23l.14-.23c.036-.067.098-.169.137-.231.04-.066.102-.164.141-.23a7 7 0 0 1 .137-.227l.14-.223c.036-.062.098-.16.137-.222l.14-.22a10.271 10.271 0 0 1 .277-.434c.036-.061.099-.155.138-.214l.14-.21c.036-.06.098-.149.137-.208l.14-.203c.036-.058.098-.148.137-.203s.102-.144.141-.2c.035-.054.098-.14.137-.194.039-.051.101-.137.14-.192.036-.05.098-.136.137-.187l.14-.184a6.922 6.922 0 0 1 .277-.355c.036-.051.099-.125.138-.176.039-.047.101-.121.137-.168l.14-.164c.04-.043.102-.113.137-.16.039-.043.101-.114.14-.153.04-.043.102-.109.137-.152.04-.043.102-.105.14-.145l.138-.144c.039-.035.101-.098.14-.137.04-.035.102-.094.137-.129l.14-.129c.04-.03.102-.086.137-.12.04-.032.102-.083.14-.118.04-.031.102-.078.138-.11.039-.03.101-.077.14-.105l.137-.101c.039-.028.102-.07.14-.094l.137-.09c.04-.023.102-.062.14-.082.04-.023.102-.058.138-.082l.277-.137c.04-.02.102-.047.14-.062l.137-.055c.04-.015.102-.039.141-.05l.137-.044c.039-.011.101-.027.14-.039.04-.007.098-.023.137-.03l.14-.028c.04-.004.098-.016.137-.02s.102-.011.141-.011l.137-.012h.14c.04 0 .098 0 .137.004.04 0 .102.004.14.008.04.003.098.011.137.015.04.008.102.016.141.024l.137.027c.039.008.101.023.14.035.04.008.098.027.137.04.04.01.102.03.14.042.04.016.098.035.137.05l.141.06c.04.015.098.042.137.062s.101.047.14.066.098.055.137.075c.04.023.102.058.14.082.04.023.098.058.137.086.04.023.102.062.141.09.04.027.098.07.137.097s.101.07.14.102c.04.027.098.074.137.105s.102.082.14.113c.04.032.098.082.137.118.04.03.102.086.141.12.04.036.098.094.137.13.039.035.101.093.14.132l.137.137.14.145.138.148c.039.04.101.11.14.149l.137.16c.039.043.101.113.14.16l.137.164.14.168c.036.05.098.125.138.176a7 7 0 0 1 .277.359l.14.184c.036.05.098.136.137.187.04.055.102.14.14.195.036.055.099.141.138.196l.14.199c.035.055.098.144.137.203l.14.203c.036.059.098.153.137.211l.14.211c.036.059.099.152.138.211.039.063.101.156.14.219.035.058.098.156.137.219.039.058.102.156.14.218.036.063.098.16.137.223.04.062.102.164.14.226.036.063.099.165.138.227.039.063.101.164.136.227l.141.23c.04.066.102.168.137.23l.14.235c.04.066.102.168.137.234.04.063.102.168.14.235.04.066.102.168.137.234l.141.238c.04.063.102.168.137.235l.14.238c.04.062.102.168.137.234.04.067.102.172.14.239.04.066.102.171.137.238.04.062.102.168.141.234.04.067.102.172.137.239.039.062.101.168.14.234s.102.172.137.234l.14.235c.04.066.102.168.137.234.04.063.102.168.141.23.04.067.102.168.137.231.039.066.101.168.14.23.04.063.102.165.137.227l.14.227c.04.062.102.16.137.222l.141.223c.04.062.098.16.137.219.039.062.101.16.14.218.04.059.098.157.137.215l.14.211c.04.059.098.153.138.211.039.059.101.152.14.207.04.059.098.149.137.203.039.059.101.149.14.203s.098.141.137.196c.04.054.102.14.14.195l.138.191.14.188c.04.05.098.133.137.184s.101.128.14.18c.04.046.098.124.137.175l.14.168c.04.047.099.125.138.168.039.047.101.121.14.164s.098.117.137.16l.14.153c.04.042.098.109.137.148.04.043.102.105.14.148.04.04.099.102.138.137.039.04.101.102.14.137s.098.094.137.129l.14.129c.04.03.098.086.137.117.04.035.102.086.14.117l.138.11c.039.027.101.074.14.105.04.027.098.07.137.098s.102.066.14.093c.04.024.098.063.137.086.04.028.102.063.141.086.035.02.098.055.137.074.039.024.101.055.14.075.035.015.098.046.137.062a2 2 0 0 0 .277.113c.04.016.102.04.141.051l.137.043c.039.008.101.027.14.035.035.008.098.024.137.031.04.008.102.02.14.024.036.008.098.016.137.02l.141.011c.035.004.098.008.137.008h.14c.036 0 .098-.004.137-.004l.14-.012c.036-.004.098-.011.137-.02a2 2 0 0 0 .141-.023c.035-.004.098-.02.137-.027.039-.008.101-.023.14-.035.036-.012.098-.027.137-.04.04-.01.102-.034.14-.046.036-.016.098-.04.137-.055s.102-.039.141-.058c.035-.016.098-.043.137-.063s.101-.05.137-.07c.039-.02.101-.055.14-.074.04-.024.102-.059.137-.082l.14-.086c.04-.028.102-.067.137-.094a4.15 4.15 0 0 0 .277-.2 4.218 4.218 0 0 0 .277-.223 4 4 0 0 0 .142-.12c.039-.031.101-.086.136-.121.04-.035.102-.094.14-.129.04-.04.102-.098.138-.137l.14-.136c.04-.04.102-.106.137-.145.039-.043.101-.105.14-.148s.102-.11.137-.153c.04-.043.102-.113.14-.16.04-.043.102-.117.138-.16l.14-.168c.04-.047.102-.121.137-.168l.14-.176c.04-.05.102-.129.137-.18.04-.05.102-.128.14-.18.04-.054.102-.136.138-.187.039-.05.101-.136.14-.191.04-.05.098-.137.137-.192s.102-.14.14-.199c.04-.054.098-.14.137-.199.04-.055.102-.144.141-.203.039-.055.098-.148.137-.207l.14-.207c.04-.059.098-.152.137-.211s.102-.156.14-.215c.04-.059.098-.156.137-.219.04-.058.102-.156.141-.218.04-.059.098-.16.137-.22l.14-.226c.04-.062.098-.16.137-.222.04-.063.102-.164.14-.23.04-.063.098-.165.137-.227.04-.063.102-.168.141-.23.04-.063.098-.169.137-.231l.14-.235c.04-.066.098-.168.137-.234.04-.063.102-.168.14-.234l.137-.235.141-.238c.04-.063.098-.168.137-.234l.14-.239c.04-.066.137-.234.137-.234"/></g><use xlink:href="#m" x="82.709" y="233.399"/><use xlink:href="#b" x="2.977" y="220.049"/><use xlink:href="#c" x="7.729" y="221.925"/><path fill="none" stroke="#000" stroke-miterlimit="10" stroke-width=".39746784" d="M121.781 236.508h69.188"/><path stroke="#000" stroke-miterlimit="10" stroke-width=".39746784" d="m194.031 236.508-2.965-1.754v3.512Zm0 0"/><path fill="none" stroke="#000" stroke-miterlimit="10" stroke-width=".39746784" d="M121.781 239.332v-24.777"/><path stroke="#000" stroke-miterlimit="10" stroke-width=".39746784" d="m121.781 211.492-1.758 2.961h3.516Zm0 0"/><g clip-path="url(#n)"><path fill="none" stroke="#000" stroke-miterlimit="10" stroke-width=".39746784" d="m121.781 222.953.14-.14c.036-.04.099-.102.138-.145l.14-.14c.035-.04.098-.102.137-.141l.14-.14c.036-.04.098-.102.137-.142l.14-.14c.036-.04.099-.102.138-.14l.14-.141.137-.137c.039-.04.102-.098.14-.137.036-.039.098-.097.137-.137.04-.039.102-.097.14-.136.036-.035.099-.098.138-.133s.101-.098.14-.133l.137-.133c.04-.035.102-.093.14-.129l.137-.129c.04-.035.102-.093.137-.125.04-.035.102-.093.14-.128.04-.032.102-.09.137-.122.04-.035.102-.09.141-.12l.137-.122c.039-.035.101-.086.14-.117l.137-.117c.04-.031.102-.082.14-.113.04-.032.102-.082.137-.114l.141-.109.137-.106c.039-.03.101-.078.14-.105l.137-.102c.04-.027.102-.074.14-.101.04-.027.102-.07.137-.098.04-.027.102-.066.141-.093.04-.028.102-.067.137-.09.039-.028.101-.067.14-.09l.137-.086.14-.086c.04-.02.102-.059.137-.078.04-.024.102-.059.141-.078.04-.024.102-.055.137-.075l.14-.07c.04-.02.102-.05.137-.07.04-.02.102-.047.14-.067.04-.015.098-.043.138-.058.039-.02.101-.043.14-.059.04-.015.098-.043.137-.058.039-.012.101-.035.14-.051.04-.012.098-.035.137-.047.04-.016.102-.035.14-.047l.138-.043c.039-.012.101-.027.14-.039.04-.008.098-.023.137-.035.039-.008.101-.02.14-.031l.137-.028c.04-.007.102-.015.14-.023.04-.008.099-.016.138-.02.039-.007.101-.015.14-.02.04-.003.098-.01.137-.01.039-.005.101-.009.14-.013.04-.003.098-.003.137-.007.04 0 .102 0 .14-.004.04 0 .099 0 .138.004.039 0 .101 0 .14.004.04 0 .098.003.137.007.039 0 .102.004.14.008l.137.016c.04.004.102.011.14.02.04.003.099.015.138.019l.14.027.137.027c.04.012.102.024.14.036.04.007.098.023.137.035.04.008.102.027.141.039l.137.043c.039.012.101.031.14.047.04.011.098.035.137.047l.14.054c.036.016.098.04.137.055l.141.059c.035.02.098.046.137.066.039.016.101.047.14.062.035.02.098.051.137.07s.102.052.14.075c.036.02.098.05.137.074.04.02.102.055.141.078l.137.082c.039.02.101.059.14.082.036.024.098.063.137.086.04.028.102.067.14.09.036.028.098.067.137.094s.102.07.141.094c.035.027.098.07.137.097.039.032.101.075.14.102l.137.105c.04.028.102.075.14.106l.137.105c.04.032.102.078.141.11l.137.113.14.113c.036.031.098.086.137.117s.102.086.14.118c.036.035.098.09.137.12.04.036.102.09.137.126.04.031.102.09.14.12.04.036.102.095.138.13l.14.125c.04.035.102.093.137.129.039.035.101.093.14.132.04.036.102.094.137.13.04.038.102.097.14.136.04.035.102.094.138.133l.14.137c.04.035.102.097.137.136.039.035.101.098.14.137s.102.098.137.137l.14.14c.04.04.102.102.138.141l.14.14c.04.04.102.102.137.141l.14.14c.04.04.102.102.137.141.04.04.102.102.14.145.04.04.102.102.138.14l.14.141c.04.04.102.106.137.145l.14.14c.04.04.102.102.137.141.04.043.102.106.141.145l.137.14.14.14.137.141.14.141c.04.035.098.098.137.137s.102.101.141.137c.04.039.098.101.137.136.039.04.101.102.14.137l.137.137c.04.035.102.097.14.133.04.039.098.097.137.132s.102.094.141.133c.04.035.098.094.137.129l.14.129c.04.035.098.09.137.125l.14.125c.04.035.098.09.137.125.04.031.102.086.141.121.04.031.098.086.137.117.039.035.101.086.14.117.04.036.098.086.137.118.04.03.102.082.14.113.04.031.098.082.137.11.04.03.102.081.141.109.04.03.098.078.137.109.039.027.101.074.14.102.04.03.098.074.137.101s.102.074.14.102c.04.027.098.07.137.093.04.028.102.07.141.094l.137.094.14.086c.04.027.098.062.137.086s.102.062.14.082c.036.023.098.058.138.082.039.02.101.055.14.074.035.024.098.055.137.074.039.02.101.055.14.07.036.02.098.051.137.07.04.017.102.048.14.063.036.02.098.047.138.063l.14.059c.035.015.098.039.137.054.039.012.101.035.14.051.036.012.098.035.137.047l.14.043.138.043c.039.012.101.027.14.035.035.012.098.027.137.035s.101.024.14.031l.137.028c.04.008.102.015.14.023.036.008.099.016.138.02l.14.015.137.016c.039 0 .102.008.14.008.036.004.098.004.137.008h.278c.039 0 .101-.004.136-.004l.141-.012c.04 0 .102-.008.137-.012.039-.004.101-.008.14-.015a1 1 0 0 0 .137-.02c.04-.004.102-.016.14-.02.04-.007.102-.019.137-.027l.141-.031c.04-.008.102-.024.137-.031l.14-.04c.04-.007.102-.027.137-.038l.14-.043c.04-.012.102-.036.137-.047.04-.016.102-.035.141-.051l.137-.055.14-.054c.04-.02.102-.043.137-.063.04-.016.102-.047.14-.062.04-.02.102-.047.137-.067l.141-.07c.04-.02.102-.05.137-.074l.14-.075.137-.078c.04-.023.102-.058.14-.082l.137-.086a3 3 0 0 0 .141-.09c.04-.023.098-.062.137-.09a3 3 0 0 0 .14-.093c.04-.024.098-.067.137-.094s.102-.07.14-.098c.04-.027.098-.074.138-.101.039-.027.101-.074.14-.106.04-.027.098-.074.137-.105.039-.027.101-.078.14-.11.04-.027.098-.078.137-.109s.102-.082.14-.113c.04-.031.098-.082.138-.113l.14-.118.137-.12c.039-.032.101-.087.14-.122.04-.031.098-.086.137-.12.04-.036.102-.09.14-.126l.138-.125.14-.129c.04-.035.098-.093.137-.129.039-.035.101-.093.14-.132.04-.036.098-.094.137-.13.04-.038.102-.097.14-.136.04-.035.099-.094.138-.133l.14-.137.137-.136c.039-.04.102-.098.14-.137.04-.04.098-.102.137-.14.04-.036.102-.098.14-.137l.138-.141.14-.14.137-.141.14-.14c.04-.044.098-.106.137-.145l.141-.141c.035-.04.098-.102.137-.145l.14-.14c.035-.04.098-.102.137-.14l.14-.145c.036-.04.098-.102.137-.141l.141-.14c.035-.04.098-.102.137-.141l.14-.14c.035-.04.098-.102.137-.141l.14-.141c.036-.04.098-.102.137-.137l.141-.14.137-.137c.039-.035.101-.098.14-.133.036-.039.098-.098.137-.137.04-.035.102-.097.14-.132.036-.036.098-.098.137-.133s.102-.094.141-.13c.035-.038.098-.093.137-.132l.14-.125c.036-.035.098-.094.137-.129.04-.031.102-.09.14-.121.036-.035.098-.09.137-.125s.102-.086.141-.121c.035-.031.098-.086.137-.117.039-.035.101-.086.137-.118.039-.035.101-.085.14-.117.04-.03.102-.082.137-.113.039-.031.101-.078.14-.11.04-.03.102-.077.137-.109.04-.027.102-.074.14-.105l.138-.102c.039-.031.101-.074.14-.101s.102-.07.137-.098l.14-.098c.04-.027.102-.066.137-.093.04-.024.102-.067.14-.09l.138-.086c.039-.028.101-.063.14-.086.04-.024.102-.059.137-.082.039-.024.101-.059.14-.078.04-.024.102-.055.137-.078l.14-.07c.04-.02.102-.051.138-.071.039-.02.101-.05.14-.066.04-.02.102-.047.137-.067.039-.015.102-.043.14-.058a2.028 2.028 0 0 1 .277-.11 3 3 0 0 1 .278-.097c.04-.016.098-.032.137-.043l.14-.043c.04-.008.098-.028.137-.036.04-.011.102-.023.141-.035l.137-.027.14-.027c.04-.008.098-.016.137-.024.04-.004.102-.015.14-.02.04-.003.098-.011.137-.015l.141-.012c.04-.004.098-.007.137-.007s.101-.004.14-.004c.04-.004.098-.004.137-.004s.102.004.14.004c.04 0 .098.004.137.004l.141.011.137.012.14.016c.04.007.098.015.137.023.04.004.102.016.14.023.04.004.098.016.137.028l.141.027c.04.012.098.027.137.035l.14.04.137.038c.04.012.102.032.14.047.04.012.098.032.137.047.04.012.102.035.141.05l.137.056c.039.015.101.043.14.058s.098.043.137.059c.04.02.102.047.14.066l.137.067.141.07c.035.02.098.055.137.074.039.02.101.055.14.078l.137.078.14.082c.036.024.098.063.138.086.039.024.101.063.14.09.035.024.098.067.137.09.039.027.101.066.14.094.036.027.098.07.137.097.04.028.102.07.14.098.036.027.098.074.138.102.039.03.101.074.14.105.035.027.098.078.137.106l.14.109c.036.031.098.082.137.113.04.032.102.078.14.114l.138.113c.039.031.101.086.14.117.035.035.098.086.137.121.039.031.101.086.14.121.036.035.098.09.137.121.04.035.102.094.14.125l.138.13c.039.034.101.093.14.128.035.035.098.094.137.129s.102.094.137.133l.14.129c.04.039.102.097.137.136.04.036.102.098.14.133.04.04.102.098.137.137l.141.137.137.136.14.141c.04.04.102.102.137.14l.14.141c.04.04.102.102.137.14l.141.142c.04.039.102.101.137.14l.14.14c.04.04.102.106.137.145l.14.141c.04.039.102.102.137.145l.141.14c.04.04.102.102.137.14l.14.145c.04.04.102.102.137.14.04.04.102.102.14.142.04.039.102.101.137.14l.141.14.137.137.14.141.137.137c.04.039.102.097.14.137l.137.136c.04.035.102.094.141.133.04.035.098.098.137.133s.101.098.14.133.098.093.137.129c.04.035.102.093.14.129.04.035.098.093.138.128l.14.125.137.125c.039.036.101.09.14.122.04.035.098.09.137.12.04.036.102.087.14.118.04.035.098.086.138.117.039.031.101.082.14.117l.137.11c.039.03.101.082.14.109l.137.11.14.105c.04.027.099.074.138.101.039.032.101.075.14.102s.098.07.137.098.101.07.14.093c.04.028.098.07.137.094.04.027.102.066.14.09.04.023.099.062.138.086l.14.086.137.082c.039.02.102.055.14.078.04.02.098.055.137.074l.14.07.138.07c.039.02.101.048.14.067.035.02.098.047.137.063.04.015.102.043.14.058l.137.059c.04.015.102.039.141.05.035.016.098.036.137.051.039.012.101.036.14.047.035.012.098.032.137.043.04.012.102.028.14.04.036.007.098.023.137.034.04.008.102.024.141.032l.137.031c.039.008.101.016.14.023.035.008.098.016.137.024l.14.016c.036.007.098.011.137.015l.141.012c.035.004.098.008.137.008s.101.004.14.004h.137c.04 0 .102 0 .14-.004.036 0 .098-.004.137-.004l.141-.012c.035-.004.098-.008.137-.016.039-.003.101-.011.14-.015.036-.004.098-.016.137-.02l.137-.027.14-.027c.04-.008.102-.024.137-.032.04-.008.102-.023.14-.035.04-.012.102-.027.138-.039.039-.012.101-.027.14-.039.04-.016.102-.035.137-.047.039-.012.101-.035.14-.05.04-.012.102-.036.137-.051l.14-.055.138-.059c.039-.015.101-.043.14-.062.04-.016.102-.047.137-.067a4.41 4.41 0 0 0 .277-.137c.04-.019.102-.054.14-.074l.138-.078.14-.082c.04-.023.102-.058.137-.082l.14-.086c.04-.023.102-.066.137-.09a3 3 0 0 0 .14-.093c.04-.024.102-.067.138-.094l.14-.098c.04-.027.098-.07.137-.097l.14-.102c.04-.031.098-.078.137-.105.04-.032.102-.078.14-.11.04-.027.099-.078.138-.11.039-.026.101-.077.14-.108l.137-.114c.04-.035.102-.086.14-.117.04-.031.098-.086.137-.117.04-.035.102-.086.141-.121s.098-.09.137-.121l.14-.125c.04-.035.098-.09.137-.125s.102-.09.14-.13c.04-.034.098-.09.137-.124.04-.04.102-.094.141-.133.04-.035.098-.094.137-.129.039-.039.101-.098.14-.133l.137-.136c.04-.036.102-.098.14-.133.04-.04.098-.102.137-.137.04-.04.102-.102.141-.137.04-.039.098-.101.137-.14s.101-.102.14-.137c.04-.04.098-.102.137-.14l.14-.141c.04-.04.098-.102.137-.14l.141-.142c.04-.039.098-.105.137-.144l.14-.14.137-.141.14-.145"/></g><use xlink:href="#m" x="189.223" y="244.696"/><use xlink:href="#d" x="111.511" y="220.049"/><use xlink:href="#e" x="114.021" y="221.925"/></svg>