<svg xmlns="http://www.w3.org/2000/svg" xmlns:xlink="http://www.w3.org/1999/xlink" width="230.916" height="108.436"><defs><path id="a" d="M3.484-5.828c-.203 0-.75.078-1.078.078-.344 0-.687-.016-1.078-.016l-.031.016-.031.188c-.016.03 0 .046.03.046l.329.016c.125.016.313.078.313.297v.078L1.063-.641c-.047.25-.172.36-.547.375l-.22.032C.25-.234.22-.22.22-.172L.172 0l.031.016C.593.016.953 0 1.281 0c.344 0 .688.016 1.094.016L2.406 0l.016-.172c.015-.047-.016-.062-.047-.062l-.219-.032C1.86-.28 1.75-.344 1.75-.53v-.11l.39-1.953c.72 0 .86.125.954.344l.61 1.547c.171.422.468.797.983.797A1 1 0 0 0 5.063.03l.016-.218c-.375 0-.531-.297-.672-.688L3.688-2.75c.39-.125 1.25-.594 1.437-1.531.016-.11.031-.219.031-.328a1.17 1.17 0 0 0-.281-.782c-.328-.406-.844-.437-1.39-.437m-.046.297c.453 0 .968.156.968.89 0 .094-.015.235-.047.375-.203 1.11-.906 1.36-1.734 1.36h-.437l.437-2.219c.047-.25.203-.406.813-.406m0 0"/><path id="w" d="M1.063-.64c-.047.25-.204.359-.547.374l-.22.032C.25-.234.22-.22.22-.172L.172 0l.031.016C.516.016.937 0 1.297 0c.328 0 .766.016 1.172.016L2.484 0l.032-.172c.015-.047-.016-.062-.047-.062l-.313-.032C1.875-.28 1.75-.344 1.75-.53v-.11l.39-1.968c.172.062.329.093.641.093 1.563 0 2.203-1.062 2.344-1.828.016-.078.031-.172.031-.281 0-.516-.297-1.203-1.625-1.203-.219 0-.781.078-1.125.078s-.781-.016-1.078-.016l-.031.016-.031.188c-.016.03 0 .046.03.046l.329.016c.125.016.313.078.313.297v.078Zm1.562-4.485c.047-.25.172-.406.781-.406.516 0 1 .156 1 .89 0 .141-.031.282-.062.47-.188.952-.719 1.359-1.547 1.359-.219 0-.516-.032-.61-.047Zm0 0"/><path id="b" d="M1.063 0h1.515c.203 0 .86.016.86.016.062-.36.14-.828.187-1.188a.32.32 0 0 0-.234-.047c-.157.516-.407.938-1.172.938h-.453c-.266 0-.407-.14-.407-.5v-2.953c0-.594.125-.625.625-.657.047-.03.047-.187 0-.234-.328.016-.656.016-.921.016-.266 0-.594 0-.922-.016-.047.047-.047.203 0 .234.5.032.609.063.609.657v2.859c0 .594-.11.625-.61.656-.046.047-.046.188 0 .235C.423 0 .829 0 1.064 0m0 0"/><path id="f" d="M.438-3.344c0 .156.14.281.28.281.126 0 .345-.124.345-.28 0-.063-.016-.11-.032-.157-.015-.047-.062-.11-.062-.172 0-.172.187-.437.703-.437.266 0 .625.187.625.875 0 .453-.156.828-.578 1.25l-.532.515C.485-.75.375-.406.375.016c0 0 .36-.016.594-.016h1.25c.219 0 .547.016.547.016.093-.375.172-.922.172-1.125-.032-.047-.126-.047-.204-.047-.125.515-.25.687-.5.687H.97c0-.343.484-.828.531-.86l.719-.687c.406-.39.703-.718.703-1.25 0-.78-.625-1.093-1.203-1.093-.797 0-1.281.593-1.281 1.015m0 0"/><path id="g" d="M2.063-.875v-2.469c0-.437 0-.875.015-.969 0-.03-.015-.03-.047-.03-.39.25-.765.421-1.39.718.015.078.03.14.109.188.328-.141.484-.172.61-.172.124 0 .14.172.14.406v2.328c0 .594-.187.625-.687.656-.047.047-.047.188 0 .235C1.156 0 1.422 0 1.813 0c.343 0 .515 0 .859.016.047-.047.047-.188 0-.235-.5-.031-.61-.062-.61-.656m0 0"/><path id="h" d="M1.531-4.11c.313 0 .594.188.594.641 0 .36-.406.906-1.125 1.016l.047.219h.344c.406 0 .937.109.937.906 0 .953-.64 1.156-.89 1.156-.36 0-.438-.172-.516-.297C.844-.579.75-.656.609-.656c-.14 0-.296.14-.296.25 0 .281.593.484 1.03.484.845 0 1.61-.562 1.61-1.5 0-.781-.594-1.062-1.015-1.125v-.015c.578-.282.75-.579.75-.954 0-.218-.047-.39-.22-.562-.155-.156-.405-.281-.78-.281-1.047 0-1.36.687-1.36.922 0 .109.078.25.25.25.25 0 .281-.235.281-.376 0-.453.485-.546.672-.546m0 0"/><path id="x" d="M1.36-.875v-2.86c0-.593.124-.624.624-.656.047-.03.047-.187 0-.234-.312.016-.656.016-.921.016-.235 0-.594 0-.922-.016-.047.047-.047.203 0 .234.5.032.609.063.609.657v2.859c0 .594-.11.625-.61.656-.046.047-.046.188 0 .235C.454 0 .814 0 1.064 0c.265 0 .593 0 .921.016.047-.047.047-.188 0-.235-.5-.031-.625-.062-.625-.656m0 0"/><path id="y" d="M3.969-3.656v2.328c0 .14 0 .219-.047.219-.031 0-.14-.125-.344-.391L1.125-4.61l-.953-.015c-.047.047-.047.203 0 .234a.69.69 0 0 1 .562.47v2.968c0 .64-.125.687-.625.734-.046.047-.046.188 0 .235C.422 0 .734 0 .906 0s.5 0 .797.016c.047-.047.047-.188 0-.235-.5-.047-.625-.078-.625-.734v-2.188c0-.234 0-.343.063-.343q.046 0 .234.234l2.5 3.156c.078.094.172.172.281.172.094 0 .157-.094.157-.234v-3.5c0-.64.125-.672.625-.735.046-.03.046-.187 0-.234-.282.016-.625.016-.797.016-.157 0-.485 0-.797-.016-.031.047-.031.203 0 .234.5.063.625.079.625.735m0 0"/><path id="A" d="M4.75-2.344c0-1.484-1.016-2.36-2.297-2.36-1.375 0-2.187 1.11-2.187 2.485C.266-.813 1.28.078 2.5.078c.797 0 1.422-.344 1.813-.906.28-.406.437-.922.437-1.516M2.36-4.437c.953 0 1.703.78 1.703 2.218 0 1.281-.61 2.031-1.422 2.031-.875 0-1.688-.78-1.688-2.14 0-1.5.703-2.11 1.406-2.11m0 0"/><path id="B" d="M1.234-3.734c0-.594.094-.625.657-.657.03-.03.03-.187 0-.234-.344.016-.688.016-.97.016-.28 0-.577 0-.843-.016-.047.047-.047.203 0 .234.422.032.547.063.547.657v2.078c0 1.453.938 1.734 1.672 1.734 1.453 0 1.812-.906 1.812-2.187v-1.625c0-.578.125-.594.547-.657.047-.03.047-.187 0-.234-.265.016-.562.016-.734.016-.14 0-.5 0-.828-.016-.031.047-.031.203 0 .234.547.063.656.079.656.657v1.75c0 .812-.094 1.765-1.312 1.765-.344 0-.626-.125-.844-.343-.344-.329-.36-.875-.36-1.344Zm0 0"/><path id="C" d="M2.5-.875v-2.719c0-.469.078-.734.328-.734h.156c.532 0 .875.187 1 .734.079 0 .172 0 .235-.031a11 11 0 0 1-.094-1.016c0-.015-.016-.015-.016-.015-.25.015-1.03.047-1.609.047h-.61c-.546 0-1.39-.032-1.656-.047-.015 0-.03 0-.03.015-.032.329-.11.688-.188 1.032a.7.7 0 0 0 .25.03c.14-.562.468-.75.937-.75h.36c.265 0 .328.266.328.704v2.75c0 .594-.125.625-.688.656-.047.047-.047.188 0 .235C1.547 0 1.906 0 2.203 0c.266 0 .625 0 .985.016.046-.047.046-.188 0-.235C2.625-.25 2.5-.28 2.5-.875m0 0"/><path id="c" d="M1.125-5.797h2.547l-.047.781H1.531l-.125 1.407q1.296.046 1.875.547.546.455.547 1.374a1.7 1.7 0 0 1-.547 1.266Q2.75.111 1.906.11 1.168.108.828-.156a.61.61 0 0 1-.281-.516q0-.405.39-.547.171.376.282.5.311.328.828.328.527 0 .844-.328c.195-.207.297-.476.297-.812q0-.732-.563-1.047-.563-.328-1.781-.328Zm0 0"/><path id="d" d="M2.234-.39q1.092.001 1.094-2.516c0-1.664-.367-2.5-1.094-2.5-.73 0-1.093.836-1.093 2.5 0 1.68.363 2.515 1.093 2.515m-.046.5q-.862 0-1.36-.75Q.296-1.42.297-2.907c0-.977.187-1.735.562-2.266.352-.488.829-.734 1.422-.734q.873.001 1.36.734c.343.531.515 1.29.515 2.266q0 1.487-.562 2.265-.516.75-1.406.75m0 0"/><path id="e" d="M6.125-3.469q0 .924-.562 1.719-.488.69-1.157 1.047v.172H5.61l.125-.719a.44.44 0 0 1 .204-.047q.28.001.28.406 0 .365-.046.891H3.844v-.89C4.82-1.38 5.313-2.25 5.313-3.5q-.001-1.03-.547-1.64-.533-.61-1.375-.61-.845 0-1.391.61-.532.626-.531 1.64-.001.877.343 1.531.376.738 1.126 1.078V0H.624a10 10 0 0 1-.047-.89c0-.27.086-.407.266-.407q.107 0 .203.047l.14.719h1.188v-.156c-.43-.188-.809-.524-1.14-1.016Q.654-2.53.655-3.47q-.001-1.216.766-2 .762-.797 1.969-.797c.8 0 1.457.258 1.968.766.508.512.766 1.188.766 2.031m0 0"/><path id="i" d="M2.36-6.156q3.562.001 3.562 2.984 0 1.583-.938 2.39C4.367-.257 3.492 0 2.36 0H.422a.16.16 0 0 1-.016-.078Q.404-.324.72-.406l.375-.078v-5.203l-.547-.125C.46-5.82.422-5.852.422-5.906q0-.075.094-.25ZM2.343-.5q1.313 0 2.015-.672c.477-.445.72-1.101.72-1.969 0-.832-.243-1.457-.72-1.875q-.702-.639-2.015-.64h-.469V-.5Zm0 0"/><path id="j" d="M2.656-2.781q0-.576-.187-.86-.174-.28-.594-.28a1.5 1.5 0 0 0-.531.093q-.11.235-.203.781a2 2 0 0 1-.188.016q-.438 0-.437-.39 0-.39.468-.673A1.9 1.9 0 0 1 2-4.39c.914 0 1.375.508 1.375 1.516v1.953c0 .336.102.5.313.5q.216.001.328-.11.077.112.078.25c0 .063-.055.134-.157.204a.9.9 0 0 1-.53.156q-.63 0-.688-.61h-.031q-.41.643-1.22.641-.502 0-.812-.312-.313-.311-.312-.828c0-.438.219-.774.656-1.016.375-.195.848-.297 1.422-.297h.234Zm-.89 2.328q.498 0 .89-.469v-1.015l-.234.015q-1.299.096-1.297.813c0 .437.21.656.64.656m-.547-4.61a.43.43 0 0 1-.437-.453c0-.132.038-.242.124-.328a.43.43 0 0 1 .313-.125c.125 0 .226.043.312.125a.46.46 0 0 1 .125.328.45.45 0 0 1-.125.329.42.42 0 0 1-.312.125m1.515 0a.43.43 0 0 1-.437-.453q-.002-.199.125-.328a.43.43 0 0 1 .312-.125q.186.001.313.125a.46.46 0 0 1 .125.328.45.45 0 0 1-.125.329.42.42 0 0 1-.313.125m0 0"/><path id="k" d="m7.078-.469.531.125q.124.017.125.11A.35.35 0 0 1 7.641 0H5.75v-.062c0-.133.086-.235.266-.297l.343-.11V-2.75c0-.695-.289-1.047-.859-1.047q-.69.002-1.203.485.06.327.062.515v2.328l.532.125q.124.017.125.11A.35.35 0 0 1 4.922 0h-1.89v-.062c0-.133.085-.235.265-.297l.328-.11V-2.75c0-.695-.281-1.047-.844-1.047-.437 0-.824.149-1.156.438v2.89l.547.125q.124.017.125.11A.35.35 0 0 1 2.203 0H.313a.1.1 0 0 1-.016-.062c0-.133.094-.235.281-.297l.328-.11v-3.328l-.64-.078a.2.2 0 0 1-.016-.078q0-.246.328-.281l1.047-.11-.047.61h.031q.61-.657 1.422-.657c.54 0 .922.243 1.14.72.427-.477.938-.72 1.532-.72q.638 0 1 .422.375.41.375 1.172Zm0 0"/><path id="l" d="M.86 1.328v-5.125l-.657-.078v-.078q0-.246.328-.281l1.047-.11-.047.594h.016q.544-.64 1.328-.64.762 0 1.219.546.452.549.453 1.531 0 1.173-.61 1.782-.579.579-1.593.578c-.25 0-.508-.04-.766-.11v1.391l.531.11q.124.027.125.109a.4.4 0 0 1-.078.234H.266A.13.13 0 0 1 .25 1.72q0-.205.281-.297Zm1.734-5.14q-.581 0-1.016.421v2.672q.358.282.844.282 1.373 0 1.375-1.844 0-.715-.328-1.125-.314-.405-.875-.406m0 0"/><path id="m" d="M.922-4.281v-.047q-.001-.996.484-1.594c.282-.344.617-.516 1.016-.516q.546 0 .547.422a.46.46 0 0 1-.156.329 1.1 1.1 0 0 0-.579-.172q-.328 0-.468.187c-.086.117-.125.309-.125.578v.813h1.203l-.094.468H1.64v3.344l.626.125q.124.017.125.11A.35.35 0 0 1 2.297 0H.328a.1.1 0 0 1-.016-.062c0-.133.094-.235.282-.297l.328-.11v-3.343H.234v-.063q0-.233.282-.297Zm0 0"/><path id="n" d="m.781-3.797-.64-.078a.2.2 0 0 1-.016-.078q0-.246.328-.281l1.047-.11v2.813q-.002 1.048.906 1.047.684 0 1.094-.438v-2.875l-.64-.078a.2.2 0 0 1-.016-.078q0-.246.328-.281l1.062-.11v3.86l.641.078q.014.047.016.078 0 .252-.328.281l-1 .094v-.578h-.016c-.344.43-.797.64-1.36.64Q.782.11.782-1.484Zm0 0"/><path id="o" d="M.906-.469v-3.328l-.64-.078a.2.2 0 0 1-.016-.078q0-.246.328-.281l1.047-.11-.047.61h.031q.294-.294.516-.422.404-.235.953-.235c.438 0 .774.141 1.016.422q.359.422.36 1.172v2.328L5-.344q.124.017.125.11A.35.35 0 0 1 5.031 0h-1.89a.1.1 0 0 1-.016-.062c0-.133.094-.235.281-.297l.328-.11V-2.75q-.002-.544-.296-.812a.97.97 0 0 0-.657-.235c-.437 0-.824.149-1.156.438v2.89l.547.125q.124.017.125.11A.35.35 0 0 1 2.203 0H.313a.1.1 0 0 1-.016-.062c0-.133.094-.235.281-.297Zm0 0"/><path id="p" d="M.484-2.969c0-.437.164-.789.5-1.062q.452-.36 1.125-.36c.239 0 .47.04.688.11h1.515l-.093.484h-.735q.265.361.266.828-.001.675-.5 1.078-.457.392-1.187.391-.206 0-.422-.047-.282.16-.282.406-.001.33.485.329h1.015q.577.001.907.265a.83.83 0 0 1 .343.703c0 .469-.203.867-.609 1.203-.43.352-.996.532-1.703.532C.742 1.89.219 1.539.219.844c0-.524.27-.875.812-1.063v-.015a.62.62 0 0 1-.36-.594q0-.5.61-.828v-.016Q.484-2.045.484-2.969m1.625 1q.938.001.938-1-.002-.45-.25-.703-.25-.264-.672-.265-.907.001-.906.968 0 1.001.89 1m-.39 1.86q-.19.002-.344-.032C1.07.012.922.266.922.61q-.001.797 1 .797.684-.002 1.094-.297.375-.251.375-.656 0-.562-.735-.562Zm0 0"/><path id="q" d="M1-.578q.264.204.656.203c.508 0 .766-.195.766-.594q-.002-.234-.25-.468a11 11 0 0 0-.578-.407q-.534-.327-.75-.562a1.18 1.18 0 0 1-.36-.844c0-.352.133-.629.407-.828q.406-.312 1.015-.313c.395 0 .711.102.953.297q.047.346.047.547c0 .305-.117.453-.344.453a.16.16 0 0 1-.078-.015l-.109-.641a1.13 1.13 0 0 0-.61-.187c-.437 0-.656.18-.656.53q0 .363.516.688.469.316.938.61c.332.28.5.601.5.953q-.001.55-.407.906-.408.362-1.094.36C1.126.11.767.022.484-.14a3.7 3.7 0 0 1-.078-.735q0-.422.328-.422h.094Zm0 0"/><path id="r" d="M.86-.469v-5.468l-.641-.079a.2.2 0 0 1-.016-.078q0-.246.328-.281l1.063-.11v6.016l.531.125q.124.017.125.11A.35.35 0 0 1 2.156 0H.266v-.062c0-.133.086-.235.265-.297Zm0 0"/><path id="s" d="M.906-.469v-3.328l-.64-.078a.2.2 0 0 1-.016-.078q0-.246.328-.281l1.047-.11v3.875l.547.125q.124.017.125.11A.35.35 0 0 1 2.203 0H.313a.1.1 0 0 1-.016-.062c0-.133.094-.235.281-.297Zm-.14-5.36q0-.233.14-.374a.48.48 0 0 1 .36-.14q.217 0 .359.14a.49.49 0 0 1 .156.375.49.49 0 0 1-.156.375.5.5 0 0 1-.36.14.48.48 0 0 1-.359-.14.5.5 0 0 1-.14-.375m0 0"/><path id="t" d="M1.156-2.172q.012.845.375 1.297c.239.305.578.453 1.016.453q.576 0 1.094-.422.092.064.109.25c0 .137-.133.282-.39.438q-.487.265-1.126.265-.813.002-1.28-.5Q.39-.965.39-2.062.39-3.17.969-3.812c.351-.383.789-.579 1.312-.579q.686 0 1.078.422.375.41.375 1.078c0 .2-.039.438-.109.72Zm1.032-1.75q-.91.002-1.016 1.328h1.75q.047-.187.047-.375-.001-.951-.781-.953m0 0"/><path id="u" d="M3.406-.516h-.031Q2.935.11 2.109.11 1.39.11.922-.359.39-.903.39-2.016q0-1.168.703-1.812.591-.563 1.5-.563c.258 0 .515.04.765.11v-1.657l-.656-.078a.2.2 0 0 1-.015-.078q-.001-.246.343-.281l1.047-.11v6l.656.079v.078q0 .252-.328.281l-1 .094Zm-1.094.047q.656 0 1.047-.39v-2.703c-.218-.22-.507-.329-.859-.329-.398 0-.719.149-.969.438q-.39.468-.39 1.312-.001.846.343 1.282.295.39.829.39m0 0"/><clipPath id="v"><path d="M.555 0H163v107.875H.555Zm0 0"/></clipPath><clipPath id="z"><path d="M150 7h80.277v98H150Zm0 0"/></clipPath></defs><path fill="none" stroke="#000" stroke-miterlimit="10" stroke-width=".39693717" d="M36.492 18.2v27.058m0 21.047v27.058"/><path fill="none" stroke="#000" stroke-miterlimit="10" stroke-width=".79287951" d="M47.016 55.781c0-5.812-4.711-10.523-10.524-10.523S25.97 49.968 25.97 55.78s4.71 10.524 10.523 10.524 10.524-4.711 10.524-10.524Zm0 0"/><path fill="none" stroke="#000" stroke-miterlimit="10" stroke-width=".79287951" d="M31.23 55.781c.86-1.347 1.68-2.629 2.633-2.629.95 0 1.774 1.282 2.63 2.63.859 1.347 1.679 2.632 2.632 2.632.95 0 1.773-1.285 2.629-2.633"/><use xlink:href="#a" x="4.143" y="52.348"/><use xlink:href="#b" x="9.398" y="54.221"/><use xlink:href="#c" x="4.143" y="63.2"/><use xlink:href="#d" x="8.603" y="63.2"/><use xlink:href="#e" x="14.544" y="63.2"/><path fill="none" stroke="#000" stroke-miterlimit="10" stroke-width=".39693717" d="M36.492 18.2h31.32m0 0h42.34m28.063 0h11.023"/><path stroke="#000" stroke-miterlimit="10" stroke-width=".39693717" d="M100.707 18.2a1.579 1.579 0 0 0-3.156 0 1.58 1.58 0 0 0 1.578 1.581 1.58 1.58 0 0 0 1.578-1.582Zm0 0"/><path fill="none" stroke="#000" stroke-miterlimit="10" stroke-width=".79287951" d="M110.152 12.937h28.063v10.524h-28.063Zm0 0"/><use xlink:href="#a" x="119.705" y="9.202"/><use xlink:href="#f" x="124.959" y="11.075"/><path fill="none" stroke="#000" stroke-miterlimit="10" stroke-width=".39693717" d="M99.129 18.2v23.55m0 28.063v23.55H67.813m0 0h-31.32"/><path fill="none" stroke="#000" stroke-miterlimit="10" stroke-width=".79287951" d="M93.867 69.813V41.75h10.524v28.063Zm0 0"/><use xlink:href="#a" x="106.521" y="57.923"/><use xlink:href="#g" x="111.775" y="59.796"/><path fill="none" stroke="#000" stroke-miterlimit="10" stroke-width=".39693717" d="M149.238 18.2v23.55m0 28.063v23.55"/><path fill="none" stroke="#000" stroke-miterlimit="10" stroke-width=".79287951" d="M143.977 69.813V41.75H154.5v28.063Zm0 0"/><path stroke="#000" stroke-miterlimit="10" stroke-width=".39693717" d="M150.816 18.2a1.579 1.579 0 0 0-3.156 0 1.58 1.58 0 0 0 1.578 1.581 1.58 1.58 0 0 0 1.578-1.582ZM150.816 93.363a1.579 1.579 0 1 0-3.157.002 1.579 1.579 0 0 0 3.157-.002Zm0 0"/><use xlink:href="#a" x="132.888" y="57.923"/><use xlink:href="#h" x="138.142" y="59.796"/><path fill="none" stroke="#000" stroke-miterlimit="10" stroke-width=".39693717" d="M149.238 18.2h31.32m0 0h31.317v23.55m0 28.063v23.55H180.56m0 0h-56.375m0 0H99.129"/><path fill="none" stroke="#000" stroke-miterlimit="10" stroke-width=".79287951" d="M206.613 69.813V41.75h10.524v28.063Zm0 0"/><use xlink:href="#a" x="219.266" y="57.923"/><use xlink:href="#b" x="224.52" y="59.796"/><path stroke="#000" stroke-miterlimit="10" stroke-width=".39693717" d="M150.816 93.363a1.579 1.579 0 1 0-3.157.002 1.579 1.579 0 0 0 3.157-.002ZM100.707 93.363a1.579 1.579 0 1 0-3.157.002 1.579 1.579 0 0 0 3.157-.002Zm0 0"/><use xlink:href="#i" x="92.708" y="103.011"/><use xlink:href="#j" x="99.095" y="103.011"/><use xlink:href="#k" x="103.261" y="103.011"/><use xlink:href="#l" x="111.119" y="103.011"/><use xlink:href="#m" x="116.052" y="103.011"/><use xlink:href="#n" x="119.013" y="103.011"/><use xlink:href="#o" x="124.089" y="103.011"/><use xlink:href="#p" x="129.334" y="103.011"/><use xlink:href="#q" x="133.758" y="103.011"/><use xlink:href="#p" x="137.21" y="103.011"/><use xlink:href="#r" x="141.634" y="103.011"/><use xlink:href="#s" x="144.123" y="103.011"/><use xlink:href="#t" x="146.576" y="103.011"/><use xlink:href="#u" x="150.733" y="103.011"/><path fill="none" stroke="#D9D9D9" stroke-miterlimit="10" stroke-width="28.20044601" d="M53.281 55.781h18.79m0 0h-1.22"/><path fill="#D9D9D9" d="m87.09 55.781-14.903-15.39v30.78Zm0 0"/><g clip-path="url(#v)"><path fill="none" stroke="#D9D9D9" stroke-miterlimit="10" stroke-width="5.33527329" d="m87.09 55.781-14.902-15.39v30.78Zm0 0"/></g><use xlink:href="#w" x="66.081" y="57.727" fill="#4C4C4C"/><g fill="#4C4C4C"><use xlink:href="#x" x="70.567" y="59.6"/><use xlink:href="#y" x="72.687" y="59.6"/></g><path fill="none" stroke="#D9D9D9" stroke-miterlimit="10" stroke-width="14.09972559" d="M162.77 55.781h18.789m0 0h8.129"/><path fill="#D9D9D9" d="m198.34 55.781-7.942-8.199v16.402Zm0 0"/><g clip-path="url(#z)"><path fill="none" stroke="#D9D9D9" stroke-miterlimit="10" stroke-width="2.8432241400000002" d="m198.34 55.781-7.942-8.199v16.402Zm0 0"/></g><use xlink:href="#w" x="172.129" y="57.727" fill="#4C4C4C"/><g fill="#4C4C4C"><use xlink:href="#A" x="176.616" y="59.6"/><use xlink:href="#B" x="181.625" y="59.6"/><use xlink:href="#C" x="186.342" y="59.6"/></g></svg>