<svg xmlns="http://www.w3.org/2000/svg" xmlns:xlink="http://www.w3.org/1999/xlink" width="230.333" height="92.27"><defs><path id="a" d="M3.625-5.625v-.016H1.188L1-4.64a.7.7 0 0 1-.203.032q-.251 0-.25-.375 0-.388.062-1.157H4.5a.53.53 0 0 1 .094.297.5.5 0 0 1-.094.282l-3.156 5v.015h2.734l.234-1.015a.7.7 0 0 1 .204-.032q.217 0 .218.36 0 .344-.078 1.234H.438Q.28-.06.28-.281q0-.124.063-.219Zm0 0"/><path id="b" d="M4.484-6.14q.062.75.063 1.062c0 .262-.086.39-.25.39a.5.5 0 0 1-.203-.046l-.203-.922H1.859v2.422h1.985v.5H1.859v2.25l.704.125q.123.017.124.093 0 .048-.093.266H.422a.16.16 0 0 1-.016-.078Q.404-.324.72-.406l.375-.078v-5.172l-.547-.125c-.086-.02-.125-.055-.125-.11q0-.074.094-.25Zm0 0"/><path id="c" d="M2.188-6.14c.007.03.015.062.015.093 0 .156-.105.258-.312.297l-.313.078L2.75-3.703h.016l1.25-1.985-.594-.093q-.127.001-.125-.11 0-.074.094-.25h1.797v.094c0 .156-.102.262-.297.313l-.297.062-1.532 2.438L4.735-.47l.407.11q.124.034.125.093 0 .048-.094.266H3.297a.16.16 0 0 1-.016-.078q0-.264.297-.328l.281-.047-1.265-2.11h-.031L1.266-.453l.562.094q.124.017.125.093-.002.096-.11.266H.048v-.078q0-.264.297-.328l.25-.063 1.672-2.578-1.594-2.61-.438-.109C.148-5.786.11-5.828.11-5.89q0-.074.11-.25Zm0 0"/><path id="f" d="M2.469-3.016h1.547v.47H2.469v1.655h-.5v-1.656H.422v-.469h1.547v-1.64h.5Zm0 0"/><clipPath id="d"><path d="M148 81h1v10.547h-1Zm0 0"/></clipPath><clipPath id="e"><path d="M142 90h13v1.547h-13Zm0 0"/></clipPath></defs><path fill="none" stroke="#000" stroke-linejoin="bevel" stroke-miterlimit="10" stroke-width=".7907435500000001" d="M45.785 43.902c2.668 0 4.828 1.485 4.828 3.317s-2.16 3.32-4.828 3.32c2.668 0 4.828 1.484 4.828 3.316 0 1.833-2.16 3.317-4.828 3.317 2.668 0 4.828 1.484 4.828 3.316s-2.16 3.317-4.828 3.317c2.668 0 4.828 1.484 4.828 3.316s-2.16 3.317-4.828 3.317M65.41 70.438c-2.664 0-4.828-1.485-4.828-3.317s2.164-3.316 4.828-3.316c-2.664 0-4.828-1.485-4.828-3.317s2.164-3.316 4.828-3.316c-2.664 0-4.828-1.484-4.828-3.317 0-1.832 2.164-3.316 4.828-3.316-2.664 0-4.828-1.488-4.828-3.32s2.164-3.317 4.828-3.317"/><path fill="none" stroke="#000" stroke-miterlimit="10" stroke-width=".39586785" d="M31.46 33.035h14.485v11.266m0 25.742v11.266H31.461m48.273-48.274h-14.48v11.266m0 25.742v11.266h14.48"/><path fill="none" stroke="#000" stroke-miterlimit="10" stroke-width=".7907435500000001" d="M56.805 69.238V45.105M54.39 69.238V45.105"/><path fill="none" stroke="#000" stroke-miterlimit="10" stroke-width=".39586785" d="M41.117 73.262 69.883 41.3"/><path fill="none" stroke="#000" stroke-miterlimit="10" stroke-width=".39585588000000005" d="m68.258 39.707 3.379 3.043"/><path fill="none" stroke="#000" stroke-miterlimit="10" stroke-width=".39586785" d="M31.46 33.035v20.918m0 6.438v20.918"/><path fill="none" stroke="#000" stroke-miterlimit="10" stroke-width=".7907435500000001" d="M41.117 53.953H21.81m19.308 6.438H21.81"/><path stroke="#000" stroke-miterlimit="10" stroke-width=".39586785" d="M33.035 33.035a1.575 1.575 0 1 0-3.148 0 1.575 1.575 0 0 0 3.148 0ZM33.035 81.309a1.575 1.575 0 1 0-3.148 0 1.575 1.575 0 0 0 3.148 0Zm0 0"/><path fill="none" stroke="#000" stroke-miterlimit="10" stroke-width=".39586785" d="M31.46 33.035H19.97m0 0H8.477"/><path fill="#FFF" stroke="#000" stroke-miterlimit="10" stroke-width=".39586785" d="M10.05 33.035a1.575 1.575 0 1 0-3.148 0 1.575 1.575 0 0 0 3.149 0Zm0 0"/><path fill="none" stroke="#000" stroke-miterlimit="10" stroke-width=".39586785" d="M31.46 81.309H19.97m0 0H8.477"/><path fill="#FFF" stroke="#000" stroke-miterlimit="10" stroke-width=".39586785" d="M10.05 81.309a1.575 1.575 0 1 0-3.148 0 1.575 1.575 0 0 0 3.149 0Zm0 0"/><use xlink:href="#a" x="3.538" y="60.24"/><use xlink:href="#b" x="8.653" y="60.24"/><path fill="none" stroke="#000" stroke-miterlimit="10" stroke-width=".39586785" d="M79.734 33.035v20.918m0 6.438v20.918"/><path fill="none" stroke="#000" stroke-miterlimit="10" stroke-width=".7907435500000001" d="M89.387 53.953H70.078m19.309 6.438H70.078"/><path stroke="#000" stroke-miterlimit="10" stroke-width=".39586785" d="M81.309 33.035a1.575 1.575 0 1 0-3.15 0 1.575 1.575 0 0 0 3.15 0ZM81.309 81.309a1.575 1.575 0 1 0-3.15 0 1.575 1.575 0 0 0 3.15 0Zm0 0"/><path fill="none" stroke="#000" stroke-miterlimit="10" stroke-width=".39586785" d="M79.734 33.035h16.551m12.871 0H137.2m0 0h21.61m25.746 0h21.605m0 0h11.492"/><path fill="none" stroke="#000" stroke-miterlimit="10" stroke-width=".7907435500000001" d="m109.156 33.035-12.87-8.043v16.09Zm0 0"/><path fill="none" stroke="#000" stroke-miterlimit="10" stroke-width=".39586785" d="M109.156 33.035h-12.87"/><path fill="none" stroke="#000" stroke-miterlimit="10" stroke-width=".7907435500000001" d="M109.156 41.082v-16.09"/><path stroke="#000" stroke-miterlimit="10" stroke-width=".39586785" d="M127.281 33.035c0-.87-.703-1.574-1.574-1.574s-1.574.703-1.574 1.574.703 1.574 1.574 1.574 1.574-.703 1.574-1.574ZM150.27 33.035c0-.87-.707-1.574-1.575-1.574a1.575 1.575 0 1 0 1.575 1.574Zm0 0"/><path fill="none" stroke="#000" stroke-miterlimit="10" stroke-width=".7907435500000001" d="M158.809 28.207h25.746v9.656h-25.746Zm0 0"/><path stroke="#000" stroke-miterlimit="10" stroke-width=".39586785" d="M196.242 33.035a1.575 1.575 0 1 0-3.149 0 1.575 1.575 0 0 0 3.15 0Zm0 0"/><path fill="#FFF" stroke="#000" stroke-miterlimit="10" stroke-width=".39586785" d="M219.227 33.035a1.575 1.575 0 1 0-3.148 0 1.575 1.575 0 0 0 3.148 0Zm0 0"/><use xlink:href="#c" x="220.814" y="36.105"/><path fill="none" stroke="#000" stroke-miterlimit="10" stroke-width=".39586785" d="M79.734 81.309h22.985m0 0h34.48m0 0h34.48m0 0h34.481m0 0h11.492"/><path stroke="#000" stroke-miterlimit="10" stroke-width=".39586785" d="M127.281 81.309c0-.871-.703-1.575-1.574-1.575s-1.574.704-1.574 1.575a1.575 1.575 0 0 0 3.148 0ZM150.27 81.309c0-.871-.707-1.575-1.575-1.575-.87 0-1.578.704-1.578 1.575a1.577 1.577 0 0 0 3.152 0Zm0 0"/><g clip-path="url(#d)"><path fill="none" stroke="#000" stroke-miterlimit="10" stroke-width=".39586785" d="M148.695 81.309v9.843"/></g><g clip-path="url(#e)"><path fill="none" stroke="#000" stroke-linecap="round" stroke-miterlimit="10" stroke-width=".7907435500000001" d="M142.79 91.152h11.812"/></g><path stroke="#000" stroke-miterlimit="10" stroke-width=".39586785" d="M196.242 81.309a1.575 1.575 0 1 0-3.149 0 1.575 1.575 0 0 0 3.15 0Zm0 0"/><path fill="#FFF" stroke="#000" stroke-miterlimit="10" stroke-width=".39586785" d="M219.227 81.309a1.575 1.575 0 1 0-3.148 0 1.575 1.575 0 0 0 3.148 0Zm0 0"/><path fill="none" stroke="#000" stroke-miterlimit="10" stroke-width=".39586785" d="M125.707 33.035v20.918m0 6.438v20.918"/><path fill="none" stroke="#000" stroke-miterlimit="10" stroke-width=".7907435500000001" d="M135.363 53.953h-19.312m19.312 6.438h-19.312"/><path fill="none" stroke="#000" stroke-miterlimit="10" stroke-width=".39586785" d="M148.695 33.035v11.266m0 25.742v11.266"/><path fill="none" stroke="#000" stroke-miterlimit="10" stroke-width=".7907435500000001" d="M143.867 70.043V44.301h9.653v25.742Zm0 0"/><path fill="none" stroke="#000" stroke-miterlimit="10" stroke-width=".39586785" d="M194.668 33.035v20.918m0 6.438v20.918"/><path fill="none" stroke="#000" stroke-miterlimit="10" stroke-width=".7907435500000001" d="M204.32 53.953h-19.308m19.308 6.438h-19.308"/><use xlink:href="#f" x="182.786" y="50.791"/><path fill="none" stroke="#000" stroke-miterlimit="10" stroke-width=".39586785" d="M148.695 33.035V21.543m0 0V10.051h31.262m6.434 0h31.261"/><path fill="none" stroke="#000" stroke-miterlimit="10" stroke-width=".7907435500000001" d="M179.957.395v19.308M186.391.395v19.308"/><path fill="#FFF" stroke="#000" stroke-miterlimit="10" stroke-width=".39586785" d="M219.227 10.05c0-.87-.703-1.577-1.575-1.577a1.577 1.577 0 0 0 0 3.152c.872 0 1.575-.707 1.575-1.574Zm0 0"/></svg>