<svg xmlns="http://www.w3.org/2000/svg" xmlns:xlink="http://www.w3.org/1999/xlink" width="225.833" height="136.033"><defs><path id="b" d="m.422-.453 1.5-1.719q.89-1.015.89-2-.001-1.249-.906-1.25-.362 0-.718.188a4 4 0 0 0-.11.875q-.11.016-.203.015-.422.001-.422-.343 0-.547.422-.875.42-.33 1.14-.329.734.001 1.172.407.453.408.454 1.156 0 .674-.422 1.36-.27.439-.89 1.109L1.343-.797v.016h2.015l.188-.766a.5.5 0 0 1 .187-.031q.235.002.235.344 0 .344-.094 1.234H.5Zm0 0"/><path id="c" d="m.125-1.984 2.531-3.782.656-.046v3.625h.75l-.046.671h-.703v1.032l.609.125q.124.017.125.093 0 .048-.094.266H1.906a.16.16 0 0 1-.015-.078c0-.164.101-.274.312-.328l.375-.078v-1.032H.156Zm.734-.203h1.72v-2.688h-.017L.86-2.203Zm0 0"/><path id="i" d="M2.016-.562v-4.422l-1.328.25a1 1 0 0 1-.016-.188Q.67-5.12.875-5.203l1.469-.594h.453v5.235l1.094.156q.124.016.125.11c0 .054-.04.151-.11.296H.86v-.078q0-.311.282-.36Zm0 0"/><path id="j" d="M1.375-3.14c1.008-.126 1.516-.524 1.516-1.204q0-1.078-.891-1.078-.422.002-.703.203a3 3 0 0 0-.125.813.7.7 0 0 1-.203.031c-.281 0-.422-.117-.422-.36q-.001-.513.437-.827.45-.33 1.188-.329c.469 0 .836.125 1.11.375q.42.376.421 1.016 0 .61-.422 1.016-.298.27-.906.468v.032q.717.093 1.094.468c.258.243.39.547.39.922q0 .738-.546 1.219-.55.485-1.422.484C1.41.11 1.05.012.813-.17Q.53-.374.53-.672q0-.406.39-.548.14.347.298.5.293.328.828.328.984.001.984-1.046-.002-1.124-1.656-1.25Zm0 0"/><path id="k" d="M2.313-6.14c1.664 0 2.5.574 2.5 1.718q-.002.89-.594 1.36-.645.515-1.875.515h-.469v2.063l.703.125q.124.017.125.093-.002.066-.11.266H.423a.16.16 0 0 1-.016-.078Q.404-.324.72-.406l.375-.078v-5.188l-.547-.125c-.086-.02-.125-.05-.125-.094q0-.074.094-.25Zm-.016 3.124q.856 0 1.297-.39.389-.36.39-.969 0-1.266-1.687-1.266h-.422v2.625Zm0 0"/><path id="l" d="M4.469-.484 3.89-2.11H1.67L1.095-.484l.672.125q.124.017.125.093 0 .066-.094.266H-.078a.2.2 0 0 1-.016-.078Q-.096-.342.22-.406l.25-.063L2.625-6.14l.563-.078 2.14 5.75.39.11q.125.034.126.093 0 .048-.094.266H3.844a.16.16 0 0 1-.016-.078q0-.246.297-.328ZM1.844-2.578h1.875l-.906-2.61H2.78Zm0 0"/><path id="m" d="M-3.39-.469a8 8 0 0 1-.891-.062v-2.89a.6.6 0 0 1 .187-.032c.094 0 .196.031.297.094l3.328 2.234h.016v-1.75l-.89-.328v-.125q0-.248.28-.25.08.001 1.063.125v3.047a.6.6 0 0 1-.328.094.5.5 0 0 1-.266-.094l-3.234-2.14h-.016v1.452l.75.25v.125q.002.251-.297.25m0 0"/><path id="n" d="m-3.781-.781-.094.64a.16.16 0 0 1-.078.016c-.156 0-.242-.11-.266-.328l-.11-1.047h2.798q1.048 0 1.047-.89 0-.688-.438-1.11h-2.86l-.093.656h-.078c-.156 0-.242-.11-.266-.328l-.11-1.047h3.845l.078-.656h.078q.252 0 .281.328l.094 1h-.578v.016c.43.344.64.793.64 1.344q0 1.406-1.593 1.406Zm0 0"/><path id="o" d="m-.469-7.062.125-.532q.017-.124.11-.125.129 0 .234.094v1.875a.1.1 0 0 1-.062.016c-.133 0-.235-.094-.297-.282l-.11-.328H-2.75c-.687 0-1.031.29-1.031.86 0 .449.164.843.484 1.187a4 4 0 0 1 .516-.047H-.47l.125-.531q.017-.124.11-.125.129 0 .234.078v1.89a.1.1 0 0 1-.062.016c-.133 0-.235-.093-.297-.28l-.11-.329H-2.75c-.687 0-1.031.29-1.031.86q.002.644.437 1.14h2.875l.125-.547c.012-.07.047-.11.11-.11q.129.001.234.079v1.89a.1.1 0 0 1-.062.016c-.133 0-.235-.094-.297-.281l-.11-.328H-3.78l-.094.64a.16.16 0 0 1-.078.016c-.156 0-.242-.11-.266-.328l-.11-1.047.595.047v-.031q-.64-.61-.641-1.422 0-.812.703-1.14-.703-.639-.703-1.516 0-.638.422-1 .41-.375 1.172-.375Zm0 0"/><path id="p" d="M-6.14-6.25h.077c.157 0 .258.102.297.297l.094.422H0V-5l-5.172 3.36v.015h4.688l.125-.625q.017-.124.093-.125c.032 0 .121.04.266.11v1.843a.16.16 0 0 1-.078.016q-.246.002-.328-.313l-.078-.375h-5.188l-.125.547c-.02.086-.05.125-.094.125q-.074 0-.25-.094v-1.421l4.704-3.047V-5h-4.235l-.125.563q-.029.126-.094.125-.074 0-.25-.11Zm0 0"/><path id="q" d="M-2.172-1.156q.845-.012 1.297-.375c.305-.239.453-.57.453-1q0-.593-.422-1.11.064-.092.25-.109.205.001.438.406.265.47.265 1.11.002.815-.5 1.297c-.382.367-.941.546-1.671.546q-1.09.001-1.735-.578a1.7 1.7 0 0 1-.578-1.297q.001-.702.406-1.093.41-.36 1.078-.36.299 0 .72.094Zm-1.75-1.031q.002.909 1.328 1.015v-1.75a1.4 1.4 0 0 0-.375-.047q-.951.001-.953.781m0 0"/><path id="r" d="M-4.281-.86-5.47-1.03v-.516h1.188V-2.89l.468.094v1.25h2.75q.657.001.657-.578c0-.3-.07-.55-.219-.75a.43.43 0 0 1 .25-.062q.112.001.266.25c.144.218.218.492.218.812Q.11-.826-.92-.828h-2.891v.672a.1.1 0 0 1-.063.015q-.216 0-.297-.28Zm0 0"/><path id="s" d="M-.469-.906H-3.78l-.094.64a.16.16 0 0 1-.078.016c-.156 0-.242-.11-.266-.328l-.11-1.047h3.86l.125-.547c.012-.07.047-.11.11-.11q.129.001.234.079v1.89a.1.1 0 0 1-.062.016c-.133 0-.235-.094-.297-.281Zm-5.343.156a.5.5 0 0 1-.375-.14.53.53 0 0 1-.141-.376q0-.217.14-.359a.49.49 0 0 1 .375-.156q.236.002.375.156a.5.5 0 0 1 .125.36c0 .148-.039.273-.125.374a.5.5 0 0 1-.375.141m0 0"/><path id="t" d="M-.469-.86h-5.453l-.094.641a.1.1 0 0 1-.062.016q-.246 0-.281-.328l-.11-1.047h6l.125-.547q.017-.124.11-.125.129 0 .234.094v1.89h-.062c-.133 0-.235-.086-.297-.265Zm0 0"/><path id="u" d="M-5.672-4.437v1.421h5.188l.125-.625q.017-.124.093-.125c.032 0 .121.04.266.11v2.094h-.078q-.246 0-.328-.297l-.078-.391h-5.188v1.438l.938.203a.5.5 0 0 1 .03.187c0 .18-.124.266-.374.266q-.232 0-1.063-.063v-4.828q.83-.06 1.063-.062.375.001.375.265a.5.5 0 0 1-.031.188Zm0 0"/><path id="v" d="M-6.14-2.187c.023-.008.046-.016.077-.016q.236 0 .313.312l.063.313 1.984-1.172v-.016l-2-1.265-.094.61q0 .126-.094.124-.074.001-.25-.11v-1.78c.024-.008.047-.016.079-.016q.252.002.312.297l.063.312 2.453 1.532L-.47-4.734l.11-.422q.034-.124.093-.125.048 0 .266.093v1.891a.16.16 0 0 1-.078.016q-.264.002-.328-.313l-.047-.265-2.125 1.265v.016l2.125 1.312.094-.562q.017-.124.093-.125.096 0 .266.094v1.812h-.078q-.264 0-.328-.297l-.063-.25-2.593-1.672-2.61 1.594-.11.438c-.019.086-.054.125-.109.125q-.074 0-.25-.11Zm0 0"/><clipPath id="a"><path d="M.715 5H15v15H.715Zm0 0"/></clipPath><clipPath id="d"><path d="M211 5h13.953v15H211Zm0 0"/></clipPath><clipPath id="e"><path d="M.715 126H15v9.074H.715Zm0 0"/></clipPath><clipPath id="f"><path d="M30 126h15v9.074H30Zm0 0"/></clipPath><clipPath id="g"><path d="M120 126h16v9.074h-16Zm0 0"/></clipPath><clipPath id="h"><path d="M211 126h13.953v9.074H211Zm0 0"/></clipPath></defs><path fill="none" stroke="#000" stroke-miterlimit="10" stroke-width=".39618306000000003" d="M6.965 12.215h15.137m0 0h48.722m23.64 0h67.173m23.64 0h33.586"/><path fill="#FFF" d="M8.543 12.215a1.575 1.575 0 1 0-3.15.002 1.575 1.575 0 0 0 3.15-.002m0 0"/><g clip-path="url(#a)"><path fill="none" stroke="#000" stroke-miterlimit="10" stroke-width=".39618306000000003" d="M8.543 12.215a1.575 1.575 0 1 0-3.15.002 1.575 1.575 0 0 0 3.15-.002Zm0 0"/></g><path stroke="#000" stroke-miterlimit="10" stroke-width=".39618306000000003" d="M38.813 12.215c0-.871-.704-1.574-1.575-1.574a1.575 1.575 0 1 0 0 3.152c.871 0 1.575-.707 1.575-1.578Zm0 0"/><path fill="none" stroke="#000" stroke-miterlimit="10" stroke-width=".7913731800000001" d="M82.645.394c-6.532 0-11.82 5.293-11.82 11.82 0 6.532 5.288 11.825 11.82 11.825 6.527 0 11.82-5.293 11.82-11.824 0-6.528-5.293-11.82-11.82-11.82Zm0 0"/><use xlink:href="#b" x="80.418" y="15.163"/><path stroke="#000" stroke-miterlimit="10" stroke-width=".39618306000000003" d="M129.625 12.215c0-.871-.703-1.574-1.574-1.574a1.575 1.575 0 1 0 0 3.152c.87 0 1.574-.707 1.574-1.578Zm0 0"/><path fill="none" stroke="#000" stroke-miterlimit="10" stroke-width=".7913731800000001" d="M173.457.394c-6.527 0-11.82 5.293-11.82 11.82 0 6.532 5.293 11.825 11.82 11.825s11.82-5.293 11.82-11.824c0-6.528-5.293-11.82-11.82-11.82Zm0 0"/><use xlink:href="#c" x="171.229" y="15.123"/><path fill="#FFF" d="M220.438 12.215c0-.871-.704-1.574-1.575-1.574a1.575 1.575 0 1 0 1.574 1.574m0 0"/><g clip-path="url(#d)"><path fill="none" stroke="#000" stroke-miterlimit="10" stroke-width=".39618306000000003" d="M220.438 12.215c0-.871-.704-1.574-1.575-1.574a1.575 1.575 0 1 0 1.574 1.574Zm0 0"/></g><path fill="none" stroke="#000" stroke-miterlimit="10" stroke-width=".39618306000000003" d="M6.965 133.3h15.137m0 0h60.543m0 0h90.812m0 0h45.406"/><path fill="#FFF" d="M8.543 133.3c0-.87-.707-1.577-1.578-1.577a1.577 1.577 0 1 0 1.578 1.578m0 0"/><g clip-path="url(#e)"><path fill="none" stroke="#000" stroke-miterlimit="10" stroke-width=".39618306000000003" d="M8.543 133.3c0-.87-.707-1.577-1.578-1.577a1.577 1.577 0 1 0 1.578 1.578Zm0 0"/></g><path d="M38.813 133.3a1.575 1.575 0 1 0-3.151-.005 1.575 1.575 0 0 0 3.15.006m0 0"/><g clip-path="url(#f)"><path fill="none" stroke="#000" stroke-miterlimit="10" stroke-width=".39618306000000003" d="M38.813 133.3a1.575 1.575 0 1 0-3.151-.005 1.575 1.575 0 0 0 3.15.006Zm0 0"/></g><path d="M129.625 133.3a1.575 1.575 0 1 0-3.15-.005 1.575 1.575 0 0 0 3.15.006m0 0"/><g clip-path="url(#g)"><path fill="none" stroke="#000" stroke-miterlimit="10" stroke-width=".39618306000000003" d="M129.625 133.3a1.575 1.575 0 1 0-3.15-.005 1.575 1.575 0 0 0 3.15.006Zm0 0"/></g><path fill="#FFF" d="M220.438 133.3a1.575 1.575 0 1 0-3.151-.005 1.575 1.575 0 0 0 3.15.006m0 0"/><g clip-path="url(#h)"><path fill="none" stroke="#000" stroke-miterlimit="10" stroke-width=".39618306000000003" d="M220.438 133.3a1.575 1.575 0 1 0-3.151-.005 1.575 1.575 0 0 0 3.15.006Zm0 0"/></g><path fill="none" stroke="#000" stroke-miterlimit="10" stroke-width=".39618306000000003" d="M37.238 12.215v48.722m0 23.641v48.723"/><path fill="none" stroke="#000" stroke-miterlimit="10" stroke-width=".7913731800000001" d="M49.059 72.758c0-6.531-5.293-11.82-11.82-11.82-6.532 0-11.825 5.289-11.825 11.82 0 6.527 5.293 11.82 11.824 11.82 6.528 0 11.82-5.293 11.82-11.82Zm0 0"/><use xlink:href="#i" x="35.011" y="75.651"/><path fill="none" stroke="#000" stroke-miterlimit="10" stroke-width=".39618306000000003" d="M128.05 12.215v18.449m0 23.645v18.449"/><path fill="none" stroke="#000" stroke-miterlimit="10" stroke-width=".7913731800000001" d="M139.871 42.488c0-6.531-5.293-11.824-11.82-11.824s-11.82 5.293-11.82 11.824c0 6.528 5.292 11.82 11.82 11.82 6.527 0 11.82-5.292 11.82-11.82Zm0 0"/><use xlink:href="#j" x="125.824" y="45.38"/><path fill="none" stroke="#000" stroke-miterlimit="10" stroke-width=".7913731800000001" d="M114.258 72.758h27.586v27.582h-27.586Zm0 0"/><path fill="none" stroke="#000" stroke-miterlimit="10" stroke-width=".39618306000000003" d="m118.395 75.93 19.308 10.62-19.308 10.618ZM128.05 100.34v16.48m0 0v16.48"/><use xlink:href="#k" x="145.005" y="89.657"/><use xlink:href="#l" x="149.671" y="89.657"/><use xlink:href="#m" x="10.145" y="96.952"/><use xlink:href="#n" x="10.145" y="93.034"/><use xlink:href="#o" x="10.145" y="87.969"/><use xlink:href="#p" x="10.145" y="78.202"/><use xlink:href="#q" x="10.145" y="71.801"/><use xlink:href="#r" x="10.145" y="67.652"/><use xlink:href="#m" x="10.145" y="64.625"/><use xlink:href="#r" x="10.145" y="60.707"/><use xlink:href="#q" x="10.145" y="57.68"/><use xlink:href="#s" x="10.145" y="53.531"/><use xlink:href="#t" x="10.145" y="51.047"/><use xlink:href="#m" x="221.879" y="87.31"/><use xlink:href="#n" x="221.879" y="83.393"/><use xlink:href="#o" x="221.879" y="78.327"/><use xlink:href="#u" x="221.879" y="68.801"/><use xlink:href="#v" x="221.879" y="63.53"/></svg>