<svg xmlns="http://www.w3.org/2000/svg" xmlns:xlink="http://www.w3.org/1999/xlink" width="229.021" height="112.76"><defs><clipPath id="f"><path d="M106 .121h38V29h-38Zm0 0"/></clipPath><clipPath id="h"><path d="M175 .121h38V41h-38Zm0 0"/></clipPath><clipPath id="i"><path d="M219 12h9.047v16H219Zm0 0"/></clipPath><clipPath id="j"><path d="M105 .121h40V40h-40Zm0 0"/></clipPath><clipPath id="k"><path d="M219 72h9.047v15H219Zm0 0"/></clipPath><clipPath id="l"><path d="M123 109h4v3.402h-4Zm0 0"/></clipPath><clipPath id="m"><path d="M117 103h16v9.402h-16Zm0 0"/></clipPath><path id="a" d="M-2.734-4.484c-.125 0-.25.046-.25.203 0 .11.078.187.187.203.328.031.875.234.875.656 0 .61-1.078 1.016-1.078 1.86C-3-.734-1.984-.516-1.781-.516c.125 0 .25-.046.25-.203 0-.11-.078-.187-.188-.203-.328-.031-.875-.234-.875-.64 0-.625 1.094-1.032 1.094-1.86s-1.031-1.062-1.234-1.062m0 0"/><path id="b" d="M-4.172-.547c.188 0 .344-.172.344-.36 0-.14-.156-.421-.36-.421-.062 0-.125.031-.187.047-.062.015-.14.062-.203.062-.234 0-.547-.234-.547-.875 0-.328.219-.781 1.078-.781.563 0 1.031.203 1.563.734l.656.657C-.938-.61-.516-.47.016-.47c0 0-.016-.453-.016-.734v-1.563c0-.28.016-.703.016-.703-.47-.11-1.141-.203-1.407-.203-.046.047-.062.172-.046.25.64.156.859.313.859.625v1.594c-.438 0-1.031-.61-1.078-.656l-.875-.907c-.485-.515-.875-.89-1.563-.89-.953 0-1.343.781-1.343 1.5 0 1 .734 1.61 1.265 1.61m0 0"/><path id="c" d="M-5.125-1.922c0-.375.234-.734.797-.734.453 0 1.14.515 1.266 1.39l.28-.03c-.015-.157-.015-.313-.015-.438 0-.5.14-1.172 1.14-1.172 1.188 0 1.438.797 1.438 1.11 0 .452-.203.53-.375.64-.125.093-.234.203-.234.39 0 .188.172.375.312.375.36 0 .61-.75.61-1.28 0-1.063-.688-2.016-1.875-2.016-.969 0-1.313.734-1.406 1.265h-.016c-.344-.734-.719-.937-1.188-.937-.265 0-.484.062-.703.28-.203.204-.343.517-.343.97 0 1.312.859 1.687 1.14 1.687.125 0 .313-.094.313-.297 0-.312-.297-.36-.47-.36-.562 0-.671-.608-.671-.843m0 0"/><path id="d" d="M.094-2.031c0-.688-.703-1.735-2.797-1.735-.89 0-1.64.22-2.156.61-.313.234-.578.61-.578 1.094 0 .874 1.046 1.718 2.812 1.718.953 0 1.844-.297 2.344-.797q.375-.374.375-.89m-5.219-.031c0-.157.047-.297.14-.407.235-.281.923-.515 2.11-.515.828 0 1.39.015 1.844.14.734.203.812.64.812.797 0 .828-1.531.922-2.312.922-2.188 0-2.594-.547-2.594-.937m0 0"/><path id="e" d="M-5.484-4c.046-.656.297-.656.78-.469l3.563 1.407v.03l-3.625 1.438c-.53.203-.656.14-.718-.453-.047-.062-.235-.062-.282 0 0 .36.016.75.016 1.078 0 .313-.016.625-.016.922.047.063.235.047.282 0 .046-.5.203-.562.812-.812l4.578-1.75c.14-.063.203-.125.203-.203 0-.11-.078-.172-.203-.22L-4.64-4.874c-.421-.172-.78-.312-.843-.875-.047-.062-.235-.062-.282 0 0 .266.016.578.016.781s-.016.61-.016.969c.047.063.235.063.282 0m0 0"/><path id="g" d="M1.094-.484v-5.203l-.547-.125C.46-5.82.422-5.852.422-5.906q0-.075.094-.25H4.53q.062.752.063 1.047c0 .273-.086.406-.25.406a.4.4 0 0 1-.188-.047l-.218-.937H1.874v2.312h1.984v.5H1.875v2.36H4l.234-.954a.7.7 0 0 1 .204-.031q.234 0 .234.36 0 .361-.094 1.14H.422a.16.16 0 0 1-.016-.078Q.404-.324.72-.406Zm0 0"/><path id="n" d="M2.484-3.031h1.547v.469H2.484v1.671h-.5v-1.671H.422v-.47h1.562v-1.64h.5Zm0 0"/></defs><path fill="none" stroke="#000" stroke-miterlimit="10" stroke-width=".39730026" d="m60.07 97.668 14.301-14.3M84.63 73.108l14.3-14.3-14.3-14.301M74.37 34.246l-14.3-14.3-14.301 14.3M35.508 44.508l-14.301 14.3 14.3 14.301M45.77 83.367l14.3 14.301"/><path fill="none" stroke="#000" stroke-miterlimit="10" stroke-width=".79360478" d="m84.629 73.11-16.672 3.847 12.824 12.82Zm0 0"/><path fill="none" stroke="#000" stroke-miterlimit="10" stroke-width=".39730026" d="M84.629 73.11 74.37 83.366"/><path fill="none" stroke="#000" stroke-miterlimit="10" stroke-width=".79360478" d="m91.039 79.52-12.82-12.825"/><path stroke="#000" stroke-miterlimit="10" stroke-width=".39730026" d="M100.512 58.809a1.58 1.58 0 1 0-3.161-.004 1.58 1.58 0 0 0 3.16.004Zm0 0"/><path fill="none" stroke="#000" stroke-miterlimit="10" stroke-width=".79360478" d="M84.629 44.508 67.957 40.66l12.824-12.824Zm0 0"/><path fill="none" stroke="#000" stroke-miterlimit="10" stroke-width=".39730026" d="M84.629 44.508 74.37 34.246"/><path fill="none" stroke="#000" stroke-miterlimit="10" stroke-width=".79360478" d="m91.039 38.094-12.82 12.824"/><path stroke="#000" stroke-miterlimit="10" stroke-width=".39730026" d="M61.648 19.945a1.58 1.58 0 1 0-3.161.003 1.58 1.58 0 0 0 3.161-.003Zm0 0"/><path fill="none" stroke="#000" stroke-miterlimit="10" stroke-width=".79360478" d="m45.77 34.246-3.848 16.672-12.824-12.824Zm0 0"/><path fill="none" stroke="#000" stroke-miterlimit="10" stroke-width=".39730026" d="M45.77 34.246 35.508 44.508"/><path fill="none" stroke="#000" stroke-miterlimit="10" stroke-width=".79360478" d="M39.355 27.836 52.18 40.66"/><path stroke="#000" stroke-miterlimit="10" stroke-width=".39730026" d="M22.79 58.809a1.58 1.58 0 1 0-3.162-.004 1.58 1.58 0 0 0 3.161.004Zm0 0"/><path fill="none" stroke="#000" stroke-miterlimit="10" stroke-width=".79360478" d="m45.77 83.367-3.848-16.672L29.098 79.52Zm0 0"/><path fill="none" stroke="#000" stroke-miterlimit="10" stroke-width=".39730026" d="M45.77 83.367 35.508 73.11"/><path fill="none" stroke="#000" stroke-miterlimit="10" stroke-width=".79360478" d="m39.355 89.777 12.825-12.82"/><path stroke="#000" stroke-miterlimit="10" stroke-width=".39730026" d="M61.648 97.668a1.58 1.58 0 1 0-3.161.003 1.58 1.58 0 0 0 3.161-.003Zm0 0"/><path fill="none" stroke="#000" stroke-miterlimit="10" stroke-width=".39730026" d="M60.07 19.945H30.922m0 0H1.777"/><path fill="#FFF" stroke="#000" stroke-miterlimit="10" stroke-width=".39730026" d="M3.36 19.945a1.58 1.58 0 1 0-3.16.003 1.58 1.58 0 0 0 3.16-.003Zm0 0"/><path fill="none" stroke="#000" stroke-miterlimit="10" stroke-width=".39730026" d="M60.07 97.668H30.922m0 0H1.777"/><path fill="#FFF" stroke="#000" stroke-miterlimit="10" stroke-width=".39730026" d="M3.36 97.668a1.58 1.58 0 1 0-3.16.003 1.58 1.58 0 0 0 3.16-.003Zm0 0"/><use xlink:href="#a" x="10.729" y="73.396"/><use xlink:href="#b" x="10.729" y="63.983"/><use xlink:href="#c" x="10.729" y="59.832"/><use xlink:href="#d" x="10.729" y="55.68"/><use xlink:href="#e" x="10.729" y="50.047"/><path fill="none" stroke="#000" stroke-miterlimit="10" stroke-width=".39730026" d="M98.93 58.809v-19.43m0 0V19.945h16.027m19.758 0h16.031"/><g clip-path="url(#f)"><path fill="none" stroke="#000" stroke-linecap="round" stroke-miterlimit="10" stroke-width=".6322949" d="M114.957 19.945 134.715 8.09"/></g><path stroke="#000" stroke-miterlimit="10" stroke-width=".39730026" d="M116.539 19.945a1.58 1.58 0 1 0-3.16.003 1.58 1.58 0 0 0 3.16-.003ZM136.297 19.945a1.58 1.58 0 1 0-3.16.003 1.58 1.58 0 0 0 3.16-.003Zm0 0"/><use xlink:href="#g" x="122.305" y="33.505"/><path fill="none" stroke="#000" stroke-linejoin="bevel" stroke-miterlimit="10" stroke-width=".79360478" d="M150.586 33.379c3.273 0 5.926 1.816 5.926 4.05 0 2.239-2.653 4.051-5.926 4.051 3.273 0 5.926 1.817 5.926 4.051 0 2.239-2.653 4.051-5.926 4.051 3.273 0 5.926 1.816 5.926 4.055 0 2.234-2.653 4.05-5.926 4.05 3.273 0 5.926 1.813 5.926 4.051 0 2.235-2.653 4.051-5.926 4.051M174.613 65.79c-3.273 0-5.926-1.817-5.926-4.052 0-2.238 2.653-4.05 5.926-4.05-3.273 0-5.926-1.817-5.926-4.051 0-2.239 2.653-4.051 5.926-4.051-3.273 0-5.926-1.816-5.926-4.055 0-2.234 2.653-4.05 5.926-4.05-3.273 0-5.926-1.813-5.926-4.051 0-2.235 2.653-4.051 5.926-4.051"/><path fill="none" stroke="#000" stroke-miterlimit="10" stroke-width=".39730026" d="M150.746 19.945v13.832m0 31.614v13.832m23.707-59.278v13.832m0 31.614v13.832"/><path fill="none" stroke="#000" stroke-miterlimit="10" stroke-width=".79360478" d="M164.082 64.402V34.766m-2.965 29.636V34.766"/><path fill="none" stroke="#000" stroke-miterlimit="10" stroke-width=".39730026" d="M174.453 19.945h12.18m14.508 0h18.652m0 0h6.476"/><g clip-path="url(#h)"><path fill="none" stroke="#000" stroke-miterlimit="10" stroke-width=".79360478" d="m201.14 19.945-14.507-9.066v18.137Zm0 0"/></g><path fill="none" stroke="#000" stroke-miterlimit="10" stroke-width=".39730026" d="M201.14 19.945h-14.507"/><path fill="none" stroke="#000" stroke-miterlimit="10" stroke-width=".79360478" d="M201.14 29.016V10.879"/><path stroke="#000" stroke-miterlimit="10" stroke-width=".39730026" d="M214.894 19.945a1.58 1.58 0 1 0-3.161.003 1.58 1.58 0 0 0 3.161-.003Zm0 0"/><path fill="#FFF" d="M227.852 19.945a1.582 1.582 0 0 0-3.165 0 1.583 1.583 0 0 0 3.165 0m0 0"/><g clip-path="url(#i)"><path fill="none" stroke="#000" stroke-miterlimit="10" stroke-width=".39730026" d="M227.851 19.945a1.582 1.582 0 0 0-3.164 0 1.583 1.583 0 0 0 3.164 0Zm0 0"/></g><g clip-path="url(#j)"><path fill="none" stroke="#7F7F7F" stroke-miterlimit="10" stroke-width=".79360478" d="M105.406 19.945V.515h38.863V39.38h-38.863V19.945"/></g><path fill="none" stroke="#000" stroke-miterlimit="10" stroke-width=".39730026" d="M21.207 58.809v25.906m0 0v25.906H60.07m0 0h51.813m0 0h25.91m0 0h12.953V79.223M174.453 79.223h19.434m0 0h25.906m0 0h6.476"/><path stroke="#000" stroke-miterlimit="10" stroke-width=".39730026" d="M214.894 79.223a1.58 1.58 0 1 0-3.159-.005 1.58 1.58 0 0 0 3.16.005Zm0 0"/><path fill="#FFF" d="M227.852 79.223a1.583 1.583 0 0 0-3.165 0 1.582 1.582 0 0 0 3.165 0m0 0"/><g clip-path="url(#k)"><path fill="none" stroke="#000" stroke-miterlimit="10" stroke-width=".39730026" d="M227.851 79.223a1.583 1.583 0 0 0-3.164 0 1.582 1.582 0 0 0 3.164 0Zm0 0"/></g><path fill="none" stroke="#000" stroke-miterlimit="10" stroke-width=".39730026" d="M98.93 58.809h12.953m0 0h12.953v22.28m0 7.25v22.282"/><path fill="none" stroke="#000" stroke-miterlimit="10" stroke-width=".79360478" d="M135.719 81.09h-21.762m21.762 7.25h-21.762"/><g clip-path="url(#l)"><path d="M126.418 110.621a1.58 1.58 0 1 0-3.16.003 1.58 1.58 0 0 0 3.16-.003m0 0"/></g><g clip-path="url(#m)"><path fill="none" stroke="#000" stroke-miterlimit="10" stroke-width=".39730026" d="M126.418 110.621a1.58 1.58 0 1 0-3.16.003 1.58 1.58 0 0 0 3.16-.003Zm0 0"/></g><path fill="none" stroke="#000" stroke-miterlimit="10" stroke-width=".39730026" d="M213.316 19.945v26.012m0 7.254v26.012"/><path fill="none" stroke="#000" stroke-miterlimit="10" stroke-width=".79360478" d="M224.195 45.957h-21.761m21.761 7.254h-21.761"/><use xlink:href="#n" x="111.723" y="77.914"/><use xlink:href="#n" x="200.201" y="42.783"/></svg>