<svg xmlns="http://www.w3.org/2000/svg" xmlns:xlink="http://www.w3.org/1999/xlink" width="225.68" height="94.848"><defs><clipPath id="a"><path d="M.02 17H4v4H.02Zm0 0"/></clipPath><clipPath id="b"><path d="M.02 11H10v16H.02Zm0 0"/></clipPath><clipPath id="e"><path d="M221 17h4.34v4H221Zm0 0"/></clipPath><clipPath id="f"><path d="M216 11h9.34v16H216Zm0 0"/></clipPath><clipPath id="g"><path d="M55 91h4v3.695h-4Zm0 0"/></clipPath><clipPath id="h"><path d="M50 85h15v9.695H50Zm0 0"/></clipPath><clipPath id="j"><path d="M166 91h4v3.695h-4Zm0 0"/></clipPath><clipPath id="k"><path d="M160 85h16v9.695h-16Zm0 0"/></clipPath><clipPath id="m"><path d="M.02 91H4v3.695H.02Zm0 0"/></clipPath><clipPath id="n"><path d="M.02 85H10v9.695H.02Zm0 0"/></clipPath><clipPath id="o"><path d="M221 91h4.34v3.695H221Zm0 0"/></clipPath><clipPath id="p"><path d="M216 85h9.34v9.695H216Zm0 0"/></clipPath><path id="c" d="M3.5-5.86c-.219 0-.75.079-1.094.079s-.672 0-1.078-.016l-.031.016-.031.187c-.016.047 0 .063.046.063l.329.015c.125.016.312.079.312.282 0 .03 0 .062-.016.093l-.874 4.5c-.047.25-.172.36-.547.375l-.22.032C.25-.234.22-.22.22-.172L.172 0l.031.016C.593.016.953 0 1.297 0c.328 0 .687.016 1.078.016L2.406 0l.031-.172c0-.047-.015-.062-.062-.062l-.219-.032C1.875-.28 1.75-.344 1.75-.53c0-.031 0-.063.016-.11l.39-1.968c.703 0 .86.14.953.343l.61 1.563c.172.422.469.797.984.797.125 0 .281-.016.375-.063l.031-.218c-.39 0-.546-.313-.703-.688L3.703-2.75c.39-.14 1.25-.594 1.438-1.531.03-.125.03-.235.03-.344a1.17 1.17 0 0 0-.28-.781c-.328-.407-.86-.453-1.391-.453m-.047.313c.453 0 .969.156.969.875 0 .11-.016.25-.047.39-.219 1.126-.906 1.376-1.75 1.376h-.422l.438-2.235c.046-.265.203-.406.812-.406m0 0"/><path id="d" d="M.438-3.344c0 .14.14.281.28.281.126 0 .345-.14.345-.296 0-.047-.016-.094-.032-.141-.015-.062-.062-.125-.062-.172 0-.187.187-.437.719-.437.25 0 .609.172.609.859 0 .453-.156.828-.578 1.266l-.532.515C.485-.75.375-.406.375.016c0 0 .36-.016.594-.016h1.25c.234 0 .562.016.562.016a8 8 0 0 0 .172-1.125c-.047-.047-.14-.063-.219-.047-.109.515-.234.687-.5.687H.97c0-.343.484-.828.531-.86l.719-.702c.406-.39.719-.703.719-1.25 0-.766-.641-1.078-1.22-1.078-.78 0-1.28.578-1.28 1.015m0 0"/><path id="i" d="M2.063-.875v-2.484c0-.422 0-.86.015-.953 0-.032-.015-.032-.031-.032-.406.235-.781.422-1.406.703a.33.33 0 0 0 .109.204c.328-.141.484-.188.61-.188.124 0 .156.172.156.422v2.328c0 .594-.203.625-.703.656-.047.047-.047.188 0 .235C1.172 0 1.422 0 1.813 0c.343 0 .515 0 .875.016.03-.047.03-.188 0-.235-.5-.031-.626-.062-.626-.656m0 0"/><path id="l" d="M1.531-4.11c.313 0 .594.188.594.641 0 .36-.406.906-1.11 1l.032.235c.125-.016.25-.016.344-.016.406 0 .937.125.937.922 0 .953-.64 1.156-.89 1.156-.36 0-.422-.172-.516-.297a.34.34 0 0 0-.313-.187c-.14 0-.296.14-.296.25 0 .281.609.484 1.03.484.86 0 1.61-.562 1.61-1.5 0-.781-.578-1.062-1-1.14h-.016c.594-.282.75-.579.75-.954a.77.77 0 0 0-.218-.578c-.156-.156-.406-.265-.781-.265-1.047 0-1.344.687-1.344.922 0 .093.062.234.234.234.25 0 .281-.235.281-.375 0-.453.5-.531.672-.531m0 0"/></defs><path fill="none" stroke="#000" stroke-miterlimit="10" stroke-width=".3983616" d="M1.805 18.996h27.718m0 0h67.309m31.7 0h67.308m0 0h27.719"/><g clip-path="url(#a)"><path fill="#FFF" d="M3.387 18.996a1.584 1.584 0 1 0-3.168-.004 1.584 1.584 0 0 0 3.168.004m0 0"/></g><g clip-path="url(#b)"><path fill="none" stroke="#000" stroke-miterlimit="10" stroke-width=".3983616" d="M3.387 18.996a1.584 1.584 0 1 0-3.168-.004 1.584 1.584 0 0 0 3.168.004Zm0 0"/></g><path fill="none" stroke="#000" stroke-miterlimit="10" stroke-width=".7957248" d="M96.832 13.05h31.7v11.888h-31.7Zm0 0"/><use xlink:href="#c" x="108.186" y="9.235"/><use xlink:href="#d" x="113.459" y="11.115"/><g clip-path="url(#e)"><path fill="#FFF" d="M225.145 18.996a1.587 1.587 0 0 0-3.172 0c0 .875.71 1.582 1.586 1.582.875 0 1.586-.707 1.586-1.582m0 0"/></g><g clip-path="url(#f)"><path fill="none" stroke="#000" stroke-miterlimit="10" stroke-width=".3983616" d="M225.145 18.996a1.587 1.587 0 0 0-3.172 0c0 .875.71 1.582 1.586 1.582.875 0 1.586-.707 1.586-1.582Zm0 0"/></g><path fill="none" stroke="#000" stroke-miterlimit="10" stroke-width=".3983616" d="M57.242 18.996v21.11m0 31.699v21.11"/><path fill="none" stroke="#000" stroke-miterlimit="10" stroke-width=".7957248" d="M51.3 71.805v-31.7h11.887v31.7Zm0 0"/><path stroke="#000" stroke-miterlimit="10" stroke-width=".3983616" d="M58.828 18.996a1.587 1.587 0 0 0-3.172 0c0 .875.711 1.582 1.586 1.582s1.586-.707 1.586-1.582Zm0 0"/><g clip-path="url(#g)"><path d="M58.828 92.914a1.587 1.587 0 0 0-3.172 0c0 .875.711 1.582 1.586 1.582s1.586-.707 1.586-1.582m0 0"/></g><g clip-path="url(#h)"><path fill="none" stroke="#000" stroke-miterlimit="10" stroke-width=".3983616" d="M58.828 92.914a1.587 1.587 0 0 0-3.172 0c0 .875.711 1.582 1.586 1.582s1.586-.707 1.586-1.582Zm0 0"/></g><use xlink:href="#c" x="65.391" y="58.103"/><use xlink:href="#i" x="70.664" y="59.983"/><path fill="none" stroke="#000" stroke-miterlimit="10" stroke-width=".3983616" d="M168.121 18.996v21.11m0 31.699v21.11"/><path fill="none" stroke="#000" stroke-miterlimit="10" stroke-width=".7957248" d="M162.176 71.805v-31.7h11.886v31.7Zm0 0"/><path stroke="#000" stroke-miterlimit="10" stroke-width=".3983616" d="M169.703 18.996a1.584 1.584 0 1 0-3.167-.004 1.584 1.584 0 0 0 3.167.004Zm0 0"/><g clip-path="url(#j)"><path d="M169.703 92.914a1.584 1.584 0 1 0-3.167-.004 1.584 1.584 0 0 0 3.167.004m0 0"/></g><g clip-path="url(#k)"><path fill="none" stroke="#000" stroke-miterlimit="10" stroke-width=".3983616" d="M169.703 92.914a1.584 1.584 0 1 0-3.167-.004 1.584 1.584 0 0 0 3.167.004Zm0 0"/></g><use xlink:href="#c" x="150.982" y="58.103"/><use xlink:href="#l" x="156.254" y="59.983"/><path fill="none" stroke="#000" stroke-miterlimit="10" stroke-width=".3983616" d="M1.805 92.914H112.68m0 0h110.879"/><g clip-path="url(#m)"><path fill="#FFF" d="M3.387 92.914a1.584 1.584 0 1 0-3.168-.004 1.584 1.584 0 0 0 3.168.004m0 0"/></g><g clip-path="url(#n)"><path fill="none" stroke="#000" stroke-miterlimit="10" stroke-width=".3983616" d="M3.387 92.914a1.584 1.584 0 1 0-3.168-.004 1.584 1.584 0 0 0 3.168.004Zm0 0"/></g><g clip-path="url(#o)"><path fill="#FFF" d="M225.145 92.914a1.587 1.587 0 0 0-3.172 0c0 .875.71 1.582 1.586 1.582.875 0 1.586-.707 1.586-1.582m0 0"/></g><g clip-path="url(#p)"><path fill="none" stroke="#000" stroke-miterlimit="10" stroke-width=".3983616" d="M225.145 92.914a1.587 1.587 0 0 0-3.172 0c0 .875.71 1.582 1.586 1.582.875 0 1.586-.707 1.586-1.582Zm0 0"/></g></svg>