<svg xmlns="http://www.w3.org/2000/svg" width="115.525" height="135.308"><defs><clipPath id="a"><path d="M.059 0h114.937v134.621H.06Zm0 0"/></clipPath><clipPath id="b"><path d="M.059 0h114.937v134.621H.06Zm0 0"/></clipPath><clipPath id="c"><path d="M.059 0h114.937v134.621H.06Zm0 0"/></clipPath></defs><g fill="none" stroke="#000" stroke-linecap="round" stroke-miterlimit="10" stroke-width="11.955" clip-path="url(#a)"><path stroke-width="11.89414905" d="m11.793 128.672 27.79-50.942M6.008 70.781l28.941-13.894M16.426 26.785 46.527 40.68M46.527 5.945 60.422 33.73M78.945 10.578 76.633 40.68M104.418 36.047l-23.156 20.84M109.05 70.781l-32.417 6.95"/></g><path fill="#BFBFBF" fill-rule="evenodd" stroke="#000" stroke-miterlimit="10" stroke-width=".39696909" d="M106.734 59.203c0-26.855-21.77-48.625-48.629-48.625-26.855 0-48.625 21.77-48.625 48.625 0 26.86 21.77 48.629 48.625 48.629 26.86 0 48.63-21.77 48.63-48.629Zm-18.523 0c0-16.625-13.477-30.101-30.106-30.101-16.625 0-30.101 13.476-30.101 30.101S41.48 89.31 58.105 89.31c16.63 0 30.106-13.48 30.106-30.106Zm0 0"/><g fill="none" stroke="#000" stroke-linecap="round" stroke-miterlimit="10" stroke-width="11.955" clip-path="url(#b)"><path stroke-width="11.89414905" d="M39.582 77.73 6.008 70.781M34.95 56.887 16.425 26.785"/></g><path fill="none" stroke="#000" stroke-linecap="round" stroke-miterlimit="10" stroke-width="11.89414905" d="M46.527 40.68V5.945"/><g fill="none" stroke="#000" stroke-linecap="round" stroke-miterlimit="10" stroke-width="11.955" clip-path="url(#c)"><path stroke-width="11.89414905" d="m60.422 33.73 18.523-23.152M76.633 40.68l27.785-4.633M81.262 56.887 109.05 70.78M76.633 77.73l27.785 50.942"/></g></svg>