<svg xmlns="http://www.w3.org/2000/svg" xmlns:xlink="http://www.w3.org/1999/xlink" width="225.875" height="47.47"><defs><path id="b" d="M2.64-2.766q0-.574-.171-.843-.175-.282-.61-.282-.28.001-.515.079-.129.235-.203.78a2 2 0 0 1-.188.016q-.438 0-.437-.39c0-.258.148-.485.453-.672A1.97 1.97 0 0 1 2-4.36q1.36 0 1.36 1.5v1.937c0 .336.1.5.312.5A.48.48 0 0 0 4-.532q.077.112.078.25c0 .063-.058.134-.172.204a.87.87 0 0 1-.531.156c-.406 0-.633-.203-.672-.61h-.015q-.423.643-1.22.641-.515 0-.827-.312-.299-.311-.297-.828 0-.638.656-1 .563-.296 1.406-.297h.235ZM1.75-.453q.498 0 .89-.469v-1.015l-.234.015q-1.282.11-1.281.813-.001.656.625.656m0 0"/><path id="c" d="M.64-5.906 0-5.984c-.008-.032-.016-.055-.016-.079q0-.246.329-.28l1.046-.095v2.688h.032q.499-.61 1.312-.61c.477 0 .86.157 1.14.47q.5.55.5 1.64 0 1.173-.702 1.813c-.407.367-.934.546-1.578.546Q1.184.11.64-.203Zm1.735 2.14c-.43 0-.766.141-1.016.422v2.688q.375.251.891.25 1.36 0 1.36-1.735 0-.843-.376-1.28c-.218-.227-.507-.345-.859-.345m0 0"/><clipPath id="a"><path d="M46 0h153v46.945H46Zm0 0"/></clipPath></defs><g clip-path="url(#a)"><path fill="none" stroke="#000" stroke-miterlimit="10" stroke-width=".39459504" d="M51.863 23.473s-.004 0 0 0c0 0-.004 0 0 0q.005.001.028-.004c.02-.004.05-.008.101-.02.047-.008.145-.031.258-.058.11-.028.328-.082.535-.145a52.699 52.699 0 0 0 2.582-.84c.559-.195 1.61-.57 2.422-.87.813-.302 2.32-.868 3.438-1.294 1.12-.422 3.16-1.207 4.628-1.765 1.47-.559 4.114-1.567 5.961-2.25a491 491 0 0 1 7.371-2.68c2.243-.781 6.165-2.133 8.797-2.969 2.63-.836 7.18-2.238 10.16-3.062 2.981-.82 8.055-2.141 11.32-2.868 3.27-.726 8.778-1.832 12.243-2.378 3.465-.547 9.2-1.278 12.738-1.56 3.54-.28 9.29-.515 12.762-.464 3.473.055 9.027.406 12.27.832 3.242.426 8.25 1.434 11.097 2.242 2.844.813 7.106 2.438 9.399 3.602 2.296 1.164 5.53 3.336 7.14 4.785 1.61 1.445 3.621 4.02 4.457 5.652s1.563 4.418 1.563 6.114-.727 4.476-1.563 6.109-2.847 4.207-4.457 5.656c-1.61 1.45-4.851 3.621-7.144 4.782-2.297 1.164-6.555 2.792-9.395 3.601-2.844.813-7.86 1.816-11.097 2.242-3.243.43-8.79.785-12.262.836s-9.23-.187-12.774-.469c-3.539-.28-9.277-1.011-12.742-1.558s-8.965-1.649-12.234-2.375c-3.266-.73-8.34-2.047-11.32-2.871-2.981-.82-7.532-2.223-10.16-3.059-2.63-.836-6.551-2.187-8.798-2.969-2.242-.785-5.519-1.996-7.37-2.68-1.848-.683-4.493-1.695-5.962-2.25-1.468-.558-3.507-1.343-4.628-1.769-1.118-.422-2.625-.992-3.438-1.289-.812-.3-1.863-.68-2.422-.875a89 89 0 0 0-1.605-.539c-.356-.117-.766-.238-.977-.3-.207-.06-.426-.114-.535-.145-.113-.028-.21-.047-.258-.059l-.101-.015q-.023-.005-.028-.004c-.004 0 0 0 0 0-.004 0 0 0 0 0"/></g><path fill="none" stroke="#000" stroke-miterlimit="10" stroke-width=".39459504" d="M51.863 23.473h-.008s-.007.004-.015.004q-.013.004-.043.015c-.02.008-.055.02-.09.035-.031.016-.102.047-.156.078a5 5 0 0 0-.262.137c-.086.051-.254.145-.383.219l-.543.324-.73.445c-.235.141-.649.395-.942.567s-.812.476-1.171.676c-.36.195-.985.539-1.41.75a40 40 0 0 1-1.66.777 31 31 0 0 1-1.884.734c-.546.188-1.48.477-2.074.618-.594.144-1.59.34-2.207.414-.62.078-1.637.144-2.258.136a17 17 0 0 1-2.218-.191 13 13 0 0 1-2.04-.563 10.4 10.4 0 0 1-1.757-.914c-.43-.297-1.043-.851-1.348-1.226-.305-.371-.691-1.035-.848-1.457-.16-.422-.3-1.14-.3-1.578s.14-1.16.3-1.582c.157-.418.543-1.082.848-1.457.305-.371.922-.926 1.352-1.223s1.226-.711 1.754-.918c.527-.203 1.449-.453 2.039-.559.59-.105 1.593-.187 2.214-.195.622-.008 1.641.063 2.262.137.621.078 1.613.273 2.207.414.594.144 1.528.43 2.074.617.551.188 1.395.527 1.883.734.492.211 1.23.567 1.656.782a41 41 0 0 1 1.415.75c.359.195.878.5 1.171.672.293.175.707.43.942.566.23.14.55.34.73.445.176.11.414.25.543.324.13.079.297.172.383.223l.262.137c.054.027.125.058.156.074l.09.04c.02.003.035.01.043.01.008.005.015.005.015.009h.008"/><path fill="none" stroke="#000" stroke-miterlimit="10" stroke-width="1.1827961599999999" d="M51.863 38.687V8.254"/><use xlink:href="#b" x="4.14" y="25.6"/><use xlink:href="#c" x="216.876" y="26.638"/><path fill="none" stroke="#000" stroke-miterlimit="10" stroke-width=".39459504" d="M14.867 23.473h195.426"/><path stroke="#000" stroke-miterlimit="10" stroke-width=".39459504" d="m11.828 23.473 2.942 1.742v-3.488ZM213.332 23.473l-2.941-1.746v3.488Zm0 0"/></svg>