<svg xmlns="http://www.w3.org/2000/svg" xmlns:xlink="http://www.w3.org/1999/xlink" width="228.944" height="185.319"><defs><path id="d" d="M-3.156-1.39c-.114-1.008-.516-1.516-1.203-1.516q-1.079.001-1.078.906.002.41.203.703.362.11.812.11a.7.7 0 0 1 .031.218c0 .282-.117.422-.359.422q-.516.001-.844-.437-.328-.45-.328-1.188 0-.714.375-1.125.375-.405 1.031-.406.628 0 1.016.422.284.28.484.89H-3q.11-.702.484-1.093a1.2 1.2 0 0 1 .922-.391q.738.001 1.219.547.485.549.484 1.437c0 .48-.097.84-.28 1.079q-.202.28-.5.28-.406.002-.548-.39c.23-.101.399-.203.5-.297q.328-.293.328-.828c0-.664-.351-1-1.062-1-.738 0-1.149.555-1.234 1.656Zm0 0"/><path id="e" d="M-6.172-5.844h.078c.168 0 .278.102.328.297l.047.234L0-3.28v.734L-5.703-.453l-.094.375q-.03.124-.125.125c-.05 0-.133-.035-.25-.094V-2.03c.031-.008.059-.016.078-.016.168 0 .274.102.313.297l.093.375 4.782-1.64v-.016L-5.72-4.734l-.093.687q-.029.127-.11.125c-.039 0-.125-.031-.25-.094Zm0 0"/><path id="f" d="M-6.703-2.922v-.625L1.25-.828v.61Zm0 0"/><path id="g" d="M-6.172-2.375q0-3.546 3-3.547 1.583 0 2.39.938C-.257-4.38 0-3.508 0-2.375v1.953a.16.16 0 0 1-.078.016q-.246.002-.328-.313l-.078-.375h-5.203l-.125.547c-.02.086-.055.125-.11.125q-.075 0-.25-.094Zm5.672.031q0-1.326-.672-2.031-.667-.717-1.969-.719-1.246.002-1.89.719-.64.705-.64 2.031v.469H-.5Zm0 0"/><path id="h" d="M-.469-.906h-3.328l-.094.64a.1.1 0 0 1-.062.016q-.246 0-.281-.328l-.11-1.063h3.875l.125-.53q.017-.125.11-.126.129 0 .234.094v1.89a.1.1 0 0 1-.062.016c-.133 0-.235-.094-.297-.281Zm-5.375.14a.5.5 0 0 1-.36-.14.47.47 0 0 1-.155-.36q.002-.233.156-.375a.5.5 0 0 1 .36-.14q.233 0 .374.14.14.142.14.375a.48.48 0 0 1-.14.36.5.5 0 0 1-.375.14m0 0"/><path id="i" d="M-4.297-4.469c0-.07.031-.11.094-.11A.5.5 0 0 1-4-4.515l.156.438L0-2.562v.578l-3.875 1.53L-4-.046a.3.3 0 0 1-.078.016q-.218.001-.219-.25V-1.75q0-.093.094-.094A.5.5 0 0 1-4-1.78l.14.5 3.063-1.094v-.016l-3.062-1.171-.141.671h-.078q-.218.001-.219-.25Zm0 0"/><path id="j" d="M-.375-.406a.5.5 0 0 1-.36-.125.48.48 0 0 1-.14-.36c0-.132.047-.25.14-.343a.47.47 0 0 1 .36-.157c.148 0 .266.055.36.157a.5.5 0 0 1 .124.343.52.52 0 0 1-.125.36.5.5 0 0 1-.359.125m0 0"/><clipPath id="a"><path d="M14 0h214.496v184.64H14Zm0 0"/></clipPath><clipPath id="b"><path d="M14.695 30h213.606v124H14.695Zm0 0"/></clipPath><clipPath id="c"><path d="M14.695 8h213.606v169H14.695Zm0 0"/></clipPath></defs><g fill="none" stroke="#000" stroke-miterlimit="10" clip-path="url(#a)"><path stroke-width=".19827166000000002" d="M14.695 184.441V.195m30.512 184.246V.195m30.516 184.246V.195m30.515 184.246V.195m30.516 184.246V.195m30.516 184.246V.195m30.515 184.246V.195m30.516 184.246V.195M14.695 184.441h213.606M14.695 153.734h213.606M14.695 123.027h213.606M14.695 92.32h213.606M14.695 61.613h213.606M14.695 30.903h213.606M14.695.194h213.606"/><path stroke-width=".39753966" d="M14.695 184.441V.195h213.606v184.246Zm0 0"/></g><g clip-path="url(#b)"><path fill="#7F7F7F" fill-opacity=".5" d="m14.695 92.316 1.07-2.914c.301-.808.778-2.101 1.075-2.91.297-.805.777-2.094 1.074-2.894s.773-2.082 1.074-2.875a1090.586 1090.586 0 0 1 2.145-5.668l1.074-2.778c.297-.765.777-1.984 1.074-2.734s.774-1.945 1.074-2.68c.297-.738.774-1.906 1.07-2.625.302-.718.778-1.86 1.075-2.562.3-.7.777-1.809 1.074-2.492.297-.68.778-1.758 1.074-2.418s.774-1.7 1.075-2.336c.297-.637.773-1.64 1.07-2.25.3-.614.777-1.578 1.074-2.164s.778-1.504 1.074-2.067c.297-.558.778-1.433 1.075-1.965.297-.53.773-1.359 1.074-1.859.297-.504.773-1.285 1.07-1.754.3-.473.778-1.203 1.074-1.64.297-.438.778-1.118 1.075-1.524s.777-1.031 1.074-1.406c.297-.371.773-.942 1.074-1.281a35 35 0 0 1 1.07-1.153c.301-.304.778-.762 1.075-1.027.296-.266.777-.668 1.074-.899s.777-.57 1.074-.761a15 15 0 0 1 1.074-.63 13 13 0 0 1 1.07-.491c.301-.118.778-.278 1.075-.36a11 11 0 0 1 1.074-.215 10 10 0 0 1 1.074-.082c.297-.004.774.024 1.074.059.297.035.774.125 1.07.195.301.074.778.223 1.075.336s.777.324 1.074.473.774.422 1.074.605a18 18 0 0 1 2.145 1.621c.3.262.777.707 1.074 1.004.297.301.777.805 1.074 1.137s.774.895 1.075 1.262a48 48 0 0 1 2.144 2.89c.297.434.777 1.157 1.074 1.621.297.47.778 1.239 1.075 1.739.296.496.773 1.316 1.074 1.843.297.528.773 1.395 1.07 1.95.3.554.777 1.468 1.074 2.05.297.583.778 1.54 1.075 2.145.296.61.777 1.605 1.074 2.238s.773 1.668 1.074 2.325a291 291 0 0 1 2.144 4.886c.297.7.778 1.836 1.075 2.551.297.719.773 1.883 1.074 2.617.297.73.773 1.922 1.074 2.672.297.75.774 1.961 1.07 2.727.301.761.778 1.996 1.075 2.77.297.777.777 2.027 1.074 2.812s.773 2.05 1.074 2.843c.297.797.774 2.075 1.07 2.875.301.801.778 2.086 1.075 2.891.3.805.777 2.102 1.074 2.91l1.074 2.914c.297.809.773 2.106 1.074 2.914l1.07 2.91 1.075 2.899c.297.8.777 2.086 1.074 2.879.297.797.777 2.066 1.074 2.855s.774 2.047 1.074 2.825c.297.777.774 2.015 1.07 2.785.302.765.778 1.984 1.075 2.738s.777 1.953 1.074 2.691c.297.739.778 1.91 1.074 2.633s.774 1.867 1.075 2.574c.297.704.773 1.817 1.07 2.5a228.752 228.752 0 0 0 2.148 4.781 154 154 0 0 0 3.22 6.524c.3.563.776 1.445 1.073 1.98a81.488 81.488 0 0 0 2.148 3.648c.298.478.774 1.216 1.071 1.657.3.446.777 1.133 1.074 1.543.301.41.778 1.047 1.075 1.422.296.379.777.957 1.074 1.3.297.345.773.868 1.074 1.177.297.308.773.773 1.07 1.047.301.273.778.683 1.075.917.296.235.777.586 1.074.786.297.199.777.488 1.074.648.297.164.773.39 1.074.516.297.125.774.293 1.07.379.301.082.778.191 1.075.238s.777.094 1.074.101.777-.007 1.074-.035a12 12 0 0 0 1.074-.175c.297-.07.774-.208 1.07-.313.301-.11.778-.309 1.075-.453s.777-.402 1.074-.586c.297-.18.774-.504 1.074-.723.297-.218.774-.597 1.075-.855a25 25 0 0 0 2.144-2.102c.297-.324.777-.879 1.074-1.242.297-.36.774-.969 1.075-1.363a61 61 0 0 0 1.07-1.488 68.583 68.583 0 0 0 2.148-3.32c.297-.493.778-1.31 1.075-1.829.296-.523.773-1.383 1.074-1.934a139 139 0 0 0 2.144-4.167c.297-.606.778-1.594 1.074-2.223s.778-1.66 1.075-2.313c.297-.652.773-1.718 1.074-2.394.297-.672.773-1.774 1.07-2.469.301-.695.778-1.824 1.074-2.539s.778-1.875 1.075-2.605.777-1.918 1.074-2.665c.297-.746.773-1.957 1.074-2.718.297-.762.774-1.992 1.07-2.766.301-.773.778-2.02 1.075-2.805s.777-2.046 1.074-2.84c.297-.792.773-2.07 1.074-2.867.297-.8.774-2.09 1.074-2.89.297-.805.774-2.098 1.07-2.906.301-.81.778-2.106 1.075-2.915l1.074-2.918c.297-.808.773-2.105 1.074-2.91l1.07-2.902c.301-.8.778-2.086 1.075-2.883l1.074-2.855a733 733 0 0 1 3.219-8.367c.3-.758.777-1.961 1.074-2.7.297-.742.777-1.918 1.074-2.644.297-.723.778-1.875 1.074-2.582s.774-1.824 1.075-2.512c.297-.687.773-1.777 1.07-2.441.3-.668.777-1.72 1.074-2.364s.778-1.66 1.074-2.28c.297-.618.778-1.595 1.075-2.188.296-.598.773-1.532 1.074-2.098.297-.566.773-1.457 1.07-1.996.3-.543.777-1.387 1.074-1.895.297-.511.778-1.308 1.075-1.789s.777-1.226 1.074-1.676.773-1.144 1.074-1.558c.297-.418.773-1.059 1.07-1.445.301-.383.778-.97 1.075-1.317a27.712 27.712 0 0 1 2.148-2.266c.297-.277.773-.695 1.074-.937a24 24 0 0 1 1.07-.805c.301-.203.778-.504 1.075-.668.297-.168.777-.406 1.074-.539.297-.129.773-.304 1.074-.398.297-.09.774-.207 1.07-.262.301-.05.778-.105 1.075-.12.3-.017.777-.009 1.074.015.297.023.777.09 1.074.152.297.063.774.191 1.074.293.297.098.774.29 1.07.426.301.14.778.39 1.075.566s.777.488 1.074.7c.297.214.777.585 1.074.835s.774.68 1.075.965a30.746 30.746 0 0 1 2.145 2.32A45 45 0 0 1 204.687 40c.296.426.773 1.133 1.074 1.586a81 81 0 0 1 2.144 3.512c.297.52.778 1.37 1.074 1.918s.774 1.445 1.075 2.02c.297.573.773 1.515 1.074 2.116a197 197 0 0 1 2.144 4.508c.297.649.778 1.711 1.075 2.38.297.67.773 1.769 1.074 2.46a330 330 0 0 1 3.219 7.781c.297.742.777 1.95 1.074 2.707.297.758.773 1.989 1.074 2.758a1074 1074 0 0 1 3.219 8.5l1.074 2.887c.297.805.773 2.097 1.074 2.906.297.805.774 2.102 1.07 2.91.301.813 1.075 2.918 1.075 2.918V90.77l-1.074 2.918-1.07 2.91c-.302.808-.778 2.101-1.075 2.906l-1.074 2.887a1136 1136 0 0 1-2.149 5.699c-.297.781-.773 2.027-1.07 2.8l-1.074 2.758a491 491 0 0 1-2.149 5.364 329.735 329.735 0 0 1-2.145 5.125c-.3.691-.776 1.789-1.073 2.457-.297.672-.778 1.734-1.075 2.383a196.943 196.943 0 0 1-2.145 4.508c-.3.6-.776 1.542-1.073 2.117a186 186 0 0 1-1.075 2.02 121 121 0 0 1-1.074 1.917 81.105 81.105 0 0 1-2.145 3.512c-.3.453-.777 1.16-1.073 1.586a60 60 0 0 1-1.075 1.465c-.297.39-.777.992-1.074 1.347a31 31 0 0 1-2.144 2.32c-.301.286-.778.715-1.075.965s-.777.621-1.074.832c-.297.215-.777.528-1.074.704s-.774.425-1.074.566c-.297.137-.774.328-1.07.426-.301.101-.778.23-1.075.293s-.777.129-1.074.152a10 10 0 0 1-1.074.016c-.297-.016-.774-.07-1.075-.121a12 12 0 0 1-1.07-.262c-.3-.094-.777-.27-1.074-.399a15 15 0 0 1-1.074-.539 17 17 0 0 1-1.075-.668 21 21 0 0 1-1.07-.808c-.3-.238-.777-.656-1.074-.934a28 28 0 0 1-2.148-2.265 45 45 0 0 1-1.075-1.32 51 51 0 0 1-2.144-3 78 78 0 0 1-1.074-1.677 90 90 0 0 1-1.075-1.789c-.297-.507-.773-1.351-1.074-1.894-.297-.54-.773-1.43-1.07-1.996-.301-.567-.778-1.5-1.074-2.098-.297-.594-.778-1.57-1.075-2.187-.297-.621-.777-1.637-1.074-2.282-.297-.644-.773-1.695-1.074-2.363-.297-.664-.774-1.754-1.07-2.441-.301-.688-.778-1.805-1.075-2.512s-.777-1.86-1.074-2.582c-.297-.727-.777-1.902-1.074-2.645-.297-.738-.773-1.941-1.074-2.699a510 510 0 0 1-1.07-2.746 733.197 733.197 0 0 1-2.148-5.621c-.298-.79-.774-2.062-1.075-2.855-.297-.797-.774-2.082-1.074-2.883l-1.07-2.903c-.302-.804-.778-2.101-1.075-2.91l-1.074-2.918c-.297-.808-.774-2.105-1.074-2.914l-1.07-2.906c-.302-.805-.778-2.09-1.075-2.89-.3-.798-.777-2.075-1.074-2.868a741 741 0 0 0-3.219-8.41c-.3-.762-.777-1.973-1.074-2.719a471 471 0 0 0-1.074-2.664c-.297-.73-.778-1.89-1.075-2.605s-.773-1.844-1.074-2.54c-.297-.695-.773-1.796-1.07-2.468-.3-.676-.777-1.742-1.074-2.395-.297-.652-.778-1.683-1.075-2.312-.296-.63-.777-1.617-1.074-2.223s-.773-1.554-1.074-2.133a139 139 0 0 0-1.07-2.035c-.301-.55-.778-1.41-1.075-1.933-.296-.52-.777-1.336-1.074-1.828a60.023 60.023 0 0 0-3.219-4.809c-.3-.395-.777-1.004-1.074-1.363a29.457 29.457 0 0 0-2.148-2.36c-.297-.293-.774-.73-1.07-.988-.301-.254-.778-.633-1.075-.852-.3-.218-.777-.543-1.074-.722a15 15 0 0 0-1.074-.586 13 13 0 0 0-1.074-.453 12 12 0 0 0-1.07-.313 12 12 0 0 0-1.075-.176 11 11 0 0 0-1.074-.035 10 10 0 0 0-1.074.102 11 11 0 0 0-1.075.238c-.296.086-.773.254-1.07.379-.3.125-.777.352-1.074.516-.297.16-.777.449-1.074.648-.297.2-.778.55-1.074.785s-.774.645-1.075.918a27 27 0 0 0-2.144 2.223c-.297.344-.778.922-1.074 1.3a59 59 0 0 0-1.075 1.422c-.297.41-.773 1.098-1.074 1.543a68 68 0 0 0-1.07 1.657 82 82 0 0 0-2.149 3.648c-.296.535-.773 1.418-1.074 1.98-.297.567-.773 1.493-1.07 2.083a154.428 154.428 0 0 0-2.148 4.441 229 229 0 0 0-2.149 4.781 321 321 0 0 0-3.219 7.707c-.297.739-.777 1.938-1.074 2.692s-.773 1.972-1.074 2.738a1059 1059 0 0 0-2.145 5.61c-.297.788-.777 2.058-1.074 2.855-.297.793-.777 2.078-1.074 2.879l-1.074 2.898-1.07 2.91c-.302.809-.778 2.106-1.075 2.914s-.777 2.11-1.074 2.915c-.297.808-.774 2.105-1.074 2.91-.297.804-.774 2.09-1.075 2.89-.296.801-.773 2.078-1.07 2.875l-1.074 2.844c-.297.785-.777 2.035-1.074 2.813-.297.773-.774 2.007-1.075 2.77a501 501 0 0 1-1.07 2.726c-.3.75-.777 1.941-1.074 2.671-.3.735-.777 1.899-1.074 2.618-.297.715-.778 1.851-1.075 2.55a291.28 291.28 0 0 1-2.145 4.887c-.3.656-.776 1.692-1.073 2.324a157.267 157.267 0 0 1-2.148 4.383 111 111 0 0 1-2.145 4c-.301.528-.778 1.348-1.074 1.844-.297.5-.778 1.27-1.075 1.738a73 73 0 0 1-1.074 1.621 48 48 0 0 1-2.144 2.891c-.301.367-.778.93-1.075 1.262s-.777.836-1.074 1.136c-.297.297-.773.743-1.074 1.004-.297.262-.774.653-1.074.875-.297.227-.774.559-1.07.743-.301.187-.778.46-1.075.609s-.777.36-1.074.473a11 11 0 0 1-1.074.335c-.297.07-.774.16-1.07.196-.301.035-.778.062-1.075.058-.3-.004-.777-.039-1.074-.082a10 10 0 0 1-1.074-.218 12 12 0 0 1-1.074-.356 13 13 0 0 1-1.07-.492c-.302-.156-.778-.438-1.075-.629a18 18 0 0 1-1.074-.762c-.297-.23-.778-.632-1.074-.898a29 29 0 0 1-1.075-1.027c-.297-.301-.773-.817-1.07-1.157-.3-.336-.777-.906-1.074-1.277-.297-.375-.778-1-1.074-1.406a64 64 0 0 1-1.075-1.524 80 80 0 0 1-1.074-1.64 77 77 0 0 1-1.07-1.754c-.3-.5-.778-1.328-1.074-1.86-.297-.53-.778-1.406-1.075-1.964-.296-.563-.777-1.481-1.074-2.067s-.773-1.55-1.074-2.164c-.297-.61-.773-1.613-1.07-2.25-.301-.637-.778-1.676-1.075-2.336s-.777-1.738-1.074-2.418c-.297-.683-.773-1.793-1.074-2.492-.297-.703-.773-1.844-1.074-2.563-.297-.718-.774-1.886-1.07-2.625-.301-.734-.778-1.93-1.075-2.68-.297-.753-.777-1.968-1.074-2.734-.297-.765-.773-2-1.074-2.777a1091 1091 0 0 1-3.219-8.543c-.297-.8-.777-2.09-1.074-2.898-.297-.805-.774-2.098-1.074-2.907zm0 0"/></g><g fill="none" stroke="#000" stroke-miterlimit="10" stroke-width="1.594" clip-path="url(#c)"><path stroke-width="1.58816596" d="m14.695 92.316 1.07-2.914c.301-.808.778-2.101 1.075-2.91.297-.805.777-2.094 1.074-2.894s.774-2.082 1.074-2.875a1090.457 1090.457 0 0 1 2.145-5.668l1.074-2.778c.297-.765.777-1.984 1.074-2.734s.774-1.945 1.074-2.68c.297-.738.774-1.906 1.07-2.625.302-.719.778-1.86 1.075-2.562.3-.7.777-1.809 1.074-2.492.297-.68.778-1.758 1.074-2.418s.774-1.7 1.075-2.336c.297-.637.773-1.641 1.07-2.25.3-.614.777-1.578 1.074-2.164s.778-1.504 1.074-2.067c.297-.558.778-1.433 1.075-1.965a81 81 0 0 1 1.074-1.859c.297-.504.773-1.285 1.07-1.754.3-.473.778-1.203 1.074-1.64.297-.438.778-1.118 1.075-1.524s.777-1.031 1.074-1.406c.297-.371.773-.942 1.074-1.282a35 35 0 0 1 1.07-1.152c.301-.305.778-.762 1.075-1.027.296-.266.777-.668 1.074-.899s.777-.57 1.074-.761a15 15 0 0 1 1.074-.63 13 13 0 0 1 1.07-.491c.301-.118.778-.278 1.075-.36a11 11 0 0 1 1.074-.215 10 10 0 0 1 1.074-.082c.297-.004.774.024 1.074.059.297.035.774.125 1.07.195.302.074.778.223 1.075.336s.777.324 1.074.473.774.422 1.074.605a18 18 0 0 1 2.145 1.621c.3.262.777.707 1.074 1.004.297.301.777.805 1.074 1.137s.774.895 1.075 1.262a48 48 0 0 1 2.144 2.89c.297.434.777 1.157 1.074 1.621.297.47.778 1.239 1.075 1.739.296.496.773 1.316 1.074 1.843.297.528.773 1.395 1.07 1.95.3.554.777 1.468 1.074 2.05s.778 1.54 1.075 2.145c.296.61.777 1.605 1.074 2.238s.773 1.668 1.074 2.324a291 291 0 0 1 2.144 4.887c.297.7.778 1.836 1.075 2.551.297.719.773 1.883 1.074 2.617.297.73.773 1.922 1.074 2.672.297.75.774 1.961 1.07 2.727.301.761.778 1.996 1.075 2.77.297.776.777 2.026 1.074 2.812.297.785.773 2.05 1.074 2.843.297.797.774 2.075 1.07 2.875.301.801.778 2.086 1.075 2.891.3.805.777 2.102 1.074 2.91l1.074 2.914c.297.809.774 2.106 1.074 2.914l1.07 2.91 1.075 2.899c.297.8.777 2.086 1.074 2.879.297.797.777 2.066 1.074 2.855s.774 2.047 1.074 2.825c.297.777.774 2.015 1.07 2.785.302.765.778 1.984 1.075 2.738s.777 1.953 1.074 2.691c.297.739.778 1.91 1.074 2.633s.774 1.867 1.075 2.574c.297.704.773 1.817 1.07 2.5a228.744 228.744 0 0 0 2.148 4.781 154 154 0 0 0 3.22 6.524c.3.563.777 1.445 1.073 1.98a81.487 81.487 0 0 0 2.148 3.648c.298.478.774 1.216 1.071 1.657.3.446.777 1.133 1.074 1.543.301.41.778 1.047 1.075 1.422.296.379.777.957 1.074 1.3.297.345.773.868 1.074 1.177.297.308.773.773 1.07 1.047.301.273.778.683 1.075.917.296.235.777.586 1.074.786.297.199.777.488 1.074.648.297.164.773.39 1.074.516.297.125.774.293 1.07.379.301.082.778.191 1.075.238s.777.094 1.074.101.777-.007 1.074-.035a12 12 0 0 0 1.074-.175c.297-.07.774-.208 1.07-.313.302-.11.778-.309 1.075-.453s.777-.402 1.074-.586c.297-.18.774-.504 1.074-.723.297-.218.774-.597 1.075-.855a25 25 0 0 0 2.144-2.102c.297-.324.777-.879 1.074-1.242.297-.36.774-.969 1.075-1.363.296-.399.773-1.059 1.07-1.488a68.585 68.585 0 0 0 2.148-3.32c.297-.493.778-1.31 1.075-1.829.296-.523.773-1.383 1.074-1.934a139 139 0 0 0 2.144-4.167c.297-.606.778-1.594 1.075-2.223s.777-1.66 1.074-2.313c.297-.652.773-1.718 1.074-2.394.297-.672.773-1.774 1.07-2.469.301-.695.778-1.824 1.074-2.539s.778-1.875 1.075-2.605.777-1.918 1.074-2.665c.297-.746.773-1.957 1.074-2.718.297-.762.774-1.992 1.07-2.766.301-.773.778-2.02 1.075-2.805s.777-2.046 1.074-2.84c.297-.792.773-2.07 1.074-2.867.297-.8.774-2.09 1.074-2.89.297-.805.774-2.098 1.07-2.906.301-.81.778-2.106 1.075-2.915l1.074-2.918c.297-.808.774-2.105 1.074-2.91l1.07-2.902c.301-.8.778-2.086 1.075-2.883l1.074-2.855a733 733 0 0 1 3.219-8.368c.3-.757.777-1.96 1.074-2.699.297-.742.777-1.918 1.074-2.644.297-.723.778-1.875 1.074-2.582s.774-1.825 1.075-2.512c.297-.688.773-1.777 1.07-2.441.3-.668.777-1.72 1.074-2.364s.778-1.66 1.074-2.28c.297-.618.778-1.595 1.075-2.188.297-.598.773-1.532 1.074-2.098.297-.567.773-1.457 1.07-1.996.301-.543.778-1.387 1.074-1.895.297-.511.778-1.308 1.075-1.789s.777-1.226 1.074-1.676.773-1.144 1.074-1.558a58 58 0 0 1 1.07-1.445c.301-.383.778-.97 1.075-1.317a27.712 27.712 0 0 1 2.148-2.266c.297-.277.773-.695 1.074-.937a24 24 0 0 1 1.07-.805c.301-.203.778-.504 1.075-.668.297-.168.777-.406 1.074-.539.297-.129.773-.304 1.074-.398.297-.09.774-.207 1.07-.262.301-.05.778-.105 1.075-.121.3-.016.777-.008 1.074.016.297.023.777.09 1.074.152s.774.191 1.074.293c.297.098.774.289 1.07.426.301.14.778.39 1.075.566s.777.488 1.074.7c.297.214.777.585 1.074.835s.774.68 1.075.965a30.746 30.746 0 0 1 2.145 2.32A45 45 0 0 1 204.687 40c.296.426.773 1.133 1.074 1.586a81 81 0 0 1 2.144 3.512c.297.52.778 1.37 1.075 1.918.296.546.773 1.445 1.074 2.02.297.573.773 1.515 1.074 2.116a197 197 0 0 1 2.144 4.508c.297.649.778 1.711 1.075 2.379.297.672.773 1.77 1.074 2.461a330 330 0 0 1 3.219 7.781c.297.742.777 1.95 1.074 2.707.297.758.773 1.989 1.074 2.758a1075 1075 0 0 1 3.219 8.5l1.074 2.887 1.074 2.906c.297.805.774 2.102 1.07 2.91.301.813 1.075 2.918 1.075 2.918"/><path stroke-width="1.58816596" d="m14.695 92.316 1.07 2.918c.301.809.778 2.102 1.075 2.907.297.808.777 2.097 1.074 2.898.297.8.774 2.082 1.074 2.875a1090.18 1090.18 0 0 0 2.145 5.668c.3.777.777 2.012 1.074 2.777s.777 1.98 1.074 2.735c.297.75.774 1.945 1.074 2.68.297.738.774 1.906 1.07 2.624.302.72.778 1.86 1.075 2.563.3.7.777 1.809 1.074 2.492.297.68.778 1.758 1.074 2.418s.774 1.7 1.075 2.336c.297.637.773 1.64 1.07 2.25.3.613.777 1.578 1.074 2.164s.778 1.504 1.074 2.066c.297.56.778 1.434 1.075 1.965s.773 1.36 1.074 1.86c.297.504.773 1.285 1.07 1.754.3.472.778 1.203 1.074 1.64.297.438.778 1.117 1.075 1.524.296.406.777 1.03 1.074 1.406.297.371.773.941 1.074 1.277.297.34.773.856 1.07 1.157.301.304.778.761 1.075 1.027s.777.668 1.074.898.777.57 1.074.762c.297.191.773.473 1.074.629.297.156.774.375 1.07.492.301.117.778.277 1.075.356.297.082.777.18 1.074.218.297.043.773.078 1.074.082.297.004.774-.023 1.074-.058.297-.035.774-.125 1.07-.196.302-.074.778-.222 1.075-.335s.777-.325 1.074-.473c.297-.149.774-.422 1.074-.61.297-.183.774-.515 1.07-.742.301-.222.778-.613 1.075-.875.3-.261.777-.707 1.074-1.004.297-.3.777-.804 1.074-1.136s.774-.895 1.075-1.262a48 48 0 0 0 2.144-2.89c.297-.434.777-1.157 1.074-1.622.297-.469.778-1.238 1.075-1.738.296-.496.773-1.316 1.074-1.844a110.626 110.626 0 0 0 2.145-4 157 157 0 0 0 3.222-6.707 291 291 0 0 0 2.144-4.887c.297-.699.778-1.835 1.075-2.55.297-.72.773-1.883 1.074-2.618.297-.73.773-1.921 1.074-2.671.297-.75.774-1.961 1.07-2.727.301-.762.778-1.996 1.075-2.77.297-.777.777-2.027 1.074-2.812s.773-2.05 1.074-2.844c.297-.797.774-2.074 1.07-2.875.301-.8.778-2.086 1.075-2.89.3-.805.777-2.102 1.074-2.91.297-.805.777-2.106 1.074-2.915.297-.808.774-2.105 1.074-2.914l1.07-2.91c.301-.808.778-2.097 1.075-2.898s.777-2.086 1.074-2.88c.297-.796.777-2.066 1.074-2.855s.774-2.047 1.074-2.824c.297-.777.774-2.015 1.07-2.785.302-.766.778-1.984 1.075-2.738s.777-1.953 1.074-2.692c.297-.738.778-1.91 1.074-2.633a320.692 320.692 0 0 1 2.145-5.074 228.744 228.744 0 0 1 2.148-4.781 154 154 0 0 1 3.22-6.523c.3-.563.777-1.446 1.073-1.98a81.487 81.487 0 0 1 2.148-3.648c.298-.478.774-1.216 1.071-1.658.3-.445.777-1.132 1.074-1.543.301-.41.778-1.046 1.075-1.421a31.79 31.79 0 0 1 2.148-2.477c.297-.309.773-.777 1.07-1.047.301-.273.778-.683 1.075-.918s.777-.586 1.074-.785.777-.488 1.074-.648c.297-.164.773-.391 1.074-.516.297-.125.774-.293 1.07-.379.301-.086.778-.191 1.075-.238a10 10 0 0 1 1.074-.102c.297-.008.777.008 1.074.035.297.032.774.11 1.074.176.297.07.774.207 1.07.313.302.109.778.308 1.075.453.297.144.777.402 1.074.586.297.18.774.504 1.074.722.297.22.774.598 1.075.852.296.258.773.695 1.07.988a30 30 0 0 1 2.148 2.36c.297.359.774.968 1.075 1.363a60.029 60.029 0 0 1 3.219 4.809c.296.492.777 1.308 1.074 1.828.296.523.773 1.382 1.074 1.933a139 139 0 0 1 2.144 4.168c.297.606.778 1.594 1.075 2.223s.777 1.66 1.074 2.312c.297.653.773 1.72 1.074 2.395.297.672.773 1.773 1.07 2.469.301.695.778 1.824 1.074 2.539.297.714.778 1.875 1.075 2.605s.777 1.918 1.074 2.664.773 1.957 1.074 2.719c.297.762.774 1.992 1.07 2.766a741.07 741.07 0 0 1 2.148 5.645c.298.792.774 2.07 1.075 2.866.297.801.774 2.086 1.074 2.89.297.806.774 2.099 1.07 2.907.301.809.778 2.106 1.075 2.914l1.074 2.918c.297.809.774 2.106 1.074 2.91l1.07 2.903c.301.8.778 2.086 1.075 2.883.3.792.777 2.066 1.074 2.855a733 733 0 0 0 3.219 8.367c.3.758.777 1.961 1.074 2.7.297.742.777 1.917 1.074 2.644.297.723.778 1.875 1.074 2.582s.774 1.824 1.075 2.512c.297.687.773 1.777 1.07 2.441.3.668.777 1.719 1.074 2.363.297.645.778 1.66 1.074 2.282.297.617.778 1.593 1.075 2.187.297.598.773 1.531 1.074 2.098.297.566.773 1.457 1.07 1.996.301.543.778 1.387 1.074 1.894.297.512.778 1.309 1.075 1.79.296.48.777 1.226 1.074 1.675a52 52 0 0 0 2.144 3c.301.387.778.973 1.075 1.32a27.711 27.711 0 0 0 2.148 2.266c.297.278.773.695 1.074.934.297.242.774.601 1.07.808.301.203.778.504 1.075.668.297.168.777.407 1.074.54.297.128.773.304 1.074.398.297.09.774.207 1.07.262.301.05.778.105 1.075.12.3.016.777.008 1.074-.015s.777-.09 1.074-.152a11 11 0 0 0 1.074-.293c.297-.098.774-.29 1.07-.426.301-.14.778-.39 1.075-.566s.777-.489 1.074-.704c.297-.21.777-.582 1.074-.832s.774-.68 1.075-.964a30.745 30.745 0 0 0 2.145-2.32c.296-.356.776-.958 1.073-1.348s.778-1.043 1.075-1.465c.296-.426.773-1.133 1.074-1.586a81 81 0 0 0 2.144-3.512c.297-.52.778-1.371 1.075-1.918s.773-1.445 1.074-2.02c.297-.574.773-1.515 1.074-2.117a197 197 0 0 0 2.144-4.507c.297-.649.778-1.711 1.075-2.383.297-.668.773-1.766 1.074-2.457a330 330 0 0 0 3.219-7.782c.297-.742.777-1.949 1.074-2.707.297-.761.773-1.988 1.074-2.757a1075 1075 0 0 0 3.219-8.5l1.074-2.887c.297-.805.774-2.098 1.074-2.906.297-.805.774-2.102 1.07-2.91.301-.813 1.075-2.918 1.075-2.918"/></g><use xlink:href="#d" x="10.069" y="33.953"/><use xlink:href="#e" x="10.069" y="28.003"/><use xlink:href="#f" x="10.069" y="22.215"/><use xlink:href="#g" x="10.069" y="18.454"/><use xlink:href="#h" x="10.069" y="12.057"/><use xlink:href="#i" x="10.069" y="9.609"/><use xlink:href="#j" x="10.069" y="5.348"/></svg>