<svg xmlns="http://www.w3.org/2000/svg" xmlns:xlink="http://www.w3.org/1999/xlink" width="224.932" height="134.665"><defs><clipPath id="a"><path d="M57 130h5v4.332h-5Zm0 0"/></clipPath><clipPath id="b"><path d="M52 125h15v9.332H52Zm0 0"/></clipPath><clipPath id="c"><path d="M163 130h4v4.332h-4Zm0 0"/></clipPath><clipPath id="d"><path d="M157 125h16v9.332h-16Zm0 0"/></clipPath><clipPath id="e"><path d="M12 130h5v4.332h-5Zm0 0"/></clipPath><clipPath id="f"><path d="M7 125h15v9.332H7Zm0 0"/></clipPath><clipPath id="g"><path d="M208 130h4v4.332h-4Zm0 0"/></clipPath><clipPath id="h"><path d="M202 125h16v9.332h-16Zm0 0"/></clipPath><path id="i" d="M1.828.094c1.75 0 2.375-1.14 2.672-2.735l.484-2.453c.047-.25.188-.39.563-.406l.219-.016c.046 0 .078-.03.078-.078l.031-.172-.016-.015c-.406 0-.75.015-.937.015-.203 0-.547-.015-.938-.015l-.03.015-.032.172c0 .047.031.078.062.078l.22.016c.296.016.405.094.405.281 0 .032 0 .078-.015.125l-.516 2.625c-.187 1-.547 2.188-2 2.188-.422 0-.734-.188-.937-.438C.953-.969.906-1.25.906-1.53s.047-.594.11-.875L1.53-5.11c.063-.25.203-.375.563-.391l.219-.016c.046 0 .078-.03.078-.078l.046-.172-.03-.015c-.391 0-.75.015-1.094.015S.64-5.78.234-5.78l-.03.015-.032.172c0 .047.031.078.062.078l.22.016c.28.016.405.078.405.266 0 .046 0 .078-.015.125l-.578 3a3 3 0 0 0-.063.625c0 1.28.953 1.578 1.625 1.578m0 0"/><path id="j" d="M2.016-2.578h-.657v-1.297c0-.312.094-.453.47-.453h.546c.531 0 .64.281.797.781.094.016.172 0 .234-.031-.031-.297-.14-.985-.156-1.047 0-.016 0-.016-.016-.016-.125.016-.187.032-.359.032H1.047c-.203 0-.625-.016-.922-.016-.047.031-.047.188 0 .234.5.016.625.047.625.641v2.875c0 .594-.125.625-.625.656-.047.047-.047.188 0 .235C.391 0 .828 0 1.063 0h1.53c.345 0 .923.016.923.016.093-.36.203-.828.265-1.203a.45.45 0 0 0-.25-.032c-.14.516-.39.938-.937.938h-.828c-.313 0-.407-.11-.407-.453v-1.578h.657c.609 0 .625.171.64.484.047.047.203.047.235 0v-1.235c-.032-.046-.188-.046-.235 0-.015.391-.031.485-.64.485m0 0"/><path id="k" d="M1.11-.562 1.5-1.61c.031-.094.078-.11.25-.11h1.516l.406 1.203c.094.25-.172.266-.516.297-.047.047-.047.188 0 .235C3.406 0 3.812 0 4.094 0s.562 0 .812.016c.032-.047.032-.188 0-.235-.281-.031-.531-.047-.64-.39L2.78-4.703c-.11.062-.297.14-.39.14L.766-.733C.578-.281.359-.25.046-.22 0-.172 0-.03.047.016.235 0 .47 0 .689 0c.296 0 .656 0 .921.016.032-.047.032-.188 0-.235C1.33-.25 1-.266 1.11-.562m.765-1.47c-.156 0-.203-.015-.172-.093l.734-1.844h.032l.687 1.938Zm0 0"/></defs><path fill="none" stroke="#000" stroke-miterlimit="10" stroke-width=".39801048" d="M14.46 12.273h22.556m0 0h44.902m7.918 0h32.828m31.668 0h33.027m0 0h22.551"/><path fill="#FFF" stroke="#000" stroke-miterlimit="10" stroke-width=".39801048" d="M16.047 12.273a1.584 1.584 0 0 0-3.168 0 1.584 1.584 0 0 0 3.168 0Zm0 0"/><path stroke="#000" stroke-miterlimit="10" stroke-width=".39801048" d="M61.148 12.273a1.584 1.584 0 0 0-3.168 0 1.584 1.584 0 0 0 3.168 0Zm0 0"/><path fill="none" stroke="#000" stroke-miterlimit="10" stroke-width=".79502344" d="M81.918.398v23.75M89.836.398v23.75"/><path fill="none" stroke="#000" stroke-linejoin="bevel" stroke-miterlimit="10" stroke-width=".79502344" d="M122.266 12.434c0-3.282 1.816-5.938 4.058-5.938 2.239 0 4.059 2.656 4.059 5.938 0-3.282 1.816-5.938 4.055-5.938 2.242 0 4.058 2.656 4.058 5.938 0-3.282 1.817-5.938 4.059-5.938s4.058 2.656 4.058 5.938c0-3.282 1.817-5.938 4.059-5.938s4.059 2.656 4.059 5.938"/><path stroke="#000" stroke-miterlimit="10" stroke-width=".39801048" d="M166.39 12.273a1.58 1.58 0 0 0-1.581-1.582 1.58 1.58 0 0 0-1.582 1.582 1.58 1.58 0 0 0 1.582 1.582 1.58 1.58 0 0 0 1.582-1.582Zm0 0"/><path fill="#FFF" stroke="#000" stroke-miterlimit="10" stroke-width=".39801048" d="M211.496 12.273a1.584 1.584 0 0 0-3.168 0 1.583 1.583 0 0 0 3.168 0Zm0 0"/><path fill="none" stroke="#000" stroke-miterlimit="10" stroke-width=".39801048" d="M59.566 12.273V27.31m0 0v15.035H48.29m0 0H37.016v14.234m0 31.668v14.235h11.273m0 0h11.277v15.035m0 0v15.035"/><path stroke="#000" stroke-miterlimit="10" stroke-width=".39801048" d="M61.148 42.344a1.584 1.584 0 1 0-3.167-.005 1.584 1.584 0 0 0 3.167.005Zm0 0"/><path fill="none" stroke="#000" stroke-linejoin="bevel" stroke-miterlimit="10" stroke-width=".79502344" d="M37.172 56.18c-3.277 0-5.938 1.816-5.938 4.058s2.66 4.059 5.938 4.059c-3.277 0-5.938 1.816-5.938 4.058 0 2.239 2.66 4.055 5.938 4.055-3.277 0-5.938 1.82-5.938 4.059 0 2.242 2.66 4.058 5.938 4.058-3.277 0-5.938 1.817-5.938 4.059s2.66 4.059 5.938 4.059"/><path stroke="#000" stroke-miterlimit="10" stroke-width=".39801048" d="M61.148 102.48a1.584 1.584 0 0 0-3.168 0 1.584 1.584 0 0 0 3.168 0Zm0 0"/><g clip-path="url(#a)"><path d="M61.148 132.55a1.584 1.584 0 0 0-3.168 0 1.584 1.584 0 0 0 3.168 0m0 0"/></g><g clip-path="url(#b)"><path fill="none" stroke="#000" stroke-miterlimit="10" stroke-width=".39801048" d="M61.148 132.55a1.584 1.584 0 0 0-3.168 0 1.584 1.584 0 0 0 3.168 0Zm0 0"/></g><path fill="none" stroke="#000" stroke-miterlimit="10" stroke-width=".39801048" d="M59.566 42.344H70.84m0 0h11.277v26.11m0 7.917v26.11H70.84m0 0H59.566"/><path fill="none" stroke="#000" stroke-miterlimit="10" stroke-width=".79502344" d="M93.992 68.453h-23.75m23.75 7.918h-23.75"/><path fill="none" stroke="#000" stroke-miterlimit="10" stroke-width=".39801048" d="M164.809 12.273V27.31m0 0v15.035H153.53m0 0h-11.273v14.234m0 31.668v14.235h11.273m0 0h11.278v15.035m0 0v15.035"/><path stroke="#000" stroke-miterlimit="10" stroke-width=".39801048" d="M166.39 42.344c0-.875-.706-1.586-1.581-1.586a1.584 1.584 0 0 0 0 3.168 1.58 1.58 0 0 0 1.582-1.582Zm0 0"/><path fill="none" stroke="#000" stroke-linejoin="bevel" stroke-miterlimit="10" stroke-width=".79502344" d="M142.414 56.18c-3.277 0-5.937 1.816-5.937 4.058s2.66 4.059 5.937 4.059c-3.277 0-5.937 1.816-5.937 4.058 0 2.239 2.66 4.055 5.937 4.055-3.277 0-5.937 1.82-5.937 4.059 0 2.242 2.66 4.058 5.937 4.058-3.277 0-5.937 1.817-5.937 4.059s2.66 4.059 5.937 4.059"/><path stroke="#000" stroke-miterlimit="10" stroke-width=".39801048" d="M166.39 102.48a1.58 1.58 0 0 0-1.581-1.582 1.58 1.58 0 0 0-1.582 1.583 1.58 1.58 0 0 0 1.582 1.582 1.58 1.58 0 0 0 1.582-1.582Zm0 0"/><g clip-path="url(#c)"><path d="M166.39 132.55a1.58 1.58 0 0 0-1.581-1.581 1.58 1.58 0 0 0-1.582 1.582 1.58 1.58 0 0 0 1.582 1.582 1.58 1.58 0 0 0 1.582-1.582m0 0"/></g><g clip-path="url(#d)"><path fill="none" stroke="#000" stroke-miterlimit="10" stroke-width=".39801048" d="M166.39 132.55a1.58 1.58 0 0 0-1.581-1.581 1.58 1.58 0 0 0-1.582 1.582 1.58 1.58 0 0 0 1.582 1.582 1.58 1.58 0 0 0 1.582-1.582Zm0 0"/></g><path fill="none" stroke="#000" stroke-miterlimit="10" stroke-width=".39801048" d="M164.809 42.344h11.273m0 0h11.277v26.11m0 7.917v26.11h-11.277m0 0H164.81"/><path fill="none" stroke="#000" stroke-miterlimit="10" stroke-width=".79502344" d="M199.234 68.453h-23.75m23.75 7.918h-23.75"/><path fill="none" stroke="#000" stroke-miterlimit="10" stroke-width=".39801048" d="M59.566 132.55h-22.55m0 0H14.46"/><g clip-path="url(#e)"><path fill="#FFF" d="M16.047 132.55a1.584 1.584 0 0 0-3.168 0 1.584 1.584 0 0 0 3.168 0m0 0"/></g><g clip-path="url(#f)"><path fill="none" stroke="#000" stroke-miterlimit="10" stroke-width=".39801048" d="M16.047 132.55a1.584 1.584 0 0 0-3.168 0 1.584 1.584 0 0 0 3.168 0Zm0 0"/></g><path fill="none" stroke="#000" stroke-miterlimit="10" stroke-width=".39801048" d="M59.566 132.55h52.622m0 0h75.171m0 0h22.551"/><g clip-path="url(#g)"><path fill="#FFF" d="M211.496 132.55a1.584 1.584 0 0 0-3.168 0 1.583 1.583 0 0 0 3.168 0m0 0"/></g><g clip-path="url(#h)"><path fill="none" stroke="#000" stroke-miterlimit="10" stroke-width=".39801048" d="M211.496 132.55a1.584 1.584 0 0 0-3.168 0 1.583 1.583 0 0 0 3.168 0Zm0 0"/></g><path fill="none" stroke="#000" stroke-miterlimit="10" stroke-width=".39801048" d="M14.46 30.266v84.293"/><path stroke="#000" stroke-miterlimit="10" stroke-width=".39801048" d="M14.46 110.352h-1.976l1.977 4.207 1.98-4.207Zm0 0"/><use xlink:href="#i" x="2.233" y="74.358"/><use xlink:href="#j" x="6.991" y="76.236"/><path fill="none" stroke="#000" stroke-miterlimit="10" stroke-width=".39801048" d="M209.91 30.266v84.293"/><path stroke="#000" stroke-miterlimit="10" stroke-width=".39801048" d="M209.91 110.352h-1.976l1.976 4.207 1.98-4.207Zm0 0"/><use xlink:href="#i" x="212.516" y="74.358"/><use xlink:href="#k" x="217.274" y="76.236"/></svg>