<svg xmlns="http://www.w3.org/2000/svg" xmlns:xlink="http://www.w3.org/1999/xlink" width="231.045" height="113.781"><defs><path id="e" d="M2.953-2.469H.547v-.515h2.406Zm0 0"/><path id="f" d="m.422-.453 1.5-1.719q.89-1.015.89-2-.001-1.249-.906-1.25-.363.001-.703.172-.112.364-.125.89-.11.017-.203.016c-.281 0-.422-.117-.422-.36q0-.544.422-.874.42-.328 1.156-.328.715 0 1.172.422.451.409.453 1.14 0 .691-.422 1.36-.268.44-.906 1.125L1.344-.797v.016h2.031l.188-.766q.058-.047.187-.047.218 0 .219.36 0 .344-.094 1.234H.5Zm0 0"/><path id="g" d="M5.828-6.156v.078q-.002.252-.297.328l-.234.047L3.28 0h-.734L.453-5.687l-.375-.11q-.124-.014-.125-.11c0-.05.035-.132.094-.25H2.03c.008.024.016.048.016.079q-.001.253-.313.312l-.375.079L3-.907h.031L4.72-5.702l-.688-.11q-.127-.011-.125-.093 0-.075.094-.25Zm0 0"/><path id="h" d="M2.031-.578V-5l-1.344.266a1 1 0 0 1-.015-.188c0-.133.07-.226.219-.281l1.468-.594h.438v5.219l1.094.172q.14.016.14.11-.002.08-.11.296H.86v-.078q0-.311.282-.36Zm0 0"/><path id="j" d="m.938-3.828-.47.031c-.171 0-.234.078-.25.14a1 1 0 0 0-.046.157c0 .016.031.016.062.016H.86L.313-1.047C.25-.766.188-.484.188-.328c0 .328.156.422.437.422.406 0 .984-.375 1.297-.922C1.89-.953 1.828-1 1.719-1c-.407.469-.563.547-.703.547C.984-.453.89-.47.89-.578c0-.078.03-.25.093-.563l.532-2.343h.875c.109-.047.187-.266.093-.344h-.89l.093-.406c.032-.172.11-.422.11-.532 0-.156-.063-.234-.344-.234-.328 0-.312.39-.406.719Zm0 0"/><path id="k" d="M1.813.094c1.765 0 2.375-1.14 2.687-2.719l.484-2.453c.032-.25.188-.39.547-.422l.219-.016c.047 0 .078-.03.078-.062l.047-.172-.016-.016c-.406 0-.75.016-.953.016s-.531-.016-.937-.016l-.016.016-.031.172c-.016.031.015.062.047.062l.234.016c.281.016.406.11.406.297 0 .031-.015.078-.03.125l-.5 2.61c-.204 1-.548 2.187-2.016 2.187-.407 0-.72-.188-.922-.438-.188-.25-.235-.515-.235-.812 0-.282.047-.578.11-.875L1.53-5.11c.063-.25.203-.36.563-.391l.219-.016c.046 0 .062-.03.078-.062l.03-.172-.015-.016c-.406 0-.75.016-1.094.016-.343 0-.671-.016-1.078-.016l-.03.016-.032.172c0 .031.031.062.062.062l.22.016c.28.016.405.094.405.281 0 .032 0 .078-.015.11l-.578 3a3 3 0 0 0-.063.625c0 1.28.953 1.578 1.61 1.578m0 0"/><path id="l" d="m1.11-.562.39-1.032c.031-.093.078-.125.25-.125h1.5l.422 1.203c.078.25-.188.266-.531.297-.047.047-.047.188 0 .235C3.406 0 3.797 0 4.078 0c.297 0 .563 0 .813.016.046-.047.046-.188 0-.235-.282-.031-.516-.047-.641-.39L2.781-4.703c-.11.062-.297.14-.39.14L.766-.733C.578-.281.359-.25.046-.22 0-.172 0-.03.047.016.235 0 .47 0 .689 0c.296 0 .64 0 .906.016.047-.047.047-.188 0-.235C1.328-.25 1-.266 1.109-.562m.765-1.454c-.156 0-.203-.03-.172-.093l.719-1.86h.047l.672 1.953Zm0 0"/><clipPath id="a"><path d="M220 55h10.094v16H220Zm0 0"/></clipPath><clipPath id="b"><path d="M23 3h1v110.438h-1Zm0 0"/></clipPath><clipPath id="c"><path d="M21 .125h5V4h-5Zm0 0"/></clipPath><clipPath id="d"><path d="M16 .125h16V10H16Zm0 0"/></clipPath><clipPath id="i"><path d="M23.664 15H226v96H23.664Zm0 0"/></clipPath></defs><path fill="none" stroke="#BFBFBF" stroke-miterlimit="10" stroke-width=".19818012000000002" d="M23.664 104.875H229.9M23.664 83.965H229.9M23.664 42.145H229.9M23.664 21.235H229.9"/><path fill="none" stroke="#000" stroke-miterlimit="10" stroke-width=".79371636" d="M21.543 104.875h4.238m-4.238-20.91h4.238m-4.238-41.82h4.238m-4.238-20.91h4.238"/><path fill="none" stroke="#000" stroke-miterlimit="10" stroke-width=".39735612000000003" d="M23.664 63.055h202.777"/><path d="m229.5 63.055-2.96-1.758v3.512Zm0 0"/><g clip-path="url(#a)"><path fill="none" stroke="#000" stroke-miterlimit="10" stroke-width=".39735612000000003" d="m229.5 63.055-2.96-1.758v3.512Zm0 0"/></g><g clip-path="url(#b)"><path fill="none" stroke="#000" stroke-miterlimit="10" stroke-width=".39735612000000003" d="M23.664 113.238V3.781"/></g><g clip-path="url(#c)"><path d="m23.664.719-1.758 2.96h3.512Zm0 0"/></g><g clip-path="url(#d)"><path fill="none" stroke="#000" stroke-miterlimit="10" stroke-width=".39735612000000003" d="m23.664.719-1.758 2.96h3.512Zm0 0"/></g><use xlink:href="#e" x="2.976" y="107.955"/><use xlink:href="#f" x="6.476" y="107.955"/><use xlink:href="#g" x="12.584" y="107.955"/><use xlink:href="#h" x="6.476" y="87.046"/><use xlink:href="#g" x="12.584" y="87.046"/><use xlink:href="#h" x="6.476" y="45.225"/><use xlink:href="#g" x="12.584" y="45.225"/><use xlink:href="#f" x="6.476" y="24.315"/><use xlink:href="#g" x="12.584" y="24.315"/><g clip-path="url(#i)"><path fill="none" stroke="#000" stroke-miterlimit="10" stroke-width=".39735612000000003" d="M23.664 63.055s.281-.762.39-1.051l.395-1.055.395-1.05.394-1.047.39-1.047.395-1.043.395-1.04c.11-.288.285-.75.395-1.035.109-.285.28-.746.39-1.03.11-.282.285-.74.395-1.024l.394-1.016.395-1.008c.11-.28.285-.726.39-1 .11-.277.286-.718.395-.996l.394-.98.395-.977.394-.96a119 119 0 0 1 .786-1.895c.109-.262.285-.672.394-.93.11-.254.285-.664.395-.914.11-.254.28-.656.39-.902l.395-.891.394-.875.395-.86c.11-.234.281-.609.39-.84.11-.234.286-.6.395-.827s.285-.59.395-.813c.109-.222.285-.574.394-.793s.285-.562.395-.773a63.43 63.43 0 0 1 .785-1.496l.394-.723a112 112 0 0 1 .786-1.379 49 49 0 0 1 1.183-1.914c.11-.168.281-.434.39-.598.11-.16.286-.418.395-.574s.285-.398.395-.55l.394-.528c.11-.144.285-.367.39-.508.11-.136.286-.347.395-.48a21.786 21.786 0 0 1 1.184-1.3c.106-.114.281-.282.39-.388.11-.101.286-.265.395-.36.11-.097.285-.245.395-.335s.285-.227.394-.313a12 12 0 0 1 .785-.543c.11-.066.286-.171.395-.234.11-.058.285-.152.395-.207a9 9 0 0 1 .785-.336c.109-.039.285-.098.394-.129s.285-.078.395-.101c.11-.028.285-.059.39-.078a7 7 0 0 1 .79-.07 6.69 6.69 0 0 1 .79.031 6.7 6.7 0 0 1 1.178.25c.11.03.285.093.395.132a9.016 9.016 0 0 1 .785.352 10 10 0 0 1 1.574 1.012 15.267 15.267 0 0 1 1.184 1.023l.39.39a21 21 0 0 1 .79.86c.109.125.285.332.394.461.11.133.281.352.39.488a31.783 31.783 0 0 1 .79 1.047c.109.152.285.399.394.555a75 75 0 0 1 .785 1.183 43 43 0 0 1 1.18 1.93c.11.188.285.492.394.684.11.195.286.507.395.707l.395.722c.109.207.285.536.394.746.11.208.281.547.39.762a145 145 0 0 1 .79 1.578c.11.223.285.586.394.813.11.23.282.601.39.832.11.234.286.61.395.848s.286.62.395.863c.11.242.285.633.395.879.109.242.28.64.39.89s.285.653.395.907c.109.253.285.66.394.918.11.257.285.671.395.933.11.258.285.68.394.942.106.265.282.69.39.957.11.265.286.695.395.964l.395.977c.11.273.285.71.394.988.11.274.282.715.391.992l.395 1.004.394 1.012c.11.281.285.734.395 1.02.11.28.281.738.39 1.023l.395 1.031c.11.285.285.746.394 1.035.11.29.286.75.395 1.04.11.289.285.753.39 1.046.11.29.286.754.395 1.047l.395 1.047.394 1.055c.11.289.285.758.395 1.05.105.294.28.762.39 1.055l.395 1.051.394 1.05.395 1.052c.11.293.281.757.39 1.05l.395 1.043.395 1.043.394 1.04c.11.288.281.746.39 1.03l.395 1.032c.11.281.285.738.395 1.02.11.28.285.734.394 1.015s.285.727.391 1.008l.394 1 .395.988c.11.274.285.711.395.98.109.274.285.704.394.973.11.27.281.696.39.961a235 235 0 0 0 1.184 2.813c.11.254.282.66.39.914l.395.898.395.887c.11.242.285.629.395.867a91 91 0 0 0 1.18 2.52c.109.226.284.586.394.804.11.223.285.575.394.79.106.218.282.558.39.773.11.21.286.547.395.75a63 63 0 0 0 .79 1.45c.109.194.28.507.39.694a52 52 0 0 0 .79 1.332l.394.633c.11.172.281.446.39.61.11.168.285.43.395.59.11.164.285.414.394.57.11.152.286.398.395.547.11.144.285.379.39.52a25.609 25.609 0 0 0 1.184 1.43l.395.429c.11.113.28.293.39.402s.285.277.395.379.285.258.394.355c.11.094.286.239.395.328.11.086.281.223.39.305.11.078.286.203.395.277s.285.188.395.254a9.211 9.211 0 0 0 1.18.602c.109.047.284.11.394.148a7.263 7.263 0 0 0 .79.219 6 6 0 0 0 .784.113 7 7 0 0 0 .79.008 6.6 6.6 0 0 0 1.573-.305 8.527 8.527 0 0 0 .785-.313c.11-.05.286-.136.395-.194.11-.055.285-.157.395-.22.109-.065.285-.175.39-.245a13.02 13.02 0 0 0 1.184-.895 16 16 0 0 0 .785-.718 20.843 20.843 0 0 0 1.574-1.738 27 27 0 0 0 .79-1.009 35.075 35.075 0 0 0 .785-1.105c.109-.156.285-.418.394-.582a87.338 87.338 0 0 0 .79-1.234c.108-.18.284-.47.39-.653a51 51 0 0 0 .789-1.36c.109-.194.285-.507.394-.71.11-.2.285-.524.395-.727.11-.207.28-.539.39-.75s.285-.55.395-.765.285-.567.394-.785c.11-.22.286-.579.395-.801.11-.227.281-.59.39-.82a171 171 0 0 0 .79-1.688c.109-.238.285-.621.394-.863s.281-.637.39-.883a202 202 0 0 0 .79-1.805 218 218 0 0 0 .789-1.86c.105-.257.281-.679.39-.944l.395-.958.395-.968.394-.98c.11-.274.281-.712.39-.989.11-.273.286-.719.395-.996l.395-1.004.394-1.016c.11-.28.282-.734.39-1.02l.395-1.027a294.269 294.269 0 0 0 1.18-3.11l.395-1.042.394-1.047c.11-.293.285-.761.395-1.05l.394-1.055c.11-.29.282-.758.39-1.051l.395-1.055c.11-.289.286-.757.395-1.05s.285-.762.395-1.051c.109-.293.28-.762.39-1.051l.395-1.047c.109-.293.285-.758.394-1.047s.285-.754.395-1.039c.11-.289.281-.75.39-1.039l.395-1.031.394-1.027.395-1.02.394-1.012c.106-.281.282-.726.391-1.008l.395-.996.394-.988c.11-.273.285-.707.395-.976.11-.274.28-.704.39-.97l.395-.96.394-.945.395-.934c.11-.258.281-.672.39-.926l.395-.906.395-.899c.109-.246.285-.636.394-.878.11-.243.285-.63.39-.868a179 179 0 0 1 .79-1.687c.11-.23.285-.594.394-.817l.395-.804c.105-.219.281-.57.39-.785l.395-.766c.11-.211.285-.543.395-.746.109-.207.285-.531.394-.73.11-.2.281-.516.39-.712.11-.195.286-.5.395-.69a47.29 47.29 0 0 1 .79-1.316c.109-.181.28-.458.39-.63a41 41 0 0 1 1.184-1.754c.109-.153.285-.395.39-.54.11-.148.285-.378.395-.519.11-.136.285-.36.394-.492a25 25 0 0 1 .79-.918c.109-.117.28-.305.39-.422a19 19 0 0 1 1.184-1.117c.109-.094.28-.238.39-.324s.285-.219.395-.297c.109-.078.285-.2.394-.27.11-.074.285-.183.395-.25.11-.062.281-.16.39-.218.11-.059.286-.145.395-.196.11-.05.285-.125.394-.168a8 8 0 0 1 .79-.257c.105-.028.28-.067.39-.09.11-.02.285-.047.395-.063a6.652 6.652 0 0 1 .79-.047c.108 0 .28.008.39.016.109.012.284.031.394.047.11.015.285.043.394.066a7 7 0 0 1 .786.219c.109.04.285.105.394.148.11.047.285.125.395.176.109.051.285.14.394.203a11.021 11.021 0 0 1 .785.477 13.207 13.207 0 0 1 .79.582 15 15 0 0 1 .785.684c.109.101.285.273.394.378a21.154 21.154 0 0 1 .79.832l.39.454a26 26 0 0 1 .789.976c.11.14.285.375.394.524.11.148.282.39.391.543a38.643 38.643 0 0 1 .79 1.16c.108.168.284.437.394.613a95.846 95.846 0 0 1 .785 1.285c.11.188.285.485.394.676s.285.5.395.695c.11.196.285.516.394.715a126 126 0 0 1 1.18 2.258c.11.219.285.566.395.789.109.223.28.582.39.809a82 82 0 0 1 .79 1.66c.109.234.284.617.394.855s.281.625.39.871c.11.242.286.637.395.883a211.153 211.153 0 0 1 1.184 2.738c.105.258.28.676.39.938l.395.95.394.96.395.973c.11.27.281.707.39.98a263 263 0 0 1 .79 1.992l.394 1.004c.11.282.281.735.39 1.016l.395 1.023.395 1.028.394 1.03c.11.29.285.75.39 1.04l.395 1.043.395 1.047c.11.289.285.754.394 1.047.11.289.286.758.395 1.05s.281.758.39 1.051l.395 1.055c.11.293.285.762.395 1.05l.394 1.055c.11.293.281.758.39 1.051.11.293.286.758.395 1.051l.395 1.047.394 1.043c.11.289.282.754.391 1.039l.394 1.035c.11.29.286.746.395 1.031l.395 1.028.394 1.015c.106.282.281.73.39 1.012l.395 1.004.395.996.394.984.39.977.395.965c.11.27.286.691.395.957l.395.945c.109.258.28.672.39.93s.285.668.395.918a209 209 0 0 0 .789 1.8c.11.247.285.637.39.876.11.242.286.628.395.863.11.238.285.617.394.847.11.235.286.606.395.833l.394.816a71.627 71.627 0 0 0 .785 1.574l.395.766c.11.207.285.539.395.742s.281.527.39.723c.11.199.285.511.395.707l.394.683c.11.188.286.485.395.664a47 47 0 0 0 .785 1.27c.11.168.285.437.395.601.109.164.285.422.394.579l.39.554a32 32 0 0 0 .79 1.047 27 27 0 0 0 .789.953 22 22 0 0 0 .785.856 19 19 0 0 0 1.18 1.101c.11.09.285.23.394.317a11.636 11.636 0 0 0 .79.555c.109.07.285.175.39.242a10 10 0 0 0 .789.398c.11.05.285.121.395.164.109.04.285.102.394.137.106.031.281.082.39.11.11.023.286.062.395.081a7 7 0 0 0 .79.086c.109.004.28.004.39.004.11-.004.285-.016.394-.023.11-.012.286-.036.395-.051a7.183 7.183 0 0 0 1.18-.309 8.3 8.3 0 0 0 1.574-.777c.11-.067.285-.184.394-.258.11-.078.286-.203.395-.285s.285-.223.395-.313c.109-.086.28-.238.39-.332a17.966 17.966 0 0 0 .79-.746c.109-.113.284-.293.394-.41s.281-.312.39-.434a25.98 25.98 0 0 0 1.574-1.977 34 34 0 0 0 .79-1.124c.109-.16.285-.426.394-.594s.285-.445.395-.617c.105-.176.28-.46.39-.64a49 49 0 0 0 .79-1.34c.109-.192.285-.504.394-.7s.281-.515.39-.718c.11-.204.286-.532.395-.739l.395-.758c.109-.214.285-.558.394-.777s.281-.57.39-.793c.11-.223.286-.582.395-.808l.395-.829.394-.843c.11-.239.286-.618.391-.86l.395-.875c.109-.242.285-.64.394-.886l.395-.903c.109-.254.285-.66.394-.918l.39-.926.395-.94.395-.954c.11-.266.285-.695.394-.965s.282-.703.39-.973l.395-.984c.11-.273.286-.715.395-.992l.395-1.004c.109-.277.28-.727.39-1.008l.395-1.015.394-1.024.395-1.031c.11-.285.285-.746.39-1.031.11-.29.286-.75.395-1.04l.394-1.042.395-1.047.395-1.051c.109-.29.28-.758.39-1.05l.395-1.052.394-1.054"/></g><use xlink:href="#j" x="224.694" y="71.239"/><use xlink:href="#k" x="10.389" y="9.276"/><use xlink:href="#l" x="15.139" y="11.151"/></svg>