<svg xmlns="http://www.w3.org/2000/svg" xmlns:xlink="http://www.w3.org/1999/xlink" width="226.837" height="26.01"><defs><clipPath id="a"><path d="M4.082 10H17v2H4.082Zm0 0"/></clipPath><clipPath id="b"><path d="M54 12h5v13.055h-5Zm0 0"/></clipPath><clipPath id="c"><path d="M167 12h6v13.055h-6Zm0 0"/></clipPath><clipPath id="d"><path d="M209 10h13.602v2H209Zm0 0"/></clipPath><path id="e" d="M2.125-5.969c.008.032.016.059.016.078 0 .157-.102.262-.297.313l-.313.062 1.14 1.922h.017L3.906-5.53l-.578-.078q-.127-.014-.125-.11 0-.075.094-.25H5.03q.014.049.016.078c0 .168-.102.274-.297.313l-.297.062L2.97-3.14 4.594-.453 5-.36q.124.046.125.093 0 .048-.094.266H3.203a.16.16 0 0 1-.015-.078q-.001-.247.296-.313l.266-.046L2.516-2.5H2.5L1.234-.437l.532.078q.124.034.125.093A.6.6 0 0 1 1.797 0H.047v-.078q0-.264.297-.313l.234-.062L2.203-2.97.641-5.5l-.407-.11C.148-5.628.11-5.663.11-5.718q0-.075.094-.25Zm0 0"/></defs><path fill="none" stroke="#000" stroke-miterlimit="10" stroke-width="1.15214268" d="M28.129 10.984h11.363m0 0h11.36"/><g clip-path="url(#a)"><path fill="none" stroke="#000" stroke-dasharray="2.8792296039000003 2.8792296039000003" stroke-miterlimit="10" stroke-width=".38436867" d="M4.273 10.984H16.77"/></g><path fill="none" stroke="#000" stroke-miterlimit="10" stroke-width=".38436867" d="M16.77 10.984h5.68m0 0h5.679"/><path fill="#FFF" stroke="#000" stroke-miterlimit="10" stroke-width=".38436867" d="M18.297 10.984a1.527 1.527 0 1 0-3.055 0 1.53 1.53 0 0 0 1.528 1.532 1.53 1.53 0 0 0 1.527-1.532ZM29.66 10.984c0-.843-.683-1.527-1.531-1.527-.844 0-1.527.684-1.527 1.527a1.53 1.53 0 1 0 3.058 0Zm0 0"/><path fill="none" stroke="#000" stroke-miterlimit="10" stroke-width=".38436867" d="M50.852 10.984V7.008m0 0V3.03"/><path stroke="#000" stroke-miterlimit="10" stroke-width=".38436867" d="M52.383 10.984c0-.843-.684-1.527-1.531-1.527-.844 0-1.528.684-1.528 1.527a1.53 1.53 0 1 0 3.059 0Zm0 0"/><path fill="none" stroke="#000" stroke-miterlimit="10" stroke-width=".38436867" d="M62.215 3.031a2.84 2.84 0 0 0-5.68 0 2.84 2.84 0 0 0-5.68 0M62.215 3.031v3.977m0 0v3.976M50.852 10.984v3.977m0 0v3.976h3.77m3.823 0h3.77v-3.976m0 0v-3.977"/><g clip-path="url(#b)"><path fill="none" stroke="#000" stroke-miterlimit="10" stroke-width=".76777401" d="M54.621 13.203v11.469m3.824-11.469v11.469"/></g><path stroke="#000" stroke-miterlimit="10" stroke-width=".38436867" d="M63.742 10.984a1.527 1.527 0 1 0-3.055 0 1.53 1.53 0 0 0 1.528 1.532 1.53 1.53 0 0 0 1.527-1.532Zm0 0"/><path fill="none" stroke="#000" stroke-miterlimit="10" stroke-width="1.15214268" d="M62.215 10.984h22.722m0 0h22.723m11.363 0h22.723m0 0h22.723"/><path fill="none" stroke="#000" stroke-miterlimit="10" stroke-width=".38436867" d="M164.469 10.984V7.008m0 0V3.03M175.828 3.031a2.84 2.84 0 0 0-5.68 0 2.84 2.84 0 0 0-5.68 0M175.828 3.031v3.977m0 0v3.976"/><path stroke="#000" stroke-miterlimit="10" stroke-width=".38436867" d="M165.996 10.984c0-.843-.684-1.527-1.527-1.527-.848 0-1.532.684-1.532 1.527a1.53 1.53 0 1 0 3.059 0Zm0 0"/><path fill="none" stroke="#000" stroke-miterlimit="10" stroke-width=".38436867" d="M164.469 10.984v3.977m0 0v3.976h3.765m3.825 0h3.77v-3.976m0 0v-3.977"/><g clip-path="url(#c)"><path fill="none" stroke="#000" stroke-miterlimit="10" stroke-width=".76777401" d="M168.234 13.203v11.469m3.825-11.469v11.469"/></g><path stroke="#000" stroke-miterlimit="10" stroke-width=".38436867" d="M177.36 10.984a1.53 1.53 0 0 0-3.06 0 1.53 1.53 0 0 0 1.528 1.532c.844 0 1.531-.688 1.531-1.532Zm0 0"/><path fill="none" stroke="#000" stroke-miterlimit="10" stroke-width="1.15214268" d="M175.828 10.984h11.363m0 0h11.36"/><path fill="none" stroke="#000" stroke-miterlimit="10" stroke-width=".38436867" d="M198.55 10.984h5.68m0 0h5.684"/><path fill="#FFF" stroke="#000" stroke-miterlimit="10" stroke-width=".38436867" d="M200.082 10.984a1.53 1.53 0 0 0-3.059 0 1.53 1.53 0 0 0 1.528 1.532c.843 0 1.531-.688 1.531-1.532Zm0 0"/><g clip-path="url(#d)"><path fill="none" stroke="#000" stroke-dasharray="2.8792296039000003 2.8792296039000003" stroke-miterlimit="10" stroke-width=".38436867" d="M209.914 10.984h12.496"/></g><path fill="none" stroke="#000" stroke-miterlimit="10" stroke-width=".38436867" d="M209.914 10.984"/><path fill="#FFF" stroke="#000" stroke-miterlimit="10" stroke-width=".38436867" d="M211.441 10.984c0-.843-.683-1.527-1.527-1.527-.848 0-1.531.684-1.531 1.527a1.53 1.53 0 1 0 3.059 0Zm0 0"/><path fill="none" stroke="#000" stroke-miterlimit="10" stroke-width=".38436867" d="M107.66 10.984"/><path stroke="#000" stroke-miterlimit="10" stroke-width=".38436867" d="M109.187 10.984a1.527 1.527 0 1 0-3.054 0 1.53 1.53 0 0 0 1.527 1.532 1.53 1.53 0 0 0 1.527-1.532Zm0 0"/><use xlink:href="#e" x="105.077" y="20.016"/><path fill="none" stroke="#000" stroke-miterlimit="10" stroke-width=".38436867" d="M119.023 10.984"/><path stroke="#000" stroke-miterlimit="10" stroke-width=".38436867" d="M120.55 10.984c0-.843-.683-1.527-1.527-1.527-.847 0-1.53.684-1.53 1.527 0 .844.683 1.532 1.53 1.532a1.53 1.53 0 0 0 1.528-1.532Zm0 0"/><use xlink:href="#e" x="116.438" y="20.016"/></svg>