<svg xmlns="http://www.w3.org/2000/svg" xmlns:xlink="http://www.w3.org/1999/xlink" width="227.005" height="118.575"><defs><path id="a" d="M2.594-6.156v.078c0 .156-.102.262-.297.312l-.422.079v2.28h2.984v-2.28l-.562-.125c-.086-.008-.125-.04-.125-.094q-.001-.075.11-.25h2.062q.013.033.015.078 0 .236-.312.312l-.422.079v5.203l.625.125q.124.017.125.093c0 .032-.04.121-.11.266H4.173v-.078q0-.246.297-.328l.39-.078v-2.391H1.875v2.39l.61.126q.123.017.124.093 0 .048-.093.266H.422a.16.16 0 0 1-.016-.078Q.404-.324.72-.406l.375-.078v-5.203l-.547-.125C.46-5.82.422-5.852.422-5.906q0-.075.094-.25Zm0 0"/><path id="b" d="M4.5-6.156q.062.752.063 1.047c0 .273-.086.406-.25.406a.5.5 0 0 1-.204-.047l-.203-.937H1.875v2.453h1.984v.5H1.875v2.25l.703.125q.124.017.125.093 0 .048-.094.266H.422a.16.16 0 0 1-.016-.078Q.404-.324.72-.406l.375-.078v-5.203l-.547-.125C.46-5.82.422-5.852.422-5.906q0-.075.094-.25Zm0 0"/><path id="c" d="M2.031-.578V-5l-1.344.266a1 1 0 0 1-.015-.188c0-.133.07-.226.219-.281l1.468-.594h.438v5.219l1.094.172q.14.016.14.11-.002.08-.11.296H.86v-.078q0-.311.282-.36Zm0 0"/><path id="d" d="M.406-.375a.5.5 0 0 1 .125-.36.48.48 0 0 1 .36-.14c.132 0 .25.047.343.14a.47.47 0 0 1 .157.36.47.47 0 0 1-.157.36.5.5 0 0 1-.343.124.52.52 0 0 1-.36-.125.5.5 0 0 1-.125-.359m0 0"/><path id="e" d="M3.64-5.64v-.016H1.204l-.203 1a.6.6 0 0 1-.203.031q-.251 0-.25-.375 0-.388.062-1.156h3.907a.53.53 0 0 1 .093.297.5.5 0 0 1-.093.28L1.344-.561v.015h2.75l.234-1.015a.7.7 0 0 1 .203-.032q.218 0 .219.36c0 .218-.027.632-.078 1.234H.438Q.28-.06.28-.281q0-.123.063-.235Zm0 0"/><path id="f" d="m.422-.453 1.5-1.719q.89-1.015.89-2-.001-1.249-.906-1.25-.363.001-.703.172-.112.364-.125.89-.11.017-.203.016c-.281 0-.422-.117-.422-.36q0-.544.422-.874.42-.328 1.156-.328.715 0 1.172.422.451.409.453 1.14 0 .691-.422 1.36-.268.44-.906 1.125L1.344-.797v.016h2.031l.188-.766q.058-.047.187-.047.218 0 .219.36 0 .344-.094 1.234H.5Zm0 0"/><path id="h" d="M6.25-6.156c.008.023.016.047.016.078q-.001.236-.313.312l-.406.079V0H5L1.656-5.187h-.031v4.703l.625.125q.124.017.125.093 0 .048-.094.266H.421a.16.16 0 0 1-.015-.078Q.404-.324.72-.406l.375-.078v-5.203l-.547-.125C.46-5.82.422-5.852.422-5.906q0-.075.094-.25h1.422l3.046 4.719H5v-4.25l-.547-.125c-.086-.008-.125-.04-.125-.094q0-.075.094-.25Zm0 0"/><path id="i" d="M5.86-2.906v.094c0 .148-.102.246-.298.296l-.203.047v1.89C4.867-.116 4.15.11 3.203.11q-1.22 0-1.937-.765-.797-.845-.797-2.39-.002-1.607 1.015-2.485.873-.734 2.125-.735.576 0 1.063.141.06.018.594.234.046.643.046.922-.001.391-.265.39a.5.5 0 0 1-.188-.03l-.203-.86q-.44-.28-1.11-.281-.936 0-1.546.61-.703.688-.703 2c0 .874.191 1.554.578 2.03.375.462.883.688 1.531.688.438 0 .828-.07 1.172-.219v-1.78l-.547-.126q-.127-.029-.125-.11 0-.074.094-.25Zm0 0"/><path id="j" d="M5.828-6.156v.078q-.002.252-.297.328l-.234.047L3.28 0h-.734L.453-5.687l-.375-.11q-.124-.014-.125-.11c0-.05.035-.132.094-.25H2.03c.008.024.016.048.016.079q-.001.253-.313.312l-.375.079L3-.907h.031L4.72-5.702l-.688-.11q-.127-.011-.125-.093 0-.075.094-.25Zm0 0"/><path id="k" d="M3.266-.39q.903 0 1.437-.72.53-.714.531-1.968 0-1.232-.546-1.953-.552-.734-1.454-.735c-.605 0-1.078.243-1.421.72q-.516.72-.516 1.968 0 1.254.531 1.969.528.719 1.438.718m-.047.5q-1.22 0-1.969-.813Q.467-1.56.469-3.078c0-1 .273-1.79.828-2.375q.78-.812 2.016-.813c.843 0 1.507.274 2 .813q.75.844.75 2.375-.001 1.519-.829 2.375Q4.45.11 3.22.109m0 0"/><path id="l" d="m.125-1.984 2.531-3.782.656-.062v3.64h.75l-.03.672h-.72v1.032l.626.125q.123.017.124.093 0 .048-.093.266H1.906v-.078q0-.246.297-.328l.39-.078v-1.032H.157Zm.734-.203h1.735v-2.704h-.031L.859-2.219Zm0 0"/><path id="m" d="m6-.484-.078-4.22h-.016L4.031-.077h-.5L1.687-4.75h-.015L1.594-.484l.625.125q.124.017.125.093c0 .032-.04.121-.11.266H.391v-.078Q.389-.324.688-.406l.39-.078.063-5.203-.547-.125c-.086-.008-.125-.04-.125-.094q0-.075.094-.25h1.406l1.937 4.922h.016l2-4.922h1.5a.2.2 0 0 1 .016.078q-.001.236-.313.312l-.422.079.078 5.203.61.125q.124.017.125.093 0 .048-.094.266H5.328a.16.16 0 0 1-.016-.078q-.002-.246.313-.328Zm0 0"/><path id="n" d="M.469-3.406q0-.311.062-.875h2.89q.048.08.048.172c0 .093-.04.199-.11.312L1.141-.469v.016h1.734l.328-.89h.14q.249.001.25.265 0 .093-.124 1.078H.406a.6.6 0 0 1-.094-.328q0-.124.094-.266l2.14-3.234v-.016H1.095l-.25.735a.6.6 0 0 1-.125.015c-.168 0-.25-.101-.25-.312m0 0"/><path id="o" d="M2.969-1.047c.187-.344.289-.883.312-1.625q-.468.375-1.172.375-.766 0-1.234-.39Q.359-3.14.359-4q0-.89.61-1.422.515-.482 1.281-.484.873 0 1.375.781.452.722.453 1.953 0 1.331-.516 2.188Q2.938.11 1.673.109 1.044.107.703-.094.39-.263.391-.53q0-.388.39-.5c.176.43.52.64 1.031.64q.81 0 1.157-.656m-.813-1.75q.715 0 1.125-.328 0-1.125-.328-1.734-.3-.546-.828-.547a.86.86 0 0 0-.703.328q-.282.361-.281 1.016-.002 1.265 1.015 1.265m0 0"/><path id="p" d="M.89-.922q.248.002.407.203.17.204.172.578 0 .592-.375.985-.316.328-.61.328c-.093 0-.164-.078-.203-.234q.574-.3.61-.891a.5.5 0 0 1-.344-.125.47.47 0 0 1-.14-.344c0-.156.038-.273.124-.36a.48.48 0 0 1 .36-.14m0 0"/><path id="q" d="M1.125-5.797h2.547l-.047.781H1.531l-.125 1.407q1.296.046 1.875.547.546.455.547 1.374a1.7 1.7 0 0 1-.547 1.266Q2.75.111 1.906.11 1.168.108.828-.156a.61.61 0 0 1-.281-.516q0-.405.39-.547.171.376.282.5.311.328.828.328.527 0 .844-.328c.195-.207.297-.476.297-.812q0-.732-.563-1.047-.563-.328-1.781-.328Zm0 0"/><path id="r" d="M-3.156-1.39c-.114-1.008-.516-1.516-1.203-1.516q-1.062.001-1.063.906 0 .41.188.703.376.112.828.125.016.096.015.203c0 .282-.117.422-.359.422-.344 0-.617-.144-.828-.437q-.328-.45-.328-1.188c0-.469.125-.836.375-1.11q.376-.42 1.015-.421.628 0 1.016.422.284.298.484.906h.032q.093-.716.468-1.11a1.2 1.2 0 0 1 .922-.39q.738.001 1.219.547.485.549.484 1.437c0 .48-.097.84-.28 1.079q-.202.28-.5.28-.406.002-.548-.39c.23-.101.399-.203.5-.297q.328-.293.328-.828c0-.664-.351-1-1.062-1-.738 0-1.149.555-1.234 1.656Zm0 0"/><path id="s" d="M-2.562-4.031v3.61h-.47v-3.61Zm0 0"/><path id="t" d="M-.39-2.234q.001-1.092-2.516-1.094c-1.664 0-2.5.367-2.5 1.094 0 .73.836 1.093 2.5 1.093 1.68 0 2.515-.363 2.515-1.093m.5.046q0 .862-.75 1.36-.779.532-2.266.531c-.977 0-1.735-.187-2.266-.562q-.733-.53-.734-1.422.001-.873.734-1.36c.531-.343 1.29-.515 2.266-.515q1.487 0 2.265.562.75.516.75 1.406m0 0"/><path id="u" d="m-.484-6-4.22.078v.016l4.626 1.875v.5L-4.75-1.687v.015l4.266.078.125-.625q.017-.124.093-.125c.032 0 .121.04.266.11v1.843h-.078q-.246.001-.328-.296l-.078-.391-5.203-.063-.125.547c-.008.086-.04.125-.094.125q-.075 0-.25-.094v-1.406l4.922-1.937v-.016l-4.922-2v-1.5a.2.2 0 0 1 .078-.016q.236.001.312.313l.079.422 5.203-.078.125-.61q.017-.124.093-.125.048 0 .266.094v2.094a.16.16 0 0 1-.078.016q-.246.002-.328-.313Zm0 0"/><path id="v" d="M-6.156-2.594h.078c.156 0 .262.102.312.297l.079.422h2.28v-2.984h-2.28l-.125.562c-.008.086-.04.125-.094.125q-.075.001-.25-.11v-2.062q.033-.013.078-.015.236 0 .312.312l.079.422h5.203l.125-.625q.017-.124.093-.125c.032 0 .121.04.266.11v2.093h-.078q-.246 0-.328-.297l-.078-.39h-2.391v2.984h2.39l.126-.61q.017-.123.093-.124.048 0 .266.093v2.094a.16.16 0 0 1-.078.016q-.246.002-.328-.313l-.078-.375h-5.203l-.125.547c-.008.086-.04.125-.094.125q-.075 0-.25-.094Zm0 0"/><path id="w" d="M-3.406-.469q-.311 0-.875-.062v-2.89a.34.34 0 0 1 .172-.048c.093 0 .199.04.312.11l3.328 2.218h.016v-1.734l-.89-.328v-.14q.001-.249.265-.25.093 0 1.078.124v3.063a.6.6 0 0 1-.328.094.5.5 0 0 1-.266-.094l-3.234-2.14h-.016v1.452l.735.25a.6.6 0 0 1 .015.125c0 .168-.101.25-.312.25m0 0"/><path id="x" d="M-5.797-1.125v-2.547l.781.047v2.094l1.407.125q.046-1.296.547-1.875.455-.546 1.374-.547a1.7 1.7 0 0 1 1.266.547q.533.532.531 1.375-.001.738-.265 1.078a.61.61 0 0 1-.516.281q-.405 0-.547-.39.376-.171.5-.282.328-.311.328-.828 0-.527-.328-.844-.31-.294-.812-.296-.732 0-1.047.562-.328.563-.328 1.781Zm0 0"/><path id="y" d="M-1.047-2.969c-.344-.187-.883-.289-1.625-.312q.375.468.375 1.172 0 .766-.39 1.234Q-3.14-.359-4-.359q-.89 0-1.422-.61-.482-.515-.484-1.281 0-.873.781-1.375.722-.452 1.953-.453 1.331 0 2.188.516Q.11-2.937.109-1.672q-.002.628-.203.969-.169.313-.437.312-.388 0-.5-.39c.43-.176.64-.52.64-1.031q0-.81-.656-1.157m-1.75.813q0-.715-.328-1.125-1.125 0-1.734.328-.546.3-.547.828 0 .44.328.703.361.282 1.016.281 1.265.002 1.265-1.015m0 0"/><path id="z" d="m-1.984-.125-3.782-2.531-.062-.656h3.64v-.75l.672.03v.72h1.032l.125-.626q.017-.123.093-.124.048 0 .266.093v2.063h-.078q-.246 0-.328-.297l-.078-.39h-1.032v2.437Zm-.203-.734v-1.735h-2.704v.031l2.672 1.704Zm0 0"/><path id="A" d="M-.469-.828h-5.468l-.079.656a.2.2 0 0 1-.078.016q-.246 0-.281-.328l-.11-1.063h4v-.531l-1.374-1.203-.141.625a.2.2 0 0 1-.062.015q-.219.001-.22-.25v-1.437c0-.07.032-.11.095-.11.042 0 .105.024.187.063l.156.516 1.453 1.265 1.938-1.515.11-.453q.015-.125.109-.125.129 0 .234.093v1.157l-2.047 1.484v.406h1.594L-.343-2q.015-.124.109-.125.129 0 .234.094V-.22h-.062c-.133 0-.235-.086-.297-.265Zm0 0"/><clipPath id="g"><path d="M185 55h41.016v1H185Zm0 0"/></clipPath></defs><path fill="none" stroke="#000" stroke-miterlimit="10" stroke-width=".39726036000000003" d="M7.578 55.344H17.75m19.55 0h10.177M7.379 55.344V13.449"/><path fill="none" stroke="#000" stroke-miterlimit="10" stroke-width=".79352508" d="M7.379 13.45h6.98L7.38 27.413.395 13.45h6.984M17.75 45.57H37.3v19.547H17.75Zm0 0"/><path d="M13.555 55.344v1.976l4.195-1.976-4.195-1.977Zm0 0"/><path fill="none" stroke="#000" stroke-miterlimit="10" stroke-width=".39726036000000003" d="M22.637 50.457c.797-1.25 1.562-2.445 2.445-2.445s1.648 1.195 2.445 2.445 1.559 2.441 2.442 2.441c.886 0 1.648-1.191 2.445-2.441m-3.422-1.469-2.933 2.934M22.637 55.344c.797-1.25 1.562-2.446 2.445-2.446s1.648 1.196 2.445 2.446 1.559 2.445 2.442 2.445c.886 0 1.648-1.195 2.445-2.445M22.637 60.23c.797-1.25 1.562-2.44 2.445-2.44s1.648 1.19 2.445 2.44 1.559 2.446 2.442 2.446c.886 0 1.648-1.196 2.445-2.446m-3.422-1.464-2.933 2.933"/><use xlink:href="#a" x="21.764" y="75.306"/><use xlink:href="#b" x="28.513" y="75.306"/><path d="M43.277 55.344v1.976l4.2-1.976-4.2-1.977Zm0 0"/><path fill="none" stroke="#000" stroke-miterlimit="10" stroke-width=".79352508" d="M47.477 45.57h19.546v19.547H47.477Zm0 0"/><path fill="none" stroke="#000" stroke-miterlimit="10" stroke-width=".39726036000000003" d="M64.094 55.344A6.847 6.847 0 0 0 57.25 48.5a6.847 6.847 0 0 0-6.844 6.844 6.847 6.847 0 0 0 6.844 6.844 6.847 6.847 0 0 0 6.844-6.844ZM52.41 50.504l9.68 9.68m0-9.68-9.68 9.68M67.023 55.344H77.2m19.551 0h10.172"/><path fill="none" stroke="#000" stroke-miterlimit="10" stroke-width=".79352508" d="M77.2 45.57h19.55v19.547H77.2Zm0 0"/><path d="M73 55.344v1.976l4.2-1.976-4.2-1.977Zm0 0"/><path fill="none" stroke="#000" stroke-miterlimit="10" stroke-width=".39726036000000003" d="M82.086 50.457c.797-1.25 1.559-2.445 2.445-2.445.883 0 1.645 1.195 2.442 2.445s1.558 2.441 2.445 2.441c.883 0 1.648-1.191 2.441-2.441m-3.418-1.469-2.933 2.934M82.086 55.344c.797-1.25 1.559-2.446 2.445-2.446.883 0 1.645 1.196 2.442 2.446s1.558 2.445 2.445 2.445c.883 0 1.648-1.195 2.441-2.445M82.086 60.23c.797-1.25 1.559-2.44 2.445-2.44.883 0 1.645 1.19 2.442 2.44s1.558 2.446 2.445 2.446c.883 0 1.648-1.196 2.441-2.446m-3.418-1.464-2.933 2.933"/><use xlink:href="#c" x="78.898" y="75.306"/><use xlink:href="#d" x="83.362" y="75.306"/><use xlink:href="#e" x="85.138" y="75.306"/><use xlink:href="#b" x="90.271" y="75.306"/><path d="M102.727 55.344v1.976l4.195-1.976-4.195-1.977Zm0 0"/><path fill="none" stroke="#000" stroke-miterlimit="10" stroke-width=".79352508" d="M106.922 45.57h19.55v19.547h-19.55Zm0 0"/><path fill="none" stroke="#000" stroke-miterlimit="10" stroke-width=".39726036000000003" d="M123.54 55.344a6.843 6.843 0 0 0-6.84-6.844 6.844 6.844 0 0 0 0 13.688 6.843 6.843 0 0 0 6.84-6.844ZM111.86 50.504l9.675 9.68m0-9.68-9.676 9.68M126.473 55.344h10.175m19.547 0h10.176"/><path fill="none" stroke="#000" stroke-miterlimit="10" stroke-width=".79352508" d="M136.648 45.57h19.547v19.547h-19.547Zm0 0"/><path d="M132.45 55.344v1.976l4.198-1.976-4.199-1.977Zm0 0"/><path fill="none" stroke="#000" stroke-miterlimit="10" stroke-width=".39726036000000003" d="M141.535 50.457c.797-1.25 1.559-2.445 2.442-2.445.886 0 1.648 1.195 2.445 2.445s1.558 2.441 2.445 2.441c.883 0 1.645-1.191 2.442-2.441m-3.422-1.469-2.93 2.934M141.535 55.344c.797-1.25 1.559-2.446 2.442-2.446.886 0 1.648 1.196 2.445 2.446s1.558 2.445 2.445 2.445c.883 0 1.645-1.195 2.442-2.445M141.535 60.23c.797-1.25 1.559-2.44 2.442-2.44.886 0 1.648 1.19 2.445 2.44s1.558 2.446 2.445 2.446c.883 0 1.645-1.196 2.442-2.446m-3.422-1.464-2.93 2.933"/><use xlink:href="#f" x="138.346" y="75.306"/><use xlink:href="#d" x="142.809" y="75.306"/><use xlink:href="#e" x="144.586" y="75.306"/><use xlink:href="#b" x="149.719" y="75.306"/><path d="M162.172 55.344v1.976l4.2-1.976-4.2-1.977Zm0 0"/><path fill="none" stroke="#000" stroke-miterlimit="10" stroke-width=".79352508" d="M166.371 45.57h19.55v19.547h-19.55Zm0 0"/><path fill="none" stroke="#000" stroke-miterlimit="10" stroke-width=".39726036000000003" d="M182.988 55.344a6.844 6.844 0 0 0-6.843-6.844 6.843 6.843 0 0 0-6.84 6.844 6.843 6.843 0 0 0 6.84 6.844 6.844 6.844 0 0 0 6.843-6.844ZM171.309 50.504l9.675 9.68m0-9.68-9.675 9.68"/><g clip-path="url(#g)"><path fill="none" stroke="#000" stroke-miterlimit="10" stroke-width=".39726036000000003" d="M185.922 55.344h10.172m19.55 0h10.176"/></g><path fill="none" stroke="#000" stroke-miterlimit="10" stroke-width=".79352508" d="M196.094 45.57h19.55v19.547h-19.55Zm0 0"/><path d="M191.895 55.344v1.976l4.199-1.976-4.2-1.977Zm0 0"/><path fill="none" stroke="#000" stroke-miterlimit="10" stroke-width=".39726036000000003" d="M200.98 50.457c.797-1.25 1.563-2.445 2.446-2.445s1.648 1.195 2.445 2.445 1.559 2.441 2.442 2.441c.886 0 1.648-1.191 2.445-2.441m-3.422-1.469-2.934 2.934M200.98 55.344c.797-1.25 1.563-2.446 2.446-2.446s1.648 1.196 2.445 2.446 1.559 2.445 2.442 2.445c.886 0 1.648-1.195 2.445-2.445M200.98 60.23c.797-1.25 1.563-2.44 2.446-2.44s1.648 1.19 2.445 2.44 1.559 2.446 2.442 2.446c.886 0 1.648-1.196 2.445-2.446m-3.422-1.464-2.934 2.933"/><use xlink:href="#h" x="200.181" y="75.306"/><use xlink:href="#b" x="206.778" y="75.306"/><path d="M221.621 55.344v1.976l4.2-1.976-4.2-1.977Zm0 0"/><path fill="none" stroke="#000" stroke-miterlimit="10" stroke-width=".39726036000000003" d="M57.25 65.117v9.977m0 0v9.972"/><path d="M57.25 69.316h1.977l-1.977-4.199-1.977 4.2Zm0 0"/><path fill="none" stroke="#000" stroke-miterlimit="10" stroke-width=".79352508" d="M47.477 85.066h19.546v19.551H47.477Zm0 0"/><path fill="none" stroke="#000" stroke-miterlimit="10" stroke-width=".39726036000000003" d="M52.363 89.957c.797-1.254 1.559-2.445 2.442-2.445.886 0 1.648 1.191 2.445 2.445.797 1.25 1.559 2.441 2.445 2.441.883 0 1.645-1.191 2.442-2.441M52.363 94.844c.797-1.254 1.559-2.446 2.442-2.446.886 0 1.648 1.192 2.445 2.446.797 1.25 1.559 2.441 2.445 2.441.883 0 1.645-1.191 2.442-2.441M52.363 99.73c.797-1.25 1.559-2.445 2.442-2.445.886 0 1.648 1.195 2.445 2.445s1.559 2.446 2.445 2.446c.883 0 1.645-1.196 2.442-2.446M50.406 99.73 61.56 89.375"/><path stroke="#000" stroke-miterlimit="10" stroke-width=".39724440000000005" d="m63.8 87.293-3.363.727 1.196 1.289 1.191 1.285Zm0 0"/><path fill="none" stroke="#000" stroke-miterlimit="10" stroke-width=".39726036000000003" d="M116.7 65.117v9.977m0 0v9.972"/><path d="M116.7 69.316h1.972l-1.973-4.199-1.976 4.2Zm0 0"/><path fill="none" stroke="#000" stroke-miterlimit="10" stroke-width=".79352508" d="M106.922 85.066h19.55v19.551h-19.55Zm0 0"/><path fill="none" stroke="#000" stroke-miterlimit="10" stroke-width=".39726036000000003" d="M117.918 90.445c.398-.625.781-1.222 1.223-1.222.441 0 .824.597 1.222 1.222.399.625.782 1.22 1.223 1.22s.824-.595 1.223-1.22M117.918 92.887c.398-.625.781-1.223 1.223-1.223.441 0 .824.598 1.222 1.223.399.625.782 1.222 1.223 1.222s.824-.597 1.223-1.222M117.918 95.332c.398-.625.781-1.223 1.223-1.223.441 0 .824.598 1.222 1.223.399.625.782 1.223 1.223 1.223s.824-.598 1.223-1.223"/><use xlink:href="#i" x="109.236" y="95.479"/><path fill="none" stroke="#000" stroke-miterlimit="10" stroke-width=".39726036000000003" d="M109.855 98.266h13.684M109.855 101.684h13.684V99.73h-13.684ZM109.855 103.152h13.684M176.145 65.117v9.977m0 0v9.972"/><path d="M176.145 69.316h1.976l-1.976-4.199-1.973 4.2Zm0 0"/><path fill="none" stroke="#000" stroke-miterlimit="10" stroke-width=".79352508" d="M166.371 85.066h19.55v19.551h-19.55Zm0 0"/><path fill="none" stroke="#000" stroke-miterlimit="10" stroke-width=".39726036000000003" d="M177.367 90.445c.399-.625.781-1.222 1.223-1.222.441 0 .824.597 1.223 1.222.398.625.777 1.22 1.218 1.22.446 0 .824-.595 1.223-1.22M177.367 92.887c.399-.625.781-1.223 1.223-1.223.441 0 .824.598 1.223 1.223.398.625.777 1.222 1.218 1.222.446 0 .824-.597 1.223-1.222M177.367 95.332c.399-.625.781-1.223 1.223-1.223.441 0 .824.598 1.223 1.223.398.625.777 1.223 1.218 1.223.446 0 .824-.598 1.223-1.223"/><use xlink:href="#i" x="168.683" y="95.479"/><path fill="none" stroke="#000" stroke-miterlimit="10" stroke-width=".39726036000000003" d="M169.305 98.266h13.683M169.305 101.684h13.683V99.73h-13.683ZM169.305 103.152h13.683"/><use xlink:href="#j" x="70.198" y="97.922"/><use xlink:href="#b" x="75.983" y="97.922"/><use xlink:href="#k" x="80.759" y="97.922"/><use xlink:href="#l" x="102.218" y="113.951"/><use xlink:href="#c" x="106.682" y="113.951"/><use xlink:href="#m" x="112.627" y="113.951"/><use xlink:href="#a" x="120.492" y="113.951"/><use xlink:href="#n" x="127.241" y="113.951"/><use xlink:href="#o" x="156.278" y="113.951"/><use xlink:href="#p" x="160.742" y="113.951"/><use xlink:href="#l" x="162.59" y="113.951"/><use xlink:href="#q" x="167.053" y="113.951"/><use xlink:href="#q" x="171.517" y="113.951"/><use xlink:href="#m" x="177.462" y="113.951"/><use xlink:href="#a" x="185.327" y="113.951"/><use xlink:href="#n" x="192.076" y="113.951"/><use xlink:href="#r" x="30.552" y="42.396"/><use xlink:href="#s" x="30.552" y="36.45"/><use xlink:href="#r" x="30.552" y="31.986"/><use xlink:href="#t" x="30.552" y="27.523"/><use xlink:href="#u" x="30.552" y="21.568"/><use xlink:href="#v" x="30.552" y="13.703"/><use xlink:href="#w" x="30.552" y="6.954"/><use xlink:href="#x" x="90" y="42.396"/><use xlink:href="#t" x="90" y="37.932"/><use xlink:href="#u" x="90" y="31.986"/><use xlink:href="#v" x="90" y="24.121"/><use xlink:href="#w" x="90" y="17.372"/><use xlink:href="#y" x="149.447" y="42.396"/><use xlink:href="#u" x="149.447" y="36.45"/><use xlink:href="#v" x="149.447" y="28.585"/><use xlink:href="#w" x="149.447" y="21.836"/><use xlink:href="#z" x="209.055" y="42.396"/><use xlink:href="#x" x="209.055" y="37.932"/><use xlink:href="#x" x="209.055" y="33.468"/><use xlink:href="#A" x="209.055" y="27.523"/><use xlink:href="#v" x="209.055" y="22.791"/><use xlink:href="#w" x="209.055" y="16.042"/></svg>