<svg xmlns="http://www.w3.org/2000/svg" width="114.077" height="36.946"><defs><clipPath id="a"><path d="M4 .121h109V36H4Zm0 0"/></clipPath><clipPath id="b"><path d="M0 .121h113.16V36.77H0Zm0 0"/></clipPath></defs><g clip-path="url(#a)"><path fill="#BFBFBF" d="M7.168 18.445h11.156c3.524 0 8.055-2.308 10.125-5.156l5.254-7.219C35.773 3.22 40.31.91 43.828.91H83.68v17.535h28.691H83.68V35.98H43.828c-3.52 0-8.055-2.308-10.125-5.156l-5.254-7.222c-2.07-2.848-6.601-5.157-10.125-5.157zq-5.284 0 0 0m0 0"/></g><g clip-path="url(#b)"><path fill="none" stroke="#000" stroke-miterlimit="10" stroke-width="1.5812001800000002" d="M7.168 18.445h11.156c3.524 0 8.055-2.308 10.125-5.156l5.254-7.219C35.773 3.22 40.31.91 43.828.91H83.68v17.535h28.691H83.68V35.98H43.828c-3.52 0-8.055-2.308-10.125-5.156l-5.254-7.222c-2.07-2.848-6.601-5.157-10.125-5.157H7.168q-5.284 0 0 0Zm0 0"/></g></svg>