<svg xmlns="http://www.w3.org/2000/svg" xmlns:xlink="http://www.w3.org/1999/xlink" width="226.907" height="89.277"><defs><path id="c" d="M4.5.016c.14-.5.344-1.016.516-1.485l-.25-.047c-.297.641-.641 1.172-1.297 1.172H1.484c-.14 0-.203-.031-.187-.125.016-.031.047-.094.094-.172L5.5-5.25c.219-.266.297-.422.297-.5 0-.062-.031-.078-.172-.078-.11 0-.297.062-.562.094H2.328c-.406 0-.36-.094-.672-.11-.14.469-.343 1.11-.484 1.485l.25.03c.297-.609.547-1.046 1.187-1.046h1.954c.062 0 .093.016.078.063a.6.6 0 0 1-.094.171L.297-.344C.234-.28.172-.172.172-.109c0 .078.047.109.14.109h3.126C3.656 0 4.5.016 4.5.016m0 0"/><path id="d" d="M2.047-.875v-2.453c0-.438 0-.86.015-.953 0-.047-.015-.047-.03-.047-.391.25-.766.422-1.407.719a.3.3 0 0 0 .11.187c.328-.14.484-.172.624-.172.125 0 .141.172.141.406v2.313c0 .594-.187.64-.687.656-.047.047-.047.188 0 .235C1.156 0 1.422 0 1.797 0c.344 0 .516 0 .875.016.031-.047.031-.188 0-.235-.5-.015-.625-.062-.625-.656m0 0"/><path id="e" d="M.438-3.328a.28.28 0 0 0 .28.281c.126 0 .329-.125.329-.281 0-.063-.016-.11-.016-.156-.015-.047-.062-.11-.062-.172 0-.172.187-.438.703-.438.25 0 .625.188.625.86 0 .468-.172.828-.594 1.265l-.516.516C.485-.75.375-.406.375.016c0 0 .36-.016.578-.016h1.25c.235 0 .563.016.563.016.078-.375.156-.907.156-1.125-.031-.032-.125-.047-.203-.032-.11.5-.235.672-.5.672H.953c0-.328.5-.812.531-.86l.72-.687c.405-.39.718-.703.718-1.234 0-.781-.625-1.094-1.203-1.094-.797 0-1.281.594-1.281 1.016m0 0"/><clipPath id="a"><path d="M.867 15H11v2H.867Zm0 0"/></clipPath><clipPath id="b"><path d="M216 15h9.95v2H216Zm0 0"/></clipPath></defs><path fill="none" stroke="#000" stroke-miterlimit="10" stroke-width="1.18639612" d="M19.785 16.191h44.473m0 0h44.469"/><path fill="none" stroke="#000" stroke-miterlimit="10" stroke-width="1.38379815" d="M108.727 63.004h9.363"/><path fill="none" stroke="#FFF" stroke-miterlimit="10" stroke-width=".59319806" d="M108.727 63.004h9.363"/><path fill="none" stroke="#000" stroke-miterlimit="10" stroke-width="1.38379815" d="M108.727 53.64h9.363"/><path fill="none" stroke="#FFF" stroke-miterlimit="10" stroke-width=".59319806" d="M108.727 53.64h9.363"/><path fill="none" stroke="#000" stroke-miterlimit="10" stroke-width="1.38379815" d="M108.727 44.281h9.363"/><path fill="none" stroke="#FFF" stroke-miterlimit="10" stroke-width=".59319806" d="M108.727 44.281h9.363"/><path fill="none" stroke="#000" stroke-miterlimit="10" stroke-width="1.38379815" d="M108.727 34.918h9.363"/><path fill="none" stroke="#FFF" stroke-miterlimit="10" stroke-width=".59319806" d="M108.727 34.918h9.363"/><path fill="none" stroke="#000" stroke-miterlimit="10" stroke-width="1.38379815" d="M108.727 25.555h9.363"/><path fill="none" stroke="#FFF" stroke-miterlimit="10" stroke-width=".59319806" d="M108.727 25.555h9.363"/><g clip-path="url(#a)"><path fill="none" stroke="#000" stroke-dasharray="2.9648296951 2.9648296951" stroke-miterlimit="10" stroke-width=".39579603" d="M1.063 16.191h9.363"/></g><g clip-path="url(#b)"><path fill="none" stroke="#000" stroke-dasharray="2.9648296951 2.9648296951" stroke-miterlimit="10" stroke-width=".39579603" d="M225.754 16.191h-9.363"/></g><path fill="none" stroke="#000" stroke-miterlimit="10" stroke-width=".39579603" d="M10.426 16.191h4.68m0 0h4.68"/><path fill="#FFF" stroke="#000" stroke-miterlimit="10" stroke-width=".39579603" d="M12 16.191a1.575 1.575 0 1 0-3.148 0 1.575 1.575 0 0 0 3.148 0ZM21.363 16.191a1.577 1.577 0 0 0-3.152 0 1.575 1.575 0 0 0 3.152 0Zm0 0"/><path stroke="#000" stroke-miterlimit="10" stroke-width=".39579603" d="M110.3 16.191a1.575 1.575 0 1 0-3.148.001 1.575 1.575 0 0 0 3.149 0ZM119.664 16.191a1.575 1.575 0 1 0-3.149.001 1.575 1.575 0 0 0 3.15 0Zm0 0"/><path fill="none" stroke="#000" stroke-miterlimit="10" stroke-width="1.18639612" d="M118.09 16.191h44.469m0 0h44.472"/><path fill="none" stroke="#000" stroke-miterlimit="10" stroke-width=".39579603" d="M207.031 16.191h4.68m0 0h4.68"/><path fill="#FFF" stroke="#000" stroke-miterlimit="10" stroke-width=".39579603" d="M208.606 16.191a1.575 1.575 0 1 0-3.148 0 1.575 1.575 0 0 0 3.148 0ZM217.969 16.191a1.577 1.577 0 0 0-3.152 0 1.575 1.575 0 0 0 3.152 0Zm0 0"/><path fill="none" stroke="#000" stroke-miterlimit="10" stroke-width=".39579603" d="M108.727 16.191v28.09m0 0v28.086"/><path stroke="#000" stroke-miterlimit="10" stroke-width=".39579603" d="M110.3 72.367a1.575 1.575 0 1 0-3.148 0 1.575 1.575 0 0 0 3.149 0Zm0 0"/><path fill="none" stroke="#000" stroke-miterlimit="10" stroke-width=".39579603" d="M118.09 16.191v28.09m0 0v28.086"/><path stroke="#000" stroke-miterlimit="10" stroke-width=".39579603" d="M119.664 72.367c0-.87-.703-1.574-1.574-1.574s-1.574.703-1.574 1.574a1.575 1.575 0 0 0 3.148 0Zm0 0"/><use xlink:href="#c" x="109.085" y="8.817"/><use xlink:href="#d" x="114.039" y="10.684"/><use xlink:href="#c" x="109.085" y="83.713"/><use xlink:href="#e" x="114.039" y="85.581"/></svg>