<svg xmlns="http://www.w3.org/2000/svg" xmlns:xlink="http://www.w3.org/1999/xlink" width="226.806" height="71.738"><defs><path id="a" d="M2.031-.578V-5l-1.344.25a1 1 0 0 1-.015-.187c0-.133.07-.227.219-.282l1.468-.593h.454v5.234l1.078.172q.14.016.14.11-.002.08-.11.296H.86v-.078q0-.311.282-.36Zm0 0"/><path id="b" d="m.422-.453 1.516-1.734q.874-1.015.875-2c0-.833-.305-1.25-.907-1.25q-.345 0-.703.187a3.3 3.3 0 0 0-.125.875q-.11.017-.203.016-.422 0-.422-.344 0-.545.422-.875.42-.342 1.156-.344.715 0 1.172.422.451.408.453 1.156 0 .675-.422 1.36-.268.44-.906 1.125L1.344-.797v.016h2.031l.188-.781a.5.5 0 0 1 .187-.032q.234.002.234.344c0 .242-.03.656-.093 1.25H.5Zm0 0"/><path id="c" d="M1.39-3.156c1.008-.114 1.516-.516 1.516-1.203Q2.905-5.438 2-5.437q-.41.002-.703.203-.11.362-.11.812a.7.7 0 0 1-.218.031c-.281 0-.422-.117-.422-.359q-.001-.516.437-.844.45-.328 1.188-.328.714 0 1.125.375.406.375.406 1.031 0 .628-.422 1.016-.28.284-.89.484V-3q.702.11 1.093.484c.258.243.391.547.391.922q-.001.738-.547 1.219Q2.78.11 1.891.109C1.41.11 1.05.012.813-.17Q.53-.374.53-.672q0-.406.39-.548c.102.23.204.399.298.5q.293.328.828.328c.664 0 1-.351 1-1.062 0-.738-.555-1.149-1.656-1.234Zm0 0"/><path id="d" d="m.125-1.984 2.531-3.797.672-.063v3.64h.75l-.047.688h-.703v1.032l.61.125q.123.017.124.093 0 .048-.093.266H1.906v-.078q0-.246.297-.328l.39-.078v-1.032H.157Zm.734-.22h1.735V-4.89h-.016L.86-2.219Zm0 0"/><path id="e" d="M4.453-5.687H3.031v5.203l.61.125q.124.017.125.093 0 .048-.094.266H1.578a.16.16 0 0 1-.016-.078q-.002-.246.313-.328l.375-.078v-5.203H.828L.61-4.75a.5.5 0 0 1-.187.031c-.18 0-.266-.129-.266-.39q0-.218.063-1.063h4.844q.06.845.062 1.063-.001.39-.266.39a.5.5 0 0 1-.187-.031Zm0 0"/><path id="g" d="M6.266-6.172c.007.031.015.059.015.078q0 .236-.312.313l-.422.093V0h-.531l-3.36-5.187h-.015v4.703l.609.125q.124.017.125.093 0 .048-.094.266H.421a.16.16 0 0 1-.015-.078Q.404-.324.72-.406l.375-.078v-5.203l-.547-.125c-.086-.02-.125-.055-.125-.11q0-.075.094-.25h1.422L5-1.437h.016v-4.25l-.563-.125c-.086-.02-.125-.055-.125-.11q-.001-.075.11-.25Zm0 0"/><path id="i" d="M.984-6.266q.247.002.407.204.17.204.172.578 0 .597-.375.984-.317.345-.61.344-.143.001-.203-.25.574-.293.61-.89a.49.49 0 0 1-.344-.126.47.47 0 0 1-.141-.344c0-.156.04-.273.125-.359a.48.48 0 0 1 .36-.14m0 0"/><path id="j" d="M.422 0a.16.16 0 0 1-.016-.078Q.404-.324.72-.406l.375-.078v-5.203l-.547-.125c-.086-.02-.125-.055-.125-.11q0-.075.094-.25h2.078v.078c0 .157-.102.262-.297.313l-.422.093v5.172h2.063l.25-1.046a.6.6 0 0 1 .203-.032q.217 0 .218.36Q4.61-.78 4.531 0Zm0 0"/><path id="q" d="M2.313-6.172q2.514 0 2.515 1.734-.002.893-.594 1.375-.644.502-1.875.5h-.484v2.079l.703.125q.124.017.125.093 0 .066-.094.266H.422a.16.16 0 0 1-.016-.078Q.404-.324.72-.406l.375-.078v-5.203l-.547-.125c-.086-.02-.125-.055-.125-.11q0-.075.094-.25Zm0 3.14q.841.002 1.296-.39.389-.34.391-.969 0-1.265-1.687-1.265h-.438v2.625Zm0 0"/><path id="r" d="M1.094-.484v-5.203l-.547-.125c-.086-.02-.125-.055-.125-.11q0-.075.094-.25h4.03q.062.751.063 1.063c0 .261-.086.39-.25.39a.6.6 0 0 1-.203-.031l-.218-.937H1.874v2.312h1.984v.5H1.875v2.36H4l.25-.954a.4.4 0 0 1 .203-.047q.218 0 .219.375 0 .363-.078 1.141H.422a.16.16 0 0 1-.016-.078Q.404-.324.72-.406Zm0 0"/><path id="l" d="M2.406.094c.828 0 1.672-.422 2.407-1.219-.016-.078-.063-.125-.172-.125-.735.703-1.375.969-2.172.969C1.39-.281.953-1.187.953-2.234c0-.235.016-.5.063-.75.359-1.813 1.718-2.563 2.406-2.563 1.187 0 1.531.719 1.61 1.484l.265-.03c0-.47.016-.907.078-1.391-.484-.016-.75-.391-1.797-.391-1.422 0-3 1.297-3.344 3.063-.03.218-.062.437-.062.656C.172-.97.844.094 2.406.094m0 0"/><path id="m" d="M2.063-.875v-2.469c0-.437 0-.875.015-.969 0-.03-.015-.03-.047-.03-.39.25-.765.421-1.39.718.015.078.03.14.109.188.328-.141.484-.172.61-.172.124 0 .14.172.14.406v2.328c0 .594-.187.625-.687.656-.047.047-.047.188 0 .235C1.156 0 1.422 0 1.813 0c.343 0 .515 0 .859.016.047-.047.047-.188 0-.235-.5-.031-.61-.062-.61-.656m0 0"/><path id="n" d="M.438-3.344c0 .156.14.281.28.281.126 0 .345-.124.345-.28 0-.063-.016-.11-.032-.157-.015-.047-.062-.11-.062-.172 0-.172.187-.437.703-.437.266 0 .625.187.625.875 0 .453-.156.828-.578 1.25l-.532.515C.485-.75.375-.406.375.016c0 0 .36-.016.594-.016h1.25c.219 0 .547.016.547.016.093-.375.172-.922.172-1.125-.032-.047-.126-.047-.204-.047-.125.515-.25.687-.5.687H.97c0-.343.484-.828.531-.86l.719-.687c.406-.39.703-.718.703-1.25 0-.78-.625-1.093-1.203-1.093-.797 0-1.281.593-1.281 1.015m0 0"/><path id="p" d="M1.531-4.11c.313 0 .594.188.594.641 0 .36-.406.906-1.125 1.016l.047.219h.344c.406 0 .937.109.937.906 0 .953-.64 1.156-.89 1.156-.36 0-.438-.172-.516-.297C.844-.579.75-.656.609-.656c-.14 0-.296.14-.296.25 0 .281.593.484 1.03.484.845 0 1.61-.562 1.61-1.5 0-.781-.594-1.062-1.015-1.125v-.015c.578-.282.75-.579.75-.954 0-.218-.047-.39-.22-.562-.155-.156-.405-.281-.78-.281-1.047 0-1.36.687-1.36.922 0 .109.078.25.25.25.25 0 .281-.235.281-.376 0-.453.485-.546.672-.546m0 0"/><clipPath id="f"><path d="M8 58h15v13.477H8Zm0 0"/></clipPath><clipPath id="h"><path d="M201 58h16v13.477h-16Zm0 0"/></clipPath><clipPath id="k"><path d="M43 58h16v13.477H43Zm0 0"/></clipPath><clipPath id="o"><path d="M173 58h15v13.477h-15Zm0 0"/></clipPath></defs><path fill="none" stroke="#000" stroke-linejoin="bevel" stroke-miterlimit="10" stroke-width=".79409892" d="M92.625 47.746c0-3.27 1.813-5.922 4.05-5.922 2.24 0 4.052 2.653 4.052 5.922 0-3.27 1.812-5.922 4.046-5.922 2.239 0 4.051 2.653 4.051 5.922 0-3.27 1.813-5.922 4.047-5.922 2.238 0 4.05 2.653 4.05 5.922 0-3.27 1.813-5.922 4.052-5.922 2.234 0 4.047 2.653 4.047 5.922M125.02 23.73c0 3.27-1.813 5.926-4.047 5.926-2.239 0-4.051-2.656-4.051-5.926 0 3.27-1.813 5.926-4.047 5.926-2.238 0-4.05-2.656-4.05-5.926 0 3.27-1.813 5.926-4.052 5.926-2.234 0-4.046-2.656-4.046-5.926 0 3.27-1.813 5.926-4.051 5.926S92.625 27 92.625 23.73"/><path fill="none" stroke="#000" stroke-miterlimit="10" stroke-width=".39754764000000004" d="M79.2 65.363V47.59h13.823m31.602 0h13.824v17.773M79.2 6.113v17.774h13.824m31.602 0h13.824V6.113"/><path fill="none" stroke="#000" stroke-miterlimit="10" stroke-width=".79409892" d="M123.637 34.258H94.012m29.625 2.96H94.012"/><path stroke="#000" stroke-miterlimit="10" stroke-width=".39754764000000004" d="M90.656 41.664a1.583 1.583 0 1 0-3.166.002 1.583 1.583 0 0 0 3.166-.002ZM90.656 29.813a1.583 1.583 0 1 0-3.162.002 1.583 1.583 0 0 0 3.162-.002Zm0 0"/><use xlink:href="#a" x="90.791" y="18.738"/><use xlink:href="#b" x="122.39" y="18.738"/><use xlink:href="#c" x="90.791" y="58.654"/><use xlink:href="#d" x="122.39" y="58.573"/><use xlink:href="#e" x="106.179" y="9.195"/><path fill="none" stroke="#000" stroke-miterlimit="10" stroke-width=".39754764000000004" d="M79.2 65.363H65.09m0 0H33.348m0 0H15.715"/><path fill="#FFF" d="M17.297 65.363a1.583 1.583 0 1 0-3.166.002 1.583 1.583 0 0 0 3.166-.002m0 0"/><g clip-path="url(#f)"><path fill="none" stroke="#000" stroke-miterlimit="10" stroke-width=".39754764000000004" d="M17.297 65.363a1.583 1.583 0 1 0-3.166.002 1.583 1.583 0 0 0 3.166-.002Zm0 0"/></g><use xlink:href="#g" x="5.938" y="68.446"/><path fill="none" stroke="#000" stroke-miterlimit="10" stroke-width=".39754764000000004" d="M138.45 65.363h21.16m0 0h35.269m0 0h14.105"/><path fill="#FFF" d="M210.566 65.363c0-.87-.707-1.582-1.582-1.582a1.582 1.582 0 0 0 0 3.164 1.58 1.58 0 0 0 1.582-1.582m0 0"/><g clip-path="url(#h)"><path fill="none" stroke="#000" stroke-miterlimit="10" stroke-width=".39754764000000004" d="M210.566 65.363c0-.87-.707-1.582-1.582-1.582a1.582 1.582 0 0 0 0 3.164 1.58 1.58 0 0 0 1.582-1.582Zm0 0"/></g><use xlink:href="#g" x="212.161" y="68.5"/><use xlink:href="#i" x="218.763" y="68.5"/><path fill="none" stroke="#000" stroke-miterlimit="10" stroke-width=".39754764000000004" d="M79.2 6.113H65.09m0 0H33.348m0 0H15.715"/><path fill="#FFF" stroke="#000" stroke-miterlimit="10" stroke-width=".39754764000000004" d="M17.297 6.113a1.58 1.58 0 0 0-1.582-1.582 1.58 1.58 0 0 0-1.582 1.582 1.58 1.58 0 0 0 1.582 1.582 1.58 1.58 0 0 0 1.582-1.582Zm0 0"/><use xlink:href="#j" x="3.293" y="9.195"/><use xlink:href="#a" x="8.073" y="9.195"/><path fill="none" stroke="#000" stroke-miterlimit="10" stroke-width=".39754764000000004" d="M138.45 6.113h21.16m0 0h35.269m0 0h14.105"/><path fill="#FFF" stroke="#000" stroke-miterlimit="10" stroke-width=".39754764000000004" d="M210.566 6.113a1.58 1.58 0 1 0-3.16 0 1.58 1.58 0 1 0 3.16 0Zm0 0"/><use xlink:href="#j" x="212.161" y="9.249"/><use xlink:href="#a" x="216.941" y="9.249"/><use xlink:href="#i" x="221.408" y="9.249"/><path fill="none" stroke="#000" stroke-miterlimit="10" stroke-width=".39754764000000004" d="M50.984 6.113V31.79m0 7.899v25.675"/><path fill="none" stroke="#000" stroke-miterlimit="10" stroke-width=".79409892" d="M62.832 31.79h-23.7m23.7 7.898h-23.7"/><path stroke="#000" stroke-miterlimit="10" stroke-width=".39754764000000004" d="M52.566 6.113a1.583 1.583 0 1 0-3.165.002 1.583 1.583 0 0 0 3.165-.002Zm0 0"/><path d="M52.566 65.363a1.583 1.583 0 1 0-3.162.002 1.583 1.583 0 0 0 3.162-.002m0 0"/><g clip-path="url(#k)"><path fill="none" stroke="#000" stroke-miterlimit="10" stroke-width=".39754764000000004" d="M52.566 65.363a1.583 1.583 0 1 0-3.162.002 1.583 1.583 0 0 0 3.162-.002Zm0 0"/></g><use xlink:href="#l" x="65.627" y="37.883"/><use xlink:href="#m" x="70.515" y="39.759"/><path fill="none" stroke="#000" stroke-miterlimit="10" stroke-width=".39754764000000004" d="M180.77 6.113v10.864m0 7.898v21.727m0 7.898v10.863"/><path fill="none" stroke="#000" stroke-miterlimit="10" stroke-width=".79409892" d="M192.621 16.977h-23.7m23.7 7.898h-23.7"/><path stroke="#000" stroke-miterlimit="10" stroke-width=".39754764000000004" d="M182.352 6.113a1.58 1.58 0 1 0-3.16 0 1.58 1.58 0 1 0 3.16 0ZM182.352 35.738a1.58 1.58 0 1 0-3.16 0 1.58 1.58 0 1 0 3.16 0Zm0 0"/><use xlink:href="#l" x="195.413" y="23.07"/><use xlink:href="#n" x="200.301" y="24.946"/><path fill="none" stroke="#000" stroke-miterlimit="10" stroke-width=".79409892" d="M192.621 46.602h-23.7m23.7 7.898h-23.7"/><path stroke="#000" stroke-miterlimit="10" stroke-width=".39754764000000004" d="M182.352 35.738a1.58 1.58 0 1 0-3.16 0 1.58 1.58 0 1 0 3.16 0Zm0 0"/><path d="M182.352 65.363c0-.87-.707-1.582-1.582-1.582a1.582 1.582 0 0 0 0 3.164 1.58 1.58 0 0 0 1.582-1.582m0 0"/><g clip-path="url(#o)"><path fill="none" stroke="#000" stroke-miterlimit="10" stroke-width=".39754764000000004" d="M182.352 65.363c0-.87-.707-1.582-1.582-1.582a1.582 1.582 0 0 0 0 3.164 1.58 1.58 0 0 0 1.582-1.582Zm0 0"/></g><use xlink:href="#l" x="195.413" y="52.696"/><use xlink:href="#p" x="200.301" y="54.572"/><path fill="none" stroke="#000" stroke-miterlimit="10" stroke-width=".39754764000000004" d="M180.77 35.738h-14.106m0 0h-14.11M152.555 35.738v9.887"/><path fill="none" stroke="#000" stroke-linecap="round" stroke-miterlimit="10" stroke-width=".79409892" d="M146.625 45.625h11.863"/><path fill="none" stroke="#000" stroke-miterlimit="10" stroke-width=".39754764000000004" d="M180.77 35.738h14.109m0 0h14.105"/><path fill="#FFF" stroke="#000" stroke-miterlimit="10" stroke-width=".39754764000000004" d="M210.566 35.738a1.58 1.58 0 1 0-3.16 0 1.58 1.58 0 1 0 3.16 0Zm0 0"/><use xlink:href="#q" x="212.161" y="38.821"/><use xlink:href="#r" x="217.236" y="38.821"/><path fill="none" stroke="#000" stroke-miterlimit="10" stroke-width=".39754764000000004" d="M138.45 23.043v12.695h14.105m0 0"/><path stroke="#000" stroke-miterlimit="10" stroke-width=".39754764000000004" d="M140.031 23.043a1.58 1.58 0 0 0-1.582-1.582 1.583 1.583 0 1 0 1.582 1.582ZM154.137 35.738a1.58 1.58 0 1 0-3.16 0 1.58 1.58 0 1 0 3.16 0Zm0 0"/></svg>