<svg xmlns="http://www.w3.org/2000/svg" xmlns:xlink="http://www.w3.org/1999/xlink" width="166.173" height="47.065"><defs><path id="e" d="M2.625-2.734q0-.574-.187-.844c-.118-.188-.313-.281-.594-.281q-.282 0-.516.078-.11.235-.203.781a2 2 0 0 1-.187.016q-.422 0-.422-.391c0-.258.148-.484.453-.672q.451-.28 1.015-.281 1.343.001 1.344 1.484v1.922q-.002.516.313.516.2.001.312-.125a.5.5 0 0 1 .078.25c0 .062-.054.133-.156.203a.84.84 0 0 1-.516.156q-.61 0-.687-.61h-.016Q2.248.112 1.453.11.95.11.641-.203q-.315-.31-.313-.813 0-.637.656-1 .563-.294 1.407-.296h.234Zm-.89 2.28c.331 0 .628-.148.89-.452v-1.016l-.234.016q-1.283.11-1.282.812c0 .43.207.64.625.64m0 0"/><path id="f" d="M.64-5.844 0-5.937a.2.2 0 0 1-.016-.079q0-.232.329-.265l1.046-.11v2.672h.016q.498-.61 1.313-.61.702 0 1.124.47.5.55.5 1.64 0 1.16-.703 1.781C3.203-.07 2.68.11 2.047.11Q1.167.11.64-.203Zm1.704 2.11q-.627 0-.985.422v2.656c.239.18.524.265.86.265q1.36 0 1.36-1.734 0-.843-.376-1.266-.33-.341-.86-.343m0 0"/><path id="g" d="M4.453.016c.14-.485.328-1.016.516-1.47l-.25-.046c-.297.64-.64 1.156-1.282 1.156H1.47c-.14 0-.203-.031-.188-.11.016-.046.047-.093.094-.187l4.063-4.562c.234-.266.296-.406.296-.484 0-.063-.03-.079-.171-.079-.11 0-.297.063-.563.094H2.297c-.39 0-.36-.094-.656-.11-.141.47-.344 1.095-.485 1.47l.25.03c.297-.593.532-1.046 1.172-1.046h1.938c.062 0 .093.031.078.078a.6.6 0 0 1-.094.156L.297-.328C.234-.266.172-.172.172-.11c0 .078.047.109.14.109h3.079c.218 0 1.062.016 1.062.016m0 0"/><path id="h" d="M.516-1.625a.33.33 0 0 0 0 .438h4.672c.093-.11.093-.329 0-.438Zm0-1.766c-.11.11-.11.344 0 .438h4.672c.093-.094.093-.328 0-.438Zm0 0"/><path id="i" d="M2.813-1.656c0 .828-.454 1.437-.97 1.437-.343 0-.452-.218-.577-.39C1.14-.75 1-.891.813-.891c-.172 0-.344.157-.344.329 0 .359.75.656 1.25.656 1.094 0 1.875-.813 1.875-1.922 0-.844-.594-1.61-1.578-1.61-.375 0-.703.079-.86.141l.172-1.469c.328.032.61.079 1.031.079.266 0 .563-.016.922-.047l.14-.61-.062-.031c-.5.047-.968.094-1.437.094-.328 0-.64-.016-.953-.047L.672-2.781A2.8 2.8 0 0 1 1.782-3c.577 0 1.03.375 1.03 1.344m0 0"/><path id="j" d="M2 .094c.688 0 1.719-.688 1.719-2.766 0-.86-.219-1.61-.61-2.125a1.3 1.3 0 0 0-1.062-.562C1.172-5.36.344-4.33.344-2.594c0 .953.297 1.828.781 2.313.234.25.531.375.875.375m.047-5.156c.14 0 .281.062.39.156.266.218.516.89.516 2.078 0 .812-.031 1.36-.156 1.812-.188.72-.625.797-.781.797-.813 0-.907-1.5-.907-2.265 0-2.172.532-2.578.938-2.578m0 0"/><path id="k" d="M4.016-1.031C5-1.36 5.734-2.266 5.734-3.313c0-1.312-.89-2.468-2.64-2.468-1.735 0-2.656 1.297-2.656 2.468 0 1.126.765 1.954 1.718 2.282l.031.422H1.22c-.422 0-.563 0-.61-.438a.27.27 0 0 0-.218 0c0 .36.015.719.062 1.047h1.875c.094 0 .14-.047.14-.125l-.062-1.14C1.594-1.798 1.25-2.345 1.25-3.329c0-1.125.61-2.156 1.844-2.156 1.14 0 1.844.922 1.844 2.172 0 .953-.36 1.593-1.157 2.046L3.703-.125c0 .078.047.125.156.125h1.829c.03-.297.062-.687.062-1.047q-.093-.046-.234 0c-.047.453-.203.453-.547.438H4Zm0 0"/><clipPath id="a"><path d="M1.215 0H14v14H1.215Zm0 0"/></clipPath><clipPath id="b"><path d="M151 0h13.148v14H151Zm0 0"/></clipPath><clipPath id="c"><path d="M1.215 37H14v9.148H1.215Zm0 0"/></clipPath><clipPath id="d"><path d="M151 37h13.148v9.148H151Zm0 0"/></clipPath></defs><path fill="none" stroke="#000" stroke-miterlimit="10" stroke-width=".39122748" d="M6.195 6.227h37.426m77.824 0h37.43"/><path fill="none" stroke="#000" stroke-miterlimit="10" stroke-width=".78147444" d="M119.113.39H45.957c-1.289 0-2.336 2.614-2.336 5.837 0 3.226 1.047 5.84 2.336 5.84h73.156c1.29 0 2.332-2.614 2.332-5.84 0-3.223-1.043-5.836-2.332-5.836"/><path fill="none" stroke="#000" stroke-miterlimit="10" stroke-width=".78147444" d="M119.113.39c-1.289 0-2.336 2.614-2.336 5.837 0 3.226 1.047 5.84 2.336 5.84"/><path fill="none" stroke="#000" stroke-miterlimit="10" stroke-width=".39122748" d="M119.113 6.227h2.332"/><path fill="#FFF" d="M7.754 6.227a1.557 1.557 0 1 0-3.114.004 1.557 1.557 0 0 0 3.114-.004m0 0"/><g clip-path="url(#a)"><path fill="none" stroke="#000" stroke-miterlimit="10" stroke-width=".39122748" d="M7.754 6.227a1.557 1.557 0 1 0-3.114.004 1.557 1.557 0 0 0 3.114-.004Zm0 0"/></g><path fill="#FFF" d="M160.43 6.227a1.557 1.557 0 1 0-3.112.005 1.557 1.557 0 0 0 3.112-.005m0 0"/><g clip-path="url(#b)"><path fill="none" stroke="#000" stroke-miterlimit="10" stroke-width=".39122748" d="M160.43 6.227a1.557 1.557 0 1 0-3.112.005 1.557 1.557 0 0 0 3.112-.005Zm0 0"/></g><path fill="none" stroke="#000" stroke-dasharray="2.9306075916 2.9306075916" stroke-miterlimit="10" stroke-width=".39122748" d="M43.621 6.227h77.824"/><path fill="none" stroke="#000" stroke-miterlimit="10" stroke-width=".39122748" d="M6.195 44.398h39.762V12.066m0 0"/><path fill="#FFF" d="M7.754 44.398a1.557 1.557 0 1 0-3.112-.003 1.557 1.557 0 0 0 3.112.003m0 0"/><g clip-path="url(#c)"><path fill="none" stroke="#000" stroke-miterlimit="10" stroke-width=".39122748" d="M7.754 44.398a1.557 1.557 0 1 0-3.112-.003 1.557 1.557 0 0 0 3.112.003Zm0 0"/></g><path stroke="#000" stroke-miterlimit="10" stroke-width=".39122748" d="M47.512 12.066c0-.859-.696-1.558-1.555-1.558a1.557 1.557 0 0 0 0 3.113c.86 0 1.555-.695 1.555-1.555Zm0 0"/><path fill="none" stroke="#000" stroke-miterlimit="10" stroke-width=".39122748" d="M158.875 44.398h-39.762V12.066m0 0"/><path fill="#FFF" d="M160.43 44.398a1.557 1.557 0 1 0-3.114-.003 1.557 1.557 0 0 0 3.114.003m0 0"/><g clip-path="url(#d)"><path fill="none" stroke="#000" stroke-miterlimit="10" stroke-width=".39122748" d="M160.43 44.398a1.557 1.557 0 1 0-3.114-.003 1.557 1.557 0 0 0 3.114.003Zm0 0"/></g><path stroke="#000" stroke-miterlimit="10" stroke-width=".39122748" d="M120.668 12.066a1.557 1.557 0 1 0-3.114-.003 1.557 1.557 0 0 0 3.114.003Zm0 0"/><use xlink:href="#e" x="4.143" y="27.422"/><use xlink:href="#f" x="156.524" y="28.451"/><use xlink:href="#g" x="66.404" y="20.975"/><use xlink:href="#h" x="74.747" y="20.975"/><use xlink:href="#i" x="82.888" y="20.975"/><use xlink:href="#j" x="86.977" y="20.975"/><use xlink:href="#k" x="92.533" y="20.975"/></svg>