<svg xmlns="http://www.w3.org/2000/svg" xmlns:xlink="http://www.w3.org/1999/xlink" width="227.016" height="253.716"><defs><path id="c" d="M1.906-5.203c.125-.578.219-.938.219-.938 0-.062-.031-.093-.11-.093-.234.093-.874.218-1.25.234l-.03.219q0 .047.046.047l.282.015c.109 0 .187.047.187.25 0 .094-.016.25-.062.453L.297-1.062c-.063.28-.125.593-.125.765 0 .156.047.39.375.39.406 0 .906-.234 1.297-.905-.032-.094-.078-.157-.188-.157-.265.328-.562.516-.672.516C.922-.453.891-.5.891-.578c0-.063.015-.203.093-.563Zm0 0"/><path id="s" d="M3.844-1.953h-.75v-2.61c0-.437 0-.796.015-.859l-.015-.016h-.281c-.063 0-.11.047-.141.094-.563.688-1.594 2.157-2.422 3.438.031.125.078.375.344.375h1.828v.812c0 .422-.344.422-.735.438-.046.062-.046.25 0 .297C1.985.016 2.345 0 2.75 0c.344 0 .688.016.969.016.062-.047.062-.235 0-.297-.438-.031-.625-.016-.625-.438v-.812h.625c.125 0 .25-.172.25-.282 0-.093-.031-.14-.125-.14M2.422-4.516v2.563H.719c.453-.734 1.078-1.734 1.703-2.563m0 0"/><path id="d" d="M4.031-1.906H.421v-.469h3.61Zm0-1.297H.421v-.469h3.61Zm0 0"/><path id="e" d="m.125-1.984 2.531-3.782.656-.062v3.64h.75l-.03.672h-.72v1.032l.626.125q.123.017.124.093 0 .048-.093.266H1.906v-.078q0-.246.297-.328l.39-.078v-1.032H.157Zm.734-.203h1.735v-2.704h-.031L.859-2.219Zm0 0"/><path id="f" d="M1.39-3.156c1.008-.114 1.516-.516 1.516-1.203Q2.905-5.421 2-5.422q-.41 0-.703.188-.112.376-.125.828a1 1 0 0 1-.203.015c-.281 0-.422-.117-.422-.359 0-.344.144-.617.437-.828q.45-.328 1.188-.328c.469 0 .836.125 1.11.375q.42.376.421 1.015 0 .628-.422 1.016-.298.284-.906.484v.032q.716.093 1.11.468c.257.243.39.547.39.922q-.001.738-.547 1.219Q2.78.11 1.891.109C1.41.11 1.05.012.813-.17Q.53-.374.53-.672q0-.406.39-.548c.102.23.204.399.298.5q.293.328.828.328c.664 0 1-.351 1-1.062 0-.738-.555-1.149-1.656-1.234Zm0 0"/><path id="g" d="M.89-.922q.248.002.407.203.17.204.172.578 0 .592-.375.985-.316.328-.61.328c-.093 0-.164-.078-.203-.234q.574-.3.61-.891a.5.5 0 0 1-.344-.125.47.47 0 0 1-.14-.344c0-.156.038-.273.124-.36a.48.48 0 0 1 .36-.14m0 0"/><path id="h" d="M2.031-.578V-5l-1.344.266a1 1 0 0 1-.015-.188c0-.133.07-.226.219-.281l1.468-.594h.438v5.219l1.094.172q.14.016.14.11-.002.08-.11.296H.86v-.078q0-.311.282-.36Zm0 0"/><path id="i" d="M2.922-3.031q1.109.487 1.11 1.531-.001.737-.548 1.188-.516.42-1.296.421Q1.42.11.952-.28.421-.716.422-1.453q0-.92 1.125-1.453C.898-3.226.578-3.72.578-4.375c0-.426.164-.785.5-1.078a1.75 1.75 0 0 1 1.188-.453c.476 0 .867.133 1.172.39q.451.376.453 1.063-.001.907-.97 1.422m-.39-.156q.656-.423.656-1.266-.002-.42-.25-.672-.254-.28-.735-.281c-.281 0-.508.093-.672.281a.94.94 0 0 0-.25.672q0 .504.328.797.247.222.922.469m-.563.468q-.798.44-.797 1.266 0 .456.281.766c.195.199.453.296.766.296q.467 0 .765-.28.296-.295.297-.735 0-.48-.36-.797-.268-.234-.952-.516m0 0"/><path id="j" d="m7.078-.469.531.125q.124.017.125.11A.35.35 0 0 1 7.641 0H5.75v-.062c0-.133.086-.235.266-.297l.343-.11V-2.75c0-.695-.289-1.047-.859-1.047q-.69.002-1.203.485.06.327.062.515v2.328l.532.125q.124.017.125.11A.35.35 0 0 1 4.922 0h-1.89v-.062c0-.133.085-.235.265-.297l.328-.11V-2.75c0-.695-.281-1.047-.844-1.047-.437 0-.824.149-1.156.438v2.89l.547.125q.124.017.125.11A.35.35 0 0 1 2.203 0H.313a.1.1 0 0 1-.016-.062c0-.133.094-.235.281-.297l.328-.11v-3.328l-.64-.078a.2.2 0 0 1-.016-.078q0-.246.328-.281l1.047-.11-.047.61h.031q.61-.657 1.422-.657c.54 0 .922.243 1.14.72.427-.477.938-.72 1.532-.72q.638 0 1 .422.375.41.375 1.172Zm0 0"/><path id="k" d="M.922-4.281v-.047q-.001-.996.484-1.594c.282-.344.617-.516 1.016-.516q.546 0 .547.422a.46.46 0 0 1-.156.329 1.1 1.1 0 0 0-.579-.172q-.328 0-.468.187c-.086.117-.125.309-.125.578v.813h1.203l-.094.468H1.64v3.344l.626.125q.124.017.125.11A.35.35 0 0 1 2.297 0H.328a.1.1 0 0 1-.016-.062c0-.133.094-.235.282-.297l.328-.11v-3.343H.234v-.063q0-.233.282-.297Zm0 0"/><path id="l" d="m.781-3.797-.64-.078a.2.2 0 0 1-.016-.078q0-.246.328-.281l1.047-.11v2.813q-.002 1.048.906 1.047.684 0 1.094-.438v-2.875l-.64-.078a.2.2 0 0 1-.016-.078q0-.246.328-.281l1.062-.11v3.86l.641.078q.014.047.016.078 0 .252-.328.281l-1 .094v-.578h-.016c-.344.43-.797.64-1.36.64Q.782.11.782-1.484Zm.938-1.265a.43.43 0 0 1-.437-.453c0-.133.038-.243.124-.329a.43.43 0 0 1 .313-.125c.125 0 .226.043.312.125a.46.46 0 0 1 .125.328.45.45 0 0 1-.125.329.42.42 0 0 1-.312.125m1.515 0a.43.43 0 0 1-.437-.453q-.002-.2.125-.329a.43.43 0 0 1 .312-.125q.186.001.313.125a.46.46 0 0 1 .125.328.45.45 0 0 1-.125.329.42.42 0 0 1-.313.125m0 0"/><path id="m" d="M.906-.469v-3.328l-.64-.078a.2.2 0 0 1-.016-.078q0-.246.328-.281l1.047-.11-.047.75h.031q.517-.797 1.125-.797c.407 0 .61.149.61.438 0 .125-.055.25-.156.375a1.4 1.4 0 0 0-.579-.14q-.609 0-.984.515V-.47l.625.125q.124.017.125.11A.4.4 0 0 1 2.297 0H.312a.1.1 0 0 1-.015-.062c0-.133.094-.235.281-.297Zm0 0"/><path id="n" d="M.484-4.64c0-.376.02-.758.063-1.157h3.562a.3.3 0 0 1 .047.172q-.002.188-.11.422L1.704 0h-.656l2.406-5.047H1.078l-.14.75a.6.6 0 0 1-.204.031q-.251 0-.25-.375m0 0"/><path id="o" d="m6-.484-.078-4.22h-.016L4.031-.077h-.5L1.687-4.75h-.015L1.594-.484l.625.125q.124.017.125.093c0 .032-.04.121-.11.266H.391v-.078Q.389-.324.688-.406l.39-.078.063-5.203-.547-.125c-.086-.008-.125-.04-.125-.094q0-.075.094-.25h1.406l1.937 4.922h.016l2-4.922h1.5a.2.2 0 0 1 .016.078q-.001.236-.313.312l-.422.079.078 5.203.61.125q.124.017.125.093 0 .048-.094.266H5.328a.16.16 0 0 1-.016-.078q-.002-.246.313-.328Zm0 0"/><path id="p" d="M2.594-6.156v.078c0 .156-.102.262-.297.312l-.422.079v2.28h2.984v-2.28l-.562-.125c-.086-.008-.125-.04-.125-.094q-.001-.075.11-.25h2.062q.013.033.015.078 0 .236-.312.312l-.422.079v5.203l.625.125q.124.017.125.093c0 .032-.04.121-.11.266H4.173v-.078q0-.246.297-.328l.39-.078v-2.391H1.875v2.39l.61.126q.123.017.124.093 0 .048-.093.266H.422a.16.16 0 0 1-.016-.078Q.404-.324.72-.406l.375-.078v-5.203l-.547-.125C.46-5.82.422-5.852.422-5.906q0-.075.094-.25Zm0 0"/><path id="q" d="M.469-3.406q0-.311.062-.875h2.89q.048.08.048.172c0 .093-.04.199-.11.312L1.141-.469v.016h1.734l.328-.89h.14q.249.001.25.265 0 .093-.124 1.078H.406a.6.6 0 0 1-.094-.328q0-.124.094-.266l2.14-3.234v-.016H1.095l-.25.735a.6.6 0 0 1-.125.015c-.168 0-.25-.101-.25-.312m0 0"/><path id="t" d="M1.125-5.797h2.547l-.047.781H1.531l-.125 1.407q1.296.046 1.875.547.546.455.547 1.374a1.7 1.7 0 0 1-.547 1.266Q2.75.111 1.906.11 1.168.108.828-.156a.61.61 0 0 1-.281-.516q0-.405.39-.547.171.376.282.5.311.328.828.328.527 0 .844-.328c.195-.207.297-.476.297-.812q0-.732-.563-1.047-.563-.328-1.781-.328Zm0 0"/><path id="u" d="M6.125-3.469q0 .924-.562 1.719-.488.69-1.157 1.047v.172H5.61l.125-.719a.44.44 0 0 1 .204-.047q.28.001.28.406 0 .365-.046.891H3.844v-.89C4.82-1.38 5.313-2.25 5.313-3.5q-.001-1.03-.547-1.64-.533-.61-1.375-.61-.845 0-1.391.61-.532.626-.531 1.64-.001.877.343 1.531.376.738 1.126 1.078V0H.624a10 10 0 0 1-.047-.89c0-.27.086-.407.266-.407q.107 0 .203.047l.14.719h1.188v-.156c-.43-.188-.809-.524-1.14-1.016Q.654-2.53.655-3.47q-.001-1.216.766-2 .762-.797 1.969-.797c.8 0 1.457.258 1.968.766.508.512.766 1.188.766 2.031m0 0"/><path id="v" d="M2.234-.39q1.092.001 1.094-2.516c0-1.664-.367-2.5-1.094-2.5-.73 0-1.093.836-1.093 2.5 0 1.68.363 2.515 1.093 2.515m-.046.5q-.862 0-1.36-.75Q.296-1.42.297-2.907c0-.977.187-1.735.562-2.266.352-.488.829-.734 1.422-.734q.873.001 1.36.734c.343.531.515 1.29.515 2.266q0 1.487-.562 2.265-.516.75-1.406.75m0 0"/><path id="r" d="m4.453-.531-.156-.156c-.234.234-.36.25-.531.25-.266 0-.282-.297-.344-1.47l-.156-3.171c-.047-1.047-.485-1.156-.735-1.156-.328 0-.656.28-.953.625l.11.156c.187-.14.421-.234.64-.234.235 0 .516.187.578 1.421l.016.391L.188 0l.171.11C.563.03.781.015 1.016 0l1.922-3.234.109 2.109c.047.828.14 1.234.562 1.234.25 0 .61-.296.844-.64m0 0"/><clipPath id="a"><path d="M0 .406h226.035V131H0Zm0 0"/></clipPath><clipPath id="b"><path d="M112 241h2v12.027h-2Zm0 0"/></clipPath></defs><path fill="none" stroke="#000" stroke-miterlimit="10" stroke-width=".39727632" d="M113.02 241.586v-6.184m0-55.086v-16.863m0-23.61v-18.55m0 0v-7.871"/><path fill="none" stroke="#000" stroke-miterlimit="10" stroke-width=".7935569600000001" d="M108.297 182.203v51.313c0 1.043 2.117 1.886 4.723 1.886 2.609 0 4.722-.843 4.722-1.886v-51.313c0-1.043-2.113-1.887-4.722-1.887-2.606 0-4.723.844-4.723 1.887"/><path fill="none" stroke="#000" stroke-miterlimit="10" stroke-width=".7935569600000001" d="M108.297 182.203c0 1.043 2.117 1.89 4.723 1.89 2.609 0 4.722-.847 4.722-1.89"/><path fill="none" stroke="#000" stroke-miterlimit="10" stroke-width=".39727632" d="M113.02 182.203v-1.887"/><path fill="none" stroke="#000" stroke-miterlimit="10" stroke-width=".7935569600000001" d="M108.297 141.73v19.833c0 1.042 2.117 1.89 4.723 1.89 2.609 0 4.722-.848 4.722-1.89V141.73c0-1.042-2.113-1.886-4.722-1.886-2.606 0-4.723.844-4.723 1.886"/><path fill="none" stroke="#000" stroke-miterlimit="10" stroke-width=".7935569600000001" d="M108.297 141.73c0 1.043 2.117 1.891 4.723 1.891 2.609 0 4.722-.848 4.722-1.89"/><path fill="none" stroke="#000" stroke-miterlimit="10" stroke-width=".39727632" d="M113.02 141.73v-1.886"/><g clip-path="url(#a)"><path fill="none" stroke="#000" stroke-miterlimit="10" stroke-width="1.1908332799999999" d="M113.02 113.422H56.809m0 0H.594L56.809 57.21m0 0 56.21-56.21 56.211 56.21m0 0 56.215 56.21h-53.851m0 0h-53.852"/></g><path fill="none" stroke="#000" stroke-miterlimit="10" stroke-width=".39727632" d="M117.742 113.422v14.156m0 0v14.152"/><path stroke="#000" stroke-miterlimit="10" stroke-width=".39727632" d="M119.32 141.73a1.58 1.58 0 1 0-3.161.003 1.58 1.58 0 0 0 3.161-.003Zm0 0"/><g clip-path="url(#b)"><path fill="none" stroke="#000" stroke-dasharray="2.9759182544000002 2.9759182544000002" stroke-miterlimit="10" stroke-width=".39727632" d="M113.02 241.586v5.621m0 0v5.621"/></g><path fill="none" stroke="#000" stroke-miterlimit="10" stroke-width=".39727632" d="M117.742 182.203v-10.32m0 0v-10.32"/><path stroke="#000" stroke-miterlimit="10" stroke-width=".39727632" d="M119.32 182.203a1.58 1.58 0 1 0-3.161.003 1.58 1.58 0 0 0 3.161-.003ZM119.32 161.563a1.58 1.58 0 1 0-3.161.003 1.58 1.58 0 0 0 3.161-.003Zm0 0"/><use xlink:href="#c" x="69.951" y="93.573"/><use xlink:href="#d" x="73.603" y="93.573"/><use xlink:href="#e" x="79.995" y="93.573"/><use xlink:href="#f" x="84.459" y="93.573"/><use xlink:href="#g" x="88.923" y="93.573"/><use xlink:href="#h" x="90.771" y="93.573"/><use xlink:href="#i" x="95.235" y="93.573"/><use xlink:href="#j" x="101.627" y="93.573"/><use xlink:href="#k" x="111.421" y="93.573"/><use xlink:href="#l" x="114.385" y="93.573"/><use xlink:href="#m" x="119.464" y="93.573"/><use xlink:href="#n" x="124.839" y="93.573"/><use xlink:href="#g" x="129.303" y="93.573"/><use xlink:href="#h" x="131.151" y="93.573"/><use xlink:href="#o" x="137.543" y="93.573"/><use xlink:href="#p" x="145.408" y="93.573"/><use xlink:href="#q" x="152.158" y="93.573"/><use xlink:href="#r" x="99.183" y="148.996"/><path fill="none" stroke="#000" stroke-miterlimit="10" stroke-width=".58048144" d="M99.184 151.855h4.75"/><use xlink:href="#s" x="99.482" y="160.424"/><use xlink:href="#n" x="120.914" y="154.728"/><use xlink:href="#t" x="125.378" y="154.728"/><use xlink:href="#u" x="131.324" y="154.728"/><use xlink:href="#t" x="120.914" y="210.94"/><use xlink:href="#v" x="125.378" y="210.94"/><use xlink:href="#u" x="131.324" y="210.94"/></svg>