<svg xmlns="http://www.w3.org/2000/svg" xmlns:xlink="http://www.w3.org/1999/xlink" width="228.973" height="117.485"><defs><path id="c" d="M1.39-3.156c1.008-.114 1.516-.516 1.516-1.203Q2.905-5.421 2-5.422q-.41 0-.703.188-.112.376-.125.828a1 1 0 0 1-.203.015c-.281 0-.422-.117-.422-.359 0-.344.144-.617.437-.828q.45-.328 1.188-.328c.469 0 .836.125 1.11.375q.42.376.421 1.015 0 .628-.422 1.016-.298.284-.906.484v.032q.716.093 1.11.468c.257.243.39.547.39.922q-.001.738-.547 1.219Q2.78.11 1.891.109C1.41.11 1.05.012.813-.17Q.53-.374.53-.672q0-.406.39-.548c.102.23.204.399.298.5q.293.328.828.328c.664 0 1-.351 1-1.062 0-.738-.555-1.149-1.656-1.234Zm0 0"/><path id="d" d="M2.234-.39q1.092.001 1.094-2.516c0-1.664-.367-2.5-1.094-2.5-.73 0-1.093.836-1.093 2.5 0 1.68.363 2.515 1.093 2.515m-.046.5q-.862 0-1.36-.75Q.296-1.42.297-2.907c0-.977.187-1.735.562-2.266.352-.488.829-.734 1.422-.734q.873.001 1.36.734c.343.531.515 1.29.515 2.266q0 1.487-.562 2.265-.516.75-1.406.75m0 0"/><path id="e" d="M6.125-3.469q0 .924-.562 1.719-.488.69-1.157 1.047v.172H5.61l.125-.719a.44.44 0 0 1 .204-.047q.28.001.28.406 0 .365-.046.891H3.844v-.89C4.82-1.38 5.313-2.25 5.313-3.5q-.001-1.03-.547-1.64-.533-.61-1.375-.61-.845 0-1.391.61-.532.626-.531 1.64-.001.877.343 1.531.376.738 1.126 1.078V0H.624a10 10 0 0 1-.047-.89c0-.27.086-.407.266-.407q.107 0 .203.047l.14.719h1.188v-.156c-.43-.188-.809-.524-1.14-1.016Q.654-2.53.655-3.47q-.001-1.216.766-2 .762-.797 1.969-.797c.8 0 1.457.258 1.968.766.508.512.766 1.188.766 2.031m0 0"/><path id="m" d="M4.484-.484 3.906-2.11H1.672L1.094-.484l.672.125q.124.017.125.093 0 .066-.094.266H-.078a.2.2 0 0 1-.016-.078Q-.096-.342.22-.406l.25-.063 2.156-5.687.563-.078L5.328-.47l.406.11q.124.034.125.093-.002.048-.109.266H3.844v-.078q-.002-.246.297-.328Zm-2.64-2.11h1.89l-.921-2.61h-.016Zm0 0"/><path id="E" d="M1.094-.484v-5.203l-.547-.125C.46-5.82.422-5.852.422-5.906q0-.075.094-.25H4.53q.062.752.063 1.047c0 .273-.086.406-.25.406a.4.4 0 0 1-.188-.047l-.218-.937H1.874v2.312h1.984v.5H1.875v2.36H4l.234-.954a.7.7 0 0 1 .204-.031q.234 0 .234.36 0 .361-.094 1.14H.422a.16.16 0 0 1-.016-.078Q.404-.324.72-.406Zm0 0"/><path id="t" d="M-.578-2.031H-5l.266 1.344q-.105.016-.188.015c-.133 0-.226-.07-.281-.219l-.594-1.468v-.438h5.219l.172-1.094q.016-.14.11-.14.08.002.296.11V-.86h-.078q-.311 0-.36-.282Zm0 0"/><path id="u" d="M-.39-2.234q.001-1.092-2.516-1.094c-1.664 0-2.5.367-2.5 1.094 0 .73.836 1.093 2.5 1.093 1.68 0 2.515-.363 2.515-1.093m.5.046q0 .862-.75 1.36-.779.532-2.266.531c-.977 0-1.735-.187-2.266-.562q-.733-.53-.734-1.422.001-.873.734-1.36c.531-.343 1.29-.515 2.266-.515q1.487 0 2.265.562.75.516.75 1.406m0 0"/><path id="v" d="M-.469-.828h-5.468l-.079.656a.2.2 0 0 1-.078.016q-.246 0-.281-.328l-.11-1.063h4v-.531l-1.374-1.203-.141.625a.2.2 0 0 1-.062.015q-.219.001-.22-.25v-1.437c0-.07.032-.11.095-.11.042 0 .105.024.187.063l.156.516 1.453 1.265 1.938-1.515.11-.453q.015-.125.109-.125.129 0 .234.093v1.157l-2.047 1.484v.406h1.594L-.343-2q.015-.124.109-.125.129 0 .234.094V-.22h-.062c-.133 0-.235-.086-.297-.265Zm0 0"/><path id="w" d="M-3.469-6.125q.924 0 1.719.563.69.486 1.047 1.156h.172V-5.61l-.719-.125a.44.44 0 0 1-.047-.203q.001-.282.406-.282.365 0 .891.047v2.328h-.89C-1.38-4.82-2.25-5.313-3.5-5.313q-1.03.001-1.64.547-.61.533-.61 1.375 0 .845.61 1.391.626.532 1.64.531.877.001 1.531-.343.738-.375 1.078-1.125H0v2.312q-.527.047-.89.047c-.27 0-.407-.086-.407-.266q0-.107.047-.203l.719-.14v-1.188h-.156c-.188.43-.524.809-1.016 1.14q-.826.58-1.766.579-1.216.001-2-.766-.797-.762-.797-1.969c0-.8.258-1.457.766-1.968.512-.508 1.188-.766 2.031-.766m0 0"/><path id="z" d="m-1.984-.125-3.782-2.531-.062-.656h3.64v-.75l.672.03v.72h1.032l.125-.626q.017-.123.093-.124.048 0 .266.093v2.063h-.078q-.246 0-.328-.297l-.078-.39h-1.032v2.437Zm-.203-.734v-1.735h-2.704v.031l2.672 1.704Zm0 0"/><path id="A" d="M-.922-.89q.002-.248.203-.407.204-.17.578-.172.592 0 .985.375.328.316.328.61c0 .093-.078.164-.234.203q-.3-.574-.891-.61-.001.204-.125.344a.47.47 0 0 1-.344.14c-.156 0-.273-.038-.36-.124a.48.48 0 0 1-.14-.36m0 0"/><path id="B" d="M-4.64-.484c-.376 0-.758-.02-1.157-.063v-3.562a.3.3 0 0 1 .172-.047q.188.002.422.11L0-1.704v.656l-5.047-2.406v2.375l.75.14a.6.6 0 0 1 .031.204q0 .251-.375.25m0 0"/><path id="C" d="M-.469-.906h-3.328l-.078.64a.2.2 0 0 1-.078.016q-.246 0-.281-.328l-.11-1.047.61.047v-.031a2.7 2.7 0 0 1-.422-.516 1.86 1.86 0 0 1-.235-.953c0-.438.141-.774.422-1.016q.422-.359 1.172-.36h2.328L-.344-5q.017-.124.11-.125.129 0 .234.094v1.89a.1.1 0 0 1-.062.016c-.133 0-.235-.094-.297-.281l-.11-.328H-2.75q-.544.002-.812.297a.97.97 0 0 0-.235.656c0 .437.149.824.438 1.156h2.89l.125-.547q.017-.124.11-.125.129 0 .234.094v1.89a.1.1 0 0 1-.062.016c-.133 0-.235-.094-.297-.281Zm0 0"/><path id="D" d="M-6.156-4.5q.752-.061 1.047-.062.408.001.406.25a.5.5 0 0 1-.047.203l-.937.203v2.031h2.453v-1.984h.5v1.984h2.25l.125-.703q.017-.124.093-.125.048 0 .266.094v2.187a.16.16 0 0 1-.078.016q-.246.002-.328-.313l-.078-.375h-5.203l-.125.547c-.008.086-.04.125-.094.125q-.075 0-.25-.094Zm0 0"/><path id="x" d="M3.484-5.828c-.203 0-.75.078-1.078.078-.344 0-.687-.016-1.078-.016l-.031.016-.031.188c-.016.03 0 .046.03.046l.329.016c.125.016.313.078.313.297v.078L1.063-.641c-.047.25-.172.36-.547.375l-.22.032C.25-.234.22-.22.22-.172L.172 0l.031.016C.593.016.953 0 1.281 0c.344 0 .688.016 1.094.016L2.406 0l.016-.172c.015-.047-.016-.062-.047-.062l-.219-.032C1.86-.28 1.75-.344 1.75-.53v-.11l.39-1.953c.72 0 .86.125.954.344l.61 1.547c.171.422.468.797.983.797A1 1 0 0 0 5.063.03l.016-.218c-.375 0-.531-.297-.672-.688L3.688-2.75c.39-.125 1.25-.594 1.437-1.531.016-.11.031-.219.031-.328a1.17 1.17 0 0 0-.281-.782c-.328-.406-.844-.437-1.39-.437m-.046.297c.453 0 .968.156.968.89 0 .094-.015.235-.047.375-.203 1.11-.906 1.36-1.734 1.36h-.437l.437-2.219c.047-.25.203-.406.813-.406m0 0"/><path id="y" d="M2.063-.875v-2.469c0-.437 0-.875.015-.969 0-.03-.015-.03-.047-.03-.39.25-.765.421-1.39.718.015.078.03.14.109.188.328-.141.484-.172.61-.172.124 0 .14.172.14.406v2.328c0 .594-.187.625-.687.656-.047.047-.047.188 0 .235C1.156 0 1.422 0 1.813 0c.343 0 .515 0 .859.016.047-.047.047-.188 0-.235-.5-.031-.61-.062-.61-.656m0 0"/><clipPath id="a"><path d="M.484 8.355H16.29v6.325H.484Zm0 6.325h6.32v3.16H.485Zm0 3.16H16.29v6.32H.484Zm0 0"/></clipPath><clipPath id="b"><path d="M.484 3H22v27H.484Zm0 0"/></clipPath><clipPath id="f"><path d="M72 113h4v3.973h-4Zm0 0"/></clipPath><clipPath id="g"><path d="M66 108h16v8.973H66Zm0 0"/></clipPath><clipPath id="h"><path d="M35 113h4v3.973h-4Zm0 0"/></clipPath><clipPath id="i"><path d="M29 108h16v8.973H29Zm0 0"/></clipPath><clipPath id="j"><path d="M72 113h4v3.973h-4Zm0 0"/></clipPath><clipPath id="k"><path d="M66 108h16v8.973H66Zm0 0"/></clipPath><clipPath id="l"><path d="M215 58h13.46v15H215Zm0 0"/></clipPath><clipPath id="n"><path d="M146 113h4v3.973h-4Zm0 0"/></clipPath><clipPath id="o"><path d="M141 108h15v8.973h-15Zm0 0"/></clipPath><clipPath id="p"><path d="M196 113h4v3.973h-4Zm0 0"/></clipPath><clipPath id="q"><path d="M190 108h16v8.973h-16Zm0 0"/></clipPath><clipPath id="r"><path d="M220 113h5v3.973h-5Zm0 0"/></clipPath><clipPath id="s"><path d="M215 108h13.46v8.973H215Zm0 0"/></clipPath></defs><path fill="none" stroke="#000" stroke-miterlimit="10" stroke-width=".39726036000000003" d="M12.336 16.258h12.367m0 0h30.918m0 0h18.55v8.93m0 31.609v17.86m0 31.609v8.93"/><g clip-path="url(#a)"><path fill="none" stroke="#000" stroke-miterlimit="10" stroke-width=".79352508" d="M12.336 16.258a3.949 3.949 0 1 0-7.899 0 3.946 3.946 0 0 0 3.95 3.949 3.946 3.946 0 0 0 3.949-3.95Zm0 0"/></g><g clip-path="url(#b)"><path fill="none" stroke="#000" stroke-miterlimit="10" stroke-width=".79352508" d="M9.969 16.258a1.582 1.582 0 0 0-3.164 0 1.583 1.583 0 0 0 3.164 0Zm0 0"/></g><path fill="none" stroke="#000" stroke-miterlimit="10" stroke-width=".39726036000000003" d="M9.969 16.258h2.367"/><path stroke="#000" stroke-miterlimit="10" stroke-width=".39726036000000003" d="M38.652 16.258a1.58 1.58 0 1 0-3.159.003 1.58 1.58 0 0 0 3.16-.003Zm0 0"/><path fill="none" stroke="#000" stroke-miterlimit="10" stroke-width=".79352508" d="M68.246 56.797v-31.61h11.852v31.61Zm0 0"/><path stroke="#000" stroke-miterlimit="10" stroke-width=".39726036000000003" d="M75.754 65.727a1.58 1.58 0 1 0-3.161-.005 1.58 1.58 0 0 0 3.16.005Zm0 0"/><use xlink:href="#c" x="82.299" y="43.135"/><use xlink:href="#c" x="86.762" y="43.135"/><use xlink:href="#d" x="91.226" y="43.135"/><use xlink:href="#e" x="97.171" y="43.135"/><path fill="none" stroke="#000" stroke-miterlimit="10" stroke-width=".79352508" d="M68.246 106.266v-31.61h11.852v31.61Zm0 0"/><g clip-path="url(#f)"><path d="M75.754 115.195a1.58 1.58 0 1 0-3.161-.005 1.58 1.58 0 0 0 3.16.005m0 0"/></g><g clip-path="url(#g)"><path fill="none" stroke="#000" stroke-miterlimit="10" stroke-width=".39726036000000003" d="M75.754 115.195a1.58 1.58 0 1 0-3.161-.005 1.58 1.58 0 0 0 3.16.005Zm0 0"/></g><use xlink:href="#c" x="82.299" y="92.602"/><use xlink:href="#c" x="86.762" y="92.602"/><use xlink:href="#d" x="91.226" y="92.602"/><use xlink:href="#e" x="97.171" y="92.602"/><path fill="none" stroke="#000" stroke-miterlimit="10" stroke-width=".39726036000000003" d="M8.387 20.207v94.988h16.316m0 0h30.918m0 0h18.55"/><g clip-path="url(#h)"><path d="M38.652 115.195a1.58 1.58 0 1 0-3.16-.003 1.58 1.58 0 0 0 3.16.003m0 0"/></g><g clip-path="url(#i)"><path fill="none" stroke="#000" stroke-miterlimit="10" stroke-width=".39726036000000003" d="M38.652 115.195a1.58 1.58 0 1 0-3.16-.003 1.58 1.58 0 0 0 3.16.003Zm0 0"/></g><g clip-path="url(#j)"><path d="M75.754 115.195a1.58 1.58 0 1 0-3.161-.005 1.58 1.58 0 0 0 3.16.005m0 0"/></g><g clip-path="url(#k)"><path fill="none" stroke="#000" stroke-miterlimit="10" stroke-width=".39726036000000003" d="M75.754 115.195a1.58 1.58 0 1 0-3.161-.005 1.58 1.58 0 0 0 3.16.005Zm0 0"/></g><path fill="none" stroke="#000" stroke-miterlimit="10" stroke-width=".39726036000000003" d="M74.172 65.727h29.2m15.804 0h53.933m0 0h37.102m0 0h12.363"/><path fill="none" stroke="#000" stroke-miterlimit="10" stroke-width=".79352508" d="m119.176 65.727-15.805-9.88v19.758Zm0 0"/><path fill="none" stroke="#000" stroke-miterlimit="10" stroke-width=".39726036000000003" d="M119.176 65.727H103.37"/><path fill="none" stroke="#000" stroke-miterlimit="10" stroke-width=".79352508" d="M119.176 75.605V55.848"/><path stroke="#000" stroke-miterlimit="10" stroke-width=".39726036000000003" d="M149.953 65.727a1.58 1.58 0 1 0-3.159-.005 1.58 1.58 0 0 0 3.16.005ZM199.422 65.727a1.58 1.58 0 1 0-3.16-.005 1.58 1.58 0 0 0 3.16.005Zm0 0"/><path fill="#FFF" d="M224.156 65.727a1.58 1.58 0 1 0-3.16-.004 1.58 1.58 0 0 0 3.16.004m0 0"/><g clip-path="url(#l)"><path fill="none" stroke="#000" stroke-miterlimit="10" stroke-width=".39726036000000003" d="M224.156 65.727a1.58 1.58 0 1 0-3.16-.004 1.58 1.58 0 0 0 3.16.004Zm0 0"/></g><use xlink:href="#m" x="219.663" y="62.553"/><path fill="none" stroke="#000" stroke-miterlimit="10" stroke-width=".39726036000000003" d="M74.172 115.195h37.101m0 0h61.836m0 0h37.102m0 0h12.363"/><g clip-path="url(#n)"><path d="M149.953 115.195a1.58 1.58 0 1 0-3.159-.005 1.58 1.58 0 0 0 3.16.005m0 0"/></g><g clip-path="url(#o)"><path fill="none" stroke="#000" stroke-miterlimit="10" stroke-width=".39726036000000003" d="M149.953 115.195a1.58 1.58 0 1 0-3.159-.005 1.58 1.58 0 0 0 3.16.005Zm0 0"/></g><g clip-path="url(#p)"><path d="M199.422 115.195a1.58 1.58 0 1 0-3.16-.005 1.58 1.58 0 0 0 3.16.005m0 0"/></g><g clip-path="url(#q)"><path fill="none" stroke="#000" stroke-miterlimit="10" stroke-width=".39726036000000003" d="M199.422 115.195a1.58 1.58 0 1 0-3.16-.005 1.58 1.58 0 0 0 3.16.005Zm0 0"/></g><g clip-path="url(#r)"><path fill="#FFF" d="M224.156 115.195a1.58 1.58 0 1 0-3.16-.003 1.58 1.58 0 0 0 3.16.003m0 0"/></g><g clip-path="url(#s)"><path fill="none" stroke="#000" stroke-miterlimit="10" stroke-width=".39726036000000003" d="M224.156 115.195a1.58 1.58 0 1 0-3.16-.003 1.58 1.58 0 0 0 3.16.003Zm0 0"/></g><path fill="none" stroke="#000" stroke-miterlimit="10" stroke-width=".39726036000000003" d="M197.844 65.727v8.93m0 31.609v8.93"/><path fill="none" stroke="#000" stroke-miterlimit="10" stroke-width=".79352508" d="M191.914 106.266v-31.61h11.856v31.61Zm0 0"/><use xlink:href="#t" x="212.448" y="100.381"/><use xlink:href="#u" x="212.448" y="95.917"/><use xlink:href="#v" x="212.448" y="89.972"/><use xlink:href="#w" x="212.448" y="85.24"/><path fill="none" stroke="#000" stroke-miterlimit="10" stroke-width=".39726036000000003" d="M37.07 16.258v33.664m0 31.61v33.663"/><path fill="none" stroke="#000" stroke-miterlimit="10" stroke-width=".79352508" d="M31.145 81.531v-31.61H43v31.61Zm0 0"/><use xlink:href="#x" x="45.198" y="67.868"/><use xlink:href="#y" x="50.456" y="69.743"/><path fill="none" stroke="#000" stroke-miterlimit="10" stroke-width=".39726036000000003" d="M148.375 65.727v20.78m0 7.903v20.785"/><path fill="none" stroke="#000" stroke-miterlimit="10" stroke-width=".79352508" d="M160.227 86.508H136.52m23.707 7.902H136.52"/><use xlink:href="#z" x="169.179" y="101.256"/><use xlink:href="#A" x="169.179" y="96.793"/><use xlink:href="#B" x="169.179" y="94.945"/><use xlink:href="#C" x="169.179" y="88.999"/><use xlink:href="#D" x="169.179" y="83.75"/><use xlink:href="#E" x="5.857" y="9.135"/></svg>