<svg xmlns="http://www.w3.org/2000/svg" width="114.626" height="82.173"><defs><clipPath id="a"><path d="M.387 78H4v3.355H.387Zm0 0"/></clipPath><clipPath id="b"><path d="M.387 72H10v9.355H.387Zm0 0"/></clipPath><clipPath id="c"><path d="M110 78h3.871v3.355H110Zm0 0"/></clipPath><clipPath id="d"><path d="M104 72h9.871v9.355H104Zm0 0"/></clipPath><clipPath id="e"><path d="M.387 4H4v4H.387Zm0 0"/></clipPath><clipPath id="f"><path d="M.387 0H10v14H.387Zm0 0"/></clipPath><clipPath id="g"><path d="M110 4h3.871v4H110Zm0 0"/></clipPath><clipPath id="h"><path d="M104 0h9.871v14H104Zm0 0"/></clipPath></defs><path fill="none" stroke="#000" stroke-miterlimit="10" stroke-width=".39502596" d="M2.152 79.586H57.13m0 0h54.973"/><g clip-path="url(#a)"><path fill="#FFF" d="M3.727 79.586c0-.867-.704-1.57-1.575-1.57a1.57 1.57 0 0 0 0 3.14c.871 0 1.575-.703 1.575-1.57m0 0"/></g><g clip-path="url(#b)"><path fill="none" stroke="#000" stroke-miterlimit="10" stroke-width=".39502596" d="M3.727 79.586c0-.867-.704-1.57-1.575-1.57a1.57 1.57 0 0 0 0 3.14c.871 0 1.575-.703 1.575-1.57Zm0 0"/></g><g clip-path="url(#c)"><path fill="#FFF" d="M113.676 79.586c0-.867-.707-1.57-1.574-1.57a1.57 1.57 0 0 0 0 3.14c.867 0 1.574-.703 1.574-1.57m0 0"/></g><g clip-path="url(#d)"><path fill="none" stroke="#000" stroke-miterlimit="10" stroke-width=".39502596" d="M113.676 79.586c0-.867-.707-1.57-1.574-1.57a1.57 1.57 0 0 0 0 3.14c.867 0 1.574-.703 1.574-1.57Zm0 0"/></g><path fill="none" stroke="#000" stroke-miterlimit="10" stroke-width=".39502596" d="M2.152 6.285h9.164m0 0h30.098m31.43 0h30.097m0 0h9.16"/><g clip-path="url(#e)"><path fill="#FFF" d="M3.727 6.285c0-.867-.704-1.57-1.575-1.57a1.57 1.57 0 0 0-1.57 1.57 1.571 1.571 0 1 0 3.145 0m0 0"/></g><g clip-path="url(#f)"><path fill="none" stroke="#000" stroke-miterlimit="10" stroke-width=".39502596" d="M3.727 6.285c0-.867-.704-1.57-1.575-1.57a1.57 1.57 0 0 0-1.57 1.57 1.571 1.571 0 1 0 3.145 0Zm0 0"/></g><path stroke="#000" stroke-miterlimit="10" stroke-width=".39502596" d="M22.05 6.285a1.57 1.57 0 0 0-1.57-1.57 1.571 1.571 0 1 0 0 3.144c.868 0 1.57-.703 1.57-1.574Zm0 0"/><path fill="none" stroke="#000" stroke-miterlimit="10" stroke-width=".7890618800000001" d="M41.414.395h31.43V12.18h-31.43Zm0 0"/><path stroke="#000" stroke-miterlimit="10" stroke-width=".39502596" d="M95.348 6.285a1.57 1.57 0 0 0-3.141 0 1.571 1.571 0 1 0 3.14 0Zm0 0"/><g clip-path="url(#g)"><path fill="#FFF" d="M113.676 6.285c0-.867-.707-1.57-1.574-1.57a1.57 1.57 0 0 0-1.57 1.57 1.571 1.571 0 1 0 3.144 0m0 0"/></g><g clip-path="url(#h)"><path fill="none" stroke="#000" stroke-miterlimit="10" stroke-width=".39502596" d="M113.676 6.285c0-.867-.707-1.57-1.574-1.57a1.57 1.57 0 0 0-1.57 1.57 1.571 1.571 0 1 0 3.144 0Zm0 0"/></g><path fill="none" stroke="#000" stroke-miterlimit="10" stroke-width=".39502596" d="M20.48 6.285v18.328m0 0v18.325H53.2m7.859 0h32.718V24.613m0 0V6.285"/><path fill="none" stroke="#000" stroke-miterlimit="10" stroke-width=".7890618800000001" d="M53.2 31.148v23.575m7.859-23.575v23.575"/></svg>