<svg xmlns="http://www.w3.org/2000/svg" xmlns:xlink="http://www.w3.org/1999/xlink" width="226.812" height="113.783"><defs><path id="d" d="M3.656-5.656v-.016H1.203l-.203 1a.5.5 0 0 1-.187.031q-.268 0-.266-.375 0-.387.062-1.156h3.922a.49.49 0 0 1 0 .578L1.36-.562v.015h2.75l.235-1.015a.44.44 0 0 1 .203-.047q.217 0 .219.375c0 .218-.028.632-.079 1.234H.438Q.28-.06.282-.281q0-.123.063-.235Zm0 0"/><path id="e" d="M1.156-2.172q.012.845.375 1.297.359.439 1.016.438c.394 0 .765-.133 1.11-.407q.092.064.109.25-.001.205-.407.438Q2.89.109 2.25.109 1.434.111.953-.39.391-.965.391-2.062.39-3.173.969-3.828q.527-.576 1.312-.578.702 0 1.094.422.375.41.375 1.078c0 .199-.04.445-.11.734Zm1.032-1.765q-.892.002-1.016 1.328h1.766q.046-.171.046-.375 0-.951-.796-.953m0 0"/><path id="f" d="M.906-.469v-3.343l-.64-.079a.2.2 0 0 1-.016-.078q0-.246.328-.281l1.063-.094v3.875l.53.125q.125.017.126.11A.4.4 0 0 1 2.219 0H.313a.1.1 0 0 1-.016-.062c0-.133.094-.235.281-.297Zm-.14-5.375q0-.234.14-.375a.52.52 0 0 1 .36-.14.507.507 0 0 1 .53.515.49.49 0 0 1-.155.375.53.53 0 0 1-.375.125.5.5 0 0 1-.36-.125.5.5 0 0 1-.14-.375m0 0"/><path id="g" d="M.875-4.297 1.031-5.5h.532v1.203h1.343l-.094.469h-1.25v2.75q0 .674.579.672.45 0 .75-.235.06.095.062.266-.002.112-.25.266-.33.217-.828.218Q.827.11.828-.92v-2.907H.156a.2.2 0 0 1-.015-.063q0-.233.28-.296Zm0 0"/><path id="h" d="M4.344-3.437h-.016L3.156 0h-.734L.453-5.719l-.36-.093q-.126-.029-.124-.11 0-.075.094-.25h2c.007.024.015.047.015.078q0 .236-.312.313l-.391.078L2.906-.875h.016L4.094-4.25 3.64-5.719l-.36-.093q-.127-.029-.125-.11 0-.075.094-.25h2v.078c0 .157-.102.262-.297.313l-.39.078L5.906-.875h.016l1.64-4.844-.703-.11c-.086-.019-.125-.05-.125-.093q0-.075.094-.25h1.797v.078c0 .168-.102.274-.297.313l-.219.062L6.172 0h-.734Zm0 0"/><path id="i" d="M.906-.469v-3.343l-.64-.079a.2.2 0 0 1-.016-.078q0-.246.328-.281l1.063-.094-.063.75h.031c.352-.539.735-.812 1.141-.812q.593.002.594.437 0 .188-.14.375a1.6 1.6 0 0 0-.595-.125q-.61.001-.968.5v2.75l.625.125q.124.017.125.11A.35.35 0 0 1 2.297 0H.312a.1.1 0 0 1-.015-.062c0-.133.094-.235.281-.297Zm0 0"/><clipPath id="a"><path d="M.121 62H224v1H.121Zm0 0"/></clipPath><clipPath id="b"><path d="M217 54h9.504v16H217Zm0 0"/></clipPath><clipPath id="c"><path d="M32 3h1v110.566h-1Zm0 0"/></clipPath></defs><path fill="none" stroke="#7F7F7F" stroke-miterlimit="10" stroke-width=".19862190000000002" d="M194.023 64.383v-4.246"/><g clip-path="url(#a)"><path fill="none" stroke="#000" stroke-miterlimit="10" stroke-width=".39824190000000004" d="M.32 62.258h222.52"/></g><path d="m225.91 62.258-2.969-1.758v3.52Zm0 0"/><g clip-path="url(#b)"><path fill="none" stroke="#000" stroke-miterlimit="10" stroke-width=".39824190000000004" d="m225.91 62.258-2.969-1.758v3.52Zm0 0"/></g><g clip-path="url(#c)"><path fill="none" stroke="#000" stroke-miterlimit="10" stroke-width=".39824190000000004" d="M32.605 113.367V3.664"/></g><path stroke="#000" stroke-miterlimit="10" stroke-width=".39824190000000004" d="m32.605.598-1.761 2.968h3.52Zm0 0"/><path fill="none" stroke="#000" stroke-miterlimit="10" stroke-width=".39824190000000004" d="M32.605 62.258s.387-.55.536-.766c.152-.21.39-.55.539-.762.148-.21.39-.55.539-.765.148-.211.386-.55.539-.762l.535-.762c.152-.21.39-.546.539-.757.148-.211.39-.547.54-.758.148-.211.386-.547.538-.754l.535-.754c.153-.207.39-.543.54-.75.148-.207.39-.54.538-.746.149-.207.387-.535.54-.742.148-.207.386-.535.535-.739.152-.203.39-.53.539-.734.148-.203.39-.527.539-.73.148-.2.386-.524.539-.723.148-.203.387-.523.535-.719.152-.199.39-.52.539-.715.148-.199.39-.511.54-.707.148-.199.386-.507.538-.703l.535-.695c.153-.192.39-.5.54-.688.148-.191.39-.496.538-.683s.387-.488.54-.672c.148-.188.386-.484.535-.668.148-.184.39-.477.539-.656.148-.184.39-.473.539-.653.148-.175.387-.46.535-.64.152-.176.39-.457.539-.633.148-.172.39-.45.54-.621.148-.172.386-.445.538-.613.149-.172.387-.438.535-.606.153-.164.39-.43.54-.594.148-.164.39-.422.538-.586.149-.16.387-.414.54-.57.148-.16.386-.41.535-.562l.539-.555.539-.54a70 70 0 0 1 1.074-1.046c.152-.14.39-.367.539-.504.148-.14.39-.36.54-.496.148-.133.386-.348.538-.48.149-.133.387-.34.535-.47.153-.128.39-.331.54-.456.148-.125.39-.32.538-.442.149-.12.387-.312.54-.43.148-.117.386-.304.535-.417.152-.114.39-.293.539-.403.148-.11.39-.281.539-.386.148-.11.387-.274.539-.38.148-.1.387-.261.535-.359.152-.097.39-.254.54-.347a40 40 0 0 1 1.077-.653c.149-.086.387-.218.535-.3l.54-.29c.148-.078.39-.199.538-.273s.387-.191.54-.262c.148-.07.386-.175.535-.242.148-.066.39-.168.539-.23.148-.059.39-.157.539-.211.148-.059.387-.145.535-.2.152-.05.39-.132.539-.183a28 28 0 0 1 1.078-.317c.149-.039.387-.101.535-.136a26.233 26.233 0 0 1 1.078-.223c.149-.027.387-.066.54-.086.148-.023.386-.055.535-.074.152-.016.39-.043.539-.055.148-.015.39-.031.539-.039.148-.012.386-.02.539-.027.148-.004.387-.008.535-.008.152 0 .39.004.54.008.147.008.39.015.538.027.149.008.387.024.54.04.148.011.386.038.534.054a22 22 0 0 1 1.078.16 26.218 26.218 0 0 1 1.074.223 22 22 0 0 1 1.079.289c.148.043.387.117.539.164l.535.183c.152.055.39.141.54.2.148.054.39.152.538.21l.54.231c.148.067.386.172.534.242a34.956 34.956 0 0 1 1.078.535l.54.29c.148.082.386.214.535.3.152.09.39.23.539.32.148.09.39.239.539.333.148.093.387.25.539.347.148.098.387.258.535.36.148.105.39.27.54.379.148.105.39.277.538.386a48 48 0 0 1 2.153 1.692c.148.125.386.328.535.457.152.129.39.336.539.468l.539.48c.148.138.387.356.539.497.148.137.387.363.535.504.152.14.39.371.54.516.148.148.39.382.538.53.149.15.387.391.54.54.148.152.386.398.534.555.153.152.391.402.54.562.148.156.39.41.538.57.149.164.387.422.54.586l.535.594c.152.168.39.434.539.606.148.168.39.44.539.613.148.172.387.449.539.62.148.177.387.458.535.634.152.18.39.465.54.64.148.18.39.47.538.653.149.18.387.472.54.656.148.184.386.48.534.668.153.184.391.484.54.672.148.187.39.492.539.683.148.188.386.496.539.688l.535.695c.152.196.39.504.539.703.148.196.39.508.539.707.148.196.387.516.539.715.148.196.387.516.535.719l.54.723c.148.203.39.527.538.73l.535.734c.153.204.391.532.54.739.148.207.39.535.538.742l.54.746c.148.207.386.543.535.75.152.207.39.543.539.754.148.207.39.543.539.754.148.21.387.547.539.758l.535.757c.152.211.39.551.54.762.148.211.39.55.538.762.149.215.387.555.54.765l.534.762c.153.215.391.555.54.766l.539.765c.148.211.386.551.539.766l.535.762c.152.21.39.55.539.762l.539.761c.148.211.387.551.539.758l.535.758c.152.21.39.547.54.758l.538.75c.149.21.387.543.54.75l.534.746c.153.207.391.539.54.742.148.207.39.535.539.738.148.207.386.531.539.735l.535.73c.152.203.39.524.539.727.148.199.39.52.539.718.148.2.387.516.539.715l.535.707c.149.196.39.508.54.7.148.195.39.503.538.695.149.195.387.5.54.691l.534.68.54.672c.148.187.39.484.539.668.148.183.386.476.535.656l.539.652c.148.18.39.465.539.641.148.176.387.457.539.633l.535.62.54.618c.148.168.39.438.538.602.149.168.387.43.54.593.148.164.386.426.534.586.153.16.391.414.54.575.148.156.39.406.539.562.148.152.386.398.539.55.148.153.386.391.535.54.152.148.39.387.539.531.148.145.39.375.539.516.148.144.387.367.539.508.148.136.387.359.535.492.152.136.39.351.54.48.148.133.39.34.538.469s.387.332.54.457c.148.125.386.32.534.441.153.121.391.313.54.43.148.117.39.305.539.418.148.113.386.293.539.402.148.11.386.286.535.391.152.105.39.273.539.375a43 43 0 0 0 1.613 1.04 28 28 0 0 0 1.617.913c.149.078.387.2.535.274s.391.187.54.257a31.55 31.55 0 0 0 1.074.473c.152.063.39.156.539.215.148.055.39.144.539.195.148.055.387.137.539.184.148.047.387.12.535.168.152.043.39.11.54.148a21.804 21.804 0 0 0 1.078.258c.148.031.386.074.534.102.153.027.391.066.54.09.148.019.39.054.539.07.148.02.386.043.539.054.148.016.386.032.535.043.152.008.39.02.539.024.148.004.39.008.539.008.148 0 .387-.004.539-.008.148-.004.387-.016.535-.024.152-.011.39-.027.54-.043.148-.011.39-.035.538-.054.149-.016.387-.051.54-.07a26 26 0 0 0 1.074-.192c.148-.031.39-.086.539-.121a27.311 27.311 0 0 0 1.074-.285l.539-.168c.148-.047.39-.13.539-.184.148-.05.387-.14.539-.195.148-.059.387-.152.535-.215.152-.062.39-.164.54-.23.148-.063.39-.172.538-.243.149-.07.387-.183.54-.257a35 35 0 0 0 1.074-.563c.148-.082.39-.219.539-.305.148-.086.386-.226.535-.32.152-.09.39-.238.539-.332.148-.094.39-.246.539-.348.148-.097.39-.257.539-.359.148-.102.387-.27.535-.375.152-.105.39-.281.54-.39.148-.11.39-.29.538-.403s.387-.3.54-.418c.148-.117.386-.309.534-.43.153-.12.391-.316.54-.441.148-.125.39-.328.539-.457l.539-.469c.148-.129.386-.344.535-.48.152-.133.39-.356.539-.492.148-.141.39-.364.539-.508.148-.14.387-.371.539-.516.148-.144.387-.383.535-.531.152-.149.39-.387.54-.54l.538-.55c.149-.156.387-.406.54-.562l.534-.575c.153-.16.391-.422.54-.586.148-.164.39-.425.539-.593.148-.164.386-.434.539-.602l.535-.617c.152-.172.39-.45.539-.621.148-.176.39-.457.539-.633l.539-.64c.148-.18.387-.47.535-.653.153-.18.39-.473.54-.656.148-.184.39-.48.538-.668.149-.184.387-.485.54-.672l.535-.68c.152-.191.39-.496.539-.691.148-.192.39-.5.539-.696.148-.19.386-.503.539-.699l.535-.707c.148-.199.39-.515.539-.715.148-.199.39-.52.539-.718.148-.203.387-.524.535-.727.152-.203.39-.527.54-.73.148-.204.39-.528.538-.735.149-.203.387-.531.54-.738.148-.203.386-.535.534-.742.153-.207.391-.54.54-.746.148-.207.39-.54.539-.75.148-.207.386-.543.539-.75l.535-.758c.152-.207.39-.547.539-.758l.539-.758c.148-.21.387-.55.539-.761l.535-.762c.152-.211.39-.551.54-.762.148-.215.39-.555.538-.766l.54-.765"/><use xlink:href="#d" x="208.266" y="71.804"/><use xlink:href="#e" x="213.412" y="71.804"/><use xlink:href="#f" x="217.582" y="71.804"/><use xlink:href="#g" x="220.079" y="71.804"/><use xlink:href="#h" x="10.62" y="9.556"/><use xlink:href="#e" x="18.755" y="9.556"/><use xlink:href="#i" x="22.925" y="9.556"/><use xlink:href="#g" x="26.38" y="9.556"/></svg>