<svg xmlns="http://www.w3.org/2000/svg" xmlns:xlink="http://www.w3.org/1999/xlink" width="223.555" height="225.574"><defs><path id="a" d="M.531-2.547a.33.33 0 0 0 0 .438h4.735a.33.33 0 0 0 0-.438Zm0 0"/><path id="b" d="M1.922-5.094 1.047-.687C1-.437.859-.297.5-.266l-.281.032c-.047.03-.063.172-.016.25C.593.016.922 0 1.266 0s.75.016 1.14.016c.031-.032.063-.22.031-.25l-.312-.032c-.344-.03-.437-.14-.39-.421l.874-4.407c.047-.25.188-.375.547-.406l.281-.031c.032-.032.047-.188.016-.266-.406.016-.719.016-1.078.016-.328 0-.734 0-1.125-.016-.031.047-.062.219-.031.266l.297.031c.359.016.453.14.406.406m0 0"/><path id="d" d="M3.5-5.86c-.219 0-.75.079-1.094.079s-.672 0-1.078-.016l-.031.016-.031.187c-.016.047 0 .063.046.063l.329.015c.125.016.312.079.312.282 0 .03 0 .062-.016.093l-.874 4.5c-.047.25-.172.36-.547.375l-.22.032C.25-.234.22-.22.22-.172L.172 0l.031.016C.593.016.953 0 1.297 0c.328 0 .687.016 1.078.016L2.406 0l.031-.172c0-.047-.015-.062-.062-.062l-.219-.032C1.875-.28 1.75-.344 1.75-.53c0-.031 0-.063.016-.11l.39-1.968c.703 0 .86.14.953.343l.61 1.563c.172.422.469.797.984.797.125 0 .281-.016.375-.063l.031-.218c-.39 0-.546-.313-.703-.688L3.703-2.75c.39-.14 1.25-.594 1.438-1.531.03-.125.03-.235.03-.344a1.17 1.17 0 0 0-.28-.781c-.328-.407-.86-.453-1.391-.453m-.047.313c.453 0 .969.156.969.875 0 .11-.016.25-.047.39-.219 1.126-.906 1.376-1.75 1.376h-.422l.438-2.235c.046-.265.203-.406.812-.406m0 0"/><path id="h" d="M2.672.047c.11.11.344.11.453 0V-2.11h2.14a.33.33 0 0 0 0-.438h-2.14v-2.156c-.11-.11-.344-.11-.453 0v2.156H.532a.33.33 0 0 0 0 .438h2.14Zm0 0"/><path id="c" d="M1.063-4.61c-.266 0-.641-.015-.922-.015-.047.031-.047.188 0 .234.5.016.625.047.625.641v2.875c0 .594-.125.625-.625.656-.047.047-.047.188 0 .235C.42 0 .797 0 1.063 0c.265 0 .453.016 1.046.016 1.422 0 1.813-.72 1.813-1.328 0-.688-.485-1.079-1.11-1.266v-.016c.36-.172.688-.547.688-.937 0-.469-.219-1.094-1.547-1.094-.25 0-.64.016-.89.016m.296 2.235h.5c.985 0 1.391.547 1.391 1.188 0 .53-.203.968-1.297.968-.5 0-.594-.187-.594-.625Zm0-1.562c0-.376 0-.454.625-.454.407 0 .922.22.922.954 0 .609-.422.812-1.015.812h-.532Zm0 0"/><path id="e" d="M2.563.078C3.25.078 3.89-.25 4.375-.89A.19.19 0 0 0 4.203-1c-.5.563-.984.781-1.656.781-.969 0-1.625-1.093-1.625-2.14 0-.61.156-1.125.422-1.453.36-.438.765-.626 1.14-.626.985 0 1.375.579 1.563 1.204.094.015.156 0 .234-.047a10 10 0 0 0-.156-1.11c-.36-.03-.687-.312-1.562-.312-.61 0-1.11.219-1.547.61-.47.437-.75 1.124-.75 1.874 0 1.25.75 2.297 2.297 2.297m0 0"/><path id="o" d="M2.063-.875v-2.484c0-.422 0-.86.015-.953 0-.032-.015-.032-.031-.032-.406.235-.781.422-1.406.703a.33.33 0 0 0 .109.204c.328-.141.484-.188.61-.188.124 0 .156.172.156.422v2.328c0 .594-.203.625-.703.656-.047.047-.047.188 0 .235C1.172 0 1.422 0 1.813 0c.343 0 .515 0 .875.016.03-.047.03-.188 0-.235-.5-.031-.626-.062-.626-.656m0 0"/><path id="j" d="M2.234-.39q1.11.001 1.11-2.516 0-2.515-1.11-2.516-1.094.001-1.093 2.516c0 1.68.363 2.515 1.093 2.515m-.03.5q-.88 0-1.376-.75Q.296-1.42.297-2.907.296-4.39.875-5.187q.516-.734 1.406-.735.873.001 1.375.734.516.798.516 2.282 0 1.47-.563 2.265-.515.75-1.406.75m0 0"/><path id="k" d="M.89-.937a.53.53 0 0 1 .423.218q.17.204.171.578-.002.592-.39.985c-.211.226-.414.344-.61.344-.093 0-.164-.086-.203-.25q.574-.3.61-.891a.5.5 0 0 1-.344-.125.48.48 0 0 1-.14-.36q0-.217.14-.359a.47.47 0 0 1 .344-.14m0 0"/><path id="l" d="M3.703-4.781a1.1 1.1 0 0 0-.328-.407 1.2 1.2 0 0 0-.734-.25c-.918 0-1.414.79-1.485 2.36a1.95 1.95 0 0 1 1.219-.406q.78 0 1.219.375.515.421.515 1.265-.001.798-.5 1.344-.532.61-1.359.61C1.625.11 1.148-.157.828-.688Q.36-1.42.36-2.72.357-3.966.953-4.875c.445-.695 1.063-1.047 1.844-1.047q.621.002.984.203.312.205.313.469c0 .25-.133.406-.39.469M1.156-2.625q.029 1.127.344 1.703.31.533.813.531.451.001.734-.343c.195-.239.297-.582.297-1.032q-.001-1.202-1.016-1.203-.75.002-1.172.344m0 0"/><path id="m" d="M5.844-6.172c.008.024.015.047.015.078q0 .253-.312.313l-.234.062L3.28 0h-.734L.453-5.719l-.375-.093q-.124-.029-.125-.11c0-.05.035-.133.094-.25h2v.078c0 .157-.102.262-.297.313l-.375.078 1.64 4.797h.016L4.734-5.72l-.687-.11q-.127-.029-.125-.093 0-.075.094-.25Zm0 0"/><clipPath id="f"><path d="M134 .012h15V13h-15Zm0 0"/></clipPath><clipPath id="g"><path d="M203 .012h16V13h-16Zm0 0"/></clipPath><clipPath id="i"><path d="M169 224h14v1.137h-14Zm0 0"/></clipPath><clipPath id="n"><path d="M64 .012h15V13H64Zm0 0"/></clipPath></defs><path fill="none" stroke="#000" stroke-miterlimit="10" stroke-width=".39820599" d="M1.781 127.602h30.934m7.922 0H71.57"/><path fill="none" stroke="#000" stroke-miterlimit="10" stroke-width=".79541397" d="M32.715 115.719v23.765m7.922-23.765v23.765"/><path fill="#FFF" stroke="#000" stroke-miterlimit="10" stroke-width=".39820599" d="M3.367 127.602a1.584 1.584 0 1 0-3.167.003 1.584 1.584 0 0 0 3.167-.003Zm0 0"/><path fill="none" stroke="#000" stroke-miterlimit="10" stroke-width=".39820599" d="M211.152 214.84h-34.894m0 0h-34.899"/><use xlink:href="#a" x="214.33" y="216.113"/><path fill="#FFF" stroke="#000" stroke-miterlimit="10" stroke-width=".39820599" d="M212.734 214.84a1.584 1.584 0 1 0-3.167-.005 1.584 1.584 0 0 0 3.167.005Zm0 0"/><path fill="none" stroke="#000" stroke-miterlimit="10" stroke-width=".79541397" d="M149.348 127.602c0-8.11-6.575-14.688-14.688-14.688-8.11 0-14.687 6.578-14.687 14.688 0 8.113 6.578 14.687 14.687 14.687 8.113 0 14.688-6.574 14.688-14.687Zm0 0"/><path fill="none" stroke="#000" stroke-miterlimit="10" stroke-width=".39820599" d="M141.36 105.621v13.27l-11.88 5.445"/><path fill="none" stroke="#000" stroke-miterlimit="10" stroke-width=".79541397" d="M129.48 118.89v17.426"/><path fill="none" stroke="#000" stroke-miterlimit="10" stroke-width=".39820599" d="m129.48 130.871 11.88 5.445v13.27"/><path d="m133.664 132.79.95-2.075 3.687 4.2-5.586-.052Zm0 0"/><path fill="none" stroke="#000" stroke-miterlimit="10" stroke-width=".39820599" d="M129.48 127.602h-12.082M71.57 127.602h23.016m0 0h23.012"/><path stroke="#000" stroke-miterlimit="10" stroke-width=".39820599" d="M92.852 127.602v1.98l4.207-1.98-4.207-1.98Zm0 0"/><use xlink:href="#b" x="91.03" y="122.528"/><use xlink:href="#c" x="93.544" y="124.407"/><path fill="none" stroke="#000" stroke-miterlimit="10" stroke-width=".39820599" d="M141.36 5.473v27.773m0 31.688v27.773"/><path fill="none" stroke="#000" stroke-miterlimit="10" stroke-width=".79541397" d="M135.422 64.934V33.246H147.3v31.688Zm0 0"/><path stroke="#000" stroke-miterlimit="10" stroke-width=".39820599" d="M142.945 92.707a1.584 1.584 0 1 0-3.167.003 1.584 1.584 0 0 0 3.167-.003Zm0 0"/><use xlink:href="#d" x="149.505" y="51.238"/><use xlink:href="#e" x="154.777" y="53.117"/><path stroke="#000" stroke-miterlimit="10" stroke-width=".39820599" d="M141.36 77.086h-1.977l1.976 4.21 1.98-4.21Zm0 0"/><use xlink:href="#b" x="130.655" y="80.74"/><use xlink:href="#e" x="133.169" y="82.619"/><path fill="none" stroke="#000" stroke-miterlimit="10" stroke-width=".39820599" d="M141.36 5.473h34.898m0 0h34.894"/><path d="M142.945 5.473c0-.875-.71-1.586-1.586-1.586a1.583 1.583 0 1 0 1.586 1.586m0 0"/><g clip-path="url(#f)"><path fill="none" stroke="#000" stroke-miterlimit="10" stroke-width=".39820599" d="M142.945 5.473c0-.875-.71-1.586-1.586-1.586a1.583 1.583 0 1 0 1.586 1.586Zm0 0"/></g><path fill="#FFF" d="M212.734 5.473a1.584 1.584 0 1 0-3.167-.005 1.584 1.584 0 0 0 3.167.005m0 0"/><g clip-path="url(#g)"><path fill="none" stroke="#000" stroke-miterlimit="10" stroke-width=".39820599" d="M212.734 5.473a1.584 1.584 0 1 0-3.167-.005 1.584 1.584 0 0 0 3.167.005Zm0 0"/></g><use xlink:href="#h" x="214.33" y="7.799"/><path fill="none" stroke="#000" stroke-miterlimit="10" stroke-width=".39820599" d="M141.36 75.262v15.277m0 0v15.281M141.36 92.707h30.937m7.918 0h30.937"/><path fill="none" stroke="#000" stroke-miterlimit="10" stroke-width=".79541397" d="M172.297 80.824v23.766m7.918-23.766v23.766"/><path stroke="#000" stroke-miterlimit="10" stroke-width=".39820599" d="M142.945 92.707a1.584 1.584 0 1 0-3.167.003 1.584 1.584 0 0 0 3.167-.003Zm0 0"/><path fill="#FFF" stroke="#000" stroke-miterlimit="10" stroke-width=".39820599" d="M212.734 92.707a1.584 1.584 0 1 0-3.168.003 1.584 1.584 0 0 0 3.168-.003Zm0 0"/><path fill="none" stroke="#000" stroke-miterlimit="10" stroke-width=".39820599" d="M176.258 214.84v9.902"/><g clip-path="url(#i)"><path fill="none" stroke="#000" stroke-linecap="round" stroke-miterlimit="10" stroke-width=".79541397" d="M170.316 224.742h11.88"/></g><path stroke="#000" stroke-miterlimit="10" stroke-width=".39820599" d="M177.84 214.84c0-.875-.711-1.586-1.582-1.586a1.584 1.584 0 1 0 1.582 1.586ZM142.945 214.84c0-.875-.71-1.586-1.586-1.586a1.583 1.583 0 1 0 1.586 1.586Zm0 0"/><path fill="none" stroke="#000" stroke-miterlimit="10" stroke-width=".39820599" d="M1.781 214.84h69.79m0 0h69.788"/><path fill="#FFF" stroke="#000" stroke-miterlimit="10" stroke-width=".39820599" d="M3.367 214.84a1.584 1.584 0 1 0-3.168-.004 1.584 1.584 0 0 0 3.168.004Zm0 0"/><path stroke="#000" stroke-miterlimit="10" stroke-width=".39820599" d="M142.945 214.84c0-.875-.71-1.586-1.586-1.586a1.583 1.583 0 1 0 1.586 1.586Zm0 0"/><path fill="none" stroke="#000" stroke-miterlimit="10" stroke-width=".39820599" d="M141.36 149.387v32.726m0 0v32.727M106.465 140.64v61.165"/><path stroke="#000" stroke-miterlimit="10" stroke-width=".39820599" d="M106.465 197.594h-1.98l1.98 4.21 1.98-4.21Zm0 0"/><use xlink:href="#j" x="89.751" y="173.717"/><use xlink:href="#k" x="94.226" y="173.717"/><use xlink:href="#l" x="96.078" y="173.717"/><use xlink:href="#m" x="102.038" y="173.717"/><path fill="none" stroke="#000" stroke-miterlimit="10" stroke-width=".39820599" d="M36.676 40.367V26.88m0-7.922V5.473M36.676 40.367v9.899"/><path fill="none" stroke="#000" stroke-linecap="round" stroke-miterlimit="10" stroke-width=".79541397" d="M30.734 50.266h11.883"/><path fill="none" stroke="#000" stroke-miterlimit="10" stroke-width=".79541397" d="M24.797 26.879h23.762m-23.762-7.922h23.762"/><path fill="none" stroke="#000" stroke-miterlimit="10" stroke-width=".39820599" d="M36.676 5.473h104.683M71.57 127.602V82.379m0-31.684V5.473"/><path fill="none" stroke="#000" stroke-miterlimit="10" stroke-width=".79541397" d="M77.512 50.695V82.38H65.629V50.695Zm0 0"/><path stroke="#000" stroke-miterlimit="10" stroke-width=".39820599" d="M73.156 127.602a1.584 1.584 0 1 0-3.167.003 1.584 1.584 0 0 0 3.167-.003Zm0 0"/><path d="M73.156 5.473a1.584 1.584 0 1 0-3.168-.004 1.584 1.584 0 0 0 3.168.004m0 0"/><g clip-path="url(#n)"><path fill="none" stroke="#000" stroke-miterlimit="10" stroke-width=".39820599" d="M73.156 5.473a1.584 1.584 0 1 0-3.168-.004 1.584 1.584 0 0 0 3.168.004Zm0 0"/></g><use xlink:href="#d" x="79.717" y="68.685"/><use xlink:href="#o" x="84.988" y="70.564"/></svg>