<svg xmlns="http://www.w3.org/2000/svg" width="35.436" height="44.451"><defs><clipPath id="a"><path d="M0 .078h34.879v43.754H0Zm0 0"/></clipPath><clipPath id="b"><path d="M13 29h15v14.832H13Zm0 0"/></clipPath><clipPath id="c"><path d="M13 .078h16V23H13Zm0 0"/></clipPath><clipPath id="d"><path d="M27 21h1v22.832h-1Zm0 0"/></clipPath><clipPath id="e"><path d="M21 22h13.879v15H21Zm0 0"/></clipPath></defs><g clip-path="url(#a)"><path fill="none" stroke="#000" stroke-miterlimit="10" stroke-width=".7845110100000001" d="M34.488 21.957c0 8.66-7.02 15.68-15.68 15.68s-15.683-7.02-15.683-15.68S10.148 6.273 18.809 6.273s15.68 7.024 15.68 15.684Zm0 0"/></g><g clip-path="url(#b)"><path fill="none" stroke="#000" stroke-miterlimit="10" stroke-width=".39274767000000005" d="M27.738 43.637v-14.16H14.063"/></g><path fill="none" stroke="#000" stroke-miterlimit="10" stroke-width=".7845110100000001" d="M14.063 32.7V11.214"/><g clip-path="url(#c)"><path fill="none" stroke="#000" stroke-miterlimit="10" stroke-width=".39274767000000005" d="M14.063 21.957h13.87m-13.87-7.52h13.675V.274"/></g><path fill="none" stroke="#000" stroke-miterlimit="10" stroke-width=".7845110100000001" d="M10.781 29.672V14.238"/><path d="M17.629 21.957v2.25l5.031-2.25-5.031-2.254Zm0 0"/><path fill="none" stroke="#000" stroke-miterlimit="10" stroke-width=".39274767000000005" d="M10.781 29.477H.195"/><g clip-path="url(#d)"><path fill="none" stroke="#000" stroke-miterlimit="10" stroke-width=".39274767000000005" d="M27.738 21.957v21.484"/></g><path d="M28.832 29.477a1.094 1.094 0 1 1-2.186-.001 1.094 1.094 0 0 1 2.186 0m0 0"/><g clip-path="url(#e)"><path fill="none" stroke="#000" stroke-miterlimit="10" stroke-width=".39274767000000005" d="M28.832 29.477a1.094 1.094 0 1 1-2.186-.001 1.094 1.094 0 0 1 2.186 0Zm0 0"/></g></svg>