<svg xmlns="http://www.w3.org/2000/svg" xmlns:xlink="http://www.w3.org/1999/xlink" width="227.061" height="164.121"><defs><path id="i" d="M4.484-1.937c0-.125-.046-.25-.203-.25-.11 0-.187.078-.203.187-.031.328-.234.875-.656.875-.61 0-1.016-1.094-1.86-1.094C.735-2.219.517-1.203.517-.984c0 .125.046.25.203.25.11 0 .187-.079.203-.188.031-.344.234-.875.64-.875.626 0 1.032 1.078 1.86 1.078s1.062-1.015 1.062-1.219m0-1.594c0-.125-.046-.25-.203-.25-.11 0-.187.078-.203.187-.031.344-.234.875-.656.875-.61 0-1.016-1.078-1.86-1.078C.735-3.797.517-2.78.517-2.562c0 .124.046.25.203.25.11 0 .187-.094.203-.188.031-.344.234-.89.64-.89.626 0 1.032 1.093 1.86 1.093S4.484-3.328 4.484-3.53m0 0"/><path id="j" d="m3.563-.422-.126-.125c-.187.188-.28.203-.421.203-.203 0-.235-.25-.282-1.187L2.61-4.063c-.03-.843-.39-.921-.578-.921-.265 0-.531.218-.765.5l.078.109a.93.93 0 0 1 .515-.172c.188 0 .407.14.47 1.14v.298L.155 0l.14.078C.454.031.626 0 .814 0l1.546-2.594.079 1.688c.03.672.124.984.453.984.187 0 .484-.234.672-.5m0 0"/><path id="k" d="M.438-3.344c0 .156.14.281.28.281.126 0 .345-.124.345-.28 0-.063-.016-.11-.032-.157-.015-.047-.062-.11-.062-.172 0-.172.187-.437.703-.437.266 0 .625.187.625.875 0 .453-.156.828-.578 1.25l-.532.515C.485-.75.375-.406.375.016c0 0 .36-.016.594-.016h1.25c.219 0 .547.016.547.016.093-.375.172-.922.172-1.125-.032-.047-.126-.047-.204-.047-.125.515-.25.687-.5.687H.97c0-.343.484-.828.531-.86l.719-.687c.406-.39.703-.718.703-1.25 0-.78-.625-1.093-1.203-1.093-.797 0-1.281.593-1.281 1.015m0 0"/><path id="m" d="M.047-4.281V-.72c0 .11.094.203.203.203s.203-.093.203-.203V-4.28a.197.197 0 0 0-.203-.203.197.197 0 0 0-.203.203M-.61-.72c0-.031 0-.062-.032-.11l-1.968-3.546c-.032-.078-.094-.11-.172-.11a.2.2 0 0 0-.188.11L-4.938-.828c-.015.047-.015.078-.015.11 0 .109.078.202.203.202a.22.22 0 0 0 .172-.093l1.797-3.25L-.984-.61c.03.062.093.093.172.093A.197.197 0 0 0-.61-.719m0 0"/><path id="n" d="M.094-2.031c0-.688-.703-1.735-2.797-1.735-.89 0-1.64.22-2.156.61-.313.234-.578.61-.578 1.094 0 .874 1.046 1.718 2.812 1.718.953 0 1.844-.297 2.344-.797q.375-.374.375-.89m-5.219-.031c0-.157.047-.297.14-.407.235-.281.923-.515 2.11-.515.828 0 1.39.015 1.844.14.734.203.812.64.812.797 0 .828-1.531.922-2.312.922-2.188 0-2.594-.547-2.594-.937m0 0"/><path id="o" d="M-.844-.922c0 .266.188.469.438.469.265 0 .36-.234.39-.39.016-.173.063-.329.282-.329.187 0 .593.328.703.781.094 0 .156-.015.219-.078C1.094-1 .656-1.516.03-1.516c-.531 0-.875.235-.875.594m0 0"/><path id="p" d="M-1.687-2.844c.843 0 1.468.438 1.468.985 0 .328-.218.453-.39.578-.157.125-.297.265-.297.453 0 .172.156.344.328.344.375 0 .672-.75.672-1.266 0-1.11-.813-1.89-1.938-1.89-.875 0-1.64.593-1.64 1.593 0 .39.078.719.14.875l-1.484-.172c.031-.328.078-.625.078-1.047 0-.265-.016-.578-.062-.937l-.61-.14-.031.062c.062.5.094.984.094 1.469 0 .328-.016.64-.032.953l2.563.312c-.172-.484-.219-.812-.219-1.14 0-.579.39-1.032 1.36-1.032m0 0"/><path id="q" d="M-2.75-1.016c0 .297.219.5.5.5a.49.49 0 0 0 .484-.5.477.477 0 0 0-.484-.484.48.48 0 0 0-.5.484m0 0"/><path id="r" d="m-.531-4.453-.156.156c.234.234.25.36.25.531 0 .266-.297.282-1.47.344l-3.171.156c-1.047.047-1.156.485-1.156.735 0 .328.28.656.625.953l.156-.11a1.1 1.1 0 0 1-.234-.64c0-.235.187-.516 1.421-.578l.391-.016L0-.187.11-.36C.03-.562.015-.781 0-1.016l-3.234-1.921 2.109-.11c.828-.047 1.234-.14 1.234-.562 0-.25-.296-.61-.64-.844m0 0"/><path id="s" d="m6-.484-.078-4.22h-.016L4.031-.077h-.5L1.687-4.75h-.015L1.594-.484l.625.125q.124.017.125.093c0 .032-.04.121-.11.266H.391v-.078Q.389-.324.688-.406l.39-.078.063-5.203-.547-.125c-.086-.008-.125-.04-.125-.094q0-.075.094-.25h1.406l1.937 4.922h.016l2-4.922h1.5a.2.2 0 0 1 .016.078q-.001.236-.313.312l-.422.079.078 5.203.61.125q.124.017.125.093 0 .048-.094.266H5.328a.16.16 0 0 1-.016-.078q-.002-.246.313-.328Zm0 0"/><path id="t" d="M4.344-3.422h-.032L3.141 0h-.72L.454-5.703l-.36-.094q-.126-.014-.124-.11 0-.074.094-.25h2v.079c0 .168-.102.273-.297.312l-.391.079L2.891-.875h.015l1.188-3.36-.469-1.468-.36-.094q-.126-.014-.124-.11 0-.074.093-.25h2v.079q-.002.253-.296.312l-.391.079L5.89-.875h.015l1.625-4.828-.703-.11c-.086-.007-.125-.039-.125-.093q-.001-.075.11-.25h1.78v.078q-.001.252-.296.328l-.219.047L6.141 0h-.72Zm0 0"/><path id="u" d="M3.188-5.531a1.8 1.8 0 0 0-.891-.25q-.518.001-.813.265-.28.269-.28.72 0 .391.234.655a2.3 2.3 0 0 0 .5.344l.843.453c.438.242.742.465.922.672q.359.41.36 1 0 .785-.516 1.266-.551.516-1.453.515a3.46 3.46 0 0 1-1.5-.359q-.047-.482-.047-1 0-.389.281-.39.075 0 .188.046l.218.938q.386.298.938.297.575 0 .89-.328.296-.295.297-.782-.002-.406-.296-.687-.204-.187-.907-.578l-.562-.313c-.344-.195-.602-.398-.766-.61Q.515-4.06.516-4.64q-.002-.749.547-1.187.515-.437 1.359-.438.764 0 1.375.329.03.643.031.859-.001.391-.265.39a.5.5 0 0 1-.204-.046Zm0 0"/><path id="y" d="m.781-3.797-.64-.078a.2.2 0 0 1-.016-.078q0-.246.328-.281l1.047-.11v2.813q-.002 1.048.906 1.047.684 0 1.094-.438v-2.875l-.64-.078a.2.2 0 0 1-.016-.078q0-.246.328-.281l1.062-.11v3.86l.641.078q.014.047.016.078 0 .252-.328.281l-1 .094v-.578h-.016c-.344.43-.797.64-1.36.64Q.782.11.782-1.484Zm.938-1.265a.43.43 0 0 1-.437-.453c0-.133.038-.243.124-.329a.43.43 0 0 1 .313-.125c.125 0 .226.043.312.125a.46.46 0 0 1 .125.328.45.45 0 0 1-.125.329.42.42 0 0 1-.312.125m1.515 0a.43.43 0 0 1-.437-.453q-.002-.2.125-.329a.43.43 0 0 1 .312-.125q.186.001.313.125a.46.46 0 0 1 .125.328.45.45 0 0 1-.125.329.42.42 0 0 1-.313.125m0 0"/><path id="z" d="M4.031-1.906H.421v-.469h3.61Zm0-1.297H.421v-.469h3.61Zm0 0"/><path id="v" d="M2.844-1.687c0 .843-.438 1.468-.985 1.468-.328 0-.453-.218-.578-.39-.125-.157-.265-.297-.453-.297-.172 0-.344.156-.344.328 0 .375.75.672 1.266.672 1.11 0 1.89-.813 1.89-1.938 0-.875-.593-1.64-1.593-1.64-.39 0-.719.078-.875.14l.172-1.484c.328.031.625.078 1.047.078.265 0 .578-.016.937-.062l.14-.61-.062-.031c-.5.062-.984.094-1.469.094-.328 0-.64-.016-.953-.032L.672-2.828c.484-.172.812-.219 1.14-.219.579 0 1.032.39 1.032 1.36m0 0"/><path id="w" d="M2.031.094c.688 0 1.735-.703 1.735-2.797 0-.89-.22-1.64-.61-2.156-.234-.313-.61-.578-1.094-.578-.874 0-1.718 1.046-1.718 2.812 0 .953.297 1.844.797 2.344q.375.375.89.375m.031-5.219c.157 0 .297.047.407.14.281.235.515.923.515 2.11 0 .828-.015 1.39-.14 1.844-.203.734-.64.812-.797.812-.828 0-.922-1.531-.922-2.312 0-2.188.547-2.594.938-2.594m0 0"/><path id="x" d="M4.078-1.047c.984-.328 1.734-1.25 1.734-2.312 0-1.328-.906-2.516-2.687-2.516-1.75 0-2.672 1.328-2.672 2.516 0 1.14.766 1.984 1.735 2.312l.03.438h-.984c-.421 0-.578 0-.625-.453a.27.27 0 0 0-.218 0C.39-.703.406-.344.453 0H2.36Q2.5 0 2.5-.14l-.062-1.141c-.829-.547-1.172-1.094-1.172-2.094 0-1.14.625-2.187 1.859-2.187C4.297-5.562 5-4.625 5-3.36c0 .953-.36 1.609-1.172 2.078L3.75-.125c0 .078.047.125.156.125h1.86c.03-.297.062-.703.062-1.062q-.093-.048-.234 0c-.047.453-.203.453-.547.453h-1Zm0 0"/><path id="A" d="M2.563-1.094v-3.093c0-.532.015-1.079.03-1.188 0-.047-.015-.047-.046-.047-.5.297-.969.531-1.75.89.015.095.047.188.125.235.422-.156.61-.219.781-.219.156 0 .172.22.172.516v2.906c0 .75-.234.797-.86.813-.046.062-.046.25 0 .297C1.454.016 1.782 0 2.25 0c.438 0 .656.016 1.094.016.062-.047.062-.235 0-.297-.625-.016-.781-.063-.781-.813m0 0"/><path id="B" d="M1.922-.953c0 .25.219.469.484.469a.48.48 0 0 0 .469-.47.47.47 0 0 0-.469-.468.474.474 0 0 0-.484.469m0-2.531c0 .265.219.484.484.484.25 0 .469-.219.469-.484a.48.48 0 0 0-.469-.47.484.484 0 0 0-.484.47m0 0"/><path id="C" d="M1.516-4.766h1.593c-.687 1.72-1.39 3.47-2 4.813l.063.062.61-.015c.515-1.516 1-3 2-5.438l-.141-.11a2.2 2.2 0 0 1-.688.095H1.11c-.296 0-.28-.079-.437-.125-.031 0-.031 0-.031.03-.016.438-.11.97-.188 1.423A.6.6 0 0 0 .734-4c.204-.703.5-.766.782-.766m0 0"/><clipPath id="a"><path d="M.137 84H36v31H.137Zm0 0"/></clipPath><clipPath id="b"><path d="M.137 98H10v2H.137Zm0 0"/></clipPath><clipPath id="c"><path d="M81 26h144.988v3H81Zm0 0"/></clipPath><clipPath id="d"><path d="M65 100h36v63.246H65Zm0 0"/></clipPath><clipPath id="e"><path d="M225 9h.988v1H225Zm0 0"/></clipPath><clipPath id="f"><path d="M82 9h143.988v1H82Zm0 0"/></clipPath><clipPath id="g"><path d="M216 2h9.988v16H216Zm0 0"/></clipPath><clipPath id="h"><path d="M225 7h.988v6H225Zm0 0"/></clipPath><clipPath id="l"><path d="M92 152h16v11.246H92Zm0 0"/></clipPath></defs><path fill="none" stroke="#000" stroke-miterlimit="10" stroke-width=".39687333" d="M24.29 99.094h10.37m15.016 0h14.836m0 0h4.468v3.308m0 11.262v3.305"/><g clip-path="url(#a)"><path fill="none" stroke="#000" stroke-miterlimit="10" stroke-width=".7927519900000001" d="M22.79 95.34H10.776c-.832 0-1.504 1.68-1.504 3.754s.672 3.754 1.504 3.754H22.79c.828 0 1.5-1.68 1.5-3.754s-.672-3.754-1.5-3.754"/></g><path fill="none" stroke="#000" stroke-miterlimit="10" stroke-width=".7927519900000001" d="M22.79 95.34c-.83 0-1.5 1.68-1.5 3.754s.67 3.754 1.5 3.754"/><path fill="none" stroke="#000" stroke-miterlimit="10" stroke-width=".39687333" d="M22.79 99.094h1.5"/><path fill="none" stroke="#000" stroke-linejoin="bevel" stroke-miterlimit="10" stroke-width=".7927519900000001" d="M34.262 98.937c0 2.07 1.18 3.754 2.636 3.754 1.454 0 2.633-1.683 2.633-3.754 0 2.07 1.18 3.754 2.637 3.754 1.453 0 2.633-1.683 2.633-3.754 0 2.07 1.18 3.754 2.637 3.754 1.453 0 2.632-1.683 2.632-3.754"/><path stroke="#000" stroke-miterlimit="10" stroke-width=".39687333" d="M61.621 99.094a1.579 1.579 0 1 0-3.157.001 1.579 1.579 0 0 0 3.157-.001Zm0 0"/><path fill="none" stroke="#000" stroke-linejoin="bevel" stroke-miterlimit="10" stroke-width=".7927519900000001" d="M68.824 102.004c2.07 0 3.754 1.351 3.754 3.016 0 1.664-1.683 3.011-3.754 3.011 2.07 0 3.754 1.352 3.754 3.016s-1.683 3.012-3.754 3.012"/><g clip-path="url(#b)"><path fill="none" stroke="#000" stroke-dasharray="2.9728995361000004 2.9728995361000004" stroke-miterlimit="10" stroke-width=".39687333" d="M9.273 99.094H.336"/></g><path fill="none" stroke="#000" stroke-miterlimit="10" stroke-width=".39687333" d="M60.043 99.094v6.965m0 3.949v6.96"/><path fill="none" stroke="#000" stroke-miterlimit="10" stroke-width=".7927519900000001" d="M65.965 106.059H54.12m11.844 3.949H54.12"/><path stroke="#000" stroke-miterlimit="10" stroke-width=".39687333" d="M61.621 116.969a1.579 1.579 0 0 0-3.156 0 1.58 1.58 0 0 0 1.578 1.582 1.58 1.58 0 0 0 1.578-1.582Zm0 0"/><path fill="none" stroke="#000" stroke-miterlimit="10" stroke-width=".39687333" d="M22.79 102.848v7.062m0 0v7.059h.75m0 0h11.12m15.016 0h14.836m0 0h11.172m0 0h6.703v-4.02m0-81.336V27.59"/><path stroke="#000" stroke-miterlimit="10" stroke-width=".39687333" d="M24.367 102.848a1.579 1.579 0 1 0-3.157 0 1.579 1.579 0 0 0 3.157 0Zm0 0"/><path fill="none" stroke="#000" stroke-linejoin="bevel" stroke-miterlimit="10" stroke-width=".7927519900000001" d="M34.262 117.129c0-2.074 1.18-3.754 2.636-3.754 1.454 0 2.633 1.68 2.633 3.754 0-2.074 1.18-3.754 2.637-3.754 1.453 0 2.633 1.68 2.633 3.754 0-2.074 1.18-3.754 2.637-3.754 1.453 0 2.632 1.68 2.632 3.754M82.547 113.344c-2.074 0-3.754-1.313-3.754-2.934 0-1.617 1.68-2.933 3.754-2.933-2.074 0-3.754-1.313-3.754-2.93 0-1.621 1.68-2.934 3.754-2.934-2.074 0-3.754-1.316-3.754-2.933 0-1.621 1.68-2.934 3.754-2.934-2.074 0-3.754-1.312-3.754-2.934 0-1.62 1.68-2.933 3.754-2.933-2.074 0-3.754-1.313-3.754-2.934 0-1.62 1.68-2.933 3.754-2.933-2.074 0-3.754-1.313-3.754-2.934 0-1.617 1.68-2.93 3.754-2.93-2.074 0-3.754-1.316-3.754-2.933 0-1.621 1.68-2.934 3.754-2.934-2.074 0-3.754-1.312-3.754-2.933s1.68-2.934 3.754-2.934c-2.074 0-3.754-1.312-3.754-2.934 0-1.62 1.68-2.933 3.754-2.933-2.074 0-3.754-1.313-3.754-2.934 0-1.617 1.68-2.933 3.754-2.933-2.074 0-3.754-1.313-3.754-2.934 0-1.617 1.68-2.93 3.754-2.93-2.074 0-3.754-1.316-3.754-2.933 0-1.621 1.68-2.934 3.754-2.934-2.074 0-3.754-1.312-3.754-2.933s1.68-2.934 3.754-2.934c-2.074 0-3.754-1.312-3.754-2.934 0-1.62 1.68-2.933 3.754-2.933"/><path stroke="#000" stroke-miterlimit="10" stroke-width=".39687333" d="M83.965 116.969a1.579 1.579 0 0 0-3.156 0 1.577 1.577 0 1 0 3.156 0Zm0 0"/><g clip-path="url(#c)"><path fill="none" stroke="#000" stroke-miterlimit="10" stroke-width="1.18962532" d="M82.387 27.59h143.011"/></g><path fill="none" stroke="#000" stroke-dasharray="2.9728995361000004 2.9728995361000004" stroke-miterlimit="10" stroke-width=".39687333" d="M75.684 112.95V72.28m0 0V31.613M34.66 108.031h7.508m0 0h7.508"/><g clip-path="url(#d)"><path fill="none" stroke="#000" stroke-miterlimit="10" stroke-width="1.18962532" d="M82.387 116.969c2.48 44.691-1.117 22.347.992 45.683"/></g><path fill="none" stroke="#999" stroke-miterlimit="10" stroke-width=".009946700000000001" d="M82.387 9.715"/><g clip-path="url(#e)"><path fill="none" stroke="#999" stroke-miterlimit="10" stroke-width=".009946700000000001" d="M225.398 9.715"/></g><g clip-path="url(#f)"><path fill="none" stroke="#000" stroke-miterlimit="10" stroke-width=".39687333" d="M82.684 9.715h142.418"/></g><path stroke="#000" stroke-miterlimit="10" stroke-width=".39687333" d="m83.18 9.715 2.96 1.754V7.96Zm0 0"/><path fill="none" stroke="#000" stroke-miterlimit="10" stroke-width=".39687333" d="M82.586 11.992V7.434"/><path d="m224.605 9.715-2.957-1.754v3.508Zm0 0"/><g clip-path="url(#g)"><path fill="none" stroke="#000" stroke-miterlimit="10" stroke-width=".39687333" d="m224.605 9.715-2.957-1.754v3.508Zm0 0"/></g><g clip-path="url(#h)"><path fill="none" stroke="#000" stroke-miterlimit="10" stroke-width=".39687333" d="M225.2 7.434v4.558"/></g><path fill="#FFF" d="M144.094 19.43h19.597V0h-19.597Zm0 0"/><use xlink:href="#i" x="147.066" y="12.163"/><use xlink:href="#j" x="155.73" y="7.882"/><path fill="none" stroke="#000" stroke-miterlimit="10" stroke-width=".57989261" d="M155.73 9.844h3.797"/><use xlink:href="#k" x="155.969" y="16.444"/><path fill="none" stroke="#999" stroke-miterlimit="10" stroke-width=".009946700000000001" d="M100.266 161.66"/><path fill="none" stroke="#000" stroke-miterlimit="10" stroke-width=".39687333" d="M100.266 117.27v44.093"/><path stroke="#000" stroke-miterlimit="10" stroke-width=".39687333" d="m100.266 117.762-1.754 2.96h3.508Zm0 0"/><path fill="none" stroke="#000" stroke-miterlimit="10" stroke-width=".39687333" d="M97.984 117.168h4.559"/><path d="m100.266 160.867 1.754-2.957h-3.508Zm0 0"/><g clip-path="url(#l)"><path fill="none" stroke="#000" stroke-miterlimit="10" stroke-width=".39687333" d="m100.266 160.867 1.754-2.957h-3.508Zm0 0"/></g><path fill="none" stroke="#000" stroke-miterlimit="10" stroke-width=".39687333" d="M102.543 161.465h-4.559"/><path fill="#FFF" d="M107.727 121.277v36.078h13.27v-36.078Zm0 0"/><use xlink:href="#m" x="116.836" y="154.382"/><use xlink:href="#n" x="116.836" y="146.907"/><use xlink:href="#o" x="116.836" y="142.76"/><use xlink:href="#n" x="116.836" y="140.798"/><use xlink:href="#p" x="116.836" y="136.651"/><use xlink:href="#q" x="116.836" y="131.017"/><use xlink:href="#r" x="116.836" y="128.995"/><use xlink:href="#s" x="31.723" y="127.654"/><use xlink:href="#t" x="39.58" y="127.654"/><use xlink:href="#u" x="48.124" y="127.654"/><use xlink:href="#v" x="8.784" y="92.073"/><use xlink:href="#w" x="12.931" y="92.073"/><use xlink:href="#x" x="18.558" y="92.073"/><use xlink:href="#y" x="86.809" y="75.206"/><use xlink:href="#z" x="93.81" y="75.206"/><use xlink:href="#A" x="100.196" y="75.206"/><use xlink:href="#B" x="106.814" y="75.206"/><use xlink:href="#C" x="113.993" y="75.206"/></svg>