<svg xmlns="http://www.w3.org/2000/svg" xmlns:xlink="http://www.w3.org/1999/xlink" width="228.314" height="71.264"><defs><clipPath id="a"><path d="M223 33h3.809v5H223Zm0 0"/></clipPath><clipPath id="b"><path d="M217 27h9.809v16H217Zm0 0"/></clipPath><clipPath id="c"><path d="M11 3h1v67.535h-1Zm0 0"/></clipPath><clipPath id="d"><path d="M11.66.195H226V70.34H11.66Zm0 0"/></clipPath><path id="e" d="m.938-3.812-.47.03c-.171.016-.234.079-.25.157a.5.5 0 0 0-.046.14c0 .016.031.016.062.016H.86L.313-1.047C.25-.766.188-.484.188-.313c0 .313.156.407.437.407.39 0 .984-.375 1.281-.922C1.875-.938 1.813-1 1.72-1c-.422.469-.578.563-.719.563a.12.12 0 0 1-.11-.125q0-.118.094-.563l.532-2.344h.859c.11-.031.188-.265.094-.344h-.875l.078-.39c.047-.172.125-.422.125-.531 0-.157-.078-.25-.36-.25-.312 0-.296.406-.39.734Zm0 0"/><path id="f" d="M1.813.094c1.75 0 2.359-1.125 2.656-2.719l.484-2.437c.047-.25.188-.375.547-.407l.219-.015c.047 0 .078-.032.078-.079l.047-.156-.016-.015c-.406 0-.75.015-.953.015-.187 0-.531-.015-.922-.015l-.015.015-.047.157c0 .046.03.078.062.078l.235.015c.28.016.39.094.39.282 0 .046 0 .078-.016.125l-.5 2.609c-.203.984-.562 2.172-2 2.172-.406 0-.718-.188-.921-.438-.188-.234-.25-.515-.25-.797 0-.28.062-.593.109-.875l.531-2.687c.047-.25.188-.36.547-.39l.219-.016c.047 0 .078-.032.078-.079l.031-.156-.015-.015c-.391 0-.75.015-1.094.015-.328 0-.672-.015-1.063-.015l-.03.015-.032.157c0 .046.016.078.062.078l.22.015c.28.016.405.094.405.282 0 .03 0 .062-.015.109L.25-2.094c-.031.235-.062.438-.062.625C.188-.187 1.14.094 1.813.094m0 0"/></defs><path fill="none" stroke="#000" stroke-miterlimit="10" stroke-width=".39492222000000005" d="M11.66 35.27h211.516"/><g clip-path="url(#a)"><path d="m226.219 35.27-2.946-1.747v3.489Zm0 0"/></g><g clip-path="url(#b)"><path fill="none" stroke="#000" stroke-miterlimit="10" stroke-width=".39492222000000005" d="m226.219 35.27-2.946-1.747v3.489Zm0 0"/></g><g clip-path="url(#c)"><path fill="none" stroke="#000" stroke-miterlimit="10" stroke-width=".39492222000000005" d="M11.66 70.34V3.633"/></g><path stroke="#000" stroke-miterlimit="10" stroke-width=".39492222000000005" d="M11.66.59 9.918 3.535h3.488Zm0 0"/><g clip-path="url(#d)"><path fill="none" stroke="#000" stroke-miterlimit="10" stroke-width=".78885466" d="m11.875 35.27.215-2.856.215-2.84.215-2.765.214-2.633.22-2.438.214-2.195.215-1.898.215-1.563.215-1.184.214-.777.215-.348.215.094.215.54.215.98.215 1.406.214 1.812.215 2.18.215 2.512.215 2.797.215 3.023.215 3.188.214 3.293.215 3.332.215 3.293.215 3.195.215 3.023.215 2.786.215 2.492.214 2.136.215 1.735.215 1.297.215.816.215.324.215-.191.214-.7.215-1.202.215-1.688.215-2.14.215-2.555.215-2.926.218-3.23.215-3.477.215-3.648.215-3.754.215-3.778.215-3.722.214-3.59.215-3.38.215-3.1.215-2.75.215-2.34.215-1.88.215-1.374.214-.836.215-.274.215.301.215.871.215 1.434.215 1.964.214 2.461.215 2.914.215 3.31.215 3.64.215 3.894.215 4.07.215 4.169.214 4.175.215 4.098.215 3.934.215 3.687.215 3.36.215 2.964.214 2.5.215 1.985.215 1.418.215.824.215.203.219-.426.214-1.043.215-1.652.215-2.227.215-2.761.215-3.239.215-3.652.214-4 .215-4.258.215-4.43.215-4.52.215-4.503.215-4.406.215-4.207.214-3.926.215-3.559.215-3.117.215-2.61.215-2.038.215-1.426.214-.785.215-.117.215.55.215 1.215.215 1.856.215 2.46.214 3.02.215 3.512.215 3.941.215 4.29.215 4.55.215 4.711.215 4.785.214 4.754.215 4.625.215 4.402.215 4.086.219 3.684.215 3.203.214 2.652.215 2.051.215 1.399.215.718.215.02.215-.68.214-1.367.215-2.031.215-2.656.215-3.223.215-3.727.215-4.156.214-4.5.215-4.75.215-4.902.215-4.957.215-4.903.215-4.753.215-4.504.214-4.157.215-3.73.215-3.219.215-2.64.215-2.012.215-1.336.214-.633.215.086.215.8.215 1.5.215 2.173.215 2.797.215 3.367.214 3.867.215 4.285.219 4.617.215 4.856.215 4.988.214 5.023.215 4.954.215 4.777.215 4.508.215 4.144.215 3.688.215 3.164.214 2.574.215 1.926.215 1.242.215.527.215-.187.215-.906.214-1.606.215-2.266.215-2.882.215-3.438.215-3.926.215-4.324.215-4.64.214-4.852.215-4.973.215-4.984.215-4.895.215-4.703.215-4.414.214-4.035.215-3.578.215-3.04.215-2.448.215-1.801.215-1.121.214-.418.215.289.22.992.214 1.668.215 2.313.215 2.906.214 3.437.215 3.895.215 4.273.215 4.559.215 4.754.215 4.844.215 4.84.214 4.734.215 4.527.215 4.23.215 3.852.215 3.387.215 2.86.214 2.273.215 1.644.215.985.215.3.215-.379.215-1.05.214-1.696.215-2.304.215-2.864.215-3.359.215-3.785.215-4.13.215-4.382.214-4.55.215-4.622.215-4.597.215-4.477.215-4.266.215-3.964.214-3.59.22-3.137.214-2.629.215-2.062.215-1.461.215-.832.214-.188.215.45.215 1.081.215 1.68.215 2.246.215 2.758.214 3.207.215 3.594.215 3.902.215 4.121.215 4.262.215 4.308.215 4.266.214 4.14.215 3.927.215 3.632.215 3.266.215 2.84.215 2.355.214 1.824.215 1.262.215.68.215.086.215-.504.215-1.078.215-1.625.214-2.137.215-2.59.215-2.996.215-3.336.215-3.597.218-3.786.215-3.894.215-3.926.215-3.867.215-3.734.215-3.528.215-3.246.214-2.906.215-2.504.215-2.055.215-1.57.215-1.059.215-.53.214.003.215.535.215 1.047.215 1.527.215 1.98.215 2.38.215 2.726.214 3.016.215 3.238.215 3.39.215 3.477.215 3.48.215 3.423.214 3.285.215 3.09.215 2.828.215 2.512.215 2.152.215 1.746.214 1.313.215.859.215.39.215-.078.215-.539.219-.984.214-1.402.215-1.782.215-2.129.215-2.418.215-2.66.215-2.836.215-2.96.214-3.016.215-3.012.215-2.941.215-2.813.215-2.633.215-2.394.214-2.117.215-1.793.215-1.442.215-1.062.215-.672.215-.27.214.13.215.523.215.894.215 1.25.215 1.563.215 1.847.215 2.086.214 2.282.215 2.418.215 2.507.215 2.547.215 2.528.215 2.46.214 2.344.215 2.176.215 1.973.219 1.726.215 1.453.215 1.153.214.832.215.504.215.172.215-.164.215-.485.215-.793.214-1.074.215-1.332.215-1.559.215-1.746.215-1.894.215-2.004.215-2.067.214-2.086.215-2.062.215-1.996.215-1.89.215-1.747.215-1.574.214-1.367.215-1.14.215-.895.215-.63.215-.367.215-.09.215.173.214.433.215.672.215.902.215 1.098.215 1.273.215 1.422.214 1.528.215 1.609.219 1.652.215 1.657.215 1.632.215 1.575.214 1.484.215 1.363.215 1.223.215 1.055.215.867.215.672.214.465.215.253.215.043.215-.168.215-.37.215-.555.215-.727.214-.883.215-1.011.215-1.122.215-1.199.215-1.258.215-1.289.214-1.285.215-1.265.215-1.211.215-1.137.215-1.043.215-.93.214-.797.215-.652.215-.5.215-.34.215-.172.215-.011.215.144.218.301.215.445.215.574.215.688.215.79.215.87.214.93.215.969.215.992.215.988.215.969.215.93.214.87.215.797.215.711.215.606.215.496.215.379.214.254.215.133h.215l.215-.118.215-.238.215-.348.215-.449.214-.539.215-.613.215-.684.215-.726.215-.762.215-.777.214-.782.215-.765.215-.738.215-.696.215-.637.215-.57.218-.492.215-.406.215-.309.215-.215.215-.113.215-.012.214.086.215.184.215.277.215.363.215.442.215.508.215.562.214.613.215.641.215.664.215.672.215.664.215.645.214.613.215.57.215.516.215.453.215.379.215.3.215.212.214.125.215.03.215-.058.215-.152.215-.238.215-.325.214-.402.215-.469.215-.535.215-.582.215-.625.219-.648.43-1.336.214-.657.215-.632.215-.594.215-.547.214-.488.215-.414.215-.336.215-.25.215-.156.215-.06.215.044.214.144.215.243.215.336.215.43.215.511.215.59.214.648.215.707.215.742.215.766.43 1.547.214.746.215.711.215.656.215.59.215.512.215.418.215.312.214.2.215.085.215-.043.219-.164.215-.289.215-.41.214-.523.215-.633.215-.73.215-.813.215-.883.215-.933.214-.97.43-1.96.215-.95.215-.906.215-.84.214-.757.215-.653.215-.53.215-.4.215-.253.215-.102.215.055.214.223.215.382.215.54.215.687.215.828.215.957.214 1.063.215 1.148.215 1.219.215 1.262.215 1.277.215 1.27.215 1.234.214 1.172.215 1.082.219.965.215.832.215.675.214.5.215.309.215.105.215-.101.215-.309.215-.523.215-.723.214-.918.215-1.094.215-1.25.215-1.39.215-1.5.215-1.582.214-1.63.215-1.644.215-1.629.215-1.578.215-1.488.215-1.367.215-1.219.214-1.035.215-.832.215-.602.215-.355.215-.098.215.168.214.438.215.703.215.957.215 1.2.215 1.417.215 1.613.214 1.782.22 1.91.214 2.004.215 2.058.215 2.067.215 2.039.214 1.96.215 1.844.215 1.684.215 1.484.215 1.254.215.989.215.703.214.39.215.067.215-.262.215-.598.215-.918.215-1.234.214-1.523.215-1.79.215-2.02.215-2.214.215-2.363.215-2.469.43-5.047.214-2.472.215-2.372.215-2.214.215-2.008.215-1.758.214-1.473.215-1.14.215-.785.215-.41.215-.016.215.383.218.777.215 1.168.215 1.539.215 1.879.215 2.183.215 2.457.214 2.672.215 2.844.215 2.95.215 3.003.215 2.988.215 2.915.214 2.78.215 2.583.215 2.328.215 2.02.215 1.671.215 1.278.215.855.214.406.215-.058.215-.524.215-.984.215-1.434.215-1.855.214-2.25.215-2.594.215-2.894.215-3.137.215-3.32.215-3.426.215-3.473.214-3.441.215-3.34.215-3.168.215-2.926.215-2.625.219-2.258.214-1.847.215-1.387.215-.898.215-.38.215.145.215.68.214 1.203.215 1.707.215 2.18.215 2.613.215 2.996.215 3.324.214 3.578.215 3.77.215 3.879.215 3.906.215 3.86.215 3.726.215 3.516.214 3.234.215 2.875.215 2.461.215 1.984.215 1.465.215.914.214.336.215-.258.215-.843.215-1.422.215-1.973.215-2.492.215-2.957.214-3.371.215-3.715.215-3.98.219-4.172.215-4.278.214-4.293.215-4.215.215-4.058.215-3.809.215-3.48.215-3.082.215-2.606.214-2.086.215-1.507.215-.899.215-.265.215.37.215 1.012.214 1.633.215 2.227.215 2.77.215 3.269.215 3.695.215 4.05.215 4.329.214 4.512.43 9.203.215 4.504.215 4.312.215 4.028.214 3.664.215 3.218.215 2.704.215 2.132.215 1.512.215.856.214.183.215-.496.215-1.172.219-1.828.215-2.441.215-3.016.214-3.52.215-3.964.215-4.317.215-4.594.215-4.765.215-4.844.215-4.824.214-4.7.215-4.48.215-4.168.215-3.77.215-3.284.215-2.739.214-2.133.215-1.476.215-.79.215-.085.215.621.215 1.316.214 1.989.215 2.62.215 3.2.215 3.715.215 4.152.215 4.504.215 4.766.214 4.925.215 4.989.215 4.945.215 4.797.215 4.559.215 4.214.214 3.793.215 3.285.219 2.708.215 2.082.215 1.406.215.699.214-.016.215-.734.215-1.441.215-2.118.215-2.746.215-3.324.214-3.828.215-4.254.215-4.598.215-4.84.215-4.98.215-5.027.215-4.961.214-4.797.215-4.535.215-4.172.215-3.734.215-3.211.215-2.621.214-1.985.215-1.305.215-.593.215.12.215.837.215 1.535.215 2.2.214 2.812.215 3.375.215 3.863.215 4.27.215 4.585.215 4.813.218 4.933.215 4.957.215 4.872.215 4.695.215 4.41.215 4.047.214 3.594.215 3.07.215 2.48.215 1.848.215 1.176.215.48.214-.222.215-.918.215-1.59.215-2.23.215-2.825.215-3.351.215-3.813.214-4.191.215-4.485.215-4.68.215-4.777.215-4.785.215-4.683.214-4.489.215-4.203.215-3.836.215-3.383.215-2.87.215-2.294.214-1.68.215-1.027.215-.359.215.309.215.972.215 1.613.218 2.211.215 2.766.215 3.258.215 3.68.215 4.023.215 4.285.215 4.453.214 4.532.215 4.511.215 4.403.215 4.203.215 3.914.215 3.55.214 3.118.215 2.617.215 2.07.215 1.485.215.87.215.247.214-.387.215-.996.215-1.59.215-2.144.215-2.645.215-3.094.215-3.472.214-3.778.215-4.004.215-4.14.215-4.196.215-4.16.215-4.043.214-3.843.215-3.563.215-3.21.215-2.802.219-2.332.215-1.82.214-1.277.215-.711.215-.137.215.438.215.996.215 1.527.214 2.023.215 2.477.215 2.867.215 3.2.215 3.46.215 3.653.215 3.757.214 3.793.215 3.747.215 3.625.215 3.425.215 3.164.215 2.832.214 2.454.215 2.023.215 1.559.215 1.062.215.559.215.039.215-.465.214-.965.215-1.43.215-1.863.215-2.254.215-2.594.215-2.875.214-3.093.215-3.246.215-3.329.219-3.34.215-3.288.215-3.165.214-2.976.215-2.734.215-2.434.215-2.09.215-1.707.215-1.297.214-.86.215-.413.215.035.215.476.215.903.215 1.305.215 1.667.214 2 .215 2.286.215 2.511.215 2.692.215 2.808.215 2.868.214 2.043"/></g><use xlink:href="#e" x="221.44" y="43.402"/><use xlink:href="#f" x="3.785" y="9.094"/></svg>