<svg xmlns="http://www.w3.org/2000/svg" xmlns:xlink="http://www.w3.org/1999/xlink" width="226.814" height="83.134"><defs><path id="d" d="M3.11-1.078v-3.39c0-.579.078-.907.406-.907h.187c.672 0 1.094.234 1.235.906.109 0 .234 0 .312-.047-.062-.406-.11-.859-.125-1.25 0-.015-.016-.03-.016-.03-.312.03-1.296.077-2 .077h-.75c-.687 0-1.734-.047-2.078-.078a.034.034 0 0 0-.031.031c-.031.391-.125.86-.219 1.282a.9.9 0 0 0 .297.046C.5-5.14.922-5.374 1.5-5.374h.438c.328 0 .421.328.421.875v3.422c0 .734-.156.781-.875.797-.046.062-.046.25 0 .297.438 0 .891-.016 1.25-.016.344 0 .782.016 1.235.016.047-.047.047-.235 0-.297-.719-.016-.86-.063-.86-.797m0 0"/><path id="e" d="M.547-4.156c0 .187.156.343.344.343.156 0 .422-.156.422-.343 0-.078-.016-.125-.032-.188-.015-.062-.078-.14-.078-.218 0-.22.234-.547.875-.547.328 0 .781.234.781 1.078 0 .562-.203 1.031-.734 1.562l-.656.656c-.86.876-1 1.313-1 1.829 0 0 .453-.016.734-.016H2.75c.281 0 .688.016.688.016.124-.47.203-1.141.218-1.407-.047-.03-.172-.062-.25-.03-.156.624-.312.843-.625.843H1.203c0-.422.61-1.031.656-1.078l.891-.86c.5-.484.89-.875.89-1.546 0-.954-.78-1.344-1.5-1.344-.984 0-1.593.718-1.593 1.25m0 0"/><path id="f" d="M1.906-5.11c.39 0 .735.235.735.813 0 .438-.516 1.125-1.391 1.25l.047.281c.156-.015.312-.015.422-.015.515 0 1.172.14 1.172 1.14 0 1.172-.797 1.422-1.11 1.422-.453 0-.531-.203-.64-.36C1.062-.702.938-.812.766-.812.578-.812.39-.64.39-.5c0 .344.75.594 1.28.594 1.048 0 2-.688 2-1.86 0-.968-.733-1.312-1.265-1.406v-.015c.735-.344.938-.704.938-1.172 0-.266-.063-.485-.281-.703-.204-.204-.5-.344-.97-.344-1.296 0-1.671.843-1.671 1.14 0 .125.078.297.297.297.312 0 .344-.297.344-.453 0-.578.609-.687.843-.687m0 0"/><path id="h" d="m.938-3.812-.47.03c-.171.016-.234.079-.25.157a.5.5 0 0 0-.046.14c0 .016.031.016.062.016H.86L.313-1.047C.25-.766.188-.484.188-.313c0 .313.156.407.437.407.39 0 .984-.375 1.281-.922C1.875-.938 1.813-1 1.72-1c-.422.469-.578.563-.719.563a.12.12 0 0 1-.11-.125q0-.118.094-.563l.532-2.344h.859c.11-.031.188-.265.094-.344h-.875l.078-.39c.047-.172.125-.422.125-.531 0-.157-.078-.25-.36-.25-.312 0-.296.406-.39.734Zm0 0"/><path id="i" d="M1.813.094c1.75 0 2.359-1.125 2.656-2.719l.484-2.437c.047-.25.188-.375.547-.407l.219-.015c.047 0 .078-.032.078-.079l.047-.156-.016-.015c-.406 0-.75.015-.953.015-.187 0-.531-.015-.922-.015l-.015.015-.047.157c0 .046.03.078.062.078l.235.015c.28.016.39.094.39.282 0 .046 0 .078-.016.125l-.5 2.609c-.203.984-.562 2.172-2 2.172-.406 0-.718-.188-.921-.438-.188-.234-.25-.515-.25-.797 0-.28.062-.593.109-.875l.531-2.687c.047-.25.188-.36.547-.39l.219-.016c.047 0 .078-.032.078-.079l.031-.156-.015-.015c-.391 0-.75.015-1.094.015-.328 0-.672-.015-1.063-.015l-.03.015-.032.157c0 .046.016.078.062.078l.22.015c.28.016.405.094.405.282 0 .03 0 .062-.015.109L.25-2.094c-.031.235-.062.438-.062.625C.188-.187 1.14.094 1.813.094m0 0"/><clipPath id="a"><path d="M1.078 50H223v1H1.078Zm0 0"/></clipPath><clipPath id="b"><path d="M216 43h9.555v15H216Zm0 0"/></clipPath><clipPath id="c"><path d="M27 15h2v67.277h-2Zm0 0"/></clipPath><clipPath id="g"><path d="M1.273 23H34v55H1.273Zm0 0"/></clipPath></defs><path fill="none" stroke="#7F7F7F" stroke-miterlimit="10" stroke-width=".19694831000000002" d="M81.305 52.508V48.3m53.351 4.207V48.3m53.356 4.207V48.3"/><g clip-path="url(#a)"><path fill="none" stroke="#000" stroke-miterlimit="10" stroke-width=".39488631" d="M1.273 50.406h220.649"/></g><path d="m224.965 50.406-2.945-1.746v3.488Zm0 0"/><g clip-path="url(#b)"><path fill="none" stroke="#000" stroke-miterlimit="10" stroke-width=".39488631" d="m224.965 50.406-2.945-1.746v3.488Zm0 0"/></g><g clip-path="url(#c)"><path fill="none" stroke="#000" stroke-miterlimit="10" stroke-width=".39488631" d="M27.95 82.078v-66.7"/></g><path stroke="#000" stroke-miterlimit="10" stroke-width=".39488631" d="m27.95 12.336-1.743 2.945h3.488Zm0 0"/><use xlink:href="#d" x="82.488" y="61.459"/><use xlink:href="#e" x="135.695" y="61.459"/><use xlink:href="#d" x="139.821" y="61.459"/><use xlink:href="#f" x="189.047" y="61.459"/><use xlink:href="#d" x="193.173" y="61.459"/><g clip-path="url(#g)"><path fill="none" stroke="#000" stroke-dasharray="2.9580151626999998 2.9580151626999998" stroke-miterlimit="10" stroke-width=".39488631" d="M-25.402 50.406s.386-4.117.535-5.61c.144-1.491.383-3.839.531-5.151.149-1.313.387-3.27.535-4.313.149-1.039.383-2.477.531-3.195.149-.715.387-1.582.536-1.965.148-.379.386-.7.535-.781.144-.078.383.058.531.21.148.157.387.61.535.907.149.3.383.902.531 1.25.149.347.387.941.536 1.25.148.308.386.765.53.972.15.208.388.442.536.516.148.07.387.063.535 0 .145-.058.383-.281.531-.45.149-.163.387-.526.536-.75.148-.222.382-.628.53-.847.15-.222.388-.574.536-.742s.387-.387.535-.465a1 1 0 0 1 .531-.097c.149.027.387.16.536.277.148.113.382.387.53.562.15.176.388.516.536.707.148.196.387.52.531.68.149.16.387.39.535.484.149.09.387.172.536.172.144 0 .382-.082.53-.172.15-.093.387-.324.536-.484.148-.16.383-.484.531-.68.149-.191.387-.53.535-.707.149-.175.387-.449.535-.562.145-.117.383-.25.532-.277.148-.024.386.02.535.097.148.078.383.297.531.465s.387.52.535.742c.149.219.387.625.532.848.148.223.386.586.535.75.148.168.386.39.535.45.144.062.383.07.531 0 .149-.075.387-.31.535-.517s.383-.664.532-.972c.148-.309.386-.903.535-1.25.148-.348.386-.95.535-1.25.144-.297.383-.75.531-.906.149-.153.387-.29.535-.211.149.082.383.402.531.78.149.384.387 1.25.536 1.966.148.718.386 2.156.53 3.195.15 1.043.388 3 .536 4.313s.387 3.66.535 5.152c.145 1.492.383 4.05.531 5.61.149 1.554.387 4.113.536 5.605.148 1.496.382 3.843.53 5.156.15 1.312.388 3.27.536 4.309.148 1.043.387 2.48.531 3.195.149.719.387 1.586.535 1.965.149.383.387.703.536.781.148.078.382-.055.53-.211.15-.156.388-.605.536-.906.148-.297.387-.903.531-1.25.149-.344.387-.942.535-1.25s.387-.766.536-.969c.144-.207.382-.445.53-.516.15-.074.387-.066.536-.003.148.062.383.285.531.449.149.168.387.531.535.75.149.222.387.629.532.851.148.219.386.57.535.739.148.168.386.386.535.464a1 1 0 0 0 .531.098c.149-.023.387-.156.535-.273s.387-.387.532-.567c.148-.176.386-.515.535-.707.148-.191.386-.515.535-.676.144-.164.383-.394.531-.484.149-.094.387-.176.535-.176s.383.082.532.176c.148.09.386.32.535.484.148.16.386.485.53.676.15.192.388.531.536.707.149.18.387.45.535.567s.383.25.531.273.387-.02.536-.098c.148-.078.386-.296.53-.464.15-.168.388-.52.536-.739.148-.222.387-.629.535-.851.145-.219.383-.582.531-.75.149-.164.387-.387.536-.45a.71.71 0 0 1 .53.004c.15.07.388.309.536.516.148.203.387.66.531.969.149.308.387.906.535 1.25.149.347.387.953.536 1.25.148.3.382.75.53.906.15.156.388.29.536.211s.387-.398.531-.781c.149-.38.387-1.246.535-1.965.149-.715.387-2.152.536-3.195.144-1.04.382-2.997.53-4.309.15-1.313.388-3.66.536-5.156.148-1.492.531-5.606.531-5.606"/></g><path fill="none" stroke="#000" stroke-miterlimit="10" stroke-width=".39488631" d="M27.95 50.406s.386-4.117.534-5.61c.149-1.491.387-3.839.532-5.151.148-1.313.386-3.27.535-4.313.148-1.039.386-2.477.535-3.195.148-.715.383-1.582.531-1.965.149-.379.387-.7.535-.781.149-.078.387.058.532.21.148.157.386.61.535.907.148.3.386.902.535 1.25.144.347.383.941.531 1.25.149.308.387.765.535.972.149.208.383.442.532.516.148.07.386.063.535 0 .148-.058.386-.281.531-.45.148-.163.387-.526.535-.75.149-.222.387-.628.535-.847.149-.222.383-.574.532-.742.148-.168.386-.387.535-.465a1 1 0 0 1 .53-.097c.15.027.388.16.536.277.149.113.387.387.535.562.145.176.383.516.531.707.149.196.387.52.536.68.148.16.382.39.53.484.15.09.388.172.536.172s.387-.082.531-.172c.149-.093.387-.324.535-.484s.387-.484.536-.68c.148-.191.382-.53.53-.707.15-.175.388-.449.536-.562.148-.117.383-.25.531-.277.149-.024.387.02.535.097.149.078.387.297.536.465.144.168.382.52.53.742.15.219.388.625.536.848s.383.586.531.75c.149.168.387.39.535.45.149.062.387.07.532 0 .148-.075.386-.31.535-.517.148-.207.387-.664.535-.972.148-.309.383-.903.531-1.25.149-.348.387-.95.535-1.25.149-.297.383-.75.532-.906.148-.153.386-.29.535-.211.148.082.386.402.535.78.144.384.383 1.25.531 1.966.149.718.387 2.156.535 3.195.149 1.043.383 3 .532 4.313.148 1.312.386 3.66.535 5.152.148 1.492.386 4.05.531 5.61.148 1.554.387 4.113.535 5.605.149 1.496.387 3.843.535 5.156s.383 3.27.532 4.309a64 64 0 0 0 .535 3.195c.148.719.383 1.586.53 1.965.15.383.388.703.536.781s.387-.055.535-.211c.145-.156.383-.605.532-.906.148-.297.386-.903.535-1.25.148-.344.382-.942.53-1.25.15-.309.388-.766.536-.969.149-.207.387-.445.531-.516.149-.074.387-.066.535-.003.149.062.387.285.536.449.148.168.382.531.53.75.15.222.388.629.536.851.148.219.383.57.531.739.149.168.387.386.535.464s.387.122.536.098c.144-.023.382-.156.53-.273.15-.118.388-.387.536-.567.148-.176.383-.515.531-.707s.387-.515.535-.676c.149-.164.387-.394.532-.484.148-.094.386-.176.535-.176.148 0 .387.082.535.176.148.09.383.32.531.484.149.16.387.485.535.676s.383.531.532.707c.148.18.386.45.535.567.148.117.386.25.535.273a1 1 0 0 0 .531-.098c.149-.078.387-.296.535-.464s.383-.52.532-.739c.148-.222.386-.629.535-.851.148-.219.386-.582.531-.75.148-.164.387-.387.535-.45.149-.062.387-.07.535.004.149.07.383.309.532.516.148.203.386.66.535.969.148.308.383.906.531 1.25.148.347.387.953.535 1.25.149.3.387.75.535.906.145.156.383.29.532.211.148-.078.386-.398.535-.781.148-.38.382-1.246.53-1.965.15-.715.388-2.152.536-3.195.149-1.04.387-2.997.531-4.309.149-1.313.387-3.66.535-5.156.149-1.492.387-4.051.536-5.606.148-1.558.382-4.117.53-5.61.15-1.491.388-3.839.536-5.151.148-1.313.383-3.27.531-4.313.149-1.039.387-2.477.535-3.195.149-.715.387-1.582.536-1.965.144-.379.382-.7.53-.781.15-.078.388.058.536.21.148.157.383.61.531.907.149.3.387.902.535 1.25.149.347.387.941.532 1.25.148.308.386.765.535.972.148.208.387.442.535.516.148.07.383.063.531 0 .149-.058.387-.281.535-.45.149-.163.383-.526.532-.75.148-.222.386-.628.535-.847.148-.222.387-.574.535-.742.144-.168.383-.387.531-.465s.387-.12.535-.097c.149.027.383.16.532.277.148.113.386.387.535.562.148.176.386.516.531.707.148.196.387.52.535.68s.387.39.535.484c.149.09.383.172.532.172.148 0 .386-.082.535-.172.148-.093.383-.324.531-.484s.387-.484.535-.68c.149-.191.387-.53.535-.707.145-.175.383-.449.532-.562.148-.117.386-.25.535-.277a1 1 0 0 1 .531.097c.148.078.387.297.535.465s.387.52.531.742c.149.219.387.625.536.848.148.223.386.586.535.75.148.168.382.39.53.45.15.062.388.07.536 0 .149-.075.383-.31.531-.517s.387-.664.535-.972c.149-.309.387-.903.536-1.25.144-.348.382-.95.53-1.25.15-.297.388-.75.536-.906.148-.153.383-.29.531-.211.149.082.387.402.535.78.149.384.387 1.25.532 1.966.148.718.386 2.156.535 3.195.148 1.043.387 3 .535 4.313s.383 3.66.531 5.152.387 4.05.535 5.61c.149 1.554.383 4.113.532 5.605.148 1.496.386 3.843.535 5.156.148 1.312.387 3.27.535 4.309.145 1.043.383 2.48.531 3.195.149.719.387 1.586.535 1.965.149.383.383.703.532.781.148.078.386-.055.535-.211.148-.156.387-.605.531-.906.148-.297.387-.903.535-1.25.149-.344.387-.942.535-1.25s.383-.766.532-.969c.148-.207.386-.445.535-.516a.71.71 0 0 1 .531-.003c.148.062.387.285.535.449.149.168.387.531.535.75.145.222.383.629.532.851.148.219.386.57.535.739.148.168.383.386.531.464s.387.122.535.098.387-.156.531-.273c.149-.118.387-.387.536-.567.148-.176.386-.515.535-.707.148-.191.383-.515.53-.676.15-.164.388-.394.536-.484.149-.094.383-.176.531-.176s.387.082.536.176c.148.09.386.32.535.484.144.16.382.485.53.676.15.192.388.531.536.707.149.18.383.45.531.567s.387.25.535.273a1 1 0 0 0 .532-.098c.148-.078.386-.296.535-.464.148-.168.387-.52.535-.739.148-.222.383-.629.531-.851.149-.219.387-.582.535-.75.149-.164.383-.387.532-.45.148-.062.386-.07.535.004.148.07.387.309.535.516.145.203.383.66.531.969s.387.906.535 1.25c.149.347.383.953.532 1.25.148.3.386.75.535.906.148.156.387.29.531.211.148-.078.387-.398.535-.781.149-.38.387-1.246.535-1.965.149-.715.383-2.152.532-3.195.148-1.04.386-2.997.535-4.309.148-1.313.383-3.66.531-5.156.148-1.492.387-4.051.535-5.606.149-1.558.387-4.117.535-5.61.145-1.491.383-3.839.532-5.151.148-1.313.386-3.27.535-4.313.148-1.039.383-2.477.531-3.195.148-.715.387-1.582.535-1.965.149-.379.387-.7.531-.781.149-.078.387.058.536.21.148.157.386.61.535.907.148.3.383.902.531 1.25.148.347.387.941.535 1.25.149.308.383.765.531.972.149.208.387.442.536.516.148.07.386.063.535 0 .144-.058.382-.281.53-.45.15-.163.388-.526.536-.75.149-.222.383-.628.531-.847.149-.222.387-.574.535-.742s.387-.387.532-.465c.148-.078.386-.12.535-.097.148.027.387.16.535.277.145.113.383.387.531.562s.387.516.535.707c.149.196.383.52.532.68.148.16.386.39.535.484.148.09.387.172.535.172.145 0 .383-.082.531-.172.149-.093.387-.324.535-.484s.383-.484.532-.68c.148-.191.386-.53.535-.707.148-.175.387-.449.531-.562.149-.117.387-.25.535-.277.149-.024.387.02.535.097.145.078.383.297.532.465.148.168.386.52.535.742.148.219.383.625.531.848s.387.586.535.75c.149.168.387.39.535.45.145.062.383.07.532 0 .148-.075.386-.31.535-.517.148-.207.383-.664.531-.972.148-.309.387-.903.535-1.25.149-.348.387-.95.531-1.25.149-.297.387-.75.536-.906.148-.153.386-.29.535-.211.144.082.383.402.531.78.148.384.387 1.25.535 1.966.149.718.383 2.156.531 3.195.149 1.043.387 3 .536 4.313.148 1.312.386 3.66.535 5.152.144 1.492.383 4.05.531 5.61.148 1.554.387 4.113.535 5.605.149 1.496.383 3.843.531 5.156s.387 3.27.536 4.309c.148 1.043.386 2.48.53 3.195.15.719.387 1.586.536 1.965.148.383.387.703.535.781.145.078.383-.055.531-.211s.387-.605.535-.906c.149-.297.383-.903.532-1.25.148-.344.386-.942.535-1.25.148-.309.387-.766.535-.969.145-.207.383-.445.531-.516.149-.074.387-.066.535-.003.149.062.383.285.532.449.148.168.386.531.535.75.148.222.387.629.531.851.149.219.387.57.535.739.149.168.387.386.535.464a1 1 0 0 0 .532.098c.148-.023.386-.156.535-.273.148-.118.383-.387.531-.567.149-.176.387-.515.535-.707s.387-.515.531-.676c.149-.164.387-.394.536-.484.148-.094.386-.176.535-.176.148 0 .383.082.531.176.148.09.387.32.535.484.149.16.387.485.531.676.149.192.387.531.536.707.148.18.386.45.535.567.144.117.383.25.531.273s.387-.02.535-.098.383-.296.531-.464.387-.52.536-.739c.148-.222.386-.629.53-.851.15-.219.388-.582.536-.75.148-.164.387-.387.535-.45a.71.71 0 0 1 .531.004c.149.07.387.309.536.516.148.203.386.66.53.969.15.308.388.906.536 1.25.148.347.387.953.535 1.25.145.3.383.75.531.906s.387.29.536.211c.148-.078.382-.398.53-.781.15-.38.387-1.246.536-1.965.148-.715.387-2.152.531-3.195.149-1.04.387-2.997.535-4.309s.387-3.66.535-5.156c.149-1.492.532-5.606.532-5.606"/><path fill="none" stroke="#000" stroke-dasharray="2.9580151626999998 2.9580151626999998" stroke-miterlimit="10" stroke-width=".39488631" d="M188.008 50.406s.386-4.117.535-5.61c.148-1.491.387-3.839.531-5.151.149-1.313.387-3.27.535-4.313.149-1.039.387-2.477.535-3.195.145-.715.383-1.582.532-1.965.148-.379.386-.7.535-.781.148-.078.383.058.531.21.149.157.387.61.535.907.149.3.387.902.532 1.25.148.347.386.941.535 1.25.148.308.386.765.535.972.148.208.383.442.531.516.149.07.387.063.535 0 .149-.058.387-.281.531-.45.149-.163.387-.526.536-.75.148-.222.386-.628.535-.847a8 8 0 0 1 .531-.742c.148-.168.387-.387.535-.465a1 1 0 0 1 .531-.097c.149.027.387.16.536.277.148.113.386.387.53.562.15.176.388.516.536.707.148.196.387.52.535.68s.383.39.531.484c.149.09.387.172.536.172.148 0 .386-.082.53-.172.15-.093.388-.324.536-.484s.387-.484.535-.68c.145-.191.383-.53.531-.707.149-.175.387-.449.536-.562.148-.117.382-.25.53-.277.15-.024.387.02.536.097.148.078.387.297.531.465.149.168.387.52.535.742.149.219.387.625.535.848s.383.586.532.75c.148.168.386.39.535.45.148.062.383.07.531 0 .149-.075.387-.31.535-.517s.387-.664.535-.972c.145-.309.383-.903.532-1.25.148-.348.386-.95.535-1.25.148-.297.383-.75.531-.906.149-.153.387-.29.535-.211.149.082.387.402.532.78.148.384.386 1.25.535 1.966.148.718.386 2.156.535 3.195.148 1.043.383 3 .531 4.313s.387 3.66.535 5.152.531 5.61.531 5.61"/><use xlink:href="#h" x="220.187" y="58.538"/><use xlink:href="#i" x="20.075" y="8.699"/></svg>