<svg xmlns="http://www.w3.org/2000/svg" width="113.388" height="85.041"><defs><clipPath id="a"><path d="M.328 5h112.125v74H.328Zm0 0"/></clipPath><clipPath id="b"><path d="M.328 0h112.125v48H.328Zm0 0"/></clipPath><clipPath id="c"><path d="M.328 36h112.125v48.094H.328Zm0 0"/></clipPath></defs><g clip-path="url(#a)"><path fill="#7F7F7F" fill-opacity=".5" d="m.328 15.29.567-.74c.156-.206.406-.53.562-.734s.406-.527.563-.726a54.336 54.336 0 0 1 1.129-1.406c.156-.192.406-.493.562-.676a48 48 0 0 1 1.125-1.266c.156-.164.406-.426.566-.586.157-.156.407-.398.563-.547.156-.144.406-.37.562-.507a15 15 0 0 1 1.125-.887c.157-.11.41-.274.567-.371.156-.094.406-.239.562-.32.156-.083.406-.2.563-.266a6.6 6.6 0 0 1 1.129-.375c.156-.035.406-.082.562-.102s.406-.043.563-.047.406 0 .562.012.41.043.567.07.406.082.562.125.406.122.563.18a9 9 0 0 1 1.128.527 11 11 0 0 1 1.125.73 19 19 0 0 1 1.13.923 23 23 0 0 1 1.124 1.09c.157.16.407.43.563.597.156.172.406.453.562.633.157.176.41.473.567.656.156.188.406.493.562.684s.407.504.563.703c.156.195.406.516.562.719.157.199.41.523.567.73l.562.735c.156.207.406.535.563.738a121 121 0 0 0 1.129 1.469c.156.203.406.523.562.722.156.2.406.512.563.707a50.083 50.083 0 0 0 1.691 1.984 25.991 25.991 0 0 0 1.125 1.176c.156.153.406.391.566.536.157.14.407.36.563.488a12.424 12.424 0 0 0 1.688 1.2c.156.089.41.222.566.3.156.074.406.184.562.246a6.4 6.4 0 0 0 1.125.328c.157.031.41.067.567.078a5.4 5.4 0 0 0 1.125-.011c.156-.016.406-.059.562-.09.156-.035.41-.102.567-.149.156-.05.406-.14.562-.203.156-.066.406-.18.563-.258s.406-.218.562-.312.41-.254.567-.36a17 17 0 0 0 1.125-.867 22 22 0 0 0 1.125-1.043 26 26 0 0 0 1.128-1.191c.157-.172.407-.461.563-.64.156-.184.406-.481.562-.669l.567-.691a113 113 0 0 0 1.125-1.434l.562-.734c.157-.203.41-.531.567-.738.156-.203.406-.535.562-.739s.407-.53.563-.734l.562-.73c.157-.2.41-.516.567-.715.156-.196.406-.508.562-.7.156-.187.406-.492.563-.675s.406-.477.562-.653a30 30 0 0 1 1.13-1.214c.155-.16.405-.41.562-.56.156-.148.406-.378.562-.515.156-.136.406-.347.563-.472a11.834 11.834 0 0 1 1.691-1.14c.156-.087.406-.208.562-.278s.41-.172.567-.227.406-.129.562-.168.407-.09.563-.113.406-.05.562-.059.41-.008.567 0 .406.035.562.059.407.074.563.117c.156.04.406.113.562.168s.41.156.567.227a9.4 9.4 0 0 1 1.125.609c.156.102.406.27.562.383s.41.304.567.43c.156.124.406.335.562.476.156.137.406.367.563.516a27.38 27.38 0 0 1 1.125 1.148c.16.168.41.45.566.625l.563.652c.156.188.406.489.562.68a110 110 0 0 1 1.129 1.414c.156.2.406.528.562.73.157.204.407.528.563.735.156.203.406.535.562.738.157.207.41.535.567.739l.562.734.563.723a56 56 0 0 0 1.129 1.398c.156.188.406.488.562.668.156.184.406.469.563.64a26.445 26.445 0 0 0 1.691 1.73c.156.146.406.368.563.501s.406.336.562.457c.156.117.406.3.563.41a10.018 10.018 0 0 0 1.129.668c.156.078.406.196.562.258.156.063.406.152.563.203a7.036 7.036 0 0 0 1.129.238c.156.016.406.032.562.032a5.4 5.4 0 0 0 1.129-.106 6.367 6.367 0 0 0 1.125-.328 9 9 0 0 0 1.129-.55 11 11 0 0 0 1.125-.75c.156-.122.406-.32.562-.45.156-.133.406-.351.567-.492a24 24 0 0 0 1.125-1.105c.156-.165.406-.434.562-.606a47 47 0 0 0 1.13-1.3c.155-.188.405-.497.562-.688.156-.196.406-.508.562-.707l.563-.719c.156-.203.41-.527.566-.734l.562-.735.563-.742.562-.734c.157-.203.41-.532.567-.73l.562-.72.563-.703a52 52 0 0 1 1.129-1.34c.156-.175.406-.457.562-.628a28 28 0 0 1 1.125-1.16 20.684 20.684 0 0 1 1.129-1.008c.156-.125.406-.32.563-.438.156-.113.406-.289.562-.39s.406-.25.563-.34c.156-.086.41-.215.566-.29.156-.07.406-.175.563-.234.156-.058.406-.137.562-.18s.406-.097.563-.125.41-.054.566-.066.406-.016.563-.012c.156.008.406.028.562.047.156.024.406.067.563.106.156.035.41.105.566.16.156.05.406.148.562.215a9 9 0 0 1 1.125.59c.157.097.41.261.567.37.156.114.406.301.562.423a20 20 0 0 1 1.688 1.523c.16.16.41.422.566.586a45 45 0 0 1 1.125 1.27c.156.183.406.484.563.671l.566.696v59.308l-.566.696a47.977 47.977 0 0 1-1.125 1.324c-.157.176-.407.449-.563.617s-.406.43-.566.586c-.156.156-.406.402-.563.55-.156.145-.406.372-.562.508a15 15 0 0 1-1.125.887 12 12 0 0 1-1.13.695c-.155.083-.405.2-.562.27-.156.066-.406.16-.562.215-.156.05-.41.121-.567.16a7 7 0 0 1-.562.102 6 6 0 0 1-.562.046c-.157.004-.407 0-.563-.007a7 7 0 0 1-.566-.07 6.25 6.25 0 0 1-1.125-.305 7 7 0 0 1-.563-.235 8 8 0 0 1-.566-.289 11 11 0 0 1-1.125-.73 15.355 15.355 0 0 1-1.125-.918c-.16-.14-.41-.375-.567-.524a38 38 0 0 1-.562-.562 42 42 0 0 1-1.125-1.23c-.156-.18-.41-.473-.567-.657l-.562-.683a55 55 0 0 1-.563-.704 58 58 0 0 1-.562-.718c-.156-.2-.41-.524-.567-.727s-.406-.531-.562-.738c-.156-.203-.406-.535-.563-.738a121 121 0 0 0-1.128-1.47l-.563-.722-.562-.707c-.157-.191-.407-.496-.563-.683a50 50 0 0 0-1.129-1.301 29 29 0 0 0-.562-.61c-.157-.16-.407-.418-.563-.57s-.406-.39-.562-.531c-.16-.145-.41-.364-.567-.492a14 14 0 0 0-1.125-.852 11 11 0 0 0-.562-.352 10 10 0 0 0-.567-.3 8.01 8.01 0 0 0-1.125-.441 7 7 0 0 0-.562-.137 7 7 0 0 0-.567-.082 9 9 0 0 0-.562-.024 7 7 0 0 0-.563.035 6.052 6.052 0 0 0-1.129.238 8 8 0 0 0-.562.2c-.156.066-.406.18-.562.258s-.407.218-.563.308a12 12 0 0 0-1.129.774 14 14 0 0 0-1.125.953c-.156.144-.406.386-.562.543-.16.152-.41.41-.567.574a44 44 0 0 0-.562.613c-.157.172-.407.461-.563.64-.156.184-.406.481-.562.669-.157.191-.41.496-.567.691a113 113 0 0 0-1.125 1.434c-.156.199-.406.527-.562.73-.156.207-.41.535-.567.739l-.562.742c-.156.203-.406.531-.563.734s-.406.527-.562.727a114 114 0 0 1-1.129 1.414c-.156.191-.406.496-.562.68-.157.183-.407.476-.563.652a41.498 41.498 0 0 1-1.129 1.219 25 25 0 0 1-1.125 1.074c-.156.136-.406.347-.562.472s-.41.317-.567.43-.406.285-.562.383-.407.246-.563.332a9 9 0 0 1-.562.277c-.157.07-.41.172-.567.227a8 8 0 0 1-.562.172c-.156.039-.406.09-.563.113s-.406.05-.562.059c-.156.007-.41.007-.567 0a7 7 0 0 1-.562-.055 7 7 0 0 1-.563-.113 8 8 0 0 1-1.129-.395 9.4 9.4 0 0 1-1.125-.61c-.156-.097-.406-.269-.562-.382-.156-.11-.406-.3-.566-.426a15 15 0 0 1-.563-.476 23 23 0 0 1-1.687-1.665c-.157-.168-.41-.445-.567-.62-.156-.18-.406-.47-.562-.657a52 52 0 0 1-1.125-1.375c-.157-.195-.41-.516-.567-.715a118 118 0 0 1-1.125-1.465c-.156-.203-.406-.53-.562-.738l-.567-.738c-.156-.203-.406-.531-.562-.73-.156-.204-.406-.528-.563-.727l-.562-.707c-.156-.195-.41-.504-.567-.692s-.406-.488-.562-.668a48 48 0 0 0-.563-.644 43 43 0 0 0-.562-.61 20 20 0 0 0-.566-.581 21.554 21.554 0 0 0-1.125-1.04 12.797 12.797 0 0 0-1.125-.867 10.018 10.018 0 0 0-1.129-.672 7 7 0 0 0-1.125-.46 6 6 0 0 0-1.692-.278 7 7 0 0 0-.562.024c-.157.015-.41.05-.567.078a10 10 0 0 0-.562.136 11 11 0 0 0-.563.192 9.852 9.852 0 0 0-1.129.547 11 11 0 0 0-1.125.754c-.156.117-.406.316-.562.445a21 21 0 0 0-1.129 1.023c-.156.153-.406.41-.562.57-.157.165-.407.434-.563.606a47 47 0 0 0-1.691 1.988c-.157.192-.407.508-.563.707-.156.196-.406.516-.562.72-.157.202-.41.526-.567.73s-.406.535-.562.738l-.563.738c-.156.207-.406.535-.562.738-.157.204-.41.528-.567.73l-.562.72c-.156.195-.406.507-.563.699-.156.195-.406.5-.562.683-.156.188-.41.481-.567.66s-.406.462-.562.63a42 42 0 0 1-.563.601c-.156.16-.406.41-.562.563-.156.148-.406.382-.563.523-.16.14-.41.356-.566.484a14 14 0 0 1-1.125.829c-.156.101-.406.253-.563.343-.156.086-.41.215-.566.29-.156.07-.406.175-.562.234a8 8 0 0 1-.563.183 7 7 0 0 1-.562.125c-.157.028-.41.055-.567.067a7 7 0 0 1-.562.011 7 7 0 0 1-.563-.043 7 7 0 0 1-1.129-.261 11 11 0 0 1-.562-.215 9 9 0 0 1-1.125-.59c-.156-.098-.41-.262-.567-.371-.156-.11-.406-.297-.562-.418a20 20 0 0 1-1.688-1.523c-.16-.157-.41-.418-.566-.586a44 44 0 0 1-.563-.618 48 48 0 0 1-.562-.648c-.156-.184-.406-.484-.563-.672-.156-.191-.41-.5-.566-.695s-.406-.516-.562-.715c-.157-.2-.407-.52-.563-.723l-.562-.734c-.157-.207-.567-.738-.567-.738Zm0 0"/></g><g clip-path="url(#b)"><path fill="none" stroke="#000" stroke-miterlimit="10" stroke-width="1.5762269" d="m.328 15.29.567-.74c.156-.206.406-.53.562-.734s.406-.527.563-.726a54.33 54.33 0 0 1 1.129-1.406c.156-.192.406-.493.562-.676a48 48 0 0 1 1.125-1.266c.156-.164.406-.426.566-.586.157-.156.407-.398.563-.547.156-.144.406-.37.562-.507a15 15 0 0 1 1.125-.887c.157-.11.41-.274.567-.371.156-.094.406-.239.562-.32.157-.083.407-.2.563-.266a6.6 6.6 0 0 1 1.129-.375c.156-.035.406-.082.562-.102s.406-.043.563-.047.406 0 .562.012.41.043.567.07.406.082.562.125.406.121.563.18a9 9 0 0 1 1.128.527 11 11 0 0 1 1.125.73 19 19 0 0 1 1.13.923 23 23 0 0 1 1.124 1.09c.157.16.407.43.563.597.156.172.406.453.562.633.157.176.41.473.567.656.156.188.406.493.562.684s.407.504.563.703c.156.195.406.516.562.719.157.199.41.523.567.73l.562.735c.156.207.406.535.563.738a121 121 0 0 0 1.129 1.469 111.865 111.865 0 0 0 1.125 1.43c.156.19.406.495.562.683a50 50 0 0 0 1.129 1.3 25.991 25.991 0 0 0 1.125 1.176c.156.153.406.391.566.536.157.14.407.36.563.488a12.423 12.423 0 0 0 1.687 1.2c.157.089.41.222.567.3.156.074.406.184.562.246a6.4 6.4 0 0 0 1.125.328c.157.031.41.067.567.078a5.4 5.4 0 0 0 1.125-.011c.156-.016.406-.059.562-.09.156-.035.41-.102.567-.149.156-.05.406-.14.562-.203.156-.066.406-.18.563-.258s.406-.218.562-.312.41-.254.567-.36a17 17 0 0 0 1.125-.867 22 22 0 0 0 1.125-1.043 26 26 0 0 0 1.128-1.191c.157-.172.407-.461.563-.64.156-.184.406-.481.562-.669l.567-.691a113 113 0 0 0 1.125-1.434l.562-.734c.157-.203.41-.531.567-.738.156-.203.406-.535.562-.739s.407-.53.563-.734l.562-.73c.157-.2.41-.516.567-.715.156-.196.406-.508.562-.7.156-.187.406-.492.563-.675s.406-.477.562-.653a30 30 0 0 1 1.13-1.214c.155-.16.405-.41.562-.56.156-.148.406-.378.562-.515.156-.136.406-.347.563-.472a11.832 11.832 0 0 1 1.691-1.14c.156-.087.406-.208.562-.278s.41-.172.567-.227.406-.129.562-.168.407-.09.563-.113.406-.05.562-.059.41-.008.567 0 .406.035.562.059.407.074.563.117c.156.04.406.113.562.168s.41.156.567.227a9.4 9.4 0 0 1 1.125.609c.156.102.406.27.562.383s.41.304.567.43c.156.124.406.335.562.476.156.137.406.367.563.516a27.38 27.38 0 0 1 1.125 1.148c.16.168.41.45.566.625l.563.652c.156.188.406.489.562.68a110 110 0 0 1 1.129 1.414c.156.2.406.528.562.73.157.204.407.528.563.735.156.203.406.535.562.738.157.207.41.535.567.739l.562.734.563.723a56 56 0 0 0 1.129 1.398c.156.188.406.488.562.668.156.184.406.469.563.64a26.443 26.443 0 0 0 1.691 1.73c.156.146.406.368.563.501s.406.336.562.457c.156.117.406.3.563.41a10.018 10.018 0 0 0 1.129.668c.156.078.406.196.562.258.156.063.406.152.563.203a7.036 7.036 0 0 0 1.129.238c.156.016.406.032.562.032a5.4 5.4 0 0 0 1.129-.106 6.367 6.367 0 0 0 1.125-.328 9 9 0 0 0 1.129-.55 11 11 0 0 0 1.125-.75c.156-.122.406-.32.562-.45.157-.133.407-.351.567-.492a24 24 0 0 0 1.125-1.106c.156-.164.406-.433.562-.605a47 47 0 0 0 1.13-1.3c.155-.188.405-.497.562-.688.156-.196.406-.508.562-.707l.563-.719c.156-.203.41-.527.566-.734l.562-.735.563-.742.562-.734c.157-.203.41-.532.567-.73l.562-.72.563-.703a52 52 0 0 1 1.129-1.34c.156-.175.406-.457.562-.628a28 28 0 0 1 1.125-1.16 20.684 20.684 0 0 1 1.129-1.008c.156-.125.406-.32.563-.438.156-.113.406-.289.562-.39s.406-.25.563-.34c.156-.086.41-.215.566-.29.156-.07.406-.175.563-.234.156-.058.406-.137.562-.18s.406-.097.563-.125.41-.054.566-.066.406-.016.563-.012c.156.008.406.028.562.047.156.024.406.067.563.106.156.035.41.105.566.16.156.05.406.148.562.215a9 9 0 0 1 1.125.59c.157.097.41.261.567.37.156.114.406.301.562.423a20 20 0 0 1 1.688 1.523c.16.16.41.422.566.586a45 45 0 0 1 1.125 1.27c.156.183.406.484.563.671l.566.696"/></g><g clip-path="url(#c)"><path fill="none" stroke="#000" stroke-miterlimit="10" stroke-width="1.5762269" d="M.328 68.805s.41.53.567.738l.562.734c.156.203.406.524.563.723.156.2.406.52.562.715s.41.504.566.695c.157.188.407.488.563.672s.406.473.562.648.407.45.563.618.406.43.566.586c.157.156.407.402.563.546a19.853 19.853 0 0 0 1.125.977c.156.121.406.309.562.418a10.288 10.288 0 0 0 1.129.691c.157.082.407.204.563.27s.406.16.562.215a7.112 7.112 0 0 0 1.129.262c.156.019.406.039.563.042s.406 0 .562-.011c.156-.012.41-.04.567-.067a7 7 0 0 0 .562-.125 8 8 0 0 0 .563-.183c.156-.059.406-.164.562-.235.156-.074.41-.203.566-.289.157-.09.407-.242.563-.343a12 12 0 0 0 1.125-.829c.156-.128.406-.343.566-.484.157-.14.407-.375.563-.523.156-.153.406-.403.562-.563a42 42 0 0 0 1.125-1.23c.157-.18.41-.473.567-.66.156-.184.406-.489.562-.684.157-.192.407-.504.563-.7l.562-.718.567-.73c.156-.204.406-.532.562-.739l.563-.738c.156-.203.406-.535.562-.738.156-.204.41-.528.567-.73.156-.204.406-.524.562-.72a56 56 0 0 1 1.692-2.058c.156-.18.406-.465.562-.637s.406-.441.563-.605c.156-.16.406-.418.562-.57a21.115 21.115 0 0 1 1.129-1.023c.156-.13.406-.33.562-.446a11.07 11.07 0 0 1 1.125-.754 10 10 0 0 1 1.13-.547c.156-.059.406-.145.562-.192.156-.043.406-.105.562-.136a9 9 0 0 1 .567-.078 7 7 0 0 1 .562-.024c.156.004.406.02.563.035.156.02.406.059.562.094a6.493 6.493 0 0 1 1.129.352c.156.062.406.175.563.257a10 10 0 0 1 1.691 1.082c.156.121.406.325.563.457a22 22 0 0 1 1.69 1.622c.157.164.407.437.563.609.157.176.407.46.563.644.156.18.406.48.562.668s.41.496.567.692l.562.707c.157.2.407.523.563.726.156.2.406.528.562.73l.567.74.562.737a121 121 0 0 0 1.125 1.465c.157.2.41.52.567.715s.406.508.562.7a52 52 0 0 0 1.125 1.331 45 45 0 0 0 1.13 1.215 22.468 22.468 0 0 0 1.125 1.07c.155.141.405.352.562.477.16.125.41.316.566.426.156.113.406.285.562.383a11 11 0 0 0 1.125.61 7.72 7.72 0 0 0 1.129.395c.157.038.407.088.563.112.156.023.406.047.562.055.157.007.41.007.567 0 .156-.008.406-.036.562-.059s.407-.074.563-.113a8 8 0 0 0 .562-.172c.157-.055.41-.156.567-.227.156-.07.406-.191.562-.277s.406-.234.563-.332.406-.27.562-.383.41-.305.567-.43.406-.336.562-.472a23 23 0 0 0 1.125-1.075 42 42 0 0 0 1.129-1.218 49 49 0 0 0 1.688-2.032c.156-.195.41-.515.566-.714.156-.2.406-.524.562-.727s.407-.531.563-.734l.562-.742c.157-.204.41-.532.567-.739.156-.203.406-.531.562-.73a117 117 0 0 1 1.125-1.434c.157-.195.41-.5.567-.691.156-.188.406-.485.562-.668.156-.18.406-.469.563-.64.156-.177.406-.446.562-.614.156-.164.406-.422.567-.574.156-.157.406-.399.562-.543s.406-.367.563-.5a14 14 0 0 1 1.125-.864c.156-.109.41-.27.566-.363.156-.09.406-.23.563-.308.156-.079.406-.192.562-.258.156-.063.406-.153.563-.2a6 6 0 0 1 1.128-.238c.157-.02.407-.031.563-.035.156 0 .406.012.562.024.157.015.41.05.567.082.156.03.406.09.562.136a8 8 0 0 1 1.125.442c.157.074.41.21.567.3a11 11 0 0 1 1.125.754c.156.118.406.317.562.45.157.128.407.347.567.492.156.14.406.379.562.531s.406.41.563.57c.156.164.406.434.562.61a50.083 50.083 0 0 1 1.691 1.984c.157.195.407.512.563.707l.563.723a119 119 0 0 1 1.128 1.469c.157.203.407.535.563.738.156.207.406.535.562.738s.41.527.567.727c.156.203.406.523.562.718a55 55 0 0 0 1.125 1.387c.157.184.41.477.567.656s.406.461.562.63c.157.171.407.437.563.6.156.161.406.411.562.563.157.149.407.383.567.524a15 15 0 0 0 1.125.918 10.767 10.767 0 0 0 1.125.73c.156.09.41.219.566.29a6.9 6.9 0 0 0 1.688.538c.156.028.41.059.566.07.156.008.406.012.563.008a6 6 0 0 0 .562-.046c.156-.02.406-.067.563-.102.156-.039.41-.11.566-.16.156-.055.406-.149.562-.215.157-.07.407-.187.563-.27a11.696 11.696 0 0 0 1.129-.695 14.738 14.738 0 0 0 1.125-.887c.156-.136.406-.363.562-.507.157-.149.407-.395.563-.551.16-.156.41-.418.566-.586s.406-.441.563-.617a48 48 0 0 0 1.125-1.324l.566-.696"/></g></svg>