<svg xmlns="http://www.w3.org/2000/svg" xmlns:xlink="http://www.w3.org/1999/xlink" width="227.777" height="249.033"><defs><path id="g" d="M2.578-1.094v-3.093c0-.547 0-1.079.016-1.204 0-.046-.016-.046-.047-.046-.485.312-.969.53-1.75.89.015.11.047.188.125.25.422-.172.61-.219.781-.219.156 0 .188.204.188.516v2.906c0 .75-.25.797-.875.813-.047.062-.047.25 0 .297C1.453.016 1.78 0 2.266 0c.422 0 .64.016 1.093.016.047-.047.047-.235 0-.297-.64-.016-.78-.063-.78-.813m0 0"/><path id="h" d="M2.031.094c.688 0 1.735-.703 1.735-2.797 0-.89-.203-1.656-.61-2.172a1.32 1.32 0 0 0-1.078-.578c-.89 0-1.734 1.062-1.734 2.828 0 .953.297 1.844.797 2.344q.375.375.89.375m.047-5.235c.14 0 .297.063.39.157.282.234.532.906.532 2.109 0 .813-.031 1.375-.156 1.844-.203.734-.64.812-.797.812-.828 0-.922-1.531-.922-2.312 0-2.203.547-2.61.953-2.61m0 0"/><path id="i" d="M1.64-3.203c-.046.062-.109.078-.109 0 0-.235-.015-.594-.062-.672-.016-.047-.032-.078-.11-.078-.25.094-.484.187-1.093.265-.032.047 0 .188.015.25.485.047.578.079.578.61v1.734c0 .735-.093.766-.625.813-.062.062-.062.25 0 .297C.5.016.86 0 1.22 0s.625.016.89.016c.047-.047.047-.235 0-.297-.453-.047-.546-.078-.546-.813v-1.468c0-.188.078-.282.156-.376.343-.328.734-.515 1.094-.515.171 0 .359.11.468.312.094.188.11.422.11.688v1.36c0 .734-.094.765-.563.812-.047.062-.047.25 0 .297.266 0 .563-.016.922-.016s.672.016.938.016c.046-.047.046-.235 0-.297-.5-.047-.594-.078-.594-.813v-1.328c0-.484-.032-.922-.235-1.203-.156-.187-.437-.297-.75-.297-.437 0-.937.11-1.468.719m0 0"/><path id="j" d="M2.531-2.89c.75 0 .781.203.813.609.047.062.234.062.297 0-.016-.219-.016-.485-.016-.781 0-.313 0-.547.016-.766-.063-.063-.25-.063-.297 0-.031.484-.063.61-.813.61h-.828v-1.61c0-.484.11-.578.5-.578h.39c.954 0 1.173.36 1.376.968q.165 0 .281-.046a44 44 0 0 0-.203-1.297c0-.016 0-.016-.031-.016-.157.016-.203.031-.422.031H1.313c-.282 0-.797-.015-1.157-.015-.047.047-.047.234 0 .297.625.03.782.062.782.812v3.578c0 .75-.157.797-.782.813-.047.062-.047.25 0 .297C.47.016.922 0 1.328 0c.39 0 .828.016 1.14.016.063-.047.063-.235 0-.297-.624-.016-.765-.063-.765-.813V-2.89Zm0 0"/><path id="G" d="M2.406.094c.828 0 1.672-.422 2.407-1.219-.016-.078-.063-.125-.172-.125-.735.703-1.375.969-2.172.969C1.39-.281.953-1.187.953-2.234c0-.235.016-.5.063-.75.359-1.813 1.718-2.563 2.406-2.563 1.187 0 1.531.719 1.61 1.484l.265-.03c0-.47.016-.907.078-1.391-.484-.016-.75-.391-1.797-.391-1.422 0-3 1.297-3.344 3.063-.03.218-.062.437-.062.656C.172-.97.844.094 2.406.094m0 0"/><path id="k" d="M-.578-2.031H-5l.25 1.344q-.106.016-.187.015c-.133 0-.227-.07-.282-.219l-.593-1.468v-.453h5.234l.172-1.079q.016-.14.11-.14.08.002.296.11V-.86h-.078q-.311 0-.36-.282Zm0 0"/><path id="l" d="M-.39-2.234q.001-1.092-2.516-1.094-2.515.002-2.516 1.094.001 1.094 2.516 1.093c1.68 0 2.515-.363 2.515-1.093m.5.03q0 .88-.75 1.376-.779.532-2.266.531c-.977 0-1.735-.187-2.266-.562q-.75-.53-.75-1.422 0-.873.75-1.36.784-.528 2.266-.53 1.47 0 2.265.562.75.533.75 1.406m0 0"/><path id="m" d="M-3.484-6.125q.926.001 1.734.547.69.486 1.047 1.156h.172v-1.187l-.719-.141a.44.44 0 0 1-.047-.203q.001-.282.406-.281.365.002.891.062v2.313h-.89c-.5-.977-1.376-1.47-2.626-1.47q-1.029.001-1.625.548-.609.534-.609 1.39c0 .563.2 1.024.594 1.375.418.368.968.547 1.656.547q.862.001 1.531-.343.72-.387 1.078-1.125H0v2.312q-.527.047-.89.047c-.27 0-.407-.086-.407-.266q0-.107.047-.203l.719-.14v-1.204h-.156c-.188.43-.524.809-1.016 1.141a2.98 2.98 0 0 1-1.781.594q-1.203.001-2-.766-.797-.78-.797-1.969 0-1.218.781-1.968c.512-.508 1.184-.766 2.016-.766m0 0"/><path id="o" d="m-1.984-.125-3.797-2.531-.063-.672h3.64v-.75l.688.047v.703h1.032l.125-.61q.017-.123.093-.124.048 0 .266.093v2.063h-.078q-.246 0-.328-.297l-.078-.39h-1.032v2.437Zm-.22-.734v-1.735H-4.89v.016L-2.219-.86Zm0 0"/><path id="p" d="M-4.656-.484q-.56 0-1.157-.063v-3.578a.3.3 0 0 1 .188-.047c.125 0 .262.04.406.11L0-1.703v.656l-5.062-2.406v2.375l.75.14a.46.46 0 0 1 .046.204q0 .251-.39.25m0 0"/><path id="q" d="m-.453-.422-1.734-1.515q-1.015-.875-2-.875-1.25.001-1.25.906 0 .345.187.703.361.112.875.125.017.11.016.203 0 .422-.344.422-.545 0-.875-.422-.342-.42-.344-1.156 0-.715.422-1.172.408-.451 1.156-.453.675 0 1.36.422.44.268 1.125.906l1.062.984h.016v-2.031l-.781-.187a.5.5 0 0 1-.032-.188q.002-.234.344-.234c.242 0 .656.03 1.25.093V-.5Zm0 0"/><path id="r" d="M-.922-.89q.002-.248.203-.407.204-.17.578-.172.592 0 .985.375c.226.211.344.414.344.61 0 .093-.086.164-.25.203q-.3-.574-.891-.61-.001.204-.125.344a.47.47 0 0 1-.344.14c-.156 0-.273-.038-.36-.124a.48.48 0 0 1-.14-.36m0 0"/><path id="s" d="M-.469-.828h-5.468l-.094.656a.16.16 0 0 1-.078.016q-.247 0-.266-.328l-.11-1.063H-2.5v-.531l-1.375-1.203-.125.625a.3.3 0 0 1-.078.015q-.218.001-.219-.25v-1.437c0-.07.031-.11.094-.11A.5.5 0 0 1-4-4.374l.156.516 1.453 1.265 1.938-1.515.11-.453q.015-.125.109-.125.129 0 .234.078v1.156l-2.047 1.5v.406h1.594L-.343-2q.015-.124.109-.125.129 0 .234.094V-.22h-.062c-.133 0-.235-.086-.297-.265Zm0 0"/><path id="F" d="M-3.156-1.39c-.114-1.008-.516-1.516-1.203-1.516q-1.079.001-1.078.906.002.41.203.703.362.11.812.11a.7.7 0 0 1 .031.218c0 .282-.117.422-.359.422q-.516.001-.844-.437-.328-.45-.328-1.188 0-.714.375-1.125.375-.405 1.031-.406.628 0 1.016.422.284.28.484.89H-3q.11-.702.484-1.093a1.2 1.2 0 0 1 .922-.391q.738.001 1.219.547.485.549.484 1.437c0 .48-.097.84-.28 1.079q-.202.28-.5.28-.406.002-.548-.39c.23-.101.399-.203.5-.297q.328-.293.328-.828c0-.664-.351-1-1.062-1-.738 0-1.149.555-1.234 1.656Zm0 0"/><path id="M" d="M-1.906-4.047v3.625h-.469v-3.625Zm-1.297 0v3.625h-.469v-3.625Zm0 0"/><path id="N" d="M-3.031-2.937Q-2.544-4.03-1.5-4.032q.737 0 1.188.547c.28.343.421.773.421 1.28q0 .77-.39 1.25-.435.533-1.172.532-.92 0-1.453-1.14c-.32.656-.813.984-1.469.984-.437 0-.8-.164-1.094-.5a1.75 1.75 0 0 1-.453-1.188c0-.488.133-.879.39-1.171q.394-.453 1.063-.454.91.002 1.438.954m-.172.406q-.405-.656-1.266-.656-.404 0-.656.234c-.195.18-.297.43-.297.75 0 .281.094.508.281.672q.284.251.672.25.516 0 .797-.344c.156-.164.313-.469.469-.906m.484.562c.293.524.715.782 1.266.782q.456 0 .766-.282.297-.28.296-.75c0-.32-.093-.578-.28-.765a1 1 0 0 0-.735-.297q-.48 0-.797.36-.234.268-.516.952m0 0"/><path id="R" d="M-5.812-1.125v-2.562l.78.062v2.094l1.407.125q.066-1.296.547-1.875c.305-.364.765-.547 1.39-.547.493 0 .915.18 1.266.531q.533.534.531 1.39-.001.721-.265 1.079a.61.61 0 0 1-.516.281q-.405 0-.547-.39.376-.171.5-.282.328-.31.328-.843 0-.514-.328-.829-.31-.294-.812-.296-.732 0-1.047.562-.328.55-.328 1.781Zm0 0"/><path id="S" d="M-4.766-3.703a1.04 1.04 0 0 0-.421.328 1.24 1.24 0 0 0-.235.734q0 1.378 2.344 1.485a1.95 1.95 0 0 1-.406-1.219q.002-.762.39-1.219c.274-.344.688-.515 1.25-.515q.798.001 1.36.5c.398.355.593.808.593 1.359 0 .625-.257 1.102-.78 1.422q-.735.469-2.048.469-1.247.002-2.156-.594c-.695-.445-1.047-1.063-1.047-1.844q0-.622.219-.969.205-.328.469-.328c.242 0 .398.133.468.39m2.141 2.547q1.127-.029 1.703-.344.533-.31.531-.812.001-.452-.343-.735-.358-.28-1.032-.281-1.202.002-1.203 1 .002.75.344 1.172m0 0"/><path id="v" d="M2.484-3.031h1.563v.469H2.484v1.671h-.5v-1.671H.422v-.47h1.562v-1.655h.5Zm0 0"/><path id="w" d="M2.031-.578V-5l-1.344.25a1 1 0 0 1-.015-.187c0-.133.07-.227.219-.282l1.468-.593h.454v5.234l1.078.172q.14.016.14.11-.002.08-.11.296H.86v-.078q0-.311.282-.36Zm0 0"/><path id="x" d="M1.39-3.156c1.008-.114 1.516-.516 1.516-1.203Q2.905-5.438 2-5.437q-.41.002-.703.203-.11.362-.11.812a.7.7 0 0 1-.218.031c-.281 0-.422-.117-.422-.359q-.001-.516.437-.844.45-.328 1.188-.328.714 0 1.125.375.406.375.406 1.031 0 .628-.422 1.016-.28.284-.89.484V-3q.702.11 1.093.484c.258.243.391.547.391.922q-.001.738-.547 1.219Q2.78.11 1.891.109C1.41.11 1.05.012.813-.17Q.53-.374.53-.672q0-.406.39-.548c.102.23.204.399.298.5q.293.328.828.328c.664 0 1-.351 1-1.062 0-.738-.555-1.149-1.656-1.234Zm0 0"/><path id="y" d="M5.844-6.172v.078c0 .168-.102.278-.297.328l-.234.047L3.28 0h-.734L.453-5.703l-.375-.094q-.124-.03-.125-.125c0-.05.035-.133.094-.25H2.03c.008.031.016.059.016.078 0 .168-.102.274-.297.313l-.375.093 1.64 4.782h.016L4.734-5.72l-.687-.093q-.127-.029-.125-.11c0-.039.031-.125.094-.25Zm0 0"/><path id="B" d="M2.234-.39q1.092.001 1.094-2.516-.002-2.515-1.094-2.516-1.094.001-1.093 2.516c0 1.68.363 2.515 1.093 2.515m-.03.5q-.88 0-1.376-.75Q.296-1.42.297-2.907c0-.977.187-1.735.562-2.266.352-.5.829-.75 1.422-.75q.873 0 1.36.75.528.784.53 2.266 0 1.47-.562 2.265-.533.75-1.406.75m0 0"/><path id="C" d="M.89-.922q.248.002.407.203.17.204.172.578 0 .592-.375.985c-.211.226-.414.344-.61.344-.093 0-.164-.086-.203-.25q.574-.3.61-.891a.5.5 0 0 1-.344-.125.47.47 0 0 1-.14-.344c0-.156.038-.273.124-.36a.48.48 0 0 1 .36-.14m0 0"/><path id="D" d="M3.984-.922q-.002.516.313.516.2.001.328-.125a.5.5 0 0 1 .078.25c0 .062-.055.133-.156.203A.94.94 0 0 1 4 .078q-.58 0-.656-.61h-.016Q2.871.112 2.063.11a1.22 1.22 0 0 1-.75-.25c0 .739.148 1.352.453 1.844q-.018.06-.172.125a.7.7 0 0 1-.282.063Q.95 1.889.845 1.297C.789 1.023.766.539.766-.156v-4.078l.703-.11v2.813q0 1.064.797 1.062c.382 0 .722-.148 1.015-.453v-3.312l.703-.11Zm0 0"/><path id="E" d="M4.5-6.172q.062.751.063 1.063c0 .261-.086.39-.25.39a.5.5 0 0 1-.188-.031l-.219-.937H1.875v2.437h1.984v.5H1.875v2.266l.703.125q.124.017.125.093 0 .048-.094.266H.422a.16.16 0 0 1-.016-.078Q.404-.324.72-.406l.375-.078v-5.203l-.547-.125c-.086-.02-.125-.055-.125-.11q0-.075.094-.25Zm0 0"/><path id="K" d="m.422-.453 1.516-1.734q.874-1.015.875-2c0-.833-.305-1.25-.907-1.25q-.345 0-.703.187a3.3 3.3 0 0 0-.125.875q-.11.017-.203.016-.422 0-.422-.344 0-.545.422-.875.42-.342 1.156-.344.715 0 1.172.422.451.408.453 1.156 0 .675-.422 1.36-.268.44-.906 1.125L1.344-.797v.016h2.031l.188-.781a.5.5 0 0 1 .187-.032q.234.002.234.344c0 .242-.03.656-.093 1.25H.5Zm0 0"/><path id="P" d="M1.125-5.812h2.563l-.063.78H1.531l-.125 1.407q1.296.066 1.875.547c.364.305.547.765.547 1.39 0 .493-.18.915-.531 1.266q-.534.533-1.39.531Q1.185.108.827-.156a.61.61 0 0 1-.281-.516q0-.405.39-.547.171.376.282.5.31.328.843.328.514 0 .829-.328c.195-.207.297-.476.297-.812q0-.732-.563-1.047-.55-.328-1.781-.328Zm0 0"/><path id="H" d="M2.281-1.344c0 .672-.36 1.172-.781 1.172-.281 0-.375-.172-.484-.328C.922-.61.813-.719.656-.719a.274.274 0 0 0-.265.266c0 .281.609.531 1.015.531.875 0 1.5-.656 1.5-1.562 0-.688-.469-1.313-1.265-1.313-.313 0-.578.063-.703.125l.14-1.203c.266.031.5.063.828.063.219 0 .469 0 .75-.032l.125-.484-.047-.031c-.406.046-.796.078-1.171.078-.266 0-.532-.016-.782-.032L.547-2.265c.375-.14.64-.171.906-.171.453 0 .828.312.828 1.093m0 0"/><path id="J" d="M1.031-2.453c.188-.64.64-1.36 1.594-1.719 0-.094-.031-.156-.078-.187-.719.203-1.172.515-1.563.968a2.7 2.7 0 0 0-.671 1.735C.313-.203 1.14.078 1.688.078 2.625.078 3-.828 3-1.437c0-.625-.328-1.172-1.297-1.172-.187 0-.453.062-.672.156m-.062.265c.234-.156.469-.171.594-.171.687 0 .843.687.843 1.047 0 .78-.297 1.14-.64 1.14-.453 0-.86-.25-.86-1.469 0-.156.016-.343.063-.546m0 0"/><path id="O" d="M3.078-1.562h-.594V-4.36H2.25c-.047 0-.094.046-.11.078-.453.547-1.28 1.734-1.937 2.75.016.11.063.297.281.297h1.454v.656c0 .328-.282.328-.579.36-.046.046-.046.187 0 .234C1.58 0 1.875 0 2.203 0c.281 0 .547 0 .781.016.032-.047.032-.188 0-.235-.359-.031-.5-.015-.5-.36v-.655h.485c.11 0 .203-.125.203-.22 0-.062-.016-.109-.094-.109m-1.14-2.063v2.063H.577c.36-.594.86-1.391 1.36-2.063m0 0"/><path id="Q" d="M1.531-4.11c.313 0 .594.188.594.641 0 .36-.406.906-1.125 1.016l.047.219h.344c.406 0 .937.109.937.906 0 .953-.64 1.156-.89 1.156-.36 0-.438-.172-.516-.297C.844-.579.75-.656.609-.656c-.14 0-.296.14-.296.25 0 .281.593.484 1.03.484.845 0 1.61-.562 1.61-1.5 0-.781-.594-1.062-1.015-1.125v-.015c.578-.282.75-.579.75-.954 0-.218-.047-.39-.22-.562-.155-.156-.405-.281-.78-.281-1.047 0-1.36.687-1.36.922 0 .109.078.25.25.25.25 0 .281-.235.281-.376 0-.453.485-.546.672-.546m0 0"/><path id="X" d="M.438-3.344c0 .156.14.281.28.281.126 0 .345-.124.345-.28 0-.063-.016-.11-.032-.157-.015-.047-.062-.11-.062-.172 0-.172.187-.437.703-.437.266 0 .625.187.625.875 0 .453-.156.828-.578 1.25l-.532.515C.485-.75.375-.406.375.016c0 0 .36-.016.594-.016h1.25c.219 0 .547.016.547.016.093-.375.172-.922.172-1.125-.032-.047-.126-.047-.204-.047-.125.515-.25.687-.5.687H.97c0-.343.484-.828.531-.86l.719-.687c.406-.39.703-.718.703-1.25 0-.78-.625-1.093-1.203-1.093-.797 0-1.281.593-1.281 1.015m0 0"/><path id="Y" d="M2.063-.875v-2.469c0-.437 0-.875.015-.969 0-.03-.015-.03-.047-.03-.39.25-.765.421-1.39.718.015.078.03.14.109.188.328-.141.484-.172.61-.172.124 0 .14.172.14.406v2.328c0 .594-.187.625-.687.656-.047.047-.047.188 0 .235C1.156 0 1.422 0 1.813 0c.343 0 .515 0 .859.016.047-.047.047-.188 0-.235-.5-.031-.61-.062-.61-.656m0 0"/><path id="I" d="M.031 1.781c.063.063.063.219 0 .297h-1.437V3.5c-.063.078-.219.078-.297 0V2.078h-1.422c-.078-.078-.078-.234 0-.297h1.422V.344c.078-.063.234-.063.297 0V1.78Zm0 0"/><path id="L" d="M-5.844-3.5c0 .219.078.75.078 1.094s-.015.687-.015 1.078l.015.031.188.031c.031.016.062 0 .062-.046l.016-.329c0-.125.063-.312.281-.312.032 0 .063 0 .094.016l4.484.875c.25.046.36.171.375.546l.032.22c0 .046.015.077.062.077L0-.172l.016-.031C.016-.593 0-.953 0-1.281c0-.344.016-.688.016-1.094L0-2.406l-.172-.031c-.047 0-.062.03-.062.062l-.032.219c-.015.281-.078.406-.265.406-.031 0-.063 0-.11-.016l-1.953-.375c0-.718.125-.875.328-.953l1.563-.61c.422-.171.797-.468.797-.983 0-.125-.016-.282-.063-.375l-.218-.032c0 .39-.297.532-.688.688l-1.875.718c-.125-.39-.594-1.25-1.531-1.437a1.3 1.3 0 0 0-.344-.047 1.13 1.13 0 0 0-.766.281c-.406.329-.453.86-.453 1.391m.297.063c0-.454.172-.985.89-.985.11 0 .235.031.391.047 1.11.219 1.36.922 1.36 1.75v.422l-2.219-.438c-.266-.046-.422-.187-.422-.796m0 0"/><clipPath id="a"><path d="M.328 236H4v4H.328Zm0 0"/></clipPath><clipPath id="b"><path d="M.328 230H10v15H.328Zm0 0"/></clipPath><clipPath id="c"><path d="M223 236h4.227v4H223Zm0 0"/></clipPath><clipPath id="d"><path d="M218 230h9.227v15H218Zm0 0"/></clipPath><clipPath id="e"><path d="M.328 175H4v4H.328Zm0 0"/></clipPath><clipPath id="f"><path d="M.328 169H10v16H.328Zm0 0"/></clipPath><clipPath id="n"><path d="M63 247h14v1.07H63Zm0 0"/></clipPath><clipPath id="t"><path d="M.328 10H4v4H.328Zm0 0"/></clipPath><clipPath id="u"><path d="M.328 5H10v15H.328Zm0 0"/></clipPath><clipPath id="z"><path d="M223 10h4.227v4H223Zm0 0"/></clipPath><clipPath id="A"><path d="M218 5h9.227v15H218Zm0 0"/></clipPath><clipPath id="T"><path d="M223 117h4.227v4H223Zm0 0"/></clipPath><clipPath id="U"><path d="M218 111h9.227v15H218Zm0 0"/></clipPath><clipPath id="V"><path d="M223 159h4.227v4H223Zm0 0"/></clipPath><clipPath id="W"><path d="M218 154h9.227v15H218Zm0 0"/></clipPath></defs><path fill="none" stroke="#000" stroke-miterlimit="10" stroke-width=".39745587" d="M2.11 237.79h111.667m0 0H225.45"/><g clip-path="url(#a)"><path fill="#FFF" d="M3.691 237.79a1.583 1.583 0 1 0-3.162.002 1.583 1.583 0 0 0 3.162-.003m0 0"/></g><g clip-path="url(#b)"><path fill="none" stroke="#000" stroke-miterlimit="10" stroke-width=".39745587" d="M3.691 237.79a1.583 1.583 0 1 0-3.162.002 1.583 1.583 0 0 0 3.162-.003Zm0 0"/></g><g clip-path="url(#c)"><path fill="#FFF" d="M227.031 237.79a1.583 1.583 0 1 0-3.162.002 1.583 1.583 0 0 0 3.162-.003m0 0"/></g><g clip-path="url(#d)"><path fill="none" stroke="#000" stroke-miterlimit="10" stroke-width=".39745587" d="M227.031 237.79a1.583 1.583 0 1 0-3.162.002 1.583 1.583 0 0 0 3.162-.003Zm0 0"/></g><path fill="none" stroke="#000" stroke-miterlimit="10" stroke-width=".39745587" d="M2.11 176.879h17.46m5.684 0h22.539m0 0h5.074"/><path fill="none" stroke="#000" stroke-miterlimit="10" stroke-width=".79391561" d="M19.57 168.352v17.054m5.684-17.054v17.054"/><g clip-path="url(#e)"><path fill="#FFF" d="M3.691 176.879a1.583 1.583 0 1 0-3.165.002 1.583 1.583 0 0 0 3.165-.002m0 0"/></g><g clip-path="url(#f)"><path fill="none" stroke="#000" stroke-miterlimit="10" stroke-width=".39745587" d="M3.691 176.879a1.583 1.583 0 1 0-3.165.002 1.583 1.583 0 0 0 3.165-.002Zm0 0"/></g><path stroke="#000" stroke-miterlimit="10" stroke-width=".39745587" d="M44.297 176.879a1.58 1.58 0 1 0-3.16 0c0 .871.707 1.582 1.578 1.582.875 0 1.582-.711 1.582-1.582Zm0 0"/><use xlink:href="#g" x="12.929" y="195.475"/><use xlink:href="#h" x="17.082" y="195.475"/><use xlink:href="#i" x="22.718" y="195.475"/><use xlink:href="#j" x="27.559" y="195.475"/><path fill="none" stroke="#000" stroke-miterlimit="10" stroke-width=".79391561" d="M75.656 176.879c0-5.82-4.719-10.543-10.543-10.543-5.82 0-10.539 4.723-10.539 10.543s4.719 10.539 10.54 10.539c5.823 0 10.542-4.719 10.542-10.54Zm0 0"/><path fill="none" stroke="#000" stroke-miterlimit="10" stroke-width=".39745587" d="M69.922 161.047v9.578l-8.527 3.91"/><path fill="none" stroke="#000" stroke-miterlimit="10" stroke-width=".79391561" d="M61.395 170.625v12.508"/><path fill="none" stroke="#000" stroke-miterlimit="10" stroke-width=".39745587" d="m61.395 179.223 8.527 3.91v9.578"/><path d="m63.906 180.375.95-2.07 3.68 4.191-5.579-.05Zm0 0"/><path fill="none" stroke="#000" stroke-miterlimit="10" stroke-width=".39745587" d="M61.395 176.879h-8.727M69.922 192.512v11.27m0 22.738v11.27"/><path fill="none" stroke="#000" stroke-miterlimit="10" stroke-width=".79391561" d="M65.66 226.52V203.78h8.528v22.739Zm0 0"/><path stroke="#000" stroke-miterlimit="10" stroke-width=".39745587" d="M71.504 237.79c0-.872-.707-1.583-1.582-1.583a1.582 1.582 0 0 0 0 3.164 1.58 1.58 0 0 0 1.582-1.582Zm0 0"/><use xlink:href="#k" x="63.517" y="222.818"/><use xlink:href="#l" x="63.517" y="218.352"/><use xlink:href="#m" x="63.517" y="212.403"/><path fill="none" stroke="#000" stroke-miterlimit="10" stroke-width=".39745587" d="M69.922 237.79v9.882"/><g clip-path="url(#n)"><path fill="none" stroke="#000" stroke-linecap="round" stroke-miterlimit="10" stroke-width=".79391561" d="M63.992 247.672h11.86"/></g><path fill="none" stroke="#000" stroke-miterlimit="10" stroke-width=".39745587" d="M42.715 176.879v7.816m0 0v19.086m0 22.739v11.27"/><path fill="none" stroke="#000" stroke-miterlimit="10" stroke-width=".79391561" d="M38.453 226.52V203.78h8.527v22.739Zm0 0"/><path stroke="#000" stroke-miterlimit="10" stroke-width=".39745587" d="M44.297 237.79c0-.872-.707-1.583-1.582-1.583a1.582 1.582 0 0 0 0 3.164 1.58 1.58 0 0 0 1.582-1.582Zm0 0"/><use xlink:href="#o" x="36.311" y="225.051"/><use xlink:href="#p" x="36.311" y="220.585"/><use xlink:href="#l" x="36.311" y="216.119"/><use xlink:href="#m" x="36.311" y="210.171"/><path fill="none" stroke="#000" stroke-miterlimit="10" stroke-width=".39745587" d="M42.715 176.879v-19.086m0-22.738v-19.086H56.32m0 0h13.602v22.636m0 0v22.641"/><path fill="none" stroke="#000" stroke-miterlimit="10" stroke-width=".79391561" d="M46.98 135.055v22.738h-8.527v-22.738Zm0 0"/><use xlink:href="#q" x="35.239" y="157.811"/><use xlink:href="#r" x="35.239" y="153.345"/><use xlink:href="#p" x="35.239" y="151.497"/><use xlink:href="#s" x="35.239" y="145.548"/><use xlink:href="#m" x="35.239" y="140.814"/><path stroke="#000" stroke-miterlimit="10" stroke-width=".39745587" d="M71.504 115.969a1.58 1.58 0 1 0-3.16-.003 1.58 1.58 0 0 0 3.16.003Zm0 0"/><path fill="none" stroke="#000" stroke-linejoin="bevel" stroke-miterlimit="10" stroke-width=".79391561" d="M69.766 82.883c2.351 0 4.261 1.316 4.261 2.941s-1.91 2.942-4.261 2.942c2.351 0 4.261 1.316 4.261 2.941s-1.91 2.941-4.261 2.941c2.351 0 4.261 1.317 4.261 2.942s-1.91 2.941-4.261 2.941c2.351 0 4.261 1.317 4.261 2.942s-1.91 2.941-4.261 2.941M87.137 106.414c-2.356 0-4.262-1.316-4.262-2.941s1.906-2.942 4.262-2.942c-2.356 0-4.262-1.316-4.262-2.941s1.906-2.942 4.262-2.942c-2.356 0-4.262-1.316-4.262-2.941s1.906-2.941 4.262-2.941c-2.356 0-4.262-1.317-4.262-2.942s1.906-2.941 4.262-2.941"/><path fill="none" stroke="#000" stroke-miterlimit="10" stroke-width=".39745587" d="M69.922 73.332v9.945m0 22.743v9.949m17.055-42.637v9.945m0 22.743v9.949"/><path fill="none" stroke="#000" stroke-miterlimit="10" stroke-width=".79391561" d="M79.516 105.309v-21.32m-2.133 21.32v-21.32"/><path fill="none" stroke="#000" stroke-miterlimit="10" stroke-width=".39745587" d="M69.922 73.332V54.246m0-22.742V12.418H36.016m0 0H2.109"/><path fill="none" stroke="#000" stroke-linejoin="bevel" stroke-miterlimit="10" stroke-width=".79391561" d="M69.766 54.64c2.351 0 4.261-1.316 4.261-2.94 0-1.626-1.91-2.942-4.261-2.942 2.351 0 4.261-1.317 4.261-2.942s-1.91-2.941-4.261-2.941c2.351 0 4.261-1.316 4.261-2.941s-1.91-2.942-4.261-2.942c2.351 0 4.261-1.316 4.261-2.941s-1.91-2.942-4.261-2.942"/><path stroke="#000" stroke-miterlimit="10" stroke-width=".39745587" d="M71.504 73.332a1.58 1.58 0 1 0-3.16-.003 1.58 1.58 0 0 0 3.16.003ZM71.504 12.418a1.58 1.58 0 1 0-3.16.003 1.58 1.58 0 0 0 3.16-.003Zm0 0"/><g clip-path="url(#t)"><path fill="#FFF" d="M3.691 12.418a1.582 1.582 0 0 0-3.164 0 1.583 1.583 0 0 0 3.164 0m0 0"/></g><g clip-path="url(#u)"><path fill="none" stroke="#000" stroke-miterlimit="10" stroke-width=".39745587" d="M3.691 12.418a1.582 1.582 0 0 0-3.164 0 1.583 1.583 0 0 0 3.164 0Zm0 0"/></g><use xlink:href="#v" x="5.284" y="9.14"/><use xlink:href="#w" x="9.75" y="9.14"/><use xlink:href="#x" x="14.216" y="9.14"/><use xlink:href="#y" x="20.164" y="9.14"/><path fill="none" stroke="#000" stroke-miterlimit="10" stroke-width=".39745587" d="M69.922 12.418h77.766m0 0h77.761"/><g clip-path="url(#z)"><path fill="#FFF" d="M227.031 12.418a1.582 1.582 0 0 0-3.164 0 1.583 1.583 0 0 0 3.164 0m0 0"/></g><g clip-path="url(#A)"><path fill="none" stroke="#000" stroke-miterlimit="10" stroke-width=".39745587" d="M227.031 12.418a1.582 1.582 0 0 0-3.164 0 1.583 1.583 0 0 0 3.164 0Zm0 0"/></g><path fill="none" stroke="#000" stroke-miterlimit="10" stroke-width=".39745587" d="M69.922 73.332H52.46m-5.684 0h-17.46"/><path fill="none" stroke="#000" stroke-miterlimit="10" stroke-width=".79391561" d="M52.46 81.86V64.8m-5.683 17.06V64.8"/><use xlink:href="#B" x="38.635" y="91.927"/><use xlink:href="#C" x="43.101" y="91.927"/><use xlink:href="#w" x="44.949" y="91.927"/><use xlink:href="#D" x="50.898" y="91.927"/><use xlink:href="#E" x="55.819" y="91.927"/><path fill="none" stroke="#000" stroke-miterlimit="10" stroke-width=".39745587" d="M29.316 73.332v9.883"/><path fill="none" stroke="#000" stroke-linecap="round" stroke-miterlimit="10" stroke-width=".79391561" d="M23.387 83.215h11.86"/><path fill="none" stroke="#000" stroke-miterlimit="10" stroke-width=".39745587" d="M86.977 115.969h5.078m0 0h5.074v38.27m0 0v49.542m0 22.739v11.27"/><path stroke="#000" stroke-miterlimit="10" stroke-width=".39745587" d="M98.71 115.969a1.583 1.583 0 0 0-3.164 0 1.582 1.582 0 0 0 3.165 0ZM98.71 192.512a1.583 1.583 0 1 0-3.165.001 1.583 1.583 0 0 0 3.166-.001Zm0 0"/><path fill="none" stroke="#000" stroke-miterlimit="10" stroke-width=".79391561" d="M92.867 226.52V203.78h8.528v22.739Zm0 0"/><path stroke="#000" stroke-miterlimit="10" stroke-width=".39745587" d="M98.71 237.79a1.583 1.583 0 1 0-3.165 0 1.583 1.583 0 0 0 3.166 0Zm0 0"/><use xlink:href="#F" x="90.723" y="222.818"/><use xlink:href="#F" x="90.723" y="218.352"/><use xlink:href="#m" x="90.723" y="212.403"/><path fill="none" stroke="#000" stroke-miterlimit="10" stroke-width=".39745587" d="M97.129 115.969V95.664m0 0V55.262m0-22.742V12.418"/><path fill="none" stroke="#000" stroke-miterlimit="10" stroke-width=".79391561" d="M101.395 32.52v22.742h-8.528V32.52Zm0 0"/><path stroke="#000" stroke-miterlimit="10" stroke-width=".39745587" d="M98.71 12.418a1.582 1.582 0 0 0-3.164 0 1.583 1.583 0 0 0 3.165 0Zm0 0"/><use xlink:href="#o" x="90.723" y="53.792"/><use xlink:href="#p" x="90.723" y="49.326"/><use xlink:href="#l" x="90.723" y="44.86"/><use xlink:href="#m" x="90.723" y="38.912"/><path fill="none" stroke="#000" stroke-miterlimit="10" stroke-width=".39745587" d="M97.129 192.512h10.152m0 0h10.153v19.797m0 5.683v19.797"/><path stroke="#000" stroke-miterlimit="10" stroke-width=".39745587" d="M119.016 192.512a1.583 1.583 0 1 0-3.162.002 1.583 1.583 0 0 0 3.162-.002Zm0 0"/><path fill="none" stroke="#000" stroke-miterlimit="10" stroke-width=".79391561" d="M125.96 212.309h-17.054m17.055 5.683h-17.055"/><path stroke="#000" stroke-miterlimit="10" stroke-width=".39745587" d="M119.016 237.79a1.583 1.583 0 1 0-3.162.002 1.583 1.583 0 0 0 3.162-.003Zm0 0"/><use xlink:href="#G" x="120.607" y="207.18"/><use xlink:href="#H" x="125.493" y="209.055"/><use xlink:href="#B" x="120.607" y="227.332"/><use xlink:href="#C" x="125.073" y="227.332"/><use xlink:href="#w" x="126.922" y="227.332"/><use xlink:href="#D" x="132.871" y="227.332"/><use xlink:href="#E" x="137.792" y="227.332"/><path fill="none" stroke="#000" stroke-miterlimit="10" stroke-width=".39745587" d="M117.434 192.512h17.765m0 0h17.766v19.797m0 5.683v19.797"/><path fill="none" stroke="#000" stroke-linecap="square" stroke-miterlimit="10" stroke-width=".79391561" d="M145.86 212.309v1.707h14.21v-1.707h-14.21"/><path stroke="#000" stroke-linecap="square" stroke-miterlimit="10" stroke-width=".79391561" d="M145.86 217.992v-1.703h14.21v1.703h-14.21"/><use xlink:href="#I" x="150.247" y="207.883"/><path stroke="#000" stroke-miterlimit="10" stroke-width=".39745587" d="M154.547 237.79a1.583 1.583 0 1 0-3.166 0 1.583 1.583 0 0 0 3.166 0Zm0 0"/><use xlink:href="#G" x="156.138" y="207.18"/><use xlink:href="#J" x="161.024" y="209.055"/><use xlink:href="#K" x="156.138" y="227.332"/><use xlink:href="#C" x="160.604" y="227.332"/><use xlink:href="#K" x="162.453" y="227.332"/><use xlink:href="#D" x="168.402" y="227.332"/><use xlink:href="#E" x="173.323" y="227.332"/><path fill="none" stroke="#000" stroke-miterlimit="10" stroke-width=".79391561" d="M202.555 176.879c0-5.82-4.723-10.543-10.543-10.543s-10.54 4.723-10.54 10.543 4.72 10.539 10.54 10.539 10.543-4.719 10.543-10.54Zm0 0"/><path fill="none" stroke="#000" stroke-miterlimit="10" stroke-width=".39745587" d="M196.82 161.047v9.578l-8.527 3.91"/><path fill="none" stroke="#000" stroke-miterlimit="10" stroke-width=".79391561" d="M188.293 170.625v12.508"/><path fill="none" stroke="#000" stroke-miterlimit="10" stroke-width=".39745587" d="m188.293 179.223 8.527 3.91v9.578"/><path d="m190.805 180.375.949-2.07 3.68 4.191-5.579-.05Zm0 0"/><path fill="none" stroke="#000" stroke-miterlimit="10" stroke-width=".39745587" d="M188.293 176.879h-8.727M86.977 73.332h7.617m0 0h7.613v20.3m0 0v83.247h77.559"/><path fill="none" stroke="#000" stroke-linejoin="bevel" stroke-miterlimit="10" stroke-width=".79391561" d="M196.66 128.16c2.356 0 4.266 1.317 4.266 2.942s-1.91 2.941-4.266 2.941c2.356 0 4.266 1.316 4.266 2.941s-1.91 2.942-4.266 2.942c2.356 0 4.266 1.316 4.266 2.941s-1.91 2.942-4.266 2.942c2.356 0 4.266 1.316 4.266 2.941s-1.91 2.941-4.266 2.941M214.035 151.691c-2.355 0-4.265-1.316-4.265-2.941s1.91-2.941 4.265-2.941c-2.355 0-4.265-1.317-4.265-2.942s1.91-2.941 4.265-2.941c-2.355 0-4.265-1.317-4.265-2.942s1.91-2.941 4.265-2.941c-2.355 0-4.265-1.316-4.265-2.941s1.91-2.942 4.265-2.942"/><path fill="none" stroke="#000" stroke-miterlimit="10" stroke-width=".39745587" d="M196.82 118.61v9.945m0 22.742v9.95m17.055-42.638v9.946m0 22.742v9.95"/><path fill="none" stroke="#000" stroke-miterlimit="10" stroke-width=".79391561" d="M206.414 150.586v-21.32m-2.133 21.32v-21.32"/><path fill="none" stroke="#000" stroke-miterlimit="10" stroke-width=".39745587" d="M196.82 118.61h-5.074m0 0h-5.078v9.945m0 22.742v9.95h5.078m0 0h5.074"/><path stroke="#000" stroke-miterlimit="10" stroke-width=".39745587" d="M198.402 118.61a1.583 1.583 0 0 0-3.164 0 1.582 1.582 0 0 0 3.164 0Zm0 0"/><path fill="none" stroke="#000" stroke-miterlimit="10" stroke-width=".79391561" d="M182.406 151.297v-22.742h8.528v22.742Zm0 0"/><use xlink:href="#L" x="180.262" y="154.69"/><use xlink:href="#M" x="180.262" y="149.43"/><use xlink:href="#k" x="180.262" y="144.964"/><use xlink:href="#N" x="180.262" y="140.498"/><use xlink:href="#l" x="180.262" y="136.032"/><use xlink:href="#m" x="180.262" y="130.084"/><path stroke="#000" stroke-miterlimit="10" stroke-width=".39745587" d="M198.402 161.246a1.583 1.583 0 0 0-3.164 0 1.582 1.582 0 0 0 3.164 0Zm0 0"/><path fill="none" stroke="#000" stroke-miterlimit="10" stroke-width=".39745587" d="M196.82 118.61V95.968m0 0V54.246m0-22.742V12.418"/><path fill="none" stroke="#000" stroke-linejoin="bevel" stroke-miterlimit="10" stroke-width=".79391561" d="M196.98 54.64c-2.355 0-4.265-1.316-4.265-2.94 0-1.626 1.91-2.942 4.265-2.942-2.355 0-4.265-1.317-4.265-2.942s1.91-2.941 4.265-2.941c-2.355 0-4.265-1.316-4.265-2.941s1.91-2.942 4.265-2.942c-2.355 0-4.265-1.316-4.265-2.941s1.91-2.942 4.265-2.942"/><path stroke="#000" stroke-miterlimit="10" stroke-width=".39745587" d="M198.402 12.418a1.582 1.582 0 0 0-3.164 0 1.583 1.583 0 0 0 3.164 0Zm0 0"/><path fill="none" stroke="#000" stroke-miterlimit="10" stroke-width=".39745587" d="M196.82 73.332h-21.925m0 0h-21.93v17.461m0 5.684v17.46"/><path stroke="#000" stroke-miterlimit="10" stroke-width=".39745587" d="M198.402 73.332a1.583 1.583 0 0 0-3.164 0 1.582 1.582 0 0 0 3.164 0Zm0 0"/><path fill="none" stroke="#000" stroke-linecap="square" stroke-miterlimit="10" stroke-width=".79391561" d="M145.86 90.793v1.703h14.21v-1.703h-14.21"/><path stroke="#000" stroke-linecap="square" stroke-miterlimit="10" stroke-width=".79391561" d="M145.86 96.477V94.77h14.21v1.707h-14.21"/><use xlink:href="#I" x="150.247" y="86.368"/><use xlink:href="#G" x="156.138" y="85.728"/><use xlink:href="#O" x="161.024" y="87.604"/><use xlink:href="#w" x="156.138" y="105.817"/><use xlink:href="#P" x="160.604" y="105.817"/><use xlink:href="#D" x="166.553" y="105.817"/><use xlink:href="#E" x="171.474" y="105.817"/><path fill="none" stroke="#000" stroke-miterlimit="10" stroke-width=".39745587" d="M152.965 73.332h-17.766m0 0h-17.765v17.461m0 5.684v17.46"/><path stroke="#000" stroke-miterlimit="10" stroke-width=".39745587" d="M154.547 73.332a1.58 1.58 0 0 0-1.582-1.582 1.58 1.58 0 1 0 0 3.16 1.58 1.58 0 0 0 1.582-1.578Zm0 0"/><path fill="none" stroke="#000" stroke-miterlimit="10" stroke-width=".79391561" d="M125.96 90.793h-17.054m17.055 5.684h-17.055"/><use xlink:href="#G" x="120.607" y="85.671"/><use xlink:href="#Q" x="125.493" y="87.547"/><use xlink:href="#B" x="120.607" y="105.817"/><use xlink:href="#C" x="125.073" y="105.817"/><use xlink:href="#K" x="126.922" y="105.817"/><use xlink:href="#D" x="132.871" y="105.817"/><use xlink:href="#E" x="137.792" y="105.817"/><path fill="none" stroke="#000" stroke-miterlimit="10" stroke-width=".39745587" d="M152.965 113.938h-17.766m0 0h-17.765M135.2 113.938"/><path stroke="#000" stroke-miterlimit="10" stroke-width=".39745587" d="M136.781 113.938a1.58 1.58 0 0 0-1.582-1.583 1.58 1.58 0 0 0-1.582 1.583 1.58 1.58 0 0 0 1.582 1.582 1.58 1.58 0 0 0 1.582-1.582Zm0 0"/><path fill="none" stroke="#000" stroke-miterlimit="10" stroke-width=".39745587" d="M135.2 113.938v9.882"/><path fill="none" stroke="#000" stroke-linecap="round" stroke-miterlimit="10" stroke-width=".79391561" d="M129.27 123.82h11.859"/><path fill="none" stroke="#000" stroke-miterlimit="10" stroke-width=".39745587" d="M196.82 192.512v11.27m0 22.738v11.27"/><path fill="none" stroke="#000" stroke-miterlimit="10" stroke-width=".79391561" d="M192.559 226.52V203.78h8.527v22.739Zm0 0"/><path stroke="#000" stroke-miterlimit="10" stroke-width=".39745587" d="M198.402 237.79a1.583 1.583 0 1 0-3.165 0 1.583 1.583 0 0 0 3.165 0Zm0 0"/><use xlink:href="#l" x="209.387" y="226.511"/><use xlink:href="#r" x="209.387" y="222.046"/><use xlink:href="#R" x="209.387" y="220.197"/><use xlink:href="#S" x="209.387" y="215.731"/><use xlink:href="#m" x="209.387" y="209.782"/><path fill="none" stroke="#000" stroke-miterlimit="10" stroke-width=".39745587" d="M213.875 118.61h5.79m0 0h5.784"/><g clip-path="url(#T)"><path fill="#FFF" d="M227.031 118.61a1.583 1.583 0 0 0-3.164 0 1.582 1.582 0 0 0 3.164 0m0 0"/></g><g clip-path="url(#U)"><path fill="none" stroke="#000" stroke-miterlimit="10" stroke-width=".39745587" d="M227.031 118.61a1.583 1.583 0 0 0-3.164 0 1.582 1.582 0 0 0 3.164 0Zm0 0"/></g><path fill="none" stroke="#000" stroke-miterlimit="10" stroke-width=".39745587" d="M213.875 161.246h5.79m0 0h5.784"/><g clip-path="url(#V)"><path fill="#FFF" d="M227.031 161.246a1.583 1.583 0 0 0-3.164 0 1.582 1.582 0 0 0 3.164 0m0 0"/></g><g clip-path="url(#W)"><path fill="none" stroke="#000" stroke-miterlimit="10" stroke-width=".39745587" d="M227.031 161.246a1.583 1.583 0 0 0-3.164 0 1.582 1.582 0 0 0 3.164 0Zm0 0"/></g><path fill="none" stroke="#000" stroke-miterlimit="10" stroke-width=".39745587" d="M152.965 12.418v17.46m0 5.688v17.461"/><path fill="none" stroke="#000" stroke-linecap="square" stroke-miterlimit="10" stroke-width=".79391561" d="M145.86 29.879v1.707h14.21v-1.707h-14.21"/><path stroke="#000" stroke-linecap="square" stroke-miterlimit="10" stroke-width=".79391561" d="M145.86 35.566V33.86h14.21v1.707h-14.21"/><use xlink:href="#I" x="150.247" y="25.457"/><path stroke="#000" stroke-miterlimit="10" stroke-width=".39745587" d="M154.547 12.418a1.58 1.58 0 0 0-1.582-1.578 1.58 1.58 0 1 0 0 3.16 1.58 1.58 0 0 0 1.582-1.582Zm0 0"/><path fill="none" stroke="#000" stroke-miterlimit="10" stroke-width=".39745587" d="M152.965 53.027v9.883"/><path fill="none" stroke="#000" stroke-linecap="round" stroke-miterlimit="10" stroke-width=".79391561" d="M147.035 62.91h11.86"/><use xlink:href="#G" x="156.138" y="24.819"/><use xlink:href="#X" x="161.024" y="26.693"/><use xlink:href="#w" x="156.138" y="44.907"/><use xlink:href="#P" x="160.604" y="44.907"/><use xlink:href="#D" x="166.553" y="44.907"/><use xlink:href="#E" x="171.474" y="44.907"/><path fill="none" stroke="#000" stroke-miterlimit="10" stroke-width=".39745587" d="M117.434 12.418v17.46m0 5.688v17.461"/><path fill="none" stroke="#000" stroke-miterlimit="10" stroke-width=".79391561" d="M108.906 29.879h17.055m-17.055 5.687h17.055"/><path stroke="#000" stroke-miterlimit="10" stroke-width=".39745587" d="M119.016 12.418a1.582 1.582 0 0 0-3.164 0 1.583 1.583 0 0 0 3.164 0Zm0 0"/><path fill="none" stroke="#000" stroke-miterlimit="10" stroke-width=".39745587" d="M117.434 53.027v9.883"/><path fill="none" stroke="#000" stroke-linecap="round" stroke-miterlimit="10" stroke-width=".79391561" d="M111.504 62.91h11.86"/><use xlink:href="#G" x="120.607" y="24.819"/><use xlink:href="#Y" x="125.493" y="26.693"/><use xlink:href="#B" x="120.607" y="44.907"/><use xlink:href="#C" x="125.073" y="44.907"/><use xlink:href="#K" x="126.922" y="44.907"/><use xlink:href="#D" x="132.871" y="44.907"/><use xlink:href="#E" x="137.792" y="44.907"/></svg>