<svg xmlns="http://www.w3.org/2000/svg" width="113.388" height="85.041"><defs><clipPath id="a"><path d="M.328 2h112.125v80H.328Zm0 0"/></clipPath><clipPath id="b"><path d="M.328 0h112.125v35H.328Zm0 0"/></clipPath><clipPath id="c"><path d="M.328 49h112.125v35.094H.328Zm0 0"/></clipPath></defs><g clip-path="url(#a)"><path fill="#7F7F7F" fill-opacity=".5" d="m.328 7.645.567.367c.156.105.406.265.562.367s.406.266.563.363a45 45 0 0 0 1.128.703c.157.098.407.246.563.34.156.09.406.235.562.32.157.09.407.227.563.313.156.082.406.21.566.289.157.082.407.203.563.277l.562.254c.157.067.407.172.563.23.156.063.406.157.562.212s.41.136.567.187c.156.047.406.117.562.16.156.04.406.098.563.133s.406.082.562.106c.156.027.41.062.567.082.156.015.406.039.562.05.156.008.406.02.563.024.156 0 .406 0 .562-.008.156-.004.41-.02.567-.035.156-.012.406-.04.562-.063.156-.02.406-.058.563-.09a14 14 0 0 0 1.128-.261 15 15 0 0 0 1.688-.586 22 22 0 0 0 1.129-.504c.156-.074.406-.203.562-.281.157-.082.407-.215.563-.301s.406-.227.562-.316c.157-.09.41-.235.567-.329.156-.093.406-.246.562-.34l.563-.351c.156-.098.406-.258.562-.36.157-.1.41-.261.567-.367l.562-.367.563-.367a46 46 0 0 1 1.129-.734l.562-.364.563-.351a44 44 0 0 1 1.128-.676 41 41 0 0 1 1.125-.621c.157-.082.407-.207.563-.285.156-.074.406-.195.566-.266a16.794 16.794 0 0 1 2.25-.844c.157-.046.41-.113.567-.152a14.115 14.115 0 0 1 1.125-.219c.156-.023.406-.05.562-.066s.41-.035.567-.04a13.518 13.518 0 0 1 1.125.004c.156.009.406.032.562.048.156.015.41.05.567.074s.406.07.562.101c.156.032.406.09.563.13a15 15 0 0 1 1.129.335c.156.055.406.145.562.203.156.063.406.164.563.23.156.067.406.18.562.25.156.075.406.192.563.27a20.032 20.032 0 0 1 1.129.598 42.28 42.28 0 0 1 1.125.652c.156.098.41.25.566.348s.406.254.562.356c.157.097.407.257.563.359l.562.367c.157.102.41.266.567.371l.562.367.563.368.562.367c.157.097.41.258.567.355l.562.352c.156.094.406.246.563.336.156.094.406.238.562.328s.41.226.567.312c.156.082.406.215.562.293a19 19 0 0 0 1.125.54c.156.066.406.171.563.234.16.062.41.16.566.215.156.058.406.14.562.191a15 15 0 0 0 1.125.305c.157.035.41.086.567.113a14 14 0 0 0 1.125.14c.156.012.406.024.562.028s.41.004.567 0 .406-.016.562-.027c.157-.012.407-.04.563-.059.156-.02.406-.059.562-.086s.41-.078.567-.113a15 15 0 0 0 2.254-.711c.156-.063.406-.168.562-.238.156-.067.406-.184.563-.258s.406-.2.562-.278.406-.21.563-.296c.16-.082.41-.223.566-.313l.563-.324.562-.34.563-.352.566-.355.562-.367c.157-.102.407-.262.563-.367l.562-.368c.157-.105.41-.27.567-.37l.562-.368c.157-.098.407-.262.563-.36.156-.1.406-.257.562-.355s.41-.25.567-.343.406-.247.562-.336.406-.235.563-.32a25.648 25.648 0 0 1 1.691-.863c.156-.075.406-.185.563-.251s.406-.168.562-.23a15.808 15.808 0 0 1 1.691-.54c.157-.039.407-.097.563-.128.156-.032.406-.075.563-.102a14 14 0 0 1 1.128-.117c.157-.008.407-.016.563-.016.156-.004.406.004.562.012s.41.023.567.039a14 14 0 0 1 1.125.164 15 15 0 0 1 1.129.277 16.12 16.12 0 0 1 1.125.375c.156.059.406.16.562.223.156.066.406.176.567.246.156.074.406.192.562.27.156.074.406.203.563.285s.406.215.562.3c.156.087.406.231.563.32a43 43 0 0 1 1.129.677l.562.351c.156.098.406.262.563.36l.566.367.562.367c.157.105.407.27.563.371l.562.367.567.367c.156.098.406.258.562.36l.563.351.562.34c.157.094.41.239.567.328s.406.23.562.317c.157.086.407.219.563.297.156.082.406.207.562.28.157.079.407.196.567.263a17 17 0 0 0 1.687.656c.156.05.406.125.563.172.156.043.41.105.566.144.156.035.406.086.563.117.156.028.406.067.562.09.156.02.406.047.563.063a14 14 0 0 0 1.129.039c.156-.004.406-.016.562-.024a14 14 0 0 0 1.129-.132c.156-.028.406-.075.562-.11.157-.031.407-.094.563-.133.156-.043.406-.113.562-.16.157-.05.41-.133.567-.187a17 17 0 0 0 1.125-.446c.156-.066.406-.18.562-.253.157-.07.407-.196.563-.274.16-.078.41-.21.566-.293s.406-.223.563-.308l.562-.325.563-.336.566-.347V75s-.41-.254-.566-.348c-.157-.093-.407-.246-.563-.336a21 21 0 0 0-.562-.324c-.157-.09-.407-.226-.563-.312-.156-.082-.406-.211-.566-.293-.156-.078-.406-.2-.563-.274a18 18 0 0 0-.562-.254 34 34 0 0 0-.563-.234l-.562-.21a16 16 0 0 0-1.692-.481 14.122 14.122 0 0 0-1.129-.187 9 9 0 0 0-.562-.052 9 9 0 0 0-.562-.023c-.157-.004-.407 0-.563.004-.156.008-.41.02-.566.035-.157.012-.407.039-.563.062-.156.02-.406.059-.562.09a14 14 0 0 0-1.13.262c-.156.043-.406.117-.562.168-.156.05-.406.14-.562.195-.157.059-.407.157-.563.219a25.027 25.027 0 0 0-1.129.504c-.156.074-.406.203-.562.281-.156.082-.406.215-.563.301s-.406.223-.562.312a43 43 0 0 0-1.13.672c-.155.094-.405.254-.562.352-.156.098-.406.258-.562.36-.156.097-.41.261-.567.363l-.562.367c-.156.105-.406.27-.563.37l-.562.368-.566.367c-.157.102-.407.262-.563.36-.156.101-.406.257-.562.355-.157.094-.407.25-.563.344a43 43 0 0 1-1.129.648c-.156.086-.406.223-.562.305s-.407.207-.563.285c-.156.074-.406.195-.562.266-.16.07-.41.18-.567.246s-.406.164-.562.222c-.156.063-.406.149-.563.204-.156.05-.406.129-.562.175a14.513 14.513 0 0 1-1.129.273c-.156.032-.406.075-.563.098a13.809 13.809 0 0 1-1.129.11c-.156.008-.406.012-.562.012s-.406-.008-.563-.016a27 27 0 0 1-.562-.047c-.156-.016-.41-.05-.566-.074-.157-.024-.407-.07-.563-.102a15 15 0 0 1-1.125-.281c-.156-.047-.41-.129-.566-.184a16 16 0 0 1-1.125-.43c-.157-.066-.407-.179-.563-.25-.156-.073-.406-.195-.562-.269a20.032 20.032 0 0 1-1.129-.598 42.28 42.28 0 0 1-1.691-1l-.563-.351c-.156-.102-.406-.262-.563-.363l-.562-.367-.567-.368c-.156-.105-.406-.27-.562-.37l-.563-.368c-.156-.102-.406-.266-.562-.363-.156-.102-.41-.262-.567-.36s-.406-.254-.562-.347c-.156-.098-.406-.246-.562-.34a42 42 0 0 0-.563-.328c-.156-.086-.406-.227-.566-.313l-.563-.297c-.156-.078-.406-.203-.562-.277a36 36 0 0 0-.563-.258c-.156-.07-.406-.176-.562-.238-.157-.063-.41-.156-.567-.215-.156-.055-.406-.14-.562-.191a14.79 14.79 0 0 0-1.125-.305 15 15 0 0 0-.567-.113c-.156-.028-.406-.063-.562-.086a14 14 0 0 0-1.125-.086 14 14 0 0 0-.567 0 14 14 0 0 0-1.125.086c-.156.02-.406.058-.562.086a15 15 0 0 0-1.129.25c-.156.043-.406.117-.563.164-.156.05-.406.137-.562.191-.156.059-.406.153-.566.215-.157.063-.407.168-.563.238-.156.067-.406.184-.562.258s-.407.2-.563.278-.406.21-.562.296c-.157.082-.41.223-.567.313-.156.086-.406.234-.562.324-.157.094-.407.242-.563.34a45.465 45.465 0 0 0-1.129.707c-.156.102-.406.262-.562.363l-.563.367c-.156.102-.406.27-.562.372l-.567.367-.562.367-.563.363-.562.356c-.156.093-.41.25-.567.343l-.562.336c-.156.09-.406.235-.563.32a25.65 25.65 0 0 1-1.691.863c-.156.075-.406.185-.562.25a17 17 0 0 1-.563.231 16 16 0 0 1-1.129.387c-.156.047-.406.113-.562.156-.157.04-.407.094-.563.13-.156.03-.406.073-.562.1-.157.024-.41.056-.567.075a14 14 0 0 1-1.125.063c-.156 0-.406-.004-.562-.012s-.41-.024-.567-.04a14 14 0 0 1-1.125-.163 15 15 0 0 1-1.691-.45c-.156-.054-.406-.14-.563-.199s-.406-.16-.562-.226a12 12 0 0 1-.563-.246 19.028 19.028 0 0 1-1.129-.55 39 39 0 0 1-.562-.302 42.641 42.641 0 0 1-1.691-.996c-.157-.094-.407-.254-.563-.352a45 45 0 0 1-.562-.359l-.567-.367-.562-.367c-.157-.102-.407-.27-.563-.371l-.562-.368c-.157-.101-.41-.265-.567-.363a45 45 0 0 0-.562-.36 22 22 0 0 0-.563-.35c-.156-.099-.406-.25-.562-.345l-.567-.328c-.156-.09-.406-.23-.562-.316a20 20 0 0 0-.563-.297 19 19 0 0 0-.562-.281 18 18 0 0 0-.563-.266c-.16-.07-.41-.176-.566-.242-.156-.063-.406-.16-.563-.219-.156-.055-.406-.144-.562-.195a15 15 0 0 0-1.129-.313 15 15 0 0 0-.562-.12 28 28 0 0 0-.563-.09 14 14 0 0 0-.562-.063c-.157-.012-.41-.027-.567-.035a14 14 0 0 0-.562-.004c-.157 0-.407.012-.563.023a9 9 0 0 0-.562.051c-.157.016-.41.05-.567.078s-.406.074-.562.106a15 15 0 0 0-1.125.297c-.156.046-.41.128-.567.183a17 17 0 0 0-1.125.445c-.156.067-.406.18-.562.254s-.406.196-.563.274c-.16.078-.41.207-.566.293-.156.082-.406.219-.563.308-.156.086-.406.23-.562.325-.156.09-.406.242-.563.336-.156.093-.41.25-.566.347l-.562.356c-.157.101-.407.261-.563.363l-.562.367-.567.371Zm0 0"/></g><g clip-path="url(#b)"><path fill="none" stroke="#000" stroke-miterlimit="10" stroke-width="1.5762269" d="m.328 7.645.567.367c.156.105.406.265.562.367s.406.266.563.363c.156.102.406.258.562.356s.41.254.566.347c.157.098.407.246.563.34.156.09.406.235.562.32.157.09.407.227.563.313.156.082.406.21.566.289.157.082.407.203.563.277l.562.254c.157.067.407.172.563.23.156.063.406.157.562.212s.41.136.567.187c.156.047.406.117.562.16.157.04.407.098.563.133s.406.082.562.106c.157.027.41.062.567.082.156.015.406.039.562.05.156.008.406.02.563.024.156 0 .406 0 .562-.008.156-.004.41-.02.567-.035a9 9 0 0 0 .562-.063c.156-.02.406-.058.563-.09a14 14 0 0 0 1.128-.261 15 15 0 0 0 1.688-.586 22 22 0 0 0 1.129-.504c.156-.074.406-.203.562-.281.157-.082.407-.215.563-.301s.406-.227.562-.316c.157-.09.41-.235.567-.329.156-.093.406-.246.562-.34l.563-.351c.156-.098.406-.258.562-.36.157-.1.41-.261.567-.367l.562-.367.563-.367a46 46 0 0 1 1.129-.734l.562-.364.563-.351a44 44 0 0 1 1.129-.676 41 41 0 0 1 1.125-.621c.156-.082.406-.207.562-.285.156-.074.406-.195.566-.266a16.794 16.794 0 0 1 2.25-.844 15 15 0 0 1 .567-.152 14.116 14.116 0 0 1 1.125-.219c.156-.023.406-.05.562-.066s.41-.035.567-.04a13.516 13.516 0 0 1 1.125.004c.156.009.406.032.562.048.156.015.41.05.567.074s.406.07.562.101c.156.032.406.09.563.13a15 15 0 0 1 1.129.335c.156.055.406.145.562.203.156.063.406.164.563.23.156.067.406.18.562.25.156.075.406.192.563.27a20.032 20.032 0 0 1 1.129.598 42.27 42.27 0 0 1 1.125.652c.156.098.41.25.566.348s.406.254.562.356c.157.097.407.257.563.359l.562.367c.157.102.41.266.567.371l.562.367.563.368.562.367c.157.097.41.258.567.355l.562.352c.156.094.406.246.563.336.156.093.406.238.562.328s.41.226.567.312c.156.082.406.215.562.293a19 19 0 0 0 1.125.54c.156.066.406.171.563.234.16.062.41.16.566.215.156.058.406.14.562.191a15 15 0 0 0 1.125.305c.157.035.41.086.567.113a14 14 0 0 0 1.125.14c.156.012.406.024.562.028s.41.004.567 0 .406-.016.562-.027c.157-.012.407-.04.563-.059.156-.02.406-.059.562-.086s.41-.078.567-.113a15 15 0 0 0 2.254-.711c.156-.063.406-.168.562-.238.156-.067.406-.184.563-.258s.406-.2.562-.278.406-.21.563-.296c.16-.082.41-.223.566-.313l.563-.324.562-.34.563-.352.566-.355.562-.367c.157-.102.407-.262.563-.367l.562-.368c.157-.105.41-.27.567-.37l.562-.368c.157-.098.407-.262.563-.36.156-.1.406-.257.562-.355s.41-.25.567-.343.406-.247.562-.336.406-.235.563-.32a25.653 25.653 0 0 1 1.691-.863c.156-.075.406-.185.563-.251s.406-.168.562-.23a15.808 15.808 0 0 1 1.691-.54c.157-.039.407-.097.563-.128.156-.032.406-.075.563-.102a14 14 0 0 1 1.128-.117c.157-.008.407-.016.563-.016.156-.004.406.004.562.012s.41.023.567.039a14 14 0 0 1 1.125.164 15 15 0 0 1 1.129.277 16.12 16.12 0 0 1 1.125.375c.156.059.406.16.562.223.157.066.407.176.567.246.156.074.406.192.562.27.156.074.406.203.563.285s.406.215.562.3c.156.087.406.231.563.32a43 43 0 0 1 1.691 1.028c.156.098.406.262.563.36l.566.367.562.367c.157.105.407.27.563.371l.562.367.567.367c.156.098.406.258.562.36l.563.351.562.34c.157.094.41.239.567.328s.406.23.562.317c.157.086.407.219.563.297.156.082.406.207.562.28.157.079.407.196.567.263a17 17 0 0 0 1.687.656c.156.05.406.125.563.172.156.043.41.105.566.144.156.035.406.086.563.117.156.028.406.067.562.09.156.02.406.047.563.063.156.012.41.027.566.031.156.008.406.008.563.008.156-.004.406-.016.562-.024a14 14 0 0 0 1.129-.132c.156-.028.406-.075.562-.11.157-.031.407-.094.563-.133.156-.043.406-.113.562-.16.157-.05.41-.133.567-.187a17 17 0 0 0 1.125-.446c.156-.066.406-.18.562-.253.157-.07.407-.196.563-.274.16-.078.41-.21.566-.293s.406-.223.563-.308l.562-.325.563-.336c.156-.097.566-.347.566-.347"/></g><g clip-path="url(#c)"><path fill="none" stroke="#000" stroke-miterlimit="10" stroke-width="1.5762269" d="m.328 76.45.567-.372.562-.367c.156-.102.406-.262.563-.363l.562-.356c.156-.097.41-.254.566-.347.157-.094.407-.247.563-.336.156-.094.406-.239.562-.325.157-.09.407-.226.563-.308.156-.086.406-.215.566-.293.157-.078.407-.2.563-.274s.406-.187.562-.254a17 17 0 0 1 1.125-.445 16 16 0 0 1 1.692-.48c.156-.032.406-.078.562-.106a9 9 0 0 1 .567-.078c.156-.02.406-.043.562-.05.156-.012.406-.024.563-.024.156-.004.406 0 .562.004.156.008.41.023.567.035s.406.043.562.062c.156.024.406.063.563.09a15 15 0 0 1 1.128.266c.157.043.407.117.563.168.156.05.406.14.562.195.157.059.407.156.563.219.156.066.406.172.566.242.157.07.407.188.563.266.156.074.406.199.562.281.157.078.407.21.563.297.156.086.406.226.562.316s.41.239.567.328c.156.094.406.246.562.344.157.094.407.25.563.352.156.097.406.258.562.36.157.097.41.26.567.362l.562.368c.156.101.406.27.563.37l.562.368.567.367c.156.102.406.262.562.36s.406.257.563.351a44 44 0 0 0 1.129.676c.156.09.406.234.562.32s.406.219.563.3a19 19 0 0 0 1.128.552c.157.074.407.183.563.246.156.066.406.168.562.226.157.059.407.145.563.2.156.05.406.128.562.175a14.515 14.515 0 0 0 1.129.273 13.82 13.82 0 0 0 1.125.164c.157.016.41.032.567.04s.406.012.562.012.406-.008.563-.02c.156-.008.406-.027.562-.043.156-.02.41-.05.567-.074.156-.028.406-.07.562-.102.156-.035.406-.09.563-.129.156-.043.406-.109.562-.156s.41-.129.567-.183c.156-.051.406-.145.562-.204s.406-.164.563-.23.406-.176.562-.25a25.649 25.649 0 0 0 1.691-.863c.157-.086.407-.23.563-.32l.562-.337c.157-.093.41-.25.567-.343l.562-.356.563-.363.562-.367.567-.367c.156-.102.406-.27.562-.372s.407-.265.563-.367.406-.261.562-.363.41-.262.567-.36.406-.253.562-.347c.156-.098.406-.246.563-.34.156-.09.406-.238.562-.324.156-.09.41-.23.567-.313.156-.086.406-.218.562-.297s.406-.203.563-.277.406-.191.562-.258c.156-.07.406-.175.563-.238.16-.062.41-.156.566-.215.156-.054.406-.14.562-.191.157-.047.407-.121.563-.164s.406-.106.562-.137a13.978 13.978 0 0 1 1.129-.2 14 14 0 0 1 1.125-.085c.157-.004.41-.004.567 0a14 14 0 0 1 1.125.086c.156.023.406.058.562.086s.41.078.567.113a15 15 0 0 1 1.125.305c.156.05.406.136.562.191.156.059.41.152.567.215.156.062.406.168.562.238s.406.184.563.258.406.2.562.277l.563.297c.16.086.41.227.566.313.156.09.406.234.563.328s.406.242.562.34a44 44 0 0 1 1.129.707c.156.097.406.261.562.363l.563.367c.156.102.406.266.562.371l.567.368.562.367c.157.101.407.261.563.363l.562.352a44 44 0 0 0 1.13.68c.155.093.405.234.562.32a20 20 0 0 0 1.129.597l.562.27c.156.07.406.183.563.25.156.066.406.168.562.226.156.059.406.153.563.203.156.055.41.137.566.184a15 15 0 0 0 1.125.281c.156.032.406.078.563.102s.41.058.566.074.406.035.562.047c.157.008.407.016.563.016s.406-.004.562-.012a14 14 0 0 0 1.13-.11c.156-.023.406-.066.562-.097a15 15 0 0 0 1.691-.45c.157-.054.407-.14.563-.203a17 17 0 0 0 1.129-.468c.156-.07.406-.192.562-.266.156-.078.406-.203.563-.285a40 40 0 0 0 1.691-.953c.156-.094.406-.25.563-.344.156-.098.406-.254.562-.355.156-.098.406-.258.563-.36l.566-.367.562-.367c.157-.102.407-.266.563-.371l.562-.367c.157-.102.41-.266.567-.364l.562-.36c.157-.097.407-.257.563-.35a42.642 42.642 0 0 1 1.129-.672c.156-.09.406-.227.562-.313s.407-.219.563-.3c.156-.079.406-.208.562-.282s.407-.191.567-.262c.156-.07.406-.176.562-.242.156-.062.406-.16.563-.219.156-.054.406-.144.562-.195a15 15 0 0 1 1.13-.313c.155-.035.405-.09.562-.117a9 9 0 0 1 .562-.09 9 9 0 0 1 .563-.062c.156-.016.41-.027.566-.035.156-.004.406-.008.563-.004.156 0 .406.012.562.023.156.008.406.032.563.051.156.02.41.055.566.082.156.024.406.074.562.106a15 15 0 0 1 1.125.296c.157.047.41.13.567.184l.562.211c.157.062.407.168.563.234.156.067.406.18.562.254s.407.196.563.274c.16.082.41.21.566.293.156.086.406.222.563.312.156.086.406.23.562.324.156.09.406.243.563.336s.566.348.566.348"/></g></svg>