<svg xmlns="http://www.w3.org/2000/svg" xmlns:xlink="http://www.w3.org/1999/xlink" width="226.854" height="80.938"><defs><path id="b" d="M2.031-.578v-4.438L.687-4.75a1 1 0 0 1-.015-.187c0-.133.07-.235.219-.297l1.468-.578h.454v5.234l1.093.172q.124.016.125.11 0 .08-.093.296H.874a.16.16 0 0 1-.016-.078q0-.311.282-.36Zm0 0"/><path id="d" d="M6.281-6.172v.078q-.002.237-.297.297l-.421.094V0h-.547l-3.36-5.203h-.015V-.5l.609.14q.124.018.125.094 0 .048-.094.266H.421a.16.16 0 0 1-.015-.078Q.404-.324.72-.406L1.094-.5v-5.203l-.547-.125c-.086-.02-.125-.05-.125-.094q0-.075.094-.25h1.422L5-1.437h.016v-4.266l-.547-.125c-.086-.02-.125-.05-.125-.094q0-.075.093-.25Zm0 0"/><path id="e" d="M1.156-2.172q.012.845.375 1.297.359.439 1.016.438c.394 0 .765-.133 1.11-.407q.092.064.109.25-.001.205-.407.438Q2.89.109 2.25.109 1.434.111.953-.39.391-.965.391-2.062.39-3.173.969-3.828q.527-.576 1.312-.578.702 0 1.094.422.375.41.375 1.078c0 .199-.04.445-.11.734Zm1.032-1.765q-.892.002-1.016 1.328h1.766q.046-.171.046-.375 0-.951-.796-.953m0 0"/><path id="f" d="M.875-4.297 1.031-5.5h.532v1.203h1.343l-.094.469h-1.25v2.75q0 .674.579.672.45 0 .75-.235.06.095.062.266-.002.112-.25.266-.33.217-.828.218Q.827.11.828-.92v-2.907H.156a.2.2 0 0 1-.015-.063q0-.233.28-.296Zm0 0"/><path id="g" d="M.469-3.406q0-.329.062-.89h2.907q.03.08.03.171 0 .158-.093.313L1.141-.47v.016h1.75l.328-.89q.077-.015.125-.016.248 0 .25.28Q3.593-.983 3.469 0H.406a.6.6 0 0 1-.094-.328q0-.124.094-.266l2.157-3.25v-.015h-1.47l-.25.75H.72q-.251 0-.25-.297m0 0"/><path id="h" d="M4.031-4.297c.07 0 .11.031.11.094a.5.5 0 0 1-.063.187l-.516.141L4.579-.828h.031l1.125-3.047-.625-.14a.2.2 0 0 1-.015-.063q-.001-.218.25-.219H6.64q.093 0 .093.094a.5.5 0 0 1-.062.187l-.406.172L4.766 0h-.547l-.813-2.281h-.015L2.5 0h-.562L.452-3.875l-.406-.14a.2.2 0 0 1-.016-.063q-.001-.218.25-.219h1.39q.108 0 .11.094a.5.5 0 0 1-.062.187l-.516.141 1.11 3.047h.03l.829-2.094-.36-.953-.39-.14a.2.2 0 0 1-.016-.063q-.001-.218.25-.219Zm0 0"/><path id="i" d="M.906-.469v-3.343l-.64-.079a.2.2 0 0 1-.016-.078q0-.246.328-.281l1.063-.094-.063.75h.031c.352-.539.735-.812 1.141-.812q.593.002.594.437 0 .188-.14.375a1.6 1.6 0 0 0-.595-.125q-.61.001-.968.5v2.75l.625.125q.124.017.125.11A.35.35 0 0 1 2.297 0H.312a.1.1 0 0 1-.015-.062c0-.133.094-.235.281-.297Zm0 0"/><path id="j" d="M.828-.469v-5.484l-.656-.094a.1.1 0 0 1-.016-.062q0-.246.344-.282L1.547-6.5v4h.547L3.28-3.875l-.625-.14v-.063q-.001-.218.25-.219h1.438c.07 0 .11.031.11.094a.5.5 0 0 1-.063.187l-.516.172-1.266 1.438L4.125-.453l.453.11q.124.015.125.109A.35.35 0 0 1 4.61 0H3.453l-1.5-2.047h-.406v1.594L2-.343q.124.015.125.109A.4.4 0 0 1 2.047 0H.219v-.062c0-.133.094-.235.281-.297Zm0 0"/><path id="l" d="m.422-.453 1.516-1.734q.874-1.015.875-2 0-1.25-.891-1.25-.362 0-.719.171-.112.365-.125.891-.11.017-.203.016-.422.002-.422-.36 0-.545.422-.875.42-.328 1.156-.328.715.001 1.172.406.451.41.453 1.172 0 .675-.422 1.36-.27.44-.89 1.125L1.359-.797v.016h2.032l.187-.781a.44.44 0 0 1 .188-.032q.217.002.218.344c0 .242-.03.656-.093 1.25H.5Zm0 0"/><path id="n" d="M1.39-3.156c1.008-.125 1.516-.531 1.516-1.219Q2.905-5.436 2-5.437q-.41 0-.703.187a3 3 0 0 0-.11.828 1.4 1.4 0 0 1-.218.016c-.281 0-.422-.117-.422-.36q-.001-.513.437-.828.45-.328 1.188-.328.714 0 1.125.375.422.376.422 1.016 0 .628-.422 1.015-.299.284-.906.485V-3q.715.094 1.109.469.389.361.39.922 0 .737-.562 1.234Q2.78.11 1.891.109C1.41.11 1.05.012.813-.17A.61.61 0 0 1 .53-.688c0-.258.133-.442.407-.547q.14.363.28.515.295.328.829.328c.664 0 1-.351 1-1.062 0-.738-.555-1.149-1.656-1.234Zm0 0"/><path id="p" d="M4.36-4.812v.062q0 .175-.235.234l-.234.079-1.516 1.921L4.031-.39l.422.11q.094.018.094.078 0 .034-.078.203h-.985l-1.64-2.234h-.375v1.843l.468.11c.07.011.11.039.11.078q0 .034-.078.203H.329v-.062c0-.133.077-.22.233-.25L.86-.391v-4.046l-.437-.094q-.094-.03-.094-.078-.002-.062.078-.203h1.61c.007.023.015.042.015.062q0 .188-.234.234l-.328.079v1.812h.484l1.422-1.828-.437-.078q-.094-.03-.094-.078 0-.062.062-.203Zm0 0"/><path id="q" d="M1.828.078c-.43 0-.781-.14-1.062-.422Q.296-.81.296-1.64q0-.824.517-1.328.481-.451 1.156-.453.654.001 1.062.406.452.458.453 1.313 0 .845-.515 1.344a1.6 1.6 0 0 1-1.14.437m.047-.375q.434.001.703-.344.281-.357.281-1.03 0-.669-.28-1.032a.86.86 0 0 0-.704-.344.84.84 0 0 0-.687.344Q.906-2.34.906-1.672q0 .674.282 1.031.264.345.687.344m0 0"/><path id="r" d="M.703-.36v-2.609l-.5-.062a.1.1 0 0 1-.016-.063c0-.125.086-.191.266-.203l.828-.094-.047.47h.016q.233-.236.406-.329.329-.17.75-.172.5 0 .781.328.296.316.297.906v1.829l.422.093Q4-.246 4-.187A.36.36 0 0 1 3.938 0H2.452v-.047q0-.152.203-.234l.266-.078v-1.782q0-.435-.235-.64a.74.74 0 0 0-.515-.188q-.504.002-.89.344v2.266l.406.093c.07.012.109.04.109.079A.3.3 0 0 1 1.719 0H.25a.1.1 0 0 1-.016-.047c0-.101.07-.18.22-.234Zm0 0"/><path id="s" d="m.672-3.344.14-.937h.407v.937h1.047l-.079.36H1.22v2.14c0 .344.148.516.453.516A.94.94 0 0 0 2.25-.5a.4.4 0 0 1 .047.203q0 .095-.188.219c-.18.101-.39.156-.64.156C.914.078.64-.187.64-.719v-2.265H.125a.1.1 0 0 1-.016-.047c0-.114.07-.192.22-.235Zm0 0"/><path id="t" d="M.703-.36v-2.609l-.5-.062a.1.1 0 0 1-.016-.063c0-.125.086-.191.266-.203l.828-.094-.047.594h.016q.422-.623.89-.625.47 0 .47.328a.5.5 0 0 1-.11.297 1.2 1.2 0 0 0-.469-.11q-.468.001-.75.407v2.14l.485.094q.093.02.093.079A.36.36 0 0 1 1.797 0H.25a.1.1 0 0 1-.016-.047c0-.101.07-.18.22-.234Zm0 0"/><path id="u" d="M.672-.36v-4.28l-.5-.063a.1.1 0 0 1-.016-.063c0-.125.086-.191.266-.203l.812-.093V-.36l.422.093q.094.02.094.079A.36.36 0 0 1 1.688 0H.202v-.047c0-.101.07-.18.219-.234Zm0 0"/><path id="v" d="M.781-.453q.2.157.516.156c.394 0 .594-.148.594-.453q-.002-.187-.203-.375a6 6 0 0 0-.454-.312q-.408-.249-.578-.438a.96.96 0 0 1-.265-.672c0-.27.101-.484.312-.64q.312-.235.781-.235t.75.235q.031.27.032.421-.001.345-.266.344h-.062l-.079-.5a.9.9 0 0 0-.484-.156c-.336 0-.5.14-.5.422q0 .268.39.531.373.251.735.484.388.315.39.735 0 .421-.328.703-.316.28-.843.281C.875.078.594.012.375-.109a4 4 0 0 1-.047-.578q-.001-.33.25-.329h.063Zm0 0"/><path id="w" d="M.703-.36v-2.609l-.5-.062a.1.1 0 0 1-.016-.063c0-.125.086-.191.266-.203l.828-.094v3.032l.407.093c.07.012.109.04.109.079A.3.3 0 0 1 1.719 0H.25a.1.1 0 0 1-.016-.047c0-.101.07-.18.22-.234Zm-.11-4.187q0-.187.11-.297a.42.42 0 0 1 .281-.11c.114 0 .207.04.282.11a.38.38 0 0 1 .125.297q-.001.176-.125.281a.38.38 0 0 1-.282.11.37.37 0 0 1-.28-.11.37.37 0 0 1-.11-.28m0 0"/><path id="x" d="M.39-2.328c0-.344.126-.617.376-.828q.357-.265.89-.266.281 0 .532.078h1.171l-.062.375h-.578q.218.283.219.64c0 .356-.133.638-.391.845q-.363.313-.938.312-.157 0-.328-.047c-.148.086-.218.196-.218.328q0 .251.375.25h.796q.452.002.704.204a.68.68 0 0 1 .265.562q0 .545-.469.938-.503.42-1.328.421-1.235 0-1.234-.828Q.17.05.797-.172v-.016Q.529-.325.53-.64q0-.386.469-.656Q.39-1.59.39-2.328m1.266.797c.489 0 .735-.258.735-.782q-.002-.357-.203-.562a.71.71 0 0 0-.516-.203c-.48 0-.719.258-.719.765 0 .524.235.782.703.782M1.344-.078a1 1 0 0 1-.266-.031.6.6 0 0 0-.36.578c0 .414.259.625.782.625q.529 0 .86-.219a.63.63 0 0 0 .28-.531q0-.422-.562-.422Zm0 0"/><path id="y" d="M2.078-2.172q0-.45-.14-.672-.14-.218-.47-.219-.233.001-.421.079-.082.175-.156.609H.75q-.344 0-.344-.297c0-.207.117-.383.36-.531q.357-.218.797-.219 1.078 0 1.078 1.172v1.531q-.001.392.25.39a.34.34 0 0 0 .25-.093q.06.096.062.203-.001.082-.125.157a.7.7 0 0 1-.422.125q-.485.001-.531-.485h-.016c-.218.336-.539.5-.953.5Q.746.078.5-.156.266-.402.266-.812q0-.5.515-.782.435-.234 1.11-.234h.187ZM1.375-.359q.387.001.703-.36v-.797l-.187.016c-.68.055-1.016.262-1.016.625 0 .344.164.516.5.516m0 0"/><path id="z" d="M.906-1.687q0 .657.282 1.015.292.345.796.344.468 0 .86-.328.075.048.094.203-.001.158-.313.328-.376.201-.875.203C1.32.078.984-.05.734-.312Q.314-.747.313-1.61c0-.57.148-1.024.453-1.36q.406-.451 1.015-.453.546 0 .844.328.281.315.281.828-.002.237-.062.579Zm.797-1.375q-.703 0-.797 1.03h1.375a1 1 0 0 0 .047-.296q-.001-.734-.625-.735m0 0"/><path id="A" d="M2.5-4.328a1.5 1.5 0 0 0-.703-.188c-.274 0-.484.07-.64.204-.15.136-.22.324-.22.562q0 .316.188.516c.07.074.203.164.39.265l.657.36c.344.187.582.367.719.53q.28.317.28.767 0 .625-.405 1-.424.39-1.141.39Q1.062.08.453-.187A9 9 0 0 1 .422-.97c0-.207.07-.312.219-.312q.06 0 .156.031l.172.734q.312.235.734.235.451.001.688-.25a.82.82 0 0 0 .234-.61.72.72 0 0 0-.234-.546q-.157-.14-.72-.454l-.437-.25a2.1 2.1 0 0 1-.593-.453 1.3 1.3 0 0 1-.235-.781q0-.574.422-.937.406-.33 1.063-.329c.394 0 .754.086 1.078.25q.014.518.015.672-.002.299-.203.297a.7.7 0 0 1-.156-.015Zm0 0"/><path id="B" d="m.61-2.969-.5-.062a.1.1 0 0 1-.016-.063q-.002-.186.265-.203l.813-.094v2.188q0 .813.703.812.529 0 .86-.328v-2.25l-.5-.062a.1.1 0 0 1-.016-.063q-.002-.186.265-.203l.813-.094v3l.515.079v.046q-.001.206-.25.22l-.78.093v-.469h-.016c-.274.336-.621.5-1.047.5Q.608.08.609-1.156Zm0 0"/><path id="C" d="M2.313-1.922H.422v-.406h1.89Zm0 0"/><path id="D" d="M2.656-.39h-.015q-.345.468-1 .468c-.375 0-.684-.117-.922-.36-.274-.28-.406-.71-.406-1.296q-.001-.902.53-1.406.482-.437 1.173-.438.31 0 .609.078V-4.64l-.516-.062v-.063q-.001-.186.25-.203l.829-.093v4.671l.5.079c.007.023.015.039.015.046q-.001.206-.265.22l-.782.093Zm-.844.015q.515 0 .813-.297v-2.11c-.168-.163-.39-.25-.672-.25q-.468 0-.75.329-.313.375-.312 1.031c0 .438.086.774.265 1q.235.299.657.297m0 0"/><path id="E" d="m3.5-.375-.453-1.281H1.312L.845-.375l.531.094c.07.011.11.039.11.078A.7.7 0 0 1 1.405 0H-.062v-.062q0-.2.234-.266L.359-.36l1.704-4.453.437-.047L4.172-.375l.297.094c.07.011.11.039.11.078Q4.577-.17 4.5 0H3v-.062c0-.133.078-.22.234-.25Zm-2.062-1.64h1.468l-.719-2.047Zm0 0"/><path id="F" d="M1.656-5.219Q.873-3.683.875-2.125q0 1.629.75 3.094H1.25A4.5 4.5 0 0 1 .578-.36a5.3 5.3 0 0 1-.297-1.766c0-.594.11-1.18.328-1.766q.28-.749.72-1.328Zm0 0"/><path id="G" d="M4.89-4.812v.062q0 .188-.234.234l-.328.079V0h-.422l-2.61-4.047h-.015V-.39l.469.11c.07.011.11.039.11.078Q1.858-.17 1.78 0H.328v-.062c0-.133.078-.22.235-.25l.296-.079v-4.046l-.437-.094q-.094-.03-.094-.078-.002-.062.078-.203h1.11L3.89-1.126h.015v-3.312l-.422-.094q-.11-.03-.109-.078c0-.04.023-.11.078-.203Zm0 0"/><path id="H" d="M3.516-4.812c.03.398.046.671.046.828q-.002.313-.203.312a.3.3 0 0 1-.14-.031l-.172-.735H1.469v1.907h1.547v.39H1.469v1.75l.547.11q.093.018.093.078 0 .034-.078.203H.328v-.062c0-.133.078-.22.235-.25l.296-.079v-4.046l-.437-.094q-.094-.03-.094-.078-.002-.062.078-.203Zm0 0"/><path id="I" d="M.5-5.219q.45.58.719 1.328c.218.586.328 1.172.328 1.766q0 .908-.281 1.766C1.086.148.859.594.578.969H.203q.75-1.465.75-3.094Q.952-3.684.172-5.219Zm0 0"/><path id="J" d="M3.484-4.437H2.36v4.046l.485.11q.094.018.094.078-.001.034-.079.203H1.22v-.062c0-.133.078-.22.234-.25l.297-.079v-4.046H.64l-.156.734a.4.4 0 0 1-.156.031c-.137 0-.203-.101-.203-.312q0-.172.047-.828h3.766q.06.656.062.828-.002.313-.203.312a.4.4 0 0 1-.156-.031Zm0 0"/><path id="K" d="M1.719-4.812v.062q0 .189-.235.25l-.25.047.922 1.547h.016l.984-1.547-.469-.078q-.11.002-.109-.078-.002-.062.078-.203h1.406v.062q0 .205-.234.25l-.234.047L2.39-2.531 3.703-.375l.328.094q.094.018.094.078-.002.034-.062.203H2.577v-.062c0-.133.078-.22.235-.25L3.03-.36l-1-1.657h-.015L.984-.359l.438.078c.07.011.11.039.11.078A.5.5 0 0 1 1.452 0H.047A.1.1 0 0 1 .03-.062q0-.2.235-.266L.469-.36 1.78-2.391.516-4.437l-.328-.079q-.094-.03-.094-.093c0-.04.023-.11.078-.203Zm0 0"/><path id="L" d="M2.125-2.062h-.656v1.671l.468.11c.07.011.11.039.11.078q0 .034-.078.203H.329v-.062c0-.133.077-.22.233-.25L.86-.391v-4.046l-.437-.094q-.094-.03-.094-.078-.002-.062.078-.203h1.406q1.953.001 1.954 1.343-.002.985-1 1.297L3.953-.359l.328.078c.07.011.11.039.11.078Q4.39-.17 4.312 0h-.937Zm-.328-.344c.883 0 1.328-.336 1.328-1.016q-.002-.984-1.328-.984h-.328v2Zm0 0"/><clipPath id="a"><path d="M.016 55H25v25.875H.016Zm0 0"/></clipPath><clipPath id="c"><path d="M42 49h37v31.875H42Zm0 0"/></clipPath><clipPath id="k"><path d="M96 55h26v25.875H96Zm0 0"/></clipPath><clipPath id="m"><path d="M169 55h25v25.875h-25Zm0 0"/></clipPath><clipPath id="o"><path d="M197 5h29.695v40H197Zm0 0"/></clipPath></defs><g clip-path="url(#a)"><path fill="none" stroke="#000" stroke-miterlimit="10" stroke-width=".79638631" d="M.41 55.719h23.945v23.945H.41Zm0 0"/></g><use xlink:href="#b" x="10.145" y="70.603"/><path fill="none" stroke="#000" stroke-miterlimit="10" stroke-width=".39869277000000003" d="M24.355 67.691h12.22m0 0h12.218"/><path d="M28.57 67.691v-1.984l-4.215 1.984 4.215 1.98ZM44.578 67.691v1.98l4.215-1.98-4.215-1.984Zm0 0"/><g clip-path="url(#c)"><path fill="none" stroke="#000" stroke-miterlimit="10" stroke-width=".39869277000000003" d="M63.93 57.297c-.383-1.43-1.895-2.594-3.375-2.594s-2.996 1.164-3.38 2.594c-1.148-.934-3.054-.985-4.253-.113-1.2.87-1.742 2.699-1.211 4.082-1.477-.079-3.05 1.004-3.508 2.414-.457 1.406.18 3.203 1.422 4.011-1.242.805-1.879 2.602-1.422 4.012s2.031 2.488 3.508 2.41c-.531 1.383.012 3.211 1.21 4.082 1.2.871 3.106.825 4.255-.11.383 1.43 1.898 2.59 3.379 2.59 1.48 0 2.992-1.16 3.375-2.59 1.152.935 3.058.981 4.258.11 1.199-.87 1.738-2.699 1.207-4.082 1.48.078 3.05-1 3.511-2.41.457-1.41-.18-3.207-1.422-4.012 1.243-.808 1.88-2.605 1.422-4.011-.46-1.41-2.031-2.493-3.511-2.414.53-1.383-.008-3.211-1.207-4.082-1.2-.872-3.106-.82-4.258.113Zm0 0"/></g><use xlink:href="#d" x="42.241" y="50.897"/><use xlink:href="#e" x="48.682" y="50.897"/><use xlink:href="#f" x="52.858" y="50.897"/><use xlink:href="#g" x="55.904" y="50.897"/><use xlink:href="#h" x="59.846" y="50.897"/><use xlink:href="#e" x="66.485" y="50.897"/><use xlink:href="#i" x="70.66" y="50.897"/><use xlink:href="#j" x="74.118" y="50.897"/><path fill="none" stroke="#000" stroke-miterlimit="10" stroke-width=".39869277000000003" d="M72.316 67.691h12.22m0 0H96.75"/><path d="M76.531 67.691v-1.984l-4.215 1.984 4.215 1.985ZM92.54 67.691v1.985l4.21-1.985-4.21-1.984Zm0 0"/><g clip-path="url(#k)"><path fill="none" stroke="#000" stroke-miterlimit="10" stroke-width=".79638631" d="M96.75 55.719h23.945v23.945H96.75Zm0 0"/></g><use xlink:href="#l" x="106.483" y="70.658"/><path fill="none" stroke="#000" stroke-miterlimit="10" stroke-width=".39869277000000003" d="M120.695 67.691h24.438m0 0h24.433"/><path d="M124.91 67.691v-1.984l-4.215 1.984 4.215 1.985ZM165.352 67.691v1.985l4.214-1.985-4.214-1.984Zm0 0"/><g clip-path="url(#m)"><path fill="none" stroke="#000" stroke-miterlimit="10" stroke-width=".79638631" d="M169.566 55.719h23.946v23.945h-23.946Zm0 0"/></g><use xlink:href="#n" x="179.297" y="70.604"/><path fill="none" stroke="#000" stroke-miterlimit="10" stroke-width=".39869277000000003" d="M193.512 67.691h12.215m0 0h12.218M217.746 67.691V16.38"/><g clip-path="url(#o)"><path fill="none" stroke="#000" stroke-miterlimit="10" stroke-width=".79638631" d="M217.746 16.379h8.551l-8.55 17.105-8.552-17.105h8.551"/></g><use xlink:href="#p" x="122.391" y="44.704"/><use xlink:href="#q" x="126.774" y="44.704"/><use xlink:href="#r" x="130.551" y="44.704"/><use xlink:href="#s" x="134.649" y="44.704"/><use xlink:href="#t" x="137.018" y="44.704"/><use xlink:href="#q" x="139.617" y="44.704"/><use xlink:href="#u" x="143.366" y="44.704"/><use xlink:href="#u" x="145.311" y="44.704"/><use xlink:href="#v" x="147.255" y="44.704"/><use xlink:href="#w" x="149.952" y="44.704"/><use xlink:href="#x" x="151.896" y="44.704"/><use xlink:href="#r" x="155.352" y="44.704"/><use xlink:href="#y" x="159.45" y="44.704"/><use xlink:href="#u" x="162.704" y="44.704"/><use xlink:href="#z" x="164.62" y="44.704"/><use xlink:href="#A" x="127.768" y="33.191"/><use xlink:href="#s" x="131.231" y="33.191"/><use xlink:href="#z" x="133.601" y="33.191"/><use xlink:href="#B" x="136.848" y="33.191"/><use xlink:href="#z" x="140.813" y="33.191"/><use xlink:href="#t" x="144.06" y="33.191"/><use xlink:href="#C" x="146.513" y="33.191"/><use xlink:href="#B" x="150.576" y="33.191"/><use xlink:href="#r" x="154.541" y="33.191"/><use xlink:href="#D" x="158.639" y="33.191"/><use xlink:href="#E" x="124.312" y="20.785"/><use xlink:href="#B" x="128.785" y="20.785"/><use xlink:href="#D" x="132.751" y="20.785"/><use xlink:href="#w" x="136.597" y="20.785"/><use xlink:href="#q" x="138.513" y="20.785"/><use xlink:href="#F" x="143.789" y="20.785"/><use xlink:href="#G" x="145.621" y="20.785"/><use xlink:href="#H" x="150.771" y="20.785"/><use xlink:href="#I" x="154.499" y="20.785"/><use xlink:href="#J" x="157.649" y="20.785"/><use xlink:href="#K" x="161.774" y="20.785"/><use xlink:href="#E" x="124.102" y="8.213"/><use xlink:href="#B" x="128.583" y="8.213"/><use xlink:href="#D" x="132.548" y="8.213"/><use xlink:href="#w" x="136.394" y="8.213"/><use xlink:href="#q" x="138.311" y="8.213"/><use xlink:href="#F" x="143.586" y="8.213"/><use xlink:href="#G" x="145.419" y="8.213"/><use xlink:href="#H" x="150.568" y="8.213"/><use xlink:href="#I" x="154.296" y="8.213"/><use xlink:href="#L" x="157.634" y="8.213"/><use xlink:href="#K" x="161.99" y="8.213"/></svg>