<svg xmlns="http://www.w3.org/2000/svg" xmlns:xlink="http://www.w3.org/1999/xlink" width="223" height="119.053"><defs><path id="a" d="M2.578-6.14a.4.4 0 0 1 .016.093q-.001.222-.313.297l-.422.094v5.172l.625.125q.124.017.125.093c0 .032-.039.121-.109.266H.422a.16.16 0 0 1-.016-.078Q.404-.324.72-.406l.375-.078v-5.172l-.547-.125c-.086-.02-.125-.055-.125-.11q0-.074.094-.25Zm0 0"/><path id="b" d="M3.406-.422q.546 0 .985-.187l.28-1.172a.4.4 0 0 1 .204-.047c.156 0 .234.133.234.39l-.046.97Q4.357.11 3.25.108q-1.19 0-1.922-.703c-.574-.539-.86-1.36-.86-2.453q-.002-1.558.97-2.437.826-.75 2-.75c.656 0 1.21.132 1.671.39q.031.644.032.938-.001.39-.266.39a.5.5 0 0 1-.187-.03l-.204-.891a1.95 1.95 0 0 0-1.046-.282q-.94.002-1.516.594-.626.689-.625 2 0 1.36.61 2.063c.374.43.874.64 1.5.64m0 0"/><path id="c" d="M2.016-.562v-4.422L.688-4.72a1 1 0 0 1-.016-.187q-.001-.2.203-.282l1.469-.593h.453v5.219l1.078.156q.14.033.14.11-.001.08-.109.296H.86v-.078q0-.311.282-.36Zm0 0"/><path id="f" d="M2.469-3.016h1.547v.47H2.469v1.655h-.5v-1.656H.422v-.469h1.547v-1.64h.5Zm0 0"/><path id="g" d="M1.375-3.14c1.008-.114 1.516-.516 1.516-1.204 0-.707-.305-1.062-.907-1.062q-.408.002-.687.203a3 3 0 0 0-.125.812q-.11.017-.203.016c-.281 0-.422-.117-.422-.36q-.001-.513.437-.827.452-.33 1.172-.329.715 0 1.125.375.406.376.406 1.016 0 .628-.421 1.016c-.188.187-.485.351-.891.484v.016q.702.111 1.094.468c.258.243.39.547.39.922q0 .738-.546 1.219-.55.485-1.422.484C1.41.11 1.05.012.813-.17Q.53-.374.53-.672q0-.406.39-.548.142.347.282.5.311.345.828.344.998.002 1-1.062-.002-1.107-1.656-1.235Zm0 0"/><path id="h" d="M.875-.922q.264 0 .422.219.17.205.172.562 0 .574-.375.985-.316.328-.61.328c-.093 0-.164-.078-.203-.234Q.855.621.891.046a.5.5 0 0 1-.344-.125.47.47 0 0 1-.14-.344c0-.156.038-.273.124-.36a.47.47 0 0 1 .344-.14m0 0"/><path id="i" d="M2.922-3.016c.726.325 1.094.829 1.094 1.516q-.001.752-.547 1.188c-.344.28-.774.421-1.281.421q-.769 0-1.25-.39Q.422-.716.422-1.437q0-.92 1.125-1.454C.89-3.21.563-3.703.563-4.359c0-.426.164-.786.5-1.078q.513-.453 1.203-.454c.476 0 .863.133 1.156.391.3.25.453.602.453 1.047q-.002.924-.953 1.437m-.406-.171q.656-.405.656-1.266 0-.404-.235-.656c-.18-.188-.421-.282-.734-.282a.9.9 0 0 0-.687.282.92.92 0 0 0-.25.656q-.001.518.343.812c.164.149.47.297.907.454m-.563.484q-.783.44-.781 1.265 0 .44.281.75c.195.211.453.313.766.313q.468 0 .75-.281c.195-.196.297-.446.297-.75q0-.48-.36-.797-.269-.219-.953-.5m0 0"/><path id="j" d="M5.813-6.14v.093c0 .156-.102.262-.297.313l-.235.046L3.266 0H2.53L.453-5.672l-.375-.094q-.124-.03-.125-.125c0-.05.035-.132.094-.25H2.03v.094c0 .156-.101.258-.297.297l-.375.094L3-.891h.016l1.687-4.796-.687-.094q-.127-.029-.125-.11c0-.039.03-.125.093-.25Zm0 0"/><path id="k" d="M1.125-5.781h2.531L3.61-5H1.516l-.11 1.406c.852.031 1.473.211 1.86.531q.546.456.547 1.376c0 .5-.18.93-.532 1.28Q2.747.11 1.891.11 1.17.108.813-.156a.61.61 0 0 1-.266-.516q0-.389.39-.531.171.362.282.484.293.345.828.344c.344 0 .617-.113.828-.344.195-.207.297-.476.297-.812q0-.732-.563-1.047-.55-.312-1.78-.313Zm0 0"/><path id="d" d="M-.031 1.781c-.063.063-.063.219 0 .297H1.39V3.5c.078.063.234.063.297 0V2.078h1.437c.063-.078.063-.234 0-.297H1.688V.344c-.063-.063-.22-.063-.297 0V1.78Zm0 0"/><path id="l" d="M-5.812-3.469c0 .203.078.735.078 1.078s-.016.672-.016 1.079l.016.015.187.047q.047 0 .047-.047l.016-.328c.015-.125.078-.312.297-.312.015 0 .062 0 .078.015l4.468.86c.25.046.36.187.375.546l.032.22c0 .046.015.077.062.077L0-.172l.016-.031C.016-.593 0-.937 0-1.281S.016-1.97.016-2.36L0-2.391l-.172-.03c-.047 0-.062.015-.062.062l-.032.218c-.015.282-.078.391-.265.391h-.11l-1.953-.39c0-.704.14-.86.344-.938l1.547-.61c.422-.171.797-.468.797-.984a1 1 0 0 0-.063-.375l-.218-.016c0 .375-.297.532-.688.672l-1.86.72c-.124-.392-.593-1.25-1.53-1.438-.11-.016-.22-.032-.329-.032a1.2 1.2 0 0 0-.781.282c-.39.328-.437.843-.437 1.39m.296.047c0-.453.157-.969.891-.969.094 0 .234.016.375.047 1.11.203 1.36.907 1.36 1.735v.422l-2.22-.438c-.25-.047-.406-.187-.406-.797m0 0"/><path id="n" d="M-1.64-.531c.109.11.327.11.437 0v-4.703a.33.33 0 0 0-.438 0Zm-1.782 0c.11.11.344.11.438 0v-4.703c-.094-.11-.328-.11-.438 0Zm0 0"/><path id="o" d="M-1.078-2.562h-3.094c-.531 0-1.078 0-1.187-.032-.047 0-.047.031-.047.063.297.484.531.953.89 1.734.094-.015.188-.047.235-.125-.172-.406-.219-.61-.219-.781 0-.14.219-.172.516-.172h2.906c.734 0 .781.234.797.86.062.062.25.062.297 0C.016-1.454 0-1.766 0-2.25c0-.422.016-.64.016-1.078-.047-.063-.235-.063-.297 0-.016.61-.063.765-.797.765m0 0"/><path id="p" d="M.094-2.031c0-.688-.703-1.719-2.781-1.719-.891 0-1.641.219-2.157.61a1.32 1.32 0 0 0-.578 1.078c0 .874 1.047 1.718 2.813 1.718.953 0 1.828-.297 2.328-.781.25-.25.375-.562.375-.906m-5.203-.031c0-.157.046-.297.14-.407.235-.265.922-.515 2.11-.515.812 0 1.375.03 1.828.156.734.203.812.625.812.797 0 .828-1.531.906-2.297.906-2.187 0-2.593-.531-2.593-.937m0 0"/><path id="q" d="M-1.047-4.062c-.328-.985-1.234-1.735-2.312-1.735-1.313 0-2.485.906-2.485 2.672 0 1.75 1.313 2.688 2.485 2.688 1.14 0 1.984-.782 2.312-1.735l.438-.047v.985c0 .422 0 .578-.453.625a.27.27 0 0 0 0 .218C-.687-.39-.344-.406 0-.453v-1.89C0-2.439-.047-2.5-.14-2.5l-1.126.078c-.562.813-1.093 1.156-2.093 1.156-1.141 0-2.188-.625-2.188-1.859 0-1.156.938-1.86 2.188-1.86.968 0 1.609.36 2.093 1.173l1.141.062c.078 0 .125-.031.125-.14v-1.86a11 11 0 0 0-1.062-.062.3.3 0 0 0 0 .234c.453.047.453.203.453.562v.985Zm0 0"/><path id="m" d="M0-1.062v-1.516c0-.188.016-.844.016-.844a27 27 0 0 0-1.188-.187.4.4 0 0 0-.031.234c.5.14.922.406.922 1.156v.453c0 .282-.125.407-.5.407H-3.72c-.594 0-.625-.125-.64-.61-.047-.047-.203-.047-.235 0 0 .313.016.64.016.922 0 .25-.016.578-.016.906.032.047.188.047.235 0 .015-.484.046-.609.64-.609h2.844c.594 0 .64.125.656.61.047.046.188.046.235 0C0-.407 0-.813 0-1.063m0 0"/><clipPath id="e"><path d="M42 117h13v1.113H42Zm0 0"/></clipPath></defs><path fill="none" stroke="#000" stroke-miterlimit="10" stroke-width=".39585189000000004" d="M17.285 14.172h15.617m0 0H81.59m27.558 0h48.688m0 0h15.617"/><path fill="#FFF" stroke="#000" stroke-miterlimit="10" stroke-width=".39585189000000004" d="M18.86 14.172a1.575 1.575 0 0 0-3.148 0c-.001.871.702 1.578 1.573 1.578.867 0 1.574-.707 1.574-1.578Zm0 0"/><path stroke="#000" stroke-miterlimit="10" stroke-width=".39585189000000004" d="M50.094 14.172a1.575 1.575 0 0 0-3.148 0c0 .871.702 1.578 1.574 1.578.867 0 1.574-.707 1.574-1.578Zm0 0"/><path fill="none" stroke="#000" stroke-miterlimit="10" stroke-width=".7907116700000001" d="M81.59.395h27.558v27.558H81.59Zm0 0"/><use xlink:href="#a" x="88.906" y="17.244"/><use xlink:href="#b" x="91.797" y="17.244"/><use xlink:href="#c" x="97.383" y="17.244"/><path stroke="#000" stroke-miterlimit="10" stroke-width=".39585189000000004" d="M143.793 14.172a1.575 1.575 0 0 0-3.149 0 1.575 1.575 0 1 0 3.148 0Zm0 0"/><path stroke="#000" stroke-miterlimit="10" stroke-width=".39585189000000004" d="M143.793 14.172a1.575 1.575 0 0 0-3.149 0 1.575 1.575 0 1 0 3.148 0Zm0 0"/><path fill="#FFF" stroke="#000" stroke-miterlimit="10" stroke-width=".39585189000000004" d="M175.027 14.172a1.575 1.575 0 0 0-3.148 0 1.575 1.575 0 1 0 3.148 0Zm0 0"/><path fill="none" stroke="#000" stroke-miterlimit="10" stroke-width=".39585189000000004" d="M17.285 107.875h15.617m0 0h62.465m0 0h62.469m0 0h15.617"/><path fill="#FFF" stroke="#000" stroke-miterlimit="10" stroke-width=".39585189000000004" d="M18.86 107.875a1.575 1.575 0 1 0-3.15 0 1.575 1.575 0 0 0 3.15 0Zm0 0"/><path stroke="#000" stroke-miterlimit="10" stroke-width=".39585189000000004" d="M50.094 107.875a1.575 1.575 0 1 0-3.15 0 1.575 1.575 0 0 0 3.15 0ZM143.793 107.875a1.575 1.575 0 1 0-3.148 0 1.575 1.575 0 0 0 3.148 0Zm0 0"/><path fill="#FFF" stroke="#000" stroke-miterlimit="10" stroke-width=".39585189000000004" d="M175.027 107.875c0-.871-.703-1.574-1.574-1.574s-1.574.703-1.574 1.574.703 1.574 1.574 1.574 1.574-.703 1.574-1.574Zm0 0"/><path fill="none" stroke="#000" stroke-miterlimit="10" stroke-width=".39585189000000004" d="M48.52 14.172v42.914m0 7.875v42.914"/><path fill="none" stroke="#000" stroke-linecap="square" stroke-miterlimit="10" stroke-width=".7907116700000001" d="M58.36 57.086v2.363H38.675v-2.363h19.683"/><path stroke="#000" stroke-linecap="square" stroke-miterlimit="10" stroke-width=".7907116700000001" d="M58.36 64.961v-2.363H38.675v2.363h19.683"/><use xlink:href="#d" x="52.882" y="52.458"/><path fill="none" stroke="#000" stroke-miterlimit="10" stroke-width=".39585189000000004" d="M48.52 107.875v9.844"/><g clip-path="url(#e)"><path fill="none" stroke="#000" stroke-linecap="round" stroke-miterlimit="10" stroke-width=".7907116700000001" d="M42.613 117.719h11.813"/></g><path fill="none" stroke="#000" stroke-miterlimit="10" stroke-width=".39585189000000004" d="M142.219 14.172v42.914m0 7.875v42.914"/><path fill="none" stroke="#000" stroke-miterlimit="10" stroke-width=".7907116700000001" d="M154.031 57.086h-23.625m23.625 7.875h-23.625"/><path fill="none" stroke="#000" stroke-miterlimit="10" stroke-width=".39585189000000004" d="M95.367 27.953v39.961m0 0v39.961"/><path stroke="#000" stroke-miterlimit="10" stroke-width=".39585189000000004" d="M96.945 107.875a1.575 1.575 0 1 0-3.15.002 1.575 1.575 0 0 0 3.15-.002Zm0 0"/><use xlink:href="#f" x="3.844" y="9.838"/><use xlink:href="#c" x="8.292" y="9.838"/><use xlink:href="#g" x="12.74" y="9.838"/><use xlink:href="#h" x="17.188" y="9.838"/><use xlink:href="#i" x="19.029" y="9.838"/><use xlink:href="#j" x="24.954" y="9.838"/><use xlink:href="#f" x="165.38" y="10.905"/><use xlink:href="#k" x="169.828" y="10.905"/><use xlink:href="#j" x="175.753" y="10.905"/><path fill="none" stroke="#000" stroke-miterlimit="10" stroke-width=".39585189000000004" d="M173.453 14.172h15.617m0 0h15.617v31.101m0 31.5v31.102H189.07m0 0h-15.617"/><path fill="#FFF" stroke="#000" stroke-miterlimit="10" stroke-width=".39585189000000004" d="M175.027 14.172a1.575 1.575 0 0 0-3.148 0 1.575 1.575 0 1 0 3.148 0Zm0 0"/><path fill="none" stroke="#000" stroke-miterlimit="10" stroke-width=".7907116700000001" d="M198.781 76.773v-31.5h11.813v31.5Zm0 0"/><use xlink:href="#l" x="218.636" y="79.195"/><use xlink:href="#m" x="220.504" y="73.955"/><use xlink:href="#n" x="218.636" y="67.344"/><use xlink:href="#o" x="218.636" y="59.116"/><use xlink:href="#p" x="218.636" y="54.979"/><use xlink:href="#q" x="218.636" y="49.357"/><path fill="#FFF" stroke="#000" stroke-miterlimit="10" stroke-width=".39585189000000004" d="M175.027 107.875c0-.871-.703-1.574-1.574-1.574s-1.574.703-1.574 1.574.703 1.574 1.574 1.574 1.574-.703 1.574-1.574Zm0 0"/></svg>