<svg xmlns="http://www.w3.org/2000/svg" xmlns:xlink="http://www.w3.org/1999/xlink" width="226.812" height="113.783"><defs><path id="e" d="M3.656-5.656v-.016H1.203l-.203 1a.5.5 0 0 1-.187.031q-.268 0-.266-.375 0-.387.062-1.156h3.922a.49.49 0 0 1 0 .578L1.36-.562v.015h2.75l.235-1.015a.44.44 0 0 1 .203-.047q.217 0 .219.375c0 .218-.028.632-.079 1.234H.438Q.28-.06.282-.281q0-.123.063-.235Zm0 0"/><path id="f" d="M1.156-2.172q.012.845.375 1.297.359.439 1.016.438c.394 0 .765-.133 1.11-.407q.092.064.109.25-.001.205-.407.438Q2.89.109 2.25.109 1.434.111.953-.39.391-.965.391-2.062.39-3.173.969-3.828q.527-.576 1.312-.578.702 0 1.094.422.375.41.375 1.078c0 .199-.04.445-.11.734Zm1.032-1.765q-.892.002-1.016 1.328h1.766q.046-.171.046-.375 0-.951-.796-.953m0 0"/><path id="g" d="M.906-.469v-3.343l-.64-.079a.2.2 0 0 1-.016-.078q0-.246.328-.281l1.063-.094v3.875l.53.125q.125.017.126.11A.4.4 0 0 1 2.219 0H.313a.1.1 0 0 1-.016-.062c0-.133.094-.235.281-.297Zm-.14-5.375q0-.234.14-.375a.52.52 0 0 1 .36-.14.507.507 0 0 1 .53.515.49.49 0 0 1-.155.375.53.53 0 0 1-.375.125.5.5 0 0 1-.36-.125.5.5 0 0 1-.14-.375m0 0"/><path id="h" d="M.875-4.297 1.031-5.5h.532v1.203h1.343l-.094.469h-1.25v2.75q0 .674.579.672.45 0 .75-.235.06.095.062.266-.002.112-.25.266-.33.217-.828.218Q.827.11.828-.92v-2.907H.156a.2.2 0 0 1-.015-.063q0-.233.28-.296Zm0 0"/><path id="i" d="M4.344-3.437h-.016L3.156 0h-.734L.453-5.719l-.36-.093q-.126-.029-.124-.11 0-.075.094-.25h2c.007.024.015.047.015.078q0 .236-.312.313l-.391.078L2.906-.875h.016L4.094-4.25 3.64-5.719l-.36-.093q-.127-.029-.125-.11 0-.075.094-.25h2v.078c0 .157-.102.262-.297.313l-.39.078L5.906-.875h.016l1.64-4.844-.703-.11c-.086-.019-.125-.05-.125-.093q0-.075.094-.25h1.797v.078c0 .168-.102.274-.297.313l-.219.062L6.172 0h-.734Zm0 0"/><path id="j" d="M.906-.469v-3.343l-.64-.079a.2.2 0 0 1-.016-.078q0-.246.328-.281l1.063-.094-.063.75h.031c.352-.539.735-.812 1.141-.812q.593.002.594.437 0 .188-.14.375a1.6 1.6 0 0 0-.595-.125q-.61.001-.968.5v2.75l.625.125q.124.017.125.11A.35.35 0 0 1 2.297 0H.312a.1.1 0 0 1-.015-.062c0-.133.094-.235.281-.297Zm0 0"/><clipPath id="a"><path d="M.121 25h226.383v74H.12Zm0 0"/></clipPath><clipPath id="b"><path d="M.121 62H224v1H.121Zm0 0"/></clipPath><clipPath id="c"><path d="M217 54h9.504v16H217Zm0 0"/></clipPath><clipPath id="d"><path d="M32 3h1v110.566h-1Zm0 0"/></clipPath></defs><g clip-path="url(#a)"><path fill="none" stroke="#BFBFBF" stroke-miterlimit="10" stroke-width=".19862190000000002" d="M.32 98.766h225.985M.32 86.598h225.985M.32 74.426h225.985M.32 50.09h225.985M.32 37.922h225.985M.32 25.754h225.985"/></g><path fill="none" stroke="#7F7F7F" stroke-miterlimit="10" stroke-width=".19862190000000002" d="M194.023 64.383v-4.246M30.48 98.766h4.247M30.48 86.598h4.247M30.48 74.426h4.247M30.48 50.09h4.247M30.48 37.922h4.247M30.48 25.754h4.247"/><g clip-path="url(#b)"><path fill="none" stroke="#000" stroke-miterlimit="10" stroke-width=".39824190000000004" d="M.32 62.258h222.52"/></g><path d="m225.91 62.258-2.969-1.758v3.52Zm0 0"/><g clip-path="url(#c)"><path fill="none" stroke="#000" stroke-miterlimit="10" stroke-width=".39824190000000004" d="m225.91 62.258-2.969-1.758v3.52Zm0 0"/></g><g clip-path="url(#d)"><path fill="none" stroke="#000" stroke-miterlimit="10" stroke-width=".39824190000000004" d="M32.605 113.367V3.664"/></g><path stroke="#000" stroke-miterlimit="10" stroke-width=".39824190000000004" d="m32.605.598-1.761 2.968h3.52Zm0 0"/><path fill="none" stroke="#000" stroke-miterlimit="10" stroke-width=".39824190000000004" d="M32.605 62.258h3.766l.54-12.168h9.144l.539-12.168h11.3l.536-12.172h29.054l.54 12.172h11.3l.54 12.168h9.144l.539 12.168h7.531l.54 12.168h8.608l.54 12.172H138.6l.54 12.168h29.054l.54-12.168h11.835l.54-12.172h8.609l.535-12.168h3.77"/><use xlink:href="#e" x="208.266" y="71.804"/><use xlink:href="#f" x="213.412" y="71.804"/><use xlink:href="#g" x="217.582" y="71.804"/><use xlink:href="#h" x="220.079" y="71.804"/><use xlink:href="#i" x="10.62" y="9.556"/><use xlink:href="#f" x="18.755" y="9.556"/><use xlink:href="#j" x="22.925" y="9.556"/><use xlink:href="#h" x="26.38" y="9.556"/></svg>