<svg xmlns="http://www.w3.org/2000/svg" xmlns:xlink="http://www.w3.org/1999/xlink" width="49.098" height="55.512"><defs><path id="b" d="M1.36-3.11q1.5-.168 1.5-1.187c0-.695-.297-1.047-.891-1.047-.274 0-.5.063-.688.188a3 3 0 0 0-.125.812 1 1 0 0 1-.203.016c-.281 0-.422-.117-.422-.36q0-.497.438-.812.45-.328 1.172-.328.7 0 1.109.375c.27.25.406.586.406 1q0 .626-.422 1c-.187.187-.484.351-.89.484v.016q.703.11 1.078.469.389.362.39.906 0 .722-.546 1.203-.534.485-1.407.484C1.391.11 1.035.012.797-.17a.6.6 0 0 1-.266-.5q0-.39.39-.532.142.344.282.484c.195.23.469.344.813.344Q3-.375 3-1.422 3-2.529 1.36-2.64Zm0 0"/><path id="c" d="m.406-.453 1.5-1.688c.57-.675.86-1.332.86-1.968 0-.82-.297-1.235-.891-1.235q-.345.001-.703.172a3.7 3.7 0 0 0-.11.875q-.11.017-.203.016c-.28 0-.421-.117-.421-.36q0-.528.421-.859Q1.28-5.828 2-5.828q.703.001 1.14.406.453.41.454 1.14-.001.676-.406 1.345-.27.44-.891 1.109L1.328-.781v.015h2l.188-.765a.4.4 0 0 1 .172-.032c.156 0 .234.118.234.344q0 .345-.094 1.219H.5Zm0 0"/><path id="d" d="M2-.562v-4.36l-1.328.25a1 1 0 0 1-.016-.187c0-.133.07-.227.219-.282l1.453-.578h.438v5.157l1.062.171q.14.018.14.094-.001.081-.109.297h-3a.16.16 0 0 1-.015-.078q0-.311.281-.36Zm0 0"/><clipPath id="a"><path d="M0 .262h48.21v54.511H0Zm0 0"/></clipPath></defs><g clip-path="url(#a)"><path fill="none" stroke="#000" stroke-miterlimit="10" stroke-width=".7826221200000001" d="M43.52 27.488c0-9.504-7.704-17.207-17.208-17.207s-17.21 7.703-17.21 17.207S16.809 44.7 26.312 44.7 43.52 36.992 43.52 27.49Zm0 0"/></g><path fill="none" stroke="#000" stroke-miterlimit="10" stroke-width=".39180204" d="M37.746 5.86v14.128h-13.64m0 15.004h13.64v14.125"/><path fill="none" stroke="#000" stroke-miterlimit="10" stroke-width=".7826221200000001" d="M24.105 16.773v21.434"/><path fill="none" stroke="#000" stroke-miterlimit="10" stroke-width=".39180204" d="M10.469 34.992h13.636m-13.636 0"/><path d="M16.75 34.992v-2.246l5.02 2.246-5.02 2.246Zm0 0"/><use xlink:href="#b" x="2.934" y="31.756"/><use xlink:href="#c" x="40.875" y="51.838"/><use xlink:href="#d" x="40.875" y="8.918"/><path fill="none" stroke="#000" stroke-miterlimit="10" stroke-width=".39180204" d="M10.469 34.992H.824"/></svg>