<svg xmlns="http://www.w3.org/2000/svg" width="114.626" height="88.126"><defs><clipPath id="a"><path d="M.379 83H4v4.262H.379Zm0 0"/></clipPath><clipPath id="b"><path d="M.379 78H10v9.262H.379Zm0 0"/></clipPath><clipPath id="c"><path d="M110 83h3.879v4.262H110Zm0 0"/></clipPath><clipPath id="d"><path d="M104 78h9.879v9.262H104Zm0 0"/></clipPath><clipPath id="e"><path d="M.379 10H4v4H.379Zm0 0"/></clipPath><clipPath id="f"><path d="M.379 5H10v15H.379Zm0 0"/></clipPath><clipPath id="g"><path d="M110 10h3.879v4H110Zm0 0"/></clipPath><clipPath id="h"><path d="M104 5h9.879v15H104Zm0 0"/></clipPath><clipPath id="i"><path d="M55 83h4v4.262h-4Zm0 0"/></clipPath><clipPath id="j"><path d="M49 78h16v9.262H49Zm0 0"/></clipPath></defs><path fill="none" stroke="#000" stroke-miterlimit="10" stroke-width=".39508182000000003" d="M2.145 85.492h27.492m0 0H84.62m0 0h27.488"/><g clip-path="url(#a)"><path fill="#FFF" d="M3.719 85.492c0-.867-.703-1.57-1.574-1.57a1.57 1.57 0 0 0 0 3.14c.87 0 1.574-.703 1.574-1.57m0 0"/></g><g clip-path="url(#b)"><path fill="none" stroke="#000" stroke-miterlimit="10" stroke-width=".39508182000000003" d="M3.719 85.492c0-.867-.703-1.57-1.574-1.57a1.57 1.57 0 0 0 0 3.14c.87 0 1.574-.703 1.574-1.57Zm0 0"/></g><g clip-path="url(#c)"><path fill="#FFF" d="M113.684 85.492c0-.867-.707-1.57-1.575-1.57a1.57 1.57 0 0 0 0 3.14c.868 0 1.575-.703 1.575-1.57m0 0"/></g><g clip-path="url(#d)"><path fill="none" stroke="#000" stroke-miterlimit="10" stroke-width=".39508182000000003" d="M113.684 85.492c0-.867-.707-1.57-1.575-1.57a1.57 1.57 0 0 0 0 3.14c.868 0 1.575-.703 1.575-1.57Zm0 0"/></g><path fill="none" stroke="#000" stroke-miterlimit="10" stroke-width=".39508182000000003" d="M2.145 12.184h23.562m7.86 0H80.69m7.86 0h23.558"/><path fill="none" stroke="#000" stroke-miterlimit="10" stroke-width=".78917346" d="M25.707.395v23.578M33.567.395v23.578"/><g clip-path="url(#e)"><path fill="#FFF" d="M3.719 12.184c0-.868-.703-1.575-1.574-1.575-.868 0-1.57.707-1.57 1.575a1.571 1.571 0 0 0 3.145 0m0 0"/></g><g clip-path="url(#f)"><path fill="none" stroke="#000" stroke-miterlimit="10" stroke-width=".39508182000000003" d="M3.719 12.184c0-.868-.703-1.575-1.574-1.575-.868 0-1.57.707-1.57 1.575a1.571 1.571 0 0 0 3.145 0Zm0 0"/></g><path stroke="#000" stroke-miterlimit="10" stroke-width=".39508182000000003" d="M58.7 12.184c0-.868-.704-1.575-1.571-1.575s-1.57.707-1.57 1.575a1.57 1.57 0 0 0 3.14 0Zm0 0"/><path fill="none" stroke="#000" stroke-miterlimit="10" stroke-width=".78917346" d="M80.691.395v23.578M88.551.395v23.578"/><g clip-path="url(#g)"><path fill="#FFF" d="M113.684 12.184c0-.868-.707-1.575-1.575-1.575-.867 0-1.57.707-1.57 1.575 0 .867.703 1.57 1.57 1.57s1.575-.703 1.575-1.57m0 0"/></g><g clip-path="url(#h)"><path fill="none" stroke="#000" stroke-miterlimit="10" stroke-width=".39508182000000003" d="M113.684 12.184c0-.868-.707-1.575-1.575-1.575-.867 0-1.57.707-1.57 1.575 0 .867.703 1.57 1.57 1.57s1.575-.703 1.575-1.57Zm0 0"/></g><path fill="none" stroke="#000" stroke-miterlimit="10" stroke-width=".39508182000000003" d="M57.129 85.492V64.555m0-31.438V12.184"/><g clip-path="url(#i)"><path d="M58.7 85.492a1.57 1.57 0 1 0-3.142 0 1.57 1.57 0 0 0 3.141 0m0 0"/></g><g clip-path="url(#j)"><path fill="none" stroke="#000" stroke-miterlimit="10" stroke-width=".39508182000000003" d="M58.7 85.492a1.57 1.57 0 1 0-3.142 0 1.57 1.57 0 0 0 3.141 0Zm0 0"/></g><path fill="none" stroke="#000" stroke-linejoin="bevel" stroke-miterlimit="10" stroke-width=".78917346" d="M57.285 64.95c-3.254 0-5.894-1.802-5.894-4.028 0-2.227 2.64-4.027 5.894-4.027-3.254 0-5.894-1.805-5.894-4.028 0-2.226 2.64-4.031 5.894-4.031-3.254 0-5.894-1.8-5.894-4.027 0-2.223 2.64-4.028 5.894-4.028-3.254 0-5.894-1.804-5.894-4.027 0-2.227 2.64-4.031 5.894-4.031"/><path fill="none" stroke="#000" stroke-dasharray="2.9594796893999997 1.972983159" stroke-miterlimit="10" stroke-width=".39508182000000003" d="M49.262 64.555V33.117"/></svg>