<svg xmlns="http://www.w3.org/2000/svg" xmlns:xlink="http://www.w3.org/1999/xlink" width="228.977" height="113.222"><defs><path id="a" d="M3.484-5.828c-.218 0-.75.078-1.093.078-.328 0-.672 0-1.078-.016l-.016.016-.047.188c0 .046.016.062.047.062l.328.016c.125 0 .313.062.313.28v.095L1.063-.641c-.047.25-.188.36-.547.375l-.22.032C.25-.234.22-.22.22-.172L.172 0l.031.016C.593.016.937 0 1.281 0s.688.016 1.094.016L2.391 0l.03-.172c.017-.047-.015-.062-.046-.062l-.234-.032C1.859-.28 1.75-.344 1.75-.53v-.11l.39-1.953c.704 0 .86.14.954.344l.61 1.547c.155.422.452.797.968.797.125 0 .281-.016.375-.063l.031-.218c-.39 0-.531-.297-.687-.688L3.67-2.75c.392-.125 1.25-.578 1.438-1.516.032-.109.032-.234.032-.343 0-.297-.079-.547-.266-.766-.328-.406-.86-.453-1.39-.453m-.062.312c.469 0 .984.157.984.875 0 .11-.031.235-.047.391-.218 1.11-.906 1.36-1.734 1.36h-.437l.437-2.22c.047-.265.203-.406.797-.406m0 0"/><path id="b" d="M1.297-.875v-1.406c0-.36.016-.813.016-.813 0-.031-.032-.062-.094-.062-.188.078-.485.156-.969.219-.016.03 0 .156.016.187.39.047.468.078.468.484v1.391c0 .594-.093.625-.515.656-.047.047-.047.188 0 .235C.453 0 .734 0 1.016 0c.28 0 .547 0 .78.016.048-.047.048-.188 0-.235-.421-.031-.5-.062-.5-.656M.64-4.265c0 .187.172.374.343.374.204 0 .375-.203.375-.343 0-.172-.156-.375-.343-.375-.172 0-.375.172-.375.343m0 0"/><path id="g" d="M2.047-.875v-2.469c0-.422.015-.86.031-.953 0-.031-.015-.031-.047-.031-.39.234-.765.422-1.39.703 0 .078.03.156.093.203.329-.14.485-.187.625-.187.125 0 .141.172.141.422v2.312c0 .594-.187.625-.687.656-.047.047-.047.188 0 .235C1.156 0 1.422 0 1.797 0c.344 0 .516 0 .875.016.047-.047.047-.188 0-.235-.5-.031-.625-.062-.625-.656m0 0"/><path id="h" d="M1.531-4.094c.313 0 .594.188.594.64 0 .36-.422.907-1.125 1l.047.235c.11-.015.25-.015.328-.015.406 0 .938.109.938.922 0 .937-.626 1.14-.876 1.14-.375 0-.437-.172-.515-.297C.844-.563.75-.656.609-.656c-.14 0-.296.14-.296.25 0 .281.593.484 1.03.484.845 0 1.595-.562 1.595-1.5 0-.766-.579-1.047-1-1.125v-.015c.578-.266.734-.563.734-.938 0-.219-.047-.39-.219-.562-.156-.157-.406-.282-.765-.282-1.047 0-1.36.688-1.36.922 0 .094.078.235.25.235.25 0 .281-.235.281-.376 0-.453.485-.53.672-.53m0 0"/><path id="i" d="M1.063 0h1.515c.188 0 .844.016.844.016.078-.36.14-.828.187-1.188-.062-.047-.14-.047-.234-.047-.14.516-.406.938-1.156.938h-.453c-.282 0-.407-.125-.407-.5V-3.72c0-.594.125-.64.625-.656.047-.047.047-.187 0-.234-.328 0-.656.015-.937.015-.25 0-.578-.015-.906-.015-.047.046-.047.187 0 .234.5.016.609.063.609.656v2.844c0 .594-.11.625-.61.656-.046.047-.046.188 0 .235C.407 0 .814 0 1.064 0m0 0"/><path id="j" d="M.438-3.328c0 .14.125.265.28.265.126 0 .329-.124.329-.28 0-.063 0-.095-.016-.141C1.016-3.547.97-3.61.97-3.656c0-.188.187-.438.703-.438.266 0 .625.172.625.86 0 .453-.172.828-.594 1.25l-.516.53C.485-.75.375-.405.375.017c0 0 .36-.016.594-.016h1.234c.235 0 .563.016.563.016.093-.375.156-.907.172-1.125a.3.3 0 0 0-.204-.032c-.125.5-.25.672-.5.672H.97c0-.343.484-.828.515-.86l.72-.687c.405-.39.718-.703.718-1.25 0-.765-.625-1.078-1.203-1.078-.797 0-1.281.578-1.281 1.016m0 0"/><path id="c" d="M1.125-5.797h2.547l-.063.781H1.516l-.11 1.407q1.296.065 1.875.547.546.455.547 1.374c0 .5-.183.93-.547 1.282q-.534.516-1.39.515Q1.17.108.813-.156a.61.61 0 0 1-.266-.516q0-.388.39-.547.171.376.282.5.293.328.828.328.527 0 .844-.328.28-.31.28-.812 0-.732-.562-1.047-.549-.328-1.765-.328Zm0 0"/><path id="d" d="M2.234-.39q1.092 0 1.094-2.5-.002-2.499-1.094-2.5c-.742 0-1.109.835-1.109 2.5 0 1.667.367 2.5 1.11 2.5m-.046.5q-.88.002-1.36-.735-.532-.796-.531-2.266c0-.976.187-1.734.562-2.265q.527-.734 1.407-.735.872 0 1.375.735.515.784.515 2.265 0 1.47-.562 2.266c-.344.492-.813.734-1.406.734m0 0"/><path id="e" d="M6.11-3.469q-.001.924-.548 1.719-.486.689-1.156 1.063v.156h1.188l.14-.719a.44.44 0 0 1 .204-.047q.264 0 .265.422 0 .346-.047.875H3.844v-.875c.976-.5 1.469-1.375 1.469-2.625q-.001-1.03-.547-1.625-.533-.61-1.375-.61-.864.002-1.391.594-.549.627-.547 1.657c0 .574.117 1.086.36 1.53q.375.721 1.125 1.079V0H.624a7 7 0 0 1-.062-.875q0-.422.28-.422.108 0 .204.047l.14.719h1.188v-.156c-.43-.188-.809-.524-1.14-1.016Q.654-2.53.655-3.47q-.001-1.199.766-1.984.762-.797 1.969-.797c.8 0 1.453.258 1.953.766q.763.767.765 2.015m0 0"/><path id="f" d="M2.656-2.766q0-.59-.187-.859-.174-.28-.594-.281-.298 0-.531.078-.11.234-.203.797H.953q-.438 0-.437-.375c0-.27.148-.5.453-.688A1.97 1.97 0 0 1 2-4.375q1.373 0 1.375 1.5v1.953c0 .336.102.5.313.5a.48.48 0 0 0 .328-.11q.077.112.078.25c0 .063-.059.134-.172.204a.87.87 0 0 1-.531.156q-.611 0-.688-.61h-.015q-.423.643-1.22.641-.502 0-.812-.312-.313-.311-.312-.828c0-.438.219-.774.656-1.016.375-.195.844-.297 1.406-.297h.25Zm-.89 2.313q.498 0 .89-.469v-1.015l-.25.015q-1.282.096-1.281.813c0 .437.21.656.64.656m0 0"/><path id="k" d="M2.36-6.14q3.545 0 3.546 2.984 0 1.58-.937 2.375-.91.783-2.61.781H.422a.16.16 0 0 1-.016-.078Q.404-.324.72-.406l.375-.078v-5.188l-.547-.125c-.086-.02-.125-.05-.125-.094q0-.074.094-.25ZM2.327-.5c.883 0 1.563-.219 2.031-.656.477-.446.72-1.11.72-1.985 0-.82-.243-1.441-.72-1.859-.468-.426-1.148-.64-2.03-.64h-.454V-.5Zm0 0"/><path id="l" d="M2.656-2.766q0-.59-.187-.859-.174-.28-.594-.281-.298 0-.531.078-.11.234-.203.797H.953q-.438 0-.437-.375c0-.27.148-.5.453-.688A1.97 1.97 0 0 1 2-4.375q1.373 0 1.375 1.5v1.953c0 .336.102.5.313.5a.48.48 0 0 0 .328-.11q.077.112.078.25c0 .063-.059.134-.172.204a.87.87 0 0 1-.531.156q-.611 0-.688-.61h-.015q-.423.643-1.22.641-.502 0-.812-.312-.313-.311-.312-.828c0-.438.219-.774.656-1.016.375-.195.844-.297 1.406-.297h.25Zm-.89 2.313q.498 0 .89-.469v-1.015l-.25.015q-1.282.096-1.281.813c0 .437.21.656.64.656m-.547-4.594A.43.43 0 0 1 .782-5.5c0-.133.038-.242.124-.328a.43.43 0 0 1 .313-.125.38.38 0 0 1 .297.125.46.46 0 0 1 .125.328.45.45 0 0 1-.125.328.37.37 0 0 1-.297.125m1.5 0a.41.41 0 0 1-.313-.125.47.47 0 0 1-.11-.328q0-.2.11-.328a.43.43 0 0 1 .313-.125c.125 0 .226.043.312.125a.46.46 0 0 1 .125.328.45.45 0 0 1-.125.328.42.42 0 0 1-.312.125m0 0"/><path id="m" d="m7.063-.469.53.125q.125.017.126.11A.35.35 0 0 1 7.625 0H5.75a.1.1 0 0 1-.016-.062c0-.133.094-.235.282-.297l.328-.11V-2.75c0-.687-.29-1.031-.86-1.031-.449 0-.843.164-1.187.484q.047.317.047.516V-.47l.531.125q.124.017.125.11A.4.4 0 0 1 4.922 0h-1.89a.1.1 0 0 1-.016-.062c0-.133.093-.235.28-.297l.329-.11V-2.75c0-.687-.29-1.031-.86-1.031q-.644.002-1.14.437v2.875l.547.125c.07.012.11.047.11.11A.4.4 0 0 1 2.202 0H.313a.1.1 0 0 1-.016-.062c0-.133.094-.235.281-.297l.328-.11V-3.78l-.64-.094a.16.16 0 0 1-.016-.078c0-.156.11-.242.328-.266l1.047-.11-.047.595h.031q.61-.64 1.422-.641.812 0 1.14.703.639-.703 1.516-.703.638 0 1 .422.375.41.375 1.172Zm0 0"/><path id="n" d="M.86 1.313v-5.094l-.657-.094v-.078c0-.156.11-.242.328-.266l1.047-.11-.062.595h.03c.352-.426.798-.641 1.329-.641q.763.001 1.203.547.452.55.453 1.515 0 1.173-.61 1.782-.562.579-1.577.578c-.262 0-.516-.04-.766-.11v1.376l.531.125c.082.007.125.046.125.109a.36.36 0 0 1-.093.234H.266A.13.13 0 0 1 .25 1.72q0-.205.281-.297Zm1.734-5.11q-.581.001-1.016.406v2.672q.359.282.828.282 1.373 0 1.375-1.829 0-.732-.328-1.125a1.03 1.03 0 0 0-.86-.406m0 0"/><path id="o" d="M.922-4.281v-.032q0-.996.469-1.593.433-.53 1.03-.532c.352 0 .532.141.532.422a.45.45 0 0 1-.14.329 1.2 1.2 0 0 0-.579-.157q-.345.001-.468.172c-.086.117-.125.313-.125.594v.797h1.203l-.094.468H1.64v3.344l.626.125q.124.017.125.11A.35.35 0 0 1 2.297 0H.328a.1.1 0 0 1-.016-.062c0-.133.094-.235.282-.297l.328-.11v-3.343H.234v-.063c0-.145.086-.242.266-.297Zm0 0"/><path id="p" d="m.781-3.781-.64-.094a.16.16 0 0 1-.016-.078c0-.156.11-.242.328-.266l1.047-.11v2.798q0 1.048.89 1.047.688 0 1.11-.438v-2.86l-.656-.093v-.078c0-.156.11-.242.328-.266l1.047-.11v3.845l.656.078v.078q0 .252-.328.281l-1 .094v-.578H3.53c-.344.43-.793.64-1.344.64Q.782.11.782-1.484Zm0 0"/><path id="q" d="M.906-.469V-3.78l-.64-.094a.16.16 0 0 1-.016-.078c0-.156.11-.242.328-.266l1.047-.11-.047.595h.031q.294-.294.516-.422.404-.218.953-.219.638 0 1 .422.375.41.375 1.172V-.47l.531.125q.124.017.125.11A.35.35 0 0 1 5.016 0H3.14a.1.1 0 0 1-.016-.062c0-.133.094-.235.281-.297l.328-.11V-2.75q0-.53-.312-.812-.252-.219-.656-.22c-.43 0-.809.15-1.141.438v2.875l.547.125c.07.012.11.047.11.11A.4.4 0 0 1 2.202 0H.313a.1.1 0 0 1-.016-.062c0-.133.094-.235.281-.297Zm0 0"/><path id="r" d="M.484-2.969c0-.437.164-.789.5-1.062q.452-.342 1.125-.344.357 0 .672.094h1.516l-.078.484h-.75q.28.376.281.828-.001.691-.5 1.078-.47.392-1.187.391-.206 0-.422-.047-.282.159-.282.422 0 .314.47.313h1.015q.576.001.906.265a.83.83 0 0 1 .344.703c0 .469-.2.867-.594 1.203-.437.352-1.008.532-1.703.532C.742 1.89.219 1.539.219.844c0-.524.27-.875.812-1.063v-.015a.62.62 0 0 1-.36-.594q0-.497.61-.813v-.03Q.484-2.045.484-2.97M2.11-1.953q.938.001.938-1c0-.313-.09-.55-.266-.719a.9.9 0 0 0-.656-.25q-.907 0-.906.969 0 1.001.89 1M1.72-.11q-.19.002-.344-.032C1.07.012.922.266.922.61q-.001.781 1 .782.67 0 1.094-.282.375-.251.375-.656 0-.562-.735-.562Zm0 0"/><path id="s" d="M1-.562q.264.187.64.187c.508 0 .766-.195.766-.594q0-.234-.234-.468a8 8 0 0 0-.594-.391q-.517-.34-.734-.563a1.23 1.23 0 0 1-.36-.859c0-.344.133-.613.407-.812q.406-.312 1.015-.313c.395 0 .711.102.953.297q.031.346.032.547 0 .438-.328.437h-.094l-.094-.64a1.13 1.13 0 0 0-.61-.188q-.656 0-.656.516 0 .363.516.703.469.3.938.594c.332.28.5.601.5.953q-.001.55-.407.906-.408.362-1.094.36C1.126.11.767.022.484-.14a3.7 3.7 0 0 1-.078-.735q0-.422.328-.422h.079Zm0 0"/><path id="t" d="M.86-.469v-5.453l-.641-.094a.1.1 0 0 1-.016-.062q0-.246.328-.281l1.047-.11v6l.547.125q.124.017.125.11A.35.35 0 0 1 2.156 0H.266v-.062c0-.133.086-.235.265-.297Zm0 0"/><path id="u" d="M.906-.469V-3.78l-.64-.094a.16.16 0 0 1-.016-.078c0-.156.11-.242.328-.266l1.047-.11v3.86l.547.125c.07.012.11.047.11.11A.4.4 0 0 1 2.202 0H.313a.1.1 0 0 1-.016-.062c0-.133.094-.235.281-.297ZM.75-5.812q0-.236.14-.375a.53.53 0 0 1 .376-.141q.217 0 .359.14a.49.49 0 0 1 .156.375.49.49 0 0 1-.156.375.5.5 0 0 1-.36.125.56.56 0 0 1-.374-.125.5.5 0 0 1-.141-.375m0 0"/><path id="v" d="M1.156-2.172q.012.845.375 1.297c.239.305.57.453 1 .453q.593 0 1.11-.422.092.064.109.25-.001.205-.406.438-.47.265-1.11.265Q1.42.111.938-.39C.57-.773.39-1.332.39-2.062Q.39-3.152.969-3.798a1.7 1.7 0 0 1 1.297-.578q.702.001 1.093.406.36.41.36 1.078 0 .299-.094.72Zm1.032-1.75q-.91.002-1.016 1.328h1.75q.047-.17.047-.375-.001-.951-.781-.953m0 0"/><path id="w" d="M3.406-.5h-.031q-.44.61-1.266.61-.737 0-1.187-.47Q.39-.902.39-2.015q0-1.156.703-1.812.592-.546 1.484-.547c.27 0 .524.04.766.11v-1.657l-.64-.094a.1.1 0 0 1-.017-.062q0-.246.329-.281l1.047-.11v5.985l.656.078q.013.047.015.078 0 .252-.328.281l-1 .094Zm-1.094.031q.657 0 1.032-.39v-2.703q-.316-.33-.844-.329c-.406 0-.73.149-.969.438q-.39.486-.39 1.312-.001.846.343 1.282.295.39.829.39m0 0"/><path id="x" d="M.656-5.922 0-6.016a.2.2 0 0 1-.016-.062q0-.246.344-.281l1.047-.11v2.703h.016q.497-.609 1.328-.609.702 0 1.14.469.499.55.5 1.656c0 .781-.234 1.383-.703 1.797q-.628.562-1.578.562-.893 0-1.422-.312Zm1.719 2.14q-.644 0-1 .423v2.703q.374.251.875.25 1.36 0 1.36-1.735c0-.57-.126-1-.376-1.28-.218-.24-.507-.36-.859-.36m0 0"/></defs><path fill="none" stroke="#000" stroke-miterlimit="10" stroke-width=".39627882" d="M37.328 97.96v-28.6m0-22.247V18.512"/><path fill="none" stroke="#000" stroke-miterlimit="10" stroke-width=".79156446" d="M26.203 58.234c0 6.145 4.98 11.125 11.125 11.125 6.14 0 11.121-4.98 11.121-11.125 0-6.14-4.98-11.12-11.12-11.12-6.145 0-11.126 4.98-11.126 11.12Zm0 0"/><path fill="none" stroke="#000" stroke-miterlimit="10" stroke-width=".79156446" d="M42.887 58.234c-.907 1.426-1.774 2.782-2.778 2.782-1.007 0-1.875-1.356-2.78-2.782-.907-1.421-1.778-2.78-2.782-2.78-1.008 0-1.875 1.359-2.781 2.78"/><use xlink:href="#a" x="4.351" y="54.808"/><use xlink:href="#b" x="9.597" y="56.679"/><use xlink:href="#c" x="4.351" y="65.643"/><use xlink:href="#d" x="8.804" y="65.643"/><use xlink:href="#e" x="14.735" y="65.643"/><path fill="none" stroke="#000" stroke-miterlimit="10" stroke-width=".39627882" d="M37.328 18.512h6.621m0 0h31.516m29.66 0h24.894"/><path fill="#FFF" stroke="#000" stroke-miterlimit="10" stroke-width=".39627882" d="M52.145 18.512c0-.871-.708-1.578-1.575-1.578-.87 0-1.578.707-1.578 1.578a1.577 1.577 0 0 0 3.152 0Zm0 0"/><use xlink:href="#f" x="48.489" y="15.238"/><path fill="none" stroke="#000" stroke-miterlimit="10" stroke-width=".79156446" d="M75.465 12.95h29.66v11.12h-29.66Zm0 0"/><use xlink:href="#a" x="85.823" y="9.188"/><use xlink:href="#g" x="91.068" y="11.058"/><path fill="none" stroke="#000" stroke-miterlimit="10" stroke-width=".39627882" d="M130.02 18.512h24.894m29.664 0h24.895v24.894m0 29.66v24.895h-86.075m0 0h-86.07"/><path fill="none" stroke="#000" stroke-miterlimit="10" stroke-width=".79156446" d="M154.914 12.95h29.664v11.12h-29.664Zm0 0"/><use xlink:href="#a" x="165.275" y="9.188"/><use xlink:href="#h" x="170.519" y="11.058"/><path fill="none" stroke="#000" stroke-miterlimit="10" stroke-width=".79156446" d="M203.91 73.066v-29.66h11.125v29.66Zm0 0"/><use xlink:href="#a" x="217.191" y="60.374"/><use xlink:href="#i" x="222.437" y="62.244"/><path fill="none" stroke="#000" stroke-miterlimit="10" stroke-width=".39627882" d="M130.02 18.512v24.894m0 29.66v24.895"/><path fill="none" stroke="#000" stroke-miterlimit="10" stroke-width=".79156446" d="M124.46 73.066v-29.66h11.122v29.66Zm0 0"/><path stroke="#000" stroke-miterlimit="10" stroke-width=".39627882" d="M131.598 18.512a1.575 1.575 0 1 0-3.154-.005 1.575 1.575 0 0 0 3.154.005ZM131.598 97.96c0-.87-.707-1.573-1.579-1.573a1.575 1.575 0 1 0 1.578 1.574Zm0 0"/><use xlink:href="#a" x="113.358" y="60.374"/><use xlink:href="#j" x="118.603" y="62.244"/><use xlink:href="#k" x="98.598" y="107.594"/><use xlink:href="#l" x="104.974" y="107.594"/><use xlink:href="#m" x="109.133" y="107.594"/><use xlink:href="#n" x="116.978" y="107.594"/><use xlink:href="#o" x="121.903" y="107.594"/><use xlink:href="#p" x="124.859" y="107.594"/><use xlink:href="#q" x="129.926" y="107.594"/><use xlink:href="#r" x="135.162" y="107.594"/><use xlink:href="#s" x="139.579" y="107.594"/><use xlink:href="#r" x="143.026" y="107.594"/><use xlink:href="#t" x="147.443" y="107.594"/><use xlink:href="#u" x="149.927" y="107.594"/><use xlink:href="#v" x="152.376" y="107.594"/><use xlink:href="#w" x="156.526" y="107.594"/><path fill="#FFF" stroke="#000" stroke-miterlimit="10" stroke-width=".39627882" d="M52.145 97.96c0-.87-.708-1.573-1.575-1.573a1.575 1.575 0 1 0 1.575 1.574Zm0 0"/><use xlink:href="#x" x="48.191" y="107.594"/></svg>