<svg xmlns="http://www.w3.org/2000/svg" xmlns:xlink="http://www.w3.org/1999/xlink" width="161.422" height="237.244"><defs><path id="a" d="M1.828.094c1.75 0 2.375-1.14 2.672-2.735l.484-2.453c.047-.25.188-.39.563-.406l.219-.016c.046 0 .078-.03.078-.078l.031-.172-.016-.015c-.406 0-.75.015-.937.015-.203 0-.547-.015-.938-.015l-.03.015-.032.172c0 .047.031.078.062.078l.22.016c.296.016.405.094.405.281 0 .032 0 .078-.015.125l-.516 2.625c-.187 1-.547 2.188-2 2.188-.422 0-.734-.188-.937-.438C.953-.969.906-1.25.906-1.53s.047-.594.11-.875L1.53-5.11c.063-.25.203-.375.563-.391l.219-.016c.046 0 .078-.03.078-.078l.046-.172-.03-.015c-.391 0-.75.015-1.094.015S.64-5.78.234-5.78l-.03.015-.032.172c0 .047.031.078.062.078l.22.016c.28.016.405.078.405.266 0 .046 0 .078-.015.125l-.578 3a3 3 0 0 0-.063.625c0 1.28.953 1.578 1.625 1.578m0 0"/><path id="d" d="m1.906-5.078-.86 4.406c-.062.25-.187.375-.562.406L.22-.234c-.047.03-.063.172-.016.25C.593.016.922 0 1.266 0s.75.016 1.14.016c.031-.032.047-.22.031-.25l-.312-.032c-.344-.03-.437-.14-.39-.406l.859-4.406c.062-.25.187-.375.562-.422l.281-.016a.38.38 0 0 0 .016-.265c-.406 0-.734.015-1.078.015S1.641-5.78 1.25-5.78c-.031.031-.062.218-.031.265l.297.016c.359.031.453.14.39.422m0 0"/><path id="f" d="M1.39-.703 1.876-2c.047-.125.094-.156.313-.156h1.89l.516 1.515c.11.297-.235.344-.657.36-.062.062-.062.25 0 .297C4.267.016 4.75 0 5.11 0c.36 0 .704.016 1.016.016.047-.047.047-.235 0-.297-.344-.031-.656-.063-.812-.485L3.484-5.875c-.14.078-.39.172-.5.172L.954-.906c-.235.547-.5.61-.891.625-.047.062-.047.25 0 .297C.297.016.593 0 .859 0 1.22 0 1.672.016 2 .016c.063-.047.063-.235 0-.297-.344-.016-.75-.063-.61-.422m.954-1.828c-.188 0-.25-.031-.219-.11l.906-2.312h.063l.844 2.422Zm0 0"/><path id="g" d="M.922-4.672v3.578c0 .75-.14.797-.766.813-.062.062-.062.25 0 .297C.546.016.984 0 1.313 0c.312 0 .843.016 1.28.016.063-.047.063-.235 0-.297-.687-.031-.905-.063-.905-.813v-1.515c.203.062.406.093.718.093 1.64 0 2.125-1.062 2.125-1.828 0-.531-.343-1.484-2-1.484-.344 0-.875.062-1.219.062-.343 0-.796-.015-1.156-.015-.062.047-.062.234 0 .297.625.03.766.062.766.812m.766-.281c0-.25.14-.563.78-.563.61 0 1.235.204 1.235 1.329 0 .968-.469 1.359-1.328 1.359-.234 0-.594-.016-.687-.047Zm0 0"/><path id="b" d="M1.063-4.61c-.266 0-.641 0-.922-.015-.047.047-.047.203 0 .234.5.032.609.063.609.657v2.859c0 .594-.11.625-.61.656-.046.047-.046.188 0 .235C.423 0 .798 0 1.064 0c.265 0 .437.016 1.046.016 1.422 0 1.797-.72 1.797-1.328 0-.688-.484-1.079-1.094-1.266.344-.188.672-.563.672-.938 0-.484-.203-1.109-1.53-1.109-.25 0-.641.016-.891.016m.296 2.235h.5c.97 0 1.375.547 1.375 1.203 0 .516-.187.953-1.28.953-.5 0-.595-.187-.595-.625Zm0-1.547c0-.39 0-.453.625-.453.407 0 .922.219.922.938 0 .609-.422.828-1.015.828h-.532Zm0 0"/><path id="c" d="M2-2.578h-.64V-3.86c0-.313.077-.453.468-.453h.531c.547 0 .657.28.813.765a.4.4 0 0 0 .234-.031c-.031-.297-.14-.985-.156-1.031a.034.034 0 0 0-.031-.032c-.125.032-.172.032-.344.032H1.047c-.219 0-.625 0-.922-.016-.047.047-.047.203 0 .234.5.032.625.063.625.657v2.859c0 .594-.125.625-.625.656-.047.047-.047.188 0 .235C.391 0 .828 0 1.063 0h1.53c.345 0 .907.016.907.016.11-.36.219-.828.266-1.188a.33.33 0 0 0-.25-.047c-.141.516-.391.938-.938.938H1.75c-.297 0-.39-.11-.39-.453v-1.578H2c.61 0 .64.171.656.484.047.047.188.047.235 0 0-.172-.016-.375-.016-.625 0-.203.016-.438.016-.61-.047-.046-.188-.046-.235 0-.015.391-.047.485-.656.485m0 0"/><path id="e" d="M2.547.078c.687 0 1.328-.328 1.812-.969C4.33-.953 4.281-1 4.203-1c-.516.563-1 .781-1.656.781-.969 0-1.64-1.093-1.64-2.125 0-.625.171-1.14.421-1.453.36-.437.781-.64 1.156-.64.985 0 1.375.593 1.563 1.203.078.03.156 0 .234-.032a32 32 0 0 0-.156-1.109c-.375-.031-.687-.328-1.562-.328-.61 0-1.126.219-1.547.61-.47.437-.75 1.14-.75 1.874 0 1.25.75 2.297 2.28 2.297m0 0"/><path id="h" d="M2.063-.875v-2.469c0-.437 0-.875.015-.969 0-.03-.015-.03-.047-.03-.39.25-.765.421-1.39.718.015.078.03.14.109.188.328-.141.484-.172.61-.172.124 0 .14.172.14.406v2.328c0 .594-.187.625-.687.656-.047.047-.047.188 0 .235C1.156 0 1.422 0 1.813 0c.343 0 .515 0 .859.016.047-.047.047-.188 0-.235-.5-.031-.61-.062-.61-.656m0 0"/><path id="i" d="M.438-3.344c0 .156.14.281.28.281.126 0 .345-.124.345-.28 0-.063-.016-.11-.032-.157-.015-.047-.062-.11-.062-.172 0-.172.187-.437.703-.437.266 0 .625.187.625.875 0 .453-.156.828-.578 1.25l-.532.515C.485-.75.375-.406.375.016c0 0 .36-.016.594-.016h1.25c.219 0 .547.016.547.016.093-.375.172-.922.172-1.125-.032-.047-.126-.047-.204-.047-.125.515-.25.687-.5.687H.97c0-.343.484-.828.531-.86l.719-.687c.406-.39.703-.718.703-1.25 0-.78-.625-1.093-1.203-1.093-.797 0-1.281.593-1.281 1.015m0 0"/><path id="j" d="M1.531-4.11c.313 0 .594.188.594.641 0 .36-.406.906-1.125 1.016l.047.219h.344c.406 0 .937.109.937.906 0 .953-.64 1.156-.89 1.156-.36 0-.438-.172-.516-.297C.844-.579.75-.656.609-.656c-.14 0-.296.14-.296.25 0 .281.593.484 1.03.484.845 0 1.61-.562 1.61-1.5 0-.781-.594-1.062-1.015-1.125v-.015c.578-.282.75-.579.75-.954 0-.218-.047-.39-.22-.562-.155-.156-.405-.281-.78-.281-1.047 0-1.36.687-1.36.922 0 .109.078.25.25.25.25 0 .281-.235.281-.376 0-.453.485-.546.672-.546m0 0"/><path id="k" d="M3.078-1.562h-.594V-4.36H2.25c-.047 0-.094.046-.11.078-.453.547-1.28 1.734-1.937 2.75.016.11.063.297.281.297h1.454v.656c0 .328-.282.328-.579.36-.046.046-.046.187 0 .234C1.58 0 1.875 0 2.203 0c.281 0 .547 0 .781.016.032-.047.032-.188 0-.235-.359-.031-.5-.015-.5-.36v-.655h.485c.11 0 .203-.125.203-.22 0-.062-.016-.109-.094-.109m-1.14-2.063v2.063H.577c.36-.594.86-1.391 1.36-2.063m0 0"/><path id="l" d="M.906-1.922c0-.156-.015-.344-.031-.406-.016-.031-.031-.047-.078-.047-.14.063-.281.11-.656.156 0 .031 0 .125.015.156.282.032.344.047.344.36v1.047c0 .437-.062.469-.36.484-.03.031-.03.156 0 .188C.298 0 .5 0 .72 0s.375 0 .547.016c.03-.032.03-.157 0-.188C.984-.188.922-.219.922-.656v-.875c0-.11.047-.172.094-.235.218-.203.422-.312.578-.312.203 0 .36.125.36.484v.938c0 .437-.048.469-.329.484-.031.031-.031.156 0 .188C1.75 0 1.953 0 2.172 0c.203 0 .39 0 .515.016.032-.032.032-.157 0-.188-.265-.016-.312-.047-.312-.484V-1.72c.25-.281.5-.36.703-.36s.313.126.313.485v.938c0 .437-.047.469-.328.484-.032.031-.032.156 0 .188C3.203 0 3.39 0 3.609 0c.22 0 .407 0 .563.016a.4.4 0 0 0 0-.188c-.297-.016-.344-.047-.344-.484V-1.5c0-.484-.094-.86-.562-.86-.266 0-.61.11-.875.407-.016.016-.047.047-.063-.016-.047-.218-.265-.39-.531-.39-.313 0-.594.187-.828.437-.016.031-.047.063-.063 0m0 0"/><path id="m" d="M1.563-.25c.046.156.093.297.359.297a.74.74 0 0 0 .516-.188c-.016-.062-.032-.109-.094-.156a.27.27 0 0 1-.188.094c-.156 0-.172-.203-.172-.453v-.797c0-.75-.421-.906-.812-.906-.438 0-.875.297-.875.593 0 .141.062.204.187.204.157 0 .25-.11.25-.188 0-.031 0-.078-.015-.094 0-.015-.016-.047-.016-.11 0-.155.235-.218.438-.218.172 0 .422.094.422.688 0 .046-.016.062-.032.062l-.453.125c-.516.125-.89.406-.89.766 0 .453.312.578.687.578.188 0 .344-.031.578-.219Zm0-1v.703c0 .078-.032.11-.063.14-.14.11-.328.235-.469.235a.364.364 0 0 1-.39-.375c0-.234.109-.484.5-.594Zm0 0"/><path id="n" d="M.969-1.922c-.11-.172-.078-.187.156-.219.031-.03.031-.14 0-.171-.14.015-.375.015-.531.015-.172 0-.328 0-.469-.015-.031.03-.031.14 0 .171.188.032.328.11.484.329l.47.687c.03.031.03.047 0 .078l-.454.578c-.203.282-.328.297-.516.297-.03.031-.03.156 0 .188C.22 0 .344 0 .5 0s.313 0 .453.016c.031-.032.031-.157 0-.188C.75-.188.72-.203.828-.375l.344-.5c.047-.062.062-.047.094 0l.312.422c.188.266.094.266-.078.281-.031.031-.031.156 0 .188C1.672 0 1.844 0 2.031 0c.203 0 .36 0 .485.016.03-.032.03-.157 0-.188-.25-.016-.328-.031-.532-.328L1.5-1.187c-.031-.032-.031-.047 0-.079l.453-.578c.188-.25.313-.265.516-.297.031-.03.031-.14 0-.171-.11.015-.235.015-.39.015-.173 0-.313 0-.454-.015-.031.03-.031.14 0 .171.203.032.25.047.125.235l-.344.484c-.047.047-.062.047-.11-.016Zm0 0"/></defs><path fill="none" stroke="#000" stroke-miterlimit="10" stroke-width=".39757557000000004" d="M21.828 222.52H147.75"/><path stroke="#000" stroke-miterlimit="10" stroke-width=".39757557000000004" d="m150.812 222.52-2.964-1.754v3.511Zm0 0"/><path fill="none" stroke="#000" stroke-miterlimit="10" stroke-width=".39757557000000004" d="M21.828 222.52V10.344"/><path stroke="#000" stroke-miterlimit="10" stroke-width=".39757557000000004" d="m21.828 7.281-1.758 2.965h3.516Zm0 0"/><use xlink:href="#a" x="144.547" y="207.216"/><use xlink:href="#b" x="149.3" y="209.091"/><use xlink:href="#c" x="153.503" y="209.091"/><use xlink:href="#d" x="2.977" y="8.804"/><use xlink:href="#e" x="5.488" y="10.681"/><path fill="none" stroke="#000" stroke-miterlimit="10" stroke-width=".79415471" d="M21.828 222.52h43.129l8.625-43.125 8.625-43.13 17.25-86.253"/><path fill="#FFF" stroke="#000" stroke-miterlimit="10" stroke-width=".79415471" d="M23.41 222.52a1.582 1.582 0 0 0-3.164 0 1.583 1.583 0 0 0 3.164 0ZM66.54 222.52a1.582 1.582 0 0 0-3.165 0 1.583 1.583 0 0 0 3.164 0ZM75.164 179.395a1.583 1.583 0 1 0-3.166.001 1.583 1.583 0 0 0 3.166-.001ZM83.79 136.266a1.583 1.583 0 1 0-3.162.002 1.583 1.583 0 0 0 3.161-.002Zm0 0"/><use xlink:href="#f" x="14.453" y="231.576"/><use xlink:href="#g" x="20.663" y="231.576"/><use xlink:href="#h" x="25.496" y="233.452"/><use xlink:href="#f" x="57.58" y="231.576"/><use xlink:href="#g" x="63.789" y="231.576"/><use xlink:href="#i" x="68.622" y="233.452"/><use xlink:href="#f" x="76.756" y="181.359"/><use xlink:href="#g" x="82.966" y="181.359"/><use xlink:href="#j" x="87.8" y="183.236"/><use xlink:href="#f" x="85.381" y="138.262"/><use xlink:href="#g" x="91.591" y="138.262"/><use xlink:href="#k" x="96.425" y="140.138"/><path fill="none" stroke="#000" stroke-miterlimit="10" stroke-width=".79415471" d="M95.145 58.637h5.39"/><use xlink:href="#d" x="103.711" y="59.815"/><use xlink:href="#e" x="106.221" y="61.691"/><use xlink:href="#l" x="110.838" y="63.191"/><use xlink:href="#m" x="115.073" y="63.191"/><use xlink:href="#n" x="117.523" y="63.191"/></svg>