<svg xmlns="http://www.w3.org/2000/svg" xmlns:xlink="http://www.w3.org/1999/xlink" width="226.773" height="112.442"><defs><path id="b" d="m.844-1.406-2.39-2.5-.61.875a.4.4 0 0 1-.11-.094q-.106-.106-.03-.266l.5-1.14.234-.235 2.828 2.954.703-.5q.076-.061.125-.016c.02.031.054.105.11.219L.483-.47a.3.3 0 0 1-.046-.047C.32-.629.313-.742.406-.859Zm0 0"/><path id="c" d="M-.344-2.656q.922-.732.5-1.422-.417-.703-1.015-.328a1 1 0 0 0-.391.422c.043.18.125.37.25.578a.3.3 0 0 1-.125.11q-.28.174-.422-.079a.74.74 0 0 1-.047-.734q.16-.388.64-.688c.313-.187.618-.254.907-.203.277.055.504.227.672.516q.245.408.14.828-.08.313-.39.687l.016.016q.497-.219.906-.125.406.095.64.453.295.486.125 1.031-.174.534-.765.89-.47.301-.828.266a.49.49 0 0 1-.39-.234.44.44 0 0 1 .03-.515C.266-1.07.395-1 .5-.97c.227.074.46.04.703-.11q.657-.387.234-1.108-.456-.734-1.609-.172Zm0 0"/><path id="d" d="m-.625-4.562 1.875-.641.156.594-1.531.53L.125-3q.983-.294 1.516-.078.515.207.75.875a1.35 1.35 0 0 1-.079 1.078q-.252.518-.874.719-.535.188-.875.078a.46.46 0 0 1-.329-.297q-.095-.293.172-.5.2.222.313.281.31.187.703.047a.8.8 0 0 0 .516-.453.9.9 0 0 0 .046-.672q-.188-.546-.687-.64-.504-.093-1.406.218Zm0 0"/><path id="e" d="M-.016-3.64a8 8 0 0 1-.046-.891l2.765-.297q.03.047.047.125a.9.9 0 0 1-.047.344L1.313-.141l-.5.047 1.437-4.11L.422-4l-.047.594a.6.6 0 0 1-.156.047q-.205.017-.235-.282m0 0"/><path id="f" d="M2.39-.562q.248-.375.36-1.22-.393.253-.937.188-.58-.06-.891-.406C.672-2.258.57-2.613.625-3.062q.075-.703.578-1.047c.3-.22.645-.305 1.031-.266.457.055.79.297 1 .734q.294.581.188 1.532-.11 1.03-.578 1.64Q2.265.324 1.28.22.796.172.563-.016.326-.168.359-.39.388-.685.703-.75c.094.367.336.57.735.61q.623.063.953-.422m-.5-1.407q.562.065.907-.156.091-.89-.11-1.39-.188-.435-.593-.47a.59.59 0 0 0-.547.188q-.27.234-.328.75-.113.984.672 1.078m0 0"/><path id="g" d="m2.578-1.61 1.156.391-.125.36-1.156-.391-.422 1.219-.344-.125.422-1.219-1.156-.39.125-.36 1.156.39.407-1.218.343.125Zm0 0"/><path id="h" d="m.422-.234 1.547-.875q.903-.546 1.156-1.266.31-.919-.36-1.14a1.2 1.2 0 0 0-.578-.047 3.5 3.5 0 0 0-.296.624 2 2 0 0 1-.157-.046Q1.407-3.09 1.5-3.36a.8.8 0 0 1 .531-.516q.386-.14.938.031.527.188.75.594.234.409.047.953a2.1 2.1 0 0 1-.641.922q-.316.235-.937.594l-1 .531v.016l1.5.5.328-.516a.2.2 0 0 1 .125.016q.17.065.093.312a14 14 0 0 1-.375.89L.375.126Zm0 0"/><path id="i" d="M1.734.266q.81.264 1.438-1.563.62-1.856-.188-2.125-.815-.28-1.437 1.578Q.92-.016 1.734.266m-.156.359Q.934.403.766-.265.576-.97.938-2.048q.374-1.09 1-1.531a1.23 1.23 0 0 1 1.203-.203c.437.148.71.445.828.89q.187.721-.188 1.813Q3.418 0 2.797.438q-.562.404-1.219.187m0 0"/><path id="j" d="m2.86-1.016 1.046.625-.187.313-1.047-.625L2 .407 1.688.202l.671-1.11-1.046-.624.187-.313 1.047.625.672-1.093.312.203Zm0 0"/><path id="k" d="m.875-1.281 3.219-1.485.453.235L3.094-.11l.5.297-.313.437-.469-.281-.421.672.375.343q.075.047.046.11a.7.7 0 0 1-.187.125L1.265.766a.1.1 0 0 1 .032-.047q.093-.176.328-.094l.281.094.422-.672-1.61-.984Zm.594.172 1.14.703 1.079-1.797-.016-.016-2.203 1.094Zm0 0"/><path id="l" d="M1.64.64q.732.434 1.75-1.218 1.014-1.67.282-2.11-.737-.45-1.75 1.22C1.242-.364 1.148.335 1.64.64m-.234.313A1.19 1.19 0 0 1 .813-.094q-.036-.73.562-1.703.591-.982 1.281-1.297A1.34 1.34 0 0 1 3.906-3q.575.345.594 1.031.03.736-.562 1.719-.598.966-1.282 1.281Q2 1.294 1.406.953m0 0"/><path id="m" d="m3.016-.375.875.844-.25.265-.875-.843-.907.937-.265-.265.906-.938-.89-.828.25-.266.89.828.89-.921.266.265Zm0 0"/><path id="n" d="M4.64-.687q.046-.17.032-.422a.87.87 0 0 0-.266-.516q-.768-.732-2.093.516c.332.03.628.18.89.437q.434.41.469.86.06.515-.39.984-.425.435-1 .5-.6.045-1.079-.406Q.686.762.843.046c.071-.437.345-.898.813-1.39q.669-.687 1.5-.875.936-.216 1.578.406.357.348.438.641.076.27-.063.422-.205.204-.468.063M2.064-.844q-.597.659-.72 1.14-.11.454.173.735a.69.69 0 0 0 .593.188q.358-.048.704-.407c.437-.449.46-.851.078-1.218q-.424-.403-.828-.438m0 0"/><path id="o" d="M1.469.984q.62.593 1.969-.812c.894-.938 1.132-1.602.718-2q-.627-.593-1.968.812Q.84.39 1.468.984m-.282.25Q.702.78.813.078q.125-.714.922-1.547.796-.827 1.532-.968.684-.126 1.187.343.48.485.375 1.14C4.742-.46 4.438.056 3.906.61q-.797.827-1.547.97-.674.138-1.171-.345m0 0"/><path id="p" d="m2.188 1.563-.032-.032q-.564.105-1.015-.328Q.73.811.703.297c0-.395.195-.797.594-1.203q.639-.669 1.36-.656.654.018 1.156.5c.156.148.28.296.374.453l.891-.922-.312-.407.03-.03c.095-.095.204-.087.329.015l.656.5-3.218 3.375.312.406a.1.1 0 0 0-.047.031Q2.7 2.5 2.5 2.33l-.61-.454ZM1.562.984q.375.34.797.329L3.813-.22C3.8-.445 3.695-.656 3.5-.844a.95.95 0 0 0-.781-.265q-.487.046-.922.515-.47.485-.5.907a.79.79 0 0 0 .266.671m0 0"/><path id="q" d="M4.75-2.078Q6.029-.841 5.203.016c-.43.445-.937.476-1.531.093v.016c.476.594.492 1.117.047 1.578q-.41.42-1 .39-.61-.08-1.235-.671L.234.234c0-.023.008-.043.032-.062Q.39.03.625.172l.266.156 2.797-2.922-.25-.375q-.066-.06-.032-.11a.5.5 0 0 1 .203-.093ZM1.688 1.078q.451.434.875.469.403.03.703-.281.279-.3.218-.688-.065-.392-.5-.797l-.39-.39L1.313.719Zm1.5-1.64q.434.42.843.468.375.035.657-.265.608-.64-.266-1.485l-.344-.328L2.844-.89Zm0 0"/><path id="r" d="M.875-1.531c.375-.438.066-1.07-.922-1.906q-1.5-1.25-2.062-.594-.546.657.953 1.906c.992.836 1.664 1.031 2.031.594m.281.281q-.439.502-1.14.438c-.47-.051-.993-.32-1.578-.813q-.891-.731-1.079-1.469a1.27 1.27 0 0 1 .266-1.219 1.2 1.2 0 0 1 1.11-.437q.74.081 1.624.813.872.737 1.047 1.468.186.691-.25 1.219m0 0"/><path id="s" d="M.922-1.344-1.297-4l-.672.828a.5.5 0 0 1-.093-.094q-.105-.106 0-.265l.562-1.094.25-.219 2.625 3.125.75-.468q.074-.06.11 0 .046.046.093.234L.516-.437a.14.14 0 0 0-.047-.047q-.159-.186 0-.36Zm0 0"/><path id="t" d="M1.125-1.344c.438-.375.238-1.054-.594-2.047q-1.25-1.5-1.906-.937-.655.549.594 2.047 1.25 1.488 1.906.937m.219.313Q.842-.592.156-.797q-.7-.2-1.437-1.078-.734-.89-.782-1.64-.058-.686.47-1.141.516-.434 1.187-.235.698.204 1.437 1.094.734.878.782 1.61.058.721-.47 1.156m0 0"/><path id="u" d="m.11-.469.343-1.75Q.652-3.25.266-3.906c-.32-.563-.688-.723-1.094-.485q-.233.141-.406.407c.062.187.156.398.28.625a.6.6 0 0 1-.14.093q-.294.175-.437-.078a.84.84 0 0 1-.047-.75q.142-.389.64-.672.502-.279.97-.171.468.094.75.593.263.456.234 1.094-.018.392-.172 1.094l-.25 1.094.015.015 1.36-.797-.172-.578a1 1 0 0 1 .11-.094q.151-.093.28.125.141.252.422.891L.344-.187Zm0 0"/><path id="v" d="M1.344-1.125q.75-.436-.219-2.125Q.155-4.936-.594-4.5q-.75.421.219 2.11.968 1.686 1.719 1.265m.156.344Q.92-.452.313-.75-.34-1.061-.923-2.062q-.575-.999-.5-1.75.065-.703.656-1.047c.399-.227.801-.239 1.22-.032q.638.33 1.218 1.329.575 1.001.5 1.734-.081.705-.672 1.047m0 0"/><path id="w" d="M.172-2.687q1.044-.516.781-1.266-.281-.78-.937-.547a1.02 1.02 0 0 0-.47.344q.02.297.142.625a1 1 0 0 1-.157.078q-.311.112-.406-.156-.14-.374.11-.72.235-.356.765-.562c.344-.125.648-.129.922-.015.27.105.46.312.578.625q.17.457-.047.843c-.086.2-.25.399-.5.594v.016q.546-.105.922.062.374.157.531.579.187.533-.078 1.03c-.18.337-.484.579-.922.735-.343.125-.633.152-.86.078A.5.5 0 0 1 .204-.64a.44.44 0 0 1 .14-.5q.202.224.345.282.31.174.718.03.715-.262.422-1.046c-.187-.531-.7-.687-1.531-.469Zm0 0"/><path id="x" d="M1.516-.89q.81-.294.156-2.11Q.997-4.84.188-4.547q-.792.3-.125 2.14Q.718-.59 1.516-.89m.109.39Q.999-.278.438-.687c-.399-.29-.723-.79-.985-1.5Q-.95-3.28-.75-4q.188-.687.828-.922a1.2 1.2 0 0 1 1.203.188c.395.28.727.789 1 1.515q.388 1.066.172 1.797c-.117.461-.39.766-.828.922m0 0"/><path id="y" d="m-.172-1.531 1.422-3.25.5-.14.484 2.796.579-.094.062.516-.547.094.14.78.5.016c.063 0 .098.024.11.063q0 .033-.047.219L1.47-.25c0-.02-.008-.04-.016-.062Q1.42-.5 1.641-.61l.28-.11-.14-.781-1.86.328Zm.531-.25 1.329-.235-.36-2.062h-.016L.36-1.797Zm0 0"/><path id="z" d="M1.656-.61c.563-.1.727-.788.5-2.062Q1.812-4.592.97-4.437q-.845.14-.5 2.062c.226 1.273.625 1.86 1.187 1.766m.032.391C1.25-.133.863-.266.53-.609c-.324-.352-.55-.907-.687-1.657-.133-.757-.098-1.359.11-1.796.206-.438.534-.696.984-.782q.684-.107 1.14.407c.344.343.582.898.719 1.656q.2 1.127-.14 1.797-.282.644-.97.765m0 0"/><path id="A" d="M.875-4.516h1.984l-.046.61H1.187l-.093 1.094q1.014.046 1.453.421.422.364.422 1.079 0 .579-.422.984c-.274.273-.625.406-1.063.406Q.922.076.641-.125a.46.46 0 0 1-.22-.39Q.42-.827.735-.938q.124.28.22.375c.155.18.366.265.64.265q.405.002.656-.265a.87.87 0 0 0 .234-.625q-.002-.575-.437-.829-.44-.248-1.39-.25Zm0 0"/><path id="B" d="M1.734-.312c.57 0 .86-.645.86-1.938 0-1.3-.29-1.953-.86-1.953q-.86 0-.859 1.953-.001 1.939.86 1.938m-.03.39Q1.027.08.64-.5C.367-.906.234-1.488.234-2.25q0-1.156.438-1.766c.27-.382.633-.578 1.094-.578.457 0 .812.196 1.062.578q.406.61.406 1.766-.002 1.142-.437 1.75-.41.58-1.094.578m0 0"/><path id="R" d="M1.078-2.453q1.172-.14 1.172-.938 0-.827-.703-.828c-.211 0-.39.055-.547.157a2.3 2.3 0 0 0-.078.64 1 1 0 0 1-.172.016q-.328 0-.328-.281-.001-.405.344-.657c.226-.164.535-.25.922-.25.363 0 .648.102.859.297q.328.283.328.781 0 .487-.328.797c-.149.149-.375.274-.688.375v.016q.546.083.844.375c.207.187.313.43.313.719 0 .375-.149.687-.438.937q-.422.375-1.11.375Q.908.076.626-.125a.51.51 0 0 1-.203-.406q0-.31.297-.422.106.269.219.39c.156.18.375.266.656.266.508 0 .765-.273.765-.828 0-.57-.43-.895-1.28-.969Zm0 0"/><path id="C" d="M3.469-3.14a1 1 0 0 0-.203-.376.83.83 0 0 0-.516-.28Q1.7-3.986 1.313-2.204q.435-.234.968-.14.594.111.875.452.34.393.235 1.032-.111.61-.578.968-.47.388-1.126.266Q.985.245.72-.406.466-1.028.64-2.031q.17-.951.75-1.563.656-.715 1.547-.562c.312.062.546.164.703.297q.234.188.187.406-.047.282-.36.312M1.25-1.845q-.143.862.031 1.344c.102.293.282.46.532.5.226.04.43-.008.609-.156q.279-.233.36-.735.17-.92-.61-1.062-.564-.093-.922.11m0 0"/><path id="D" d="M1.75-.016c.563.102.957-.476 1.188-1.75q.341-1.92-.5-2.078-.846-.14-1.188 1.781-.344 1.91.5 2.047m-.094.391Q1 .247.72-.391.42-1.046.625-2.17q.2-1.139.734-1.673.498-.498 1.172-.375.685.111.953.75.294.676.094 1.813-.207 1.125-.734 1.64Q2.342.5 1.656.375m0 0"/><path id="E" d="M1.594-3.266c.101-.27.218-.55.343-.843l2.625.953q-.002.08-.015.156a1.2 1.2 0 0 1-.188.281L1.25.453.766.281l3.109-3.047-1.734-.64-.313.515a.5.5 0 0 1-.14-.015q-.188-.077-.094-.36m0 0"/><path id="F" d="M1.734.297c.54.195 1.032-.305 1.47-1.516q.667-1.84-.142-2.14c-.53-.196-1.023.32-1.468 1.547-.438 1.21-.39 1.91.14 2.109m-.171.36Q.935.433.78-.25.593-.965.984-2.031 1.39-3.121 2-3.531q.592-.405 1.234-.172.657.235.797.906.187.705-.218 1.797Q3.419.064 2.797.484q-.58.406-1.235.172m0 0"/><path id="G" d="M3.14-.906q.545.75.141 1.453-.282.497-.812.578-.504.093-1.031-.219Q.92.606.75.172.562-.326.844-.812q.357-.623 1.328-.547-.486-.703-.094-1.375.248-.437.766-.532.516-.107.984.157c.32.187.535.43.64.718q.154.439-.109.907-.363.61-1.218.578m-.203-.266q.609-.013.954-.594a.7.7 0 0 0 .078-.546q-.064-.282-.39-.47a.7.7 0 0 0-.563-.093.7.7 0 0 0-.422.36.77.77 0 0 0-.094.671q.093.25.438.672m-.562.11c-.469-.008-.809.171-1.016.546a.83.83 0 0 0-.109.61q.062.328.39.515a.75.75 0 0 0 .626.094.84.84 0 0 0 .484-.39.8.8 0 0 0 .078-.672q-.112-.247-.453-.703m0 0"/><path id="H" d="M1.656.594c.5.289 1.07-.13 1.719-1.25q.968-1.686.219-2.125-.75-.422-1.719 1.265Q.905.172 1.656.594m-.218.312Q.858.578.813-.125q-.065-.715.515-1.719.575-.996 1.25-1.312c.438-.196.852-.18 1.25.047q.591.345.625 1.03.045.74-.531 1.735Q3.34.653 2.672.953q-.644.293-1.235-.047m0 0"/><path id="I" d="M2.281.86q.436-.175 1-.813c-.312 0-.61-.117-.89-.36q-.457-.374-.516-.859-.095-.514.344-1.016.45-.544 1.078-.562.543-.014 1 .36c.351.292.492.68.422 1.156Q4.639-.591 4.03.14 3.358.936 2.61 1.188c-.593.226-1.148.128-1.656-.297Q.576.575.47.28.359.05.5-.125c.133-.145.297-.18.484-.11-.117.34-.015.645.297.907q.469.405 1 .187m.39-1.438q.434.362.845.36c.375-.446.601-.848.687-1.204q.076-.467-.234-.734a.68.68 0 0 0-.578-.156q-.363.064-.688.453c-.43.511-.437.937-.031 1.28m0 0"/><path id="J" d="M1.531.875c.438.375 1.07.066 1.907-.922q1.248-1.5.593-2.062-.657-.546-1.906.953C1.289-.164 1.094.508 1.531.875m-.281.281Q.747.717.813.016c.05-.47.32-.993.812-1.578q.731-.891 1.469-1.079a1.27 1.27 0 0 1 1.219.266 1.2 1.2 0 0 1 .437 1.11q-.081.74-.812 1.624-.738.872-1.47 1.047-.69.186-1.218-.25m0 0"/><path id="K" d="M1.344.922 4-1.297l-.828-.672a.5.5 0 0 1 .094-.093q.106-.105.265 0l1.094.562.219.25-3.125 2.625.468.75q.06.074 0 .11-.046.046-.234.093L.438.516A.14.14 0 0 0 .484.469q.186-.159.36 0Zm0 0"/><path id="L" d="M1.344 1.125c.375.438 1.054.238 2.047-.594q1.5-1.25.937-1.906-.549-.655-2.047.594Q.793.469 1.344 1.125m-.313.219Q.592.842.797.156q.2-.7 1.078-1.437.89-.734 1.64-.782.686-.058 1.141.47.434.516.235 1.187-.204.698-1.094 1.437-.878.734-1.61.782-.721.058-1.156-.47m0 0"/><path id="M" d="m.688-1.484-2.657-2.22-.515.923a.5.5 0 0 1-.125-.063q-.105-.105-.047-.281l.375-1.187.219-.25 3.125 2.625.656-.594a.11.11 0 0 1 .125-.016.7.7 0 0 1 .11.219L.437-.516A.07.07 0 0 1 .39-.562C.266-.664.238-.782.312-.906Zm0 0"/><path id="N" d="m1.078-1.219-1.906-2.89-.766.734q-.03-.045-.078-.11-.075-.123.031-.265l.688-1.016.281-.187 2.25 3.406.781-.39c.063-.02.102-.016.125.015q.03.063.063.25L.562-.375q-.018-.03-.03-.047-.144-.216.03-.344Zm0 0"/><path id="O" d="M.11-.422A.43.43 0 0 1 .03-.719a.34.34 0 0 1 .172-.234.386.386 0 0 1 .547.11.34.34 0 0 1 .047.296.4.4 0 0 1-.172.235.44.44 0 0 1-.281.062.37.37 0 0 1-.235-.172m0 0"/><path id="P" d="m-1.75-4.25 1.656-1.094.297.532-1.36.89.516.985q.891-.527 1.454-.47.56.08.953.688.311.485.187 1.047-.127.564-.672.922C.97-.54.695-.445.47-.469q-.27.001-.39-.203c-.114-.164-.106-.336.015-.515q.262.176.39.187.341.096.688-.125c.226-.145.36-.336.39-.578a.88.88 0 0 0-.14-.64c-.211-.321-.484-.473-.828-.454q-.502.018-1.297.547Zm0 0"/><path id="Q" d="m.203-.437.75-1.61q.421-.95.203-1.687Q.886-4.67.22-4.47c-.18.055-.344.153-.5.297q.017.283.125.688a1 1 0 0 1-.156.046c-.22.075-.352.024-.407-.156a.82.82 0 0 1 .125-.75c.156-.226.426-.398.797-.515q.53-.154.953.062c.282.137.477.387.594.75q.153.517 0 1.11-.111.377-.422 1.046l-.5 1v.016l1.516-.453-.031-.625q.027-.045.109-.063c.125-.039.21.028.265.204q.076.269.204.953L.375-.11Zm0 0"/><path id="S" d="M3.344 1.5c-.594-.031-1.172-.078-1.516-.484-.312-.391-.281-.97.094-1.282.219-.187.531-.171.812-.156.172.016.297.14.407.266.359.422.265 1.14.203 1.656m.265 2.313c.22.25.5.406.813.453.39.015.797-.047 1.078-.282.547-.468.61-1.265.156-1.812-.437-.516-1.093-.578-1.75-.625.063-.484.188-1.313-.328-1.922-.219-.25-.469-.453-.797-.516-.375-.03-.797.079-1.094.329a1.32 1.32 0 0 0-.156 1.828c.453.515 1.11.562 1.782.609-.063.5-.204 1.328.296 1.938m.266-1.891c.578.031 1.156.094 1.5.5a.9.9 0 0 1-.11 1.281c-.218.172-.515.203-.812.172-.156-.016-.266-.156-.39-.281-.36-.438-.25-1.172-.188-1.672m0 0"/><path id="Y" d="M1.781-3.016.5-3.422l-1.031 1.39L.203-.89l.406-.39q.047-.046.11-.016c.02.024.054.086.11.188L-.032.047-.078.016q-.169-.123-.063-.344L-.063-.5l-2.546-4 .203-.39 4.594 1.343.25-.203q.076-.046.124-.016.014.018.11.188l-.89 1.187a.1.1 0 0 1-.048-.03q-.157-.123-.062-.345Zm-2.531.657.875-1.172-2.062-.64-.016.015Zm0 0"/><path id="Z" d="M.203-.266C.172-.266.148-.27.141-.28q-.157-.124-.063-.36l.14-.265-3.25-2.422-.343.281q-.061.08-.11.031-.046-.03-.093-.171l.953-1.282q0 .018.047.047.141.094.047.328l-.14.282L.562-1.406l.953-1.281-.563-.657a.6.6 0 0 0 .094-.125q.105-.14.328.031.28.204.719.626Zm0 0"/><path id="aa" d="M1.328-2.328q.248-.358.344-.703l-.61-.719a.3.3 0 0 1 .063-.14q.106-.154.36.03l.577.47q.031.702-.484 1.406c-.367.492-.805.78-1.312.875q-.922.175-1.953-.594c-.645-.477-1.008-1.063-1.094-1.75a2.24 2.24 0 0 1 .469-1.594q.468-.622 1.03-.875.41.282.595.422.25.176.14.328a.5.5 0 0 1-.11.11l-.655-.282a1.6 1.6 0 0 0-.672.532q-.423.579-.328 1.218.127.721.953 1.344.845.626 1.578.563c.437-.04.804-.254 1.11-.641m0 0"/><path id="ab" d="M-1.89-4.578q-.374.14-.579.422-.246.315-.234.625.019.298.312.531a.73.73 0 0 0 .516.172q.159-.045.453-.172l.688-.297q.533-.233.828-.25.422-.03.797.25c.32.25.5.559.53.922q.06.563-.374 1.125c-.23.313-.54.574-.922.781a17 17 0 0 1-.64-.453q-.25-.187-.11-.375.033-.045.125-.078l.688.328q.356-.123.625-.469.264-.357.218-.703C1-2.426.883-2.602.688-2.75a.7.7 0 0 0-.563-.156c-.152.023-.422.117-.797.281l-.469.188q-.42.205-.718.187-.387 0-.75-.281-.468-.34-.485-.89-.029-.528.36-1.032.376-.48.875-.703.409.298.53.39.237.188.11.36a1 1 0 0 1-.093.11Zm0 0"/><path id="ac" d="m-.062-4.281 1.546 2.343-.343.454-4.438-1.5-.234.203q-.06.064-.125.015-.046-.03-.11-.171l.954-1.25q.017 0 .046.03.158.112.047.329l-.156.297L.828-2.203v-.016l-1.5-2.297-1.125-.421-.219.187q-.075.063-.14.016-.046-.031-.11-.172l.938-1.219q.034-.013.062.016.159.11.047.328l-.14.297 3.593 1.437.016-.016-2.203-3.28-.39.374q-.078.066-.126.032-.045-.031-.11-.172l.86-1.11q.012.001.047.031.153.111.047.344l-.062.157 2.593 3.89-.344.453Zm0 0"/><path id="ad" d="M-.328-2.937q-.105.14-.188.234l-.218.297L.594-1.391l.36-.312q.076-.06.124-.031.014.017.11.187L.203-.266C.172-.266.148-.27.141-.28q-.158-.124-.047-.36l.125-.28L-3-3.376l-.328.297c-.04.031-.078.039-.11.015q-.045-.03-.109-.171l.844-1.094q1.19-1.546 2.25-.75c.52.406.656.93.406 1.562l2.156.172.266-.219q.077-.045.125-.015.014.018.11.187l-.563.72Zm-.484.046c.53-.695.53-1.25 0-1.656q-.78-.59-1.579.453l-.203.266 1.578 1.203Zm0 0"/><path id="ae" d="M-2.64-4.375c.812-1.02 1.57-1.254 2.265-.703q.549.44.547 1.031c-.012.418-.207.875-.594 1.375l-.234.297 1.265 1 .407-.36q.093-.093.14-.046.029.035.11.187L.203-.25C.172-.258.148-.27.141-.281Q-.017-.404.094-.625l.14-.281-3.171-2.516-.344.297q-.06.066-.125.031A.5.5 0 0 1-3.5-3.28Zm1.906 1.5q.409-.515.39-.953-.03-.421-.406-.719-.763-.61-1.578.422l-.203.266 1.594 1.25Zm0 0"/><path id="af" d="M.016-4.281H0l1.516 2.375-.36.437-4.422-1.562-.234.187q-.06.08-.125.031A.5.5 0 0 1-3.719-3l.969-1.234.047.046q.158.112.047.329l-.156.28L.844-2.186l.015-.016-1.468-2.313-1.125-.437-.22.156q-.075.094-.14.047a.5.5 0 0 1-.094-.187l.954-1.22q.034.001.062.032.159.112.047.328l-.156.281 3.578 1.5v-.015L.157-7.344l-.407.375q-.06.066-.125.032a.8.8 0 0 1-.094-.188l.86-1.094a.3.3 0 0 0 .046.047c.102.074.126.188.063.344l-.094.156L2.97-3.75l-.36.438Zm0 0"/><path id="ag" d="M-.297-2.937a2 2 0 0 1-.172.234l-.234.297L.609-1.375l.375-.312q.077-.077.125-.032.014.018.11.188L.203-.25C.172-.258.148-.27.141-.281Q-.017-.404.094-.625l.14-.281-3.171-2.516-.344.297q-.06.066-.125.031A.5.5 0 0 1-3.5-3.28l.86-1.094c.812-1.02 1.57-1.254 2.265-.703Q.387-4.468 0-3.5l2.156.188.266-.204q.077-.06.125-.03.014.015.11.187l-.579.718Zm-.484.03q.815-1.03.031-1.64-.763-.61-1.578.422l-.203.266 1.547 1.218Zm0 0"/><path id="ah" d="M-1.766-4.64q-.357.14-.578.406-.263.315-.25.625 0 .313.281.547a.73.73 0 0 0 .516.171q.174-.03.453-.14l.703-.297q.534-.2.844-.219.422-.012.797.281.468.375.484.938.06.563-.39 1.11-.377.456-.953.75a7 7 0 0 1-.625-.47q-.248-.198-.11-.375a.36.36 0 0 1 .14-.093l.673.36c.238-.071.445-.22.625-.438q.294-.34.265-.703a.95.95 0 0 0-.359-.547.71.71 0 0 0-.547-.172q-.22.034-.781.265l-.485.188q-.435.175-.734.156c-.27-.008-.52-.11-.75-.297Q-2.998-2.95-3-3.5q.001-.527.406-1.031.376-.468.875-.672l.532.406c.156.125.195.242.109.344a.5.5 0 0 1-.125.125Zm0 0"/><clipPath id="a"><path d="M179 26h47.102v50H179Zm0 0"/></clipPath><clipPath id="T"><path d="M110 0h116.102v85H110Zm0 0"/></clipPath><clipPath id="U"><path d="M.445 0H154v85H.445Zm0 0"/></clipPath><clipPath id="V"><path d="M.445 0h225.657v111.887H.445Zm0 0"/></clipPath><clipPath id="W"><path d="M.445 0H213v111.887H.445Zm0 0"/></clipPath><clipPath id="X"><path d="M.445 0H153v111.887H.445Zm0 0"/></clipPath><clipPath id="ai"><path d="M105 0h38v111.887h-38Zm0 0"/></clipPath></defs><path fill="none" stroke="#000" stroke-miterlimit="10" stroke-width="1.58612564" d="m32.516 52.742-3.903-4.074"/><path fill="none" stroke="#000" stroke-miterlimit="10" stroke-width=".79306282" d="m42.629 44.066-3.434-4.476"/><path fill="none" stroke="#000" stroke-miterlimit="10" stroke-width="1.58612564" d="m53.629 36.543-2.93-4.824"/><path fill="none" stroke="#000" stroke-miterlimit="10" stroke-width=".79306282" d="m65.379 30.254-2.387-5.11"/><path fill="none" stroke="#000" stroke-miterlimit="10" stroke-width="1.58612564" d="m77.746 25.293-1.812-5.34"/><path fill="none" stroke="#000" stroke-miterlimit="10" stroke-width=".79306282" d="m90.578 21.707-1.219-5.508"/><path fill="none" stroke="#000" stroke-miterlimit="10" stroke-width="1.58612564" d="m103.73 19.535-.613-5.61"/><path fill="none" stroke="#000" stroke-miterlimit="10" stroke-width=".79306282" d="M117.035 18.805V13.16"/><path fill="none" stroke="#000" stroke-miterlimit="10" stroke-width="1.58612564" d="m130.34 19.535.613-5.61"/><path fill="none" stroke="#7F7F7F" stroke-miterlimit="10" stroke-width=".79306282" d="m143.488 21.707 1.223-5.508"/><path fill="none" stroke="#7F7F7F" stroke-miterlimit="10" stroke-width="1.58612564" d="m156.324 25.293 1.813-5.34"/><path fill="none" stroke="#7F7F7F" stroke-miterlimit="10" stroke-width=".79306282" d="m168.691 30.254 2.383-5.11"/><path fill="none" stroke="#7F7F7F" stroke-miterlimit="10" stroke-width="1.58612564" d="m180.441 36.543 2.926-4.824"/><path fill="none" stroke="#7F7F7F" stroke-miterlimit="10" stroke-width=".79306282" d="m191.441 44.066 3.434-4.476"/><g clip-path="url(#a)"><path fill="none" stroke="#7F7F7F" stroke-miterlimit="10" stroke-width="1.58612564" d="m201.555 52.742 3.902-4.074"/></g><use xlink:href="#b" x="25.02" y="47.422"/><use xlink:href="#c" x="47.462" y="29.726"/><use xlink:href="#d" x="73.189" y="17.265"/><use xlink:href="#e" x="101.024" y="10.752"/><use xlink:href="#f" x="129.596" y="10.374"/><use xlink:href="#g" x="154.295" y="15.074"/><use xlink:href="#h" x="157.581" y="16.189"/><use xlink:href="#i" x="160.866" y="17.305"/><use xlink:href="#j" x="180.675" y="26.126"/><use xlink:href="#k" x="183.641" y="27.926"/><use xlink:href="#l" x="186.607" y="29.726"/><use xlink:href="#m" x="200.417" y="39.466"/><use xlink:href="#n" x="202.923" y="41.865"/><use xlink:href="#o" x="205.429" y="44.265"/><use xlink:href="#p" x="209.018" y="47.7"/><use xlink:href="#q" x="211.785" y="50.349"/><path fill="none" stroke="#000" stroke-miterlimit="10" stroke-width=".39702894" d="m24.844 63.676 1.437 1.207M26.203 62.078l1.422 1.23M27.598 60.504l1.398 1.258M29.016 58.953l1.375 1.285M30.46 57.434l1.352 1.304M31.934 55.934l1.332 1.328M33.434 54.46l1.304 1.352M34.953 53.016l1.285 1.375M36.504 51.598l1.258 1.398M38.078 50.203l1.234 1.422M39.676 48.844l1.207 1.437M41.297 47.504l1.183 1.46M42.941 46.2l1.157 1.48M44.605 44.918l1.133 1.5M46.293 43.668l1.105 1.523M48.004 42.45l1.078 1.538M49.734 41.258l1.055 1.558M51.484 40.102l1.028 1.574M53.258 38.973l.996 1.593M55.05 37.875l.966 1.613M56.86 36.809l.94 1.628M58.687 35.773l.91 1.645M60.535 34.77l.883 1.66M62.395 33.8l.855 1.677M64.277 32.863l.825 1.692M66.172 31.96l.793 1.704M68.082 31.09l.766 1.719M70.012 30.25l.734 1.734M71.95 29.45l.706 1.741M73.906 28.68l.672 1.754M75.871 27.941l.645 1.766M77.852 27.238l.613 1.782M79.844 26.574l.582 1.79M81.848 25.945l.55 1.797M83.863 25.348l.516 1.804M85.887 24.785l.484 1.817M87.922 24.258l.453 1.824M89.96 23.77l.427 1.832M92.012 23.312l.39 1.84M94.07 22.895l.36 1.847M96.137 22.512l.324 1.851M98.207 22.168l.297 1.855M100.285 21.855l.262 1.864M102.367 21.582l.23 1.863M104.457 21.344l.195 1.87M106.547 21.145l.164 1.87M108.637 20.977l.133 1.878M110.734 20.848l.102 1.879M112.836 20.758l.062 1.879M114.934 20.703l.03 1.879M117.035 20.684v1.878M119.137 20.703l-.035 1.879M121.234 20.758l-.066 1.879M123.332 20.848l-.098 1.879M125.43 20.977l-.13 1.878M127.523 21.145l-.164 1.87M129.613 21.344l-.195 1.87M131.703 21.582l-.23 1.863M133.785 21.855l-.262 1.864M135.86 22.168l-.294 1.855M137.934 22.512l-.329 1.851M140 22.895l-.36 1.847M142.059 23.312l-.395 1.84M144.105 23.77l-.421 1.832M146.148 24.258l-.453 1.824M148.184 24.785l-.489 1.817M150.207 25.348l-.52 1.804M152.223 25.945l-.551 1.797M154.227 26.574l-.582 1.79M156.219 27.238l-.614 1.782M158.195 27.941l-.64 1.766M160.164 28.68l-.676 1.754M162.117 29.45l-.703 1.741M164.059 30.25l-.735 1.734M165.984 31.09l-.765 1.719M167.898 31.96l-.796 1.704M169.793 32.863l-.824 1.692M171.672 33.8l-.852 1.677M173.535 34.77l-.883 1.66M175.383 35.773l-.914 1.645M177.21 36.809l-.94 1.628M179.02 37.875l-.97 1.613M180.809 38.973l-.996 1.593M182.582 40.102l-1.023 1.574M184.332 41.258l-1.05 1.558M186.063 42.45l-1.079 1.538M187.773 43.668l-1.105 1.523M189.465 44.918l-1.133 1.5M191.129 46.2l-1.156 1.48M192.773 47.504l-1.183 1.46M194.395 48.844l-1.211 1.437M195.992 50.203l-1.234 1.422M197.563 51.598l-1.258 1.398M199.113 53.016l-1.281 1.375M200.637 54.46l-1.309 1.352M202.133 55.934l-1.328 1.328M203.605 57.434l-1.351 1.304M205.05 58.953l-1.374 1.285M206.469 60.504l-1.395 1.258M207.863 62.078l-1.418 1.23M209.227 63.676l-1.442 1.207M25.562 64.277l1.442 1.211M32.598 56.598l1.332 1.332M40.277 49.562l1.211 1.442M48.543 43.219l1.078 1.539M57.328 37.621l.942 1.629M66.57 32.812l.793 1.704M76.191 28.824l.645 1.77M86.129 25.691l.488 1.817M96.3 23.437l.325 1.852M106.625 22.078l.164 1.875M117.035 21.625v1.879M127.441 22.078l-.164 1.875M137.77 23.437l-.329 1.852M147.941 25.691l-.488 1.817M157.875 28.824l-.645 1.77M167.5 32.812l-.797 1.704M176.738 37.621l-.937 1.629M185.523 43.219l-1.078 1.539M193.79 49.562l-1.208 1.442M201.469 56.598l-1.328 1.332M208.508 64.277l-1.442 1.211M27.004 65.488l2.16 1.813M41.488 51.004l1.813 2.16M58.27 39.25l1.41 2.445M76.836 30.594l.965 2.648M96.625 25.29l.492 2.776M117.035 23.504v2.82M137.441 25.29l-.488 2.776M157.23 30.594l-.964 2.648M175.8 39.25l-1.41 2.445M192.582 51.004l-1.812 2.16M207.066 65.488l-2.16 1.813"/><use xlink:href="#r" x="32.658" y="72.497"/><use xlink:href="#s" x="44.511" y="60.003"/><use xlink:href="#t" x="47.169" y="57.773"/><use xlink:href="#u" x="59.684" y="48.64"/><use xlink:href="#v" x="62.689" y="46.905"/><use xlink:href="#w" x="76.599" y="40.084"/><use xlink:href="#x" x="79.86" y="38.897"/><use xlink:href="#y" x="94.744" y="34.595"/><use xlink:href="#z" x="98.161" y="33.993"/><use xlink:href="#A" x="113.565" y="32.342"/><use xlink:href="#B" x="117.034" y="32.342"/><use xlink:href="#C" x="132.491" y="33.39"/><use xlink:href="#D" x="135.908" y="33.993"/><use xlink:href="#E" x="150.949" y="37.711"/><use xlink:href="#F" x="154.21" y="38.898"/><use xlink:href="#G" x="168.376" y="45.17"/><use xlink:href="#H" x="171.38" y="46.905"/><use xlink:href="#I" x="184.242" y="55.542"/><use xlink:href="#J" x="186.9" y="57.773"/><use xlink:href="#K" x="196.95" y="67.182"/><use xlink:href="#L" x="199.18" y="69.84"/><use xlink:href="#L" x="201.41" y="72.497"/><path fill="none" stroke="#000" stroke-miterlimit="10" stroke-width=".39702894" d="m36.371 73.344 2.879 2.418M59.172 53.055l2.066 3.14M86.836 40.156l1.078 3.606M117.035 35.727v3.761M147.234 40.156l-1.078 3.606M174.895 53.055l-2.067 3.14M197.7 73.344l-2.884 2.418"/><use xlink:href="#M" x="42.746" y="80.958"/><use xlink:href="#N" x="61.048" y="63.475"/><use xlink:href="#O" x="63.947" y="61.569"/><use xlink:href="#P" x="65.101" y="60.81"/><use xlink:href="#Q" x="87.99" y="50.063"/><use xlink:href="#R" x="115.3" y="45.506"/><use xlink:href="#S" x="188.464" y="76.358"/><g clip-path="url(#T)"><path fill="none" stroke="#7F7F7F" stroke-miterlimit="10" stroke-width="1.58612564" d="M132.988 19.855a122.25 122.25 0 0 1 77.68 42.61"/></g><g clip-path="url(#U)"><path fill="none" stroke="#000" stroke-miterlimit="10" stroke-width="1.58612564" d="M23.402 62.465c26.36-31.41 66.727-47.512 107.47-42.871"/></g><path fill="none" stroke="#000" stroke-miterlimit="10" stroke-width=".79306282" d="M24.844 63.676c27.633-32.934 70.75-48.63 113.09-41.164a120.35 120.35 0 0 1 71.293 41.164"/><path fill="none" stroke="#000" stroke-miterlimit="10" stroke-width=".79306282" d="M36.367 73.344c24.18-28.817 61.906-42.547 98.953-36.016a105.3 105.3 0 0 1 62.383 36.016"/><g clip-path="url(#V)"><path fill="none" stroke="#000" stroke-linecap="square" stroke-miterlimit="10" stroke-width="7.22712078" d="M50.332 83.05a88.41 88.41 0 0 1 82.05-29.058"/></g><g clip-path="url(#W)"><path fill="none" stroke="#FFF" stroke-linecap="square" stroke-miterlimit="10" stroke-width="5.640995139999999" d="M50.332 83.05a88.41 88.41 0 0 1 82.05-29.058"/></g><g clip-path="url(#X)"><path fill="none" stroke="#7F7F7F" stroke-linecap="square" stroke-miterlimit="10" stroke-width="5.640995139999999" d="M50.332 83.05a88.4 88.4 0 0 1 22.512-18.558"/></g><use xlink:href="#Y" x="38.652" y="102.331"/><use xlink:href="#Z" x="41.354" y="98.702"/><use xlink:href="#aa" x="43.571" y="95.725"/><use xlink:href="#ab" x="27.637" y="94.674"/><use xlink:href="#ac" x="29.762" y="91.905"/><use xlink:href="#ad" x="33.809" y="86.631"/><use xlink:href="#ae" x="17.686" y="85.608"/><use xlink:href="#af" x="20.161" y="82.478"/><use xlink:href="#ag" x="24.284" y="77.264"/><use xlink:href="#ah" x="15.549" y="66.952"/><g clip-path="url(#ai)"><path fill="none" stroke="#000" stroke-miterlimit="10" stroke-width=".79306282" d="m117.035 141.035 14.102-129.754"/></g></svg>