<svg xmlns="http://www.w3.org/2000/svg" width="113.495" height="96.168"><defs><clipPath id="a"><path d="M.238 92H4v3.344H.238Zm0 0"/></clipPath><clipPath id="b"><path d="M.238 86H10v9.344H.238Zm0 0"/></clipPath><clipPath id="c"><path d="M95 92h4v3.344h-4Zm0 0"/></clipPath><clipPath id="d"><path d="M90 86h15v9.344H90Zm0 0"/></clipPath><clipPath id="e"><path d="M109 92h3.758v3.344H109Zm0 0"/></clipPath><clipPath id="f"><path d="M103 86h9.758v9.344H103Zm0 0"/></clipPath><clipPath id="g"><path d="M.238 10H4v4H.238Zm0 0"/></clipPath><clipPath id="h"><path d="M.238 4H10v15H.238Zm0 0"/></clipPath><clipPath id="i"><path d="M109 10h3.758v4H109Zm0 0"/></clipPath><clipPath id="j"><path d="M103 4h9.758v15H103Zm0 0"/></clipPath></defs><path fill="none" stroke="#000" stroke-miterlimit="10" stroke-width=".39557658" d="M2.008 93.574h47.68m0 0h54.488m0 0h6.812"/><g clip-path="url(#a)"><path fill="#FFF" d="M3.582 93.574a1.575 1.575 0 0 0-3.148 0 1.574 1.574 0 0 0 3.148 0m0 0"/></g><g clip-path="url(#b)"><path fill="none" stroke="#000" stroke-miterlimit="10" stroke-width=".39557658" d="M3.582 93.574a1.575 1.575 0 0 0-3.148 0 1.574 1.574 0 0 0 3.148 0Zm0 0"/></g><g clip-path="url(#c)"><path d="M98.938 93.574a1.572 1.572 0 1 0-3.145-.004 1.572 1.572 0 0 0 3.144.004m0 0"/></g><g clip-path="url(#d)"><path fill="none" stroke="#000" stroke-miterlimit="10" stroke-width=".39557658" d="M98.938 93.574a1.572 1.572 0 1 0-3.145-.004 1.572 1.572 0 0 0 3.145.004Zm0 0"/></g><g clip-path="url(#e)"><path fill="#FFF" d="M112.563 93.574a1.575 1.575 0 0 0-3.149 0 1.574 1.574 0 0 0 3.148 0m0 0"/></g><g clip-path="url(#f)"><path fill="none" stroke="#000" stroke-miterlimit="10" stroke-width=".39557658" d="M112.563 93.574a1.575 1.575 0 0 0-3.149 0 1.574 1.574 0 0 0 3.148 0Zm0 0"/></g><path fill="none" stroke="#000" stroke-miterlimit="10" stroke-width=".39557658" d="M2.008 11.836h16.617m7.629 0H48.05m30.515 0h11.989m0 0h13.62m0 0h6.813"/><path fill="none" stroke="#000" stroke-miterlimit="10" stroke-width=".7901617400000001" d="M18.625.395V23.28M26.254.395V23.28"/><g clip-path="url(#g)"><path fill="#FFF" d="M3.582 11.836a1.575 1.575 0 1 0-3.148 0 1.575 1.575 0 0 0 3.148 0m0 0"/></g><g clip-path="url(#h)"><path fill="none" stroke="#000" stroke-miterlimit="10" stroke-width=".39557658" d="M3.582 11.836a1.575 1.575 0 1 0-3.148 0 1.575 1.575 0 0 0 3.148 0Zm0 0"/></g><path fill="none" stroke="#000" stroke-miterlimit="10" stroke-width=".7901617400000001" d="M48.05 6.117h30.516V17.56H48.051Zm0 0"/><path stroke="#000" stroke-miterlimit="10" stroke-width=".39557658" d="M98.938 11.836a1.574 1.574 0 1 0-1.574 1.574c.87 0 1.574-.703 1.574-1.574Zm0 0"/><g clip-path="url(#i)"><path fill="#FFF" d="M112.563 11.836a1.575 1.575 0 1 0-3.148 0 1.575 1.575 0 0 0 3.147 0m0 0"/></g><g clip-path="url(#j)"><path fill="none" stroke="#000" stroke-miterlimit="10" stroke-width=".39557658" d="M112.563 11.836a1.575 1.575 0 1 0-3.148 0 1.575 1.575 0 0 0 3.148 0Zm0 0"/></g><path fill="none" stroke="#000" stroke-miterlimit="10" stroke-width=".39557658" d="M97.363 93.574V67.961m0-30.512V11.836"/><path fill="none" stroke="#000" stroke-linejoin="bevel" stroke-miterlimit="10" stroke-width=".7901617400000001" d="M97.523 68.355c-3.16 0-5.722-1.75-5.722-3.91 0-2.164 2.562-3.914 5.722-3.914-3.16 0-5.722-1.754-5.722-3.914s2.562-3.914 5.722-3.914c-3.16 0-5.722-1.75-5.722-3.91 0-2.164 2.562-3.914 5.722-3.914-3.16 0-5.722-1.754-5.722-3.914s2.562-3.914 5.722-3.914"/></svg>