<svg xmlns="http://www.w3.org/2000/svg" xmlns:xlink="http://www.w3.org/1999/xlink" width="225.834" height="195.756"><defs><path id="c" d="M2.234-.39q1.11.001 1.11-2.516 0-2.515-1.11-2.516-1.094.001-1.093 2.516c0 1.68.363 2.515 1.093 2.515m-.03.5q-.88 0-1.376-.75Q.296-1.42.297-2.907.296-4.39.875-5.187q.516-.734 1.406-.735.873.001 1.375.734.516.798.516 2.282 0 1.47-.563 2.265-.515.75-1.406.75m0 0"/><path id="d" d="M.89-.937a.53.53 0 0 1 .423.218q.17.204.171.578-.002.592-.39.985c-.211.226-.414.344-.61.344-.093 0-.164-.086-.203-.25q.574-.3.61-.891a.5.5 0 0 1-.344-.125.48.48 0 0 1-.14-.36q0-.217.14-.359a.47.47 0 0 1 .344-.14m0 0"/><path id="e" d="M1.39-3.156c1.008-.125 1.516-.531 1.516-1.219Q2.905-5.436 2-5.437q-.41 0-.703.187a3 3 0 0 0-.11.828 1.4 1.4 0 0 1-.218.016c-.281 0-.422-.117-.422-.36q-.001-.513.437-.828.45-.328 1.188-.328.714 0 1.125.375.422.376.422 1.016 0 .628-.422 1.015-.299.284-.906.485V-3q.715.094 1.109.469.389.361.39.922 0 .737-.562 1.234Q2.78.11 1.891.109C1.41.11 1.05.012.813-.17A.61.61 0 0 1 .53-.688c0-.258.133-.442.407-.547q.14.363.28.515.295.328.829.328c.664 0 1-.351 1-1.062 0-.738-.555-1.149-1.656-1.234Zm0 0"/><path id="f" d="M4-.922q-.002.516.313.516.2.001.312-.125a.5.5 0 0 1 .078.25c0 .062-.055.133-.156.203a.9.9 0 0 1-.531.156q-.597 0-.672-.61h-.016Q2.871.112 2.063.11a1.22 1.22 0 0 1-.75-.25c0 .739.148 1.352.453 1.844q-.018.06-.172.125a.7.7 0 0 1-.282.063Q.95 1.889.845 1.297C.789 1.023.766.539.766-.156V-4.25l.703-.094v2.797q0 1.078.812 1.078.575 0 1.016-.468V-4.25L4-4.344Zm0 0"/><path id="g" d="M1-.578q.264.204.656.203c.508 0 .766-.195.766-.594q-.002-.234-.25-.468a5 5 0 0 0-.578-.407q-.534-.327-.75-.562a1.26 1.26 0 0 1-.344-.86q0-.513.39-.828.405-.311 1.032-.312.576 0 .953.312.03.33.031.547-.002.439-.344.438h-.078l-.109-.657a1.08 1.08 0 0 0-.61-.187c-.43 0-.64.18-.64.531 0 .242.164.477.5.703q.48.3.938.61.515.409.515.953 0 .532-.422.906-.41.362-1.078.36C1.128.11.766.022.484-.14a3.7 3.7 0 0 1-.078-.735q0-.436.344-.437.03.002.078.015Zm0 0"/><path id="h" d="M2.922-6.719h.625L.828 1.25h-.61Zm0 0"/><path id="i" d="M2.375-6.172q3.563 0 3.563 3 0 1.583-.938 2.39C4.383-.257 3.508 0 2.375 0H.422a.16.16 0 0 1-.016-.078Q.404-.324.72-.406L1.094-.5v-5.203l-.547-.125c-.086-.02-.125-.05-.125-.094q0-.075.094-.25ZM2.344-.5q1.325 0 2.047-.672c.476-.445.718-1.11.718-1.984q-.002-1.248-.718-1.875-.721-.64-2.047-.64h-.469V-.5Zm0 0"/><path id="j" d="M.906-.469v-3.343l-.64-.079a.2.2 0 0 1-.016-.078q0-.246.328-.281l1.063-.094v3.875l.53.125q.125.017.126.11A.4.4 0 0 1 2.219 0H.313a.1.1 0 0 1-.016-.062c0-.133.094-.235.281-.297Zm-.14-5.375q0-.234.14-.375a.52.52 0 0 1 .36-.14.507.507 0 0 1 .53.515.49.49 0 0 1-.155.375.53.53 0 0 1-.375.125.5.5 0 0 1-.36-.125.5.5 0 0 1-.14-.375m0 0"/><path id="k" d="M4.469-4.297c.07 0 .11.031.11.094a.5.5 0 0 1-.063.187l-.422.172L2.562 0h-.578L.454-3.875l-.407-.14a.2.2 0 0 1-.016-.063q-.001-.218.25-.219H1.75c.07 0 .11.031.11.094a.5.5 0 0 1-.063.187l-.5.141L2.375-.812h.016l1.172-3.063-.657-.14a.2.2 0 0 1-.015-.063q-.001-.218.25-.219Zm0 0"/><path id="l" d="M.406-.375q0-.218.14-.36a.47.47 0 0 1 .345-.14c.132 0 .25.047.343.14a.47.47 0 0 1 .157.36.47.47 0 0 1-.157.36.5.5 0 0 1-.343.124.5.5 0 0 1-.344-.125.48.48 0 0 1-.14-.359m0 0"/><path id="m" d="M-.578-2.031h-4.438l.266 1.344q-.106.016-.187.015c-.133 0-.235-.07-.297-.219l-.578-1.468v-.453h5.234l.172-1.094q.016-.124.11-.125.08 0 .296.093v3.063a.16.16 0 0 1-.078.016q-.311 0-.36-.282Zm0 0"/><path id="n" d="M-.39-2.234q.001-1.11-2.516-1.11-2.515 0-2.516 1.11.001 1.094 2.516 1.093c1.68 0 2.515-.363 2.515-1.093m.5.03q0 .88-.75 1.376-.779.532-2.266.531-1.484.001-2.281-.578-.734-.515-.735-1.406.001-.873.734-1.375.798-.516 2.282-.516 1.47 0 2.265.563.75.515.75 1.406m0 0"/><path id="o" d="m-.469-7.094.125-.547q.017-.124.11-.125.129 0 .234.094v1.89a.1.1 0 0 1-.062.016c-.133 0-.235-.093-.297-.28l-.11-.329H-2.75c-.707 0-1.062.29-1.062.86 0 .46.164.859.484 1.202a3 3 0 0 1 .531-.062h2.328l.125-.531q.017-.124.11-.125.129 0 .234.093v1.891a.1.1 0 0 1-.062.016c-.133 0-.235-.094-.297-.281l-.11-.329H-2.75c-.707 0-1.062.29-1.062.86 0 .437.152.82.453 1.14h2.89l.125-.53q.017-.125.11-.126.129 0 .234.078v1.906a.1.1 0 0 1-.062.016c-.133 0-.235-.094-.297-.281l-.11-.328h-3.343l-.079.64a.2.2 0 0 1-.078.016q-.246 0-.281-.328l-.094-1.063.594.063v-.031q-.656-.622-.656-1.438c0-.539.242-.922.718-1.14q-.716-.64-.718-1.532 0-.638.422-1 .409-.375 1.187-.375Zm0 0"/><path id="p" d="M-6.172-5.844c.024-.008.047-.015.078-.015q.253 0 .313.312l.062.234L0-3.28v.734L-5.719-.453l-.093.375q-.029.124-.11.125c-.05 0-.133-.035-.25-.094v-2h.078c.157 0 .262.102.313.297l.078.375 4.797-1.64v-.016L-5.72-4.734l-.11.687q-.029.127-.093.125-.075 0-.25-.094Zm0 0"/><path id="q" d="M-6.719-2.922v-.625L1.25-.828v.61Zm0 0"/><path id="r" d="M-6.172-2.375q0-3.562 3-3.562 1.583 0 2.39.937C-.257-4.383 0-3.508 0-2.375v1.953a.16.16 0 0 1-.078.016q-.246.002-.328-.313L-.5-1.094h-5.203l-.125.547c-.02.086-.05.125-.094.125q-.075 0-.25-.094Zm5.672.031q0-1.325-.672-2.047c-.445-.476-1.11-.718-1.984-.718q-1.248.002-1.875.718-.64.721-.64 2.047v.469H-.5Zm0 0"/><path id="s" d="M-.469-.906h-3.343l-.079.64a.2.2 0 0 1-.078.016q-.246 0-.281-.328l-.094-1.063h3.875l.125-.53q.017-.125.11-.126.129 0 .234.078v1.906a.1.1 0 0 1-.062.016c-.133 0-.235-.094-.297-.281Zm-5.375.14a.5.5 0 0 1-.375-.14.52.52 0 0 1-.14-.36.507.507 0 0 1 .515-.53q.236.002.375.155a.53.53 0 0 1 .125.375c0 .149-.039.266-.125.36a.5.5 0 0 1-.375.14m0 0"/><path id="t" d="M-4.297-4.469c0-.07.031-.11.094-.11.043 0 .105.024.187.063l.172.422L0-2.562v.578l-3.875 1.53-.14.407a.2.2 0 0 1-.063.016q-.218.001-.219-.25V-1.75c0-.07.031-.11.094-.11.043 0 .105.024.187.063l.141.5 3.063-1.078v-.016l-3.063-1.171-.14.656a.2.2 0 0 1-.063.015q-.218.001-.219-.25Zm0 0"/><path id="u" d="M-.375-.406a.5.5 0 0 1-.36-.14.47.47 0 0 1-.14-.345c0-.132.047-.25.14-.343a.47.47 0 0 1 .36-.157c.148 0 .266.055.36.157a.5.5 0 0 1 .124.343q-.001.204-.125.344a.48.48 0 0 1-.359.14m0 0"/><clipPath id="a"><path d="M13 0h212.61v181H13Zm0 0"/></clipPath><clipPath id="b"><path d="M.059 7h225.55v167H.06Zm0 0"/></clipPath></defs><g clip-path="url(#a)"><path fill="none" stroke="#000" stroke-miterlimit="10" stroke-width=".39850125000000003" d="M14.195 180.73h210.621m-210.62-30.09h210.62m-210.62-30.09h210.62M14.196 90.466h210.62m-210.62-30.09h210.62m-210.62-30.09h210.62M14.196.207h210.62M14.196 180.73V.195m30.09 180.535V.195M74.374 180.73V.195m30.086 180.535V.195m30.09 180.535V.195m30.09 180.535V.195m30.09 180.535V.195m30.078 180.535V.195"/></g><g clip-path="url(#b)"><path fill="none" stroke="#000" stroke-miterlimit="10" stroke-width="1.5920075" d="M14.195 90.465c9.809-30.813 19.2-60.18 30.09-60.18s20.281 29.367 30.09 60.18c9.809 30.808 19.195 60.176 30.086 60.176 10.894 0 20.281-29.368 30.09-60.176 9.808-30.813 19.195-60.18 30.09-60.18 10.89 0 20.277 29.367 30.09 60.18 9.808 30.808 19.195 60.176 30.085 60.176"/></g><use xlink:href="#c" x="177.771" y="190.629"/><use xlink:href="#d" x="182.249" y="190.629"/><use xlink:href="#c" x="184.103" y="190.629"/><use xlink:href="#e" x="188.58" y="190.629"/><use xlink:href="#f" x="194.544" y="190.629"/><use xlink:href="#g" x="199.479" y="190.629"/><use xlink:href="#h" x="202.944" y="190.629"/><use xlink:href="#i" x="206.714" y="190.629"/><use xlink:href="#j" x="213.126" y="190.629"/><use xlink:href="#k" x="215.58" y="190.629"/><use xlink:href="#l" x="219.852" y="190.629"/><use xlink:href="#m" x="9.759" y="45.657"/><use xlink:href="#n" x="9.759" y="41.179"/><use xlink:href="#o" x="9.759" y="35.215"/><use xlink:href="#p" x="9.759" y="27.863"/><use xlink:href="#q" x="9.759" y="22.06"/><use xlink:href="#r" x="9.759" y="18.29"/><use xlink:href="#s" x="9.759" y="11.878"/><use xlink:href="#t" x="9.759" y="9.433"/><use xlink:href="#u" x="9.759" y="5.162"/></svg>