<svg xmlns="http://www.w3.org/2000/svg" width="111.517" height="63.817"><defs><clipPath id="a"><path d="M25 .047h39V32H25Zm0 0"/></clipPath><clipPath id="b"><path d="M52 .047h2V21h-2Zm0 0"/></clipPath><clipPath id="c"><path d="M102 24h9.035v16H102Zm0 0"/></clipPath><clipPath id="d"><path d="M25 32h39v31.59H25Zm0 0"/></clipPath><clipPath id="e"><path d="M52 43h2v20.59h-2Zm0 0"/></clipPath></defs><path fill="none" stroke="#000" stroke-miterlimit="10" stroke-width=".39728031" d="M1.777 10.32h35.09m15.805 0h35.09v21.496h21.496"/><path fill="#FFF" stroke="#000" stroke-miterlimit="10" stroke-width=".39728031" d="M3.36 10.32a1.58 1.58 0 1 0-3.16.003 1.58 1.58 0 0 0 3.16-.003Zm0 0"/><g clip-path="url(#a)"><path fill="none" stroke="#000" stroke-miterlimit="10" stroke-width=".7935649300000001" d="M52.672 10.32 36.867.445V20.2Zm0 0"/></g><path fill="none" stroke="#000" stroke-miterlimit="10" stroke-width=".39728031" d="M52.672 10.32H36.867"/><g clip-path="url(#b)"><path fill="none" stroke="#000" stroke-miterlimit="10" stroke-width=".7935649300000001" d="M52.672 20.2V.444"/></g><path fill="#FFF" d="M110.84 31.816c0-.87-.711-1.578-1.582-1.578s-1.578.707-1.578 1.578a1.58 1.58 0 1 0 3.16 0m0 0"/><g clip-path="url(#c)"><path fill="none" stroke="#000" stroke-miterlimit="10" stroke-width=".39728031" d="M110.84 31.816c0-.87-.711-1.578-1.582-1.578s-1.578.707-1.578 1.578a1.58 1.58 0 1 0 3.16 0Zm0 0"/></g><path fill="none" stroke="#000" stroke-miterlimit="10" stroke-width=".39728031" d="M87.762 31.816v21.497h-35.09m-15.805 0H1.777"/><g clip-path="url(#d)"><path fill="none" stroke="#000" stroke-miterlimit="10" stroke-width=".7935649300000001" d="M52.672 53.313 36.867 63.19V43.434Zm0 0"/></g><path fill="none" stroke="#000" stroke-miterlimit="10" stroke-width=".39728031" d="M52.672 53.313H36.867"/><g clip-path="url(#e)"><path fill="none" stroke="#000" stroke-miterlimit="10" stroke-width=".7935649300000001" d="M52.672 43.434V63.19"/></g><path fill="#FFF" stroke="#000" stroke-miterlimit="10" stroke-width=".39728031" d="M3.36 53.313a1.58 1.58 0 1 0-3.16.002 1.58 1.58 0 0 0 3.16-.002Zm0 0"/><path stroke="#000" stroke-miterlimit="10" stroke-width=".39728031" d="M89.344 31.816a1.58 1.58 0 1 0-3.16.003 1.58 1.58 0 0 0 3.16-.003Zm0 0"/></svg>