<svg xmlns="http://www.w3.org/2000/svg" width="225.404" height="53.675"><defs><clipPath id="a"><path d="M39 0h173v53.352H39Zm0 0"/></clipPath></defs><g clip-path="url(#a)"><path fill="none" stroke="#000" stroke-miterlimit="10" stroke-width=".39659802" d="M44.898 26.676s-.003 0 0 0c0 0-.003 0 0 0q.004.001.032-.004.03-.004.113-.02c.059-.015.168-.035.293-.066.125-.035.375-.098.613-.168s.707-.207 1.113-.34 1.188-.39 1.82-.613c.638-.223 1.833-.652 2.759-.992.921-.34 2.636-.989 3.91-1.47 1.273-.483 3.594-1.374 5.265-2.01 1.668-.634 4.676-1.782 6.782-2.563 2.105-.778 5.832-2.153 8.382-3.043 2.551-.89 7.016-2.426 10.008-3.38 2.992-.952 8.168-2.546 11.559-3.484 3.39-.933 9.16-2.433 12.879-3.261s9.98-2.082 13.926-2.703c3.94-.621 10.464-1.457 14.488-1.778C142.867.465 149.41.2 153.36.258c3.952.055 10.269.457 13.956.945 3.688.485 9.387 1.629 12.625 2.55 3.235.923 8.082 2.774 10.692 4.095 2.613 1.324 6.293 3.797 8.12 5.441 1.833 1.649 4.126 4.578 5.075 6.434.95 1.859 1.777 5.023 1.777 6.953s-.828 5.094-1.777 6.953c-.95 1.855-3.242 4.785-5.074 6.433-1.832 1.645-5.516 4.118-8.125 5.438-2.613 1.324-7.453 3.176-10.688 4.098-3.234.922-8.937 2.066-12.625 2.55-3.687.489-9.996.891-13.945.95-3.953.058-10.504-.211-14.531-.532-4.028-.32-10.559-1.152-14.5-1.777-3.942-.621-10.196-1.875-13.914-2.7-3.715-.827-9.489-2.327-12.88-3.26-3.39-.938-8.566-2.532-11.558-3.485s-7.453-2.489-10.004-3.38c-2.55-.89-6.28-2.265-8.386-3.046-2.106-.777-5.114-1.926-6.782-2.559-1.671-.636-3.992-1.527-5.265-2.011-1.274-.48-2.989-1.13-3.91-1.47-.926-.343-2.121-.769-2.758-.991a89 89 0 0 0-1.824-.617c-.407-.13-.872-.27-1.11-.336-.238-.07-.488-.133-.613-.168a7 7 0 0 0-.293-.067q-.084-.015-.113-.02c-.02-.003-.028-.003-.032-.003-.003 0 0 0 0 0-.003 0 0 0 0 0"/></g><path fill="none" stroke="#000" stroke-miterlimit="10" stroke-width=".39659802" d="M44.898 26.676h-.007c-.004 0-.008.004-.02.008a.848.848 0 0 0-.148.059c-.04.015-.118.05-.18.085a8 8 0 0 0-.297.152c-.101.06-.289.168-.437.254-.145.086-.418.246-.618.368-.203.12-.566.347-.832.507a66.355 66.355 0 0 1-2.402 1.41c-.406.223-1.121.614-1.605.856-.485.238-1.329.645-1.887.883a36 36 0 0 1-2.14.836c-.626.215-1.684.539-2.36.703s-1.809.383-2.512.473c-.707.085-1.863.164-2.57.152a19 19 0 0 1-2.524-.219c-.668-.121-1.718-.406-2.316-.637-.602-.234-1.512-.703-2-1.043-.492-.336-1.188-.968-1.535-1.394-.348-.422-.785-1.176-.965-1.656-.184-.48-.34-1.297-.34-1.797s.156-1.317.34-1.797c.18-.48.617-1.234.965-1.66.347-.422 1.047-1.055 1.535-1.39.492-.34 1.398-.81 2-1.044.598-.23 1.648-.515 2.316-.637.672-.117 1.817-.21 2.524-.222.703-.008 1.863.07 2.57.156.703.09 1.836.309 2.512.473s1.734.488 2.36.703a33 33 0 0 1 4.027 1.719c.484.242 1.199.628 1.605.855.41.223 1 .57 1.332.766.336.195.809.484 1.07.644.266.16.63.383.832.508.2.121.473.281.618.367.148.086.336.196.437.25.102.059.23.125.297.156.062.036.14.07.18.086.039.02.078.036.101.043.02.008.04.016.047.016q.016.004.02.008h.007M6.52 26.676h211.773"/></svg>