<svg xmlns="http://www.w3.org/2000/svg" width="32.611" height="44.451"><defs><clipPath id="a"><path d="M.008 0h32.21v43.91H.009Zm0 0"/></clipPath><clipPath id="b"><path d="M6 19h24v24.91H6Zm0 0"/></clipPath><clipPath id="c"><path d="M.008 21H13v2H.008Zm0 0"/></clipPath></defs><g clip-path="url(#a)"><path fill="none" stroke="#000" stroke-miterlimit="10" stroke-width=".7872766000000001" d="M31.828 21.953c0 8.031-6.508 14.54-14.539 14.54-8.027 0-14.535-6.509-14.535-14.54 0-8.027 6.508-14.535 14.535-14.535 8.031 0 14.54 6.508 14.54 14.535Zm0 0"/></g><g clip-path="url(#b)"><path fill="none" stroke="#000" stroke-miterlimit="10" stroke-width=".39413220000000004" d="M23.922 43.71V30.579l-11.762-5.39"/></g><path fill="none" stroke="#000" stroke-miterlimit="10" stroke-width=".7872766000000001" d="M12.16 30.578V13.332"/><path fill="none" stroke="#000" stroke-miterlimit="10" stroke-width=".39413220000000004" d="m12.16 18.723 11.762-5.391V.195"/><path d="m19.777 28.68.942-2.051-5.528-.05 3.649 4.155Zm0 0"/><g clip-path="url(#c)"><path fill="none" stroke="#000" stroke-miterlimit="10" stroke-width=".39413220000000004" d="M12.16 21.953H.203"/></g></svg>