<svg xmlns="http://www.w3.org/2000/svg" xmlns:xlink="http://www.w3.org/1999/xlink" width="228.318" height="96.535"><defs><clipPath id="a"><path d="M218 77h9.43v16H218Zm0 0"/></clipPath><clipPath id="b"><path d="M11.102 3h216.132v81.832H11.102Zm0 0"/></clipPath><path id="c" d="m.938-3.828-.47.031c-.171 0-.234.078-.25.14a1 1 0 0 0-.046.157c0 .016.031.016.062.016H.86L.313-1.047C.25-.766.188-.484.188-.328c0 .328.156.422.437.422.406 0 .984-.375 1.297-.922C1.89-.953 1.828-1 1.719-1c-.407.469-.563.547-.703.547C.984-.453.89-.47.89-.578c0-.078.03-.25.093-.563l.532-2.343h.875c.109-.047.187-.266.093-.344h-.89l.093-.406c.032-.172.11-.422.11-.532 0-.156-.063-.234-.344-.234-.328 0-.312.39-.406.719Zm0 0"/><path id="d" d="M1.813.094c1.765 0 2.375-1.14 2.687-2.719l.484-2.453c.032-.25.188-.39.547-.422l.219-.016c.047 0 .078-.03.078-.062l.047-.172-.016-.016c-.406 0-.75.016-.953.016s-.531-.016-.937-.016l-.016.016-.031.172c-.016.031.015.062.047.062l.234.016c.281.016.406.11.406.297 0 .031-.015.078-.03.125l-.5 2.61c-.204 1-.548 2.187-2.016 2.187-.407 0-.72-.188-.922-.438-.188-.25-.235-.515-.235-.812 0-.282.047-.578.11-.875L1.53-5.11c.063-.25.203-.36.563-.391l.219-.016c.046 0 .062-.03.078-.062l.03-.172-.015-.016c-.406 0-.75.016-1.094.016-.343 0-.671-.016-1.078-.016l-.03.016-.032.172c0 .031.031.062.062.062l.22.016c.28.016.405.094.405.281 0 .032 0 .078-.015.11l-.578 3a3 3 0 0 0-.063.625c0 1.28.953 1.578 1.61 1.578m0 0"/></defs><path fill="none" stroke="#000" stroke-miterlimit="10" stroke-width=".39708879" d="M11.102 84.832h212.68"/><path d="m226.84 84.832-2.961-1.758v3.512Zm0 0"/><g clip-path="url(#a)"><path fill="none" stroke="#000" stroke-miterlimit="10" stroke-width=".39708879" d="m226.84 84.832-2.961-1.758v3.512Zm0 0"/></g><path fill="none" stroke="#000" stroke-miterlimit="10" stroke-width=".39708879" d="M11.102 84.832V3.652"/><path stroke="#000" stroke-miterlimit="10" stroke-width=".39708879" d="m11.102.594-1.754 2.96h3.507Zm0 0"/><g clip-path="url(#b)"><path fill="none" stroke="#000" stroke-miterlimit="10" stroke-width=".79318237" d="M11.102 14.328s6.27.004 8.68.008l8.679.012c2.41.004 6.273.011 8.68.02 2.41.007 6.273.015 8.68.027a6403 6403 0 0 1 17.359.082c2.41.02 6.273.046 8.68.07a2145.456 2145.456 0 0 1 17.363.23c2.406.047 6.27.125 8.68.188 2.406.062 6.269.176 8.679.265 2.406.086 6.27.243 8.68.364 2.406.12 6.27.344 8.68.511 2.406.172 6.269.477 8.68.715 2.405.235 6.269.664 8.679.993 2.41.332 6.27.93 8.68 1.39 2.41.461 6.269 1.293 8.68 1.938 2.41.644 6.269 1.808 8.679 2.707s6.273 2.52 8.68 3.777c2.41 1.254 6.273 3.516 8.68 5.27 2.41 1.75 6.273 4.91 8.679 7.355 2.41 2.441 6.273 6.852 8.68 10.262 2.41 3.414 6.273 9.566 8.68 14.328 2.41 4.758 8.679 19.992 8.679 19.992"/></g><use xlink:href="#c" x="222.034" y="93.009"/><use xlink:href="#d" x="3.182" y="9.145"/></svg>