<svg xmlns="http://www.w3.org/2000/svg" width="113.495" height="90.238"><defs><clipPath id="a"><path d="M.227 86H4v3.48H.227Zm0 0"/></clipPath><clipPath id="b"><path d="M.227 80H10v9.48H.227Zm0 0"/></clipPath><clipPath id="c"><path d="M109 86h3.77v3.48H109Zm0 0"/></clipPath><clipPath id="d"><path d="M103 80h9.77v9.48H103Zm0 0"/></clipPath><clipPath id="e"><path d="M.227 4H4v4H.227Zm0 0"/></clipPath><clipPath id="f"><path d="M.227 0H10v14H.227Zm0 0"/></clipPath><clipPath id="g"><path d="M109 4h3.77v4H109Zm0 0"/></clipPath><clipPath id="h"><path d="M103 0h9.77v14H103Zm0 0"/></clipPath><clipPath id="i"><path d="M54 86h5v3.48h-5Zm0 0"/></clipPath><clipPath id="j"><path d="M49 80h15v9.48H49Zm0 0"/></clipPath></defs><path fill="none" stroke="#000" stroke-miterlimit="10" stroke-width=".39566037000000004" d="M1.996 87.71h27.25m0 0H83.75m0 0H111"/><g clip-path="url(#a)"><path fill="#FFF" d="M3.57 87.71a1.575 1.575 0 1 0-3.148 0 1.575 1.575 0 0 0 3.148 0m0 0"/></g><g clip-path="url(#b)"><path fill="none" stroke="#000" stroke-miterlimit="10" stroke-width=".39566037000000004" d="M3.57 87.71a1.575 1.575 0 1 0-3.148 0 1.575 1.575 0 0 0 3.148 0Zm0 0"/></g><g clip-path="url(#c)"><path fill="#FFF" d="M112.574 87.71a1.575 1.575 0 1 0-3.148 0 1.575 1.575 0 0 0 3.148 0m0 0"/></g><g clip-path="url(#d)"><path fill="none" stroke="#000" stroke-miterlimit="10" stroke-width=".39566037000000004" d="M112.574 87.71a1.575 1.575 0 1 0-3.148 0 1.575 1.575 0 0 0 3.148 0Zm0 0"/></g><path fill="none" stroke="#000" stroke-miterlimit="10" stroke-width=".39566037000000004" d="M1.996 5.961h11.988m30.524 0h23.98m30.52 0H111"/><path fill="none" stroke="#000" stroke-linejoin="bevel" stroke-miterlimit="10" stroke-width=".7903291100000001" d="M13.59 6.117c0-3.16 1.754-5.722 3.914-5.722 2.164 0 3.914 2.562 3.914 5.722 0-3.16 1.754-5.722 3.914-5.722 2.164 0 3.914 2.562 3.914 5.722 0-3.16 1.754-5.722 3.914-5.722s3.914 2.562 3.914 5.722c0-3.16 1.754-5.722 3.914-5.722s3.914 2.562 3.914 5.722"/><g clip-path="url(#e)"><path fill="#FFF" d="M3.57 5.96a1.575 1.575 0 0 0-3.148 0 1.574 1.574 0 0 0 3.148 0m0 0"/></g><g clip-path="url(#f)"><path fill="none" stroke="#000" stroke-miterlimit="10" stroke-width=".39566037000000004" d="M3.57 5.961a1.575 1.575 0 0 0-3.148 0 1.574 1.574 0 0 0 3.148 0Zm0 0"/></g><path fill="none" stroke="#000" stroke-linejoin="bevel" stroke-miterlimit="10" stroke-width=".7903291100000001" d="M68.094 6.117c0-3.16 1.75-5.722 3.914-5.722 2.16 0 3.914 2.562 3.914 5.722 0-3.16 1.75-5.722 3.914-5.722 2.16 0 3.914 2.562 3.914 5.722 0-3.16 1.75-5.722 3.91-5.722 2.164 0 3.914 2.562 3.914 5.722 0-3.16 1.754-5.722 3.914-5.722 2.164 0 3.914 2.562 3.914 5.722"/><g clip-path="url(#g)"><path fill="#FFF" d="M112.574 5.96a1.575 1.575 0 0 0-3.148 0 1.574 1.574 0 0 0 3.148 0m0 0"/></g><g clip-path="url(#h)"><path fill="none" stroke="#000" stroke-miterlimit="10" stroke-width=".39566037000000004" d="M112.574 5.961a1.575 1.575 0 0 0-3.148 0 1.574 1.574 0 0 0 3.148 0Zm0 0"/></g><path fill="none" stroke="#000" stroke-miterlimit="10" stroke-width=".39566037000000004" d="M56.496 87.71V50.649m0-7.628V5.96"/><path fill="none" stroke="#000" stroke-miterlimit="10" stroke-width=".7903291100000001" d="M45.05 50.648h22.891m-22.89-7.628h22.89"/><g clip-path="url(#i)"><path d="M58.07 87.71a1.575 1.575 0 1 0-3.149.002 1.575 1.575 0 0 0 3.15-.001m0 0"/></g><g clip-path="url(#j)"><path fill="none" stroke="#000" stroke-miterlimit="10" stroke-width=".39566037000000004" d="M58.07 87.71a1.575 1.575 0 1 0-3.149.002 1.575 1.575 0 0 0 3.15-.001Zm0 0"/></g><path stroke="#000" stroke-miterlimit="10" stroke-width=".39566037000000004" d="M58.07 5.961a1.575 1.575 0 0 0-3.148 0 1.574 1.574 0 0 0 3.148 0Zm0 0"/></svg>