<svg xmlns="http://www.w3.org/2000/svg" xmlns:xlink="http://www.w3.org/1999/xlink" width="228.609" height="111.668"><defs><path id="b" d="M.39 2.234Q.39 3.326 2.907 3.328q2.515-.002 2.516-1.094Q5.42 1.14 2.906 1.141c-1.68 0-2.515.363-2.515 1.093m-.5-.03q0-.88.75-1.376Q1.42.296 2.907.297c.977 0 1.735.187 2.266.562.5.352.75.829.75 1.422q0 .873-.75 1.36-.784.528-2.266.53-1.47 0-2.265-.562-.75-.533-.75-1.406m0 0"/><path id="c" d="M.922.89q-.002.248-.203.407-.204.17-.578.172-.592 0-.985-.375C-1.07.883-1.187.68-1.187.484c0-.093.085-.164.25-.203q.299.574.89.61.001-.204.125-.344a.47.47 0 0 1 .344-.14c.156 0 .273.038.36.124.093.094.14.211.14.36m0 0"/><path id="d" d="m.453.422 1.735 1.516q1.013.874 2 .875c.832 0 1.25-.305 1.25-.907q0-.345-.188-.703a3.3 3.3 0 0 0-.875-.125 1.3 1.3 0 0 1-.016-.203q0-.422.344-.422.545 0 .875.422.342.42.344 1.156 0 .715-.422 1.172-.408.451-1.156.453-.675 0-1.36-.422-.44-.268-1.125-.906L.797 1.344H.78v2.031l.782.188q.03.075.03.187-.001.234-.343.234c-.242 0-.656-.03-1.25-.093V.5Zm0 0"/><path id="e" d="M6.172 5.844h-.078c-.168 0-.278-.102-.328-.297l-.047-.234L0 3.28v-.734L5.703.453l.094-.375q.03-.124.125-.125c.05 0 .133.035.25.094V2.03c-.031.008-.059.016-.078.016-.168 0-.274-.102-.313-.297l-.093-.375-4.782 1.64v.016L5.72 4.734l.093-.687q.029-.127.11-.125c.039 0 .125.031.25.094Zm0 0"/><path id="f" d="m1.984.125 3.797 2.531.063.672h-3.64v.75l-.688-.047v-.703H.484l-.125.61q-.017.123-.093.124-.048 0-.266-.093V1.906h.078q.247 0 .328.297l.078.39h1.032V.157Zm.22.734v1.735H4.89v-.016L2.219.86Zm0 0"/><path id="g" d="M4.766 3.703q.234-.094.422-.328.234-.33.234-.734 0-1.378-2.344-1.485.406.528.406 1.219-.002.762-.39 1.219c-.274.344-.688.515-1.25.515q-.798-.001-1.36-.5c-.398-.355-.593-.808-.593-1.359 0-.625.257-1.102.78-1.422Q1.407.36 2.72.36 3.966.357 4.875.953c.695.445 1.047 1.063 1.047 1.844q0 .622-.219.969-.205.328-.469.328c-.242 0-.398-.133-.468-.39M2.625 1.156Q1.498 1.185.922 1.5q-.532.31-.531.813-.001.451.343.734.358.28 1.032.281 1.202-.002 1.203-1-.002-.75-.344-1.172m0 0"/><path id="h" d="M3.031 2.938Q2.544 4.029 1.5 4.03q-.737 0-1.187-.547C.03 3.141-.11 2.711-.11 2.204q0-.77.39-1.25Q.716.42 1.453.421q.92 0 1.453 1.14c.32-.656.813-.984 1.469-.984.438 0 .8.164 1.094.5q.452.515.453 1.188c0 .488-.133.879-.39 1.172q-.394.451-1.063.453-.91-.002-1.438-.953m.172-.407q.405.656 1.266.656.404 0 .656-.234c.195-.18.297-.43.297-.75 0-.281-.094-.508-.281-.672a.98.98 0 0 0-.672-.25q-.516 0-.797.344c-.156.164-.313.469-.469.906M2.72 1.97c-.293-.524-.715-.782-1.266-.782q-.456 0-.766.282-.297.28-.296.75c0 .32.093.578.28.765q.295.296.735.297.48 0 .797-.36.234-.268.516-.952m0 0"/><path id="i" d="M.578 2.031H5L4.75.687q.105-.016.188-.015c.132 0 .226.07.28.219l.595 1.468v.454H.577L.406 3.89q-.016.14-.11.14-.08-.002-.296-.11V.86h.078q.311 0 .36.282Zm0 0"/><path id="k" d="M2.031-.578V-5l-1.344.25a1 1 0 0 1-.015-.187c0-.133.07-.227.219-.282l1.468-.593h.454v5.234l1.078.172q.14.016.14.11-.002.08-.11.296H.86v-.078q0-.311.282-.36Zm0 0"/><path id="m" d="m.422-.453 1.516-1.734q.874-1.015.875-2c0-.833-.305-1.25-.907-1.25q-.345 0-.703.187a3.3 3.3 0 0 0-.125.875q-.11.017-.203.016-.422 0-.422-.344 0-.545.422-.875.42-.342 1.156-.344.715 0 1.172.422.451.408.453 1.156 0 .675-.422 1.36-.268.44-.906 1.125L1.344-.797v.016h2.031l.188-.781a.5.5 0 0 1 .187-.032q.234.002.234.344c0 .242-.03.656-.093 1.25H.5Zm0 0"/><path id="o" d="M1.39-3.156c1.008-.114 1.516-.516 1.516-1.203Q2.905-5.438 2-5.437q-.41.002-.703.203-.11.362-.11.812a.7.7 0 0 1-.218.031c-.281 0-.422-.117-.422-.359q-.001-.516.437-.844.45-.328 1.188-.328.714 0 1.125.375.406.375.406 1.031 0 .628-.422 1.016-.28.284-.89.484V-3q.702.11 1.093.484c.258.243.391.547.391.922q-.001.738-.547 1.219Q2.78.11 1.891.109C1.41.11 1.05.012.813-.17Q.53-.374.53-.672q0-.406.39-.548c.102.23.204.399.298.5q.293.328.828.328c.664 0 1-.351 1-1.062 0-.738-.555-1.149-1.656-1.234Zm0 0"/><path id="q" d="m.125-1.984 2.531-3.797.672-.063v3.64h.75l-.047.688h-.703v1.032l.61.125q.123.017.124.093 0 .048-.093.266H1.906v-.078q0-.246.297-.328l.39-.078v-1.032H.157Zm.734-.22h1.735V-4.89h-.016L.86-2.219Zm0 0"/><path id="r" d="M1.828.094c1.75 0 2.375-1.14 2.672-2.735l.484-2.453c.047-.25.188-.39.563-.406l.219-.016c.046 0 .078-.03.078-.078l.031-.172-.016-.015c-.406 0-.75.015-.937.015-.203 0-.547-.015-.938-.015l-.03.015-.032.172c0 .047.031.078.062.078l.22.016c.296.016.405.094.405.281 0 .032 0 .078-.015.125l-.516 2.625c-.187 1-.547 2.188-2 2.188-.422 0-.734-.188-.937-.438C.953-.969.906-1.25.906-1.53s.047-.594.11-.875L1.53-5.11c.063-.25.203-.375.563-.391l.219-.016c.046 0 .078-.03.078-.078l.046-.172-.03-.015c-.391 0-.75.015-1.094.015S.64-5.78.234-5.78l-.03.015-.032.172c0 .047.031.078.062.078l.22.016c.28.016.405.078.405.266 0 .046 0 .078-.015.125l-.578 3a3 3 0 0 0-.063.625c0 1.28.953 1.578 1.625 1.578m0 0"/><path id="t" d="m1.906-5.078-.86 4.406c-.062.25-.187.375-.562.406L.22-.234c-.047.03-.063.172-.016.25C.593.016.922 0 1.266 0s.75.016 1.14.016c.031-.032.047-.22.031-.25l-.312-.032c-.344-.03-.437-.14-.39-.406l.859-4.406c.062-.25.187-.375.562-.422l.281-.016a.38.38 0 0 0 .016-.265c-.406 0-.734.015-1.078.015S1.641-5.78 1.25-5.78c-.031.031-.062.218-.031.265l.297.016c.359.031.453.14.39.422m0 0"/><path id="s" d="M2.031-2.312c.61 0 .625.171.64.484.048.047.204.047.235 0 0-.172-.015-.39-.015-.625 0-.25.015-.438.015-.61-.031-.046-.187-.046-.234 0-.016.391-.031.485-.64.485h-.673v-1.297c0-.39.094-.453.407-.453h.312c.766 0 .938.281 1.094.781a1 1 0 0 0 .234-.031 51 51 0 0 0-.172-1.047c0-.016 0-.016-.015-.016-.125.016-.156.032-.344.032H1.047c-.219 0-.625-.016-.922-.016-.047.031-.047.188 0 .234.5.016.625.047.625.641v2.875c0 .594-.125.625-.625.656-.047.047-.047.188 0 .235C.375 0 .735 0 1.063 0c.312 0 .671 0 .921.016.047-.047.047-.188 0-.235-.5-.031-.625-.062-.625-.656v-1.437Zm0 0"/><clipPath id="a"><path d="M218 77h10.074v16H218Zm0 0"/></clipPath><clipPath id="j"><path d="M12.668 1H55v83.984H12.668Zm0 0"/></clipPath><clipPath id="l"><path d="M12.668 1H89v83.984H12.668Zm0 0"/></clipPath><clipPath id="n"><path d="M12.668 1H99v83.984H12.668Zm0 0"/></clipPath><clipPath id="p"><path d="M12.668 1H204v83.984H12.668Zm0 0"/></clipPath></defs><path fill="none" stroke="#7F7F7F" stroke-miterlimit="10" stroke-width=".19841096000000003" d="M22.914 87.105v-4.238m10.25 4.238v-4.238m10.246 4.238v-4.238m10.25 4.238v-4.238m10.246 4.238v-4.238m10.25 4.238v-4.238m10.246 4.238v-4.238m10.25 4.238v-4.238m10.25 4.238v-4.238m10.246 4.238v-4.238m10.25 4.238v-4.238m10.247 4.238v-4.238m10.25 4.238v-4.238m10.246 4.238v-4.238m10.25 4.238v-4.238m10.246 4.238v-4.238m10.25 4.238v-4.238m10.246 4.238v-4.238"/><path fill="none" stroke="#000" stroke-miterlimit="10" stroke-width=".39781896000000005" d="M12.668 84.984h211.75"/><path d="m227.48 84.984-2.964-1.757v3.52Zm0 0"/><g clip-path="url(#a)"><path fill="none" stroke="#000" stroke-miterlimit="10" stroke-width=".39781896000000005" d="m227.48 84.984-2.964-1.757v3.52Zm0 0"/></g><path fill="none" stroke="#000" stroke-miterlimit="10" stroke-width=".39781896000000005" d="M12.668 84.984V3.66"/><path stroke="#000" stroke-miterlimit="10" stroke-width=".39781896000000005" d="M12.668.594 10.91 3.559h3.516Zm0 0"/><use xlink:href="#b" x="30.669" y="90.284"/><use xlink:href="#c" x="30.669" y="94.753"/><use xlink:href="#d" x="30.669" y="96.604"/><use xlink:href="#e" x="30.669" y="102.558"/><use xlink:href="#b" x="51.165" y="90.284"/><use xlink:href="#c" x="51.165" y="94.753"/><use xlink:href="#f" x="51.165" y="96.604"/><use xlink:href="#e" x="51.165" y="102.558"/><use xlink:href="#b" x="71.661" y="90.284"/><use xlink:href="#c" x="71.661" y="94.753"/><use xlink:href="#g" x="71.661" y="96.604"/><use xlink:href="#e" x="71.661" y="102.558"/><use xlink:href="#b" x="92.157" y="90.284"/><use xlink:href="#c" x="92.157" y="94.753"/><use xlink:href="#h" x="92.157" y="96.604"/><use xlink:href="#e" x="92.157" y="102.558"/><use xlink:href="#i" x="112.653" y="90.284"/><use xlink:href="#c" x="112.653" y="94.753"/><use xlink:href="#b" x="112.653" y="96.604"/><use xlink:href="#e" x="112.653" y="102.558"/><use xlink:href="#i" x="133.149" y="90.284"/><use xlink:href="#c" x="133.149" y="94.753"/><use xlink:href="#d" x="133.149" y="96.604"/><use xlink:href="#e" x="133.149" y="102.558"/><use xlink:href="#i" x="153.646" y="90.284"/><use xlink:href="#c" x="153.646" y="94.753"/><use xlink:href="#f" x="153.646" y="96.604"/><use xlink:href="#e" x="153.646" y="102.558"/><use xlink:href="#i" x="174.142" y="90.284"/><use xlink:href="#c" x="174.142" y="94.753"/><use xlink:href="#g" x="174.142" y="96.604"/><use xlink:href="#e" x="174.142" y="102.558"/><use xlink:href="#i" x="194.638" y="90.284"/><use xlink:href="#c" x="194.638" y="94.753"/><use xlink:href="#h" x="194.638" y="96.604"/><use xlink:href="#e" x="194.638" y="102.558"/><g clip-path="url(#j)"><path fill="none" stroke="#000" stroke-miterlimit="10" stroke-width=".7946408800000001" d="M12.668 84.984h10.246m0 0h10.25c5.125 0 9.094-56.32 10.246-72.675"/></g><use xlink:href="#k" x="41.176" y="7.949"/><g clip-path="url(#l)"><path fill="none" stroke="#000" stroke-miterlimit="10" stroke-width=".7946408800000001" d="M12.668 84.984h12.809m0 0h12.812c19.469 0 34.559-56.32 38.941-72.675"/></g><use xlink:href="#m" x="74.994" y="8.002"/><g clip-path="url(#n)"><path fill="none" stroke="#000" stroke-miterlimit="10" stroke-width=".7946408800000001" d="M12.668 84.984H43.41m0 0h30.746c6.66 0 11.824-56.32 13.324-72.675"/></g><use xlink:href="#o" x="85.243" y="7.949"/><g clip-path="url(#p)"><path fill="none" stroke="#000" stroke-miterlimit="10" stroke-width=".7946408800000001" d="M12.668 84.984h75.324m0 0h75.324c14.348 0 25.465-56.32 28.696-72.675"/></g><use xlink:href="#q" x="189.773" y="7.962"/><use xlink:href="#r" x="216.089" y="93.949"/><use xlink:href="#s" x="220.845" y="95.826"/><use xlink:href="#t" x="3.123" y="9.161"/><use xlink:href="#s" x="5.636" y="11.038"/></svg>