<svg xmlns="http://www.w3.org/2000/svg" width="113.495" height="90.238"><defs><clipPath id="a"><path d="M.227 86H4v3.48H.227Zm0 0"/></clipPath><clipPath id="b"><path d="M.227 80H10v9.48H.227Zm0 0"/></clipPath><clipPath id="c"><path d="M109 86h3.77v3.48H109Zm0 0"/></clipPath><clipPath id="d"><path d="M103 80h9.77v9.48H103Zm0 0"/></clipPath><clipPath id="e"><path d="M.227 4H4v4H.227Zm0 0"/></clipPath><clipPath id="f"><path d="M.227 0H10v14H.227Zm0 0"/></clipPath><clipPath id="g"><path d="M109 4h3.77v4H109Zm0 0"/></clipPath><clipPath id="h"><path d="M103 0h9.77v14H103Zm0 0"/></clipPath></defs><path fill="none" stroke="#000" stroke-miterlimit="10" stroke-width=".39566037000000004" d="M1.996 87.71h54.5m0 0H111"/><g clip-path="url(#a)"><path fill="#FFF" d="M3.57 87.71a1.575 1.575 0 1 0-3.148 0 1.575 1.575 0 0 0 3.148 0m0 0"/></g><g clip-path="url(#b)"><path fill="none" stroke="#000" stroke-miterlimit="10" stroke-width=".39566037000000004" d="M3.57 87.71a1.575 1.575 0 1 0-3.148 0 1.575 1.575 0 0 0 3.148 0Zm0 0"/></g><g clip-path="url(#c)"><path fill="#FFF" d="M112.574 87.71a1.575 1.575 0 1 0-3.148 0 1.575 1.575 0 0 0 3.148 0m0 0"/></g><g clip-path="url(#d)"><path fill="none" stroke="#000" stroke-miterlimit="10" stroke-width=".39566037000000004" d="M112.574 87.71a1.575 1.575 0 1 0-3.148 0 1.575 1.575 0 0 0 3.148 0Zm0 0"/></g><path fill="none" stroke="#000" stroke-miterlimit="10" stroke-width=".39566037000000004" d="M1.996 5.961H8.81m0 0h32.43m30.519 0h32.43m0 0H111"/><g clip-path="url(#e)"><path fill="#FFF" d="M3.57 5.96a1.575 1.575 0 0 0-3.148 0 1.574 1.574 0 0 0 3.148 0m0 0"/></g><g clip-path="url(#f)"><path fill="none" stroke="#000" stroke-miterlimit="10" stroke-width=".39566037000000004" d="M3.57 5.961a1.575 1.575 0 0 0-3.148 0 1.574 1.574 0 0 0 3.148 0Zm0 0"/></g><path stroke="#000" stroke-miterlimit="10" stroke-width=".39566037000000004" d="M17.195 5.961a1.575 1.575 0 0 0-3.148 0 1.574 1.574 0 0 0 3.148 0Zm0 0"/><path fill="none" stroke="#000" stroke-linejoin="bevel" stroke-miterlimit="10" stroke-width=".7903291100000001" d="M40.84 6.117c0-3.16 1.754-5.722 3.914-5.722 2.164 0 3.914 2.562 3.914 5.722 0-3.16 1.754-5.722 3.914-5.722 2.164 0 3.914 2.562 3.914 5.722 0-3.16 1.754-5.722 3.914-5.722 2.164 0 3.914 2.562 3.914 5.722 0-3.16 1.754-5.722 3.914-5.722 2.164 0 3.914 2.562 3.914 5.722"/><path stroke="#000" stroke-miterlimit="10" stroke-width=".39566037000000004" d="M98.95 5.961a1.575 1.575 0 0 0-3.15 0c0 .867.704 1.57 1.575 1.57.867 0 1.574-.703 1.574-1.57Zm0 0"/><g clip-path="url(#g)"><path fill="#FFF" d="M112.574 5.96a1.575 1.575 0 0 0-3.148 0 1.574 1.574 0 0 0 3.148 0m0 0"/></g><g clip-path="url(#h)"><path fill="none" stroke="#000" stroke-miterlimit="10" stroke-width=".39566037000000004" d="M112.574 5.961a1.575 1.575 0 0 0-3.148 0 1.574 1.574 0 0 0 3.148 0Zm0 0"/></g><path fill="none" stroke="#000" stroke-miterlimit="10" stroke-width=".39566037000000004" d="M15.621 5.961v13.625m0 0v13.625h37.063m7.628 0h37.063V19.586m0 0V5.961"/><path fill="none" stroke="#000" stroke-miterlimit="10" stroke-width=".7903291100000001" d="M52.684 21.766v22.89m7.628-22.89v22.89"/></svg>