<svg xmlns="http://www.w3.org/2000/svg" width="114.104" height="45.562"><defs><clipPath id="a"><path d="M6 0h57v45.129H6Zm0 0"/></clipPath><clipPath id="b"><path d="M51 0h56v45.129H51Zm0 0"/></clipPath><clipPath id="c"><path d="M56 21h57.117v3H56Zm0 0"/></clipPath><clipPath id="d"><path d="M.098 21H58v3H.098Zm0 0"/></clipPath></defs><g clip-path="url(#a)"><path fill="none" stroke="#000" stroke-miterlimit="10" stroke-width=".39520152000000003" d="M56.61 22.562C56.61 10.211 46.593.195 34.241.195c-12.355 0-22.367 10.016-22.367 22.367 0 12.356 10.012 22.368 22.367 22.368 12.352 0 22.367-10.012 22.367-22.368Zm0 0"/></g><g clip-path="url(#b)"><path fill="none" stroke="#000" stroke-miterlimit="10" stroke-width=".39520152000000003" d="M101.344 22.562c0-12.351-10.016-22.367-22.367-22.367-12.356 0-22.368 10.016-22.368 22.367 0 12.356 10.012 22.368 22.368 22.368 12.351 0 22.367-10.012 22.367-22.368Zm0 0"/></g><g clip-path="url(#c)"><path fill="none" stroke="#000" stroke-miterlimit="10" stroke-width="1.18461408" d="M56.61 22.562h55.917"/></g><g clip-path="url(#d)"><path fill="none" stroke="#000" stroke-miterlimit="10" stroke-width="1.18461408" d="M56.61 22.562H.69"/></g></svg>