<svg xmlns="http://www.w3.org/2000/svg" xmlns:xlink="http://www.w3.org/1999/xlink" width="228.973" height="85.439"><defs><path id="d" d="m.938-3.828-.47.031c-.171.016-.234.078-.25.156a.6.6 0 0 0-.046.157c0 .015.031.015.062.015H.86L.313-1.047C.25-.766.188-.484.188-.328c0 .328.156.422.437.422.406 0 .984-.375 1.297-.922C1.89-.938 1.828-1 1.719-1c-.407.469-.563.547-.719.547-.016 0-.11-.016-.11-.11 0-.093.032-.265.094-.562l.532-2.344h.875c.109-.047.187-.281.078-.36h-.875l.093-.39c.032-.172.11-.437.11-.531 0-.156-.063-.25-.36-.25-.312 0-.296.406-.39.734Zm0 0"/><path id="e" d="m-.484-4.469-1.625.578v2.22l1.625.577.125-.672q.017-.124.093-.125.066 0 .266.094V.078a.2.2 0 0 1-.078.016Q-.342.096-.406-.22l-.063-.25-5.672-2.156-.078-.562 5.75-2.141.11-.39q.034-.125.093-.126.048 0 .266.094v1.906a.16.16 0 0 1-.078.016q-.246 0-.328-.297Zm-2.094 2.625v-1.875l-2.61.906v.032Zm0 0"/><path id="f" d="m-.469-7.062.125-.532q.017-.124.11-.125.129 0 .234.094v1.875a.1.1 0 0 1-.062.016c-.133 0-.235-.094-.297-.282l-.11-.328H-2.75c-.687 0-1.031.29-1.031.86 0 .449.164.843.484 1.187a4 4 0 0 1 .516-.047H-.47l.125-.531q.017-.124.11-.125.129 0 .234.078v1.89a.1.1 0 0 1-.062.016c-.133 0-.235-.093-.297-.28l-.11-.329H-2.75c-.687 0-1.031.29-1.031.86q.002.644.437 1.14h2.875l.125-.547c.012-.07.047-.11.11-.11q.129.001.234.079v1.89a.1.1 0 0 1-.062.016c-.133 0-.235-.094-.297-.281l-.11-.328H-3.78l-.094.64a.16.16 0 0 1-.078.016c-.156 0-.242-.11-.266-.328l-.11-1.047.595.047v-.031q-.64-.61-.641-1.422 0-.812.703-1.14-.703-.639-.703-1.516 0-.638.422-1 .41-.375 1.172-.375Zm0 0"/><path id="g" d="M1.313-.86h-5.094l-.094.657h-.078c-.156 0-.242-.11-.266-.328l-.11-1.047.595.062v-.03c-.426-.352-.641-.798-.641-1.329q.001-.763.547-1.203.55-.452 1.515-.453 1.173 0 1.782.61.579.562.578 1.577c0 .262-.04.516-.11.766h1.376l.125-.531c.007-.082.046-.125.109-.125a.36.36 0 0 1 .234.093v1.875a.13.13 0 0 1-.062.016q-.205 0-.297-.281Zm-5.11-1.734q.001.581.406 1.016h2.672q.282-.359.282-.828 0-1.373-1.829-1.375-.732 0-1.125.328-.405.314-.406.86m0 0"/><path id="h" d="M-.469-.86h-5.453l-.094.641a.1.1 0 0 1-.062.016q-.246 0-.281-.328l-.11-1.047h6l.125-.547q.017-.124.11-.125.129 0 .234.094v1.89h-.062c-.133 0-.235-.086-.297-.265Zm0 0"/><path id="i" d="M-.469-.906H-3.78l-.094.64a.16.16 0 0 1-.078.016c-.156 0-.242-.11-.266-.328l-.11-1.047h3.86l.125-.547c.012-.07.047-.11.11-.11q.129.001.234.079v1.89a.1.1 0 0 1-.062.016c-.133 0-.235-.094-.297-.281Zm-5.343.156a.5.5 0 0 1-.375-.14.53.53 0 0 1-.141-.376q0-.217.14-.359a.49.49 0 0 1 .375-.156q.236.002.375.156a.5.5 0 0 1 .125.36c0 .148-.039.273-.125.374a.5.5 0 0 1-.375.141m0 0"/><path id="j" d="M-4.281-.86-5.47-1.03v-.516h1.188V-2.89l.468.094v1.25h2.75q.657.001.657-.578c0-.3-.07-.55-.219-.75a.43.43 0 0 1 .25-.062q.112.001.266.25c.144.218.218.492.218.812Q.11-.826-.92-.828h-2.891v.672a.1.1 0 0 1-.063.015q-.216 0-.297-.28Zm0 0"/><path id="k" d="m-3.781-.781-.094.64a.16.16 0 0 1-.078.016c-.156 0-.242-.11-.266-.328l-.11-1.047h2.798q1.048 0 1.047-.89 0-.688-.438-1.11h-2.86l-.093.656h-.078c-.156 0-.242-.11-.266-.328l-.11-1.047h3.845l.078-.656h.078q.252 0 .281.328l.094 1h-.578v.016c.43.344.64.793.64 1.344q0 1.406-1.593 1.406Zm0 0"/><path id="l" d="M-.5-3.406v.031q.61.44.61 1.266 0 .737-.47 1.187-.543.533-1.656.531-1.156 0-1.812-.703-.546-.592-.547-1.484c0-.27.04-.524.11-.766h-1.657l-.094.64a.1.1 0 0 1-.062.017q-.246 0-.281-.329l-.11-1.046h5.985l.078-.657q.047-.013.078-.015.252 0 .281.328l.094 1Zm.031 1.094q0-.657-.39-1.032h-2.703q-.33.316-.329.844c0 .406.149.73.438.969q.486.39 1.312.39.846.001 1.282-.343.39-.295.39-.828m0 0"/><path id="m" d="M-2.172-1.156q.845-.012 1.297-.375c.305-.239.453-.57.453-1q0-.593-.422-1.11.064-.092.25-.109.205.001.438.406.265.47.265 1.11.002.815-.5 1.297c-.382.367-.941.546-1.671.546q-1.09.001-1.735-.578a1.7 1.7 0 0 1-.578-1.297q.001-.702.406-1.093.41-.36 1.078-.36.299 0 .72.094Zm-1.75-1.031q.002.909 1.328 1.015v-1.75a1.4 1.4 0 0 0-.375-.047q-.951.001-.953.781m0 0"/><clipPath id="a"><path d="M219 35h9.21v15H219Zm0 0"/></clipPath><clipPath id="b"><path d="M14 3h2v81.883h-2Zm0 0"/></clipPath><clipPath id="c"><path d="M15.117 3H75v79H15.117Zm0 0"/></clipPath></defs><path fill="none" stroke="#000" stroke-miterlimit="10" stroke-width=".39639852000000003" d="M15.117 42.441h209.45"/><path d="m227.621 42.441-2.953-1.754v3.504Zm0 0"/><g clip-path="url(#a)"><path fill="none" stroke="#000" stroke-miterlimit="10" stroke-width=".39639852000000003" d="m227.621 42.441-2.953-1.754v3.504Zm0 0"/></g><g clip-path="url(#b)"><path fill="none" stroke="#000" stroke-miterlimit="10" stroke-width=".39639852000000003" d="M15.117 84.684V3.648"/></g><path stroke="#000" stroke-miterlimit="10" stroke-width=".39639852000000003" d="m15.117.594-1.75 2.953h3.504Zm0 0"/><g clip-path="url(#c)"><path fill="none" stroke="#000" stroke-miterlimit="10" stroke-width=".7918035600000001" d="m15.117 42.441.164 4.13.16 4.034.16 3.864.165 3.601.16 3.266.164 2.855.16 2.387.164 1.867.16 1.305.16.71.164.11.16-.496.165-1.097.16-1.668.164-2.207.16-2.696.16-3.125.164-3.492.16-3.777.164-3.985.16-4.109.165-4.137.16-4.082.16-3.933.164-3.704.16-3.394.164-3.012.16-2.558.165-2.059.16-1.508.16-.926.164-.328.16.285.164.883.16 1.469.164 2.02.16 2.527.16 2.976.165 3.372.16 3.683.164 3.922.16 4.074.164 4.137.16 4.11.16 3.995.165 3.797.16 3.516.164 3.152.16 2.73.164 2.243.16 1.707.16 1.14.164.54.16-.063.165-.672.16-1.261.164-1.829.16-2.351.16-2.824.164-3.239.16-3.582.164-3.843.16-4.032.165-4.12.16-4.134.16-4.046.164-3.88.16-3.62.164-3.293.16-2.887.164-2.422.16-1.906.16-1.344.165-.758.16-.152.164.457.16 1.055.164 1.628.16 2.168.16 2.66.165 3.102.16 3.465.164 3.762.16 3.972.164 4.102.16 4.137.16 4.09.164 3.945.16 3.726.165 3.418.16 3.04.164 2.593.16 2.094.16 1.55.164.97.16.367.164-.239.16-.84.165-1.43.16-1.98.16-2.492.164-2.949.16-3.344.164-3.664.16-3.906.164-4.067.16-4.132.16-4.118.165-4.007.16-3.813.164-3.539.16-3.18.164-2.761.16-2.282.16-1.746.165-1.18.16-.585.164.023.16.625.164 1.223.16 1.789.16 2.312.164 2.793.16 3.211.165 3.559.16 3.832.164 4.02.16 4.117.16 4.132.164 4.06.16 3.89.164 3.644.16 3.32.165 2.918.16 2.458.16 1.94.164 1.388.16.8.164.196.16-.414.165-1.012.16-1.586.16-2.133.164-2.629.16-3.07.164-3.441.16-3.743.164-3.96.16-4.094.16-4.14.165-4.095.16-3.96.164-3.743.16-3.441.164-3.07.16-2.63.16-2.132.165-1.59.16-1.012.164-.41.16.195.164.801.16 1.383.16 1.945.164 2.457.16 2.918.165 3.317.16 3.644.164 3.895.16 4.054.16 4.133.164 4.121.16 4.02.164 3.828.16 3.559.165 3.21.16 2.793.16 2.317.164 1.789.16 1.219.164.629.16.023.164-.586.16-1.18.16-1.75.165-2.277.16-2.762.164-3.183.16-3.535.164-3.813.16-4.008.16-4.117.165-4.137.16-4.062.164-3.906.16-3.668.164-3.34.16-2.953.16-2.492.164-1.981.16-1.426.165-.843.16-.239.164.371.16.97.16 1.546.164 2.098.16 2.593.164 3.04.16 3.417.165 3.723.16 3.95.16 4.09.164 4.136.16 4.101.164 3.973.16 3.762.16 3.465.165 3.097.16 2.664.164 2.168.16 1.63.164 1.054.16.453.16-.148.164-.758.16-1.348.165-1.902.16-2.422.164-2.887.16-3.293.16-3.625.164-3.875.16-4.047.164-4.132.16-4.125.165-4.028.16-3.847.16-3.579.164-3.238.16-2.824.164-2.352.16-1.828.164-1.262.16-.671.16-.067.165.543.16 1.137.164 1.71.16 2.243.164 2.727.16 3.156.16 3.512.165 3.796.16 3.997.164 4.113.16 4.137.164 4.074.16 3.918.16 3.687.164 3.367.16 2.98.165 2.528.16 2.02.164 1.465.16.886.16.282.164-.325.16-.925.165-1.512.16-2.055.164-2.562.16-3.008.16-3.395.164-3.703.16-3.937.164-4.078.16-4.141.165-4.106.16-3.984.16-3.777.164-3.492.16-3.125.164-2.696.16-2.207.164-1.668.16-1.097.16-.5.165.109.16.715.164 1.304.16 1.864.164 2.386.16 2.86.16 3.262.165 3.605.16 3.86.164 4.038.16 4.13"/></g><path fill="none" stroke="#000" stroke-miterlimit="10" stroke-width=".7918035600000001" d="m63.504 42.441.164 1.239.16 1.21.16 1.16.164 1.079.16.98.165.856.16.719.164.558.16.39.16.216.164.03.16-.148.164-.328.16-.5.165-.664.16-.808.16-.938.164-1.047.16-1.133.164-1.195.16-1.234.164-1.238.16-1.227.16-1.18.165-1.11.16-1.019.164-.902.16-.77.164-.617.16-.453.16-.277.165-.098.16.086.164.266.16.437.164.606.16.758.16.894.164 1.012.16 1.105.165 1.176.16 1.223.164 1.242.16 1.23.16 1.2.164 1.14.16 1.055.164.945.16.82.165.672.16.512.16.34.164.164.16-.02.164-.199.16-.379.164-.55.16-.704.16-.847.165-.973.16-1.074.164-1.152.16-1.211.164-1.235.16-1.242.16-1.215.165-1.16.16-1.09.164-.984.16-.867.164-.727.16-.57.16-.406.164-.227.16-.047.165.137.16.316.164.488.16.653.16.797.164.93.16 1.042.165 1.125.16 1.196.164 1.23.16 1.238.16 1.227.164 1.187.16 1.118.164 1.023.16.914.165.778.16.628.16.465.164.29.16.109.164-.07.16-.255.164-.425.16-.594.16-.75.165-.883.16-1.004.164-1.097.16-1.176.164-1.219.16-1.238.16-1.235.165-1.203.16-1.144.164-1.063.16-.953.164-.828.16-.684.16-.523.164-.356.16-.175.165.008.16.187.164.367.16.535.16.696.164.836.16.964.164 1.067.16 1.148.165 1.207.16 1.235.16 1.242.164 1.215.16 1.168.164 1.093.16.997.164.875.16.738.16.582.165.418.16.238.164.059.16-.125.164-.301.16-.477.16-.64.165-.79.16-.921.164-1.031.16-1.125.164-1.188.16-1.227.16-1.242.164-1.23.16-1.188.165-1.12.16-1.036.164-.918.16-.789.16-.64.164-.477.16-.305.164-.12.16.058.16.238.165.418.16.582.164.738.16.875.164.992.16 1.094.16 1.168.165 1.219.16 1.238.164 1.238.16 1.204.164 1.148.16 1.07.16.961.164.84.16.695.165.536.16.367.164.187.16.008.16-.176.164-.355.16-.524.164-.683.16-.828.165-.957.16-1.059.16-1.144.164-1.204.16-1.234.164-1.242.16-1.219.165-1.172.16-1.097.16-1.004.164-.887.16-.746.164-.594.16-.43.164-.25.16-.074.16.113.165.29.16.464.164.63.16.777.164.914.16 1.023.16 1.117.165 1.184.16 1.226.164 1.243.16 1.23.164 1.192.16 1.128.16 1.04.164.93.16.8.165.648.16.489.164.316.16.137.16-.043.164-.23.16-.403.164-.57.16-.727.165-.867.16-.988.16-1.086.164-1.164.16-1.215.164-1.238.16-1.239.164-1.207.16-1.152.16-1.074.165-.973.16-.848.164-.707.16-.547.164-.378.16-.2.16-.02.165.161.16.344.164.511.16.672.164.82.16.946.16 1.055.164 1.136.16 1.2.165 1.234.16 1.242.164 1.219.16 1.18.16 1.105.164 1.008.16.894.164.758.16.606.165.441.16.266.16.086.164-.098.16-.281.164-.45.16-.617.164-.77.16-.902.16-1.02.165-1.108.16-1.184.164-1.223.16-1.242.164-1.23.16-1.196.16-1.133.165-1.046.16-.942.164-.808.16-.66.164-.5.16-.329.16-.152.164.035.16.215.165.39.16.56.164.714.16.86.16.976.164 1.082.16 1.16.164 1.211.16 1.238M111.89 42.441l.165 4.125.16 4.04.16 3.863.164 3.601.16 3.266.164 2.855.16 2.387.165 1.867.16 1.305.16.71.164.11.16-.496.164-1.097.16-1.668.164-2.207.16-2.696.16-3.125.165-3.492.16-3.777.164-3.985.16-4.109.164-4.137.16-4.078.16-3.937.165-3.704.16-3.394.164-3.012.16-2.558.164-2.059.16-1.508.16-.926.164-.328.16.285.165.883.16 1.469.164 2.02.16 2.527.16 2.976.164 3.372.16 3.683.164 3.922.16 4.074.165 4.137.16 4.11.16 3.995.164 3.797.16 3.516.164 3.152.16 2.73.164 2.243.16 1.707.16 1.14.165.54.16-.063.164-.672.16-1.261.164-1.829.16-2.351.16-2.824.165-3.239.16-3.582.164-3.843.16-4.032.164-4.12.16-4.134.16-4.046.164-3.88.16-3.62.165-3.293.16-2.887.164-2.422.16-1.906.16-1.344.164-.758.16-.152.164.457.16 1.055.165 1.628.16 2.168.16 2.66.164 3.098.16 3.469.164 3.762.16 3.972.164 4.102.16 4.137.16 4.086.165 3.949.16 3.722.164 3.422.16 3.04.164 2.593.16 2.094.16 1.55.165.97.16.367.164-.239.16-.84.164-1.43.16-1.98.16-2.492.164-2.949.16-3.344.165-3.664.16-3.906.164-4.067.16-4.132.16-4.118.164-4.007.16-3.813.164-3.539.16-3.18.16-2.761.165-2.282.16-1.746.164-1.18.16-.585.164.023.16.625.16 1.223.165 1.789.16 2.312.164 2.793.16 3.211.164 3.559.16 3.832.16 4.016.164 4.12.16 4.133.165 4.06.16 3.89.164 3.644.16 3.32.16 2.918.164 2.458.16 1.94.165 1.388.16.8.164.196.16-.414.16-1.012.164-1.586.16-2.133.164-2.629.16-3.07.165-3.441.16-3.743.16-3.96.164-4.094.16-4.14.164-4.095.16-3.96.164-3.743.16-3.441.16-3.07.165-2.63.16-2.132.164-1.59.16-1.012.164-.41.16.195.16.801.165 1.383.16 1.945.164 2.457.16 2.918.164 3.317.16 3.644.16 3.895.164 4.054.16 4.133.165 4.121.16 4.02.164 3.828.16 3.559.16 3.21.164 2.793.16 2.317.164 1.789.16 1.219.165.629.16.023.16-.586.164-1.18.16-1.75.164-2.277.16-2.762.164-3.183.16-3.535.16-3.813.165-4.008.16-4.117.164-4.137.16-4.062.164-3.906.16-3.668.16-3.34.165-2.953.16-2.492.164-1.981.16-1.426.164-.843.16-.239.16.371.164.97.16 1.546.165 2.094.16 2.597.164 3.04.16 3.417.16 3.723.164 3.95.16 4.085.164 4.14.16 4.102.165 3.973.16 3.762.16 3.465.164 3.097.16 2.664.164 2.168.16 1.63.165 1.054.16.453.16-.148.164-.758.16-1.344.164-1.906.16-2.422.164-2.887.16-3.293.16-3.625.165-3.875.16-4.047.164-4.132.16-4.125.164-4.028.16-3.847.16-3.579.165-3.238.16-2.824.164-2.352.16-1.828.164-1.262.16-.671.16-.067.164.543.16 1.137.165 1.71.16 2.243.164 2.727.16 3.156.16 3.512.164 3.796.16 3.997.164 4.113.16 4.137.165 4.074.16 3.918.16 3.687.164 3.367.16 2.98.164 2.528.16 2.02.164 1.465.16.886.16.282.165-.325.16-.925.164-1.512.16-2.055.164-2.562.16-3.008.16-3.395.165-3.703.16-3.937.164-4.078.16-4.141.164-4.106.16-3.984.16-3.777.164-3.492.16-3.125.165-2.696.16-2.207.164-1.668.16-1.097.16-.5.164.109.16.715.164 1.304.16 1.864.165 2.386.16 2.86.16 3.262.164 3.605.16 3.86.164 4.038.16 4.13M160.277 42.441l.164 1.239.16 1.21.16 1.16.165 1.079.16.98.164.856.16.719.164.558.16.39.16.216.165.03.16-.148.164-.328.16-.5.164-.664.16-.808.16-.938.164-1.047.16-1.133.165-1.195.16-1.234.164-1.238.16-1.227.16-1.18.164-1.11.16-1.019.164-.902.16-.77.165-.617.16-.453.16-.277.164-.098.16.086.164.266.16.437.165.606.16.758.16.894.164 1.012.16 1.105.164 1.176.16 1.223.164 1.242.16 1.23.16 1.2.165 1.14.16 1.055.164.945.16.82.164.672.16.512.16.34.165.164.16-.02.164-.199.16-.379.164-.55.16-.704.16-.847.164-.973.16-1.074.165-1.152.16-1.211.16-1.235.164-1.242.16-1.215.164-1.16.16-1.09.164-.984.16-.867.16-.727.165-.57.16-.406.164-.227.16-.047.164.137.16.316.16.488.165.653.16.797.164.93.16 1.042.164 1.125.16 1.196.16 1.23.164 1.238.16 1.227.165 1.187.16 1.118.164 1.023.16.914.16.778.164.628.16.465.164.29.16.109.165-.07.16-.255.16-.425.164-.594.16-.75.164-.883.16-1.004.164-1.097.16-1.176.16-1.219.165-1.238.16-1.235.164-1.203.16-1.144.164-1.063.16-.953.16-.828.165-.684.16-.523.164-.356.16-.175.164.008.16.187.16.367.164.535.16.696.165.836.16.964.164 1.067.16 1.148.16 1.207.164 1.235.16 1.242.164 1.215.16 1.168.165 1.093.16.997.16.875.164.738.16.582.164.418.16.238.164.059.16-.125.16-.301.165-.477.16-.64.164-.79.16-.921.164-1.031.16-1.125.16-1.188.165-1.227.16-1.242.164-1.23.16-1.188.164-1.12.16-1.036.16-.918.164-.789.16-.64.165-.477.16-.305.164-.12.16.058.16.238.164.418.16.582.165.734.16.88.164.991.16 1.094.16 1.168.164 1.219.16 1.238.164 1.238.16 1.204.165 1.148.16 1.07.16.961.164.84.16.695.164.536.16.367.164.187.16.008.16-.176.165-.355.16-.524.164-.683.16-.828.164-.957.16-1.059.16-1.144.165-1.204.16-1.234.164-1.242.16-1.219.164-1.172.16-1.097.16-1.004.164-.887.16-.746.165-.594.16-.43.164-.25.16-.074.16.113.164.29.16.464.164.63.16.777.165.914.16 1.023.16 1.117.164 1.184.16 1.226.164 1.243.16 1.23.164 1.192.16 1.128.16 1.04.165.93.16.8.164.648.16.489.164.316.16.137.16-.043.165-.23.16-.403.164-.57.16-.727.164-.867.16-.988.16-1.086.164-1.164.16-1.215.165-1.238.16-1.239.164-1.207.16-1.152.16-1.074.164-.973.16-.848.164-.707.16-.547.165-.378.16-.2.16-.02.164.161.16.344.164.511.16.672.164.82.16.946.16 1.055.165 1.136.16 1.2.164 1.234.16 1.242.164 1.219.16 1.18.16 1.105.165 1.008.16.894.164.758.16.606.164.441.16.266.16.086.164-.098.16-.281.165-.45.16-.617.164-.77.16-.902.16-1.02.164-1.108.16-1.184.165-1.223.16-1.242.164-1.23.16-1.196.16-1.133.164-1.046.16-.942.164-.808.16-.66.165-.5.16-.329.16-.152.164.035.16.215.164.39.16.56.164.714.16.86.16.976.165 1.082.16 1.16.164 1.211.16 1.238"/><use xlink:href="#d" x="222.826" y="50.605"/><use xlink:href="#e" x="10.169" y="44.048"/><use xlink:href="#f" x="10.169" y="38.24"/><use xlink:href="#g" x="10.169" y="30.392"/><use xlink:href="#h" x="10.169" y="25.502"/><use xlink:href="#i" x="10.169" y="23.016"/><use xlink:href="#j" x="10.169" y="20.531"/><use xlink:href="#k" x="10.169" y="17.502"/><use xlink:href="#l" x="10.169" y="12.434"/><use xlink:href="#m" x="10.169" y="7.517"/></svg>