<svg xmlns="http://www.w3.org/2000/svg" xmlns:xlink="http://www.w3.org/1999/xlink" width="226.335" height="101.525"><defs><clipPath id="a"><path d="M.195 55H4v4H.195Zm0 0"/></clipPath><clipPath id="b"><path d="M.195 49H10v16H.195Zm0 0"/></clipPath><clipPath id="e"><path d="M222 55h3.477v4H222Zm0 0"/></clipPath><clipPath id="f"><path d="M216 49h9.477v16H216Zm0 0"/></clipPath><clipPath id="h"><path d="M140 76h9v25.05h-9Zm0 0"/></clipPath><path id="c" d="M2.406.094c.828 0 1.672-.422 2.407-1.203-.032-.094-.079-.141-.172-.141-.735.703-1.391.969-2.172.969C1.39-.281.953-1.187.953-2.234c0-.235.016-.5.063-.75.359-1.813 1.718-2.563 2.39-2.563 1.188 0 1.547.734 1.61 1.5l.265-.047c.016-.453.032-.89.078-1.375-.484-.031-.734-.406-1.796-.406-1.407 0-2.985 1.313-3.329 3.063-.03.218-.062.437-.062.656C.172-.97.844.094 2.406.094m0 0"/><path id="d" d="M2.063-.875v-2.469c0-.437 0-.875.015-.969 0-.03-.015-.03-.047-.03-.39.25-.765.421-1.39.718.015.078.03.14.109.188.328-.141.484-.172.61-.172.124 0 .14.172.14.406v2.328c0 .594-.187.625-.687.656-.047.047-.047.188 0 .235C1.156 0 1.422 0 1.813 0c.343 0 .515 0 .859.016.047-.047.047-.188 0-.235-.5-.031-.61-.062-.61-.656m0 0"/><path id="g" d="M.438-3.344c0 .156.14.281.28.281.126 0 .345-.124.345-.28 0-.063-.016-.11-.032-.157-.015-.047-.062-.11-.062-.172 0-.172.187-.437.703-.437.266 0 .625.187.625.875 0 .453-.156.828-.578 1.25l-.532.515C.485-.75.375-.406.375.016c0 0 .36-.016.594-.016h1.25c.219 0 .547.016.547.016.093-.375.172-.922.172-1.125-.032-.047-.126-.047-.204-.047-.125.515-.25.687-.5.687H.97c0-.343.484-.828.531-.86l.719-.687c.406-.39.703-.718.703-1.25 0-.78-.625-1.093-1.203-1.093-.797 0-1.281.593-1.281 1.015m0 0"/><path id="i" d="M1.531-4.11c.313 0 .594.188.594.641 0 .36-.406.906-1.125 1.016l.047.219h.344c.406 0 .937.109.937.906 0 .953-.64 1.156-.89 1.156-.36 0-.438-.172-.516-.297C.844-.579.75-.656.609-.656c-.14 0-.296.14-.296.25 0 .281.593.484 1.03.484.845 0 1.61-.562 1.61-1.5 0-.781-.594-1.062-1.015-1.125v-.015c.578-.282.75-.579.75-.954 0-.218-.047-.39-.22-.562-.155-.156-.405-.281-.78-.281-1.047 0-1.36.687-1.36.922 0 .109.078.25.25.25.25 0 .281-.235.281-.376 0-.453.485-.546.672-.546m0 0"/></defs><path fill="none" stroke="#000" stroke-miterlimit="10" stroke-width=".39714066000000003" d="M1.973 57.129h43.562m7.902 0H97m95.027 0h15.836m0 0h15.84"/><g clip-path="url(#a)"><path fill="#FFF" d="M3.555 57.129a1.58 1.58 0 1 0-3.16.003 1.58 1.58 0 0 0 3.16-.003m0 0"/></g><g clip-path="url(#b)"><path fill="none" stroke="#000" stroke-miterlimit="10" stroke-width=".39714066000000003" d="M3.555 57.129a1.58 1.58 0 1 0-3.16.003 1.58 1.58 0 0 0 3.16-.003Zm0 0"/></g><path fill="none" stroke="#000" stroke-miterlimit="10" stroke-width=".7932859800000001" d="M45.535 45.281v23.7m7.902-23.7v23.7"/><path stroke="#000" stroke-miterlimit="10" stroke-width=".39714066000000003" d="M98.578 57.129a1.579 1.579 0 0 0-3.156 0A1.58 1.58 0 0 0 97 58.71a1.58 1.58 0 0 0 1.578-1.582Zm0 0"/><use xlink:href="#c" x="45.194" y="40.883"/><use xlink:href="#d" x="50.076" y="42.757"/><path stroke="#000" stroke-miterlimit="10" stroke-width=".39714066000000003" d="M193.605 57.129a1.58 1.58 0 1 0-3.161.003 1.58 1.58 0 0 0 3.161-.003Zm0 0"/><g clip-path="url(#e)"><path fill="#FFF" d="M225.281 57.129a1.58 1.58 0 1 0-3.161.003 1.58 1.58 0 0 0 3.161-.003m0 0"/></g><g clip-path="url(#f)"><path fill="none" stroke="#000" stroke-miterlimit="10" stroke-width=".39714066000000003" d="M225.281 57.129a1.58 1.58 0 1 0-3.161.003 1.58 1.58 0 0 0 3.161-.003Zm0 0"/></g><path fill="none" stroke="#000" stroke-miterlimit="10" stroke-width=".39714066000000003" d="M97 57.129V25.457h43.562m7.899 0h43.566v31.672"/><path fill="none" stroke="#000" stroke-miterlimit="10" stroke-width=".7932859800000001" d="M140.562 13.605v23.7m7.899-23.7v23.7"/><use xlink:href="#c" x="140.219" y="9.208"/><use xlink:href="#g" x="145.1" y="11.082"/><path fill="none" stroke="#000" stroke-miterlimit="10" stroke-width=".39714066000000003" d="M97 57.129v31.676h43.562m7.899 0h43.566V57.129"/><g clip-path="url(#h)"><path fill="none" stroke="#000" stroke-miterlimit="10" stroke-width=".7932859800000001" d="M140.562 76.957v23.7m7.899-23.7v23.7"/></g><use xlink:href="#c" x="140.219" y="72.558"/><use xlink:href="#i" x="145.1" y="74.432"/></svg>