<svg xmlns="http://www.w3.org/2000/svg" xmlns:xlink="http://www.w3.org/1999/xlink" width="226.772" height="123.916"><defs><clipPath id="a"><path d="M0 120h4v3.813H0Zm0 0"/></clipPath><clipPath id="b"><path d="M0 114h9v9.813H0Zm0 0"/></clipPath><clipPath id="f"><path d="M154 120h4v3.813h-4Zm0 0"/></clipPath><clipPath id="g"><path d="M149 114h15v9.813h-15Zm0 0"/></clipPath><path id="c" d="M3.5-5.86c-.219 0-.75.079-1.094.079s-.672 0-1.078-.016l-.031.016-.031.187c-.016.047 0 .063.046.063l.329.015c.125.016.312.079.312.282 0 .03 0 .062-.016.093l-.874 4.5c-.047.25-.172.36-.547.375l-.22.032C.25-.234.22-.22.22-.172L.172 0l.031.016C.593.016.953 0 1.297 0c.328 0 .687.016 1.078.016L2.406 0l.031-.172c0-.047-.015-.062-.062-.062l-.219-.032C1.875-.28 1.75-.344 1.75-.53c0-.031 0-.063.016-.11l.39-1.968c.703 0 .86.14.953.343l.61 1.563c.172.422.469.797.984.797.125 0 .281-.016.375-.063l.031-.218c-.39 0-.546-.313-.703-.688L3.703-2.75c.39-.14 1.25-.594 1.438-1.531.03-.125.03-.235.03-.344a1.17 1.17 0 0 0-.28-.781c-.328-.407-.86-.453-1.391-.453m-.047.313c.453 0 .969.156.969.875 0 .11-.016.25-.047.39-.219 1.126-.906 1.376-1.75 1.376h-.422l.438-2.235c.046-.265.203-.406.812-.406m0 0"/><path id="d" d="M2.063-.875v-2.484c0-.438.015-.875.03-.97 0-.03-.015-.03-.046-.03-.39.25-.781.422-1.406.718a.3.3 0 0 0 .109.188c.328-.125.484-.172.625-.172.11 0 .14.172.14.406v2.344c0 .594-.202.625-.702.656C.78-.172.78-.03.813.016 1.172 0 1.422 0 1.813 0c.343 0 .515 0 .875.016.046-.047.046-.188 0-.235-.5-.031-.626-.062-.626-.656m0 0"/><path id="e" d="M1.547-4.125c.297 0 .594.188.594.64 0 .36-.422.922-1.125 1.016l.03.235c.126-.016.25-.016.345-.016.406 0 .937.11.937.922 0 .953-.64 1.156-.89 1.156-.36 0-.422-.172-.516-.297a.34.34 0 0 0-.313-.187c-.14 0-.296.125-.296.25 0 .281.609.484 1.03.484.86 0 1.626-.562 1.626-1.5 0-.781-.594-1.062-1.016-1.14l-.016-.016c.594-.281.766-.578.766-.953a.73.73 0 0 0-.234-.563c-.156-.156-.406-.281-.781-.281-1.047 0-1.344.688-1.344.922 0 .11.062.25.234.25.25 0 .281-.235.281-.375 0-.453.5-.547.688-.547m0 0"/><path id="h" d="M.438-3.36c0 .157.14.282.28.282.126 0 .345-.125.345-.281 0-.063-.016-.11-.032-.157-.015-.046-.062-.109-.062-.171 0-.172.187-.438.719-.438.25 0 .625.188.625.875 0 .453-.172.828-.594 1.25l-.532.531C.485-.75.375-.406.375.016c0 0 .36-.016.594-.016h1.25c.234 0 .562.016.562.016.094-.375.172-.922.172-1.141a.3.3 0 0 0-.203-.031c-.125.515-.25.687-.5.687H.969c0-.343.5-.828.531-.86l.719-.702c.406-.39.719-.703.719-1.25 0-.781-.626-1.094-1.204-1.094-.796 0-1.296.594-1.296 1.016m0 0"/></defs><path fill="#FFF" stroke="#000" stroke-miterlimit="10" stroke-width=".39860100000000004" d="M3.371 19.027a1.587 1.587 0 0 0-3.172 0 1.587 1.587 0 0 0 3.172 0Zm0 0"/><g clip-path="url(#a)"><path fill="#FFF" d="M3.371 122.027a1.587 1.587 0 0 0-3.172 0 1.587 1.587 0 0 0 3.172 0m0 0"/></g><g clip-path="url(#b)"><path fill="none" stroke="#000" stroke-miterlimit="10" stroke-width=".39860100000000004" d="M3.371 122.027a1.587 1.587 0 0 0-3.172 0 1.587 1.587 0 0 0 3.172 0Zm0 0"/></g><path fill="none" stroke="#000" stroke-miterlimit="10" stroke-width=".39860100000000004" d="M3.371 19.027h59.805m31.719 0h61.39"/><path fill="none" stroke="#000" stroke-miterlimit="10" stroke-width=".796203" d="M63.176 13.078h31.719v11.895h-31.72Zm0 0"/><use xlink:href="#c" x="74.538" y="9.261"/><use xlink:href="#d" x="79.814" y="11.142"/><path fill="none" stroke="#000" stroke-miterlimit="10" stroke-width=".39860100000000004" d="M156.285 19.027h25.75m0 0h25.75v35.641m0 31.719v35.64h-103m0 0H3.371"/><path fill="none" stroke="#000" stroke-miterlimit="10" stroke-width=".796203" d="M201.84 86.387V54.668h11.894v31.719Zm0 0"/><use xlink:href="#c" x="215.939" y="72.677"/><use xlink:href="#e" x="221.215" y="74.558"/><path fill="none" stroke="#000" stroke-miterlimit="10" stroke-width=".39860100000000004" d="M156.285 19.027v35.641m0 31.719v35.64"/><path fill="none" stroke="#000" stroke-miterlimit="10" stroke-width=".796203" d="M150.34 86.387V54.668h11.894v31.719Zm0 0"/><path stroke="#000" stroke-miterlimit="10" stroke-width=".39860100000000004" d="M157.871 19.027a1.587 1.587 0 0 0-3.172 0 1.587 1.587 0 0 0 3.172 0Zm0 0"/><g clip-path="url(#f)"><path d="M157.871 122.027a1.587 1.587 0 0 0-3.172 0 1.587 1.587 0 0 0 3.172 0m0 0"/></g><g clip-path="url(#g)"><path fill="none" stroke="#000" stroke-miterlimit="10" stroke-width=".39860100000000004" d="M157.871 122.027a1.587 1.587 0 0 0-3.172 0 1.587 1.587 0 0 0 3.172 0Zm0 0"/></g><use xlink:href="#c" x="139.138" y="72.677"/><use xlink:href="#h" x="144.414" y="74.558"/></svg>