<svg xmlns="http://www.w3.org/2000/svg" xmlns:xlink="http://www.w3.org/1999/xlink" width="220.441" height="111.438"><defs><path id="c" d="M3.484-5.828c-.203 0-.75.078-1.078.078-.344 0-.687-.016-1.078-.016l-.031.016-.031.188c-.016.03 0 .046.03.046l.329.016c.125.016.313.078.313.297v.078L1.063-.641c-.047.25-.172.36-.547.375l-.22.032C.25-.234.22-.22.22-.172L.172 0l.031.016C.593.016.953 0 1.281 0c.344 0 .688.016 1.094.016L2.406 0l.016-.172c.015-.047-.016-.062-.047-.062l-.219-.032C1.86-.28 1.75-.344 1.75-.53v-.11l.39-1.953c.72 0 .86.125.954.344l.61 1.547c.171.422.468.797.983.797A1 1 0 0 0 5.063.03l.016-.218c-.375 0-.531-.297-.672-.688L3.688-2.75c.39-.125 1.25-.594 1.437-1.531.016-.11.031-.219.031-.328a1.17 1.17 0 0 0-.281-.782c-.328-.406-.844-.437-1.39-.437m-.046.297c.453 0 .968.156.968.89 0 .094-.015.235-.047.375-.203 1.11-.906 1.36-1.734 1.36h-.437l.437-2.219c.047-.25.203-.406.813-.406m0 0"/><path id="j" d="m1.906-5.078-.86 4.406c-.062.25-.187.375-.562.406L.22-.234c-.047.03-.063.172-.016.25C.593.016.922 0 1.266 0S2 .016 2.406.016c.016-.032.047-.22.016-.25l-.297-.032c-.344-.03-.453-.14-.39-.406l.859-4.406c.062-.25.187-.375.562-.406l.266-.032c.047-.03.062-.171.015-.25-.39 0-.718.016-1.062.016s-.75-.016-1.14-.016c-.016.032-.048.204-.016.25l.297.032c.343.03.453.14.39.406m0 0"/><path id="d" d="M3.203-4.39c.531.046.531.234.375.624L2.453-.906h-.031l-1.14-2.906c-.173-.422-.126-.516.359-.579.046-.03.046-.187 0-.234-.282.016-.61.016-.86.016-.265 0-.515 0-.75-.016-.031.047-.031.203.016.234.39.047.453.157.64.657L2.095-.078c.047.11.094.156.156.156.078 0 .14-.062.172-.156l1.484-3.64c.14-.344.25-.61.703-.673.047-.03.047-.187 0-.234-.218.016-.468.016-.625.016-.171 0-.5 0-.78-.016-.048.047-.048.203 0 .234m0 0"/><path id="k" d="M3.938.016c.03-.407.109-.828.187-1.188-.047-.016-.125-.047-.219-.047-.219.516-.406.907-1.172.922l-1.39.031c-.11 0-.172-.046-.172-.109 0-.031.016-.078.062-.14.516-.75 1.829-2.626 2.672-3.704.156-.187.172-.25.172-.328 0-.047-.031-.078-.094-.078-.078 0-.312.016-.515.016H1.89a30 30 0 0 1-1.297-.047 9 9 0 0 1-.156 1.078c.062.015.14.031.218.031.14-.484.422-.75.953-.75l1.5-.031c.047 0 .079.016.079.062 0 .032-.032.079-.063.125A94 94 0 0 0 .344-.266a.3.3 0 0 0-.047.157c0 .078.031.109.125.109h2.61c.187 0 .906.016.906.016m0 0"/><path id="m" d="M1.063 0h1.515c.203 0 .86.016.86.016.062-.36.14-.828.187-1.188a.32.32 0 0 0-.234-.047c-.157.516-.407.938-1.172.938h-.453c-.266 0-.407-.14-.407-.5v-2.953c0-.594.125-.625.625-.657.047-.03.047-.187 0-.234-.328.016-.656.016-.921.016-.266 0-.594 0-.922-.016-.047.047-.047.203 0 .234.5.032.609.063.609.657v2.859c0 .594-.11.625-.61.656-.046.047-.046.188 0 .235C.423 0 .829 0 1.064 0m0 0"/><path id="f" d="m.125-1.984 2.531-3.782.656-.062v3.64h.75l-.03.672h-.72v1.032l.626.125q.123.017.124.093 0 .048-.093.266H1.906v-.078q0-.246.297-.328l.39-.078v-1.032H.157Zm.734-.203h1.735v-2.704h-.031L.859-2.219Zm0 0"/><path id="g" d="M.89-.922q.248.002.407.203.17.204.172.578 0 .592-.375.985-.316.328-.61.328c-.093 0-.164-.078-.203-.234q.574-.3.61-.891a.5.5 0 0 1-.344-.125.47.47 0 0 1-.14-.344c0-.156.038-.273.124-.36a.48.48 0 0 1 .36-.14m0 0"/><path id="h" d="M.484-4.64c0-.376.02-.758.063-1.157h3.562a.3.3 0 0 1 .047.172q-.002.188-.11.422L1.704 0h-.656l2.406-5.047H1.078l-.14.75a.6.6 0 0 1-.204.031q-.251 0-.25-.375m0 0"/><path id="i" d="M5.828-6.156v.078q-.002.252-.297.328l-.234.047L3.28 0h-.734L.453-5.687l-.375-.11q-.124-.014-.125-.11c0-.05.035-.132.094-.25H2.03c.008.024.016.048.016.079q-.001.253-.313.312l-.375.079L3-.907h.031L4.72-5.702l-.688-.11q-.127-.011-.125-.093 0-.075.094-.25Zm0 0"/><path id="p" d="M2.484-3.031h1.547v.469H2.484v1.671h-.5v-1.671H.422v-.47h1.562v-1.64h.5Zm0 0"/><path id="q" d="M2.031-.578V-5l-1.344.266a1 1 0 0 1-.015-.188c0-.133.07-.226.219-.281l1.468-.594h.438v5.219l1.094.172q.14.016.14.11-.002.08-.11.296H.86v-.078q0-.311.282-.36Zm0 0"/><path id="r" d="M1.39-3.156c1.008-.114 1.516-.516 1.516-1.203Q2.905-5.421 2-5.422q-.41 0-.703.188-.112.376-.125.828a1 1 0 0 1-.203.015c-.281 0-.422-.117-.422-.359 0-.344.144-.617.437-.828q.45-.328 1.188-.328c.469 0 .836.125 1.11.375q.42.376.421 1.015 0 .628-.422 1.016-.298.284-.906.484v.032q.716.093 1.11.468c.257.243.39.547.39.922q-.001.738-.547 1.219Q2.78.11 1.891.109C1.41.11 1.05.012.813-.17Q.53-.374.53-.672q0-.406.39-.548c.102.23.204.399.298.5q.293.328.828.328c.664 0 1-.351 1-1.062 0-.738-.555-1.149-1.656-1.234Zm0 0"/><path id="s" d="M2.922-3.031q1.109.487 1.11 1.531-.001.737-.548 1.188-.516.42-1.296.421Q1.42.11.952-.28.421-.716.422-1.453q0-.92 1.125-1.453C.898-3.226.578-3.72.578-4.375c0-.426.164-.785.5-1.078a1.75 1.75 0 0 1 1.188-.453c.476 0 .867.133 1.172.39q.451.376.453 1.063-.001.907-.97 1.422m-.39-.156q.656-.423.656-1.266-.002-.42-.25-.672-.254-.28-.735-.281c-.281 0-.508.093-.672.281a.94.94 0 0 0-.25.672q0 .504.328.797.247.222.922.469m-.563.468q-.798.44-.797 1.266 0 .456.281.766c.195.199.453.296.766.296q.467 0 .765-.28.296-.295.297-.735 0-.48-.36-.797-.268-.234-.952-.516m0 0"/><path id="t" d="M2.234-.39q1.092.001 1.094-2.516c0-1.664-.367-2.5-1.094-2.5-.73 0-1.093.836-1.093 2.5 0 1.68.363 2.515 1.093 2.515m-.046.5q-.862 0-1.36-.75Q.296-1.42.297-2.907c0-.977.187-1.735.562-2.266.352-.488.829-.734 1.422-.734q.873.001 1.36.734c.343.531.515 1.29.515 2.266q0 1.487-.562 2.265-.516.75-1.406.75m0 0"/><clipPath id="a"><path d="M26 97h15v13.879H26Zm0 0"/></clipPath><clipPath id="b"><path d="M173 97h15v13.879h-15Zm0 0"/></clipPath><clipPath id="e"><path d="M124 97h15v13.879h-15Zm0 0"/></clipPath><clipPath id="l"><path d="M206 39h13.61v33H206Zm0 0"/></clipPath><clipPath id="n"><path d="M205 15h14.61v17H205Zm0 0"/></clipPath><clipPath id="o"><path d="M173 97h15v13.879h-15Zm0 0"/></clipPath></defs><path fill="none" stroke="#000" stroke-miterlimit="10" stroke-width=".39699702000000003" d="M33.379 104.773h49.066m0 0h73.602m0 0h24.535"/><path fill="#FFF" d="M34.957 104.773a1.579 1.579 0 1 0-3.157.002 1.579 1.579 0 0 0 3.157-.002m0 0"/><g clip-path="url(#a)"><path fill="none" stroke="#000" stroke-miterlimit="10" stroke-width=".39699702000000003" d="M34.957 104.773a1.579 1.579 0 1 0-3.157.002 1.579 1.579 0 0 0 3.157-.002Zm0 0"/></g><path fill="#FFF" d="M182.16 104.773a1.579 1.579 0 1 0-3.157.002 1.579 1.579 0 0 0 3.157-.002m0 0"/><g clip-path="url(#b)"><path fill="none" stroke="#000" stroke-miterlimit="10" stroke-width=".39699702000000003" d="M182.16 104.773a1.579 1.579 0 1 0-3.157.002 1.579 1.579 0 0 0 3.157-.002Zm0 0"/></g><path fill="none" stroke="#000" stroke-miterlimit="10" stroke-width=".39699702000000003" d="M33.379 6.637h33.273m31.59 0h57.805m0 0h24.535"/><path fill="none" stroke="#000" stroke-miterlimit="10" stroke-width=".79299906" d="M66.652.715h31.59v11.848h-31.59Zm0 0"/><path fill="#FFF" stroke="#000" stroke-miterlimit="10" stroke-width=".39699702000000003" d="M34.957 6.637a1.579 1.579 0 0 0-3.156 0 1.58 1.58 0 0 0 1.578 1.582 1.58 1.58 0 0 0 1.578-1.582Zm0 0"/><use xlink:href="#c" x="77.3" y="22.359"/><use xlink:href="#d" x="82.554" y="24.233"/><path fill="#FFF" stroke="#000" stroke-miterlimit="10" stroke-width=".39699702000000003" d="M182.16 6.637a1.579 1.579 0 0 0-3.156 0 1.58 1.58 0 0 0 1.578 1.582 1.58 1.58 0 0 0 1.578-1.582Zm0 0"/><path fill="none" stroke="#000" stroke-miterlimit="10" stroke-width=".39699702000000003" d="M131.512 104.773V63.602m14.02-35.145v54.496m-14.02-35.144V6.637"/><path fill="none" stroke="#000" stroke-miterlimit="10" stroke-width=".79299906" d="m131.512 47.809 9.875 15.793H121.64Zm0 0"/><path fill="none" stroke="#000" stroke-miterlimit="10" stroke-width=".39699702000000003" d="M131.512 47.809v15.793"/><path fill="none" stroke="#000" stroke-miterlimit="10" stroke-width=".79299906" d="M121.64 47.809h19.747v3.16"/><path d="M133.094 104.773a1.58 1.58 0 0 0-3.16 0 1.58 1.58 0 0 0 3.16 0m0 0"/><g clip-path="url(#e)"><path fill="none" stroke="#000" stroke-miterlimit="10" stroke-width=".39699702000000003" d="M133.094 104.773a1.58 1.58 0 0 0-3.16 0 1.58 1.58 0 0 0 3.16 0Zm0 0"/></g><path stroke="#000" stroke-miterlimit="10" stroke-width=".39699702000000003" d="M133.094 6.637a1.58 1.58 0 1 0-3.16.003 1.58 1.58 0 0 0 3.16-.003ZM145.531 78.758h-1.972l1.972 4.195 1.973-4.195Zm0 0"/><use xlink:href="#f" x="147.71" y="58.196"/><use xlink:href="#g" x="152.171" y="58.196"/><use xlink:href="#h" x="154.018" y="58.196"/><use xlink:href="#i" x="159.959" y="58.196"/><path stroke="#000" stroke-miterlimit="10" stroke-width=".39699702000000003" d="M131.512 25.496h-1.973l1.973 4.195 1.976-4.195Zm0 0"/><use xlink:href="#j" x="121.139" y="29.167"/><use xlink:href="#k" x="123.646" y="31.04"/><path fill="none" stroke="#000" stroke-miterlimit="10" stroke-width=".39699702000000003" d="M180.582 6.637h16.355m0 0h16.356V39.91m0 31.59v33.273h-16.356m0 0h-16.355"/><path fill="#FFF" stroke="#000" stroke-miterlimit="10" stroke-width=".39699702000000003" d="M182.16 6.637a1.579 1.579 0 0 0-3.156 0 1.58 1.58 0 0 0 1.578 1.582 1.58 1.58 0 0 0 1.578-1.582Zm0 0"/><g clip-path="url(#l)"><path fill="none" stroke="#000" stroke-miterlimit="10" stroke-width=".79299906" d="M207.371 71.5V39.91h11.844V71.5Zm0 0"/></g><use xlink:href="#c" x="195.763" y="57.848"/><use xlink:href="#m" x="201.018" y="59.722"/><path d="M213.293 21.547h-1.973l1.973 4.195 1.973-4.195Zm0 0"/><g clip-path="url(#n)"><path fill="none" stroke="#000" stroke-miterlimit="10" stroke-width=".39699702000000003" d="M213.293 21.547h-1.973l1.973 4.195 1.973-4.195Zm0 0"/></g><use xlink:href="#j" x="203.46" y="25.219"/><use xlink:href="#m" x="205.967" y="27.091"/><path fill="#FFF" d="M182.16 104.773a1.579 1.579 0 1 0-3.157.002 1.579 1.579 0 0 0 3.157-.002m0 0"/><g clip-path="url(#o)"><path fill="none" stroke="#000" stroke-miterlimit="10" stroke-width=".39699702000000003" d="M182.16 104.773a1.579 1.579 0 1 0-3.157.002 1.579 1.579 0 0 0 3.157-.002Zm0 0"/></g><use xlink:href="#p" x="3.248" y="9.129"/><use xlink:href="#q" x="7.709" y="9.129"/><use xlink:href="#r" x="12.169" y="9.129"/><use xlink:href="#g" x="16.63" y="9.129"/><use xlink:href="#s" x="18.477" y="9.129"/><use xlink:href="#i" x="24.418" y="9.129"/><use xlink:href="#t" x="18.477" y="107.798"/><use xlink:href="#i" x="24.419" y="107.798"/></svg>