<svg xmlns="http://www.w3.org/2000/svg" xmlns:xlink="http://www.w3.org/1999/xlink" width="228.973" height="85.439"><defs><path id="d" d="m.938-3.828-.47.031c-.171.016-.234.078-.25.156a.6.6 0 0 0-.046.157c0 .015.031.015.062.015H.86L.313-1.047C.25-.766.188-.484.188-.328c0 .328.156.422.437.422.406 0 .984-.375 1.297-.922C1.89-.938 1.828-1 1.719-1c-.407.469-.563.547-.719.547-.016 0-.11-.016-.11-.11 0-.093.032-.265.094-.562l.532-2.344h.875c.109-.047.187-.281.078-.36h-.875l.093-.39c.032-.172.11-.437.11-.531 0-.156-.063-.25-.36-.25-.312 0-.296.406-.39.734Zm0 0"/><path id="e" d="m-.484-4.469-1.625.578v2.22l1.625.577.125-.672q.017-.124.093-.125.066 0 .266.094V.078a.2.2 0 0 1-.078.016Q-.342.096-.406-.22l-.063-.25-5.672-2.156-.078-.562 5.75-2.141.11-.39q.034-.125.093-.126.048 0 .266.094v1.906a.16.16 0 0 1-.078.016q-.246 0-.328-.297Zm-2.094 2.625v-1.875l-2.61.906v.032Zm0 0"/><path id="f" d="m-.469-7.062.125-.532q.017-.124.11-.125.129 0 .234.094v1.875a.1.1 0 0 1-.062.016c-.133 0-.235-.094-.297-.282l-.11-.328H-2.75c-.687 0-1.031.29-1.031.86 0 .449.164.843.484 1.187a4 4 0 0 1 .516-.047H-.47l.125-.531q.017-.124.11-.125.129 0 .234.078v1.89a.1.1 0 0 1-.062.016c-.133 0-.235-.093-.297-.28l-.11-.329H-2.75c-.687 0-1.031.29-1.031.86q.002.644.437 1.14h2.875l.125-.547c.012-.07.047-.11.11-.11q.129.001.234.079v1.89a.1.1 0 0 1-.062.016c-.133 0-.235-.094-.297-.281l-.11-.328H-3.78l-.094.64a.16.16 0 0 1-.078.016c-.156 0-.242-.11-.266-.328l-.11-1.047.595.047v-.031q-.64-.61-.641-1.422 0-.812.703-1.14-.703-.639-.703-1.516 0-.638.422-1 .41-.375 1.172-.375Zm0 0"/><path id="g" d="M1.313-.86h-5.094l-.094.657h-.078c-.156 0-.242-.11-.266-.328l-.11-1.047.595.062v-.03c-.426-.352-.641-.798-.641-1.329q.001-.763.547-1.203.55-.452 1.515-.453 1.173 0 1.782.61.579.562.578 1.577c0 .262-.04.516-.11.766h1.376l.125-.531c.007-.082.046-.125.109-.125a.36.36 0 0 1 .234.093v1.875a.13.13 0 0 1-.062.016q-.205 0-.297-.281Zm-5.11-1.734q.001.581.406 1.016h2.672q.282-.359.282-.828 0-1.373-1.829-1.375-.732 0-1.125.328-.405.314-.406.86m0 0"/><path id="h" d="M-.469-.86h-5.453l-.094.641a.1.1 0 0 1-.062.016q-.246 0-.281-.328l-.11-1.047h6l.125-.547q.017-.124.11-.125.129 0 .234.094v1.89h-.062c-.133 0-.235-.086-.297-.265Zm0 0"/><path id="i" d="M-.469-.906H-3.78l-.094.64a.16.16 0 0 1-.078.016c-.156 0-.242-.11-.266-.328l-.11-1.047h3.86l.125-.547c.012-.07.047-.11.11-.11q.129.001.234.079v1.89a.1.1 0 0 1-.062.016c-.133 0-.235-.094-.297-.281Zm-5.343.156a.5.5 0 0 1-.375-.14.53.53 0 0 1-.141-.376q0-.217.14-.359a.49.49 0 0 1 .375-.156q.236.002.375.156a.5.5 0 0 1 .125.36c0 .148-.039.273-.125.374a.5.5 0 0 1-.375.141m0 0"/><path id="j" d="M-4.281-.86-5.47-1.03v-.516h1.188V-2.89l.468.094v1.25h2.75q.657.001.657-.578c0-.3-.07-.55-.219-.75a.43.43 0 0 1 .25-.062q.112.001.266.25c.144.218.218.492.218.812Q.11-.826-.92-.828h-2.891v.672a.1.1 0 0 1-.063.015q-.216 0-.297-.28Zm0 0"/><path id="k" d="m-3.781-.781-.094.64a.16.16 0 0 1-.078.016c-.156 0-.242-.11-.266-.328l-.11-1.047h2.798q1.048 0 1.047-.89 0-.688-.438-1.11h-2.86l-.093.656h-.078c-.156 0-.242-.11-.266-.328l-.11-1.047h3.845l.078-.656h.078q.252 0 .281.328l.094 1h-.578v.016c.43.344.64.793.64 1.344q0 1.406-1.593 1.406Zm0 0"/><path id="l" d="M-.5-3.406v.031q.61.44.61 1.266 0 .737-.47 1.187-.543.533-1.656.531-1.156 0-1.812-.703-.546-.592-.547-1.484c0-.27.04-.524.11-.766h-1.657l-.094.64a.1.1 0 0 1-.062.017q-.246 0-.281-.329l-.11-1.046h5.985l.078-.657q.047-.013.078-.015.252 0 .281.328l.094 1Zm.031 1.094q0-.657-.39-1.032h-2.703q-.33.316-.329.844c0 .406.149.73.438.969q.486.39 1.312.39.846.001 1.282-.343.39-.295.39-.828m0 0"/><path id="m" d="M-2.172-1.156q.845-.012 1.297-.375c.305-.239.453-.57.453-1q0-.593-.422-1.11.064-.092.25-.109.205.001.438.406.265.47.265 1.11.002.815-.5 1.297c-.382.367-.941.546-1.671.546q-1.09.001-1.735-.578a1.7 1.7 0 0 1-.578-1.297q.001-.702.406-1.093.41-.36 1.078-.36.299 0 .72.094Zm-1.75-1.031q.002.909 1.328 1.015v-1.75a1.4 1.4 0 0 0-.375-.047q-.951.001-.953.781m0 0"/><clipPath id="a"><path d="M219 35h9.21v15H219Zm0 0"/></clipPath><clipPath id="b"><path d="M14 3h2v81.883h-2Zm0 0"/></clipPath><clipPath id="c"><path d="M15.117 3H75v79H15.117Zm0 0"/></clipPath></defs><path fill="none" stroke="#000" stroke-miterlimit="10" stroke-width=".39639852000000003" d="M15.117 42.441h209.45"/><path d="m227.621 42.441-2.953-1.754v3.504Zm0 0"/><g clip-path="url(#a)"><path fill="none" stroke="#000" stroke-miterlimit="10" stroke-width=".39639852000000003" d="m227.621 42.441-2.953-1.754v3.504Zm0 0"/></g><g clip-path="url(#b)"><path fill="none" stroke="#000" stroke-miterlimit="10" stroke-width=".39639852000000003" d="M15.117 84.684V3.648"/></g><path stroke="#000" stroke-miterlimit="10" stroke-width=".39639852000000003" d="m15.117.594-1.75 2.953h3.504Zm0 0"/><g clip-path="url(#c)"><path fill="none" stroke="#000" stroke-miterlimit="10" stroke-width=".7918035600000001" d="m15.117 14.277.164.305.16.906.16 1.489.165 2.039.16 2.543.164 2.996.16 3.379.164 3.695.16 3.93.16 4.074.164 4.14.16 4.106.165 3.992.16 3.79.164 3.5.16 3.14.16 2.715.164 2.222.16 1.688.164 1.117.16.52.165-.086.16-.692L19 68.5l.164-1.844.16-2.37.164-2.84.16-3.25.165-3.594.16-3.852.16-4.035.164-4.125.16-4.13.164-4.042.16-3.871.164-3.613.16-3.278.16-2.875.165-2.402.16-1.887.164-1.324.16-.734.164-.13.16.477.16 1.074.165 1.649.16 2.187.164 2.68.16 3.113.164 3.477.16 3.77.16 3.98.164 4.101.16 4.141.165 4.082.16 3.942.164 3.714.16 3.407.16 3.027.164 2.578.16 2.074.164 1.528.16.949.165.348.16-.262.16-.863.164-1.446.16-2 .164-2.511.16-2.965.164-3.356.16-3.676.16-3.914.165-4.066.16-4.137.164-4.113.16-4.004.164-3.805.16-3.523.16-3.172.165-2.742.16-2.262.164-1.73.16-1.157.164-.562.16.043.16.648.164 1.243.16 1.808.165 2.332.16 2.809.164 3.222.16 3.57.16 3.84.164 4.024.16 4.121.164 4.133.16 4.05.165 3.887.16 3.633.16 3.305.164 2.902.16 2.442.164 1.922.16 1.367.164.777.16.176.16-.434.165-1.035.16-1.61.164-2.148.16-2.644.164-3.086.16-3.453.16-3.754.165-3.965.16-4.098.164-4.14.16-4.09.164-3.953.16-3.735.16-3.43.164-3.054.16-2.613.165-2.114.16-1.566.164-.992.16-.39.16.218.164.82.16 1.406.164 1.961.16 2.473.165 2.938.16 3.328.16 3.656.164 3.898.16 4.063.164 4.133.16 4.117.165 4.015.16 3.82.16 3.548.164 3.199.16 2.777.164 2.297.16 1.766.164 1.203.16.605h.16l.165-.605.16-1.203.164-1.766.16-2.297.164-2.777.16-3.2.16-3.546.165-3.82.16-4.016.164-4.117.16-4.133.164-4.063.16-3.898.16-3.656.164-3.328.16-2.934.165-2.477.16-1.96.164-1.407.16-.82.16-.219.164.39.16.993.164 1.566.16 2.114.165 2.613.16 3.055.16 3.43.164 3.734.16 3.953.164 4.09.16 4.14.164 4.098.16 3.965.16 3.754.165 3.453.16 3.086.164 2.644.16 2.149.164 1.61.16 1.034.16.434.165-.176.16-.777.164-1.367.16-1.922.164-2.442.16-2.902.16-3.305.164-3.633.16-3.886.165-4.051.16-4.133.164-4.121.16-4.023.16-3.84.164-3.57.16-3.223.164-2.809.16-2.332.165-1.808.16-1.243.16-.648.164-.043.16.562.164 1.157.16 1.73.16 2.262.165 2.742.16 3.172.164 3.523.16 3.805.164 4.004.16 4.113.16 4.137.164 4.066.16 3.914.165 3.676.16 3.356.164 2.965.16 2.511.16 2 .164 1.446.16.863.164.262.16-.348.165-.95.16-1.527.16-2.074.164-2.578.16-3.027.164-3.407.16-3.714.164-3.942.16-4.082.16-4.14.165-4.102.16-3.98.164-3.77.16-3.477.164-3.113.16-2.68.16-2.187.165-1.649.16-1.074.164-.476.16.129.164.734.16 1.324.16 1.887.164 2.402.16 2.875.165 3.278.16 3.613.164 3.871.16 4.043.16 4.129.164 4.125.16 4.035.165 3.852.16 3.593.164 3.25.16 2.84.16 2.371.164 1.844.16 1.285.164.692.16.085.165-.519.16-1.117.16-1.688.164-2.222.16-2.715.164-3.14.16-3.5.164-3.79.16-3.992.16-4.106.165-4.14.16-4.074.164-3.93.16-3.695.164-3.38.16-2.995.16-2.543.165-2.04.16-1.488.164-.906.16-.305"/></g><path fill="none" stroke="#000" stroke-miterlimit="10" stroke-width=".7918035600000001" d="m63.504 14.277.164.078.16.227.16.379.164.527.16.672.165.817.16.953.164 1.086.16 1.21.16 1.333.164 1.445.16 1.55.164 1.645.16 1.735.165 1.812.16 1.883.16 1.941.164 1.989.16 2.023.164 2.05.16 2.067.164 2.074.16 2.063.16 2.043.165 2.016.16 1.976.164 1.926.16 1.863.164 1.79.16 1.71.16 1.621.165 1.52.16 1.414.164 1.3.16 1.176.164 1.047.16.914.16.774.164.633.16.484.165.336.16.183.164.036.16-.121.16-.27.164-.422.16-.57.164-.715.16-.852.165-.992.16-1.12.16-1.25.164-1.364.16-1.477.164-1.578.16-1.672.164-1.758.16-1.835.16-1.899.165-1.953.16-2 .164-2.035.16-2.059.164-2.066.16-2.07.16-2.06.165-2.038.16-2.004.164-1.965.16-1.906.164-1.844.16-1.77.16-1.687.164-1.59.16-1.492.165-1.383.16-1.261.164-1.141.16-1.012.16-.875.164-.734.16-.59.165-.441.16-.293.164-.141.16.012.16.16.164.316.16.465.164.61.16.753.165.895.16 1.031.16 1.156.164 1.282.16 1.398.164 1.504.16 1.61.164 1.695.16 1.78.16 1.856.165 1.914.16 1.97.164 2.01.16 2.044.164 2.058.32 4.141.165 2.055.16 2.027.164 1.996.16 1.946.164 1.89.16 1.824.16 1.746.164 1.66.16 1.567.165 1.461.16 1.348.164 1.23.16 1.102.16.972.164.836.16.692.164.55.16.399.165.25.16.098.16-.055.164-.207.16-.356.164-.507.16-.653.164-.793.16-.933.16-1.067.165-1.195.16-1.316.164-1.43.16-1.535.164-1.633.16-1.723.16-1.8.165-1.876.16-1.93.164-1.984.16-2.02.164-2.046.16-2.066.16-2.07.164-2.067.16-2.047.165-2.023.16-1.981.164-1.934.16-1.87.16-1.801.164-1.723.16-1.637.164-1.535.16-1.43.16-1.312.165-1.195.16-1.067.164-.933.16-.797.164-.653.16-.504.16-.359.165-.203.16-.055.164.098.16.25.164.398.16.547.16.696.164.835.16.973.165 1.102.16 1.23.164 1.348.16 1.46.16 1.563.164 1.66.16 1.746.164 1.825.16 1.89.165 1.95.16 1.992.16 2.031.164 2.055.16 2.066.164 2.07.16 2.063.165 2.043.16 2.008.16 1.968.164 1.918.16 1.852.164 1.781.16 1.7.164 1.605.16 1.508.16 1.394.165 1.285.16 1.157.164 1.03.16.892.164.757.16.61.16.465.165.312.16.164.164.012.16-.14.164-.294.16-.445.16-.59.164-.734.16-.875.165-1.008.16-1.14.164-1.266.16-1.38.16-1.491.164-1.594.16-1.684.164-1.77.16-1.843.165-1.91.16-1.961.16-2.004.164-2.04.16-2.058.164-2.07.16-2.07.164-2.055.16-2.035.16-2 .165-1.953.16-1.903.164-1.832.16-1.758.164-1.671.16-1.579.16-1.476.165-1.367.16-1.246.164-1.121.16-.993.164-.855.16-.711.16-.57.164-.422.16-.27.165-.12.16.03.164.188.16.332.16.488.164.63.16.776.164.915.16 1.046.165 1.176.16 1.297.16 1.414.164 1.524.16 1.617.164 1.71.16 1.794.164 1.863.16 1.922.16 1.976.165 2.016.16 2.047.164 2.062.16 2.07.164 2.067.16 2.05.16 2.028.165 1.988.16 1.942.164 1.879.16 1.812.164 1.735.16 1.648.16 1.55.164 1.446.16 1.332.165 1.211.16 1.086.164.953.16.813.16.676.164.527.16.375.164.23.16.075M111.89 70.602l.165-.305.16-.902.16-1.489.164-2.039.16-2.543.164-2.996.16-3.383.165-3.691.16-3.93.16-4.078.164-4.137.16-4.109.164-3.988.16-3.79.164-3.503.16-3.14.16-2.712.165-2.222.16-1.692.164-1.113.16-.524.164.09.16.692.16 1.28.165 1.849.16 2.367.164 2.843.16 3.25.164 3.59.16 3.856.16 4.035.164 4.125.16 4.129.165 4.043.16 3.87.164 3.614.16 3.278.16 2.87.164 2.407.16 1.883.164 1.324.16.738.165.13.16-.477.16-1.075.164-1.648.16-2.188.164-2.68.16-3.113.164-3.48.16-3.77.16-3.976.165-4.106.16-4.136.164-4.086.16-3.942.164-3.715.16-3.406.16-3.023.165-2.578.16-2.075.164-1.53.16-.946.164-.348.16.258.16.863.164 1.45.16 2 .165 2.507.16 2.965.164 3.36.16 3.671.16 3.915.164 4.07.16 4.137.164 4.113.16 4.004.165 3.804.16 3.524.16 3.168.164 2.746.16 2.262.164 1.726.16 1.16.164.563.16-.043.16-.649.165-1.242.16-1.808.164-2.332.16-2.809.164-3.227.16-3.57.16-3.836.165-4.023.16-4.121.164-4.133.16-4.055.164-3.883.16-3.636.16-3.305.164-2.902.16-2.438.165-1.926.16-1.363.164-.781.16-.172.16.434.164 1.03.16 1.61.164 2.153.16 2.644.16 3.082.165 3.457.16 3.75.164 3.969.16 4.098.164 4.136.16 4.094.16 3.953.165 3.734.16 3.43.164 3.055.16 2.613.164 2.11.16 1.57.16.992.164.39.16-.218.165-.82.16-1.407.164-1.96.16-2.477.16-2.934.164-3.332.16-3.652.165-3.902.16-4.06.164-4.132.16-4.121.16-4.012.164-3.824.16-3.547.164-3.195.16-2.777.165-2.297.16-1.77.16-1.2.164-.605h.16l.164.606.16 1.2.164 1.769.16 2.297.16 2.777.165 3.195.16 3.547.164 3.824.16 4.012.164 4.117.16 4.137.16 4.059.165 3.902.16 3.652.164 3.332.16 2.934.164 2.476.16 1.961.16 1.407.164.82.16.219.165-.391.16-.992.164-1.567.16-2.113.16-2.613.164-3.055.16-3.43.164-3.734.16-3.953.165-4.094.16-4.136.16-4.098.164-3.969.16-3.75.164-3.453.16-3.086.164-2.644.16-2.153.16-1.61.165-1.03.16-.434.164.172.16.781.164 1.363.16 1.926.16 2.438.165 2.902.16 3.305.164 3.636.16 3.883.164 4.055.16 4.129.16 4.125.164 4.023.16 3.836.165 3.57.16 3.227.164 2.809.16 2.332.16 1.808.164 1.242.16.649.164.043.16-.563.165-1.16.16-1.726.16-2.262.164-2.746.16-3.168.164-3.524.16-3.804.165-4.004.16-4.113.16-4.137.164-4.07.16-3.915.164-3.671.16-3.36.164-2.965.16-2.507.16-2 .165-1.446.16-.867.164-.258.16.348.164.945.16 1.531.16 2.075.165 2.578.16 3.023.164 3.406.16 3.715.164 3.942.16 4.086.16 4.136.164 4.106.16 3.976.165 3.77.16 3.48.164 3.114.16 2.675.16 2.192.164 1.648.16 1.075.164.476.16-.129.165-.738.16-1.324.16-1.883.164-2.406.16-2.871.164-3.278.16-3.613.164-3.871.16-4.043.16-4.129.165-4.125.16-4.035.164-3.856.16-3.59.164-3.25.16-2.843.16-2.367.165-1.848.16-1.281.164-.692.16-.09.164.52.16 1.117.16 1.692.164 2.222.16 2.711.165 3.14.16 3.505.164 3.785.16 3.992.16 4.11.164 4.136.16 4.078.164 3.926.16 3.695.165 3.383.16 2.996.16 2.543.164 2.04.16 1.488.164.902.16.305M160.277 70.602l.164-.075.16-.23.16-.375.165-.527.16-.676.164-.813.16-.953.164-1.086.16-1.21.16-1.333.165-1.445.16-1.55.164-1.65.16-1.734.164-1.812.16-1.88.16-1.94.164-1.989.16-2.027.165-2.05.16-2.067.164-2.07.16-2.063.16-2.047.164-2.016.16-1.972.164-1.926.16-1.863.165-1.793.16-1.711.16-1.617.164-1.524.16-1.41.164-1.3.16-1.177.165-1.046.16-.915.16-.777.164-.629.16-.484.164-.336.16-.188.164-.03.16.12.16.27.165.422.16.57.164.71.16.856.164.993.16 1.12.16 1.247.165 1.367.16 1.476.164 1.579.16 1.671.164 1.758.16 1.832.16 1.903.164 1.953.16 2 .165 2.035.16 2.055.16 2.07.164 2.07.16 2.059.164 2.039.16 2.004.164 1.96.16 1.91.16 1.845.165 1.77.16 1.683.164 1.594.16 1.492.164 1.379.16 1.265.16 1.14.165 1.009.16.875.164.734.16.59.164.445.16.293.16.14.164-.01.16-.165.165-.312.16-.465.164-.61.16-.757.16-.891.164-1.031.16-1.157.164-1.28.16-1.4.165-1.507.16-1.606.16-1.699.164-1.781.16-1.852.164-1.918.16-1.968.164-2.008.16-2.043.16-2.063.165-2.07.16-2.066.164-2.055.16-2.031.164-1.992.16-1.95.16-1.89.165-1.825.16-1.746.164-1.66.16-1.562.164-1.461.16-1.348.16-1.23.164-1.102.16-.973.165-.835.16-.696.164-.547.16-.398.16-.25.164-.098.16.055.164.203.16.36.165.503.16.653.16.797.164.933.16 1.067.164 1.195.16 1.312.164 1.43.16 1.535.16 1.637.165 1.723.16 1.8.164 1.871.16 1.934.164 1.98.16 2.024.16 2.047.165 2.066.16 2.07.164 2.067.16 2.047.164 2.02.16 1.984.16 1.93.164 1.874.16 1.801.165 1.723.16 1.633.164 1.535.16 1.43.16 1.316.164 1.195.16 1.067.165.933.16.793.164.653.16.507.16.356.164.207.16.055.164-.098.16-.25.165-.399.16-.55.16-.692.164-.836.16-.972.164-1.102.16-1.23.164-1.348.16-1.46.16-1.567.165-1.66.16-1.747.164-1.824.16-1.89.164-1.946.16-1.996.16-2.027.165-2.055.16-2.07.164-2.07.16-2.06.164-2.042.16-2.012.16-1.969.164-1.914.16-1.855.165-1.781.16-1.696.164-1.609.16-1.504.16-1.398.164-1.282.16-1.156.164-1.031.16-.895.165-.754.16-.609.16-.465.164-.316.16-.16.164-.012.16.14.164.294.16.441.16.59.165.734.16.875.164 1.012.16 1.14.164 1.262.16 1.383.16 1.492.165 1.59.16 1.688.164 1.77.16 1.843.164 1.906.16 1.965.16 2.004.164 2.039.16 2.059.165 2.07.16 2.066.164 2.059.16 2.035.16 2 .164 1.953.16 1.899.164 1.835.16 1.758.165 1.672.16 1.578.16 1.477.164 1.363.16 1.25.164 1.121.16.992.164.852.16.715.16.57.165.422.16.27.164.12.16-.035.164-.183.16-.336.16-.484.165-.633.16-.774.164-.914.16-1.047.164-1.175.16-1.301.16-1.414.164-1.52.16-1.62.165-1.712.16-1.789.164-1.863.16-1.926.16-1.976.164-2.016.16-2.043.165-2.063.16-2.07.164-2.07.16-2.051.16-2.023.164-1.989.16-1.941.164-1.883.16-1.812.165-1.735.16-1.644.16-1.551.164-1.445.16-1.332.164-1.211.16-1.086.164-.953.16-.817.16-.672.165-.527.16-.379.164-.227.16-.078"/><use xlink:href="#d" x="222.826" y="50.605"/><use xlink:href="#e" x="10.169" y="44.048"/><use xlink:href="#f" x="10.169" y="38.24"/><use xlink:href="#g" x="10.169" y="30.392"/><use xlink:href="#h" x="10.169" y="25.502"/><use xlink:href="#i" x="10.169" y="23.016"/><use xlink:href="#j" x="10.169" y="20.531"/><use xlink:href="#k" x="10.169" y="17.502"/><use xlink:href="#l" x="10.169" y="12.434"/><use xlink:href="#m" x="10.169" y="7.517"/></svg>