<svg xmlns="http://www.w3.org/2000/svg" width="397.986" height="434.694"><defs><clipPath id="a"><path d="M192 172h36v262.387h-36Zm0 0"/></clipPath><clipPath id="b"><path d="M192 422h36v12.387h-36Zm0 0"/></clipPath><clipPath id="c"><path d="M192 365h36v69.387h-36Zm0 0"/></clipPath><clipPath id="d"><path d="M5 2h392.84v112H5Zm0 0"/></clipPath></defs><g clip-path="url(#a)"><path fill="none" stroke="#000" stroke-linecap="round" stroke-linejoin="round" stroke-miterlimit="10" stroke-width=".9953027999999999" d="M193.39 433.89V207.266l16.997-33.992m-5.668 249.286V195.937l5.668-22.664m16.996 249.286V195.937l-16.996-22.664m5.664 260.618V207.265l-5.664-33.992"/></g><path fill="none" stroke="#000" stroke-linecap="round" stroke-linejoin="round" stroke-miterlimit="10" stroke-width="1.9916049" d="M210.387 201.601V59.965"/><path fill="none" stroke="#000" stroke-linecap="round" stroke-linejoin="round" stroke-miterlimit="10" stroke-width=".9953027999999999" d="m193.39 207.265 33.993-11.328m-11.332 11.328-11.332-11.328"/><g clip-path="url(#b)"><path fill="none" stroke="#000" stroke-linecap="round" stroke-linejoin="round" stroke-miterlimit="10" stroke-width=".9953027999999999" d="M193.39 433.89h22.66l11.333-11.331h-22.664Zm0 0"/></g><path fill="none" stroke="#000" stroke-linecap="round" stroke-linejoin="round" stroke-miterlimit="10" stroke-width=".9953027999999999" d="M193.39 377.234h22.66l11.333-11.332h-22.664ZM193.39 320.578h22.66l11.333-11.328h-22.664ZM193.39 263.922h22.66l11.333-11.328h-22.664ZM193.39 207.265h22.66l11.333-11.328h-22.664Zm0 0"/><g clip-path="url(#c)"><path fill="none" stroke="#000" stroke-linecap="round" stroke-linejoin="round" stroke-miterlimit="10" stroke-width=".9953027999999999" d="m193.39 433.89 22.66-56.656m0 56.657 11.333-67.989m0 56.657-22.664-56.657m0 56.657-11.328-45.325"/></g><path fill="none" stroke="#000" stroke-linecap="round" stroke-linejoin="round" stroke-miterlimit="10" stroke-width=".9953027999999999" d="m193.39 377.234 22.66-56.656m0 56.656 11.333-67.984m0 56.652-22.664-56.652m0 56.652-11.328-45.324M193.39 320.578l22.66-56.656m0 56.656 11.333-67.984m0 56.656-22.664-56.656m0 56.656-11.328-45.328M193.39 263.922l22.66-56.657m0 56.657 11.333-67.985m0 56.657-22.664-56.657m0 56.657-11.328-45.329"/><path fill="none" stroke="#000" stroke-linecap="round" stroke-linejoin="round" stroke-miterlimit="10" stroke-width="1.5928842" d="M344.23 59.976H46.8"/><g clip-path="url(#d)"><path fill="none" stroke="#000" stroke-linecap="round" stroke-linejoin="round" stroke-miterlimit="10" stroke-width=".9953027999999999" d="M291.117 113.09 397.344 6.863m-259.196 97.73 89.235-89.234m-142.34 87.11 84.98-84.98M6.433 100.343l80.735-80.735m104.098 80.594v.281c0 3.442 1.972 4.258 4.406 1.824l84.668-84.664c2.433-2.433 4.406-7.195 4.406-10.636v-.286c0-3.441-1.973-4.257-4.406-1.824l-84.668 84.664c-2.434 2.434-4.406 7.2-4.406 10.64m0 0"/></g><path fill="none" stroke="#000" stroke-linecap="round" stroke-linejoin="round" stroke-miterlimit="10" stroke-width="4.9775133" d="M233.758 59.976h8.496"/></svg>