<svg xmlns="http://www.w3.org/2000/svg" width="113.495" height="96.168"><defs><clipPath id="a"><path d="M.238 92H4v3.344H.238Zm0 0"/></clipPath><clipPath id="b"><path d="M.238 86H10v9.344H.238Zm0 0"/></clipPath><clipPath id="c"><path d="M41 92h4v3.344h-4Zm0 0"/></clipPath><clipPath id="d"><path d="M35 86h16v9.344H35Zm0 0"/></clipPath><clipPath id="e"><path d="M109 92h3.758v3.344H109Zm0 0"/></clipPath><clipPath id="f"><path d="M103 86h9.758v9.344H103Zm0 0"/></clipPath><clipPath id="g"><path d="M.238 10H4v4H.238Zm0 0"/></clipPath><clipPath id="h"><path d="M.238 4H10v15H.238Zm0 0"/></clipPath><clipPath id="i"><path d="M109 10h3.758v4H109Zm0 0"/></clipPath><clipPath id="j"><path d="M103 4h9.758v15H103Zm0 0"/></clipPath></defs><path fill="none" stroke="#000" stroke-miterlimit="10" stroke-width=".39557658" d="M2.008 93.574H22.44m0 0H76.93m0 0h34.058"/><g clip-path="url(#a)"><path fill="#FFF" d="M3.582 93.574a1.575 1.575 0 0 0-3.148 0 1.574 1.574 0 0 0 3.148 0m0 0"/></g><g clip-path="url(#b)"><path fill="none" stroke="#000" stroke-miterlimit="10" stroke-width=".39557658" d="M3.582 93.574a1.575 1.575 0 0 0-3.148 0 1.574 1.574 0 0 0 3.148 0Zm0 0"/></g><g clip-path="url(#c)"><path d="M44.45 93.574a1.575 1.575 0 0 0-3.15 0c0 .867.704 1.57 1.575 1.57.867 0 1.574-.703 1.574-1.57m0 0"/></g><g clip-path="url(#d)"><path fill="none" stroke="#000" stroke-miterlimit="10" stroke-width=".39557658" d="M44.45 93.574a1.575 1.575 0 0 0-3.15 0c0 .867.704 1.57 1.575 1.57.867 0 1.574-.703 1.574-1.57Zm0 0"/></g><g clip-path="url(#e)"><path fill="#FFF" d="M112.563 93.574a1.575 1.575 0 0 0-3.149 0 1.574 1.574 0 0 0 3.148 0m0 0"/></g><g clip-path="url(#f)"><path fill="none" stroke="#000" stroke-miterlimit="10" stroke-width=".39557658" d="M112.563 93.574a1.575 1.575 0 0 0-3.149 0 1.574 1.574 0 0 0 3.148 0Zm0 0"/></g><path fill="none" stroke="#000" stroke-miterlimit="10" stroke-width=".39557658" d="M2.008 11.836h16.617m7.629 0h35.422m30.512 0h18.8"/><path fill="none" stroke="#000" stroke-miterlimit="10" stroke-width=".7901617400000001" d="M18.625.395V23.28M26.254.395V23.28"/><g clip-path="url(#g)"><path fill="#FFF" d="M3.582 11.836a1.575 1.575 0 1 0-3.148 0 1.575 1.575 0 0 0 3.148 0m0 0"/></g><g clip-path="url(#h)"><path fill="none" stroke="#000" stroke-miterlimit="10" stroke-width=".39557658" d="M3.582 11.836a1.575 1.575 0 1 0-3.148 0 1.575 1.575 0 0 0 3.148 0Zm0 0"/></g><path stroke="#000" stroke-miterlimit="10" stroke-width=".39557658" d="M44.45 11.836a1.575 1.575 0 1 0-3.148 0 1.575 1.575 0 0 0 3.147 0Zm0 0"/><path fill="none" stroke="#000" stroke-linejoin="bevel" stroke-miterlimit="10" stroke-width=".7901617400000001" d="M61.277 11.996c0-3.16 1.754-5.723 3.914-5.723s3.914 2.563 3.914 5.723c0-3.16 1.75-5.723 3.915-5.723 2.16 0 3.91 2.563 3.91 5.723 0-3.16 1.754-5.723 3.914-5.723s3.914 2.563 3.914 5.723c0-3.16 1.75-5.723 3.914-5.723 2.16 0 3.91 2.563 3.91 5.723"/><g clip-path="url(#i)"><path fill="#FFF" d="M112.563 11.836a1.575 1.575 0 1 0-3.148 0 1.575 1.575 0 0 0 3.147 0m0 0"/></g><g clip-path="url(#j)"><path fill="none" stroke="#000" stroke-miterlimit="10" stroke-width=".39557658" d="M112.563 11.836a1.575 1.575 0 1 0-3.148 0 1.575 1.575 0 0 0 3.148 0Zm0 0"/></g><path fill="none" stroke="#000" stroke-miterlimit="10" stroke-width=".39557658" d="M42.875 93.574V56.52m0-7.63V11.837"/><path fill="none" stroke="#000" stroke-miterlimit="10" stroke-width=".7901617400000001" d="M31.434 56.52h22.882m-22.882-7.63h22.882"/></svg>