<svg xmlns="http://www.w3.org/2000/svg" xmlns:xlink="http://www.w3.org/1999/xlink" width="226.772" height="20.639"><defs><path id="a" d="M1.11-5.734h2.515l-.047.765H1.5l-.11 1.407c.852.03 1.473.21 1.86.53q.53.458.531 1.36c0 .492-.18.914-.531 1.266Q2.718.11 1.875.109 1.154.108.813-.156q-.282-.2-.282-.5 0-.405.39-.547.171.362.282.484.294.345.828.344c.344 0 .617-.113.828-.344q.282-.292.282-.797-.001-.714-.547-1.03c-.367-.22-.953-.329-1.766-.329Zm0 0"/><path id="b" d="M.875-.922q.247 0 .406.219.172.205.172.562 0 .574-.375.985-.315.311-.61.312c-.093 0-.163-.078-.202-.234Q.84.622.875.047a.5.5 0 0 1-.344-.125.47.47 0 0 1-.14-.344q0-.217.14-.36a.47.47 0 0 1 .344-.14m0 0"/><path id="c" d="m.125-1.953 2.5-3.75.656-.047v3.578h.735l-.047.672H3.28v1.016l.61.125q.124.034.125.093c0 .032-.04.121-.11.266H1.891a.16.16 0 0 1-.016-.078q0-.247.297-.313l.39-.093V-1.5H.156Zm.719-.219h1.719v-2.656H2.53L.844-2.188Zm0 0"/><path id="d" d="M5.75-6.078c.008.023.016.047.016.078 0 .168-.102.273-.297.313l-.235.062-2 5.625h-.718L.453-5.625l-.375-.094q-.124-.028-.125-.11c0-.05.035-.132.094-.25h1.969V-6c0 .156-.102.262-.297.313l-.375.078L2.969-.891h.015l1.672-4.734-.672-.11q-.127-.029-.125-.093 0-.075.094-.25Zm0 0"/><path id="g" d="M.469-4.594q0-.544.062-1.14h3.532a.3.3 0 0 1 .046.187q-.002.189-.109.406L1.688 0h-.641l2.36-4.984H1.062l-.141.734a.5.5 0 0 1-.188.031c-.18 0-.265-.125-.265-.375m0 0"/><clipPath id="e"><path d="M94 0h39v20.285H94Zm0 0"/></clipPath><clipPath id="f"><path d="M105 0h1v20.285h-1Zm0 0"/></clipPath></defs><use xlink:href="#a" x="13.823" y="12.601"/><use xlink:href="#b" x="18.23" y="12.601"/><use xlink:href="#c" x="20.054" y="12.601"/><use xlink:href="#d" x="25.923" y="12.601"/><path fill="none" stroke="#000" stroke-miterlimit="10" stroke-width=".39214119000000003" d="M43.82 10.14h61.657m15.597 0h61.657"/><g clip-path="url(#e)"><path fill="none" stroke="#000" stroke-miterlimit="10" stroke-width=".7832995700000001" d="M105.477 10.14 121.074.39v19.5Zm0 0"/></g><path fill="none" stroke="#000" stroke-miterlimit="10" stroke-width=".39214119000000003" d="M105.477 10.14h15.597"/><g clip-path="url(#f)"><path fill="none" stroke="#000" stroke-miterlimit="10" stroke-width=".7832995700000001" d="M105.477 19.89V.39"/></g><use xlink:href="#c" x="194.909" y="12.601"/><use xlink:href="#b" x="199.315" y="12.601"/><use xlink:href="#g" x="201.139" y="12.601"/><use xlink:href="#d" x="207.008" y="12.601"/></svg>