<svg xmlns="http://www.w3.org/2000/svg" xmlns:xlink="http://www.w3.org/1999/xlink" width="225.68" height="111.914"><defs><path id="a" d="M2.406.094c.828 0 1.688-.422 2.422-1.219-.031-.078-.078-.125-.172-.125-.75.688-1.39.969-2.187.969C1.39-.281.953-1.187.953-2.234c0-.25.016-.5.063-.75.359-1.828 1.718-2.578 2.406-2.578 1.187 0 1.547.734 1.625 1.5l.25-.032c.016-.468.031-.906.078-1.39-.484-.032-.734-.407-1.797-.407-1.422 0-3 1.313-3.344 3.079-.03.218-.062.437-.062.656C.172-.97.844.094 2.406.094m0 0"/><path id="b" d="M2.063-.875v-2.484c0-.422 0-.86.015-.953 0-.032-.015-.032-.031-.032-.406.235-.781.422-1.406.703a.33.33 0 0 0 .109.204c.328-.141.484-.188.61-.188.124 0 .156.172.156.422v2.328c0 .594-.203.625-.703.656-.047.047-.047.188 0 .235C1.172 0 1.422 0 1.813 0c.343 0 .515 0 .875.016.03-.047.03-.188 0-.235-.5-.031-.626-.062-.626-.656m0 0"/><path id="c" d="M.438-3.344c0 .14.14.281.28.281.126 0 .345-.14.345-.296 0-.047-.016-.094-.032-.141-.015-.062-.062-.125-.062-.172 0-.187.187-.437.719-.437.25 0 .609.172.609.859 0 .453-.156.828-.578 1.266l-.532.515C.485-.75.375-.406.375.016c0 0 .36-.016.594-.016h1.25c.234 0 .562.016.562.016a8 8 0 0 0 .172-1.125c-.047-.047-.14-.063-.219-.047-.109.515-.234.687-.5.687H.97c0-.343.484-.828.531-.86l.719-.702c.406-.39.719-.703.719-1.25 0-.766-.641-1.078-1.22-1.078-.78 0-1.28.578-1.28 1.015m0 0"/><path id="g" d="M1.531-4.11c.313 0 .594.188.594.641 0 .36-.406.906-1.11 1l.032.235c.125-.016.25-.016.344-.016.406 0 .937.125.937.922 0 .953-.64 1.156-.89 1.156-.36 0-.422-.172-.516-.297a.34.34 0 0 0-.313-.187c-.14 0-.296.14-.296.25 0 .281.609.484 1.03.484.86 0 1.61-.562 1.61-1.5 0-.781-.578-1.062-1-1.14h-.016c.594-.282.75-.579.75-.954a.77.77 0 0 0-.218-.578c-.156-.156-.406-.265-.781-.265-1.047 0-1.344.687-1.344.922 0 .093.062.234.234.234.25 0 .281-.235.281-.375 0-.453.5-.531.672-.531m0 0"/><clipPath id="d"><path d="M221 60h4.36v5H221Zm0 0"/></clipPath><clipPath id="e"><path d="M216 55h9.36v15H216Zm0 0"/></clipPath><clipPath id="f"><path d="M108 87h10v24.793h-10Zm0 0"/></clipPath></defs><path fill="none" stroke="#000" stroke-miterlimit="10" stroke-width=".39843342000000004" d="M1.785 62.54h18.48m0 0H38.75"/><path fill="#FFF" stroke="#000" stroke-miterlimit="10" stroke-width=".39843342000000004" d="M3.367 62.54a1.584 1.584 0 1 0-3.168 0 1.585 1.585 0 1 0 3.168 0Zm0 0"/><path fill="#FFF" stroke="#000" stroke-miterlimit="10" stroke-width=".39843342000000004" d="M3.367 62.54a1.584 1.584 0 1 0-3.168 0 1.585 1.585 0 1 0 3.168 0Zm0 0"/><path fill="none" stroke="#000" stroke-miterlimit="10" stroke-width=".39843342000000004" d="M38.75 62.54V44.058m0 0V25.574h33.004m7.926 0h66.004m7.925 0h33.004V44.06m0 0v18.48h36.965"/><path stroke="#000" stroke-miterlimit="10" stroke-width=".39843342000000004" d="M40.336 62.54a1.587 1.587 0 0 0-3.172 0 1.587 1.587 0 0 0 3.172 0Zm0 0"/><path fill="none" stroke="#000" stroke-miterlimit="10" stroke-width=".7958682600000001" d="M71.754 13.684V37.46m7.926-23.777V37.46"/><use xlink:href="#a" x="71.408" y="9.273"/><use xlink:href="#b" x="76.306" y="11.154"/><path fill="none" stroke="#000" stroke-miterlimit="10" stroke-width=".7958682600000001" d="M145.684 13.684V37.46m7.925-23.777V37.46"/><use xlink:href="#a" x="145.339" y="9.273"/><use xlink:href="#c" x="150.237" y="11.154"/><path stroke="#000" stroke-miterlimit="10" stroke-width=".39843342000000004" d="M188.2 62.54a1.587 1.587 0 0 0-3.173 0 1.587 1.587 0 0 0 3.172 0Zm0 0"/><g clip-path="url(#d)"><path fill="#FFF" d="M225.164 62.54a1.587 1.587 0 0 0-3.172 0 1.587 1.587 0 0 0 3.172 0m0 0"/></g><g clip-path="url(#e)"><path fill="none" stroke="#000" stroke-miterlimit="10" stroke-width=".39843342000000004" d="M225.164 62.54a1.587 1.587 0 0 0-3.172 0 1.587 1.587 0 0 0 3.172 0Zm0 0"/></g><path fill="none" stroke="#000" stroke-miterlimit="10" stroke-width=".39843342000000004" d="M38.75 62.54v36.964h69.969m7.926 0h69.968V62.539"/><g clip-path="url(#f)"><path fill="none" stroke="#000" stroke-miterlimit="10" stroke-width=".7958682600000001" d="M108.719 87.617v23.778m7.926-23.778v23.778"/></g><use xlink:href="#a" x="108.373" y="83.204"/><use xlink:href="#g" x="113.271" y="85.085"/></svg>