<svg xmlns="http://www.w3.org/2000/svg" xmlns:xlink="http://www.w3.org/1999/xlink" width="226.771" height="128.136"><defs><path id="a" d="M2.234-.39q1.092 0 1.094-2.5-.002-2.499-1.094-2.5c-.742 0-1.109.835-1.109 2.5 0 1.667.367 2.5 1.11 2.5m-.046.5q-.88.002-1.36-.735-.532-.796-.531-2.266c0-.976.187-1.734.562-2.265q.527-.734 1.407-.735.872 0 1.375.735.515.784.515 2.265 0 1.47-.562 2.266c-.344.492-.813.734-1.406.734m0 0"/><path id="b" d="M5.813-6.14c.007.023.015.046.015.077q0 .253-.312.313l-.22.063L3.267 0H2.53L.453-5.687l-.375-.094q-.124-.029-.125-.11c0-.05.035-.132.094-.25H2.03c.008.024.016.047.016.079q-.001.235-.313.312l-.375.078L3-.906h.016l1.703-4.781-.688-.11q-.127-.029-.125-.094 0-.074.094-.25Zm0 0"/><path id="e" d="M2.953-2.453H.547v-.531h2.406Zm0 0"/><path id="f" d="M2.016-.562v-4.422l-1.328.25a1 1 0 0 1-.016-.188Q.67-5.12.875-5.203l1.469-.594h.453v5.235l1.094.156q.124.016.125.11c0 .054-.04.151-.11.296H.86v-.078q0-.311.282-.36Zm0 0"/><path id="g" d="m.422-.453 1.5-1.719q.89-1.015.89-2-.001-1.249-.906-1.25-.362 0-.718.188a4 4 0 0 0-.11.875q-.11.016-.203.015-.422.001-.422-.343 0-.547.422-.875.42-.33 1.14-.329.734.001 1.172.407.453.408.454 1.156 0 .674-.422 1.36-.27.439-.89 1.109L1.343-.797v.016h2.015l.188-.766a.5.5 0 0 1 .187-.031q.235.002.235.344 0 .344-.094 1.234H.5Zm0 0"/><path id="h" d="m.125-1.984 2.531-3.782.656-.046v3.625h.75l-.046.671h-.703v1.032l.609.125q.124.017.125.093 0 .048-.094.266H1.906a.16.16 0 0 1-.015-.078c0-.164.101-.274.312-.328l.375-.078v-1.032H.156Zm.734-.203h1.72v-2.688h-.017L.86-2.203Zm0 0"/><path id="i" d="M.875-.922q.264 0 .422.219.17.205.172.562 0 .592-.375.985-.316.328-.61.328c-.093 0-.164-.078-.203-.234Q.855.621.891.046a.5.5 0 0 1-.344-.125.47.47 0 0 1-.14-.344c0-.156.038-.273.124-.36a.47.47 0 0 1 .344-.14m0 0"/><path id="j" d="M.484-4.64c0-.376.02-.758.063-1.157h3.562a.3.3 0 0 1 .047.188q-.002.188-.11.406L1.704 0h-.656l2.406-5.047H1.078l-.14.75a.46.46 0 0 1-.204.047q-.251 0-.25-.39m0 0"/><clipPath id="c"><path d="M19 114h15v13.277H19Zm0 0"/></clipPath><clipPath id="d"><path d="M191 114h15v13.277h-15Zm0 0"/></clipPath><clipPath id="k"><path d="M133 114h16v13.277h-16Zm0 0"/></clipPath></defs><path fill="none" stroke="#000" stroke-miterlimit="10" stroke-width=".39632670000000003" d="M26.434 121.184H83.71m0 0h85.918m0 0h28.637"/><use xlink:href="#a" x="11.558" y="124.203"/><use xlink:href="#b" x="17.49" y="124.203"/><path fill="#FFF" d="M28.012 121.184a1.579 1.579 0 0 0-3.157 0c0 .87.707 1.574 1.579 1.574.87 0 1.578-.703 1.578-1.574m0 0"/><g clip-path="url(#c)"><path fill="none" stroke="#000" stroke-miterlimit="10" stroke-width=".39632670000000003" d="M28.012 121.184a1.579 1.579 0 0 0-3.157 0c0 .87.708 1.574 1.579 1.574.87 0 1.578-.703 1.578-1.574Zm0 0"/></g><path fill="#FFF" d="M199.844 121.184c0-.871-.707-1.579-1.578-1.579-.868 0-1.575.707-1.575 1.579 0 .87.707 1.574 1.575 1.574.87 0 1.578-.703 1.578-1.574m0 0"/><g clip-path="url(#d)"><path fill="none" stroke="#000" stroke-miterlimit="10" stroke-width=".39632670000000003" d="M199.844 121.184c0-.871-.707-1.579-1.578-1.579-.868 0-1.575.708-1.575 1.579 0 .87.707 1.574 1.575 1.574.87 0 1.578-.703 1.578-1.574Zm0 0"/></g><path fill="none" stroke="#000" stroke-miterlimit="10" stroke-width=".39632670000000003" d="M26.434 6.629h41.511m31.535 0h70.149m0 0h28.637"/><use xlink:href="#e" x="3.614" y="9.702"/><use xlink:href="#f" x="7.105" y="9.702"/><use xlink:href="#g" x="11.558" y="9.702"/><use xlink:href="#b" x="17.49" y="9.702"/><path fill="none" stroke="#000" stroke-miterlimit="10" stroke-width=".7916601" d="M67.945.715H99.48v11.824H67.945Zm0 0"/><path fill="#FFF" stroke="#000" stroke-miterlimit="10" stroke-width=".39632670000000003" d="M28.012 6.629a1.579 1.579 0 0 0-3.157 0 1.578 1.578 0 0 0 3.157 0ZM199.844 6.629c0-.871-.707-1.578-1.578-1.578a1.577 1.577 0 1 0 1.578 1.578Zm0 0"/><use xlink:href="#e" x="201.432" y="9.114"/><use xlink:href="#h" x="204.923" y="9.114"/><use xlink:href="#i" x="209.376" y="9.114"/><use xlink:href="#j" x="211.22" y="9.114"/><use xlink:href="#b" x="217.151" y="9.114"/><path fill="none" stroke="#000" stroke-miterlimit="10" stroke-width=".39632670000000003" d="M140.988 121.184V71.789m0-15.77V6.63"/><path fill="none" stroke="#000" stroke-miterlimit="10" stroke-width=".7916601" d="m140.988 56.02 9.856 15.77h-19.711Zm0 0"/><path fill="none" stroke="#000" stroke-miterlimit="10" stroke-width=".39632670000000003" d="M140.988 56.02v15.77"/><path fill="none" stroke="#000" stroke-miterlimit="10" stroke-width=".7916601" d="M131.133 56.02h19.71v3.156"/><path d="M142.566 121.184a1.575 1.575 0 1 0-3.152 0 1.575 1.575 0 0 0 3.152 0m0 0"/><g clip-path="url(#k)"><path fill="none" stroke="#000" stroke-miterlimit="10" stroke-width=".39632670000000003" d="M142.566 121.184a1.575 1.575 0 1 0-3.152 0 1.575 1.575 0 0 0 3.152 0Zm0 0"/></g><path stroke="#000" stroke-miterlimit="10" stroke-width=".39632670000000003" d="M142.566 6.629a1.575 1.575 0 1 0-3.154-.005 1.575 1.575 0 0 0 3.154.005Zm0 0"/></svg>