<svg xmlns="http://www.w3.org/2000/svg" xmlns:xlink="http://www.w3.org/1999/xlink" width="113.386" height="100.196"><defs><path id="b" d="M2.938-2.453H.547v-.531h2.39Zm0 0"/><path id="c" d="M3.688-4.75a1.1 1.1 0 0 0-.329-.406 1.24 1.24 0 0 0-.734-.235q-1.376.001-1.469 2.329c.344-.258.742-.391 1.203-.391q.762 0 1.22.375c.331.273.5.687.5 1.25q-.002.783-.5 1.344c-.345.398-.794.593-1.345.593-.617 0-1.09-.257-1.421-.78Q.357-1.405.359-2.704q-.002-1.25.594-2.14.668-1.046 1.828-1.048.607.001.969.22.328.186.328.468c0 .242-.133.39-.39.453M1.156-2.61Q1.17-1.484 1.5-.921q.292.533.797.531.452.001.734-.343.281-.359.281-1.016-.001-1.202-1-1.203-.75.002-1.156.344m0 0"/><path id="d" d="M.875-.922q.264 0 .422.219.17.205.172.562 0 .574-.375.985-.316.328-.61.328c-.093 0-.164-.078-.203-.234Q.855.621.891.046a.5.5 0 0 1-.344-.125.47.47 0 0 1-.14-.344c0-.156.038-.273.124-.36a.47.47 0 0 1 .344-.14m0 0"/><path id="e" d="m.422-.453 1.5-1.719q.874-1.013.875-1.984 0-1.249-.89-1.25-.363 0-.72.172c-.062.242-.101.539-.109.89q-.11.017-.203.016c-.293 0-.437-.117-.437-.36q0-.545.421-.875.435-.328 1.157-.328.714 0 1.172.422.451.41.453 1.14 0 .693-.422 1.36-.27.44-.89 1.125L1.343-.797v.016h2.015l.188-.766a.5.5 0 0 1 .187-.031q.219.002.22.344Q3.952-.89 3.874 0H.5Zm0 0"/><path id="f" d="M5.813-6.14v.093c0 .156-.102.262-.297.313l-.235.046L3.266 0H2.53L.453-5.672l-.375-.094q-.124-.03-.125-.125c0-.05.035-.132.094-.25H2.03v.094c0 .156-.101.258-.297.297l-.375.094L3-.891h.016l1.687-4.796-.687-.094q-.127-.029-.125-.11c0-.039.03-.125.093-.25Zm0 0"/><path id="g" d="M2.219-.39c.726 0 1.094-.833 1.094-2.5 0-1.665-.368-2.5-1.094-2.5q-1.094.001-1.094 2.5-.001 2.5 1.094 2.5m-.031.5q-.88.002-1.36-.735-.532-.778-.531-2.266 0-1.464.562-2.25.527-.75 1.407-.75.873 0 1.359.75.516.786.516 2.25 0 1.47-.563 2.266c-.344.492-.808.734-1.39.734m0 0"/><path id="h" d="M1.125-5.781h2.531L3.61-5H1.516l-.11 1.406c.852.031 1.473.211 1.86.531q.546.456.547 1.376c0 .5-.18.93-.532 1.28Q2.747.11 1.891.11 1.17.108.813-.156a.61.61 0 0 1-.266-.516q0-.389.39-.531.171.362.282.484.293.345.828.344c.344 0 .617-.113.828-.344.195-.207.297-.476.297-.812q0-.732-.563-1.047-.55-.312-1.78-.313Zm0 0"/><clipPath id="a"><path d="M66 23h46.629v53H66Zm0 0"/></clipPath></defs><g clip-path="url(#a)"><path fill="none" stroke="#000" stroke-miterlimit="10" stroke-width=".7906558800000001" d="M106.871 49.434c0-8.067-6.535-14.602-14.598-14.602-8.062 0-14.601 6.535-14.601 14.602 0 8.062 6.539 14.597 14.601 14.597s14.598-6.535 14.598-14.597Zm0 0"/></g><path fill="none" stroke="#000" stroke-miterlimit="10" stroke-width=".39582396000000003" d="M98.934 27.582V40.77L87.12 46.184"/><path fill="none" stroke="#000" stroke-miterlimit="10" stroke-width=".7906558800000001" d="M87.121 40.77v17.324"/><path fill="none" stroke="#000" stroke-miterlimit="10" stroke-width=".39582396000000003" d="m87.121 52.68 11.813 5.414v13.191"/><path d="m91.281 54.586.946-2.063L95.89 56.7l-5.555-.05Zm0 0"/><path fill="none" stroke="#000" stroke-miterlimit="10" stroke-width=".39582396000000003" d="M87.121 49.434H75.113M75.309 49.434H57.234"/><use xlink:href="#b" x="3.111" y="51.913"/><use xlink:href="#c" x="6.598" y="51.913"/><use xlink:href="#d" x="11.045" y="51.913"/><use xlink:href="#e" x="12.887" y="51.913"/><use xlink:href="#f" x="18.811" y="51.913"/><use xlink:href="#g" x="93.083" y="9.102"/><use xlink:href="#f" x="99.007" y="9.102"/><use xlink:href="#b" x="88.195" y="95.26"/><use xlink:href="#h" x="91.682" y="95.26"/><use xlink:href="#d" x="96.13" y="95.26"/><use xlink:href="#c" x="97.971" y="95.26"/><use xlink:href="#f" x="103.895" y="95.26"/></svg>