<svg xmlns="http://www.w3.org/2000/svg" width="113.495" height="90.238"><defs><clipPath id="a"><path d="M.227 86H4v3.48H.227Zm0 0"/></clipPath><clipPath id="b"><path d="M.227 80H10v9.48H.227Zm0 0"/></clipPath><clipPath id="c"><path d="M109 86h3.77v3.48H109Zm0 0"/></clipPath><clipPath id="d"><path d="M103 80h9.77v9.48H103Zm0 0"/></clipPath><clipPath id="e"><path d="M.227 4H4v4H.227Zm0 0"/></clipPath><clipPath id="f"><path d="M.227 0H10v14H.227Zm0 0"/></clipPath><clipPath id="g"><path d="M27 86h4v3.48h-4Zm0 0"/></clipPath><clipPath id="h"><path d="M22 80h15v9.48H22Zm0 0"/></clipPath><clipPath id="i"><path d="M82 86h4v3.48h-4Zm0 0"/></clipPath><clipPath id="j"><path d="M76 80h15v9.48H76Zm0 0"/></clipPath></defs><path fill="none" stroke="#000" stroke-miterlimit="10" stroke-width=".39566037000000004" d="M1.996 87.71h13.625m0 0h25.617m30.52 0h25.617m0 0H111"/><g clip-path="url(#a)"><path fill="#FFF" d="M3.57 87.71a1.575 1.575 0 1 0-3.148 0 1.575 1.575 0 0 0 3.148 0m0 0"/></g><g clip-path="url(#b)"><path fill="none" stroke="#000" stroke-miterlimit="10" stroke-width=".39566037000000004" d="M3.57 87.71a1.575 1.575 0 1 0-3.148 0 1.575 1.575 0 0 0 3.148 0Zm0 0"/></g><path fill="none" stroke="#000" stroke-linejoin="bevel" stroke-miterlimit="10" stroke-width=".7903291100000001" d="M40.84 87.871c0-3.164 1.754-5.723 3.914-5.723 2.164 0 3.914 2.559 3.914 5.723 0-3.164 1.754-5.723 3.914-5.723 2.164 0 3.914 2.559 3.914 5.723 0-3.164 1.754-5.723 3.914-5.723 2.164 0 3.914 2.559 3.914 5.723 0-3.164 1.754-5.723 3.914-5.723 2.164 0 3.914 2.559 3.914 5.723"/><g clip-path="url(#c)"><path fill="#FFF" d="M112.574 87.71a1.575 1.575 0 1 0-3.148 0 1.575 1.575 0 0 0 3.148 0m0 0"/></g><g clip-path="url(#d)"><path fill="none" stroke="#000" stroke-miterlimit="10" stroke-width=".39566037000000004" d="M112.574 87.71a1.575 1.575 0 1 0-3.148 0 1.575 1.575 0 0 0 3.148 0Zm0 0"/></g><path fill="none" stroke="#000" stroke-miterlimit="10" stroke-width=".39566037000000004" d="M1.996 5.961h13.625m0 0h25.617m30.52 0h25.617m0 0H111"/><g clip-path="url(#e)"><path fill="#FFF" d="M3.57 5.96a1.575 1.575 0 0 0-3.148 0 1.574 1.574 0 0 0 3.148 0m0 0"/></g><g clip-path="url(#f)"><path fill="none" stroke="#000" stroke-miterlimit="10" stroke-width=".39566037000000004" d="M3.57 5.961a1.575 1.575 0 0 0-3.148 0 1.574 1.574 0 0 0 3.148 0Zm0 0"/></g><path fill="none" stroke="#000" stroke-linejoin="bevel" stroke-miterlimit="10" stroke-width=".7903291100000001" d="M40.84 6.117c0-3.16 1.754-5.722 3.914-5.722 2.164 0 3.914 2.562 3.914 5.722 0-3.16 1.754-5.722 3.914-5.722 2.164 0 3.914 2.562 3.914 5.722 0-3.16 1.754-5.722 3.914-5.722 2.164 0 3.914 2.562 3.914 5.722 0-3.16 1.754-5.722 3.914-5.722 2.164 0 3.914 2.562 3.914 5.722"/><path fill="none" stroke="#000" stroke-miterlimit="10" stroke-width=".39566037000000004" d="M29.246 87.71V50.649m0-7.628V5.96"/><path fill="none" stroke="#000" stroke-miterlimit="10" stroke-width=".7903291100000001" d="M17.8 50.648h22.891m-22.89-7.628h22.89"/><g clip-path="url(#g)"><path d="M30.82 87.71a1.575 1.575 0 1 0-3.149.002 1.575 1.575 0 0 0 3.15-.001m0 0"/></g><g clip-path="url(#h)"><path fill="none" stroke="#000" stroke-miterlimit="10" stroke-width=".39566037000000004" d="M30.82 87.71a1.575 1.575 0 1 0-3.149.002 1.575 1.575 0 0 0 3.15-.001Zm0 0"/></g><path stroke="#000" stroke-miterlimit="10" stroke-width=".39566037000000004" d="M30.82 5.961a1.575 1.575 0 0 0-3.148 0 1.574 1.574 0 0 0 3.148 0Zm0 0"/><path fill="none" stroke="#000" stroke-miterlimit="10" stroke-width=".39566037000000004" d="M83.75 87.71V50.649m0-7.628V5.96"/><path fill="none" stroke="#000" stroke-miterlimit="10" stroke-width=".7903291100000001" d="M72.3 50.648h22.895M72.301 43.02h22.894"/><g clip-path="url(#i)"><path d="M85.32 87.71c0-.866-.703-1.573-1.57-1.573a1.575 1.575 0 0 0 0 3.148c.867 0 1.57-.703 1.57-1.574m0 0"/></g><g clip-path="url(#j)"><path fill="none" stroke="#000" stroke-miterlimit="10" stroke-width=".39566037000000004" d="M85.32 87.71c0-.866-.703-1.573-1.57-1.573a1.575 1.575 0 0 0 0 3.148c.867 0 1.57-.703 1.57-1.574Zm0 0"/></g><path stroke="#000" stroke-miterlimit="10" stroke-width=".39566037000000004" d="M85.32 5.961a1.571 1.571 0 1 0-3.144 0c0 .867.703 1.57 1.574 1.57a1.57 1.57 0 0 0 1.57-1.57Zm0 0"/></svg>