<svg xmlns="http://www.w3.org/2000/svg" xmlns:xlink="http://www.w3.org/1999/xlink" width="113.386" height="100.051"><defs><path id="b" d="M2.469-3.016h1.547v.47H2.469v1.655h-.5v-1.656H.422v-.469h1.547v-1.64h.5Zm0 0"/><path id="c" d="m.422-.453 1.5-1.719c.582-.664.875-1.328.875-1.984 0-.82-.297-1.235-.89-1.235q-.363.001-.72.172a4 4 0 0 0-.109.875q-.11.017-.203.016-.438.001-.437-.344 0-.545.421-.875c.282-.219.664-.328 1.157-.328q.715.001 1.156.406.451.409.453 1.157-.001.675-.406 1.343-.268.44-.906 1.125l-.97 1.047v.031H3.36l.188-.78a.44.44 0 0 1 .187-.032q.219.002.22.344 0 .344-.095 1.234H.5Zm0 0"/><path id="d" d="M.875-.922q.264 0 .422.219.17.205.172.562 0 .574-.375.985-.328.328-.61.328c-.093 0-.164-.078-.203-.234Q.855.621.891.046a.5.5 0 0 1-.344-.125.47.47 0 0 1-.14-.344.5.5 0 0 1 .124-.36.47.47 0 0 1 .344-.14m0 0"/><path id="e" d="M2.219-.39c.726 0 1.094-.833 1.094-2.5 0-1.657-.368-2.485-1.094-2.485q-1.094 0-1.094 2.484Q1.124-.39 2.219-.39m-.031.5q-.88.002-1.36-.735-.532-.778-.531-2.266 0-1.452.562-2.25.527-.733 1.407-.734.873.001 1.359.734.516.786.516 2.25 0 1.47-.563 2.266c-.344.492-.808.734-1.39.734m0 0"/><path id="f" d="M5.797-6.125v.078c0 .168-.102.277-.297.328l-.234.047L3.25 0h-.719L.453-5.656l-.375-.11c-.082-.007-.125-.046-.125-.109 0-.05.035-.133.094-.25H2.03v.078q-.002.253-.297.313l-.375.078L2.984-.891h.032l1.672-4.78-.672-.11q-.127-.013-.125-.094 0-.075.093-.25Zm0 0"/><path id="g" d="M1.125-5.766h2.531L3.61-5H1.516l-.11 1.406q1.279.048 1.86.547.546.457.547 1.375c0 .492-.18.914-.532 1.266q-.534.516-1.39.515Q1.17.108.813-.156a.61.61 0 0 1-.266-.516q0-.389.39-.531.153.362.282.484.293.345.828.344c.344 0 .617-.113.828-.344.195-.207.297-.476.297-.812q0-.715-.563-1.031-.55-.33-1.78-.329Zm0 0"/><path id="h" d="M3.672-4.734a.95.95 0 0 0-.328-.407 1.14 1.14 0 0 0-.719-.25q-1.376 0-1.469 2.344a1.9 1.9 0 0 1 1.203-.406q.763 0 1.204.375.515.423.515 1.25-.001.797-.5 1.344a1.72 1.72 0 0 1-1.344.593C1.61.11 1.133-.148.813-.67Q.357-1.405.359-2.704q-.002-1.231.594-2.14.657-1.032 1.828-1.032.607 0 .969.219.312.188.313.453c0 .242-.133.398-.391.469m-2.516 2.14q.012 1.111.328 1.672.31.533.813.531.452.001.734-.343.281-.359.281-1.016-.001-1.202-1-1.203-.75 0-1.156.36m0 0"/><path id="i" d="M2.016-.562V-4.97l-1.328.25a1 1 0 0 1-.016-.187q-.001-.2.203-.282l1.469-.578h.437v5.204l1.094.156q.124.033.125.11c0 .054-.04.151-.11.296H.86v-.078q0-.311.28-.36Zm0 0"/><path id="j" d="m.125-1.969 2.516-3.765.656-.063v3.61h.75L4-1.516h-.703v1.032l.61.125q.123.017.124.093 0 .048-.093.266H1.906a.16.16 0 0 1-.015-.078q-.002-.246.297-.328l.39-.078v-1.032H.156Zm.734-.218h1.72V-4.86h-.017L.86-2.203Zm0 0"/><clipPath id="a"><path d="M66 23h46.55v53H66Zm0 0"/></clipPath></defs><g clip-path="url(#a)"><path fill="none" stroke="#000" stroke-miterlimit="10" stroke-width=".7895082000000001" d="M106.32 49.555c0-8.051-6.527-14.578-14.578-14.578-8.054 0-14.578 6.527-14.578 14.578 0 8.054 6.524 14.578 14.578 14.578 8.051 0 14.578-6.524 14.578-14.578Zm0 0"/></g><path fill="none" stroke="#000" stroke-miterlimit="10" stroke-width=".39524940000000003" d="M98.39 27.738v13.168l-11.792 5.407"/><path fill="none" stroke="#000" stroke-miterlimit="10" stroke-width=".7895082000000001" d="M86.598 40.906v17.297"/><path fill="none" stroke="#000" stroke-miterlimit="10" stroke-width=".39524940000000003" d="m86.598 52.8 11.793 5.403v13.172"/><path d="m90.75 54.703.945-2.058 3.657 4.167-5.543-.05Zm0 0"/><path fill="none" stroke="#000" stroke-miterlimit="10" stroke-width=".39524940000000003" d="M86.598 49.555H74.605M74.805 49.555h-17.77"/><use xlink:href="#b" x="3.188" y="52.033"/><use xlink:href="#c" x="7.63" y="52.033"/><use xlink:href="#d" x="12.071" y="52.033"/><use xlink:href="#e" x="13.909" y="52.033"/><use xlink:href="#f" x="19.825" y="52.033"/><use xlink:href="#b" x="87.191" y="9.09"/><use xlink:href="#g" x="91.632" y="9.09"/><use xlink:href="#d" x="96.073" y="9.09"/><use xlink:href="#h" x="97.911" y="9.09"/><use xlink:href="#f" x="103.827" y="9.09"/><use xlink:href="#b" x="87.191" y="94.978"/><use xlink:href="#i" x="91.632" y="94.978"/><use xlink:href="#d" x="96.073" y="94.978"/><use xlink:href="#j" x="97.911" y="94.978"/><use xlink:href="#f" x="103.827" y="94.978"/></svg>