<svg xmlns="http://www.w3.org/2000/svg" xmlns:xlink="http://www.w3.org/1999/xlink" width="111.517" height="186.492"><defs><clipPath id="b"><path d="M102 4h9.035v16H102Zm0 0"/></clipPath><clipPath id="f"><path d="M64 182h4v3.836h-4Zm0 0"/></clipPath><clipPath id="g"><path d="M59 176h15v9.836H59Zm0 0"/></clipPath><clipPath id="i"><path d="M64 182h4v3.836h-4Zm0 0"/></clipPath><clipPath id="j"><path d="M59 176h15v9.836H59Zm0 0"/></clipPath><clipPath id="k"><path d="M0 182h4v3.836H0Zm0 0"/></clipPath><clipPath id="l"><path d="M0 176h9v9.836H0Zm0 0"/></clipPath><clipPath id="m"><path d="M107 182h4v3.836h-4Zm0 0"/></clipPath><clipPath id="n"><path d="M102 176h9.035v9.836H102Zm0 0"/></clipPath><clipPath id="o"><path d="M102 90h9.035v16H102Zm0 0"/></clipPath><path id="a" d="m1.906-5.078-.86 4.406c-.062.25-.187.375-.562.406L.22-.234c-.047.03-.063.172-.016.25C.593.016.922 0 1.266 0S2 .016 2.406.016c.016-.032.047-.22.016-.25l-.297-.032c-.344-.03-.453-.14-.39-.406l.859-4.406c.062-.25.187-.375.562-.406l.266-.032c.047-.03.062-.171.015-.25-.39 0-.718.016-1.062.016s-.75-.016-1.14-.016c-.016.032-.048.204-.016.25l.297.032c.343.03.453.14.39.406m0 0"/><path id="c" d="M3.484-5.828c-.203 0-.75.078-1.078.078-.344 0-.687-.016-1.078-.016l-.031.016-.031.188c-.016.03 0 .046.03.046l.329.016c.125.016.313.078.313.297v.078L1.063-.641c-.047.25-.172.36-.547.375l-.22.032C.25-.234.22-.22.22-.172L.172 0l.031.016C.593.016.953 0 1.281 0c.344 0 .688.016 1.094.016L2.406 0l.016-.172c.015-.047-.016-.062-.047-.062l-.219-.032C1.86-.28 1.75-.344 1.75-.53v-.11l.39-1.953c.72 0 .86.125.954.344l.61 1.547c.171.422.468.797.983.797A1 1 0 0 0 5.063.03l.016-.218c-.375 0-.531-.297-.672-.688L3.688-2.75c.39-.125 1.25-.594 1.437-1.531.016-.11.031-.219.031-.328a1.17 1.17 0 0 0-.281-.782c-.328-.406-.844-.437-1.39-.437m-.046.297c.453 0 .968.156.968.89 0 .094-.015.235-.047.375-.203 1.11-.906 1.36-1.734 1.36h-.437l.437-2.219c.047-.25.203-.406.813-.406m0 0"/><path id="e" d="M1.813.094c1.765 0 2.375-1.14 2.687-2.719l.484-2.453c.032-.25.188-.39.547-.422l.219-.016c.047 0 .078-.03.078-.062l.047-.172-.016-.016c-.406 0-.75.016-.953.016s-.531-.016-.937-.016l-.016.016-.031.172c-.016.031.015.062.047.062l.234.016c.281.016.406.11.406.297 0 .031-.015.078-.03.125l-.5 2.61c-.204 1-.548 2.187-2.016 2.187-.407 0-.72-.188-.922-.438-.188-.25-.235-.515-.235-.812 0-.282.047-.578.11-.875L1.53-5.11c.063-.25.203-.36.563-.391l.219-.016c.046 0 .062-.03.078-.062l.03-.172-.015-.016c-.406 0-.75.016-1.094.016-.343 0-.671-.016-1.078-.016l-.03.016-.032.172c0 .031.031.062.062.062l.22.016c.28.016.405.094.405.281 0 .032 0 .078-.015.11l-.578 3a3 3 0 0 0-.063.625c0 1.28.953 1.578 1.61 1.578m0 0"/><path id="d" d="M2.063-.875v-2.469c0-.437 0-.875.015-.969 0-.03-.015-.03-.047-.03-.39.25-.765.421-1.39.718.015.078.03.14.109.188.328-.141.484-.172.61-.172.124 0 .14.172.14.406v2.328c0 .594-.187.625-.687.656-.047.047-.047.188 0 .235C1.156 0 1.422 0 1.813 0c.343 0 .515 0 .859.016.047-.047.047-.188 0-.235-.5-.031-.61-.062-.61-.656m0 0"/><path id="h" d="M.438-3.344c0 .156.14.281.28.281.126 0 .345-.124.345-.28 0-.063-.016-.11-.032-.157-.015-.047-.062-.11-.062-.172 0-.172.187-.437.703-.437.266 0 .625.187.625.875 0 .453-.156.828-.578 1.25l-.532.515C.485-.75.375-.406.375.016c0 0 .36-.016.594-.016h1.25c.219 0 .547.016.547.016.093-.375.172-.922.172-1.125-.032-.047-.126-.047-.204-.047-.125.515-.25.687-.5.687H.97c0-.343.484-.828.531-.86l.719-.687c.406-.39.703-.718.703-1.25 0-.78-.625-1.093-1.203-1.093-.797 0-1.281.593-1.281 1.015m0 0"/></defs><path fill="none" stroke="#000" stroke-miterlimit="10" stroke-width=".39728031" d="M1.777 12.094h32.246m0 0h53.739m0 0h21.496"/><path fill="#FFF" stroke="#000" stroke-miterlimit="10" stroke-width=".39728031" d="M3.36 12.094a1.58 1.58 0 1 0-3.161-.003 1.58 1.58 0 0 0 3.16.003Zm0 0"/><path stroke="#000" stroke-miterlimit="10" stroke-width=".39728031" d="M32.293 12.094v1.972l4.2-1.972-4.2-1.977Zm0 0"/><use xlink:href="#a" x="32.768" y="8.901"/><path fill="#FFF" d="M110.84 12.094a1.58 1.58 0 1 0-3.161-.005 1.58 1.58 0 0 0 3.16.005m0 0"/><g clip-path="url(#b)"><path fill="none" stroke="#000" stroke-miterlimit="10" stroke-width=".39728031" d="M110.84 12.094a1.58 1.58 0 1 0-3.161-.005 1.58 1.58 0 0 0 3.16.005Zm0 0"/></g><path fill="none" stroke="#000" stroke-miterlimit="10" stroke-width=".39728031" d="M66.266 12.094v27.183m9.68-14.828v61.27m-9.68-14.828v54.37m9.68-14.827v61.27m-9.68-14.829v27.184"/><path fill="none" stroke="#000" stroke-miterlimit="10" stroke-width=".7935649300000001" d="M60.34 70.89V39.278H72.19v31.614Zm0 0"/><path stroke="#000" stroke-miterlimit="10" stroke-width=".39728031" d="M67.848 12.094a1.58 1.58 0 1 0-3.161-.003 1.58 1.58 0 0 0 3.16.003ZM67.848 98.078a1.58 1.58 0 1 0-3.161-.003 1.58 1.58 0 0 0 3.16.003Zm0 0"/><use xlink:href="#c" x="49.175" y="57.227"/><use xlink:href="#d" x="54.434" y="59.102"/><path stroke="#000" stroke-miterlimit="10" stroke-width=".39728031" d="M75.945 81.523h-1.972l1.972 4.196 1.977-4.196Zm0 0"/><use xlink:href="#e" x="78.129" y="57.028"/><use xlink:href="#d" x="82.879" y="58.903"/><path fill="none" stroke="#000" stroke-miterlimit="10" stroke-width=".7935649300000001" d="M60.34 156.875v-31.613H72.19v31.613Zm0 0"/><path stroke="#000" stroke-miterlimit="10" stroke-width=".39728031" d="M67.848 98.078a1.58 1.58 0 1 0-3.161-.003 1.58 1.58 0 0 0 3.16.003Zm0 0"/><g clip-path="url(#f)"><path d="M67.848 184.059a1.58 1.58 0 1 0-3.16.002 1.58 1.58 0 0 0 3.16-.002m0 0"/></g><g clip-path="url(#g)"><path fill="none" stroke="#000" stroke-miterlimit="10" stroke-width=".39728031" d="M67.848 184.059a1.58 1.58 0 1 0-3.16.003 1.58 1.58 0 0 0 3.16-.003Zm0 0"/></g><use xlink:href="#c" x="49.175" y="143.21"/><use xlink:href="#h" x="54.434" y="145.084"/><path stroke="#000" stroke-miterlimit="10" stroke-width=".39728031" d="M75.945 167.504h-1.972l1.972 4.2 1.977-4.2Zm0 0"/><use xlink:href="#e" x="78.129" y="143.01"/><use xlink:href="#h" x="82.879" y="144.885"/><path fill="none" stroke="#000" stroke-miterlimit="10" stroke-width=".39728031" d="M66.266 184.059H34.023m0 0H1.777"/><g clip-path="url(#i)"><path d="M67.848 184.059a1.58 1.58 0 1 0-3.16.002 1.58 1.58 0 0 0 3.16-.002m0 0"/></g><g clip-path="url(#j)"><path fill="none" stroke="#000" stroke-miterlimit="10" stroke-width=".39728031" d="M67.848 184.059a1.58 1.58 0 1 0-3.16.003 1.58 1.58 0 0 0 3.16-.003Zm0 0"/></g><g clip-path="url(#k)"><path fill="#FFF" d="M3.36 184.059a1.58 1.58 0 1 0-3.16.002 1.58 1.58 0 0 0 3.16-.002m0 0"/></g><g clip-path="url(#l)"><path fill="none" stroke="#000" stroke-miterlimit="10" stroke-width=".39728031" d="M3.36 184.059a1.58 1.58 0 1 0-3.16.003 1.58 1.58 0 0 0 3.16-.003Zm0 0"/></g><path fill="none" stroke="#000" stroke-miterlimit="10" stroke-width=".39728031" d="M66.266 184.059h21.496m0 0h21.496"/><g clip-path="url(#m)"><path fill="#FFF" d="M110.84 184.059c0-.871-.711-1.579-1.582-1.579s-1.578.708-1.578 1.579a1.58 1.58 0 1 0 3.16 0m0 0"/></g><g clip-path="url(#n)"><path fill="none" stroke="#000" stroke-miterlimit="10" stroke-width=".39728031" d="M110.84 184.059c0-.871-.711-1.578-1.582-1.578s-1.578.707-1.578 1.578a1.58 1.58 0 1 0 3.16 0Zm0 0"/></g><path fill="none" stroke="#000" stroke-miterlimit="10" stroke-width=".39728031" d="M66.266 98.078h21.496m0 0h21.496"/><path stroke="#000" stroke-miterlimit="10" stroke-width=".39728031" d="M67.848 98.078a1.58 1.58 0 1 0-3.161-.003 1.58 1.58 0 0 0 3.16.003Zm0 0"/><path fill="#FFF" d="M110.84 98.078a1.58 1.58 0 1 0-3.161-.005 1.58 1.58 0 0 0 3.16.005m0 0"/><g clip-path="url(#o)"><path fill="none" stroke="#000" stroke-miterlimit="10" stroke-width=".39728031" d="M110.84 98.078a1.58 1.58 0 1 0-3.161-.005 1.58 1.58 0 0 0 3.16.005Zm0 0"/></g></svg>