<svg xmlns="http://www.w3.org/2000/svg" xmlns:xlink="http://www.w3.org/1999/xlink" width="228.324" height="96.535"><defs><clipPath id="a"><path d="M218 77h9.441v16H218Zm0 0"/></clipPath><clipPath id="b"><path d="M11.105 3h216.141v81.832H11.106Zm0 0"/></clipPath><path id="c" d="m.938-3.828-.47.031c-.171 0-.234.078-.25.14a1 1 0 0 0-.046.157c0 .016.031.016.062.016H.86L.313-1.047C.25-.766.188-.484.188-.328c0 .328.156.422.437.422.406 0 .984-.375 1.297-.922C1.89-.953 1.828-1 1.719-1c-.407.469-.563.547-.703.547C.984-.453.89-.47.89-.578c0-.078.03-.25.093-.563l.532-2.343h.875c.109-.047.187-.266.093-.344h-.89l.093-.406c.032-.172.11-.422.11-.532 0-.156-.063-.234-.344-.234-.328 0-.312.39-.406.719Zm0 0"/><path id="d" d="M1.813.094c1.765 0 2.375-1.14 2.687-2.719l.484-2.453c.032-.25.188-.39.547-.422l.219-.016c.047 0 .078-.03.078-.062l.047-.172-.016-.016c-.406 0-.75.016-.953.016s-.531-.016-.937-.016l-.016.016-.031.172c-.016.031.015.062.047.062l.234.016c.281.016.406.11.406.297 0 .031-.015.078-.03.125l-.5 2.61c-.204 1-.548 2.187-2.016 2.187-.407 0-.72-.188-.922-.438-.188-.25-.235-.515-.235-.812 0-.282.047-.578.11-.875L1.53-5.11c.063-.25.203-.36.563-.391l.219-.016c.046 0 .062-.03.078-.062l.03-.172-.015-.016c-.406 0-.75.016-1.094.016-.343 0-.671-.016-1.078-.016l-.03.016-.032.172c0 .031.031.062.062.062l.22.016c.28.016.405.094.405.281 0 .032 0 .078-.015.11l-.578 3a3 3 0 0 0-.063.625c0 1.28.953 1.578 1.61 1.578m0 0"/></defs><path fill="none" stroke="#000" stroke-miterlimit="10" stroke-width=".39708879" d="M11.105 84.832H223.79"/><path d="m226.848 84.832-2.961-1.758v3.512Zm0 0"/><g clip-path="url(#a)"><path fill="none" stroke="#000" stroke-miterlimit="10" stroke-width=".39708879" d="m226.848 84.832-2.961-1.758v3.512Zm0 0"/></g><path fill="none" stroke="#000" stroke-miterlimit="10" stroke-width=".39708879" d="M11.105 84.832V3.652"/><path stroke="#000" stroke-miterlimit="10" stroke-width=".39708879" d="m11.105.594-1.757 2.96h3.511Zm0 0"/><g clip-path="url(#b)"><path fill="none" stroke="#000" stroke-miterlimit="10" stroke-width=".79318237" d="M11.105 14.305s6.504 15.23 9.004 19.992 6.508 10.91 9.008 14.324c2.496 3.41 6.504 7.82 9.004 10.266 2.5 2.441 6.508 5.601 9.008 7.351 2.496 1.754 6.504 4.016 9.004 5.27 2.5 1.258 6.508 2.879 9.008 3.777 2.496.899 6.504 2.063 9.004 2.707 2.5.645 6.507 1.477 9.007 1.938 2.496.46 6.504 1.058 9.004 1.39 2.5.328 6.508.758 9.008.993 2.496.238 6.504.546 9.004.714 2.5.172 6.508.391 9.008.512 2.496.121 6.504.277 9.004.367 2.5.086 6.507.2 9.007.262 2.497.062 6.504.14 9.004.187a2318 2318 0 0 0 18.012.23c2.5.024 6.508.056 9.004.071 2.5.016 6.508.035 9.008.051 2.5.012 6.508.023 9.004.035 2.5.008 6.508.02 9.008.024 2.5.007 6.507.015 9.003.02l9.008.01c2.5.005 9.004.013 9.004.013"/></g><use xlink:href="#c" x="222.044" y="93.009"/><use xlink:href="#d" x="3.185" y="9.145"/></svg>