<svg xmlns="http://www.w3.org/2000/svg" xmlns:xlink="http://www.w3.org/1999/xlink" width="226.773" height="126.846"><defs><path id="c" d="M3.5-5.86c-.219 0-.75.079-1.094.079s-.672 0-1.078-.016l-.031.016-.031.187c-.016.047 0 .063.046.063l.329.015c.125.016.312.079.312.282 0 .03 0 .062-.016.093l-.874 4.5c-.047.25-.172.36-.547.375l-.22.032C.25-.234.22-.22.22-.172L.172 0l.031.016C.593.016.953 0 1.297 0c.328 0 .687.016 1.078.016L2.406 0l.031-.172c0-.047-.015-.062-.062-.062l-.219-.032C1.875-.28 1.75-.344 1.75-.53c0-.031 0-.063.016-.11l.39-1.968c.703 0 .86.14.953.343l.61 1.563c.172.422.469.797.984.797.125 0 .281-.016.375-.063l.031-.218c-.39 0-.546-.313-.703-.688L3.703-2.75c.39-.14 1.25-.594 1.438-1.531.03-.125.03-.235.03-.344a1.17 1.17 0 0 0-.28-.781c-.328-.407-.86-.453-1.391-.453m-.047.313c.453 0 .969.156.969.875 0 .11-.016.25-.047.39-.219 1.126-.906 1.376-1.75 1.376h-.422l.438-2.235c.046-.265.203-.406.812-.406m0 0"/><path id="f" d="M1.922-5.094 1.047-.687C1-.437.859-.297.5-.266l-.281.032c-.047.03-.063.172-.016.25C.593.016.922 0 1.266 0s.75.016 1.14.016c.031-.032.063-.22.031-.25l-.312-.032c-.344-.03-.437-.14-.39-.421l.874-4.407c.047-.25.188-.375.547-.406l.281-.031c.032-.032.047-.188.016-.266-.406.016-.719.016-1.078.016-.328 0-.734 0-1.125-.016-.031.047-.062.219-.031.266l.297.031c.359.016.453.14.406.406m0 0"/><path id="p" d="M1.828.094c1.766 0 2.375-1.14 2.688-2.735L5-5.109c.047-.25.188-.375.547-.407l.234-.015c.032 0 .063-.032.078-.078l.032-.172-.016-.016c-.406.016-.75.016-.953.016-.188 0-.531 0-.938-.016l-.015.016-.031.172c-.016.046.015.078.046.078l.235.015c.281.016.406.094.406.282 0 .046-.016.093-.016.125l-.515 2.625c-.203 1-.563 2.203-2.016 2.203-.406 0-.719-.188-.937-.438C.953-.969.906-1.25.906-1.53s.047-.594.11-.875l.53-2.719c.048-.25.188-.36.548-.39l.219-.016c.046 0 .078-.032.093-.078l.031-.172-.015-.016c-.406.016-.766.016-1.11.016-.343 0-.671 0-1.078-.016l-.03.016-.032.172c0 .046.031.078.062.078l.22.015c.28.016.421.094.421.282 0 .03-.016.062-.031.109L.266-2.109a3 3 0 0 0-.063.625c0 1.28.953 1.578 1.625 1.578m0 0"/><path id="d" d="M3.219-4.406c.531.031.531.234.375.625L2.454-.906h-.017L1.282-3.828c-.156-.438-.125-.531.375-.578.032-.047.032-.188 0-.235-.297 0-.61.016-.875.016-.25 0-.515-.016-.75-.016-.031.047-.031.188.016.235.39.031.453.156.64.656L2.095-.078c.047.11.094.172.172.172s.125-.078.172-.172l1.484-3.656c.14-.344.25-.625.703-.672.047-.047.047-.188 0-.235-.219 0-.469.016-.625.016-.172 0-.5-.016-.781-.016-.047.047-.047.188 0 .235m0 0"/><path id="g" d="M3.953.016c.031-.407.11-.828.188-1.203a.7.7 0 0 0-.22-.032c-.218.516-.405.907-1.187.922L1.36-.266c-.125 0-.187-.046-.187-.109 0-.031.031-.078.062-.14.516-.766 1.844-2.641 2.688-3.72.156-.202.172-.25.172-.327 0-.047-.032-.079-.094-.079-.078 0-.312.016-.516.016H1.891c-.328 0-1.032-.031-1.297-.062-.031.39-.094.796-.156 1.093.078.016.14.031.218.031.14-.484.422-.75.953-.75l1.516-.03c.047 0 .078.015.078.062 0 .031-.031.078-.062.125A95 95 0 0 0 .344-.266a.3.3 0 0 0-.047.157c0 .078.031.109.14.109h2.61c.187 0 .906.016.906.016m0 0"/><path id="q" d="M2.063-.875v-2.484c0-.438.015-.875.03-.97 0-.03-.015-.03-.046-.03-.39.25-.781.422-1.406.718a.3.3 0 0 0 .109.188c.328-.125.484-.172.625-.172.11 0 .14.172.14.406v2.344c0 .594-.202.625-.702.656C.78-.172.78-.03.813.016 1.172 0 1.422 0 1.813 0c.343 0 .515 0 .875.016.046-.047.046-.188 0-.235-.5-.031-.626-.062-.626-.656m0 0"/><path id="h" d="M2.484-3.031h1.563v.469H2.484v1.671h-.5v-1.671H.438v-.47h1.546v-1.655h.5Zm0 0"/><path id="i" d="M2.031-.578v-4.438L.687-4.75a1 1 0 0 1-.015-.187c0-.133.07-.235.219-.297l1.468-.578h.454v5.234l1.093.172q.124.016.125.11 0 .08-.093.296H.874a.16.16 0 0 1-.016-.078q0-.311.282-.36Zm0 0"/><path id="j" d="M1.39-3.156c1.008-.125 1.516-.531 1.516-1.219Q2.905-5.436 2-5.437q-.41 0-.703.187a3 3 0 0 0-.11.828 1.4 1.4 0 0 1-.218.016c-.281 0-.422-.117-.422-.36q-.001-.513.437-.828.45-.328 1.188-.328.714 0 1.125.375.422.376.422 1.016 0 .628-.422 1.015-.299.284-.906.485V-3q.715.094 1.109.469.389.361.39.922 0 .737-.562 1.234Q2.78.11 1.891.109C1.41.11 1.05.012.813-.17A.61.61 0 0 1 .53-.688c0-.258.133-.442.407-.547q.14.363.28.515.295.328.829.328c.664 0 1-.351 1-1.062 0-.738-.555-1.149-1.656-1.234Zm0 0"/><path id="k" d="M.89-.937a.53.53 0 0 1 .423.218q.17.204.171.578-.002.592-.39.985c-.211.226-.414.344-.61.344-.093 0-.164-.086-.203-.25q.574-.3.61-.891a.5.5 0 0 1-.344-.125.48.48 0 0 1-.14-.36q0-.217.14-.359a.47.47 0 0 1 .344-.14m0 0"/><path id="l" d="M2.938-3.047Q4.029-2.543 4.03-1.5q0 .737-.547 1.188-.503.42-1.28.421-.77 0-1.25-.39Q.436-.716.437-1.453q0-.92 1.125-1.453-.985-.499-.985-1.485c0-.437.164-.8.5-1.093.344-.29.742-.438 1.203-.438.477 0 .867.133 1.172.39q.451.376.453 1.063 0 .908-.969 1.422m-.407-.156q.67-.405.672-1.266-.002-.42-.25-.672c-.18-.187-.422-.28-.734-.28a.9.9 0 0 0-.688.28.94.94 0 0 0-.25.672q0 .504.344.797c.164.149.469.305.906.469m-.562.484c-.524.293-.782.715-.782 1.266q0 .456.282.766.28.297.765.296.47 0 .75-.28.296-.294.297-.75 0-.47-.36-.798-.268-.217-.952-.5m0 0"/><path id="m" d="M5.844-6.172c.008.024.015.047.015.078q0 .253-.312.313l-.234.062L3.28 0h-.734L.453-5.719l-.375-.093q-.124-.029-.125-.11c0-.05.035-.133.094-.25h2v.078c0 .157-.102.262-.297.313l-.375.078 1.64 4.797h.016L4.734-5.72l-.687-.11q-.127-.029-.125-.093 0-.075.094-.25Zm0 0"/><path id="n" d="M2.234-.39q1.11.001 1.11-2.516 0-2.515-1.11-2.516-1.094.001-1.093 2.516c0 1.68.363 2.515 1.093 2.515m-.03.5q-.88 0-1.376-.75Q.296-1.42.297-2.907.296-4.39.875-5.187q.516-.734 1.406-.735.873.001 1.375.734.516.798.516 2.282 0 1.47-.563 2.265-.515.75-1.406.75m0 0"/><path id="o" d="M1.125-5.812h2.563l-.047.765H1.53l-.11 1.422q1.297.048 1.876.547c.363.305.547.765.547 1.39a1.7 1.7 0 0 1-.547 1.266q-.534.533-1.39.531Q1.185.108.827-.156a.61.61 0 0 1-.281-.516q0-.405.39-.547.17.376.297.5.295.328.829.328.527 0 .843-.328.296-.311.297-.828 0-.731-.562-1.047c-.375-.219-.977-.328-1.797-.328Zm0 0"/><clipPath id="a"><path d="M26 113h15v13.691H26Zm0 0"/></clipPath><clipPath id="b"><path d="M196 113h16v13.691h-16Zm0 0"/></clipPath><clipPath id="e"><path d="M139 113h16v13.691h-16Zm0 0"/></clipPath></defs><path fill="none" stroke="#000" stroke-miterlimit="10" stroke-width=".39851721" d="M33.254 120.562h56.95m0 0h85.425m0 0h28.476"/><path fill="#FFF" d="M34.84 120.563a1.587 1.587 0 0 0-3.172 0 1.587 1.587 0 0 0 3.172 0m0 0"/><g clip-path="url(#a)"><path fill="none" stroke="#000" stroke-miterlimit="10" stroke-width=".39851721" d="M34.84 120.562a1.587 1.587 0 0 0-3.172 0 1.587 1.587 0 0 0 3.172 0Zm0 0"/></g><path fill="#FFF" d="M205.688 120.563a1.584 1.584 0 1 0-3.168 0 1.585 1.585 0 1 0 3.167 0m0 0"/><g clip-path="url(#b)"><path fill="none" stroke="#000" stroke-miterlimit="10" stroke-width=".39851721" d="M205.687 120.562a1.584 1.584 0 1 0-3.168 0 1.585 1.585 0 1 0 3.168 0Zm0 0"/></g><path fill="none" stroke="#000" stroke-miterlimit="10" stroke-width=".39851721" d="M33.254 6.664h41.094m31.71 0h69.57m0 0h28.477"/><path fill="none" stroke="#000" stroke-miterlimit="10" stroke-width=".79603563" d="M74.348.719h31.71v11.89h-31.71Zm0 0"/><path fill="#FFF" stroke="#000" stroke-miterlimit="10" stroke-width=".39851721" d="M34.84 6.664a1.587 1.587 0 0 0-3.172 0 1.587 1.587 0 0 0 3.172 0Zm0 0"/><use xlink:href="#c" x="85.037" y="22.445"/><use xlink:href="#d" x="90.313" y="24.325"/><path fill="#FFF" stroke="#000" stroke-miterlimit="10" stroke-width=".39851721" d="M205.687 6.664a1.584 1.584 0 1 0-3.168 0 1.585 1.585 0 1 0 3.168 0Zm0 0"/><path fill="none" stroke="#000" stroke-miterlimit="10" stroke-width=".39851721" d="M147.152 120.562V71.54m0-15.851V6.664"/><path fill="none" stroke="#000" stroke-miterlimit="10" stroke-width=".79603563" d="m147.152 55.688 9.91 15.851h-19.816Zm0 0"/><path fill="none" stroke="#000" stroke-miterlimit="10" stroke-width=".39851721" d="M147.152 55.688v15.851"/><path fill="none" stroke="#000" stroke-miterlimit="10" stroke-width=".79603563" d="M137.246 55.688h19.816v3.167"/><path d="M148.738 120.563a1.584 1.584 0 1 0-3.168 0 1.584 1.584 0 1 0 3.168 0m0 0"/><g clip-path="url(#e)"><path fill="none" stroke="#000" stroke-miterlimit="10" stroke-width=".39851721" d="M148.738 120.562a1.584 1.584 0 1 0-3.168 0 1.584 1.584 0 1 0 3.168 0Zm0 0"/></g><path stroke="#000" stroke-miterlimit="10" stroke-width=".39851721" d="M148.738 6.664a1.584 1.584 0 1 0-3.168 0 1.584 1.584 0 1 0 3.168 0ZM147.152 29.441h-1.98l1.98 4.211 1.985-4.21Zm0 0"/><use xlink:href="#f" x="136.739" y="33.126"/><use xlink:href="#g" x="139.256" y="35.007"/><use xlink:href="#h" x="3.009" y="9.164"/><use xlink:href="#i" x="7.486" y="9.164"/><use xlink:href="#j" x="11.964" y="9.164"/><use xlink:href="#k" x="16.442" y="9.164"/><use xlink:href="#l" x="18.296" y="9.164"/><use xlink:href="#m" x="24.26" y="9.164"/><use xlink:href="#n" x="18.296" y="123.6"/><use xlink:href="#m" x="24.26" y="123.6"/><use xlink:href="#h" x="207.286" y="9.701"/><use xlink:href="#o" x="211.763" y="9.701"/><use xlink:href="#m" x="217.728" y="9.701"/><path fill="none" stroke="#000" stroke-miterlimit="10" stroke-width=".39851721" d="M33.254 23.7v79.827"/><path stroke="#000" stroke-miterlimit="10" stroke-width=".39851721" d="M33.254 99.316h-1.98l1.98 4.211 1.98-4.21Zm0 0"/><use xlink:href="#p" x="21.338" y="65.564"/><use xlink:href="#q" x="26.103" y="67.445"/><path fill="none" stroke="#000" stroke-miterlimit="10" stroke-width=".39851721" d="M204.105 23.7v79.827"/><path stroke="#000" stroke-miterlimit="10" stroke-width=".39851721" d="M204.105 99.316h-1.984l1.984 4.211 1.98-4.21Zm0 0"/><use xlink:href="#p" x="207.038" y="65.564"/><use xlink:href="#g" x="211.802" y="67.445"/></svg>