<svg xmlns="http://www.w3.org/2000/svg" xmlns:xlink="http://www.w3.org/1999/xlink" width="227.012" height="122.397"><defs><path id="b" d="M3-4.11q.047.504.047.704c0 .18-.059.265-.172.265a.24.24 0 0 1-.125-.03l-.156-.626H1.25v1.64h1.328v.329H1.25v1.5l.469.078q.077.033.078.078c0 .012-.024.07-.063.172H.281v-.047q0-.17.188-.219l.265-.062v-3.469L.36-3.875q-.08-.014-.078-.062 0-.06.063-.172Zm0 0"/><path id="c" d="m4-.328-.047-2.813h-.015L2.688-.047h-.329L1.125-3.172 1.063-.328l.406.078q.093.033.093.078Q1.56-.153 1.5 0H.266A.1.1 0 0 1 .25-.047q-.001-.17.203-.219L.72-.328l.047-3.469-.375-.078q-.08-.014-.079-.062 0-.06.063-.172h.938L2.609-.83h.016l1.328-3.28h1v.062q-.002.14-.203.188l-.266.062.047 3.469.407.078q.077.033.078.078c0 .012-.024.07-.063.172H3.547v-.047q-.001-.17.203-.219Zm0 0"/><path id="e" d="M5.86-2.906v.094c0 .148-.102.246-.298.296l-.203.047v1.89C4.867-.116 4.15.11 3.203.11q-1.22 0-1.937-.765-.797-.845-.797-2.39-.002-1.607 1.015-2.485.873-.734 2.125-.735.576 0 1.063.141.06.018.594.234.046.643.046.922-.001.391-.265.39a.5.5 0 0 1-.188-.03l-.203-.86q-.44-.28-1.11-.281-.936 0-1.546.61-.703.688-.703 2c0 .874.191 1.554.578 2.03.375.462.883.688 1.531.688.438 0 .828-.07 1.172-.219v-1.78l-.547-.126q-.127-.029-.125-.11 0-.074.094-.25Zm0 0"/><path id="f" d="M2.594-6.156v.078c0 .156-.102.262-.297.312l-.422.079v2.28h2.984v-2.28l-.562-.125c-.086-.008-.125-.04-.125-.094q-.001-.075.11-.25h2.062q.013.033.015.078 0 .236-.312.312l-.422.079v5.203l.625.125q.124.017.125.093c0 .032-.04.121-.11.266H4.173v-.078q0-.246.297-.328l.39-.078v-2.391H1.875v2.39l.61.126q.123.017.124.093 0 .048-.093.266H.422a.16.16 0 0 1-.016-.078Q.404-.324.72-.406l.375-.078v-5.203l-.547-.125C.46-5.82.422-5.852.422-5.906q0-.075.094-.25Zm0 0"/><path id="g" d="M4.5-6.156q.062.752.063 1.047c0 .273-.086.406-.25.406a.5.5 0 0 1-.204-.047l-.203-.937H1.875v2.453h1.984v.5H1.875v2.25l.703.125q.124.017.125.093 0 .048-.094.266H.422a.16.16 0 0 1-.016-.078Q.404-.324.72-.406l.375-.078v-5.203l-.547-.125C.46-5.82.422-5.852.422-5.906q0-.075.094-.25Zm0 0"/><path id="h" d="M3.64-5.64v-.016H1.204l-.203 1a.6.6 0 0 1-.203.031q-.251 0-.25-.375 0-.388.062-1.156h3.907a.53.53 0 0 1 .093.297.5.5 0 0 1-.093.28L1.344-.561v.015h2.75l.234-1.015a.7.7 0 0 1 .203-.032q.218 0 .219.36c0 .218-.027.632-.078 1.234H.438Q.28-.06.28-.281q0-.123.063-.235Zm0 0"/><path id="i" d="M2.36-6.156q3.562.001 3.562 2.984 0 1.583-.938 2.39C4.367-.257 3.492 0 2.36 0H.422a.16.16 0 0 1-.016-.078Q.404-.324.72-.406l.375-.078v-5.203l-.547-.125C.46-5.82.422-5.852.422-5.906q0-.075.094-.25ZM2.343-.5q1.313 0 2.015-.672c.477-.445.72-1.101.72-1.969 0-.832-.243-1.457-.72-1.875q-.702-.639-2.015-.64h-.469V-.5Zm0 0"/><path id="j" d="M1.156-2.172q.012.845.375 1.297c.239.305.578.453 1.016.453q.576 0 1.094-.422.092.064.109.25c0 .137-.133.282-.39.438q-.487.265-1.126.265-.813.002-1.28-.5Q.39-.965.39-2.062.39-3.17.969-3.812c.351-.383.789-.579 1.312-.579q.686 0 1.078.422.375.41.375 1.078c0 .2-.039.438-.109.72Zm1.032-1.75q-.91.002-1.016 1.328h1.75q.047-.187.047-.375-.001-.951-.781-.953m0 0"/><path id="k" d="m7.078-.469.531.125q.124.017.125.11A.35.35 0 0 1 7.641 0H5.75v-.062c0-.133.086-.235.266-.297l.343-.11V-2.75c0-.695-.289-1.047-.859-1.047q-.69.002-1.203.485.06.327.062.515v2.328l.532.125q.124.017.125.11A.35.35 0 0 1 4.922 0h-1.89v-.062c0-.133.085-.235.265-.297l.328-.11V-2.75c0-.695-.281-1.047-.844-1.047-.437 0-.824.149-1.156.438v2.89l.547.125q.124.017.125.11A.35.35 0 0 1 2.203 0H.313a.1.1 0 0 1-.016-.062c0-.133.094-.235.281-.297l.328-.11v-3.328l-.64-.078a.2.2 0 0 1-.016-.078q0-.246.328-.281l1.047-.11-.047.61h.031q.61-.657 1.422-.657c.54 0 .922.243 1.14.72.427-.477.938-.72 1.532-.72q.638 0 1 .422.375.41.375 1.172Zm0 0"/><path id="l" d="M2.344.11Q1.512.111.984-.438C.586-.832.391-1.383.391-2.094q0-1.06.656-1.703a2.03 2.03 0 0 1 1.469-.594q.843.002 1.359.532.576.58.578 1.672 0 1.078-.656 1.718-.609.58-1.453.578m.062-.5q.563 0 .89-.422.376-.468.376-1.329 0-.857-.375-1.328a1.06 1.06 0 0 0-.89-.437c-.368 0-.657.148-.876.437q-.361.471-.36 1.328-.002.861.36 1.329c.219.28.508.421.875.421m0 0"/><path id="m" d="M3.406-.516h-.031Q2.935.11 2.109.11 1.39.11.922-.359.39-.903.39-2.016q0-1.168.703-1.812.591-.563 1.5-.563c.258 0 .515.04.765.11v-1.657l-.656-.078a.2.2 0 0 1-.015-.078q-.001-.246.343-.281l1.047-.11v6l.656.079v.078q0 .252-.328.281l-1 .094Zm-1.094.047q.656 0 1.047-.39v-2.703c-.218-.22-.507-.329-.859-.329-.398 0-.719.149-.969.438q-.39.468-.39 1.312-.001.846.343 1.282.295.39.829.39m0 0"/><path id="n" d="m.781-3.797-.64-.078a.2.2 0 0 1-.016-.078q0-.246.328-.281l1.047-.11v2.813q-.002 1.048.906 1.047.684 0 1.094-.438v-2.875l-.64-.078a.2.2 0 0 1-.016-.078q0-.246.328-.281l1.062-.11v3.86l.641.078q.014.047.016.078 0 .252-.328.281l-1 .094v-.578h-.016c-.344.43-.797.64-1.36.64Q.782.11.782-1.484Zm0 0"/><path id="o" d="M.86-.469v-5.468l-.641-.079a.2.2 0 0 1-.016-.078q0-.246.328-.281l1.063-.11v6.016l.531.125q.124.017.125.11A.35.35 0 0 1 2.156 0H.266v-.062c0-.133.086-.235.265-.297Zm0 0"/><path id="p" d="M2.656-2.781q0-.576-.187-.86-.174-.28-.594-.28a1.5 1.5 0 0 0-.531.093q-.11.235-.203.781a2 2 0 0 1-.188.016q-.438 0-.437-.39 0-.39.468-.673A1.9 1.9 0 0 1 2-4.39c.914 0 1.375.508 1.375 1.516v1.953c0 .336.102.5.313.5q.216.001.328-.11.077.112.078.25c0 .063-.055.134-.157.204a.9.9 0 0 1-.53.156q-.63 0-.688-.61h-.031q-.41.643-1.22.641-.502 0-.812-.312-.313-.311-.312-.828c0-.438.219-.774.656-1.016.375-.195.848-.297 1.422-.297h.234Zm-.89 2.328q.498 0 .89-.469v-1.015l-.234.015q-1.299.096-1.297.813c0 .437.21.656.64.656m0 0"/><path id="q" d="m.86-4.281.171-1.203h.516v1.203H2.89l-.094.468h-1.25v2.735q-.001.674.578.672.45 0 .75-.235.062.095.063.266-.002.112-.25.266-.332.217-.813.218Q.827.11.828-.92v-2.891H.156a.2.2 0 0 1-.015-.063q0-.233.28-.297Zm0 0"/><path id="r" d="M.906-.469v-3.328l-.64-.078a.2.2 0 0 1-.016-.078q0-.246.328-.281l1.047-.11-.047.75h.031q.517-.797 1.125-.797c.407 0 .61.149.61.438 0 .125-.055.25-.156.375a1.4 1.4 0 0 0-.579-.14q-.609 0-.984.515V-.47l.625.125q.124.017.125.11A.4.4 0 0 1 2.297 0H.312a.1.1 0 0 1-.015-.062c0-.133.094-.235.281-.297Zm0 0"/><path id="s" d="M6.25-6.156c.008.023.016.047.016.078q-.001.236-.313.312l-.406.079V0H5L1.656-5.187h-.031v4.703l.625.125q.124.017.125.093 0 .048-.094.266H.421a.16.16 0 0 1-.015-.078Q.404-.324.72-.406l.375-.078v-5.203l-.547-.125C.46-5.82.422-5.852.422-5.906q0-.075.094-.25h1.422l3.046 4.719H5v-4.25l-.547-.125c-.086-.008-.125-.04-.125-.094q0-.075.094-.25Zm0 0"/><path id="t" d="M5.828-6.156v.078q-.002.252-.297.328l-.234.047L3.28 0h-.734L.453-5.687l-.375-.11q-.124-.014-.125-.11c0-.05.035-.132.094-.25H2.03c.008.024.016.048.016.079q-.001.253-.313.312l-.375.079L3-.907h.031L4.72-5.702l-.688-.11q-.127-.011-.125-.093 0-.075.094-.25Zm0 0"/><path id="u" d="M3.266-.39q.903 0 1.437-.72.53-.714.531-1.968 0-1.232-.546-1.953-.552-.734-1.454-.735c-.605 0-1.078.243-1.421.72q-.516.72-.516 1.968 0 1.254.531 1.969.528.719 1.438.718m-.047.5q-1.22 0-1.969-.813Q.467-1.56.469-3.078c0-1 .273-1.79.828-2.375q.78-.812 2.016-.813c.843 0 1.507.274 2 .813q.75.844.75 2.375-.001 1.519-.829 2.375Q4.45.11 3.22.109m0 0"/><path id="v" d="M2.031-.578V-5l-1.344.266a1 1 0 0 1-.015-.188c0-.133.07-.226.219-.281l1.468-.594h.438v5.219l1.094.172q.14.016.14.11-.002.08-.11.296H.86v-.078q0-.311.282-.36Zm0 0"/><path id="w" d="m.422-.453 1.5-1.719q.89-1.015.89-2-.001-1.249-.906-1.25-.363.001-.703.172-.112.364-.125.89-.11.017-.203.016c-.281 0-.422-.117-.422-.36q0-.544.422-.874.42-.328 1.156-.328.715 0 1.172.422.451.409.453 1.14 0 .691-.422 1.36-.268.44-.906 1.125L1.344-.797v.016h2.031l.188-.766q.058-.047.187-.047.218 0 .219.36 0 .344-.094 1.234H.5Zm0 0"/><path id="x" d="M1.39-3.156c1.008-.114 1.516-.516 1.516-1.203Q2.905-5.421 2-5.422q-.41 0-.703.188-.112.376-.125.828a1 1 0 0 1-.203.015c-.281 0-.422-.117-.422-.359 0-.344.144-.617.437-.828q.45-.328 1.188-.328c.469 0 .836.125 1.11.375q.42.376.421 1.015 0 .628-.422 1.016-.298.284-.906.484v.032q.716.093 1.11.468c.257.243.39.547.39.922q-.001.738-.547 1.219Q2.78.11 1.891.109C1.41.11 1.05.012.813-.17Q.53-.374.53-.672q0-.406.39-.548c.102.23.204.399.298.5q.293.328.828.328c.664 0 1-.351 1-1.062 0-.738-.555-1.149-1.656-1.234Zm0 0"/><path id="y" d="m.125-1.984 2.531-3.782.656-.062v3.64h.75l-.03.672h-.72v1.032l.626.125q.123.017.124.093 0 .048-.093.266H1.906v-.078q0-.246.297-.328l.39-.078v-1.032H.157Zm.734-.203h1.735v-2.704h-.031L.859-2.219Zm0 0"/><clipPath id="a"><path d="M.066 0H27v27H.066Zm0 0"/></clipPath><clipPath id="d"><path d="M197 22h28.965v47H197Zm0 0"/></clipPath></defs><path fill="none" stroke="#000" stroke-miterlimit="10" stroke-width=".39704490000000003" d="M7.957 45.379V.395"/><g clip-path="url(#a)"><path fill="none" stroke="#000" stroke-miterlimit="10" stroke-width=".7930947" d="M7.957.395h7.5l-7.5 14.996L.461.395h7.496"/></g><path fill="none" stroke="#000" stroke-miterlimit="10" stroke-width=".39704490000000003" d="M8.156 45.379h5.356m0 0h5.355"/><path d="M14.672 45.379v1.973l4.195-1.973-4.195-1.977Zm0 0"/><path fill="none" stroke="#000" stroke-miterlimit="10" stroke-width=".7930947" d="M18.867 34.883H39.86v20.992H18.867Zm0 0"/><path fill="none" stroke="#000" stroke-miterlimit="10" stroke-width=".39704490000000003" d="m22.016 37.297 14.695 8.082-14.695 8.082ZM39.86 45.379h5.355m0 0h5.355"/><path d="M46.371 45.379v1.973l4.2-1.973-4.2-1.977Zm0 0"/><path fill="none" stroke="#000" stroke-miterlimit="10" stroke-width=".7930947" d="M50.57 34.883H71.56v20.992H50.57Zm0 0"/><path fill="none" stroke="#000" stroke-miterlimit="10" stroke-width=".39704490000000003" d="M68.41 45.379a7.346 7.346 0 1 0-14.692-.003 7.346 7.346 0 0 0 14.692.003ZM55.871 40.184l10.387 10.39m0-10.39L55.87 50.574M71.559 45.379h5.355m0 0h5.356"/><path d="M78.074 45.379v1.973l4.196-1.973-4.196-1.977Zm0 0"/><path fill="none" stroke="#000" stroke-miterlimit="10" stroke-width=".7930947" d="M82.27 34.883h20.992v20.992H82.27Zm0 0"/><path fill="none" stroke="#000" stroke-miterlimit="10" stroke-width=".39704490000000003" d="M87.52 40.129c.855-1.344 1.671-2.625 2.62-2.625.954 0 1.77 1.281 2.626 2.625s1.675 2.625 2.625 2.625c.949 0 1.77-1.281 2.625-2.625m-3.676-1.574-3.149 3.148M87.52 45.379c.855-1.344 1.671-2.625 2.62-2.625.954 0 1.77 1.281 2.626 2.625S94.44 48 95.39 48c.949 0 1.77-1.277 2.625-2.621M87.52 50.625C88.375 49.281 89.19 48 90.14 48c.954 0 1.77 1.281 2.626 2.625s1.675 2.625 2.625 2.625c.949 0 1.77-1.281 2.625-2.625m-3.676-1.574-3.149 3.148M103.262 45.379h5.355m0 0h5.356"/><path d="M109.777 45.379v1.973l4.196-1.973-4.196-1.977Zm0 0"/><path fill="none" stroke="#000" stroke-miterlimit="10" stroke-width=".7930947" d="M113.973 34.883h20.992v20.992h-20.992Zm0 0"/><path fill="none" stroke="#000" stroke-miterlimit="10" stroke-width=".39704490000000003" d="M119.219 40.129c.855-1.344 1.676-2.625 2.625-2.625s1.77 1.281 2.625 2.625 1.672 2.625 2.62 2.625c.954 0 1.77-1.281 2.626-2.625"/><use xlink:href="#b" x="120.255" y="51.103"/><use xlink:href="#c" x="123.437" y="51.103"/><path fill="none" stroke="#000" stroke-miterlimit="10" stroke-width=".39704490000000003" d="M134.965 45.379h5.355m0 0h5.352"/><path d="M141.477 45.379v1.973l4.195-1.973-4.195-1.977Zm0 0"/><path fill="none" stroke="#000" stroke-miterlimit="10" stroke-width=".7930947" d="M145.672 34.883h20.992v20.992h-20.992Zm0 0"/><path fill="none" stroke="#000" stroke-miterlimit="10" stroke-width=".39704490000000003" d="M150.922 40.129c.855-1.344 1.672-2.625 2.625-2.625.95 0 1.766 1.281 2.621 2.625.856 1.344 1.676 2.625 2.625 2.625s1.77-1.281 2.625-2.625m-3.676-1.574-3.148 3.148M150.922 45.379c.855-1.344 1.672-2.625 2.625-2.625.95 0 1.766 1.281 2.621 2.625.856 1.344 1.676 2.621 2.625 2.621s1.77-1.277 2.625-2.621M150.922 50.625c.855-1.344 1.672-2.625 2.625-2.625.95 0 1.766 1.281 2.621 2.625.856 1.344 1.676 2.625 2.625 2.625s1.77-1.281 2.625-2.625m-3.676-1.574-3.148 3.148M166.664 45.379h5.356m0 0h5.355"/><path d="M173.18 45.379v1.973l4.195-1.973-4.195-1.977Zm0 0"/><path fill="none" stroke="#000" stroke-miterlimit="10" stroke-width=".7930947" d="M177.375 34.883h20.992v20.992h-20.992Zm0 0"/><path fill="none" stroke="#000" stroke-miterlimit="10" stroke-width=".39704490000000003" d="m180.524 37.297 14.695 8.082-14.695 8.082ZM198.367 45.379h5.356m0 0h5.355"/><path d="M204.883 45.379v1.973l4.195-1.973-4.195-1.977Zm0 0"/><g clip-path="url(#d)"><path fill="none" stroke="#000" stroke-miterlimit="10" stroke-width=".7930947" d="M209.078 57.371V33.383h9.293V57.37Zm9.293-17.992 7.2-3.598v19.192l-7.2-3.598Zm0 0"/></g><path fill="none" stroke="#000" stroke-miterlimit="10" stroke-width=".39704490000000003" d="m61.066 55.875-.003 5.352m0 0 .003 5.355"/><path d="M61.066 60.07h1.973l-1.973-4.195-1.976 4.195Zm0 0"/><path fill="none" stroke="#000" stroke-miterlimit="10" stroke-width=".7930947" d="M50.57 66.582H71.56v20.992H50.57Zm0 0"/><path fill="none" stroke="#000" stroke-miterlimit="10" stroke-width=".39704490000000003" d="M62.375 72.355c.43-.671.84-1.312 1.313-1.312.476 0 .886.64 1.312 1.312.43.672.836 1.313 1.313 1.313.476 0 .882-.64 1.312-1.313M62.375 74.98c.43-.671.84-1.312 1.313-1.312.476 0 .886.64 1.312 1.312.43.672.836 1.313 1.313 1.313.476 0 .882-.64 1.312-1.313M62.375 77.605c.43-.671.84-1.312 1.313-1.312.476 0 .886.64 1.312 1.312.43.672.836 1.31 1.313 1.31.476 0 .882-.638 1.312-1.31"/><use xlink:href="#e" x="53.28" y="77.533"/><path fill="none" stroke="#000" stroke-miterlimit="10" stroke-width=".39704490000000003" d="M53.719 80.754H68.41M53.719 84.426H68.41v-2.098H53.72ZM53.719 86H68.41"/><use xlink:href="#f" x="23.603" y="65.202"/><use xlink:href="#g" x="30.348" y="65.202"/><use xlink:href="#h" x="87.813" y="65.202"/><use xlink:href="#g" x="92.943" y="65.202"/><use xlink:href="#i" x="98.858" y="31.603"/><use xlink:href="#j" x="105.247" y="31.603"/><use xlink:href="#k" x="109.404" y="31.603"/><use xlink:href="#l" x="117.265" y="31.603"/><use xlink:href="#m" x="122.101" y="31.603"/><use xlink:href="#n" x="127.026" y="31.603"/><use xlink:href="#o" x="132.103" y="31.603"/><use xlink:href="#p" x="134.592" y="31.603"/><use xlink:href="#q" x="138.759" y="31.603"/><use xlink:href="#l" x="141.793" y="31.603"/><use xlink:href="#r" x="146.629" y="31.603"/><use xlink:href="#s" x="150.484" y="65.202"/><use xlink:href="#g" x="157.077" y="65.202"/><use xlink:href="#s" x="182.185" y="65.202"/><use xlink:href="#g" x="188.778" y="65.202"/><use xlink:href="#t" x="52.52" y="97.01"/><use xlink:href="#g" x="58.302" y="97.01"/><use xlink:href="#u" x="63.076" y="97.01"/><path fill="none" stroke="#000" stroke-dasharray="2.974184733 2.974184733" stroke-miterlimit="10" stroke-width=".39704490000000003" d="M45.215 45.379v64.258"/><use xlink:href="#v" x="42.982" y="118.609"/><path fill="none" stroke="#000" stroke-dasharray="2.974184733 2.974184733" stroke-miterlimit="10" stroke-width=".39704490000000003" d="M76.914 45.379v64.258"/><use xlink:href="#w" x="74.683" y="118.716"/><path fill="none" stroke="#000" stroke-dasharray="2.974184733 2.974184733" stroke-miterlimit="10" stroke-width=".39704490000000003" d="M108.617 45.379v64.258"/><use xlink:href="#x" x="106.385" y="118.716"/><path fill="none" stroke="#000" stroke-dasharray="2.974184733 2.974184733" stroke-miterlimit="10" stroke-width=".39704490000000003" d="M140.32 45.379v64.258"/><use xlink:href="#y" x="138.086" y="118.636"/></svg>