<svg xmlns="http://www.w3.org/2000/svg" width="226.784" height="170.487"><defs><clipPath id="a"><path d="M.234 0H226v169.977H.234Zm0 0"/></clipPath><clipPath id="b"><path d="M.234 0h226.102v169.977H.234Zm0 0"/></clipPath></defs><g clip-path="url(#a)"><path fill="none" stroke="#000" stroke-miterlimit="10" stroke-width=".397803" d="M1.027 169.184h224.516M1.027 141.117h224.516M1.027 113.055h224.516M1.027 84.988h224.516M1.027 56.922h224.516M1.027 28.859h224.516M1.027.805h224.516M1.027 169.184V.793m28.063 168.39V.794m28.066 168.39V.794m28.067 168.39V.794m28.062 168.39V.794m28.067 168.39V.794m28.062 168.39V.794m28.066 168.39V.794m28.055 168.39V.794"/></g><g clip-path="url(#b)"><path fill="none" stroke="#000" stroke-miterlimit="10" stroke-width="1.589218" d="M1.027 84.988C19.324 41.883 36.836.793 57.157.793c20.32 0 37.831 41.09 56.128 84.195 18.3 43.106 35.813 84.196 56.13 84.196 20.32 0 37.831-41.09 56.128-84.196"/></g></svg>