<svg xmlns="http://www.w3.org/2000/svg" width="113.495" height="90.397"><defs><clipPath id="a"><path d="M.125 86H4v3.797H.125Zm0 0"/></clipPath><clipPath id="b"><path d="M.125 80H10v9.797H.125Zm0 0"/></clipPath><clipPath id="c"><path d="M109 86h3.867v3.797H109Zm0 0"/></clipPath><clipPath id="d"><path d="M103 80h9.867v9.797H103Zm0 0"/></clipPath><clipPath id="e"><path d="M.125 4H4v4H.125Zm0 0"/></clipPath><clipPath id="f"><path d="M.125 0H10v14H.125Zm0 0"/></clipPath><clipPath id="g"><path d="M109 4h3.867v4H109Zm0 0"/></clipPath><clipPath id="h"><path d="M103 0h9.867v14H103Zm0 0"/></clipPath></defs><path fill="none" stroke="#000" stroke-miterlimit="10" stroke-width=".39635463" d="M1.898 88.023H29.2m0 0h54.598m0 0h27.297"/><g clip-path="url(#a)"><path fill="#FFF" d="M3.477 88.023a1.575 1.575 0 1 0-3.152 0 1.575 1.575 0 1 0 3.152 0m0 0"/></g><g clip-path="url(#b)"><path fill="none" stroke="#000" stroke-miterlimit="10" stroke-width=".39635463" d="M3.477 88.023a1.575 1.575 0 1 0-3.152 0 1.575 1.575 0 1 0 3.152 0Zm0 0"/></g><g clip-path="url(#c)"><path fill="#FFF" d="M112.672 88.023a1.575 1.575 0 1 0-3.152 0 1.575 1.575 0 1 0 3.152 0m0 0"/></g><g clip-path="url(#d)"><path fill="none" stroke="#000" stroke-miterlimit="10" stroke-width=".39635463" d="M112.672 88.023a1.575 1.575 0 1 0-3.152 0 1.575 1.575 0 1 0 3.152 0Zm0 0"/></g><path fill="none" stroke="#000" stroke-miterlimit="10" stroke-width=".39635463" d="M1.898 6.129H13.91m30.574 0h24.024m30.574 0h12.012"/><path fill="none" stroke="#000" stroke-miterlimit="10" stroke-width=".79171589" d="M13.91.394h30.574V11.86H13.91Zm0 0"/><g clip-path="url(#e)"><path fill="#FFF" d="M3.477 6.129a1.575 1.575 0 1 0-3.152 0 1.575 1.575 0 0 0 3.152 0m0 0"/></g><g clip-path="url(#f)"><path fill="none" stroke="#000" stroke-miterlimit="10" stroke-width=".39635463" d="M3.477 6.129a1.575 1.575 0 1 0-3.152 0 1.575 1.575 0 0 0 3.152 0Zm0 0"/></g><path stroke="#000" stroke-miterlimit="10" stroke-width=".39635463" d="M58.074 6.129a1.575 1.575 0 1 0-3.152 0c0 .871.703 1.574 1.574 1.574S58.074 7 58.074 6.13Zm0 0"/><path fill="none" stroke="#000" stroke-miterlimit="10" stroke-width=".79171589" d="M68.508.394h30.574V11.86H68.508Zm0 0"/><g clip-path="url(#g)"><path fill="#FFF" d="M112.672 6.129a1.575 1.575 0 1 0-3.152 0c0 .871.703 1.574 1.574 1.574.87 0 1.578-.703 1.578-1.574m0 0"/></g><g clip-path="url(#h)"><path fill="none" stroke="#000" stroke-miterlimit="10" stroke-width=".39635463" d="M112.672 6.129a1.575 1.575 0 1 0-3.152 0c0 .871.703 1.574 1.574 1.574.87 0 1.578-.703 1.578-1.574Zm0 0"/></g><path fill="none" stroke="#000" stroke-miterlimit="10" stroke-width=".39635463" d="M56.496 88.023V50.898m0-7.644V6.129"/><path fill="none" stroke="#000" stroke-miterlimit="10" stroke-width=".79171589" d="M45.031 50.898h22.93m-22.93-7.644h22.93"/></svg>