<svg xmlns="http://www.w3.org/2000/svg" xmlns:xlink="http://www.w3.org/1999/xlink" width="226.774" height="129.806"><defs><path id="b" d="M1.094-.5v-5.203l-.547-.125c-.086-.02-.125-.05-.125-.094q0-.075.094-.25h4.03c.04.5.063.852.063 1.047 0 .262-.086.39-.25.39a.6.6 0 0 1-.203-.03l-.203-.938H1.875v2.312h2v.5h-2v2.375h2.14l.235-.968a.7.7 0 0 1 .203-.032q.234 0 .234.375 0 .363-.078 1.141H.422a.16.16 0 0 1-.016-.078Q.404-.324.72-.406Zm0 0"/><path id="c" d="M.906-.469v-3.343l-.64-.079a.2.2 0 0 1-.016-.078q0-.246.328-.281l1.063-.094-.063.75h.031c.352-.539.735-.812 1.141-.812q.593.002.594.437 0 .188-.14.375a1.6 1.6 0 0 0-.595-.125q-.61.001-.968.5v2.75l.625.125q.124.017.125.11A.35.35 0 0 1 2.297 0H.312a.1.1 0 0 1-.015-.062c0-.133.094-.235.281-.297Zm0 0"/><path id="d" d="M3.422-.516H3.39Q2.95.11 2.109.11 1.39.11.938-.359C.57-.723.39-1.273.39-2.016q0-1.183.703-1.828.609-.562 1.5-.562.404.001.765.125v-1.672l-.64-.094a.1.1 0 0 1-.016-.062q0-.246.328-.282L4.094-6.5v6l.656.094v.078q0 .252-.328.281l-1 .094Zm-1.094.047q.657 0 1.031-.39v-2.72q-.315-.327-.859-.327-.597.002-.953.437c-.274.324-.406.762-.406 1.313q-.001.86.343 1.281.311.408.844.406m0 0"/><path id="e" d="M1.156-2.172q.012.845.375 1.297.359.439 1.016.438c.394 0 .765-.133 1.11-.407q.092.064.109.25-.001.205-.407.438Q2.89.109 2.25.109 1.434.111.953-.39.391-.965.391-2.062.39-3.173.969-3.828q.527-.576 1.312-.578.702 0 1.094.422.375.41.375 1.078c0 .199-.04.445-.11.734Zm1.032-1.765q-.892.002-1.016 1.328h1.766q.046-.171.046-.375 0-.951-.796-.953m0 0"/><path id="f" d="M3.203-5.547c-.305-.164-.601-.25-.89-.25-.344 0-.618.09-.813.266q-.298.269-.297.718 0 .411.234.657.141.141.516.343l.844.47q.654.361.922.671.359.393.36.985c0 .53-.18.96-.532 1.28Q3.013.11 2.094.11a3.46 3.46 0 0 1-1.5-.359 11 11 0 0 1-.047-1q0-.389.281-.39.075 0 .188.03l.218.954q.403.298.954.297.574 0 .89-.328.281-.295.281-.782a1 1 0 0 0-.28-.703c-.15-.125-.454-.316-.923-.578l-.562-.312C1.25-3.25.992-3.445.828-3.656q-.313-.421-.312-1-.002-.748.547-1.203.515-.422 1.359-.422.78 0 1.39.328.031.644.032.844-.001.408-.266.406a.44.44 0 0 1-.203-.047Zm0 0"/><path id="g" d="M2.594-6.172c.008.024.015.047.015.078q0 .237-.312.297l-.422.094v2.281h3v-2.281l-.562-.125c-.086-.02-.125-.05-.125-.094q0-.075.093-.25H6.36a.2.2 0 0 1 .016.078q0 .237-.312.297l-.407.094V-.5l.61.14q.124.018.125.094 0 .048-.094.266h-2.11v-.078q0-.246.297-.328L4.875-.5v-2.39h-3V-.5l.625.14q.124.018.125.094 0 .048-.094.266H.421a.16.16 0 0 1-.015-.078Q.404-.324.72-.406L1.094-.5v-5.203l-.547-.125c-.086-.02-.125-.05-.125-.094q0-.075.094-.25Zm0 0"/><clipPath id="a"><path d="M.055 76h226.437v53.613H.055Zm0 0"/></clipPath></defs><g clip-path="url(#a)"><path fill="#BFBFBF" d="m.055 110.16 168.074-33.613L226.492 96 58.418 129.613Zm0 0"/></g><use xlink:href="#b" x="56.961" y="113.355"/><use xlink:href="#c" x="62.038" y="113.355"/><use xlink:href="#d" x="65.386" y="113.355"/><use xlink:href="#e" x="70.328" y="113.355"/><path fill="none" stroke="#7F7F7F" stroke-miterlimit="10" stroke-width=".79581247" d="m29.238 68.816 163.043-32.605"/><path fill="#7F7F7F" stroke="#7F7F7F" stroke-miterlimit="10" stroke-width=".79578059" d="m196.293 35.406-4.152-.914.671 3.36Zm0 0"/><use xlink:href="#f" x="200.692" y="38.293"/><path fill="none" stroke="#000" stroke-dasharray="3.9791622010000003 1.9895811005000001" stroke-miterlimit="10" stroke-width=".79581247" d="m29.238 68.816 1.543-3.39 1.543-3.383 1.543-3.352 1.543-3.32 1.543-3.27 1.543-3.21 1.543-3.133 1.543-3.055 1.547-2.953 1.543-2.852 1.543-2.734 1.543-2.61 1.543-2.472 1.543-2.332 1.543-2.176 1.543-2.02 1.543-1.85 1.543-1.677 1.543-1.504 1.543-1.316 1.543-1.133 1.546-.941 1.543-.746 1.543-.555 1.543-.36 1.543-.16 1.543.032 1.543.226 1.543.422 1.543.602 1.543.797 1.543.972 1.543 1.145 1.543 1.32 1.543 1.48 1.547 1.637 1.543 1.785 1.543 1.926 1.543 2.055 1.543 2.176 1.543 2.285 1.543 2.39 1.543 2.477 1.543 2.555 1.543 2.62 1.543 2.68 1.543 2.723 1.543 2.754 1.546 2.77 3.086 5.546 1.543 2.75 1.543 2.723 1.543 2.68 1.543 2.625 1.543 2.555 1.543 2.476 1.543 2.39 1.543 2.286 1.543 2.18 1.543 2.054 1.543 1.926 1.547 1.785 1.543 1.64 1.543 1.481 1.543 1.32 1.543 1.149 1.543.973 1.543.797 1.543.605 1.543.422 1.543.226 1.543.036 1.543-.16 1.543-.356 1.546-.55 1.543-.747 1.543-.941 1.543-1.13 1.543-1.316 1.543-1.5 1.543-1.68 1.543-1.85 1.543-2.016 1.543-2.176 1.543-2.328 1.543-2.473 1.543-2.605 1.547-2.735 1.543-2.851 1.543-2.954 1.543-3.054 1.543-3.133 1.543-3.207 1.543-3.27 1.543-3.32 1.543-3.355 1.543-3.38 1.543-3.394"/><path fill="none" stroke="#000" stroke-miterlimit="10" stroke-width=".79581247" d="m29.238 68.816-.308-.921-.301-.926-.281-.918-.266-.91-.234-.903-.196-.886-.152-.875-.102-.856-.046-.84.02-.816.085-.793.164-.77.246-.742.328-.71.422-.684.52-.649.617-.62.719-.583.828-.547.937-.508 1.051-.476 1.164-.434 1.277-.398 1.399-.356 1.512-.32 1.632-.277 1.75-.243 1.864-.199 1.98-.164 2.09-.125 2.203-.09 2.317-.05 2.414-.02 2.52.02 2.616.046 2.711.082 2.801.11 2.883.137 2.96.164 3.036.187 3.098.211 3.164.23 3.215.25 3.261.266 3.301.277 3.336.29 3.36.296 3.382.305 3.39.305 3.395.308 3.391.309 3.379.3 3.36.302 3.335.289 3.305.277 3.262.262 3.214.25 3.165.23 3.097.211 3.035.188 2.965.164 2.883.14 2.8.11 2.712.082 2.617.047 2.52.02 2.417-.02 2.313-.051 2.207-.09 2.09-.125 1.984-.16 1.863-.203 1.75-.239 1.633-.28 1.512-.317 1.398-.36 1.282-.394 1.164-.438 1.05-.472.938-.508.828-.547.723-.582.617-.617.52-.653.421-.68.332-.714.246-.742.165-.766.085-.797.02-.816-.043-.836-.102-.86-.152-.87-.2-.891-.233-.899-.262-.91-.285-.918-.297-.926-.309-.925"/><use xlink:href="#g" x="64.052" y="9.161"/><use xlink:href="#b" x="20.973" y="51.919"/><path fill="none" stroke="#000" stroke-dasharray="3.9791622010000003 1.9895811005000001" stroke-miterlimit="10" stroke-width=".79581247" d="M41.969 66.273V47.086"/><path stroke="#000" stroke-miterlimit="10" stroke-width=".79581247" d="m41.969 42.996-1.711 3.89h3.426Zm0 0"/><path fill="none" stroke="#000" stroke-miterlimit="10" stroke-width=".79581247" d="m41.969 66.273-9.719-3.242"/><path stroke="#000" stroke-miterlimit="10" stroke-width=".79577262" d="m28.367 61.738 3.153 2.856.539-1.625.543-1.625Zm0 0"/><path fill="none" stroke="#000" stroke-dasharray="3.9791622010000003 1.9895811005000001" stroke-miterlimit="10" stroke-width=".79581247" d="M54.703 63.727V26.738"/><path stroke="#000" stroke-miterlimit="10" stroke-width=".79581247" d="m54.703 22.645-1.71 3.894h3.425Zm0 0"/><path fill="none" stroke="#000" stroke-miterlimit="10" stroke-width=".79581247" d="m54.703 63.727-20.402-6.801"/><path stroke="#000" stroke-miterlimit="10" stroke-width=".79577262" d="m30.418 55.629 3.152 2.855.54-1.625.542-1.625Zm0 0"/><path fill="none" stroke="#000" stroke-dasharray="3.9791622010000003 1.9895811005000001" stroke-miterlimit="10" stroke-width=".79581247" d="M67.438 61.18V17.676"/><path stroke="#000" stroke-miterlimit="10" stroke-width=".79581247" d="m67.437 13.582-1.714 3.895h3.425Zm0 0"/><path fill="none" stroke="#000" stroke-miterlimit="10" stroke-width=".79581247" d="M67.438 61.18 43.12 53.074"/><path stroke="#000" stroke-miterlimit="10" stroke-width=".79577262" d="m39.242 51.781 3.149 2.856 1.086-3.25Zm0 0"/><path fill="none" stroke="#000" stroke-dasharray="3.9791622010000003 1.9895811005000001" stroke-miterlimit="10" stroke-width=".79581247" d="M80.168 58.633V21.645"/><path stroke="#000" stroke-miterlimit="10" stroke-width=".79581247" d="m80.168 17.55-1.711 3.895h3.426Zm0 0"/><path fill="none" stroke="#000" stroke-miterlimit="10" stroke-width=".79581247" d="m80.168 58.633-20.402-6.801"/><path stroke="#000" stroke-miterlimit="10" stroke-width=".79577262" d="m55.883 50.535 3.152 2.86.543-1.625.54-1.625Zm0 0"/><path fill="none" stroke="#000" stroke-dasharray="3.9791622010000003 1.9895811005000001" stroke-miterlimit="10" stroke-width=".79581247" d="M92.902 56.086V36.898"/><path stroke="#000" stroke-miterlimit="10" stroke-width=".79581247" d="m92.902 32.809-1.71 3.89h3.421Zm0 0"/><path fill="none" stroke="#000" stroke-miterlimit="10" stroke-width=".79581247" d="m92.902 56.086-9.722-3.242"/><path stroke="#000" stroke-miterlimit="10" stroke-width=".79577262" d="m79.297 51.55 3.152 2.856.543-1.625.54-1.625Zm0 0"/><path fill="none" stroke="#000" stroke-dasharray="3.9791622010000003 1.9895811005000001" stroke-miterlimit="10" stroke-width=".79581247" d="M118.367 50.992V70.18"/><path stroke="#000" stroke-miterlimit="10" stroke-width=".79581247" d="m118.367 74.27 1.715-3.891h-3.426Zm0 0"/><path fill="none" stroke="#000" stroke-miterlimit="10" stroke-width=".79581247" d="m118.367 50.992 9.723 3.242"/><path stroke="#000" stroke-miterlimit="10" stroke-width=".79577262" d="m131.973 55.527-3.153-2.855-.539 1.625-.543 1.625Zm0 0"/><path fill="none" stroke="#000" stroke-dasharray="3.9791622010000003 1.9895811005000001" stroke-miterlimit="10" stroke-width=".79581247" d="M131.102 48.445v36.989"/><path stroke="#000" stroke-miterlimit="10" stroke-width=".79581247" d="m131.102 89.527 1.71-3.894h-3.425Zm0 0"/><path fill="none" stroke="#000" stroke-miterlimit="10" stroke-width=".79581247" d="m131.102 48.445 20.402 6.801"/><path stroke="#000" stroke-miterlimit="10" stroke-width=".79577262" d="m155.387 56.54-3.153-2.856-.539 1.625-.543 1.625Zm0 0"/><path fill="none" stroke="#000" stroke-dasharray="3.9791622010000003 1.9895811005000001" stroke-miterlimit="10" stroke-width=".79581247" d="M143.832 45.898v43.504"/><path stroke="#000" stroke-miterlimit="10" stroke-width=".79581247" d="m143.832 93.496 1.715-3.894h-3.426Zm0 0"/><path fill="none" stroke="#000" stroke-miterlimit="10" stroke-width=".79581247" d="m143.832 45.898 24.316 8.106"/><path stroke="#000" stroke-miterlimit="10" stroke-width=".79577262" d="m172.027 55.297-3.148-2.856-1.086 3.25Zm0 0"/><path fill="none" stroke="#000" stroke-dasharray="3.9791622010000003 1.9895811005000001" stroke-miterlimit="10" stroke-width=".79581247" d="M156.566 43.352V80.34"/><path stroke="#000" stroke-miterlimit="10" stroke-width=".79581247" d="m156.566 84.434 1.715-3.895h-3.426Zm0 0"/><path fill="none" stroke="#000" stroke-miterlimit="10" stroke-width=".79581247" d="m156.566 43.352 20.407 6.8"/><path stroke="#000" stroke-miterlimit="10" stroke-width=".79577262" d="m180.852 51.45-3.149-2.856-.543 1.625-.543 1.62Zm0 0"/><path fill="none" stroke="#000" stroke-dasharray="3.9791622010000003 1.9895811005000001" stroke-miterlimit="10" stroke-width=".79581247" d="M169.3 40.805v19.187"/><path stroke="#000" stroke-miterlimit="10" stroke-width=".79581247" d="m169.3 64.086 1.712-3.895h-3.426Zm0 0"/><path fill="none" stroke="#000" stroke-miterlimit="10" stroke-width=".79581247" d="m169.3 40.805 9.723 3.242"/><path stroke="#000" stroke-miterlimit="10" stroke-width=".79577262" d="m182.906 45.34-3.152-2.856-.543 1.625-.54 1.625Zm0 0"/></svg>