<svg xmlns="http://www.w3.org/2000/svg" xmlns:xlink="http://www.w3.org/1999/xlink" width="226.772" height="126.642"><defs><clipPath id="a"><path d="M12 122h4v4.285h-4Zm0 0"/></clipPath><clipPath id="b"><path d="M7 117h15v9.285H7Zm0 0"/></clipPath><clipPath id="c"><path d="M210 122h4v4.285h-4Zm0 0"/></clipPath><clipPath id="d"><path d="M204 117h15v9.285h-15Zm0 0"/></clipPath><path id="e" d="M1.828.094c1.75 0 2.375-1.14 2.672-2.735l.484-2.453c.047-.25.188-.39.563-.406l.219-.016c.046 0 .078-.03.078-.078l.031-.172-.016-.015c-.406 0-.75.015-.937.015-.203 0-.547-.015-.938-.015l-.03.015-.032.172c0 .047.031.078.062.078l.22.016c.296.016.405.094.405.281 0 .032 0 .078-.015.125l-.516 2.625c-.187 1-.547 2.188-2 2.188-.422 0-.734-.188-.937-.438C.953-.969.906-1.25.906-1.53s.047-.594.11-.875L1.53-5.11c.063-.25.203-.375.563-.391l.219-.016c.046 0 .078-.03.078-.078l.046-.172-.03-.015c-.391 0-.75.015-1.094.015S.64-5.78.234-5.78l-.03.015-.032.172c0 .047.031.078.062.078l.22.016c.28.016.405.078.405.266 0 .046 0 .078-.015.125l-.578 3a3 3 0 0 0-.063.625c0 1.28.953 1.578 1.625 1.578m0 0"/><path id="f" d="M2.016-2.578h-.657v-1.297c0-.312.094-.453.47-.453h.546c.531 0 .64.281.797.781.094.016.172 0 .234-.031-.031-.297-.14-.985-.156-1.047 0-.016 0-.016-.016-.016-.125.016-.187.032-.359.032H1.047c-.203 0-.625-.016-.922-.016-.047.031-.047.188 0 .234.5.016.625.047.625.641v2.875c0 .594-.125.625-.625.656-.047.047-.047.188 0 .235C.391 0 .828 0 1.063 0h1.53c.345 0 .923.016.923.016.093-.36.203-.828.265-1.203a.45.45 0 0 0-.25-.032c-.14.516-.39.938-.937.938h-.828c-.313 0-.407-.11-.407-.453v-1.578h.657c.609 0 .625.171.64.484.047.047.203.047.235 0v-1.235c-.032-.046-.188-.046-.235 0-.015.391-.031.485-.64.485m0 0"/><path id="g" d="M1.11-.562 1.5-1.61c.031-.094.078-.11.25-.11h1.516l.406 1.203c.094.25-.172.266-.516.297-.047.047-.047.188 0 .235C3.406 0 3.812 0 4.094 0s.562 0 .812.016c.032-.047.032-.188 0-.235-.281-.031-.531-.047-.64-.39L2.78-4.703c-.11.062-.297.14-.39.14L.766-.733C.578-.281.359-.25.046-.22 0-.172 0-.03.047.016.235 0 .47 0 .689 0c.296 0 .656 0 .921.016.032-.047.032-.188 0-.235C1.33-.25 1-.266 1.11-.562m.765-1.47c-.156 0-.203-.015-.172-.093l.734-1.844h.032l.687 1.938Zm0 0"/></defs><path fill="none" stroke="#000" stroke-miterlimit="10" stroke-width=".39787482" d="M14.418 124.504h98.61m0 0h98.609M14.418 6.172H44m0 0h53.2m31.655 0h53.2m0 0h29.582"/><path stroke="#000" stroke-miterlimit="10" stroke-width=".39787482" d="M75.164 6.172a1.583 1.583 0 1 0-3.166.002 1.583 1.583 0 0 0 3.166-.002Zm0 0"/><path fill="none" stroke="#000" stroke-linejoin="bevel" stroke-miterlimit="10" stroke-width=".79475246" d="M96.8 6.332c0-3.277 1.817-5.937 4.055-5.937 2.243 0 4.06 2.66 4.06 5.937 0-3.277 1.815-5.937 4.054-5.937 2.242 0 4.058 2.66 4.058 5.937 0-3.277 1.817-5.937 4.055-5.937 2.242 0 4.059 2.66 4.059 5.937 0-3.277 1.816-5.937 4.054-5.937 2.242 0 4.059 2.66 4.059 5.937"/><path stroke="#000" stroke-miterlimit="10" stroke-width=".39787482" d="M154.055 6.172c0-.871-.711-1.582-1.586-1.582a1.583 1.583 0 1 0 1.586 1.582Zm0 0"/><path fill="none" stroke="#000" stroke-miterlimit="10" stroke-width=".39787482" d="M73.582 7.754v28m0 0V65.34h35.488m7.914 0h35.485V35.754m0 0v-28"/><path fill="none" stroke="#000" stroke-miterlimit="10" stroke-width=".79475246" d="M109.07 53.465V77.21m7.914-23.746V77.21"/><path fill="#FFF" stroke="#000" stroke-miterlimit="10" stroke-width=".39787482" d="M16 6.172a1.583 1.583 0 1 0-3.166.002A1.583 1.583 0 0 0 16 6.172Zm0 0"/><g clip-path="url(#a)"><path fill="#FFF" d="M16 124.504a1.58 1.58 0 0 0-1.582-1.582 1.58 1.58 0 0 0-1.582 1.582 1.58 1.58 0 0 0 1.582 1.582A1.58 1.58 0 0 0 16 124.504m0 0"/></g><g clip-path="url(#b)"><path fill="none" stroke="#000" stroke-miterlimit="10" stroke-width=".39787482" d="M16 124.504a1.58 1.58 0 0 0-1.582-1.582 1.58 1.58 0 0 0-1.582 1.582 1.58 1.58 0 0 0 1.582 1.582A1.58 1.58 0 0 0 16 124.504Zm0 0"/></g><path fill="#FFF" stroke="#000" stroke-miterlimit="10" stroke-width=".39787482" d="M213.219 6.172a1.583 1.583 0 1 0-3.166.002 1.583 1.583 0 0 0 3.166-.002Zm0 0"/><g clip-path="url(#c)"><path fill="#FFF" d="M213.219 124.504a1.58 1.58 0 0 0-1.582-1.582 1.58 1.58 0 0 0-1.582 1.582 1.58 1.58 0 0 0 1.582 1.582 1.58 1.58 0 0 0 1.582-1.582m0 0"/></g><g clip-path="url(#d)"><path fill="none" stroke="#000" stroke-miterlimit="10" stroke-width=".39787482" d="M213.219 124.504a1.58 1.58 0 0 0-1.582-1.582 1.58 1.58 0 0 0-1.582 1.582 1.58 1.58 0 0 0 1.582 1.582 1.58 1.58 0 0 0 1.582-1.582Zm0 0"/></g><path fill="none" stroke="#000" stroke-miterlimit="10" stroke-width=".39787482" d="M14.418 23.875v82.93"/><path stroke="#000" stroke-miterlimit="10" stroke-width=".39787482" d="M14.418 102.598h-1.98l1.98 4.207 1.977-4.207Zm0 0"/><use xlink:href="#e" x="2.193" y="67.286"/><use xlink:href="#f" x="6.95" y="69.163"/><path fill="none" stroke="#000" stroke-miterlimit="10" stroke-width=".39787482" d="M211.637 23.875v82.93"/><path stroke="#000" stroke-miterlimit="10" stroke-width=".39787482" d="M211.637 102.598h-1.98l1.98 4.207 1.976-4.207Zm0 0"/><use xlink:href="#e" x="214.24" y="67.286"/><use xlink:href="#g" x="218.996" y="69.163"/></svg>