<svg xmlns="http://www.w3.org/2000/svg" xmlns:xlink="http://www.w3.org/1999/xlink" width="226.772" height="122.237"><defs><clipPath id="a"><path d="M111 118h4v3.48h-4Zm0 0"/></clipPath><clipPath id="b"><path d="M105 112h16v9.48h-16Zm0 0"/></clipPath><clipPath id="c"><path d="M13 118h4v3.48h-4Zm0 0"/></clipPath><clipPath id="d"><path d="M7 112h15v9.48H7Zm0 0"/></clipPath><clipPath id="e"><path d="M209 118h4v3.48h-4Zm0 0"/></clipPath><clipPath id="f"><path d="M204 112h15v9.48h-15Zm0 0"/></clipPath><path id="g" d="M1.813.094c1.765 0 2.375-1.14 2.671-2.719l.485-2.453c.047-.25.187-.375.547-.406L5.75-5.5c.047 0 .063-.031.078-.078l.031-.172-.015-.016c-.407.016-.75.016-.938.016-.203 0-.547 0-.937-.016l-.016.016-.047.172c0 .047.031.078.063.078l.219.016c.296.015.406.093.406.28 0 .032 0 .079-.016.126l-.516 2.61c-.187 1-.546 2.187-2 2.187-.406 0-.718-.188-.921-.438-.188-.25-.235-.515-.235-.797 0-.296.047-.593.094-.875l.531-2.703c.047-.25.203-.36.547-.39l.235-.016c.03 0 .062-.031.078-.078l.03-.172-.015-.016c-.406.016-.765.016-1.094.016-.343 0-.687 0-1.078-.016l-.03.016-.032.172c0 .047.031.078.062.078l.22.016c.28.015.405.093.405.28 0 .032 0 .063-.015.11L.266-2.109a3 3 0 0 0-.063.625c0 1.28.953 1.578 1.61 1.578m0 0"/><path id="h" d="M2-2.578h-.64V-3.86c0-.313.077-.453.468-.453h.531c.532 0 .641.28.797.78.094.016.172 0 .25-.03a51 51 0 0 0-.172-1.047s0-.016-.015-.016c-.125.016-.188.031-.36.031H1.047c-.219 0-.64-.015-.922-.015-.047.046-.047.187 0 .234.5.016.625.063.625.656v2.844c0 .594-.125.625-.625.656-.047.047-.047.188 0 .235C.391 0 .813 0 1.047 0h1.547c.328 0 .906.016.906.016.094-.36.203-.828.266-1.188a.35.35 0 0 0-.25-.047c-.141.516-.391.938-.938.938H1.75c-.297 0-.39-.11-.39-.453v-1.563H2c.61 0 .625.156.656.485.031.03.188.03.235 0-.016-.188-.016-.391-.016-.625 0-.204 0-.454.016-.626-.047-.03-.203-.03-.235 0-.031.391-.047.485-.656.485m0 0"/><path id="i" d="m1.11-.562.39-1.032c.031-.093.078-.125.25-.125h1.5l.406 1.203c.094.25-.172.266-.515.297-.047.047-.047.188 0 .235C3.406 0 3.797 0 4.063 0c.296 0 .562 0 .812.016.047-.047.047-.188 0-.235-.266-.031-.516-.047-.64-.39l-1.47-4.078c-.093.062-.296.14-.39.14L.765-.734C.579-.281.36-.25.048-.22 0-.172 0-.03.047.016.234 0 .469 0 .687 0c.282 0 .641 0 .907.016.047-.047.047-.188 0-.235-.266-.031-.61-.047-.485-.343m.765-1.454c-.156 0-.203-.015-.172-.093l.719-1.844h.047l.672 1.937Zm0 0"/></defs><path fill="none" stroke="#000" stroke-miterlimit="10" stroke-width=".39652620000000005" d="M14.754 119.703H63.89m0 0h98.273m0 0h49.137"/><g clip-path="url(#a)"><path d="M114.605 119.703a1.579 1.579 0 1 0-3.157.001 1.579 1.579 0 0 0 3.157 0m0 0"/></g><g clip-path="url(#b)"><path fill="none" stroke="#000" stroke-miterlimit="10" stroke-width=".39652620000000005" d="M114.605 119.703a1.579 1.579 0 1 0-3.157.001 1.579 1.579 0 0 0 3.157 0Zm0 0"/></g><path fill="none" stroke="#000" stroke-miterlimit="10" stroke-width=".39652620000000005" d="M14.754 1.773H63.89m0 0h98.273m0 0h49.137"/><path stroke="#000" stroke-miterlimit="10" stroke-width=".39652620000000005" d="M114.605 1.773a1.579 1.579 0 1 0-3.157.002 1.579 1.579 0 0 0 3.157-.002Zm0 0"/><path fill="none" stroke="#000" stroke-miterlimit="10" stroke-width=".39652620000000005" d="M113.027 3.352v17.043m0 31.55v39.246m0 7.887v19.047"/><path fill="none" stroke="#000" stroke-linejoin="bevel" stroke-miterlimit="10" stroke-width=".7920586000000001" d="M112.871 20c3.266 0 5.914 1.809 5.914 4.043 0 2.23-2.648 4.043-5.914 4.043 3.266 0 5.914 1.809 5.914 4.043 0 2.23-2.648 4.043-5.914 4.043 3.266 0 5.914 1.808 5.914 4.043 0 2.23-2.648 4.043-5.914 4.043 3.266 0 5.914 1.808 5.914 4.043 0 2.23-2.648 4.043-5.914 4.043"/><path fill="none" stroke="#000" stroke-miterlimit="10" stroke-width=".7920586000000001" d="M124.86 91.191h-23.665m23.664 7.887h-23.664"/><path fill="#FFF" stroke="#000" stroke-miterlimit="10" stroke-width=".39652620000000005" d="M16.332 1.773a1.579 1.579 0 1 0-3.157.002 1.579 1.579 0 0 0 3.157-.002Zm0 0"/><g clip-path="url(#c)"><path fill="#FFF" d="M16.332 119.703a1.579 1.579 0 1 0-3.157.001 1.579 1.579 0 0 0 3.157 0m0 0"/></g><g clip-path="url(#d)"><path fill="none" stroke="#000" stroke-miterlimit="10" stroke-width=".39652620000000005" d="M16.332 119.703a1.579 1.579 0 1 0-3.157.001 1.579 1.579 0 0 0 3.157 0Zm0 0"/></g><path fill="#FFF" stroke="#000" stroke-miterlimit="10" stroke-width=".39652620000000005" d="M212.879 1.773a1.576 1.576 0 1 0-3.152 0 1.575 1.575 0 1 0 3.152 0Zm0 0"/><g clip-path="url(#e)"><path fill="#FFF" d="M212.879 119.703a1.576 1.576 0 1 0-3.152 0 1.575 1.575 0 1 0 3.152 0m0 0"/></g><g clip-path="url(#f)"><path fill="none" stroke="#000" stroke-miterlimit="10" stroke-width=".39652620000000005" d="M212.879 119.703a1.576 1.576 0 1 0-3.152 0 1.575 1.575 0 1 0 3.152 0Zm0 0"/></g><path fill="none" stroke="#000" stroke-miterlimit="10" stroke-width=".39652620000000005" d="M14.754 19.414v82.648"/><path stroke="#000" stroke-miterlimit="10" stroke-width=".39652620000000005" d="M14.754 97.875H12.78l1.973 4.187 1.973-4.187Zm0 0"/><use xlink:href="#g" x="2.571" y="62.68"/><use xlink:href="#h" x="7.311" y="64.551"/><path fill="none" stroke="#000" stroke-miterlimit="10" stroke-width=".39652620000000005" d="M211.3 19.414v82.648"/><path stroke="#000" stroke-miterlimit="10" stroke-width=".39652620000000005" d="M211.3 97.875h-1.968l1.969 4.187 1.972-4.187Zm0 0"/><use xlink:href="#g" x="213.898" y="62.68"/><use xlink:href="#i" x="218.638" y="64.551"/></svg>