<svg xmlns="http://www.w3.org/2000/svg" xmlns:xlink="http://www.w3.org/1999/xlink" width="113.385" height="100.392"><defs><path id="b" d="M2.953-2.453H.547v-.531h2.406Zm0 0"/><path id="c" d="m.422-.453 1.5-1.719q.89-1.015.89-2-.001-1.249-.906-1.25-.362 0-.718.188a4 4 0 0 0-.11.875q-.11.016-.203.015-.422.001-.422-.343 0-.547.422-.875.42-.33 1.14-.329.734.001 1.172.407.453.408.454 1.156 0 .674-.422 1.36-.27.439-.89 1.109L1.343-.797v.016h2.015l.188-.766a.5.5 0 0 1 .187-.031q.235.002.235.344 0 .344-.094 1.234H.5Zm0 0"/><path id="d" d="M.875-.922q.264 0 .422.219.17.205.172.562 0 .592-.375.985-.316.328-.61.328c-.093 0-.164-.078-.203-.234Q.855.621.891.046a.5.5 0 0 1-.344-.125.47.47 0 0 1-.14-.344c0-.156.038-.273.124-.36a.47.47 0 0 1 .344-.14m0 0"/><path id="e" d="M2.234-.39q1.092 0 1.094-2.5-.002-2.499-1.094-2.5c-.742 0-1.109.835-1.109 2.5 0 1.667.367 2.5 1.11 2.5m-.046.5q-.88.002-1.36-.735-.532-.796-.531-2.266c0-.976.187-1.734.562-2.265q.527-.734 1.407-.735.872 0 1.375.735.515.784.515 2.265 0 1.47-.562 2.266c-.344.492-.813.734-1.406.734m0 0"/><path id="f" d="M5.813-6.14c.007.023.015.046.015.077q0 .253-.312.313l-.22.063L3.267 0H2.53L.453-5.687l-.375-.094q-.124-.029-.125-.11c0-.05.035-.132.094-.25H2.03c.008.024.016.047.016.079q-.001.235-.313.312l-.375.078L3-.906h.016l1.703-4.781-.688-.11q-.127-.029-.125-.094 0-.074.094-.25Zm0 0"/><path id="g" d="M2.469-3.016H4.03v.454H2.47v1.671h-.485v-1.671H.422v-.454h1.562v-1.656h.485Zm0 0"/><path id="h" d="M1.125-5.797h2.547l-.063.781H1.516l-.11 1.407q1.296.065 1.875.547.546.455.547 1.374c0 .5-.183.93-.547 1.282q-.534.516-1.39.515Q1.17.108.813-.156a.61.61 0 0 1-.266-.516q0-.388.39-.547.171.376.282.5.293.328.828.328.527 0 .844-.328.28-.31.28-.812 0-.732-.562-1.047-.549-.328-1.765-.328Zm0 0"/><path id="i" d="M3.688-4.75a1.04 1.04 0 0 0-.329-.422 1.24 1.24 0 0 0-.734-.234q-1.376 0-1.469 2.343.516-.405 1.219-.406.763 0 1.203.375.516.422.516 1.266-.001.783-.5 1.344c-.356.398-.809.593-1.36.593-.617 0-1.09-.257-1.421-.78Q.357-1.405.359-2.704.357-3.95.953-4.86q.668-1.032 1.828-1.032.62.002.985.204.311.204.312.468c0 .242-.133.399-.39.469M1.156-2.61Q1.17-1.484 1.5-.921c.195.356.469.531.813.531q.435.001.718-.343.296-.359.297-1.016-.001-1.202-1.015-1.203-.751.002-1.157.344m0 0"/><path id="j" d="M2.016-.562v-4.422l-1.328.25a1 1 0 0 1-.016-.188Q.67-5.12.875-5.203l1.469-.594h.453v5.235l1.094.156q.124.016.125.11c0 .054-.04.151-.11.296H.86v-.078q0-.311.282-.36Zm0 0"/><path id="k" d="m.125-1.984 2.531-3.782.656-.046v3.625h.75l-.046.671h-.703v1.032l.609.125q.124.017.125.093 0 .048-.094.266H1.906a.16.16 0 0 1-.015-.078c0-.164.101-.274.312-.328l.375-.078v-1.032H.156Zm.734-.203h1.72v-2.688h-.017L.86-2.203Zm0 0"/><clipPath id="a"><path d="M66 24h46.738v52H66Zm0 0"/></clipPath></defs><g clip-path="url(#a)"><path fill="none" stroke="#000" stroke-miterlimit="10" stroke-width=".79220206" d="M106.488 49.895c0-8.079-6.55-14.63-14.629-14.63-8.078 0-14.629 6.551-14.629 14.63 0 8.078 6.551 14.628 14.63 14.628 8.077 0 14.628-6.55 14.628-14.628Zm0 0"/></g><path fill="none" stroke="#000" stroke-miterlimit="10" stroke-width=".39659802" d="M98.531 28v13.215L86.7 46.64"/><path fill="none" stroke="#000" stroke-miterlimit="10" stroke-width=".79220206" d="M86.7 41.215V58.57"/><path fill="none" stroke="#000" stroke-miterlimit="10" stroke-width=".39659802" d="M86.7 53.148 98.53 58.57v13.22"/><path d="m90.867 55.059.945-2.067 3.672 4.184-5.566-.051Zm0 0"/><path fill="none" stroke="#000" stroke-miterlimit="10" stroke-width=".39659802" d="M86.7 49.895H74.663M74.863 49.895H56.895"/><use xlink:href="#b" x="3.006" y="52.381"/><use xlink:href="#c" x="6.499" y="52.381"/><use xlink:href="#d" x="10.956" y="52.381"/><use xlink:href="#e" x="12.8" y="52.381"/><use xlink:href="#f" x="18.736" y="52.381"/><use xlink:href="#g" x="87.293" y="9.12"/><use xlink:href="#h" x="91.749" y="9.12"/><use xlink:href="#d" x="96.206" y="9.12"/><use xlink:href="#i" x="98.05" y="9.12"/><use xlink:href="#f" x="103.986" y="9.12"/><use xlink:href="#b" x="87.774" y="95.641"/><use xlink:href="#j" x="91.268" y="95.641"/><use xlink:href="#d" x="95.724" y="95.641"/><use xlink:href="#k" x="97.569" y="95.641"/><use xlink:href="#f" x="103.505" y="95.641"/></svg>