<svg xmlns="http://www.w3.org/2000/svg" xmlns:xlink="http://www.w3.org/1999/xlink" width="226.773" height="93.195"><defs><path id="a" d="M.875-1.516q.544-.639-.937-1.906-1.482-1.231-2.032-.594-.544.658.938 1.891c.992.844 1.664 1.047 2.031.61m.281.266C.863-.914.488-.766.031-.797q-.715-.077-1.593-.828-.875-.717-1.063-1.469a1.24 1.24 0 0 1 .266-1.203c.28-.344.652-.492 1.109-.453.469.063 1.004.34 1.594.828q.873.737 1.078 1.469a1.3 1.3 0 0 1-.266 1.203m0 0"/><path id="b" d="m.922-1.344-2.203-2.64-.672.828a.6.6 0 0 1-.11-.11q-.105-.106 0-.265l.579-1.094.25-.219 2.609 3.125.734-.453c.063-.05.102-.055.125-.015q.048.046.094.234L.516-.437a.14.14 0 0 0-.047-.047q-.141-.186 0-.36Zm0 0"/><path id="c" d="M1.14-1.344q.64-.544-.624-2.031-1.23-1.482-1.875-.937-.655.55.578 2.03c.84.993 1.484 1.305 1.922.938m.204.313Q.84-.593.172-.781q-.703-.216-1.453-1.094-.716-.874-.782-1.625-.044-.685.485-1.14.515-.423 1.172-.235.685.204 1.422 1.094.73.877.812 1.61c.031.468-.133.85-.484 1.14m0 0"/><path id="d" d="m.11-.469.343-1.75Q.654-3.248.281-3.89-.2-4.733-.813-4.375q-.234.142-.421.406.081.27.28.61-.074.064-.155.109c-.188.105-.32.078-.407-.078a.81.81 0 0 1-.062-.75q.158-.389.656-.672.486-.279.938-.172.467.094.765.61.246.44.235 1.062-.018.409-.172 1.094l-.235 1.11 1.36-.782-.172-.594a.3.3 0 0 1 .11-.094q.151-.076.28.141.141.252.422.875L.344-.187Zm0 0"/><path id="e" d="M1.36-1.11q.733-.42-.25-2.124C.46-4.348-.103-4.766-.595-4.484q-.75.422.219 2.093C.277-1.254.859-.828 1.359-1.109m.14.329a1.2 1.2 0 0 1-1.172.047c-.445-.22-.863-.66-1.25-1.328q-.56-.985-.5-1.735.081-.702.672-1.047c.387-.226.785-.238 1.203-.031q.622.315 1.203 1.313.576 1 .532 1.75-.095.69-.688 1.03m0 0"/><path id="f" d="M.188-2.672c.695-.344.953-.765.765-1.265q-.281-.781-.937-.547a1.1 1.1 0 0 0-.47.328q.036.315.142.625a1 1 0 0 1-.157.078q-.311.112-.406-.156-.123-.358.125-.703c.156-.239.414-.426.766-.563q.514-.186.906-.031c.27.105.46.32.578.64q.17.456-.047.829-.141.298-.516.609v.031q.56-.14.922.031.374.157.532.579.186.533-.079 1.03c-.167.337-.468.579-.906.735-.343.125-.633.152-.86.078A.5.5 0 0 1 .204-.64a.44.44 0 0 1 .14-.5q.202.235.345.282.31.174.703.03.73-.262.437-1.046c-.187-.531-.695-.68-1.515-.453Zm0 0"/><path id="g" d="M1.531-.875c.532-.187.57-.89.125-2.11Q.983-4.811.188-4.53q-.792.297-.125 2.125Q.733-.577 1.53-.875m.094.375Q.999-.279.438-.672C.038-.96-.285-1.469-.547-2.187-.805-2.907-.875-3.508-.75-4c.137-.445.418-.75.844-.906q.638-.216 1.187.172.574.44.985 1.53.386 1.067.187 1.798c-.117.449-.39.75-.828.906m0 0"/><path id="h" d="m-.172-1.531 1.422-3.25.5-.125.484 2.781.579-.094.062.516-.547.094.14.78.485.016c.07 0 .113.024.125.063q0 .033-.047.219L1.47-.25q-.019-.03-.032-.062-.034-.187.188-.297l.281-.11-.14-.781-1.844.328Zm.531-.25 1.313-.235-.36-2.062L.36-1.797Zm0 0"/><path id="i" d="M1.656-.594c.551-.101.711-.797.485-2.078Q1.796-4.575.969-4.422q-.845.141-.5 2.047C.695-1.094 1.094-.5 1.656-.594m.032.375Q1.03-.09.547-.594C.21-.945-.02-1.504-.156-2.266q-.201-1.125.125-1.78c.195-.438.52-.696.969-.782.445-.07.832.062 1.156.406q.48.504.687 1.64.2 1.126-.11 1.813-.297.627-.983.75m0 0"/><path id="j" d="M.875-4.5h1.984l-.046.61H1.187l-.093 1.093q.996.035 1.453.422.422.346.422 1.063 0 .579-.422.984-.41.408-1.078.406Q.905.076.64-.125a.46.46 0 0 1-.22-.39Q.42-.827.735-.938q.124.28.22.375c.155.18.366.265.64.265q.405.002.656-.265.218-.235.219-.625c0-.383-.149-.657-.438-.813-.281-.164-.742-.25-1.375-.25Zm0 0"/><path id="k" d="M1.734-.297c.563 0 .844-.648.844-1.953q0-1.936-.844-1.937-.86.002-.859 1.937c0 1.305.285 1.953.86 1.953m-.03.375Q1.027.078.64-.484C.367-.891.234-1.477.234-2.25q0-1.139.438-1.75.404-.576 1.094-.578.668.002 1.062.578.389.596.39 1.75 0 1.144-.421 1.766a1.29 1.29 0 0 1-1.094.562m0 0"/><path id="B" d="M1.578-.437v-3.438l-1.047.203a1 1 0 0 1-.015-.156c0-.102.054-.176.172-.219l1.14-.453h.344v4.063l.844.125c.07.011.109.039.109.078q0 .064-.094.234H.671v-.062Q.67-.297.892-.344Zm0 0"/><path id="l" d="M3.453-3.14a.76.76 0 0 0-.187-.36.83.83 0 0 0-.516-.281Q1.685-3.97 1.297-2.187q.45-.236.984-.141.594.11.875.437.327.393.219 1.032-.111.61-.562.968c-.325.25-.7.336-1.126.266Q.985.245.72-.406.466-1.028.64-2.031q.17-.95.734-1.547c.445-.477.969-.664 1.563-.563q.45.082.703.282.216.205.187.406-.046.3-.375.312M1.25-1.845q-.16.862.016 1.344.153.44.547.516a.69.69 0 0 0 .593-.157q.265-.234.36-.75.169-.92-.594-1.062-.564-.093-.922.11m0 0"/><path id="m" d="M1.75 0c.55.102.941-.484 1.172-1.766q.34-1.905-.485-2.062-.845-.14-1.187 1.765Q.906-.14 1.75 0m-.094.375a1.28 1.28 0 0 1-.953-.75Q.421-1.03.625-2.172q.201-1.123.719-1.656.514-.498 1.187-.375.669.111.938.75c.195.437.226 1.039.094 1.797Q3.357-.53 2.828 0a1.24 1.24 0 0 1-1.172.375m0 0"/><path id="n" d="M1.594-3.266c.101-.27.218-.546.343-.828l2.61.953A.6.6 0 0 1 4.516-3q-.048.13-.172.281L1.25.453.766.281 3.859-2.78l-1.718-.625-.313.515a.5.5 0 0 1-.14-.015q-.188-.077-.094-.36m0 0"/><path id="o" d="M1.719.313q.796.28 1.469-1.547c.445-1.22.406-1.922-.126-2.11-.53-.195-1.023.313-1.468 1.531Q.92.016 1.719.313m-.157.343C1.146.508.883.211.783-.234q-.19-.717.202-1.797Q1.372-3.11 2-3.531c.383-.258.79-.313 1.219-.156q.638.222.812.89.17.692-.234 1.781c-.262.711-.594 1.211-1 1.516a1.32 1.32 0 0 1-1.235.156m0 0"/><path id="p" d="M3.14-.922c.364.524.41 1.016.141 1.485q-.282.48-.812.562-.504.093-1.031-.219Q.92.606.75.172q-.205-.48.094-.984.357-.623 1.328-.547-.486-.685-.11-1.36c.165-.289.422-.469.766-.531q.516-.107.985.156.467.284.624.719.154.422-.109.89-.344.61-1.187.563m-.218-.265q.61 0 .937-.563.17-.294.094-.547c-.043-.195-.172-.36-.39-.484a.7.7 0 0 0-.547-.078.7.7 0 0 0-.438.359.77.77 0 0 0-.078.656q.094.252.422.657m-.563.109q-.703 0-1.015.562a.83.83 0 0 0-.11.61q.075.328.391.515.327.188.64.094a.84.84 0 0 0 .485-.39.74.74 0 0 0 .063-.657q-.095-.265-.454-.734m0 0"/><path id="q" d="M1.64.61C2.13.89 2.704.46 3.36-.673q.966-1.67.234-2.094-.75-.42-1.719 1.25Q.891.19 1.641.61m-.202.296Q.857.577.797-.109q-.048-.733.531-1.735.561-.982 1.25-1.297.638-.293 1.235.047.574.345.64 1.031.029.722-.547 1.72-.58.994-1.25 1.312A1.27 1.27 0 0 1 1.437.906m0 0"/><path id="r" d="M2.281.86q.421-.188 1-.797c-.312-.012-.61-.133-.89-.375q-.456-.389-.532-.86-.08-.514.36-1.016.434-.528 1.062-.546.545-.014 1 .359.515.439.438 1.14c-.074.438-.309.9-.703 1.376q-.674.795-1.407 1.047-.907.34-1.656-.297Q.576.575.47.28C.395.113.406-.023.5-.14c.133-.144.297-.171.484-.078q-.175.499.282.89.481.405 1.015.188m.39-1.438q.434.362.845.36.561-.67.672-1.204.075-.45-.235-.719a.72.72 0 0 0-.578-.171q-.362.08-.672.453c-.43.511-.437.937-.031 1.28m0 0"/><path id="s" d="M1.516.875q.639.544 1.906-.937 1.231-1.482.594-2.032-.658-.544-1.891.938C1.281-.164 1.078.508 1.515.875m-.266.281C.914.863.766.488.797.031q.077-.715.828-1.593.717-.875 1.469-1.063a1.24 1.24 0 0 1 1.203.266c.344.28.492.652.453 1.109-.062.469-.34 1.004-.828 1.594q-.737.873-1.469 1.078a1.3 1.3 0 0 1-1.203-.266m0 0"/><path id="u" d="m1.344.922 2.64-2.203-.828-.672a.6.6 0 0 1 .11-.11q.106-.105.265 0l1.094.579.219.25-3.125 2.609.453.734c.05.063.055.102.015.125q-.046.048-.234.094L.438.516A.14.14 0 0 0 .484.469q.186-.141.36 0Zm0 0"/><path id="v" d="M1.344 1.14q.544.64 2.031-.624 1.481-1.23.938-1.875-.55-.655-2.032.578C1.29.059.977.703 1.344 1.14m-.313.204Q.593.84.781.172q.216-.703 1.094-1.453.874-.716 1.625-.782.685-.044 1.14.485.423.515.235 1.172-.204.685-1.094 1.422-.877.73-1.61.812c-.468.031-.85-.133-1.14-.484m0 0"/><path id="x" d="M.875-1.516q.544-.639-.937-1.906-1.482-1.231-2.032-.594-.544.658.938 1.891c.992.844 1.664 1.047 2.031.61m.281.266a1.25 1.25 0 0 1-1.125.453q-.715-.077-1.593-.828-.875-.717-1.063-1.469a1.24 1.24 0 0 1 .266-1.203q.422-.515 1.109-.437c.48.062 1.012.336 1.594.812q.874.736 1.062 1.485.186.672-.25 1.187m0 0"/><path id="y" d="m-1.734-4.234 1.64-1.078.297.53-1.36.876.532.969c.574-.344 1.05-.493 1.438-.454q.56.064.953.672.311.485.187 1.047-.127.564-.672.922-.485.316-.812.281-.27.001-.39-.203a.41.41 0 0 1 0-.5q.279.16.405.172.341.096.688-.125.339-.216.375-.578.076-.327-.14-.64-.316-.482-.813-.454-.485.035-1.281.563Zm0 0"/><path id="z" d="M1.375-.875.391-4.172l-.922.5a.34.34 0 0 1-.063-.125q-.047-.14.094-.265l.969-.766.328-.094 1.156 3.875.844-.11q.106-.01.125.048a.8.8 0 0 1-.016.234L.641-.187C.617-.207.609-.227.609-.25Q.544-.467.766-.578Zm0 0"/><path id="A" d="M1.578-.781q.811-.235.25-2.11C1.453-4.129.992-4.67.453-4.516q-.807.252-.25 2.11Q.764-.53 1.578-.781m.063.375Q.984-.217.469-.656q-.563-.45-.89-1.563c-.22-.726-.243-1.328-.079-1.797q.223-.686.875-.875.638-.199 1.172.25.563.471.89 1.563.329 1.096.094 1.812-.234.659-.89.86m0 0"/><path id="C" d="m.422-.25 1.484-.937Q2.778-1.732 3-2.47q.282-.937-.375-1.14a1.2 1.2 0 0 0-.562-.016A2.1 2.1 0 0 0 1.766-3a.4.4 0 0 1-.157-.031c-.21-.063-.289-.18-.234-.36a.85.85 0 0 1 .5-.562q.386-.154.938.015c.351.106.609.297.765.579q.246.409.094.953a1.9 1.9 0 0 1-.625.906c-.188.18-.496.39-.922.64l-.953.579v.015l1.5.454.312-.563c.04 0 .094.008.157.016q.17.046.078.328-.063.246-.344.89L.375.11Zm0 0"/><path id="D" d="M1.734.219q.811.234 1.375-1.64.561-1.86-.25-2.095-.814-.247-1.375 1.61-.563 1.874.25 2.125M1.61.563A1.2 1.2 0 0 1 .75-.281C.602-.75.64-1.351.86-2.094q.326-1.09.921-1.547.563-.436 1.219-.25.64.207.828.875.219.691-.11 1.782C3.5-.504 3.196.016 2.814.328c-.368.29-.766.367-1.204.235m0 0"/><path id="E" d="m.484-.11 1.672-.484q1.015-.279 1.438-.922.527-.81-.047-1.187A1.25 1.25 0 0 0 3-2.891a3.4 3.4 0 0 0-.453.532c-.055-.032-.102-.055-.14-.079q-.283-.187-.126-.421a.83.83 0 0 1 .64-.375q.422-.047.907.265.468.315.578.766.106.457-.203.937-.299.458-.844.704c-.242.125-.593.242-1.062.343L1.203.063v.015l1.313.86.437-.422q.06 0 .14.046c.102.063.11.172.016.329q-.157.215-.609.765L.328.22Zm0 0"/><path id="F" d="m3.203-3.266 1.64 1.079-.359.468-1.359-.875-.687.844q.824.61 1 1.172c.101.336.023.703-.235 1.11q-.316.481-.89.593-.58.106-1.126-.25Q.7.56.595.25A.51.51 0 0 1 .64-.203a.43.43 0 0 1 .468-.188q-.034.318 0 .454.03.34.375.562a.9.9 0 0 0 .688.14.94.94 0 0 0 .547-.39q.311-.484.078-.922c-.149-.289-.485-.613-1.016-.969Zm0 0"/><path id="G" d="M2.563-.734c.57.53 1.062.625 1.468.28q.64-.526.188-1.062a1 1 0 0 0-.485-.312 3 3 0 0 0-.546.328.3.3 0 0 1-.11-.094q-.222-.248 0-.437a.76.76 0 0 1 .719-.156c.281.062.539.242.781.53q.357.44.328.86-.017.422-.375.735-.377.31-.812.28-.316-.064-.75-.312l-.016.016q.293.463.266.875a.94.94 0 0 1-.344.703 1.2 1.2 0 0 1-1 .266c-.375-.055-.71-.25-1-.594Q.512.734.5.406.498.136.672-.016q.233-.187.531-.046-.157.263-.156.421-.066.34.203.657.498.607 1.125.078c.438-.375.406-.91-.094-1.594Zm0 0"/><path id="H" d="M1.344 1.14q.544.64 2.031-.624 1.481-1.23.938-1.875-.55-.655-2.032.578C1.29.059.977.703 1.344 1.14m-.313.204Q.593.828.781.172q.216-.703 1.094-1.453.874-.716 1.625-.782.685-.044 1.14.485.423.516.235 1.156-.221.716-1.094 1.438-.877.732-1.625.797-.69.046-1.125-.47m0 0"/><path id="J" d="M11.14-11.766c.008.043.016.09.016.141q-.002.485-.578.625l-.437.094L6.266 0H4.859L.875-10.89l-.734-.188q-.248-.045-.25-.219c0-.101.066-.258.187-.469h3.813c.007.043.015.09.015.141q-.002.47-.578.61l-.719.14L5.75-1.719h.031l3.25-9.187-1.312-.203q-.251-.047-.25-.188 0-.14.187-.469Zm0 0"/><clipPath id="t"><path d="M215 54h10.688v12H215Zm0 0"/></clipPath><clipPath id="w"><path d="M.86 0h224.828v92.398H.858Zm0 0"/></clipPath><clipPath id="I"><path d="M53 13h71v79.398H53Zm0 0"/></clipPath></defs><path fill="none" stroke="#000" stroke-miterlimit="10" stroke-width=".39558456000000003" d="m16.656 69.719-4.422-3.711M18.074 68.059l-4.36-3.79M19.523 66.422l-4.293-3.863M20.996 64.813l-4.223-3.942M22.5 63.23l-4.156-4.011M24.031 61.672l-4.086-4.086M25.586 60.14l-4.012-4.156M27.172 58.637l-3.942-4.223M28.781 57.164l-3.863-4.293M30.414 55.715l-3.785-4.36M32.078 54.297l-3.715-4.422M33.762 52.906l-3.633-4.488M35.473 51.547l-3.555-4.55M37.203 50.219l-3.476-4.614M38.961 48.918l-3.395-4.672M40.738 47.652l-3.312-4.73M42.54 46.414l-3.231-4.789M44.355 45.211l-3.144-4.844M46.2 44.035l-3.06-4.898M48.063 42.895l-2.977-4.95M49.941 41.785l-2.886-5M51.844 40.711l-2.801-5.05M53.766 39.668 51.05 34.57M55.7 38.66l-2.622-5.144M57.656 37.688l-2.531-5.192M59.625 36.746l-2.441-5.234M61.613 35.84l-2.347-5.274M63.617 34.969l-2.258-5.313M65.633 34.133l-2.164-5.352M67.664 33.336l-2.07-5.395M69.71 32.57l-1.976-5.43M71.766 31.84l-1.88-5.461M73.84 31.145l-1.785-5.493M75.922 30.492l-1.688-5.523M78.016 29.871l-1.59-5.55M80.121 29.285l-1.496-5.578M82.234 28.738l-1.394-5.601M84.36 28.23l-1.301-5.625M86.488 27.758l-1.199-5.649M88.629 27.32l-1.102-5.668M90.777 26.922l-1.004-5.688M92.93 26.563l-.903-5.704M95.09 26.242l-.805-5.719M97.254 25.953l-.703-5.73M99.426 25.707l-.602-5.742M101.598 25.5l-.504-5.75M103.773 25.328l-.402-5.762M105.957 25.195l-.305-5.765M108.137 25.102l-.2-5.774M110.32 25.043l-.101-5.773M112.504 25.023V19.25M114.688 25.043l.101-5.773M116.871 25.102l.2-5.774M119.05 25.195l.305-5.765M121.234 25.328l.403-5.762M123.41 25.5l.504-5.75M125.582 25.707l.605-5.742M127.754 25.953l.703-5.73M129.918 26.242l.805-5.719M132.078 26.563l.902-5.704M134.23 26.922l1.004-5.688M136.379 27.32l1.101-5.668M138.52 27.758l1.199-5.649M140.648 28.23l1.301-5.625M142.773 28.738l1.395-5.601M144.887 29.285l1.496-5.578M146.992 29.871l1.59-5.55M149.086 30.492l1.687-5.523M151.168 31.145l1.785-5.493M153.242 31.84l1.88-5.461M155.297 32.57l1.976-5.43M157.344 33.336l2.07-5.395M159.375 34.133l2.164-5.352M161.395 34.969l2.253-5.313M163.395 35.84l2.351-5.274M165.383 36.746l2.441-5.234M167.355 37.688l2.532-5.192M169.309 38.66l2.62-5.144M171.246 39.668l2.711-5.098M173.164 40.711l2.8-5.05M175.066 41.785l2.887-5M176.95 42.895l2.972-4.95M178.809 44.035l3.058-4.898M180.652 45.211l3.145-4.844M182.469 46.414l3.23-4.789M184.27 47.652l3.312-4.73M186.047 48.918l3.394-4.672M187.805 50.219l3.476-4.614M189.535 51.547l3.559-4.55M191.246 52.906l3.633-4.488M192.93 54.297l3.715-4.422M194.594 55.715l3.785-4.36M196.227 57.164l3.863-4.293M197.84 58.637l3.937-4.223M199.422 60.14l4.012-4.156M200.977 61.672l4.085-4.086M202.508 63.23l4.156-4.011M204.012 64.813l4.222-3.942M205.484 66.422l4.293-3.863M206.934 68.059l4.359-3.79M208.352 69.719l4.425-3.711M12.234 66.008l-1.476-1.238M19.945 57.586l-1.359-1.36M28.363 49.875l-1.234-1.477M37.426 42.922l-1.106-1.578M47.055 36.785l-.961-1.668M57.184 31.512l-.813-1.742M67.734 27.14l-.66-1.808M78.625 23.707l-.496-1.86M89.773 21.234l-.332-1.894M101.094 19.75l-.164-1.918M112.504 19.25v-1.926M123.914 19.75l.168-1.918M135.234 21.234l.332-1.894M146.383 23.707l.496-1.86M157.273 27.14l.66-1.808M167.824 31.512l.813-1.742M177.953 36.785l.961-1.668M187.582 42.922l1.105-1.578M196.645 49.875l1.234-1.477M205.062 57.586l1.36-1.36M212.777 66.008l1.473-1.238M10.758 64.77 9.285 63.53M27.129 48.398l-1.238-1.472M46.094 35.117l-.961-1.668M67.074 25.332l-.656-1.809M89.441 19.34l-.336-1.895M112.504 17.324v-1.926M135.566 19.34l.336-1.895M157.934 25.332l.656-1.809M178.914 35.117l.965-1.668M197.879 48.398l1.238-1.472M214.25 64.77l1.477-1.239"/><use xlink:href="#a" x="5.472" y="62.588"/><use xlink:href="#b" x="20.976" y="46.445"/><use xlink:href="#c" x="23.624" y="44.223"/><use xlink:href="#d" x="40.374" y="32.126"/><use xlink:href="#e" x="43.368" y="30.397"/><use xlink:href="#f" x="61.963" y="21.393"/><use xlink:href="#g" x="65.211" y="20.211"/><use xlink:href="#h" x="85.089" y="14.572"/><use xlink:href="#i" x="88.494" y="13.972"/><use xlink:href="#j" x="109.047" y="11.872"/><use xlink:href="#k" x="112.504" y="11.872"/><use xlink:href="#l" x="133.11" y="13.371"/><use xlink:href="#m" x="136.515" y="13.972"/><use xlink:href="#n" x="156.548" y="19.028"/><use xlink:href="#o" x="159.796" y="20.21"/><use xlink:href="#p" x="178.647" y="28.668"/><use xlink:href="#q" x="181.641" y="30.397"/><use xlink:href="#r" x="198.736" y="42"/><use xlink:href="#s" x="201.385" y="44.222"/><g clip-path="url(#t)"><use xlink:href="#u" x="215.093" y="57.292"/><use xlink:href="#v" x="217.315" y="59.94"/><use xlink:href="#v" x="219.537" y="62.589"/></g><path fill="none" stroke="#000" stroke-miterlimit="10" stroke-width=".39558456000000003" d="M208.367 69.684c-28.73-34.239-73.558-50.559-117.574-42.797a125.13 125.13 0 0 0-74.121 42.797"/><g fill="none" stroke-linecap="round" stroke-miterlimit="10" clip-path="url(#w)"><path stroke="#000" stroke-width="6.565315679999999" d="M193.352 82.773c-24.309-28.972-62.243-42.78-99.485-36.21a105.86 105.86 0 0 0-62.719 36.21"/><path stroke="#FFF" stroke-width="5.775138" d="M193.352 82.773c-24.309-28.972-62.243-42.78-99.485-36.21a105.86 105.86 0 0 0-62.719 36.21"/></g><path fill="none" stroke="#000" stroke-miterlimit="10" stroke-width=".39558456000000003" d="m16.656 69.719 2.215 1.855M19.04 66.969l2.16 1.918M21.5 64.285l2.098 1.98M24.031 61.672l2.043 2.043M26.645 59.14l1.98 2.102M29.328 56.684l1.918 2.156M32.078 54.3l1.856 2.212M34.906 52.004l1.79 2.266M37.79 49.785l1.722 2.317M40.738 47.652l1.657 2.368M43.75 45.613l1.59 2.41M46.82 43.656l1.516 2.457M49.941 41.79l1.446 2.5M53.125 40.02l1.371 2.539M56.355 38.34l1.293 2.578M59.625 36.746l1.223 2.617M62.95 35.262l1.144 2.652M66.313 33.867l1.066 2.684M69.71 32.57l.99 2.715M73.148 31.379l.91 2.742M76.621 30.29l.828 2.765M80.121 29.29l.75 2.788M83.652 28.402l.664 2.809M87.207 27.613l.582 2.828M90.781 26.926l.5 2.844M94.371 26.352l.418 2.855M97.98 25.875l.336 2.867M101.602 25.504l.25 2.875M105.23 25.242l.168 2.883M108.867 25.082l.086 2.887M112.504 25.023v2.887M116.14 25.082l-.081 2.887M119.777 25.242l-.168 2.883M123.406 25.504l-.25 2.875M127.027 25.875l-.336 2.867M130.637 26.352l-.418 2.855M134.23 26.926l-.503 2.844M137.805 27.613l-.586 2.828M141.355 28.402l-.664 2.809M144.887 29.29l-.746 2.788M148.387 30.29l-.828 2.765M151.86 31.379l-.91 2.742M155.297 32.57l-.988 2.715M158.695 33.867l-1.062 2.684M162.059 35.262l-1.145 2.652M165.383 36.746l-1.223 2.617M168.652 38.34l-1.293 2.578M171.883 40.02l-1.371 2.539M175.066 41.79l-1.445 2.5M178.187 43.656l-1.515 2.457M181.258 45.613l-1.586 2.41M184.27 47.652l-1.657 2.368M187.219 49.785l-1.723 2.317M190.105 52.004l-1.793 2.266M192.93 54.3l-1.856 2.212M195.68 56.684l-1.918 2.156M198.363 59.14l-1.98 2.102M200.977 61.672l-2.043 2.043M203.512 64.285l-2.102 1.98M205.969 66.969l-2.157 1.918M208.352 69.719l-2.215 1.855M18.871 71.574l1.473 1.239M23.598 66.266 25 67.59M28.625 61.242l1.32 1.399M33.934 56.512l1.238 1.472M39.512 52.102l1.152 1.543M45.34 48.023l1.055 1.61M51.387 44.29l.96 1.667M57.648 40.918l.868 1.719M64.094 37.914l.761 1.766M70.7 35.285l.655 1.809M77.45 33.055l.554 1.843M84.316 31.211l.446 1.871M91.281 29.77l.332 1.894M98.316 28.742l.223 1.914M105.398 28.125l.114 1.922M112.504 27.91v1.926M119.61 28.125l-.11 1.922M126.691 28.742l-.222 1.914M133.727 29.77l-.332 1.894M140.691 31.211l-.445 1.871M147.559 33.055l-.555 1.843M154.309 35.285l-.657 1.809M160.914 37.914l-.762 1.766M167.36 40.918l-.868 1.719M173.621 44.29l-.96 1.667M179.672 48.023l-1.059 1.61M185.496 52.102l-1.152 1.543M191.074 56.512l-1.238 1.472M196.383 61.242l-1.32 1.399M201.41 66.266l-1.402 1.324M206.137 71.574l-1.473 1.239M20.344 72.813l2.21 1.855M46.395 49.633l1.59 2.414M78.004 34.898l.828 2.766M112.504 29.836v2.887M147.004 34.898l-.828 2.766M178.613 49.633l-1.586 2.414M204.664 72.813l-2.21 1.855"/><use xlink:href="#x" x="26.117" y="79.913"/><use xlink:href="#y" x="49.867" y="58.055"/><use xlink:href="#z" x="77.268" y="44.496"/><use xlink:href="#A" x="80.58" y="43.504"/><use xlink:href="#B" x="109.047" y="38.78"/><use xlink:href="#j" x="112.504" y="38.78"/><use xlink:href="#C" x="141.117" y="42.514"/><use xlink:href="#D" x="144.429" y="43.505"/><use xlink:href="#E" x="170.787" y="55.24"/><use xlink:href="#F" x="173.675" y="57.139"/><use xlink:href="#G" x="195.558" y="75.94"/><use xlink:href="#H" x="197.78" y="78.588"/><g clip-path="url(#I)"><path fill="none" stroke="#000" stroke-miterlimit="10" stroke-width=".79017768" d="M112.504 150.145 64.688 25.023"/></g><use xlink:href="#J" x="106.974" y="82.886"/></svg>