<svg xmlns="http://www.w3.org/2000/svg" xmlns:xlink="http://www.w3.org/1999/xlink" width="226.773" height="126.846"><defs><path id="a" d="M2.234-.39q1.11.001 1.11-2.516 0-2.515-1.11-2.516-1.094.001-1.093 2.516c0 1.68.363 2.515 1.093 2.515m-.03.5q-.88 0-1.376-.75Q.296-1.42.297-2.907.296-4.39.875-5.187q.516-.734 1.406-.735.873.001 1.375.734.516.798.516 2.282 0 1.47-.563 2.265-.515.75-1.406.75m0 0"/><path id="b" d="M5.844-6.172c.008.024.015.047.015.078q0 .253-.312.313l-.234.062L3.28 0h-.734L.453-5.719l-.375-.093q-.124-.029-.125-.11c0-.05.035-.133.094-.25h2v.078c0 .157-.102.262-.297.313l-.375.078 1.64 4.797h.016L4.734-5.72l-.687-.11q-.127-.029-.125-.093 0-.075.094-.25Zm0 0"/><path id="e" d="M2.484-3.031h1.563v.469H2.484v1.671h-.5v-1.671H.438v-.47h1.546v-1.655h.5Zm0 0"/><path id="f" d="M2.031-.578v-4.438L.687-4.75a1 1 0 0 1-.015-.187c0-.133.07-.235.219-.297l1.468-.578h.454v5.234l1.093.172q.124.016.125.11 0 .08-.093.296H.874a.16.16 0 0 1-.016-.078q0-.311.282-.36Zm0 0"/><path id="g" d="m.422-.453 1.516-1.734q.874-1.015.875-2 0-1.25-.891-1.25-.362 0-.719.171-.112.365-.125.891-.11.017-.203.016-.422.002-.422-.36 0-.545.422-.875.42-.328 1.156-.328.715.001 1.172.406.451.41.453 1.172 0 .675-.422 1.36-.27.44-.89 1.125L1.359-.797v.016h2.032l.187-.781a.44.44 0 0 1 .188-.032q.217.002.218.344c0 .242-.03.656-.093 1.25H.5Zm0 0"/><path id="h" d="m.125-1.984 2.547-3.813.656-.047v3.64h.75l-.047.688h-.703V-.5l.625.14q.124.018.125.094-.002.048-.11.266H1.923a.16.16 0 0 1-.016-.078q-.002-.246.313-.328L2.594-.5v-1.016H.156Zm.734-.22h1.735v-2.702h-.016L.86-2.22Zm0 0"/><path id="i" d="M.89-.937a.53.53 0 0 1 .423.218q.17.204.171.578-.002.592-.39.985c-.211.226-.414.344-.61.344-.093 0-.164-.086-.203-.25q.574-.3.61-.891a.5.5 0 0 1-.344-.125.48.48 0 0 1-.14-.36q0-.217.14-.359a.47.47 0 0 1 .344-.14m0 0"/><path id="j" d="M.484-4.672q0-.562.063-1.14h3.578a.3.3 0 0 1 .047.171c0 .125-.04.262-.11.407L1.704 0h-.64l2.406-5.062h-2.39l-.141.75a.5.5 0 0 1-.188.03q-.268.002-.266-.39m0 0"/><clipPath id="c"><path d="M19 113h16v13.691H19Zm0 0"/></clipPath><clipPath id="d"><path d="M190 113h15v13.691h-15Zm0 0"/></clipPath><clipPath id="k"><path d="M133 113h16v13.691h-16Zm0 0"/></clipPath></defs><path fill="none" stroke="#000" stroke-miterlimit="10" stroke-width=".39851721" d="M26.922 120.562h56.95m0 0h85.425m0 0h28.476"/><use xlink:href="#a" x="11.965" y="123.6"/><use xlink:href="#b" x="17.929" y="123.6"/><path fill="#FFF" d="M28.508 120.563a1.587 1.587 0 0 0-3.172 0 1.587 1.587 0 0 0 3.172 0m0 0"/><g clip-path="url(#c)"><path fill="none" stroke="#000" stroke-miterlimit="10" stroke-width=".39851721" d="M28.508 120.562a1.587 1.587 0 0 0-3.172 0 1.587 1.587 0 0 0 3.172 0Zm0 0"/></g><path fill="#FFF" d="M199.36 120.563a1.587 1.587 0 0 0-3.173 0 1.587 1.587 0 0 0 3.172 0m0 0"/><g clip-path="url(#d)"><path fill="none" stroke="#000" stroke-miterlimit="10" stroke-width=".39851721" d="M199.36 120.562a1.587 1.587 0 0 0-3.173 0 1.587 1.587 0 0 0 3.172 0Zm0 0"/></g><path fill="none" stroke="#000" stroke-miterlimit="10" stroke-width=".39851721" d="M26.922 6.664h41.094m31.71 0h69.57m0 0h28.477"/><use xlink:href="#e" x="3.009" y="9.755"/><use xlink:href="#f" x="7.486" y="9.755"/><use xlink:href="#g" x="11.964" y="9.755"/><use xlink:href="#b" x="17.928" y="9.755"/><path fill="none" stroke="#000" stroke-miterlimit="10" stroke-width=".79603563" d="M68.016.719h31.71v11.89h-31.71Zm0 0"/><path fill="#FFF" stroke="#000" stroke-miterlimit="10" stroke-width=".39851721" d="M28.508 6.664a1.587 1.587 0 0 0-3.172 0 1.587 1.587 0 0 0 3.172 0ZM199.36 6.664a1.587 1.587 0 0 0-3.173 0 1.587 1.587 0 0 0 3.172 0Zm0 0"/><use xlink:href="#e" x="200.954" y="9.164"/><use xlink:href="#h" x="205.432" y="9.164"/><use xlink:href="#i" x="209.91" y="9.164"/><use xlink:href="#j" x="211.763" y="9.164"/><use xlink:href="#b" x="217.728" y="9.164"/><path fill="none" stroke="#000" stroke-miterlimit="10" stroke-width=".39851721" d="M140.824 120.562V71.54m0-15.851V6.664"/><path fill="none" stroke="#000" stroke-miterlimit="10" stroke-width=".79603563" d="m140.824 55.688 9.906 15.851h-19.816Zm0 0"/><path fill="none" stroke="#000" stroke-miterlimit="10" stroke-width=".39851721" d="M140.824 55.688v15.851"/><path fill="none" stroke="#000" stroke-miterlimit="10" stroke-width=".79603563" d="M130.914 55.688h19.816v3.167"/><path d="M142.406 120.563a1.584 1.584 0 1 0-3.168 0 1.585 1.585 0 1 0 3.168 0m0 0"/><g clip-path="url(#k)"><path fill="none" stroke="#000" stroke-miterlimit="10" stroke-width=".39851721" d="M142.406 120.562a1.584 1.584 0 1 0-3.168 0 1.585 1.585 0 1 0 3.168 0Zm0 0"/></g><path stroke="#000" stroke-miterlimit="10" stroke-width=".39851721" d="M142.406 6.664a1.584 1.584 0 1 0-3.168 0 1.585 1.585 0 1 0 3.168 0Zm0 0"/></svg>