<svg xmlns="http://www.w3.org/2000/svg" width="119.813" height="85.437"><defs><clipPath id="a"><path d="M107 35h12.328v15H107Zm0 0"/></clipPath><clipPath id="b"><path d="M8 3h1v81.879H8Zm0 0"/></clipPath><clipPath id="c"><path d="M8.547.195h107.812V49H8.547Zm0 0"/></clipPath></defs><path fill="none" stroke="#000" stroke-miterlimit="10" stroke-width=".39638655000000006" d="M8.547 42.438H112.91"/><path d="m115.965 42.438-2.957-1.75v3.503Zm0 0"/><g clip-path="url(#a)"><path fill="none" stroke="#000" stroke-miterlimit="10" stroke-width=".39638655000000006" d="m115.965 42.438-2.957-1.75v3.503Zm0 0"/></g><g clip-path="url(#b)"><path fill="none" stroke="#000" stroke-miterlimit="10" stroke-width=".39638655000000006" d="M8.547 84.68V3.645"/></g><path stroke="#000" stroke-miterlimit="10" stroke-width=".39638655000000006" d="m8.547.594-1.75 2.953h3.5Zm0 0"/><g clip-path="url(#c)"><path fill="none" stroke="#000" stroke-miterlimit="10" stroke-width=".39638655000000006" d="M8.547 42.438H9.3l.11-.028.105-.36.109-.745.11-.778.105-.78.11-.774.105-.774.218-1.531.106-.758.11-.754.105-.75.11-.746.108-.738.106-.734.11-.727.105-.723.11-.715.109-.707.105-.699.11-.695.105-.688.11-.675.109-.672.105-.664.11-.653.105-.644.11-.637.109-.629.105-.617.11-.61.105-.6.11-.587.109-.582.105-.566.11-.559.105-.547.11-.539.109-.523.105-.516.11-.5.105-.492.11-.48.109-.47.105-.452.11-.446.105-.43.11-.417.109-.407.105-.39.11-.38.105-.366.11-.356.109-.34.105-.328.11-.312.105-.301.11-.285.11-.274.105-.261.109-.243.105-.234.11-.219.11-.203.105-.191.109-.176.105-.164.11-.152.11-.137.105-.121.109-.114.105-.097.11-.086.11-.07.105-.063.11-.05.105-.04.109-.031.11-.023.105-.016.11-.008h.214l.11.008.105.004.11.012.105.007.218.024.106.008.11.011.105.012.11.012.108.008.106.011.11.012.105.012.11.008.109.011.105.012.11.012.105.008.219.023.105.012.11.007.105.012.219.024.105.007.11.012.105.012.219.023.105.008.11.012.105.012.11.011.109.008.105.012.11.012.105.007.219.024.105.012.11.007.105.012.219.023.105.008.11.012.105.012.11.011.109.008.105.012.11.012.105.011.11.008.11.012.105.012.109.007.105.012.22.024.105.007.109.012.105.012.11.012.11.007.105.012.109.012.105.008.22.023.105.012.11.008.105.011.218.024.106.008.11.011.105.012.109.008.11.012.105.011.11.008.105.012.218.023.106.008.11.012.105.012.11.007.108.012.106.012.11.011.105.008.219.024.105.008.11.011.105.012.11.008.109.012.105.011.11.008.105.012.219.023.105.008.11.012.105.011.11.008.109.012.105.012.11.008.105.011.11.012.109.008.105.011.11.012.105.008.219.023.105.012.11.008.105.012.11.011.109.008.105.012.11.012.105.007.219.024.105.008.11.011.105.012.11.008.11.012.105.011.109.008.11.012.105.012.11.007.105.012.109.012.11.008.105.011.11.012.105.008.218.023.106.008.11.012.105.008.218.023.106.008.11.012.105.011.11.008.109.012.105.012.11.008.105.011.11.012.109.008.105.011.11.012.105.008.11.012.109.008.105.011.11.012.105.008.219.023.105.008.11.012.105.011.11.008.109.012.105.008.11.012.105.011.11.008.109.012.105.012.11.007.105.012.11.008.109.012.105.011.11.008.105.012.11.012.109.007.105.012.11.008.105.012.11.011.109.008.105.012.11.012.105.007.11.012.11.008.105.012.109.011.105.008.11.012.11.008.105.011.109.012.105.008.11.012.11.007.105.012.109.012.106.008.109.011.11.008.105.012.11.012.105.008.109.011.11.008.105.012.11.011.105.008.109.012.11.008.105.012.11.011.105.008.11.012.108.008.106.011.11.012.105.008.11.012.109.007.105.012.11.008.105.012.11.011.109.008.105.012.11.008.105.011.11.012.109.008.105.012.11.007.105.012.11.008.109.012.105.011.11.008.105.012.11.008.109.012.105.007.11.012.105.012.11.008.109.011.105.008.11.012.105.008.219.023.105.008.11.012.105.007.11.012.109.008.105.012.11.007.105.012.11.012.109.008.105.011.11.008.105.012.11.008.11.012.105.007.109.012.105.012.11.008.11.011.105.008.109.012.105.008.11.011.11.008.105.012.109.008.106.011.109.012.11.008.105.012.11.007.105.012.218.016.106.008.11-.008.105-.047.109-.125.11-.207.105-.242.11-.246.105-.235.11-.222.108-.207.106-.196.11-.183.105-.168.11-.153.109-.14.105-.13.11-.116.105-.102.11-.09.109-.074.105-.066.11-.055.105-.043.11-.035.109-.024.105-.02.11-.007.105-.004h.11l.109.004.105.008.11.008.105.007.219.024.105.008.11.011.105.012.11.012.109.008.105.011.11.012.105.012.11.008.109.011.105.012.11.012.105.012.11.007.109.012.105.012.11.011.105.008.219.024.105.011.11.008.105.012.22.023.105.008.109.012.105.012.11.011.11.008.105.012.109.012.105.011.11.008.11.012.105.012.109.011.106.008.218.024.106.007.11.012.105.012.109.012.11.007.105.012.11.012.105.012.109.007.11.012.105.012.11.011.105.008.218.024.106.011.11.008.105.012.11.012.109.008.105.011.11.012.105.012.11.007.109.012.105.012.11.008.105.011.219.024.105.008.11.011.105.012.11.008.109.012.105.011.11.012.105.008.219.023.105.008.11.012.105.012.11.011.109.008.105.012.11.012.105.007.219.024.105.008.11.011.105.012.11.012.109.008.105.011.11.012.105.008.219.023.105.008.11.012.105.012.11.007.11.012.105.012.109.008.105.011.22.024.105.008.109.011.105.012.11.008.11.012.105.011.109.008.106.012.109.012.11.007.105.012.11.012.105.008.218.023.106.008.11.012.105.011.109.008.11.012.105.012.11.007.105.012.11.012.108.008.106.011.11.012.105.008.219.023.105.008.11.012.105.012.11.007.109.012.105.012.11.008.105.011.11.012.109.008.105.012.11.007.105.012.11.012.109.008.105.011.11.012.105.008.219.023.105.008.11.012.105.012.11.007.109.012.105.008.11.012.105.011.11.008.109.012.105.012.11.007.105.012.11.012.109.008.105.011.11.008.105.012.11.012.109.007.105.012.11.012.105.008.11.011.11.008.105.012.109.012.105.007.22.024.105.008.109.011.105.008.22.024.105.007.109.012.105.012.11.008.11.011.105.008.11.012.105.012.109.008.11.011.105.008.11.012.105.011.109.008.11.012.105.008.11.012.105.011.11.008.108.012.106.008.11.011.105.012.11.008.108.012.106.007.11.012.105.012.11.008.109.011.105.008.11.012.105.012.11.007.109.012.105.008.11.012.105.007.219.024.105.008.11.011.105.008.219.024.105.008.11.011.105.008.11.012.109.008.105.011.11.012.105.008.11.012.109.007.105.012.11.008.105.012.11.011.109.008.105.012.11.008.105.011.11.008.109.012.105.012.11.007.105.012.11.008.11.012.105.008.109.011.105.008.22.023.105.008.109.012.105.008.11.012.11.007.105.012.109.008.105.012.11.011.11.008.105.012.11.008.105.011.109.008.11.012.105.008.11.011.105.008.218.024.106.008.11.011.105.008.11.012.108.008.106.011.11.008.105.012.11.008h.108l.106-.032.11-.097.105-.184.11-.234.109-.246.105-.239.11-.226.105-.215.11-.2.109-.187.105-.172.11-.16.105-.144.11-.133.109-.117.105-.106.11-.094.105-.082.11-.07.109-.058.105-.047.11-.035.109-.028.105-.02.11-.011.105-.008h.11l.105.004.11.004.109.008.105.011.11.008.11.012.105.008.109.012.105.011.11.012.11.008.105.011.109.012.105.012.11.012.11.007.105.012.11.012.105.012.109.007.11.012.105.012.11.012.105.007.218.024.106.012.11.007.105.012.218.024.106.007.11.012.105.012.11.011.108.008.106.012.11.012.105.011.11.008.109.012.105.012.11.011.105.008.219.024.105.011.11.008.105.012.219.023.105.008.11.012.105.012.11.007.109.012.105.012.11.012.105.007.219.024.105.012.11.007.105.012.11.012.109.008.105.011.11.012.105.012.11.008.109.011.105.012.11.012.105.008.219.023.105.008.11.012.105.011.11.012.109.008.105.011.11.012.105.008.22.023.105.008.109.012.105.012.11.011.11.008.105.012.109.012.105.007.22.024.105.012.109.007.106.012.109.012.11.008.105.011.11.012.105.008.218.023.106.008.11.012.105.012.109.011.11.008.105.012.11.012.105.007.218.024.106.008.11.011.105.012.11.008.109.012.105.011.11.008.105.012.11.012.109.007.105.012.11.012.105.008.219.023.105.008.11.012.105.011.11.008.109.012.105.012.11.007.105.012.11.012.109.008.105.011.11.012.105.008.219.023.105.008.11.012.105.012.11.007.109.012.105.012.11.008.105.011.11.012.109.008.105.012.11.011.105.008.219.024.105.007.11.012.105.008.22.023.105.008.109.012.105.012.11.007.11.012.105.012.109.008.105.011.11.012.11.008.105.012.109.007.106.012.109.012.11.008.105.011.11.012.105.008.109.012.11.008.105.011.11.012.105.008.218.023.106.008.11.012.105.008.218.023.106.008.11.012.105.011.11.008.109.012.105.008.11.011.105.012.11.008.109.012.105.007.11.012.105.012.11.008.109.011.105.012.11.008.105.012.11.007.109.012.105.012.11.008.105.011.11.008.109.012.105.012.11.007.105.012.11.008.109.012.105.011.11.008.105.012.11.008.109.011.105.008.11.012.105.012.11.008.109.011.105.008.11.012.105.011.11.008.109.012.105.008.11.012.105.011"/></g></svg>