<svg xmlns="http://www.w3.org/2000/svg" xmlns:xlink="http://www.w3.org/1999/xlink" width="226.772" height="138.557"><defs><path id="c" d="m4.484-.484-.578-1.641H1.688l-.594 1.64.672.126q.124.017.125.093 0 .066-.094.266H-.078a.2.2 0 0 1-.016-.078Q-.096-.342.22-.406l.25-.063L2.64-6.172l.562-.062L5.343-.47l.391.11q.124.034.125.093 0 .048-.093.266H3.859a.16.16 0 0 1-.015-.078q-.002-.246.297-.328Zm-2.64-2.11h1.89l-.921-2.61h-.016Zm0 0"/><path id="e" d="M5.844-6.172v.078c0 .168-.102.278-.297.328l-.234.047L3.28 0h-.734L.453-5.703l-.375-.094q-.124-.03-.125-.125c0-.05.035-.133.094-.25H2.03c.008.031.016.059.016.078 0 .168-.102.274-.297.313l-.375.093 1.64 4.782h.016L4.734-5.72l-.687-.093q-.127-.029-.125-.11c0-.039.031-.125.094-.25Zm0 0"/><path id="d" d="M3.5-5.844c-.219 0-.75.078-1.094.078S1.72-5.78 1.328-5.78l-.031.015-.031.188c-.016.031 0 .062.046.062l.329.016c.125 0 .312.063.312.281 0 .032 0 .063-.016.094L1.064-.641c-.047.25-.172.36-.547.375l-.22.032C.25-.234.22-.22.22-.172L.172 0l.031.016C.593.016.953 0 1.281 0c.344 0 .688.016 1.094.016L2.406 0l.031-.172c0-.047-.03-.062-.062-.062l-.219-.032C1.875-.28 1.75-.344 1.75-.53c0-.031 0-.063.016-.11l.375-1.953c.718 0 .875.125.953.328l.61 1.563c.171.422.468.797.983.797.125 0 .282-.016.375-.063l.032-.218c-.39 0-.532-.297-.688-.688L3.688-2.75c.39-.125 1.25-.594 1.437-1.531.031-.11.047-.235.047-.344a1.13 1.13 0 0 0-.281-.766c-.328-.406-.86-.453-1.391-.453m-.062.297c.453 0 .984.172.984.89 0 .11-.031.235-.047.391-.219 1.11-.922 1.36-1.75 1.36h-.422l.438-2.219c.046-.266.187-.422.797-.422m0 0"/><clipPath id="a"><path d="M.246 66H25v6H.246Zm0 0"/></clipPath><clipPath id="b"><path d="M88 102h48v36.117H88Zm0 0"/></clipPath></defs><path fill="none" stroke="#000" stroke-miterlimit="10" stroke-width=".39772719" d="M12.512 12.262v50.863m0 11.867v50.86h87.523m23.735 0h87.52V84.879m0-31.645V12.262h-87.52m-23.735 0H12.512M12.512 71.016v3.976m0-7.894v-3.973"/><g clip-path="url(#a)"><path fill="none" stroke="#000" stroke-miterlimit="10" stroke-width=".7944575700000001" d="M18.445 71.016H6.578m17.8-3.918H.646"/></g><g clip-path="url(#b)"><path fill="none" stroke="#000" stroke-miterlimit="10" stroke-width=".7944575700000001" d="M111.902 113.984c-6.554 0-11.867 5.313-11.867 11.868 0 6.554 5.313 11.867 11.867 11.867s11.868-5.313 11.868-11.867-5.313-11.868-11.868-11.868Zm0 0"/></g><use xlink:href="#c" x="108.986" y="128.97"/><path fill="none" stroke="#000" stroke-miterlimit="10" stroke-width=".7944575700000001" d="M217.223 53.234V84.88h-11.868V53.234Zm0 0"/><use xlink:href="#d" x="219.424" y="71.202"/><path fill="none" stroke="#000" stroke-miterlimit="10" stroke-width=".7944575700000001" d="M111.902 24.133c6.555 0 11.868-5.317 11.868-11.871S118.457.395 111.902.395c-6.554 0-11.867 5.312-11.867 11.867 0 6.554 5.313 11.87 11.867 11.87Zm0 0"/><use xlink:href="#e" x="109.004" y="15.348"/></svg>