<svg xmlns="http://www.w3.org/2000/svg" xmlns:xlink="http://www.w3.org/1999/xlink" width="79.769" height="53.973"><defs><clipPath id="a"><path d="M0 .066h79.54V41H0Zm0 0"/></clipPath><clipPath id="b"><path d="M0 .066h79.54V42H0Zm0 0"/></clipPath><clipPath id="c"><path d="M51 20h28.54v21H51Zm0 0"/></clipPath><clipPath id="d"><path d="M51 20h28.54v22H51Zm0 0"/></clipPath><clipPath id="e"><path d="M0 .066h28V21H0Zm0 0"/></clipPath><clipPath id="f"><path d="M0 .066h29V21H0Zm0 0"/></clipPath><clipPath id="j"><path d="M56 22h23.54v31.883H56Zm0 0"/></clipPath><clipPath id="k"><path d="M51 38h6v15.883h-6Zm0 0"/></clipPath><path id="g" d="M3.469.469 9.39-4.266l-2.157-.437q.155-.122.25-.203a.9.9 0 0 1 .641-.188l2.766.157.609.234L4.5.89l1.219.765q.17.077.047.188-.11.092-.532.25L1.156.469a.5.5 0 0 1 .094-.11q.404-.329.86-.218Zm0 0"/><path id="h" d="M3.5.781q1.465.574 4.828-2.093 3.34-2.686 1.875-3.266-1.472-.591-4.812 2.094Q2.028.185 3.5.78m-.703.5C2.016.97 1.734.461 1.953-.234q.341-1.123 2.328-2.703c1.313-1.051 2.57-1.754 3.782-2.11q1.686-.516 2.874-.047 1.156.47.829 1.516c-.243.75-1.016 1.652-2.328 2.703Q7.468.686 5.64 1.25q-1.66.5-2.844.031m0 0"/><path id="i" d="M6.047-2.625q2.28.61 3.64-.484 1.437-1.138.235-1.625a2.8 2.8 0 0 0-1.219-.172q-.626.345-1.234.812a.7.7 0 0 1-.297-.078q-.597-.216-.11-.61c.47-.363 1.04-.581 1.72-.655q1.03-.105 2.015.28.951.394 1 1.016.045.611-.813 1.297-.83.674-1.937.86-.752.141-1.844.03l-.031.016q.825.517.86 1.11.028.598-.735 1.203-.973.779-2.344 1-1.378.219-2.562-.25-.973-.392-1.078-.86-.113-.391.296-.718.529-.421 1.25-.344c-.18.293-.265.516-.265.672-.031.34.187.61.656.797.883.351 1.8.156 2.75-.594q1.481-1.185-.562-2.219Zm0 0"/></defs><g clip-path="url(#a)"><path d="m56.727 40.965 22.613-18.09L22.809.262.199 18.352Zm0 0"/></g><g clip-path="url(#b)"><path fill="none" stroke="#000" stroke-linecap="round" stroke-linejoin="round" stroke-miterlimit="10" stroke-width=".39784689000000006" d="m56.727 40.965 22.613-18.09L22.809.262.199 18.352Zm0 0"/></g><g clip-path="url(#c)"><path fill="#7F7F7F" d="m56.727 40.965 22.613-18.09-5.086-2.035L51.64 38.93Zm0 0"/></g><g clip-path="url(#d)"><path fill="none" stroke="#000" stroke-linecap="round" stroke-linejoin="round" stroke-miterlimit="10" stroke-width=".39784689000000006" d="m56.727 40.965 22.613-18.09-5.086-2.035L51.64 38.93Zm0 0"/></g><g clip-path="url(#e)"><path fill="#7F7F7F" d="m5.285 20.387 22.613-18.09-5.09-2.035L.2 18.352Zm0 0"/></g><g clip-path="url(#f)"><path fill="none" stroke="#000" stroke-linecap="round" stroke-linejoin="round" stroke-miterlimit="10" stroke-width=".39784689000000006" d="m5.285 20.387 22.613-18.09-5.09-2.035L.2 18.352Zm0 0"/></g><g fill="#FFF"><use xlink:href="#g" x="26.956" y="20.137"/><use xlink:href="#h" x="32.915" y="22.521"/><use xlink:href="#i" x="38.875" y="24.905"/></g><g clip-path="url(#j)"><path fill="#7F7F7F" stroke="#000" stroke-linecap="round" stroke-linejoin="round" stroke-miterlimit="10" stroke-width=".39784689000000006" d="m56.727 53.684 22.613-18.09V22.875l-22.613 18.09Zm0 0"/></g><g clip-path="url(#k)"><path fill="#7F7F7F" stroke="#000" stroke-linecap="round" stroke-linejoin="round" stroke-miterlimit="10" stroke-width=".39784689000000006" d="m56.727 53.684-5.086-2.036V38.93l5.086 2.035Zm0 0"/></g><path stroke="#000" stroke-linecap="round" stroke-linejoin="round" stroke-miterlimit="10" stroke-width=".39784689000000006" d="M51.64 51.648 5.286 33.105V20.387L51.641 38.93Zm0 0"/><path fill="#7F7F7F" stroke="#000" stroke-linecap="round" stroke-linejoin="round" stroke-miterlimit="10" stroke-width=".39784689000000006" d="M5.285 33.105.2 31.07V18.352l5.086 2.035Zm0 0"/><path fill="none" stroke="#7F7F7F" stroke-linecap="round" stroke-linejoin="round" stroke-miterlimit="10" stroke-width=".39784689000000006" d="M5.285 20.387 51.641 38.93"/></svg>