<svg xmlns="http://www.w3.org/2000/svg" xmlns:xlink="http://www.w3.org/1999/xlink" width="227.939" height="115.61"><defs><path id="a" d="M2.313-6.172q2.514 0 2.515 1.734-.002.893-.594 1.375-.644.502-1.875.5h-.484v2.079l.703.125q.124.017.125.093 0 .066-.094.266H.422a.16.16 0 0 1-.016-.078Q.404-.324.72-.406l.375-.078v-5.203l-.547-.125c-.086-.02-.125-.055-.125-.11q0-.075.094-.25Zm0 3.14q.841.002 1.296-.39.389-.34.391-.969 0-1.265-1.687-1.265h-.438v2.625Zm0 0"/><path id="b" d="M.422 0a.16.16 0 0 1-.016-.078Q.404-.324.72-.406l.375-.078v-5.203l-.547-.125c-.086-.02-.125-.055-.125-.11q0-.075.094-.25h2.078v.078c0 .157-.102.262-.297.313l-.422.093v5.172h2.063l.25-1.046a.6.6 0 0 1 .203-.032q.217 0 .218.36Q4.61-.78 4.531 0Zm0 0"/><path id="c" d="M5.86-2.906a.2.2 0 0 1 .015.078q0 .236-.312.312l-.204.047v1.89C4.867-.116 4.15.11 3.203.11q-1.207 0-1.937-.765Q.469-1.5.469-3.062q0-1.606 1.031-2.485.855-.733 2.11-.734.59.002 1.078.156.044.019.593.219.047.657.047.922-.001.408-.266.406a.44.44 0 0 1-.203-.047l-.187-.86q-.44-.264-1.11-.265-.953.002-1.562.594-.703.702-.703 2.015c0 .875.195 1.555.594 2.032.375.46.882.687 1.53.687.438 0 .821-.07 1.157-.219v-1.796l-.547-.126q-.127-.011-.125-.093 0-.076.094-.25Zm0 0"/><path id="e" d="M1.094-.484v-5.203l-.547-.125c-.086-.02-.125-.055-.125-.11q0-.075.094-.25h4.03q.062.751.063 1.063c0 .261-.086.39-.25.39a.6.6 0 0 1-.203-.031l-.218-.937H1.874v2.312h1.984v.5H1.875v2.36H4l.25-.954a.4.4 0 0 1 .203-.047q.218 0 .219.375 0 .363-.078 1.141H.422a.16.16 0 0 1-.016-.078Q.404-.324.72-.406Zm0 0"/><path id="f" d="m3.094-.422-.906-1.281h-.016L1.187-.422l.532.078q.124.017.125.11A.4.4 0 0 1 1.766 0H.109a.1.1 0 0 1-.015-.062q0-.218.281-.313l.203-.047 1.313-1.672L.625-3.859.188-4a.3.3 0 0 1-.016-.078q-.001-.218.25-.219h1.484c.07 0 .11.031.11.094A.5.5 0 0 1 1.953-4l-.453.125.844 1.188h.015l.922-1.172L2.625-4v-.078q-.001-.218.25-.219H4.25c.07 0 .11.031.11.094A.5.5 0 0 1 4.296-4l-.422.156L2.641-2.28 3.953-.453l.344.094c.082.023.125.062.125.125A.35.35 0 0 1 4.328 0H2.641v-.062c0-.133.086-.235.265-.297Zm0 0"/><path id="g" d="m.86-4.297.171-1.187h.532v1.187H2.89l-.079.469h-1.25v2.75q0 .674.579.672.435 0 .734-.235.062.095.063.266 0 .112-.235.266-.33.217-.828.218Q.827.11.828-.92v-2.907H.156a.1.1 0 0 1-.015-.063q0-.216.28-.296Zm0 0"/><path id="h" d="M.406-.375a.5.5 0 0 1 .125-.36.48.48 0 0 1 .36-.14c.132 0 .25.047.343.14a.47.47 0 0 1 .157.36.47.47 0 0 1-.157.36.5.5 0 0 1-.343.124.52.52 0 0 1-.36-.125.5.5 0 0 1-.125-.359m0 0"/><path id="i" d="M3.203-5.547c-.305-.164-.601-.25-.89-.25q-.534.001-.829.266c-.187.18-.28.422-.28.734q0 .393.234.656.14.141.515.329l.828.468c.438.242.742.465.922.672q.359.41.36.985c0 .53-.172.96-.516 1.28Q3.013.11 2.094.11a3.46 3.46 0 0 1-1.5-.359q-.047-.482-.047-1 0-.389.281-.39.075 0 .188.046l.218.938q.403.298.954.297.574 0 .89-.328.281-.295.281-.782-.002-.406-.296-.687c-.137-.125-.438-.32-.907-.594l-.562-.312C1.25-3.25.992-3.445.828-3.656q-.313-.405-.312-.985c0-.5.18-.898.547-1.203q.515-.435 1.359-.437.764.002 1.375.343.03.645.031.844-.001.391-.265.39a.5.5 0 0 1-.188-.03Zm0 0"/><path id="j" d="M2.375-6.172q3.546 0 3.547 3 0 1.583-.938 2.39C4.38-.257 3.508 0 2.375 0H.422a.16.16 0 0 1-.016-.078Q.404-.324.72-.406l.375-.078v-5.203l-.547-.125c-.086-.02-.125-.055-.125-.11q0-.075.094-.25ZM2.344-.5q1.326 0 2.031-.672.717-.667.719-1.969-.002-1.246-.719-1.89-.705-.64-2.031-.64h-.469V-.5Zm0 0"/><path id="k" d="M3.266-.39q.92 0 1.453-.72c.351-.476.531-1.132.531-1.968q0-1.248-.562-1.969-.552-.733-1.454-.734-.907.001-1.421.734-.516.72-.516 1.969 0 1.254.531 1.969.528.719 1.438.718m-.047.5q-1.22 0-1.969-.813Q.467-1.56.469-3.078q0-1.512.844-2.375.761-.827 2.015-.828 1.247 0 1.985.828c.507.562.765 1.355.765 2.375q0 1.501-.828 2.375-.784.813-2.031.812m0 0"/><path id="l" d="M2.031-.578V-5l-1.344.25a1 1 0 0 1-.015-.187c0-.133.07-.227.219-.282l1.468-.593h.454v5.234l1.078.172q.14.016.14.11-.002.08-.11.296H.86v-.078q0-.311.282-.36Zm0 0"/><path id="m" d="m.125-1.984 2.531-3.797.672-.063v3.64h.75l-.047.688h-.703v1.032l.61.125q.123.017.124.093 0 .048-.093.266H1.906v-.078q0-.246.297-.328l.39-.078v-1.032H.157Zm.734-.22h1.735V-4.89h-.016L.86-2.219Zm0 0"/><path id="n" d="M6.016-.484 5.937-4.72h-.015l-1.89 4.64h-.485L1.703-4.75h-.016L1.595-.484l.625.125q.124.017.125.093 0 .048-.094.266H.39v-.078Q.39-.324.689-.406l.39-.078.063-5.203-.547-.125c-.086-.02-.125-.055-.125-.11q0-.075.094-.25h1.406L3.922-1.25h.015l1.985-4.922h1.516v.078c0 .157-.102.262-.297.313l-.422.093.078 5.204.61.125q.123.017.124.093 0 .048-.093.266h-2.11v-.078q0-.246.297-.328Zm0 0"/><path id="o" d="M2.594-6.172v.078c0 .157-.102.262-.297.313l-.422.093v2.266h2.984v-2.265l-.546-.125c-.086-.02-.125-.055-.125-.11q0-.075.093-.25H6.36v.078q-.002.236-.296.313l-.422.093v5.204l.609.125q.124.017.125.093 0 .048-.094.266H4.188a.16.16 0 0 1-.016-.078c0-.164.101-.274.312-.328l.375-.078v-2.407H1.875v2.407L2.5-.36q.124.017.125.093c0 .032-.04.121-.11.266H.423a.16.16 0 0 1-.016-.078Q.404-.324.72-.406l.375-.078v-5.203l-.547-.125c-.086-.02-.125-.055-.125-.11q0-.075.094-.25Zm0 0"/><path id="p" d="M.469-3.406q0-.329.062-.89h2.907q.03.093.03.187a.57.57 0 0 1-.093.297L1.141-.47v.016h1.75l.312-.89h.14q.249.001.25.265 0 .093-.124 1.078H.406a.6.6 0 0 1-.094-.328q0-.124.094-.266l2.157-3.234v-.031h-1.47l-.25.75a.6.6 0 0 1-.124.015c-.168 0-.25-.101-.25-.312m0 0"/><path id="q" d="m.422-.453 1.516-1.734q.874-1.015.875-2c0-.833-.305-1.25-.907-1.25q-.345 0-.703.187a3.3 3.3 0 0 0-.125.875q-.11.017-.203.016-.422 0-.422-.344 0-.545.422-.875.42-.342 1.156-.344.715 0 1.172.422.451.408.453 1.156 0 .675-.422 1.36-.268.44-.906 1.125L1.344-.797v.016h2.031l.188-.781a.5.5 0 0 1 .187-.032q.234.002.234.344c0 .242-.03.656-.093 1.25H.5Zm0 0"/><path id="r" d="M.89-.922q.248.002.407.203.17.204.172.578 0 .592-.375.985c-.211.226-.414.344-.61.344-.093 0-.164-.086-.203-.25q.574-.3.61-.891a.5.5 0 0 1-.344-.125.47.47 0 0 1-.14-.344c0-.156.038-.273.124-.36a.48.48 0 0 1 .36-.14m0 0"/><path id="s" d="M4.453-5.687H3.031v5.203l.61.125q.124.017.125.093 0 .048-.094.266H1.578a.16.16 0 0 1-.016-.078q-.002-.246.313-.328l.375-.078v-5.203H.828L.61-4.75a.5.5 0 0 1-.187.031c-.18 0-.266-.129-.266-.39q0-.218.063-1.063h4.844q.06.845.062 1.063-.001.39-.266.39a.5.5 0 0 1-.187-.031Zm0 0"/><path id="t" d="M3.422-.422q.561 0 1-.187l.266-1.188a.7.7 0 0 1 .203-.031c.164 0 .25.133.25.39l-.047.97q-.72.578-1.828.577-1.19 0-1.922-.703C.758-1.133.469-1.957.469-3.062c0-1.04.32-1.86.969-2.454.55-.507 1.222-.765 2.015-.765q.982 0 1.672.406.047.644.047.938-.001.39-.266.39a.6.6 0 0 1-.203-.031l-.187-.89a2.03 2.03 0 0 0-1.063-.282c-.625 0-1.133.203-1.515.61-.43.46-.641 1.124-.641 2q-.001 1.375.625 2.078c.375.43.875.64 1.5.64m0 0"/><path id="u" d="M2.203-6.172v.078q-.002.253-.297.313l-.328.078L2.766-3.72h.015l1.266-2-.61-.093q-.126 0-.124-.11-.001-.075.109-.25h1.781q.014.048.016.078c0 .168-.102.278-.297.328l-.313.063L3.08-3.25 4.75-.469l.422.11q.124.034.125.093 0 .048-.094.266h-1.89a.16.16 0 0 1-.016-.078c0-.176.101-.285.312-.328l.266-.047-1.281-2.125h-.016L1.266-.453l.562.094q.124.017.125.093A.6.6 0 0 1 1.86 0H.047v-.078q0-.264.297-.328l.25-.063L2.28-3.062.671-5.687l-.437-.11C.148-5.817.11-5.859.11-5.922q0-.075.11-.25Zm0 0"/><path id="v" d="M2.234-.39q1.092.001 1.094-2.516-.002-2.515-1.094-2.516-1.094.001-1.093 2.516c0 1.68.363 2.515 1.093 2.515m-.03.5q-.88 0-1.376-.75Q.296-1.42.297-2.907c0-.977.187-1.735.562-2.266.352-.5.829-.75 1.422-.75q.873 0 1.36.75.528.784.53 2.266 0 1.47-.562 2.265-.533.75-1.406.75m0 0"/><path id="w" d="M1.125-5.812h2.563l-.063.78H1.531l-.125 1.407q1.296.066 1.875.547c.364.305.547.765.547 1.39 0 .493-.18.915-.531 1.266q-.534.533-1.39.531Q1.185.108.827-.156a.61.61 0 0 1-.281-.516q0-.405.39-.547.171.376.282.5.31.328.843.328.514 0 .829-.328c.195-.207.297-.476.297-.812q0-.732-.563-1.047-.55-.328-1.781-.328Zm0 0"/><path id="x" d="M3.703-4.766a1.04 1.04 0 0 0-.328-.421 1.24 1.24 0 0 0-.734-.235q-1.378 0-1.485 2.344a1.95 1.95 0 0 1 1.219-.406q.762.002 1.219.39c.344.274.515.688.515 1.25q-.001.798-.5 1.36c-.355.398-.808.593-1.359.593-.625 0-1.102-.257-1.422-.78Q.36-1.407.36-2.72.357-3.966.953-4.875c.445-.695 1.063-1.047 1.844-1.047q.622 0 .969.219.328.205.328.469c0 .242-.133.398-.39.468M1.156-2.625q.029 1.127.344 1.703.31.533.813.531.451.001.734-.343.28-.358.281-1.032-.002-1.202-1-1.203-.75.002-1.172.344m0 0"/><clipPath id="d"><path d="M80 101h16v14.223H80Zm0 0"/></clipPath></defs><path fill="none" stroke="#000" stroke-miterlimit="10" stroke-width=".39765936" d="M20.059 13.809h13.683m0 0H47.43"/><path fill="#FFF" stroke="#000" stroke-miterlimit="10" stroke-width=".39765936" d="M21.64 13.809a1.58 1.58 0 0 0-1.581-1.582 1.58 1.58 0 0 0-1.582 1.582 1.58 1.58 0 0 0 1.582 1.582 1.58 1.58 0 0 0 1.582-1.582Zm0 0"/><path d="M43.227 13.809v1.976l4.203-1.976-4.203-1.977Zm0 0"/><path fill="none" stroke="#000" stroke-miterlimit="10" stroke-width=".79432208" d="M47.43.398h26.82v26.82H47.43Zm0 0"/><path fill="none" stroke="#000" stroke-miterlimit="10" stroke-width=".39765936" d="M54.133 7.102c1.094-1.715 2.14-3.352 3.351-3.352 1.215 0 2.262 1.637 3.356 3.352 1.094 1.718 2.137 3.355 3.351 3.355 1.215 0 2.262-1.637 3.352-3.355M62.852 5.09l-4.024 4.023M54.133 13.809c1.094-1.715 2.14-3.352 3.351-3.352 1.215 0 2.262 1.637 3.356 3.352s2.137 3.351 3.351 3.351c1.215 0 2.262-1.637 3.352-3.351M54.133 20.516c1.094-1.72 2.14-3.356 3.351-3.356 1.215 0 2.262 1.637 3.356 3.356 1.094 1.714 2.137 3.351 3.351 3.351 1.215 0 2.262-1.637 3.352-3.351m-4.691-2.012-4.024 4.023M74.25 13.809h13.684m0 0h13.687"/><path d="M97.418 13.809v1.976l4.203-1.976-4.203-1.977Zm0 0"/><path fill="none" stroke="#000" stroke-miterlimit="10" stroke-width=".79432208" d="M101.621.398h26.82v26.82h-26.82Zm0 0"/><path fill="none" stroke="#000" stroke-miterlimit="10" stroke-width=".39765936" d="M124.418 13.809a9.387 9.387 0 0 0-9.387-9.387c-5.187 0-9.39 4.203-9.39 9.387 0 5.183 4.203 9.386 9.39 9.386a9.387 9.387 0 0 0 9.387-9.386ZM108.39 7.172l13.278 13.273m0-13.273-13.277 13.273M128.441 13.809h13.684m0 0h13.688"/><path d="M151.61 13.809v1.976l4.202-1.976-4.203-1.977Zm0 0"/><path fill="none" stroke="#000" stroke-miterlimit="10" stroke-width=".79432208" d="M155.813.398h26.82v26.82h-26.82Zm0 0"/><path fill="none" stroke="#000" stroke-miterlimit="10" stroke-width=".39765936" d="M162.516 7.102c1.093-1.715 2.14-3.352 3.351-3.352 1.215 0 2.262 1.637 3.356 3.352 1.093 1.718 2.136 3.355 3.351 3.355s2.262-1.637 3.352-3.355m-4.692-2.012-4.023 4.023M162.516 13.809c1.093-1.715 2.14-3.352 3.351-3.352 1.215 0 2.262 1.637 3.356 3.352s2.136 3.351 3.351 3.351 2.262-1.637 3.352-3.351M162.516 20.516c1.093-1.72 2.14-3.356 3.351-3.356 1.215 0 2.262 1.637 3.356 3.356 1.093 1.714 2.136 3.351 3.351 3.351s2.262-1.637 3.352-3.351m-4.692-2.012-4.023 4.023M182.633 13.809h13.683m0 0h13.688"/><path fill="#FFF" stroke="#000" stroke-miterlimit="10" stroke-width=".39765936" d="M211.582 13.809a1.58 1.58 0 1 0-3.16 0 1.58 1.58 0 1 0 3.16 0Zm0 0"/><path fill="none" stroke="#000" stroke-miterlimit="10" stroke-width=".39765936" d="M115.031 27.219v20.527m0 0v20.527h-6.843m0 0h-6.844"/><path d="M115.031 31.422h1.977l-1.977-4.203-1.98 4.203Zm0 0"/><path fill="none" stroke="#000" stroke-miterlimit="10" stroke-width=".79432208" d="M74.523 54.863h26.82v26.82h-26.82Zm0 0"/><use xlink:href="#a" x="80.615" y="71.355"/><use xlink:href="#b" x="85.691" y="71.355"/><use xlink:href="#b" x="90.472" y="71.355"/><path fill="none" stroke="#000" stroke-miterlimit="10" stroke-width=".39765936" d="M74.523 68.273H60.84m0 0H47.152"/><path d="M70.32 68.273v1.977l4.203-1.977-4.203-1.976Zm0 0"/><path fill="none" stroke="#000" stroke-miterlimit="10" stroke-width=".79432208" d="M20.332 54.863h26.82v26.82h-26.82Zm0 0"/><path fill="none" stroke="#000" stroke-miterlimit="10" stroke-width=".39765936" d="M35.418 62.238c.547-.86 1.07-1.675 1.68-1.675.605 0 1.129.816 1.675 1.675.547.86 1.067 1.676 1.676 1.676.606 0 1.13-.816 1.676-1.676M35.418 65.59c.547-.856 1.07-1.676 1.68-1.676.605 0 1.129.82 1.675 1.676.547.86 1.067 1.68 1.676 1.68.606 0 1.13-.82 1.676-1.68M35.418 68.945c.547-.86 1.07-1.675 1.68-1.675.605 0 1.129.816 1.675 1.675.547.856 1.067 1.676 1.676 1.676.606 0 1.13-.82 1.676-1.676"/><use xlink:href="#c" x="24.643" y="68.003"/><path fill="none" stroke="#000" stroke-miterlimit="10" stroke-width=".39765936" d="M24.355 72.969H43.13M24.355 77.66H43.13v-2.68H24.355ZM24.355 79.672H43.13M87.934 81.684V95.37m0 0v13.684"/><path d="M87.934 85.887h1.976l-1.976-4.203-1.977 4.203Zm0 0"/><path fill="#FFF" d="M89.516 109.055a1.583 1.583 0 1 0-3.162.002 1.583 1.583 0 0 0 3.162-.002m0 0"/><g clip-path="url(#d)"><path fill="none" stroke="#000" stroke-miterlimit="10" stroke-width=".39765936" d="M89.516 109.055a1.583 1.583 0 1 0-3.162.002 1.583 1.583 0 0 0 3.162-.002Zm0 0"/></g><use xlink:href="#e" x="91.111" y="112.136"/><use xlink:href="#f" x="96.177" y="112.136"/><use xlink:href="#g" x="100.708" y="112.136"/><use xlink:href="#h" x="103.746" y="112.136"/><use xlink:href="#c" x="107.884" y="112.136"/><use xlink:href="#a" x="114.014" y="112.136"/><use xlink:href="#i" x="119.153" y="112.136"/><use xlink:href="#j" x="123.647" y="112.136"/><use xlink:href="#k" x="130.046" y="112.136"/><use xlink:href="#l" x="3.331" y="10.631"/><use xlink:href="#m" x="7.799" y="10.631"/><use xlink:href="#m" x="12.267" y="10.631"/><use xlink:href="#n" x="18.218" y="10.631"/><use xlink:href="#o" x="26.091" y="10.631"/><use xlink:href="#p" x="32.847" y="10.631"/><use xlink:href="#q" x="195.453" y="9.452"/><use xlink:href="#r" x="199.921" y="9.452"/><use xlink:href="#m" x="201.771" y="9.452"/><use xlink:href="#c" x="207.722" y="9.452"/><use xlink:href="#o" x="213.852" y="9.452"/><use xlink:href="#p" x="220.608" y="9.452"/><use xlink:href="#s" x="22.456" y="91.134"/><use xlink:href="#t" x="27.684" y="91.134"/><use xlink:href="#u" x="33.296" y="91.134"/><use xlink:href="#k" x="38.488" y="91.134"/><use xlink:href="#l" x="19.25" y="51.578"/><use xlink:href="#v" x="23.718" y="51.578"/><use xlink:href="#n" x="29.67" y="51.578"/><use xlink:href="#o" x="37.542" y="51.578"/><use xlink:href="#p" x="44.298" y="51.578"/><use xlink:href="#q" x="118.206" y="50.292"/><use xlink:href="#r" x="122.674" y="50.292"/><use xlink:href="#q" x="124.524" y="50.292"/><use xlink:href="#w" x="128.992" y="50.292"/><use xlink:href="#x" x="133.46" y="50.292"/><use xlink:href="#c" x="139.412" y="50.292"/><use xlink:href="#o" x="145.542" y="50.292"/><use xlink:href="#p" x="152.298" y="50.292"/></svg>