<svg xmlns="http://www.w3.org/2000/svg" xmlns:xlink="http://www.w3.org/1999/xlink" width="107.289" height="87.88"><defs><path id="a" d="M2.656-2.766q0-.59-.187-.859-.174-.28-.594-.281-.298 0-.531.078-.11.234-.203.797H.953q-.438 0-.437-.375c0-.27.148-.5.453-.688A1.97 1.97 0 0 1 2-4.375q1.373 0 1.375 1.5v1.953c0 .336.102.5.313.5a.48.48 0 0 0 .328-.11q.077.112.078.25c0 .063-.059.134-.172.204a.87.87 0 0 1-.531.156q-.611 0-.688-.61h-.015q-.423.643-1.22.641-.502 0-.812-.312-.313-.311-.312-.828c0-.438.219-.774.656-1.016.375-.195.844-.297 1.406-.297h.25Zm-.89 2.313q.498 0 .89-.469v-1.015l-.25.015q-1.282.096-1.281.813c0 .437.21.656.64.656m0 0"/><path id="b" d="M.656-5.922 0-6.016a.2.2 0 0 1-.016-.062q0-.246.344-.281l1.047-.11v2.703h.016q.497-.609 1.328-.609.702 0 1.14.469.499.55.5 1.656c0 .781-.234 1.383-.703 1.797q-.628.562-1.578.562-.893 0-1.422-.312Zm1.719 2.14q-.644 0-1 .423v2.703q.374.251.875.25 1.36 0 1.36-1.735c0-.57-.126-1-.376-1.28-.218-.24-.507-.36-.859-.36m0 0"/><path id="c" d="m.375-.406 1.344-1.531q.78-.904.781-1.766-.002-1.109-.812-1.11-.315.002-.625.157a3 3 0 0 0-.11.781 1 1 0 0 1-.172.016q-.39.002-.39-.313 0-.481.375-.781c.257-.195.601-.297 1.03-.297q.64 0 1.032.375.406.363.406 1.031c0 .399-.12.797-.359 1.203q-.25.392-.812 1l-.86.938v.015H3l.156-.687a.4.4 0 0 1 .172-.031q.201 0 .203.312 0 .299-.078 1.094H.438Zm0 0"/><path id="d" d="M1.234-2.797q1.343-.153 1.344-1.062 0-.951-.797-.953-.376 0-.625.171-.11.33-.11.735a1 1 0 0 1-.187.015q-.375 0-.375-.328 0-.452.391-.734c.27-.195.617-.297 1.047-.297q.638.002 1 .344.359.327.36.89c0 .375-.122.68-.36.907q-.27.25-.813.437v.016q.639.093.985.422c.226.21.344.48.344.812 0 .438-.165.805-.485 1.094q-.485.422-1.281.422-.644-.002-.953-.25a.52.52 0 0 1-.25-.453c0-.227.117-.383.36-.47q.12.3.25.438.264.299.734.297.89 0 .89-.937-.002-.997-1.469-1.11Zm0 0"/><path id="e" d="M1.984-.344c.645 0 .97-.742.97-2.234q-.001-2.217-.97-2.219Q1-4.795 1-2.578c0 1.492.328 2.234.984 2.234m-.03.438a1.38 1.38 0 0 1-1.22-.656Q.266-1.266.266-2.578c0-.863.164-1.535.5-2.016.312-.437.726-.656 1.25-.656q.78 0 1.218.656.453.703.454 2.016-.001 1.313-.5 2.015-.456.657-1.235.657m0 0"/><path id="f" d="M5.172-5.469a.2.2 0 0 1 .016.078q0 .223-.282.282l-.203.046L2.906 0H2.25L.406-5.047.063-5.14c-.07-.02-.11-.054-.11-.109 0-.04.035-.113.094-.219h1.766v.078q-.001.207-.266.266l-.328.078 1.453 4.25h.015l1.5-4.265-.609-.094q-.11-.03-.11-.094 0-.06.095-.219Zm0 0"/></defs><path fill="none" stroke="#000" stroke-linejoin="bevel" stroke-miterlimit="10" stroke-width=".79175574" d="M38.062 27.191c3.266 0 5.915 1.813 5.915 4.043s-2.649 4.043-5.915 4.043c3.266 0 5.915 1.809 5.915 4.04 0 2.234-2.649 4.042-5.915 4.042 3.266 0 5.915 1.809 5.915 4.04 0 2.234-2.649 4.042-5.915 4.042 3.266 0 5.915 1.809 5.915 4.043 0 2.23-2.649 4.04-5.915 4.04M62.035 59.523c-3.265 0-5.914-1.808-5.914-4.039 0-2.234 2.649-4.043 5.914-4.043-3.265 0-5.914-1.808-5.914-4.043 0-2.23 2.649-4.039 5.914-4.039-3.265 0-5.914-1.808-5.914-4.043 0-2.23 2.649-4.039 5.914-4.039-3.265 0-5.914-1.812-5.914-4.043s2.649-4.043 5.914-4.043"/><path fill="none" stroke="#000" stroke-miterlimit="10" stroke-width=".39637458000000003" d="M20.48 15.27h17.743v12.32m0 31.539v12.32H20.48m59.137-56.18H61.875v12.32m0 31.54v12.32h17.742"/><path fill="#FFF" stroke="#000" stroke-miterlimit="10" stroke-width=".39637458000000003" d="M22.059 15.27a1.579 1.579 0 1 0-3.158 0 1.579 1.579 0 0 0 3.158 0ZM22.059 71.45a1.579 1.579 0 0 0-3.157 0c0 .87.707 1.573 1.578 1.573s1.579-.703 1.579-1.574Zm0 0"/><path fill="none" stroke="#000" stroke-miterlimit="10" stroke-width=".39637458000000003" d="M79.617 15.27"/><path fill="#FFF" stroke="#000" stroke-miterlimit="10" stroke-width=".39637458000000003" d="M81.191 15.27a1.575 1.575 0 1 0-3.152 0 1.575 1.575 0 1 0 3.152 0Zm0 0"/><path fill="none" stroke="#000" stroke-miterlimit="10" stroke-width=".39637458000000003" d="M79.617 71.45"/><path fill="#FFF" stroke="#000" stroke-miterlimit="10" stroke-width=".39637458000000003" d="M81.191 71.45a1.575 1.575 0 1 0-3.152 0c0 .87.707 1.573 1.578 1.573s1.574-.703 1.574-1.574Zm0 0"/><use xlink:href="#a" x="99.156" y="7.581"/><use xlink:href="#b" x="98.858" y="84.456"/><path fill="none" stroke="#000" stroke-miterlimit="10" stroke-width=".39637458000000003" d="M50.047 24.402V43.36m0 0v18.957M.758 52.84c1.851-2.914 3.629-5.688 5.687-5.688s3.832 2.774 5.688 5.688c1.851 2.91 3.625 5.683 5.683 5.683 2.063 0 3.836-2.773 5.688-5.683"/><use xlink:href="#c" x="2.968" y="36.564"/><use xlink:href="#d" x="6.927" y="36.564"/><use xlink:href="#e" x="10.886" y="36.564"/><use xlink:href="#f" x="16.159" y="36.564"/></svg>