<svg xmlns="http://www.w3.org/2000/svg" xmlns:xlink="http://www.w3.org/1999/xlink" width="228.973" height="85.439"><defs><path id="d" d="m.938-3.828-.47.031c-.171.016-.234.078-.25.156a.6.6 0 0 0-.046.157c0 .015.031.015.062.015H.86L.313-1.047C.25-.766.188-.484.188-.328c0 .328.156.422.437.422.406 0 .984-.375 1.297-.922C1.89-.938 1.828-1 1.719-1c-.407.469-.563.547-.719.547-.016 0-.11-.016-.11-.11 0-.093.032-.265.094-.562l.532-2.344h.875c.109-.047.187-.281.078-.36h-.875l.093-.39c.032-.172.11-.437.11-.531 0-.156-.063-.25-.36-.25-.312 0-.296.406-.39.734Zm0 0"/><path id="e" d="m-.484-4.469-1.625.578v2.22l1.625.577.125-.672q.017-.124.093-.125.066 0 .266.094V.078a.2.2 0 0 1-.078.016Q-.342.096-.406-.22l-.063-.25-5.672-2.156-.078-.562 5.75-2.141.11-.39q.034-.125.093-.126.048 0 .266.094v1.906a.16.16 0 0 1-.078.016q-.246 0-.328-.297Zm-2.094 2.625v-1.875l-2.61.906v.032Zm0 0"/><path id="f" d="m-.469-7.062.125-.532q.017-.124.11-.125.129 0 .234.094v1.875a.1.1 0 0 1-.062.016c-.133 0-.235-.094-.297-.282l-.11-.328H-2.75c-.687 0-1.031.29-1.031.86 0 .449.164.843.484 1.187a4 4 0 0 1 .516-.047H-.47l.125-.531q.017-.124.11-.125.129 0 .234.078v1.89a.1.1 0 0 1-.062.016c-.133 0-.235-.093-.297-.28l-.11-.329H-2.75c-.687 0-1.031.29-1.031.86q.002.644.437 1.14h2.875l.125-.547c.012-.07.047-.11.11-.11q.129.001.234.079v1.89a.1.1 0 0 1-.062.016c-.133 0-.235-.094-.297-.281l-.11-.328H-3.78l-.094.64a.16.16 0 0 1-.078.016c-.156 0-.242-.11-.266-.328l-.11-1.047.595.047v-.031q-.64-.61-.641-1.422 0-.812.703-1.14-.703-.639-.703-1.516 0-.638.422-1 .41-.375 1.172-.375Zm0 0"/><path id="g" d="M1.313-.86h-5.094l-.094.657h-.078c-.156 0-.242-.11-.266-.328l-.11-1.047.595.062v-.03c-.426-.352-.641-.798-.641-1.329q.001-.763.547-1.203.55-.452 1.515-.453 1.173 0 1.782.61.579.562.578 1.577c0 .262-.04.516-.11.766h1.376l.125-.531c.007-.082.046-.125.109-.125a.36.36 0 0 1 .234.093v1.875a.13.13 0 0 1-.062.016q-.205 0-.297-.281Zm-5.11-1.734q.001.581.406 1.016h2.672q.282-.359.282-.828 0-1.373-1.829-1.375-.732 0-1.125.328-.405.314-.406.86m0 0"/><path id="h" d="M-.469-.86h-5.453l-.094.641a.1.1 0 0 1-.062.016q-.246 0-.281-.328l-.11-1.047h6l.125-.547q.017-.124.11-.125.129 0 .234.094v1.89h-.062c-.133 0-.235-.086-.297-.265Zm0 0"/><path id="i" d="M-.469-.906H-3.78l-.094.64a.16.16 0 0 1-.078.016c-.156 0-.242-.11-.266-.328l-.11-1.047h3.86l.125-.547c.012-.07.047-.11.11-.11q.129.001.234.079v1.89a.1.1 0 0 1-.062.016c-.133 0-.235-.094-.297-.281Zm-5.343.156a.5.5 0 0 1-.375-.14.53.53 0 0 1-.141-.376q0-.217.14-.359a.49.49 0 0 1 .375-.156q.236.002.375.156a.5.5 0 0 1 .125.36c0 .148-.039.273-.125.374a.5.5 0 0 1-.375.141m0 0"/><path id="j" d="M-4.281-.86-5.47-1.03v-.516h1.188V-2.89l.468.094v1.25h2.75q.657.001.657-.578c0-.3-.07-.55-.219-.75a.43.43 0 0 1 .25-.062q.112.001.266.25c.144.218.218.492.218.812Q.11-.826-.92-.828h-2.891v.672a.1.1 0 0 1-.063.015q-.216 0-.297-.28Zm0 0"/><path id="k" d="m-3.781-.781-.094.64a.16.16 0 0 1-.078.016c-.156 0-.242-.11-.266-.328l-.11-1.047h2.798q1.048 0 1.047-.89 0-.688-.438-1.11h-2.86l-.093.656h-.078c-.156 0-.242-.11-.266-.328l-.11-1.047h3.845l.078-.656h.078q.252 0 .281.328l.094 1h-.578v.016c.43.344.64.793.64 1.344q0 1.406-1.593 1.406Zm0 0"/><path id="l" d="M-.5-3.406v.031q.61.44.61 1.266 0 .737-.47 1.187-.543.533-1.656.531-1.156 0-1.812-.703-.546-.592-.547-1.484c0-.27.04-.524.11-.766h-1.657l-.094.64a.1.1 0 0 1-.062.017q-.246 0-.281-.329l-.11-1.046h5.985l.078-.657q.047-.013.078-.015.252 0 .281.328l.094 1Zm.031 1.094q0-.657-.39-1.032h-2.703q-.33.316-.329.844c0 .406.149.73.438.969q.486.39 1.312.39.846.001 1.282-.343.39-.295.39-.828m0 0"/><path id="m" d="M-2.172-1.156q.845-.012 1.297-.375c.305-.239.453-.57.453-1q0-.593-.422-1.11.064-.092.25-.109.205.001.438.406.265.47.265 1.11.002.815-.5 1.297c-.382.367-.941.546-1.671.546q-1.09.001-1.735-.578a1.7 1.7 0 0 1-.578-1.297q.001-.702.406-1.093.41-.36 1.078-.36.299 0 .72.094Zm-1.75-1.031q.002.909 1.328 1.015v-1.75a1.4 1.4 0 0 0-.375-.047q-.951.001-.953.781m0 0"/><clipPath id="a"><path d="M219 35h9.21v15H219Zm0 0"/></clipPath><clipPath id="b"><path d="M14 3h2v81.883h-2Zm0 0"/></clipPath><clipPath id="c"><path d="M15.117 3H220v79H15.117Zm0 0"/></clipPath></defs><path fill="none" stroke="#000" stroke-miterlimit="10" stroke-width=".39639852000000003" d="M15.117 42.441h209.45"/><path d="m227.621 42.441-2.953-1.754v3.504Zm0 0"/><g clip-path="url(#a)"><path fill="none" stroke="#000" stroke-miterlimit="10" stroke-width=".39639852000000003" d="m227.621 42.441-2.953-1.754v3.504Zm0 0"/></g><g clip-path="url(#b)"><path fill="none" stroke="#000" stroke-miterlimit="10" stroke-width=".39639852000000003" d="M15.117 84.684V3.648"/></g><path stroke="#000" stroke-miterlimit="10" stroke-width=".39639852000000003" d="m15.117.594-1.75 2.953h3.504Zm0 0"/><g clip-path="url(#c)"><path fill="none" stroke="#000" stroke-miterlimit="10" stroke-width=".7918035600000001" d="m15.117 14.277.067.051.062.145.067.242.062.336.066.43.063.523.066.617.063.703.066.79.063.874.066.953.063 1.032.066 1.105.063 1.176.066 1.242.066 1.305.063 1.36.066 1.413.063 1.461.066 1.504.063 1.54.066 1.573.063 1.602.066 1.621.062 1.637.067 1.644.062 1.653.067 1.652.062 1.64.067 1.633.062 1.614.067 1.586.062 1.562.067 1.524.062 1.484.066 1.441.063 1.39.066 1.337.067 1.277.062 1.211.067 1.145.062 1.074.067.996.062.918.066.84.063.75.066.664.063.574.066.484.063.387.066.297.063.195.066.106.063.004.066-.094.062-.188.067-.285.062-.379.067-.472.062-.563.067-.656.066-.742.063-.828.066-.91.063-.989.066-1.062.062-1.14.067-1.204.062-1.27.067-1.332.062-1.382.067-1.438.062-1.48.067-1.52.062-1.555.066-1.585.063-1.614.066-1.629.063-1.64.066-1.649.063-1.652.066-1.649.063-1.64.066-1.621.066-1.602.063-1.578.066-1.547.063-1.508.066-1.464.063-1.418.066-1.368.063-1.308.066-1.25.063-1.18.066-1.113.063-1.043.066-.961.062-.883.067-.8.062-.712.067-.625.062-.535.067-.437.062-.348.067-.254.062-.152.066-.063.067.04.062.136.067.23.062.325.067.422.062.515.067.606.062.691.066.781.063.868.066.945.063 1.023.066 1.098.063 1.168.066 1.234.063 1.297.066 1.356.063 1.406.066 1.457.063 1.5.066 1.535.062 1.57.067 1.598.066 1.621.063 1.637.066 1.644.063 1.653.066 1.652.063 1.64.066 1.634.062 1.617.067 1.59.062 1.562.067 1.531.062 1.489.067 1.445.062 1.394.067 1.344.062 1.281.066 1.223.063 1.152.066 1.079.063 1.007.066.926.063.848.066.758.067.675.062.582.067.497.062.398.066.305.063.207.066.113.063.016.066-.082.063-.176.066-.278.063-.367.066-.46.063-.555.066-.649.062-.73.067-.82.062-.903.067-.98.062-1.055.067-1.133.062-1.195.067-1.266.062-1.324.066-1.379.067-1.43.062-1.472.067-1.52.062-1.55.067-1.587.062-1.605.067-1.629.062-1.64.067-1.649.062-1.652.066-1.649.063-1.64.066-1.625.063-1.606.066-1.578.063-1.55.066-1.512.063-1.47.066-1.425.063-1.371.066-1.316.062-1.254.067-1.192.066-1.12.063-1.048.066-.972.063-.891.066-.809.063-.722.066-.633.062-.543.067-.45.062-.359.067-.261.062-.164.067-.07.062.027.067.125.062.218.067.317.062.414.066.504.063.593.066.684.063.773.066.856.067.937.062 1.016.067 1.09.062 1.16.066 1.227.063 1.293.066 1.347.063 1.403.066 1.453.063 1.492.066 1.535.063 1.566.066 1.594.063 1.617.066 1.637.062 1.645.067 1.652.062 1.648.067 1.645.062 1.637.067 1.617.062 1.594.067 1.566.066 1.531.063 1.496.066 1.45.062 1.402.067 1.348.062 1.289.067 1.226.062 1.16.067 1.09.062 1.012.067.937.062.856.066.77.063.683.066.594.063.5.066.41.063.316.066.22.063.12.066.028.063-.07.066-.169.066-.265.063-.36.066-.453.063-.543.066-.637.063-.722.066-.809.063-.894.066-.973.063-1.047.066-1.125.062-1.191.067-1.254.062-1.32.067-1.372.062-1.425.067-1.47.062-1.515.067-1.547.062-1.582.066-1.605.063-1.625.066-1.64.067-1.65.062-1.652.067-1.648.062-1.64.067-1.63.062-1.605.066-1.582.063-1.555.066-1.515.063-1.473.066-1.43.063-1.379.066-1.32.063-1.265.066-1.196.063-1.129.066-1.054.063-.98.066-.9.062-.82.067-.73.062-.645.067-.55.066-.461.063-.368.066-.273.063-.176.066-.078.062.016.067.113.062.211.067.309.062.398.067.496.062.586.067.672.062.766.066.843.063.93.066 1.008.063 1.082.066 1.152.063 1.223.066 1.285.063 1.34.066 1.398.063 1.446.066 1.492.066 1.527.063 1.567.066 1.59.063 1.617.066 1.632.063 1.645.066 1.648.063 1.653.066 1.644.063 1.637.066 1.621.062 1.594.067 1.57.062 1.54.067 1.495.062 1.457.067 1.407.062 1.355.067 1.293.062 1.234.066 1.168.063 1.098.066 1.02.067.945.062.863.067.781.062.692.067.601.062.516.067.418.062.324.066.23.063.133.066.036.063-.059.066-.16.063-.25.066-.352.063-.441.066-.535.063-.625.066-.715.062-.8.067-.884.062-.965.067-1.043.066-1.113.063-1.183.066-1.25.063-1.313.066-1.367.062-1.418.067-1.469.062-1.508.067-1.543.062-1.578.067-1.601.062-1.625.067-1.64.062-1.65.067-1.648.062-1.652.066-1.64.063-1.63.066-1.61.063-1.585.066-1.555.063-1.523.066-1.477.067-1.437.062-1.383.066-1.328.063-1.27.066-1.203.063-1.137.066-1.062.063-.988.066-.91.063-.825.066-.742.063-.652.066-.563.062-.472.067-.375.062-.286.067-.183.062-.09.067.004.062.105.067.2.062.297.067.39.066.485.062.574.067.668.062.754.067.836.062.921.067 1 .062 1.075.067 1.144.062 1.215.066 1.277.063 1.336.066 1.39.063 1.442.066 1.485.063 1.527.066 1.559.063 1.59.066 1.613.063 1.633.066 1.64.062 1.653.067 1.652.066 1.644.063 1.637.066 1.621.063 1.602.066 1.574.063 1.54.066 1.503.063 1.46.066 1.411.062 1.36.067 1.304.062 1.238.067 1.176.062 1.102.067 1.031.062.953.067.871.062.79.066.702.063.614.066.523.063.43.066.332.067.242.062.14.067.048.062-.051.066-.145.063-.242.066-.34.063-.433.066-.524.063-.617.066-.707.063-.79.066-.874.063-.957L47 63.89l.063-1.11.066-1.176.062-1.242.067-1.304.062-1.364.067-1.414.062-1.46.067-1.505.062-1.543.067-1.574.066-1.597.062-1.622.067-1.64.062-1.645.067-1.652.062-1.652.067-1.641.062-1.633.067-1.61.062-1.589.066-1.559.063-1.523.066-1.484.063-1.442.066-1.39.063-1.333.066-1.277.063-1.21.066-1.145.063-1.07.066-.997.063-.918.066-.836.066-.75.063-.66.066-.574.063-.48.066-.387.063-.293.066-.195.063-.102.066-.004.062.094.067.191.062.285.067.38.062.476.067.566.062.653.067.746.062.828.066.914.063.988.066 1.067.063 1.14.066 1.207.067 1.27.062 1.332.067 1.383.062 1.437.067 1.48L51 32.25l.066 1.555.063 1.586.066 1.613.063 1.629.066 1.64.063 1.653.066 1.648.063 1.649.066 1.64.063 1.621.066 1.602.062 1.578.067 1.543.062 1.508.067 1.465.062 1.418.067 1.367.066 1.308.063 1.247.066 1.18.062 1.112.067 1.04.062.96.067.883.062.797.067.711.062.621.067.531.062.442.067.344.062.25.066.156.063.055.066-.04.063-.136.066-.23.063-.333.066-.422.063-.515.066-.606.066-.695.063-.781.066-.867.063-.95.066-1.023.063-1.098.066-1.172.063-1.234.066-1.3.063-1.356.066-1.407.062-1.457.067-1.5.062-1.539.067-1.57.062-1.598.067-1.62.062-1.637.067-1.645.062-1.652.067-1.649.062-1.644.066-1.633.067-1.613.062-1.594.067-1.563.062-1.527.067-1.488.062-1.446.067-1.394.062-1.34.066-1.281.063-1.219.066-1.152.063-1.078.066-1.008.063-.926.066-.844.063-.758.066-.671.063-.582.066-.493.062-.398.067-.3.062-.208.067-.113.062-.012.067.082.066.18.063.277.066.371.063.461.066.559.062.644.067.735.062.82.067.906.062.98.067 1.06.062 1.132.067 1.2.062 1.261.066 1.324.063 1.383.066 1.43.063 1.476.066 1.516.063 1.555.066 1.582.063 1.61.066 1.628.066 1.64.063 1.65.066 1.651.063 1.649.066 1.64.063 1.625.066 1.606.063 1.578.066 1.547.063 1.512.066 1.468.063 1.426.066 1.371.062 1.313.067 1.254.062 1.191.067 1.117.062 1.047.067.973.062.887.067.808.062.719.066.633.067.543.062.449.067.355.062.262.067.164.062.067.067-.032.062-.125.066-.222.063-.317.066-.414.063-.504.066-.597.063-.688.066-.773.063-.856.066-.941.063-1.016.066-1.09.063-1.164.066-1.23.062-1.29.067-1.35.066-1.403.063-1.453.066-1.496.063-1.532.066-1.57.063-1.594.066-1.617.062-1.633.067-1.648.062-1.649.067-1.652.062-1.644.067-1.637.062-1.613.067-1.594.062-1.567.066-1.535.063-1.492.066-1.45.063-1.398.066-1.347.063-1.29.066-1.226.067-1.156.062-1.09.067-1.012.062-.933.066-.856.063-.765.066-.684.063-.59.066-.504.063-.406.066-.312.063-.22.066-.12.063-.024.066.074.062.168.067.266.062.36.067.456.062.543.067.641.062.723.067.812.066.895.062.972.067 1.051.062 1.125.067 1.192.062 1.257.067 1.317.062 1.375.067 1.426.062 1.472.067 1.512.062 1.55.066 1.583.063 1.605.066 1.625.063 1.64.066 1.65.063 1.652.066 1.648.063 1.64.066 1.63.063 1.605.066 1.582.066 1.55.063 1.517.066 1.476.063 1.426.066 1.379.063 1.32.066 1.262.063 1.195.066 1.129.062 1.055.067.976.062.899.067.816.062.73.067.641.062.551.067.46.062.364.067.274.062.172.066.078.063-.02.066-.113.063-.215.066-.305.067-.406.062-.492.067-.59.062-.676.066-.765.063-.848.066-.93.063-1.008.066-1.085.063-1.153.066-1.222.063-1.286.066-1.343.063-1.399.066-1.445.062-1.492.067-1.532.062-1.562.067-1.594.062-1.613.067-1.633.062-1.648.067-1.649.066-1.652.063-1.645.066-1.636.062-1.618.067-1.597.062-1.57.067-1.536.062-1.496.067-1.457.062-1.406.067-1.352.062-1.293.066-1.234.063-1.164.066-1.098.063-1.02.066-.945.063-.859.066-.777.063-.692.066-.601.063-.512.066-.418.066-.324.063-.227.066-.133.063-.03.066.062.063.156.066.254.063.351.066.446.063.535.066.629.062.715.067.804.062.883.067.965.062 1.043.067 1.117.062 1.184.067 1.254.062 1.308.066 1.371.063 1.418.066 1.47.067 1.507.062 1.547.067 1.578.062 1.605.067 1.621.062 1.641.066 1.649.063 1.652.066 1.648.063 1.64.066 1.63.063 1.61.066 1.585.063 1.555.066 1.52.063 1.48.066 1.433.063 1.383.066 1.324.062 1.27.067 1.203.062 1.137.067 1.062.066.985.063.906.066.824.063.742.066.649.062.562.067.47.062.378.067.277.062.188.067.086.062-.008.067-.106.062-.203.066-.297.063-.39.066-.488.063-.579.066-.664.063-.757.066-.84.063-.918.066-1.004.067-1.074.062-1.149.066-1.215.063-1.277.066-1.336.063-1.394.066-1.442.063-1.488.066-1.524.063-1.562.066-1.59.063-1.613.066-1.633.062-1.64.067-1.653.062-1.652.067-1.645.062-1.637.067-1.62.062-1.602.067-1.57.062-1.54.066-1.504.067-1.457.062-1.414.067-1.359.062-1.3.067-1.24.062-1.171.067-1.105.062-1.028.067-.953.062-.871.066-.785.063-.7.066-.613.063-.52.066-.429.063-.332.066-.238.063-.14.066-.048.063.055.066.148.062.243.067.34.062.437.067.527.066.618.063.707.066.793.063.875.066.957.062 1.035.067 1.11.062 1.175.067 1.246.062 1.305.067 1.363.062 1.414.067 1.46.062 1.509.067 1.539.062 1.574.066 1.602.063 1.625.066 1.636.063 1.645.066 1.652.063 1.653.066 1.64.067 1.633.062 1.61.066 1.59.063 1.558.066 1.523.063 1.485.066 1.437.063 1.387.066 1.336.063 1.273.066 1.211.063 1.14.066 1.071.062.996.067.914.062.836.067.75.062.66.067.57.062.481.067.383.062.293.067.195.066.098h.062l.067-.094.062-.191.067-.29.062-.378.067-.477.062-.57.067-.656.062-.747.066-.832.063-.91.066-.992.063-1.07.066-1.137.063-1.21.066-1.27.063-1.332.066-1.387.063-1.438.066-1.48.062-1.524.067-1.558.066-1.586.063-1.61.066-1.632.063-1.64.066-1.653.063-1.649.066-1.648.063-1.64.066-1.622.062-1.601.067-1.575.062-1.543.067-1.507.062-1.465.067-1.418.062-1.363.067-1.31.062-1.245.066-1.18.063-1.11.066-1.038.063-.961.066-.88.067-.792.062-.711.067-.621.062-.531.066-.438.063-.344.066-.25.063-.148.066-.059.063.043.066.137.063.234.066.332.063.426.066.516.063.61.066.695.062.785.067.867.062.95.067 1.026.062 1.098.067 1.172.066 1.238.063 1.297.066 1.36.062 1.406.067 1.46.062 1.5.067 1.54.062 1.57.067 1.598.062 1.62.067 1.638.062 1.644.066 1.652.063 1.653.066 1.64.063 1.633.066 1.613.063 1.594.066 1.559.063 1.531.066 1.488.063 1.442.066 1.394.066 1.34.063 1.281.066 1.215.063 1.153.066 1.078.063 1.004.066.921.063.844.066.758.063.672.066.578.062.492.067.395.062.3.067.208.062.105.067.016.062-.086.067-.184.062-.273.066-.375.063-.465.066-.559.063-.648.066-.735.067-.824.062-.902.067-.985.062-1.058.067-1.133.062-1.203.066-1.266.063-1.324.066-1.379.063-1.433.066-1.477.063-1.52.066-1.554.063-1.582.066-1.61.063-1.628.066-1.641.062-1.649.067-1.652.062-1.648.067-1.64.062-1.626.067-1.602.066-1.578.063-1.55.066-1.508.062-1.469.067-1.422.062-1.371.067-1.316.062-1.25.067-1.188.062-1.121.067-1.043.062-.969.067-.89.062-.805.066-.719.063-.629.066-.543.063-.445.066-.355.063-.258.066-.16.063-.067.066.031.066.125.063.227.066.32.063.414.066.508.063.598.066.687.063.774.066.86.063.94.066 1.016.062 1.094.067 1.164.062 1.23.067 1.293.062 1.352.067 1.402.062 1.454.067 1.496.062 1.535.067 1.566.062 1.598.066 1.617.067 1.637.062 1.644.067 1.653.062 1.648.067 1.645.062 1.636.067 1.614.062 1.593.066 1.567.063 1.531.066 1.492.063 1.45.066 1.398.063 1.347.066 1.286.063 1.226.066 1.156.063 1.086.066 1.012.062.934.067.851.062.766.067.68.066.593.063.496.066.407.063.312.066.215.063.121.066.02.062-.075.067-.168.062-.27.067-.358.062-.457.067-.551.062-.637.067-.727.062-.812.066-.895.063-.976.066-1.05.13-2.321.062-1.258.066-1.32.067-1.375.062-1.426.066-1.473.063-1.515.066-1.551.063-1.578.066-1.61.063-1.625.066-1.64.063-1.649.066-1.652.063-1.649.066-1.64.063-1.625.066-1.61.062-1.582.067-1.55.062-1.512.067-1.477.062-1.425.067-1.375.062-1.32.067-1.262.128-2.32.067-1.055.062-.977.067-.895.062-.816.067-.727.062-.64.067-.55.062-.458.066-.363.063-.27.066-.172.063-.078.066.024.063.117.066.215.063.308.066.403.063.5.066.586.063.68.066.765.062.851.067.93.066 1.012.063 1.082.066 1.156.063 1.223.066 1.289.063 1.344.066 1.398.062 1.45.067 1.491.062 1.528.067 1.566.062 1.594.067 1.617.062 1.633.067 1.644.062 1.649.066 1.652.063 1.645.066 1.637.063 1.617.066 1.597.063 1.567.066 1.539.067 1.496.062 1.453.067 1.406.062 1.352.066 1.293.063 1.23.066 1.164.063 1.094.066 1.02.063.941.066.863.063.774.066.691.063.598.066.512.062.414.067.324.062.222.067.133.062.032.067-.063.062-.16.067-.258.066-.351.062-.45.067-.535.062-.629.067-.719.062-.804.067-.887.062-.965.067-1.047.062-1.117.067-1.183.062-1.254.066-1.313.063-1.37.066-1.419.063-1.469.066-1.511.063-1.547.066-1.578.063-1.602.066-1.625.063-1.64.132-3.297.063-1.653.066-1.64.063-1.63.066-1.609.063-1.582.066-1.554.063-1.52.066-1.48.062-1.43.067-1.383.062-1.328.067-1.266.062-1.203.067-1.133.062-1.062.067-.984.062-.907.067-.82.062-.738.066-.653.063-.558.066-.469.067-.371.062-.281.067-.184.062-.086.067.012.062.105.066.203.063.301.066.395.063.488.066.578.063.668.066.758.063.84.066.926.063 1 .066 1.078.062 1.148.067 1.215.062 1.281.067 1.336.062 1.395.067 1.441.066 1.488.063 1.528.066 1.562.063 1.59.066 1.613.062 1.633.067 1.64.062 1.653.067 1.652.062 1.645.067 1.637.062 1.62.067 1.598.062 1.575.066 1.539.063 1.5.066 1.46.063 1.41.066 1.356.063 1.301.066 1.238.063 1.172.066 1.102.063 1.027.066.95.066.87.063.786.066.699.063.61.066.519.063.426.066.332.063.234.066.14.063.044.066-.051.062-.153.067-.246.062-.343.067-.434.062-.527.067-.621.062-.707.067-.797.062-.88.066-.956.063-1.035.066-1.11.067-1.18.062-1.246.067-1.304.062-1.364.067-1.418.062-1.46.066-1.508.063-1.543.066-1.574.063-1.602.066-1.621.063-1.64.066-1.645.063-1.653.066-1.652.063-1.64.066-1.63.063-1.613.066-1.586.062-1.558.067-1.524.062-1.484.067-1.438.066-1.386.063-1.332.066-1.274.063-1.21.066-1.141.062-1.067.067-.996.062-.914.067-.832.062-.746.067-.66.062-.57.067-.477.062-.383.066-.289.063-.195.066-.098h.063l.066.098.063.195.066.29.063.382.066.476.067.57.062.66.066.747.063.832.066.914.063.996.066 1.067.063 1.14.066 1.211.063 1.274.066 1.332.063 1.386.066 1.438.062 1.484.067 1.524.062 1.558.067 1.586.062 1.61.067 1.632.062 1.641.067 1.652.062 1.653.066 1.644.067 1.64.062 1.622.067 1.602.062 1.574.067 1.543.062 1.508.067 1.46.062 1.418.067 1.364.062 1.304.066 1.246.063 1.18.066 1.11.063 1.035.066.957.063.879.066.797.063.707.066.617.063.531.066.434.062.343.067.246.066.153.063.05.066-.042.063-.141.066-.234.063-.332.066-.426.062-.52.067-.61.062-.698.067-.786.062-.867.067-.953.062-1.027.067-1.102.062-1.172.067-1.238.062-1.3.066-1.356.063-1.41.066-1.461.063-1.5.066-1.54.067-1.57.062-1.601.067-1.621.062-1.633.066-1.649.063-1.652.066-1.648.063-1.645.066-1.633.063-1.613.066-1.59.063-1.562.066-1.528.063-1.488.066-1.441.062-1.395.067-1.336.062-1.281.067-1.215.062-1.148.067-1.078.062-1 .067-.926.066-.84.063-.758.066-.668.062-.578.067-.488.062-.395.067-.3.062-.204.067-.105.062-.012.067.086.062.184.066.28.063.372.066.469.063.558.066.653.063.738.066.82.063.907.066.984.063 1.062.066 1.133.062 1.203.067 1.266.066 1.328.063 1.379.066 1.434.063 1.48.066 1.52.063 1.55.066 1.586.063 1.61.066 1.629.062 1.64.067 1.649.062 1.652.067 1.648.062 1.641.067 1.625.062 1.602.067 1.578.062 1.547.066 1.511.063 1.47.066 1.417.063 1.371.066 1.313.067 1.254.062 1.183.067 1.117.062 1.047.066.965.063.887.066.804.063.72.066.628.063.535.066.45.063.351.066.254.063.164.066.063.063-.032.066-.133.062-.222.067-.324.062-.414.067-.508.062-.602.067-.691.066-.774.063-.863.066-.941.062-1.02.067-1.094.062-1.164.067-1.23.062-1.293.067-1.352.062-1.406.067-1.453.062-1.496.066-1.535.063-1.57.066-1.598.063-1.617.066-1.633.063-1.649.066-1.652.063-1.649.066-1.644.063-1.633.066-1.617.066-1.594.063-1.562.066-1.532.063-1.492.066-1.449.063-1.398.066-1.344.063-1.285.066-1.227.063-1.156.066-1.082.062-1.012.067-.93.062-.851.067-.766.062-.68.067-.585.062-.5.067-.403.062-.308.066-.215.063-.117.066-.024.067.078.062.172.067.27.062.363.067.457.062.55.067.641.062.727.066.816.063.895.066.977.063 1.054.066 1.125.063 1.196.066 1.261.063 1.32.066 1.376.063 1.425.066 1.477.062 1.512.067 1.55.062 1.582.067 1.61.066 1.625.063 1.64.066 1.649.063 1.652.066 1.649.062 1.64.067 1.625.062 1.61.067 1.578.062 1.55.067 1.516.062 1.473.067 1.426.062 1.375.067 1.32.062 1.258.129 2.32.066 1.05.063.977.066.895.063.812.066.727.063.637.066.55.066.458.063.359.066.27.063.167.066.075.063-.02.066-.121.063-.215.066-.312.063-.407.066-.496.062-.593.067-.68.062-.766.067-.851.062-.934.067-1.012.062-1.086.067-1.156.062-1.226.067-1.286.062-1.347.066-1.399.067-1.449.062-1.492.067-1.531.062-1.567.067-1.593.062-1.614.067-1.633.062-1.648.066-1.648.063-1.653.066-1.644.063-1.637.066-1.617.063-1.594.066-1.57.063-1.535.066-1.496.063-1.454.066-1.402.062-1.352.067-1.292.062-1.231.067-1.164.066-1.09.063-1.02.066-.94.063-.86.066-.774.063-.687.066-.598.062-.508.067-.414.062-.32.067-.227.062-.125.067-.03.062.066.067.16.062.258.066.355.063.445.066.543.063.63.066.718.063.805.066.89.067.97.062 1.042.066 1.121.063 1.188.066 1.25.063 1.316.066 1.371.063 1.422.066 1.469.063 1.508.066 1.546.063 1.582.066 1.602.063 1.625.066 1.64.062 1.65.067 1.651.062 1.649.067 1.64.062 1.63.067 1.609.062 1.582.067 1.555.066 1.52.062 1.476.067 1.433.062 1.38.067 1.323.062 1.266.067 1.203.062 1.133.067 1.058.062.985.067.902.062.824.066.735.063.648.066.559.063.465.066.37.063.278.066.184.063.086.066-.016.063-.105.066-.207.066-.301.063-.395.066-.492.063-.578.066-.672.063-.758.066-.844.063-.921.066-1.004.062-1.078.067-1.149.062-1.219.067-1.28.062-1.34.067-1.395.062-1.442.067-1.488.062-1.527.067-1.563.062-1.594.066-1.613.063-1.629.066-1.644.067-1.653.062-1.652.067-1.644.062-1.637.067-1.621.062-1.598.066-1.57.063-1.54.066-1.5.063-1.456.066-1.41.063-1.36.066-1.297.063-1.238.066-1.172.063-1.098.066-1.027.062-.95.067-.866.062-.785.067-.696.062-.61.067-.515.062-.426.067-.332.066-.234.063-.137.066-.043.062.059.067.148.062.25.067.344.062.438.067.53.062.622.067.707.062.797.066.879.063.96.066 1.04.063 1.11.066 1.179.063 1.246.066 1.309.063 1.363.066 1.418.063 1.465.066 1.504.066 1.546.063 1.575.066 1.601.063 1.621.066 1.64.063 1.65.066 1.648.063 1.652.066 1.64.063 1.634.066 1.609.062 1.586.067 1.558.062 1.524.067 1.48.062 1.438.067 1.387.062 1.332.067 1.27.062 1.21.066 1.137.063 1.07.066.992.067.91.062.832.067.747.062.656.067.57.062.477.066.379.063.289.066.191.063.094h.066l.063-.098.066-.195.063-.293.066-.383.063-.48.066-.57.063-.66.066-.75.062-.837.067-.914.062-.996.067-1.07.066-1.14.063-1.212.066-1.273.063-1.336.066-1.387.062-1.437.067-1.485.062-1.523.067-1.559.062-1.59.067-1.609.062-1.633.067-1.64.062-1.653.066-1.648.063-1.649.066-1.636.063-1.625.066-1.598.063-1.578.066-1.54.063-1.507.066-1.461.067-1.414.062-1.363.066-1.305.063-1.246.066-1.176.063-1.11.066-1.034.063-.957.066-.875.063-.793.066-.707.063-.618.066-.527.062-.438.067-.34.062-.242.067-.148.062-.055.067.047.062.14.067.24.062.331.066.43.067.52.062.613.067.699.062.785.067.871.062.953.067 1.028.062 1.105.067 1.172.062 1.238.066 1.301.063 1.36.066 1.413.063 1.457.066 1.504.063 1.54.066 1.57.063 1.601.066 1.621.063 1.637.066 1.645.062 1.652.067 1.652.066 1.641.063 1.633.066 1.613.063 1.59.066 1.562.063 1.524.066 1.488.062 1.442.067 1.39.062 1.34.067 1.277.062 1.215.067 1.149.062 1.074.067 1 .062.922.067.84.062.757.066.664.063.579.066.488.063.39.066.297.063.203.066.106.067.008.062-.086.066-.188.063-.277.066-.379.063-.469.066-.558.063-.653.066-.742.063-.824.066-.906.063-.985.066-1.062.062-1.137.067-1.203.062-1.266.067-1.328.062-1.383.067-1.433.062-1.48.067-1.52.062-1.555.067-1.586.066-1.61.062-1.628.067-1.64.062-1.65.067-1.651.062-1.649.067-1.64.062-1.622.067-1.605L152 33.3l.066-1.543.063-1.512.066-1.469.063-1.418.066-1.367.063-1.312.066-1.25.063-1.188.066-1.117.063-1.04.066-.968.062-.883.067-.804.066-.715.063-.63.066-.534.063-.446.066-.347.063-.258.066-.156.063-.063.066.031.062.133.067.227.062.324.067.418.062.512.067.601.062.692.067.777.062.86.066.945.063 1.02.066 1.097.063 1.164.066 1.23.067 1.297.062 1.352.067 1.406.062 1.457.066 1.496.063 1.535.066 1.57.063 1.598.066 1.618.063 1.636.066 1.645.063 1.652.066 1.649.063 1.644.066 1.633.063 1.617.066 1.594.062 1.562.067 1.532.062 1.492.067 1.445.062 1.399.067 1.343.066 1.286.063 1.222.066 1.153.062 1.085.067 1.008.062.93.067.848.062.765.067.676.062.59.067.492.062.402.066.309.063.215.066.113.063.02.066-.078.063-.172.066-.274.063-.363.066-.461.063-.55.066-.641.066-.73.063-.817.066-.899.063-.976.066-1.055.063-1.129.066-1.195.063-1.262.066-1.32.063-1.38.066-1.425.062-1.476.067-1.516.062-1.55.067-1.583.062-1.605.067-1.63.062-1.64.067-1.648.062-1.653.066-1.648.063-1.64.066-1.626.067-1.605.062-1.582.067-1.551.062-1.512.067-1.472.062-1.426.067-1.375.062-1.317.066-1.257.063-1.192.066-1.125.063-1.05.066-.973.063-.895.066-.812.063-.723.066-.637.063-.547.066-.457.062-.359.067-.266.062-.168.067-.074.062.024.067.12.066.22.063.312.066.406.062.504.067.59.062.684.067.765.062.856.067.933.062 1.012.067 1.09.062 1.156.067 1.227.062 1.289.066 1.343.063 1.403.066 1.449.063 1.492.066 1.535.063 1.563.066 1.598.063 1.613.066 1.637.066 1.644.063 1.649.066 1.652.063 1.644.066 1.637.063 1.617.066 1.594.063 1.57.066 1.532.063 1.496.066 1.453.062 1.402.067 1.352.062 1.289.067 1.23.062 1.164.067 1.09.062 1.016.067.941.062.856.067.773.062.688.066.597.067.504.062.414.067.317.062.222.067.125.062.032.067-.067.062-.164.066-.262.063-.355.066-.45.063-.542.066-.633.063-.719.066-.808.063-.887.066-.973.063-1.047.066-1.117.062-1.191.067-1.254.062-1.313.067-1.37.066-1.427.063-1.468.066-1.512.063-1.547.066-1.578.063-1.606.066-1.625.062-1.64.067-1.649.062-1.652.067-1.648.062-1.641.067-1.629.062-1.605.067-1.586.062-1.551.066-1.52.063-1.476.066-1.43.063-1.383.066-1.324.063-1.262.066-1.199.067-1.133.062-1.058.066-.98.063-.903.066-.82.063-.739.066-.644.063-.559.066-.46.063-.372.066-.277.063-.18.066-.082.063.012.066.113.062.207.067.301.062.398.067.493.062.582.067.671.062.758.067.844.066.926.062 1.004.067 1.082.062 1.152.067 1.215.062 1.285.067 1.34.062 1.394.067 1.446.062 1.488.066 1.527.063 1.563.066 1.59.063 1.617.066 1.633.063 1.644.066 1.649.063 1.652.066 1.645.063 1.636.066 1.621.063 1.598.066 1.57.062 1.54.067 1.5.066 1.456.063 1.407.066 1.355.063 1.301.066 1.234.063 1.168.066 1.102.062 1.023.067.95.062.867.067.781.062.695.067.606.062.515.067.422.062.328.066.235.063.136.066.04.063-.055.066-.156.063-.25.066-.344.067-.442.062-.53.067-.622.062-.71.066-.798.063-.883.066-.96.063-1.04.066-1.113.063-1.18.066-1.246.063-1.308.066-1.367.063-1.418.066-1.465.062-1.508.067-1.543.062-1.578.067-1.602.062-1.62.067-1.641.062-1.645.133-3.305.062-1.64.067-1.63.062-1.612.067-1.586.062-1.555.067-1.523.062-1.48.067-1.438.062-1.383.067-1.332.062-1.27.066-1.207.063-1.14.066-1.067.063-.988.066-.914.063-.828.066-.743.063-.656.066-.566.063-.477.066-.379.066-.285.063-.191.066-.094.063.004.066.102.063.195.066.293.063.387.066.48.062.574.067.66.062.75.067.836.062.918.067.996.062 1.07.067 1.145.062 1.211.067 1.277.062 1.333.066 1.39.063 1.442.066 1.484.067 1.523.062 1.559.067 1.59.062 1.61.067 1.632.062 1.64.066 1.653.063 1.652.066 1.645.063 1.637.066 1.625.063 1.597.066 1.574.063 1.543.066 1.504.063 1.461.066 1.414.062 1.364.067 1.304.062 1.242.067 1.176.062 1.11.067 1.03.066.958.063.875.066.789.063.707.066.617.062.524.067.433.062.34.067.242.062.145.067.05.062-.046.067-.14.062-.243.066-.332.063-.43.066-.523.063-.614.066-.703.063-.789.066-.87.063-.954.066-1.027.066-1.106.063-1.176.066-1.238.063-1.305.066-1.359.063-1.41.066-1.461.063-1.504.066-1.539.063-1.574.066-1.598.063-1.62.066-1.638.062-1.648.067-1.652.062-1.649.067-1.644.062-1.633.067-1.614.062-1.59.067-1.558.062-1.527.066-1.485.063-1.441.066-1.39.067-1.337.062-1.277.067-1.215.062-1.144.067-1.075.062-1 .066-.921.063-.836.066-.754.063-.668.066-.574.063-.485.066-.39.063-.297.066-.2.063-.105.066-.004.063.09.066.183.062.286.067.375.062.472.067.563.066.652.063.742.066.825.063.91.066.988.062 1.062.067 1.137.062 1.203.067 1.27.062 1.328.067 1.383.062 1.433.067 1.48.062 1.524.066 1.555.063 1.586.066 1.61.063 1.628.066 1.64.063 1.65.066 1.652.063 1.648.066 1.64.067 1.622.062 1.605.066 1.574.063 1.547.066 1.508.063 1.469.066 1.418.063 1.367.066 1.313.063 1.25.066 1.183.063 1.113.066 1.043.062.965.067.883.062.8.067.716.062.625.067.535.062.441.067.352.062.25.066.16.067.059.062-.036.067-.132.062-.23.067-.325.062-.418.067-.516.062-.601.067-.692.062-.78.066-.864.063-.946.066-1.019.063-1.098.066-1.168.063-1.234.066-1.293.063-1.355.066-1.407.063-1.457.066-1.496.062-1.539.067-1.566.066-1.598.063-1.621.066-1.633.063-1.648.066-1.653.063-1.648.066-1.645.062-1.632.067-1.618.062-1.59.067-1.566.062-1.527.067-1.492.062-1.446.067-1.394.062-1.344.067-1.285.062-1.219.066-1.156.063-1.082.066-1.008.063-.926.066-.847.067-.766.062-.672.067-.586.062-.496.066-.398.063-.309.066-.211.063-.113.066-.016.063.078.066.176.063.273.066.368.063.46.066.551.062.645.067.73.062.82.067.9.062.98.067 1.054.062 1.13.067 1.195.066 1.261.063 1.324.066 1.38.062 1.429.067 1.473.062 1.515.067 1.555.062 1.582.067 1.606.062 1.628.067 1.641.062 1.648.066 1.653.063 1.648.066 1.64.063 1.626.066 1.605.063 1.582.066 1.547.063 1.512.066 1.473.063 1.425.066 1.372.062 1.32.067 1.254.066 1.191.063 1.121.066 1.051.063.973.066.894.063.809.066.722.063.637.066.543.062.453.067.36.062.265.067.168.062.07.067-.027.062-.12.067-.22.062-.316.066-.41.063-.5.066-.594.063-.684.066-.77.067-.855.062-.937.067-1.012.062-1.09.066-1.16.063-1.226.066-1.29.063-1.347.066-1.402.063-1.45.066-1.496.063-1.53.066-1.567.063-1.594.066-1.617.063-1.633.066-1.649.062-1.648.067-1.652.062-1.645.067-1.637.062-1.617.067-1.594.066-1.566.063-1.535.066-1.492.062-1.453.067-1.403.062-1.347.067-1.29.062-1.23.067-1.16.062-1.09.067-1.016.062-.937.066-.856.063-.773.066-.684.063-.593.066-.504.063-.414.066-.317.063-.218.066-.125.063-.028.066.07.066.165.063.261.066.356.063.453.066.543.063.633.066.722.063.809.066.89.063.973.066 1.047.062 1.121.067 1.192.062 1.254.067 1.316.062 1.371.067 1.426.062 1.469.067 1.511.062 1.551.066 1.578.063 1.606.066 1.625.067 1.64.062 1.649.067 1.652.062 1.648.067 1.641.062 1.629.067 1.605.062 1.586.066 1.551.063 1.516.066 1.476.063 1.43.066 1.379.063 1.324.066 1.266.063 1.195.066 1.133.063 1.055.066.98.062.902.067.82.062.731.067.649.066.554.063.461.066.367.063.278.066.176.062.082.067-.016.062-.113.067-.207.062-.305.067-.398.062-.493.067-.586.062-.671.067-.762.062-.848.066-.926.063-1.007.066-1.079.063-1.152.066-1.223.063-1.28.066-1.34.067-1.399.062-1.445.066-1.489.063-1.53.066-1.563.063-1.59.066-1.617.063-1.63.066-1.644.063-1.652.066-1.653.063-1.644.066-1.637.062-1.62.067-1.595.062-1.57.067-1.539.062-1.5.067-1.457.062-1.406.067-1.356.062-1.297.067-1.234.062-1.168.066-1.098.067-1.023.062-.945.067-.868.062-.78.067-.692.062-.606.067-.515.062-.418.066-.328.063-.23.066-.138.063-.039.066.063.063.152.066.254.063.348.066.437.063.535.066.625.062.711.067.801.062.883.067.96.066 1.04.063 1.113.066 1.184.063 1.25.066 1.308.063 1.368.066 1.418.062 1.464.067 1.508.062 1.547.067 1.574.062 1.606.067 1.62.062 1.641.067 1.649.062 1.648.066 1.653.063 1.64.066 1.63.063 1.613.066 1.585.063 1.555.066 1.52.067 1.48.062 1.438.066 1.382.063 1.332.066 1.27.063 1.203.066 1.137.063 1.066.066.989.063.91.066.828.063.742.066.656.063.563.066.472.062.38.067.284.062.188.067.094.062-.004.067-.106.062-.195.067-.297.066-.387.062-.484.067-.574.062-.664.067-.75.062-.836.067-.922.062-.996.067-1.074.062-1.145.066-1.21.063-1.278.066-1.336.063-1.39.066-1.442.063-1.484.066-1.524.063-1.559.066-1.59.063-1.613.066-1.629.063-1.644.066-1.652.066-1.649.063-1.648.066-1.637.063-1.621.066-1.602.063-1.574.066-1.539.063-1.504.066-1.46.062-1.415.067-1.36.062-1.304.067-1.242.062-1.176.067-1.105.062-1.032.067-.953.062-.875.066-.789.063-.703.066-.617.063-.524.066-.43.067-.335.062-.242.067-.145.062-.05"/></g><use xlink:href="#d" x="222.826" y="50.605"/><use xlink:href="#e" x="10.169" y="44.048"/><use xlink:href="#f" x="10.169" y="38.24"/><use xlink:href="#g" x="10.169" y="30.392"/><use xlink:href="#h" x="10.169" y="25.502"/><use xlink:href="#i" x="10.169" y="23.016"/><use xlink:href="#j" x="10.169" y="20.531"/><use xlink:href="#k" x="10.169" y="17.502"/><use xlink:href="#l" x="10.169" y="12.434"/><use xlink:href="#m" x="10.169" y="7.517"/></svg>