<svg xmlns="http://www.w3.org/2000/svg" width="226.415" height="132.192"><defs><clipPath id="a"><path d="M.398 10h225.04v2H.398Zm0 0"/></clipPath><clipPath id="b"><path d="M.398 22h225.04v2H.398Zm0 0"/></clipPath><clipPath id="c"><path d="M.398 34h225.04v2H.398Zm0 0"/></clipPath><clipPath id="d"><path d="M.398 71h225.04v2H.398Zm0 0"/></clipPath><clipPath id="e"><path d="M.398 59h225.04v2H.398Zm0 0"/></clipPath><clipPath id="f"><path d="M.398 47h225.04v1H.398Zm0 0"/></clipPath><clipPath id="g"><path d="M177 0h48.438v53H177Zm0 0"/></clipPath><clipPath id="h"><path d="M201 111h24.438v20.39H201Zm0 0"/></clipPath><clipPath id="i"><path d="M.398 111H29v20.39H.398Zm0 0"/></clipPath></defs><g clip-path="url(#a)"><path fill="none" stroke="#BFBFBF" stroke-miterlimit="10" stroke-width=".79215424" d="M.793 10.715h224.25"/></g><g clip-path="url(#b)"><path fill="none" stroke="#BFBFBF" stroke-miterlimit="10" stroke-width=".79215424" d="M.793 22.945h224.25"/></g><g clip-path="url(#c)"><path fill="none" stroke="#BFBFBF" stroke-miterlimit="10" stroke-width=".79215424" d="M.793 35.18h224.25"/></g><g clip-path="url(#d)"><path fill="none" stroke="#BFBFBF" stroke-miterlimit="10" stroke-width=".79215424" d="M.793 71.875h224.25"/></g><g clip-path="url(#e)"><path fill="none" stroke="#BFBFBF" stroke-miterlimit="10" stroke-width=".79215424" d="M.793 59.64h224.25"/></g><g clip-path="url(#f)"><path fill="none" stroke="#BFBFBF" stroke-miterlimit="10" stroke-width=".79215424" d="M.793 47.41h224.25"/></g><path fill="none" stroke="#000" stroke-dasharray="2.9706579136 5.9413158272" stroke-miterlimit="10" stroke-width=".79215424" d="M57.191 8.309s1.75 2.035 2.387 2.89a52 52 0 0 1 2.192 3.266 59 59 0 0 1 1.984 3.605 71 71 0 0 1 1.75 3.899 79 79 0 0 1 1.504 4.14c.379 1.176.933 3.11 1.238 4.332.309 1.22.738 3.215.969 4.465s.539 3.285.691 4.551c.153 1.262.336 3.305.41 4.566.075 1.266.13 3.293.13 4.54a88 88 0 0 1-.153 4.445 79 79 0 0 1-.418 4.297 73 73 0 0 1-.68 4.097c-.222 1.102-.922 3.844-.922 3.844M81.656 8.309s1.75 2.035 2.383 2.89a50 50 0 0 1 2.195 3.266 57 57 0 0 1 1.98 3.605c.52 1.043 1.302 2.785 1.755 3.899a75 75 0 0 1 1.5 4.14c.383 1.176.933 3.11 1.242 4.332.305 1.22.738 3.215.969 4.465s.539 3.285.691 4.551c.152 1.262.336 3.305.41 4.566a89 89 0 0 1 .125 4.54c0 1.246-.07 3.23-.148 4.445a79 79 0 0 1-.418 4.297 73 73 0 0 1-.68 4.097c-.222 1.102-.922 3.844-.922 3.844M106.121 8.309s1.746 2.035 2.383 2.89a50 50 0 0 1 2.195 3.266 59 59 0 0 1 1.98 3.605c.52 1.043 1.301 2.785 1.75 3.899a72 72 0 0 1 1.505 4.14c.379 1.176.933 3.11 1.242 4.332.304 1.22.738 3.215.969 4.465s.539 3.285.691 4.551c.152 1.262.332 3.305.406 4.566.074 1.266.133 3.293.13 4.54a88 88 0 0 1-.15 4.445 79 79 0 0 1-.417 4.297 73 73 0 0 1-.68 4.097c-.223 1.102-.926 3.844-.926 3.844M130.582 8.309s1.75 2.035 2.387 2.89a53 53 0 0 1 2.195 3.266 61 61 0 0 1 1.98 3.605c.52 1.043 1.301 2.785 1.75 3.899a75 75 0 0 1 1.504 4.14c.38 1.176.934 3.11 1.239 4.332.308 1.22.742 3.215.972 4.465s.536 3.285.688 4.551c.152 1.262.336 3.305.41 4.566.074 1.266.133 3.293.129 4.54a88 88 0 0 1-.148 4.445 83 83 0 0 1-.422 4.297 77 77 0 0 1-.676 4.097c-.223 1.102-.926 3.844-.926 3.844M155.047 8.309s1.75 2.035 2.387 2.89a52 52 0 0 1 2.191 3.266 59 59 0 0 1 1.984 3.605 71 71 0 0 1 1.75 3.899 79 79 0 0 1 1.504 4.14c.38 1.176.934 3.11 1.239 4.332.308 1.22.738 3.215.968 4.465s.54 3.285.692 4.551c.152 1.262.336 3.305.41 4.566.074 1.266.129 3.293.129 4.54a88 88 0 0 1-.153 4.445 79 79 0 0 1-.418 4.297 73 73 0 0 1-.68 4.097c-.222 1.102-.921 3.844-.921 3.844M179.512 8.309s1.75 2.035 2.383 2.89a50 50 0 0 1 2.195 3.266 57 57 0 0 1 1.98 3.605c.52 1.043 1.301 2.785 1.754 3.899a75 75 0 0 1 1.5 4.14c.383 1.176.934 3.11 1.242 4.332.305 1.22.739 3.215.97 4.465s.538 3.285.69 4.551c.153 1.262.337 3.305.41 4.566a89 89 0 0 1 .126 4.54c0 1.246-.07 3.23-.149 4.445a79 79 0 0 1-.418 4.297 73 73 0 0 1-.68 4.097c-.222 1.102-.921 3.844-.921 3.844"/><path fill="none" stroke="#000" stroke-miterlimit="10" stroke-width=".79215424" d="M68.27 65.258s-2.735 7.422-4.063 9.547c-1.324 2.129-3.875 4.793-5.492 5.789s-4.473 1.629-6.16 1.379-4.47-1.72-5.996-3.188c-1.524-1.469-3.852-4.87-5.004-7.394-1.153-2.52-2.7-7.48-3.309-10.77-.61-3.289-1.133-9.25-1.094-12.937.043-3.692.664-9.98 1.395-13.657.73-3.675 2.492-9.59 3.867-12.843 1.379-3.25 4.149-8.125 6.059-10.582 1.91-2.461 5.441-5.75 7.715-7.145 2.269-1.39 6.234-2.723 8.648-2.89 2.418-.172 6.434.601 8.766 1.675 2.332 1.07 8.043 6.055 8.043 6.055"/><path fill="none" stroke="#000" stroke-miterlimit="10" stroke-width=".79215424" d="M92.734 65.258s-2.738 7.422-4.062 9.547c-1.324 2.129-3.875 4.793-5.492 5.789s-4.477 1.629-6.164 1.379c-1.684-.25-4.465-1.72-5.993-3.188-1.527-1.469-3.851-4.87-5.003-7.394-1.153-2.52-2.7-7.48-3.31-10.77-.612-3.289-1.136-9.25-1.093-12.937.043-3.692.664-9.98 1.395-13.657.726-3.675 2.488-9.59 3.867-12.843 1.375-3.25 4.144-8.125 6.059-10.582 1.91-2.461 5.44-5.75 7.71-7.145 2.274-1.39 6.239-2.723 8.653-2.89 2.418-.172 6.433.601 8.765 1.675 2.332 1.07 8.043 6.055 8.043 6.055"/><path fill="none" stroke="#000" stroke-miterlimit="10" stroke-width=".79215424" d="M117.2 65.258s-2.739 7.422-4.063 9.547c-1.328 2.129-3.875 4.793-5.492 5.789-1.618.996-4.477 1.629-6.165 1.379s-4.468-1.72-5.992-3.188c-1.527-1.469-3.851-4.87-5.004-7.394-1.156-2.52-2.699-7.48-3.308-10.77-.613-3.289-1.137-9.25-1.094-12.937.04-3.692.66-9.98 1.39-13.657.731-3.675 2.493-9.59 3.872-12.843 1.375-3.25 4.144-8.125 6.054-10.582 1.91-2.461 5.446-5.75 7.715-7.145 2.27-1.39 6.235-2.723 8.653-2.89 2.418-.172 6.43.601 8.761 1.675 2.332 1.07 8.047 6.055 8.047 6.055"/><path fill="none" stroke="#000" stroke-miterlimit="10" stroke-width=".79215424" d="M141.66 65.258s-2.734 7.422-4.058 9.547c-1.329 2.129-3.88 4.793-5.497 5.789s-4.472 1.629-6.16 1.379-4.468-1.72-5.996-3.188c-1.523-1.469-3.847-4.87-5.004-7.394-1.152-2.52-2.695-7.48-3.308-10.77-.61-3.289-1.133-9.25-1.094-12.937.043-3.692.664-9.98 1.395-13.657.73-3.675 2.492-9.59 3.867-12.843 1.379-3.25 4.148-8.125 6.058-10.582 1.91-2.461 5.442-5.75 7.715-7.145 2.27-1.39 6.235-2.723 8.652-2.89 2.415-.172 6.43.601 8.762 1.675 2.332 1.07 8.043 6.055 8.043 6.055"/><path fill="none" stroke="#000" stroke-miterlimit="10" stroke-width=".79215424" d="M166.125 65.258s-2.734 7.422-4.062 9.547c-1.325 2.129-3.875 4.793-5.493 5.789-1.617.996-4.472 1.629-6.16 1.379s-4.469-1.72-5.996-3.188c-1.523-1.469-3.851-4.87-5.004-7.394-1.152-2.52-2.699-7.48-3.308-10.77-.61-3.289-1.133-9.25-1.094-12.937.043-3.692.664-9.98 1.394-13.657.73-3.675 2.493-9.59 3.868-12.843 1.378-3.25 4.148-8.125 6.058-10.582 1.91-2.461 5.442-5.75 7.715-7.145 2.27-1.39 6.234-2.723 8.648-2.89 2.418-.172 6.434.601 8.766 1.675 2.332 1.07 8.043 6.055 8.043 6.055"/><path fill="none" stroke="#000" stroke-miterlimit="10" stroke-width=".79215424" d="M190.59 65.258s-2.738 7.422-4.063 9.547c-1.324 2.129-3.875 4.793-5.492 5.789s-4.476 1.629-6.164 1.379c-1.683-.25-4.465-1.72-5.992-3.188s-3.852-4.87-5.004-7.394c-1.152-2.52-2.7-7.48-3.309-10.77-.613-3.289-1.136-9.25-1.093-12.937.043-3.692.664-9.98 1.394-13.657.727-3.675 2.488-9.59 3.867-12.843 1.375-3.25 4.145-8.125 6.059-10.582 1.91-2.461 5.441-5.75 7.71-7.145 2.274-1.39 6.24-2.723 8.653-2.89 2.418-.172 6.434.601 8.766 1.675 2.332 1.07 8.043 6.055 8.043 6.055"/><g clip-path="url(#g)"><path fill="none" stroke="#000" stroke-miterlimit="10" stroke-width=".79215424" d="M188.348.52s2.132.117 2.949.257c.812.145 2.113.485 2.914.766.8.281 2.074.848 2.852 1.266.777.418 2.011 1.199 2.757 1.75.75.55 1.93 1.535 2.641 2.21.71.672 1.82 1.856 2.484 2.645.668.79 1.7 2.148 2.313 3.043a53 53 0 0 1 2.113 3.41 62 62 0 0 1 1.89 3.727c.493 1.07 1.231 2.86 1.657 4a79 79 0 0 1 1.398 4.222 84 84 0 0 1 1.133 4.391c.278 1.234.66 3.25.86 4.508s.578 4.562.578 4.562"/></g><path fill="none" stroke="#000" stroke-miterlimit="10" stroke-width=".79215424" d="M13.023 41.293s.567-4.629.891-6.375c.32-1.75.961-4.54 1.43-6.223.472-1.68 1.347-4.332 1.96-5.906a68 68 0 0 1 2.446-5.457c.742-1.43 2.04-3.613 2.898-4.863.856-1.25 2.329-3.114 3.286-4.157.957-1.039 2.574-2.539 3.613-3.343 1.035-.801 2.762-1.899 3.86-2.45 1.093-.546 2.898-1.214 4.03-1.492C38.57.75 40.414.523 41.555.523c1.144-.003 2.988.223 4.117.497 1.133.277 2.937.945 4.035 1.492 1.094.547 2.824 1.64 3.863 2.445 1.035.8 3.61 3.34 3.61 3.34M13.023 41.293v81.547M216.887 41.293v81.547"/><g clip-path="url(#h)"><path fill="none" stroke="#000" stroke-miterlimit="10" stroke-width=".79215424" d="M220.965 126.918a4.076 4.076 0 1 0-8.152-.004 4.076 4.076 0 0 0 8.152.004Zm0 0"/></g><g clip-path="url(#i)"><path fill="none" stroke="#000" stroke-miterlimit="10" stroke-width=".79215424" d="M17.102 126.918a4.079 4.079 0 0 0-8.156 0 4.08 4.08 0 0 0 4.077 4.074 4.075 4.075 0 0 0 4.079-4.074Zm0 0"/></g></svg>