<svg xmlns="http://www.w3.org/2000/svg" xmlns:xlink="http://www.w3.org/1999/xlink" width="226.772" height="128.039"><defs><path id="c" d="M3.484-5.828c-.218 0-.75.078-1.093.078-.328 0-.672 0-1.078-.016l-.016.016-.047.188c0 .046.016.062.047.062l.328.016c.125 0 .313.062.313.28v.095L1.063-.641c-.047.25-.188.36-.547.375l-.22.032C.25-.234.22-.22.22-.172L.172 0l.031.016C.593.016.937 0 1.281 0s.688.016 1.094.016L2.391 0l.03-.172c.017-.047-.015-.062-.046-.062l-.234-.032C1.859-.28 1.75-.344 1.75-.53v-.11l.39-1.953c.704 0 .86.14.954.344l.61 1.547c.155.422.452.797.968.797.125 0 .281-.016.375-.063l.031-.218c-.39 0-.531-.297-.687-.688L3.67-2.75c.392-.125 1.25-.578 1.438-1.516.032-.109.032-.234.032-.343 0-.297-.079-.547-.266-.766-.328-.406-.86-.453-1.39-.453m-.062.312c.469 0 .984.157.984.875 0 .11-.031.235-.047.391-.218 1.11-.906 1.36-1.734 1.36h-.437l.437-2.22c.047-.265.203-.406.797-.406m0 0"/><path id="d" d="M4.469-.484 3.89-2.11H1.67L1.095-.484l.672.125q.124.017.125.093 0 .066-.094.266H-.078a.2.2 0 0 1-.016-.078Q-.096-.342.22-.406l.25-.063L2.625-6.14l.563-.078 2.14 5.75.39.11q.125.034.126.093 0 .048-.094.266H3.844a.16.16 0 0 1-.016-.078q0-.246.297-.328ZM1.844-2.578h1.875l-.906-2.61H2.78Zm0 0"/><path id="e" d="M5.813-6.14c.007.023.015.046.015.077q0 .253-.312.313l-.22.063L3.267 0H2.53L.453-5.687l-.375-.094q-.124-.029-.125-.11c0-.05.035-.132.094-.25H2.03c.008.024.016.047.016.079q-.001.235-.313.312l-.375.078L3-.906h.016l1.703-4.781-.688-.11q-.127-.029-.125-.094 0-.074.094-.25Zm0 0"/><clipPath id="a"><path d="M.73 66H26v6H.73Zm0 0"/></clipPath><clipPath id="b"><path d="M90 118h15v9.086H90Zm0 0"/></clipPath></defs><path fill="none" stroke="#000" stroke-miterlimit="10" stroke-width=".39602745000000006" d="M12.945 12.211v50.64m0 11.82v50.641h42.41m0 0h98.965m0 0h56.551V84.52m0-31.516V12.21h-44.734m-23.633 0H55.355m0 0h-42.41M12.945 70.711v3.96m0-7.858v-3.961"/><g clip-path="url(#a)"><path fill="none" stroke="#000" stroke-miterlimit="10" stroke-width=".79106235" d="M18.852 70.711H7.035m17.727-3.898H1.125"/></g><path d="M99.344 125.313c0-.872-.703-1.575-1.574-1.575s-1.575.703-1.575 1.575c0 .87.703 1.574 1.575 1.574.87 0 1.574-.703 1.574-1.575m0 0"/><g clip-path="url(#b)"><path fill="none" stroke="#000" stroke-miterlimit="10" stroke-width=".39602745000000006" d="M99.344 125.312c0-.87-.703-1.574-1.575-1.574-.87 0-1.574.703-1.574 1.574s.703 1.575 1.574 1.575 1.575-.703 1.575-1.575Zm0 0"/></g><path fill="none" stroke="#000" stroke-miterlimit="10" stroke-width=".79106235" d="M216.781 53.004V84.52h-11.816V53.004Zm0 0"/><use xlink:href="#c" x="218.971" y="70.898"/><path fill="none" stroke="#000" stroke-miterlimit="10" stroke-width=".79106235" d="M154.32 24.027c6.528 0 11.817-5.289 11.817-11.816S160.847.395 154.32.395s-11.816 5.289-11.816 11.816 5.289 11.816 11.816 11.816Zm0 0"/><use xlink:href="#d" x="151.418" y="15.318"/><path stroke="#000" stroke-miterlimit="10" stroke-width=".39602745000000006" d="M99.344 12.211c0-.871-.703-1.574-1.575-1.574-.87 0-1.574.703-1.574 1.574s.703 1.574 1.574 1.574 1.575-.703 1.575-1.574Zm0 0"/><path fill="none" stroke="#000" stroke-miterlimit="10" stroke-width=".39602745000000006" d="M97.77 125.312V80.578m0-23.633V12.211"/><path fill="none" stroke="#000" stroke-miterlimit="10" stroke-width=".79106235" d="M85.953 68.762c0 6.527 5.29 11.816 11.816 11.816 6.528 0 11.817-5.289 11.817-11.816s-5.29-11.817-11.817-11.817-11.816 5.29-11.816 11.817Zm0 0"/><use xlink:href="#e" x="94.886" y="71.833"/><path stroke="#000" stroke-miterlimit="10" stroke-width=".39602745000000006" d="M99.344 12.211c0-.871-.703-1.574-1.575-1.574-.87 0-1.574.703-1.574 1.574s.703 1.574 1.574 1.574 1.575-.703 1.575-1.574Zm0 0"/></svg>