<svg xmlns="http://www.w3.org/2000/svg" xmlns:xlink="http://www.w3.org/1999/xlink" width="226.828" height="268.662"><defs><path id="c" d="M1.922-5.094 1.047-.687C1-.437.859-.297.5-.266l-.281.032c-.047.03-.063.172-.016.25C.593.016.922 0 1.266 0s.75.016 1.14.016c.031-.032.063-.22.031-.25l-.312-.032c-.344-.03-.437-.14-.39-.421l.874-4.407c.047-.25.188-.375.547-.406l.281-.031c.032-.032.047-.188.016-.266-.406.016-.719.016-1.078.016-.328 0-.734 0-1.125-.016-.031.047-.062.219-.031.266l.297.031c.359.016.453.14.406.406m0 0"/><path id="x" d="M.531-1.656c-.11.11-.11.343 0 .453h4.735c.109-.11.109-.344 0-.453Zm0-1.797c-.11.11-.11.344 0 .453h4.735c.109-.11.109-.344 0-.453Zm0 0"/><path id="y" d="M.531-2.547a.33.33 0 0 0 0 .438h4.735a.33.33 0 0 0 0-.438Zm0 0"/><path id="d" d="M2.063-.875v-2.484c0-.438.015-.875.03-.97 0-.03-.015-.03-.046-.03-.39.25-.781.422-1.406.718a.3.3 0 0 0 .109.188c.328-.125.484-.172.625-.172.11 0 .14.172.14.406v2.344c0 .594-.202.625-.702.656C.78-.172.78-.03.813.016 1.172 0 1.422 0 1.813 0c.343 0 .515 0 .875.016.046-.047.046-.188 0-.235-.5-.031-.626-.062-.626-.656m0 0"/><path id="g" d="M.438-3.36c0 .157.14.282.28.282.126 0 .345-.125.345-.281 0-.063-.016-.11-.032-.157-.015-.046-.062-.109-.062-.171 0-.172.187-.438.719-.438.25 0 .625.188.625.875 0 .453-.172.828-.594 1.25l-.532.531C.485-.75.375-.406.375.016c0 0 .36-.016.594-.016h1.25c.234 0 .562.016.562.016.094-.375.172-.922.172-1.141a.3.3 0 0 0-.203-.031c-.125.515-.25.687-.5.687H.969c0-.343.5-.828.531-.86l.719-.702c.406-.39.719-.703.719-1.25 0-.781-.626-1.094-1.204-1.094-.796 0-1.296.594-1.296 1.016m0 0"/><path id="v" d="M1.547-4.125c.297 0 .594.188.594.64 0 .36-.422.922-1.125 1.016l.03.235c.126-.016.25-.016.345-.016.406 0 .937.11.937.922 0 .953-.64 1.156-.89 1.156-.36 0-.422-.172-.516-.297a.34.34 0 0 0-.313-.187c-.14 0-.296.125-.296.25 0 .281.609.484 1.03.484.86 0 1.626-.562 1.626-1.5 0-.781-.594-1.062-1.016-1.14l-.016-.016c.594-.281.766-.578.766-.953a.73.73 0 0 0-.234-.563c-.156-.156-.406-.281-.781-.281-1.047 0-1.344.688-1.344.922 0 .11.062.25.234.25.25 0 .281-.235.281-.375 0-.453.5-.547.688-.547m0 0"/><path id="i" d="M1.844-4.812c1.851 0 2.781.78 2.781 2.343q-.001 1.237-.734 1.86Q3.17 0 1.844 0H.328v-.062c0-.133.078-.22.235-.25l.296-.079v-4.046l-.437-.094q-.094-.03-.094-.078-.002-.062.078-.203ZM1.828-.391c.688 0 1.211-.171 1.578-.515q.563-.527.563-1.547 0-.966-.563-1.469c-.367-.332-.89-.5-1.578-.5h-.36V-.39Zm0 0"/><path id="j" d="M.703-.36v-2.609l-.5-.062a.1.1 0 0 1-.016-.063c0-.125.086-.191.266-.203l.828-.094v3.032l.407.093c.07.012.109.04.109.079A.3.3 0 0 1 1.719 0H.25a.1.1 0 0 1-.016-.047c0-.101.07-.18.22-.234Zm-.11-4.187q0-.187.11-.297a.42.42 0 0 1 .281-.11c.114 0 .207.04.282.11a.38.38 0 0 1 .125.297q-.001.176-.125.281a.38.38 0 0 1-.282.11.37.37 0 0 1-.28-.11.37.37 0 0 1-.11-.28m0 0"/><path id="k" d="M.672 1.031v-4L.156-3.03v-.063q-.001-.186.25-.203l.828-.094-.046.47h.03q.405-.5 1.032-.5.592 0 .938.421c.238.281.359.68.359 1.188q0 .925-.469 1.406c-.305.304-.719.453-1.25.453-.2 0-.398-.035-.594-.094v1.078l.422.094q.094.012.094.094a.25.25 0 0 1-.078.172H.203a.1.1 0 0 1-.016-.047c0-.106.07-.184.22-.235Zm1.36-4q-.457 0-.798.328v2.079c.188.148.407.218.657.218.718 0 1.078-.476 1.078-1.437q-.001-.56-.266-.875a.82.82 0 0 0-.672-.313m0 0"/><path id="l" d="M1.828.078c-.43 0-.781-.14-1.062-.422Q.296-.81.296-1.64q0-.824.517-1.328.481-.451 1.156-.453.654.001 1.062.406.452.458.453 1.313 0 .845-.515 1.344a1.6 1.6 0 0 1-1.14.437m.047-.375q.434.001.703-.344.281-.357.281-1.03 0-.669-.28-1.032a.86.86 0 0 0-.704-.344.84.84 0 0 0-.687.344Q.906-2.34.906-1.672q0 .674.282 1.031.264.345.687.344m0 0"/><path id="m" d="M.672-.36v-4.28l-.5-.063a.1.1 0 0 1-.016-.063c0-.125.086-.191.266-.203l.812-.093V-.36l.422.093q.094.02.094.079A.36.36 0 0 1 1.688 0H.202v-.047c0-.101.07-.18.219-.234Zm0 0"/><path id="n" d="M.781-.453q.2.157.516.156c.394 0 .594-.148.594-.453q-.002-.187-.203-.375a6 6 0 0 0-.454-.312q-.408-.249-.578-.438a.96.96 0 0 1-.265-.672c0-.27.101-.484.312-.64q.312-.235.781-.235t.75.235q.031.27.032.421-.001.345-.266.344h-.062l-.079-.5a.9.9 0 0 0-.484-.156c-.336 0-.5.14-.5.422q0 .268.39.531.373.251.735.484.388.315.39.735 0 .421-.328.703-.316.28-.843.281C.875.078.594.012.375-.109a4 4 0 0 1-.047-.578q-.001-.33.25-.329h.063Zm0 0"/><path id="o" d="M2.781-.656a.3.3 0 0 1 .094.203q0 .158-.281.328-.345.201-.844.203c-.437 0-.79-.14-1.047-.422q-.391-.45-.39-1.281c0-.562.164-1.008.5-1.344Q1.28-3.42 2-3.422q.481 0 .734.188.188.156.188.343 0 .316-.281.375c-.18-.351-.438-.53-.782-.53a.82.82 0 0 0-.656.296q-.298.347-.297.969 0 1.453 1.078 1.453.498 0 .797-.328m0 0"/><path id="p" d="M.64-.36v-4.28l-.515-.063v-.063c0-.125.086-.191.266-.203l.812-.093v2.14h.016q.405-.499 1.078-.5 1.125.002 1.125 1.235V-.36l.406.093c.07.012.11.04.11.079A.3.3 0 0 1 3.859 0H2.391a.1.1 0 0 1-.016-.047c0-.101.07-.18.219-.234l.25-.078v-1.782q0-.826-.75-.828-.55 0-.89.375v2.235l.421.093q.094.02.094.079A.36.36 0 0 1 1.656 0H.172v-.047c0-.101.07-.18.219-.234Zm0 0"/><path id="q" d="M.906-1.687q0 .657.282 1.015.292.345.796.344.468 0 .86-.328.075.048.094.203-.001.158-.313.328-.376.201-.875.203C1.32.078.984-.05.734-.312Q.314-.747.313-1.61c0-.57.148-1.024.453-1.36q.406-.451 1.015-.453.546 0 .844.328.281.315.281.828-.002.237-.062.579Zm.797-1.375q-.703 0-.797 1.03h1.375a1 1 0 0 0 .047-.296q-.001-.734-.625-.735m0 0"/><path id="r" d="M.703-.36v-2.609l-.5-.062a.1.1 0 0 1-.016-.063c0-.125.086-.191.266-.203l.828-.094-.047.47h.016q.233-.236.406-.329.329-.17.75-.172.5 0 .781.328.296.316.297.906v1.829l.422.093Q4-.246 4-.187A.36.36 0 0 1 3.938 0H2.452v-.047q0-.152.203-.234l.266-.078v-1.782q0-.435-.235-.64a.74.74 0 0 0-.515-.188q-.504.002-.89.344v2.266l.406.093c.07.012.109.04.109.079A.3.3 0 0 1 1.719 0H.25a.1.1 0 0 1-.016-.047c0-.101.07-.18.22-.234Zm0 0"/><path id="s" d="M.64-.36v-4.28l-.515-.063v-.063c0-.125.086-.191.266-.203l.812-.093v3.125h.422l.938-1.079-.5-.109v-.047q-.001-.17.203-.172h1.109c.063 0 .094.024.094.063a.4.4 0 0 1-.047.156L3.016-3 2.03-1.875 3.203-.344l.36.078q.093.02.093.079A.36.36 0 0 1 3.594 0h-.906L1.53-1.594h-.328v1.25l.36.078q.093.02.093.079A.36.36 0 0 1 1.594 0H.172v-.047c0-.101.07-.18.219-.234Zm0 0"/><path id="t" d="M1.578-.453v-3.453l-1.047.203a.6.6 0 0 1-.015-.14c0-.102.054-.177.172-.22l1.156-.468h.343v4.078l.844.14c.07.012.11.04.11.079A.7.7 0 0 1 3.062 0H.672v-.062c0-.165.07-.258.219-.282Zm0 0"/><path id="u" d="M.328-.36 1.5-1.702q.687-.795.688-1.563 0-.967-.704-.968c-.18 0-.359.046-.546.14a2.8 2.8 0 0 0-.094.688.7.7 0 0 1-.156.015q-.345 0-.344-.28 0-.422.328-.673c.226-.176.531-.265.906-.265q.562 0 .906.328.36.316.36.89 0 .534-.328 1.063-.205.346-.703.875l-.766.828v.016H2.64l.14-.61a.7.7 0 0 1 .14-.015q.172.001.173.265c0 .18-.024.5-.063.969H.391Zm0 0"/><clipPath id="a"><path d="M.055 20H16v2H.055Zm0 0"/></clipPath><clipPath id="b"><path d="M.055 16H16v1H.055Zm0 0"/></clipPath><clipPath id="e"><path d="M211 20h15.598v2H211Zm0 0"/></clipPath><clipPath id="f"><path d="M211 16h15.598v1H211Zm0 0"/></clipPath><clipPath id="h"><path d="M160 263h14v5.324h-14Zm0 0"/></clipPath><clipPath id="w"><path d="M157 242h28v26.324h-28Zm0 0"/></clipPath></defs><path fill="none" stroke="#000" stroke-miterlimit="10" stroke-width=".39849726" d="M98.738 203.441v24.317c0 .672-1.09 1.215-2.433 1.215-1.34 0-2.43-.543-2.43-1.215V203.44"/><path fill="#FFF" stroke="#000" stroke-miterlimit="10" stroke-width=".39849726" d="M132.781 203.441c0-10.074-16.328-18.238-36.476-18.238-20.145 0-36.473 8.164-36.473 18.238S76.16 221.68 96.305 221.68c20.148 0 36.476-8.164 36.476-18.239Zm0 0"/><path fill="none" stroke="#000" stroke-dasharray="2.9850640742 2.9850640742" stroke-miterlimit="10" stroke-width=".39849726" d="M127.918 203.441c0-7.386-14.152-13.375-31.613-13.375-17.457 0-31.61 5.989-31.61 13.375s14.153 13.375 31.61 13.375c17.46 0 31.613-5.988 31.613-13.375ZM64.695 57.54V203.44M127.918 57.54V203.44"/><path fill="#FFF" stroke="#000" stroke-dasharray="2.9850640742 2.9850640742" stroke-miterlimit="10" stroke-width=".39849726" d="M98.738 57.54V203.44h-4.863V57.54"/><path fill="#FFF" fill-rule="evenodd" stroke="#000" stroke-miterlimit="10" stroke-width=".39849726" d="M132.781 57.54c0-10.071-16.328-18.24-36.476-18.24-20.145 0-36.473 8.169-36.473 18.24 0 10.073 16.328 18.237 36.473 18.237 20.148 0 36.476-8.164 36.476-18.238Zm-4.863 0c0-7.388-14.152-13.376-31.613-13.376-17.457 0-31.61 5.988-31.61 13.375s14.153 13.375 31.61 13.375c17.46 0 31.613-5.988 31.613-13.375Zm0 0"/><path fill="none" stroke="#000" stroke-miterlimit="10" stroke-width=".39849726" d="M59.832 57.54V203.44M132.781 57.54V203.44"/><path fill="#FFF" d="M93.875 49.027v-14.59h4.863v14.59Zm0 0"/><path fill="none" stroke="#000" stroke-miterlimit="10" stroke-width=".39849726" d="M93.875 57.54V39.3c0-10.07-8.164-18.237-18.238-18.237H14.844"/><g clip-path="url(#a)"><path fill="none" stroke="#000" stroke-dasharray="2.9850640742 2.9850640742" stroke-miterlimit="10" stroke-width=".39849726" d="M14.844 21.063H.254"/></g><g clip-path="url(#b)"><path fill="none" stroke="#000" stroke-dasharray="2.9850640742 2.9850640742" stroke-miterlimit="10" stroke-width=".39849726" d="M14.844 16.2H.254"/></g><path fill="none" stroke="#000" stroke-miterlimit="10" stroke-width=".39849726" d="M14.844 16.2h60.793c12.758 0 23.101 10.343 23.101 23.1v18.24"/><use xlink:href="#c" x="94.337" y="15.35"/><use xlink:href="#d" x="96.853" y="17.23"/><path fill="none" stroke="#000" stroke-miterlimit="10" stroke-width=".79599578" d="M99.293 25.805a27.24 27.24 0 0 0-21.281-13.633"/><path stroke="#000" stroke-miterlimit="10" stroke-width=".79597187" d="m100.89 29.266.446-4.196-1.973.922-1.976.922Zm0 0"/><path fill="#FFF" d="M132.781 57.54V39.3h-4.863v18.24Zm0 0"/><path fill="none" stroke="#000" stroke-miterlimit="10" stroke-width=".39849726" d="M132.781 57.54V39.3c0-10.07 8.164-18.237 18.239-18.237h60.792"/><g clip-path="url(#e)"><path fill="none" stroke="#000" stroke-dasharray="2.9850640742 2.9850640742" stroke-miterlimit="10" stroke-width=".39849726" d="M211.812 21.063h14.59"/></g><g clip-path="url(#f)"><path fill="none" stroke="#000" stroke-dasharray="2.9850640742 2.9850640742" stroke-miterlimit="10" stroke-width=".39849726" d="M211.812 16.2h14.59"/></g><path fill="none" stroke="#000" stroke-miterlimit="10" stroke-width=".39849726" d="M211.812 16.2H151.02c-12.758 0-23.102 10.343-23.102 23.1v18.24h4.863"/><use xlink:href="#c" x="126.086" y="15.35"/><use xlink:href="#g" x="128.603" y="17.23"/><path fill="none" stroke="#000" stroke-miterlimit="10" stroke-width=".79599578" d="M125.426 29.988a27.24 27.24 0 0 1 18.68-17.027"/><path stroke="#000" stroke-miterlimit="10" stroke-width=".7959878100000001" d="m147.863 12.309-3.941-1.512.383 2.144.379 2.145Zm0 0"/><path fill="none" stroke="#000" stroke-miterlimit="10" stroke-width=".39849726" d="M130.352 203.441h36.472v48.633"/><path d="M133.27 203.441a2.918 2.918 0 1 0-5.837.001 2.918 2.918 0 0 0 5.837 0M169.742 227.758a2.918 2.918 0 1 0-5.836 0 2.918 2.918 0 0 0 5.836 0m0 0"/><path fill="none" stroke="#000" stroke-miterlimit="10" stroke-width=".39849726" d="M166.824 252.074v11.89"/><g clip-path="url(#h)"><path fill="none" stroke="#000" stroke-miterlimit="10" stroke-width=".79599578" d="M160.879 263.965h11.89m-9.906 1.984h7.926m-6.441 1.98h4.957"/></g><path fill="none" stroke="#000" stroke-miterlimit="10" stroke-width=".39849726" d="M98.738 227.758h68.086"/><path d="M101.656 227.758a2.918 2.918 0 1 0-5.835 0 2.918 2.918 0 0 0 5.835 0m0 0"/><path fill="#FFF" stroke="#000" stroke-miterlimit="10" stroke-width=".79599578" d="M134.266 227.754c0 6.566 5.324 11.89 11.89 11.89s11.89-5.324 11.89-11.89-5.323-11.89-11.89-11.89c-6.566 0-11.89 5.323-11.89 11.89Zm0 0"/><path fill="none" stroke="#000" stroke-miterlimit="10" stroke-width=".79599578" d="M152.102 227.754c-.97 1.523-1.899 2.972-2.973 2.972-1.078 0-2.004-1.449-2.973-2.972-.969-1.524-1.898-2.973-2.972-2.973-1.079 0-2.004 1.45-2.973 2.973"/><use xlink:href="#i" x="21.564" y="29.304"/><use xlink:href="#j" x="26.551" y="29.304"/><use xlink:href="#k" x="28.494" y="29.304"/><use xlink:href="#l" x="32.346" y="29.304"/><use xlink:href="#m" x="36.093" y="29.304"/><use xlink:href="#n" x="38.036" y="29.304"/><use xlink:href="#o" x="40.731" y="29.304"/><use xlink:href="#p" x="43.866" y="29.304"/><use xlink:href="#q" x="47.892" y="29.304"/><use xlink:href="#r" x="51.137" y="29.304"/><use xlink:href="#s" x="55.233" y="29.304"/><use xlink:href="#q" x="58.743" y="29.304"/><use xlink:href="#m" x="61.989" y="29.304"/><use xlink:href="#t" x="65.437" y="29.304"/><path fill="none" stroke="#000" stroke-miterlimit="10" stroke-width=".79599578" d="M45.242 12.066H64.95"/><path stroke="#000" stroke-miterlimit="10" stroke-width=".79599578" d="m68.762 12.066-3.614-2.18v4.36Zm0 0"/><use xlink:href="#c" x="54.283" y="7.784"/><use xlink:href="#d" x="56.8" y="9.665"/><use xlink:href="#i" x="157.737" y="29.304"/><use xlink:href="#j" x="162.724" y="29.304"/><use xlink:href="#k" x="164.667" y="29.304"/><use xlink:href="#l" x="168.519" y="29.304"/><use xlink:href="#m" x="172.266" y="29.304"/><use xlink:href="#n" x="174.21" y="29.304"/><use xlink:href="#o" x="176.905" y="29.304"/><use xlink:href="#p" x="180.039" y="29.304"/><use xlink:href="#q" x="184.065" y="29.304"/><use xlink:href="#r" x="187.311" y="29.304"/><use xlink:href="#s" x="191.406" y="29.304"/><use xlink:href="#q" x="194.917" y="29.304"/><use xlink:href="#m" x="198.163" y="29.304"/><use xlink:href="#u" x="201.603" y="29.304"/><path fill="none" stroke="#000" stroke-miterlimit="10" stroke-width=".79599578" d="M157.098 12.066h19.707"/><path stroke="#000" stroke-miterlimit="10" stroke-width=".79599578" d="m180.621 12.066-3.617-2.18v4.36Zm0 0"/><use xlink:href="#c" x="166.14" y="7.784"/><use xlink:href="#g" x="168.656" y="9.665"/><path fill="none" stroke="#000" stroke-miterlimit="10" stroke-width=".79599578" d="M102.871 81.855v19.707"/><path stroke="#000" stroke-miterlimit="10" stroke-width=".79599578" d="m102.871 105.379 2.18-3.617h-4.36Zm0 0"/><use xlink:href="#c" x="104.265" y="95.963"/><use xlink:href="#d" x="106.781" y="97.844"/><path fill="none" stroke="#000" stroke-miterlimit="10" stroke-width=".79599578" d="M102.871 118.332v19.707"/><path stroke="#000" stroke-miterlimit="10" stroke-width=".79599578" d="m102.871 141.852 2.18-3.614h-4.36Zm0 0"/><use xlink:href="#c" x="104.265" y="132.438"/><use xlink:href="#d" x="106.781" y="134.319"/><path fill="none" stroke="#000" stroke-miterlimit="10" stroke-width=".79599578" d="M102.871 154.809v19.707"/><path stroke="#000" stroke-miterlimit="10" stroke-width=".79599578" d="m102.871 178.328 2.18-3.613h-4.36Zm0 0"/><use xlink:href="#c" x="104.265" y="168.913"/><use xlink:href="#d" x="106.781" y="170.794"/><path fill="none" stroke="#000" stroke-miterlimit="10" stroke-width=".79599578" d="M123.785 106.172V86.465"/><path stroke="#000" stroke-miterlimit="10" stroke-width=".79599578" d="m123.785 82.652-2.18 3.614h4.36Zm0 0"/><use xlink:href="#c" x="116.159" y="95.963"/><use xlink:href="#d" x="118.674" y="97.844"/><path fill="none" stroke="#000" stroke-miterlimit="10" stroke-width=".79599578" d="M123.785 142.648v-19.707"/><path stroke="#000" stroke-miterlimit="10" stroke-width=".79599578" d="m123.785 119.129-2.18 3.613h4.36Zm0 0"/><use xlink:href="#c" x="116.159" y="132.438"/><use xlink:href="#d" x="118.674" y="134.319"/><path fill="none" stroke="#000" stroke-miterlimit="10" stroke-width=".79599578" d="M123.785 179.125v-19.707"/><path stroke="#000" stroke-miterlimit="10" stroke-width=".79599578" d="m123.785 155.602-2.18 3.617h4.36Zm0 0"/><use xlink:href="#c" x="116.159" y="168.913"/><use xlink:href="#d" x="118.674" y="170.794"/><path fill="none" stroke="#000" stroke-miterlimit="10" stroke-width=".79599578" d="M123.785 67.266V40.262"/><path stroke="#000" stroke-miterlimit="10" stroke-width=".79599578" d="m123.785 36.45-2.18 3.616h4.36Zm0 0"/><use xlink:href="#c" x="115.164" y="57.835"/><use xlink:href="#g" x="117.68" y="59.716"/><path fill="none" stroke="#000" stroke-miterlimit="10" stroke-width=".79599578" d="M123.785 67.266c0-9.399 2.938-17.02 6.567-17.02 3.007 0 5.546 5.25 6.32 12.41"/><path stroke="#000" stroke-miterlimit="10" stroke-width=".7959639000000001" d="m136.871 66.473 1.977-3.73-4.352.241Zm0 0"/><use xlink:href="#c" x="138.049" y="59.182"/><use xlink:href="#v" x="140.565" y="61.062"/><path fill="none" stroke="#000" stroke-miterlimit="10" stroke-width=".79599578" d="M136.914 81.855v19.707"/><path stroke="#000" stroke-miterlimit="10" stroke-width=".79599578" d="m136.914 105.379 2.18-3.617h-4.356Zm0 0"/><use xlink:href="#c" x="139.303" y="95.935"/><use xlink:href="#v" x="141.819" y="97.816"/><path fill="none" stroke="#000" stroke-miterlimit="10" stroke-width=".79599578" d="M136.914 118.332v19.707"/><path stroke="#000" stroke-miterlimit="10" stroke-width=".79599578" d="m136.914 141.852 2.18-3.614h-4.356Zm0 0"/><use xlink:href="#c" x="139.303" y="132.41"/><use xlink:href="#v" x="141.819" y="134.29"/><path fill="none" stroke="#000" stroke-miterlimit="10" stroke-width=".79599578" d="M136.914 154.809v19.707"/><path stroke="#000" stroke-miterlimit="10" stroke-width=".79599578" d="m136.914 178.328 2.18-3.613h-4.356Zm0 0"/><use xlink:href="#c" x="139.303" y="168.885"/><use xlink:href="#v" x="141.819" y="170.765"/><path fill="none" stroke="#000" stroke-miterlimit="10" stroke-width=".79599578" d="M170.96 233.836v19.71"/><path d="m170.96 257.36 2.18-3.614h-4.359Zm0 0"/><g clip-path="url(#w)"><path fill="none" stroke="#000" stroke-miterlimit="10" stroke-width=".79599578" d="m170.96 257.36 2.18-3.614h-4.359Zm0 0"/></g><use xlink:href="#c" x="173.347" y="247.914"/><use xlink:href="#v" x="175.863" y="249.795"/><use xlink:href="#c" x="169.454" y="58.261"/><use xlink:href="#g" x="171.971" y="60.141"/><use xlink:href="#x" x="178.175" y="58.261"/><use xlink:href="#c" x="186.458" y="58.261"/><use xlink:href="#d" x="188.982" y="60.141"/><use xlink:href="#y" x="194.688" y="58.261"/><use xlink:href="#c" x="202.479" y="58.261"/><use xlink:href="#v" x="204.998" y="60.141"/><path fill="none" stroke="#7F7F7F" stroke-miterlimit="10" stroke-width=".39849726" d="m130.352 42.95 35.921 8.19"/></svg>