<svg xmlns="http://www.w3.org/2000/svg" xmlns:xlink="http://www.w3.org/1999/xlink" width="220.178" height="138.084"><defs><path id="b" d="M1.578 1.563c-.094.14-.281.265-.406.265S1 1.766.953 1.672C.875 1.562.703 1.39.5 1.39a.307.307 0 0 0-.328.312c0 .203.219.422.828.422.36 0 .75-.187 1.031-.562.25-.344.438-1.032.797-2.72.14-.702.281-1.421.406-2.171l.032-.14h.828c.078 0 .218-.048.234-.11 0 0 .047-.188.047-.203s-.016-.047-.062-.047h-.985l.094-.5c.14-.672.265-1.063.39-1.313.141-.25.25-.312.36-.312.125 0 .14.078.187.25.032.187.11.406.391.406.25 0 .313-.203.313-.281 0-.328-.282-.64-.829-.64a.95.95 0 0 0-.593.25c-.297.218-.672.562-1 2.14l-.594.031c-.156.016-.235.078-.25.156 0 .032-.031.125-.031.157 0 .015.015.015.046.015h.75c-.218 1.016-.25 1.547-.374 2.219-.141.844-.282 2.297-.61 2.813m0 0"/><path id="c" d="M0-.422a.16.16 0 0 1-.078.016q-.246.002-.328-.313l-.078-.375h-5.188l-.125.547c-.02.086-.05.125-.094.125q-.074 0-.25-.094v-2.062a.2.2 0 0 1 .079-.016q.236.001.296.313l.094.406H-.5v-2.047l-1.062-.25a.6.6 0 0 1-.032-.203q0-.218.36-.219.455.002 1.234.078Zm0 0"/><path id="d" d="M-2.172-1.156q.845-.012 1.297-.375c.305-.239.453-.57.453-1q0-.593-.422-1.11.064-.092.25-.109.205.001.438.406.265.47.265 1.11.002.815-.5 1.297c-.382.367-.941.546-1.671.546q-1.09.001-1.735-.578a1.7 1.7 0 0 1-.578-1.297q.001-.702.406-1.093.41-.36 1.078-.36.299 0 .72.094Zm-1.75-1.031q.002.909 1.328 1.015v-1.75a1.4 1.4 0 0 0-.375-.047q-.951.001-.953.781m0 0"/><path id="e" d="M-.469-.906H-3.78l-.094.64a.16.16 0 0 1-.078.016c-.156 0-.242-.11-.266-.328l-.11-1.047h3.86l.125-.547c.012-.07.047-.11.11-.11q.129.001.234.079v1.89a.1.1 0 0 1-.062.016c-.133 0-.235-.094-.297-.281Zm-5.343.156a.5.5 0 0 1-.375-.14.53.53 0 0 1-.141-.376q0-.217.14-.359a.49.49 0 0 1 .375-.156q.236.002.375.156a.5.5 0 0 1 .125.36c0 .148-.039.273-.125.374a.5.5 0 0 1-.375.141m0 0"/><path id="f" d="M-.562-1a1.08 1.08 0 0 0 .187-.64c0-.508-.195-.766-.594-.766q-.234 0-.468.234-.123.16-.391.594-.34.517-.563.734c-.257.242-.546.36-.859.36a.95.95 0 0 1-.812-.407q-.312-.405-.313-1.015c0-.395.102-.711.297-.953q.346-.031.547-.032.438 0 .437.329v.093l-.64.094q-.188.299-.188.61 0 .656.516.656.363 0 .703-.516.3-.468.594-.937c.28-.333.601-.5.953-.5q.55 0 .906.406.362.408.36 1.094c0 .437-.087.796-.25 1.078q-.406.08-.735.078-.422 0-.422-.328v-.079Zm0 0"/><path id="g" d="M-4.281-.86-5.47-1.03v-.516h1.188V-2.89l.468.094v1.25h2.75q.657.001.657-.578c0-.3-.07-.55-.219-.75a.43.43 0 0 1 .25-.062q.112.001.266.25c.144.218.218.492.218.812Q.11-.826-.92-.828h-2.891v.672a.1.1 0 0 1-.063.015q-.216 0-.297-.28Zm0 0"/><path id="h" d="m-3.781-.781-.094.64a.16.16 0 0 1-.078.016c-.156 0-.242-.11-.266-.328l-.11-1.047h2.798q1.048 0 1.047-.89 0-.688-.438-1.11h-2.86l-.093.656h-.078c-.156 0-.242-.11-.266-.328l-.11-1.047h3.845l.078-.656h.078q.252 0 .281.328l.094 1h-.578v.016c.43.344.64.793.64 1.344q0 1.406-1.593 1.406Zm0 0"/><path id="i" d="M-.469-.906H-3.78l-.094.64a.16.16 0 0 1-.078.016c-.156 0-.242-.11-.266-.328l-.11-1.047.595.047v-.031a2.7 2.7 0 0 1-.422-.516 2 2 0 0 1-.219-.953q0-.638.422-1 .41-.375 1.172-.375H-.47l.125-.531q.017-.124.11-.125.129 0 .234.093v1.875a.1.1 0 0 1-.062.016c-.133 0-.235-.094-.297-.281l-.11-.328H-2.75q-.53 0-.812.312-.219.252-.22.656c0 .43.15.809.438 1.141h2.875l.125-.547c.012-.07.047-.11.11-.11q.129.001.234.079v1.89a.1.1 0 0 1-.062.016c-.133 0-.235-.094-.297-.281Zm0 0"/><path id="j" d="M-2.969-.484a1.3 1.3 0 0 1-1.062-.5q-.342-.451-.344-1.125 0-.357.094-.672v-1.516l.484.078v.75q.376-.28.828-.281.691.001 1.078.5.392.47.391 1.188 0 .205-.047.421.159.282.422.282.314 0 .313-.47v-1.015q.001-.576.265-.906a.83.83 0 0 1 .703-.344c.469 0 .867.2 1.203.594.352.438.532 1.008.532 1.703C1.89-.742 1.539-.219.844-.219c-.524 0-.875-.27-1.063-.812h-.015a.62.62 0 0 1-.594.36q-.497 0-.813-.61h-.03q-.373.797-1.298.797m1.016-1.625q.001-.938-1-.938c-.313 0-.55.09-.719.266a.9.9 0 0 0-.25.656q0 .907.969.906 1.001 0 1-.89m1.844.39q.002.19-.032.344c.153.305.407.453.75.453q.781.001.782-1 0-.67-.282-1.094Q.858-3.39.453-3.39q-.562 0-.562.735Zm0 0"/><path id="k" d="m.422-.453 1.5-1.719q.89-1.015.89-2-.001-1.249-.906-1.25-.362 0-.718.188a4 4 0 0 0-.11.875q-.11.016-.203.015-.422.001-.422-.343 0-.547.422-.875.42-.33 1.14-.329.734.001 1.172.407.453.408.454 1.156 0 .674-.422 1.36-.27.439-.89 1.109L1.343-.797v.016h2.015l.188-.766a.5.5 0 0 1 .187-.031q.235.002.235.344 0 .344-.094 1.234H.5Zm0 0"/><path id="l" d="M2.922-3.031c.726.336 1.094.844 1.094 1.531q-.001.752-.547 1.188-.503.42-1.281.421-.769 0-1.25-.39Q.422-.716.422-1.437q0-.938 1.125-1.454-.984-.497-.984-1.468c0-.438.164-.801.5-1.094q.513-.437 1.203-.438c.476 0 .867.133 1.172.391.3.25.453.602.453 1.047q-.001.907-.97 1.422m-.406-.156q.656-.405.656-1.266 0-.404-.235-.656-.252-.282-.734-.282c-.281 0-.508.094-.672.282a.92.92 0 0 0-.25.656q0 .504.328.797c.164.156.47.312.907.469m-.563.484q-.783.44-.781 1.265 0 .44.281.75c.195.2.453.297.766.297q.468 0 .75-.28c.195-.196.297-.442.297-.735q0-.48-.36-.797c-.18-.156-.496-.32-.953-.5m0 0"/><path id="m" d="m6-.484-.094-4.22h-.015L4.016-.077H3.53L1.687-4.734h-.015l-.078 4.25.61.125q.123.017.124.093 0 .048-.094.266H.391v-.078Q.389-.324.688-.406l.375-.078.078-5.188-.547-.125c-.086-.02-.125-.05-.125-.094q0-.074.094-.25h1.406l1.937 4.907h.016l1.984-4.907h1.5c.008.024.016.047.016.079q-.001.236-.313.296l-.406.094.063 5.188.625.125q.124.017.125.093c0 .032-.04.121-.11.266H5.313v-.078q-.001-.246.296-.328Zm0 0"/><path id="n" d="M2.578-6.14a.2.2 0 0 1 .016.077q-.001.237-.313.297l-.406.094v2.266h2.969v-2.266l-.547-.125c-.086-.02-.125-.05-.125-.094q0-.074.094-.25h2.062a.2.2 0 0 1 .016.079q-.001.236-.313.296l-.406.094v5.188l.61.125q.123.017.124.093 0 .048-.093.266H4.172a.16.16 0 0 1-.016-.078q-.002-.246.313-.328l.375-.078v-2.391H1.875v2.39l.61.126q.123.017.124.093 0 .048-.093.266H.422a.16.16 0 0 1-.016-.078Q.404-.324.72-.406l.375-.078v-5.188l-.547-.125c-.086-.02-.125-.05-.125-.094q0-.074.094-.25Zm0 0"/><path id="o" d="M.469-3.39q0-.33.062-.891h2.89q.031.093.032.187a.57.57 0 0 1-.094.297L1.125-.469v.016h1.75l.328-.89h.125q.248 0 .25.28-.001.08-.125 1.063H.406a.6.6 0 0 1-.094-.328q0-.124.094-.266l2.14-3.234v-.016H1.095l-.25.75H.719q-.251.002-.25-.297m0 0"/><clipPath id="a"><path d="M209 115h10.043v16H209Zm0 0"/></clipPath><clipPath id="p"><path d="M3 9h216.043v125H3Zm0 0"/></clipPath></defs><path fill="none" stroke="#000" stroke-miterlimit="10" stroke-width=".39637059" d="M14.676 122.7h200.722"/><path d="m218.453 122.7-2.953-1.75v3.503Zm0 0"/><g clip-path="url(#a)"><path fill="none" stroke="#000" stroke-miterlimit="10" stroke-width=".39637059" d="m218.453 122.7-2.953-1.75v3.503Zm0 0"/></g><use xlink:href="#b" x="211.929" y="132.086"/><path fill="none" stroke="#000" stroke-miterlimit="10" stroke-width=".39637059" d="M14.676 122.7V3.644"/><path stroke="#000" stroke-miterlimit="10" stroke-width=".39637059" d="m14.676.594-1.754 2.953h3.504Zm0 0"/><use xlink:href="#c" x="9.619" y="35.965"/><use xlink:href="#d" x="9.619" y="31.2"/><use xlink:href="#e" x="9.619" y="27.049"/><use xlink:href="#f" x="9.619" y="24.564"/><use xlink:href="#g" x="9.619" y="21.117"/><use xlink:href="#h" x="9.619" y="18.088"/><use xlink:href="#i" x="9.619" y="13.02"/><use xlink:href="#j" x="9.619" y="7.783"/><use xlink:href="#k" x="57.396" y="132.014"/><use xlink:href="#l" x="61.849" y="132.014"/><use xlink:href="#m" x="67.781" y="132.014"/><use xlink:href="#n" x="75.629" y="132.014"/><use xlink:href="#o" x="82.363" y="132.014"/><g clip-path="url(#p)"><path fill="none" stroke="#000" stroke-miterlimit="10" stroke-width=".7917477700000001" d="M14.676 122.7h16.05c4.669 0 9.333-3.677 10.419-8.212l20.562-85.66c1.086-4.535 5.75-8.215 10.418-8.215h142.64"/></g><path fill="none" stroke="#000" stroke-dasharray="2.9691336103 2.9691336103" stroke-miterlimit="10" stroke-width=".39637059" d="M71.844 122.7V.194"/></svg>