<svg xmlns="http://www.w3.org/2000/svg" xmlns:xlink="http://www.w3.org/1999/xlink" width="226.819" height="76.737"><defs><path id="b" d="M4.453-5.687H3.031v5.203l.61.125q.124.017.125.093 0 .048-.094.266H1.578a.16.16 0 0 1-.016-.078q-.002-.246.313-.328l.375-.078v-5.203H.828L.61-4.75a.5.5 0 0 1-.187.031c-.18 0-.266-.129-.266-.39q0-.218.063-1.063h4.844q.06.845.062 1.063-.001.39-.266.39a.5.5 0 0 1-.187-.031Zm0 0"/><path id="c" d="M2.203-6.172v.078q-.002.253-.297.313l-.328.078L2.766-3.72h.015l1.266-2-.61-.093q-.126 0-.124-.11-.001-.075.109-.25h1.781q.014.048.016.078c0 .168-.102.278-.297.328l-.313.063L3.08-3.25 4.75-.469l.422.11q.124.034.125.093 0 .048-.094.266h-1.89a.16.16 0 0 1-.016-.078c0-.176.101-.285.312-.328l.266-.047-1.281-2.125h-.016L1.266-.453l.562.094q.124.017.125.093A.6.6 0 0 1 1.86 0H.047v-.078q0-.264.297-.328l.25-.063L2.28-3.062.671-5.687l-.437-.11C.148-5.817.11-5.859.11-5.922q0-.075.11-.25Zm0 0"/><path id="d" d="M2.031-.578V-5l-1.344.25a1 1 0 0 1-.015-.187c0-.133.07-.227.219-.282l1.468-.593h.454v5.234l1.078.172q.14.016.14.11-.002.08-.11.296H.86v-.078q0-.311.282-.36Zm0 0"/><path id="e" d="M1.125-5.812h2.563l-.063.78H1.531l-.125 1.407q1.296.066 1.875.547c.364.305.547.765.547 1.39 0 .493-.18.915-.531 1.266q-.534.533-1.39.531Q1.185.108.827-.156a.61.61 0 0 1-.281-.516q0-.405.39-.547.171.376.282.5.31.328.843.328.514 0 .829-.328c.195-.207.297-.476.297-.812q0-.732-.563-1.047-.55-.328-1.781-.328Zm0 0"/><path id="f" d="m7.094-.469.531.125q.124.017.125.11A.35.35 0 0 1 7.656 0h-1.89a.1.1 0 0 1-.016-.062c0-.133.094-.235.281-.297l.328-.11V-2.75c0-.695-.289-1.047-.859-1.047q-.674.002-1.187.485.046.315.046.515v2.328l.532.125q.124.017.125.11A.4.4 0 0 1 4.937 0H3.032v-.062c0-.133.094-.235.281-.297l.329-.11V-2.75c0-.695-.29-1.047-.86-1.047-.437 0-.82.149-1.14.438v2.89l.53.125q.125.017.126.11A.35.35 0 0 1 2.203 0H.313a.1.1 0 0 1-.016-.062c0-.133.094-.235.281-.297l.328-.11v-3.328l-.64-.094a.1.1 0 0 1-.016-.062q0-.246.328-.281l1.063-.11-.063.594h.031q.61-.64 1.422-.64.828 0 1.156.702.64-.703 1.532-.703.638 0 1 .422.375.41.375 1.172Zm0 0"/><path id="q" d="m.422-.453 1.516-1.734q.874-1.015.875-2c0-.833-.305-1.25-.907-1.25q-.345 0-.703.187a3.3 3.3 0 0 0-.125.875q-.11.017-.203.016-.422 0-.422-.344 0-.545.422-.875.42-.342 1.156-.344.715 0 1.172.422.451.408.453 1.156 0 .675-.422 1.36-.268.44-.906 1.125L1.344-.797v.016h2.031l.188-.781a.5.5 0 0 1 .187-.032q.234.002.234.344c0 .242-.03.656-.093 1.25H.5Zm0 0"/><path id="r" d="M1.39-3.156c1.008-.114 1.516-.516 1.516-1.203Q2.905-5.438 2-5.437q-.41.002-.703.203-.11.362-.11.812a.7.7 0 0 1-.218.031c-.281 0-.422-.117-.422-.359q-.001-.516.437-.844.45-.328 1.188-.328.714 0 1.125.375.406.375.406 1.031 0 .628-.422 1.016-.28.284-.89.484V-3q.702.11 1.093.484c.258.243.391.547.391.922q-.001.738-.547 1.219Q2.78.11 1.891.109C1.41.11 1.05.012.813-.17Q.53-.374.53-.672q0-.406.39-.548c.102.23.204.399.298.5q.293.328.828.328c.664 0 1-.351 1-1.062 0-.738-.555-1.149-1.656-1.234Zm0 0"/><path id="s" d="m.125-1.984 2.531-3.797.672-.063v3.64h.75l-.047.688h-.703v1.032l.61.125q.123.017.124.093 0 .048-.093.266H1.906v-.078q0-.246.297-.328l.39-.078v-1.032H.157Zm.734-.22h1.735V-4.89h-.016L.86-2.219Zm0 0"/><path id="j" d="m3.484-.375-.453-1.266H1.312L.845-.375l.531.094q.094.018.094.078A.7.7 0 0 1 1.39 0H-.062v-.062c0-.133.078-.22.234-.25L.359-.36l1.688-4.438.437-.062L4.156-.375l.313.094q.093.033.093.078 0 .034-.078.203H3a.1.1 0 0 1-.016-.062q0-.187.235-.25Zm-2.046-1.64h1.468l-.719-2.032h-.015Zm0 0"/><path id="k" d="M.703-.36v-2.593l-.5-.078q-.017-.012-.016-.047c0-.133.086-.207.266-.219l.813-.078-.032.469h.016q.233-.235.406-.328.31-.188.75-.188.5 0 .781.328.296.33.297.922v1.813l.407.093q.093.02.093.079A.36.36 0 0 1 3.922 0H2.453a.1.1 0 0 1-.015-.047c0-.101.07-.18.218-.234l.25-.078v-1.782q0-.419-.234-.64a.78.78 0 0 0-.516-.172q-.504.002-.89.344v2.25l.422.093q.093.02.093.079A.36.36 0 0 1 1.72 0H.25a.1.1 0 0 1-.016-.047c0-.101.07-.18.22-.234Zm0 0"/><path id="l" d="m.672-3.344.14-.922h.391v.922H2.25l-.062.375h-.985v2.14q-.002.517.453.517.357 0 .578-.188a.4.4 0 0 1 .047.203q0 .095-.187.219a1.2 1.2 0 0 1-.64.156Q.64.078.64-.719v-2.25H.125a.1.1 0 0 1-.016-.062c0-.114.07-.188.22-.219Zm0 0"/><path id="m" d="M.906-1.687q0 .657.282 1.015.281.345.796.344.45 0 .86-.328.06.048.078.203-.001.158-.313.328a1.76 1.76 0 0 1-.859.203C1.32.078.984-.05.734-.312Q.314-.747.313-1.61c0-.57.148-1.024.453-1.36q.403-.451 1-.453.544 0 .859.328.281.316.281.844 0 .234-.078.563Zm.797-1.375Q1-3.06.906-2.016h1.375q.03-.139.031-.296 0-.75-.609-.75m0 0"/><path id="n" d="M2.297-1.922H.422v-.406h1.875Zm0 0"/><path id="o" d="m.61-2.953-.5-.078q-.017-.012-.016-.047-.002-.2.265-.219l.813-.078v2.172c0 .555.234.828.703.828q.529.001.86-.344v-2.234l-.516-.078v-.047q-.001-.2.25-.219l.828-.078v3l.5.063q.014.033.015.062-.001.19-.265.203L2.78.047v-.469h-.015a1.3 1.3 0 0 1-1.063.5Q.61.08.61-1.156Zm0 0"/><path id="p" d="M.703-.36v-2.593l-.5-.078q-.017-.012-.016-.047c0-.133.086-.207.266-.219l.813-.078-.032.578h.016q.405-.623.89-.625.453.002.454.344c0 .094-.04.195-.11.297-.168-.07-.32-.11-.453-.11a.92.92 0 0 0-.765.391v2.14l.5.094q.093.02.093.079A.3.3 0 0 1 1.781 0H.25a.1.1 0 0 1-.016-.047c0-.101.07-.18.22-.234Zm0 0"/><clipPath id="a"><path d="M.297 41H27v27H.297Zm0 0"/></clipPath><clipPath id="g"><path d="M196 0h30.34v30H196Zm0 0"/></clipPath><clipPath id="h"><path d="M82 71h14v5.477H82Zm0 0"/></clipPath><clipPath id="i"><path d="M123 71h14v5.477h-14Zm0 0"/></clipPath></defs><g clip-path="url(#a)"><path fill="none" stroke="#000" stroke-miterlimit="10" stroke-width=".79427426" d="M.695 42.117H26.09v25.399H.695Zm0 0"/></g><use xlink:href="#b" x="8.076" y="57.899"/><use xlink:href="#c" x="13.365" y="57.899"/><path fill="none" stroke="#000" stroke-miterlimit="10" stroke-width=".39763542" d="M26.09 54.816h9.719m0 0h9.718"/><path d="M41.324 54.816v1.977l4.203-1.977-4.203-1.976Zm0 0"/><path fill="none" stroke="#000" stroke-miterlimit="10" stroke-width=".79427426" d="M45.527 42.117h25.395v25.399H45.527Zm0 0"/><path fill="none" stroke="#000" stroke-miterlimit="10" stroke-width=".39763542" d="M51.875 48.469c1.035-1.625 2.023-3.176 3.176-3.176 1.148 0 2.136 1.55 3.172 3.176 1.035 1.625 2.027 3.172 3.175 3.172 1.149 0 2.141-1.547 3.172-3.172m-4.441-1.906L56.32 50.37M51.875 54.816c1.035-1.625 2.023-3.175 3.176-3.175 1.148 0 2.136 1.55 3.172 3.175 1.035 1.625 2.027 3.176 3.175 3.176 1.149 0 2.141-1.55 3.172-3.176M60.13 52.91 56.32 56.72M51.875 61.164c1.035-1.625 2.023-3.172 3.176-3.172 1.148 0 2.136 1.547 3.172 3.172 1.035 1.625 2.027 3.176 3.175 3.176 1.149 0 2.141-1.55 3.172-3.176M70.922 54.816h16.195m45.352 0h16.195"/><path fill="none" stroke="#000" stroke-miterlimit="10" stroke-width=".79427426" d="M130.289 49.375H89.293c-1.2 0-2.176 2.438-2.176 5.441 0 3.004.977 5.442 2.176 5.442h40.996c1.203 0 2.18-2.438 2.18-5.442s-.977-5.441-2.18-5.441"/><path fill="none" stroke="#000" stroke-miterlimit="10" stroke-width=".79427426" d="M130.289 49.375c-1.2 0-2.176 2.438-2.176 5.441 0 3.004.977 5.442 2.176 5.442"/><path fill="none" stroke="#000" stroke-miterlimit="10" stroke-width=".39763542" d="M130.289 54.816h2.18"/><use xlink:href="#d" x="100.642" y="45.613"/><use xlink:href="#e" x="105.11" y="45.613"/><use xlink:href="#f" x="111.061" y="45.613"/><path d="M144.46 54.816v1.977l4.204-1.977-4.203-1.976Zm0 0"/><path fill="none" stroke="#000" stroke-miterlimit="10" stroke-width=".79427426" d="M148.664 42.117h48.977v25.399h-48.977Zm0 0"/><path fill="none" stroke="#000" stroke-miterlimit="10" stroke-width=".39763542" d="M197.64 54.816h9.72m0 0h9.718M216.879 54.816V.398"/><g clip-path="url(#g)"><path fill="none" stroke="#000" stroke-miterlimit="10" stroke-width=".79427426" d="M216.879.398h9.07l-9.07 18.137-9.07-18.137h9.07"/></g><path stroke="#000" stroke-miterlimit="10" stroke-width=".39763542" d="M90.875 60.258a1.583 1.583 0 1 0-3.162.002 1.583 1.583 0 0 0 3.162-.002Zm0 0"/><path fill="none" stroke="#000" stroke-miterlimit="10" stroke-width=".39763542" d="M89.293 60.258V72.12"/><g clip-path="url(#h)"><path fill="none" stroke="#000" stroke-miterlimit="10" stroke-width=".79427426" d="M83.363 72.121h11.864m-9.887 1.98h7.91m-6.426 1.977h4.942"/></g><path stroke="#000" stroke-miterlimit="10" stroke-width=".39763542" d="M131.871 60.258a1.583 1.583 0 1 0-3.162.002 1.583 1.583 0 0 0 3.162-.002Zm0 0"/><path fill="none" stroke="#000" stroke-miterlimit="10" stroke-width=".39763542" d="M130.289 60.258V72.12"/><g clip-path="url(#i)"><path fill="none" stroke="#000" stroke-miterlimit="10" stroke-width=".79427426" d="M124.36 72.121h11.863m-9.887 1.98h7.91m-6.426 1.977h4.942"/></g><use xlink:href="#j" x="156.928" y="50.146"/><use xlink:href="#k" x="161.46" y="50.146"/><use xlink:href="#l" x="165.546" y="50.146"/><use xlink:href="#m" x="167.909" y="50.146"/><use xlink:href="#k" x="171.148" y="50.146"/><use xlink:href="#k" x="175.235" y="50.146"/><use xlink:href="#m" x="179.321" y="50.146"/><use xlink:href="#k" x="182.56" y="50.146"/><use xlink:href="#n" x="186.647" y="50.146"/><use xlink:href="#l" x="164.987" y="64.254"/><use xlink:href="#o" x="167.35" y="64.254"/><use xlink:href="#k" x="171.304" y="64.254"/><use xlink:href="#m" x="175.391" y="64.254"/><use xlink:href="#p" x="178.63" y="64.254"/><path fill="none" stroke="#000" stroke-dasharray="2.9786082014 2.9786082014" stroke-miterlimit="10" stroke-width=".39763542" d="M35.809 54.816V28.902"/><use xlink:href="#d" x="33.573" y="25.726"/><path fill="none" stroke="#000" stroke-dasharray="2.9786082014 2.9786082014" stroke-miterlimit="10" stroke-width=".39763542" d="M79.02 54.816V28.902"/><use xlink:href="#q" x="76.784" y="25.726"/><path fill="none" stroke="#000" stroke-dasharray="2.9786082014 2.9786082014" stroke-miterlimit="10" stroke-width=".39763542" d="M140.566 54.816V28.902"/><use xlink:href="#r" x="138.329" y="25.618"/><path fill="none" stroke="#000" stroke-dasharray="2.9786082014 2.9786082014" stroke-miterlimit="10" stroke-width=".39763542" d="M207.36 54.816V28.902"/><use xlink:href="#s" x="205.122" y="25.726"/></svg>