<svg xmlns="http://www.w3.org/2000/svg" xmlns:xlink="http://www.w3.org/1999/xlink" width="224.428" height="170.894"><defs><path id="a" d="M2.031-.578V-5l-1.344.25a1 1 0 0 1-.015-.187c0-.133.07-.227.219-.282l1.468-.593h.454v5.234l1.078.172q.14.016.14.11-.002.08-.11.296H.86v-.078q0-.311.282-.36Zm0 0"/><path id="b" d="m.422-.453 1.516-1.734q.874-1.015.875-2c0-.833-.305-1.25-.907-1.25q-.345 0-.703.187a3.3 3.3 0 0 0-.125.875q-.11.017-.203.016-.422 0-.422-.344 0-.545.422-.875.42-.342 1.156-.344.715 0 1.172.422.451.408.453 1.156 0 .675-.422 1.36-.268.44-.906 1.125L1.344-.797v.016h2.031l.188-.781a.5.5 0 0 1 .187-.032q.234.002.234.344c0 .242-.03.656-.093 1.25H.5Zm0 0"/><path id="c" d="M1.39-3.156c1.008-.114 1.516-.516 1.516-1.203Q2.905-5.438 2-5.437q-.41.002-.703.203-.11.362-.11.812a.7.7 0 0 1-.218.031c-.281 0-.422-.117-.422-.359q-.001-.516.437-.844.45-.328 1.188-.328.714 0 1.125.375.406.375.406 1.031 0 .628-.422 1.016-.28.284-.89.484V-3q.702.11 1.093.484c.258.243.391.547.391.922q-.001.738-.547 1.219Q2.78.11 1.891.109C1.41.11 1.05.012.813-.17Q.53-.374.53-.672q0-.406.39-.548c.102.23.204.399.298.5q.293.328.828.328c.664 0 1-.351 1-1.062 0-.738-.555-1.149-1.656-1.234Zm0 0"/></defs><path fill="none" stroke="#000" stroke-miterlimit="10" stroke-width="1.19296216" d="M.598 6.05H198.82"/><use xlink:href="#a" x="216.404" y="8.958"/><path fill="none" stroke="#000" stroke-miterlimit="10" stroke-width="1.19296216" d="M89.797 105.16H60.063m0 0H30.332a5.947 5.947 0 1 1 0-11.89"/><path fill="#FFF" stroke="#000" stroke-miterlimit="10" stroke-width="1.19296216" d="M91.379 105.16a1.583 1.583 0 1 0-3.166.002 1.583 1.583 0 0 0 3.166-.002Zm0 0"/><path fill="none" stroke="#000" stroke-miterlimit="10" stroke-width="1.19296216" d="M109.621 105.16h29.734m0 0h29.731a5.947 5.947 0 1 0 0-11.89"/><path fill="#FFF" stroke="#000" stroke-miterlimit="10" stroke-width="1.19296216" d="M111.203 105.16a1.583 1.583 0 1 0-3.166.002 1.583 1.583 0 0 0 3.166-.002Zm0 0"/><path fill="none" stroke="#000" stroke-miterlimit="10" stroke-width="1.19296216" d="M30.332 93.27h138.754"/><use xlink:href="#b" x="186.671" y="102.176"/><path fill="none" stroke="#000" stroke-miterlimit="10" stroke-width="1.19296216" d="M30.332 164.629h138.754"/><use xlink:href="#c" x="186.671" y="167.536"/></svg>