<svg xmlns="http://www.w3.org/2000/svg" width="32.611" height="44.451"><defs><clipPath id="a"><path d="M.008 0h32.21v43.91H.009Zm0 0"/></clipPath><clipPath id="b"><path d="M6 19h24v24.91H6Zm0 0"/></clipPath><clipPath id="c"><path d="M.008 21H13v2H.008Zm0 0"/></clipPath></defs><g clip-path="url(#a)"><path fill="none" stroke="#000" stroke-miterlimit="10" stroke-width=".7872766000000001" d="M31.828 21.953c0-8.027-6.508-14.535-14.539-14.535-8.027 0-14.535 6.508-14.535 14.535 0 8.031 6.508 14.54 14.535 14.54 8.031 0 14.54-6.509 14.54-14.54Zm0 0"/></g><path fill="none" stroke="#000" stroke-miterlimit="10" stroke-width=".39413220000000004" d="M23.922.195v13.137l-11.762 5.39"/><path fill="none" stroke="#000" stroke-miterlimit="10" stroke-width=".7872766000000001" d="M12.16 13.332v17.246"/><g clip-path="url(#b)"><path fill="none" stroke="#000" stroke-miterlimit="10" stroke-width=".39413220000000004" d="m12.16 25.188 11.762 5.39v13.133"/></g><path d="m16.305 27.086.941-2.05 3.645 4.155-5.528-.05Zm0 0"/><g clip-path="url(#c)"><path fill="none" stroke="#000" stroke-miterlimit="10" stroke-width=".39413220000000004" d="M12.16 21.953H.203"/></g></svg>