<svg xmlns="http://www.w3.org/2000/svg" xmlns:xlink="http://www.w3.org/1999/xlink" width="227.214" height="163.956"><defs><path id="a" d="m.422-.453 1.516-1.734q.874-1.015.875-2c0-.833-.305-1.25-.907-1.25q-.345 0-.703.187a3.3 3.3 0 0 0-.125.875q-.11.017-.203.016-.422 0-.422-.344 0-.545.422-.875.42-.342 1.156-.344.715 0 1.172.422.451.408.453 1.156 0 .675-.422 1.36-.268.44-.906 1.125L1.344-.797v.016h2.031l.188-.781a.5.5 0 0 1 .187-.032q.234.002.234.344c0 .242-.03.656-.093 1.25H.5Zm0 0"/><path id="b" d="M2.234-.39q1.092.001 1.094-2.516-.002-2.515-1.094-2.516-1.094.001-1.093 2.516c0 1.68.363 2.515 1.093 2.515m-.03.5q-.88 0-1.376-.75Q.296-1.42.297-2.907c0-.977.187-1.735.562-2.266.352-.5.829-.75 1.422-.75q.873 0 1.36.75.528.784.53 2.266 0 1.47-.562 2.265-.533.75-1.406.75m0 0"/><path id="c" d="M6.125-3.484q-.001.926-.547 1.734-.486.69-1.156 1.047v.172h1.187l.141-.719a.44.44 0 0 1 .203-.047q.282.001.281.406-.002.365-.062.891H3.859v-.89c.977-.5 1.47-1.376 1.47-2.626Q5.327-4.545 4.78-5.14q-.534-.609-1.39-.609c-.563 0-1.024.2-1.375.594-.368.418-.547.968-.547 1.656q-.001.862.343 1.531.387.72 1.126 1.078V0H.624a10 10 0 0 1-.047-.89c0-.27.086-.407.266-.407q.107 0 .203.047l.14.719h1.204v-.156c-.43-.188-.809-.524-1.141-1.016a2.98 2.98 0 0 1-.594-1.781q-.001-1.203.766-2 .78-.797 1.969-.797 1.218 0 1.968.781c.508.512.766 1.184.766 2.016m0 0"/><path id="f" d="M2.031-.578V-5l-1.344.25a1 1 0 0 1-.015-.187c0-.133.07-.227.219-.282l1.468-.593h.454v5.234l1.078.172q.14.016.14.11-.002.08-.11.296H.86v-.078q0-.311.282-.36Zm0 0"/><path id="g" d="M1.125-5.812h2.563l-.063.78H1.531l-.125 1.407q1.296.066 1.875.547c.364.305.547.765.547 1.39 0 .493-.18.915-.531 1.266q-.534.533-1.39.531Q1.185.108.827-.156a.61.61 0 0 1-.281-.516q0-.405.39-.547.171.376.282.5.31.328.843.328.514 0 .829-.328c.195-.207.297-.476.297-.812q0-.732-.563-1.047-.55-.328-1.781-.328Zm0 0"/><clipPath id="d"><path d="M223 67h3.43v4H223Zm0 0"/></clipPath><clipPath id="e"><path d="M217 61h9.43v15H217Zm0 0"/></clipPath></defs><path fill="#FFF" stroke="#000" stroke-miterlimit="10" stroke-width=".39762345000000004" d="M3.363 68.746a1.582 1.582 0 0 0-3.164 0 1.583 1.583 0 0 0 3.164 0ZM3.363 143.04a1.583 1.583 0 1 0-3.166 0 1.583 1.583 0 0 0 3.166 0Zm0 0"/><path fill="none" stroke="#000" stroke-miterlimit="10" stroke-width=".39762345000000004" d="M3.363 68.746h19.742m31.641 0h42.652m31.637 0h42.653m31.64 0h21.324v37.149m0 0v37.144h-95.617m-31.637 0H3.363"/><path fill="none" stroke="#000" stroke-miterlimit="10" stroke-width=".7942503500000001" d="M23.105 62.816h31.641V74.68h-31.64Zm0 0"/><use xlink:href="#a" x="28.084" y="59.005"/><use xlink:href="#b" x="32.552" y="59.005"/><use xlink:href="#b" x="37.019" y="59.005"/><use xlink:href="#c" x="42.97" y="59.005"/><path fill="none" stroke="#000" stroke-miterlimit="10" stroke-width=".7942503500000001" d="M97.398 62.816h31.637V74.68H97.398Zm0 0"/><use xlink:href="#a" x="102.373" y="59.005"/><use xlink:href="#b" x="106.841" y="59.005"/><use xlink:href="#b" x="111.308" y="59.005"/><use xlink:href="#c" x="117.259" y="59.005"/><path fill="none" stroke="#000" stroke-miterlimit="10" stroke-width=".7942503500000001" d="M171.688 62.816h31.64V74.68h-31.64Zm0 0"/><g clip-path="url(#d)"><path d="M226.234 68.746a1.58 1.58 0 0 0-1.582-1.578 1.58 1.58 0 1 0 0 3.16 1.58 1.58 0 0 0 1.582-1.582m0 0"/></g><g clip-path="url(#e)"><path fill="none" stroke="#000" stroke-miterlimit="10" stroke-width=".39762345000000004" d="M226.234 68.746a1.58 1.58 0 0 0-1.582-1.578 1.58 1.58 0 1 0 0 3.16 1.58 1.58 0 0 0 1.582-1.582Zm0 0"/></g><use xlink:href="#a" x="176.663" y="59.005"/><use xlink:href="#b" x="181.131" y="59.005"/><use xlink:href="#b" x="185.598" y="59.005"/><use xlink:href="#c" x="191.549" y="59.005"/><path fill="none" stroke="#000" stroke-miterlimit="10" stroke-width=".7942503500000001" d="M97.398 137.105h31.637v11.868H97.398Zm0 0"/><use xlink:href="#f" x="102.373" y="158.781"/><use xlink:href="#g" x="106.841" y="158.781"/><use xlink:href="#b" x="111.308" y="158.781"/><use xlink:href="#c" x="117.259" y="158.781"/><path fill="none" stroke="#000" stroke-miterlimit="10" stroke-width=".39762345000000004" d="M76.07 68.746v24.766m0 0v24.761h21.328m31.637 0h21.328v-8.941m0-31.64v-8.946"/><path stroke="#000" stroke-miterlimit="10" stroke-width=".39762345000000004" d="M77.652 68.746a1.58 1.58 0 0 0-1.582-1.578 1.58 1.58 0 1 0 0 3.16 1.58 1.58 0 0 0 1.582-1.582Zm0 0"/><path fill="none" stroke="#000" stroke-miterlimit="10" stroke-width=".7942503500000001" d="M97.398 112.344h31.637v11.863H97.398Zm0 0"/><use xlink:href="#f" x="102.373" y="108.532"/><use xlink:href="#b" x="106.841" y="108.532"/><use xlink:href="#b" x="111.308" y="108.532"/><use xlink:href="#c" x="117.259" y="108.532"/><path fill="none" stroke="#000" stroke-miterlimit="10" stroke-width=".7942503500000001" d="M156.293 77.691v31.641H144.43v-31.64Zm0 0"/><path stroke="#000" stroke-miterlimit="10" stroke-width=".39762345000000004" d="M151.941 68.746a1.58 1.58 0 1 0-3.161.003 1.58 1.58 0 0 0 3.161-.003Zm0 0"/><use xlink:href="#f" x="158.494" y="95.656"/><use xlink:href="#b" x="162.961" y="95.656"/><use xlink:href="#b" x="167.429" y="95.656"/><use xlink:href="#c" x="173.38" y="95.656"/><path fill="none" stroke="#000" stroke-miterlimit="10" stroke-width=".39762345000000004" d="M150.363 68.746v-8.941m0-31.641v-8.945h21.325m31.64 0h21.324v24.765m0 0v24.762"/><path fill="none" stroke="#000" stroke-miterlimit="10" stroke-width=".7942503500000001" d="M156.293 28.164v31.64H144.43v-31.64Zm0 0"/><use xlink:href="#f" x="158.494" y="46.129"/><use xlink:href="#b" x="162.961" y="46.129"/><use xlink:href="#b" x="167.429" y="46.129"/><use xlink:href="#c" x="173.38" y="46.129"/><path fill="none" stroke="#000" stroke-miterlimit="10" stroke-width=".7942503500000001" d="M171.688 13.289h31.64v11.863h-31.64Zm0 0"/><use xlink:href="#f" x="176.663" y="9.479"/><use xlink:href="#b" x="181.131" y="9.479"/><use xlink:href="#b" x="185.598" y="9.479"/><use xlink:href="#c" x="191.549" y="9.479"/></svg>