<svg xmlns="http://www.w3.org/2000/svg" xmlns:xlink="http://www.w3.org/1999/xlink" width="111.87" height="125.313"><defs><clipPath id="a"><path d="M.242 0H4v4H.242Zm0 0"/></clipPath><clipPath id="b"><path d="M.242 0H10v9H.242Zm0 0"/></clipPath><clipPath id="e"><path d="M30 121h4v3.629h-4Zm0 0"/></clipPath><clipPath id="f"><path d="M25 115h15v9.629H25Zm0 0"/></clipPath><clipPath id="h"><path d="M.242 121H4v3.629H.242Zm0 0"/></clipPath><clipPath id="i"><path d="M.242 115H10v9.629H.242Zm0 0"/></clipPath><path id="c" d="M3.484-5.828c-.203 0-.75.078-1.078.078-.344 0-.687-.016-1.078-.016l-.031.016-.031.188c-.016.03 0 .046.03.046l.329.016c.125.016.313.078.313.297v.078L1.063-.641c-.047.25-.172.36-.547.375l-.22.032C.25-.234.22-.22.22-.172L.172 0l.031.016C.593.016.953 0 1.281 0c.344 0 .688.016 1.094.016L2.406 0l.016-.172c.015-.047-.016-.062-.047-.062l-.219-.032C1.86-.28 1.75-.344 1.75-.53v-.11l.39-1.953c.72 0 .86.125.954.344l.61 1.547c.171.422.468.797.983.797A1 1 0 0 0 5.063.03l.016-.218c-.375 0-.531-.297-.672-.688L3.688-2.75c.39-.125 1.25-.594 1.437-1.531.016-.11.031-.219.031-.328a1.17 1.17 0 0 0-.281-.782c-.328-.406-.844-.437-1.39-.437m-.046.297c.453 0 .968.156.968.89 0 .094-.015.235-.047.375-.203 1.11-.906 1.36-1.734 1.36h-.437l.437-2.219c.047-.25.203-.406.813-.406m0 0"/><path id="d" d="M2.063-.875v-2.469c0-.437 0-.875.015-.969 0-.03-.015-.03-.047-.03-.39.25-.765.421-1.39.718.015.078.03.14.109.188.328-.141.484-.172.61-.172.124 0 .14.172.14.406v2.328c0 .594-.187.625-.687.656-.047.047-.047.188 0 .235C1.156 0 1.422 0 1.813 0c.343 0 .515 0 .859.016.047-.047.047-.188 0-.235-.5-.031-.61-.062-.61-.656m0 0"/><path id="g" d="M.438-3.344c0 .156.14.281.28.281.126 0 .345-.124.345-.28 0-.063-.016-.11-.032-.157-.015-.047-.062-.11-.062-.172 0-.172.187-.437.703-.437.266 0 .625.187.625.875 0 .453-.156.828-.578 1.25l-.532.515C.485-.75.375-.406.375.016c0 0 .36-.016.594-.016h1.25c.219 0 .547.016.547.016.093-.375.172-.922.172-1.125-.032-.047-.126-.047-.204-.047-.125.515-.25.687-.5.687H.97c0-.343.484-.828.531-.86l.719-.687c.406-.39.703-.718.703-1.25 0-.78-.625-1.093-1.203-1.093-.797 0-1.281.593-1.281 1.015m0 0"/><path id="j" d="M1.531-4.11c.313 0 .594.188.594.641 0 .36-.406.906-1.125 1.016l.047.219h.344c.406 0 .937.109.937.906 0 .953-.64 1.156-.89 1.156-.36 0-.438-.172-.516-.297C.844-.579.75-.656.609-.656c-.14 0-.296.14-.296.25 0 .281.593.484 1.03.484.845 0 1.61-.562 1.61-1.5 0-.781-.594-1.062-1.015-1.125v-.015c.578-.282.75-.579.75-.954 0-.218-.047-.39-.22-.562-.155-.156-.405-.281-.78-.281-1.047 0-1.36.687-1.36.922 0 .109.078.25.25.25.25 0 .281-.235.281-.376 0-.453.485-.546.672-.546m0 0"/></defs><path fill="none" stroke="#000" stroke-miterlimit="10" stroke-width=".39682545" d="M2.016 1.777h15.136m0 0h45.403m0 0h30.27"/><g clip-path="url(#a)"><path fill="#FFF" d="M3.594 1.777a1.579 1.579 0 1 0-3.158.002 1.579 1.579 0 0 0 3.158-.002m0 0"/></g><g clip-path="url(#b)"><path fill="none" stroke="#000" stroke-miterlimit="10" stroke-width=".39682545" d="M3.594 1.777a1.579 1.579 0 1 0-3.158.002 1.579 1.579 0 0 0 3.158-.002Zm0 0"/></g><path stroke="#000" stroke-miterlimit="10" stroke-width=".39682545" d="M33.863 1.777a1.579 1.579 0 1 0-3.157.002 1.579 1.579 0 0 0 3.157-.002Zm0 0"/><path fill="none" stroke="#000" stroke-miterlimit="10" stroke-width=".39682545" d="M32.285 1.777v14.48m0 31.575v28.965m0 31.574v14.485H17.152m0 0H2.016"/><path fill="none" stroke="#000" stroke-miterlimit="10" stroke-width=".7926563500000001" d="M26.367 47.832V16.258h11.84v31.574Zm0 0"/><path stroke="#000" stroke-miterlimit="10" stroke-width=".39682545" d="M33.863 1.777a1.579 1.579 0 1 0-3.157.002 1.579 1.579 0 0 0 3.157-.002Zm0 0"/><use xlink:href="#c" x="40.404" y="34.186"/><use xlink:href="#d" x="45.656" y="36.058"/><path fill="none" stroke="#000" stroke-miterlimit="10" stroke-width=".7926563500000001" d="M26.367 108.371V76.797h11.84v31.574Zm0 0"/><g clip-path="url(#e)"><path d="M33.863 122.855a1.579 1.579 0 1 0-3.157.002 1.579 1.579 0 0 0 3.157-.002m0 0"/></g><g clip-path="url(#f)"><path fill="none" stroke="#000" stroke-miterlimit="10" stroke-width=".39682545" d="M33.863 122.856a1.579 1.579 0 1 0-3.157 0 1.579 1.579 0 0 0 3.157 0Zm0 0"/></g><use xlink:href="#c" x="40.404" y="94.724"/><use xlink:href="#g" x="45.656" y="96.596"/><g clip-path="url(#h)"><path fill="#FFF" d="M3.594 122.855a1.579 1.579 0 1 0-3.158.002 1.579 1.579 0 0 0 3.158-.002m0 0"/></g><g clip-path="url(#i)"><path fill="none" stroke="#000" stroke-miterlimit="10" stroke-width=".39682545" d="M3.594 122.856a1.579 1.579 0 1 0-3.158 0 1.579 1.579 0 0 0 3.158 0Zm0 0"/></g><path fill="none" stroke="#000" stroke-miterlimit="10" stroke-width=".39682545" d="M32.285 122.856h30.27m0 0h30.27V78.102m0-31.575V1.777"/><path fill="none" stroke="#000" stroke-miterlimit="10" stroke-width=".7926563500000001" d="M98.746 46.527v31.575h-11.84V46.527Zm0 0"/><use xlink:href="#c" x="100.942" y="64.455"/><use xlink:href="#j" x="106.194" y="66.327"/></svg>