<svg xmlns="http://www.w3.org/2000/svg" width="113.587" height="57.79"><defs><clipPath id="a"><path d="M0 0h63v57.582H0Zm0 0"/></clipPath><clipPath id="b"><path d="M50 0h63.176v57.582H50Zm0 0"/></clipPath><clipPath id="c"><path d="M55 28h3v29.582h-3Zm0 0"/></clipPath></defs><g clip-path="url(#a)"><path fill="none" stroke="#000" stroke-miterlimit="10" stroke-width=".39755562000000005" d="M56.59 28.79C56.59 13.218 43.965.593 28.395.593 12.82.594.199 13.219.199 28.789c0 15.574 12.621 28.195 28.196 28.195 15.57 0 28.195-12.62 28.195-28.195Zm0 0"/></g><g clip-path="url(#b)"><path fill="none" stroke="#000" stroke-miterlimit="10" stroke-width=".39755562000000005" d="M112.977 28.79c0-15.571-12.622-28.196-28.192-28.196-15.574 0-28.195 12.625-28.195 28.195 0 15.574 12.62 28.195 28.195 28.195 15.57 0 28.192-12.62 28.192-28.195Zm0 0"/></g><path fill="none" stroke="#000" stroke-miterlimit="10" stroke-width="1.19167048" d="M56.59 28.79V.593"/><g clip-path="url(#c)"><path fill="none" stroke="#000" stroke-miterlimit="10" stroke-width="1.19167048" d="M56.59 28.79v28.194"/></g></svg>