<svg xmlns="http://www.w3.org/2000/svg" xmlns:xlink="http://www.w3.org/1999/xlink" width="226.771" height="146.601"><defs><path id="c" d="m.422-.453 1.516-1.734q.874-1.015.875-2c0-.833-.305-1.25-.907-1.25q-.345 0-.703.187a3.3 3.3 0 0 0-.125.875q-.11.017-.203.016-.422 0-.422-.344 0-.545.422-.875.42-.342 1.156-.344.715 0 1.172.422.451.408.453 1.156 0 .675-.422 1.36-.268.44-.906 1.125L1.344-.797v.016h2.031l.188-.781a.5.5 0 0 1 .187-.032q.234.002.234.344c0 .242-.03.656-.093 1.25H.5Zm0 0"/><path id="d" d="M.89-.922q.248.002.407.203.17.204.172.578 0 .592-.375.985c-.211.226-.414.344-.61.344-.093 0-.164-.086-.203-.25q.574-.3.61-.891a.5.5 0 0 1-.344-.125.47.47 0 0 1-.14-.344c0-.156.038-.273.124-.36a.48.48 0 0 1 .36-.14m0 0"/><path id="e" d="M.484-4.656q0-.56.063-1.157h3.578a.3.3 0 0 1 .047.188c0 .125-.04.262-.11.406L1.704 0h-.656l2.406-5.062H1.078l-.14.75a.46.46 0 0 1-.204.046q-.251 0-.25-.39m0 0"/><path id="f" d="M.828-.469v-5.468l-.656-.094a.16.16 0 0 1-.016-.078q0-.247.328-.266l1.063-.11V-2.5h.531l1.203-1.375L2.656-4a.3.3 0 0 1-.015-.078q-.001-.218.25-.219h1.437c.07 0 .11.031.11.094A.5.5 0 0 1 4.375-4l-.516.156L2.594-2.39 4.109-.453l.454.11q.124.015.125.109A.4.4 0 0 1 4.609 0H3.453l-1.5-2.047h-.406v1.594L2-.343q.124.015.125.109A.35.35 0 0 1 2.031 0H.22v-.062c0-.133.086-.235.265-.297Zm0 0"/><path id="g" d="M6.125-3.484q-.001.926-.547 1.734-.486.69-1.156 1.047v.172h1.187l.141-.719a.44.44 0 0 1 .203-.047q.282.001.281.406-.002.365-.062.891H3.859v-.89c.977-.5 1.47-1.376 1.47-2.626Q5.327-4.545 4.78-5.14q-.534-.609-1.39-.609c-.563 0-1.024.2-1.375.594-.368.418-.547.968-.547 1.656q-.001.862.343 1.531.387.72 1.126 1.078V0H.624a10 10 0 0 1-.047-.89c0-.27.086-.407.266-.407q.107 0 .203.047l.14.719h1.204v-.156c-.43-.188-.809-.524-1.141-1.016a2.98 2.98 0 0 1-.594-1.781q-.001-1.203.766-2 .78-.797 1.969-.797 1.218 0 1.968.781c.508.512.766 1.184.766 2.016m0 0"/><clipPath id="a"><path d="M.195 78H7v34H.195Zm0 0"/></clipPath><clipPath id="b"><path d="M35 141h13v5.203H35Zm0 0"/></clipPath></defs><path fill="none" stroke="#000" stroke-miterlimit="10" stroke-width=".39791871" d="M6.367 129.977v-19.278m0-31.66V59.762h17.555m0 0h35.105m0 0h17.555V90.91m0 7.918v31.149H59.027m0 0H23.922m0 0H6.367"/><g clip-path="url(#a)"><path fill="none" stroke="#000" stroke-linejoin="bevel" stroke-miterlimit="10" stroke-width=".7948401300000001" d="M6.527 111.098c-3.277 0-5.937-1.817-5.937-4.059 0-2.238 2.66-4.055 5.937-4.055-3.277 0-5.937-1.816-5.937-4.058 0-2.239 2.66-4.059 5.937-4.059-3.277 0-5.937-1.816-5.937-4.055 0-2.242 2.66-4.058 5.937-4.058-3.277 0-5.937-1.817-5.937-4.055 0-2.242 2.66-4.058 5.937-4.058"/></g><path stroke="#000" stroke-miterlimit="10" stroke-width=".39791871" d="M43.059 59.762c0-.871-.711-1.582-1.582-1.582-.875 0-1.586.71-1.586 1.582 0 .875.71 1.586 1.586 1.586.87 0 1.582-.711 1.582-1.586Zm0 0"/><path fill="none" stroke="#000" stroke-miterlimit="10" stroke-width=".39791871" d="M41.277 59.762V.398"/><path fill="none" stroke="#000" stroke-miterlimit="10" stroke-width=".7948401300000001" d="M41.277.398h9.895l-9.895 19.786L31.383.398h9.894"/><path stroke="#000" stroke-miterlimit="10" stroke-width=".39791871" d="M78.164 59.762a1.583 1.583 0 1 0-3.166.001 1.583 1.583 0 0 0 3.166-.001Zm0 0"/><path fill="none" stroke="#000" stroke-miterlimit="10" stroke-width=".7948401300000001" d="M88.453 98.828H64.707m23.746-7.918H64.707M64.707 106.742 85.199 86.25"/><path stroke="#000" stroke-miterlimit="10" stroke-width=".7948162200000001" d="M87.89 83.559 83.8 84.57l3.079 3.078Zm0 0"/><path stroke="#000" stroke-miterlimit="10" stroke-width=".39791871" d="M78.164 129.977c0-.875-.707-1.586-1.582-1.586a1.584 1.584 0 0 0 0 3.168c.875 0 1.582-.711 1.582-1.582ZM43.059 129.977c0-.875-.711-1.586-1.582-1.586-.875 0-1.586.71-1.586 1.586 0 .87.71 1.582 1.586 1.582.87 0 1.582-.711 1.582-1.582Zm0 0"/><path fill="none" stroke="#000" stroke-miterlimit="10" stroke-width=".39791871" d="M41.477 129.977v11.87"/><g clip-path="url(#b)"><path fill="none" stroke="#000" stroke-miterlimit="10" stroke-width=".7948401300000001" d="M35.54 141.848h11.87m-9.894 1.98h7.918M39 145.805h4.95"/></g><path fill="none" stroke="#000" stroke-miterlimit="10" stroke-width=".39791871" d="M76.582 59.762h44.742m15.832 0h44.742v19.277m0 31.66v19.278h-52.656m0 0h-52.66"/><path fill="none" stroke="#000" stroke-miterlimit="10" stroke-width=".7948401300000001" d="m137.156 59.762-15.832-9.895v19.79Zm0 0"/><path fill="none" stroke="#000" stroke-miterlimit="10" stroke-width=".39791871" d="M137.156 59.762h-15.832"/><path fill="none" stroke="#000" stroke-miterlimit="10" stroke-width=".7948401300000001" d="M137.156 69.656V49.867M175.961 110.7V79.038h12.27v31.66Zm12.27-23.747 9.5-4.75v25.332l-9.5-4.75Zm0 0"/><use xlink:href="#c" x="200.92" y="97.015"/><use xlink:href="#d" x="205.391" y="97.015"/><use xlink:href="#e" x="207.242" y="97.015"/><use xlink:href="#f" x="213.198" y="97.015"/><use xlink:href="#g" x="217.937" y="97.015"/></svg>