<svg xmlns="http://www.w3.org/2000/svg" xmlns:xlink="http://www.w3.org/1999/xlink" width="223.641" height="162.651"><defs><path id="b" d="M.922-4.297v-.047q-.001-.996.484-1.593.422-.53 1.032-.532.528 0 .53.422a.44.44 0 0 1-.155.328 1.16 1.16 0 0 0-.579-.156q-.328.001-.468.172c-.086.117-.125.312-.125.594v.812h1.218l-.093.469H1.64v3.36l.64.124q.124.017.125.11A.35.35 0 0 1 2.312 0H.329a.1.1 0 0 1-.016-.062c0-.133.094-.235.282-.297l.328-.11v-3.36H.234v-.062q0-.233.282-.296Zm0 0"/><path id="c" d="m.422-.453 1.516-1.734q.874-1.015.875-2 0-1.25-.891-1.25-.362 0-.719.171-.112.365-.125.891-.11.017-.203.016-.422.002-.422-.36 0-.545.422-.875.42-.328 1.156-.328.715.001 1.172.406.451.41.453 1.172 0 .675-.422 1.36-.27.44-.89 1.125L1.359-.797v.016h2.032l.187-.781a.44.44 0 0 1 .188-.032q.217.002.218.344c0 .242-.03.656-.093 1.25H.5Zm0 0"/><path id="d" d="M1.39-3.156c1.008-.125 1.516-.531 1.516-1.219Q2.905-5.436 2-5.437q-.41 0-.703.187a3 3 0 0 0-.11.828 1.4 1.4 0 0 1-.218.016c-.281 0-.422-.117-.422-.36q-.001-.513.437-.828.45-.328 1.188-.328.714 0 1.125.375.422.376.422 1.016 0 .628-.422 1.015-.299.284-.906.485V-3q.715.094 1.109.469.389.361.39.922 0 .737-.562 1.234Q2.78.11 1.891.109C1.41.11 1.05.012.813-.17A.61.61 0 0 1 .53-.688c0-.258.133-.442.407-.547q.14.363.28.515.295.328.829.328c.664 0 1-.351 1-1.062 0-.738-.555-1.149-1.656-1.234Zm0 0"/><path id="e" d="M5.844-6.172c.008.024.015.047.015.078q0 .253-.312.313l-.234.062L3.28 0h-.734L.453-5.719l-.375-.093q-.124-.029-.125-.11c0-.05.035-.133.094-.25h2v.078c0 .157-.102.262-.297.313l-.375.078 1.64 4.797h.016L4.734-5.72l-.687-.11q-.127-.029-.125-.093 0-.075.094-.25Zm0 0"/><path id="f" d="M4.516-6.172c.039.5.062.852.062 1.047 0 .262-.086.39-.25.39a.6.6 0 0 1-.203-.03l-.219-.938H1.875v2.453h2v.5h-2V-.5l.719.14q.124.018.125.094c0 .032-.04.121-.11.266H.422a.16.16 0 0 1-.016-.078Q.404-.324.72-.406L1.094-.5v-5.203l-.547-.125c-.086-.02-.125-.05-.125-.094q0-.075.094-.25Zm0 0"/><path id="g" d="M3.281-.39q.903 0 1.438-.72c.351-.476.531-1.14.531-1.984q-.001-1.23-.547-1.953a1.75 1.75 0 0 0-1.469-.734c-.593 0-1.07.242-1.421.718q-.516.721-.516 1.97c0 .843.176 1.507.531 1.984q.528.719 1.453.718m-.047.5Q2 .11 1.25-.704q-.783-.855-.781-2.39 0-1.514.844-2.376.778-.81 2.015-.812 1.264.002 2 .812c.508.563.766 1.356.766 2.375q0 1.518-.844 2.39-.784.815-2.016.813m0 0"/><path id="h" d="M2.672-2.781q0-.594-.188-.875-.175-.281-.609-.281-.281 0-.516.093c-.086.156-.156.422-.218.797H.953q-.438 0-.437-.375 0-.406.468-.687a1.9 1.9 0 0 1 1.032-.297c.914 0 1.375.508 1.375 1.515v1.954c0 .343.101.515.312.515a.48.48 0 0 0 .328-.11q.077.112.078.25c0 .063-.054.134-.156.204a.94.94 0 0 1-.547.156q-.61 0-.687-.61h-.016Q2.282.112 1.484.11.97.11.656-.203.343-.514.344-1.031c0-.438.219-.774.656-1.016.383-.207.86-.312 1.422-.312h.25ZM1.766-.453q.514 0 .906-.469v-1.031l-.25.016q-1.299.11-1.297.812c0 .45.21.672.64.672m0 0"/><clipPath id="a"><path d="M.059 58H29v29H.059Zm0 0"/></clipPath><clipPath id="i"><path d="M205 152h16v10.305h-16Zm0 0"/></clipPath></defs><g clip-path="url(#a)"><path fill="none" stroke="#000" stroke-miterlimit="10" stroke-width=".7952944200000001" d="M.457 58.422h27.719v27.723H.457Zm0 0"/></g><path fill="none" stroke="#000" stroke-miterlimit="10" stroke-width=".39814614" d="M7.387 65.352c1.129-1.774 2.21-3.465 3.465-3.465 1.253 0 2.336 1.691 3.464 3.465 1.13 1.773 2.211 3.464 3.465 3.464s2.336-1.687 3.465-3.464M7.387 72.281c1.129-1.773 2.21-3.465 3.465-3.465 1.253 0 2.336 1.692 3.464 3.465 1.13 1.778 2.211 3.465 3.465 3.465s2.336-1.687 3.465-3.465M7.387 79.215c1.129-1.777 2.21-3.469 3.465-3.469 1.253 0 2.336 1.692 3.464 3.469 1.13 1.773 2.211 3.465 3.465 3.465s2.336-1.692 3.465-3.465M28.176 72.281h14.508m0 0H57.19"/><path d="M52.984 72.281v1.98l4.207-1.98-4.207-1.976Zm0 0"/><path fill="none" stroke="#000" stroke-miterlimit="10" stroke-width=".7952944200000001" d="M57.191 58.422h27.72v27.723H57.19Zm0 0"/><path fill="none" stroke="#000" stroke-miterlimit="10" stroke-width=".39814614" d="m57.191 86.145 27.72-27.723"/><use xlink:href="#b" x="63.329" y="69.276"/><use xlink:href="#c" x="72.819" y="81.75"/><use xlink:href="#b" x="78.778" y="81.75"/><path fill="none" stroke="#000" stroke-miterlimit="10" stroke-width=".39814614" d="M84.91 72.281h14.508m0 0h14.504"/><path d="M109.715 72.281v1.98l4.207-1.98-4.207-1.976Zm0 0"/><path fill="none" stroke="#000" stroke-miterlimit="10" stroke-width=".7952944200000001" d="M113.922 58.422h27.723v27.723h-27.723Zm0 0"/><path fill="none" stroke="#000" stroke-miterlimit="10" stroke-width=".39814614" d="m113.922 86.145 27.723-27.723"/><use xlink:href="#b" x="120.061" y="69.276"/><use xlink:href="#c" x="129.551" y="81.75"/><use xlink:href="#b" x="135.51" y="81.75"/><path fill="none" stroke="#000" stroke-miterlimit="10" stroke-width=".39814614" d="M141.645 72.281h14.503m0 0h14.508"/><path d="M166.45 72.281v1.98l4.206-1.98-4.207-1.976Zm0 0"/><path fill="none" stroke="#000" stroke-miterlimit="10" stroke-width=".7952944200000001" d="M170.656 58.422h27.719v27.723h-27.719Zm0 0"/><path fill="none" stroke="#000" stroke-miterlimit="10" stroke-width=".39814614" d="m170.656 86.145 27.723-27.723"/><use xlink:href="#b" x="176.793" y="69.276"/><use xlink:href="#c" x="186.284" y="81.75"/><use xlink:href="#b" x="192.243" y="81.75"/><path fill="none" stroke="#000" stroke-miterlimit="10" stroke-width=".39814614" d="M198.379 72.281h7.25m0 0h7.254"/><path fill="#FFF" stroke="#000" stroke-miterlimit="10" stroke-width=".39814614" d="M214.469 72.281a1.583 1.583 0 1 0-3.17.002 1.583 1.583 0 0 0 3.17-.002Zm0 0"/><path fill="none" stroke="#000" stroke-miterlimit="10" stroke-width=".39814614" d="M99.418 72.281V43.27m0 0V14.258"/><path stroke="#000" stroke-miterlimit="10" stroke-width=".39814614" d="M101 72.281a1.583 1.583 0 1 0-3.166.002 1.583 1.583 0 0 0 3.166-.002Zm0 0"/><path fill="none" stroke="#000" stroke-miterlimit="10" stroke-width=".39814614" d="M160.504 72.281V43.27m0 0V14.258v79.785h52.379M99.418 14.258h16.68m27.722 0h16.684"/><path fill="none" stroke="#000" stroke-miterlimit="10" stroke-width=".7952944200000001" d="M116.098.398h27.722v27.72h-27.722Zm0 0"/><path d="M111.89 14.258v1.98l4.208-1.98-4.207-1.98Zm0 0"/><path fill="none" stroke="#000" stroke-miterlimit="10" stroke-width=".39814614" d="M116.098 28.117 143.82.398"/><use xlink:href="#b" x="122.236" y="11.251"/><use xlink:href="#d" x="131.728" y="23.671"/><use xlink:href="#b" x="137.687" y="23.671"/><path fill="none" stroke="#000" stroke-miterlimit="10" stroke-width=".39814614" d="M151.797 72.281v43.52h61.086"/><path stroke="#000" stroke-miterlimit="10" stroke-width=".39814614" d="M153.383 72.281c0-.87-.711-1.582-1.586-1.582-.871 0-1.582.711-1.582 1.582 0 .875.71 1.586 1.582 1.586.875 0 1.586-.71 1.586-1.586Zm0 0"/><path fill="none" stroke="#000" stroke-miterlimit="10" stroke-width=".39814614" d="M99.418 72.281v65.282h113.465"/><path fill="none" stroke="#000" stroke-miterlimit="10" stroke-width=".39814614" d="M42.684 72.281v87.04h170.199"/><path stroke="#000" stroke-miterlimit="10" stroke-width=".39814614" d="M44.27 72.281a1.583 1.583 0 1 0-3.17.002 1.583 1.583 0 0 0 3.17-.002Zm0 0"/><use xlink:href="#e" x="5.751" y="95.605"/><use xlink:href="#f" x="11.549" y="95.605"/><use xlink:href="#g" x="16.336" y="95.605"/><path fill="#FFF" stroke="#000" stroke-miterlimit="10" stroke-width=".39814614" d="M214.469 94.043a1.584 1.584 0 1 0-3.168-.004 1.584 1.584 0 0 0 3.168.004Zm0 0"/><use xlink:href="#h" x="216.062" y="96.19"/><path fill="#FFF" stroke="#000" stroke-miterlimit="10" stroke-width=".39814614" d="M214.469 115.8a1.584 1.584 0 1 0-3.168.004 1.584 1.584 0 0 0 3.168-.003ZM214.469 137.563a1.584 1.584 0 1 0-3.168-.004 1.584 1.584 0 0 0 3.168.004Zm0 0"/><path fill="#FFF" d="M214.469 159.32a1.584 1.584 0 1 0-3.168.004 1.584 1.584 0 0 0 3.168-.004m0 0"/><g clip-path="url(#i)"><path fill="none" stroke="#000" stroke-miterlimit="10" stroke-width=".39814614" d="M214.469 159.32a1.584 1.584 0 1 0-3.168.004 1.584 1.584 0 0 0 3.168-.004Zm0 0"/></g></svg>