<svg xmlns="http://www.w3.org/2000/svg" xmlns:xlink="http://www.w3.org/1999/xlink" width="113.386" height="99.513"><defs><path id="b" d="M2.484-3.031h1.547v.469H2.484v1.671h-.5v-1.671H.422v-.47h1.562v-1.64h.5Zm0 0"/><path id="c" d="M1.125-5.797h2.547l-.047.781H1.531l-.125 1.407q1.296.046 1.875.547.546.455.547 1.374a1.7 1.7 0 0 1-.547 1.266Q2.75.111 1.906.11 1.168.108.828-.156a.61.61 0 0 1-.281-.516q0-.405.39-.547.171.376.282.5.311.328.828.328.527 0 .844-.328c.195-.207.297-.476.297-.812q0-.732-.563-1.047-.563-.328-1.781-.328Zm0 0"/><path id="d" d="M.89-.922q.248.002.407.203.17.204.172.578 0 .592-.375.985-.316.328-.61.328c-.093 0-.164-.078-.203-.234q.574-.3.61-.891a.5.5 0 0 1-.344-.125.47.47 0 0 1-.14-.344c0-.156.038-.273.124-.36a.48.48 0 0 1 .36-.14m0 0"/><path id="e" d="M3.688-4.766a.95.95 0 0 0-.329-.406 1.16 1.16 0 0 0-.734-.25c-.906 0-1.398.79-1.469 2.36q.516-.406 1.219-.407.762 0 1.219.375.499.423.5 1.25-.001.798-.5 1.36c-.356.398-.809.593-1.36.593-.617 0-1.086-.257-1.406-.78Q.36-1.407.36-2.72q-.002-1.25.594-2.14c.445-.696 1.063-1.047 1.844-1.047.406 0 .726.074.969.218q.328.189.328.454-.001.375-.407.468M1.156-2.609Q1.17-1.484 1.5-.922c.195.356.469.531.813.531q.435.001.718-.343.296-.359.297-1.016-.001-1.219-1.015-1.219-.751 0-1.157.36m0 0"/><path id="f" d="M5.828-6.156v.078q-.002.252-.297.328l-.234.047L3.28 0h-.734L.453-5.687l-.375-.11q-.124-.014-.125-.11c0-.05.035-.132.094-.25H2.03c.008.024.016.048.016.079q-.001.253-.313.312l-.375.079L3-.907h.031L4.72-5.702l-.688-.11q-.127-.011-.125-.093 0-.075.094-.25Zm0 0"/><path id="g" d="M2.234-.39q1.092.001 1.094-2.516c0-1.664-.367-2.5-1.094-2.5-.73 0-1.093.836-1.093 2.5 0 1.68.363 2.515 1.093 2.515m-.046.5q-.862 0-1.36-.75Q.296-1.42.297-2.907c0-.977.187-1.735.562-2.266.352-.488.829-.734 1.422-.734q.873.001 1.36.734c.343.531.515 1.29.515 2.266q0 1.487-.562 2.265-.516.75-1.406.75m0 0"/><path id="h" d="m.422-.453 1.5-1.719q.89-1.015.89-2-.001-1.249-.906-1.25-.363.001-.703.172-.112.364-.125.89-.11.017-.203.016c-.281 0-.422-.117-.422-.36q0-.544.422-.874.42-.328 1.156-.328.715 0 1.172.422.451.409.453 1.14 0 .691-.422 1.36-.268.44-.906 1.125L1.344-.797v.016h2.031l.188-.766q.058-.047.187-.047.218 0 .219.36 0 .344-.094 1.234H.5Zm0 0"/><clipPath id="a"><path d="M66 23h46.773v53H66Zm0 0"/></clipPath></defs><g clip-path="url(#a)"><path fill="none" stroke="#000" stroke-miterlimit="10" stroke-width=".79270417" d="M106.52 49.246c0 8.086-6.551 14.64-14.637 14.64s-14.637-6.554-14.637-14.64c0-8.082 6.55-14.637 14.637-14.637s14.637 6.555 14.637 14.637Zm0 0"/></g><path fill="none" stroke="#000" stroke-miterlimit="10" stroke-width=".39684939" d="M98.559 71.156V57.93l-11.84-5.426"/><path fill="none" stroke="#000" stroke-miterlimit="10" stroke-width=".79270417" d="M86.719 57.93V40.563"/><path fill="none" stroke="#000" stroke-miterlimit="10" stroke-width=".39684939" d="m86.719 45.992 11.84-5.43V27.34"/><path d="m94.39 56.02.946-2.067-5.566-.05 3.671 4.183Zm0 0"/><path fill="none" stroke="#000" stroke-miterlimit="10" stroke-width=".39684939" d="M86.719 49.246h-12.04M74.875 49.246h-17.84"/><use xlink:href="#b" x="2.972" y="51.735"/><use xlink:href="#c" x="7.431" y="51.735"/><use xlink:href="#d" x="11.89" y="51.735"/><use xlink:href="#e" x="13.736" y="51.735"/><use xlink:href="#f" x="19.675" y="51.735"/><use xlink:href="#g" x="92.696" y="9.152"/><use xlink:href="#f" x="98.635" y="9.152"/><use xlink:href="#b" x="87.314" y="94.853"/><use xlink:href="#e" x="91.773" y="94.853"/><use xlink:href="#d" x="96.232" y="94.853"/><use xlink:href="#h" x="98.078" y="94.853"/><use xlink:href="#f" x="104.018" y="94.853"/></svg>