<svg xmlns="http://www.w3.org/2000/svg" width="118.19" height="85.437"><defs><clipPath id="a"><path d="M108 35h9.387v15H108Zm0 0"/></clipPath><clipPath id="b"><path d="M8 3h1v81.867H8Zm0 0"/></clipPath><clipPath id="c"><path d="M6 .012h4V4H6Zm0 0"/></clipPath><clipPath id="d"><path d="M0 .012h16V10H0Zm0 0"/></clipPath><clipPath id="e"><path d="M8.246 3H113v46H8.246Zm0 0"/></clipPath></defs><path fill="none" stroke="#000" stroke-miterlimit="10" stroke-width=".39628281000000004" d="M8.246 42.438h105.496"/><path d="m116.793 42.438-2.953-1.75v3.503Zm0 0"/><g clip-path="url(#a)"><path fill="none" stroke="#000" stroke-miterlimit="10" stroke-width=".39628281000000004" d="m116.793 42.437-2.953-1.75v3.504Zm0 0"/></g><g clip-path="url(#b)"><path fill="none" stroke="#000" stroke-miterlimit="10" stroke-width=".39628281000000004" d="M8.246 84.668V3.656"/></g><g clip-path="url(#c)"><path d="M8.246.605 6.496 3.56h3.5Zm0 0"/></g><g clip-path="url(#d)"><path fill="none" stroke="#000" stroke-miterlimit="10" stroke-width=".39628281000000004" d="M8.246.605 6.496 3.56h3.5Zm0 0"/></g><g clip-path="url(#e)"><path fill="none" stroke="#000" stroke-miterlimit="10" stroke-width=".39628281000000004" d="m8.246 42.438.2-.637.199-.637a129.205 129.205 0 0 0 .395-1.277c.054-.176.144-.457.198-.633l.2-.637c.054-.176.144-.457.199-.633.054-.175.14-.457.199-.632.055-.172.14-.454.195-.63.055-.171.145-.452.2-.628l.199-.625c.054-.172.144-.45.199-.621l.2-.621.194-.618c.059-.171.145-.445.2-.613.054-.172.144-.441.199-.613l.2-.606.198-.605c.055-.164.14-.434.196-.598.058-.168.144-.433.199-.597l.2-.59c.054-.164.144-.422.198-.586l.2-.582c.054-.16.14-.418.199-.574.054-.16.14-.415.195-.57.055-.16.145-.41.2-.567.054-.156.144-.406.198-.563l.2-.55c.054-.153.14-.399.199-.551.055-.149.14-.39.195-.54l.2-.534c.054-.149.144-.383.199-.532.054-.144.144-.375.199-.52l.2-.515.194-.508c.059-.136.145-.359.2-.5l.199-.492.2-.484c.054-.133.144-.344.198-.477.055-.129.14-.34.196-.469.058-.128.144-.332.199-.46.054-.125.144-.325.199-.45s.145-.324.2-.445c.054-.121.144-.313.198-.434.055-.12.141-.308.2-.425l.195-.418.2-.407c.054-.113.144-.289.198-.398s.145-.281.2-.387c.054-.11.144-.277.199-.379.055-.105.14-.27.195-.37.059-.102.145-.262.2-.36.054-.098.144-.254.199-.348.054-.097.144-.246.199-.34.055-.093.144-.238.2-.328.054-.09.14-.234.194-.32.059-.086.145-.223.2-.309l.199-.297.199-.285c.055-.078.145-.203.2-.277.054-.074.14-.191.198-.266l.196-.254.199-.242a11.094 11.094 0 0 1 .398-.45c.055-.061.141-.151.2-.21.054-.055.14-.144.195-.195a8.033 8.033 0 0 1 .398-.363c.055-.047.145-.118.2-.16.054-.048.144-.114.199-.153.055-.04.14-.102.195-.14.059-.036.145-.094.2-.13l.199-.113c.054-.031.144-.078.199-.105.054-.028.144-.067.199-.09.055-.027.14-.063.195-.082.059-.02.145-.05.2-.067.054-.02.144-.043.199-.058l.199-.043a3.13 3.13 0 0 1 .594-.059c.054-.004.144 0 .199.004.055 0 .144.008.2.016.054.004.144.015.198.027.055.008.141.027.2.04.054.01.14.034.195.05.055.02.144.047.2.066l.198.075c.055.023.145.062.2.09.054.027.144.07.199.101.054.027.14.078.195.11.059.035.145.09.2.124l.199.137c.054.04.144.102.199.145.054.043.144.113.199.16s.14.12.195.172c.059.047.145.129.2.18l.199.195a10 10 0 0 1 .398.422c.055.062.14.164.2.226l.195.238c.054.07.144.18.199.25.055.075.144.188.2.262.054.074.144.195.198.274.055.078.141.203.2.285.054.078.14.207.195.293l.2.304.198.313c.055.09.145.234.2.328.054.09.144.238.199.336l.195.344c.059.097.145.257.2.355.054.102.144.266.199.367l.199.375.199.387c.055.106.14.281.195.395.059.109.145.289.2.402.054.113.144.297.199.414.054.117.144.305.199.422l.2.433c.054.122.14.317.198.442.055.121.141.32.196.45.054.124.144.327.199.456l.2.465c.054.129.144.34.198.473s.141.347.2.484l.195.488c.055.137.144.36.2.496l.198.508c.055.14.145.367.2.512l.199.52.195.523c.059.148.145.387.2.535.054.148.144.387.198.54l.2.546.199.55c.055.153.14.403.195.56.059.156.145.406.2.562l.199.57.199.574.2.578c.054.165.14.422.198.586l.196.59.199.594.2.598c.054.168.144.433.198.601s.14.438.2.606l.195.61c.055.171.144.444.2.612.054.172.144.446.198.618l.2.62c.054.173.144.45.199.622.054.172.14.453.195.625.059.172.145.453.2.629.054.172.144.453.198.629l.2.628c.054.176.144.457.199.633s.14.457.2.637l.194.633.2.637.199.636c.055.18.144.461.2.637.054.18.14.582.198.64.055.06.14-.093.196-.214.054-.117.144-.461.199-.637l.2-.637.198-.636.2-.637c.054-.176.14-.461.195-.637.058-.176.144-.457.199-.633l.2-.632c.054-.176.144-.454.198-.63l.2-.628c.054-.176.14-.453.195-.625.059-.176.145-.453.2-.625l.198-.621.2-.618c.054-.171.144-.445.199-.617s.14-.441.2-.613l.194-.61.2-.601c.054-.168.144-.437.199-.602.055-.168.144-.433.2-.597.054-.164.14-.43.198-.594.055-.164.14-.422.196-.586.054-.164.144-.422.199-.582.054-.164.144-.418.199-.578l.2-.574.198-.567.196-.562c.058-.156.144-.403.199-.555.055-.156.145-.398.2-.55.054-.153.144-.395.198-.544.055-.152.145-.39.2-.539l.195-.53c.059-.145.144-.38.2-.524.054-.145.144-.375.198-.516.055-.145.145-.371.2-.512.054-.14.144-.363.199-.5.055-.14.14-.36.2-.496l.194-.488.2-.477c.054-.132.144-.343.199-.472.054-.13.144-.336.199-.465.055-.125.14-.328.2-.453.054-.125.14-.324.195-.446.054-.125.144-.316.199-.437a42.541 42.541 0 0 1 .598-1.258c.054-.113.14-.293.195-.402.058-.11.144-.285.199-.39.055-.11.144-.278.2-.384.054-.105.144-.273.198-.375s.145-.261.2-.359c.054-.102.14-.258.195-.356.059-.093.144-.246.2-.34.054-.093.144-.242.198-.331.055-.094.145-.235.2-.325l.199-.312c.054-.082.14-.219.199-.3.055-.083.14-.212.195-.29a17 17 0 0 1 .399-.547c.054-.074.144-.187.199-.258.055-.07.14-.18.2-.246l.195-.238c.054-.063.144-.16.199-.223.054-.058.144-.156.199-.21.055-.06.144-.149.2-.204.054-.054.144-.136.198-.191.055-.05.141-.129.196-.176.058-.047.144-.121.199-.168l.2-.156c.054-.04.144-.106.198-.14a6 6 0 0 1 .395-.255c.058-.03.144-.078.2-.105.054-.031.144-.07.198-.098.055-.023.145-.062.2-.082a2.965 2.965 0 0 1 .398-.133c.055-.015.14-.039.195-.05a4 4 0 0 1 .399-.059c.054-.004.144-.012.199-.012.055-.004.14-.004.2 0 .054 0 .14.008.194.012a4 4 0 0 1 .399.059c.055.011.144.035.2.05.054.016.144.04.198.059.055.02.141.05.196.074.058.02.144.059.199.082.055.028.144.067.2.098.054.027.144.074.198.105a5 5 0 0 1 .395.254c.058.035.144.102.2.14l.198.157.2.168c.054.047.144.125.199.176.054.055.14.137.199.191.055.055.14.145.195.203.055.055.145.153.2.211.054.063.144.16.199.223l.199.238.2.246c.054.07.14.184.194.258.059.07.145.192.2.27a17 17 0 0 1 .398.566l.2.3c.054.087.14.227.195.313.058.09.144.23.199.325l.2.332.198.34c.055.097.145.253.2.355.054.098.14.258.199.36.054.1.14.269.195.374.055.106.145.274.2.383.054.106.144.281.198.39l.2.403c.054.11.14.293.199.41.055.114.14.301.195.418s.145.309.2.43c.054.121.144.312.199.437.054.122.144.32.199.446l.2.453.194.465c.059.129.145.34.2.472l.199.477c.055.137.144.351.2.488.054.137.144.356.198.496.055.137.14.36.196.5.058.14.144.367.199.512l.199.516.2.523c.054.149.144.383.198.531s.141.387.2.54l.195.542c.055.153.145.395.2.551.054.152.144.399.198.555l.2.562c.054.157.14.41.199.567l.195.574c.055.16.145.414.2.578.054.16.144.418.199.582.054.164.144.422.199.586l.2.594.194.597c.059.165.145.434.2.602l.199.602.199.609c.055.172.145.441.2.613.054.172.14.446.195.614.058.171.144.449.199.62l.199.622c.055.172.145.449.2.625.054.172.144.449.198.625.055.175.141.453.2.629l.195.629.2.632c.054.176.144.457.198.633l.2.637c.054.176.14.46.199.637.055.175.14.46.195.636l.2.637c.054.176.144.52.199.637.054.12.144.273.199.215s.144-.461.199-.641c.055-.176.14-.457.195-.637.059-.176.145-.46.2-.636l.199-.637c.054-.176.144-.457.199-.633.055-.18.145-.461.2-.637l.195-.633c.058-.175.144-.457.199-.628.054-.176.144-.457.199-.63l.2-.628.198-.625c.055-.172.141-.45.2-.621.054-.172.14-.45.195-.621l.2-.618c.054-.168.144-.441.198-.613l.2-.61c.054-.167.14-.437.199-.605l.195-.601c.055-.168.145-.434.2-.598l.199-.594c.054-.164.144-.426.199-.59.054-.164.144-.421.199-.586l.195-.578c.059-.16.145-.418.2-.574.054-.16.144-.414.199-.57.054-.156.144-.406.199-.563l.2-.558c.054-.153.14-.399.195-.551.058-.152.144-.395.199-.547.054-.152.144-.39.199-.539l.2-.535.198-.524c.055-.144.141-.378.2-.52.054-.144.14-.37.195-.51l.2-.509.198-.496.2-.488c.054-.137.14-.352.199-.484.054-.133.14-.344.195-.473l.2-.465c.054-.129.144-.332.199-.457.054-.129.144-.328.199-.45.054-.124.144-.32.199-.44l.195-.434c.059-.117.145-.305.2-.422.054-.117.144-.3.199-.414a39 39 0 0 1 .398-.797c.055-.11.14-.281.2-.387.054-.105.14-.273.195-.375l.199-.367c.055-.098.144-.258.2-.355.054-.098.144-.25.198-.344.055-.098.141-.246.2-.336.054-.094.14-.238.195-.328l.2-.313a21 21 0 0 1 .398-.597c.054-.082.144-.207.199-.285.054-.079.14-.2.195-.274a12 12 0 0 0 .2-.262c.054-.07.144-.18.199-.25l.199-.238.199-.226c.055-.063.14-.16.195-.22.059-.058.145-.148.2-.202.054-.055.144-.14.199-.196.054-.05.144-.132.199-.18.055-.05.144-.124.2-.171a6.267 6.267 0 0 1 .594-.441c.054-.036.143-.09.198-.126.055-.03.145-.082.2-.109a4.342 4.342 0 0 1 .395-.191l.198-.075c.055-.02.145-.046.2-.066.054-.016.144-.04.199-.05.054-.013.144-.032.199-.04.054-.012.14-.023.195-.027a2 2 0 0 1 .2-.016 3.395 3.395 0 0 1 .598.023c.054.008.14.02.194.032l.2.043c.054.015.144.039.199.058.054.016.144.047.199.067s.144.055.2.082c.054.023.14.062.198.09.055.027.14.074.196.105l.199.113.2.13c.054.038.144.1.198.14s.14.105.2.152a7 7 0 0 1 .394.336c.055.051.145.133.2.188.054.05.144.14.198.195.055.059.145.149.2.211.054.059.14.156.195.219.059.062.145.164.2.23l.198.242.2.254c.054.075.144.192.199.266s.14.2.195.277c.059.078.145.207.2.285l.199.297c.054.086.144.223.199.309l.2.32c.054.09.14.235.198.328l.196.34.199.348c.055.098.144.258.199.36.055.1.145.265.2.37l.198.38c.055.105.141.277.196.386.054.11.144.285.199.398l.2.407c.054.117.144.3.198.418s.145.304.2.425l.195.434c.059.121.145.32.2.445l.198.45.2.46.199.47.195.476c.059.133.145.351.2.484.054.137.144.356.199.492.054.141.144.364.199.5l.199.508c.055.145.14.371.2.516l.195.52c.054.148.144.382.199.53.054.149.144.387.199.536l.2.539c.054.152.14.398.198.55l.196.551c.054.157.144.407.199.563s.145.406.2.566c.054.156.144.41.198.57l.2.575c.054.16.14.422.195.582.059.164.144.422.2.586l.198.59.2.597.199.598.195.605c.059.168.145.438.2.606.054.172.144.441.199.613l.199.613c.054.172.144.446.199.618s.14.449.2.62c.054.173.14.45.195.622.054.176.144.453.199.625.054.176.144.453.199.629l.2.629.198.632.196.633c.058.176.144.461.199.637l.2.633c.054.18.144.46.198.636.055.18.145.461.2.641.054.176.14.461.195.637.059.176.2.637.2.637"/></g></svg>