<svg xmlns="http://www.w3.org/2000/svg" xmlns:xlink="http://www.w3.org/1999/xlink" width="226.772" height="43.704"><defs><path id="b" d="M2.016-.562v-4.422l-1.328.25a1 1 0 0 1-.016-.188Q.67-5.12.875-5.203l1.469-.594h.453v5.235l1.094.156q.124.016.125.11c0 .054-.04.151-.11.296H.86v-.078q0-.311.282-.36Zm0 0"/><path id="d" d="m.422-.453 1.5-1.719q.89-1.015.89-2-.001-1.249-.906-1.25-.362 0-.718.188a4 4 0 0 0-.11.875q-.11.016-.203.015-.422.001-.422-.343 0-.547.422-.875.42-.33 1.14-.329.734.001 1.172.407.453.408.454 1.156 0 .674-.422 1.36-.27.439-.89 1.109L1.343-.797v.016h2.015l.188-.766a.5.5 0 0 1 .187-.031q.235.002.235.344 0 .344-.094 1.234H.5Zm0 0"/><path id="f" d="M1.828-4.781q2.766 0 2.766 2.328c0 .812-.246 1.43-.735 1.844C3.391-.203 2.711 0 1.83 0h-1.5a.1.1 0 0 1-.017-.062q0-.187.235-.25l.297-.063v-4.031L.422-4.5q-.094-.03-.094-.078-.002-.062.078-.203Zm-.016 4.39c.688 0 1.211-.171 1.579-.515q.562-.514.562-1.531 0-.968-.562-1.454c-.368-.332-.891-.5-1.578-.5h-.36v4Zm0 0"/><path id="g" d="M.703-.36v-2.577l-.5-.079q-.017-.011-.016-.046c0-.133.086-.208.266-.22l.813-.077v3l.422.093q.093.02.093.079A.3.3 0 0 1 1.703 0H.25a.1.1 0 0 1-.016-.047c0-.101.07-.18.22-.234Zm-.11-4.156q0-.186.11-.296c.07-.07.164-.11.281-.11.114 0 .207.04.282.11a.38.38 0 0 1 .125.296q-.001.176-.125.282a.38.38 0 0 1-.282.109.37.37 0 0 1-.28-.11.37.37 0 0 1-.11-.28m0 0"/><path id="h" d="M.375-2.312q0-.498.39-.813.341-.28.876-.281.28 0 .53.078h1.173l-.063.375h-.578q.218.282.219.64c0 .356-.133.637-.39.844q-.362.299-.923.297-.157.002-.328-.031c-.148.086-.218.195-.218.328 0 .168.117.25.359.25h.797q.45.002.703.203a.63.63 0 0 1 .265.547q0 .546-.468.922-.503.422-1.328.422C.578 1.469.17 1.195.17.656q0-.607.626-.828v-.016Q.529-.325.53-.64q0-.387.469-.64v-.016Q.374-1.576.375-2.313m1.266.796c.488 0 .734-.257.734-.78q-.002-.36-.203-.548a.71.71 0 0 0-.516-.203q-.719 0-.718.75c0 .524.234.781.703.781M1.328-.078a1 1 0 0 1-.266-.031.61.61 0 0 0-.343.578c0 .414.254.625.765.625q.53 0 .86-.235a.59.59 0 0 0 .281-.515q0-.422-.562-.422Zm0 0"/><path id="i" d="m.672-3.328.125-.922h.406v.922H2.25l-.078.36h-.969v2.14q-.002.516.453.516a.94.94 0 0 0 .578-.172.3.3 0 0 1 .047.187q0 .095-.187.219c-.18.101-.39.156-.64.156Q.64.078.64-.719v-2.25H.125Q.108-2.98.109-3.016c0-.113.07-.187.22-.218Zm0 0"/><path id="j" d="M2.063-2.156q0-.452-.141-.656-.14-.219-.469-.22c-.148 0-.281.024-.406.063q-.096.175-.156.61H.734q-.327 0-.328-.297c0-.207.117-.383.36-.531q.357-.219.797-.22 1.061 0 1.062 1.173V-.72q0 .392.234.39.17 0 .25-.093.062.096.063.203-.001.082-.125.157a.65.65 0 0 1-.406.125q-.486.001-.532-.485h-.015c-.219.336-.54.5-.953.5Q.747.078.5-.156C.344-.32.266-.536.266-.796c0-.345.172-.602.515-.782.29-.164.657-.25 1.094-.25h.188ZM1.375-.36q.388.001.688-.36v-.797l-.188.016q-1.001.08-1 .64c0 .337.164.5.5.5m0 0"/><path id="k" d="M.672-.36v-4.25l-.5-.062a.1.1 0 0 1-.016-.062c0-.125.086-.192.266-.203l.812-.094V-.36l.407.093c.07.012.109.04.109.079A.3.3 0 0 1 1.672 0H.203v-.047c0-.101.07-.18.219-.234Zm0 0"/><path id="l" d="M.906-1.687q0 .657.282 1.015.279.345.78.344.452 0 .86-.328.075.048.094.203-.001.158-.313.328-.376.201-.875.203-.626 0-1-.375Q.296-.748.297-1.594c0-.57.148-1.023.453-1.36q.406-.451 1.016-.452.545 0 .843.328.282.313.282.828-.001.234-.079.563Zm.797-1.36Q1-3.047.906-2.016h1.36a1 1 0 0 0 .046-.296q0-.734-.609-.735m0 0"/><path id="m" d="M2.484-4.297a1.5 1.5 0 0 0-.703-.187q-.39.002-.625.203-.234.205-.234.562 0 .314.187.5.106.127.407.266l.64.36q.515.282.719.53.281.299.281.766 0 .609-.406.984-.421.392-1.125.391Q1.045.08.453-.187A9 9 0 0 1 .422-.97c0-.207.07-.312.219-.312q.06 0 .156.047L.953-.5q.311.22.735.219.45.001.687-.25a.82.82 0 0 0 .234-.61.7.7 0 0 0-.234-.53q-.158-.154-.703-.454l-.438-.25C.961-2.52.766-2.672.641-2.828a1.28 1.28 0 0 1-.235-.766q0-.591.422-.937c.258-.219.61-.328 1.047-.328.395 0 .75.086 1.063.25q.03.504.03.656-.002.313-.202.312a.4.4 0 0 1-.157-.03Zm0 0"/><path id="n" d="M.703-.36v-2.577l-.5-.079q-.017-.011-.016-.046c0-.133.086-.208.266-.22l.813-.077-.047.453h.031q.233-.218.39-.313.33-.187.75-.187.5 0 .782.328.28.33.281.906v1.813l.422.093q.094.02.094.079A.36.36 0 0 1 3.906 0H2.437a.1.1 0 0 1-.015-.047c0-.101.07-.18.219-.234l.265-.078v-1.766q0-.42-.234-.64a.78.78 0 0 0-.516-.172q-.504 0-.89.328v2.25l.422.093q.093.02.093.079A.3.3 0 0 1 1.703 0H.25a.1.1 0 0 1-.016-.047c0-.101.07-.18.22-.234Zm0 0"/><path id="o" d="M2.297-1.906H.422v-.407h1.875Zm0 0"/><path id="p" d="M3.453-3.328q.094 0 .094.078a.5.5 0 0 1-.047.156l-.344.125L1.984 0h-.453L.344-3 .03-3.094v-.062q0-.171.188-.172h1.125q.093 0 .093.078a.5.5 0 0 1-.046.156L1-2.984l.828 2.359h.016l.906-2.36-.5-.109a.2.2 0 0 1-.016-.062q0-.171.188-.172Zm0 0"/><path id="q" d="M.703-.36v-2.577l-.5-.079q-.017-.011-.016-.046c0-.133.086-.208.266-.22l.813-.077-.047.578h.031q.406-.623.875-.625.47.002.469.344c0 .093-.04.187-.11.28a1.4 1.4 0 0 0-.468-.093.89.89 0 0 0-.75.39v2.126l.484.093q.094.02.094.079A.36.36 0 0 1 1.78 0H.25a.1.1 0 0 1-.016-.047c0-.101.07-.18.22-.234Zm0 0"/><path id="r" d="M.5-4.61 0-4.671v-.062q-.001-.187.25-.203l.813-.094v2.11h.03q.374-.483 1.016-.485.563 0 .891.375.389.423.39 1.281 0 .908-.546 1.406-.486.423-1.235.422Q.92.078.5-.156Zm1.344 1.673c-.336 0-.594.109-.782.328v2.093q.295.205.688.204 1.062 0 1.063-1.36c0-.437-.102-.77-.297-1q-.251-.264-.672-.265m0 0"/><path id="s" d="m.61-2.937-.5-.079q-.017-.011-.016-.046-.002-.2.265-.22l.813-.077v2.172c0 .542.226.812.687.812q.53.001.86-.344v-2.218l-.5-.079q-.017-.011-.016-.046c0-.133.086-.208.266-.22l.812-.077v2.984l.5.063q.014.033.016.062-.001.19-.266.203l-.765.094v-.469H2.75c-.273.336-.621.5-1.047.5Q.61.08.61-1.156Zm0 0"/><clipPath id="a"><path d="M.648 13H79v2H.648Zm0 0"/></clipPath><clipPath id="c"><path d="M147 13h78.895v2H147Zm0 0"/></clipPath><clipPath id="e"><path d="M221 12h4.895v5H221Zm0 0"/></clipPath></defs><g clip-path="url(#a)"><path fill="none" stroke="#000" stroke-miterlimit="10" stroke-width=".39631473" d="M.848 14.191H26.02m27.59 0H78.78"/></g><path fill="none" stroke="#000" stroke-miterlimit="10" stroke-width=".7916361900000001" d="M26.02.395h27.59v27.593H26.02Zm0 0"/><path d="M21.832 14.191v1.973l4.188-1.973-4.188-1.968Zm0 0"/><path fill="none" stroke="#000" stroke-miterlimit="10" stroke-width=".39631473" d="M26.02 27.988 53.61.395"/><use xlink:href="#b" x="37.588" y="38.556"/><path d="M74.594 14.191v1.973l4.187-1.973-4.187-1.968Zm0 0"/><path fill="none" stroke="#000" stroke-miterlimit="10" stroke-width=".7916361900000001" d="M78.781.395h68.985v27.593H78.78Zm0 0"/><g clip-path="url(#c)"><path fill="none" stroke="#000" stroke-miterlimit="10" stroke-width=".39631473" d="M147.766 14.191h25.172m27.59 0h25.171"/></g><path fill="none" stroke="#000" stroke-miterlimit="10" stroke-width=".7916361900000001" d="M172.938.395h27.59v27.593h-27.59Zm0 0"/><path d="M168.746 14.191v1.973l4.191-1.973-4.19-1.968Zm0 0"/><path fill="none" stroke="#000" stroke-miterlimit="10" stroke-width=".39631473" d="M172.938 27.988 200.528.395"/><use xlink:href="#d" x="184.504" y="38.556"/><g clip-path="url(#e)"><path d="M221.512 14.191v1.973l4.187-1.973-4.187-1.968Zm0 0"/></g><use xlink:href="#f" x="90.674" y="8.591"/><use xlink:href="#g" x="95.634" y="8.591"/><use xlink:href="#h" x="97.566" y="8.591"/><use xlink:href="#g" x="101.002" y="8.591"/><use xlink:href="#i" x="102.935" y="8.591"/><use xlink:href="#j" x="105.29" y="8.591"/><use xlink:href="#k" x="108.525" y="8.591"/><use xlink:href="#l" x="110.429" y="8.591"/><use xlink:href="#m" x="115.147" y="8.591"/><use xlink:href="#g" x="118.603" y="8.591"/><use xlink:href="#h" x="120.536" y="8.591"/><use xlink:href="#n" x="123.972" y="8.591"/><use xlink:href="#j" x="128.045" y="8.591"/><use xlink:href="#k" x="131.28" y="8.591"/><use xlink:href="#o" x="133.157" y="8.591"/><use xlink:href="#p" x="94.31" y="23.354"/><use xlink:href="#l" x="97.76" y="23.354"/><use xlink:href="#q" x="100.988" y="23.354"/><use xlink:href="#j" x="103.662" y="23.354"/><use xlink:href="#q" x="106.896" y="23.354"/><use xlink:href="#r" x="109.57" y="23.354"/><use xlink:href="#l" x="113.269" y="23.354"/><use xlink:href="#g" x="116.497" y="23.354"/><use xlink:href="#i" x="118.43" y="23.354"/><use xlink:href="#s" x="120.785" y="23.354"/><use xlink:href="#n" x="124.726" y="23.354"/><use xlink:href="#h" x="128.799" y="23.354"/></svg>