<svg xmlns="http://www.w3.org/2000/svg" xmlns:xlink="http://www.w3.org/1999/xlink" width="226.662" height="210.529"><defs><clipPath id="a"><path d="M.086 185h226.156v1H.086Zm0 0"/></clipPath><clipPath id="b"><path d="M.086 185H226v9H.086Zm0 0"/></clipPath><clipPath id="c"><path d="M.48 186h225.364v7.566H.48Zm0 0"/></clipPath><clipPath id="e"><path d="M101 174h85v36.059h-85Zm0 0"/></clipPath><clipPath id="f"><path d="M40 174h85v36.059H40Zm0 0"/></clipPath><clipPath id="g"><path d="M101 174h104v36.059H101Zm0 0"/></clipPath><clipPath id="h"><path d="M21 174h104v36.059H21Zm0 0"/></clipPath><path id="i" d="M2.203-6.172a.2.2 0 0 1 .016.078q-.001.236-.313.313l-.328.062 1.188 2h.015l1.266-2.015-.594-.079c-.086-.007-.125-.046-.125-.109q0-.075.094-.25h1.797c.008.024.015.047.015.078q0 .253-.312.313l-.297.062-1.547 2.453L4.766-.469l.422.11q.124.034.125.093c0 .032-.04.121-.11.266h-1.89a.16.16 0 0 1-.016-.078c0-.176.101-.285.312-.328l.282-.047-1.282-2.14h-.015L1.266-.454l.562.094q.124.017.125.093A.6.6 0 0 1 1.86 0H.047v-.078q0-.264.297-.328l.25-.063 1.687-2.61-1.61-2.624-.437-.11C.148-5.831.11-5.866.11-5.921q0-.075.11-.25Zm0 0"/><path id="j" d="M1.094-.5v-5.203l-.547-.125c-.086-.02-.125-.05-.125-.094q0-.075.094-.25h4.03c.04.5.063.852.063 1.047 0 .262-.086.39-.25.39a.6.6 0 0 1-.203-.03l-.203-.938H1.875v2.312h2v.5h-2v2.375h2.14l.235-.968a.7.7 0 0 1 .203-.032q.234 0 .234.375 0 .363-.078 1.141H.422a.16.16 0 0 1-.016-.078Q.404-.324.72-.406Zm0 0"/><path id="k" d="M.906-.469v-3.343l-.64-.079a.2.2 0 0 1-.016-.078q0-.246.328-.281l1.063-.094-.063.75h.031c.352-.539.735-.812 1.141-.812q.593.002.594.437 0 .188-.14.375a1.6 1.6 0 0 0-.595-.125q-.61.001-.968.5v2.75l.625.125q.124.017.125.11A.35.35 0 0 1 2.297 0H.312a.1.1 0 0 1-.015-.062c0-.133.094-.235.281-.297Zm0 0"/><path id="l" d="M3.422-.516H3.39Q2.95.11 2.109.11 1.39.11.938-.359C.57-.723.39-1.273.39-2.016q0-1.183.703-1.828.609-.562 1.5-.562.404.001.765.125v-1.672l-.64-.094a.1.1 0 0 1-.016-.062q0-.246.328-.282L4.094-6.5v6l.656.094v.078q0 .252-.328.281l-1 .094Zm-1.094.047q.657 0 1.031-.39v-2.72q-.315-.327-.859-.327-.597.002-.953.437c-.274.324-.406.762-.406 1.313q-.001.86.343 1.281.311.408.844.406m0 0"/><path id="m" d="M1.156-2.172q.012.845.375 1.297.359.439 1.016.438c.394 0 .765-.133 1.11-.407q.092.064.109.25-.001.205-.407.438Q2.89.109 2.25.109 1.434.111.953-.39.391-.965.391-2.062.39-3.173.969-3.828q.527-.576 1.312-.578.702 0 1.094.422.375.41.375 1.078c0 .199-.04.445-.11.734Zm1.032-1.765q-.892.002-1.016 1.328h1.766q.046-.171.046-.375 0-.951-.796-.953m0 0"/><linearGradient id="d" x1="0" x2="0" y1="25.002" y2="74.998" gradientTransform="matrix(4.50783 0 0 -.16099 -112.229 197.59)" gradientUnits="userSpaceOnUse"><stop offset="0" stop-color="#FFF"/><stop offset=".008" stop-color="#FEFEFE"/><stop offset=".016" stop-color="#FDFDFD"/><stop offset=".023" stop-color="#FDFDFD"/><stop offset=".031" stop-color="#FCFCFC"/><stop offset=".039" stop-color="#FBFBFB"/><stop offset=".047" stop-color="#FAFAFA"/><stop offset=".055" stop-color="#F9F9F9"/><stop offset=".063" stop-color="#F8F8F8"/><stop offset=".07" stop-color="#F7F7F7"/><stop offset=".078" stop-color="#F6F6F6"/><stop offset=".086" stop-color="#F5F5F5"/><stop offset=".094" stop-color="#F4F4F4"/><stop offset=".102" stop-color="#F3F3F3"/><stop offset=".109" stop-color="#F2F2F2"/><stop offset=".117" stop-color="#F1F1F1"/><stop offset=".125" stop-color="#F0F0F0"/><stop offset=".133" stop-color="#EFEFEF"/><stop offset=".141" stop-color="#EEE"/><stop offset=".148" stop-color="#EDEDED"/><stop offset=".156" stop-color="#ECECEC"/><stop offset=".164" stop-color="#EBEBEB"/><stop offset=".172" stop-color="#EAEAEA"/><stop offset=".18" stop-color="#E9E9E9"/><stop offset=".188" stop-color="#E8E8E8"/><stop offset=".195" stop-color="#E7E7E7"/><stop offset=".203" stop-color="#E6E6E6"/><stop offset=".211" stop-color="#E5E5E5"/><stop offset=".219" stop-color="#E4E4E4"/><stop offset=".227" stop-color="#E3E3E3"/><stop offset=".234" stop-color="#E2E2E2"/><stop offset=".242" stop-color="#E1E1E1"/><stop offset=".25" stop-color="#E0E0E0"/><stop offset=".258" stop-color="#DFDFDF"/><stop offset=".266" stop-color="#DEDEDE"/><stop offset=".273" stop-color="#DDD"/><stop offset=".281" stop-color="#DCDCDC"/><stop offset=".289" stop-color="#DBDBDB"/><stop offset=".297" stop-color="#DADADA"/><stop offset=".305" stop-color="#D9D9D9"/><stop offset=".313" stop-color="#D8D8D8"/><stop offset=".32" stop-color="#D7D7D7"/><stop offset=".328" stop-color="#D6D6D6"/><stop offset=".336" stop-color="#D5D5D5"/><stop offset=".344" stop-color="#D4D4D4"/><stop offset=".352" stop-color="#D3D3D3"/><stop offset=".359" stop-color="#D2D2D2"/><stop offset=".367" stop-color="#D1D1D1"/><stop offset=".375" stop-color="#D0D0D0"/><stop offset=".383" stop-color="#CFCFCF"/><stop offset=".391" stop-color="#CECECE"/><stop offset=".398" stop-color="#CDCDCD"/><stop offset=".406" stop-color="#CCC"/><stop offset=".414" stop-color="#CBCBCB"/><stop offset=".422" stop-color="#CACACA"/><stop offset=".43" stop-color="#C9C9C9"/><stop offset=".438" stop-color="#C8C8C8"/><stop offset=".445" stop-color="#C7C7C7"/><stop offset=".453" stop-color="#C6C6C6"/><stop offset=".461" stop-color="#C5C5C5"/><stop offset=".469" stop-color="#C4C4C4"/><stop offset=".477" stop-color="#C3C3C3"/><stop offset=".484" stop-color="#C2C2C2"/><stop offset=".492" stop-color="#C1C1C1"/><stop offset=".5" stop-color="silver"/><stop offset=".508" stop-color="#BFBFBF"/><stop offset=".516" stop-color="#BEBEBE"/><stop offset=".523" stop-color="#BDBDBD"/><stop offset=".531" stop-color="#BCBCBC"/><stop offset=".539" stop-color="#BBB"/><stop offset=".547" stop-color="#BABABA"/><stop offset=".555" stop-color="#B9B9B9"/><stop offset=".563" stop-color="#B8B8B8"/><stop offset=".57" stop-color="#B7B7B7"/><stop offset=".578" stop-color="#B6B6B6"/><stop offset=".586" stop-color="#B5B5B5"/><stop offset=".594" stop-color="#B4B4B4"/><stop offset=".602" stop-color="#B3B3B3"/><stop offset=".609" stop-color="#B2B2B2"/><stop offset=".617" stop-color="#B1B1B1"/><stop offset=".625" stop-color="#B0B0B0"/><stop offset=".633" stop-color="#AFAFAF"/><stop offset=".641" stop-color="#AEAEAE"/><stop offset=".648" stop-color="#ADADAD"/><stop offset=".656" stop-color="#ACACAC"/><stop offset=".664" stop-color="#ABABAB"/><stop offset=".672" stop-color="#AAA"/><stop offset=".68" stop-color="#A9A9A9"/><stop offset=".688" stop-color="#A8A8A8"/><stop offset=".695" stop-color="#A7A7A7"/><stop offset=".703" stop-color="#A6A6A6"/><stop offset=".711" stop-color="#A5A5A5"/><stop offset=".719" stop-color="#A4A4A4"/><stop offset=".727" stop-color="#A3A3A3"/><stop offset=".734" stop-color="#A2A2A2"/><stop offset=".742" stop-color="#A1A1A1"/><stop offset=".75" stop-color="#A0A0A0"/><stop offset=".758" stop-color="#9F9F9F"/><stop offset=".766" stop-color="#9E9E9E"/><stop offset=".773" stop-color="#9D9D9D"/><stop offset=".781" stop-color="#9C9C9C"/><stop offset=".789" stop-color="#9B9B9B"/><stop offset=".797" stop-color="#9A9A9A"/><stop offset=".805" stop-color="#999"/><stop offset=".813" stop-color="#989898"/><stop offset=".82" stop-color="#979797"/><stop offset=".828" stop-color="#969696"/><stop offset=".836" stop-color="#959595"/><stop offset=".844" stop-color="#949494"/><stop offset=".852" stop-color="#939393"/><stop offset=".859" stop-color="#929292"/><stop offset=".867" stop-color="#919191"/><stop offset=".875" stop-color="#909090"/><stop offset=".883" stop-color="#8F8F8F"/><stop offset=".891" stop-color="#8E8E8E"/><stop offset=".898" stop-color="#8D8D8D"/><stop offset=".906" stop-color="#8C8C8C"/><stop offset=".914" stop-color="#8B8B8B"/><stop offset=".922" stop-color="#8A8A8A"/><stop offset=".93" stop-color="#898989"/><stop offset=".938" stop-color="#888"/><stop offset=".945" stop-color="#878787"/><stop offset=".953" stop-color="#868686"/><stop offset=".961" stop-color="#858585"/><stop offset=".969" stop-color="#848484"/><stop offset=".977" stop-color="#838383"/><stop offset=".984" stop-color="#828282"/><stop offset=".992" stop-color="#818181"/><stop offset="1" stop-color="gray"/></linearGradient></defs><g clip-path="url(#a)"><path fill="none" stroke="#000" stroke-miterlimit="10" stroke-width=".7952226900000001" d="M.48 185.516h225.364"/></g><g clip-path="url(#b)"><path d="M.48 185.516v8.05h225.364v-8.05Zm0 0"/></g><g clip-path="url(#c)"><path fill="url(#d)" d="M.48 193.566v-8.05h225.364v8.05Zm0 0"/></g><path fill="none" stroke="#000" stroke-miterlimit="10" stroke-width=".7952226900000001" d="M113.164 185.516v-63.164m0-34.645V24.543"/><path stroke="#000" stroke-miterlimit="10" stroke-width=".7952226900000001" d="M114.746 185.516a1.583 1.583 0 1 0-3.166.001 1.583 1.583 0 0 0 3.166-.001Zm0 0"/><path fill="none" stroke="#000" stroke-linejoin="bevel" stroke-miterlimit="10" stroke-width="1.5904453800000002" d="M113.48 123.148c-2.296 0-4.156-1.625-4.156-3.625s1.86-3.625 4.156-3.625c-2.296 0-4.156-1.62-4.156-3.62 0-2.005 1.86-3.626 4.156-3.626-2.296 0-4.156-1.62-4.156-3.625 0-2 1.86-3.62 4.156-3.62-2.296 0-4.156-1.626-4.156-3.626s1.86-3.625 4.156-3.625c-2.296 0-4.156-1.62-4.156-3.62 0-2.005 1.86-3.626 4.156-3.626"/><path stroke="#000" stroke-miterlimit="10" stroke-width=".7952226900000001" d="M114.746 24.543c0-.875-.71-1.586-1.582-1.586a1.584 1.584 0 1 0 1.582 1.586Zm0 0"/><path fill="none" stroke="#000" stroke-miterlimit="10" stroke-width=".7952226900000001" d="M113.164 24.543c0-6.938 9.367-12.559 20.926-12.559 11.555 0 20.926 5.621 20.926 12.559v160.973"/><path fill="none" stroke="#000" stroke-dasharray="9.940553022900001 4.9702715226" stroke-miterlimit="10" stroke-width=".7952226900000001" d="M155.016 185.516c0 6.933-9.368 12.554-20.926 12.554-11.559 0-20.926-5.62-20.926-12.554"/><path fill="none" stroke="#000" stroke-miterlimit="10" stroke-width=".7952226900000001" d="M113.164 24.543c0-6.938-9.371-12.559-20.93-12.559-11.554 0-20.925 5.621-20.925 12.559v160.973"/><path fill="none" stroke="#000" stroke-dasharray="9.940553022900001 4.9702715226" stroke-miterlimit="10" stroke-width=".7952226900000001" d="M71.309 185.516c0 6.933 9.37 12.554 20.925 12.554 11.559 0 20.926-5.62 20.926-12.554"/><path fill="none" stroke="#000" stroke-miterlimit="10" stroke-width=".7952226900000001" d="M113.164 24.543c0-10.137 13.691-18.352 30.582-18.352 16.895 0 30.586 8.215 30.586 18.352v160.973"/><g clip-path="url(#e)"><path fill="none" stroke="#000" stroke-dasharray="9.940553022900001 4.9702715226" stroke-miterlimit="10" stroke-width=".7952226900000001" d="M174.332 185.516c0 10.136-13.691 18.351-30.586 18.351-16.89 0-30.582-8.215-30.582-18.351"/></g><path fill="none" stroke="#000" stroke-miterlimit="10" stroke-width=".7952226900000001" d="M113.164 24.543c0-10.137-13.695-18.352-30.586-18.352-16.894 0-30.586 8.215-30.586 18.352v160.973"/><g clip-path="url(#f)"><path fill="none" stroke="#000" stroke-dasharray="9.940553022900001 4.9702715226" stroke-miterlimit="10" stroke-width=".7952226900000001" d="M51.992 185.516c0 10.136 13.692 18.351 30.586 18.351 16.89 0 30.586-8.215 30.586-18.351"/></g><path fill="none" stroke="#000" stroke-miterlimit="10" stroke-width=".7952226900000001" d="M113.164 24.543c0-13.336 18.016-24.149 40.242-24.149 22.227 0 40.242 10.813 40.242 24.149v160.973"/><g clip-path="url(#g)"><path fill="none" stroke="#000" stroke-dasharray="9.940553022900001 4.9702715226" stroke-miterlimit="10" stroke-width=".7952226900000001" d="M193.648 185.516c0 13.336-18.015 24.148-40.242 24.148s-40.242-10.812-40.242-24.148"/></g><path fill="none" stroke="#000" stroke-miterlimit="10" stroke-width=".7952226900000001" d="M113.164 24.543c0-13.336-18.02-24.149-40.246-24.149S32.676 11.207 32.676 24.543v160.973"/><g clip-path="url(#h)"><path fill="none" stroke="#000" stroke-dasharray="9.940553022900001 4.9702715226" stroke-miterlimit="10" stroke-width=".7952226900000001" d="M32.676 185.516c0 13.336 18.015 24.148 40.242 24.148s40.246-10.812 40.246-24.148"/></g><use xlink:href="#i" x="136.78" y="65.911"/><path fill="none" stroke="#000" stroke-miterlimit="10" stroke-width=".59666646" d="m128.992 81.395 6.82-12.106"/><path fill="none" stroke="#000" stroke-dasharray="9.940553022900001 4.9702715226" stroke-miterlimit="10" stroke-width=".7952226900000001" d="M155.016 105.027c0-9.246-18.739-16.738-41.852-16.738-23.117 0-41.855 7.492-41.855 16.738s18.738 16.743 41.855 16.743c23.113 0 41.852-7.497 41.852-16.743Zm0 0"/><path fill="none" stroke="#000" stroke-dasharray="9.940553022900001 4.9702715226" stroke-miterlimit="10" stroke-width=".7952226900000001" d="M174.332 105.027c0-13.511-27.387-24.468-61.168-24.468-33.785 0-61.172 10.957-61.172 24.468 0 13.516 27.387 24.47 61.172 24.47 33.781 0 61.168-10.954 61.168-24.47Zm0 0"/><path fill="none" stroke="#000" stroke-dasharray="9.940553022900001 4.9702715226" stroke-miterlimit="10" stroke-width=".7952226900000001" d="M193.648 105.027c0-17.78-36.035-32.195-80.484-32.195-44.453 0-80.488 14.414-80.488 32.195 0 17.782 36.035 32.196 80.488 32.196 44.45 0 80.484-14.414 80.484-32.196Zm0 0"/><path fill="#FFF" d="M103.41 202.527h19.504v-8.59H103.41Zm0 0"/><use xlink:href="#j" x="104.404" y="201.424"/><use xlink:href="#k" x="109.477" y="201.424"/><use xlink:href="#l" x="112.814" y="201.424"/><use xlink:href="#m" x="117.752" y="201.424"/></svg>