<svg xmlns="http://www.w3.org/2000/svg" width="225.68" height="119.191"><defs><clipPath id="a"><path d="M.602 115H4v3.387H.602Zm0 0"/></clipPath><clipPath id="b"><path d="M.602 109H10v9.387H.602Zm0 0"/></clipPath><clipPath id="c"><path d="M221 115h3.762v3.387H221Zm0 0"/></clipPath><clipPath id="d"><path d="M215 109h9.762v9.387H215Zm0 0"/></clipPath><clipPath id="e"><path d="M.602 4H4v4H.602Zm0 0"/></clipPath><clipPath id="f"><path d="M.602 0H10v14H.602Zm0 0"/></clipPath><clipPath id="g"><path d="M221 4h3.762v4H221Zm0 0"/></clipPath><clipPath id="h"><path d="M215 0h9.762v14H215Zm0 0"/></clipPath><clipPath id="i"><path d="M147 115h5v3.387h-5Zm0 0"/></clipPath><clipPath id="j"><path d="M142 109h15v9.387h-15Zm0 0"/></clipPath></defs><path fill="none" stroke="#000" stroke-miterlimit="10" stroke-width=".39631074000000005" d="M2.375 116.613h73.539m0 0h110.305m0 0h36.77"/><g clip-path="url(#a)"><path fill="#FFF" d="M3.953 116.613a1.575 1.575 0 1 0-3.152 0 1.575 1.575 0 1 0 3.152 0m0 0"/></g><g clip-path="url(#b)"><path fill="none" stroke="#000" stroke-miterlimit="10" stroke-width=".39631074000000005" d="M3.953 116.613a1.575 1.575 0 1 0-3.152 0 1.575 1.575 0 1 0 3.152 0Zm0 0"/></g><g clip-path="url(#c)"><path fill="#FFF" d="M224.566 116.613a1.579 1.579 0 1 0-3.157.002 1.579 1.579 0 0 0 3.157-.002m0 0"/></g><g clip-path="url(#d)"><path fill="none" stroke="#000" stroke-miterlimit="10" stroke-width=".39631074000000005" d="M224.566 116.613a1.579 1.579 0 1 0-3.157.002 1.579 1.579 0 0 0 3.157-.002Zm0 0"/></g><path fill="none" stroke="#000" stroke-miterlimit="10" stroke-width=".39631074000000005" d="M2.375 6.309h57.77m31.535 0h94.539m0 0h36.77"/><path fill="none" stroke="#000" stroke-miterlimit="10" stroke-width=".7916282200000001" d="M60.145.395H91.68v11.824H60.145Zm0 0"/><g clip-path="url(#e)"><path fill="#FFF" d="M3.953 6.309a1.575 1.575 0 1 0-3.152 0 1.575 1.575 0 0 0 3.152 0m0 0"/></g><g clip-path="url(#f)"><path fill="none" stroke="#000" stroke-miterlimit="10" stroke-width=".39631074000000005" d="M3.953 6.309a1.575 1.575 0 1 0-3.152 0 1.575 1.575 0 0 0 3.152 0Zm0 0"/></g><g clip-path="url(#g)"><path fill="#FFF" d="M224.566 6.309a1.579 1.579 0 0 0-3.156 0c0 .87.707 1.574 1.578 1.574s1.578-.703 1.578-1.574m0 0"/></g><g clip-path="url(#h)"><path fill="none" stroke="#000" stroke-miterlimit="10" stroke-width=".39631074000000005" d="M224.566 6.309a1.579 1.579 0 0 0-3.156 0c0 .87.707 1.574 1.578 1.574s1.578-.703 1.578-1.574Zm0 0"/></g><path fill="none" stroke="#000" stroke-miterlimit="10" stroke-width=".39631074000000005" d="M149.45 116.613v-47.27m0-15.765V6.308"/><path fill="none" stroke="#000" stroke-miterlimit="10" stroke-width=".7916282200000001" d="m149.45 53.578 9.855 15.766h-19.707Zm0 0"/><path fill="none" stroke="#000" stroke-miterlimit="10" stroke-width=".39631074000000005" d="M149.45 53.578v15.766"/><path fill="none" stroke="#000" stroke-miterlimit="10" stroke-width=".7916282200000001" d="M139.598 53.578h19.707v3.152"/><g clip-path="url(#i)"><path d="M151.027 116.613c0-.87-.707-1.578-1.578-1.578a1.578 1.578 0 0 0 0 3.156c.871 0 1.578-.707 1.578-1.578m0 0"/></g><g clip-path="url(#j)"><path fill="none" stroke="#000" stroke-miterlimit="10" stroke-width=".39631074000000005" d="M151.027 116.613c0-.87-.707-1.578-1.578-1.578a1.578 1.578 0 0 0 0 3.156c.871 0 1.578-.707 1.578-1.578Zm0 0"/></g><path stroke="#000" stroke-miterlimit="10" stroke-width=".39631074000000005" d="M151.027 6.309c0-.871-.707-1.578-1.578-1.578-.867 0-1.574.707-1.574 1.578a1.575 1.575 0 0 0 3.152 0Zm0 0"/></svg>