<svg xmlns="http://www.w3.org/2000/svg" xmlns:xlink="http://www.w3.org/1999/xlink" width="226.335" height="152.67"><defs><path id="a" d="M3.5-5.844c-.219 0-.75.078-1.094.078S1.72-5.78 1.328-5.78l-.031.015-.031.188c-.016.031 0 .062.046.062l.329.016c.125 0 .312.063.312.281 0 .032 0 .063-.016.094L1.064-.641c-.047.25-.172.36-.547.375l-.22.032C.25-.234.22-.22.22-.172L.172 0l.031.016C.593.016.953 0 1.281 0c.344 0 .688.016 1.094.016L2.406 0l.031-.172c0-.047-.03-.062-.062-.062l-.219-.032C1.875-.28 1.75-.344 1.75-.53c0-.031 0-.063.016-.11l.375-1.953c.718 0 .875.125.953.328l.61 1.563c.171.422.468.797.983.797.125 0 .282-.016.375-.063l.032-.218c-.39 0-.532-.297-.688-.688L3.688-2.75c.39-.125 1.25-.594 1.437-1.531.031-.11.047-.235.047-.344a1.13 1.13 0 0 0-.281-.766c-.328-.406-.86-.453-1.391-.453m-.062.297c.453 0 .984.172.984.89 0 .11-.031.235-.047.391-.219 1.11-.922 1.36-1.75 1.36h-.422l.438-2.219c.046-.266.187-.422.797-.422m0 0"/><path id="b" d="M.438-3.344c0 .14.14.281.28.281.126 0 .345-.14.345-.296 0-.047-.016-.094-.032-.141-.015-.062-.062-.125-.062-.172 0-.187.187-.437.719-.437.25 0 .609.172.609.859 0 .453-.156.828-.578 1.266l-.532.515C.485-.75.375-.406.375.016c0 0 .36-.016.594-.016h1.25c.234 0 .562.016.562.016a8 8 0 0 0 .172-1.125c-.047-.047-.14-.063-.219-.047-.109.515-.234.687-.5.687H.97c0-.343.484-.828.531-.86l.719-.702c.406-.39.719-.703.719-1.25 0-.766-.641-1.078-1.22-1.078-.78 0-1.28.578-1.28 1.015m0 0"/><path id="e" d="M3.078-1.562h-.594v-2.094c0-.36 0-.64.016-.688l-.016-.015H2.25c-.047 0-.078.03-.11.078-.453.547-1.28 1.718-1.937 2.75.016.11.063.297.281.297h1.454v.656c0 .328-.266.328-.579.36-.046.046-.046.187 0 .234C1.594 0 1.875 0 2.203 0c.281 0 .547 0 .781.016.047-.047.047-.188 0-.235-.343-.031-.5-.015-.5-.36v-.655h.5c.094 0 .204-.125.204-.22 0-.077-.032-.109-.11-.109m-1.14-2.063v2.063H.577c.36-.594.875-1.391 1.36-2.063m0 0"/><path id="f" d="M2.063-.875v-2.484c0-.422 0-.86.015-.953 0-.032-.015-.032-.031-.032-.406.235-.781.422-1.406.703a.33.33 0 0 0 .109.204c.328-.141.484-.188.61-.188.124 0 .156.172.156.422v2.328c0 .594-.203.625-.703.656-.047.047-.047.188 0 .235C1.172 0 1.422 0 1.813 0c.343 0 .515 0 .875.016.03-.047.03-.188 0-.235-.5-.031-.626-.062-.626-.656m0 0"/><path id="h" d="M1.531-4.11c.313 0 .594.188.594.641 0 .36-.406.906-1.11 1l.032.235c.125-.016.25-.016.344-.016.406 0 .937.125.937.922 0 .953-.64 1.156-.89 1.156-.36 0-.422-.172-.516-.297a.34.34 0 0 0-.313-.187c-.14 0-.296.14-.296.25 0 .281.609.484 1.03.484.86 0 1.61-.562 1.61-1.5 0-.781-.578-1.062-1-1.14h-.016c.594-.282.75-.579.75-.954a.77.77 0 0 0-.218-.578c-.156-.156-.406-.265-.781-.265-1.047 0-1.344.687-1.344.922 0 .093.062.234.234.234.25 0 .281-.235.281-.375 0-.453.5-.531.672-.531m0 0"/><clipPath id="c"><path d="M222 80h3.672v5H222Zm0 0"/></clipPath><clipPath id="d"><path d="M216 75h9.672v15H216Zm0 0"/></clipPath><clipPath id="g"><path d="M64 139h34v13.281H64Zm0 0"/></clipPath></defs><path fill="none" stroke="#000" stroke-miterlimit="10" stroke-width=".39783093" d="M1.781 82.488h63.496m31.657 0h63.535m31.656 0h31.77"/><path fill="#FFF" stroke="#000" stroke-miterlimit="10" stroke-width=".39783093" d="M3.363 82.488a1.58 1.58 0 0 0-1.582-1.582A1.58 1.58 0 0 0 .2 82.488a1.58 1.58 0 0 0 1.582 1.582 1.58 1.58 0 0 0 1.582-1.582Zm0 0"/><path fill="none" stroke="#000" stroke-miterlimit="10" stroke-width=".79466479" d="M65.277 76.555h31.657v11.87H65.277Zm0 0"/><path stroke="#000" stroke-miterlimit="10" stroke-width=".39783093" d="M35.094 82.488a1.58 1.58 0 0 0-1.582-1.582 1.58 1.58 0 0 0-1.582 1.582 1.58 1.58 0 0 0 1.582 1.582 1.58 1.58 0 0 0 1.582-1.582ZM130.285 82.488a1.583 1.583 0 1 0-3.166.002 1.583 1.583 0 0 0 3.166-.002Zm0 0"/><use xlink:href="#a" x="76.618" y="72.742"/><use xlink:href="#b" x="81.883" y="74.619"/><path fill="none" stroke="#000" stroke-miterlimit="10" stroke-width=".79466479" d="M160.469 76.555h31.656v11.87h-31.656Zm0 0"/><g clip-path="url(#c)"><path fill="#FFF" d="M225.477 82.488a1.583 1.583 0 1 0-3.166.002 1.583 1.583 0 0 0 3.166-.002m0 0"/></g><g clip-path="url(#d)"><path fill="none" stroke="#000" stroke-miterlimit="10" stroke-width=".39783093" d="M225.476 82.488a1.583 1.583 0 1 0-3.165.002 1.583 1.583 0 0 0 3.165-.002Zm0 0"/></g><use xlink:href="#a" x="171.808" y="72.742"/><use xlink:href="#e" x="177.074" y="74.619"/><path fill="none" stroke="#000" stroke-miterlimit="10" stroke-width=".39783093" d="M33.512 82.488v-63.46h31.765m31.657 0h31.77v63.46"/><path fill="none" stroke="#000" stroke-miterlimit="10" stroke-width=".79466479" d="M65.277 13.094h31.657v11.87H65.277Zm0 0"/><use xlink:href="#a" x="76.618" y="9.282"/><use xlink:href="#f" x="81.883" y="11.159"/><path fill="none" stroke="#000" stroke-miterlimit="10" stroke-width=".39783093" d="M33.512 82.488v63.461h31.765m31.657 0h31.77V82.49"/><g clip-path="url(#g)"><path fill="none" stroke="#000" stroke-miterlimit="10" stroke-width=".79466479" d="M65.277 140.016h31.657v11.87H65.277Zm0 0"/></g><use xlink:href="#a" x="76.618" y="136.202"/><use xlink:href="#h" x="81.883" y="138.08"/></svg>