<svg xmlns="http://www.w3.org/2000/svg" xmlns:xlink="http://www.w3.org/1999/xlink" width="230.345" height="142.131"><defs><path id="d" d="M.406-1.984a.305.305 0 0 0 0 .359h3.688a.305.305 0 0 0 0-.36Zm0 0"/><path id="e" d="M2-.844V-3.25c0-.422 0-.844.016-.937 0-.032-.016-.032-.032-.032-.39.235-.75.407-1.359.688 0 .078.031.156.094.187.328-.125.469-.172.61-.172.109 0 .14.172.14.407v2.265c0 .578-.188.61-.672.625C.75-.172.75-.03.797.016 1.125 0 1.375 0 1.75 0c.344 0 .5 0 .86.016.03-.047.03-.188 0-.235C2.11-.234 2-.266 2-.844m0 0"/><path id="f" d="M1.578.063c.531 0 1.344-.532 1.344-2.172 0-.672-.156-1.266-.469-1.672a1.02 1.02 0 0 0-.844-.453c-.687 0-1.343.828-1.343 2.187 0 .75.234 1.438.609 1.828q.305.282.703.282m.031-4.047c.125 0 .235.03.313.109.219.188.406.719.406 1.64 0 .641-.031 1.079-.125 1.422-.156.579-.484.641-.61.641-.655 0-.718-1.187-.718-1.797 0-1.703.422-2.015.734-2.015m0 0"/><path id="g" d="M.719-.656c-.219 0-.36.14-.36.344s.172.28.297.296c.14.016.25.063.25.22 0 .14-.25.468-.61.546 0 .078.017.125.063.172.422-.078.813-.406.813-.89 0-.423-.172-.688-.453-.688m0 0"/><path id="h" d="M1.172-3.719h1.25A133 133 0 0 1 .859.047l.063.047.469-.031c.39-1.172.78-2.329 1.547-4.22l-.11-.077c-.11.03-.265.078-.531.078H.875c-.25 0-.234-.078-.36-.11-.015 0-.015 0-.015.032-.016.328-.094.75-.14 1.109.078.016.14.031.218.016.156-.547.375-.61.594-.61m0 0"/><path id="i" d="M2.219-1.312c0 .656-.36 1.14-.766 1.14-.266 0-.36-.172-.469-.312-.078-.11-.203-.22-.343-.22a.274.274 0 0 0-.266.266c0 .282.594.516.984.516.86 0 1.47-.64 1.47-1.515 0-.672-.47-1.282-1.235-1.282-.297 0-.563.063-.688.11l.14-1.157c.25.032.485.063.813.063.204 0 .438-.016.735-.031l.11-.485-.048-.015c-.406.03-.781.078-1.14.078q-.399 0-.75-.047l-.235 2c.36-.14.625-.156.875-.156.453 0 .813.297.813 1.047m0 0"/><path id="k" d="m.938-3.828-.47.031c-.171.016-.234.078-.25.156a.6.6 0 0 0-.046.157c0 .015.031.015.062.015H.86L.313-1.047C.25-.766.188-.484.188-.328c0 .328.156.422.437.422.406 0 .984-.375 1.297-.922C1.89-.938 1.828-1 1.719-1c-.407.469-.563.547-.719.547-.016 0-.11-.016-.11-.11 0-.093.032-.265.094-.562l.532-2.344h.875c.109-.047.187-.281.078-.36h-.875l.093-.39c.032-.172.11-.437.11-.531 0-.156-.063-.25-.36-.25-.312 0-.296.406-.39.734Zm0 0"/><path id="l" d="M1.813.094c1.765 0 2.375-1.14 2.671-2.719l.485-2.453c.047-.25.187-.375.547-.406L5.75-5.5c.047 0 .063-.031.078-.078l.031-.172-.015-.016c-.407.016-.75.016-.938.016-.203 0-.547 0-.937-.016l-.016.016-.047.172c0 .047.031.078.063.078l.219.016c.296.015.406.093.406.28 0 .032 0 .079-.016.126l-.516 2.61c-.187 1-.546 2.187-2 2.187-.406 0-.718-.188-.921-.438-.188-.25-.235-.515-.235-.797 0-.296.047-.593.094-.875l.531-2.703c.047-.25.203-.36.547-.39l.235-.016c.03 0 .062-.031.078-.078l.03-.172-.015-.016c-.406.016-.765.016-1.094.016-.343 0-.687 0-1.078-.016l-.03.016-.032.172c0 .047.031.078.062.078l.22.016c.28.015.405.093.405.28 0 .032 0 .063-.015.11L.266-2.109a3 3 0 0 0-.063.625c0 1.28.953 1.578 1.61 1.578m0 0"/><clipPath id="a"><path d="M20 23h209.32v95H20Zm0 0"/></clipPath><clipPath id="b"><path d="M220 63h9.32v15H220Zm0 0"/></clipPath><clipPath id="c"><path d="M20 3h2v138.266h-2Zm0 0"/></clipPath><clipPath id="j"><path d="M21.09 12h208.035v117H21.09Zm0 0"/></clipPath></defs><g clip-path="url(#a)"><path fill="none" stroke="#BFBFBF" stroke-miterlimit="10" stroke-width=".19779008" d="M21.09 117.59h208.035M21.09 103.504h208.035M21.09 94.114h208.035M21.09 47.151h208.035M21.09 37.762h208.035M21.09 23.676h208.035"/></g><path fill="none" stroke="#000" stroke-miterlimit="10" stroke-width=".79215424" d="M18.977 117.59h4.226m-4.226-14.086h4.226m-4.226-9.39h4.226m-4.226-46.962h4.226m-4.226-9.39h4.226m-4.226-14.086h4.226"/><path fill="none" stroke="#000" stroke-miterlimit="10" stroke-width=".39657408000000005" d="M21.09 70.633h204.582"/><path d="m228.727 70.633-2.954-1.754v3.508Zm0 0"/><g clip-path="url(#b)"><path fill="none" stroke="#000" stroke-miterlimit="10" stroke-width=".39657408000000005" d="m228.727 70.633-2.954-1.754v3.508Zm0 0"/></g><g clip-path="url(#c)"><path fill="none" stroke="#000" stroke-miterlimit="10" stroke-width=".39657408000000005" d="M21.09 141.07V3.648"/></g><path stroke="#000" stroke-miterlimit="10" stroke-width=".39657408000000005" d="M21.09.594 19.336 3.55h3.504Zm0 0"/><use xlink:href="#d" x="8.093" y="119.691"/><use xlink:href="#e" x="12.585" y="119.691"/><use xlink:href="#d" x="3.344" y="105.171"/><use xlink:href="#f" x="7.836" y="105.171"/><use xlink:href="#g" x="11.059" y="105.171"/><use xlink:href="#h" x="12.584" y="105.171"/><use xlink:href="#d" x="3.344" y="95.768"/><use xlink:href="#f" x="7.836" y="95.768"/><use xlink:href="#g" x="11.059" y="95.768"/><use xlink:href="#i" x="12.584" y="95.768"/><use xlink:href="#f" x="7.837" y="48.812"/><use xlink:href="#g" x="11.06" y="48.812"/><use xlink:href="#i" x="12.585" y="48.812"/><use xlink:href="#f" x="7.837" y="39.431"/><use xlink:href="#g" x="11.06" y="39.431"/><use xlink:href="#h" x="12.585" y="39.431"/><use xlink:href="#e" x="12.585" y="25.777"/><g clip-path="url(#j)"><path fill="none" stroke="#000" stroke-miterlimit="10" stroke-width=".79215424" d="m21.09 70.633.414-.649c.117-.183.305-.472.418-.652.117-.18.3-.469.418-.648s.3-.47.418-.649c.113-.183.3-.472.414-.652.117-.18.3-.469.418-.649s.3-.468.418-.648c.113-.176.3-.465.418-.645.113-.18.3-.468.414-.644.117-.18.3-.469.418-.649.117-.175.3-.464.418-.64.113-.18.3-.465.414-.645.117-.175.305-.46.418-.64.117-.176.3-.461.418-.637.117-.18.3-.461.418-.637.113-.18.3-.46.414-.636.117-.176.3-.458.418-.633.117-.176.3-.457.418-.633.113-.176.3-.453.418-.629.113-.176.3-.453.414-.625.117-.176.3-.453.418-.625.117-.176.3-.45.418-.621.113-.172.3-.45.414-.621.117-.172.304-.446.418-.617.117-.168.3-.442.418-.614.117-.168.3-.441.418-.61.113-.167.3-.437.414-.605.117-.167.3-.437.418-.605s.3-.434.418-.602c.113-.164.3-.43.418-.593.113-.168.3-.43.414-.594.117-.164.3-.426.418-.59s.3-.426.418-.586l.414-.582c.117-.16.304-.418.418-.578.117-.16.3-.414.418-.574.117-.156.3-.41.418-.567l.414-.566c.117-.156.3-.406.418-.559.117-.156.3-.402.418-.554.113-.157.3-.399.418-.551.113-.152.3-.395.414-.547l.418-.543c.117-.148.3-.387.418-.535.113-.149.3-.383.414-.531.117-.145.304-.38.418-.524.117-.144.3-.375.418-.52.117-.144.3-.374.418-.515l.414-.508c.117-.14.3-.367.418-.504l.418-.5a25 25 0 0 1 .418-.488c.113-.137.3-.355.414-.488.117-.133.3-.348.418-.48.117-.133.3-.344.418-.473.113-.13.3-.34.414-.47.117-.128.304-.331.418-.46.117-.125.3-.328.418-.453l.417-.45c.114-.124.301-.32.415-.44.117-.122.3-.317.418-.434.117-.121.3-.313.417-.43.114-.117.301-.305.418-.422.114-.117.301-.3.415-.414.117-.113.3-.297.417-.406.118-.114.301-.293.418-.403l.415-.394c.117-.106.304-.277.417-.387.118-.105.301-.273.418-.379.118-.101.301-.27.418-.37.114-.102.301-.263.414-.364.118-.102.301-.258.418-.356.118-.097.301-.253.418-.351l.418-.34c.114-.094.301-.242.414-.336.118-.09.301-.234.418-.324.118-.09.301-.23.418-.317.114-.09.301-.226.414-.312.118-.086.305-.219.418-.3.118-.087.301-.216.418-.298.118-.078.301-.207.418-.285a26 26 0 0 1 .832-.547c.118-.074.301-.191.418-.261.114-.075.301-.188.418-.254.114-.07.301-.18.414-.246l.418-.239c.118-.062.301-.164.418-.226.114-.063.301-.16.414-.22.118-.062.305-.155.418-.214.118-.055.301-.144.418-.203.118-.055.301-.14.418-.191.114-.055.301-.137.414-.188.118-.05.301-.129.418-.176.118-.047.301-.125.418-.168.114-.047.301-.117.418-.16.114-.043.301-.11.414-.152.118-.04.301-.102.418-.14.117-.04.301-.098.418-.134.114-.035.301-.093.414-.125.118-.035.305-.086.418-.117.117-.031.301-.078.418-.105.117-.028.301-.074.418-.098a16 16 0 0 1 .832-.168c.117-.023.301-.055.418-.074.114-.016.301-.043.418-.063.113-.015.301-.039.414-.05.117-.016.301-.036.418-.043l.418-.04c.113-.007.301-.019.414-.023.117-.008.305-.015.418-.02.117-.003.301-.003.418-.007h.418l.414.012c.117.003.301.011.418.019.117.004.301.02.418.027.113.008.301.024.418.036.113.011.3.035.414.046l.418.055c.117.016.301.047.418.063l.414.074c.117.023.305.058.418.082a16 16 0 0 1 .836.191c.113.028.3.074.414.106.117.031.301.086.418.117.117.035.3.09.418.129.113.035.3.094.418.133l.414.144.418.153c.117.042.3.117.418.16l.414.172c.117.046.305.128.418.18.117.05.3.132.418.187.117.05.3.14.418.195.113.055.3.145.414.203.117.059.3.153.418.215.117.059.3.156.418.219.113.062.3.168.418.23.113.067.3.172.414.239.117.066.3.18.418.246.117.07.3.183.418.257.113.07.3.188.414.262.117.074.305.195.418.274.117.074.3.199.418.277s.3.207.418.289c.113.082.3.21.414.297.117.082.3.219.418.3.117.087.3.227.418.313.113.09.3.23.418.32.113.09.3.235.414.329.117.09.3.242.418.336.117.093.3.246.418.34.113.097.3.253.414.35.117.099.305.259.418.36.117.098.3.262.418.364l.418.375c.113.105.3.273.414.378.117.106.3.282.418.387.117.11.3.285.418.395.113.113.3.293.418.402l.414.41c.117.114.3.301.418.418.117.113.3.301.418.422.113.117.3.309.414.43.117.117.305.312.418.433l.418.446c.117.125.3.324.418.449.113.125.3.328.414.457.117.125.3.332.418.46.117.13.3.337.418.47l.418.476c.113.13.3.344.414.48.117.133.3.348.418.485s.3.355.418.492c.113.14.3.363.414.5.117.14.305.363.418.504.117.14.3.367.418.512.117.14.3.37.418.515.113.145.3.375.414.52.117.145.3.379.418.527l.418.532c.113.148.3.386.418.539l.414.539.418.547c.117.152.3.398.418.55.113.157.3.403.414.559.117.156.305.402.418.559.117.156.3.41.418.566l.418.57c.113.16.3.414.414.574.117.16.3.418.418.579s.3.421.418.582c.113.164.3.422.418.586.113.164.3.425.414.59.117.163.3.43.418.593.117.168.3.434.418.598.113.168.3.433.414.601.117.168.304.438.418.606.117.168.3.437.418.605l.418.614c.113.168.3.441.414.613.117.172.3.445.418.617s.3.445.418.617c.113.176.3.45.418.625.113.172.3.45.414.625.117.172.3.453.418.625.117.176.3.457.418.63.113.175.3.456.414.632.117.176.304.457.418.633.117.18.3.46.418.637.117.175.3.46.418.636.113.18.3.465.414.64.117.18.3.466.418.641.117.18.3.465.418.645.113.176.3.465.418.64.113.18.3.47.414.65.117.175.3.464.418.644s.3.468.418.648c.113.18.3.465.414.645.117.183.304.468.418.652.117.18.3.469.418.648s.3.47.418.649c.113.18.3.469.414.648.117.184.3.473.418.653s.3.468.418.648c.113.184.3.473.418.652.113.18.3.47.414.649.117.183.3.472.418.652s.3.469.418.649c.113.18.3.468.414.648.117.18.304.469.418.648.117.18.3.47.418.649s.3.469.417.648c.114.176.301.465.415.645.117.18.3.465.418.644l.417.645.418.64c.114.176.301.461.415.641.117.176.3.461.417.637l.418.637c.114.18.301.46.415.636.117.176.304.457.417.633.118.176.301.457.418.633.118.172.301.453.418.629.114.172.301.45.414.625.118.172.301.45.418.625.118.172.301.45.418.62.114.173.301.446.418.618.114.172.301.445.414.617.118.168.301.442.418.61l.418.613c.114.168.301.437.414.605.118.168.305.434.418.602.118.168.301.434.418.602.118.164.301.43.418.593.114.168.301.43.414.594.118.164.301.426.418.59.118.16.301.422.418.586.114.16.301.418.418.578.114.16.301.418.414.578.118.16.301.414.418.57.118.16.301.414.418.57.114.157.301.407.414.563.118.156.305.406.418.559.118.156.301.402.418.555.118.156.301.398.418.55.114.153.301.395.414.547.118.149.301.39.418.54.118.148.301.386.418.534.114.149.301.383.418.528.114.148.301.383.414.527.118.145.301.375.418.52.117.14.301.37.418.511l.414.508c.118.14.305.363.418.504.117.137.301.36.418.496.117.137.301.356.418.492.114.133.301.348.414.485l.418.476c.117.133.301.344.418.473.114.133.301.34.418.469l.414.457c.117.129.301.328.418.453l.418.449.414.441c.117.122.305.313.418.434.117.117.301.309.418.426l.418.422c.113.113.301.297.414.414l.418.406c.117.11.301.29.418.398.113.11.301.286.418.391.113.11.3.281.414.387.117.105.301.273.418.375.117.105.301.27.418.37.113.102.3.267.414.364.117.102.305.258.418.356.117.097.301.254.418.347.117.098.3.246.418.34.113.094.3.242.414.332.117.094.301.238.418.324.117.09.3.23.418.317.113.09.3.226.418.308.113.086.3.22.414.305l.418.293c.117.078.3.203.418.281.113.078.3.203.414.278.117.078.305.195.418.27l.418.26c.117.071.3.184.418.25.113.071.3.18.414.247l.418.234.418.227c.113.062.3.16.418.219l.414.21c.117.055.3.145.418.2s.3.14.418.191c.113.055.3.137.414.188.117.047.305.125.418.172.117.05.3.125.418.168a18 18 0 0 0 .832.308c.117.04.3.102.418.14a17 17 0 0 0 .836.255l.414.113c.117.031.3.078.418.105l.418.098.414.086c.117.023.305.059.418.078.117.024.3.05.418.07s.3.047.418.063c.113.016.3.035.414.05l.418.044.418.031.418.027.414.016c.117 0 .3.004.418.004h.418l.414-.012c.117-.008.305-.015.418-.023.117-.004.3-.02.418-.028l.418-.039c.113-.011.3-.031.414-.047.117-.015.3-.039.418-.058.117-.016.3-.043.418-.063l.418-.074c.113-.023.3-.058.414-.086.117-.023.3-.062.418-.09s.3-.074.418-.101c.113-.031.3-.078.414-.11.117-.035.305-.086.418-.12.117-.036.3-.09.418-.13.117-.035.3-.093.418-.132.113-.04.3-.106.414-.149.117-.039.3-.11.418-.152.117-.043.3-.117.418-.164.113-.047.3-.121.418-.172.113-.047.3-.13.414-.18.117-.05.3-.137.418-.187a20 20 0 0 0 .832-.407c.117-.054.305-.152.418-.21.117-.063.3-.16.418-.227.117-.063.3-.164.418-.23.113-.067.3-.172.414-.239l.418-.25.418-.254c.113-.074.3-.191.418-.265.113-.075.3-.196.414-.274.117-.078.3-.203.418-.281s.3-.207.418-.29l.414-.296c.117-.086.304-.219.418-.305.117-.086.3-.226.418-.316.117-.086.3-.23.418-.32.113-.09.3-.235.414-.329.117-.093.3-.242.418-.335s.3-.25.418-.344c.113-.098.3-.254.418-.352.113-.101.3-.261.414-.36.117-.1.3-.265.418-.366l.418-.375c.113-.106.3-.274.414-.383a39.313 39.313 0 0 0 .836-.785c.117-.11.3-.29.418-.403l.414-.41c.117-.113.3-.3.418-.418l.418-.422c.113-.12.3-.312.418-.433.113-.117.3-.313.414-.438a46 46 0 0 0 .836-.894c.113-.125.3-.328.414-.457.117-.125.304-.332.418-.461.117-.13.3-.34.418-.473.117-.129.3-.34.418-.473.113-.132.3-.347.414-.484.117-.133.3-.351.418-.488s.3-.356.418-.492c.113-.141.3-.36.418-.5.113-.141.3-.364.414-.508.117-.14.3-.367.418-.508.117-.145.3-.375.418-.52.113-.144.3-.375.414-.52l.418-.526c.117-.149.3-.387.418-.536.117-.148.3-.386.417-.535.114-.152.301-.394.415-.543l.418-.547.417-.554.418-.559c.114-.152.301-.402.415-.558.117-.157.3-.41.417-.567.118-.16.301-.414.418-.57l.415-.578c.117-.16.304-.414.417-.578.118-.16.301-.418.418-.582l.418-.586c.114-.164.301-.426.414-.594.118-.164.301-.426.418-.594.118-.164.301-.43.418-.598.114-.168.301-.433.418-.601.114-.168.301-.438.414-.606.118-.168.301-.437.418-.605l.418-.613c.114-.172.301-.446.414-.614.118-.171.305-.445.418-.617.118-.172.301-.449.418-.62.118-.173.301-.45.418-.622.114-.176.301-.453.414-.629.118-.172.301-.453.418-.625.118-.176.301-.457.418-.629.114-.176.301-.457.418-.633.114-.175.301-.46.414-.636.118-.176.301-.457.418-.637.118-.176.301-.457.418-.637.114-.176.301-.46.414-.64.118-.176.305-.461.418-.641.118-.176.301-.465.418-.64.118-.18.301-.465.418-.645.114-.18.301-.465.414-.645.118-.18.301-.468.418-.648.118-.18.301-.465.418-.645.114-.18.301-.468.418-.648.114-.18.301-.469.414-.649.118-.18.301-.468.418-.652.117-.18.301-.469.418-.648l.414-.649c.118-.183.305-.472.418-.652l.418-.649c.117-.183.301-.472.418-.652.114-.18.301-.469.414-.648.117-.18.301-.473.418-.653l.418-.648c.114-.18.301-.469.418-.649.113-.18.301-.468.414-.648.117-.18.301-.469.418-.648l.418-.645c.113-.18.301-.469.414-.648.117-.176.305-.465.418-.641l.418-.645c.117-.18.301-.464.418-.64.113-.18.301-.465.414-.64l.418-.641c.117-.176.301-.457.418-.637.113-.176.301-.457.418-.633.113-.176.3-.457.414-.633l.418-.633c.117-.171.301-.453.418-.625.113-.175.3-.453.414-.628.117-.172.305-.45.418-.622.117-.171.301-.449.418-.62.117-.173.3-.45.418-.618.113-.172.3-.445.414-.617.117-.168.301-.441.418-.613.117-.168.3-.438.418-.606.113-.172.3-.441.418-.61.113-.167.3-.433.414-.6.117-.169.3-.434.418-.598l.418-.598c.113-.164.3-.426.414-.59.117-.164.305-.426.418-.59.117-.16.3-.422.418-.582.117-.164.3-.422.418-.582.113-.16.3-.414.414-.574.117-.16.3-.414.418-.574.117-.156.3-.41.418-.567.113-.156.3-.406.418-.562.113-.156.3-.402.414-.559.117-.152.3-.402.418-.554s.3-.395.418-.547c.113-.153.3-.395.414-.547.117-.149.305-.387.418-.54.117-.148.3-.386.418-.53l.418-.532"/></g><use xlink:href="#k" x="223.93" y="78.801"/><use xlink:href="#l" x="13.179" y="9.132"/></svg>