<svg xmlns="http://www.w3.org/2000/svg" xmlns:xlink="http://www.w3.org/1999/xlink" width="108.95" height="146.528"><defs><path id="a" d="m1.906-5.078-.86 4.406c-.062.25-.187.375-.562.406L.22-.234c-.047.03-.063.172-.016.25C.593.016.922 0 1.266 0s.75.016 1.14.016c.031-.032.047-.22.031-.25l-.312-.032c-.344-.03-.437-.14-.39-.406l.859-4.406c.062-.25.187-.375.562-.422l.281-.016a.38.38 0 0 0 .016-.265c-.406 0-.734.015-1.078.015S1.641-5.78 1.25-5.78c-.031.031-.062.218-.031.265l.297.016c.359.031.453.14.39.422m0 0"/><path id="b" d="M3.5-5.844c-.219 0-.75.078-1.094.078S1.72-5.78 1.328-5.78l-.031.015-.031.188c-.016.031 0 .062.046.062l.329.016c.125 0 .312.063.312.281 0 .032 0 .063-.016.094L1.064-.641c-.047.25-.172.36-.547.375l-.22.032C.25-.234.22-.22.22-.172L.172 0l.031.016C.593.016.953 0 1.281 0c.344 0 .688.016 1.094.016L2.406 0l.031-.172c0-.047-.03-.062-.062-.062l-.219-.032C1.875-.28 1.75-.344 1.75-.53c0-.031 0-.063.016-.11l.375-1.953c.718 0 .875.125.953.328l.61 1.563c.171.422.468.797.983.797.125 0 .282-.016.375-.063l.032-.218c-.39 0-.532-.297-.688-.688L3.688-2.75c.39-.125 1.25-.594 1.437-1.531.031-.11.047-.235.047-.344a1.13 1.13 0 0 0-.281-.766c-.328-.406-.86-.453-1.391-.453m-.062.297c.453 0 .984.172.984.89 0 .11-.031.235-.047.391-.219 1.11-.922 1.36-1.75 1.36h-.422l.438-2.219c.046-.266.187-.422.797-.422m0 0"/><path id="i" d="M1.828.094c1.75 0 2.375-1.14 2.672-2.735l.484-2.453c.047-.25.188-.39.563-.406l.219-.016c.046 0 .078-.03.078-.078l.031-.172-.016-.015c-.406 0-.75.015-.937.015-.203 0-.547-.015-.938-.015l-.03.015-.032.172c0 .047.031.078.062.078l.22.016c.296.016.405.094.405.281 0 .032 0 .078-.015.125l-.516 2.625c-.187 1-.547 2.188-2 2.188-.422 0-.734-.188-.937-.438C.953-.969.906-1.25.906-1.53s.047-.594.11-.875L1.53-5.11c.063-.25.203-.375.563-.391l.219-.016c.046 0 .078-.03.078-.078l.046-.172-.03-.015c-.391 0-.75.015-1.094.015S.64-5.78.234-5.78l-.03.015-.032.172c0 .047.031.078.062.078l.22.016c.28.016.405.078.405.266 0 .046 0 .078-.015.125l-.578 3a3 3 0 0 0-.063.625c0 1.28.953 1.578 1.625 1.578m0 0"/><path id="c" d="M2.063-.875v-2.484c0-.422 0-.86.015-.953 0-.032-.015-.032-.031-.032-.406.235-.781.422-1.406.703a.33.33 0 0 0 .109.204c.328-.141.484-.188.61-.188.124 0 .156.172.156.422v2.328c0 .594-.203.625-.703.656-.047.047-.047.188 0 .235C1.172 0 1.422 0 1.813 0c.343 0 .515 0 .875.016.03-.047.03-.188 0-.235-.5-.031-.626-.062-.626-.656m0 0"/><path id="e" d="M.438-3.344c0 .14.14.281.28.281.126 0 .345-.14.345-.296 0-.047-.016-.094-.032-.141-.015-.062-.062-.125-.062-.172 0-.187.187-.437.719-.437.25 0 .609.172.609.859 0 .453-.156.828-.578 1.266l-.532.515C.485-.75.375-.406.375.016c0 0 .36-.016.594-.016h1.25c.234 0 .562.016.562.016a8 8 0 0 0 .172-1.125c-.047-.047-.14-.063-.219-.047-.109.515-.234.687-.5.687H.97c0-.343.484-.828.531-.86l.719-.702c.406-.39.719-.703.719-1.25 0-.766-.641-1.078-1.22-1.078-.78 0-1.28.578-1.28 1.015m0 0"/><clipPath id="d"><path d="M54 137h15v9.059H54Zm0 0"/></clipPath><clipPath id="f"><path d="M54 137h15v9.059H54Zm0 0"/></clipPath><clipPath id="g"><path d="M4 137h16v9.059H4Zm0 0"/></clipPath><clipPath id="h"><path d="M87 137h16v9.059H87Zm0 0"/></clipPath></defs><path fill="none" stroke="#000" stroke-miterlimit="10" stroke-width=".39771921" d="M12.172 11.957h24.812m0 0h41.348m0 0h16.543"/><path fill="#FFF" stroke="#000" stroke-miterlimit="10" stroke-width=".39771921" d="M13.754 11.957a1.58 1.58 0 0 0-1.582-1.582 1.58 1.58 0 0 0-1.582 1.582 1.58 1.58 0 0 0 1.582 1.582 1.58 1.58 0 0 0 1.582-1.582Zm0 0"/><path stroke="#000" stroke-miterlimit="10" stroke-width=".39771921" d="M35.25 11.957v1.977l4.203-1.977L35.25 9.98Zm0 0"/><use xlink:href="#a" x="35.727" y="8.762"/><path fill="#FFF" stroke="#000" stroke-miterlimit="10" stroke-width=".39771921" d="M96.457 11.957a1.583 1.583 0 1 0-3.166.002 1.583 1.583 0 0 0 3.166-.002Zm0 0"/><path fill="none" stroke="#000" stroke-miterlimit="10" stroke-width=".39771921" d="M61.793 11.957v17.258m0 31.644v34.516m0 31.648v17.254"/><path fill="none" stroke="#000" stroke-miterlimit="10" stroke-width=".79444163" d="M55.86 60.86V29.214h11.867v31.644Zm0 0"/><path stroke="#000" stroke-miterlimit="10" stroke-width=".39771921" d="M63.375 11.957a1.58 1.58 0 0 0-1.582-1.582 1.58 1.58 0 0 0-1.582 1.582 1.58 1.58 0 0 0 1.582 1.582 1.58 1.58 0 0 0 1.582-1.582ZM63.375 78.117a1.583 1.583 0 1 0-3.166.002 1.583 1.583 0 0 0 3.166-.002Zm0 0"/><use xlink:href="#b" x="44.684" y="47.182"/><use xlink:href="#c" x="49.948" y="49.059"/><path fill="none" stroke="#000" stroke-miterlimit="10" stroke-width=".79444163" d="M55.86 127.023V95.375h11.867v31.648Zm0 0"/><path stroke="#000" stroke-miterlimit="10" stroke-width=".39771921" d="M63.375 78.117a1.583 1.583 0 1 0-3.166.002 1.583 1.583 0 0 0 3.166-.002Zm0 0"/><path d="M63.375 144.277a1.583 1.583 0 1 0-3.166.002 1.583 1.583 0 0 0 3.166-.002m0 0"/><g clip-path="url(#d)"><path fill="none" stroke="#000" stroke-miterlimit="10" stroke-width=".39771921" d="M63.375 144.277a1.583 1.583 0 1 0-3.166.002 1.583 1.583 0 0 0 3.166-.002Zm0 0"/></g><use xlink:href="#b" x="44.684" y="113.342"/><use xlink:href="#e" x="49.948" y="115.219"/><path fill="none" stroke="#000" stroke-miterlimit="10" stroke-width=".39771921" d="M61.793 144.277H36.984m0 0H12.172"/><path d="M63.375 144.277a1.583 1.583 0 1 0-3.166.002 1.583 1.583 0 0 0 3.166-.002m0 0"/><g clip-path="url(#f)"><path fill="none" stroke="#000" stroke-miterlimit="10" stroke-width=".39771921" d="M63.375 144.277a1.583 1.583 0 1 0-3.166.002 1.583 1.583 0 0 0 3.166-.002Zm0 0"/></g><path fill="#FFF" d="M13.754 144.277a1.583 1.583 0 1 0-3.166.002 1.583 1.583 0 0 0 3.166-.002m0 0"/><g clip-path="url(#g)"><path fill="none" stroke="#000" stroke-miterlimit="10" stroke-width=".39771921" d="M13.754 144.277a1.583 1.583 0 1 0-3.166.002 1.583 1.583 0 0 0 3.166-.002Zm0 0"/></g><path fill="none" stroke="#000" stroke-miterlimit="10" stroke-width=".39771921" d="M61.793 144.277h16.539m0 0h16.543"/><path fill="#FFF" d="M96.457 144.277a1.583 1.583 0 1 0-3.162.002 1.583 1.583 0 0 0 3.162-.002m0 0"/><g clip-path="url(#h)"><path fill="none" stroke="#000" stroke-miterlimit="10" stroke-width=".39771921" d="M96.457 144.277a1.583 1.583 0 1 0-3.162.002 1.583 1.583 0 0 0 3.162-.002Zm0 0"/></g><path fill="none" stroke="#000" stroke-miterlimit="10" stroke-width=".39771921" d="M61.793 78.117h16.539m0 0h16.543"/><path stroke="#000" stroke-miterlimit="10" stroke-width=".39771921" d="M63.375 78.117a1.583 1.583 0 1 0-3.166.002 1.583 1.583 0 0 0 3.166-.002Zm0 0"/><path fill="#FFF" stroke="#000" stroke-miterlimit="10" stroke-width=".39771921" d="M96.457 78.117a1.583 1.583 0 1 0-3.162.002 1.583 1.583 0 0 0 3.162-.002Zm0 0"/><path fill="none" stroke="#000" stroke-miterlimit="10" stroke-width=".39771921" d="M94.875 87.992v46.41"/><path stroke="#000" stroke-miterlimit="10" stroke-width=".39771921" d="M94.875 130.203h-1.98l1.98 4.2 1.977-4.2Zm0 0"/><use xlink:href="#i" x="98.3" y="113.143"/><use xlink:href="#e" x="103.055" y="115.019"/><path fill="none" stroke="#000" stroke-miterlimit="10" stroke-width=".39771921" d="M12.172 31.758v92.722"/><path stroke="#000" stroke-miterlimit="10" stroke-width=".39771921" d="M12.172 120.277h-1.977l1.977 4.203 1.976-4.203Zm0 0"/><use xlink:href="#i" x="2.137" y="80.963"/></svg>