<svg xmlns="http://www.w3.org/2000/svg" xmlns:xlink="http://www.w3.org/1999/xlink" width="229.251" height="122.163"><defs><path id="b" d="M1.094-.484v-5.188l-.547-.125c-.086-.02-.125-.05-.125-.094q0-.074.094-.25H4.53c.04.5.063.852.063 1.047 0 .262-.086.39-.25.39a.6.6 0 0 1-.203-.03l-.22-.938H1.876v2.313h1.969v.484H1.875V-.5h2.11l.25-.969a.6.6 0 0 1 .202-.031q.219 0 .22.36Q4.655-.78 4.577 0H.422a.16.16 0 0 1-.016-.078Q.404-.324.72-.406Zm0 0"/><path id="c" d="M.906-.469V-3.78l-.64-.094a.16.16 0 0 1-.016-.078c0-.156.11-.242.328-.266l1.047-.11-.047.75h.031q.517-.796 1.125-.796.593 0 .594.422 0 .188-.14.375a1.6 1.6 0 0 0-.594-.125c-.399 0-.719.168-.969.5V-.47l.625.125q.124.017.125.11A.35.35 0 0 1 2.281 0H.312a.1.1 0 0 1-.015-.062c0-.133.094-.235.281-.297Zm0 0"/><path id="d" d="M3.406-.5h-.031q-.44.61-1.266.61-.737 0-1.187-.47Q.39-.902.39-2.015q0-1.156.703-1.812.592-.546 1.484-.547c.27 0 .524.04.766.11v-1.657l-.64-.094a.1.1 0 0 1-.017-.062q0-.246.329-.281l1.047-.11v5.985l.656.078q.013.047.015.078 0 .252-.328.281l-1 .094Zm-1.094.031q.657 0 1.032-.39v-2.703q-.316-.33-.844-.329c-.406 0-.73.149-.969.438q-.39.486-.39 1.312-.001.846.343 1.282.295.39.829.39m0 0"/><path id="e" d="M1.156-2.172q.012.845.375 1.297c.239.305.57.453 1 .453q.593 0 1.11-.422.092.064.109.25-.001.205-.406.438-.47.265-1.11.265Q1.42.111.938-.39C.57-.773.39-1.332.39-2.062Q.39-3.152.969-3.798a1.7 1.7 0 0 1 1.297-.578q.702.001 1.093.406.36.41.36 1.078 0 .299-.094.72Zm1.032-1.75q-.91.002-1.016 1.328h1.75q.047-.17.047-.375-.001-.951-.781-.953m0 0"/><path id="f" d="M3.188-5.516a1.8 1.8 0 0 0-.891-.25q-.518.001-.813.266-.297.25-.296.719-.001.392.25.656.138.14.5.328l.843.469q.64.362.922.672.342.392.344.984 0 .797-.516 1.266-.533.516-1.453.515Q1.357.111.594-.25q-.047-.482-.047-1-.002-.389.265-.39.094 0 .204.046l.218.938q.386.298.938.297.575 0 .89-.328c.188-.196.282-.454.282-.766a.95.95 0 0 0-.281-.703q-.222-.187-.922-.578l-.563-.313q-.516-.279-.75-.594-.313-.404-.312-.984c0-.5.18-.898.547-1.203q.513-.422 1.343-.422.764 0 1.375.328.047.645.047.844 0 .391-.281.39a.5.5 0 0 1-.188-.03Zm0 0"/><path id="g" d="M2.578-6.14a.2.2 0 0 1 .016.077q-.001.237-.313.297l-.406.094v2.266h2.969v-2.266l-.547-.125c-.086-.02-.125-.05-.125-.094q0-.074.094-.25h2.062a.2.2 0 0 1 .016.079q-.001.236-.313.296l-.406.094v5.188l.61.125q.123.017.124.093 0 .048-.093.266H4.172a.16.16 0 0 1-.016-.078q-.002-.246.313-.328l.375-.078v-2.391H1.875v2.39l.61.126q.123.017.124.093 0 .048-.093.266H.422a.16.16 0 0 1-.016-.078Q.404-.324.72-.406l.375-.078v-5.188l-.547-.125c-.086-.02-.125-.05-.125-.094q0-.074.094-.25Zm0 0"/><clipPath id="a"><path d="M13 71h215.098v50.332H13Zm0 0"/></clipPath></defs><g clip-path="url(#a)"><path fill="#BFBFBF" d="m13.875 102.926 159.012-31.801 55.215 18.406L69.09 121.332Zm0 0"/></g><use xlink:href="#b" x="66.694" y="106.106"/><use xlink:href="#c" x="71.743" y="106.106"/><use xlink:href="#d" x="75.065" y="106.106"/><use xlink:href="#e" x="79.981" y="106.106"/><path fill="none" stroke="#7F7F7F" stroke-miterlimit="10" stroke-width=".7915804000000001" d="m41.48 63.816 164.852-32.972"/><path fill="#7F7F7F" stroke="#7F7F7F" stroke-miterlimit="10" stroke-width=".7915485200000001" d="m210.32 30.047-4.129-.91.332 1.672.336 1.668Zm0 0"/><use xlink:href="#f" x="214.697" y="32.917"/><path fill="none" stroke="#000" stroke-dasharray="3.95800132 1.97900066" stroke-miterlimit="10" stroke-width=".7915804000000001" d="m62.187 70.715.274-1.363.246-1.375.215-1.38.187-1.382.157-1.387.129-1.387.101-1.386.07-1.383.043-1.375.016-1.371-.012-1.36-.039-1.351-.066-1.336-.094-1.324-.117-1.305-.14-1.29-.169-1.269-.191-1.246-.211-1.222-.238-1.2-.258-1.171-.278-1.141-.296-1.117-.317-1.082-.336-1.051-.351-1.016-.367-.98-.387-.942-.399-.906-.41-.867-.426-.828-.433-.781-.45-.743-.456-.699-.465-.656-.469-.61-.48-.562-.48-.516-.49-.468-.488-.422-.492-.371-.492-.324-.492-.274-.488-.223-.489-.175-.484-.121-.48-.075-.473-.027-.465.027-.457.078-.45.125-.437.176-.43.227-.413.273-.399.32-.387.372-.375.418-.355.464-.336.508-.32.555-.301.598-.281.64-.262.688-.238.722-.22.766-.194.805-.172.84-.145.878-.125.91-.094.95-.074.976-.043 1.008-.02 1.04.012 1.066.04 1.09.066 1.117.094 1.14.12 1.16.153 1.176.18 1.2.21 1.21.243 1.227.27 1.238.296 1.246.328 1.258.36 1.262.386 1.27.418 1.269.446 1.27.472 1.269.504 1.27.532 1.261.558 1.254.586 1.246.613 1.239.641 1.222.668 1.211.691 1.192.715 1.175.742 1.157.766 1.136.79 1.11.808 1.09.832 1.062.855 1.031.871 1.004.895.973.91.941.93.906.945.872.957.836.977.796.988.758 1.004.719 1.011.676 1.024.636 1.035.59 1.043.547 1.047.5 1.059.457 1.062.406 1.063.364 1.07.312 1.07.266 1.07.219 1.07.164 1.071.12 1.07.067 1.063.016 1.058-.031 1.051-.082 1.051-.133 1.035-.184 1.031-.23 1.02-.286 1.008-.332.996-.378.984-.43.969-.477.953-.523.938-.57.922-.618.902-.664.883-.707.867-.746.844-.793.82-.832.8-.875.782-.914.754-.95.73-.983.707-1.024.68-1.055.656-1.09.63-1.12.6-1.149.575-1.176.547-1.203.515-1.226.493-1.25.46-1.274.434-1.289.403-1.312.375-1.325.343-1.34.317-1.351.285-1.36.258-1.37.226-1.38.2-1.382.167-1.387.137-1.387.113-1.386.079-1.383.054-1.38.028-1.37-.004-1.363-.028-1.356-.058-1.34-.082-1.332-.11-1.312-.129-1.293-.16-1.278-.18-1.254-.206-1.234-.227-1.207-.25-1.18-.27-1.156-.289-1.125-.308-1.094-.332-1.062-.344-1.031-.363-.993-.38-.957-.394-.921-.406-.883-.418-.84-.434-.8-.44-.759-.454-.715-.461-.671-.469-.625-.476-.579-.48-.535-.489-.484-.488-.442-.493-.39-.488-.34-.492-.293-.492-.242-.488-.192-.485-.144-.484-.094-.473-.043-.469.008-.46.059-.454.109-.441.156-.434.207-.418.254-.406.305-.39.351-.38.403-.359.445-.347.492-.325.535-.312.582-.285.63-.27.667-.25.707-.226.75-.204.79-.18.828-.155.867-.13.898-.105.934-.082.965-.055 1-.027 1.027v1.055l.027 1.082.055 1.109.082 1.129.113 1.152.141 1.172.172 1.192.2 1.207.23 1.218.254 1.235.289 1.242.316 1.254.348 1.262.379 1.265.402 1.27.437 1.273.461 1.27.493 1.27.523 1.26.547 1.259.578 1.25.602 1.242.628 1.226.657 1.215.683 1.2.711 1.183.73 1.164.758 1.145.778 1.12.805 1.098.824 1.07.843 1.044.868 1.015.882.985.907.953.922.918.937.887.957.847.969.813.984.773.996.73 1.008.696 1.024.648 1.027.606 1.039.562 1.047.52 1.055.476 1.058.426 1.067.38 1.066.327 1.07.285 1.07.235 1.07.187 1.071.137 1.07.086 1.067.035 1.059-.012 1.058-.066 1.047-.113 1.043-.164 1.031-.215 1.024-.262 1.015-.316 1-.36.989-.41.972-.46.961-.509.942-.55.93-.602.906-.645.894-.69.871-.731.852-.778.832-.82.808-.856.785-.898.766-.937.738-.973.72-1.008.687-1.047.664-1.074.64-1.11.61-1.136.586-1.164.558-1.195.528-1.22.5-1.241.472-1.266.446-1.281.414-1.305.386-1.32.356-1.332.324-1.348.297-1.36.27-1.367.238-1.375.207-1.382.18-1.383.148-1.387.121-1.387.094-1.386.062-1.38.04-1.374.007-1.367-.02-1.36-.046-1.347-.075-1.332-.097-1.32-.121-1.302-.153-1.28-.172-1.266-.195-1.239-.219-1.218-.242-1.192-.261-1.168-.282-1.133-.304-1.105-.32-1.078-.34-1.04-.356-1.007-.375-.973-.387-.933-.402-.895-.414-.86-.43-.812-.437-.777-.45-.73-.46-.688-.465-.64-.473-.598-.48-.551-.485-.508-.484-.457-.492-.406-.493-.36-.492-.308-.492-.262-.488-.215-.489-.16-.48-.113-.477-.059-.472-.012-.465.04-.457.09-.445.136-.434.188-.422.238-.414.285-.398.336-.383.383-.367.426-.352.476-.332.524-.316.562-.297.613-.278.649-.254.695-.234.734-.21.778-.192.812-.164.852-.14.887-.114.918-.094.957-.062.988-.04 1.016-.007 1.042.015 1.075.043 1.097.074 1.121.102 1.145.129 1.164.16 1.184.188 1.203.218 1.215.246 1.23.278 1.238.308 1.25.336 1.258.364 1.266.394 1.27.426 1.269.453 1.27.48 1.269.512 1.266.535 1.261.567 1.254.594 1.242.62 1.235.645 1.218.676 1.208.7 1.19.722 1.169.746 1.152.773 1.13.793 1.105.817 1.082.836 1.054.859 1.024.879 1 .894.965.918.93.934.898.945.863.965.824.98.79.993.745 1.004.707 1.015.668 1.028.621 1.035.582 1.047.536 1.05.492 1.055.441 1.063.399 1.066.347 1.07.305 1.07.25 1.071.207 1.074.152 1.067.106 1.066.055 1.063.003 1.058-.043 1.055-.093 1.043-.149 1.035-.195 1.027-.246 1.02-.293 1.004-.344.992-.394.98-.442.965-.488.95-.535.933-.582.918-.63.899-.671.878-.719.86-.761.836-.801.82-.844.793-.883.773-.922.75-.96.723-.997.7-1.031.675-1.062.649-1.098.62-1.125.598-1.156.567-1.184.539-1.21.511-1.235.485-1.254.453-1.278.426-1.296.394-1.313.367-1.328.34-1.344.305-1.355"/><path fill="none" stroke="#000" stroke-miterlimit="10" stroke-width=".7915804000000001" d="m41.48 29.305-.492-.293-.488-.242-.488-.196-.489-.144-.48-.094-.477-.047-.468.008-.461.055-.45.105-.445.156-.43.203-.421.254-.407.305-.39.352-.38.398-.362.445-.344.489-.328.535-.309.582-.289.625-.27.668-.25.707-.226.75-.203.785-.184.828-.156.863-.133.899-.105.933-.082.965-.055.996-.027 1.028-.004 1.054.027 1.082.055 1.106.082 1.129.113 1.152.137 1.172.172 1.187.199 1.208.226 1.222.258 1.23.285 1.247.317 1.25.347 1.261.375 1.266.403 1.27.433 1.273.465 1.27.489 1.27.523 1.26.547 1.259.574 1.254.602 1.238.632 1.23.653 1.215.683 1.2.707 1.183.73 1.164.759 1.145.777 1.12.8 1.098.825 1.074.848 1.043.863 1.016.883.984.906.957.922.922.937.883.954.852.968.812.985.774.996.734 1.008.695 1.02.649 1.03.61 1.04.566 1.046.52 1.055.472 1.059.43 1.062.382 1.07.332 1.07.285 1.071.235 1.07.187 1.07.141 1.07.086 1.063.039 1.063-.012 1.055-.062 1.05-.114 1.043-.16 1.032-.215 1.023-.261 1.016-.313 1-.36.988-.41.973-.456.96-.504.946-.555.93-.598.906-.644.894-.688.871-.73.856-.774.828-.816.813-.86.785-.898.765-.933.742-.973.715-1.008.692-1.043.664-1.074.64-1.105.614-1.137.586-1.168.558-1.192.528-1.218.503-1.242.473-1.262.445-1.285.415-1.301.386-1.32.356-1.332.328-1.348.3-1.356.266-1.367.239-1.379.21-1.379.18-1.386.152-1.387.122-1.383.093-1.387.067-1.382.035-1.375.008-1.368-.016-1.359-.047-1.344-.07-1.336-.098-1.32-.125-1.3-.148-1.286-.172-1.262-.195-1.242-.22-1.219-.237-1.19-.262-1.169-.281-1.137-.305-1.105-.32-1.078-.336-1.043L96.57 30l-.37-.973-.388-.937-.402-.895-.414-.86-.426-.815-.441-.778-.45-.73-.456-.692-.465-.64-.473-.602-.48-.55-.485-.508-.488-.457-.488-.41-.492-.36-.493-.313-.492-.261-.488-.215-.488-.164-.485-.113-.476-.063-.47-.012-.464.036-.457.09-.445.136-.438.184-.422.238-.414.285-.398.332-.383.379-.367.426-.352.476-.336.52-.316.562-.297.61-.277.652-.254.692-.238.734-.211.773-.188.813-.168.848-.14.886-.118.918-.093.957-.063.985-.039 1.015-.012 1.043.016 1.07.047 1.098.07 1.121.102 1.145.129 1.164.156 1.183.187 1.2.22 1.215.245 1.23.274 1.238.308 1.25.336 1.258.363 1.266.391 1.27.426 1.269.45 1.27.48 1.269.511 1.265.535 1.262.567 1.254.59 1.246.62 1.23.645 1.223.676 1.207.695 1.188.723 1.172.746 1.152.77 1.133.793 1.105.816 1.082.84 1.055.855 1.027.88.996.894.965.914.934.933.898.95.864.964.828.977.789.992.75 1.004.707 1.016.668 1.027.625 1.035.582 1.043.539 1.051.488 1.059.45 1.062.394 1.067.351 1.07.305 1.07.254 1.07.207 1.07.156 1.071.106 1.066.058 1.063.004 1.059-.043 1.05-.093 1.047-.141 1.035-.195 1.028-.246 1.02-.293 1.003-.34.992-.39.98-.442.966-.489.953-.535.933-.578.918-.629.899-.672.879-.714.86-.758.839-.801.82-.844.793-.883.774-.918.75-.96.726-.993.7-1.03.675-1.063.649-1.098.625-1.125.593-1.152.57-1.184.54-1.211.511-1.23.485-1.258.457-1.274.426-1.297.398-1.312.367-1.328.336-1.344.309-1.351.281-1.364.25-1.375.223-1.379.187-1.382.164-1.387.133-1.387.102-1.387.078-1.382.047-1.375.02-1.372-.009-1.363-.035-1.351-.062-1.34-.09-1.324-.113-1.31-.137-1.292-.164-1.27-.188-1.25-.207-1.226-.234-1.203-.254-1.176-.273-1.148-.297-1.118-.313-1.09-.332-1.054-.351-1.024-.364-.984-.382-.95-.395-.913-.414-.871-.422-.832-.434-.793-.445-.746-.453-.707-.465-.66-.469-.618-.476-.57-.485-.524-.484-.476-.492-.426-.492-.379-.489-.332-.492-.281-.492-.23-.488-.184-.485-.133-.48-.082-.473-.031-.468.02-.457.07-.45.117-.441.168-.43.218-.414.266-.406.313-.387.363-.375.41-.36.457-.339.504-.324.547-.301.59-.285.636-.266.676-.242.719-.223.762-.199.797-.172.835-.152.872-.125.906-.102.941-.074.977-.047 1.004-.023 1.03.004 1.063.035 1.086.062 1.118.09 1.132.117 1.157.149 1.175.176 1.196.207 1.207.234 1.226.266 1.235.293 1.246.324 1.258.351 1.261.383 1.266.414 1.27.442 1.273.468 1.27.5 1.265.524 1.266.555 1.254.582 1.25.613 1.238.633 1.223.664 1.214.687 1.196.715 1.18.734 1.16.766 1.136.785 1.117.805 1.09.828 1.067.852 1.035.87 1.012.891.976.907.945.925.91.942.88.96.84.973.804.985.762 1 .726 1.011.684 1.024.64 1.031.598 1.043.555 1.047.508 1.055.46 1.062.419 1.063.367 1.07.32 1.07.277 1.07.223 1.07.172 1.071.125 1.07.078 1.063.024 1.059-.024 1.054-.074 1.047-.129 1.043-.172 1.031-.226 1.02-.274 1.012-.324.996-.375.984-.418.973-.473.957-.515.941-.563.922-.61.906-.656.887-.699.867-.746.848-.785.824-.824.805-.867.785-.907.758-.945.734-.98.707-1.016.688-1.055.656-1.082.633-1.113.605-1.145.582-1.171.551-1.2.523-1.226.493-1.246.468-1.27.438-1.285.406-1.309.38-1.324.35-1.336.317-1.347.293-1.364.258-1.367.234-1.379.2-1.383.175-1.382.14-1.387.118-1.387.086-1.383.059-1.382.027-1.372.004-1.367-.028-1.355-.05-1.344-.078-1.332-.106-1.316-.129-1.297-.152-1.278-.18-1.257-.2-1.239-.226-1.21-.242-1.188-.27-1.156-.285-1.13-.308-1.1-.324-1.067-.344-1.035-.36-1-.374-.961-.395-.93-.402-.887-.418-.847-.43-.805-.441-.766-.454-.722-.46-.676-.47-.633-.472-.59-.48-.539-.485-.496-.488-.445-.492-.399-.492-.347"/><use xlink:href="#g" x="50.161" y="23.533"/><use xlink:href="#b" x="24.409" y="57.577"/><path fill="none" stroke="#000" stroke-dasharray="3.95800132 1.97900066" stroke-miterlimit="10" stroke-width=".7915804000000001" d="m41.48 63.816 15.868 5.286"/><path stroke="#000" stroke-miterlimit="10" stroke-width=".79154055" d="m61.207 70.39-3.133-2.84-.539 1.614-.539 1.617Zm0 0"/><path fill="none" stroke="#000" stroke-miterlimit="10" stroke-width=".7915804000000001" d="M41.48 63.816V34.41"/><path stroke="#000" stroke-miterlimit="10" stroke-width=".7915804000000001" d="m41.48 30.34-1.703 3.87h3.407Zm0 0"/><path fill="none" stroke="#000" stroke-dasharray="3.95800132 1.97900066" stroke-miterlimit="10" stroke-width=".7915804000000001" d="M53.527 61.406V32"/><path stroke="#000" stroke-miterlimit="10" stroke-width=".7915804000000001" d="m53.527 27.93-1.703 3.87h3.406Zm0 0"/><path fill="none" stroke="#000" stroke-miterlimit="10" stroke-width=".7915804000000001" d="m53.527 61.406-15.863-5.289"/><path stroke="#000" stroke-miterlimit="10" stroke-width=".79154055" d="m33.805 54.832 3.133 2.84 1.078-3.234Zm0 0"/><path fill="none" stroke="#000" stroke-dasharray="3.95800132 1.97900066" stroke-miterlimit="10" stroke-width=".7915804000000001" d="m65.574 58.996-15.863-5.289"/><path stroke="#000" stroke-miterlimit="10" stroke-width=".79154055" d="m45.848 52.422 3.136 2.84.54-1.617.538-1.614Zm0 0"/><path fill="none" stroke="#000" stroke-miterlimit="10" stroke-width=".7915804000000001" d="M65.574 58.996v29.406"/><path stroke="#000" stroke-miterlimit="10" stroke-width=".7915804000000001" d="m65.574 92.473 1.703-3.871h-3.406Zm0 0"/><path fill="none" stroke="#000" stroke-dasharray="3.95800132 1.97900066" stroke-miterlimit="10" stroke-width=".7915804000000001" d="M77.621 56.586v29.406"/><path stroke="#000" stroke-miterlimit="10" stroke-width=".7915804000000001" d="m77.621 90.062 1.703-3.87h-3.406Zm0 0"/><path fill="none" stroke="#000" stroke-miterlimit="10" stroke-width=".7915804000000001" d="m77.621 56.586 15.863 5.289"/><path stroke="#000" stroke-miterlimit="10" stroke-width=".79154055" d="M97.344 63.164 94.21 60.32l-1.078 3.235Zm0 0"/><path fill="none" stroke="#000" stroke-dasharray="3.95800132 1.97900066" stroke-miterlimit="10" stroke-width=".7915804000000001" d="m89.668 54.18 15.863 5.285"/><path stroke="#000" stroke-miterlimit="10" stroke-width=".79154055" d="m109.39 60.754-3.132-2.84-.54 1.613-.538 1.618Zm0 0"/><path fill="none" stroke="#000" stroke-miterlimit="10" stroke-width=".7915804000000001" d="M89.668 54.18V24.773"/><path stroke="#000" stroke-miterlimit="10" stroke-width=".7915804000000001" d="m89.668 20.703-1.703 3.871h3.406Zm0 0"/><path fill="none" stroke="#000" stroke-dasharray="3.95800132 1.97900066" stroke-miterlimit="10" stroke-width=".7915804000000001" d="M101.715 51.77V22.363"/><path stroke="#000" stroke-miterlimit="10" stroke-width=".7915804000000001" d="m101.715 18.293-1.703 3.871h3.406Zm0 0"/><path fill="none" stroke="#000" stroke-miterlimit="10" stroke-width=".7915804000000001" d="m101.715 51.77-15.867-5.29"/><path stroke="#000" stroke-miterlimit="10" stroke-width=".79153258" d="m81.988 45.191 3.133 2.844 1.078-3.234Zm0 0"/><path fill="none" stroke="#000" stroke-dasharray="3.95800132 1.97900066" stroke-miterlimit="10" stroke-width=".7915804000000001" d="m113.758 49.36-15.863-5.29"/><path stroke="#000" stroke-miterlimit="10" stroke-width=".79154055" d="m94.035 42.785 3.133 2.84.539-1.617.54-1.613Zm0 0"/><path fill="none" stroke="#000" stroke-miterlimit="10" stroke-width=".7915804000000001" d="M113.758 49.36v29.406"/><path stroke="#000" stroke-miterlimit="10" stroke-width=".79156446" d="m113.758 82.836 1.703-3.875h-3.406Zm0 0"/><path fill="none" stroke="#000" stroke-dasharray="3.95800132 1.97900066" stroke-miterlimit="10" stroke-width=".7915804000000001" d="M125.805 46.95v29.405"/><path stroke="#000" stroke-miterlimit="10" stroke-width=".79156446" d="m125.805 80.426 1.703-3.871h-3.406Zm0 0"/><path fill="none" stroke="#000" stroke-miterlimit="10" stroke-width=".7915804000000001" d="m125.805 46.95 15.863 5.288"/><path stroke="#000" stroke-miterlimit="10" stroke-width=".79153258" d="m145.531 53.527-3.136-2.843-.536 1.617-.539 1.617Zm0 0"/><path fill="none" stroke="#000" stroke-dasharray="3.95800132 1.97900066" stroke-miterlimit="10" stroke-width=".7915804000000001" d="m137.852 44.54 15.863 5.288"/><path stroke="#000" stroke-miterlimit="10" stroke-width=".79154055" d="m157.578 51.117-3.137-2.84-.535 1.614-.539 1.617Zm0 0"/><path fill="none" stroke="#000" stroke-miterlimit="10" stroke-width=".7915804000000001" d="M137.852 44.54V15.136"/><path stroke="#000" stroke-miterlimit="10" stroke-width=".79156446" d="m137.852 11.066-1.704 3.871h3.41Zm0 0"/><path fill="none" stroke="#000" stroke-dasharray="3.95800132 1.97900066" stroke-miterlimit="10" stroke-width=".7915804000000001" d="M149.898 42.133V12.727"/><path stroke="#000" stroke-miterlimit="10" stroke-width=".79156446" d="m149.898 8.656-1.703 3.871h3.407Zm0 0"/><path fill="none" stroke="#000" stroke-miterlimit="10" stroke-width=".7915804000000001" d="m149.898 42.133-15.863-5.29"/><path stroke="#000" stroke-miterlimit="10" stroke-width=".79153258" d="m130.176 35.555 3.133 2.84.539-1.614.539-1.617Zm0 0"/><path fill="none" stroke="#000" stroke-dasharray="3.95800132 1.97900066" stroke-miterlimit="10" stroke-width=".7915804000000001" d="m161.945 39.723-15.863-5.29"/><path stroke="#000" stroke-miterlimit="10" stroke-width=".79153258" d="m142.219 33.148 3.136 2.84 1.079-3.234Zm0 0"/><path fill="none" stroke="#000" stroke-miterlimit="10" stroke-width=".7915804000000001" d="M161.945 39.723v29.406"/><path stroke="#000" stroke-miterlimit="10" stroke-width=".79156446" d="m161.945 73.2 1.703-3.876h-3.406Zm0 0"/><path fill="none" stroke="#000" stroke-dasharray="3.95800132 1.97900066" stroke-miterlimit="10" stroke-width=".7915804000000001" d="M173.992 37.313v29.406"/><path stroke="#000" stroke-miterlimit="10" stroke-width=".79156446" d="m173.992 70.79 1.703-3.872h-3.406Zm0 0"/><path fill="none" stroke="#000" stroke-miterlimit="10" stroke-width=".7915804000000001" d="m173.992 37.313 15.863 5.289"/><path stroke="#000" stroke-miterlimit="10" stroke-width=".79153258" d="m193.715 43.89-3.133-2.84-.539 1.614-.54 1.617Zm0 0"/><path fill="none" stroke="#000" stroke-dasharray="3.95800132 1.97900066" stroke-miterlimit="10" stroke-width=".7915804000000001" d="m186.039 34.902 15.863 5.29"/><path stroke="#000" stroke-miterlimit="10" stroke-width=".79153258" d="m205.762 41.48-3.133-2.84-.54 1.614-.538 1.617Zm0 0"/><path fill="none" stroke="#000" stroke-miterlimit="10" stroke-width=".7915804000000001" d="M186.039 34.902V5.5"/><path stroke="#000" stroke-miterlimit="10" stroke-width=".79156446" d="m186.04 1.43-1.704 3.87h3.406Zm0 0"/></svg>