<svg xmlns="http://www.w3.org/2000/svg" xmlns:xlink="http://www.w3.org/1999/xlink" width="226.771" height="68.657"><defs><clipPath id="a"><path d="M30 64h4v4.316h-4Zm0 0"/></clipPath><clipPath id="b"><path d="M24 59h15v9.316H24Zm0 0"/></clipPath><clipPath id="d"><path d="M.45 25H35v27H.45Zm0 0"/></clipPath><path id="c" d="M1.813.094c1.765 0 2.375-1.14 2.687-2.719l.484-2.453c.032-.25.188-.39.547-.422l.219-.016c.047 0 .078-.03.078-.062l.047-.172-.016-.016c-.406 0-.75.016-.953.016s-.531-.016-.937-.016l-.016.016-.031.172c-.016.031.015.062.047.062l.234.016c.281.016.406.11.406.297 0 .031-.015.078-.03.125l-.5 2.61c-.204 1-.548 2.187-2.016 2.187-.407 0-.72-.188-.922-.438-.188-.25-.235-.515-.235-.812 0-.282.047-.578.11-.875L1.53-5.11c.063-.25.203-.36.563-.391l.219-.016c.046 0 .062-.03.078-.062l.03-.172-.015-.016c-.406 0-.75.016-1.094.016-.343 0-.671-.016-1.078-.016l-.03.016-.032.172c0 .031.031.062.062.062l.22.016c.28.016.405.094.405.281 0 .032 0 .078-.015.11l-.578 3a3 3 0 0 0-.063.625c0 1.28.953 1.578 1.61 1.578m0 0"/></defs><path fill="none" stroke="#000" stroke-linejoin="bevel" stroke-miterlimit="10" stroke-width=".79303891" d="M49.281 22.21c3.27 0 5.922 1.813 5.922 4.048 0 2.238-2.652 4.05-5.922 4.05 3.27 0 5.922 1.813 5.922 4.047s-2.652 4.047-5.922 4.047c3.27 0 5.922 1.813 5.922 4.047 0 2.239-2.652 4.051-5.922 4.051 3.27 0 5.922 1.813 5.922 4.047s-2.652 4.047-5.922 4.047M73.29 54.594c-3.27 0-5.923-1.813-5.923-4.047S70.02 46.5 73.29 46.5c-3.27 0-5.922-1.812-5.922-4.05 0-2.235 2.653-4.048 5.922-4.048-3.27 0-5.922-1.812-5.922-4.047s2.653-4.046 5.922-4.046c-3.27 0-5.922-1.813-5.922-4.051 0-2.235 2.653-4.047 5.922-4.047"/><path fill="none" stroke="#000" stroke-miterlimit="10" stroke-width=".39701697" d="M31.668 10.27h17.77v12.34m0 31.59v12.34h-17.77m59.234-56.27h-17.77v12.34m0 31.59v12.34h17.77"/><path fill="none" stroke="#000" stroke-miterlimit="10" stroke-width=".79303891" d="M62.766 52.473V24.336m-2.961 28.137V24.336"/><path fill="none" stroke="#000" stroke-miterlimit="10" stroke-width=".39701697" d="M31.668 10.27"/><path fill="#FFF" stroke="#000" stroke-miterlimit="10" stroke-width=".39701697" d="M33.246 10.27a1.58 1.58 0 0 0-1.578-1.583 1.58 1.58 0 0 0 0 3.16c.871 0 1.578-.706 1.578-1.577Zm0 0"/><path fill="none" stroke="#000" stroke-miterlimit="10" stroke-width=".39701697" d="M31.668 66.54"/><g clip-path="url(#a)"><path fill="#FFF" d="M33.246 66.54a1.579 1.579 0 1 0-3.157 0 1.579 1.579 0 0 0 3.157 0m0 0"/></g><g clip-path="url(#b)"><path fill="none" stroke="#000" stroke-miterlimit="10" stroke-width=".39701697" d="M33.246 66.54a1.579 1.579 0 1 0-3.157 0 1.579 1.579 0 0 0 3.157 0Zm0 0"/></g><path fill="none" stroke="#000" stroke-miterlimit="10" stroke-width=".39701697" d="M90.902 10.27h50.407m15.796 0h50.407"/><path fill="none" stroke="#000" stroke-miterlimit="10" stroke-width=".79303891" d="M157.105 10.27 141.31.395V20.14Zm0 0"/><path fill="none" stroke="#000" stroke-miterlimit="10" stroke-width=".39701697" d="M157.105 10.27H141.31"/><path fill="none" stroke="#000" stroke-miterlimit="10" stroke-width=".79303891" d="M157.105 20.14V.396"/><path fill="none" stroke="#000" stroke-miterlimit="10" stroke-width=".39701697" d="M90.902 66.54h58.305m0 0h58.305M207.512 10.27v12.34m9.676-5.926V60.12m-9.676-5.922v12.34"/><path fill="none" stroke="#000" stroke-miterlimit="10" stroke-width=".79303891" d="M201.59 54.2V22.61h11.844V54.2Zm0 0"/><path stroke="#000" stroke-miterlimit="10" stroke-width=".39701697" d="M217.188 55.926h-1.977l1.977 4.195 1.972-4.195Zm0 0"/><use xlink:href="#c" x="219.365" y="41.245"/><g clip-path="url(#d)"><path fill="none" stroke="#000" stroke-miterlimit="10" stroke-width=".39701697" d="M.648 38.402c2.282-3.582 4.461-6.996 6.997-6.996 2.53 0 4.714 3.414 6.996 6.996 2.28 3.582 4.464 6.996 6.996 6.996s4.715-3.414 6.996-6.996"/></g></svg>