<svg xmlns="http://www.w3.org/2000/svg" width="164.45" height="115.104"><defs><clipPath id="a"><path d="M.363 4H4v4H.363Zm0 0"/></clipPath><clipPath id="b"><path d="M.363 0H10v14H.363Zm0 0"/></clipPath><clipPath id="c"><path d="M122 40h41.543v39H122Zm0 0"/></clipPath><clipPath id="d"><path d="M147 50h16.543v18H147Zm0 0"/></clipPath><clipPath id="e"><path d="M159 60h4.543v4H159Zm0 0"/></clipPath><clipPath id="f"><path d="M154 55h9.543v15H154Zm0 0"/></clipPath><clipPath id="g"><path d="M145 55h18.543v18H145Zm0 0"/></clipPath><clipPath id="h"><path d="M152 59h11.543v16H152Zm0 0"/></clipPath><clipPath id="i"><path d="M.363 110H4v4.215H.363Zm0 0"/></clipPath><clipPath id="j"><path d="M.363 105H10v9.215H.363Zm0 0"/></clipPath></defs><path fill="none" stroke="#000" stroke-miterlimit="10" stroke-width=".39591972000000003" d="M2.133 6.3h55.012m31.503 0h55.008v45.196m0 15.75v45.195H72.895m0 0H2.133"/><path fill="none" stroke="#000" stroke-miterlimit="10" stroke-width=".7908471600000001" d="M57.145.395h31.503v11.812H57.145Zm0 0"/><g clip-path="url(#a)"><path fill="#FFF" d="M3.71 6.3a1.575 1.575 0 1 0-3.15.003 1.575 1.575 0 0 0 3.15-.002m0 0"/></g><g clip-path="url(#b)"><path fill="none" stroke="#000" stroke-miterlimit="10" stroke-width=".39591972000000003" d="M3.71 6.3a1.575 1.575 0 1 0-3.15.003 1.575 1.575 0 0 0 3.15-.002Zm0 0"/></g><g clip-path="url(#c)"><path fill="none" stroke="#000" stroke-miterlimit="10" stroke-width=".7908471600000001" d="m143.656 67.246 9.844-15.75h-19.687Zm0 0"/></g><path fill="none" stroke="#000" stroke-miterlimit="10" stroke-width=".39591972000000003" d="M143.656 67.246v-15.75"/><path fill="none" stroke="#000" stroke-miterlimit="10" stroke-width=".7908471600000001" d="M133.813 67.246H153.5"/><g clip-path="url(#d)"><path fill="none" stroke="#000" stroke-miterlimit="10" stroke-width=".39591972000000003" d="m153.5 56.223 7.156 5.722"/></g><g clip-path="url(#e)"><path d="m163.035 63.852-1.21-3.211-1.09 1.367-1.094 1.367Zm0 0"/></g><g clip-path="url(#f)"><path fill="none" stroke="#000" stroke-miterlimit="10" stroke-width=".39589179" d="m163.035 63.852-1.21-3.211-1.09 1.367-1.094 1.367Zm0 0"/></g><g clip-path="url(#g)"><path fill="none" stroke="#000" stroke-miterlimit="10" stroke-width=".39591972000000003" d="m151.531 60.945 7.157 5.727"/></g><path d="m161.066 68.574-1.21-3.207-1.094 1.363-1.09 1.368Zm0 0"/><g clip-path="url(#h)"><path fill="none" stroke="#000" stroke-miterlimit="10" stroke-width=".39589179" d="m161.066 68.574-1.21-3.207-1.094 1.363-1.09 1.368Zm0 0"/></g><g clip-path="url(#i)"><path fill="#FFF" d="M3.71 112.441c0-.867-.706-1.574-1.577-1.574a1.577 1.577 0 0 0 0 3.153c.87 0 1.578-.707 1.578-1.579m0 0"/></g><g clip-path="url(#j)"><path fill="none" stroke="#000" stroke-miterlimit="10" stroke-width=".39591972000000003" d="M3.71 112.441c0-.867-.706-1.574-1.577-1.574a1.577 1.577 0 0 0 0 3.153c.87 0 1.578-.708 1.578-1.579Zm0 0"/></g></svg>