<svg xmlns="http://www.w3.org/2000/svg" width="113.386" height="44.451"><defs><clipPath id="a"><path d="M66 0h46.39v43.91H66Zm0 0"/></clipPath><clipPath id="b"><path d="M92 0h15v43.91H92Zm0 0"/></clipPath><clipPath id="c"><path d="M.387 29H79v1H.387Zm0 0"/></clipPath></defs><g clip-path="url(#a)"><path fill="none" stroke="#000" stroke-miterlimit="10" stroke-width=".7872766000000001" d="M111.996 21.953c0-9.558-7.75-17.308-17.308-17.308-9.563 0-17.313 7.75-17.313 17.308 0 9.563 7.75 17.313 17.313 17.313 9.558 0 17.308-7.75 17.308-17.313Zm0 0"/></g><g clip-path="url(#b)"><path fill="none" stroke="#000" stroke-miterlimit="10" stroke-width=".39413220000000004" d="M106.188.195V14.41h-13.72m0 15.09h13.72v14.21"/></g><path fill="none" stroke="#000" stroke-miterlimit="10" stroke-width=".7872766000000001" d="M92.469 11.176v21.558"/><path fill="none" stroke="#000" stroke-miterlimit="10" stroke-width=".39413220000000004" d="M78.746 29.5H92.47m-13.723 0"/><path d="M85.07 29.5v-2.258l5.047 2.258-5.047 2.262Zm0 0"/><g clip-path="url(#c)"><path fill="none" stroke="#000" stroke-miterlimit="10" stroke-width=".39413220000000004" d="M78.746 29.5H.582"/></g></svg>