<svg xmlns="http://www.w3.org/2000/svg" xmlns:xlink="http://www.w3.org/1999/xlink" width="230.16" height="85.439"><defs><clipPath id="a"><path d="M225 40h3.992v5H225Zm0 0"/></clipPath><clipPath id="b"><path d="M219 35h9.992v15H219Zm0 0"/></clipPath><clipPath id="c"><path d="M20 3h1v81.883h-1Zm0 0"/></clipPath><clipPath id="d"><path d="M20.25 3H222v79H20.25Zm0 0"/></clipPath><path id="e" d="m.938-3.828-.47.031c-.171.016-.234.078-.25.156a.6.6 0 0 0-.046.157c0 .015.031.015.062.015H.86L.313-1.047C.25-.766.188-.484.188-.328c0 .328.156.422.437.422.406 0 .984-.375 1.297-.922C1.89-.938 1.828-1 1.719-1c-.407.469-.563.547-.719.547-.016 0-.11-.016-.11-.11 0-.093.032-.265.094-.562l.532-2.344h.875c.109-.047.187-.281.078-.36h-.875l.093-.39c.032-.172.11-.437.11-.531 0-.156-.063-.25-.36-.25-.312 0-.296.406-.39.734Zm0 0"/><path id="f" d="M1.813.094c1.765 0 2.375-1.14 2.671-2.719l.485-2.453c.047-.25.187-.375.547-.406L5.75-5.5c.047 0 .063-.031.078-.078l.031-.172-.015-.016c-.407.016-.75.016-.938.016-.203 0-.547 0-.937-.016l-.016.016-.047.172c0 .047.031.078.063.078l.219.016c.296.015.406.093.406.28 0 .032 0 .079-.016.126l-.516 2.61c-.187 1-.546 2.187-2 2.187-.406 0-.718-.188-.921-.438-.188-.25-.235-.515-.235-.797 0-.296.047-.593.094-.875l.531-2.703c.047-.25.203-.36.547-.39l.235-.016c.03 0 .062-.031.078-.078l.03-.172-.015-.016c-.406.016-.765.016-1.094.016-.343 0-.687 0-1.078-.016l-.03.016-.032.172c0 .047.031.078.062.078l.22.016c.28.015.405.093.405.28 0 .032 0 .063-.015.11L.266-2.109a3 3 0 0 0-.063.625c0 1.28.953 1.578 1.61 1.578m0 0"/><path id="g" d="M4.406-.875v-2.844c0-.594.125-.64.61-.656.046-.047.046-.187 0-.234-.282 0-.641.015-.922.015-.266 0-.61-.015-.922-.015-.031.046-.031.187 0 .234.5.016.625.063.625.656v1.125H1.359v-1.125c0-.594.125-.64.625-.656.047-.047.047-.187 0-.234-.28 0-.562.015-.937.015-.344 0-.64-.015-.906-.015-.047.046-.047.187 0 .234.5.016.609.063.609.656v2.844c0 .594-.11.625-.61.656-.046.047-.046.188 0 .235C.454 0 .798 0 1.064 0c.25 0 .609 0 .921.016.047-.047.047-.188 0-.235-.5-.031-.625-.062-.625-.656v-1.406h2.438v1.406c0 .594-.125.625-.625.656-.031.047-.031.188 0 .235C3.5 0 3.844 0 4.109 0c.266 0 .594 0 .907.016.046-.047.046-.188 0-.235-.485-.031-.61-.062-.61-.656m0 0"/><path id="h" d="M2.016-2.297c.609 0 .625.156.656.485.031.03.187.03.234 0-.015-.188-.015-.391-.015-.625 0-.25 0-.438.015-.626-.047-.03-.203-.03-.234 0-.031.391-.047.485-.656.485h-.657V-3.86c0-.375.079-.453.391-.453h.328c.75 0 .922.28 1.078.78a1 1 0 0 0 .235-.03c-.047-.297-.157-.985-.157-1.047 0 0-.015-.016-.03-.016-.126.016-.157.031-.345.031H1.047c-.234 0-.64-.015-.922-.015-.047.046-.047.187 0 .234.5.016.625.063.625.656v2.844c0 .594-.125.625-.625.656-.047.047-.047.188 0 .235C.375 0 .735 0 1.047 0c.328 0 .672 0 .922.016.047-.047.047-.188 0-.235-.5-.031-.61-.062-.61-.656v-1.422Zm0 0"/></defs><path fill="none" stroke="#000" stroke-miterlimit="10" stroke-width=".39639852000000003" d="M20.25 42.441h205.098"/><g clip-path="url(#a)"><path d="m228.402 42.441-2.957-1.754v3.504Zm0 0"/></g><g clip-path="url(#b)"><path fill="none" stroke="#000" stroke-miterlimit="10" stroke-width=".39639852000000003" d="m228.402 42.441-2.957-1.754v3.504Zm0 0"/></g><g clip-path="url(#c)"><path fill="none" stroke="#000" stroke-miterlimit="10" stroke-width=".39639852000000003" d="M20.25 84.684V3.648"/></g><path stroke="#000" stroke-miterlimit="10" stroke-width=".39639852000000003" d="m20.25.594-1.754 2.953H22Zm0 0"/><g clip-path="url(#d)"><path fill="none" stroke="#000" stroke-miterlimit="10" stroke-width=".7918035600000001" d="m20.25 14.277.062.067.063.187.062.317.067.437.062.563.063.68.062.796.063.91.066 1.016.063 1.121.062 1.223.063 1.316.062 1.402.063 1.481.066 1.559.063 1.625.062 1.687.063 1.738.062 1.785.067 1.82.062 1.848.063 1.868.125 3.765.066 1.88.063 1.866.062 1.844.063 1.813.062 1.777.063 1.73.066 1.676.062 1.613.063 1.547.062 1.473.063 1.39.066 1.301.063 1.207.062 1.11.063 1.008.062.894.063.785.066.668.063.551.062.434.063.304.062.184.067.059.062-.063.063-.191.062-.313.063-.437.062-.555.067-.672.062-.785.063-.899.062-1.003.063-1.106.066-1.2.062-1.292.063-1.383.062-1.457.063-1.531.062-1.598.067-1.66.062-1.707.063-1.754.062-1.793.063-1.816.066-1.84.063-1.852.062-1.86.063-1.85.062-1.844.067-1.82.062-1.798.063-1.757.062-1.72.063-1.667.062-1.61.067-1.542.062-1.477.063-1.398.062-1.317.063-1.226.066-1.133.063-1.035.062-.934.063-.828.062-.715.063-.605.066-.493.062-.37.063-.259.062-.132.063-.02.066.102.063.222.062.34.063.453.062.567.063.68.066.785.063.89.062.988.063 1.09.062 1.176.067 1.266.062 1.343.063 1.422.062 1.489.063 1.55.062 1.61.067 1.656.062 1.7.063 1.734.062 1.761.063 1.782.066 1.796.125 3.602.062 1.79.063 1.776.066 1.75.063 1.72.062 1.683.063 1.64.062 1.586.063 1.532.066 1.468.063 1.399.062 1.324.063 1.246.062 1.164.067 1.07.062.981.063.883.062.785.063.684.062.574.067.468.062.364.063.25.062.144.063.032.066-.082.062-.188.063-.297.062-.406.063-.508.062-.613.067-.715.062-.809.063-.906.062-.992.063-1.082.066-1.16.063-1.239.062-1.312.063-1.375.062-1.438.067-1.496.062-1.543.063-1.586.062-1.625.063-1.656.062-1.68.067-1.699.062-1.71.063-1.715.062-1.72.063-1.706.066-1.696.063-1.68.062-1.648.063-1.617.062-1.582.063-1.539.066-1.488.062-1.434.063-1.379.062-1.312.063-1.242.066-1.172.063-1.094.062-1.016.063-.93.062-.843.063-.758.066-.66.063-.57.062-.477.063-.375.062-.281.067-.184.062-.082.063.016.062.113.063.207.062.309.067.398.062.496.063.582.062.672.063.762.066.84.062.922.063.996.062 1.07.063 1.137.066 1.203.063 1.262.062 1.32.063 1.367.062 1.414.063 1.457.066 1.492.063 1.528.062 1.547.063 1.574.062 1.586.067 1.597.125 3.203.062 1.594.063 1.586.062 1.57.067 1.551.062 1.528.063 1.492.062 1.46.063 1.423.066 1.375.062 1.328.063 1.277.062 1.223.063 1.164.062 1.101.067 1.035.062.97.063.898.062.82.063.75.066.668.063.594.062.508.063.43.062.347.067.262.062.18.063.097.062.012.063-.07.062-.153.067-.238.062-.313.063-.394.062-.473.063-.55.066-.622.063-.695.062-.762.063-.832.062-.894.063-.954.066-1.015.062-1.067.063-1.12.062-1.173.063-1.21.066-1.254.063-1.293.062-1.329.063-1.355.062-1.379.063-1.406.066-1.422.063-1.434.062-1.445.125-2.906.067-1.453.062-1.446.063-1.437.062-1.426.063-1.41.062-1.387.067-1.363.062-1.336.063-1.305.062-1.273.063-1.234.066-1.196.062-1.152.063-1.106.062-1.058.063-1.008.066-.957.063-.902.062-.844.063-.79.062-.726.063-.664.066-.601.063-.54.062-.476.063-.406.062-.344.067-.277.062-.211.063-.14.062-.079.063-.012.062.059.067.12.062.185.063.25.062.316.063.371.066.438.062.496.063.55.062.61.063.66.062.715.067.77.062.812.063.86.062.905.063.946.066.988.063 1.023.062 1.055.063 1.09.062 1.121.063 1.145.066 1.171.063 1.192.062 1.21.063 1.231.062 1.239.067 1.253.062 1.262.125 2.531.063 1.27.066 1.27.063 1.261.062 1.254.063 1.246.062 1.23.063 1.22.066 1.199.062 1.183.063 1.16.062 1.137.063 1.11.066 1.082.063 1.054.062 1.024.063.988.062.957.063.918.066.879.063.844.062.8.063.762.062.715.067.676.062.629.063.582.062.539.063.492.062.441.067.399.062.347.063.297.062.254.063.2.066.156.062.105.063.055.062.012.063-.04.066-.085.063-.133.062-.18.063-.223.062-.27.063-.312.066-.355.063-.399.062-.437.063-.48.062-.52.067-.555.062-.593.063-.63.062-.66.063-.695.062-.73.067-.754.062-.79.063-.812.062-.84.063-.863.066-.887.062-.906.063-.93.062-.945.063-.96.062-.981.067-.992.062-1 .063-1.016.062-1.024.063-1.027.066-1.039.063-1.039.25-4.172.066-1.039.063-1.035.062-1.031.063-1.02.062-1.016.067-1.003.062-.993.063-.98.062-.965.063-.953.066-.934.063-.922.062-.902.063-.879.062-.863.063-.844.066-.82.062-.797.063-.773.062-.75.063-.723.066-.7.063-.675.062-.645.063-.62.062-.59.063-.563.066-.535.063-.504.062-.477.063-.449.062-.414.067-.387.062-.355.063-.324.062-.293.063-.266.062-.234.067-.2.062-.171.063-.145.062-.11.063-.077.066-.051.062-.024.063.012.062.04.063.066.066.097.063.125.062.153.063.18.062.206.063.235.066.261.063.285.062.31.063.335.062.363.067.383.062.406.063.426.062.453.063.469.062.492.067.512.062.531.063.551.062.566.063.582.066.602.062.613.063.633.062.645.063.656.062.672.067.683.062.696.063.707.062.714.063.723.066.735.063.742.062.746.063.754.062.761.063.766.066.766.063.773.125 1.555.062.781.067.781.187 2.344.063.777.066.778.063.773.125 1.54.062.761.063.758.066.754.062.746.063.738.062.734.063.727.066.719.063.707.062.703.063.691.062.684.063.672.066.66.063.652.062.64.063.63.062.617.067.605.062.594.063.582.062.567.063.554.062.54.067.527.062.515.063.5.062.485.063.472.066.457.062.442.063.426.062.414.063.394.062.383.067.367.062.352.063.336.062.32.063.305.066.289.063.273.062.258.063.242.062.227.067.21.062.196.063.18.062.164.063.148.062.133.067.117.062.102.063.09.062.07.063.059.066.042.062.028.063.012h.062l.063-.016.062-.031.067-.047.062-.059.063-.07.062-.086.063-.102.066-.109.063-.129.062-.137.063-.152.062-.164.063-.18.066-.187.063-.2.062-.214.063-.223.062-.238.067-.246.062-.258.063-.27.062-.28.063-.29.066-.3.063-.31.062-.32.063-.332.062-.336.063-.347.066-.36.062-.363.063-.375.062-.379.063-.39.066-.399.063-.402.062-.414.063-.418.062-.426.063-.43.066-.437.063-.446.062-.449.063-.457.062-.46.067-.466.062-.472.063-.477.062-.48.063-.485.062-.488.067-.492.062-.496.063-.5.125-1.008.066-.508.125-1.023.062-.516.125-1.039.067-.52.062-.519.125-1.047.063-.527.066-.524.063-.527.062-.523.125-1.055.067-.524.25-2.093.062-.52.067-.52.062-.519.125-1.031.063-.512.066-.508.125-1.015.187-1.5.067-.493.062-.492.125-.968.063-.48.066-.477.063-.473.062-.469.063-.465.062-.46.063-.458.066-.453.063-.445.125-.883.062-.43.067-.43.062-.421.063-.418.062-.414.063-.406.062-.403.067-.394.062-.391.063-.383.062-.379.063-.375.066-.367.062-.36.063-.355.062-.347.063-.344.066-.336.063-.328.062-.324.063-.317.062-.308.063-.301.066-.297.063-.29.062-.28.063-.278.062-.27.067-.261.062-.254.063-.246.062-.242.063-.23.062-.227.067-.219.062-.21.063-.204.062-.195.063-.188.066-.183.062-.172.063-.164.062-.16.063-.153.062-.14.067-.137.062-.125.063-.121.062-.114.063-.101.066-.098.063-.09.062-.082.063-.07.062-.066.067-.059.062-.047.063-.043.062-.031.063-.027.062-.02.067-.008.062-.004.063.008.062.012.063.023.066.032.062.035.063.047.062.054.063.059.062.07.067.078.062.082.063.094.062.102.063.105.066.117.063.125.062.13.063.14.062.148.063.153.066.164.063.168.062.175.063.188.062.191.067.2.062.207.063.214.062.223.063.227.062.238.067.242.062.254.063.258.062.262.063.273.066.277.062.29.063.292.062.297.063.309.066.312.063.32.062.325.063.332.062.34.063.343.066.352.063.36.062.363.063.37.062.376.067.383.062.386.063.391.125.805.062.41.067.414.062.422.063.426.062.43.063.433.066.441.062.446.063.449.062.453.125.922.067.465.062.472.125.953.063.48.066.49.063.487.062.493.063.496.125 1 .066.504.125 1.015.125 1.024.067.515.062.516.125 1.039.063.523.066.524.187 1.57.063.527.062.524.067.527.062.524.063.527.062.523.063.528.066.523.063.52.062.523.125 1.04.063.515.066.512.125 1.023.063.508.062.504.067.5.125.992.062.492.125.969.067.476.062.473.063.469.062.465.063.457.066.453.062.45.063.44.062.434.063.43.066.422.063.414.062.41.063.398.062.395.063.387.066.375.063.37.062.36.063.352.062.343.067.336.062.325.063.316.062.305.063.293.062.285.067.277.062.262.063.254.062.242.063.23.066.22.062.206.063.195.062.184.063.168.062.16.067.145.062.133.063.117.062.11.063.089.066.082.063.062.062.055.063.035.062.024.063.008.066-.004.063-.02.062-.035.063-.05.062-.067.067-.078.062-.094.063-.113.062-.125.063-.141.066-.156.062-.172.063-.188.062-.203.063-.219.062-.234.067-.25.062-.266.063-.28.062-.298.063-.312.066-.328.063-.344.062-.36.063-.37.062-.391.063-.406.066-.418.063-.434.062-.45.063-.464.062-.477.067-.496.062-.504.063-.523.062-.531.063-.551.062-.559.067-.574.062-.586.063-.601.062-.61.063-.625.066-.636.062-.645.063-.656.062-.668.063-.676.066-.687.063-.7.062-.703.063-.715.062-.722.063-.73.066-.735.063-.746.062-.75.063-.754.062-.762.067-.762.062-.77.063-.773.187-2.332.067-.78.187-2.345.063-.777.066-.777.062-.778.125-1.539.063-.761.062-.758.067-.75.062-.742.063-.739.062-.73.063-.719.066-.71.063-.7.062-.691.063-.676.062-.664.063-.653.066-.636.063-.625.062-.61.063-.59.062-.574.067-.558.062-.54.063-.523.062-.5.063-.484.066-.461.062-.438.063-.418.062-.394.063-.371.062-.348.067-.324.062-.301.063-.273.062-.246.063-.22.066-.195.063-.168.062-.136.063-.114.062-.082.063-.05.066-.024.063.004.062.035.063.067.062.093.067.13.062.156.063.183.062.219.063.25.062.277.067.313.062.34.063.37.062.4.063.433.066.46.062.489.063.52.062.55.063.578.062.606.067.633.062.66.063.683.062.715.063.735.066.761.063.79.062.808.063.828.062.856.067.87.062.891.063.91.062.93.063.946.062.957.067.972.062.988.063.997.062 1.011.063 1.016.066 1.027.062 1.032.063 1.035.187 3.129.067 1.046.125 2.079.062 1.035.063 1.023.066 1.02.063 1.008.062 1 .063.984.062.969.063.957.066.933.063.918.062.899.063.875.062.851.067.828.062.801.063.77.062.742.063.715.066.68.062.644.063.61.062.574.063.539.062.5.067.457.062.421.063.375.062.336.063.29.066.246.063.203.062.156.063.105.062.063.063.016.066-.032.063-.082.062-.129.063-.18.062-.226.067-.273.062-.325.063-.375.062-.418.063-.468.062-.512.067-.562.062-.606.063-.652.062-.696.063-.738.066-.781.062-.82.063-.864.062-.898.063-.938.062-.972.067-1.008.062-1.04.063-1.066.062-1.097.063-1.125.066-1.149.063-1.172.062-1.191.063-1.21.062-1.224.067-1.238.062-1.25.125-2.523.125-2.54.067-1.265.062-1.266.063-1.257.062-1.247.063-1.234.066-1.219.062-1.203.063-1.18.062-1.16.063-1.132.062-1.106.067-1.074.062-1.043.063-1.004.062-.965.063-.926.066-.882.063-.84.062-.79.063-.742.062-.687.063-.637.066-.582.063-.523.062-.465.063-.402.062-.348.067-.281.062-.219.063-.152.062-.09.063-.02.062.043.066.11.063.175.062.243.063.312.062.375.067.441.062.508.063.57.062.633.063.696.066.758.063.816.062.875.063.93.062.98.063 1.035.066 1.082.063 1.13.062 1.175.063 1.215.062 1.254.067 1.289.062 1.32.063 1.352.062 1.375.063 1.398.062 1.418.067 1.43.062 1.441.188 4.36.066 1.449.062 1.441.063 1.43.062 1.414.063 1.39.062 1.372.067 1.34.062 1.308.063 1.273.062 1.235.063 1.195.066 1.145.063 1.093.062 1.043.063.985.062.926.067.863.062.797.063.726.062.66.063.586.062.512.067.434.062.355.063.274.062.195.063.113.066.028.062-.055.063-.137.062-.223.063-.304.062-.387.067-.469.062-.55.063-.633.062-.707.063-.79.066-.859.063-.933.062-1 .063-1.07.062-1.133.063-1.192.066-1.25.063-1.305.062-1.355.063-1.398.062-1.442.067-1.476.062-1.512.063-1.535.062-1.563.063-1.578.062-1.594.066-1.597.125-3.203.063-1.594.062-1.578.067-1.563.062-1.535.063-1.512.062-1.472.063-1.438.066-1.394.063-1.344.062-1.29.063-1.234.062-1.171.063-1.102.066-1.035.063-.961.062-.879.063-.8.062-.716.067-.629.062-.543.063-.445.062-.355.063-.258.062-.16.067-.063.062.031.063.133.062.235.063.328.066.426.062.523.063.613.062.711.063.801.062.887.067.972.062 1.055.063 1.137.062 1.207.063 1.277.066 1.344.063 1.406.062 1.465.063 1.512.062 1.562.063 1.602.066 1.633.063 1.664.062 1.687.063 1.703.062 1.715.067 1.715.062 1.715.063 1.707.062 1.691.063 1.668.066 1.64.062 1.61.063 1.563.062 1.52.063 1.468.062 1.406.067 1.344.062 1.277.063 1.2.062 1.12.063 1.04.066.949.063.86.062.761.063.66.062.563.063.457.066.351.063.246.062.133.063.024.062-.086.067-.196.062-.308.063-.414.062-.524.063-.629.062-.734.066-.836.063-.93.062-1.027.063-1.117.062-1.203.067-1.29.062-1.359.063-1.437.062-1.5.063-1.559.066-1.617.063-1.66.062-1.703.063-1.735.062-1.765.063-1.785.066-1.793.063-1.805.062-1.797.063-1.789.062-1.773.067-1.75.062-1.72.063-1.675.062-1.637.063-1.578.062-1.52.067-1.456.062-1.383.063-1.305.062-1.223.063-1.132.066-1.04.062-.94.063-.84.062-.735.063-.621.062-.512.067-.394.062-.282.063-.16.062-.043.063.074.066.196.063.316.062.43.063.55.062.66.063.774.066.88.063.984.062 1.085.063 1.18.062 1.274.067 1.355.062 1.438.063 1.511.062 1.578.063 1.641.066 1.691.062 1.743.063 1.777.062 1.809.063 1.832.062 1.851.067 1.856.062 1.855.063 1.848.062 1.828.063 1.808.066 1.77.063 1.734.062 1.684.063 1.629.062 1.566.063 1.496.066 1.422.063 1.336.062 1.25.063 1.153.062 1.054.067.95.062.843.063.73.062.614.063.496.062.375.066.25.063.129.062.004.063-.121.062-.246.067-.371.062-.489.063-.61.062-.73.063-.84.066-.953.063-1.054.062-1.16.063-1.258.062-1.344.063-1.434.066-1.507.063-1.582.062-1.649.063-1.703.062-1.754.067-1.797.062-1.828.063-1.855.062-1.875.125-3.766.067-1.875.062-1.863.063-1.832.062-1.805.063-1.762.066-1.71.062-1.66.063-1.59.062-1.524.063-1.445.062-1.356.067-1.27.062-1.171.063-1.074.062-.961.063-.856.066-.738.063-.621.062-.5.063-.38.062-.25.063-.128h.066l.063.129.062.25.063.379.062.5.067.62.062.74.063.855.062.96.063 1.075.066 1.172.062 1.265.063 1.36.062 1.445.063 1.523.062 1.59.067 1.656.062 1.715.063 1.762.062 1.8.063 1.837.066 1.86.063 1.878.125 3.766.062 1.875.063 1.855.066 1.828.063 1.797.062 1.754.063 1.703.062 1.649.067 1.582.062 1.507.063 1.434.062 1.344.063 1.258.062 1.16.066 1.054.063.954.062.84.063.73.062.61.067.488.062.37.063.247.062.12.063-.003.062-.129.067-.25.062-.375.063-.496.062-.613.063-.73.066-.84.063-.954.062-1.054.063-1.153.062-1.25.067-1.336.062-1.422.063-1.496.062-1.566.063-1.629.062-1.684.067-1.73.062-1.774.063-1.808.062-1.828.063-1.848.066-1.855.062-1.856.063-1.848.062-1.835.063-1.809.062-1.777.067-1.743.062-1.691.063-1.64.062-1.579.063-1.511.066-1.438.063-1.355.062-1.274.063-1.18.062-1.085.063-.985.066-.879.063-.773.062-.66.063-.551.062-.43.067-.316.062-.196.063-.074.062.043.063.16.066.282.062.394.063.512.062.621.063.734.062.84.067.938.062 1.043.063 1.132.062 1.223.063 1.305.066 1.383.063 1.453.062 1.523.063 1.578.062 1.633.063 1.68.066 1.719.063 1.746.062 1.773.063 1.793.062 1.797.067 1.8.062 1.798.063 1.785.062 1.761.063 1.739.062 1.703.066 1.66.063 1.617.062 1.559.063 1.5.062 1.433.067 1.364.062 1.285.063 1.207.062 1.117.063 1.027.062.93.067.836.062.734.063.63.062.523.063.414.066.308.063.196.062.086.063-.024.062-.133.067-.246.062-.351.063-.457.062-.559.063-.664.062-.762.067-.859.062-.95.063-1.038.062-1.121.063-1.2.066-1.277.062-1.344.063-1.406.062-1.469.063-1.52.062-1.562.067-1.61.062-1.64.063-1.668.062-1.691.063-1.703.066-1.715.063-1.719.062-1.715.063-1.703.062-1.687.063-1.664.066-1.633.063-1.602.062-1.558.063-1.516.062-1.465.067-1.406.062-1.344.063-1.277.062-1.207.063-1.137.062-1.055.066-.972.063-.887.062-.8.063-.708.062-.617.067-.523.062-.426.063-.328.062-.235.063-.133.066-.03.063.062.062.16.063.258.062.355.063.445.066.543.063.625.062.72.063.8.062.879.067.96.062 1.036.063 1.102.062 1.171.063 1.235.062 1.289.066 1.344.063 1.394.062 1.438.063 1.472.062 1.512.067 1.535.062 1.563.063 1.578.062 1.594.063 1.597.062 1.606.067 1.597.062 1.594.063 1.578.062 1.563.063 1.535.066 1.512.063 1.476.062 1.442.063 1.398.062 1.355.067 1.305.062 1.25.063 1.192.062 1.132.063 1.07.062 1 .067.934.062.86.063.785.062.71.063.634.066.55.062.47.063.386.062.304.063.223.062.137.067.055.062-.028.063-.113.062-.195.063-.274.066-.355.063-.434.062-.512.063-.586.062-.66.063-.726.066-.797.063-.863.062-.926.063-.985.062-1.043.067-1.093.062-1.145.063-1.191.062-1.239.063-1.273.062-1.309.066-1.34.063-1.37.062-1.391.063-1.414.062-1.43.067-1.441.062-1.45.125-2.906.063-1.449.066-1.445.063-1.43.062-1.418.063-1.398.062-1.375.063-1.352.066-1.32.063-1.29.062-1.253.063-1.215.062-1.176.067-1.129.062-1.082.063-1.035.062-.98.063-.93.062-.875.066-.816.063-.754.062-.7.063-.632.062-.57.067-.509.062-.441.063-.375.062-.312.063-.243.062-.175.067-.11.062-.043.063.02.062.09.063.152.066.219.063.281.062.348.063.402.062.465.063.523.066.582.063.637.062.687.063.743.062.789.067.84.062.882.063.926.062.965.063 1.004.066 1.043.062 1.074.063 1.106.062 1.132.063 1.16.062 1.18.067 1.203.062 1.22.063 1.233.062 1.247.063 1.257.066 1.262.188 3.809.125 2.523.066 1.25.063 1.238.062 1.223.063 1.211.062 1.191.067 1.172.062 1.149.063 1.125.062 1.097.063 1.067.062 1.039.066 1.008.063.972.062.934.063.902.062.86.067.824.062.781.063.738.062.696.063.652.066.606.063.562.062.512.063.468.062.418.063.375.066.325.063.273.062.227.063.18.062.128.067.082.062.032.063-.016.062-.063.063-.105.062-.156.066-.203.063-.247.062-.289.063-.336.062-.375.067-.421.062-.457.063-.5.062-.54.063-.574.062-.61.067-.644.062-.68.063-.714.062-.742.063-.77.066-.8.063-.829.062-.851.063-.875.062-.895.063-.918.066-.937.063-.957.062-.97.063-.983.062-1 .067-1.008.062-1.02.063-1.023.062-1.035.063-1.04.066-1.039.062-1.043.063-1.046.062-1.043.125-2.078.067-1.032.062-1.027.063-1.016.062-1.011.063-.997.066-.988.063-.972.062-.957.063-.946.062-.93.063-.91.066-.89.063-.871.062-.856.063-.828.062-.809.067-.785.062-.765.063-.735.062-.715.063-.683.062-.66.066-.633.063-.606.062-.578.063-.55.062-.52.067-.488.062-.461.063-.434.062-.398.063-.371.062-.34.067-.313.062-.277.063-.25.062-.219.063-.183.066-.157.063-.129.062-.093.063-.067.062-.035.067-.004.062.024.063.05.062.082.063.114.062.136.067.168.062.196.063.219.062.246.063.273.066.3.062.325.063.348.062.37.063.395.062.418.067.438.062.46.063.485.062.5.063.52.066.543.063.558.062.574.063.59.062.61.063.625.066.636.063.653.062.664.063.676.062.691.067.7.062.71.063.719.062.73.063.735.066.746.062.75.063.758.062.761.125 1.54.067.777.125 1.554.125 1.563.066.781.063.781.187 2.332.063.774.066.77.125 1.523.063.754.062.75.067.746.062.734.063.73.062.723.063.715.062.703.066.7.063.687.062.676.063.668.062.656.067.645.062.636.063.625.062.61.063.597.062.59.067.574.062.559.063.55.062.532.063.523.066.504.063.496.062.477.063.465.062.45.067.433.062.418.063.406.062.39.063.372.062.359.067.344.062.328.063.312.062.297.063.281.128.516.063.234.062.22.063.202.062.188.067.172.062.156.063.14.062.126.063.113.066.094.063.078.062.066.063.051.062.035.063.02.066.004.063-.008.062-.024.063-.035.062-.055.067-.062.062-.082.063-.09.062-.11.063-.116.066-.133.062-.145.063-.16.062-.168.063-.184.062-.195.067-.207.062-.219.063-.23.062-.242.063-.254.066-.262.063-.277.062-.285.063-.293.062-.305.063-.316.066-.325.063-.336.062-.343.063-.352.062-.36.067-.37.062-.375.063-.387.062-.395.063-.398.062-.41.066-.414.063-.422.062-.43.063-.433.062-.442.067-.45.062-.452.063-.457.062-.465.063-.469.062-.473.067-.476.125-.969.125-.984.066-.5.063-.5.062-.504.063-.508.062-.512.067-.511.062-.512.063-.516.125-1.039.062-.523.067-.52.062-.523.063-.528.125-1.046.066-.528.062-.527.063-.524.062-.527.125-1.047.067-.523.125-1.047.125-1.04.066-.515.063-.515.125-1.024.125-1.015.066-.504.125-1 .063-.496.062-.493.067-.488.125-.969.125-.953.062-.469.066-.468.125-.922.063-.453.062-.45.067-.445.062-.441.063-.434.062-.43.063-.425.066-.422.063-.414.062-.41.125-.805.063-.39.066-.387.063-.383.062-.375.063-.371.062-.364.067-.359.062-.352.063-.343.062-.34.063-.332.062-.324.066-.32.063-.313.062-.309.063-.297.062-.293.067-.289.062-.277.063-.273.062-.262.063-.258.062-.254.067-.242.062-.238.063-.227.062-.223.063-.214.066-.207.063-.2.062-.191.063-.188.062-.175.067-.168.062-.164.063-.153.062-.148.063-.14.062-.13.067-.125.062-.117.063-.105.062-.102.063-.094.066-.082.062-.078.063-.07.062-.059.063-.054.062-.047.067-.035.062-.032.063-.023.062-.012.063-.008.066.004.063.008.062.02.063.027.062.031.063.043.066.047.063.059.062.066.063.07.062.082.067.09.062.098.063.101.062.114.063.12.062.126.066.137.063.14.062.152.063.16.062.165.067.172.062.183.063.188.062.195.063.203.066.211.063.219.062.226.063.23.062.243.063.246.066.254.063.262.062.27.063.273.062.285.067.289.062.297.063.3.062.31.063.316.062.324.066.328.063.336.062.344.063.347.062.356.067.36.062.366.063.375.062.38.063.382.062.39.067.395.062.403.063.406.062.414.063.418.066.422.125.859.063.438.125.89.066.453.063.457.062.461.063.465.062.469.067.473.062.476.063.48.125.97.066.491.062.493.188 1.5.062.507.067.508.062.508.063.512.125 1.031.066.52.125 1.039.188 1.57.066.523.063.524.125 1.055.062.523.067.527.062.524.063.527.125 1.047.062.52.066.52.125 1.038.063.516.062.511.067.512.062.508.125 1.008.063.5.066.496.063.492.062.488.063.485.062.48.063.477.066.469.063.468.062.461.063.457.062.45.067.445.062.437.063.43.062.426.063.418.062.414.066.402.063.399.062.39.063.38.062.374.067.363.062.36.063.347.062.336.063.332.062.32.067.31.062.3.063.29.062.28.063.27.066.258.063.246.062.238.063.223.062.215.063.199.066.187.063.18.062.164.063.152.062.137.067.129.062.11.063.101.062.086.063.07.066.059.062.047.063.03.062.017h.063l.062-.012.067-.028.062-.042.063-.06.062-.07.063-.09.066-.1.063-.118.062-.133.063-.148.062-.164.063-.18.066-.195.063-.211.062-.227.063-.242.062-.258.067-.273.062-.29.063-.304.062-.32.063-.336.062-.352.066-.367.063-.383.062-.394.063-.414.062-.426.067-.442.062-.457.063-.472.062-.485.063-.5.062-.511.067-.532.062-.539.063-.554.062-.567.063-.582.066-.594.063-.605.062-.617.063-.63.062-.64.067-.652.062-.66.063-.672.062-.684.063-.691.062-.703.066-.707.063-.719.062-.727.063-.734.062-.738.067-.746.062-.754.063-.758.062-.762.125-1.539.067-.773.125-1.555.125-1.562.066-.782.125-1.562.125-1.555.063-.77.066-.769.063-.766.062-.761.063-.754.062-.746.067-.742.062-.735.063-.723.062-.714.063-.707.066-.696.062-.683.063-.668.062-.66.063-.645.062-.633.067-.613.062-.602.063-.582.062-.566.063-.55.066-.532.063-.512.062-.492.063-.469.062-.453.063-.426.066-.406.063-.383.062-.363.063-.336.062-.309.067-.285.062-.261.063-.235.062-.207.063-.18.062-.152.066-.125.063-.097.062-.067.063-.039.062-.012.067.024.062.05.063.079.062.109.063.145.062.171.067.2.062.234.063.266.062.293.063.324.066.355.063.387.062.414.063.45.062.472.067.508.062.535.063.562.062.59.063.621.062.645.066.676.063.699.062.723.063.75.062.773.067.797.062.82.063.844.062.863.063.88.062.901.067.922.062.934.063.953.062.965.063.98.066.993.063 1.003.062 1.016.063 1.02.062 1.03.063 1.036.066 1.04.063 1.038.062 1.047.125 2.086.067 1.04.062 1.038.063 1.027.062 1.024.063 1.016.062 1 .066.992.063.976.062.965.063.945.062.93.067.906.062.887.063.863.062.84.063.813.066.785.063.758.062.73.063.695.062.66.063.63.066.593.063.555.062.52.063.48.062.437.067.399.062.355.063.313.062.27.063.222.062.18.066.133.063.085.062.04.063-.012.062-.055.067-.105.062-.157.063-.199.062-.254.063-.297.062-.347.067-.399.062-.441.063-.492.062-.54.063-.581.066-.63.063-.675.062-.715.063-.762.062-.8.067-.844.062-.879.063-.918.062-.957.063-.988.062-1.024.066-1.054.063-1.082.062-1.11.063-1.137.062-1.16.067-1.183.062-1.2.063-1.218.062-1.23.063-1.247.062-1.254.067-1.261.062-1.27.063-1.266.062-1.27.063-1.265.066-1.262.063-1.25.062-1.242.063-1.226.062-1.215.063-1.192.066-1.167.063-1.149.062-1.121.063-1.09.062-1.055.067-1.023.062-.988.063-.946.062-.906.063-.86.062-.812.066-.765.063-.72.062-.66.063-.609.062-.55.067-.496.062-.434.063-.375.062-.316.063-.25.066-.184.063-.121.062-.059.063.012.062.078.063.14.066.212.063.277.062.344.063.406.062.477.067.539.062.601.063.664.062.727.063.789.062.844.066.902.063.957.062 1.008.063 1.058.062 1.106.067 1.152.062 1.196.063 1.234.062 1.273.063 1.305.062 1.336.067 1.363.062 1.387.063 1.41.062 1.422.063 1.437.066 1.45.188 4.36.062 1.444.067 1.434.062 1.422.063 1.406.062 1.379.063 1.355.062 1.329.066 1.293.063 1.253.062 1.211.063 1.172.062 1.117.067 1.07.062 1.016.063.954.062.894.063.832.062.762.067.695.062.621.063.551.062.473.063.394.066.313.063.238.062.152.063.07.062-.011.063-.098.066-.18.063-.261.062-.348.063-.43.062-.507.067-.594.062-.668.063-.75.062-.82.063-.899.062-.969.066-1.035.063-1.101.062-1.164.063-1.219.062-1.281.067-1.328.062-1.375.063-1.422.062-1.461.063-1.492.066-1.528.063-1.547.062-1.57.063-1.586.062-1.598.063-1.601.066-1.602.063-1.597.062-1.586.063-1.57.062-1.551.067-1.524.062-1.496.063-1.457.062-1.414.063-1.367.062-1.32.066-1.262.063-1.203.062-1.137.063-1.07.062-.996.067-.922.062-.84.063-.762.062-.672.063-.582.062-.496.067-.398.062-.309.063-.207.062-.113.063-.016.066.082.063.184.062.281.063.375.062.477.063.566.066.664.063.758.062.844.063.93.062 1.015.066 1.094.063 1.172.062 1.242.063 1.312.062 1.375.067 1.438.062 1.488.063 1.54.062 1.577.063 1.621.062 1.649.067 1.676.062 1.699.063 1.707.062 1.715.063 1.718.066 1.711.063 1.7.062 1.68.063 1.655.062 1.625.063 1.586.066 1.543.063 1.496.062 1.438.063 1.375.062 1.312.067 1.239.062 1.16.063 1.082.062.992.063.906.062.809.066.715.063.613.062.508.063.406.062.297.067.188.062.082.063-.032.062-.144.063-.25.066-.36.063-.472.062-.574.063-.684.062-.785.063-.883.066-.98.063-1.07.062-1.165.063-1.242.062-1.328.067-1.399.062-1.468.063-1.532.062-1.586.063-1.64.062-1.684.066-1.719.063-1.75.062-1.777.063-1.789.062-1.8.067-1.802.062-1.796.063-1.782.062-1.761.063-1.735.062-1.699.067-1.656.062-1.61.063-1.55.062-1.489.063-1.418.066-1.347.063-1.266.062-1.176.063-1.086.062-.992.063-.89.066-.786.063-.68.062-.566.063-.453.062-.34.066-.222.063-.102.062.02.063.132.062.258.067.371.062.493.063.605.062.715.063.828.062.934.067 1.035.062 1.133.063 1.226.062 1.317.063 1.398.066 1.473.063 1.547.062 1.609.063 1.668.062 1.719.063 1.757.066 1.797.063 1.82.062 1.844.063 1.852.062 1.855.067 1.856.062 1.84.063 1.816.062 1.793.063 1.754.062 1.707.066 1.656.063 1.602.062 1.531.063 1.457.062 1.379.067 1.297.062 1.2.063 1.105.062 1.003.063.899.062.785.067.672.062.555.063.437.062.313.063.187.066.067.063-.059.062-.184.063-.304.062-.434.067-.55.062-.669.063-.785.062-.894.063-1.008.062-1.11.066-1.207.063-1.3.062-1.391.063-1.469.062-1.547.067-1.617.062-1.676.063-1.73.062-1.777.063-1.813.062-1.844.067-1.867.062-1.879.125-3.765.063-1.868.066-1.847.063-1.82.062-1.786.063-1.738.062-1.684.063-1.628.066-1.555.063-1.485.062-1.402.063-1.316.062-1.219.066-1.125.063-1.016.062-.91.063-.797.062-.68.067-.562.062-.437.063-.317.062-.187.063-.067"/></g><use xlink:href="#e" x="223.605" y="50.605"/><use xlink:href="#f" x="3.302" y="9.128"/><use xlink:href="#g" x="8.042" y="10.999"/><use xlink:href="#h" x="13.244" y="10.999"/></svg>