<svg xmlns="http://www.w3.org/2000/svg" xmlns:xlink="http://www.w3.org/1999/xlink" width="226.772" height="20.639"><defs><path id="a" d="M1.36-3.11q1.5-.168 1.5-1.187 0-1.061-.891-1.062c-.274 0-.5.062-.688.187-.074.25-.117.524-.125.813a.6.6 0 0 1-.203.03c-.281 0-.422-.116-.422-.359q0-.513.438-.828.45-.311 1.172-.312.7 0 1.109.375.406.362.406 1 0 .611-.406 1-.3.27-.89.469v.03q.702.095 1.078.47c.257.242.39.543.39.906q0 .722-.547 1.203-.55.485-1.406.484c-.48 0-.84-.097-1.078-.28a.6.6 0 0 1-.266-.5q0-.39.39-.532.142.344.282.484c.195.23.469.344.813.344Q3-.375 3-1.422q0-1.106-1.64-1.234Zm0 0"/><path id="b" d="M.875-.922q.247 0 .406.219.172.205.172.562 0 .574-.375.985-.315.311-.61.312c-.093 0-.163-.078-.202-.234Q.84.622.875.047a.5.5 0 0 1-.344-.125.47.47 0 0 1-.14-.344q0-.217.14-.36a.47.47 0 0 1 .344-.14m0 0"/><path id="c" d="m.125-1.953 2.5-3.75.656-.047v3.578h.735l-.047.672H3.28v1.016l.61.125q.124.034.125.093c0 .032-.04.121-.11.266H1.891a.16.16 0 0 1-.016-.078q0-.247.297-.313l.39-.093V-1.5H.156Zm.719-.219h1.719v-2.656H2.53L.844-2.188Zm0 0"/><path id="d" d="M5.75-6.078c.008.023.016.047.016.078 0 .168-.102.273-.297.313l-.235.062-2 5.625h-.718L.453-5.625l-.375-.094q-.124-.028-.125-.11c0-.05.035-.132.094-.25h1.969V-6c0 .156-.102.262-.297.313l-.375.078L2.969-.891h.015l1.672-4.734-.672-.11q-.127-.029-.125-.093 0-.075.094-.25Zm0 0"/><path id="g" d="M2-.562v-4.375l-1.328.265a1 1 0 0 1-.016-.187c0-.133.07-.227.219-.282l1.453-.593h.438v5.172l1.078.171q.124.018.125.094 0 .081-.094.297H.859a.16.16 0 0 1-.015-.078q0-.311.281-.36Zm0 0"/><clipPath id="e"><path d="M94 0h39v20.285H94Zm0 0"/></clipPath><clipPath id="f"><path d="M120 0h2v20.285h-2Zm0 0"/></clipPath></defs><use xlink:href="#a" x="13.823" y="12.601"/><use xlink:href="#b" x="18.23" y="12.601"/><use xlink:href="#c" x="20.054" y="12.601"/><use xlink:href="#d" x="25.923" y="12.601"/><path fill="none" stroke="#000" stroke-miterlimit="10" stroke-width=".39214119000000003" d="M43.82 10.14h61.657m15.597 0h61.657"/><g clip-path="url(#e)"><path fill="none" stroke="#000" stroke-miterlimit="10" stroke-width=".7832995700000001" d="M121.074 10.14 105.477.39v19.5Zm0 0"/></g><path fill="none" stroke="#000" stroke-miterlimit="10" stroke-width=".39214119000000003" d="M121.074 10.14h-15.597"/><g clip-path="url(#f)"><path fill="none" stroke="#000" stroke-miterlimit="10" stroke-width=".7832995700000001" d="M121.074 19.89V.39"/></g><use xlink:href="#c" x="194.909" y="12.601"/><use xlink:href="#b" x="199.315" y="12.601"/><use xlink:href="#g" x="201.139" y="12.601"/><use xlink:href="#d" x="207.008" y="12.601"/></svg>