<svg xmlns="http://www.w3.org/2000/svg" xmlns:xlink="http://www.w3.org/1999/xlink" width="164.677" height="69.895"><defs><path id="b" d="m.422-.453 1.516-1.734q.874-1.015.875-2 0-1.25-.891-1.25-.362 0-.719.171-.112.365-.125.891-.11.017-.203.016-.422.002-.422-.36 0-.545.422-.875.42-.328 1.156-.328.715.001 1.172.406.451.41.453 1.172 0 .675-.422 1.36-.27.44-.89 1.125L1.359-.797v.016h2.032l.187-.781a.44.44 0 0 1 .188-.032q.217.002.218.344c0 .242-.03.656-.093 1.25H.5Zm0 0"/><path id="c" d="M2.031-.578v-4.438L.687-4.75a1 1 0 0 1-.015-.187c0-.133.07-.235.219-.297l1.468-.578h.454v5.234l1.093.172q.124.016.125.11 0 .08-.093.296H.874a.16.16 0 0 1-.016-.078q0-.311.282-.36Zm0 0"/><path id="d" d="m6.031-.5-.093-4.234h-.016L4.032-.078h-.485L1.703-4.766h-.016L1.61-.5l.61.14q.124.018.125.094 0 .048-.094.266H.39v-.078Q.39-.324.689-.406l.39-.094.063-5.203-.547-.125c-.086-.02-.125-.05-.125-.094q0-.075.094-.25h1.421L3.922-1.25h.015l2-4.922h1.516v.078q-.002.237-.297.297l-.422.094L6.797-.5l.625.14q.124.018.125.094 0 .048-.094.266h-2.11v-.078q-.001-.246.298-.328Zm0 0"/><path id="e" d="M2.594-6.172c.008.024.015.047.015.078q0 .237-.312.297l-.422.094v2.281h3v-2.281l-.562-.125c-.086-.02-.125-.05-.125-.094q0-.075.093-.25H6.36a.2.2 0 0 1 .016.078q0 .237-.312.297l-.407.094V-.5l.61.14q.124.018.125.094 0 .048-.094.266h-2.11v-.078q0-.246.297-.328L4.875-.5v-2.39h-3V-.5l.625.14q.124.018.125.094 0 .048-.094.266H.421a.16.16 0 0 1-.015-.078Q.404-.324.72-.406L1.094-.5v-5.203l-.547-.125c-.086-.02-.125-.05-.125-.094q0-.075.094-.25Zm0 0"/><path id="f" d="M.469-3.406q0-.329.062-.89h2.907q.03.08.03.171 0 .158-.093.313L1.141-.47v.016h1.75l.328-.89q.077-.015.125-.016.248 0 .25.28Q3.593-.983 3.469 0H.406a.6.6 0 0 1-.094-.328q0-.124.094-.266l2.157-3.25v-.015h-1.47l-.25.75H.72q-.251 0-.25-.297m0 0"/><path id="g" d="M1.375-1.719q-.11-.199-.11-.656-.001-.42.298-.86.292-.373.562-.765.312-.468.313-1c0-.54-.29-.812-.86-.812-.156 0-.32.03-.484.093q-.11.236-.203.782a2 2 0 0 1-.188.015q-.438 0-.437-.39Q.265-5.717.703-6q.436-.28 1-.281.638.002 1.047.297.47.346.469 1.03 0 .533-.36 1.048c-.218.261-.445.531-.671.812-.243.313-.36.617-.36.906q0 .33.047.47Zm.734 1.344a.47.47 0 0 1-.156.36.5.5 0 0 1-.344.124.52.52 0 0 1-.359-.125.5.5 0 0 1-.125-.359.5.5 0 0 1 .125-.36.48.48 0 0 1 .36-.14c.132 0 .25.047.343.14a.47.47 0 0 1 .156.36m0 0"/><path id="h" d="M1.39-3.156c1.008-.125 1.516-.531 1.516-1.219Q2.905-5.436 2-5.437q-.41 0-.703.187a3 3 0 0 0-.11.828 1.4 1.4 0 0 1-.218.016c-.281 0-.422-.117-.422-.36q-.001-.513.437-.828.45-.328 1.188-.328.714 0 1.125.375.422.376.422 1.016 0 .628-.422 1.015-.299.284-.906.485V-3q.715.094 1.109.469.389.361.39.922 0 .737-.562 1.234Q2.78.11 1.891.109C1.41.11 1.05.012.813-.17A.61.61 0 0 1 .53-.688c0-.258.133-.442.407-.547q.14.363.28.515.295.328.829.328c.664 0 1-.351 1-1.062 0-.738-.555-1.149-1.656-1.234Zm0 0"/><path id="i" d="M.89-.937a.53.53 0 0 1 .423.218q.17.204.171.578-.002.592-.39.985c-.211.226-.414.344-.61.344-.093 0-.164-.086-.203-.25q.574-.3.61-.891a.5.5 0 0 1-.344-.125.48.48 0 0 1-.14-.36q0-.217.14-.359a.47.47 0 0 1 .344-.14m0 0"/><path id="j" d="M.484-4.672q0-.562.063-1.14h3.578a.3.3 0 0 1 .047.171c0 .125-.04.262-.11.407L1.704 0h-.64l2.406-5.062h-2.39l-.141.75a.5.5 0 0 1-.188.03q-.268.002-.266-.39m0 0"/><clipPath id="a"><path d="M83 36h1v33.773h-1Zm0 0"/></clipPath></defs><path fill="none" stroke="#000" stroke-miterlimit="10" stroke-width=".79543788" d="M69.66 8.836h27.727v27.727H69.66Zm0 0"/><path fill="none" stroke="#000" stroke-miterlimit="10" stroke-width=".39821796000000004" d="M93.227 22.7a9.7 9.7 0 0 0-9.704-9.704A9.7 9.7 0 0 0 73.82 22.7a9.7 9.7 0 0 0 9.703 9.703 9.7 9.7 0 0 0 9.704-9.703ZM76.66 15.836l13.723 13.723m0-13.723L76.66 29.559M69.66 22.7H44.902m0 0H20.141"/><path d="M65.453 22.7v1.98l4.207-1.98-4.207-1.981Zm0 0"/><path fill="none" stroke="#000" stroke-miterlimit="10" stroke-width=".39821796000000004" d="M97.387 22.7h24.757m0 0h24.762"/><path d="M142.695 22.7v1.98l4.211-1.98-4.21-1.981Zm0 0"/><g clip-path="url(#a)"><path fill="none" stroke="#000" stroke-miterlimit="10" stroke-width=".39821796000000004" d="M83.523 36.563v16.503m0 0v16.508"/></g><path d="M83.523 40.77h1.98l-1.98-4.208-1.98 4.208Zm0 0"/><use xlink:href="#b" x="2.982" y="9.281"/><use xlink:href="#c" x="7.457" y="9.281"/><use xlink:href="#d" x="13.416" y="9.281"/><use xlink:href="#e" x="21.3" y="9.281"/><use xlink:href="#f" x="28.066" y="9.281"/><use xlink:href="#g" x="137.723" y="9.281"/><use xlink:href="#d" x="142.779" y="9.281"/><use xlink:href="#e" x="150.663" y="9.281"/><use xlink:href="#f" x="157.428" y="9.281"/><use xlink:href="#h" x="98.857" y="58.21"/><use xlink:href="#c" x="103.332" y="58.21"/><use xlink:href="#i" x="107.806" y="58.21"/><use xlink:href="#j" x="109.658" y="58.21"/><use xlink:href="#d" x="115.618" y="58.21"/><use xlink:href="#e" x="123.502" y="58.21"/><use xlink:href="#f" x="130.267" y="58.21"/></svg>