<svg xmlns="http://www.w3.org/2000/svg" xmlns:xlink="http://www.w3.org/1999/xlink" width="112.993" height="42.993"><defs><clipPath id="a"><path d="M.004 28H112.98v1H.004Zm0 0"/></clipPath><clipPath id="b"><path d="M29 8h55v34.984H29Zm0 0"/></clipPath><path id="c" d="M3.484-5.953c.313 0 .766.406.766 1.344 0 .265-.031.562-.11.89-.874 0-1.25-.187-1.421-.375a1.1 1.1 0 0 1-.266-.734c0-.313.14-1.125 1.031-1.125M1.86-4.703c0 .297.079.531.266.781.281.375.797.563 1.938.563-.235 1.03-.938 3.187-1.75 3.187-.422 0-.672-.203-.672-.687 0-.141.03-.313.078-.516l.328-1.484h-.125c-.188 0-.297.218-1.14.343l-.016.25c.156-.015.25-.046.359-.046.078 0 .125.046.125.171a1 1 0 0 1-.047.235l-.125.547c-.031.203-.062.39-.062.562 0 .625.359.906 1.109.906 1.234 0 2.094-1.484 2.531-3.468a.56.56 0 0 1 .375.125c.078-.125.172-.266.282-.375-.094-.079-.266-.11-.547-.11a3.4 3.4 0 0 0 .093-.797c0-.906-.406-1.75-1.484-1.75-.61 0-1.516.438-1.516 1.563m0 0"/></defs><g clip-path="url(#a)"><path fill="none" stroke="#000" stroke-miterlimit="10" stroke-width=".39893616" d="M.203 28.39h40.418m31.742 0h40.418"/></g><path fill="none" stroke="#000" stroke-miterlimit="10" stroke-width=".79687248" d="M40.621 22.45h31.742v11.886H40.621Zm0 0"/><g clip-path="url(#b)"><path fill="none" stroke="#000" stroke-miterlimit="10" stroke-width=".79687248" d="M72.363 19.898 50.145 38.582H40.62"/></g><use xlink:href="#c" x="75.551" y="39.935"/><path fill="none" stroke="#000" stroke-miterlimit="10" stroke-width=".39893616" d="M80.809 19.898V3.672"/><path stroke="#000" stroke-miterlimit="10" stroke-width=".39893616" d="M80.809.598 79.043 3.57h3.527Zm0 0"/><path fill="none" stroke="#000" stroke-miterlimit="10" stroke-width=".39893616" d="M89.25 16.43V.2"/><path stroke="#000" stroke-miterlimit="10" stroke-width=".39893616" d="m89.25 19.5 1.766-2.973h-3.528Zm0 0"/></svg>