<svg xmlns="http://www.w3.org/2000/svg" width="227.343" height="89.829"><defs><clipPath id="a"><path d="M146 .043h4V5h-4Zm0 0"/></clipPath><clipPath id="b"><path d="M140 .043h15V10h-15Zm0 0"/></clipPath><clipPath id="c"><path d="M140 79h15v10.613h-15Zm0 0"/></clipPath><clipPath id="d"><path d="M72 .043h6v89.57h-6Zm0 0"/></clipPath><clipPath id="e"><path d="M149 .043h6v89.57h-6Zm0 0"/></clipPath><clipPath id="f"><path d="M150 42h76.688v5H150Zm0 0"/></clipPath></defs><path fill="none" stroke="#7F7F7F" stroke-miterlimit="10" stroke-width=".39785088" d="M77.031 2.465h69.164"/><g clip-path="url(#a)"><path fill="#7F7F7F" d="M149.262 2.465 146.293.707v3.516Zm0 0"/></g><g clip-path="url(#b)"><path fill="none" stroke="#7F7F7F" stroke-miterlimit="10" stroke-width=".39785088" d="M149.262 2.465 146.293.707v3.516Zm0 0"/></g><path fill="none" stroke="#7F7F7F" stroke-miterlimit="10" stroke-width=".39785088" d="M77.031 8.516h69.164"/><path fill="#7F7F7F" stroke="#7F7F7F" stroke-miterlimit="10" stroke-width=".39785088" d="m149.262 8.516-2.969-1.758v3.52Zm0 0"/><path fill="none" stroke="#7F7F7F" stroke-miterlimit="10" stroke-width=".39785088" d="M77.031 14.57h69.164"/><path fill="#7F7F7F" stroke="#7F7F7F" stroke-miterlimit="10" stroke-width=".39785088" d="m149.262 14.57-2.969-1.757v3.515Zm0 0"/><path fill="none" stroke="#7F7F7F" stroke-miterlimit="10" stroke-width=".39785088" d="M77.031 20.621h69.164"/><path fill="#7F7F7F" stroke="#7F7F7F" stroke-miterlimit="10" stroke-width=".39785088" d="m149.262 20.621-2.969-1.758v3.516Zm0 0"/><path fill="none" stroke="#7F7F7F" stroke-miterlimit="10" stroke-width=".39785088" d="M77.031 26.672h69.164"/><path fill="#7F7F7F" stroke="#7F7F7F" stroke-miterlimit="10" stroke-width=".39785088" d="m149.262 26.672-2.969-1.758v3.52Zm0 0"/><path fill="none" stroke="#7F7F7F" stroke-miterlimit="10" stroke-width=".39785088" d="M77.031 32.727h69.164"/><path fill="#7F7F7F" stroke="#7F7F7F" stroke-miterlimit="10" stroke-width=".39785088" d="m149.262 32.727-2.969-1.758v3.515Zm0 0"/><path fill="none" stroke="#7F7F7F" stroke-miterlimit="10" stroke-width=".39785088" d="M77.031 38.777h69.164"/><path fill="#7F7F7F" stroke="#7F7F7F" stroke-miterlimit="10" stroke-width=".39785088" d="m149.262 38.777-2.969-1.757v3.515Zm0 0"/><path fill="none" stroke="#7F7F7F" stroke-miterlimit="10" stroke-width=".39785088" d="M77.031 44.828h69.164"/><path fill="#7F7F7F" stroke="#7F7F7F" stroke-miterlimit="10" stroke-width=".39785088" d="m149.262 44.828-2.969-1.758v3.52Zm0 0"/><path fill="none" stroke="#7F7F7F" stroke-miterlimit="10" stroke-width=".39785088" d="M77.031 50.883h69.164"/><path fill="#7F7F7F" stroke="#7F7F7F" stroke-miterlimit="10" stroke-width=".39785088" d="m149.262 50.883-2.969-1.758v3.516Zm0 0"/><path fill="none" stroke="#7F7F7F" stroke-miterlimit="10" stroke-width=".39785088" d="M77.031 56.934h69.164"/><path fill="#7F7F7F" stroke="#7F7F7F" stroke-miterlimit="10" stroke-width=".39785088" d="m149.262 56.934-2.969-1.758v3.515Zm0 0"/><path fill="none" stroke="#7F7F7F" stroke-miterlimit="10" stroke-width=".39785088" d="M77.031 62.984h69.164"/><path fill="#7F7F7F" stroke="#7F7F7F" stroke-miterlimit="10" stroke-width=".39785088" d="m149.262 62.984-2.969-1.757v3.52Zm0 0"/><path fill="none" stroke="#7F7F7F" stroke-miterlimit="10" stroke-width=".39785088" d="M77.031 69.039h69.164"/><path fill="#7F7F7F" stroke="#7F7F7F" stroke-miterlimit="10" stroke-width=".39785088" d="m149.262 69.04-2.969-1.759v3.516Zm0 0"/><path fill="none" stroke="#7F7F7F" stroke-miterlimit="10" stroke-width=".39785088" d="M77.031 75.09h69.164"/><path fill="#7F7F7F" stroke="#7F7F7F" stroke-miterlimit="10" stroke-width=".39785088" d="m149.262 75.09-2.969-1.758v3.516Zm0 0"/><path fill="none" stroke="#7F7F7F" stroke-miterlimit="10" stroke-width=".39785088" d="M77.031 81.14h69.164"/><path fill="#7F7F7F" stroke="#7F7F7F" stroke-miterlimit="10" stroke-width=".39785088" d="m149.262 81.14-2.969-1.757v3.52Zm0 0"/><path fill="none" stroke="#7F7F7F" stroke-miterlimit="10" stroke-width=".39785088" d="M77.031 87.195h69.164"/><path fill="#7F7F7F" d="m149.262 87.195-2.969-1.757v3.515Zm0 0"/><g clip-path="url(#c)"><path fill="none" stroke="#7F7F7F" stroke-miterlimit="10" stroke-width=".39785088" d="m149.262 87.195-2.969-1.757v3.515Zm0 0"/></g><g clip-path="url(#d)"><path d="M77.031.043v89.574h-4.84V.043Zm0 0"/></g><g clip-path="url(#e)"><path d="M149.656.043v89.574h4.844V.043Zm0 0"/></g><path fill="none" stroke="#000" stroke-miterlimit="10" stroke-width="3.9735232" d="M74.613 44.828H1.984"/><g clip-path="url(#f)"><path fill="none" stroke="#000" stroke-miterlimit="10" stroke-width="3.9735232" d="M152.078 44.828h72.625"/></g></svg>