<svg xmlns="http://www.w3.org/2000/svg" xmlns:xlink="http://www.w3.org/1999/xlink" width="227.245" height="111.543"><defs><path id="b" d="M4.453-5.687H3.031v5.203l.61.125q.124.017.125.093 0 .048-.094.266H1.578a.16.16 0 0 1-.016-.078q-.002-.246.313-.328l.375-.078v-5.203H.828L.61-4.75a.5.5 0 0 1-.187.031c-.18 0-.266-.129-.266-.39q0-.218.063-1.063h4.844q.06.845.062 1.063-.001.39-.266.39a.5.5 0 0 1-.187-.031Zm0 0"/><path id="c" d="M2.203-6.172v.078q-.002.253-.297.313l-.328.078L2.766-3.72h.015l1.266-2-.61-.093q-.126 0-.124-.11-.001-.075.109-.25h1.781q.014.048.016.078c0 .168-.102.278-.297.328l-.313.063L3.08-3.25 4.75-.469l.422.11q.124.034.125.093 0 .048-.094.266h-1.89a.16.16 0 0 1-.016-.078c0-.176.101-.285.312-.328l.266-.047-1.281-2.125h-.016L1.266-.453l.562.094q.124.017.125.093A.6.6 0 0 1 1.86 0H.047v-.078q0-.264.297-.328l.25-.063L2.28-3.062.671-5.687l-.437-.11C.148-5.817.11-5.859.11-5.922q0-.075.11-.25Zm0 0"/><path id="d" d="M4.344-4.797q.013.035.015.063c0 .117-.086.195-.25.234l-.218.078-1.532 1.906L4.031-.375l.407.094q.107.033.109.078 0 .034-.078.203h-.985l-1.64-2.219h-.39v1.844l.484.094q.093.018.093.078 0 .034-.078.203H.328a.1.1 0 0 1-.016-.062q0-.187.25-.25L.86-.375v-4.047l-.437-.11q-.094-.011-.094-.077-.002-.06.078-.188h1.61v.063q0 .188-.235.234l-.328.078v1.813h.5L3.36-4.437l-.437-.094q-.094-.013-.094-.078-.002-.048.078-.188Zm0 0"/><path id="e" d="M2.078-2.156q0-.468-.14-.672-.143-.218-.485-.219c-.148 0-.281.024-.406.063q-.096.188-.156.609a1 1 0 0 1-.141.016q-.344 0-.344-.297c0-.207.117-.383.36-.531q.357-.235.797-.235 1.078 0 1.078 1.172v1.531q0 .392.234.39a.34.34 0 0 0 .25-.093q.062.096.063.203 0 .082-.126.157a.65.65 0 0 1-.406.125Q2.17.064 2.11-.422h-.015c-.219.336-.54.5-.953.5Q.747.078.5-.156.266-.402.266-.812q0-.5.515-.782.435-.234 1.11-.234h.187ZM1.375-.36q.387.001.703-.36v-.797l-.187.016c-.68.055-1.016.262-1.016.625 0 .344.164.516.5.516m0 0"/><path id="f" d="M.5-4.625 0-4.687v-.063c0-.125.082-.195.25-.219l.828-.078v2.11h.016a1.26 1.26 0 0 1 1.031-.485q.545 0 .89.375c.258.281.391.711.391 1.281q0 .926-.547 1.422-.485.423-1.234.422Q.922.078.5-.156Zm1.36 1.672c-.337 0-.594.11-.782.328v2.11c.188.136.414.203.688.203q1.061 0 1.062-1.36c0-.445-.101-.781-.297-1q-.25-.28-.672-.281m0 0"/><path id="g" d="M.906-1.687q0 .657.282 1.015.281.345.796.344.45 0 .86-.328.06.048.078.203-.001.158-.313.328a1.76 1.76 0 0 1-.859.203C1.32.078.984-.05.734-.312Q.314-.747.313-1.61c0-.57.148-1.024.453-1.36q.403-.451 1-.453.544 0 .859.328.281.316.281.844 0 .234-.078.563Zm.797-1.375Q1-3.06.906-2.016h1.375q.03-.139.031-.296 0-.75-.609-.75m0 0"/><path id="h" d="M.672-.36v-4.265l-.5-.062a.1.1 0 0 1-.016-.063c0-.125.086-.195.266-.219l.812-.078v4.688l.422.093q.094.02.094.079A.36.36 0 0 1 1.688 0H.202v-.047c0-.101.07-.18.219-.234Zm0 0"/><path id="i" d="M1.578-.437v-3.454l-1.047.204a1 1 0 0 1-.015-.157c0-.101.054-.176.172-.219l1.14-.453h.36v4.079l.843.125c.07.011.11.039.11.078q0 .064-.094.234H.672v-.062c0-.165.07-.258.219-.282Zm0 0"/><path id="j" d="M.328-.36 1.5-1.702q.687-.78.688-1.547 0-.984-.704-.984-.281 0-.546.14a2.8 2.8 0 0 0-.094.688.7.7 0 0 1-.156.015q-.345 0-.344-.28 0-.422.328-.673c.226-.176.531-.265.906-.265q.562 0 .906.328.36.314.36.906 0 .532-.328 1.047-.205.346-.703.875l-.766.828v.016h1.578l.156-.594a.27.27 0 0 1 .14-.031q.172.001.173.265c0 .18-.024.5-.063.969H.391Zm0 0"/><path id="k" d="M2.656-.39h-.015q-.364.468-1 .468c-.375 0-.684-.117-.922-.36-.274-.28-.406-.71-.406-1.296q-.001-.902.53-1.406.482-.437 1.173-.438.311 0 .593.094v-1.297l-.5-.062a.1.1 0 0 1-.015-.063c0-.125.086-.195.265-.219l.813-.078v4.672l.515.063v.062q-.001.19-.25.203l-.78.094Zm-.844.015q.499 0 .797-.297v-2.11a.9.9 0 0 0-.656-.25.93.93 0 0 0-.75.345Q.89-2.327.891-1.672c0 .438.086.774.265 1q.235.299.657.297m0 0"/><path id="l" d="M1.984-4.797q1.782 0 1.782 1.203-.001.938-1.016 1.125v.016q1.138.158 1.14 1.11c0 .398-.156.718-.468.968Q2.919 0 2.047 0H.328a.1.1 0 0 1-.016-.062q0-.187.25-.25L.86-.375v-4.047l-.437-.11q-.094-.011-.094-.077-.002-.06.078-.188ZM1.97-.39q.622.002.968-.265.296-.247.297-.688 0-.405-.328-.64-.316-.248-.89-.25h-.563v1.843Zm-.047-2.218c.406 0 .719-.086.937-.266q.282-.232.282-.64 0-.891-1.22-.891h-.468v1.797Zm0 0"/><path id="m" d="M1.844-4.797q2.766 0 2.765 2.328-.001 1.237-.734 1.86Q3.17 0 1.844 0H.328a.1.1 0 0 1-.016-.062q0-.187.25-.25L.86-.375v-4.047l-.437-.11q-.094-.011-.094-.077-.002-.06.078-.188ZM1.828-.39q1.015 0 1.578-.515.563-.527.563-1.547 0-.967-.563-1.453-.563-.499-1.578-.5h-.375v4.015Zm0 0"/><path id="n" d="M2.078-2.156q0-.468-.14-.672-.143-.218-.485-.219c-.148 0-.281.024-.406.063q-.096.188-.156.609a1 1 0 0 1-.141.016q-.344 0-.344-.297c0-.207.117-.383.36-.531q.357-.235.797-.235 1.078 0 1.078 1.172v1.531q0 .392.234.39a.34.34 0 0 0 .25-.093q.062.096.063.203 0 .082-.126.157a.65.65 0 0 1-.406.125Q2.17.064 2.11-.422h-.015c-.219.336-.54.5-.953.5Q.747.078.5-.156.266-.402.266-.812q0-.5.515-.782.435-.234 1.11-.234h.187ZM1.375-.36q.387.001.703-.36v-.797l-.187.016c-.68.055-1.016.262-1.016.625 0 .344.164.516.5.516M.938-3.937a.37.37 0 0 1-.25-.094.4.4 0 0 1-.094-.266q0-.154.094-.25a.35.35 0 0 1 .25-.11c.101 0 .187.04.25.11a.34.34 0 0 1 .093.25.4.4 0 0 1-.093.266.34.34 0 0 1-.25.093m1.187 0a.37.37 0 0 1-.25-.094.4.4 0 0 1-.094-.266q0-.154.094-.25a.35.35 0 0 1 .25-.11c.094 0 .172.04.234.11.07.063.11.149.11.25 0 .106-.04.195-.11.266a.32.32 0 0 1-.234.093m0 0"/><path id="o" d="m5.516-.36.422.094q.093.02.093.079A.3.3 0 0 1 5.953 0H4.484v-.047q0-.152.204-.234l.265-.078v-1.782q-.002-.81-.672-.812-.533 0-.937.375.047.253.047.406v1.813l.422.093q.093.02.093.079A.36.36 0 0 1 3.844 0H2.359v-.047c0-.101.07-.18.22-.234l.25-.078v-1.782q-.002-.81-.673-.812-.504.002-.89.344v2.25l.422.093q.093.02.093.079A.36.36 0 0 1 1.72 0H.25a.1.1 0 0 1-.016-.047c0-.101.07-.18.22-.234l.25-.078v-2.594l-.5-.078q-.018-.012-.016-.047c0-.133.085-.207.265-.219l.813-.078-.032.469h.016q.48-.516 1.11-.516.638 0 .89.563.497-.563 1.188-.563.499 0 .78.328.296.315.298.922Zm0 0"/><path id="p" d="M.672 1.031v-3.984l-.516-.078v-.047q-.001-.2.25-.219l.828-.078-.046.453h.015q.422-.499 1.031-.5c.407 0 .723.149.954.438q.358.421.359 1.172-.002.925-.485 1.406-.438.455-1.234.453c-.2 0-.398-.035-.594-.094v1.078l.407.094c.07.008.109.035.109.078a.27.27 0 0 1-.078.188H.203a.1.1 0 0 1-.016-.047c0-.106.07-.184.22-.235Zm1.344-4q-.44 0-.782.328v2.079c.188.148.407.218.657.218q1.061.002 1.062-1.422-.002-.574-.25-.89a.84.84 0 0 0-.687-.313m0 0"/><path id="q" d="M.719-3.344v-.031q0-.779.375-1.234.327-.406.797-.407.421 0 .422.329c0 .093-.043.18-.126.25a.9.9 0 0 0-.453-.125q-.253 0-.359.14c-.062.086-.094.234-.094.453v.625h.938l-.063.375h-.875v2.61l.485.093q.093.02.093.079A.36.36 0 0 1 1.797 0H.25v-.047Q.249-.199.453-.28L.72-.36v-2.61H.188v-.062Q.187-3.203.39-3.25Zm0 0"/><path id="r" d="m.61-2.953-.5-.078q-.017-.012-.016-.047-.002-.2.265-.219l.813-.078v2.172c0 .555.234.828.703.828q.529.001.86-.344v-2.234l-.516-.078v-.047q-.001-.2.25-.219l.828-.078v3l.5.063q.014.033.015.062-.001.19-.265.203L2.78.047v-.469h-.015a1.3 1.3 0 0 1-1.063.5Q.61.08.61-1.156Zm0 0"/><path id="s" d="M.703-.36v-2.593l-.5-.078q-.017-.012-.016-.047c0-.133.086-.207.266-.219l.813-.078-.032.469h.016q.233-.235.406-.328.31-.188.75-.188.5 0 .781.328.296.33.297.922v1.813l.407.093q.093.02.093.079A.36.36 0 0 1 3.922 0H2.453a.1.1 0 0 1-.015-.047c0-.101.07-.18.218-.234l.25-.078v-1.782q0-.419-.234-.64a.78.78 0 0 0-.516-.172q-.504.002-.89.344v2.25l.422.093q.093.02.093.079A.36.36 0 0 1 1.72 0H.25a.1.1 0 0 1-.016-.047c0-.101.07-.18.22-.234Zm0 0"/><path id="t" d="M.375-2.312q0-.514.39-.829.36-.28.876-.28.28 0 .53.077H3.36l-.078.375H2.72q.201.3.203.656c0 .356-.133.637-.39.844q-.362.299-.923.297-.157.002-.328-.031c-.148.086-.218.187-.218.312 0 .18.125.266.375.266h.78q.452.002.72.203a.63.63 0 0 1 .265.547q0 .545-.469.938c-.343.269-.789.406-1.328.406-.824 0-1.234-.274-1.234-.813Q.17.05.797-.172v-.016Q.529-.325.53-.64q0-.387.469-.64v-.016Q.374-1.59.375-2.313m1.266.78c.488 0 .734-.257.734-.78q-.002-.359-.203-.547a.68.68 0 0 0-.516-.203q-.702 0-.703.75c0 .523.227.78.688.78M1.344-.077a1 1 0 0 1-.266-.031.6.6 0 0 0-.36.578c0 .414.259.625.782.625q.528 0 .844-.219c.195-.137.297-.312.297-.531q0-.422-.563-.422Zm0 0"/><path id="u" d="M2.875-3.719a.7.7 0 0 0-.25-.312.94.94 0 0 0-.578-.188Q.98-4.219.907-2.39q.403-.311.937-.312.608.002.953.297.389.314.39.969-.002.627-.39 1.062c-.274.305-.621.453-1.047.453q-.736 0-1.11-.61C.399-.905.282-1.43.282-2.108q0-.986.469-1.688.515-.81 1.422-.812c.32 0 .578.058.765.172q.249.159.25.359 0 .281-.312.36M.906-2.03q.013.879.266 1.312c.156.274.363.407.625.407a.71.71 0 0 0 .578-.266q.218-.281.219-.797-.001-.937-.781-.937-.597 0-.907.28m0 0"/><path id="v" d="M4.547-4.797v.063q0 .189-.234.25l-.188.046L2.547 0h-.563L.36-4.437l-.296-.079c-.07-.007-.11-.039-.11-.093q0-.06.078-.188h1.547c.008.024.016.043.016.063q0 .189-.235.25l-.296.062 1.28 3.719h.016l1.313-3.734-.531-.094q-.094-.013-.094-.078c0-.032.023-.094.078-.188Zm0 0"/><path id="w" d="M.703-.36v-2.593l-.5-.078q-.017-.012-.016-.047c0-.133.086-.207.266-.219l.813-.078-.032.578h.016q.405-.623.89-.625.453.002.454.344c0 .094-.04.195-.11.297-.168-.07-.32-.11-.453-.11a.92.92 0 0 0-.765.391v2.14l.5.094q.093.02.093.079A.3.3 0 0 1 1.781 0H.25a.1.1 0 0 1-.016-.047c0-.101.07-.18.22-.234Zm0 0"/><path id="x" d="M.781-.437q.2.14.5.14c.407 0 .61-.148.61-.453q-.002-.187-.203-.375a6 6 0 0 0-.454-.312q-.408-.249-.578-.438a.93.93 0 0 1-.281-.656q-.002-.406.313-.64.327-.249.796-.25.47 0 .75.233.031.27.032.422c0 .243-.09.36-.266.36-.031 0-.055-.004-.062-.016l-.094-.5a.86.86 0 0 0-.469-.14c-.336 0-.5.136-.5.406q0 .281.39.547.373.234.735.468.388.315.39.735 0 .421-.328.703-.316.28-.843.281C.875.078.594.012.375-.109a3 3 0 0 1-.062-.578c0-.22.085-.329.265-.329h.063Zm0 0"/><path id="y" d="m.672-3.344.14-.922h.391v.922H2.25l-.062.375h-.985v2.14q-.002.517.453.517.357 0 .578-.188a.4.4 0 0 1 .047.203q0 .095-.187.219a1.2 1.2 0 0 1-.64.156Q.64.078.64-.719v-2.25H.125a.1.1 0 0 1-.016-.062c0-.114.07-.188.22-.219Zm0 0"/><path id="z" d="M.64-.36v-4.265l-.515-.062v-.063c0-.125.082-.195.25-.219l.828-.078v3.11h.422l.922-1.079-.485-.093v-.063q0-.17.188-.172h1.125q.076.002.078.078a.5.5 0 0 1-.047.157L3-2.984 2.016-1.86 3.203-.344l.344.078c.07.012.11.04.11.079A.3.3 0 0 1 3.577 0h-.89L1.516-1.594h-.313v1.25l.36.078q.093.02.093.079A.3.3 0 0 1 1.578 0H.172v-.047Q.17-.199.375-.28Zm0 0"/><path id="A" d="M1.797-4.797q1.968.002 1.969 1.344-.002.688-.485 1.062c-.324.274-.808.407-1.453.407h-.375v1.609l.563.094q.093.018.093.078A.7.7 0 0 1 2.031 0H.328a.1.1 0 0 1-.016-.062q0-.187.25-.25L.86-.375v-4.047l-.437-.11q-.094-.011-.094-.077-.002-.06.078-.188Zm0 2.438c.445 0 .781-.098 1-.297q.311-.281.312-.766 0-.984-1.312-.984h-.344v2.047Zm0 0"/><path id="B" d="m3.484-.375-.453-1.266H1.312L.845-.375l.531.094q.094.018.094.078A.7.7 0 0 1 1.39 0H-.062v-.062c0-.133.078-.22.234-.25L.359-.36l1.688-4.438.437-.062L4.156-.375l.313.094q.093.033.093.078 0 .034-.078.203H3a.1.1 0 0 1-.016-.062q0-.187.235-.25Zm-2.046-1.64h1.468l-.719-2.032h-.015Zm0 0"/><path id="C" d="M1.078-2.453q1.186-.14 1.188-.938 0-.843-.703-.843a.93.93 0 0 0-.547.156 2 2 0 0 0-.094.64 1 1 0 0 1-.156.016q-.344 0-.344-.281-.001-.405.344-.656c.238-.164.547-.25.922-.25q.56.002.875.297.328.298.328.796 0 .487-.328.797-.235.205-.704.375v.016c.364.055.645.172.844.36.207.187.313.429.313.718 0 .387-.149.703-.438.953q-.422.375-1.11.375Q.908.076.626-.125a.51.51 0 0 1-.203-.406q0-.31.297-.422.105.269.234.39c.156.18.367.266.64.266.52 0 .782-.273.782-.828q-.001-.874-1.297-.969Zm0 0"/><path id="D" d="M4.563-2.266v.063q0 .189-.235.25l-.156.031v1.485Q3.608.078 2.5.078c-.637 0-1.14-.195-1.516-.594C.566-.953.36-1.57.36-2.375q0-1.247.797-1.937.67-.563 1.657-.563c.3 0 .578.04.828.11q.046.018.468.171.031.503.032.719-.002.314-.203.313a.4.4 0 0 1-.157-.032l-.156-.672q-.344-.217-.86-.218c-.492 0-.89.156-1.203.468-.367.368-.546.887-.546 1.563 0 .687.148 1.219.453 1.594q.435.531 1.187.53c.344 0 .645-.054.906-.171v-1.39l-.421-.094q-.111-.03-.11-.079-.002-.06.078-.203Zm0 0"/><path id="E" d="M3.125-3.344q.094.002.094.078a.4.4 0 0 1-.063.157L2.766-3l.797 2.36h.015l.875-2.376-.484-.093a.2.2 0 0 1-.016-.063q0-.17.203-.172h1q.077.002.078.078a.5.5 0 0 1-.046.157l-.329.125L3.703 0h-.422l-.64-1.766h-.016L1.953 0h-.437L.344-3.016.03-3.109v-.063q0-.17.188-.172h1.078q.093.002.094.078a.4.4 0 0 1-.063.157L.938-3l.859 2.36h.016l.656-1.626-.281-.75-.313-.093v-.063q0-.17.188-.172Zm0 0"/><path id="F" d="M.703-.36v-2.593l-.5-.078q-.017-.012-.016-.047c0-.133.086-.207.266-.219l.813-.078v3.016l.422.093q.093.02.093.079A.36.36 0 0 1 1.72 0H.25a.1.1 0 0 1-.016-.047c0-.101.07-.18.22-.234Zm-.11-4.187a.38.38 0 0 1 .11-.281.42.42 0 0 1 .281-.11c.114 0 .207.04.282.11a.37.37 0 0 1 .125.281.38.38 0 0 1-.125.297.38.38 0 0 1-.282.11.37.37 0 0 1-.28-.11c-.075-.07-.11-.172-.11-.297m0 0"/><clipPath id="a"><path d="M.086 61H29v29H.086Zm0 0"/></clipPath></defs><g clip-path="url(#a)"><path fill="none" stroke="#000" stroke-miterlimit="10" stroke-width=".7937482400000001" d="M.484 61.871h27.258V89.13H.484Zm0 0"/></g><use xlink:href="#b" x="8.801" y="78.58"/><use xlink:href="#c" x="14.087" y="78.58"/><path fill="none" stroke="#000" stroke-miterlimit="10" stroke-width=".39737208" d="M27.742 75.5h69.82m27.262 0h69.817V47.684m0 0V19.867"/><path fill="none" stroke="#000" stroke-miterlimit="10" stroke-width=".7937482400000001" d="M97.563 61.871h27.261V89.13H97.563Zm0 0"/><path d="M93.363 75.5v1.977l4.2-1.977-4.2-1.977Zm0 0"/><path fill="none" stroke="#000" stroke-miterlimit="10" stroke-width=".39737208" d="M101.652 65.004 120.734 75.5l-19.082 10.496Zm0 0"/><path fill="none" stroke="#000" stroke-linejoin="bevel" stroke-miterlimit="10" stroke-width=".7937482400000001" d="M194.64 19.867 184.907.395h19.473Zm0 0"/><path fill="none" stroke="#000" stroke-miterlimit="10" stroke-width=".39737208" d="M194.64 19.867V.395"/><use xlink:href="#d" x="51.846" y="83.717"/><use xlink:href="#e" x="56.36" y="83.717"/><use xlink:href="#f" x="59.604" y="83.717"/><use xlink:href="#g" x="63.312" y="83.717"/><use xlink:href="#h" x="66.549" y="83.717"/><use xlink:href="#i" x="69.987" y="83.717"/><use xlink:href="#j" x="56.285" y="95.192"/><use xlink:href="#k" x="60.911" y="95.192"/><use xlink:href="#l" x="64.745" y="95.192"/><use xlink:href="#m" x="46.672" y="106.639"/><use xlink:href="#n" x="51.645" y="106.639"/><use xlink:href="#o" x="54.888" y="106.639"/><use xlink:href="#p" x="61.007" y="106.639"/><use xlink:href="#q" x="64.848" y="106.639"/><use xlink:href="#r" x="67.154" y="106.639"/><use xlink:href="#s" x="71.106" y="106.639"/><use xlink:href="#t" x="75.19" y="106.639"/><use xlink:href="#u" x="86.092" y="57.223"/><use xlink:href="#k" x="90.718" y="57.223"/><use xlink:href="#l" x="94.552" y="57.223"/><use xlink:href="#v" x="100.101" y="57.223"/><use xlink:href="#g" x="104.241" y="57.223"/><use xlink:href="#w" x="107.477" y="57.223"/><use xlink:href="#x" x="110.158" y="57.223"/><use xlink:href="#y" x="112.846" y="57.223"/><use xlink:href="#n" x="115.207" y="57.223"/><use xlink:href="#w" x="118.451" y="57.223"/><use xlink:href="#z" x="121.132" y="57.223"/><use xlink:href="#r" x="124.813" y="57.223"/><use xlink:href="#s" x="128.765" y="57.223"/><use xlink:href="#t" x="132.849" y="57.223"/><use xlink:href="#A" x="107.111" y="45.831"/><use xlink:href="#B" x="110.744" y="45.831"/><use xlink:href="#d" x="148.924" y="83.717"/><use xlink:href="#e" x="153.438" y="83.717"/><use xlink:href="#f" x="156.682" y="83.717"/><use xlink:href="#g" x="160.391" y="83.717"/><use xlink:href="#h" x="163.627" y="83.717"/><use xlink:href="#j" x="167.065" y="83.717"/><use xlink:href="#C" x="153.363" y="95.192"/><use xlink:href="#k" x="157.988" y="95.192"/><use xlink:href="#l" x="161.822" y="95.192"/><use xlink:href="#m" x="143.749" y="106.639"/><use xlink:href="#n" x="148.722" y="106.639"/><use xlink:href="#o" x="151.965" y="106.639"/><use xlink:href="#p" x="158.084" y="106.639"/><use xlink:href="#q" x="161.925" y="106.639"/><use xlink:href="#r" x="164.231" y="106.639"/><use xlink:href="#s" x="168.183" y="106.639"/><use xlink:href="#t" x="172.267" y="106.639"/><use xlink:href="#B" x="197.815" y="44.426"/><use xlink:href="#s" x="202.343" y="44.426"/><use xlink:href="#y" x="206.427" y="44.426"/><use xlink:href="#g" x="208.788" y="44.426"/><use xlink:href="#s" x="212.025" y="44.426"/><use xlink:href="#s" x="216.109" y="44.426"/><use xlink:href="#g" x="220.193" y="44.426"/><use xlink:href="#j" x="197.815" y="55.901"/><use xlink:href="#k" x="202.44" y="55.901"/><use xlink:href="#l" x="206.274" y="55.901"/><use xlink:href="#D" x="197.815" y="67.271"/><use xlink:href="#g" x="202.579" y="67.271"/><use xlink:href="#E" x="205.816" y="67.271"/><use xlink:href="#F" x="211.059" y="67.271"/><use xlink:href="#s" x="212.997" y="67.271"/><use xlink:href="#s" x="217.081" y="67.271"/></svg>