<svg xmlns="http://www.w3.org/2000/svg" xmlns:xlink="http://www.w3.org/1999/xlink" width="229.94" height="173.855"><defs><path id="c" d="M2.031-.578v-4.438L.687-4.75a1 1 0 0 1-.015-.187c0-.133.07-.235.219-.297l1.468-.578h.454v5.234l1.093.172q.124.016.125.11 0 .08-.093.296H.874a.16.16 0 0 1-.016-.078q0-.311.282-.36Zm0 0"/><path id="d" d="M4-.922q-.002.516.313.516.2.001.312-.125a.5.5 0 0 1 .078.25c0 .062-.055.133-.156.203a.9.9 0 0 1-.531.156q-.597 0-.672-.61h-.016Q2.871.112 2.063.11a1.22 1.22 0 0 1-.75-.25c0 .739.148 1.352.453 1.844q-.018.06-.172.125a.7.7 0 0 1-.282.063Q.95 1.889.845 1.297C.789 1.023.766.539.766-.156V-4.25l.703-.094v2.797q0 1.078.812 1.078.575 0 1.016-.468V-4.25L4-4.344Zm0 0"/><path id="e" d="M4.516-6.172c.039.5.062.852.062 1.047 0 .262-.086.39-.25.39a.6.6 0 0 1-.203-.03l-.219-.938H1.875v2.453h2v.5h-2V-.5l.719.14q.124.018.125.094c0 .032-.04.121-.11.266H.422a.16.16 0 0 1-.016-.078Q.404-.324.72-.406L1.094-.5v-5.203l-.547-.125c-.086-.02-.125-.05-.125-.094q0-.075.094-.25Zm0 0"/><path id="f" d="M2.234-.39q1.11.001 1.11-2.516 0-2.515-1.11-2.516-1.094.001-1.093 2.516c0 1.68.363 2.515 1.093 2.515m-.03.5q-.88 0-1.376-.75Q.296-1.42.297-2.907.296-4.39.875-5.187q.516-.734 1.406-.735.873.001 1.375.734.516.798.516 2.282 0 1.47-.563 2.265-.515.75-1.406.75m0 0"/><path id="g" d="M.828-.469v-5.484l-.656-.094a.1.1 0 0 1-.016-.062q0-.246.344-.282L1.547-6.5v4h.547L3.28-3.875l-.625-.14v-.063q-.001-.218.25-.219h1.438c.07 0 .11.031.11.094a.5.5 0 0 1-.063.187l-.516.172-1.266 1.438L4.125-.453l.453.11q.124.015.125.109A.35.35 0 0 1 4.61 0H3.453l-1.5-2.047h-.406v1.594L2-.343q.124.015.125.109A.4.4 0 0 1 2.047 0H.219v-.062c0-.133.094-.235.281-.297Zm0 0"/><path id="h" d="M6.14-3.484q0 .926-.546 1.734A3.3 3.3 0 0 1 4.422-.703v.172h1.203l.125-.719a.5.5 0 0 1 .219-.047q.264.001.265.406 0 .365-.046.891H3.859v-.89q1.484-.75 1.485-2.626-.001-1.03-.547-1.64a1.79 1.79 0 0 0-1.39-.61q-.864.002-1.391.594c-.368.418-.547.969-.547 1.656q-.001.88.343 1.547c.258.48.641.84 1.141 1.078V0H.625a10 10 0 0 1-.047-.89c0-.27.086-.407.266-.407q.106 0 .219.047l.125.719H2.39v-.156c-.43-.188-.809-.524-1.141-1.016Q.655-2.547.656-3.484q-.001-1.218.766-2 .779-.797 1.984-.797c.801 0 1.457.258 1.969.765.508.512.766 1.188.766 2.032m0 0"/><path id="i" d="m.422-.453 1.516-1.734q.874-1.015.875-2 0-1.25-.891-1.25-.362 0-.719.171-.112.365-.125.891-.11.017-.203.016-.422.002-.422-.36 0-.545.422-.875.42-.328 1.156-.328.715.001 1.172.406.451.41.453 1.172 0 .675-.422 1.36-.27.44-.89 1.125L1.359-.797v.016h2.032l.187-.781a.44.44 0 0 1 .188-.032q.217.002.218.344c0 .242-.03.656-.093 1.25H.5Zm0 0"/><path id="k" d="m.125-1.984 2.547-3.813.656-.047v3.64h.75l-.047.688h-.703V-.5l.625.14q.124.018.125.094-.002.048-.11.266H1.923a.16.16 0 0 1-.016-.078q-.002-.246.313-.328L2.594-.5v-1.016H.156Zm.734-.22h1.735v-2.702h-.016L.86-2.22Zm0 0"/><path id="l" d="M.89-.937a.53.53 0 0 1 .423.218q.17.204.171.578-.002.592-.39.985c-.211.226-.414.344-.61.344-.093 0-.164-.086-.203-.25q.574-.3.61-.891a.5.5 0 0 1-.344-.125.48.48 0 0 1-.14-.36q0-.217.14-.359a.47.47 0 0 1 .344-.14m0 0"/><path id="m" d="M.484-4.672q0-.562.063-1.14h3.578a.3.3 0 0 1 .047.171c0 .125-.04.262-.11.407L1.704 0h-.64l2.406-5.062h-2.39l-.141.75a.5.5 0 0 1-.188.03q-.268.002-.266-.39m0 0"/><path id="p" d="M1.094-.5v-5.203l-.547-.125c-.086-.02-.125-.05-.125-.094q0-.075.094-.25h4.03c.04.5.063.852.063 1.047 0 .262-.086.39-.25.39a.6.6 0 0 1-.203-.03l-.203-.938H1.875v2.312h2v.5h-2v2.375h2.14l.235-.968a.7.7 0 0 1 .203-.032q.234 0 .234.375 0 .363-.078 1.141H.422a.16.16 0 0 1-.016-.078Q.404-.324.72-.406Zm0 0"/><path id="q" d="M4.313-2.469H.547V-3h3.766Zm0 0"/><path id="r" d="M2.484-3.031h1.563v.469H2.484v1.671h-.5v-1.671H.438v-.47h1.546v-1.655h.5Zm0 0"/><path id="j" d="M-.031 1.781c-.063.078-.063.235 0 .297h1.437v1.438c.063.078.219.078.297 0V2.078h1.438c.062-.062.062-.219 0-.297H1.703V.36c-.078-.078-.234-.078-.297 0v1.422Zm0 0"/><clipPath id="a"><path d="M.066 156H16v15H.066Zm0 0"/></clipPath><clipPath id="b"><path d="M.066 77H16v15H.066Zm0 0"/></clipPath><clipPath id="n"><path d="M165 163h2v10.71h-2Zm0 0"/></clipPath><clipPath id="o"><path d="M159 172h14v1.71h-14Zm0 0"/></clipPath></defs><path fill="none" stroke="#000" stroke-miterlimit="10" stroke-width=".39866883000000003" d="M8.031 163.398H34.38m0 0h52.687m0 0h52.692m0 0h52.687m0 0h26.344"/><path fill="#FFF" d="M9.617 163.398a1.585 1.585 0 1 0-3.168 0 1.584 1.584 0 1 0 3.168 0m0 0"/><g clip-path="url(#a)"><path fill="none" stroke="#000" stroke-miterlimit="10" stroke-width=".39866883000000003" d="M9.617 163.398a1.585 1.585 0 1 0-3.168 0 1.584 1.584 0 1 0 3.168 0Zm0 0"/></g><path stroke="#000" stroke-miterlimit="10" stroke-width=".39866883000000003" d="M62.309 163.398a1.587 1.587 0 0 0-3.172 0 1.587 1.587 0 0 0 3.172 0ZM114.996 163.398a1.587 1.587 0 1 0-3.17.002 1.587 1.587 0 0 0 3.17-.002ZM167.688 163.398a1.587 1.587 0 0 0-3.172 0 1.587 1.587 0 0 0 3.172 0Zm0 0"/><path fill="#FFF" stroke="#000" stroke-miterlimit="10" stroke-width=".39866883000000003" d="M220.375 163.398a1.587 1.587 0 1 0-3.17.002 1.587 1.587 0 0 0 3.17-.002Zm0 0"/><path fill="none" stroke="#000" stroke-miterlimit="10" stroke-width=".79633849" d="M121.41 84.363c0-8.12-6.586-14.703-14.707-14.703C98.583 69.66 92 76.242 92 84.363s6.582 14.707 14.703 14.707 14.707-6.586 14.707-14.707Zm0 0"/><path fill="none" stroke="#000" stroke-miterlimit="10" stroke-width=".39866883000000003" d="M113.41 62.355v13.286l-11.894 5.453"/><path fill="none" stroke="#000" stroke-miterlimit="10" stroke-width=".79633849" d="M101.516 75.64v17.45"/><path fill="none" stroke="#000" stroke-miterlimit="10" stroke-width=".39866883000000003" d="m101.516 87.637 11.894 5.453v13.281"/><path d="m105.707 89.555.95-2.075 3.69 4.204-5.593-.051Zm0 0"/><path fill="none" stroke="#000" stroke-miterlimit="10" stroke-width=".39866883000000003" d="M101.516 84.363H89.422M8.031 84.363h22.383m7.93 0h36.828m0 0h14.45"/><path fill="none" stroke="#000" stroke-miterlimit="10" stroke-width=".79633849" d="M30.414 72.469v23.793m7.93-23.793v23.793"/><path fill="#FFF" d="M9.617 84.363a1.585 1.585 0 1 0-3.168 0c0 .88.707 1.586 1.582 1.586.88 0 1.586-.707 1.586-1.586m0 0"/><g clip-path="url(#b)"><path fill="none" stroke="#000" stroke-miterlimit="10" stroke-width=".39866883000000003" d="M9.617 84.363a1.585 1.585 0 1 0-3.168 0c0 .88.707 1.586 1.582 1.586.88 0 1.586-.707 1.586-1.586Zm0 0"/></g><path stroke="#000" stroke-miterlimit="10" stroke-width=".39866883000000003" d="M62.309 84.363a1.587 1.587 0 1 0-3.175.003 1.587 1.587 0 0 0 3.175-.003Zm0 0"/><use xlink:href="#c" x="26.526" y="68.055"/><use xlink:href="#d" x="32.492" y="68.055"/><use xlink:href="#e" x="37.429" y="68.055"/><path fill="none" stroke="#000" stroke-miterlimit="10" stroke-width=".39866883000000003" d="M60.723 84.363v23.657m0 31.722v23.656"/><path fill="none" stroke="#000" stroke-miterlimit="10" stroke-width=".79633849" d="M54.773 139.742V108.02h11.899v31.722Zm0 0"/><use xlink:href="#c" x="68.876" y="126.033"/><use xlink:href="#f" x="73.356" y="126.033"/><use xlink:href="#g" x="79.323" y="126.033"/><use xlink:href="#h" x="84.071" y="126.033"/><path fill="none" stroke="#000" stroke-miterlimit="10" stroke-width=".39866883000000003" d="M113.41 106.172v12.754m0 31.722v12.75"/><path fill="none" stroke="#000" stroke-miterlimit="10" stroke-width=".79633849" d="M107.465 150.648v-31.722h11.894v31.722Zm0 0"/><path stroke="#000" stroke-miterlimit="10" stroke-width=".39866883000000003" d="M114.996 106.172a1.587 1.587 0 1 0-3.17.002 1.587 1.587 0 0 0 3.17-.002Zm0 0"/><use xlink:href="#c" x="121.565" y="136.937"/><use xlink:href="#i" x="126.045" y="136.937"/><use xlink:href="#f" x="130.524" y="136.937"/><use xlink:href="#h" x="136.491" y="136.937"/><path fill="none" stroke="#000" stroke-miterlimit="10" stroke-width=".39866883000000003" d="M113.41 106.172h26.348m0 0h26.344v24.648m0 7.93v24.648"/><path fill="none" stroke="#000" stroke-linecap="square" stroke-miterlimit="10" stroke-width=".79633849" d="M176.016 130.82v2.38h-19.828v-2.38h19.828"/><path stroke="#000" stroke-linecap="square" stroke-miterlimit="10" stroke-width=".79633849" d="M176.016 138.75v-2.379h-19.828v2.379h19.828"/><use xlink:href="#j" x="170.494" y="126.158"/><use xlink:href="#k" x="178.616" y="136.937"/><use xlink:href="#l" x="183.095" y="136.937"/><use xlink:href="#m" x="184.95" y="136.937"/><use xlink:href="#d" x="190.916" y="136.937"/><use xlink:href="#e" x="195.853" y="136.937"/><g clip-path="url(#n)"><path fill="none" stroke="#000" stroke-miterlimit="10" stroke-width=".39866883000000003" d="M166.102 163.398v9.915"/></g><g clip-path="url(#o)"><path fill="none" stroke="#000" stroke-linecap="round" stroke-miterlimit="10" stroke-width=".79633849" d="M160.152 173.313h11.899"/></g><path fill="none" stroke="#000" stroke-miterlimit="10" stroke-width=".39866883000000003" d="M60.723 84.363V60.707m0-31.719V5.332H47.55m0 0H34.379v9.207m0 7.93v9.207"/><path fill="none" stroke="#000" stroke-miterlimit="10" stroke-width=".79633849" d="M66.672 28.988v31.719H54.773V28.988Zm0 0"/><path stroke="#000" stroke-miterlimit="10" stroke-width=".39866883000000003" d="M62.309 5.332c0-.879-.711-1.586-1.586-1.586s-1.586.707-1.586 1.586a1.587 1.587 0 0 0 3.172 0Zm0 0"/><use xlink:href="#k" x="68.876" y="47"/><use xlink:href="#m" x="73.356" y="47"/><use xlink:href="#g" x="79.323" y="47"/><use xlink:href="#h" x="84.071" y="47"/><path fill="none" stroke="#000" stroke-linecap="square" stroke-miterlimit="10" stroke-width=".79633849" d="M44.29 14.539v2.379H24.464v-2.379h19.824"/><path stroke="#000" stroke-linecap="square" stroke-miterlimit="10" stroke-width=".79633849" d="M44.29 22.469v-2.38H24.464v2.38h19.824"/><use xlink:href="#j" x="38.772" y="9.878"/><use xlink:href="#c" x="1.678" y="20.655"/><use xlink:href="#f" x="6.158" y="20.655"/><use xlink:href="#d" x="12.125" y="20.655"/><use xlink:href="#e" x="17.061" y="20.655"/><path fill="none" stroke="#000" stroke-miterlimit="10" stroke-width=".39866883000000003" d="M34.379 31.676v9.914"/><path fill="none" stroke="#000" stroke-linecap="round" stroke-miterlimit="10" stroke-width=".79633849" d="M28.43 41.59h11.894"/><path fill="none" stroke="#000" stroke-miterlimit="10" stroke-width=".39866883000000003" d="M60.723 5.332h26.343m0 0h26.344v12.75m0 31.723v12.75"/><path stroke="#000" stroke-miterlimit="10" stroke-width=".39866883000000003" d="M114.996 5.332c0-.879-.707-1.586-1.586-1.586a1.587 1.587 0 1 0 1.586 1.586Zm0 0"/><path fill="none" stroke="#000" stroke-miterlimit="10" stroke-width=".79633849" d="M107.465 49.805V18.082h12.293v31.723Zm12.293-23.793 9.515-4.758v25.379l-9.515-4.758Zm0 0"/><path fill="none" stroke="#000" stroke-miterlimit="10" stroke-width=".39866883000000003" d="M113.41 5.332h52.692m0 0h52.687"/><path fill="#FFF" stroke="#000" stroke-miterlimit="10" stroke-width=".39866883000000003" d="M220.375 5.332c0-.879-.707-1.586-1.586-1.586a1.587 1.587 0 1 0 1.586 1.586Zm0 0"/><use xlink:href="#p" x="5.493" y="81.181"/><use xlink:href="#q" x="221.973" y="164.899"/><use xlink:href="#r" x="221.973" y="7.681"/></svg>