<svg xmlns="http://www.w3.org/2000/svg" width="305.439" height="481.466"><defs><clipPath id="a"><path d="M152 219h36v261.758h-36Zm0 0"/></clipPath><clipPath id="b"><path d="M152 468h36v12.758h-36Zm0 0"/></clipPath><clipPath id="c"><path d="M152 411h36v69.758h-36Zm0 0"/></clipPath><clipPath id="d"><path d="M5 105h299.879v3H5Zm0 0"/></clipPath><clipPath id="e"><path d="M6 .176h298.879V214H6Zm0 0"/></clipPath></defs><g clip-path="url(#a)"><path fill="none" stroke="#000" stroke-linecap="round" stroke-linejoin="round" stroke-miterlimit="10" stroke-width=".99417732" d="M153.215 480.262V253.894l16.976-33.953m-5.656 249V242.578l5.656-22.637m16.977 249V242.578l-16.977-22.637m5.66 260.32V253.895l-5.66-33.953"/></g><path fill="none" stroke="#000" stroke-linecap="round" stroke-linejoin="round" stroke-miterlimit="10" stroke-width="1.9893528100000002" d="M170.191 248.234V106.758"/><path fill="none" stroke="#000" stroke-linecap="round" stroke-linejoin="round" stroke-miterlimit="10" stroke-width=".99417732" d="m153.215 253.894 33.953-11.316m-11.316 11.316-11.317-11.316"/><g clip-path="url(#b)"><path fill="none" stroke="#000" stroke-linecap="round" stroke-linejoin="round" stroke-miterlimit="10" stroke-width=".99417732" d="M153.215 480.262h22.637l11.316-11.32h-22.633Zm0 0"/></g><path fill="none" stroke="#000" stroke-linecap="round" stroke-linejoin="round" stroke-miterlimit="10" stroke-width=".99417732" d="M153.215 423.668h22.637l11.316-11.316h-22.633ZM153.215 367.078h22.637l11.316-11.32h-22.633ZM153.215 310.484h22.637l11.316-11.316h-22.633ZM153.215 253.894h22.637l11.316-11.316h-22.633Zm0 0"/><g clip-path="url(#c)"><path fill="none" stroke="#000" stroke-linecap="round" stroke-linejoin="round" stroke-miterlimit="10" stroke-width=".99417732" d="m153.215 480.262 22.637-56.594m0 56.594 11.316-67.91m0 56.59-22.633-56.59m0 56.59-11.32-45.274"/></g><path fill="none" stroke="#000" stroke-linecap="round" stroke-linejoin="round" stroke-miterlimit="10" stroke-width=".99417732" d="m153.215 423.668 22.637-56.59m0 56.59 11.316-67.91m0 56.594-22.633-56.594m0 56.594-11.32-45.274M153.215 367.078l22.637-56.594m0 56.594 11.316-67.91m0 56.59-22.633-56.59m0 56.59-11.32-45.274M153.215 310.484l22.637-56.59m0 56.59 11.316-67.906m0 56.59-22.633-56.59m0 56.59-11.32-45.274"/><g clip-path="url(#d)"><path fill="none" stroke="#000" stroke-linecap="round" stroke-linejoin="round" stroke-miterlimit="10" stroke-width="1.9893528100000002" d="M303.887 106.77H6.793"/></g><g clip-path="url(#e)"><path fill="none" stroke="#000" stroke-linecap="round" stroke-linejoin="round" stroke-miterlimit="10" stroke-width=".99417732" d="M303.887 212.875V.664M142.605 195.902V17.64M87.434 191.652V21.887M6.793 187.41V26.129M200.945 196.98l.035-.039c-1.765 1.77-3.199 1.176-3.199-1.324V17.926c0-2.5 1.434-5.961 3.2-7.73l-.036.038c1.77-1.77 3.203-1.176 3.203 1.324V189.25c0 2.5-1.433 5.96-3.203 7.73m0 0"/></g><path fill="none" stroke="#000" stroke-linecap="round" stroke-linejoin="round" stroke-miterlimit="10" stroke-width="3.97770745" d="M193.54 106.77h8.483"/></svg>