<svg xmlns="http://www.w3.org/2000/svg" width="228.705" height="168.547"><defs><clipPath id="a"><path d="M.16 0H38v34H.16Zm0 0"/></clipPath><clipPath id="b"><path d="M.16 53H17v27H.16Zm0 0"/></clipPath><clipPath id="c"><path d="M195 88h33.25v44H195Zm0 0"/></clipPath><clipPath id="d"><path d="M.16 88H46v46H.16Zm0 0"/></clipPath><clipPath id="e"><path d="M212 152h16.25v16.094H212Zm0 0"/></clipPath><clipPath id="f"><path d="M.16 152H19v16.094H.16Zm0 0"/></clipPath></defs><path fill="none" stroke="#000" stroke-miterlimit="10" stroke-width=".79486404" d="M25.809 4.54s.914 1.065 1.246 1.51c.332.45.847 1.212 1.148 1.712.305.5.766 1.34 1.04 1.886.269.543.679 1.457.913 2.04.239.585.59 1.55.79 2.167.199.614.488 1.63.648 2.266.16.64.386 1.684.508 2.34.12.652.28 1.719.359 2.379.082.664.176 1.73.215 2.39.039.665.07 1.723.066 2.375 0 .653-.035 1.692-.078 2.329-.039.632-.137 1.64-.219 2.25-.078.609-.238 1.566-.355 2.144a67 67 0 0 1-.485 2.012M38.613 4.54s.914 1.065 1.246 1.51a26 26 0 0 1 1.149 1.712c.305.5.765 1.34 1.039 1.886.27.543.68 1.457.914 2.04.238.585.59 1.55.789 2.167.2.614.488 1.63.648 2.266.16.64.387 1.684.508 2.34.121.652.282 1.719.36 2.379.082.664.175 1.73.214 2.39.04.665.07 1.723.067 2.375 0 .653-.035 1.692-.078 2.329-.04.632-.14 1.64-.219 2.25-.078.609-.238 1.566-.355 2.144-.118.574-.485 2.012-.485 2.012M51.414 4.54s.918 1.065 1.25 1.51c.332.45.844 1.212 1.149 1.712.304.5.765 1.34 1.039 1.886.27.543.68 1.457.914 2.04.238.585.586 1.55.785 2.167.199.614.492 1.63.652 2.266.16.64.387 1.684.508 2.34.121.652.281 1.719.36 2.379.081.664.175 1.73.214 2.39.04.665.07 1.723.067 2.375 0 .653-.036 1.692-.079 2.329-.043.632-.14 1.64-.218 2.25-.078.609-.239 1.566-.356 2.144-.117.574-.484 2.012-.484 2.012M64.219 4.54s.918 1.065 1.25 1.51c.332.45.844 1.212 1.148 1.712.305.5.766 1.34 1.035 1.886.274.543.684 1.457.918 2.04.239.585.586 1.55.785 2.167.2.614.493 1.63.653 2.266.16.64.387 1.684.508 2.34.117.652.28 1.719.359 2.379.078.664.176 1.73.215 2.39.039.665.066 1.723.066 2.375 0 .653-.035 1.692-.078 2.329-.043.632-.14 1.64-.219 2.25-.082.609-.238 1.566-.355 2.144a67 67 0 0 1-.484 2.012M77.023 4.54s.918 1.065 1.25 1.51c.332.45.844 1.212 1.149 1.712s.766 1.34 1.035 1.886c.273.543.68 1.457.918 2.04.234.585.586 1.55.785 2.167.2.614.488 1.63.649 2.266.164.64.39 1.684.507 2.34.122.652.282 1.719.364 2.379.078.664.176 1.73.215 2.39.039.665.066 1.723.066 2.375 0 .653-.04 1.692-.078 2.329-.043.632-.14 1.64-.219 2.25-.082.609-.238 1.566-.355 2.144-.118.574-.485 2.012-.485 2.012M89.828 4.54s.918 1.065 1.25 1.51c.332.45.844 1.212 1.149 1.712.3.5.765 1.34 1.035 1.886.273.543.68 1.457.918 2.04.234.585.586 1.55.785 2.167.2.614.488 1.63.648 2.266.16.64.387 1.684.508 2.34.121.652.281 1.719.363 2.379.079.664.176 1.73.215 2.39.04.665.067 1.723.067 2.375-.004.653-.04 1.692-.078 2.329-.043.632-.141 1.64-.22 2.25a44 44 0 0 1-.355 2.144 67 67 0 0 1-.484 2.012"/><path fill="none" stroke="#000" stroke-miterlimit="10" stroke-width=".79486404" d="M31.605 34.344s-1.433 3.886-2.125 5c-.695 1.113-2.03 2.508-2.875 3.027-.847.52-2.343.856-3.226.723s-2.34-.899-3.137-1.668c-.797-.77-2.015-2.551-2.62-3.871-.602-1.317-1.411-3.914-1.731-5.637s-.594-4.84-.57-6.773c.019-1.93.347-5.223.726-7.145.383-1.926 1.305-5.02 2.027-6.723.719-1.699 2.168-4.254 3.168-5.539 1-1.289 2.852-3.011 4.04-3.738 1.187-.73 3.261-1.426 4.527-1.516 1.265-.086 3.367.317 4.586.88 1.222.558 4.21 3.167 4.21 3.167"/><path fill="none" stroke="#000" stroke-miterlimit="10" stroke-width=".79486404" d="M44.41 34.344s-1.433 3.886-2.125 5c-.695 1.113-2.031 2.508-2.875 3.027-.847.52-2.344.856-3.226.723s-2.34-.899-3.137-1.668c-.8-.77-2.016-2.551-2.621-3.871-.602-1.317-1.41-3.914-1.73-5.637s-.594-4.84-.571-6.773c.02-1.93.344-5.223.727-7.145.382-1.926 1.304-5.02 2.027-6.723.719-1.699 2.168-4.254 3.168-5.539 1-1.289 2.851-3.011 4.039-3.738 1.187-.73 3.262-1.426 4.527-1.516 1.266-.086 3.367.317 4.586.88 1.223.558 4.211 3.167 4.211 3.167"/><path fill="none" stroke="#000" stroke-miterlimit="10" stroke-width=".79486404" d="M57.215 34.344s-1.434 3.886-2.125 5c-.695 1.113-2.031 2.508-2.875 3.027-.848.52-2.344.856-3.227.723s-2.34-.899-3.136-1.668c-.801-.77-2.016-2.551-2.622-3.871-.601-1.317-1.41-3.914-1.73-5.637s-.594-4.84-.574-6.773c.023-1.93.347-5.223.73-7.145.383-1.926 1.305-5.02 2.024-6.723.722-1.699 2.172-4.254 3.172-5.539 1-1.289 2.847-3.011 4.039-3.738 1.187-.73 3.261-1.426 4.527-1.516 1.266-.086 3.367.317 4.586.88 1.223.558 4.21 3.167 4.21 3.167"/><path fill="none" stroke="#000" stroke-miterlimit="10" stroke-width=".79486404" d="M70.02 34.344s-1.434 3.886-2.13 5c-.69 1.113-2.027 2.508-2.87 3.027-.848.52-2.344.856-3.227.723s-2.34-.899-3.137-1.668c-.8-.77-2.015-2.551-2.62-3.871-.602-1.317-1.411-3.914-1.731-5.637s-.594-4.84-.575-6.773c.024-1.93.348-5.223.731-7.145.383-1.926 1.305-5.02 2.023-6.723.723-1.699 2.172-4.254 3.172-5.539 1-1.289 2.848-3.011 4.04-3.738 1.187-.73 3.261-1.426 4.527-1.516 1.265-.086 3.367.317 4.586.88 1.222.558 4.21 3.167 4.21 3.167"/><path fill="none" stroke="#000" stroke-miterlimit="10" stroke-width=".79486404" d="M82.824 34.344s-1.433 3.886-2.129 5c-.691 1.113-2.027 2.508-2.875 3.027-.843.52-2.34.856-3.222.723s-2.34-.899-3.137-1.668c-.8-.77-2.016-2.551-2.621-3.871-.602-1.317-1.41-3.914-1.73-5.637s-.594-4.84-.575-6.773c.024-1.93.348-5.223.73-7.145.383-1.926 1.305-5.02 2.024-6.723.723-1.699 2.172-4.254 3.172-5.539 1-1.289 2.848-3.011 4.035-3.738 1.192-.73 3.266-1.426 4.531-1.516 1.266-.086 3.368.317 4.586.88 1.22.558 4.211 3.167 4.211 3.167"/><path fill="none" stroke="#000" stroke-miterlimit="10" stroke-width=".79486404" d="M95.625 34.344s-1.43 3.886-2.125 5c-.691 1.113-2.027 2.508-2.875 3.027-.844.52-2.34.856-3.223.723-.882-.133-2.34-.899-3.136-1.668-.801-.77-2.016-2.551-2.621-3.871-.606-1.317-1.415-3.914-1.73-5.637-.321-1.723-.595-4.84-.575-6.773.023-1.93.348-5.223.73-7.145.383-1.926 1.305-5.02 2.024-6.723.722-1.699 2.172-4.254 3.172-5.539 1-1.289 2.847-3.011 4.035-3.738 1.191-.73 3.265-1.426 4.531-1.516 1.262-.086 3.363.317 4.586.88 1.219.558 4.21 3.167 4.21 3.167"/><path fill="none" stroke="#000" stroke-miterlimit="10" stroke-width=".79486404" d="M94.453.46s1.117.063 1.543.138c.426.074 1.106.254 1.527.398.418.149 1.086.445 1.493.664.406.219 1.05.63 1.445.914.39.29 1.008.805 1.379 1.156.371.356.953.973 1.3 1.387s.891 1.125 1.212 1.594.816 1.266 1.105 1.781c.29.52.734 1.39.992 1.953.258.559.64 1.496.864 2.094.222.598.55 1.582.734 2.211.184.625.445 1.652.59 2.297.148.648.347 1.7.453 2.36.101.66.3 2.386.3 2.386"/><g clip-path="url(#a)"><path fill="none" stroke="#000" stroke-miterlimit="10" stroke-width=".79486404" d="M2.691 21.8s.297-2.421.465-3.335a44 44 0 0 1 .75-3.254c.246-.883.703-2.27 1.024-3.094.32-.824.894-2.105 1.28-2.855.388-.75 1.067-1.89 1.517-2.547a24 24 0 0 1 1.718-2.176 19 19 0 0 1 1.89-1.75 15 15 0 0 1 2.024-1.281c.57-.285 1.516-.637 2.11-.781.59-.145 1.558-.266 2.156-.266s1.563.117 2.152.262c.594.144 1.54.496 2.114.78.57.286 1.476.86 2.02 1.282.542.418 1.89 1.746 1.89 1.746"/></g><path fill="none" stroke="#000" stroke-miterlimit="10" stroke-width=".79486404" d="M2.691 21.8v42.684M109.39 21.8v42.684M111.527 66.617c0-1.18-.957-2.133-2.136-2.133a2.133 2.133 0 0 0 0 4.266c1.18 0 2.136-.953 2.136-2.133Zm0 0"/><g clip-path="url(#b)"><path fill="none" stroke="#000" stroke-miterlimit="10" stroke-width=".79486404" d="M4.824 66.617c0-1.18-.957-2.133-2.133-2.133a2.134 2.134 0 1 0 2.133 2.133Zm0 0"/></g><path fill="none" stroke="#000" stroke-miterlimit="10" stroke-width=".79486404" d="M34.625 103.484s1.14 1.067 1.559 1.516c.421.445 1.074 1.211 1.46 1.707.391.5.993 1.344 1.352 1.89.36.544.906 1.454 1.23 2.04.32.582.813 1.55 1.098 2.168.285.613.715 1.625.961 2.265.246.637.613 1.684.82 2.336.208.657.508 1.719.672 2.383.168.66.403 1.73.528 2.39s.297 1.723.379 2.376c.086.652.191 1.691.234 2.328.047.633.086 1.637.094 2.246.008.61-.012 1.57-.043 2.144a59 59 0 0 1-.172 2.012M64.93 103.484s1.14 1.067 1.558 1.516c.418.445 1.07 1.211 1.461 1.707.39.5.992 1.344 1.352 1.89.355.544.906 1.454 1.226 2.04.325.582.813 1.55 1.102 2.168.285.613.71 1.625.96 2.265.247.637.614 1.684.821 2.336.207.657.504 1.719.672 2.383.168.66.402 1.73.527 2.39s.293 1.723.38 2.376c.085.652.187 1.691.234 2.328.047.633.086 1.637.093 2.246.008.61-.015 1.57-.043 2.144-.03.579-.171 2.012-.171 2.012M95.23 103.484s1.141 1.067 1.563 1.516a31 31 0 0 1 1.46 1.707c.392.5.993 1.344 1.349 1.89.359.544.906 1.454 1.23 2.04.324.582.813 1.55 1.098 2.168.285.613.715 1.625.96 2.265.25.637.614 1.684.821 2.336.207.657.508 1.719.676 2.383.164.66.398 1.73.527 2.39.125.66.293 1.723.379 2.376s.188 1.691.234 2.328c.043.633.086 1.637.094 2.246.004.61-.015 1.57-.043 2.144-.031.579-.172 2.012-.172 2.012M125.535 103.484s1.14 1.067 1.563 1.516c.418.445 1.07 1.211 1.46 1.707.387.5.993 1.344 1.348 1.89.36.544.907 1.454 1.23 2.04.321.582.813 1.55 1.098 2.168.286.613.715 1.625.961 2.265.246.637.614 1.684.82 2.336.208.657.508 1.719.673 2.383.168.66.402 1.73.527 2.39s.297 1.723.379 2.376c.086.652.191 1.691.234 2.328.047.633.086 1.637.094 2.246.008.61-.012 1.57-.043 2.144-.027.579-.172 2.012-.172 2.012M155.84 103.484s1.14 1.067 1.559 1.516c.421.445 1.07 1.211 1.46 1.707.391.5.993 1.344 1.352 1.89.355.544.906 1.454 1.227 2.04.324.582.812 1.55 1.101 2.168.285.613.715 1.625.961 2.265.246.637.613 1.684.82 2.336.207.657.508 1.719.672 2.383.168.66.403 1.73.528 2.39s.293 1.723.379 2.376c.085.652.187 1.691.234 2.328.047.633.086 1.637.094 2.246.007.61-.012 1.57-.043 2.144-.032.579-.172 2.012-.172 2.012M186.14 103.484s1.145 1.067 1.563 1.516c.418.445 1.07 1.211 1.461 1.707.39.5.992 1.344 1.348 1.89.36.544.906 1.454 1.23 2.04.324.582.813 1.55 1.098 2.168.289.613.715 1.625.965 2.265.246.637.61 1.684.816 2.336.207.657.508 1.719.676 2.383.168.66.398 1.73.527 2.39.125.66.293 1.723.38 2.376.085.652.187 1.691.234 2.328.043.633.086 1.637.093 2.246.004.61-.015 1.57-.043 2.144-.03.579-.172 2.012-.172 2.012"/><path fill="none" stroke="#000" stroke-miterlimit="10" stroke-width=".79486404" d="M44.797 133.293s-.754 3.883-1.188 4.996-1.351 2.512-1.937 3.031-1.664.852-2.29.723c-.62-.133-1.66-.902-2.198-1.668-.54-.77-1.34-2.55-1.68-3.871-.344-1.32-.738-3.914-.797-5.637s.086-4.844.367-6.773c.281-1.93 1.024-5.223 1.664-7.149.645-1.922 1.985-5.02 2.965-6.718.98-1.704 2.848-4.254 4.106-5.543 1.261-1.286 3.527-3.008 4.976-3.735 1.45-.73 3.942-1.426 5.465-1.515 1.523-.09 4.043.316 5.523.875 1.48.562 5.149 3.172 5.149 3.172M75.102 133.293s-.754 3.883-1.188 4.996-1.351 2.512-1.937 3.031-1.668.852-2.29.723c-.62-.133-1.66-.902-2.199-1.668-.539-.77-1.34-2.55-1.683-3.871-.344-1.32-.735-3.914-.793-5.637s.082-4.844.363-6.773c.285-1.93 1.027-5.223 1.668-7.149.64-1.922 1.98-5.02 2.96-6.718.981-1.704 2.849-4.254 4.11-5.543 1.262-1.286 3.528-3.008 4.973-3.735 1.45-.73 3.941-1.426 5.469-1.515 1.523-.09 4.043.316 5.523.875 1.48.562 5.149 3.172 5.149 3.172M105.406 133.293s-.758 3.883-1.191 4.996-1.352 2.512-1.938 3.031-1.664.852-2.285.723c-.625-.133-1.664-.902-2.199-1.668-.54-.77-1.34-2.55-1.684-3.871-.343-1.32-.734-3.914-.793-5.637-.062-1.722.082-4.844.364-6.773.281-1.93 1.023-5.223 1.668-7.149.64-1.922 1.98-5.02 2.96-6.718.981-1.704 2.848-4.254 4.11-5.543 1.258-1.286 3.523-3.008 4.973-3.735 1.449-.73 3.941-1.426 5.465-1.515 1.527-.09 4.046.316 5.527.875 1.48.562 5.144 3.172 5.144 3.172M135.707 133.293s-.754 3.883-1.187 4.996-1.352 2.512-1.938 3.031-1.664.852-2.289.723c-.621-.133-1.66-.902-2.2-1.668-.538-.77-1.335-2.55-1.679-3.871-.344-1.32-.734-3.914-.797-5.637-.058-1.722.086-4.844.367-6.773.282-1.93 1.024-5.223 1.664-7.149.645-1.922 1.985-5.02 2.965-6.718.98-1.704 2.848-4.254 4.106-5.543 1.262-1.286 3.527-3.008 4.976-3.735 1.45-.73 3.942-1.426 5.465-1.515 1.524-.09 4.043.316 5.524.875 1.48.562 5.148 3.172 5.148 3.172M166.012 133.293s-.754 3.883-1.188 4.996-1.351 2.512-1.937 3.031-1.664.852-2.29.723c-.62-.133-1.66-.902-2.198-1.668-.54-.77-1.34-2.55-1.684-3.871-.344-1.32-.734-3.914-.793-5.637s.082-4.844.367-6.773c.281-1.93 1.024-5.223 1.664-7.149.64-1.922 1.98-5.02 2.961-6.718.985-1.704 2.848-4.254 4.11-5.543 1.261-1.286 3.527-3.008 4.976-3.735 1.445-.73 3.938-1.426 5.465-1.515 1.523-.09 4.043.316 5.523.875 1.48.562 5.149 3.172 5.149 3.172M196.316 133.293s-.753 3.883-1.187 4.996-1.352 2.512-1.941 3.031c-.586.52-1.664.852-2.286.723-.625-.133-1.66-.902-2.199-1.668-.539-.77-1.34-2.55-1.683-3.871-.344-1.32-.735-3.914-.793-5.637-.063-1.722.082-4.844.363-6.773.281-1.93 1.023-5.223 1.668-7.149.64-1.922 1.98-5.02 2.96-6.718.981-1.704 2.848-4.254 4.11-5.543 1.258-1.286 3.524-3.008 4.973-3.735 1.45-.73 3.941-1.426 5.469-1.515 1.523-.09 4.043.316 5.523.875 1.48.562 5.145 3.172 5.145 3.172"/><g clip-path="url(#c)"><path fill="none" stroke="#000" stroke-miterlimit="10" stroke-width=".79486404" d="M206.516 99.41s1.343.063 1.855.137 1.332.25 1.84.398c.504.149 1.309.446 1.805.664.492.22 1.277.625 1.758.914.476.29 1.234.805 1.69 1.157.458.351 1.18.972 1.614 1.383a28 28 0 0 1 1.524 1.593c.406.469 1.039 1.266 1.418 1.785.379.52.957 1.391 1.3 1.95.348.562.872 1.5 1.18 2.097a41 41 0 0 1 1.043 2.207c.274.625.676 1.653.906 2.301.23.645.57 1.7.762 2.36.191.656.617 2.386.617 2.386"/></g><g clip-path="url(#d)"><path fill="none" stroke="#000" stroke-miterlimit="10" stroke-width=".79486404" d="M5.105 122.09s.543-2.496.813-3.442c.266-.949.766-2.468 1.117-3.39.352-.918.98-2.375 1.41-3.242a41 41 0 0 1 1.692-3.02c.508-.793 1.375-2.012 1.949-2.71.57-.7 1.543-1.75 2.172-2.337a24 24 0 0 1 2.36-1.898 20 20 0 0 1 2.503-1.41c.711-.317 1.879-.715 2.61-.887.734-.168 1.925-.324 2.664-.34a15.7 15.7 0 0 1 2.668.215c.734.137 1.91.48 2.628.766.715.285 1.848.867 2.532 1.296.683.426 2.398 1.79 2.398 1.79"/></g><path fill="none" stroke="#000" stroke-miterlimit="10" stroke-width=".79486404" d="M5.277 120.75v42.68M225.723 120.75v42.68"/><g clip-path="url(#e)"><path fill="none" stroke="#000" stroke-miterlimit="10" stroke-width=".79486404" d="M227.856 165.566c0-1.18-.957-2.136-2.133-2.136-1.18 0-2.137.957-2.137 2.136a2.136 2.136 0 0 0 4.27 0Zm0 0"/></g><g clip-path="url(#f)"><path fill="none" stroke="#000" stroke-miterlimit="10" stroke-width=".79486404" d="M7.41 165.566a2.134 2.134 0 1 0-4.27 0c0 1.176.958 2.133 2.137 2.133s2.133-.957 2.133-2.133Zm0 0"/></g></svg>