<svg xmlns="http://www.w3.org/2000/svg" xmlns:xlink="http://www.w3.org/1999/xlink" width="225.834" height="195.111"><defs><path id="b" d="M1.125-5.797h2.547l-.047.781H1.531l-.125 1.407q1.296.046 1.875.547.546.455.547 1.374a1.7 1.7 0 0 1-.547 1.266Q2.75.111 1.906.11 1.168.108.828-.156a.61.61 0 0 1-.281-.516q0-.405.39-.547.171.376.282.5.311.328.828.328.527 0 .844-.328c.195-.207.297-.476.297-.812q0-.732-.563-1.047-.563-.328-1.781-.328Zm0 0"/><path id="c" d="m7.078-.469.531.125q.124.017.125.11A.35.35 0 0 1 7.641 0H5.75v-.062c0-.133.086-.235.266-.297l.343-.11V-2.75c0-.695-.289-1.047-.859-1.047q-.69.002-1.203.485.06.327.062.515v2.328l.532.125q.124.017.125.11A.35.35 0 0 1 4.922 0h-1.89v-.062c0-.133.085-.235.265-.297l.328-.11V-2.75c0-.695-.281-1.047-.844-1.047-.437 0-.824.149-1.156.438v2.89l.547.125q.124.017.125.11A.35.35 0 0 1 2.203 0H.313a.1.1 0 0 1-.016-.062c0-.133.094-.235.281-.297l.328-.11v-3.328l-.64-.078a.2.2 0 0 1-.016-.078q0-.246.328-.281l1.047-.11-.047.61h.031q.61-.657 1.422-.657c.54 0 .922.243 1.14.72.427-.477.938-.72 1.532-.72q.638 0 1 .422.375.41.375 1.172Zm0 0"/><path id="d" d="M1-.578q.264.204.656.203c.508 0 .766-.195.766-.594q-.002-.234-.25-.468a11 11 0 0 0-.578-.407q-.534-.327-.75-.562a1.18 1.18 0 0 1-.36-.844c0-.352.133-.629.407-.828q.406-.312 1.015-.313c.395 0 .711.102.953.297q.047.346.047.547c0 .305-.117.453-.344.453a.16.16 0 0 1-.078-.015l-.109-.641a1.13 1.13 0 0 0-.61-.187c-.437 0-.656.18-.656.53q0 .363.516.688.469.316.938.61c.332.28.5.601.5.953q-.001.55-.407.906-.408.362-1.094.36C1.126.11.767.022.484-.14a3.7 3.7 0 0 1-.078-.735q0-.422.328-.422h.094Zm0 0"/><path id="e" d="M2.922-6.687h.61L.827 1.25h-.61Zm0 0"/><path id="f" d="M2.36-6.156q3.562.001 3.562 2.984 0 1.583-.938 2.39C4.367-.257 3.492 0 2.36 0H.422a.16.16 0 0 1-.016-.078Q.404-.324.72-.406l.375-.078v-5.203l-.547-.125C.46-5.82.422-5.852.422-5.906q0-.075.094-.25ZM2.343-.5q1.313 0 2.015-.672c.477-.445.72-1.101.72-1.969 0-.832-.243-1.457-.72-1.875q-.702-.639-2.015-.64h-.469V-.5Zm0 0"/><path id="g" d="M.906-.469v-3.328l-.64-.078a.2.2 0 0 1-.016-.078q0-.246.328-.281l1.047-.11v3.875l.547.125q.124.017.125.11A.35.35 0 0 1 2.203 0H.313a.1.1 0 0 1-.016-.062c0-.133.094-.235.281-.297Zm-.14-5.36q0-.233.14-.374a.48.48 0 0 1 .36-.14q.217 0 .359.14a.49.49 0 0 1 .156.375.49.49 0 0 1-.156.375.5.5 0 0 1-.36.14.48.48 0 0 1-.359-.14.5.5 0 0 1-.14-.375m0 0"/><path id="h" d="M4.453-4.281c.07 0 .11.031.11.093A.5.5 0 0 1 4.5-4l-.422.156L2.562 0h-.578L.454-3.86.046-4a.2.2 0 0 1-.016-.062q-.001-.219.25-.22h1.453c.07 0 .11.032.11.095A.5.5 0 0 1 1.78-4l-.5.14L2.36-.796h.016l1.172-3.062L2.89-4a.2.2 0 0 1-.016-.062q-.001-.219.25-.22Zm0 0"/><path id="i" d="M.406-.375a.5.5 0 0 1 .125-.36.48.48 0 0 1 .36-.14c.132 0 .25.047.343.14a.47.47 0 0 1 .157.36.47.47 0 0 1-.157.36.5.5 0 0 1-.343.124.52.52 0 0 1-.36-.125.5.5 0 0 1-.125-.359m0 0"/><path id="j" d="M-.578-2.031H-5l.266 1.344q-.105.016-.188.015c-.133 0-.226-.07-.281-.219l-.594-1.468v-.438h5.219l.172-1.094q.016-.14.11-.14.08.002.296.11V-.86h-.078q-.311 0-.36-.282Zm0 0"/><path id="k" d="M-.39-2.234q.001-1.092-2.516-1.094c-1.664 0-2.5.367-2.5 1.094 0 .73.836 1.093 2.5 1.093 1.68 0 2.515-.363 2.515-1.093m.5.046q0 .862-.75 1.36-.779.532-2.266.531c-.977 0-1.735-.187-2.266-.562q-.733-.53-.734-1.422.001-.873.734-1.36c.531-.343 1.29-.515 2.266-.515q1.487 0 2.265.562.75.516.75 1.406m0 0"/><path id="l" d="M-6.156-5.828h.078q.252.002.328.297l.047.234L0-3.28v.734L-5.687-.453l-.11.375q-.014.124-.11.125c-.05 0-.132-.035-.25-.094V-2.03c.024-.008.048-.016.079-.016q.253.001.312.313l.079.375L-.907-3v-.031L-5.702-4.72l-.11.688q-.011.127-.093.125-.075 0-.25-.094Zm0 0"/><path id="m" d="M-6.687-2.922v-.61L1.25-.827v.61Zm0 0"/><path id="n" d="M-6.156-2.36q.001-3.562 2.984-3.562 1.583 0 2.39.938C-.257-4.367 0-3.492 0-2.36v1.937a.16.16 0 0 1-.078.016q-.246.002-.328-.313l-.078-.375h-5.203l-.125.547c-.008.086-.04.125-.094.125q-.075 0-.25-.094Zm5.656.016q0-1.313-.672-2.015c-.445-.477-1.101-.72-1.969-.72-.832 0-1.457.243-1.875.72q-.639.702-.64 2.015v.469H-.5Zm0 0"/><path id="o" d="M-.469-.906h-3.328l-.078.64a.2.2 0 0 1-.078.016q-.246 0-.281-.328l-.11-1.047h3.875l.125-.547q.017-.124.11-.125.129 0 .234.094v1.89a.1.1 0 0 1-.062.016c-.133 0-.235-.094-.297-.281Zm-5.36.14a.5.5 0 0 1-.374-.14.48.48 0 0 1-.14-.36q0-.217.14-.359a.49.49 0 0 1 .375-.156q.234.002.375.156.14.142.14.36a.48.48 0 0 1-.14.359.5.5 0 0 1-.375.14m0 0"/><path id="p" d="M-4.281-4.453c0-.07.031-.11.093-.11.043 0 .106.024.188.063l.156.422L0-2.562v.578l-3.86 1.53-.14.407a.2.2 0 0 1-.062.016q-.219.001-.22-.25v-1.453c0-.07.032-.11.095-.11.042 0 .105.024.187.063l.14.5L-.796-2.36v-.016l-3.062-1.172L-4-2.89a.2.2 0 0 1-.062.016q-.219.001-.22-.25Zm0 0"/><path id="q" d="M-.375-.406a.5.5 0 0 1-.36-.125.48.48 0 0 1-.14-.36c0-.132.047-.25.14-.343a.47.47 0 0 1 .36-.157c.148 0 .266.055.36.157a.5.5 0 0 1 .124.343.52.52 0 0 1-.125.36.5.5 0 0 1-.359.125m0 0"/><clipPath id="a"><path d="M.43 7h224.808v166H.43Zm0 0"/></clipPath></defs><path fill="none" stroke="#000" stroke-miterlimit="10" stroke-width=".39718854000000003" d="M14.52 180.137h209.93M14.52 150.145h209.93M14.52 120.156h209.93M14.52 90.168h209.93M14.52 60.176h209.93M14.52 30.188h209.93M14.52.208h209.93M14.52 180.136V.199m29.992 179.938V.199M74.5 180.137V.199m29.988 179.938V.199m29.992 179.938V.199m29.989 179.938V.199m29.992 179.938V.199m29.976 179.938V.199"/><g clip-path="url(#a)"><path fill="none" stroke="#000" stroke-miterlimit="10" stroke-width="1.58676324" d="M14.52 90.168c9.777-30.711 19.136-59.98 29.992-59.98 10.855 0 20.21 29.269 29.988 59.98 9.777 30.707 19.133 59.977 29.988 59.977 10.86 0 20.215-29.27 29.992-59.977 9.778-30.711 19.133-59.98 29.989-59.98 10.855 0 20.215 29.269 29.992 59.98 9.773 30.707 19.133 59.977 29.988 59.977"/></g><use xlink:href="#b" x="185.386" y="190.001"/><use xlink:href="#c" x="191.33" y="190.001"/><use xlink:href="#d" x="199.194" y="190.001"/><use xlink:href="#e" x="202.648" y="190.001"/><use xlink:href="#f" x="206.406" y="190.001"/><use xlink:href="#g" x="212.797" y="190.001"/><use xlink:href="#h" x="215.242" y="190.001"/><use xlink:href="#i" x="219.5" y="190.001"/><use xlink:href="#j" x="10.098" y="38.188"/><use xlink:href="#k" x="10.098" y="33.725"/><use xlink:href="#l" x="10.098" y="27.781"/><use xlink:href="#m" x="10.098" y="21.997"/><use xlink:href="#n" x="10.098" y="18.239"/><use xlink:href="#o" x="10.098" y="11.848"/><use xlink:href="#p" x="10.098" y="9.403"/><use xlink:href="#q" x="10.098" y="5.145"/></svg>