<svg xmlns="http://www.w3.org/2000/svg" width="113.382" height="116.619"><defs><clipPath id="a"><path d="M39 40h73.766v63H39Zm0 0"/></clipPath><clipPath id="b"><path d="M50 1h62.766v87H50Zm0 0"/></clipPath><clipPath id="c"><path d="M55 .125h3V59h-3Zm0 0"/></clipPath><clipPath id="d"><path d="M9 75h96v41.113H9Zm0 0"/></clipPath></defs><g clip-path="url(#a)"><path fill="none" stroke="#000" stroke-miterlimit="10" stroke-width="1.18951768" d="m56.438 57.66 49.308 28.469"/></g><g clip-path="url(#b)"><path fill="none" stroke="#000" stroke-miterlimit="10" stroke-width=".39683742000000005" d="M97.871 82.02s2.59-2.422 3.508-3.426a52 52 0 0 0 3.098-3.805 52 52 0 0 0 2.636-4.133 52 52 0 0 0 2.145-4.41 52 52 0 0 0 1.629-4.625c.375-1.305.86-3.441 1.082-4.781.226-1.34.465-3.52.531-4.875.07-1.356.055-3.547-.031-4.903a51 51 0 0 0-.594-4.87 51 51 0 0 0-1.148-4.766 52 52 0 0 0-1.688-4.606 51 51 0 0 0-2.203-4.379 52 52 0 0 0-2.691-4.101A52 52 0 0 0 101 20.578c-.93-.992-2.52-2.5-3.555-3.379a53 53 0 0 0-3.918-2.949 52 52 0 0 0-4.23-2.477 51 51 0 0 0-4.488-1.98c-1.27-.473-3.364-1.125-4.684-1.45a50 50 0 0 0-4.82-.902 51 51 0 0 0-4.89-.347c-1.36-.02-3.548.078-4.9.215a52 52 0 0 0-4.843.78c-1.324.294-4.719 1.325-4.719 1.325"/></g><g clip-path="url(#c)"><path fill="none" stroke="#000" stroke-miterlimit="10" stroke-width="1.18951768" d="M56.438 57.66V.723"/></g><path fill="none" stroke="#000" stroke-miterlimit="10" stroke-width=".39683742000000005" d="M56.816 9.594s-3.394-1.032-4.722-1.324c-1.328-.29-3.489-.641-4.84-.778a53 53 0 0 0-4.899-.219 51 51 0 0 0-4.89.348c-1.348.172-3.5.574-4.82.902S29.23 9.5 27.96 9.977a52 52 0 0 0-4.488 1.976 50 50 0 0 0-4.23 2.48 51 51 0 0 0-3.919 2.95c-1.039.875-2.625 2.387-3.554 3.375a52 52 0 0 0-3.145 3.765 51 51 0 0 0-2.691 4.098 51 51 0 0 0-2.204 4.383 51 51 0 0 0-1.687 4.601 51 51 0 0 0-1.148 4.77A51 51 0 0 0 .3 47.242a51 51 0 0 0-.035 4.903c.07 1.355.308 3.535.53 4.875.227 1.34.712 3.476 1.087 4.78a51 51 0 0 0 1.629 4.626 51 51 0 0 0 2.144 4.41 52 52 0 0 0 2.637 4.137c.797 1.097 2.18 2.8 3.098 3.8.914 1.004 3.507 3.426 3.507 3.426"/><path fill="none" stroke="#000" stroke-miterlimit="10" stroke-width="1.18951768" d="M56.438 57.66 7.125 86.13"/><g clip-path="url(#d)"><path fill="none" stroke="#000" stroke-miterlimit="10" stroke-width=".39683742000000005" d="M14.621 81.363s.805 3.453 1.215 4.75a51 51 0 0 0 1.746 4.582 51 51 0 0 0 2.262 4.352c.691 1.168 1.922 2.98 2.746 4.062a50 50 0 0 0 3.191 3.723c.942.977 2.551 2.465 3.598 3.332a52 52 0 0 0 3.957 2.895 51 51 0 0 0 4.262 2.425 51 51 0 0 0 4.515 1.918 51 51 0 0 0 4.7 1.391c1.324.309 3.484.684 4.832.84 1.351.156 3.539.285 4.894.285 1.36 0 3.547-.129 4.899-.285a52 52 0 0 0 4.832-.84 51 51 0 0 0 4.699-1.39 51 51 0 0 0 4.515-1.919 52 52 0 0 0 4.262-2.421 51 51 0 0 0 3.953-2.899 50 50 0 0 0 3.602-3.332 51 51 0 0 0 3.191-3.723 51 51 0 0 0 2.746-4.062 51 51 0 0 0 2.262-4.352 51 51 0 0 0 1.746-4.582c.41-1.297 1.211-4.75 1.211-4.75"/></g><path fill="#FFF" stroke="#000" stroke-miterlimit="10" stroke-width=".79268026" d="M62.074 57.66a5.638 5.638 0 1 0-5.637 5.637 5.636 5.636 0 0 0 5.637-5.637Zm0 0"/><path d="M58.691 57.66a2.256 2.256 0 1 0-4.51-.004 2.256 2.256 0 0 0 4.51.004m0 0"/></svg>