<svg xmlns="http://www.w3.org/2000/svg" xmlns:xlink="http://www.w3.org/1999/xlink" width="226.771" height="42.002"><defs><clipPath id="a"><path d="M2.52 13H31v28.027H2.52Zm0 0"/></clipPath><clipPath id="c"><path d="M50 13h29v28.027H50Zm0 0"/></clipPath><clipPath id="d"><path d="M45 8h39v33.027H45Zm0 0"/></clipPath><clipPath id="g"><path d="M99 13h29v28.027H99Zm0 0"/></clipPath><clipPath id="h"><path d="M94 8h39v33.027H94Zm0 0"/></clipPath><clipPath id="j"><path d="M147 13h29v28.027h-29Zm0 0"/></clipPath><clipPath id="k"><path d="M142 8h39v33.027h-39Zm0 0"/></clipPath><clipPath id="l"><path d="M196 13h28.027v28.027H196Zm0 0"/></clipPath><clipPath id="m"><path d="M195 11h29.027v30.027H195Zm0 0"/></clipPath><path id="b" d="M5.75-2.844c.008.024.016.047.016.078 0 .149-.102.246-.297.297l-.203.047v1.86Q4.546.11 3.14.109q-1.19 0-1.907-.765C.711-1.196.454-1.976.454-3c0-1.05.335-1.863 1.015-2.437.562-.477 1.254-.72 2.078-.72q.576 0 1.047.141l.593.235q.031.626.032.906c0 .25-.086.375-.25.375a.6.6 0 0 1-.203-.031l-.188-.844q-.438-.265-1.094-.266c-.617 0-1.12.196-1.515.579q-.703.689-.703 1.984-.001 1.281.578 1.984.563.674 1.5.672.654.001 1.156-.203v-1.766L3.953-2.5q-.127-.029-.125-.11 0-.075.094-.234Zm0 0"/><path id="e" d="M.906-4.203v-.047q0-.983.469-1.562c.281-.344.617-.516 1.016-.516q.515.001.515.406a.45.45 0 0 1-.14.328 1.2 1.2 0 0 0-.578-.156q-.33.001-.454.172c-.086.117-.125.308-.125.578v.797h1.188l-.094.453H1.61v3.297l.61.11q.124.033.125.109A.4.4 0 0 1 2.266 0H.313v-.062c0-.133.085-.227.265-.282l.328-.11V-3.75H.234v-.062c0-.145.086-.243.266-.297Zm0 0"/><path id="f" d="m.406-.453 1.485-1.688q.874-.996.875-1.968 0-1.22-.891-1.22-.345.002-.703.173a4 4 0 0 0-.11.875q-.11.016-.203.015c-.28 0-.421-.117-.421-.359 0-.352.132-.633.406-.844q.42-.328 1.14-.328.716.001 1.157.406.435.393.437 1.125-.001.676-.406 1.344c-.18.281-.477.649-.89 1.094L1.327-.781v.015h1.985L3.5-1.53a.44.44 0 0 1 .188-.032c.144 0 .218.118.218.344q0 .345-.094 1.219H.485Zm0 0"/><path id="i" d="M1.36-3.094q1.483-.169 1.484-1.187-.001-1.045-.875-1.047-.41 0-.703.187a3.6 3.6 0 0 0-.11.813q-.11.017-.203.016-.422 0-.422-.344c0-.344.145-.617.438-.828q.435-.312 1.156-.313c.469 0 .836.125 1.11.375q.405.363.406.984 0 .612-.422 1-.282.27-.875.47v.03q.703.095 1.078.454.375.361.375.922-.001.72-.547 1.203-.534.468-1.39.468C1.378.11 1.022.012.796-.17a.6.6 0 0 1-.266-.5q0-.39.375-.532.141.346.282.5.294.328.812.328.984 0 .984-1.047-.001-1.09-1.625-1.219Zm0 0"/><path id="n" d="M2.266-6.047q2.484 0 2.484 1.688 0 .879-.61 1.359-.609.502-1.827.5h-.47v2.016l.688.125q.124.034.125.093c0 .055-.031.141-.094.266H.406v-.078q0-.247.297-.313l.375-.093v-5.094l-.547-.125c-.086-.02-.125-.05-.125-.094q-.001-.075.11-.25Zm0 3.078q.843 0 1.265-.375.389-.358.39-.969-.002-1.232-1.655-1.234h-.422v2.578Zm0 0"/><path id="o" d="m4.406-.469-.578-1.61H1.641l-.578 1.61.671.11q.124.034.125.093c0 .055-.03.141-.093.266H-.078a.2.2 0 0 1-.016-.078q0-.246.297-.328l.25-.047 2.125-5.594.563-.078L5.234-.469l.391.11q.124.034.125.093 0 .048-.094.266H3.781a.16.16 0 0 1-.015-.078q-.002-.247.297-.313ZM1.813-2.547h1.843l-.89-2.562H2.75Zm0 0"/></defs><g clip-path="url(#a)"><path fill="none" stroke="#000" stroke-miterlimit="10" stroke-width=".7785016300000001" d="M2.91 13.504h27.133v27.133H2.91Zm0 0"/></g><path fill="none" stroke="#000" stroke-miterlimit="10" stroke-width=".38973921000000006" d="M18.172 20.965c.555-.867 1.082-1.695 1.695-1.695s1.145.828 1.695 1.695c.555.867 1.083 1.695 1.7 1.695.613 0 1.14-.828 1.695-1.695M18.172 24.355c.555-.867 1.082-1.695 1.695-1.695s1.145.828 1.695 1.695c.555.872 1.083 1.7 1.7 1.7.613 0 1.14-.828 1.695-1.7M18.172 27.75c.555-.867 1.082-1.695 1.695-1.695s1.145.828 1.695 1.695c.555.867 1.083 1.695 1.7 1.695.613 0 1.14-.828 1.695-1.695"/><use xlink:href="#b" x="7.367" y="26.701"/><path fill="none" stroke="#000" stroke-miterlimit="10" stroke-width=".38973921000000006" d="M6.98 31.82h18.993M6.98 36.566h18.993v-2.71H6.98ZM6.98 38.602h18.993M30.043 27.07h10.633m0 0h10.633"/><path d="M47.191 27.07v1.938l4.118-1.938-4.118-1.937Zm0 0"/><g clip-path="url(#c)"><path fill="none" stroke="#000" stroke-miterlimit="10" stroke-width=".7785016300000001" d="M51.309 13.504H78.44v27.133H51.31Zm0 0"/></g><g clip-path="url(#d)"><path fill="none" stroke="#000" stroke-miterlimit="10" stroke-width=".38973921000000006" d="M51.309 40.637 78.44 13.504"/></g><use xlink:href="#e" x="57.316" y="24.127"/><use xlink:href="#f" x="66.607" y="36.338"/><use xlink:href="#e" x="72.44" y="36.338"/><path fill="none" stroke="#000" stroke-miterlimit="10" stroke-width=".38973921000000006" d="M78.441 27.07h10.633m0 0h10.633"/><path d="M95.59 27.07v1.938l4.117-1.938-4.117-1.937Zm0 0"/><g clip-path="url(#g)"><path fill="none" stroke="#000" stroke-miterlimit="10" stroke-width=".7785016300000001" d="M99.707 13.504h27.137v27.133H99.707Zm0 0"/></g><g clip-path="url(#h)"><path fill="none" stroke="#000" stroke-miterlimit="10" stroke-width=".38973921000000006" d="m99.707 40.637 27.137-27.133"/></g><use xlink:href="#e" x="105.715" y="24.127"/><use xlink:href="#i" x="115.005" y="36.285"/><use xlink:href="#e" x="120.838" y="36.285"/><path fill="none" stroke="#000" stroke-miterlimit="10" stroke-width=".38973921000000006" d="M126.844 27.07h10.629m0 0h10.633"/><path d="M143.988 27.07v1.938l4.117-1.938-4.117-1.937Zm0 0"/><g clip-path="url(#j)"><path fill="none" stroke="#000" stroke-miterlimit="10" stroke-width=".7785016300000001" d="M148.106 13.504h27.136v27.133h-27.136Zm0 0"/></g><g clip-path="url(#k)"><path fill="none" stroke="#000" stroke-miterlimit="10" stroke-width=".38973921000000006" d="m148.106 40.637 27.136-27.133"/></g><use xlink:href="#e" x="154.113" y="24.127"/><use xlink:href="#f" x="163.404" y="36.338"/><use xlink:href="#e" x="169.237" y="36.338"/><path fill="none" stroke="#000" stroke-miterlimit="10" stroke-width=".38973921000000006" d="M175.242 27.07h10.633m0 0h10.633"/><path d="M192.387 27.07v1.938l4.12-1.938-4.12-1.937Zm0 0"/><g clip-path="url(#l)"><path fill="none" stroke="#000" stroke-miterlimit="10" stroke-width=".7785016300000001" d="M196.508 13.504h27.133v27.133h-27.133Zm0 0"/></g><g clip-path="url(#m)"><path fill="none" stroke="#000" stroke-miterlimit="10" stroke-width=".38973921000000006" d="M200.578 16.625 219.57 27.07l-18.992 10.45Zm0 0"/></g><use xlink:href="#n" x="204.925" y="9.032"/><use xlink:href="#o" x="209.506" y="9.032"/></svg>