<svg xmlns="http://www.w3.org/2000/svg" width="226.349" height="139.731"><defs><clipPath id="a"><path d="M40 .066h37V81H40Zm0 0"/></clipPath><clipPath id="b"><path d="M66 .066h37V81H66Zm0 0"/></clipPath><clipPath id="c"><path d="M92 .066h37V81H92Zm0 0"/></clipPath><clipPath id="d"><path d="M118 .066h37V81h-37Zm0 0"/></clipPath><clipPath id="e"><path d="M144 .066h37V81h-37Zm0 0"/></clipPath><clipPath id="f"><path d="M170 .066h37V81h-37Zm0 0"/></clipPath><clipPath id="g"><path d="M19 .066h70V99H19Zm0 0"/></clipPath><clipPath id="h"><path d="M45 .066h70V99H45Zm0 0"/></clipPath><clipPath id="i"><path d="M70 .066h71V99H70Zm0 0"/></clipPath><clipPath id="j"><path d="M96 .066h71V99H96Zm0 0"/></clipPath><clipPath id="k"><path d="M122 .066h71V99h-71Zm0 0"/></clipPath><clipPath id="l"><path d="M148 .066h71V99h-71Zm0 0"/></clipPath><clipPath id="m"><path d="M179 .066h46.7V56H179Zm0 0"/></clipPath><clipPath id="n"><path d="M0 .066h63V56H0Zm0 0"/></clipPath><clipPath id="o"><path d="M205 119h20.7v20.398H205Zm0 0"/></clipPath><clipPath id="p"><path d="M0 119h21v20.398H0Zm0 0"/></clipPath></defs><g clip-path="url(#a)"><path fill="none" stroke="#000" stroke-dasharray="2.9802520579 5.9605041158" stroke-miterlimit="10" stroke-width=".79471261" d="M51.574 8.855s1.856 2.16 2.531 3.067a56 56 0 0 1 2.329 3.465 64 64 0 0 1 2.101 3.828 70 70 0 0 1 1.856 4.133 77 77 0 0 1 1.593 4.39 83 83 0 0 1 1.317 4.594 95 95 0 0 1 1.031 4.738c.242 1.328.57 3.485.73 4.825.16 1.343.356 3.507.434 4.847s.14 3.492.137 4.813a89 89 0 0 1-.16 4.715 85 85 0 0 1-.442 4.562 77 77 0 0 1-.722 4.344c-.235 1.168-.98 4.078-.98 4.078"/></g><g clip-path="url(#b)"><path fill="none" stroke="#000" stroke-dasharray="2.9802520579 5.9605041158" stroke-miterlimit="10" stroke-width=".79471261" d="M77.527 8.855s1.856 2.16 2.528 3.067a53 53 0 0 1 2.328 3.465 60 60 0 0 1 2.101 3.828 70 70 0 0 1 1.86 4.133 83 83 0 0 1 1.593 4.39 90 90 0 0 1 1.317 4.594 91 91 0 0 1 1.027 4.738c.246 1.328.57 3.485.73 4.825.165 1.343.356 3.507.438 4.847.078 1.34.137 3.492.133 4.813 0 1.324-.074 3.43-.156 4.715a89 89 0 0 1-.446 4.562 77 77 0 0 1-.718 4.344c-.239 1.168-.98 4.078-.98 4.078"/></g><g clip-path="url(#c)"><path fill="none" stroke="#000" stroke-dasharray="2.9802520579 5.9605041158" stroke-miterlimit="10" stroke-width=".79471261" d="M103.477 8.855s1.855 2.16 2.53 3.067c.673.906 1.712 2.453 2.329 3.465a64 64 0 0 1 2.101 3.828 70 70 0 0 1 1.856 4.133 77 77 0 0 1 1.594 4.39 83 83 0 0 1 1.316 4.594 95 95 0 0 1 1.031 4.738c.243 1.328.567 3.485.73 4.825.161 1.343.356 3.507.434 4.847s.141 3.492.137 4.813a89 89 0 0 1-.16 4.715 81 81 0 0 1-.445 4.562 74 74 0 0 1-.72 4.344c-.233 1.168-.98 4.078-.98 4.078"/></g><g clip-path="url(#d)"><path fill="none" stroke="#000" stroke-dasharray="2.9802520579 5.9605041158" stroke-miterlimit="10" stroke-width=".79471261" d="M129.43 8.855s1.855 2.16 2.527 3.067a53 53 0 0 1 2.328 3.465 60 60 0 0 1 2.102 3.828 70 70 0 0 1 1.86 4.133 83 83 0 0 1 1.593 4.39c.402 1.246.988 3.301 1.316 4.594a95 95 0 0 1 1.028 4.738c.246 1.328.57 3.485.73 4.825.164 1.343.356 3.507.438 4.847.078 1.34.136 3.492.132 4.813 0 1.324-.074 3.43-.156 4.715a89 89 0 0 1-.445 4.562 77 77 0 0 1-.719 4.344c-.238 1.168-.98 4.078-.98 4.078"/></g><g clip-path="url(#e)"><path fill="none" stroke="#000" stroke-dasharray="2.9802520579 5.9605041158" stroke-miterlimit="10" stroke-width=".79471261" d="M155.379 8.855s1.855 2.16 2.531 3.067a56 56 0 0 1 2.328 3.465 64 64 0 0 1 2.102 3.828 70 70 0 0 1 1.855 4.133 77 77 0 0 1 1.594 4.39 83 83 0 0 1 1.316 4.594 95 95 0 0 1 1.032 4.738c.242 1.328.566 3.485.73 4.825.16 1.343.356 3.507.434 4.847s.14 3.492.136 4.813a89 89 0 0 1-.16 4.715 81 81 0 0 1-.445 4.562 77 77 0 0 1-.719 4.344c-.234 1.168-.98 4.078-.98 4.078"/></g><g clip-path="url(#f)"><path fill="none" stroke="#000" stroke-dasharray="2.9802520579 5.9605041158" stroke-miterlimit="10" stroke-width=".79471261" d="M181.332 8.855s1.855 2.16 2.527 3.067a53 53 0 0 1 2.328 3.465 60 60 0 0 1 2.102 3.828 70 70 0 0 1 1.86 4.133 83 83 0 0 1 1.593 4.39c.403 1.246.988 3.301 1.317 4.594a95 95 0 0 1 1.027 4.738 92 92 0 0 1 .73 4.825c.164 1.343.356 3.507.438 4.847.078 1.34.137 3.492.133 4.813 0 1.324-.075 3.43-.157 4.715a89 89 0 0 1-.445 4.562 77 77 0 0 1-.719 4.344c-.238 1.168-.98 4.078-.98 4.078"/></g><g clip-path="url(#g)"><path fill="none" stroke="#000" stroke-miterlimit="10" stroke-width=".79471261" d="M63.324 69.266s-2.898 7.875-4.304 10.129c-1.407 2.257-4.114 5.085-5.829 6.14s-4.746 1.73-6.535 1.465c-1.789-.266-4.742-1.824-6.36-3.383-1.62-1.555-4.085-5.168-5.308-7.844-1.226-2.671-2.863-7.933-3.511-11.425-.649-3.489-1.204-9.809-1.16-13.727.046-3.914.703-10.586 1.48-14.484.773-3.899 2.64-10.172 4.101-13.621 1.461-3.45 4.399-8.621 6.426-11.23s5.774-6.098 8.184-7.575S57.12.82 59.688.64c2.562-.18 6.82.64 9.292 1.777 2.477 1.14 8.536 6.426 8.536 6.426"/></g><g clip-path="url(#h)"><path fill="none" stroke="#000" stroke-miterlimit="10" stroke-width=".79471261" d="M89.277 69.266s-2.902 7.875-4.308 10.129c-1.407 2.257-4.114 5.085-5.828 6.14s-4.746 1.73-6.536 1.465c-1.789-.266-4.738-1.824-6.359-3.383-1.617-1.555-4.086-5.168-5.309-7.844-1.222-2.671-2.859-7.933-3.507-11.425-.649-3.489-1.203-9.809-1.16-13.727.042-3.914.703-10.586 1.476-14.484.774-3.899 2.645-10.172 4.106-13.621 1.46-3.45 4.398-8.621 6.425-11.23 2.024-2.61 5.774-6.098 8.18-7.575 2.41-1.477 6.617-2.89 9.18-3.07s6.824.64 9.297 1.777c2.472 1.14 8.53 6.426 8.53 6.426"/></g><g clip-path="url(#i)"><path fill="none" stroke="#000" stroke-miterlimit="10" stroke-width=".79471261" d="M115.227 69.266s-2.903 7.875-4.305 10.129c-1.406 2.257-4.113 5.085-5.828 6.14s-4.746 1.73-6.535 1.465c-1.79-.266-4.743-1.824-6.36-3.383-1.62-1.555-4.086-5.168-5.308-7.844-1.227-2.671-2.864-7.933-3.512-11.425-.649-3.489-1.203-9.809-1.16-13.727.047-3.914.703-10.586 1.48-14.484.774-3.899 2.64-10.172 4.102-13.621 1.46-3.45 4.398-8.621 6.426-11.23 2.027-2.61 5.773-6.098 8.183-7.575s6.613-2.89 9.176-3.07c2.566-.18 6.824.64 9.297 1.777 2.476 1.14 8.535 6.426 8.535 6.426"/></g><g clip-path="url(#j)"><path fill="none" stroke="#000" stroke-miterlimit="10" stroke-width=".79471261" d="M141.18 69.266s-2.903 7.875-4.309 10.129c-1.406 2.257-4.113 5.085-5.828 6.14s-4.746 1.73-6.535 1.465c-1.79-.266-4.738-1.824-6.36-3.383-1.617-1.555-4.086-5.168-5.308-7.844-1.223-2.671-2.86-7.933-3.508-11.425-.648-3.489-1.203-9.809-1.16-13.727.043-3.914.703-10.586 1.476-14.484.774-3.899 2.645-10.172 4.106-13.621 1.46-3.45 4.398-8.621 6.426-11.23 2.023-2.61 5.773-6.098 8.18-7.575 2.41-1.477 6.617-2.89 9.179-3.07s6.824.64 9.297 1.777c2.473 1.14 8.531 6.426 8.531 6.426"/></g><g clip-path="url(#k)"><path fill="none" stroke="#000" stroke-miterlimit="10" stroke-width=".79471261" d="M167.129 69.266s-2.902 7.875-4.309 10.129c-1.406 2.257-4.11 5.085-5.824 6.14-1.715 1.055-4.746 1.73-6.535 1.465-1.793-.266-4.742-1.824-6.36-3.383-1.62-1.555-4.085-5.168-5.308-7.844-1.227-2.671-2.863-7.933-3.512-11.425-.648-3.489-1.203-9.809-1.16-13.727.047-3.914.703-10.586 1.48-14.484.774-3.899 2.641-10.172 4.102-13.621 1.461-3.45 4.399-8.621 6.426-11.23s5.773-6.098 8.183-7.575c2.407-1.477 6.614-2.89 9.176-3.07 2.567-.18 6.824.64 9.297 1.777 2.477 1.14 8.535 6.426 8.535 6.426"/></g><g clip-path="url(#l)"><path fill="none" stroke="#000" stroke-miterlimit="10" stroke-width=".79471261" d="M193.082 69.266s-2.902 7.875-4.309 10.129c-1.406 2.257-4.113 5.085-5.828 6.14S178.2 87.265 176.41 87c-1.789-.266-4.738-1.824-6.36-3.383-1.616-1.555-4.085-5.168-5.308-7.844-1.222-2.671-2.863-7.933-3.508-11.425-.648-3.489-1.207-9.809-1.16-13.727.043-3.914.703-10.586 1.477-14.484.773-3.899 2.644-10.172 4.105-13.621 1.461-3.45 4.399-8.621 6.426-11.23 2.023-2.61 5.773-6.098 8.18-7.575 2.41-1.477 6.617-2.89 9.18-3.07s6.82.64 9.296 1.777c2.473 1.14 8.532 6.426 8.532 6.426"/></g><g clip-path="url(#m)"><path fill="none" stroke="#000" stroke-miterlimit="10" stroke-width=".79471261" d="M190.703.594s2.266.125 3.129.273c.86.153 2.242.516 3.09.813.848.3 2.2.898 3.027 1.343a30 30 0 0 1 2.926 1.856 34 34 0 0 1 2.797 2.344 41 41 0 0 1 2.64 2.804c.708.836 1.801 2.282 2.454 3.23.648.95 1.648 2.567 2.238 3.618a63 63 0 0 1 2.008 3.95 74 74 0 0 1 1.754 4.245 80 80 0 0 1 1.484 4.48c.375 1.266.91 3.348 1.203 4.657.293 1.313.7 3.45.91 4.781.211 1.336.617 4.84.617 4.84"/></g><g clip-path="url(#n)"><path fill="none" stroke="#000" stroke-miterlimit="10" stroke-width=".79471261" d="M4.723 43.848s.601-4.91.941-6.766 1.02-4.812 1.52-6.598 1.43-4.597 2.078-6.27c.648-1.671 1.808-4.265 2.597-5.784.786-1.52 2.16-3.832 3.07-5.16s2.473-3.305 3.489-4.407c1.016-1.105 2.73-2.695 3.828-3.547 1.102-.855 2.934-2.02 4.098-2.601 1.16-.578 3.074-1.29 4.277-1.586 1.2-.293 3.156-.531 4.367-.535 1.211 0 3.168.238 4.367.531 1.2.293 3.118 1 4.278 1.582 1.164.578 3 1.742 4.097 2.594 1.102.851 3.832 3.543 3.832 3.543"/></g><path fill="none" stroke="#000" stroke-miterlimit="10" stroke-width=".79471261" d="M4.723 43.848v86.5M220.98 43.848v86.5"/><g clip-path="url(#o)"><path fill="none" stroke="#000" stroke-miterlimit="10" stroke-width=".79471261" d="M225.305 134.676a4.327 4.327 0 1 0-8.654-.003 4.327 4.327 0 0 0 8.654.003Zm0 0"/></g><g clip-path="url(#p)"><path fill="none" stroke="#000" stroke-miterlimit="10" stroke-width=".79471261" d="M9.047 134.676a4.324 4.324 0 1 0-8.649 0 4.324 4.324 0 1 0 8.649 0Zm0 0"/></g></svg>