<svg xmlns="http://www.w3.org/2000/svg" xmlns:xlink="http://www.w3.org/1999/xlink" width="227.265" height="148.379"><defs><path id="b" d="M2.734-2.64a5 5 0 0 1-.375.015h-.484v2.14l.61.126q.123.017.124.093 0 .048-.093.266H.422a.16.16 0 0 1-.016-.078Q.404-.324.72-.406l.375-.078v-5.203l-.547-.125C.46-5.82.422-5.852.422-5.906q0-.075.094-.25h1.797q2.514.001 2.515 1.718c0 .844-.43 1.399-1.281 1.657L5.062-.47l.422.11q.124.034.125.093 0 .048-.093.266H4.328Zm-.437-.454Q3.998-3.092 4-4.39 3.998-5.64 2.297-5.64h-.422v2.547Zm0 0"/><path id="c" d="M2.188-6.156c.007.023.015.047.015.078q-.002.253-.297.312l-.328.079L2.75-3.72h.031l1.25-1.984-.593-.094q-.127-.014-.126-.11 0-.074.094-.25h1.797v.079q-.002.252-.297.328l-.297.063L3.063-3.25 4.75-.469l.422.11q.124.034.125.093c0 .032-.04.121-.11.266h-1.89v-.078q0-.264.297-.328l.281-.047-1.281-2.125h-.016L1.266-.453l.562.094q.124.017.125.093A.6.6 0 0 1 1.86 0H.047v-.078q0-.264.297-.328l.25-.063L2.28-3.062.671-5.687l-.437-.11C.148-5.805.11-5.844.11-5.907q0-.074.11-.25Zm0 0"/><path id="d" d="M4.453-5.687H3.031v5.203l.61.125q.124.017.125.093 0 .048-.094.266h-2.11v-.078q0-.246.297-.328l.391-.078v-5.203H.828L.61-4.75a.4.4 0 0 1-.187.047c-.18 0-.266-.129-.266-.39q0-.234.063-1.063h4.828q.06.83.062 1.062c0 .262-.086.39-.25.39a.44.44 0 0 1-.203-.046Zm0 0"/><path id="o" d="M5.86-2.906v.094c0 .148-.102.246-.298.296l-.203.047v1.89C4.867-.116 4.15.11 3.203.11q-1.22 0-1.937-.765-.797-.845-.797-2.39-.002-1.607 1.015-2.485.873-.734 2.125-.735.576 0 1.063.141.06.018.594.234.046.643.046.922-.001.391-.265.39a.5.5 0 0 1-.188-.03l-.203-.86q-.44-.28-1.11-.281-.936 0-1.546.61-.703.688-.703 2c0 .874.191 1.554.578 2.03.375.462.883.688 1.531.688.438 0 .828-.07 1.172-.219v-1.78l-.547-.126q-.127-.029-.125-.11 0-.074.094-.25Zm0 0"/><path id="p" d="M2.031-.578V-5l-1.344.266a1 1 0 0 1-.015-.188c0-.133.07-.226.219-.281l1.468-.594h.438v5.219l1.094.172q.14.016.14.11-.002.08-.11.296H.86v-.078q0-.311.282-.36Zm0 0"/><path id="q" d="M1.39-3.156c1.008-.114 1.516-.516 1.516-1.203Q2.905-5.421 2-5.422q-.41 0-.703.188-.112.376-.125.828a1 1 0 0 1-.203.015c-.281 0-.422-.117-.422-.359 0-.344.144-.617.437-.828q.45-.328 1.188-.328c.469 0 .836.125 1.11.375q.42.376.421 1.015 0 .628-.422 1.016-.298.284-.906.484v.032q.716.093 1.11.468c.257.243.39.547.39.922q-.001.738-.547 1.219Q2.78.11 1.891.109C1.41.11 1.05.012.813-.17Q.53-.374.53-.672q0-.406.39-.548c.102.23.204.399.298.5q.293.328.828.328c.664 0 1-.351 1-1.062 0-.738-.555-1.149-1.656-1.234Zm0 0"/><path id="r" d="M2.922-3.031q1.109.487 1.11 1.531-.001.737-.548 1.188-.516.42-1.296.421Q1.42.11.952-.28.421-.716.422-1.453q0-.92 1.125-1.453C.898-3.226.578-3.72.578-4.375c0-.426.164-.785.5-1.078a1.75 1.75 0 0 1 1.188-.453c.476 0 .867.133 1.172.39q.451.376.453 1.063-.001.907-.97 1.422m-.39-.156q.656-.423.656-1.266-.002-.42-.25-.672-.254-.28-.735-.281c-.281 0-.508.093-.672.281a.94.94 0 0 0-.25.672q0 .504.328.797.247.222.922.469m-.563.468q-.798.44-.797 1.266 0 .456.281.766c.195.199.453.296.766.296q.467 0 .765-.28.296-.295.297-.735 0-.48-.36-.797-.268-.234-.952-.516m0 0"/><path id="s" d="M.89-.922q.248.002.407.203.17.204.172.578 0 .592-.375.985-.316.328-.61.328c-.093 0-.164-.078-.203-.234q.574-.3.61-.891a.5.5 0 0 1-.344-.125.47.47 0 0 1-.14-.344c0-.156.038-.273.124-.36a.48.48 0 0 1 .36-.14m0 0"/><path id="t" d="M3.688-4.766a.95.95 0 0 0-.329-.406 1.16 1.16 0 0 0-.734-.25c-.906 0-1.398.79-1.469 2.36q.516-.406 1.219-.407.762 0 1.219.375.499.423.5 1.25-.001.798-.5 1.36c-.356.398-.809.593-1.36.593-.617 0-1.086-.257-1.406-.78Q.36-1.407.36-2.72q-.002-1.25.594-2.14c.445-.696 1.063-1.047 1.844-1.047.406 0 .726.074.969.218q.328.189.328.454-.001.375-.407.468M1.156-2.609Q1.17-1.484 1.5-.922c.195.356.469.531.813.531q.435.001.718-.343.296-.359.297-1.016-.001-1.219-1.015-1.219-.751 0-1.157.36m0 0"/><path id="u" d="m6-.484-.078-4.22h-.016L4.031-.077h-.5L1.687-4.75h-.015L1.594-.484l.625.125q.124.017.125.093c0 .032-.04.121-.11.266H.391v-.078Q.389-.324.688-.406l.39-.078.063-5.203-.547-.125c-.086-.008-.125-.04-.125-.094q0-.075.094-.25h1.406l1.937 4.922h.016l2-4.922h1.5a.2.2 0 0 1 .016.078q-.001.236-.313.312l-.422.079.078 5.203.61.125q.124.017.125.093 0 .048-.094.266H5.328a.16.16 0 0 1-.016-.078q-.002-.246.313-.328Zm0 0"/><path id="v" d="M2.594-6.156v.078c0 .156-.102.262-.297.312l-.422.079v2.28h2.984v-2.28l-.562-.125c-.086-.008-.125-.04-.125-.094q-.001-.075.11-.25h2.062q.013.033.015.078 0 .236-.312.312l-.422.079v5.203l.625.125q.124.017.125.093c0 .032-.04.121-.11.266H4.173v-.078q0-.246.297-.328l.39-.078v-2.391H1.875v2.39l.61.126q.123.017.124.093 0 .048-.093.266H.422a.16.16 0 0 1-.016-.078Q.404-.324.72-.406l.375-.078v-5.203l-.547-.125C.46-5.82.422-5.852.422-5.906q0-.075.094-.25Zm0 0"/><path id="w" d="M.469-3.406q0-.311.062-.875h2.89q.048.08.048.172c0 .093-.04.199-.11.312L1.141-.469v.016h1.734l.328-.89h.14q.249.001.25.265 0 .093-.124 1.078H.406a.6.6 0 0 1-.094-.328q0-.124.094-.266l2.14-3.234v-.016H1.095l-.25.735a.6.6 0 0 1-.125.015c-.168 0-.25-.101-.25-.312m0 0"/><path id="x" d="m.422-.453 1.5-1.719q.89-1.015.89-2-.001-1.249-.906-1.25-.363.001-.703.172-.112.364-.125.89-.11.017-.203.016c-.281 0-.422-.117-.422-.36q0-.544.422-.874.42-.328 1.156-.328.715 0 1.172.422.451.409.453 1.14 0 .691-.422 1.36-.268.44-.906 1.125L1.344-.797v.016h2.031l.188-.766q.058-.047.187-.047.218 0 .219.36 0 .344-.094 1.234H.5Zm0 0"/><path id="y" d="M2.953-2.469H.547v-.515h2.406Zm0 0"/><path id="z" d="M2.234-.39q1.092.001 1.094-2.516c0-1.664-.367-2.5-1.094-2.5-.73 0-1.093.836-1.093 2.5 0 1.68.363 2.515 1.093 2.515m-.046.5q-.862 0-1.36-.75Q.296-1.42.297-2.907c0-.977.187-1.735.562-2.266.352-.488.829-.734 1.422-.734q.873.001 1.36.734c.343.531.515 1.29.515 2.266q0 1.487-.562 2.265-.516.75-1.406.75m0 0"/><path id="l" d="M3.469-4.422h-1.11v4.047l.47.094q.093.018.093.078 0 .034-.078.203H1.219v-.062q0-.187.234-.25l.297-.063v-4.047H.64l-.156.734a.4.4 0 0 1-.156.032q-.204.002-.203-.313 0-.169.047-.812h3.75q.047.644.047.812 0 .315-.188.313a.4.4 0 0 1-.156-.031Zm0 0"/><path id="m" d="M2.125-2.047h-.672v1.672l.484.094q.094.018.094.078 0 .034-.078.203H.328a.1.1 0 0 1-.016-.062q0-.187.25-.25L.86-.375v-4.047l-.437-.094q-.094-.012-.094-.078-.002-.058.078-.187h1.39Q3.75-4.78 3.75-3.453c0 .656-.336 1.086-1 1.281L3.938-.359l.328.078q.093.033.093.078 0 .034-.078.203H3.36Zm-.328-.36q1.312.002 1.312-1 0-.983-1.312-.984h-.344v1.985Zm0 0"/><path id="n" d="M1.703-4.781a.1.1 0 0 1 .016.062q0 .187-.235.235l-.25.062.907 1.531h.015l.985-1.546-.47-.079c-.062 0-.093-.023-.093-.078q-.002-.058.078-.187h1.39v.062c0 .125-.077.211-.234.25l-.234.047-1.187 1.89L3.688-.374l.328.094q.093.033.093.078 0 .034-.078.203H2.563v-.062c0-.133.078-.22.234-.25l.219-.047-1-1.641H2L.984-.36l.438.079q.093.018.094.078A.5.5 0 0 1 1.437 0H.048A.1.1 0 0 1 .03-.062c0-.133.078-.22.235-.25L.469-.36l1.297-2.016-1.25-2.047L.188-4.5q-.094-.013-.094-.094c0-.039.023-.101.078-.187Zm0 0"/><clipPath id="a"><path d="M.11 7H31v42H.11Zm0 0"/></clipPath><clipPath id="e"><path d="M53 121h28v26.762H53Zm0 0"/></clipPath><clipPath id="f"><path d="M52 119h30v28.762H52Zm0 0"/></clipPath><clipPath id="g"><path d="M92 121h28v26.762H92Zm0 0"/></clipPath><clipPath id="h"><path d="M91 119h30v28.762H91Zm0 0"/></clipPath><clipPath id="i"><path d="M131 121h28v26.762h-28Zm0 0"/></clipPath><clipPath id="j"><path d="M130 119h30v28.762h-30Zm0 0"/></clipPath><clipPath id="k"><path d="M199 60h27.426v28H199Zm0 0"/></clipPath></defs><path fill="none" stroke="#000" stroke-miterlimit="10" stroke-width=".39733617000000004" d="M41.047 65.629h-8.574m8.574 16.504h-8.574M9.87 73.879h8.574"/><path fill="#FFF" stroke="#000" stroke-miterlimit="10" stroke-width=".39733617000000004" d="M34.055 65.629a1.58 1.58 0 1 0-3.161-.003 1.58 1.58 0 0 0 3.16.003ZM34.055 82.133a1.58 1.58 0 1 0-3.161-.003 1.58 1.58 0 0 0 3.16.003ZM20.027 73.879a1.582 1.582 0 0 0-3.164 0 1.583 1.583 0 0 0 3.164 0Zm0 0"/><path fill="none" stroke="#000" stroke-miterlimit="10" stroke-width=".7936765100000001" d="m20.027 73.879 12.035-6.258"/><path fill="none" stroke="#000" stroke-miterlimit="10" stroke-width=".39733617000000004" d="M9.672 73.879V18.863"/><g clip-path="url(#a)"><path fill="none" stroke="#000" stroke-miterlimit="10" stroke-width=".7936765100000001" d="M9.672 18.863h9.172l-9.172 18.34-9.168-18.34h9.168"/></g><use xlink:href="#b" x="19.999" y="62.454"/><use xlink:href="#c" x="25.58" y="62.454"/><use xlink:href="#d" x="20.147" y="91.468"/><use xlink:href="#c" x="25.433" y="91.468"/><path fill="none" stroke="#000" stroke-miterlimit="10" stroke-width=".39733617000000004" d="M41.047 65.629V13.23h13.098"/><path d="M49.945 13.23v1.977l4.2-1.977-4.2-1.972Zm0 0"/><path fill="none" stroke="#000" stroke-miterlimit="10" stroke-width=".7936765100000001" d="M54.145.395H79.82V26.07H54.145Zm0 0"/><path fill="none" stroke="#000" stroke-miterlimit="10" stroke-width=".39733617000000004" d="M57.996 3.348 75.97 13.23l-17.973 9.887ZM79.82 13.23h26.196m0 0h26.199"/><path d="M128.016 13.23v1.977l4.199-1.977-4.2-1.972Zm0 0"/><path fill="none" stroke="#000" stroke-miterlimit="10" stroke-width=".7936765100000001" d="M132.215.395h25.676V26.07h-25.676Zm0 0"/><path fill="none" stroke="#000" stroke-miterlimit="10" stroke-width=".39733617000000004" d="M154.039 13.23c0-4.96-4.023-8.984-8.988-8.984a8.986 8.986 0 0 0-8.985 8.984 8.987 8.987 0 1 0 17.973 0ZM138.7 6.879l12.706 12.707m0-12.707L138.7 19.586M41.047 82.133v52.394h13.098"/><g clip-path="url(#e)"><path fill="none" stroke="#000" stroke-miterlimit="10" stroke-width=".7936765100000001" d="M54.145 121.691H79.82v25.672H54.145Zm0 0"/></g><g clip-path="url(#f)"><path fill="none" stroke="#000" stroke-miterlimit="10" stroke-width=".39733617000000004" d="m75.969 144.41-17.973-9.883 17.973-9.882Zm0 0"/></g><path fill="none" stroke="#000" stroke-miterlimit="10" stroke-width=".39733617000000004" d="M79.82 134.527h13.36m25.675 0h13.36"/><path d="M84.02 134.527v-1.976l-4.2 1.976 4.2 1.977Zm0 0"/><g clip-path="url(#g)"><path fill="none" stroke="#000" stroke-miterlimit="10" stroke-width=".7936765100000001" d="M93.18 147.363h25.675v-25.672H93.18Zm0 0"/></g><path d="M123.055 134.527v1.977l-4.2-1.977 4.2-1.976Zm0 0"/><g clip-path="url(#h)"><path fill="none" stroke="#000" stroke-miterlimit="10" stroke-width=".39733617000000004" d="m115.004 124.645-17.973 9.882 17.973 9.883Zm0 0"/></g><g clip-path="url(#i)"><path fill="none" stroke="#000" stroke-miterlimit="10" stroke-width=".7936765100000001" d="M132.215 121.691h25.676v25.672h-25.676Zm0 0"/></g><g clip-path="url(#j)"><path fill="none" stroke="#000" stroke-miterlimit="10" stroke-width=".39733617000000004" d="M154.039 134.527c0-4.96-4.023-8.984-8.988-8.984a8.986 8.986 0 0 0-8.985 8.984 8.986 8.986 0 0 0 8.985 8.985c4.965 0 8.988-4.024 8.988-8.985Zm0 0"/></g><path fill="none" stroke="#000" stroke-miterlimit="10" stroke-width=".39733617000000004" d="m138.7 128.172 12.706 12.71m0-12.71-12.707 12.71M145.05 26.07V73.88m0 0v47.812"/><path d="M145.05 30.27h1.977l-1.976-4.2-1.977 4.2ZM145.05 117.492h-1.976l1.977 4.2 1.976-4.2Zm0 0"/><path fill="none" stroke="#000" stroke-miterlimit="10" stroke-width=".39733617000000004" d="M168.762 65.629h8.574m-8.574 16.504h8.574m22.601-8.254h-8.574"/><path fill="#FFF" stroke="#000" stroke-miterlimit="10" stroke-width=".39733617000000004" d="M175.754 65.629a1.58 1.58 0 1 1 3.16-.003 1.58 1.58 0 0 1-3.16.003ZM175.754 82.133a1.58 1.58 0 1 1 3.16-.003 1.58 1.58 0 0 1-3.16.003ZM189.781 73.879a1.582 1.582 0 0 1 3.164 0 1.583 1.583 0 0 1-3.164 0Zm0 0"/><path fill="none" stroke="#000" stroke-miterlimit="10" stroke-width=".7936765100000001" d="m189.781 73.879-12.035-6.258"/><use xlink:href="#b" x="178.886" y="62.454"/><use xlink:href="#c" x="184.467" y="62.454"/><use xlink:href="#d" x="179.034" y="91.468"/><use xlink:href="#c" x="184.32" y="91.468"/><path fill="none" stroke="#000" stroke-miterlimit="10" stroke-width=".39733617000000004" d="M157.89 13.23h10.872V65.63M157.89 134.527h10.872V82.133"/><g clip-path="url(#k)"><path fill="none" stroke="#000" stroke-miterlimit="10" stroke-width=".7936765100000001" d="M199.937 61.043h25.672v25.672h-25.672Zm0 0"/></g><use xlink:href="#l" x="206.468" y="76.276"/><use xlink:href="#m" x="210.579" y="76.276"/><use xlink:href="#n" x="214.92" y="76.276"/><path fill="none" stroke="#000" stroke-miterlimit="10" stroke-width=".7936765100000001" d="M54.145 61.043H79.82v25.672H54.145Zm0 0"/><path fill="none" stroke="#000" stroke-miterlimit="10" stroke-width=".39733617000000004" d="M68.586 68.102c.523-.82 1.023-1.602 1.605-1.602s1.082.781 1.606 1.602c.523.824 1.023 1.605 1.605 1.605.578 0 1.082-.781 1.602-1.605M68.586 71.313c.523-.82 1.023-1.606 1.605-1.606s1.082.785 1.606 1.606c.523.82 1.023 1.605 1.605 1.605.578 0 1.082-.785 1.602-1.605M68.586 74.523c.523-.824 1.023-1.605 1.605-1.605s1.082.781 1.606 1.605c.523.82 1.023 1.602 1.605 1.602.578 0 1.082-.781 1.602-1.602"/><use xlink:href="#o" x="58.143" y="73.751"/><path fill="none" stroke="#000" stroke-miterlimit="10" stroke-width=".39733617000000004" d="M57.996 78.371H75.97M57.996 82.867H75.97v-2.57H57.996ZM57.996 84.793H75.97M79.82 73.879h19.778m25.675 0h19.778"/><path fill="none" stroke="#000" stroke-miterlimit="10" stroke-width=".7936765100000001" d="M99.598 61.043h25.675v25.672H99.598Zm0 0"/><path d="M95.398 73.879v1.976l4.2-1.976-4.2-1.977Zm0 0"/><path fill="none" stroke="#000" stroke-miterlimit="10" stroke-width=".39733617000000004" d="m99.598 86.715 25.675-25.672"/><use xlink:href="#p" x="104.426" y="71.006"/><use xlink:href="#q" x="115.979" y="82.558"/><path stroke="#000" stroke-miterlimit="10" stroke-width=".39733617000000004" d="M146.633 73.879a1.58 1.58 0 1 0-3.16.003 1.58 1.58 0 0 0 3.16-.003Zm0 0"/><use xlink:href="#q" x="54.897" y="56.691"/><use xlink:href="#r" x="59.362" y="56.691"/><use xlink:href="#s" x="63.826" y="56.691"/><use xlink:href="#t" x="65.675" y="56.691"/><use xlink:href="#t" x="70.139" y="56.691"/><use xlink:href="#t" x="74.604" y="56.691"/><use xlink:href="#u" x="57.71" y="96.052"/><use xlink:href="#v" x="65.576" y="96.052"/><use xlink:href="#w" x="72.326" y="96.052"/><use xlink:href="#x" x="202.091" y="57.762"/><use xlink:href="#r" x="206.556" y="57.762"/><use xlink:href="#y" x="211.02" y="57.762"/><use xlink:href="#q" x="214.52" y="57.762"/><use xlink:href="#z" x="218.985" y="57.762"/><use xlink:href="#u" x="203.497" y="96.052"/><use xlink:href="#v" x="211.364" y="96.052"/><use xlink:href="#w" x="218.114" y="96.052"/></svg>