<svg xmlns="http://www.w3.org/2000/svg" width="113.386" height="66.714"><defs><clipPath id="a"><path d="M22 .04h90.773v66.35H22Zm0 0"/></clipPath></defs><g clip-path="url(#a)"><path fill="none" stroke="#000" stroke-miterlimit="10" stroke-width=".39684939" d="M28.293 33.21s0 .005 0 0q.005 0 .016-.003a.3.3 0 0 0 .058-.027c.024-.016.078-.043.133-.082s.164-.118.262-.203c.101-.086.293-.254.453-.415s.46-.472.695-.738c.238-.262.672-.77 1.004-1.172.328-.402.926-1.156 1.367-1.718.442-.563 1.239-1.602 1.817-2.34.578-.742 1.609-2.078 2.351-2.989.746-.91 2.07-2.52 3.016-3.578.945-1.054 2.62-2.882 3.805-4.03 1.187-1.15 3.28-3.09 4.734-4.255 1.453-1.16 4.008-3.05 5.75-4.12 1.738-1.071 4.777-2.731 6.793-3.587 2.015-.855 5.488-2.062 7.73-2.574C70.52.87 74.32.332 76.7.285c2.38-.05 6.352.246 8.735.746s6.222 1.774 8.437 2.864c2.219 1.09 5.672 3.34 7.547 4.988s4.613 4.781 5.977 6.89c1.359 2.114 3.117 5.915 3.835 8.336.72 2.418 1.348 6.578 1.348 9.102 0 2.527-.629 6.687-1.348 9.105-.718 2.422-2.472 6.223-3.835 8.336-1.364 2.11-4.106 5.243-5.985 6.891-1.875 1.648-5.32 3.898-7.539 4.988-2.215 1.09-6.059 2.364-8.437 2.864-2.383.5-6.348.8-8.727.75-2.383-.047-6.187-.59-8.43-1.102-2.242-.508-5.718-1.719-7.734-2.574-2.016-.852-5.05-2.512-6.79-3.582s-4.296-2.961-5.75-4.121c-1.452-1.164-3.546-3.102-4.73-4.254-1.187-1.149-2.859-2.977-3.808-4.032-.945-1.054-2.27-2.668-3.016-3.578-.742-.914-1.773-2.246-2.351-2.988-.578-.738-1.375-1.777-1.817-2.34s-1.039-1.316-1.367-1.719c-.332-.402-.766-.91-1.004-1.175a21 21 0 0 0-.695-.735 8 8 0 0 0-.453-.414 3 3 0 0 0-.262-.203c-.055-.039-.11-.066-.133-.082a.3.3 0 0 0-.058-.027q-.011-.005-.016-.004v-.004"/></g><path fill="none" stroke="#000" stroke-miterlimit="10" stroke-width=".39684939" d="M28.293 33.21q-.002.006-.004.005-.007.001-.02.008c-.007.007-.027.015-.046.027-.016.016-.055.04-.086.07a2 2 0 0 0-.153.137c-.05.055-.152.156-.23.246-.078.086-.223.258-.336.39-.11.134-.309.387-.453.575-.149.187-.414.531-.606.777-.195.246-.539.692-.785.996-.25.305-.691.84-1.004 1.192-.316.355-.875.96-1.27 1.347a26 26 0 0 1-1.577 1.415c-.485.39-1.336 1.02-1.918 1.375-.578.355-1.59.91-2.262 1.195s-1.832.687-2.578.86c-.746.167-2.016.347-2.809.363-.793.019-2.117-.083-2.91-.247-.793-.168-2.074-.593-2.812-.957-.739-.363-1.891-1.113-2.516-1.66-.625-.55-1.54-1.594-1.992-2.3-.453-.704-1.04-1.97-1.278-2.778C.406 35.441.2 34.055.2 33.211c0-.84.207-2.227.45-3.031.238-.809.824-2.075 1.277-2.778.453-.707 1.367-1.75 1.992-2.3.629-.547 1.777-1.297 2.516-1.66.738-.364 2.02-.79 2.812-.958.793-.168 2.117-.265 2.91-.25s2.063.2 2.809.368c.746.171 1.906.574 2.578.859s1.684.84 2.262 1.195c.582.356 1.433.985 1.918 1.375a26 26 0 0 1 1.578 1.414c.394.383.953.992 1.27 1.344.312.352.753.89 1.003 1.195.246.305.59.746.785.996.192.247.457.59.606.778.144.187.344.441.453.574.113.133.258.305.336.39.078.09.18.192.23.247.055.054.118.11.153.136.031.032.07.055.086.07.02.013.039.02.047.028q.012.007.02.008h.003c0 .004 0 0 0 0"/><path fill="none" stroke="#000" stroke-miterlimit="10" stroke-width="1.18955356" d="M28.293 47.262V19.164"/></svg>