<svg xmlns="http://www.w3.org/2000/svg" xmlns:xlink="http://www.w3.org/1999/xlink" width="168.818" height="109.436"><defs><path id="b" d="M1.578 1.563c-.094.156-.281.265-.406.265s-.156-.062-.219-.156c-.078-.11-.25-.281-.437-.281-.25 0-.344.172-.344.328 0 .187.219.406.828.406.36 0 .75-.187 1.031-.562.25-.344.453-1.032.797-2.72.14-.702.281-1.421.422-2.171l.031-.156h.828c.079 0 .204-.032.235-.11l.031-.187c0-.031-.016-.047-.062-.047h-.97l.095-.516c.124-.656.25-1.062.374-1.297.141-.25.25-.328.36-.328.14 0 .156.078.187.25.047.188.11.422.391.422.266 0 .328-.203.328-.281 0-.344-.297-.656-.828-.656-.187 0-.437.109-.61.25-.28.234-.656.562-1 2.156l-.593.031c-.156 0-.235.078-.25.14 0 .032-.031.141-.031.157s.015.016.046.016h.75c-.218 1.015-.25 1.562-.374 2.218-.141.86-.282 2.313-.61 2.829m0 0"/><path id="c" d="M4.516.016c.14-.5.343-1.032.53-1.485l-.265-.047c-.297.641-.64 1.172-1.297 1.172h-2c-.14 0-.203-.047-.187-.125a.6.6 0 0 1 .11-.172l4.109-4.625c.234-.28.297-.421.297-.5 0-.062-.032-.078-.172-.078-.11 0-.297.063-.563.094h-2.75c-.406 0-.36-.094-.672-.125a13 13 0 0 1-.484 1.5l.25.031c.312-.61.547-1.047 1.187-1.047h1.97c.062 0 .093.016.077.063a.6.6 0 0 1-.093.156L.297-.344C.234-.28.172-.172.172-.109c0 .078.047.109.156.109h3.11c.234 0 1.078.016 1.078.016m0 0"/><clipPath id="a"><path d="M159 87h9.293v15H159Zm0 0"/></clipPath></defs><path fill="none" stroke="#000" stroke-miterlimit="10" stroke-width=".39695313000000004" d="M11.453 94.379h153.192"/><path d="m167.703 94.379-2.96-1.754v3.512Zm0 0"/><g clip-path="url(#a)"><path fill="none" stroke="#000" stroke-miterlimit="10" stroke-width=".39695313000000004" d="m167.703 94.379-2.96-1.754v3.512Zm0 0"/></g><use xlink:href="#b" x="161.169" y="103.779"/><path fill="none" stroke="#000" stroke-miterlimit="10" stroke-width=".39695313000000004" d="M11.453 94.379V3.848"/><path stroke="#000" stroke-miterlimit="10" stroke-width=".39695313000000004" d="M11.453.793 9.7 3.75h3.512Zm0 0"/><use xlink:href="#c" x="3.315" y="9.437"/><path fill="none" stroke="#000" stroke-miterlimit="10" stroke-width=".7929113900000001" d="m49.05 92.813 7.915-4.145c13.797-7.227 26.289-25.64 27.902-41.133l1.988-19.09c1.614-15.492 4.231-15.492 5.844 0l1.989 19.09c1.613 15.492 13.984 34.133 27.628 41.637l6.622 3.64"/></svg>