<svg xmlns="http://www.w3.org/2000/svg" xmlns:xlink="http://www.w3.org/1999/xlink" width="221.309" height="140.747"><defs><clipPath id="a"><path d="M211 118h9.621v16H211Zm0 0"/></clipPath><clipPath id="c"><path d="M9 .094h4V4H9Zm0 0"/></clipPath><clipPath id="d"><path d="M3 .094h16V10H3Zm0 0"/></clipPath><clipPath id="f"><path d="M0 .094h127V138H0Zm0 0"/></clipPath><clipPath id="g"><path d="M104 .094h116.621V138H104Zm0 0"/></clipPath><clipPath id="h"><path d="M115 .094h1V127h-1Zm0 0"/></clipPath><path id="b" d="M1.578 1.563c-.094.156-.266.265-.406.265-.125 0-.156-.062-.219-.14-.078-.125-.25-.297-.437-.297-.25 0-.344.172-.344.328 0 .187.219.406.828.406.375 0 .766-.172 1.031-.562.25-.344.453-1.032.797-2.72.14-.702.297-1.421.422-2.171l.031-.156h.828c.079 0 .22-.032.235-.11 0 0 .047-.187.047-.203 0-.015-.016-.031-.063-.031h-.984l.094-.516c.14-.672.265-1.078.39-1.312.125-.25.25-.328.36-.328.125 0 .14.078.187.25.031.187.11.422.39.422.25 0 .313-.204.313-.282 0-.343-.281-.64-.828-.64-.187 0-.422.093-.61.234-.28.234-.656.578-1 2.172l-.578.015c-.171.016-.234.079-.25.157a1 1 0 0 0-.046.156c0 .016.015.016.046.016h.75c-.218 1.015-.25 1.547-.359 2.218-.14.86-.297 2.313-.625 2.829m0 0"/><path id="e" d="M1.828.094c1.75 0 2.375-1.14 2.672-2.735l.484-2.453c.047-.25.188-.39.563-.406l.219-.016c.046 0 .078-.03.078-.078l.031-.172-.016-.015c-.406 0-.75.015-.937.015-.203 0-.547-.015-.938-.015l-.03.015-.032.172c0 .047.031.078.062.078l.22.016c.296.016.405.094.405.281 0 .032 0 .078-.015.125l-.516 2.625c-.187 1-.547 2.188-2 2.188-.422 0-.734-.188-.937-.438C.953-.969.906-1.25.906-1.53s.047-.594.11-.875L1.53-5.11c.063-.25.203-.375.563-.391l.219-.016c.046 0 .078-.03.078-.078l.046-.172-.03-.015c-.391 0-.75.015-1.094.015S.64-5.78.234-5.78l-.03.015-.032.172c0 .047.031.078.062.078l.22.016c.28.016.405.078.405.266 0 .046 0 .078-.015.125l-.578 3a3 3 0 0 0-.063.625c0 1.28.953 1.578 1.625 1.578m0 0"/></defs><path fill="none" stroke="#000" stroke-miterlimit="10" stroke-width=".39775911" d="M10.91 125.879h205.856"/><path d="m219.828 125.879-2.965-1.758v3.516Zm0 0"/><g clip-path="url(#a)"><path fill="none" stroke="#000" stroke-miterlimit="10" stroke-width=".39775911" d="m219.828 125.879-2.965-1.758v3.516Zm0 0"/></g><use xlink:href="#b" x="213.282" y="135.296"/><path fill="none" stroke="#000" stroke-miterlimit="10" stroke-width=".39775911" d="M10.91 125.879V3.75"/><g clip-path="url(#c)"><path d="M10.91.688 9.152 3.652h3.516Zm0 0"/></g><g clip-path="url(#d)"><path fill="none" stroke="#000" stroke-miterlimit="10" stroke-width=".39775911" d="M10.91.688 9.152 3.652h3.516Zm0 0"/></g><use xlink:href="#e" x="2.979" y="9.253"/><g clip-path="url(#f)"><path fill="none" stroke="#000" stroke-miterlimit="10" stroke-width=".7945213300000001" d="M10.91 125.879h6.805c7.8 0 16.957-5.66 20.445-12.637l43.485-86.965c1.394-2.793 3.886-7.191 5.562-9.824.375-.59 3.64-5.699 7.43-5.699s7.054 5.11 10.465 10.469c3.414 5.355 6.68 10.465 10.468 10.465"/></g><g clip-path="url(#g)"><path fill="none" stroke="#000" stroke-miterlimit="10" stroke-width=".7945213300000001" d="M220.226 125.879h-6.804c-7.801 0-16.957-5.66-20.446-12.637l-43.484-86.965c-1.394-2.793-3.887-7.191-5.562-9.824-.375-.59-3.641-5.699-7.43-5.699-3.79 0-7.055 5.11-10.465 10.469-3.414 5.355-6.68 10.465-10.465 10.465"/></g><g clip-path="url(#h)"><path fill="none" stroke="#000" stroke-dasharray="2.9795347387000004 2.9795347387000004" stroke-miterlimit="10" stroke-width=".39775911" d="M115.57 125.879V.289"/></g></svg>