<svg xmlns="http://www.w3.org/2000/svg" xmlns:xlink="http://www.w3.org/1999/xlink" width="226.967" height="109.552"><defs><path id="c" d="M3-4.11q.047.504.047.704c0 .18-.059.265-.172.265a.24.24 0 0 1-.125-.03l-.156-.626H1.25v1.64h1.328v.329H1.25v1.5l.469.078q.077.033.078.078c0 .012-.024.07-.063.172H.281v-.047q0-.17.188-.219l.265-.062v-3.469L.36-3.875q-.08-.014-.078-.062 0-.06.063-.172Zm0 0"/><path id="d" d="m4-.328-.047-2.813h-.015L2.688-.047h-.329L1.125-3.172 1.063-.328l.406.078q.093.033.093.078Q1.56-.153 1.5 0H.266A.1.1 0 0 1 .25-.047q-.001-.17.203-.219L.72-.328l.047-3.469-.375-.078q-.08-.014-.079-.062 0-.06.063-.172h.938L2.609-.83h.016l1.328-3.28h1v.062q-.002.14-.203.188l-.266.062.047 3.469.407.078q.077.033.078.078c0 .012-.024.07-.063.172H3.547v-.047q-.001-.17.203-.219Zm0 0"/><path id="f" d="M5.86-2.906a.2.2 0 0 1 .015.078q0 .236-.312.312l-.204.047v1.89C4.867-.116 4.15.11 3.203.11q-1.207 0-1.937-.765Q.469-1.5.469-3.062q0-1.606 1.031-2.485.855-.733 2.11-.734.59.002 1.078.156.044.019.593.219.047.657.047.922-.001.408-.266.406a.44.44 0 0 1-.203-.047l-.187-.86q-.44-.264-1.11-.265-.953.002-1.562.594-.703.702-.703 2.015c0 .875.195 1.555.594 2.032.375.46.882.687 1.53.687.438 0 .821-.07 1.157-.219v-1.796l-.547-.126q-.127-.011-.125-.093 0-.076.094-.25Zm0 0"/><path id="g" d="M6.266-6.172c.007.031.015.059.015.078q0 .236-.312.313l-.422.093V0h-.531l-3.36-5.187h-.015v4.703l.609.125q.124.017.125.093 0 .048-.094.266H.421a.16.16 0 0 1-.015-.078Q.404-.324.72-.406l.375-.078v-5.203l-.547-.125c-.086-.02-.125-.055-.125-.11q0-.075.094-.25h1.422L5-1.437h.016v-4.25l-.563-.125c-.086-.02-.125-.055-.125-.11q-.001-.075.11-.25Zm0 0"/><path id="h" d="M4.5-6.172q.062.751.063 1.063c0 .261-.086.39-.25.39a.5.5 0 0 1-.188-.031l-.219-.937H1.875v2.437h1.984v.5H1.875v2.266l.703.125q.124.017.125.093 0 .048-.094.266H.422a.16.16 0 0 1-.016-.078Q.404-.324.72-.406l.375-.078v-5.203l-.547-.125c-.086-.02-.125-.055-.125-.11q0-.075.094-.25Zm0 0"/><path id="i" d="M2.594-6.172v.078c0 .157-.102.262-.297.313l-.422.093v2.266h2.984v-2.265l-.546-.125c-.086-.02-.125-.055-.125-.11q0-.075.093-.25H6.36v.078q-.002.236-.296.313l-.422.093v5.204l.609.125q.124.017.125.093 0 .048-.094.266H4.188a.16.16 0 0 1-.016-.078c0-.164.101-.274.312-.328l.375-.078v-2.407H1.875v2.407L2.5-.36q.124.017.125.093c0 .032-.04.121-.11.266H.423a.16.16 0 0 1-.016-.078Q.404-.324.72-.406l.375-.078v-5.203l-.547-.125c-.086-.02-.125-.055-.125-.11q0-.075.094-.25Zm0 0"/><path id="j" d="M5.844-6.172v.078c0 .168-.102.278-.297.328l-.234.047L3.28 0h-.734L.453-5.703l-.375-.094q-.124-.03-.125-.125c0-.05.035-.133.094-.25H2.03c.008.031.016.059.016.078 0 .168-.102.274-.297.313l-.375.093 1.64 4.782h.016L4.734-5.72l-.687-.093q-.127-.029-.125-.11c0-.039.031-.125.094-.25Zm0 0"/><path id="k" d="M3.266-.39q.92 0 1.453-.72c.351-.476.531-1.132.531-1.968q0-1.248-.562-1.969-.552-.733-1.454-.734-.907.001-1.421.734-.516.72-.516 1.969 0 1.254.531 1.969.528.719 1.438.718m-.047.5q-1.22 0-1.969-.813Q.467-1.56.469-3.078q0-1.512.844-2.375.761-.827 2.015-.828 1.247 0 1.985.828c.507.562.765 1.355.765 2.375q0 1.501-.828 2.375-.784.813-2.031.812m0 0"/><path id="l" d="M6.016-.484 5.937-4.72h-.015l-1.89 4.64h-.485L1.703-4.75h-.016L1.595-.484l.625.125q.124.017.125.093 0 .048-.094.266H.39v-.078Q.39-.324.689-.406l.39-.078.063-5.203-.547-.125c-.086-.02-.125-.055-.125-.11q0-.075.094-.25h1.406L3.922-1.25h.015l1.985-4.922h1.516v.078c0 .157-.102.262-.297.313l-.422.093.078 5.204.61.125q.123.017.124.093 0 .048-.093.266h-2.11v-.078q0-.246.297-.328Zm0 0"/><path id="m" d="M2.344.11Q1.512.111.984-.438C.586-.832.391-1.383.391-2.094q0-1.061.656-1.719a2.07 2.07 0 0 1 1.469-.578q.843 0 1.359.516.576.596.578 1.688 0 1.078-.656 1.718A2 2 0 0 1 2.344.11m.062-.5q.562 0 .906-.422.36-.468.36-1.329 0-.857-.36-1.343a1.1 1.1 0 0 0-.906-.438c-.367 0-.656.149-.875.438q-.361.469-.36 1.343-.002.861.36 1.329c.219.28.508.421.875.421m0 0"/><path id="n" d="M3.422-.516H3.39Q2.935.11 2.109.11 1.39.11.922-.359.39-.903.39-2.016q0-1.168.703-1.812.609-.563 1.5-.563c.27 0 .523.04.765.11v-1.657l-.656-.093v-.078q0-.247.328-.266l1.047-.11v6l.656.079q.014.047.016.078 0 .252-.328.281l-1 .094Zm-1.094.047q.64 0 1.031-.39v-2.72c-.218-.206-.507-.312-.859-.312-.398 0-.719.149-.969.438q-.39.468-.39 1.312-.001.846.343 1.282.294.39.844.39m0 0"/><path id="o" d="m.781-3.797-.64-.094a.1.1 0 0 1-.016-.062q0-.246.328-.281l1.063-.11v2.813q0 1.048.89 1.047.686 0 1.11-.438v-2.875l-.657-.094a.1.1 0 0 1-.015-.062q-.001-.246.344-.281l1.046-.11v3.86l.657.078v.078q0 .252-.328.281l-1 .094v-.578h-.016c-.344.43-.793.64-1.344.64Q.78.11.781-1.5Zm0 0"/><path id="p" d="M.86-.469v-5.468l-.641-.094a.16.16 0 0 1-.016-.078q0-.247.328-.266l1.063-.11v6.016l.531.125q.124.017.125.11A.35.35 0 0 1 2.156 0H.266v-.062c0-.133.086-.235.265-.297Zm0 0"/><path id="q" d="M2.656-2.781q0-.591-.172-.86-.175-.28-.609-.28a1.5 1.5 0 0 0-.531.093q-.11.22-.203.781a2 2 0 0 1-.188.016q-.438 0-.437-.39 0-.405.468-.688a1.97 1.97 0 0 1 1.032-.282q1.373 0 1.375 1.5v1.97c0 .335.101.5.312.5q.2 0 .313-.11a.38.38 0 0 1 .093.25c0 .062-.058.133-.171.203a.87.87 0 0 1-.532.156q-.628 0-.687-.61h-.016Q2.28.112 1.47.11.966.11.656-.203.343-.514.344-1.031c0-.438.219-.774.656-1.016.383-.195.86-.297 1.422-.297h.234Zm-.89 2.328q.498 0 .89-.469v-1.031l-.234.016q-1.299.11-1.297.812c0 .45.21.672.64.672m0 0"/><path id="r" d="m.86-4.297.171-1.187h.532v1.187H2.89l-.079.469h-1.25v2.75q0 .674.579.672.435 0 .734-.235.062.095.063.266 0 .112-.235.266-.33.217-.828.218Q.827.11.828-.92v-2.907H.156a.1.1 0 0 1-.015-.063q0-.216.28-.296Zm0 0"/><path id="s" d="M.906-.469v-3.328l-.64-.094a.1.1 0 0 1-.016-.062q0-.246.328-.281l1.063-.11-.063.75h.031c.352-.531.735-.797 1.141-.797.395 0 .594.149.594.438q0 .188-.14.375a1.5 1.5 0 0 0-.595-.14q-.61 0-.968.515V-.47l.625.125q.124.017.125.11A.35.35 0 0 1 2.297 0H.312a.1.1 0 0 1-.015-.062c0-.133.094-.235.281-.297Zm0 0"/><path id="t" d="M2.031-.578V-5l-1.344.25a1 1 0 0 1-.015-.187c0-.133.07-.227.219-.282l1.468-.593h.454v5.234l1.078.172q.14.016.14.11-.002.08-.11.296H.86v-.078q0-.311.282-.36Zm0 0"/><path id="u" d="m.422-.453 1.516-1.734q.874-1.015.875-2c0-.833-.305-1.25-.907-1.25q-.345 0-.703.187a3.3 3.3 0 0 0-.125.875q-.11.017-.203.016-.422 0-.422-.344 0-.545.422-.875.42-.342 1.156-.344.715 0 1.172.422.451.408.453 1.156 0 .675-.422 1.36-.268.44-.906 1.125L1.344-.797v.016h2.031l.188-.781a.5.5 0 0 1 .187-.032q.234.002.234.344c0 .242-.03.656-.093 1.25H.5Zm0 0"/><path id="v" d="M1.39-3.156c1.008-.114 1.516-.516 1.516-1.203Q2.905-5.438 2-5.437q-.41.002-.703.203-.11.362-.11.812a.7.7 0 0 1-.218.031c-.281 0-.422-.117-.422-.359q-.001-.516.437-.844.45-.328 1.188-.328.714 0 1.125.375.406.375.406 1.031 0 .628-.422 1.016-.28.284-.89.484V-3q.702.11 1.093.484c.258.243.391.547.391.922q-.001.738-.547 1.219Q2.78.11 1.891.109C1.41.11 1.05.012.813-.17Q.53-.374.53-.672q0-.406.39-.548c.102.23.204.399.298.5q.293.328.828.328c.664 0 1-.351 1-1.062 0-.738-.555-1.149-1.656-1.234Zm0 0"/><path id="w" d="m.125-1.984 2.531-3.797.672-.063v3.64h.75l-.047.688h-.703v1.032l.61.125q.123.017.124.093 0 .048-.093.266H1.906v-.078q0-.246.297-.328l.39-.078v-1.032H.157Zm.734-.22h1.735V-4.89h-.016L.86-2.219Zm0 0"/><clipPath id="a"><path d="M.445 22H26v36H.445Zm0 0"/></clipPath><clipPath id="b"><path d="M.445 33H2v15H.445Zm0 0"/></clipPath><clipPath id="e"><path d="M201 0h25.488v25H201Zm0 0"/></clipPath></defs><g clip-path="url(#a)"><path fill="none" stroke="#000" stroke-miterlimit="10" stroke-width=".7937562100000001" d="M7.469 33.523a6.623 6.623 0 0 0-6.625 6.625 6.626 6.626 0 1 0 6.625-6.625Zm0 0"/></g><g clip-path="url(#b)"><path fill="none" stroke="#000" stroke-miterlimit="10" stroke-width=".7937562100000001" d="M.844 46.773v-13.25"/></g><path fill="none" stroke="#000" stroke-miterlimit="10" stroke-width=".39737607" d="M14.094 40.148h4.73m0 0h4.735"/><path d="M19.36 40.148v1.977l4.199-1.977-4.2-1.976Zm0 0"/><path fill="none" stroke="#000" stroke-miterlimit="10" stroke-width=".7937562100000001" d="M23.559 30.871h18.55v18.55H23.56Zm0 0"/><path fill="none" stroke="#000" stroke-miterlimit="10" stroke-width=".39737607" d="m26.34 33.004 12.984 7.144L26.34 47.29ZM42.11 40.148h4.73m0 0h4.734"/><path d="M47.375 40.148v1.977l4.2-1.977-4.2-1.976Zm0 0"/><path fill="none" stroke="#000" stroke-miterlimit="10" stroke-width=".7937562100000001" d="M51.574 30.871h18.551v18.55h-18.55Zm0 0"/><path fill="none" stroke="#000" stroke-miterlimit="10" stroke-width=".39737607" d="M56.21 35.512c.759-1.188 1.481-2.32 2.321-2.32s1.563 1.132 2.317 2.32c.757 1.187 1.48 2.316 2.32 2.316s1.562-1.129 2.32-2.316m-3.25-1.395-2.781 2.785M56.21 40.148c.759-1.187 1.481-2.32 2.321-2.32s1.563 1.133 2.317 2.32c.757 1.188 1.48 2.317 2.32 2.317s1.562-1.13 2.32-2.317M56.21 44.785c.759-1.187 1.481-2.32 2.321-2.32s1.563 1.133 2.317 2.32c.757 1.188 1.48 2.32 2.32 2.32s1.562-1.132 2.32-2.32m-3.25-1.39-2.781 2.78M70.125 40.148h4.73m0 0h4.735"/><path d="M75.39 40.148v1.977l4.2-1.977-4.2-1.976Zm0 0"/><path fill="none" stroke="#000" stroke-miterlimit="10" stroke-width=".7937562100000001" d="M79.59 30.871h18.55v18.55H79.59Zm0 0"/><path fill="none" stroke="#000" stroke-miterlimit="10" stroke-width=".39737607" d="M84.227 35.512c.757-1.188 1.48-2.32 2.32-2.32s1.562 1.132 2.316 2.32c.758 1.187 1.48 2.316 2.32 2.316s1.563-1.129 2.32-2.316"/><use xlink:href="#c" x="84.648" y="45.448"/><use xlink:href="#d" x="87.833" y="45.448"/><path fill="none" stroke="#000" stroke-miterlimit="10" stroke-width=".39737607" d="M98.14 40.148h4.731m0 0h4.734"/><path d="M103.406 40.148v1.977l4.2-1.977-4.2-1.976Zm0 0"/><path fill="none" stroke="#000" stroke-miterlimit="10" stroke-width=".7937562100000001" d="M107.605 30.871h18.551v18.55h-18.55Zm0 0"/><path fill="none" stroke="#000" stroke-miterlimit="10" stroke-width=".39737607" d="M123.371 40.148a6.49 6.49 0 0 0-6.492-6.492 6.49 6.49 0 0 0-6.492 6.492 6.49 6.49 0 0 0 6.492 6.493 6.49 6.49 0 0 0 6.492-6.493ZM112.289 35.559l9.184 9.18m0-9.18-9.184 9.18M126.156 40.148h4.73m0 0h4.735"/><path d="M131.422 40.148v1.977l4.2-1.977-4.2-1.976Zm0 0"/><path fill="none" stroke="#000" stroke-miterlimit="10" stroke-width=".7937562100000001" d="M135.621 30.871h18.55v18.55h-18.55Zm0 0"/><path fill="none" stroke="#000" stroke-miterlimit="10" stroke-width=".39737607" d="M140.258 35.512c.758-1.188 1.48-2.32 2.32-2.32s1.563 1.132 2.316 2.32c.758 1.187 1.481 2.316 2.32 2.316.84 0 1.563-1.129 2.321-2.316m-3.25-1.395-2.781 2.785M140.258 40.148c.758-1.187 1.48-2.32 2.32-2.32s1.563 1.133 2.316 2.32c.758 1.188 1.481 2.317 2.32 2.317.84 0 1.563-1.13 2.321-2.317M140.258 44.785c.758-1.187 1.48-2.32 2.32-2.32s1.563 1.133 2.316 2.32c.758 1.188 1.481 2.32 2.32 2.32.84 0 1.563-1.132 2.321-2.32m-3.25-1.39-2.781 2.78M154.172 40.148h4.73m0 0h4.735"/><path d="M159.438 40.148v1.977l4.199-1.977-4.2-1.976Zm0 0"/><path fill="none" stroke="#000" stroke-miterlimit="10" stroke-width=".7937562100000001" d="M163.637 30.871h18.55v18.55h-18.55Zm0 0"/><path fill="none" stroke="#000" stroke-miterlimit="10" stroke-width=".39737607" d="m166.418 33.004 12.984 7.144-12.984 7.141ZM182.187 40.148h4.73m0 0h4.735"/><path d="M187.453 40.148v1.977l4.2-1.977-4.2-1.976Zm0 0"/><path fill="none" stroke="#000" stroke-miterlimit="10" stroke-width=".7937562100000001" d="M191.652 30.871h18.551v18.55h-18.55Zm0 0"/><path fill="none" stroke="#000" stroke-miterlimit="10" stroke-width=".39737607" d="M196.289 35.512c.758-1.188 1.48-2.32 2.32-2.32s1.563 1.132 2.317 2.32c.758 1.187 1.48 2.316 2.32 2.316s1.563-1.129 2.32-2.316m-3.25-1.395-2.78 2.785M196.289 40.148c.758-1.187 1.48-2.32 2.32-2.32s1.563 1.133 2.317 2.32c.758 1.188 1.48 2.317 2.32 2.317s1.563-1.13 2.32-2.317M196.289 44.785c.758-1.187 1.48-2.32 2.32-2.32s1.563 1.133 2.317 2.32c.758 1.188 1.48 2.32 2.32 2.32s1.563-1.132 2.32-2.32m-3.25-1.39-2.78 2.78M210.203 40.148h4.73m0 0h4.735M219.469 40.148V.395"/><g clip-path="url(#e)"><path fill="none" stroke="#000" stroke-miterlimit="10" stroke-width=".7937562100000001" d="M219.469.395h6.625l-6.625 13.253L212.844.395h6.625"/></g><path fill="none" stroke="#000" stroke-miterlimit="10" stroke-width=".39737607" d="M116.879 49.422v4.734m0 0v4.73"/><path d="M116.879 53.621h1.976l-1.976-4.2-1.977 4.2Zm0 0"/><path fill="none" stroke="#000" stroke-miterlimit="10" stroke-width=".7937562100000001" d="M107.605 58.887h18.551v18.55h-18.55Zm0 0"/><path fill="none" stroke="#000" stroke-miterlimit="10" stroke-width=".39737607" d="M118.039 63.988c.379-.593.738-1.156 1.16-1.156.418 0 .781.563 1.16 1.156.38.594.739 1.16 1.16 1.16.418 0 .782-.566 1.157-1.16M118.039 66.309c.379-.594.738-1.16 1.16-1.16.418 0 .781.566 1.16 1.16.38.593.739 1.16 1.16 1.16.418 0 .782-.567 1.157-1.16M118.039 68.629c.379-.594.738-1.16 1.16-1.16.418 0 .781.566 1.16 1.16.38.594.739 1.156 1.16 1.156.418 0 .782-.562 1.157-1.156"/><use xlink:href="#f" x="109.642" y="68.925"/><path fill="none" stroke="#000" stroke-miterlimit="10" stroke-width=".39737607" d="M110.387 71.41h12.984M110.387 74.656h12.984v-1.855h-12.984ZM110.387 76.047h12.984"/><use xlink:href="#g" x="27.145" y="58.76"/><use xlink:href="#h" x="33.744" y="58.76"/><use xlink:href="#i" x="167.145" y="58.76"/><use xlink:href="#h" x="173.896" y="58.76"/><use xlink:href="#g" x="55.16" y="58.76"/><use xlink:href="#h" x="61.759" y="58.76"/><use xlink:href="#i" x="139.13" y="58.76"/><use xlink:href="#h" x="145.881" y="58.76"/><use xlink:href="#i" x="195.16" y="58.76"/><use xlink:href="#h" x="201.911" y="58.76"/><use xlink:href="#j" x="108.329" y="86.882"/><use xlink:href="#h" x="114.115" y="86.882"/><use xlink:href="#k" x="118.893" y="86.882"/><use xlink:href="#l" x="68.588" y="27.591"/><use xlink:href="#m" x="76.303" y="27.591"/><use xlink:href="#n" x="81.143" y="27.591"/><use xlink:href="#o" x="86.073" y="27.591"/><use xlink:href="#p" x="91.154" y="27.591"/><use xlink:href="#q" x="93.645" y="27.591"/><use xlink:href="#r" x="97.816" y="27.591"/><use xlink:href="#m" x="100.852" y="27.591"/><use xlink:href="#s" x="105.692" y="27.591"/><path fill="none" stroke="#000" stroke-dasharray="2.9766654619 2.9766654619" stroke-miterlimit="10" stroke-width=".39737607" d="M46.84 40.148v56.79"/><use xlink:href="#t" x="44.608" y="105.915"/><path fill="none" stroke="#000" stroke-dasharray="2.9766654619 2.9766654619" stroke-miterlimit="10" stroke-width=".39737607" d="M74.855 40.148v56.79"/><use xlink:href="#u" x="72.624" y="106.022"/><path fill="none" stroke="#000" stroke-dasharray="2.9766654619 2.9766654619" stroke-miterlimit="10" stroke-width=".39737607" d="M102.871 40.148v56.79"/><use xlink:href="#v" x="100.639" y="106.022"/><path fill="none" stroke="#000" stroke-dasharray="2.9766654619 2.9766654619" stroke-miterlimit="10" stroke-width=".39737607" d="M130.887 40.148v56.79"/><use xlink:href="#w" x="128.654" y="105.942"/></svg>