<svg xmlns="http://www.w3.org/2000/svg" xmlns:xlink="http://www.w3.org/1999/xlink" width="203.794" height="50.088"><defs><path id="b" d="m5.938-.484-.094-4.172h-.016L3.968-.078h-.484l-1.812-4.61h-.016L1.578-.484l.61.125q.123.034.124.093 0 .048-.093.266H.39a.16.16 0 0 1-.016-.078q0-.247.297-.313l.39-.093.063-5.125-.547-.125c-.086-.02-.125-.051-.125-.094q-.001-.075.11-.25h1.39l1.906 4.86h.016l1.969-4.86h1.484A.2.2 0 0 1 7.344-6c0 .156-.102.258-.297.297l-.422.094.078 5.125.61.125q.107.034.109.093 0 .048-.094.266H5.266a.16.16 0 0 1-.016-.078q0-.247.297-.313Zm0 0"/><path id="c" d="M2.563-6.078V-6c0 .156-.102.258-.297.297l-.422.094v2.25h2.953v-2.25l-.547-.125c-.086-.02-.125-.051-.125-.094q0-.075.094-.25h2.047A.2.2 0 0 1 6.28-6c0 .156-.105.258-.312.297l-.407.094v5.125l.61.125q.124.034.125.093c0 .032-.04.121-.11.266H4.126a.16.16 0 0 1-.016-.078q-.002-.247.313-.313l.375-.093v-2.36H1.844v2.36l.61.125q.123.034.124.093 0 .048-.094.266H.422a.16.16 0 0 1-.016-.078q0-.247.297-.313l.375-.093V-5.61l-.547-.125q-.11-.03-.11-.094 0-.075.095-.25Zm0 0"/><path id="d" d="M.453-3.36c0-.206.02-.5.063-.874H3.39q.03.082.03.187a.57.57 0 0 1-.093.297L1.125-.453v.016h1.719l.312-.891h.14q.249.001.25.266 0 .094-.124 1.062H.39a.598.598 0 0 1 0-.594L2.516-3.78v-.016H1.078l-.25.735h-.11q-.267 0-.265-.297m0 0"/><path id="e" d="M2.172-6.078V-6c0 .156-.102.262-.297.313l-.312.062 1.156 1.953h.015l1.25-1.969-.593-.093q-.127 0-.125-.094 0-.075.093-.25h1.782V-6c0 .168-.102.273-.297.313l-.297.062L3.03-3.203 4.687-.47l.422.11c.07.023.11.054.11.093q0 .048-.094.266h-1.86a.16.16 0 0 1-.015-.078q0-.247.297-.313l.281-.062-1.265-2.094h-.016L1.25-.453l.563.094q.124.034.125.093c0 .063-.04.153-.11.266H.047v-.078q0-.264.297-.328l.25-.047L2.25-3.016.656-5.609l-.422-.11c-.086-.02-.125-.054-.125-.11q0-.074.11-.25Zm0 0"/><clipPath id="a"><path d="M59 38h16v11.191H59Zm0 0"/></clipPath></defs><path fill="none" stroke="#E5E5E5" stroke-miterlimit="10" stroke-width="3.9137481999999997" d="M8.96 15.078h7.372"/><path fill="#E5E5E5" d="M9.941 17.035H7.004l-1.957-1.957 1.957-1.957H9.94ZM15.355 13.121h2.934l1.957 1.957-1.957 1.957h-2.934Zm0 0"/><path fill="none" stroke="#000" stroke-miterlimit="10" stroke-width="3.9137481999999997" d="M20.441 19.187v7.372"/><path d="M18.484 20.164V17.23l1.957-1.957 1.957 1.957v2.934ZM22.398 25.578v2.938l-1.957 1.957-1.957-1.957v-2.938Zm0 0"/><path fill="none" stroke="#000" stroke-miterlimit="10" stroke-width="3.9137481999999997" d="M20.441 34.777v7.371"/><path d="M18.484 35.754V32.82l1.957-1.957 1.957 1.957v2.934ZM22.398 41.168v2.937l-1.957 1.958-1.957-1.958v-2.937Zm0 0"/><path fill="none" stroke="#E5E5E5" stroke-miterlimit="10" stroke-width="3.9137481999999997" d="M16.332 46.258H8.961"/><path fill="#E5E5E5" d="M15.355 44.3h2.934l1.957 1.958-1.957 1.957h-2.934ZM9.941 48.215H7.004l-1.957-1.957L7.004 44.3H9.94Zm0 0"/><path fill="none" stroke="#E5E5E5" stroke-miterlimit="10" stroke-width="3.9137481999999997" d="M4.852 42.148v-7.37"/><path fill="#E5E5E5" d="M6.809 41.168v2.937l-1.957 1.958-1.957-1.958v-2.937ZM2.895 35.754V32.82l1.957-1.957 1.957 1.957v2.934Zm0 0"/><path fill="none" stroke="#E5E5E5" stroke-miterlimit="10" stroke-width="3.9137481999999997" d="M4.852 26.559v-7.372"/><path fill="#E5E5E5" d="M6.809 25.578v2.938l-1.957 1.957-1.957-1.957v-2.938ZM2.895 20.164V17.23l1.957-1.957 1.957 1.957v2.934Zm0 0"/><path fill="none" stroke="#E5E5E5" stroke-miterlimit="10" stroke-width="3.9137481999999997" d="M8.96 30.668h7.372"/><path fill="#E5E5E5" d="M9.941 32.625H7.004l-1.957-1.957 1.957-1.957H9.94ZM15.355 28.71h2.934l1.957 1.958-1.957 1.957h-2.934Zm0 0"/><path fill="none" stroke="#E5E5E5" stroke-miterlimit="10" stroke-width="3.9137481999999997" d="M30.422 15.078h7.371"/><path fill="#E5E5E5" d="M31.402 17.035h-2.937l-1.957-1.957 1.957-1.957h2.937ZM36.816 13.121h2.934l1.957 1.957-1.957 1.957h-2.934Zm0 0"/><path fill="none" stroke="#000" stroke-miterlimit="10" stroke-width="3.9137481999999997" d="M41.902 19.187v7.372"/><path d="M39.945 20.164V17.23l1.957-1.957 1.957 1.957v2.934ZM43.86 25.578v2.938l-1.958 1.957-1.957-1.957v-2.938Zm0 0"/><path fill="none" stroke="#000" stroke-miterlimit="10" stroke-width="3.9137481999999997" d="M41.902 34.777v7.371"/><path d="M39.945 35.754V32.82l1.957-1.957 1.957 1.957v2.934ZM43.86 41.168v2.937l-1.958 1.958-1.957-1.958v-2.937Zm0 0"/><path fill="none" stroke="#E5E5E5" stroke-miterlimit="10" stroke-width="3.9137481999999997" d="M37.793 46.258h-7.371"/><path fill="#E5E5E5" d="M36.816 44.3h2.934l1.957 1.958-1.957 1.957h-2.934ZM31.402 48.215h-2.937l-1.957-1.957 1.957-1.957h2.937Zm0 0"/><path fill="none" stroke="#E5E5E5" stroke-miterlimit="10" stroke-width="3.9137481999999997" d="M26.313 42.148v-7.37"/><path fill="#E5E5E5" d="M28.27 41.168v2.937l-1.957 1.958-1.958-1.958v-2.937ZM24.355 35.754V32.82l1.957-1.957 1.958 1.957v2.934Zm0 0"/><path fill="none" stroke="#000" stroke-miterlimit="10" stroke-width="3.9137481999999997" d="M26.313 26.559v-7.372"/><path d="M28.27 25.578v2.938l-1.957 1.957-1.958-1.957v-2.938ZM24.355 20.164V17.23l1.957-1.957 1.958 1.957v2.934Zm0 0"/><path fill="none" stroke="#000" stroke-miterlimit="10" stroke-width="3.9137481999999997" d="M30.422 30.668h7.371"/><path d="M31.402 32.625h-2.937l-1.957-1.957 1.957-1.957h2.937ZM36.816 28.71h2.934l1.957 1.958-1.957 1.957h-2.934Zm0 0"/><path fill="none" stroke="#000" stroke-miterlimit="10" stroke-width="3.9137481999999997" d="M51.883 15.078h7.37"/><path d="M52.863 17.035h-2.937l-1.957-1.957 1.957-1.957h2.937ZM58.277 13.121h2.934l1.957 1.957-1.957 1.957h-2.934Zm0 0"/><path fill="none" stroke="#E5E5E5" stroke-miterlimit="10" stroke-width="3.9137481999999997" d="M63.363 19.187v7.372"/><path fill="#E5E5E5" d="M61.406 20.164V17.23l1.957-1.957 1.957 1.957v2.934ZM65.32 25.578v2.938l-1.957 1.957-1.957-1.957v-2.938Zm0 0"/><path fill="none" stroke="#000" stroke-miterlimit="10" stroke-width="3.9137481999999997" d="M63.363 34.777v7.371"/><path d="M61.406 35.754V32.82l1.957-1.957 1.957 1.957v2.934ZM65.32 41.168v2.937l-1.957 1.958-1.957-1.958v-2.937Zm0 0"/><path fill="none" stroke="#000" stroke-miterlimit="10" stroke-width="3.9137481999999997" d="M59.254 46.258h-7.371"/><path d="M58.277 44.3h2.934l1.957 1.958-1.957 1.957h-2.934ZM52.863 48.215h-2.937l-1.957-1.957 1.957-1.957h2.937Zm0 0"/><path fill="none" stroke="#E5E5E5" stroke-miterlimit="10" stroke-width="3.9137481999999997" d="M47.773 42.148v-7.37"/><path fill="#E5E5E5" d="M49.73 41.168v2.937l-1.957 1.958-1.957-1.958v-2.937ZM45.816 35.754V32.82l1.957-1.957 1.957 1.957v2.934Zm0 0"/><path fill="none" stroke="#000" stroke-miterlimit="10" stroke-width="3.9137481999999997" d="M47.773 26.559v-7.372"/><path d="M49.73 25.578v2.938l-1.957 1.957-1.957-1.957v-2.938ZM45.816 20.164V17.23l1.957-1.957 1.957 1.957v2.934Zm0 0"/><path fill="none" stroke="#000" stroke-miterlimit="10" stroke-width="3.9137481999999997" d="M51.883 30.668h7.37"/><path d="M52.863 32.625h-2.937l-1.957-1.957 1.957-1.957h2.937ZM58.277 28.71h2.934l1.957 1.958-1.957 1.957h-2.934ZM69.234 46.258a1.956 1.956 0 0 0-1.957-1.957 1.956 1.956 0 0 0-1.957 1.957c0 1.082.875 1.957 1.957 1.957a1.956 1.956 0 0 0 1.957-1.957m0 0"/><g clip-path="url(#a)"><path fill="none" stroke="#000" stroke-miterlimit="10" stroke-width=".39186588" d="M69.234 46.258a1.956 1.956 0 0 0-1.957-1.957 1.956 1.956 0 0 0-1.957 1.957c0 1.082.875 1.957 1.957 1.957a1.956 1.956 0 0 0 1.957-1.957Zm0 0"/></g><path fill="none" stroke="#000" stroke-miterlimit="10" stroke-width="3.9137481999999997" d="M77.258 15.078h7.37"/><path d="M78.234 17.035h-2.933l-1.957-1.957 1.957-1.957h2.933ZM83.648 13.121h2.938l1.957 1.957-1.957 1.957h-2.938Zm0 0"/><path fill="none" stroke="#000" stroke-miterlimit="10" stroke-width="3.9137481999999997" d="M88.738 19.187v7.372"/><path d="M86.781 20.164V17.23l1.957-1.957 1.957 1.957v2.934ZM90.695 25.578v2.938l-1.957 1.957-1.957-1.957v-2.938Zm0 0"/><path fill="none" stroke="#000" stroke-miterlimit="10" stroke-width="3.9137481999999997" d="M88.738 34.777v7.371"/><path d="M86.781 35.754V32.82l1.957-1.957 1.957 1.957v2.934ZM90.695 41.168v2.937l-1.957 1.958-1.957-1.958v-2.937Zm0 0"/><path fill="none" stroke="#000" stroke-miterlimit="10" stroke-width="3.9137481999999997" d="M84.629 46.258h-7.371"/><path d="M83.648 44.3h2.938l1.957 1.958-1.957 1.957h-2.938ZM78.234 48.215h-2.933l-1.957-1.957L75.3 44.3h2.933Zm0 0"/><path fill="none" stroke="#000" stroke-miterlimit="10" stroke-width="3.9137481999999997" d="M73.148 42.148v-7.37"/><path d="M75.105 41.168v2.937l-1.957 1.958-1.957-1.958v-2.937ZM71.191 35.754V32.82l1.957-1.957 1.957 1.957v2.934Zm0 0"/><path fill="none" stroke="#000" stroke-miterlimit="10" stroke-width="3.9137481999999997" d="M73.148 26.559v-7.372"/><path d="M75.105 25.578v2.938l-1.957 1.957-1.957-1.957v-2.938ZM71.191 20.164V17.23l1.957-1.957 1.957 1.957v2.934Zm0 0"/><path fill="none" stroke="#E5E5E5" stroke-miterlimit="10" stroke-width="3.9137481999999997" d="M77.258 30.668h7.37"/><path fill="#E5E5E5" d="M78.234 32.625h-2.933l-1.957-1.957 1.957-1.957h2.933ZM83.648 28.71h2.938l1.957 1.958-1.957 1.957h-2.938Zm0 0"/><path fill="none" stroke="#000" stroke-miterlimit="10" stroke-width="3.9137481999999997" d="M98.719 15.078h7.37"/><path d="M99.695 17.035h-2.933l-1.957-1.957 1.957-1.957h2.933ZM105.11 13.121h2.937l1.957 1.957-1.957 1.957h-2.938Zm0 0"/><path fill="none" stroke="#000" stroke-miterlimit="10" stroke-width="3.9137481999999997" d="M110.2 19.187v7.372"/><path d="M108.242 20.164V17.23l1.957-1.957 1.957 1.957v2.934ZM112.156 25.578v2.938l-1.957 1.957-1.957-1.957v-2.938Zm0 0"/><path fill="none" stroke="#000" stroke-miterlimit="10" stroke-width="3.9137481999999997" d="M110.2 34.777v7.371"/><path d="M108.242 35.754V32.82l1.957-1.957 1.957 1.957v2.934ZM112.156 41.168v2.937l-1.957 1.958-1.957-1.958v-2.937Zm0 0"/><path fill="none" stroke="#000" stroke-miterlimit="10" stroke-width="3.9137481999999997" d="M106.09 46.258h-7.371"/><path d="M105.11 44.3h2.937l1.957 1.958-1.957 1.957h-2.938ZM99.695 48.215h-2.933l-1.957-1.957 1.957-1.957h2.933Zm0 0"/><path fill="none" stroke="#000" stroke-miterlimit="10" stroke-width="3.9137481999999997" d="M94.61 42.148v-7.37"/><path d="M96.566 41.168v2.937l-1.957 1.958-1.957-1.958v-2.937ZM92.652 35.754V32.82l1.957-1.957 1.957 1.957v2.934Zm0 0"/><path fill="none" stroke="#000" stroke-miterlimit="10" stroke-width="3.9137481999999997" d="M94.61 26.559v-7.372"/><path d="M96.566 25.578v2.938l-1.957 1.957-1.957-1.957v-2.938ZM92.652 20.164V17.23l1.957-1.957 1.957 1.957v2.934Zm0 0"/><path fill="none" stroke="#E5E5E5" stroke-miterlimit="10" stroke-width="3.9137481999999997" d="M98.719 30.668h7.37"/><path fill="#E5E5E5" d="M99.695 32.625h-2.933l-1.957-1.957 1.957-1.957h2.933ZM105.11 28.71h2.937l1.957 1.958-1.957 1.957h-2.938Zm0 0"/><path fill="none" stroke="#E5E5E5" stroke-miterlimit="10" stroke-width="3.9137481999999997" d="M120.18 15.078h7.37"/><path fill="#E5E5E5" d="M121.156 17.035h-2.933l-1.957-1.957 1.957-1.957h2.933ZM126.57 13.121h2.938l1.957 1.957-1.957 1.957h-2.938Zm0 0"/><path fill="none" stroke="#000" stroke-miterlimit="10" stroke-width="3.9137481999999997" d="M131.66 19.187v7.372"/><path d="M129.703 20.164V17.23l1.957-1.957 1.957 1.957v2.934ZM133.617 25.578v2.938l-1.957 1.957-1.957-1.957v-2.938Zm0 0"/><path fill="none" stroke="#000" stroke-miterlimit="10" stroke-width="3.9137481999999997" d="M131.66 34.777v7.371"/><path d="M129.703 35.754V32.82l1.957-1.957 1.957 1.957v2.934ZM133.617 41.168v2.937l-1.957 1.958-1.957-1.958v-2.937Zm0 0"/><path fill="none" stroke="#E5E5E5" stroke-miterlimit="10" stroke-width="3.9137481999999997" d="M127.55 46.258h-7.37"/><path fill="#E5E5E5" d="M126.57 44.3h2.938l1.957 1.958-1.957 1.957h-2.938ZM121.156 48.215h-2.933l-1.957-1.957 1.957-1.957h2.933Zm0 0"/><path fill="none" stroke="#E5E5E5" stroke-miterlimit="10" stroke-width="3.9137481999999997" d="M116.07 42.148v-7.37"/><path fill="#E5E5E5" d="M118.027 41.168v2.937l-1.957 1.958-1.957-1.958v-2.937ZM114.113 35.754V32.82l1.957-1.957 1.957 1.957v2.934Zm0 0"/><path fill="none" stroke="#E5E5E5" stroke-miterlimit="10" stroke-width="3.9137481999999997" d="M116.07 26.559v-7.372"/><path fill="#E5E5E5" d="M118.027 25.578v2.938l-1.957 1.957-1.957-1.957v-2.938ZM114.113 20.164V17.23l1.957-1.957 1.957 1.957v2.934Zm0 0"/><path fill="none" stroke="#E5E5E5" stroke-miterlimit="10" stroke-width="3.9137481999999997" d="M120.18 30.668h7.37"/><path fill="#E5E5E5" d="M121.156 32.625h-2.933l-1.957-1.957 1.957-1.957h2.933ZM126.57 28.71h2.938l1.957 1.958-1.957 1.957h-2.938Zm0 0"/><path fill="none" stroke="#000" stroke-miterlimit="10" stroke-width="3.9137481999999997" d="M141.64 15.078h7.372"/><path d="M142.617 17.035h-2.933l-1.957-1.957 1.957-1.957h2.933ZM148.031 13.121h2.938l1.957 1.957-1.957 1.957h-2.938Zm0 0"/><path fill="none" stroke="#000" stroke-miterlimit="10" stroke-width="3.9137481999999997" d="M153.121 19.187v7.372"/><path d="M151.164 20.164V17.23l1.957-1.957 1.957 1.957v2.934ZM155.078 25.578v2.938l-1.957 1.957-1.957-1.957v-2.938Zm0 0"/><path fill="none" stroke="#000" stroke-miterlimit="10" stroke-width="3.9137481999999997" d="M153.121 34.777v7.371"/><path d="M151.164 35.754V32.82l1.957-1.957 1.957 1.957v2.934ZM155.078 41.168v2.937l-1.957 1.958-1.957-1.958v-2.937Zm0 0"/><path fill="none" stroke="#000" stroke-miterlimit="10" stroke-width="3.9137481999999997" d="M149.012 46.258h-7.371"/><path d="M148.031 44.3h2.938l1.957 1.958-1.957 1.957h-2.938ZM142.617 48.215h-2.933l-1.957-1.957 1.957-1.957h2.933Zm0 0"/><path fill="none" stroke="#E5E5E5" stroke-miterlimit="10" stroke-width="3.9137481999999997" d="M137.531 42.148v-7.37"/><path fill="#E5E5E5" d="M139.488 41.168v2.937l-1.957 1.958-1.957-1.958v-2.937ZM135.574 35.754V32.82l1.957-1.957 1.957 1.957v2.934Zm0 0"/><path fill="none" stroke="#E5E5E5" stroke-miterlimit="10" stroke-width="3.9137481999999997" d="M137.531 26.559v-7.372"/><path fill="#E5E5E5" d="M139.488 25.578v2.938l-1.957 1.957-1.957-1.957v-2.938ZM135.574 20.164V17.23l1.957-1.957 1.957 1.957v2.934Zm0 0"/><path fill="none" stroke="#000" stroke-miterlimit="10" stroke-width="3.9137481999999997" d="M141.64 30.668h7.372"/><path d="M142.617 32.625h-2.933l-1.957-1.957 1.957-1.957h2.933ZM148.031 28.71h2.938l1.957 1.958-1.957 1.957h-2.938Zm0 0"/><path fill="none" stroke="#000" stroke-miterlimit="10" stroke-width="3.9137481999999997" d="M163.102 15.078h7.37"/><path d="M164.078 17.035h-2.933l-1.958-1.957 1.958-1.957h2.933ZM169.492 13.121h2.938l1.957 1.957-1.957 1.957h-2.938Zm0 0"/><path fill="none" stroke="#000" stroke-miterlimit="10" stroke-width="3.9137481999999997" d="M174.582 19.187v7.372"/><path d="M172.625 20.164V17.23l1.957-1.957 1.957 1.957v2.934ZM176.54 25.578v2.938l-1.958 1.957-1.957-1.957v-2.938Zm0 0"/><path fill="none" stroke="#000" stroke-miterlimit="10" stroke-width="3.9137481999999997" d="M174.582 34.777v7.371"/><path d="M172.625 35.754V32.82l1.957-1.957 1.957 1.957v2.934ZM176.54 41.168v2.937l-1.958 1.958-1.957-1.958v-2.937Zm0 0"/><path fill="none" stroke="#E5E5E5" stroke-miterlimit="10" stroke-width="3.9137481999999997" d="M170.473 46.258h-7.371"/><path fill="#E5E5E5" d="M169.492 44.3h2.938l1.957 1.958-1.957 1.957h-2.938ZM164.078 48.215h-2.933l-1.958-1.957 1.958-1.957h2.933Zm0 0"/><path fill="none" stroke="#E5E5E5" stroke-miterlimit="10" stroke-width="3.9137481999999997" d="M158.992 42.148v-7.37"/><path fill="#E5E5E5" d="M160.95 41.168v2.937l-1.958 1.958-1.957-1.958v-2.937ZM157.035 35.754V32.82l1.957-1.957 1.957 1.957v2.934Zm0 0"/><path fill="none" stroke="#E5E5E5" stroke-miterlimit="10" stroke-width="3.9137481999999997" d="M158.992 26.559v-7.372"/><path fill="#E5E5E5" d="M160.95 25.578v2.938l-1.958 1.957-1.957-1.957v-2.938ZM157.035 20.164V17.23l1.957-1.957 1.957 1.957v2.934Zm0 0"/><path fill="none" stroke="#E5E5E5" stroke-miterlimit="10" stroke-width="3.9137481999999997" d="M163.102 30.668h7.37"/><path fill="#E5E5E5" d="M164.078 32.625h-2.933l-1.958-1.957 1.958-1.957h2.933ZM169.492 28.71h2.938l1.957 1.958-1.957 1.957h-2.938Zm0 0"/><use xlink:href="#b" x="180.645" y="33.705"/><use xlink:href="#c" x="188.403" y="33.705"/><use xlink:href="#d" x="195.061" y="33.705"/><use xlink:href="#e" x="164.151" y="9.011"/></svg>