<svg xmlns="http://www.w3.org/2000/svg" xmlns:xlink="http://www.w3.org/1999/xlink" width="219.621" height="144.858"><defs><path id="b" d="M1.266 1.25c-.079.125-.22.219-.328.219-.094 0-.125-.047-.172-.125-.063-.094-.203-.235-.36-.235-.203 0-.265.141-.265.266 0 .156.172.328.656.328.297 0 .61-.14.828-.453.203-.281.36-.828.64-2.187.126-.547.235-1.125.344-1.735l.016-.125h.672c.062 0 .172-.015.187-.078l.032-.156c0-.031-.016-.031-.047-.031h-.797l.078-.422c.11-.532.219-.86.313-1.047.109-.203.203-.25.28-.25.11 0 .126.062.157.187.031.157.078.344.313.344a.255.255 0 0 0 .265-.234c0-.266-.25-.516-.672-.516a.78.78 0 0 0-.484.203c-.235.188-.531.453-.797 1.734l-.484.016c-.125 0-.188.063-.188.125-.016.016-.031.11-.031.11 0 .015.016.015.031.015h.594c-.172.828-.188 1.25-.281 1.781-.125.688-.235 1.86-.5 2.266m0 0"/><path id="c" d="M.61-.875c0 .594-.079.625-.47.656-.046.047-.046.188 0 .235C.376 0 .61 0 .907 0c.25 0 .485 0 .64.016.048-.047.048-.188 0-.235-.28-.031-.359-.062-.359-.656V-1.5c.125.016.235.016.297.047.079.047.141.11.235.234l.515.703c.22.266.297.407.313.5 0 .016 0 .032.015.032C2.72 0 2.876 0 3.017 0c.218 0 .437 0 .578.016.047-.047.047-.188 0-.235-.235-.031-.422-.062-.61-.297l-.937-1.187c-.031-.047-.063-.078-.063-.11 0-.03 0-.046.032-.062l.625-.656c.218-.235.468-.281.765-.313.031-.047.031-.203 0-.234-.172 0-.375.015-.625.015-.281 0-.547-.015-.703-.015-.047.031-.047.187 0 .234.39.031.219.281.156.36-.156.203-.375.453-.562.593-.156.11-.36.188-.484.22v-2.5c0-.47.015-.75.015-.75C1.203-4.97 1.187-5 1.11-5c-.171.078-.703.172-1 .203-.015.047 0 .172.047.203H.22c.312.032.39.032.39.594Zm0 0"/><path id="d" d="M4.422-.875V-3.75c0-.594.125-.625.625-.64.047-.048.047-.204 0-.235-.297 0-.656.016-.938.016-.265 0-.609-.016-.921-.016-.032.031-.032.188 0 .234.5.016.624.047.624.641v1.156H1.36V-3.75c0-.594.125-.625.625-.64.047-.048.047-.204 0-.235-.265 0-.562.016-.921.016-.36 0-.657-.016-.922-.016-.047.031-.047.188 0 .234.5.016.625.047.625.641v2.875c0 .594-.125.625-.625.656-.047.047-.047.188 0 .235C.453 0 .797 0 1.063 0c.265 0 .609 0 .921.016.047-.047.047-.188 0-.235-.5-.031-.625-.062-.625-.656v-1.422h2.454v1.422c0 .594-.126.625-.626.656-.03.047-.03.188 0 .235C3.517 0 3.86 0 4.126 0s.61 0 .922.016c.047-.047.047-.188 0-.235-.5-.031-.625-.062-.625-.656m0 0"/><path id="e" d="M.516-3.14c-.016 0-.047.03-.047.046a7 7 0 0 1-.11.922.3.3 0 0 0 .235.016c.14-.516.36-.64.578-.656l.922-.016C1.609-2.016.89-.984.328-.234c-.062.093-.062.109-.062.156S.328 0 .422 0l2.234.016c.094-.235.188-.61.235-.97A.4.4 0 0 0 2.67-1l-.093.219c-.187.375-.328.531-.703.531H.922c.531-.672 1.281-1.797 1.719-2.516.109-.187.125-.234.125-.265s-.032-.047-.079-.047c-.046 0-.234.015-.453.015H.938c-.235 0-.329-.046-.422-.078m0 0"/><path id="i" d="M1.11-.562 1.5-1.61c.031-.094.078-.11.25-.11h1.516l.406 1.203c.094.25-.172.266-.516.297-.047.047-.047.188 0 .235C3.406 0 3.812 0 4.094 0s.562 0 .812.016c.032-.047.032-.188 0-.235-.281-.031-.531-.047-.64-.39L2.78-4.703c-.11.062-.297.14-.39.14L.766-.733C.578-.281.359-.25.046-.22 0-.172 0-.03.047.016.235 0 .47 0 .689 0c.296 0 .656 0 .921.016.032-.047.032-.188 0-.235C1.33-.25 1-.266 1.11-.562m.765-1.47c-.156 0-.203-.015-.172-.093l.734-1.844h.032l.687 1.938Zm0 0"/><path id="h" d="M1.828.094c1.766 0 2.375-1.14 2.688-2.735L5-5.109c.047-.25.188-.375.547-.407l.234-.015c.032 0 .063-.032.078-.078l.032-.172-.016-.016c-.406.016-.75.016-.953.016-.188 0-.531 0-.938-.016l-.015.016-.031.172c-.016.046.015.078.046.078l.235.015c.281.016.406.094.406.282 0 .046-.016.093-.016.125l-.515 2.625c-.203 1-.563 2.203-2.016 2.203-.406 0-.719-.188-.937-.438C.953-.969.906-1.25.906-1.53s.047-.594.11-.875l.53-2.719c.048-.25.188-.36.548-.39l.219-.016c.046 0 .078-.032.093-.078l.031-.172-.015-.016c-.406.016-.766.016-1.11.016-.343 0-.671 0-1.078-.016l-.03.016-.032.172c0 .046.031.078.062.078l.22.015c.28.016.421.094.421.282 0 .03-.016.062-.031.109L.266-2.109a3 3 0 0 0-.063.625c0 1.28.953 1.578 1.625 1.578m0 0"/><path id="j" d="M1.39-3.156c1.008-.125 1.516-.531 1.516-1.219Q2.905-5.436 2-5.437q-.41 0-.703.187a3 3 0 0 0-.11.828 1.4 1.4 0 0 1-.218.016c-.281 0-.422-.117-.422-.36q-.001-.513.437-.828.45-.328 1.188-.328.714 0 1.125.375.422.376.422 1.016 0 .628-.422 1.015-.299.284-.906.485V-3q.715.094 1.109.469.389.361.39.922 0 .737-.562 1.234Q2.78.11 1.891.109C1.41.11 1.05.012.813-.17A.61.61 0 0 1 .53-.688c0-.258.133-.442.407-.547q.14.363.28.515.295.328.829.328c.664 0 1-.351 1-1.062 0-.738-.555-1.149-1.656-1.234Zm0 0"/><path id="k" d="M.89-.937a.53.53 0 0 1 .423.218q.17.204.171.578-.002.592-.39.985c-.211.226-.414.344-.61.344-.093 0-.164-.086-.203-.25q.574-.3.61-.891a.5.5 0 0 1-.344-.125.48.48 0 0 1-.14-.36q0-.217.14-.359a.47.47 0 0 1 .344-.14m0 0"/><path id="l" d="M2.234-.39q1.11.001 1.11-2.516 0-2.515-1.11-2.516-1.094.001-1.093 2.516c0 1.68.363 2.515 1.093 2.515m-.03.5q-.88 0-1.376-.75Q.296-1.42.297-2.907.296-4.39.875-5.187q.516-.734 1.406-.735.873.001 1.375.734.516.798.516 2.282 0 1.47-.563 2.265-.515.75-1.406.75m0 0"/><clipPath id="a"><path d="M210 114h9.242v16H210Zm0 0"/></clipPath><clipPath id="f"><path d="M14 .055h5V4h-5Zm0 0"/></clipPath><clipPath id="g"><path d="M8 .055h16V10H8Zm0 0"/></clipPath><clipPath id="m"><path d="M92 9h127.242v125H92Zm0 0"/></clipPath><clipPath id="n"><path d="M117 .055h1V123h-1Zm0 0"/></clipPath></defs><path fill="none" stroke="#000" stroke-miterlimit="10" stroke-width=".39831372" d="M16.29 121.906h199.288"/><path d="m218.648 121.906-2.968-1.761v3.52Zm0 0"/><g clip-path="url(#a)"><path fill="none" stroke="#000" stroke-miterlimit="10" stroke-width=".39831372" d="m218.648 121.906-2.968-1.761v3.52Zm0 0"/></g><use xlink:href="#b" x="207.195" y="130.086"/><path fill="none" stroke="#000" stroke-miterlimit="10" stroke-width=".58199724" d="M202.738 132.664h11.93"/><use xlink:href="#c" x="202.738" y="139.287"/><use xlink:href="#d" x="206.404" y="139.287"/><use xlink:href="#e" x="211.632" y="139.287"/><path fill="none" stroke="#000" stroke-miterlimit="10" stroke-width=".39831372" d="M16.29 121.906V3.72"/><g clip-path="url(#f)"><path d="m16.29.648-1.763 2.97h3.524Zm0 0"/></g><g clip-path="url(#g)"><path fill="none" stroke="#000" stroke-miterlimit="10" stroke-width=".39831372" d="m16.29.648-1.763 2.97h3.524Zm0 0"/></g><use xlink:href="#h" x="2.983" y="9.226"/><use xlink:href="#i" x="7.746" y="11.106"/><use xlink:href="#j" x="112.264" y="140.498"/><use xlink:href="#k" x="116.74" y="140.498"/><use xlink:href="#l" x="118.593" y="140.498"/><g clip-path="url(#m)"><path fill="none" stroke="#000" stroke-miterlimit="10" stroke-width=".79562916" d="m103.473 121.906 11.156-92.949c.558-4.656 4.812-8.43 9.5-8.43h92.89"/></g><g clip-path="url(#n)"><path fill="none" stroke="#000" stroke-dasharray="2.9836892124 2.9836892124" stroke-miterlimit="10" stroke-width=".39831372" d="M117.668 121.906V.25"/></g></svg>