<svg xmlns="http://www.w3.org/2000/svg" xmlns:xlink="http://www.w3.org/1999/xlink" width="114.26" height="120.832"><defs><path id="a" d="M2.547-6.14q2.28 0 2.281 1.53 0 1.208-1.312 1.454v.015c.976.125 1.468.602 1.468 1.422q0 .767-.609 1.235Q3.749 0 2.625 0H.422a.16.16 0 0 1-.016-.078Q.404-.324.72-.406l.375-.078v-5.188l-.547-.125c-.086-.02-.125-.05-.125-.094q0-.074.094-.25ZM2.516-.5q.81.001 1.25-.344c.257-.219.39-.508.39-.875q0-.527-.422-.843-.408-.312-1.156-.313h-.703V-.5Zm-.063-2.844q.78 0 1.203-.328.375-.311.375-.828Q4.03-5.638 2.47-5.64h-.594v2.296Zm0 0"/><path id="b" d="M3.406-.422q.561 0 1-.187l.266-1.188a.7.7 0 0 1 .203-.031c.164 0 .25.133.25.39l-.047.97Q4.358.11 3.25.108q-1.19 0-1.906-.703C.758-1.133.469-1.954.469-3.047c0-1.039.32-1.86.969-2.453q.826-.75 2-.75c.656 0 1.21.137 1.671.406q.047.643.047.922-.001.391-.265.39a.6.6 0 0 1-.203-.03L4.5-5.453a2.03 2.03 0 0 0-1.062-.281q-.939 0-1.5.609c-.43.46-.641 1.121-.641 1.984q-.001 1.376.625 2.079c.363.43.86.64 1.484.64m0 0"/><path id="c" d="M1.094-.484v-5.188l-.547-.125c-.086-.02-.125-.05-.125-.094q0-.074.094-.25H4.53c.04.5.063.852.063 1.047 0 .262-.086.39-.25.39a.6.6 0 0 1-.203-.03l-.22-.938H1.876v2.313h1.969v.484H1.875V-.5h2.11l.25-.969a.6.6 0 0 1 .202-.031q.219 0 .22.36Q4.655-.78 4.577 0H.422a.16.16 0 0 1-.016-.078Q.404-.324.72-.406Zm0 0"/><path id="f" d="M1.813.094c1.765 0 2.375-1.14 2.671-2.719l.485-2.453c.047-.25.187-.375.547-.406L5.75-5.5c.047 0 .063-.031.078-.078l.031-.172-.015-.016c-.407.016-.75.016-.938.016-.203 0-.547 0-.937-.016l-.016.016-.047.172c0 .047.031.078.063.078l.219.016c.296.015.406.093.406.28 0 .032 0 .079-.016.126l-.516 2.61c-.187 1-.546 2.187-2 2.187-.406 0-.718-.188-.921-.438-.188-.25-.235-.515-.235-.797 0-.296.047-.593.094-.875l.531-2.703c.047-.25.203-.36.547-.39l.235-.016c.03 0 .062-.031.078-.078l.03-.172-.015-.016c-.406.016-.765.016-1.094.016-.343 0-.687 0-1.078-.016l-.03.016-.032.172c0 .047.031.078.062.078l.22.016c.28.015.405.093.405.28 0 .032 0 .063-.015.11L.266-2.109a3 3 0 0 0-.063.625c0 1.28.953 1.578 1.61 1.578m0 0"/><path id="g" d="M1.047-4.594c-.25 0-.64-.015-.906-.015-.047.046-.047.187 0 .234.5.016.609.063.609.656v2.844c0 .594-.11.625-.61.656-.046.047-.046.188 0 .235C.407 0 .798 0 1.064 0c.25 0 .437.016 1.046.016 1.407 0 1.782-.72 1.782-1.328 0-.688-.47-1.079-1.094-1.25v-.016c.36-.172.687-.547.687-.938 0-.468-.218-1.093-1.546-1.093-.235 0-.625.015-.891.015m.312 2.235h.5c.97 0 1.375.547 1.375 1.187 0 .516-.203.953-1.28.953-.5 0-.595-.187-.595-.625Zm0-1.563c0-.375 0-.453.625-.453.391 0 .922.219.922.953 0 .594-.422.813-1.015.813h-.532Zm0 0"/><path id="h" d="M2-2.578h-.64V-3.86c0-.313.077-.453.468-.453h.531c.532 0 .641.28.797.78.094.016.172 0 .25-.03a51 51 0 0 0-.172-1.047s0-.016-.015-.016c-.125.016-.188.031-.36.031H1.047c-.219 0-.64-.015-.922-.015-.047.046-.047.187 0 .234.5.016.625.063.625.656v2.844c0 .594-.125.625-.625.656-.047.047-.047.188 0 .235C.391 0 .813 0 1.047 0h1.547c.328 0 .906.016.906.016.094-.36.203-.828.266-1.188a.35.35 0 0 0-.25-.047c-.141.516-.391.938-.938.938H1.75c-.297 0-.39-.11-.39-.453v-1.563H2c.61 0 .625.156.656.485.031.03.188.03.235 0-.016-.188-.016-.391-.016-.625 0-.204 0-.454.016-.626-.047-.03-.203-.03-.235 0-.031.391-.047.485-.656.485m0 0"/><clipPath id="d"><path d="M0 75h57v45.36H0Zm0 0"/></clipPath><clipPath id="e"><path d="M44 108h16v12.36H44Zm0 0"/></clipPath></defs><path fill="none" stroke="#000" stroke-miterlimit="10" stroke-width=".79187529" d="M80.04 52.46c0-8.073-6.548-14.62-14.626-14.62-8.074 0-14.621 6.547-14.621 14.62 0 8.075 6.547 14.622 14.621 14.622 8.078 0 14.625-6.547 14.625-14.621Zm0 0"/><path fill="none" stroke="#000" stroke-miterlimit="10" stroke-width=".39643443" d="M72.086 30.574v13.211l-11.828 5.422"/><path fill="none" stroke="#000" stroke-miterlimit="10" stroke-width=".79187529" d="M60.258 43.785v17.352"/><path fill="none" stroke="#000" stroke-miterlimit="10" stroke-width=".39643443" d="m60.258 55.715 11.828 5.422v13.207"/><path d="m64.422 57.621.95-2.062 3.667 4.18-5.562-.051Zm0 0"/><path fill="none" stroke="#000" stroke-miterlimit="10" stroke-width=".39643443" d="M60.258 52.46H48.23M48.43 52.46H30.457m0 0H12.484"/><use xlink:href="#a" x="3.838" y="55.535"/><path fill="none" stroke="#000" stroke-miterlimit="10" stroke-width=".39643443" d="M72.086 30.773V21.79m0 0v-8.988"/><use xlink:href="#b" x="69.288" y="9.529"/><path fill="none" stroke="#000" stroke-miterlimit="10" stroke-width=".39643443" d="M72.086 74.148v8.985m0 0v8.988M72.086 92.121v9.856"/><path fill="none" stroke="#000" stroke-linecap="round" stroke-miterlimit="10" stroke-width=".79187529" d="M66.172 101.977H78"/><use xlink:href="#c" x="105.505" y="77.22"/><g clip-path="url(#d)"><path fill="none" stroke="#000" stroke-miterlimit="10" stroke-width=".39643443" d="m.195 81.215 51.047 34.031"/></g><path d="m53.785 116.941-1.488-3.097-.973 1.457-.969 1.457Zm0 0"/><g clip-path="url(#e)"><path fill="none" stroke="#000" stroke-miterlimit="10" stroke-width=".39641448" d="m53.785 116.941-1.488-3.097-.973 1.457-.969 1.457Zm0 0"/></g><use xlink:href="#f" x="4.339" y="115.505"/><use xlink:href="#g" x="9.079" y="117.376"/><use xlink:href="#h" x="13.27" y="117.376"/></svg>