<svg xmlns="http://www.w3.org/2000/svg" xmlns:xlink="http://www.w3.org/1999/xlink" width="112.993" height="31.552"><defs><clipPath id="a"><path d="M.79 8H112.2v1H.79Zm0 0"/></clipPath><path id="b" d="M2.422-6.11a.4.4 0 0 1 .015.094q0 .222-.312.297l-.406.078v3.016q-.002 1.19.406 1.719.389.485 1.188.484c.53 0 .925-.164 1.187-.5q.406-.574.406-1.875V-5.64L4.36-5.75c-.086-.02-.125-.055-.125-.11q0-.074.094-.25h1.813a.4.4 0 0 1 .015.094q-.002.222-.297.297l-.421.078v2.907c0 1.898-.735 2.843-2.204 2.843Q2.156.11 1.61-.42.953-1.045.953-2.47V-5.64L.391-5.75Q.28-5.779.28-5.86q0-.074.094-.25Zm0 0"/></defs><g clip-path="url(#a)"><path fill="none" stroke="#000" stroke-miterlimit="10" stroke-width=".39341400000000004" d="M.984 8.766H40.84m31.305 0h39.859"/></g><path fill="none" stroke="#000" stroke-miterlimit="10" stroke-width=".785842" d="M40.84 2.906h31.305V14.63H40.84Zm0 0"/><path fill="none" stroke="#000" stroke-miterlimit="10" stroke-width=".785842" d="m72.145.395-21.91 18.421H40.84"/><use xlink:href="#b" x="40.706" y="28.058"/></svg>