<svg xmlns="http://www.w3.org/2000/svg" xmlns:xlink="http://www.w3.org/1999/xlink" width="225.881" height="225.653"><defs><path id="g" d="M2.375-6.172q3.563 0 3.563 3 0 1.583-.938 2.39C4.383-.257 3.508 0 2.375 0H.422a.16.16 0 0 1-.016-.078Q.404-.324.72-.406L1.094-.5v-5.203l-.547-.125c-.086-.02-.125-.05-.125-.094q0-.075.094-.25ZM2.344-.5q1.325 0 2.047-.672c.476-.445.718-1.11.718-1.984q-.002-1.248-.718-1.875-.721-.64-2.047-.64h-.469V-.5Zm0 0"/><path id="h" d="M.906-.469v-3.343l-.64-.079a.2.2 0 0 1-.016-.078q0-.246.328-.281l1.063-.094v3.875l.53.125q.125.017.126.11A.4.4 0 0 1 2.219 0H.313a.1.1 0 0 1-.016-.062c0-.133.094-.235.281-.297Zm-.14-5.375q0-.234.14-.375a.52.52 0 0 1 .36-.14.507.507 0 0 1 .53.515.49.49 0 0 1-.155.375.53.53 0 0 1-.375.125.5.5 0 0 1-.36-.125.5.5 0 0 1-.14-.375m0 0"/><path id="i" d="M1.156-2.172q.012.845.375 1.297.359.439 1.016.438c.394 0 .765-.133 1.11-.407q.092.064.109.25-.001.205-.407.438Q2.89.109 2.25.109 1.434.111.953-.39.391-.965.391-2.062.39-3.173.969-3.828q.527-.576 1.312-.578.702 0 1.094.422.375.41.375 1.078c0 .199-.04.445-.11.734Zm1.032-1.765q-.892.002-1.016 1.328h1.766q.046-.171.046-.375 0-.951-.796-.953m0 0"/><path id="j" d="M.875-.469v-5.484l-.656-.094a.1.1 0 0 1-.016-.062q0-.246.328-.282L1.594-6.5v6.031l.531.125q.124.017.125.11A.4.4 0 0 1 2.172 0H.266v-.062c0-.133.086-.235.265-.297Zm0 0"/><path id="k" d="M.828-.469v-5.484l-.656-.094a.1.1 0 0 1-.016-.062q0-.246.344-.282L1.547-6.5v4h.547L3.28-3.875l-.625-.14v-.063q-.001-.218.25-.219h1.438c.07 0 .11.031.11.094a.5.5 0 0 1-.063.187l-.516.172-1.266 1.438L4.125-.453l.453.11q.124.015.125.109A.35.35 0 0 1 4.61 0H3.453l-1.5-2.047h-.406v1.594L2-.343q.124.015.125.109A.4.4 0 0 1 2.047 0H.219v-.062c0-.133.094-.235.281-.297Zm0 0"/><path id="l" d="M.875-4.297 1.031-5.5h.532v1.203h1.343l-.094.469h-1.25v2.75q0 .674.579.672.45 0 .75-.235.06.095.062.266-.002.112-.25.266-.33.217-.828.218Q.827.11.828-.92v-2.907H.156a.2.2 0 0 1-.015-.063q0-.233.28-.296Zm0 0"/><path id="m" d="M.906-.469v-3.343l-.64-.079a.2.2 0 0 1-.016-.078q0-.246.328-.281l1.063-.094-.063.75h.031c.352-.539.735-.812 1.141-.812q.593.002.594.437 0 .188-.14.375a1.6 1.6 0 0 0-.595-.125q-.61.001-.968.5v2.75l.625.125q.124.017.125.11A.35.35 0 0 1 2.297 0H.312a.1.1 0 0 1-.015-.062c0-.133.094-.235.281-.297Zm0 0"/><path id="n" d="m.781-3.812-.64-.079a.2.2 0 0 1-.016-.078q0-.246.328-.281l1.063-.094v2.797q0 1.048.89 1.047.686 0 1.11-.437v-2.875l-.657-.079v-.078q0-.246.329-.281l1.062-.094V-.5l.64.094q.014.047.016.078 0 .252-.328.281l-1 .094v-.578h-.031c-.344.43-.793.64-1.344.64Q.78.11.781-1.5Zm0 0"/><path id="o" d="m7.094-.469.547.125q.124.017.125.11A.35.35 0 0 1 7.672 0h-1.89a.1.1 0 0 1-.016-.062c0-.133.093-.235.28-.297l.329-.11V-2.75c0-.707-.29-1.062-.86-1.062-.46 0-.859.164-1.202.484q.06.33.062.531v2.328l.531.125q.124.017.125.11A.35.35 0 0 1 4.938 0H3.047a.1.1 0 0 1-.016-.062c0-.133.094-.235.281-.297l.329-.11V-2.75c0-.707-.29-1.062-.86-1.062-.437 0-.82.152-1.14.453v2.89l.53.125q.125.017.126.11A.4.4 0 0 1 2.219 0H.313a.1.1 0 0 1-.016-.062c0-.133.094-.235.281-.297l.328-.11v-3.343l-.64-.079a.2.2 0 0 1-.016-.078q0-.246.328-.281l1.063-.094-.063.594h.031q.622-.656 1.438-.656c.539 0 .922.242 1.14.718q.64-.716 1.532-.718.638 0 1 .422.375.409.375 1.187Zm0 0"/><path id="p" d="m6.031-.5-.093-4.234h-.016L4.032-.078h-.485L1.703-4.766h-.016L1.61-.5l.61.14q.124.018.125.094 0 .048-.094.266H.39v-.078Q.39-.324.689-.406l.39-.094.063-5.203-.547-.125c-.086-.02-.125-.05-.125-.094q0-.075.094-.25h1.421L3.922-1.25h.015l2-4.922h1.516v.078q-.002.237-.297.297l-.422.094L6.797-.5l.625.14q.124.018.125.094 0 .048-.094.266h-2.11v-.078q-.001-.246.298-.328Zm0 0"/><path id="q" d="M2.672-2.781q0-.594-.188-.875-.175-.281-.609-.281-.281 0-.516.093c-.086.156-.156.422-.218.797H.953q-.438 0-.437-.375 0-.406.468-.687a1.9 1.9 0 0 1 1.032-.297c.914 0 1.375.508 1.375 1.515v1.954c0 .343.101.515.312.515a.48.48 0 0 0 .328-.11q.077.112.078.25c0 .063-.054.134-.156.204a.94.94 0 0 1-.547.156q-.61 0-.687-.61h-.016Q2.282.112 1.484.11.97.11.656-.203.343-.514.344-1.031c0-.438.219-.774.656-1.016.383-.207.86-.312 1.422-.312h.25ZM1.766-.453q.514 0 .906-.469v-1.031l-.25.016q-1.299.11-1.297.812c0 .45.21.672.64.672m0 0"/><path id="r" d="M.656-5.953 0-6.047a.2.2 0 0 1-.016-.062q0-.246.344-.282L1.375-6.5v2.719h.031c.332-.414.774-.625 1.328-.625.477 0 .86.156 1.141.468q.516.564.516 1.672 0 1.19-.703 1.813-.645.562-1.594.562-.91 0-1.438-.312Zm1.735 2.14c-.43 0-.766.149-1.016.438v2.719q.375.251.89.25 1.374.001 1.376-1.75 0-.856-.375-1.297a1.17 1.17 0 0 0-.875-.36m0 0"/><path id="s" d="M2.672-2.781q0-.594-.188-.875-.175-.281-.609-.281-.281 0-.516.093c-.086.156-.156.422-.218.797H.953q-.438 0-.437-.375 0-.406.468-.687a1.9 1.9 0 0 1 1.032-.297c.914 0 1.375.508 1.375 1.515v1.954c0 .343.101.515.312.515a.48.48 0 0 0 .328-.11q.077.112.078.25c0 .063-.054.134-.156.204a.94.94 0 0 1-.547.156q-.61 0-.687-.61h-.016Q2.282.112 1.484.11.97.11.656-.203.343-.514.344-1.031c0-.438.219-.774.656-1.016.383-.207.86-.312 1.422-.312h.25ZM1.766-.453q.514 0 .906-.469v-1.031l-.25.016q-1.299.11-1.297.812c0 .45.21.672.64.672m-.547-4.625a.43.43 0 0 1-.437-.453c0-.133.038-.242.124-.328a.43.43 0 0 1 .313-.125c.125 0 .226.043.312.125a.46.46 0 0 1 .125.328.45.45 0 0 1-.125.328.42.42 0 0 1-.312.125m1.515 0a.43.43 0 0 1-.437-.453q-.002-.2.125-.328a.43.43 0 0 1 .312-.125q.186.001.313.125a.46.46 0 0 1 .125.328.45.45 0 0 1-.125.328.42.42 0 0 1-.313.125m0 0"/><path id="t" d="M.5-2.984Q.499-3.64.984-4.047q.45-.359 1.141-.36c.238 0 .46.04.672.11h1.531l-.094.484h-.75c.188.243.282.516.282.829q-.001.69-.5 1.093-.471.375-1.188.375-.204 0-.437-.046c-.18.117-.266.257-.266.421q0 .33.469.329h1.015q.594.001.922.265a.83.83 0 0 1 .344.703q0 .717-.61 1.203c-.437.352-1.007.532-1.703.532C.75 1.89.22 1.539.22.844c0-.524.27-.875.812-1.063v-.015a.64.64 0 0 1-.343-.594q0-.5.609-.828v-.016Q.5-2.047.5-2.984M2.125-1.97q.938.001.938-1-.001-.467-.266-.719a.87.87 0 0 0-.656-.265c-.618 0-.922.328-.922.984 0 .668.3 1 .906 1m-.39 1.86q-.19.002-.36-.032C1.082.012.938.266.938.61q0 .797.984.797.686 0 1.11-.281.374-.268.374-.672-.001-.562-.734-.562Zm0 0"/><path id="u" d="M4.344-3.437h-.016L3.156 0h-.734L.453-5.719l-.36-.093q-.126-.029-.124-.11 0-.075.094-.25h2c.007.024.015.047.015.078q0 .236-.312.313l-.391.078L2.906-.875h.016L4.094-4.25 3.64-5.719l-.36-.093q-.127-.029-.125-.11 0-.075.094-.25h2v.078c0 .157-.102.262-.297.313l-.39.078L5.906-.875h.016l1.64-4.844-.703-.11c-.086-.019-.125-.05-.125-.093q0-.075.094-.25h1.797v.078c0 .168-.102.274-.297.313l-.219.062L6.172 0h-.734Zm0 0"/><path id="v" d="M3.563-.844q.123.128.124.25 0 .222-.359.438-.44.265-1.078.265-.844 0-1.344-.562-.515-.563-.515-1.64c0-.72.21-1.29.64-1.72.407-.394.914-.593 1.532-.593.414 0 .734.086.953.25q.234.206.234.453 0 .392-.36.484-.346-.686-1.015-.687-.517 0-.828.375-.375.44-.375 1.25Q1.17-.436 2.547-.437c.426 0 .765-.133 1.015-.407m0 0"/><clipPath id="a"><path d="M.113 51H39v33H.113Zm0 0"/></clipPath><clipPath id="b"><path d="M.113 19H141v98H.113Zm0 0"/></clipPath><clipPath id="c"><path d="M.113 179H141v46.305H.113Zm0 0"/></clipPath><clipPath id="d"><path d="M.113 21H138v94H.113Zm0 0"/></clipPath><clipPath id="e"><path d="M.113 70H1v116H.113Zm0 0"/></clipPath><clipPath id="f"><path d="M82 24h143.648v118H82Zm0 0"/></clipPath></defs><g clip-path="url(#a)"><path fill="none" stroke="#000" stroke-miterlimit="10" stroke-width=".39838953" d="m5.52 77.61.164-.243.086-.12.082-.118.171-.242.082-.121.09-.118.09-.12.086-.118.09-.12.086-.118.09-.121.093-.117.09-.118.09-.12.188-.235.093-.121.094-.117.098-.118.094-.117.097-.117.094-.117.195-.234.102-.118.195-.234.102-.117.097-.117.106-.114.203-.234.105-.113.102-.118.105-.117.106-.113.105-.117.11-.113.105-.114.106-.117.328-.34.11-.117.112-.113.22-.227.226-.226.117-.114.227-.226.117-.11.113-.113.121-.113.113-.11.118-.113.12-.113.118-.11.12-.113.243-.219.121-.113.242-.219.125-.109.122-.11.25-.218.125-.113.125-.106.257-.219.125-.109.13-.11.124-.105.133-.11.129-.109.266-.21.128-.11.399-.316.137-.11.132-.105.137-.106.133-.105.273-.21.141-.106.273-.211.141-.102.14-.105.141-.102.141-.105.14-.102.137-.105.145-.102.144-.105.29-.204.14-.101.149-.102.289-.203.296-.203.145-.102.148-.097.149-.102.152-.101.149-.098.152-.102.148-.097.153-.098.148-.101.153-.098.156-.098.152-.097.156-.098.153-.098.312-.195.156-.094.313-.195.16-.094.156-.097.16-.094.16-.098.321-.187.16-.098.16-.094.328-.187.16-.094.165-.094.164-.09.328-.187.168-.09.164-.094.168-.09.164-.093.504-.27.172-.094.168-.086.168-.093.172-.09.171-.086.344-.18.172-.086.344-.18.351-.171.172-.086.176-.09.527-.258.18-.082.352-.172.359-.172.36-.164.179-.086.18-.082.18-.086.367-.164.18-.082.183-.082.183-.078.368-.164.187-.082.184-.078.187-.078.184-.082.187-.078.188-.082.187-.079.188-.074.187-.082.188-.078.191-.078.192-.074.187-.078"/></g><path fill="none" stroke="#000" stroke-miterlimit="10" stroke-width=".39838953" d="m34.902 79.84.075-.074.074-.07.074-.075.07-.074.078-.07.075-.07.074-.075.078-.07.074-.074.074-.07.079-.071.078-.074.234-.211.078-.074.078-.07.082-.071.078-.07.082-.07.079-.071.246-.211.082-.066.246-.211.086-.07.086-.067.082-.07.086-.07.086-.067.082-.07.09-.067.085-.07.086-.067.09-.07.086-.066.086-.07.18-.133.09-.07.09-.067.085-.066.094-.067.09-.066.09-.07.094-.067.18-.133.187-.133.094-.062.09-.067.187-.132.098-.067.093-.062.094-.067.098-.066.093-.063.098-.066.098-.062.097-.067.196-.125.097-.066.196-.125.101-.067.102-.062.097-.063.102-.062.098-.063.203-.125.105-.062.305-.188.105-.062.102-.063.105-.058.102-.063.105-.062.106-.059.105-.062.106-.059.105-.062.106-.06.105-.062.106-.058.219-.117.105-.059.11-.062.765-.41.113-.055.114-.059.109-.058.113-.055.11-.059.113-.058.113-.055.113-.059.227-.109.113-.059.117-.054.114-.059.117-.055.113-.054.117-.055.114-.055.586-.273.117-.05.12-.056.118-.054.121-.051.117-.055.121-.05.118-.055.12-.051.122-.055.242-.101.121-.055.363-.152.125-.051.121-.05.125-.052.122-.05.125-.051.125-.047.25-.102.12-.046.126-.051.125-.047.129-.05.125-.048.125-.05.128-.047.125-.047.13-.047.128-.051.125-.047.13-.047.124-.047.258-.093.129-.043.133-.047.258-.094.128-.043.133-.047.13-.043.132-.047.129-.043.133-.043.129-.046.796-.258.137-.043.133-.043.133-.04.133-.042.136-.043.133-.043.137-.04.137-.042.132-.04.137-.038.137-.043.683-.196.137-.043.137-.035M105.438 69.281l.152.047.156.05.152.052.157.05.457.153.156.05.305.102.152.055.148.05.153.055.152.051.149.055.152.054.148.055.153.05.148.056.152.054.149.059.445.164.153.055.144.058.149.059.148.055.145.058.296.117.29.117.148.06.433.175.145.062.145.059.144.062.145.06.144.062.14.062.145.059.14.062.145.063.422.187.145.063.14.066.282.125.136.066.141.067.14.062.137.067.141.066.137.063.41.199.14.066.133.067.137.07.137.066.133.067.136.07.137.067.266.14.132.067.133.07.137.07.133.07.129.07.265.141.13.07.132.071.133.074.129.07.129.075.129.07.129.074.128.07.258.15.125.073.258.149.625.37.129.079.121.074.125.078.121.075.125.078.125.074.727.469.117.078.121.078.117.078.121.078.117.082.118.078.117.082.117.078.117.083.117.078.118.082.226.164.117.078.34.246.113.086.11.082.226.164.114.086.11.082.108.086.11.082.11.086.109.082.109.086.105.086.106.082.219.172.316.257.102.086.105.09.211.172.102.09.203.172.101.09.106.086.097.09.102.09.098.085.101.09.098.09.101.09.196.18.093.09.293.269.094.09.094.093.187.18.094.094.094.09.09.093.093.09.09.094.184.184.18.187.086.094.18.187.515.563.086.098.164.187.086.098.082.093.082.098.078.094.164.195.082.094.234.293M79.508 81.574h.101l.098.004h.195l.102.004h.098l.097.004.102.004h.097l.098.004.102.004.195.007.102.004.097.004.102.004.195.008.102.004.097.008.102.004.098.007.101.004.098.008.097.004.204.016.097.008.102.003.195.016.203.016.098.011.097.008.102.008.098.008.101.012.102.007.097.012.102.008.195.023.102.008.098.012.101.012.098.011.101.012.098.012.102.011.097.012.102.012.097.016.102.011.098.012.101.016.098.011.098.016.101.016.098.011.101.016.196.031.101.016.098.015.101.012.098.02.195.03.102.017.098.019.097.016.102.02.097.015.098.02.098.015.097.02.102.019.098.02.097.015.098.024.098.015.097.024.098.015.098.024.195.039.098.023.097.02.098.023.098.02.097.023.098.02.195.047.094.023.098.023.097.02.098.023.094.028.195.047.094.023.097.024.098.027.094.023.097.028.094.023.094.027.098.024.093.027.098.028.281.082.098.027.281.082.098.027.094.028.093.03.094.028.094.032.094.027.09.031.093.027.281.094.09.031.188.063.09.031.093.031.09.032.094.03.09.032.09.035.093.032.09.035.09.031.094.035.09.031.27.106.089.031.27.106.085.035.09.035.09.039.086.035.09.035.09.04.086.035.086.039.09.035.085.039.09.035.172.078.086.035.516.235.086.043.082.039.086.039.082.043.086.039.082.043.086.039.082.043.086.039.164.086.082.039.492.258.078.043.082.046.078.043.082.043.078.047.082.043.078.043.157.094.082.043"/><g clip-path="url(#b)"><path fill="none" stroke="#000" stroke-miterlimit="10" stroke-width=".39838953" d="m74.71 71.781.317-.152.36-.117.398-.078.426-.04.445.004.45.047.449.094.437.137.414.183.38.223.339.266.281.3.223.336.152.368.074.39-.011.41-.098.426-.191.434-.293.433-.387.426-.488.418-.586.399-.684.37-.773.34-.864.297-.945.254-1.015.203-1.083.141-1.136.082-1.18.012-1.21-.055-1.227-.133-1.235-.207-1.226-.289-1.2-.363-1.164-.442-1.105-.523-1.043-.594-.953-.668-.863-.734-.747-.8-.62-.856-.493-.907-.34-.953-.183-.984-.02-1.012.153-1.031.328-1.04.507-1.034.692-1.024.871-.996 1.055-.965 1.226-.918 1.403-.863 1.562-.797 1.715-.719 1.86-.632 1.984-.54 2.101-.433 2.196-.324 2.277-.211 2.34-.082 2.375.043 2.398.176 2.395.308 2.367.442 2.32.578 2.25.71 2.153.84 2.039.965 1.902 1.09 1.738 1.2 1.559 1.308 1.36 1.402 1.14 1.492.91 1.567.66 1.625.402 1.68.133 1.714-.148 1.735-.43 1.742-.715 1.73-1.004 1.708-1.289 1.66-1.57 1.609-1.836 1.531-2.101 1.446-2.352 1.343-2.586 1.223-2.8 1.094-2.997.949-3.168.793-3.32.629-3.442.453-3.535.27-3.601.082-3.637-.11-3.637-.308-3.613-.508-3.55-.7-3.458-.898-3.332-1.086-3.172-1.273-2.984-1.453-2.77-1.618-2.523-1.773-2.246-1.922-1.953-2.047-1.633-2.164-1.29-2.262-.929-2.343-.562-2.403-.18-2.445.215-2.465.613-2.465 1.012-2.441 1.406-2.399 1.797-2.335 2.184-2.247 2.55-2.14 2.899-2.012 3.238-1.863 3.55-1.7 3.837-1.515 4.094-1.316 4.32-1.106 4.512-.875 4.668-.637 4.789-.39 4.863-.14 4.906.124 4.902.383 4.86.648 4.765.91 4.641 1.165 4.469 1.418 4.25 1.66 4 1.89 3.71 2.11 3.388 2.316 3.023 2.5 2.629 2.672 2.21 2.816 1.77 2.942 1.305 3.047.816 3.12.32 3.177-.183 3.199-.691 3.195-1.211 3.172-1.719 3.11-2.219 3.03-2.703 2.915-3.183 2.78-3.63 2.614-4.054 2.43-4.453 2.219-4.817 1.988-5.14 1.734-5.434 1.465-5.676 1.18-5.87.879-6.028.566-6.129.25-6.18-.074-6.18-.406-6.124-.73-6.02-1.063-5.86-1.383-5.652-1.695-5.386-2-5.078-2.29-4.723-2.558-4.32-2.816-3.883-3.051-3.399-3.262-2.882-3.45-2.336-3.6-1.77-3.735-1.18-3.832-.562-3.903.055-3.933.68-3.938 1.308-3.91 1.933-3.84L6.86 51.45l3.145-3.613 3.723-3.453 4.28-3.254 4.798-3.031 5.289-2.782 5.738-2.504 6.14-2.203 6.5-1.875 6.801-1.535 7.055-1.176 7.246-.804 7.38-.418 7.452-.028"/></g><g clip-path="url(#c)"><path fill="none" stroke="#000" stroke-miterlimit="10" stroke-width=".39838953" d="m135.008 189.508-.028.543-.039.543-.054.543-.07.543-.087.543-.101.543-.113.543-.13.543-.144.539-.156.543-.176.539-.187.539-.203.535-.22.539-.23.535-.246.531-.261.532-.278.53-.289.528-.305.528-.32.523-.336.52-.347.52-.364.515-.379.511-.39.512-.407.508-.418.504-.433.504-.445.496-.461.492-.477.492-.488.489-.504.48-.516.48-.531.473-.539.473-.559.465-.566.46-.586.458-.594.453-.61.445-.62.441-.63.438-.644.43-.66.425-.664.422-.683.414-.696.41-.703.403-.719.398-.726.39-.738.388-.754.379-.758.37-.774.372-.78.355-.794.356-.805.343-.812.34-.824.332-.836.324-.84.32-.856.31-.859.304-.871.297-.879.289-.887.277-.898.274-.902.265-.914.258-.918.25-.93.242-.934.235-.941.222-.95.22-.956.206-.961.2-.973.19-.973.184-.98.176-.988.168-.989.156-.996.149-1.004.137-1.007.132-1.008.122-1.016.113-1.02.101-1.023.098-1.027.086-1.028.074-1.035.07-1.035.06-1.035.046-1.04.039-1.042.031-1.047.02-1.043.012-1.047.003-1.047-.007-1.05-.016-1.047-.027-1.051-.036-1.047-.042-1.05-.055-1.048-.063-1.05-.074-1.043-.082-1.047-.094-1.043-.101-1.043-.114-1.04-.117-1.034-.133-1.036-.136-1.035-.153-1.027-.156-1.027-.168-1.02-.176-1.02-.187-1.015-.195-1.008-.207-1.004-.211-1.004-.227-.996-.23-.988-.243-.984-.25-.977-.261-.973-.266-.965-.281-.96-.285-.95-.297-.945-.305-.938-.312-.933-.32-.922-.329-.91-.34-.906-.347-.899-.36-.887-.363-.878-.371-.872-.383-.863-.387-.851-.398-.84-.402-.828-.414-.82-.422-.81-.43-.796-.434-.79-.445-.777-.45-.765-.456-.754-.465-.742-.473-.727-.484-.715-.484-.707-.497-.691-.5-.68-.507-.664-.512-.652-.52-.64-.527-.626-.531-.61-.54-.6-.542-.583-.551-.566-.559-.559-.558-.539-.567-.527-.574-.508-.578-.496-.582-.477-.59-.465-.59-.449-.597-.433-.602-.418-.605-.403-.61-.386-.617-.368-.617-.351-.621-.336-.625-.32-.63-.301-.632-.29-.637-.269-.64-.254-.64-.234-.645-.219-.649-.199-.648-.184-.653-.164-.656-.148-.656-.133-.656-.113-.66-.098-.665-.078-.66-.059-.664-.043-.668"/></g><g clip-path="url(#d)"><path fill="none" stroke="#000" stroke-miterlimit="10" stroke-width=".39838953" d="m74.71 71.781.302-.144.34-.11.378-.078.407-.035.422.004.425.047.43.086.414.133.395.171.359.211.32.254.27.285.21.32.145.348.07.372-.007.39-.094.403-.183.41-.278.414-.367.406-.465.395-.558.378-.649.356-.734.32-.82.285-.895.239-.969.191-1.027.137-1.078.078-1.121.012-1.149-.055-1.168-.125-1.176-.2-1.16-.269-1.14-.347-1.106-.422-1.055-.493-.984-.566-.91-.637-.817-.699-.71-.758-.59-.812-.465-.864-.324-.902-.176-.937-.02-.961.145-.98.312-.985.485-.985.652-.968.832-.95 1-.917 1.168-.872 1.328-.82 1.485-.754 1.632-.683 1.762-.606 1.887-.512 1.996-.41 2.09-.308 2.16-.2 2.223-.078 2.257.04 2.278.167 2.273.293 2.25.422 2.207.547 2.133.676 2.047.797 1.937.918 1.805 1.035 1.652 1.14 1.48 1.243 1.294 1.332 1.086 1.418.863 1.484.629 1.547.379 1.598.125 1.625-.14 1.648-.407 1.656-.68 1.645-.953 1.62-1.226 1.58-1.489 1.526-1.746 1.457-1.996 1.372-2.234 1.277-2.457 1.16-2.66 1.04-2.848.901-3.012.754-3.152.598-3.27.43-3.355.258-3.422.078-3.453-.106-3.461-.293-3.43-.48-3.37-.668-3.286-.852-3.164-1.035-3.016-1.207-2.836-1.379-2.629-1.535-2.398-1.688-2.137-1.824-1.851-1.945-1.551-2.059-1.227-2.148-.882-2.227-.536-2.28-.168-2.325.204-2.34.582-2.34.96-2.32 1.337-2.281 1.707-2.215 2.074-2.137 2.422-2.031 2.757-1.91 3.075-1.774 3.37-1.613 3.645-1.442 3.89-1.25 4.102-1.046 4.286-.832 4.437-.61 4.547-.37 4.625-.13 4.66.117 4.656.364 4.614.617 4.531.863 4.406 1.106 4.246 1.347 4.04 1.578 3.8 1.797 3.524 2.004 3.214 2.2 2.872 2.374 2.5 2.536 2.101 2.68 1.684 2.792 1.234 2.895.777 2.965.309 3.015-.176 3.04-.66 3.038-1.148 3.012-1.633 2.953-2.11 2.88-2.57 2.769-3.02 2.64-3.449 2.489-3.851 2.304-4.23 2.11-4.575 1.886-4.887 1.649-5.16 1.39-5.39 1.121-5.582.836-5.723.54-5.824.234-5.871-.07-5.868-.383-5.82-.696-5.719-1.011-5.566-1.313-5.367-1.61-5.121-1.898-4.825-2.175-4.484-2.434-4.105-2.676-3.688-2.898-3.226-3.098-2.739-3.273-2.222-3.426-1.684-3.547-1.117-3.64-.535-3.708.05-3.738.649-3.738 1.242-3.711 1.836-3.652 2.418-3.555 2.988-3.434 3.54-3.277 4.066-3.094 4.558-2.879 5.024-2.64 5.449-2.38 5.836-2.093 6.172-1.781 6.46-1.461 6.704-1.117 6.883-.762 7.011-.399 7.079-.027"/></g><path fill="none" stroke="#000" stroke-miterlimit="10" stroke-width=".39838953" d="M135.008 75.07v114.438"/><g clip-path="url(#e)"><path fill="none" stroke="#000" stroke-miterlimit="10" stroke-width=".39838953" d="M.312 70.43v114.437"/></g><path fill="none" stroke="#000" stroke-miterlimit="10" stroke-width=".39838953" d="m28.602 70.945.191 29.067M106.828 73.535l-.137 28.586M56.89 71.457l.122 20.379M74.71 71.781l-.19 5.867M79.852 74.086l-.13 18.496M82.02 27.121h114.437M196.457 27.121l-.355 6.84 1.464 3.11.82 6.234-1.007 4.62.723 3.259-.547 5.238-1.57 6.957 1.37 4.523-1.292 2.95.777 7.55.238 4.633-1.926 2.79.403 7.784.32 2.508-.578 5.68-.774 3.437.762 6.325 2.36 4.082.597 5.062-2.23 4.5-1.254 5.27 2.121 6.02-.422 5.066M196.457 141.559h-61.45v47.949"/><g clip-path="url(#f)"><path fill="none" stroke="#000" stroke-miterlimit="10" stroke-width=".39838953" d="M82.406 24.773h143.047V141.56h-28.996"/></g><path fill="none" stroke="#000" stroke-miterlimit="10" stroke-width=".39838953" d="M114.734 48.676h57.22v71.52h-36.946v69.312M197.703 48.676h14.305v71.52h-14.305"/><path fill="none" stroke="#000" stroke-miterlimit="10" stroke-width=".39838953" d="m156.246 129 28.61 28.61L213.465 129"/><use xlink:href="#g" x="159.28" y="167.29"/><use xlink:href="#h" x="165.69" y="167.29"/><use xlink:href="#i" x="168.152" y="167.29"/><use xlink:href="#j" x="172.324" y="167.29"/><use xlink:href="#i" x="174.786" y="167.29"/><use xlink:href="#k" x="178.958" y="167.29"/><use xlink:href="#l" x="183.703" y="167.29"/><use xlink:href="#m" x="186.747" y="167.29"/><use xlink:href="#h" x="190.203" y="167.29"/><use xlink:href="#k" x="192.7" y="167.29"/><use xlink:href="#n" x="197.445" y="167.29"/><use xlink:href="#o" x="202.539" y="167.29"/><path fill="none" stroke="#000" stroke-miterlimit="10" stroke-width=".39838953" d="m149.094 57.477 28.61-42.915 28.609 42.915"/><use xlink:href="#p" x="153.516" y="9.483"/><use xlink:href="#i" x="161.251" y="9.483"/><use xlink:href="#l" x="165.423" y="9.483"/><use xlink:href="#q" x="168.467" y="9.483"/><use xlink:href="#j" x="172.648" y="9.483"/><use xlink:href="#j" x="175.146" y="9.483"/><use xlink:href="#r" x="177.643" y="9.483"/><use xlink:href="#i" x="182.424" y="9.483"/><use xlink:href="#j" x="186.596" y="9.483"/><use xlink:href="#s" x="189.094" y="9.483"/><use xlink:href="#t" x="193.275" y="9.483"/><use xlink:href="#i" x="197.715" y="9.483"/><path fill="none" stroke="#000" stroke-miterlimit="10" stroke-width=".39838953" d="m117.625 171.914 42.914 28.61"/><use xlink:href="#u" x="163.718" y="203.717"/><use xlink:href="#h" x="172.295" y="203.717"/><use xlink:href="#v" x="174.757" y="203.717"/><use xlink:href="#k" x="178.786" y="203.717"/><use xlink:href="#i" x="183.298" y="203.717"/><use xlink:href="#j" x="187.47" y="203.717"/></svg>