<svg xmlns="http://www.w3.org/2000/svg" xmlns:xlink="http://www.w3.org/1999/xlink" width="222.715" height="146.081"><defs><path id="c" d="M.422 0a.16.16 0 0 1-.016-.078Q.404-.324.72-.406l.375-.078v-5.188l-.547-.125c-.086-.02-.125-.05-.125-.094q0-.074.094-.25h2.062a.2.2 0 0 1 .016.079q-.001.236-.313.296l-.406.094V-.5h2.047l.25-1.062a.6.6 0 0 1 .203-.032q.218 0 .219.36Q4.592-.78 4.516 0Zm0 0"/><path id="d" d="M2.656-2.766q0-.59-.187-.859-.174-.28-.594-.281-.298 0-.531.078-.11.234-.203.797H.953q-.438 0-.437-.375c0-.27.148-.5.453-.688A1.97 1.97 0 0 1 2-4.375q1.373 0 1.375 1.5v1.953c0 .336.102.5.313.5a.48.48 0 0 0 .328-.11q.077.112.078.25c0 .063-.059.134-.172.204a.87.87 0 0 1-.531.156q-.611 0-.688-.61h-.015q-.423.643-1.22.641-.502 0-.812-.312-.313-.311-.312-.828c0-.438.219-.774.656-1.016.375-.195.844-.297 1.406-.297h.25Zm-.89 2.313q.498 0 .89-.469v-1.015l-.25.015q-1.282.096-1.281.813c0 .437.21.656.64.656m0 0"/><path id="e" d="m7.063-.469.53.125q.125.017.126.11A.35.35 0 0 1 7.625 0H5.75a.1.1 0 0 1-.016-.062c0-.133.094-.235.282-.297l.328-.11V-2.75c0-.687-.29-1.031-.86-1.031-.449 0-.843.164-1.187.484q.047.317.047.516V-.47l.531.125q.124.017.125.11A.4.4 0 0 1 4.922 0h-1.89a.1.1 0 0 1-.016-.062c0-.133.093-.235.28-.297l.329-.11V-2.75c0-.687-.29-1.031-.86-1.031q-.644.002-1.14.437v2.875l.547.125c.07.012.11.047.11.11A.4.4 0 0 1 2.202 0H.313a.1.1 0 0 1-.016-.062c0-.133.094-.235.281-.297l.328-.11V-3.78l-.64-.094a.16.16 0 0 1-.016-.078c0-.156.11-.242.328-.266l1.047-.11-.047.595h.031q.61-.64 1.422-.641.812 0 1.14.703.639-.703 1.516-.703.638 0 1 .422.375.41.375 1.172Zm0 0"/><path id="f" d="M.86 1.313v-5.094l-.657-.094v-.078c0-.156.11-.242.328-.266l1.047-.11-.062.595h.03c.352-.426.798-.641 1.329-.641q.763.001 1.203.547.452.55.453 1.515 0 1.173-.61 1.782-.562.579-1.577.578c-.262 0-.516-.04-.766-.11v1.376l.531.125c.082.007.125.046.125.109a.36.36 0 0 1-.093.234H.266A.13.13 0 0 1 .25 1.72q0-.205.281-.297Zm1.734-5.11q-.581.001-1.016.406v2.672q.359.282.828.282 1.373 0 1.375-1.829 0-.732-.328-1.125a1.03 1.03 0 0 0-.86-.406m0 0"/><path id="g" d="M1.156-2.172q.012.845.375 1.297c.239.305.57.453 1 .453q.593 0 1.11-.422.092.064.109.25-.001.205-.406.438-.47.265-1.11.265Q1.42.111.938-.39C.57-.773.39-1.332.39-2.062Q.39-3.152.969-3.798a1.7 1.7 0 0 1 1.297-.578q.702.001 1.093.406.36.41.36 1.078 0 .299-.094.72Zm1.032-1.75q-.91.002-1.016 1.328h1.75q.047-.17.047-.375-.001-.951-.781-.953m0 0"/><path id="h" d="M2.047-.875v-2.469c0-.422.015-.86.031-.953 0-.031-.015-.031-.047-.031-.39.234-.765.422-1.39.703 0 .078.03.156.093.203.329-.14.485-.187.625-.187.125 0 .141.172.141.422v2.312c0 .594-.187.625-.687.656-.047.047-.047.188 0 .235C1.156 0 1.422 0 1.797 0c.344 0 .516 0 .875.016.047-.047.047-.188 0-.235-.5-.031-.625-.062-.625-.656m0 0"/><path id="k" d="M.438-3.328c0 .14.125.265.28.265.126 0 .329-.124.329-.28 0-.063 0-.095-.016-.141C1.016-3.547.97-3.61.97-3.656c0-.188.187-.438.703-.438.266 0 .625.172.625.86 0 .453-.172.828-.594 1.25l-.516.53C.485-.75.375-.405.375.017c0 0 .36-.016.594-.016h1.234c.235 0 .563.016.563.016.093-.375.156-.907.172-1.125a.3.3 0 0 0-.204-.032c-.125.5-.25.672-.5.672H.97c0-.343.484-.828.515-.86l.72-.687c.405-.39.718-.703.718-1.25 0-.765-.625-1.078-1.203-1.078-.797 0-1.281.578-1.281 1.016m0 0"/><clipPath id="a"><path d="M.555 75H26v2H.555Zm0 0"/></clipPath><clipPath id="b"><path d="M104 136h15v9.168h-15Zm0 0"/></clipPath><clipPath id="i"><path d="M186 87h35.879v47H186Zm0 0"/></clipPath><clipPath id="j"><path d="M190 91h31.879v40H190Zm0 0"/></clipPath></defs><path fill="none" stroke="#000" stroke-miterlimit="10" stroke-width=".39650625" d="M12.781 143.395V83.684m0-11.829v-59.71h34.43m29.578 0h34.43v17.039m0 31.55V77.77H97.414V52.844M12.781 79.723v3.96m0-7.867v-3.96"/><g clip-path="url(#a)"><path fill="none" stroke="#000" stroke-miterlimit="10" stroke-width=".7920187500000001" d="M.95 75.816h23.663"/></g><path fill="none" stroke="#000" stroke-miterlimit="10" stroke-width="2.37605625" d="M6.867 79.723H18.7"/><path fill="none" stroke="#000" stroke-linecap="round" stroke-miterlimit="10" stroke-width=".63103125" d="M47.21 12.145 76.79.313"/><path stroke="#000" stroke-miterlimit="10" stroke-width=".39650625" d="M48.79 12.145c0-.872-.708-1.575-1.58-1.575a1.575 1.575 0 1 0 0 3.153c.872 0 1.58-.707 1.58-1.578ZM78.367 12.145c0-.872-.707-1.575-1.578-1.575a1.575 1.575 0 1 0 0 3.153c.871 0 1.578-.707 1.578-1.578ZM112.793 12.145a1.575 1.575 0 1 0-1.574 1.578c.87 0 1.574-.707 1.574-1.578Zm0 0"/><path fill="none" stroke="#000" stroke-miterlimit="10" stroke-width=".7920187500000001" d="M105.695 29.184v31.55h11.043v-31.55ZM97.414 52.844l27.09-15.48"/><path fill="none" stroke="#000" stroke-miterlimit="10" stroke-width=".7919789" d="m123.152 34.602 3.047 5.328"/><path stroke="#000" stroke-miterlimit="10" stroke-width=".39650625" d="M112.793 77.77a1.575 1.575 0 1 0-3.152 0 1.575 1.575 0 1 0 3.152 0Zm0 0"/><path fill="none" stroke="#000" stroke-miterlimit="10" stroke-width=".39650625" d="M111.219 77.77v20.98m0 23.664v20.98"/><path fill="none" stroke="#000" stroke-miterlimit="10" stroke-width=".7920187500000001" d="M123.047 110.582c0-6.535-5.297-11.832-11.828-11.832-6.535 0-11.832 5.297-11.832 11.832s5.297 11.832 11.832 11.832c6.531 0 11.828-5.297 11.828-11.832ZM119.582 102.215l-16.73 16.73m0-16.73 16.73 16.73"/><path d="M112.793 143.395a1.575 1.575 0 1 0-3.152 0c0 .87.707 1.574 1.578 1.574.87 0 1.574-.703 1.574-1.574m0 0"/><g clip-path="url(#b)"><path fill="none" stroke="#000" stroke-miterlimit="10" stroke-width=".39650625" d="M112.793 143.395a1.575 1.575 0 1 0-3.152 0c0 .87.707 1.574 1.578 1.574.87 0 1.574-.703 1.574-1.574Zm0 0"/></g><use xlink:href="#c" x="67.042" y="112.72"/><use xlink:href="#d" x="71.809" y="112.72"/><use xlink:href="#e" x="75.97" y="112.72"/><use xlink:href="#f" x="83.82" y="112.72"/><use xlink:href="#g" x="88.748" y="112.72"/><use xlink:href="#h" x="92.9" y="114.903"/><path fill="none" stroke="#000" stroke-miterlimit="10" stroke-width=".39650625" d="M111.219 12.145h49.215m0 0h49.218v17.039m0 31.55V98.75m0 23.664v20.98h-49.218m0 0H62m0 0H12.781"/><path fill="none" stroke="#000" stroke-linejoin="bevel" stroke-miterlimit="10" stroke-width=".7920187500000001" d="M209.492 28.785c3.27 0 5.918 1.813 5.918 4.043 0 2.235-2.648 4.043-5.918 4.043 3.27 0 5.918 1.813 5.918 4.043 0 2.234-2.648 4.043-5.918 4.043 3.27 0 5.918 1.809 5.918 4.043s-2.648 4.043-5.918 4.043c3.27 0 5.918 1.809 5.918 4.043s-2.648 4.043-5.918 4.043"/><g clip-path="url(#i)"><path fill="none" stroke="#000" stroke-miterlimit="10" stroke-width=".7920187500000001" d="M221.484 110.582c0-6.535-5.297-11.832-11.832-11.832s-11.832 5.297-11.832 11.832 5.297 11.832 11.832 11.832 11.832-5.297 11.832-11.832Zm0 0"/></g><g clip-path="url(#j)"><path fill="none" stroke="#000" stroke-miterlimit="10" stroke-width=".7920187500000001" d="m218.02 102.215-16.735 16.73m0-16.73 16.734 16.73"/></g><use xlink:href="#c" x="165.476" y="112.72"/><use xlink:href="#d" x="170.243" y="112.72"/><use xlink:href="#e" x="174.404" y="112.72"/><use xlink:href="#f" x="182.254" y="112.72"/><use xlink:href="#g" x="187.182" y="112.72"/><use xlink:href="#k" x="191.334" y="114.903"/><path fill="none" stroke="#000" stroke-miterlimit="10" stroke-width=".7920187500000001" d="M217.547 60.734v-31.55"/></svg>