<svg xmlns="http://www.w3.org/2000/svg" width="635.369" height="459.518"><path fill="none" stroke="#000" stroke-linecap="round" stroke-linejoin="round" stroke-miterlimit="10" stroke-width=".39858105000000005" d="m373.121 378.172-5.539 11.172-7.055 10.457M363.281 372.476l-5.012 10.176M353.34 390.45l-2.684 3.66M321.11 408.488l6.085-3.383 5.969-4.472 5.703-5.39 5.309-6.142M353.262 374.773l3.562-8.363 2.356-8.273 1.136-7.903-.074-7.25"/><path fill="none" stroke="#000" stroke-linecap="round" stroke-linejoin="round" stroke-miterlimit="10" stroke-width=".39858105000000005" d="m320.445 417.101 5.219-1.011 5.379-1.977 5.441-2.937 5.36-3.848 10.035-9.894 8.492-11.977 6.191-13.016 3.243-12.867.48-6.008-.27-5.554-1.011-4.98-1.742-4.274"/><path fill="none" stroke="#000" stroke-linecap="round" stroke-linejoin="round" stroke-miterlimit="10" stroke-width=".39858105000000005" d="m321.324 422.117 5.746.82 6.246-.636 6.551-2.075 6.656-3.484 6.547-4.844 6.2-5.98 5.687-6.871 5.012-7.512 4.168-7.906 3.156-8.059 2.004-7.906.828-7.477-.309-6.82-1.414-5.945-2.488-4.848-3.523-3.531"/><path fill="none" stroke="#000" stroke-linecap="round" stroke-linejoin="round" stroke-miterlimit="10" stroke-width=".39858105000000005" d="M326.344 425.566c14.465 6.164 36.379-8.265 48.949-32.226 8.129-15.496 10.652-31.95 6.613-43.149-2.36-6.543-6.808-10.836-12.71-12.27M326.344 425.566l-1.825-.925"/><path fill="none" stroke="#000" stroke-linecap="round" stroke-linejoin="round" stroke-miterlimit="10" stroke-width=".39858105000000005" d="m370.887 338.437 3.074 3.778 2.144 4.91 1.168 5.855.145 6.625-.918 7.207-2.024 7.598-3.062 7.703-3.965 7.578-4.738 7.23-5.371 6.653-5.871 5.86-6.227 4.835-6.363 3.625-6.32 2.368-6.094 1.074-5.7-.254"/><path fill="none" stroke="#000" stroke-linecap="round" stroke-linejoin="round" stroke-miterlimit="10" stroke-width=".39858105000000005" d="m365.629 339.562 1.254 4.247.648 4.78-.586 10.79-3.183 11.816-5.63 11.903M353.535 390.285l-7.43 9.074-8.285 7.492-8.722 5.348-8.633 2.922M357.754 344.879l-.82 9.613-2.77 10.34M256.144 270.695c-17.886 10.324-34.421 30.895-43.367 53.946-4.39 11.324-6.707 22.636-6.707 32.78M356.98 382.637c.98.566.98 2.398 0 4.093-.976 1.7-2.566 2.614-3.543 2.047-.98-.562-.98-2.398 0-4.093.977-1.696 2.567-2.61 3.543-2.047m0 0"/><path fill="none" stroke="#000" stroke-linecap="round" stroke-linejoin="round" stroke-miterlimit="10" stroke-width=".39858105000000005" d="M358.082 383.559c1.25-4.27-.227-7.465-3.3-7.133-3.071.328-6.575 4.054-7.825 8.324s.227 7.465 3.297 7.133c1.45-.153 3.078-1.094 4.527-2.614"/><path fill="none" stroke="#000" stroke-linecap="round" stroke-linejoin="round" stroke-miterlimit="10" stroke-width=".39858105000000005" d="M398.781 335.668c17.98 10.383 17.98 44.047-.004 75.195-17.98 31.149-47.136 47.98-65.117 37.598-17.984-10.383-17.984-44.047 0-75.195 17.98-31.145 47.137-47.98 65.121-37.598m0 0"/><path fill="none" stroke="#000" stroke-linecap="round" stroke-linejoin="round" stroke-miterlimit="10" stroke-width=".39858105000000005" d="M320.375 416.57c.902 26.586 20.668 36.305 44.14 21.707 23.477-14.597 41.774-47.98 40.872-74.566-.856-25.145-18.668-35.43-40.871-23.598"/><path fill="none" stroke="#000" stroke-linecap="round" stroke-linejoin="round" stroke-miterlimit="10" stroke-width=".39858105000000005" d="M389.441 336.434c14.664 12.722 11.676 45.355-6.675 72.886-15.524 23.293-37.586 36.031-53.11 30.664"/><path fill="none" stroke="#000" stroke-linecap="round" stroke-linejoin="round" stroke-miterlimit="10" stroke-width=".39858105000000005" d="M386.77 335.703c15.757 10.39 14.847 41.461-2.028 69.398-16.062 26.586-40.996 40.981-57.058 32.942M320.816 421.719a16.6 16.6 0 0 0 5.528 3.847M321.57 405.68c7.34-2.91 14.848-9.13 21.047-17.434M351.113 373.535c4.09-9.52 5.719-19.133 4.57-26.945M352.848 349.113c.91 6.77-.454 14.996-3.848 23.203M340.508 387.027c-5.41 7.043-11.852 12.34-18.172 14.934"/><path fill="none" stroke="#000" stroke-linecap="round" stroke-linejoin="round" stroke-miterlimit="10" stroke-width=".39858105000000005" d="M322.602 400.828c5.921-2.762 11.867-7.82 16.902-14.379M348 371.738c3.16-7.64 4.566-15.32 3.996-21.824M369.422 309.465c-20.195-11.66-52.938 7.246-73.137 42.226-20.195 34.98-20.195 72.79.004 84.45M307.324 442.512l-12.906 2.898M374.52 312.406l-3.758-4.578-4.504-5.094-5.364-5.722-6.375-6.5"/><path fill="none" stroke="#000" stroke-linecap="round" stroke-linejoin="round" stroke-miterlimit="10" stroke-width=".39858105000000005" d="m354.52 290.512-4.579 6.882-5.12 5.817-5.762 4.984-6.54 4.317-7.472 3.773-8.63 3.324-10.077 2.957-11.922 2.645M294.418 325.21l-.453 12.75-1.32 11.224-2.165 10.101-3.035 9.3-3.968 8.755-5.036 8.445-6.277 8.363-7.793 8.512M264.371 402.66l7.793 7.988 6.277 6.836 5.036 5.946 3.968 5.254 3.035 4.71 2.164 4.293 1.32 3.973.454 3.75M296.223 256.852l58.296 33.66M296.223 256.852l-11.922 2.644-10.078 2.957-8.63 3.328-7.476 3.774-6.535 4.312-5.762 4.985-5.12 5.816-4.579 6.883M236.121 291.55l58.297 33.66M236.121 291.55l-7.797 8.516-6.277 8.36-5.031 8.445-3.973 8.758-3.031 9.297-2.164 10.101-1.325 11.223-.453 12.75M206.07 369l58.301 33.66"/><path fill="none" stroke="#000" stroke-linecap="round" stroke-linejoin="round" stroke-miterlimit="10" stroke-width=".39858105000000005" d="m206.07 369 .453 3.75 1.325 3.976 2.164 4.29 3.03 4.71 3.974 5.254 5.03 5.95 6.278 6.836 7.797 7.984M236.121 411.75l58.297 33.66M356.152 387.836l-1.37 1.433M357.523 385.46l.559-1.901M348.27 391.512l-18.458-10.66M356.766 376.8l-18.461-10.656M324.648 452.512l4.473 2.097 4.793 1.34 10.121.422 10.39-2.348 10.329-4.78 10.02-6.923 9.452-8.765 8.625-10.301 7.524-11.469 6.168-12.25 4.61-12.617 2.866-12.574.985-12.137-1.028-11.332-3.164-10.176-5.418-8.555-3.558-3.476-4.055-2.828M324.648 452.512 296.29 436.14M397.781 325.84l-28.36-16.375M256.144 270.695l1.973-1.14M206.07 357.422V369M84.984 154.621c-18.007-10.27-47.117 6.637-65.015 37.766-17.817 30.988-17.817 64.43 0 74.843M180.844 352.61c-16.157-9.333-16.157-39.583 0-67.571 16.16-27.988 42.36-43.113 58.515-33.785"/><path fill="none" stroke="#000" stroke-linecap="round" stroke-linejoin="round" stroke-miterlimit="10" stroke-width=".39858105000000005" d="M253.531 259.437c-8.332-22.882-34.527-22.41-58.512 1.059s-36.671 61.043-28.34 83.926c4.614 12.672 15.06 18.703 28.34 16.363M206.07 367.172l-25.226-14.563M264.988 266.05l-25.629-14.792M84.984 154.621l157.63 91.004M19.969 267.234l157.625 91.004M295.152 10.527C277.18.2 248.07 17.047 230.137 48.157c-17.899 31.05-17.899 64.597 0 74.984M447.516 237.8c-20.375-.183-28.508-24.241-18.165-53.741s35.25-53.27 55.625-53.09c7.825.07 14.192 3.746 18.165 10.488M391.016 208.516c-16.16-9.329-16.16-39.579 0-67.567 16.156-27.988 42.355-43.113 58.515-33.785"/><path fill="none" stroke="#000" stroke-linecap="round" stroke-linejoin="round" stroke-miterlimit="10" stroke-width=".39858105000000005" d="M463.7 115.344c-8.333-22.883-34.532-22.407-58.513 1.062-23.984 23.469-36.671 61.043-28.34 83.926 4.614 12.668 15.06 18.7 28.34 16.363M436.988 235.059l-45.972-26.543M495.504 133.707l-45.973-26.543M295.152 10.527l157.63 91.008M230.137 123.14l157.625 91.008M425.527 207.894l40.586 23.434M486.473 178.852l-.305 8.64-.895 7.602-1.468 6.847-2.055 6.297-6.102 11.656-4.25 5.665-5.285 5.77M445.887 155.418l40.586 23.434M445.887 236.86l40.586 23.433"/><path fill="none" stroke="#000" stroke-linecap="round" stroke-linejoin="round" stroke-miterlimit="10" stroke-width=".39858105000000005" d="m466.113 231.328 5.285 5.41 4.25 4.633 3.41 4.027 2.692 3.563 3.523 6.098 1.2 5.234M486.473 260.293l8.757-1.969M527.195 155.344l-3.101 4.66-3.47 3.945-8.335 6.297-5.063 2.559-5.847 2.254-6.828 2.003-8.078 1.79M486.605 131.906l40.59 23.438M540.758 170.195l-5.598-6.558-3.64-3.883-4.325-4.41M564.133 302.898l5.968-1.347M564.133 302.898c1.992-.195 4.05-.613 6.148-1.242M619.242 215.508l-3.629-7.239-5.437-4.917-6.942-2.305-8.066.445-8.727 3.192-8.894 5.773-8.559 8.055-7.726 9.902-6.426 11.211-4.727 11.871-2.715 11.836-.511 11.125 1.765 9.719 3.977 7.691 2.762 2.93 3.226 2.242 3.637 1.52 3.988.761"/><path fill="none" stroke="#000" stroke-linecap="round" stroke-linejoin="round" stroke-miterlimit="10" stroke-width=".39858105000000005" d="M561.152 296.387c-13.676-7.91-13.664-33.532.024-57.223 13.675-23.672 35.843-36.473 49.52-28.59M537.293 168.195c-13.688-7.886-35.867 4.934-49.543 28.633-13.664 23.68-13.66 49.274.004 57.18"/><path fill="none" stroke="#000" stroke-linecap="round" stroke-linejoin="round" stroke-miterlimit="10" stroke-width=".39858105000000005" d="M494.172 240.957c0-22.34 15.683-49.508 35.031-60.676"/><path fill="none" stroke="#000" stroke-linecap="round" stroke-linejoin="round" stroke-miterlimit="10" stroke-width=".39858105000000005" d="m497 226.625-2.637 14.125-.152 6.64.633 6.16 1.414 5.575 2.164 4.867 2.867 4.07 3.52 3.196M497 226.625l4.457-11.871 6.234-11.41 7.66-10.301 8.653-8.61M524.004 184.434l7.789-5.622 7.988-4.09M543.008 173.16c8.074-2.875 15.508-2.617 21.32.738"/><path fill="none" stroke="#000" stroke-linecap="round" stroke-linejoin="round" stroke-miterlimit="10" stroke-width=".39858105000000005" d="m538.734 178.781-6.14 4.38-5.985 5.429-5.683 6.344-5.235 7.109-4.656 7.707-3.96 8.121-3.157 8.34-2.281 8.367-1.34 8.184-.36 7.82.633 7.262 1.614 6.539 2.562 5.644 3.457 4.633 4.273 3.508 4.985 2.3"/><path fill="none" stroke="#000" stroke-linecap="round" stroke-linejoin="round" stroke-miterlimit="10" stroke-width=".39858105000000005" d="m579.64 183.473-5.632-3.836-6.871-1.493-7.77.926-8.312 3.305-8.461 5.555-8.188 7.535-7.558 9.203-6.555 10.453-5.23 11.215-3.676 11.508-1.922 11.273-.07 10.52 1.796 9.308 3.602 7.684 5.254 5.707 6.683 3.484"/><path fill="none" stroke="#000" stroke-linecap="round" stroke-linejoin="round" stroke-miterlimit="10" stroke-width=".39858105000000005" d="m588.91 188.82-5.633-3.832-6.855-1.492-7.77.918-8.312 3.305-8.453 5.543-8.2 7.539-7.558 9.195-6.555 10.453-5.242 11.23-3.676 11.508-1.922 11.274-.07 10.527 1.797 9.313 3.601 7.68 5.254 5.706 6.68 3.485"/><path fill="none" stroke="#000" stroke-linecap="round" stroke-linejoin="round" stroke-miterlimit="10" stroke-width=".39858105000000005" d="m526.594 263.348.035-9.618 1.84-10.332 3.48-10.523 4.902-10.211 6.157-9.395 7.058-8.12 7.551-6.485 7.719-4.473"/><path fill="none" stroke="#000" stroke-linecap="round" stroke-linejoin="round" stroke-miterlimit="10" stroke-width=".39858105000000005" d="m517.324 258.023.043-9.703 1.863-10.367 3.496-10.55 4.934-10.235 6.164-9.352 7.035-8.082 7.524-6.449 7.66-4.43"/><path fill="none" stroke="#000" stroke-linecap="round" stroke-linejoin="round" stroke-miterlimit="10" stroke-width=".39858105000000005" d="m508.059 252.703.035-9.695 1.859-10.367 3.488-10.555 4.93-10.234 6.164-9.352 7.031-8.094 7.528-6.457 7.656-4.43M498.789 247.367l.039-9.719 1.86-10.449M500.691 227.191l-3.691-.566M570.375 178.121l-6.207-4.066-7.64-1.274-8.637 1.598-9.157 4.402"/><path fill="none" stroke="#000" stroke-linecap="round" stroke-linejoin="round" stroke-miterlimit="10" stroke-width=".39858105000000005" d="m501.246 230.707-1.633 7.793-.777 7.539.098 7.137.972 6.566 1.84 5.875 2.664 5.055 3.438 4.12 4.144 3.114M574.742 179.914l-5.934-2.137-6.816-.117-7.418 1.918-7.73 3.883-7.73 5.71-7.419 7.317-6.816 8.656-5.938 9.665-4.82 10.308-3.508 10.567-2.05 10.414-.497 9.886 1.075 8.965 2.632 7.719 4.086 6.18 5.399 4.406"/><path fill="none" stroke="#000" stroke-linecap="round" stroke-linejoin="round" stroke-miterlimit="10" stroke-width=".39858105000000005" d="m584.012 185.266-5.938-2.141-6.816-.113-7.422 1.918-7.735 3.886-7.714 5.703-7.418 7.317-6.817 8.656-5.941 9.664-4.817 10.301-3.511 10.566-2.051 10.418-.5 9.883 1.078 8.973 2.629 7.719 4.086 6.183 5.402 4.406"/><path fill="none" stroke="#000" stroke-linecap="round" stroke-linejoin="round" stroke-miterlimit="10" stroke-width=".39858105000000005" d="m593.281 190.617-5.941-2.14-6.817-.114-7.422 1.918-7.73 3.887-7.719 5.703-7.418 7.316-6.816 8.657-5.942 9.664-4.82 10.312-3.508 10.563-2.05 10.422-.497 9.87 1.079 8.973 2.629 7.723 4.085 6.18 5.403 4.406"/><path fill="none" stroke="#000" stroke-linecap="round" stroke-linejoin="round" stroke-miterlimit="10" stroke-width=".39858105000000005" d="m602.547 195.969-5.938-2.14-6.812-.114-7.422 1.914-7.727 3.887-7.726 5.707-7.422 7.32-6.817 8.656-5.937 9.664-4.824 10.305-3.504 10.566-2.05 10.418-.5 9.883 1.077 8.969 2.63 7.719 4.089 6.18 5.398 4.406"/><path fill="none" stroke="#000" stroke-linecap="round" stroke-linejoin="round" stroke-miterlimit="10" stroke-width=".39858105000000005" d="m564.133 302.898-4.61-.03-4.316-.794-3.965-1.547-3.559-2.27-3.109-2.964-2.617-3.633-3.625-9.023-1.328-10.903 1.012-12.222 3.289-12.852 5.351-12.746L553.75 222l8.387-10.41 9.191-8.328 9.48-5.805 9.18-2.938 4.305-.34 4.035.426 3.695 1.176 3.297 1.91 2.852 2.61 2.375 3.273"/><path fill="none" stroke="#000" stroke-linecap="round" stroke-linejoin="round" stroke-miterlimit="10" stroke-width=".39858105000000005" d="m545.266 296.52-6.684-3.485-5.258-5.71-3.598-7.688-1.796-9.29.07-10.519 1.914-11.242 3.668-11.512 5.238-11.246 6.563-10.457 7.55-9.203 8.211-7.547 8.461-5.55 8.317-3.305 7.777-.918 6.863 1.5 5.614 3.824M535.828 177.102l7.18-3.942M501.246 230.707l5.305-16.14 8.074-15.11 4.848-6.79 5.23-6.065 5.496-5.227 5.629-4.273"/><path fill="none" stroke="#000" stroke-linecap="round" stroke-linejoin="round" stroke-miterlimit="10" stroke-width=".39858105000000005" d="m554.855 294.316-3.785-3.672-2.941-4.757-2.016-5.72-1.047-6.526-.062-7.16.933-7.598 1.883-7.828 2.781-7.856 3.594-7.66 4.297-7.266 4.883-6.668 5.32-5.898 5.61-4.965 5.738-3.898 5.695-2.739 5.492-1.488"/><path fill="none" stroke="#000" stroke-linecap="round" stroke-linejoin="round" stroke-miterlimit="10" stroke-width=".39858105000000005" d="m535.855 268.96.024-9.694 1.808-10.399 3.473-10.594 4.961-10.27 6.18-9.44 7.07-8.149 7.598-6.465 7.722-4.46M620.797 216.191c13.734 7.93 13.734 33.637 0 57.422-13.73 23.785-35.996 36.64-49.727 28.711-13.734-7.93-13.734-33.637 0-57.422 13.73-23.785 35.996-36.636 49.727-28.71m0 0"/><path fill="none" stroke="#000" stroke-linecap="round" stroke-linejoin="round" stroke-miterlimit="10" stroke-width=".39858105000000005" d="M617.484 221.934c11.899 6.87 11.899 29.152-.004 49.765-11.898 20.613-31.195 31.754-43.097 24.883-11.899-6.871-11.899-29.148 0-49.766 11.902-20.613 31.199-31.754 43.101-24.882m0 0"/><path fill="none" stroke="#000" stroke-linecap="round" stroke-linejoin="round" stroke-miterlimit="10" stroke-width=".39858105000000005" d="M600.055 222.144c1.472 11.56-2.903 26.458-11.473 39.083-6.45 9.5-14.645 16.765-22.73 20.156"/><path fill="none" stroke="#000" stroke-linecap="round" stroke-linejoin="round" stroke-miterlimit="10" stroke-width=".39858105000000005" d="M565.594 278.07c9.457-3.406 19.148-12.93 25.418-24.98 5.332-10.242 7.554-21.102 6.039-29.512"/><path fill="none" stroke="#000" stroke-linecap="round" stroke-linejoin="round" stroke-miterlimit="10" stroke-width=".39858105000000005" d="M596.219 224.035c1.43 10.164-2.328 23.375-9.856 34.645-5.851 8.761-13.387 15.445-20.789 18.433M577.64 241.84c-.765 3.793-3.035 7.726-5.94 10.285"/><path fill="none" stroke="#000" stroke-linecap="round" stroke-linejoin="round" stroke-miterlimit="10" stroke-width=".39858105000000005" d="M577.058 242.695c-.843 3.11-2.636 6.211-4.906 8.5"/><path fill="none" stroke="#000" stroke-linecap="round" stroke-linejoin="round" stroke-miterlimit="10" stroke-width=".39858105000000005" d="M573.383 248.8a18.3 18.3 0 0 0 2.218-3.843M501.937 227.91l-1.25-.719M500.691 227.191l3.422-11.742 5.278-11.437 6.78-10.555 7.833-9.023M537.293 168.195l7.555 4.36M487.75 254.008l8.422 4.86M529.203 180.281l4.078-2.351M494.172 240.957v4.45M564.328 173.902l2.305 1.332M574.746 179.914l1.156.668M584.012 185.266l1.16.668M593.281 190.617l1.156.668M602.547 195.969l1.156.668M511.992 277.906l1.156.668M521.262 283.254l1.156.668M530.527 288.605l1.157.668M539.797 293.957l1.156.668M549.062 299.309l1.157.668M610.695 210.574l10.008 5.778M561.152 296.387l10.008 5.777"/></svg>