<svg xmlns="http://www.w3.org/2000/svg" width="113.388" height="14.009"><defs><clipPath id="a"><path d="M3.46 11h105.895v1H3.461Zm0 0"/></clipPath><clipPath id="b"><path d="M34 0h45v13.082H34Zm0 0"/></clipPath><clipPath id="c"><path d="M35 4h15v9.082H35Zm0 0"/></clipPath><clipPath id="d"><path d="M63 4h15v9.082H63Zm0 0"/></clipPath></defs><g clip-path="url(#a)"><path fill="none" stroke="#000" stroke-miterlimit="10" stroke-width=".37263807000000004" d="M3.645 11.414h38.867m27.797 0h38.863"/></g><g clip-path="url(#b)"><path fill="none" stroke="#000" stroke-linecap="round" stroke-miterlimit="10" stroke-width=".59304555" d="M42.512 11.414 70.309.297"/></g><path d="M43.992 11.414a1.482 1.482 0 1 0-2.964.003 1.482 1.482 0 0 0 2.964-.003m0 0"/><g clip-path="url(#c)"><path fill="none" stroke="#000" stroke-miterlimit="10" stroke-width=".37263807000000004" d="M43.992 11.414a1.482 1.482 0 1 0-2.964.003 1.482 1.482 0 0 0 2.964-.003Zm0 0"/></g><path d="M71.79 11.414a1.482 1.482 0 1 0-2.965.003 1.482 1.482 0 0 0 2.964-.003m0 0"/><g clip-path="url(#d)"><path fill="none" stroke="#000" stroke-miterlimit="10" stroke-width=".37263807000000004" d="M71.789 11.414a1.482 1.482 0 1 0-2.964.003 1.482 1.482 0 0 0 2.964-.003Zm0 0"/></g></svg>