<svg xmlns="http://www.w3.org/2000/svg" width="632.732" height="465.433"><path fill="none" stroke="#000" stroke-linecap="round" stroke-linejoin="round" stroke-miterlimit="10" stroke-width=".39851322" d="M260.238 412.906c11.082-.367 23.559-5.797 35.574-15.488M340.875 319.371c2.387-15.254.851-28.773-4.375-38.555M333.973 281.828l2.171 7.191 1.086 8.118.004 8.859-1.058 9.422M288.476 394.484l-7.257 4.946-7.297 3.921-7.238 2.872-7.07 1.793M327.98 284.656l1.243 12.285-1.153 13.735M280.297 389.707l-10.54 6.906-10.534 4.742M320.93 288.89l-.079 8.313-.992 8.785M272.144 385.035l-12.488 7.856M270.98 384.387c-3.699 2.906-7.468 5.437-11.23 7.527M318.078 290.89c.066 4.305-.238 8.833-.906 13.493M259.453 395.41l7.477-4 7.43-5.09M322.078 307.258l1.113-10.215-.164-9.524M259.277 403.281l11.602-4.84 11.652-7.43M330.262 311.98l1.117-14.984-.48-6.883-1.165-6.363"/><path fill="none" stroke="#000" stroke-linecap="round" stroke-linejoin="round" stroke-miterlimit="10" stroke-width=".39851322" d="m259.793 409.637 7.52-1.57 7.75-2.884 7.847-4.16 7.793-5.324M338.398 316.926l1.133-10.137-.164-9.445-1.414-8.547-2.598-7.504"/><path fill="none" stroke="#000" stroke-linecap="round" stroke-linejoin="round" stroke-miterlimit="10" stroke-width=".39851322" d="M244.851 440.637c-29.816-17.215-29.816-73.032 0-124.676 29.817-51.64 78.153-79.55 107.97-62.336M369.71 260.566a65 65 0 0 1 1.31 3.563M369.144 262.008l.567-1.442M369.098 259.094l.046 2.914M368.203 257.105q.459.98.895 1.989M368.473 260.523l-.27-3.418M367.516 255.71l.957 4.813M364.008 249.789a52 52 0 0 1 3.508 5.922M363.305 251.797l.703-2.008M363.156 248.586l.149 3.21M361.93 246.984q.628.78 1.226 1.602M362.387 250.598l-.457-3.614M361.008 245.867l1.379 4.73M356.469 241.273a43 43 0 0 1 4.539 4.598M355.7 243.828l.769-2.555M355.398 240.375l.301 3.453M353.875 239.191c.516.38 1.023.778 1.52 1.18M354.559 242.941l-.684-3.75M352.742 238.387l1.817 4.554M347.277 235.234a40.4 40.4 0 0 1 5.461 3.153M346.508 238.297l.77-3.063M346.016 234.656l.492 3.64M344.23 233.926c.602.23 1.2.472 1.786.73M345.172 237.75l-.942-3.824M342.914 233.45l2.258 4.3M336.668 231.812c2.144.399 4.238.946 6.246 1.637M335.965 235.34l.703-3.528M335.238 231.574l.727 3.766M333.238 231.312q1.009.11 2 .262M334.469 235.148l-1.23-3.836M331.77 231.176l2.699 3.972M324.89 231.101a52 52 0 0 1 6.88.079M324.324 235.035l.567-3.934M323.336 231.207l.988 3.828M321.172 231.422c.722-.086 1.449-.16 2.164-.219M322.703 235.195l-1.531-3.773M319.586 231.625l3.117 3.57M312.242 233.113a68 68 0 0 1 7.344-1.488M311.879 237.383l.363-4.27M310.601 233.559l1.278 3.824M308.32 234.242a63 63 0 0 1 2.281-.683M310.172 237.898l-1.852-3.656M306.66 234.785l3.512 3.113M299.031 237.797a89 89 0 0 1 7.63-3.012M298.93 242.332l.101-4.535M297.344 238.57l1.586 3.762M295.004 239.707c.777-.39 1.562-.77 2.34-1.133M297.18 243.184l-2.176-3.477M293.309 240.578l3.87 2.606M285.586 245.039a114 114 0 0 1 7.723-4.46M285.797 249.754l-.211-4.715M283.89 246.125l1.907 3.629M281.55 247.687a135 135 0 0 1 2.34-1.562M284.047 250.926l-2.496-3.239M279.863 248.863l4.184 2.063M272.234 254.664a140 140 0 0 1 7.63-5.8M272.805 259.473l-.57-4.809M270.574 256.035l2.23 3.438M268.293 257.984c.758-.66 1.52-1.316 2.281-1.953M271.098 260.93l-2.805-2.946M266.652 259.434l4.446 1.496M259.305 266.43a170 170 0 0 1 7.347-6.996M260.273 271.242l-.968-4.812M257.723 268.05l2.55 3.192M255.555 270.34c.714-.77 1.441-1.535 2.168-2.29M258.648 272.953l-3.093-2.613M254.004 272.027l4.644.926M247.121 280.05a189 189 0 0 1 6.879-8.023M248.508 284.777l-1.387-4.726M245.652 281.883l2.856 2.894M243.652 284.453c.66-.863 1.328-1.723 2-2.57M247.012 286.7l-3.36-2.247M242.226 286.34l4.786.36M235.976 295.187a209 209 0 0 1 6.25-8.847M237.8 299.742l-1.824-4.555M234.66 297.187l3.14 2.555M232.879 299.976c.586-.933 1.183-1.867 1.781-2.789M236.469 301.828l-3.59-1.852M231.613 302.012l4.856-.184M226.152 311.473a214 214 0 0 1 5.457-9.454M228.418 315.77l-2.266-4.297M225.02 313.586l3.398 2.183M223.496 316.527c.5-.98 1.008-1.968 1.523-2.941M227.277 317.969l-3.781-1.442M222.422 318.664l4.855-.695M217.883 328.504a204 204 0 0 1 4.539-9.836M220.59 332.465l-2.707-3.961M216.965 330.68l3.625 1.785M215.738 333.7q.6-1.514 1.227-3.02M219.672 334.723l-3.934-1.024M214.887 335.887l4.785-1.164M211.379 345.855a187 187 0 0 1 3.508-9.972M214.504 349.418l-3.125-3.563M210.691 348.047l3.813 1.37M209.793 351.066c.289-1.004.59-2.015.898-3.02M213.832 351.68l-4.04-.614M209.184 353.246l4.648-1.566M206.793 363.11a169 169 0 0 1 2.387-9.86M210.312 366.207l-3.52-3.098M206.36 365.254l3.952.953M205.812 368.203c.172-.977.356-1.965.547-2.95M209.902 368.418l-4.09-.215M205.453 370.328l4.45-1.91M204.246 379.832c.29-3.117.691-6.297 1.207-9.504M208.125 382.426l-3.879-2.594M204.074 381.883l4.05.543M203.89 384.691c.051-.93.114-1.87.184-2.808M207.984 384.527l-4.093.164M203.797 386.7l4.187-2.173M203.797 395.621a113 113 0 0 1 0-8.922M207.984 397.668l-4.187-2.047M203.89 397.523l4.094.145M204.074 400.117a92 92 0 0 1-.183-2.598M208.125 399.613l-4.05.504M204.246 401.969l3.879-2.356M205.453 410.078a90 90 0 0 1-1.207-8.11M209.902 411.566l-4.449-1.488M205.812 411.789l4.09-.223M206.36 414.105a84 84 0 0 1-.548-2.316M210.312 413.3l-3.953.805M206.793 415.75l3.52-2.45M209.184 422.855a68 68 0 0 1-2.387-7.105M213.832 423.77l-4.648-.915M209.793 424.328l4.039-.559M210.691 426.312a61 61 0 0 1-.898-1.984M214.504 425.254l-3.813 1.058M211.379 427.71l3.125-2.456M214.887 433.633a52 52 0 0 1-3.508-5.926M219.672 433.98l-4.785-.347M215.738 434.832l3.934-.852M216.965 436.433a45 45 0 0 1-1.227-1.597M220.59 435.18l-3.625 1.253M217.883 437.55l2.707-2.37M222.422 442.144a44 44 0 0 1-4.54-4.593M227.277 441.95l-4.855.194M223.496 443.047l3.781-1.098M225.02 444.226a40 40 0 0 1-1.524-1.18M228.418 442.836l-3.399 1.39M226.152 445.031l2.266-2.195M231.613 448.187a41 41 0 0 1-5.457-3.152M236.469 447.48l-4.856.707M232.879 448.766l3.59-1.286M234.66 449.492c-.598-.23-1.2-.473-1.785-.726M237.8 448.027l-3.14 1.465M235.976 449.969l1.825-1.942M242.226 451.605a43.4 43.4 0 0 1-6.25-1.636M247.012 450.437l-4.786 1.168M243.652 451.844l3.36-1.407M245.652 452.105a48 48 0 0 1-2-.261M248.508 450.629l-2.856 1.476M247.121 452.242l1.387-1.613M254.004 452.316a52 52 0 0 1-6.883-.074M258.648 450.742l-4.644 1.574M255.555 452.215l3.093-1.473M257.723 452q-1.09.13-2.168.215M260.273 450.582l-2.55 1.418M259.305 451.793l.968-1.211M263.047 451.14a65 65 0 0 1-3.738.649M167.727 411.441c-.254-.144-.512-.3-.762-.453M166.937 410.933l.024.055M165.789 410.25a41.5 41.5 0 0 1-5.125-3.965M160.621 405.691l.043.59M159.637 405.316a40 40 0 0 1-1.282-1.297M158.2 403.539l.155.48M157.387 402.965a47.6 47.6 0 0 1-4.121-5.387M153.227 396.484l.039 1.094M152.46 396.316a50 50 0 0 1-.991-1.672M151.27 393.742l.199.902M150.734 393.3a59 59 0 0 1-3.015-6.667M147.703 385.156l.016 1.477M147.156 385.105a61 61 0 0 1-.676-2.007M146.3 381.797l.18 1.3M145.992 381.5a78 78 0 0 1-1.84-7.785M144.164 371.957l-.012 1.754M143.848 371.957a104 104 0 0 1-.34-2.293M143.402 367.988l.106 1.676M143.281 367.851a101 101 0 0 1-.62-8.718M142.668 357.191l-.008 1.942M142.621 357.195c-.008-.832-.008-1.68 0-2.523M142.668 350.098l-.047 4.574M142.66 352.691l.008-2.593M142.66 352.691c.086-3.078.293-6.242.621-9.437M143.23 341.527l.051 1.73M143.508 341.184l-.278.343M143.508 341.184c.101-.891.219-1.79.34-2.688M144.168 334.168l-.32 4.328M144.152 336.39l.016-2.222M144.152 336.39c.496-3.261 1.11-6.581 1.84-9.914M145.84 325.156l.152 1.317M146.48 324.316l-.64.84M146.48 324.316c.215-.925.442-1.863.676-2.789M147.687 317.523l-.53 4.004M147.719 319.351l-.032-1.828M147.719 319.351a178 178 0 0 1 3.015-10.152M150.43 308.297l.304.902M151.469 307.008l-1.04 1.289M151.469 307.008c.324-.938.66-1.887.996-2.82M153.144 300.578l-.683 3.61M153.266 301.996l-.122-1.418M153.266 301.996a201 201 0 0 1 4.12-10.14M156.887 291.363l.5.492M158.355 289.684l-1.468 1.68M158.355 289.684c.418-.922.848-1.856 1.282-2.778M160.402 283.75l-.765 3.152M160.664 284.75l-.262-1M160.664 284.75a210 210 0 0 1 5.125-9.883M165.055 274.773l.734.098M166.96 272.777l-1.905 1.996M166.96 272.777a182 182 0 0 1 1.544-2.676M169.281 267.45l-.777 2.651M169.73 268.039l-.449-.59M169.73 268.039a210 210 0 0 1 6-9.379M174.73 258.934l.997-.27M177.078 256.695l-2.348 2.239M177.078 256.695c.582-.836 1.176-1.676 1.766-2.5M179.566 252.082l-.722 2.11M180.242 252.27l-.676-.188M180.242 252.27a197 197 0 0 1 6.723-8.637M185.676 244.234l1.289-.601M188.46 241.84l-2.784 2.394M188.46 241.84c.642-.762 1.294-1.524 1.946-2.27M191.004 238.023l-.598 1.547M191.934 237.836l-.93.187M191.934 237.836a178 178 0 0 1 7.285-7.688M197.621 231.035l1.598-.887M200.82 228.574l-3.199 2.461M200.82 228.574c.688-.664 1.383-1.328 2.078-1.976M203.309 225.617l-.41.977M204.523 225.094l-1.214.523M204.523 225.094c2.524-2.301 5.09-4.492 7.668-6.551M210.273 219.664l1.918-1.125M213.863 217.227l-3.59 2.437M213.863 217.227c.715-.555 1.442-1.106 2.156-1.641M216.18 215.176l-.16.41M217.703 214.352l-1.523.824M217.703 214.352a127 127 0 0 1 7.86-5.25M223.32 210.402l2.242-1.3M227.262 208.074l-3.942 2.328M227.262 208.074c.722-.43 1.457-.855 2.183-1.262M231.14 205.879l-1.675.976M231.14 205.879a101 101 0 0 1 7.864-3.824M240.684 201.348l-1.5.746M240.684 201.348a88 88 0 0 1 2.16-.852M244.512 199.883l-1.512.883M244.512 199.883a78 78 0 0 1 7.668-2.305M253.805 197.203l-1.215.496M253.805 197.203c.695-.148 1.39-.293 2.078-.418M257.484 196.508l-1.285.726M257.484 196.508a60 60 0 0 1 7.285-.723M266.3 195.754l-.878.273M266.3 195.754a54 54 0 0 1 1.946.023M269.742 195.84l-.969.512M269.742 195.84c2.297.137 4.55.43 6.723.875M277.86 197.027l-.493.106M277.86 197.027c.593.14 1.187.297 1.769.461M280.976 197.898l-.535.258M280.976 197.898a41 41 0 0 1 5.997 2.45M288.2 200.996l-.056.004M288.2 200.996c.257.14.523.285.78.434"/><path fill="none" stroke="#000" stroke-linecap="round" stroke-linejoin="round" stroke-miterlimit="10" stroke-width=".19875722" d="M142.613 346.258c.004-49.324 34.64-109.317 77.356-133.98"/><path fill="none" stroke="#000" stroke-linecap="round" stroke-linejoin="round" stroke-miterlimit="10" stroke-width=".39851322" d="m369.117 260.496.594.07M368.203 257.105l-.488-.41M292.5 203.484l.605.336M294.039 204.367l-.934-.547M290.965 202.594v-.016M290.965 202.578l-2.766-1.582M293.105 203.82l-.02.02M293.988 204.394l.063-.035M286.973 200.348l4.933 2.78M363.2 249.59l.808.199M361.93 246.984l-.754-.547M316.996 217.625l.605.34M318.535 218.512l-.934-.547M317.601 217.965l-.015.02M315.46 216.734v-.011M300.457 208.387l-.219.254M294.05 204.36l6.407 4.027M315.46 216.723l-15.003-8.336M282.96 199.473l-.382.488M298.277 207.398l-.008-.171M298.27 207.227l-15.31-7.754M280.762 198.723l-.028-.329M280.734 198.394l-2.875-1.367M301.016 209.215l.34-.207M301.355 209.008l15.047 8.261M318.484 218.539l.067-.035M283.246 200.547l.574-.367M283.82 200.18l15.344 7.68M276.465 196.715l5.125 2.398M355.437 240.844l1.032.43M341.492 231.77l.606.335M353.875 239.191l-1.078-.664M343.031 232.652l-.933-.547M269.742 195.84l1.82 1.969M287.387 204.379l-15.825-6.57M287.387 204.379l-5.797-5.266M280.734 198.394l-1.105-.906M342.098 232.105l-.016.02M287.445 204.86l-.058-.481M339.957 230.879v-.016M318.55 218.504l6.403 4.027M339.957 230.863l-15.004-8.332M280.976 197.898l1.985 1.575M283.82 200.18l5.832 5.191M305.23 212.539l-15.578-7.168M305.23 212.539l-6.066-4.68M298.27 207.227l-6.364-4.098M324.953 222.531l-.215.25M305.258 212.863l-.028-.324M322.766 221.371l-6.364-4.102M322.773 221.543l-.007-.172M307.457 213.613l-.383.492M301.355 209.008l6.102 4.605M322.766 221.371l-15.31-7.758M269.367 197.527l-.105-.625M269.262 196.902l-2.961-1.148M271.562 197.809l-.636.988M289.652 205.371l-.523.738M271.406 199.363l.945-.68M272.351 198.684l15.852 6.5M264.77 195.785l5.277 2.004M289.7 206.687l.773-.523M290.473 206.164l15.613 7.09M307.742 214.687l.574-.367M308.316 214.32l15.344 7.684M325.512 223.355l.34-.203M325.851 223.152l15.047 8.262M342.98 232.684l.067-.036M343.047 232.648l4.23 2.586M346.016 234.656l-5.118-3.242M325.851 223.152l6.106 4.606M344.23 233.926l-12.273-6.168M331.957 227.758l-.383.488M329.726 226.68l-6.066-4.676M329.754 227.008l-.028-.328M308.316 214.32l5.832 5.192M329.726 226.68l-15.578-7.168M314.148 219.512l-.523.738M311.883 218.523l-5.797-5.27M311.941 219l-.058-.477M290.473 206.164l5.586 5.785M311.883 218.523l-15.824-6.574M269.262 196.902l-1.016-1.129M296.059 211.95l-.637.991M293.758 211.043l-5.555-5.86M293.863 211.672l-.105-.63M277.723 205.066l-.727 1.254M272.351 198.684l5.372 6.382M293.758 211.043l-16.035-5.977M259.184 198.867l-.793 1.524M275.559 205.016l-.16-.77M275.398 204.246l-16.214-5.379M257.062 199.039l-.23-.906M256.832 198.133l-3.027-.93M277.398 206.855l1.086-.824M278.484 206.031l16.059 5.903M295.902 213.504l.946-.676M296.848 212.828l15.851 6.496M258.719 200.879l1.203-.965M259.922 199.914l16.234 5.309M252.18 197.578l5.39 1.613M314.195 220.832l.774-.527M314.969 220.305l15.613 7.093M332.238 228.832l.574-.367M332.812 228.465l10.102 4.984M332.812 228.465l3.856 3.347M335.238 231.574l-4.656-4.176M314.969 220.305l5.586 5.789M333.238 231.312l-12.683-5.218M244.512 199.883l1.62 2.742M262.601 206.836l-16.468-4.211M262.601 206.836l-5.03-7.645M256.832 198.133l-.95-1.348M320.555 226.094l-.637.992M262.914 207.871l-.313-1.035M318.254 225.187l-5.555-5.863M318.36 225.812l-.106-.625M296.848 212.828l5.37 6.383M318.254 225.187l-16.035-5.976M257.484 196.508l1.7 2.36M259.922 199.914l5.047 7.57M281.328 212.273l-16.36-4.789M281.328 212.273l-5.172-7.05M275.398 204.246l-5.351-6.457M302.219 219.21l-.727 1.255M281.559 213.184l-.23-.91M299.894 218.39l-5.351-6.456M300.055 219.16l-.16-.77M283.68 213.008l-.793 1.527M278.484 206.031l5.196 6.977M299.894 218.39l-16.214-5.382M244.16 203.219l-.41-1.16M243.75 202.059l-3.066-.711M246.133 202.625l-.86 2.102M264.969 207.484l-.836 1.809M245.46 205.055l1.38-1.215M246.84 203.84l16.48 4.14M239.004 202.055l5.453 1.23M264.39 209.71l1.301-1.093M265.691 208.617l16.375 4.719M283.215 215.02l1.203-.961M284.418 214.059l16.234 5.308M301.894 220.996l1.086-.824M302.98 220.172l16.063 5.902M320.398 227.648l.946-.68M321.344 226.969l10.425 4.207M321.344 226.969l3.547 4.132M323.336 231.207l-4.293-5.133M302.98 220.172l5.196 6.98M321.172 231.422l-12.996-4.27M308.176 227.152l-.793 1.528M305.824 226.418l-5.172-7.05M306.055 227.324l-.23-.906M284.418 214.059l5.047 7.566M305.824 226.418l-16.36-4.793M289.465 221.625l-.836 1.812M287.098 220.977l-5.032-7.641M287.41 222.016l-.312-1.04M265.691 208.617l4.938 8.152M287.098 220.977l-16.47-4.208M243.75 202.059l-.906-1.563M270.629 216.77l-.86 2.101M268.246 216.203l-4.926-8.223M268.656 217.36l-.41-1.157M251.703 212.562l-.852 2.41M246.84 203.84l4.863 8.722M268.246 216.203l-16.543-3.64M232.73 208.988l-.82 2.746M249.836 213.352l-.524-1.278M249.312 212.074l-16.582-3.086M230.988 209.96l-.648-1.378M230.34 208.582l-3.078-.508M250.96 215.18l1.442-1.32M252.402 213.86l16.551 3.57M269.957 219.195l1.379-1.21M271.336 217.984l16.48 4.137M231.937 211.781l1.489-1.414M233.426 210.367l16.586 3.02M225.562 209.102l5.473.867M288.887 223.852l1.3-1.09M290.187 222.762l16.375 4.715M307.71 229.164l1.204-.965M308.914 228.2l10.672 3.425M308.914 228.2l3.328 4.913M310.601 233.559l-4.039-6.082M290.187 222.762l4.938 8.148M308.32 234.242l-13.195-3.332M217.703 214.352l1.606 3.453M235.86 219.844l-16.551-2.04M235.86 219.844l-4.825-9.875M230.34 208.582l-.895-1.77M295.125 230.91l-.856 2.106M237.566 222.992l-1.707-3.148M237.566 222.992l-3.32-6.582M292.742 230.344l-4.926-8.223M293.152 231.504l-.41-1.16M271.336 217.984l4.863 8.72M292.742 230.344l-16.543-3.64M231.14 205.879l1.59 3.11M233.426 210.367l4.824 9.809M254.836 222.727l-16.586-2.551M254.836 222.727l-4.824-9.34M249.312 212.074l-4.855-8.789M276.2 226.703l-.852 2.414M255.484 224.105l-.648-1.378M273.812 226.219l-4.859-8.79M274.332 227.492l-.52-1.273M257.226 223.133l-.816 2.746M252.402 213.86l4.824 9.273M273.812 226.219l-16.586-3.086M218.789 220.582l-1.863-3.035M216.926 217.547l-3.063-.32M219.309 217.805l-.52 2.777M238.25 220.176l-.684 2.816M236.559 221.305l1.007 1.687M218.789 220.582l1.227-1.254M220.016 219.328l16.543 1.977M217.633 219.078l1.156 1.504M212.191 218.539l5.442.54M237.566 222.992l1.383-1.363M238.95 221.629l16.581 2.484M256.434 225.926l1.488-1.418M257.922 224.508l16.586 3.02M275.457 229.324l1.441-1.32M276.898 228.004l16.551 3.57M294.453 233.34l1.379-1.211M295.832 232.129l10.828 2.656M295.832 232.129l3.2 5.668M297.344 238.57l-3.895-6.996M276.898 228.004l4.825 9.273M295.004 239.707l-13.281-2.43M281.723 237.277l-.817 2.742M279.332 236.871l-4.824-9.344M279.98 238.246l-.648-1.375M257.922 224.508l4.824 9.808M279.332 236.871l-16.586-2.555M262.062 237.137l-3.32-6.586M262.746 234.316l-.684 2.82M260.355 233.988l-4.824-9.875M262.062 237.137l-1.707-3.149M238.95 221.629l4.855 10.316M260.355 233.988l-16.55-2.043M216.926 217.547l-.907-1.961M243.285 234.723l-5.719-11.73M243.805 231.945l-.52 2.778M218.789 220.582l-2.61-5.406M241.422 231.687l-4.863-10.382M243.285 234.723l-1.863-3.036M224.594 232.855l-5.805-12.273M224.941 230.137l-.347 2.718M220.016 219.328l4.925 10.809M241.422 231.687l-16.48-1.55M206.2 228.851l-.18 2.645M224.594 232.855l-2.02-2.91M222.574 229.945l-16.375-1.094M206.02 231.496l-2.176-2.77M203.844 228.727l-3.024-.153M242.129 233.223l1.156 1.5M224.594 232.855l1.066-1.125M225.66 231.73l16.469 1.493M261.055 235.45l1.007 1.687M243.285 234.723l1.227-1.25M244.512 233.473l16.543 1.976M206.02 231.496l.914-.988M206.934 230.508l16.359 1.039M223.293 231.547l1.3 1.308M204.582 230.39l1.437 1.106M199.219 230.148l5.363.243M262.062 237.137l1.383-1.368M263.445 235.77l16.582 2.488M280.93 240.07l1.488-1.418M282.418 238.652l10.89 1.926M282.418 238.652l3.168 6.387M285.797 249.754l-2.559-5.059M283.89 246.125l-3.863-7.867M263.445 235.77l4.856 10.32M281.55 247.687l-13.25-1.597M191.934 237.836l1.785 4.023M209.777 242.133l-16.058-.274M209.777 242.133l-5.195-11.742M203.844 228.727l-.946-2.133M267.781 248.867l-5.719-11.73M268.3 246.09l-.519 2.777M212.102 244.75l-2.325-2.617M212.102 244.75l-6.083-13.254M206.02 231.496l-2.711-5.879M265.918 245.832l-4.863-10.383M267.781 248.867l-1.863-3.035M244.512 233.473l4.925 10.804M265.918 245.832l-16.48-1.555M204.523 225.094l1.676 3.757M206.934 230.508l5.171 11.695M228.34 242.867l-16.235-.664M228.34 242.867l-5.047-11.32M222.574 229.945l-4.941-10.867M249.09 246.996l-5.805-12.273M249.437 244.277l-.347 2.719M230.516 245.637l-2.176-2.77M230.516 245.637l-5.922-12.782M247.07 244.09l-4.941-10.867M249.09 246.996l-2.02-2.906M230.695 242.996l-.18 2.64M225.66 231.73l5.035 11.266M247.07 244.09l-16.375-1.094M193.887 244.305l-2.473-2.457M191.414 241.848l-2.953-.008M193.719 241.86l.168 2.445M212.105 242.203l-.003 2.547M210.539 243.855l1.563.895M193.887 244.305l.617-.676M194.504 243.629l16.035.226M192.203 243.621l1.684.684M186.965 243.633l5.238-.012M229.078 244.531l1.438 1.106M212.102 244.75l.761-.832M212.863 243.918l16.215.613M247.789 245.691l1.3 1.305M230.516 245.637l.914-.985M231.43 244.652l16.359 1.04M266.625 247.363l1.156 1.504M249.09 246.996l1.066-1.125M250.156 245.871l16.469 1.492M267.781 248.867l1.227-1.254M269.008 247.613l10.855 1.25M269.008 247.613l3.226 7.051M272.805 259.473l-5.024-10.606M270.574 256.035l-3.95-8.672M250.156 245.871l5.035 11.266M268.293 257.984l-13.102-.847M255.012 259.781l-5.922-12.785M255.191 257.137l-.18 2.644M252.836 257.012l-5.047-11.32M255.012 259.781l-2.176-2.77M231.43 244.652l5.172 11.692M252.836 257.012l-16.234-.668M236.598 258.894l-6.082-13.257M236.602 256.344l-.004 2.55M234.273 256.277l-5.195-11.746M236.598 258.894l-2.325-2.617M212.863 243.918l5.352 12.086M234.273 256.277l-16.058-.273M191.414 241.848l-1.008-2.278M218.383 258.445l-6.281-13.695M218.215 256.004l.168 2.441M193.887 244.305l-2.883-6.282M215.91 255.988l-5.371-12.133M218.383 258.445l-2.473-2.457M200.398 258.394l-6.511-14.09M200.059 256.07l.34 2.324M194.504 243.629l5.555 12.441M215.91 255.988l-15.851.082M182.176 256.508l.511 2.183M200.398 258.394l-2.609-2.285M197.789 256.11l-15.613.398M182.687 258.691l-2.742-2.105M179.945 256.586l-2.867.11M216.7 257.766l1.683.68M200.398 258.394l.48-.503M200.879 257.89l15.82-.124M235.035 258l1.563.894M218.383 258.445l.617-.672M219 257.773l16.035.227M182.687 258.691l.344-.324M183.031 258.367l15.582-.433M198.613 257.934l1.785.46M180.805 258.453l1.882.238M175.727 258.664l5.078-.21M253.574 258.676l1.438 1.105M236.598 258.894l.765-.835M237.363 258.059l16.211.617M255.012 259.781l.914-.988M255.926 258.793l10.726.64M255.926 258.793l3.379 7.637M260.273 271.242l-5.261-11.46M257.723 268.05l-4.149-9.374M237.363 258.059l5.348 12.085M255.555 270.34l-12.844-.196M169.73 268.039l2.13 4.395M186.906 271.523l-15.047.91M186.906 271.523l-6.101-13.07M179.945 256.586l-1.101-2.395M242.879 272.59l-6.281-13.696M242.71 270.144l.169 2.446M189.773 273.441l-2.867-1.918M189.773 273.441l-7.086-14.75M182.687 258.691l-3.12-6.609M240.406 270.133 235.036 258M242.879 272.59l-2.473-2.457M219 257.773l5.555 12.442M240.406 270.133l-15.851.082M180.242 252.27l1.934 4.238M183.031 258.367l6.067 13.04M204.441 270.73l-15.343.676M204.441 270.73l-5.828-12.796M197.789 256.11l-5.586-12.489M224.894 272.535l-6.511-14.09M224.555 270.215l.34 2.32M207.184 272.836l-2.743-2.106M207.184 272.836l-6.786-14.442M222.285 270.25l-5.586-12.484M224.894 272.535l-2.609-2.285M206.672 270.652l.512 2.184M200.879 257.89l5.793 12.762M222.285 270.25l-15.613.402M172.703 274.309l-2.988-1.727M169.715 272.582l-2.754.195M172.703 274.309l-7.648.464M171.86 272.434l.843 1.875M178.512 273.984l-5.809.325M189.098 271.406l.675 2.035M187.805 273.426l1.968.015M172.703 274.309l.098.054M172.8 274.363l15.005-.937M170.66 274.516l2.043-.207M165.789 274.871l4.871-.355M205.3 272.598l1.884.238M189.773 273.441l.22-.136M189.992 273.305l15.309-.707M223.11 272.074l1.784.461M207.184 272.836l.343-.324M207.527 272.512l15.582-.438M241.195 271.91l1.684.68M224.894 272.535l.48-.5M225.375 272.035l15.82-.125M242.879 272.59l.617-.676M243.496 271.914l10.508.113M243.496 271.914l3.625 8.137M248.508 284.777l-5.63-12.187M245.652 281.883l-4.457-9.973M225.375 272.035l5.793 12.758M243.652 284.453l-12.484.34M231.68 286.976l-6.786-14.44M231.168 284.793l.512 2.183M228.937 284.871l-5.828-12.797M231.68 286.976l-2.743-2.105M207.527 272.512l6.067 13.039M228.937 284.871l-15.343.68M214.27 287.586l-7.086-14.75M213.594 285.55l.675 2.036M211.402 285.664l-6.101-13.066M214.27 287.586l-2.868-1.922M189.992 273.305l6.363 13.273M211.402 285.664l-15.047.914M169.715 272.582l-1.211-2.48M197.2 288.45l-7.427-15.009M196.355 286.578l.844 1.871M172.703 274.309l-3.422-6.86M194.21 286.726l-6.405-13.3M197.2 288.45l-2.99-1.724M175.328 279.5l-2.625-5.191M179.492 287.828l.996 1.7M172.8 274.363l6.692 13.465M194.21 286.726l-14.718 1.102M163.023 289.25l1.149 1.512M180.488 289.527l-16.316 1.235M180.488 289.527 177.391 288M177.39 288l-14.367 1.25M197.2 288.45l-16.712 1.077M164.172 290.762l-3.195-1.32M160.977 289.441l-2.622.243M164.172 290.762l-7.285.601M203.012 288.129l-5.813.32M195.156 288.656l2.043-.207M180.488 289.527l-.008.254M180.48 289.781l14.676-1.125M212.3 287.57l1.97.016M197.2 288.45l.097.058M197.297 288.508l15.004-.938M164.172 290.762l-.11.46M164.062 291.223l14.325-1.266M178.387 289.957l2.101-.43M162.023 291.414l2.149-.652M157.387 291.855l4.636-.441M229.797 286.738l1.883.238M214.27 287.586l.218-.137M214.488 287.45l15.309-.712M231.68 286.976l.343-.32M232.023 286.656l10.203-.316M232.023 286.656l3.953 8.531M237.8 299.742l-6.12-12.766M234.66 297.187l-4.863-10.449M214.488 287.45l6.367 13.273M232.879 299.976l-12.024.747M153.266 301.996l2.613 4.543M169.484 305.133l-13.605 1.406M169.484 305.133l-7.46-13.719M160.977 289.441l-1.34-2.539M221.695 302.594l-7.426-15.008M220.855 300.723l.84 1.87M172.77 306.25l-3.286-1.117M218.707 300.867l-6.406-13.297M221.695 302.594l-2.988-1.727M197.297 288.508l6.691 13.465M218.707 300.867l-14.719 1.106M160.664 284.75l2.36 4.5M164.062 291.223l7.415 13.71M185.473 303.582l-13.996 1.352M185.473 303.582l-7.086-13.625M177.39 288l-6.73-13.484M199.824 293.644l-2.625-5.195M203.988 301.973l.996 1.695M188.668 304.906l-3.195-1.324M201.887 302.144l-6.73-13.488M204.984 303.668l-3.097-1.524M187.52 303.394l1.148 1.512M180.48 289.781l7.04 13.613M201.887 302.144l-14.368 1.25M157.309 307.656l-3.364-.914M153.945 306.742l-2.476.266M157.309 307.656l-6.88.64M155.879 306.539l1.43 1.117M172.77 306.25l-15.461 1.406M171.477 304.934l1.292 1.316M188.668 304.906l-15.899 1.344M204.984 303.668l-16.316 1.238M221.695 302.594l-16.71 1.074M227.508 302.27l-5.813.324M170.59 307.117l2.18-.867M157.309 307.656l-.274.871M157.035 308.527l13.555-1.41M155.11 308.73l2.199-1.074M150.734 309.2l4.375-.47M186.52 305.555l2.148-.649M172.77 306.25l-.196.668M172.574 306.918l13.945-1.363M202.883 304.098l2.101-.43M188.668 304.906l-.11.461M188.559 305.367l14.324-1.27M219.652 302.8l2.043-.206M204.984 303.668l-.007.258M204.977 303.926l14.675-1.125M221.695 302.594l.098.058M221.793 302.652l9.82-.64M221.793 302.652l4.36 8.82M224.32 307.789l-2.625-5.195M225.02 313.586l-5.368-10.785M204.977 303.926l7.039 13.61M223.496 316.527l-11.48 1.008M212.016 317.535l1.148 1.516M209.969 317.726l-7.086-13.628M213.164 319.05l-3.195-1.324M188.559 305.367l7.414 13.711M209.969 317.726l-13.996 1.352M195.973 319.078l1.293 1.316M193.98 319.277l-7.46-13.722M197.266 320.394l-3.286-1.117M172.574 306.918l7.801 13.766M193.98 319.277l-13.605 1.407M153.945 306.742l-1.484-2.555M180.375 320.684l1.43 1.113M178.441 320.887l-7.851-13.77M181.805 321.797l-3.364-.91M165.25 322.3l1.555.907M157.035 308.527l8.215 13.774M178.441 320.887 165.25 322.3M150.61 323.875l1.675.691M166.805 323.207l-14.52 1.36M166.805 323.207l-3.43-.703M163.375 322.504l-12.766 1.37M181.805 321.797l-15 1.41M152.285 324.566l-3.488-.496M148.797 324.07l-2.317.246M152.285 324.566l-6.445.59M197.266 320.394l-15.461 1.403M213.164 319.05l-15.898 1.344M227.277 317.969l-14.113 1.082M179.605 322.875l2.2-1.078M166.805 323.207l-.34 1.078M166.465 324.285l13.14-1.41M195.086 321.262l2.18-.868M181.805 321.797l-.274.87M181.531 322.668l13.555-1.406M152.285 324.566l-.398 1.285M151.887 325.851l12.715-1.367M164.602 324.484l2.203-1.277M150.082 326.043l2.203-1.477M145.992 326.473l4.09-.43M211.016 319.7l2.148-.65M197.266 320.394l-.196.665M197.07 321.059l13.946-1.36M213.164 319.05l-.11.458M213.055 319.508l9.367-.844M213.055 319.508l4.828 8.996M216.965 330.68l-5.95-10.98M197.07 321.059l7.801 13.765M215.738 333.7l-10.867 1.124M144.152 336.39l3.188 4.442M159.219 339.676l-11.88 1.156M159.219 339.676l-9.137-13.633M148.797 324.07l-1.64-2.543M204.871 334.824l1.43 1.117M162.75 339.973l-3.531-.297M202.937 335.031l-7.851-13.77M206.3 335.941l-3.363-.91M181.531 322.668l8.215 13.773M202.937 335.031l-13.191 1.41M147.719 319.351l2.89 4.524M151.887 325.851l9.078 13.649M173.293 338.21l-12.328 1.29M173.293 338.21l-8.691-13.726M163.375 322.504l-8.266-13.774M189.746 336.441l1.555.91M176.781 338.71l-3.488-.5M187.871 336.644l-8.266-13.77M191.3 337.351l-3.429-.707M175.105 338.02l1.676.69M166.465 324.285l8.64 13.734M187.871 336.644l-12.766 1.375M149.219 341.082l-3.563-.094M145.656 340.988l-2.148.196M149.219 341.082l-5.989.445M147.34 340.832l1.879.25M162.75 339.973l-13.531 1.109M160.965 339.5l1.785.473M176.781 338.71l-14.031 1.263M191.3 337.351l-14.519 1.36M206.3 335.941l-15 1.41M219.672 334.723 206.3 335.94M160.57 341.637l2.18-1.664M149.219 341.082l-.473 1.687M148.746 342.77l11.824-1.133M147.074 342.922l2.145-1.84M143.281 343.258l3.793-.336M174.578 340.187l2.203-1.476M162.75 339.973l-.441 1.488M162.309 341.46l12.27-1.273M189.098 338.629l2.203-1.278M176.781 338.71l-.398 1.286M176.383 339.996l12.715-1.367M204.102 337.016l2.199-1.075M191.3 337.351l-.34 1.075M190.96 338.426l13.142-1.41M206.3 335.941l-.273.871M206.027 336.812l8.86-.925M206.027 336.812l5.352 9.043M210.691 348.047l-6.59-11.031M190.96 338.426l8.642 13.734M209.793 351.066l-10.191 1.094M199.602 352.16l1.675.695M197.789 352.355l-8.691-13.726M201.277 352.855l-3.488-.5M176.383 339.996l9.078 13.645M197.789 352.355l-12.328 1.286M185.46 353.64l1.786.477M183.715 353.82l-9.137-13.633M187.246 354.117l-3.531-.297M162.309 341.46l9.527 13.516M183.715 353.82l-11.88 1.156M145.656 340.988l-1.808-2.492M171.836 354.976l1.879.25M170.152 355.133l-9.582-13.496M173.715 355.226l-3.563-.093M158.73 356.11l1.965.027M148.746 342.77l9.984 13.34M170.152 355.133l-11.422.976M160.695 356.137l-7.363.418M160.695 356.137l-3.582.097M157.113 356.234l-10.96.758M173.715 355.226l-13.02.91M146.121 356.957l-1.52.129M144.602 357.086l-1.98.11M187.246 354.117l-13.531 1.11M201.277 352.855l-14.031 1.262M213.832 351.68l-12.555 1.175M171.57 357.066l2.145-1.84M160.695 356.137l-.492 1.882M160.203 358.02l11.367-.954M185.066 355.777l2.18-1.66M173.715 355.226l-.473 1.688M173.242 356.914l11.824-1.137M148.172 356.867l-.48 2M147.691 358.867l10.907-.726M158.598 358.14l2.097-2.003M146.152 358.953l1.965-2.082M142.66 359.133l3.492-.18M199.074 354.328l2.203-1.473M187.246 354.117l-.441 1.484M186.805 355.601l12.27-1.273M201.277 352.855l-.398 1.282M200.879 354.137l8.305-.891M200.879 354.137l5.914 8.972M206.36 365.254l-7.286-10.926M186.805 355.601l9.527 13.516M205.812 368.203l-9.48.914M143.281 367.851l3.793 4.106M157.113 371.77l-10.039.187M157.113 371.77l-10.96-12.817M144.602 357.086l-1.98-2.414M196.332 369.117l1.879.254M158.477 371.586l-1.364.183M194.648 369.273l-9.582-13.496M198.21 369.371l-3.562-.098M173.242 356.914l9.985 13.34M194.648 369.273l-11.421.98M142.66 352.691l3.492 4.301M147.691 358.867l10.907 12.856M169.098 371.226l-10.5.497M169.098 371.226l-10.5-13.085M157.113 356.234l-10.039-13.312M183.227 370.254l1.964.027M170.617 371.098l-1.52.128M181.61 370.379l-10.04-13.313M185.191 370.281l-3.582.098M160.203 358.02l10.445 13.117M181.61 370.379l-10.962.758M146.867 371.738l-1.21.223M145.656 371.96l-1.808-.003M185.191 370.281l-7.363.418M198.21 369.371l-13.019.91M209.902 368.418l-11.691.953M158.73 373.598l1.664-1.946M149.105 371.945l-.359 1.801M148.746 373.746l9.984-.148M147.34 373.742l1.39-1.793M144.152 373.71l3.188.032M170.648 373.098l1.965-2.082M160.625 371.644l-.422 1.91M160.203 373.555l10.445-.457M183.094 372.285l2.097-2.004M172.668 371.012l-.48 2M172.187 373.012l10.907-.727M196.066 371.207l2.145-1.836M185.191 370.281l-.492 1.88M184.7 372.16l11.366-.953M198.21 369.371l-.472 1.687M197.738 371.058l7.715-.73M197.738 371.058l6.508 8.774M204.074 381.883l-8.008-10.676M184.7 372.16l10.444 13.121M203.89 384.691l-8.746.59M193.594 385.371l-10.5-13.086M195.113 385.242l-1.52.129M172.187 373.012l10.907 12.851M193.594 385.371l-10.5.492M181.61 385.914l-10.962-12.816M182.973 385.73l-1.364.184M160.203 373.555 171.57 386.1M181.61 385.914l-10.04.187M145.656 371.96l-2.148-2.296M170.152 386.105l-11.422-12.507M171.363 385.879l-1.21.226M148.746 373.746l11.824 12.203M170.152 386.105l-9.582-.156M160.273 385.652l-1.054.246M159.219 385.898l-9.137-.539M149.7 385l-.903.254M148.797 385.254l-1.64-.149M207.984 384.527l-5.66.317M171.836 387.887l1.39-1.797M162.602 386.008l-.293 1.675M162.309 387.683l9.527.204M183.227 387.742l1.664-1.945M173.602 386.086l-.36 1.8M173.242 387.887l9.985-.145M152.117 385.516l-.23 1.523M151.887 387.039l9.078.586M160.965 387.625l1.148-1.629M150.61 386.922l.925-1.45M147.719 386.633l2.89.289M195.144 387.238l1.965-2.082M185.121 385.789l-.422 1.906M184.7 387.695l10.444-.457M197.164 385.156l-.48 1.996M196.684 387.152l7.113-.453M196.684 387.152l7.113 8.469M203.89 397.523l-8.746-10.285M184.7 387.695l11.366 12.551M204.074 400.117l-8.008.129M150.734 393.3l4.375 3.571M163.375 398.273l-8.266-1.402M163.375 398.273l-12.766-11.351M148.797 385.254l-2.317-2.156M164.121 398.027l-.746.246M194.648 400.25l-11.421-12.508M195.86 400.023l-1.212.227M173.242 387.887l11.824 12.203M194.648 400.25l-9.582-.16M145.992 381.5l4.09 3.86M151.887 387.039l12.715 11.406M173.293 399.398l-8.691-.953M173.293 399.398l-12.328-11.773M159.219 385.898l-11.88-12.156M174.195 399.144l-.902.254M183.715 400.043l-11.88-12.156M184.77 399.797l-1.055.246M162.309 387.683l12.27 11.82M183.715 400.043l-9.137-.54M154.539 396.414l-.594.223M153.945 396.637l-1.484-.32M165.25 399.879l.723-1.258M157.148 397.262l-.113 1.156M157.035 398.418l8.215 1.46M155.879 398.172l.543-1.047M153.266 397.578l2.613.594M175.105 401.066l.926-1.449M166.637 398.703l-.172 1.352M166.465 400.055l8.64 1.011M185.46 401.77l1.15-1.63M176.613 399.656l-.23 1.524M176.383 401.18l9.078.59M196.332 402.027l1.39-1.793M187.098 400.152l-.293 1.672M186.805 401.824l9.527.203M198.098 400.23l-.36 1.801M197.738 402.031l6.508-.062M197.738 402.031l7.715 8.047M205.812 411.789l-9.48-9.762M186.805 401.824l12.27 11.824M206.36 414.105l-7.286-.457M197.789 413.539l-12.328-11.77M198.691 413.285l-.902.254M176.383 401.18l12.715 11.406M197.789 413.539l-8.691-.953M187.871 412.418l-12.766-11.352M188.621 412.172l-.75.246M166.465 400.055l13.14 10.96M187.871 412.418l-8.266-1.402M153.945 396.637l-2.476-1.993M178.441 410.777 165.25 399.88M179.035 410.555l-.594.222M157.035 398.418l13.555 10.48M178.441 410.777l-7.851-1.879M169.93 408.402l-.446.188M169.484 408.59l-7.46-2.387M161.273 405.683l-.296.141M160.977 405.824l-1.34-.508M180.375 412.316l.543-1.047M172.64 409.437l-.066.934M172.574 410.371l7.801 1.945M189.746 414.023l.723-1.257M181.648 411.402l-.117 1.156M181.531 412.558l8.215 1.465M164.094 406.922l-.032.683M164.062 407.605l7.415 2.45M171.477 410.055l.375-.82M163.023 407.215l.235-.578M160.664 406.281l2.36.934M199.602 415.207l.925-1.45M191.133 412.848l-.172 1.351M190.96 414.2l8.642 1.007M201.11 413.8l-.231 1.524M200.879 415.324l5.914.426M200.879 415.324l8.305 7.531M209.793 424.328l-10.191-9.121M190.96 414.2l13.142 10.956M210.691 426.312l-6.59-1.156M165.789 410.25l4.871 2.879M177.39 416.594l-6.73-3.465M177.39 416.594l-14.367-9.38M160.977 405.824l-2.622-1.805M177.547 416.516l-.156.078M202.937 424.922l-13.191-10.899M203.535 424.7l-.598.222M181.531 412.558l13.555 10.48M202.937 424.922l-7.851-1.883M157.387 402.965l4.636 3.238M164.062 407.605l14.325 9.446M185.473 419.965l-7.086-2.914M185.473 419.965l-13.996-9.91M169.484 408.59l-13.605-10.418M185.77 419.828l-.297.137M193.98 422.73l-13.605-10.414M194.426 422.547l-.446.183M172.574 410.371l13.945 9.977M193.98 422.73l-7.46-2.382M169.727 412.582l-.012.008M179.492 417.906l.11-.312M172.8 414.3v.071M172.8 414.371l6.692 3.535M171.86 413.824l.007-.027M171.266 413.469l.593.355M187.52 421.355l.234-.574M180.484 417.976l-.004.399M180.48 418.375l7.04 2.98M195.973 424.2l.379-.821M188.59 421.066l-.031.68M188.559 421.746l7.414 2.453M204.871 426.457l.543-1.047M197.137 423.582l-.067.934M197.07 424.516l7.801 1.94M206.144 425.547l-.117 1.156M206.027 426.703l5.352 1.008M206.027 426.703l8.86 6.93M215.738 434.832l-10.867-8.375M197.07 424.516l13.946 9.972M216.965 436.433l-5.95-1.945M209.969 434.11l-13.996-9.91M210.266 433.969l-.297.14M188.559 421.746l14.324 9.45M209.969 434.11l-7.086-2.915M201.887 430.734l-14.368-9.379M202.043 430.656l-.156.078M180.48 418.375l14.676 8.898M201.887 430.734l-6.73-3.46M169.715 412.59l-2.754-1.602M194.21 426.734l-14.718-8.828M194.223 426.726l-.012.008M196.355 427.965l.008-.024M195.762 427.61l.593.355M203.988 432.047l.11-.313M197.297 428.445v.07M197.297 428.516l6.691 3.53M212.016 435.5l.234-.578M204.98 432.121l-.003.398M204.977 432.52l7.039 2.98M213.086 435.207l-.031.684M213.055 435.89l4.828 1.66M213.055 435.89l9.367 6.254M223.496 443.047l-11.48-7.547M204.977 432.52l14.675 8.898M225.02 444.226l-5.368-2.808M218.707 440.875l-14.719-8.828M218.719 440.871l-.012.004M172.8 414.36l-.94-.536M197.297 428.5l-.942-.535M220.855 442.11l.004-.024M220.258 441.754l.597.355M221.793 442.586v.074M221.793 442.66l4.36 2.371M232.879 448.766l-1.113-.602M221.793 442.644l-.938-.535M235.086 449.293l.89.676M243.652 451.844l-.851-.375M246.543 451.64l.578.602M255.555 452.215l-.598-.215M258.95 451.312l.355.48M259.812 391.348a115 115 0 0 0 9.707-7.809M315.71 303.535c.876-4.176 1.516-8.3 1.907-12.309M308.41 298.73c-.035.176-.07.356-.11.532M262.113 379.266c-.133.117-.27.242-.402.359M265.355 428.644c32.91-1.304 72.012-40.343 87.332-87.191 8.188-25.031 8.188-48.496 0-64.074"/><path fill="none" stroke="#000" stroke-linecap="round" stroke-linejoin="round" stroke-miterlimit="10" stroke-width=".39851322" d="M259.219 401.09c.449 41.652 30.238 58.011 66.535 36.539 36.297-21.477 65.36-72.653 64.91-114.305-.441-40.922-29.25-57.555-64.91-37.476"/><path fill="none" stroke="#000" stroke-linecap="round" stroke-linejoin="round" stroke-miterlimit="10" stroke-width=".39851322" d="M374.39 280.336c26.407 15.242 26.407 64.68 0 110.418-26.406 45.734-69.218 70.453-95.624 55.207-26.407-15.246-26.407-64.68 0-110.418 26.406-45.738 69.218-70.453 95.625-55.207m0 0"/><path fill="none" stroke="#000" stroke-linecap="round" stroke-linejoin="round" stroke-miterlimit="10" stroke-width=".19875722" d="M374.031 265.871c-29.816-17.215-78.156 10.695-107.972 62.336-29.813 51.644-29.813 107.46.003 124.676"/><path fill="none" stroke="#000" stroke-linecap="round" stroke-linejoin="round" stroke-miterlimit="10" stroke-width=".39851322" d="M310.91 353.098c.238.14.238.59 0 1.003-.242.415-.629.641-.871.504-.238-.14-.238-.59.004-1.004.238-.418.629-.64.867-.503m0 0"/><path fill="none" stroke="#000" stroke-linecap="round" stroke-linejoin="round" stroke-miterlimit="10" stroke-width=".19875722" d="M139.863 380.758c-29.918-17.438-29.8-73.649.258-125.555 29.957-51.726 78.39-79.687 108.348-62.555"/><path fill="none" stroke="#000" stroke-linecap="round" stroke-linejoin="round" stroke-miterlimit="10" stroke-width=".19875722" d="M141.945 345.32c0-31.71 14.657-69.484 38.438-99.07 14.687-18.27 31.781-32.047 48.59-39.164M142.617 356.652a92 92 0 0 1-.676-11.332"/><path fill="none" stroke="#000" stroke-linecap="round" stroke-linejoin="round" stroke-miterlimit="10" stroke-width=".39851322" d="M40.074 282.406c-20.222-11.734-20.176-49.668.098-84.726 20.234-34.985 52.996-53.899 73.23-42.278M79.191 242.25c-9.254 23.855-9.254 46.68 0 59.851M122.465 267.238 79.19 242.25M116.59 312.633c-2.559-12.875-.469-29.04 5.875-45.395M79.191 302.098l36.414 21.027"/><path fill="none" stroke="#000" stroke-linecap="round" stroke-linejoin="round" stroke-miterlimit="10" stroke-width=".39851322" d="M24.89 246.953c0-32.023 22.481-70.965 50.215-86.98"/><path fill="none" stroke="#000" stroke-linecap="round" stroke-linejoin="round" stroke-miterlimit="10" stroke-width=".39851322" d="M24.895 246.047c-7.461-18.598 2.574-49.945 22.414-70.012 8.703-8.808 18.308-14.351 27.015-15.598M9.988 210.023l-2.55-.402-1.825 1.309-2.058 4.605-1.172 12.063.242 6.472.93 6.942 2.058 6.976 1.824 3.422 2.551 2.54"/><path fill="none" stroke="#000" stroke-linecap="round" stroke-linejoin="round" stroke-miterlimit="10" stroke-width=".19875722" d="M9.988 210.023a111 111 0 0 1 5.856-15.109"/><path fill="none" stroke="#000" stroke-linecap="round" stroke-linejoin="round" stroke-miterlimit="10" stroke-width=".39851322" d="m15.844 194.914-1.746-2.473-.055-3.27 2.293-6.6 8.398-12.583 4.996-5.781 5.747-5.45 6.41-4.222 3.605-1.152 3.356.472"/><path fill="none" stroke="#000" stroke-linecap="round" stroke-linejoin="round" stroke-miterlimit="10" stroke-width=".19875722" d="M48.848 153.855c3.879-2.78 7.808-5.05 11.687-6.746"/><path fill="none" stroke="#000" stroke-linecap="round" stroke-linejoin="round" stroke-miterlimit="10" stroke-width=".39851322" d="m60.535 147.11-1.746-1.403-.055-.898 2.293-.801 8.399.18 5 .562 5.742.969 6.41 1.574 6.961 2.762M14.523 261.375l1.364.96"/><path fill="none" stroke="#000" stroke-linecap="round" stroke-linejoin="round" stroke-miterlimit="10" stroke-width=".19875722" d="M15.887 262.336c-2.371-2.266-4.356-5.086-5.899-8.387"/><path fill="none" stroke="#000" stroke-linecap="round" stroke-linejoin="round" stroke-miterlimit="10" stroke-width=".39851322" d="m9.988 253.95 6.121 3.534M16.11 257.484V213.56M16.11 213.559l-6.122-3.536M16.11 213.559c1.535-5.051 3.507-10.133 5.859-15.11M21.969 198.45l-6.125-3.536M21.969 198.45l33.004-41.06M54.973 157.39l-6.125-3.535M54.973 157.39c3.879-2.78 7.808-5.05 11.687-6.746M66.66 150.644l-6.125-3.535M66.66 150.644l25.23 2.254M97.062 152.09l-3.523-2.035M27.598 266.371l-5.586-.5M22.012 265.871l-6.125-3.535M22.012 265.871c-2.371-2.266-4.356-5.086-5.899-8.383M79.191 242.25v59.848"/><path fill="none" stroke="#000" stroke-linecap="round" stroke-linejoin="round" stroke-miterlimit="10" stroke-width=".19875722" d="M142.613 346.258c0-.352-.238-.688-.668-.938M376.129 277.324c27.367 15.8 27.367 67.031 0 114.434-27.367 47.398-71.735 73.015-99.102 57.215-27.367-15.801-27.367-67.032 0-114.434 27.367-47.398 71.735-73.016 99.102-57.215m0 0"/><path fill="none" stroke="#000" stroke-linecap="round" stroke-linejoin="round" stroke-miterlimit="10" stroke-width=".39851322" d="m345.582 336.93.848-1.227"/><path fill="none" stroke="#000" stroke-linecap="round" stroke-linejoin="round" stroke-miterlimit="10" stroke-width=".19875722" d="M336.062 315.285c-5.726-3.305-13.378-2.805-21.464 1.395"/><path fill="none" stroke="#000" stroke-linecap="round" stroke-linejoin="round" stroke-miterlimit="10" stroke-width=".39851322" d="m314.598 316.68 1.445 1.523.598 2.016"/><path fill="none" stroke="#000" stroke-linecap="round" stroke-linejoin="round" stroke-miterlimit="10" stroke-width=".19875722" d="m345.582 336.93-.73-5.602-1.723-5.086-2.754-4.219-3.715-3.058-4.508-1.692-5.031-.273-5.266 1.05-5.214 2.169"/><path fill="none" stroke="#000" stroke-linecap="round" stroke-linejoin="round" stroke-miterlimit="10" stroke-width=".39851322" d="m343.539 338.11 2.043-1.18M316.64 320.219v2.359M343.539 338.11c-.828-16.262-12.402-22.942-26.898-15.532M313.375 324.465c-14.496 9.328-26.07 29.367-26.899 46.586M313.375 324.465V322.1"/><path fill="none" stroke="#000" stroke-linecap="round" stroke-linejoin="round" stroke-miterlimit="10" stroke-width=".19875722" d="M284.43 372.234c.836-18.523 13.32-40.148 28.945-50.129"/><path fill="none" stroke="#000" stroke-linecap="round" stroke-linejoin="round" stroke-miterlimit="10" stroke-width=".39851322" d="m284.43 372.234 2.046-1.18M313.375 322.101l-.598-2.011-1.445-1.528"/><path fill="none" stroke="#000" stroke-linecap="round" stroke-linejoin="round" stroke-miterlimit="10" stroke-width=".19875722" d="M311.332 318.562c-16.75 10.641-30.148 33.844-30.984 53.672"/><path fill="none" stroke="#000" stroke-linecap="round" stroke-linejoin="round" stroke-miterlimit="10" stroke-width=".39851322" d="m280.344 372.238 2.043.488 2.043-.492"/><path fill="none" stroke="#000" stroke-linecap="round" stroke-linejoin="round" stroke-miterlimit="10" stroke-width=".19875722" d="M313.375 392.719c-15.625 8.054-28.11.847-28.945-16.711"/><path fill="none" stroke="#000" stroke-linecap="round" stroke-linejoin="round" stroke-miterlimit="10" stroke-width=".39851322" d="M313.375 392.719v-2.364M286.476 374.828c.829 16.258 12.399 22.938 26.895 15.527M286.476 374.828l-2.046 1.18"/><path fill="none" stroke="#000" stroke-linecap="round" stroke-linejoin="round" stroke-miterlimit="10" stroke-width=".19875722" d="M280.344 376.008c.406 9.101 3.8 15.98 9.523 19.285"/><path fill="none" stroke="#000" stroke-linecap="round" stroke-linejoin="round" stroke-miterlimit="10" stroke-width=".39851322" d="m312.738 394.062.637-1.343M284.43 376.008l-2.043.488-2.043-.488M299.258 307.82l15.34 8.86M316.64 322.578l26.899 15.531M316.64 322.578l-3.671-2.121M280.344 372.238l-14.301-8.262M297.027 310.305l14.305 8.257M286.476 374.828l26.899 15.527M286.476 374.828l-3.671-2.121M265.004 367.152l15.34 8.856M306.844 329.555c-.98 4.37-2.551 8.851-4.633 13.21M296.746 352.238c-2.738 3.98-5.832 7.582-9.129 10.617M316.64 388.469v2.363"/><path fill="none" stroke="#000" stroke-linecap="round" stroke-linejoin="round" stroke-miterlimit="10" stroke-width=".19875722" d="M345.582 340.7c-.832 18.523-13.316 40.148-28.941 50.132"/><path fill="none" stroke="#000" stroke-linecap="round" stroke-linejoin="round" stroke-miterlimit="10" stroke-width=".39851322" d="m345.582 340.7-2.043 1.179M316.64 388.469c14.497-9.325 26.067-29.368 26.899-46.586M286.476 371.055l30.165 17.414M343.539 341.879l-30.164-17.414M316.64 390.832l-.597 1.324-1.445-.144M345.586 338.34l.844 1.18-.848 1.18M313.375 391.305l1.223.707M345.586 338.34l-1.223-.707M219.969 212.277l8.383-4.84M142.613 346.258v9.68M288.976 201.43l1.989 1.148M294.05 204.36l21.41 12.363M318.55 218.504l21.407 12.36M343.047 232.648l7.023 4.055M232.578 213.086l1.668 3.324M257.074 227.23l1.668 3.32M281.57 241.371l1.668 3.324M153.332 356.555l-3.71.218M177.828 370.7l-3.71.218M202.324 384.844l-3.71.214M167.727 411.441l1.988 1.149M172.8 414.371l21.41 12.363M197.297 428.516l21.41 12.359M221.793 442.66l7.027 4.055M352.82 253.625l21.211 12.246M244.851 440.637l21.211 12.246M310.14 354.637l-18.652-3.34M310.988 353.168l-12.219-14.48M248.473 192.644l7.28 4.165M256.004 196.953l.344.195M139.863 380.758l7.25 4.222M147.36 385.125l.347.203M115.508 325.957l-75.434-43.55M188.836 198.95l-75.434-43.552M75.105 159.973l1.633-.942M24.89 246.953v1.887M59.64 144.285l-8.62 3.52-8.215 4.968-7.746 6.22-7.196 7.288M23.559 171.48l-7.477 11.02-6.078 11.875-4.465 12.332-2.648 12.418M4.973 246.328l3.84 8.094 5.71 6.953M139.863 380.758l-5.668-3.985-4.988-4.918-4.238-5.742-3.45-6.469-2.667-7.105-1.887-7.66-1.121-8.14-.364-8.548 1.477-18.047 4.3-18.812 6.927-18.945 9.285-18.422 11.312-17.254 12.942-15.469 14.144-13.129 14.887-10.3 7.586-3.961 7.61-3.102 7.577-2.191 7.489-1.247 7.328-.246 7.09.797 6.75 1.864 6.289 2.917"/><path fill="none" stroke="#000" stroke-linecap="round" stroke-linejoin="round" stroke-miterlimit="10" stroke-width=".39851322" d="m374.031 265.871 5.875 4.098 5.156 5.047 4.364 5.878 3.535 6.582 2.719 7.192 1.914 7.71 1.132 8.157.372 8.535-1.454 17.93-4.242 18.617-6.832 18.707-9.156 18.172-11.16 17.016-12.785 15.27-14 12.984-14.805 10.226-7.574 3.941-7.63 3.098-7.64 2.2-7.586 1.242-7.468.23-7.27-.836-6.95-1.945-6.484-3.04"/><path fill="none" stroke="#000" stroke-linecap="round" stroke-linejoin="round" stroke-miterlimit="10" stroke-width=".39851322" d="m336.062 315.285 4.286 3.477 3.187 4.734 2.024 5.723.87 6.484M312.738 394.062l-6.054 2.489-5.965 1.109-5.696-.394-5.152-1.973M308.012 299.094l28.05 16.191M261.824 379.098l28.047 16.195M346.43 339.559l-.844 7.28-1.887 7.52-2.851 7.543-3.73 7.332-4.485 6.895-5.106 6.242-5.57 5.395-5.879 4.367M492.34 109.309l-1.942-2.637M490.398 106.672l-6.808-9.156M483.433 97.477l-.96-1.434M482.473 96.043l-6.81-8.766M475.36 87.195l-.813-1.324M474.547 85.871l-6.832-8.36M467.27 77.375l-.68-1.203M466.59 76.172l-6.883-7.942M458.57 66.96l-4.703-5.124M459.129 68.039l-.559-1.078M500.281 120.125l-.871-1.063M500.281 120.125l-7.941-10.816M491.515 108.21l.825 1.099M498.355 117.742l-6.84-9.531M499.41 119.062l-1.055-1.32M469.121 76.957l-.66 1.45M462.23 69.074l6.891 7.883M460.875 69.55l1.355-.476M454.113 62.098l1.121-.575M461.094 67.816l-.645 1.25M455.234 61.523l5.86 6.293M477.086 86.586l-.66 1.652M470.25 78.285l6.836 8.3M468.785 78.797l1.465-.512M485.012 96.691l-.641 1.86M478.207 87.984l6.805 8.707M476.644 88.516l1.563-.532M492.937 107.258l-.597 2.05M486.133 98.156l6.804 9.102M484.48 98.695l1.653-.539M499.883 116.86l.398 3.265M494.055 108.785l5.828 8.074M492.34 109.309l1.715-.524M498.355 117.742l-15.402-3.023M482.953 114.719l-.36 2M500.125 120.238l-.715-1.176M476.07 104.879l15.445 3.332M476.07 104.879l6.883 9.84M474.465 105.32l1.605-.441M490.398 106.672l-15.453-3.383M474.945 103.289l-.48 2.031M468.113 93.809l15.477 3.707M468.113 93.809l6.832 9.48M466.398 94.332l1.715-.523M482.473 96.043l-15.477-3.762M466.996 92.281l-.598 2.051M460.187 83.18l15.477 4.097M460.187 83.18l6.809 9.101M458.539 83.719l1.648-.54M474.547 85.871l-15.473-4.156M459.074 81.715l-.644 1.86M452.266 73.008l15.449 4.504M452.266 73.008l6.808 8.707M456.543 61.258c-.434.082-.875.172-1.309.265M457.89 61.023l-.964.375M463.312 60.488c-1.77.063-3.586.242-5.421.535M463.726 60.863l.868-.402M465.824 60.473a43 43 0 0 0-1.226-.016M467.078 60.527l-.672.2M472.082 61.18a36 36 0 0 0-5-.653M472.719 61.66l.535-.219M474.371 61.734a26 26 0 0 0-1.117-.293M475.504 62.074l-.328.067M479.969 63.898a31 31 0 0 0-4.461-1.824M480.91 64.473l.086-.032M481.488 64.719l-.492-.274M390.066 221.941c.157.098.32.2.48.29M390.047 221.852l.02.09M385.27 218.371a31 31 0 0 0 3.812 2.953M385.27 218.371l-.11-.32M383.594 216.738c.265.278.539.551.812.817M383.516 216.164l.078.574M379.715 211.848a35.5 35.5 0 0 0 3.066 4.007M379.715 211.848l-.164-.684M378.414 209.73q.305.536.629 1.059M378.332 208.773l.082.957M375.55 203.64a44 44 0 0 0 2.247 4.965M375.55 203.64l-.16-1.023M374.652 201.09q.207.64.426 1.27M374.594 199.832l.058 1.258M372.875 193.953a58 58 0 0 0 1.367 5.797M372.875 193.953l-.11-1.336M372.402 191.031c.067.485.14.973.219 1.45M372.375 189.539l.027 1.492M371.75 183.02c.066 2.218.219 4.394.46 6.492M371.75 183.02l-.016-1.614M371.719 179.8c-.004.532-.004 1.067 0 1.594M371.723 177.992l-.004 1.809M371.75 178.14l-.027-.148M372.21 171.117a97 97 0 0 0-.46 7.024M372.21 171.117l.157-2.957M372.367 168.16l.035 1.215M372.621 167.676c-.078.566-.152 1.14-.219 1.699M372.625 166.125l-.004 1.55M372.875 165.91l-.25.215M374.242 158.531c-.543 2.477-1 4.953-1.371 7.38M374.242 158.531l.3-2.738M374.543 155.793l.11.926M375.078 154.957c-.145.586-.285 1.176-.422 1.758M375.055 153.68l.023 1.277M375.55 153.133l-.495.547M377.797 145.574a132 132 0 0 0-2.246 7.559M377.797 145.574l.402-2.472M378.2 143.102l.214.632M379.043 141.953c-.215.59-.426 1.191-.629 1.781M378.95 140.965l.093.988M379.715 140.113l-.766.852M382.781 132.566a154 154 0 0 0-3.066 7.547M382.781 132.566l.461-2.168M383.242 130.398l.352.348M384.406 128.988c-.273.582-.547 1.172-.812 1.758M384.215 128.293l.191.695M385.27 127.18l-1.055 1.113M389.078 119.828a158 158 0 0 0-3.812 7.352M389.078 119.828l.473-1.832M389.55 117.996l.516.074M391.039 116.379c-.324.558-.652 1.129-.973 1.691M390.719 115.973l.32.406M392.07 114.648l-1.351 1.325M396.531 107.668a161 161 0 0 0-4.46 6.98M396.531 107.668l.438-1.465M396.969 106.203l.699-.183M398.781 104.437c-.37.524-.746 1.051-1.113 1.579M398.305 104.309l.476.128M399.953 102.824l-1.648 1.485M404.957 96.395a149 149 0 0 0-5.004 6.43M404.957 96.395l.355-1.09M405.312 95.305l.903-.414M407.441 93.457c-.41.473-.824.957-1.226 1.438M406.785 93.586l.656-.129M408.726 92.004l-1.941 1.582M414.148 86.277a136 136 0 0 0-5.422 5.727M414.148 86.277l.227-.703M414.375 85.574l1.117-.617M416.805 83.71c-.438.407-.875.829-1.309 1.247M415.95 84.074l.855-.363M418.168 82.45l-2.219 1.624M423.879 77.57a117 117 0 0 0-5.707 4.875M423.879 77.57l.058-.32M423.937 77.25l1.34-.781M426.64 75.434c-.453.336-.91.687-1.363 1.035M425.57 76.008l1.07-.574M428.055 74.395l-2.485 1.613M433.906 70.484a97 97 0 0 0-5.851 3.91M433.906 70.484l-.144.047M433.762 70.531l1.566-.906M436.707 68.832c-.457.258-.922.527-1.379.797M438.133 68.043l-1.407.793M443.984 65.195a76 76 0 0 0-5.851 2.848M444.09 65.328l1.304-.723M446.758 64.066c-.45.172-.907.352-1.36.536M448.16 63.55l-1.21.575M453.867 61.836a58 58 0 0 0-5.707 1.715"/><path fill="none" stroke="#000" stroke-linecap="round" stroke-linejoin="round" stroke-miterlimit="10" stroke-width=".39851322" d="M423.566 76.414c-18.52 10.691-35.64 31.988-44.902 55.855-4.55 11.727-6.95 23.446-6.95 33.95M476.398 73.227l-15.304-5.41M476.398 73.227l-7.062-7.079M456.543 61.258l12.793 4.89M450.703 73.539l1.563-.531M476.848 74.172l-.45-.945M485.07 83.016l-.558-1.075M484.512 81.941l-15.391-4.984M462.23 69.074l15.32 5.352M446.758 64.066l12.949 4.164M484.512 81.941l-6.961-7.515M445.394 64.605l5.75 7.004M466.59 76.172l-15.446-4.563M482.594 116.719l-2.164-2.469M482.594 116.719l-8.13-11.399M473.539 104.36l.926.96M480.43 114.25l-6.891-9.89M474.465 105.32l-2.055-2.554M474.465 105.32l-8.067-10.988M465.574 93.23l.824 1.102M472.41 102.766l-6.836-9.536M466.398 94.332l-1.941-2.637M464.457 91.695l-6.809-9.156M457.492 82.5l-.96-1.434M456.531 81.066l-6.808-8.765M448.605 70.895l-4.62-5.7M449.418 72.215l-.813-1.32M490.683 128.309l-.972-.957M490.683 128.309l-8.09-11.59M481.57 115.902l1.024.817M488.543 126.125l-6.973-10.223M489.71 127.352l-1.167-1.227M451.144 71.61l-.664 1.648M490.027 125.031l.656 3.278M484.09 116.363l5.937 8.668M482.594 116.719l1.496-.356M488.543 126.125l-15.219-2.367M473.324 123.758l-.113 1.898M490.535 128.45l-.824-1.098M466.262 113.262l15.308 2.64M466.262 113.262l7.062 10.496M464.871 113.52l1.39-.258M480.43 114.25l-15.32-2.684M465.11 111.566l-.239 1.953M458.148 101.387l15.39 2.972M458.148 101.387l6.961 10.18M456.652 101.742l1.496-.355M472.41 102.766l-15.398-3.024M457.012 99.742l-.36 2M450.129 89.902l15.445 3.328M450.129 89.902l6.883 9.84M448.523 90.344l1.606-.442M464.457 91.695l-15.453-3.383M449.004 88.312l-.48 2.032M442.172 78.832l15.476 3.707M442.172 78.832l6.832 9.48M440.457 79.355l1.715-.523M493.21 92.352l-.679-1.204M492.531 91.148l-15.445-4.562M470.25 78.285l15.398 4.926M436.707 68.832l13.016 3.469M492.531 91.148l-6.883-7.937M435.328 69.625l5.727 7.68M456.531 81.066l-15.476-3.761M473.21 125.656l-2.374-2.265M473.21 125.656l-8.339-12.137M463.754 112.855l1.117.664M470.836 123.39l-7.082-10.535M464.871 113.52l-2.27-2.372M464.871 113.52l-8.219-11.778M455.629 100.926l1.023.816M462.601 111.148l-6.972-10.222M456.652 101.742l-2.164-2.469M456.652 101.742l-8.129-11.398M447.598 89.383l.925.96M454.488 99.273l-6.89-9.89M448.523 90.344l-2.054-2.555M448.523 90.344l-8.066-10.989M439.633 78.254l.824 1.101M446.469 87.789l-6.836-9.535M438.512 76.719l-4.606-6.235M440.457 79.355l-1.945-2.636M481.562 137.922l-1.066-.844M481.562 137.922l-8.351-12.266M472.008 125.144l1.203.512M479.219 135.969l-7.211-10.825M480.496 137.078l-1.277-1.11M441.055 77.305l-.598 2.05M480.625 134.691l.937 3.23M474.496 125.504l6.129 9.187M473.21 125.656l1.286-.152M479.219 135.969l-14.934-1.82M464.285 134.148l.137 1.754M481.426 138.082l-.93-1.004M456.937 123.102l15.07 2.042M456.937 123.102l7.348 11.046M455.758 123.14l1.18-.038M470.836 123.39l-15.09-2.081M455.746 121.309l.012 1.832M448.55 110.527l15.204 2.328M448.55 110.527l7.196 10.782M447.27 110.68l1.28-.153M462.601 111.148l-15.218-2.37M447.383 108.777l-.114 1.903M440.32 98.285l15.309 2.64M440.32 98.285l7.063 10.492M438.93 98.543l1.39-.258M454.488 99.273l-15.32-2.687M439.168 96.586l-.238 1.957M432.207 86.41l15.39 2.973M432.207 86.41l6.96 10.176M430.71 86.762l1.497-.352M501.3 102.172l-.812-1.324M500.488 100.848l-15.476-4.157M478.207 87.984l15.45 4.504M426.64 75.434l12.993 2.82M500.488 100.848l-6.832-8.36M425.277 76.469l5.793 8.297M446.469 87.789l-15.399-3.023M464.422 135.902l-2.578-2.03M464.422 135.902l-8.664-12.761M454.476 122.789l1.282.352M461.844 133.871l-7.368-11.082M455.758 123.14l-2.48-2.148M455.758 123.14l-8.489-12.46M446.066 110.168l1.203.512M453.277 120.992l-7.21-10.824M447.27 110.68l-2.376-2.266M447.27 110.68l-8.34-12.137M437.812 97.879l1.118.664M444.894 108.414l-7.082-10.535M438.93 98.543l-2.27-2.371M438.93 98.543l-8.22-11.781M429.687 85.95l1.024.812M436.66 96.172l-6.973-10.223M428.547 84.297l-4.668-6.727M430.71 86.762l-2.163-2.465M430.71 86.762l-6.773-9.512M473.144 148.723l-1.152-.715M473.144 148.723l-8.722-12.82M463.07 135.71l1.352.192M470.617 147.023l-7.547-11.312M471.992 148.008l-1.375-.985M431.07 84.766l-.36 1.996M471.914 145.602l1.23 3.12M465.504 135.984l6.41 9.618M464.422 135.902l1.082.082M470.617 147.023l-14.562-1.379M456.055 145.644l.382 1.563M473.02 148.902l-16.583-1.695M473.02 148.902l-1.028-.894M448.336 134.16l14.734 1.55M448.336 134.16l7.719 11.484M459.664 135.336l-12.32-1.383M447.344 133.953l.992.207M461.844 133.871l-14.762-1.582M447.082 132.289l.262 1.664M439.562 121.008l14.914 1.781M439.562 121.008l7.52 11.281M438.476 120.926l1.086.082M453.277 120.992l-14.937-1.82M438.34 119.172l.136 1.754M430.996 108.125l15.07 2.043M430.996 108.125l7.344 11.047M429.816 108.164l1.18-.039M444.894 108.414l-15.09-2.082M429.805 106.332l.011 1.832M422.61 95.55l15.202 2.329M422.61 95.55l7.195 10.782M421.328 95.703l1.281-.152M509.96 113.652l-.609-1.23M509.351 112.422l-.937-1.402M508.414 111.02l-15.477-3.762M486.133 98.156l15.472 4.098M416.805 83.71l12.882 2.24M508.414 111.02l-6.809-8.766M415.492 84.957l5.95 8.844M436.66 96.172 421.441 93.8M456.437 147.207l-2.757-1.773M456.437 147.207l-9.093-13.254M445.93 133.922l1.414.031M453.68 145.434l-7.75-11.512M447.344 133.953l-2.668-1.906M447.344 133.953l-8.868-13.027M437.125 120.734l1.351.192M444.676 132.047l-7.551-11.313M438.476 120.926l-2.574-2.032M438.476 120.926l-8.66-12.762M428.535 107.812l1.281.352M435.902 118.894l-7.367-11.082M429.816 108.164l-2.48-2.152M429.816 108.164l-8.488-12.46M420.125 95.191l1.203.512M427.336 106.012l-7.211-10.82M418.953 93.437l-4.805-7.16M421.328 95.703l-2.375-2.266M421.328 95.703l-6.953-10.129M465.637 160.445l-1.227-.578M465.637 160.445l-9.2-13.238M454.973 147.34l1.464-.133M462.945 159.02l-7.972-11.68M464.41 159.867l-1.465-.848M421.441 93.8l-.113 1.903M464.105 157.488l1.532 2.957M457.34 147.547l6.765 9.941M456.437 147.207l.903.34M462.945 159.02l-14.105-1.063M448.84 157.957l.62 1.336M465.523 160.637l-16.062-1.344M465.523 160.637l-1.113-.77M440.66 146.156l14.313 1.184M440.66 146.156l8.18 11.801M456.437 147.207l-16.593-1.523M439.844 145.684l.816.472M453.68 145.434l-14.34-1.207M439.34 144.227l.504 1.457M431.398 132.57l14.532 1.352M431.398 132.57l7.942 11.657M447.344 133.953l-16.848-1.723M430.496 132.23l.902.34M444.676 132.047l-14.563-1.38M430.113 130.668l.383 1.562M422.394 119.18l14.73 1.554M422.394 119.18l7.72 11.488M433.719 120.36l-12.317-1.387M421.402 118.973l.992.207M435.902 118.894l-14.761-1.582M421.14 117.312l.262 1.66M413.621 106.031l14.914 1.781M413.621 106.031l7.52 11.281M418.953 93.437l-10.227-1.433M412.539 105.95l1.082.081M494.055 108.785l13.207 3.145M507.262 111.93l2.699 1.722M407.441 93.457l12.684 1.734M499.883 116.86a96 96 0 0 1 7.379-4.93M406.215 94.89l6.187 9.305M427.336 106.012l-14.934-1.817M449.46 159.293l-2.913-1.504M449.46 159.293l-9.616-13.61M438.332 145.973l1.512-.29M446.547 157.789l-8.215-11.816M439.844 145.684l-2.84-1.641M439.844 145.684l-9.348-13.454M429.031 132.36l1.465-.13M437.004 144.043l-7.973-11.684M430.496 132.23l-2.758-1.773M430.496 132.23l-9.094-13.257M419.988 118.941l1.414.032M427.738 130.457l-7.75-11.516M421.402 118.973l-2.668-1.907M421.402 118.973l-8.863-13.024M411.183 105.758l1.356.191M418.734 117.066l-7.55-11.308M409.96 103.918l-5.003-7.523M412.539 105.95l-2.578-2.032M412.539 105.95l-7.227-10.645M459.219 172.805l-1.29-.442M459.219 172.805l-9.758-13.512M447.914 159.742l1.547-.45M456.39 171.664l-8.476-11.922M457.93 172.363l-1.54-.699M412.402 104.195l.137 1.754M457.39 170.062l1.829 2.743M450.207 159.902l7.184 10.16M449.46 159.293l.747.61M456.39 171.664l-13.57-.883M442.82 170.781l.844 1.074M459.125 173.004l-15.461-1.149M459.125 173.004l-1.195-.64M434.11 158.797l13.804.945M434.11 158.797l8.71 11.984M449.46 159.293l-16.027-1.25M433.433 158.043l.676.754M446.547 157.789l-13.848-.953M432.7 156.836l.733 1.207M424.266 144.926l14.066 1.047M424.266 144.926l8.433 11.91M439.844 145.684l-16.325-1.372M423.52 144.312l.746.614M437.004 144.043l-14.106-1.063M422.898 142.98l.621 1.332M414.719 131.18l14.312 1.18M414.719 131.18l8.18 11.8M430.496 132.23l-16.594-1.527M413.902 130.703l.817.477M427.738 130.457l-14.34-1.207M413.398 129.25l.504 1.453M405.457 117.59l14.531 1.351M405.457 117.59l7.941 11.66M409.96 103.918l-10.007-1.094M421.402 118.973l-16.847-1.72M404.555 117.254l.902.336M407.781 105.383l-9.476-1.074M484.09 116.363l13.133 2.52M497.223 118.883l2.902 1.355M398.781 104.437l12.402 1.32M490.027 125.031a118 118 0 0 1 7.192-6.148M397.668 106.02l6.504 9.671M418.734 117.066l-14.562-1.375M443.664 171.855l-3.05-1.214M440.793 168.02l-7.36-9.977M431.863 158.652l1.57-.61M440.613 170.64l-8.75-11.988M433.433 158.043l-2.984-1.36M433.433 158.043l-9.914-13.73M421.976 144.766l1.543-.454M430.45 156.684l-8.474-11.918M423.52 144.312l-2.915-1.5M423.52 144.312l-9.618-13.609M412.39 130.996l1.512-.293M420.605 142.812l-8.214-11.816M413.902 130.703l-2.84-1.637M413.902 130.703l-9.347-13.45M403.09 117.383l1.465-.13M411.062 129.066l-7.972-11.683M401.797 115.477l-5.266-7.81M404.555 117.254l-2.758-1.777M404.555 117.254l-7.586-11.05M454.055 185.492l-1.336-.3M442.074 172.613l1.59-.758M451.117 184.64l-9.043-12.027M452.719 185.191l-1.602-.55M404.172 115.691l.383 1.563M451.941 183.016l2.114 2.476M444.273 172.754l7.668 10.262M443.664 171.855l.61.899M451.117 184.64l-12.976-.835M438.14 183.805l1.043.789M453.984 185.695l-14.8-1.101M453.984 185.695l-1.265-.504M428.836 171.777l13.238.836M428.836 171.777l9.305 12.028M443.664 171.855l-15.383-1.12M428.281 170.734l.555 1.043M440.613 170.64l-13.281-.84M427.332 169.8l.95.934M418.332 157.777l13.531.875M418.332 157.777l9 12.024M433.433 158.043l-15.71-1.164M417.723 156.879l.609.898M430.45 156.684l-13.571-.88M416.879 155.805l.844 1.074M408.168 143.82l13.808.946M408.168 143.82l8.71 11.985M423.52 144.312l-16.028-1.246M407.492 143.066l.676.754M420.605 142.812l-13.847-.953M406.758 141.86l.734 1.206M398.324 129.95l14.067 1.046M398.324 129.95l8.434 11.91M401.797 115.477l-9.727-.829M413.902 130.703l-16.324-1.367M397.578 129.336l.746.613M404.555 117.254l-13.836-1.281M474.496 125.504l12.965 1.973M487.46 127.477l3.075.972M391.039 116.379l12.05 1.004M480.625 134.691a135 135 0 0 1 6.836-7.214M390.066 118.07l6.89 9.93M411.062 129.066 396.957 128M439.183 184.594l-3.148-.926M426.687 171.64l1.594-.906M436.035 183.668l-9.348-12.027M428.281 170.734l-3.105-1.07M416.133 157.637l1.59-.758M425.176 169.664l-9.043-12.027M417.723 156.879l-3.051-1.215M414.851 153.043l-7.359-9.977M405.922 143.672l1.57-.606M414.672 155.664l-8.75-11.992M407.492 143.066l-2.984-1.359M407.492 143.066l-9.914-13.73M396.031 129.785l1.547-.45M404.508 141.707l-8.477-11.922M394.664 127.836l-5.586-8.008M397.578 129.336l-2.914-1.5M397.578 129.336l-8.027-11.34M450.266 198.2l-1.364-.165M437.594 185.64l1.59-1.046M447.258 197.637l-9.664-11.996M448.902 198.035l-1.644-.398M396.957 128l.621 1.336M447.883 196.023l2.383 2.176M439.695 185.781l8.188 10.242M439.183 184.594l.512 1.187M447.258 197.637l-12.34-.93M434.918 196.707l1.219.48M450.219 198.398l-14.082-1.21M450.219 198.398l-1.317-.363M424.976 184.77l12.618.87M424.976 184.77l9.942 11.937M439.183 184.594l-14.68-1.157M424.504 183.437l.472 1.332M436.035 183.668l-12.664-.863M423.371 182.805l1.133.632M413.754 170.805l12.933.836M413.754 170.805l9.617 12M428.281 170.734l-15.039-1.117M413.242 169.617l.512 1.188M425.176 169.664l-12.977-.836M412.2 168.828l1.042.79M402.894 156.8l13.239.837M402.894 156.8l9.305 12.028M417.723 156.879l-15.383-1.121M402.34 155.758l.554 1.043M414.672 155.664l-13.278-.84M401.394 154.824l.946.934M392.39 142.8l13.532.872M392.39 142.8l9.004 12.024M394.664 127.836l-9.395-.656M407.492 143.066l-15.71-1.164M391.781 141.902l.61.899M397.578 129.336l-13.363-1.043M465.504 135.984l12.719 1.508M478.223 137.492l3.203.59M384.406 128.988l11.625.797M471.914 145.602a147 147 0 0 1 6.309-8.11M383.594 130.746l7.343 10.082M404.508 141.707l-13.57-.879M436.137 197.187l-3.223-.64M422.93 184.621l1.574-1.184M432.914 196.547l-9.984-11.926M424.504 183.437l-3.188-.78M411.652 170.664l1.59-1.047M421.316 182.656l-9.664-11.992M413.242 169.617l-3.148-.926M400.746 156.664l1.594-.906M410.094 168.691l-9.348-12.027M402.34 155.758l-3.106-1.07M390.191 142.66l1.59-.758M399.234 154.687l-9.043-12.027M388.73 140.687l-5.949-8.12M391.781 141.902l-3.05-1.215M388.91 138.066l-5.668-7.668M447.95 210.61l-1.376-.032M434.582 198.5l1.555-1.313M444.902 210.324l-10.32-11.824M446.574 210.578l-1.672-.254M390.937 140.828l.844 1.074M445.324 208.773l2.625 1.836M436.574 198.66l8.75 10.113M436.137 197.187l.437 1.473M444.902 210.324l-11.676-1.156M433.226 209.168l1.368.164M447.926 210.8l-13.332-1.468M447.926 210.8l-1.352-.222M422.621 197.46l11.96 1.04M422.621 197.46l10.605 11.708M436.137 197.187l-13.934-1.34M422.203 195.848l.418 1.613M432.914 196.547l-12.008-1.024M420.906 195.523l1.297.325M410.633 183.684l12.297.937M410.633 183.684l10.273 11.84M424.504 183.437l-14.309-1.226M410.195 182.21l.438 1.474M421.316 182.656l-12.343-.926M408.973 181.73l1.222.48M399.035 169.793l12.617.871M399.035 169.793l9.938 11.937M413.242 169.617l-14.68-1.156M398.562 168.46l.473 1.333M410.094 168.691l-12.668-.867M397.426 167.824l1.136.637M387.808 155.824l12.938.84M387.808 155.824l9.618 12M388.73 140.687l-9.015-.574M402.34 155.758l-15.04-1.121M387.3 154.637l.508 1.187M391.781 141.902l-12.832-.937M457.34 147.547l12.39 1.14M469.73 148.687l3.29.215M379.043 141.953l11.148.707M464.105 157.488c1.778-3 3.664-5.945 5.625-8.8M378.414 143.734l7.844 10.118M399.234 154.687l-12.976-.835M434.594 209.332l-3.258-.363M420.683 197.277l1.52-1.43M431.336 208.969l-10.653-11.692M422.203 195.848l-3.242-.5M408.64 183.523l1.555-1.312M418.96 195.348l-10.32-11.825M410.195 182.21l-3.222-.64M396.988 169.644l1.574-1.183M406.973 181.57l-9.985-11.926M398.562 168.46l-3.187-.78M385.71 155.687l1.59-1.05M395.375 167.68l-9.664-11.993M384.152 153.71l-6.355-8.136M387.3 154.637l-3.148-.926M447.164 222.422l-1.371.09M433.117 210.875l1.477-1.543M444.11 222.394l-10.993-11.52M445.793 222.512l-1.684-.118M386.258 153.852l1.043.785M444.32 220.945l2.844 1.477M434.996 211.082l9.324 9.863M434.594 209.332l.402 1.75M444.11 222.394l-10.993-1.507M447.164 222.602l-1.371-.09M421.828 209.531l11.29 1.344M421.828 209.531l11.29 11.356M421.469 207.832l.359 1.7M431.336 208.969l-11.332-1.317M409.055 196.102l11.628 1.175M409.055 196.102l10.949 11.55M422.203 195.848l-13.555-1.493M408.648 194.355l.407 1.747M418.96 195.348l-11.675-1.157M407.285 194.191l1.363.164M396.68 182.48l11.96 1.043M396.68 182.48l10.605 11.711M410.195 182.21l-13.937-1.339M396.258 180.871l.422 1.61M406.973 181.57l-12.008-1.023M394.965 180.547l1.293.324M384.691 168.707l12.297.937M384.691 168.707l10.274 11.84M384.152 153.71l-8.601-.577M398.562 168.46l-14.308-1.226M384.254 167.234l.437 1.473M387.3 154.637l-12.245-.957M450.207 159.902l11.988.887M462.195 160.789l3.328-.152M375.078 154.957l10.633.73M457.39 170.062a157 157 0 0 1 4.805-9.273M374.652 156.719l8.38 10.035M395.375 167.68l-12.344-.926M432.89 220.664l-1.554-.047M420.004 209.297l1.285-1.488M431.336 220.617l-11.332-11.32M419.89 207.535l-1.722-.117M407.172 195.898l1.476-1.543M418.168 207.418l-10.996-11.52M408.648 194.355l-3.254-.363M394.742 182.3l1.516-1.429M405.394 193.992l-10.652-11.691M396.258 180.871l-3.239-.5M382.7 168.547l1.554-1.313M393.02 180.371l-10.32-11.824M381.031 166.594l-6.789-8.063M384.254 167.234l-3.223-.64M447.926 233.34l-1.352.199M433.226 222.46l1.098-1.398M444.902 233.555l-11.676-11.094M446.574 233.539l-1.672.016M383.031 166.754l1.223.48M444.902 232.242l3.024 1.098M434.996 222.73l9.906 9.512M434.676 221.113l.32 1.617M444.902 233.555l-10.32-1.993M447.95 233.5l-1.376.039M422.621 220.691l10.605 1.77M422.621 220.691l11.96 10.871M422.328 219.168l.293 1.523M431.336 220.617l-10.653-1.734M409.055 207.754l10.949 1.543M409.055 207.754l11.628 11.129M408.734 206.137l.32 1.617M418.168 207.418l-10.996-1.512M395.887 194.555l11.285 1.343M395.887 194.555l11.285 11.351M395.527 192.855l.36 1.7M405.394 193.992l-11.332-1.32M383.113 181.125l11.63 1.176M383.113 181.125l10.95 11.547M381.031 166.594l-8.156-.684M396.258 180.871l-13.551-1.496M382.707 179.375l.406 1.75M384.254 167.234l-11.63-1.109M444.273 172.754l11.532.742M455.805 173.496l3.32-.492M372.621 167.676l10.078.87M451.941 183.016a148 148 0 0 1 3.864-9.52M372.402 169.375l8.942 9.84M393.02 180.371l-11.676-1.156M434.129 231.16l-1.215.055M420.906 220.379l.922-1.297M432.914 231.215l-12.008-10.836M420.344 218.562l-1.383.016M407.285 207.484l1.098-1.398M418.96 218.578l-11.675-11.094M406.95 205.684l-1.556-.043M394.062 194.32l1.286-1.488M405.394 205.64l-11.332-11.32M393.95 192.559l-1.724-.118M381.234 180.922l1.473-1.547M392.226 192.441l-10.992-11.52M379.453 179.012l-7.242-7.895M382.707 179.375l-3.254-.363M450.219 243.098l-1.317.296M434.918 232.973l.762-1.184M447.258 243.523l-12.34-10.55M448.902 243.394l-1.644.13M381.344 179.215l1.363.16M447.05 242.387l3.169.71M436.574 233.328l10.477 9.059M436.308 231.918l.266 1.41M447.258 243.523l-9.664-2.578M450.266 243.238l-1.364.156M424.976 230.66l9.942 2.313M424.976 230.66l12.618 10.285M424.73 229.379l.246 1.281M432.914 231.215l-9.984-2.27M410.633 218.352l10.273 2.027M410.633 218.352l12.297 10.593M410.367 216.941l.266 1.41M418.96 218.578l-10.32-1.992M396.68 205.715l10.605 1.77M396.68 205.715l11.96 10.87M396.387 204.191l.293 1.524M405.394 205.64l-10.652-1.734M383.113 192.777l10.95 1.543M383.113 192.777l11.63 11.13M379.453 179.012l-7.703-.871M382.793 191.156l.32 1.621M439.695 185.781l11.02.715M450.715 186.496l3.27-.8M371.719 179.8l9.515 1.122M447.883 196.023a138 138 0 0 1 2.832-9.527M371.719 181.394l9.515 9.536M392.226 192.441l-10.992-1.511M436.906 240.398l-.871.098M423.371 230.254l.613-1.055M436.035 240.496l-12.664-10.242M422.355 228.46l-1.039.087M408.973 217.996l.765-1.184M421.316 228.547l-12.343-10.551M408.187 216.184l-1.214.054M394.965 205.402l.922-1.297M406.973 216.238l-12.008-10.836M394.398 203.586l-1.379.016M381.344 192.508l1.097-1.403M393.02 203.602l-11.676-11.094M379.453 190.664l-7.703-7.645M381.008 190.707l-1.555-.043M453.984 251.453l-1.265.379M438.14 242.152l.481-.914M451.117 252.059l-12.976-9.907M452.719 251.832l-1.602.227M450.715 251.125l3.27.328M439.695 242.61l11.02 8.515M439.469 241.473l.226 1.136M451.117 252.059l-9.043-3.262M454.055 251.574l-1.336.258M428.836 239.195l9.305 2.957M428.836 239.195l13.238 9.602M428.633 238.226l.203.97M436.035 240.496l-9.348-2.906M413.754 227.633l9.617 2.62M413.754 227.633l12.933 9.957M413.527 226.496l.227 1.137M421.316 228.547l-9.664-2.578M399.035 215.684l9.938 2.312M399.035 215.684l12.617 10.285M398.789 214.398l.246 1.286M406.973 216.238l-9.985-2.273M384.691 203.375l10.274 2.027M384.691 203.375l12.297 10.59M379.453 190.664l-7.242-1.152M384.426 201.965l.265 1.41M436.574 198.66l10.477.805M447.05 199.465l3.169-1.067M372.402 191.031l8.942 1.477M445.324 208.773a117 117 0 0 1 1.727-9.304M372.621 192.48l10.078 9.13M393.02 203.602l-10.32-1.993M441.144 248.14l-.53.094M427.332 238.68l.36-.762M440.613 248.234l-13.281-9.554M425.879 236.98l-.703.102M412.2 227.176l.48-.918M425.176 237.082l-12.977-9.906M410.965 225.418l-.871.101M397.426 215.277l.617-1.054M410.094 225.52l-12.668-10.243M396.414 213.484l-1.04.086M383.031 203.02l.766-1.184M395.375 213.57l-12.344-10.55M381.031 201.262l-8.156-7.309M382.246 201.203l-1.215.059M459.125 258.203l-1.195.438M442.82 249.773l.246-.597M456.39 258.95l-13.57-9.177M457.93 258.64l-1.54.31M455.805 258.246l3.32-.043M444.273 250.344l11.532 7.902M444.101 249.562l.172.782M456.39 258.95l-8.476-4.02M459.219 258.297l-1.29.344M434.11 246.086l8.71 3.687M434.11 246.086l13.804 8.844M433.973 245.516l.136.57M440.613 248.234l-8.75-3.633M418.332 235.367l9 3.313M418.332 235.367l13.531 9.234M418.16 234.586l.172.781M425.176 237.082l-9.043-3.262M402.894 224.219l9.305 2.957M402.894 224.219l13.239 9.601M402.691 223.246l.203.973M410.094 225.52l-9.348-2.91M387.808 212.652l9.618 2.625M387.808 212.652l12.938 9.957M381.031 201.262l-6.789-1.512M387.586 211.52l.222 1.132M434.996 211.082l9.906 1.008M444.902 212.09l3.024-1.29M374.652 201.09l8.38 1.93M444.32 220.945c.051-2.875.25-5.843.582-8.855M375.078 202.36l10.633 8.632M395.375 213.57l-9.664-2.578M446.734 254.191l-.187.043M432.7 245.45l.148-.419M446.547 254.234l-13.848-8.785M430.808 243.898l-.359.075M416.879 234.793l.246-.594M430.45 243.973l-13.571-9.18M415.203 233.16l-.531.094M401.394 223.703l.356-.762M414.672 233.254l-13.278-9.55M399.937 222.004l-.703.101M386.258 212.195l.48-.914M399.234 222.105l-12.976-9.91M384.152 210.543l-8.601-6.902M385.023 210.441l-.87.102M465.523 263.184l-1.113.476M448.84 255.644l.07-.222M462.945 264.027l-14.105-8.383M464.41 263.66l-1.465.367M462.195 263.57l3.328-.386M450.207 256.348l11.988 7.222M450.121 256.016l.086.332M465.637 263.246l-1.227.414M440.66 251.16l8.18 4.484M440.644 251.105l.016.055M446.547 254.234l-8.215-4.425M424.266 241.371l8.433 4.078M424.266 241.371l14.066 8.438M424.18 241.039l.086.332M430.45 243.973l-8.474-4.024M408.168 231.105l8.71 3.688M408.168 231.105l13.808 8.844M408.031 230.539l.137.566M414.672 233.254l-8.75-3.633M392.39 220.39l9.004 3.313M392.39 220.39l13.532 9.231M384.152 210.543l-6.355-1.938M392.219 219.61l.172.78M434.996 222.73l9.324 1.329M444.32 224.059l2.844-1.457M378.414 209.73l7.844 2.465M444.902 232.242a75 75 0 0 1-.582-8.183M379.043 210.789l11.148 8.055M399.234 222.105l-9.043-3.261M439.34 250.39v-.011M440.656 251.14l-1.316-.75M437.02 249.043l-.016.004M422.898 240.668l.07-.223M437.004 249.047l-14.106-8.38M420.793 239.215l-.188.043M406.758 230.469l.152-.414M420.605 239.258l-13.847-8.79M404.867 228.922l-.36.074M390.937 219.816l.246-.593M404.508 228.996l-13.57-9.18M388.73 218.277l-9.015-6.43M389.262 218.184l-.532.093M473.02 266.266l-1.028.492M470.617 267.164l-.527-.266M471.992 266.758l-1.375.406M469.73 266.973l3.29-.707M473.144 266.297l-1.152.46M438.836 250.094l.504.297M414.719 236.184l8.18 4.484M414.703 236.125l.016.059M420.605 239.258l-8.214-4.426M398.324 226.394l8.434 4.075M398.324 226.394l14.067 8.438M388.73 218.277l-5.949-2.422M398.238 226.062l.086.332M436.574 233.328l8.75 1.746M445.324 235.074l2.625-1.574M383.594 216.738l7.343 3.078M447.05 242.387a59 59 0 0 1-1.726-7.313M384.406 217.559l11.625 7.414M404.508 228.996l-8.477-4.023M413.398 235.414v-.012M414.715 236.164l-1.317-.75M411.078 234.066l-.016.004M396.957 225.691l.07-.222M411.062 234.07l-14.105-8.379M394.664 224.281l-9.395-5.91M394.851 224.234l-.187.047M412.894 235.117l.504.297M394.664 224.281l-5.586-2.957M439.695 242.61l8.188 2.253M447.883 244.863l2.383-1.625M390.066 221.941l6.89 3.75M450.715 251.125a45 45 0 0 1-2.832-6.262M444.273 250.344l7.668 2.847M451.941 253.191l2.114-1.617M455.805 258.246a35.6 35.6 0 0 1-3.864-5.055M450.207 256.348l7.184 3.5M457.39 259.848l1.829-1.551M462.195 263.57a31 31 0 0 1-4.804-3.722M463 264.012l1.105.66M464.105 264.672l1.532-1.426M469.73 266.973a31 31 0 0 1-5.625-2.301M471.18 266.996l.734.547M471.914 267.543l1.23-1.246M475.902 268.195a34 34 0 0 1-3.988-.648M560.95 114.215l-.177-1.227M560.773 112.988l-.34-1.394M561.414 112.523l-.465 1.692M560.57 112.164l.844.36M560.433 111.594l-.492-.325M560.86 114.121l-.087-1.133M554.55 109.238l-.253-1.27M554.297 107.969l-.414-1.453M555.023 107.2l-.472 2.038M553.898 106.574l1.125.625M553.883 106.516l-14.309-8.02M539.574 98.496l-.16.168M554.441 109.172l-.144-1.203M531.601 93.652l7.973 4.844M531.543 93.668l.058-.016M531.582 93.656l-1.313-.765M530.27 92.89l-.008.008M529.765 92.605l.504.286M537.262 97.398l-.059-.187M537.203 97.21l-7.938-4.901M527.945 91.559l-.004-.02M547.058 106.156l-.347-1.289M546.21 103.379l-7.722-5.328M546.71 104.867l-.5-1.488M547.488 103.797l-.43 2.36M540.863 99.324l6.625 4.473M540.535 99.414l.328-.09M546.21 103.379l-14.734-7.164M531.476 96.215l-.394.512M546.933 106.121l-.222-1.254M523.926 90.516l14.562 7.535M523.926 90.516l7.55 5.699M523.367 90.684l.559-.168M537.203 97.21l-14.531-7.597M522.672 89.613l-.285.34M514.922 84.348l14.343 7.96M514.922 84.348l7.75 5.265M514.594 84.437l.328-.09M527.941 91.539l-14.312-8.023M513.629 83.516l-.156.171M505.66 78.676l7.969 4.84M505.601 78.691l.059-.015M505.64 78.68l-1.312-.766M504.328 77.914l-.008.008M503.824 77.629l.504.285M529.223 95.582l-.184-.508M529.039 95.074l-7.52-5.762M520.383 88.75l-.118-.348M520.265 88.402l-7.718-5.328M511.316 82.418l-.054-.184M511.262 82.234l-7.942-4.902M502.004 76.582l-.004-.02M538.652 105.043l-.445-1.281M537.605 102.258l-7.343-6.2M538.207 103.762l-.602-1.504M538.996 102.406l-.344 2.637M532.7 97.187l6.296 5.22M531.937 97.43l.762-.243M537.605 102.258l-15.07-6.285M522.535 95.973l-.55.87M538.512 105.043l-.305-1.281M515.324 89.395l14.938 6.664M515.324 89.395l7.211 6.578M514.383 89.703l.941-.308M529.039 95.074l-14.914-6.722M514.125 88.352l-.48.687M506.758 82.21l14.761 7.102M506.758 82.21l7.367 6.142M505.996 82.453l.762-.242M520.265 88.402l-14.73-7.164M505.535 81.238l-.395.512M497.984 75.539l14.563 7.535M497.984 75.539l7.551 5.7M497.426 75.703l.558-.164M511.262 82.234l-14.532-7.597M496.73 74.637l-.289.336M488.98 69.371l14.34 7.961M488.98 69.371l7.75 5.266M488.652 69.46l.328-.089M480.996 64.441l6.691 4.098M502 76.562l-14.313-8.023M520.398 95.781l-.347-.804M520.05 94.977l-7.195-6.641M511.926 87.937l-.262-.656M511.664 87.281l-7.344-6.199M503.281 80.605l-.183-.507M503.098 80.098l-7.52-5.762M494.441 73.773l-.117-.347M494.324 73.426l-7.719-5.328M485.32 67.258l-5.351-3.36M485.375 67.441l-.055-.183M529.543 105.93l-.551-1.258M528.285 103.184l-7.066-7.079M528.992 104.672l-.707-1.488M487.687 68.539l-.156.168M529.758 103.055l-.215 2.875M523.71 97.09l6.048 5.965M522.613 97.46l1.098-.37M528.285 103.184l-15.309-5.414M512.976 97.77l-.644 1.253M529.394 105.96l-.402-1.288M506 90.316l15.219 5.79M506 90.316l6.976 7.454M504.765 90.746l1.235-.43M520.05 94.977l-15.202-5.848M504.848 89.129l-.606 1.062M497.77 82.113l15.085 6.223M497.77 82.113l7.078 7.016M496.672 82.484l1.097-.37M511.664 87.281l-15.07-6.285M496.594 80.996l-.551.871M489.383 74.418l14.937 6.664M489.383 74.418l7.21 6.578M488.441 74.727l.942-.31M503.098 80.098l-14.91-6.723M488.187 73.375l-.484.687M480.816 67.234l14.762 7.102M480.816 67.234l7.371 6.141M485.32 67.258l-9.816-5.184M480.05 67.473l.766-.239M474.371 61.734l12.234 6.364M561.414 112.523a35 35 0 0 1 2.559 3.133M473.254 61.441l6.34 4.82M494.324 73.426l-14.73-7.164M512.758 99.504l1.355-.473M520 105.734l-.05 3.059M514.113 99.031l5.887 6.703M479.594 66.262l-.395.511M518.473 106.125l-6.883-7.938M519.297 107.582l-.824-1.457M519.95 108.793l-.653-1.211M510.453 96.918l-6.96-7.516M511.012 97.996l-.559-1.078M502.344 88.207l-7.067-7.082M502.789 89.148l-.445-.941M494.11 80l-7.196-6.64M494.457 80.805l-.348-.805M485.723 72.305l-7.344-6.203M485.984 72.96l-.261-.655M477.156 65.121l-5.074-3.941M477.34 65.625l-.184-.504M477.156 65.121l-10.078-4.594M559.828 110.922l1.031 3.2M465.824 60.473l12.555 5.629M464.594 60.46l6.058 5.56M485.723 72.305l-15.07-6.285M555.023 107.2a31 31 0 0 1 4.805 3.722M470.652 66.02l-.55.87M540.863 99.324l12.25 6.774M553.113 106.098l1.328 3.074M471.824 67.137l15.09 6.222M471.824 67.137l7.082 7.015M494.11 80l-15.204-5.848M547.488 103.797a31 31 0 0 1 5.629 2.3M478.906 74.152l-.605 1.059M532.7 97.187l12.605 6.04M545.305 103.227l1.628 2.894M480.058 75.34l15.22 5.785M480.058 75.34l6.977 7.453M502.344 88.207l-15.309-5.414M538.996 102.406c2.172.09 4.285.364 6.309.82M487.035 82.793l-.645 1.254M523.71 97.09l12.884 5.289M536.594 102.379l1.918 2.664M488.172 84.05l15.32 5.352M488.172 84.05l6.89 7.884M510.453 96.918l-15.39-4.984M529.758 103.055a44.4 44.4 0 0 1 6.836-.676M495.062 91.934l-.66 1.449M494.726 93.773l1.465-.511M496.191 93.262l15.399 4.925M527.195 103.574l2.2 2.387M520 105.734a58 58 0 0 1 7.195-2.16M519.797 108.855l-.5-1.273M517.336 106.785l2.46 2.07M509.957 110.371a77 77 0 0 1 7.379-3.59M509.957 110.371l.16 3.191M510.117 113.562l-.766-1.14"/><path fill="none" stroke="#000" stroke-linecap="round" stroke-linejoin="round" stroke-miterlimit="10" stroke-width=".39851322" d="M561.965 115.605c-19.54-21.699-58.54-7.632-87.102 31.426-18.476 25.262-28.808 56.106-27.101 80.89 1.449 21.036 11.421 35.22 27.101 38.555M496.191 93.262l6.836 8.3M518.473 106.125l-15.446-4.563M514.113 99.031l13.082 4.543"/><path fill="none" stroke="#000" stroke-linecap="round" stroke-linejoin="round" stroke-miterlimit="10" stroke-width=".39851322" d="M523.144 130.133c-19.687 11.367-37.886 34.004-47.73 59.375-4.84 12.465-7.387 24.922-7.387 36.09"/><path fill="none" stroke="#000" stroke-linecap="round" stroke-linejoin="round" stroke-miterlimit="10" stroke-width=".39851322" d="M579.805 120.45c-24.856-15.513-65.97 7.28-91.829 50.91-16.726 28.222-23.609 59.66-18.054 82.46 3.113 12.77 9.945 21.992 19.601 26.453"/><path fill="none" stroke="#000" stroke-linecap="round" stroke-linejoin="round" stroke-miterlimit="10" stroke-width=".39851322" d="M523.976 293.832c-32.543 1.375-46.703-35.027-31.625-81.313 15.082-46.285 53.688-84.925 86.235-86.304 19.738-.836 33.594 12.457 36.89 35.387"/><path fill="none" stroke="#000" stroke-linecap="round" stroke-linejoin="round" stroke-miterlimit="10" stroke-width=".39851322" d="m580.676 121.016-4.633-2.141-5.024-1.375-5.359-.59-5.652.203-5.895 1.012-6.086 1.836-12.472 6.035-12.473 8.883-12 11.371-11.04 13.496-9.616 15.129-7.868 16.14-5.84 16.536-3.527 16.308-1.015 15.43 1.46 14 1.633 6.309 2.223 5.761 2.797 5.153 3.363 4.484 3.903 3.758 4.39 3.004"/><path fill="none" stroke="#000" stroke-linecap="round" stroke-linejoin="round" stroke-miterlimit="10" stroke-width=".39851322" d="m586.824 124.512-4.64-2.13-5.032-1.347-5.375-.566-5.66.222-5.894 1.012-6.075 1.805-12.472 5.984-12.465 8.91-11.992 11.41-11.051 13.48-9.645 15.11-7.843 16.14-5.809 16.54-3.543 16.312-1.063 15.454 1.485 13.98 3.894 12.035 2.801 5.153 3.348 4.5 3.875 3.789 4.379 3.03"/><path fill="none" stroke="#000" stroke-linecap="round" stroke-linejoin="round" stroke-miterlimit="10" stroke-width=".39851322" d="m592.957 128.023-4.633-2.14-5.035-1.34-5.379-.547-5.668.242-5.902 1.031-6.075 1.81-12.468 5.937-12.465 8.898-11.98 11.438-11.047 13.496-9.668 15.09-7.852 16.136-5.781 16.535-3.528 16.313-1.093 15.469 1.465 13.992 1.667 6.277 2.254 5.73 2.817 5.137 3.355 4.492 3.871 3.801 4.36 3.059"/><path fill="none" stroke="#000" stroke-linecap="round" stroke-linejoin="round" stroke-miterlimit="10" stroke-width=".39851322" d="m505.238 289.387-4.45-3.051-3.964-3.793-3.434-4.5-2.87-5.184-2.262-5.828-1.621-6.414-1.348-14.273 1.156-15.7 3.633-16.53 6.043-16.74 8.172-16.269 9.914-15.191 11.273-13.523 12.23-11.254 12.665-8.563 12.601-5.633 6.118-1.64 5.914-.82 5.648.03 5.309.891 4.93 1.711 4.511 2.5"/><path fill="none" stroke="#000" stroke-linecap="round" stroke-linejoin="round" stroke-miterlimit="10" stroke-width=".39851322" d="m501.629 287.195-4.778-2.738-4.289-3.535-3.761-4.29-3.2-5.003-2.593-5.672-1.953-6.305-1.278-6.883-.59-7.37.813-15.887 3.394-16.848 5.871-17.137 8.172-16.715 10.059-15.613 11.496-13.914 12.48-11.617 12.958-8.758 6.48-3.219 6.395-2.41 6.246-1.59 6.023-.746 5.742.117 5.395 1.004 4.976 1.887 4.516 2.73"/><path fill="none" stroke="#000" stroke-linecap="round" stroke-linejoin="round" stroke-miterlimit="10" stroke-width=".39851322" d="m495.48 283.687-4.773-2.734-4.277-3.547-3.747-4.308-3.183-5.024-2.59-5.683-1.96-6.297-1.302-6.856-.613-7.367.828-15.887 3.426-16.855 5.867-17.14 8.14-16.727 10.063-15.602 11.516-13.89 12.48-11.63 12.953-8.8 6.48-3.211 6.392-2.395 6.238-1.566 6.023-.73 5.742.12 5.403.985 4.992 1.855 4.52 2.723"/><path fill="none" stroke="#000" stroke-linecap="round" stroke-linejoin="round" stroke-miterlimit="10" stroke-width=".39851322" d="m484.851 236.234 1.7-13.695 3.652-14.215 5.457-14.262 7.031-13.863 8.367-13.035 9.47-11.77 10.277-10.082 10.722-8.125"/><path fill="none" stroke="#000" stroke-linecap="round" stroke-linejoin="round" stroke-miterlimit="10" stroke-width=".39851322" d="m478.742 232.7 1.73-13.712 3.606-14.21 5.418-14.266 7.055-13.84 8.402-13.008 9.473-11.777 10.254-10.149 10.718-8.136M472.57 229.191l2.102-15.324 4.402-15.875 6.524-15.808 8.449-15.118"/><path fill="none" stroke="#000" stroke-linecap="round" stroke-linejoin="round" stroke-miterlimit="10" stroke-width=".39851322" d="m484.398 275.82-3.726-3.68-3.203-4.355-2.66-4.996-2.098-5.602-2.399-12.796.07-14.47 2.551-15.609 4.93-16.101 7.133-15.973 9.05-15.172M541.445 289.832c-6.039 2.418-11.926 3.766-17.465 4M494.047 167.066c6.789-10.343 14.699-19.586 23.183-27.078M600.324 149.664c-21.203-12.242-55.586 7.61-76.789 44.336-21.207 36.73-21.207 76.43 0 88.672M468.516 65.824l-.348-.8M468.168 65.023l-10.277-4M470.73 67.508l1.094-.371M468.168 65.023l-4.856-4.535M458.57 66.96l-10.41-3.41M478.828 75.77l1.23-.43M448.605 70.895l-10.472-2.852M486.816 84.527l1.356-.476M438.512 76.719l-10.457-2.324M503.027 101.562l-.664 1.653M428.547 84.297l-10.38-1.848M502.586 103.492l1.562-.531M504.148 102.96l13.188 3.825M504.148 102.96l5.809 7.411M291.887 44.809a93.1 93.1 0 0 0-13.38 23.171"/><path fill="none" stroke="#000" stroke-linecap="round" stroke-linejoin="round" stroke-miterlimit="10" stroke-width=".39851322" d="M323.144 16.793c-17.574-3.531-41.425 15.605-53.27 42.738-8.733 20.008-8.733 39.606 0 49.531M250.867 66.234l-2.547-.402-1.828 1.313-2.058 4.601-1.168 12.063.238 6.472.93 6.942 2.058 6.98 1.828 3.418 2.547 2.543"/><path fill="none" stroke="#000" stroke-linecap="round" stroke-linejoin="round" stroke-miterlimit="10" stroke-width=".19875722" d="M256.77 51.035a111 111 0 0 0-5.903 15.2"/><path fill="none" stroke="#000" stroke-linecap="round" stroke-linejoin="round" stroke-miterlimit="10" stroke-width=".39851322" d="m256.77 51.035-1.743-2.465-.054-3.254 2.28-6.582 8.368-12.539 4.98-5.761 5.727-5.43 6.39-4.207 3.594-1.149 3.348.473"/><path fill="none" stroke="#000" stroke-linecap="round" stroke-linejoin="round" stroke-miterlimit="10" stroke-width=".19875722" d="M301.488 3.29c-3.926 1.71-7.902 4.007-11.828 6.831"/><path fill="none" stroke="#000" stroke-linecap="round" stroke-linejoin="round" stroke-miterlimit="10" stroke-width=".39851322" d="m301.488 3.29-1.742-1.395-.055-.895 2.282-.8 8.367.175 4.984.562 5.723.965 6.39 1.575 6.942 2.75M255.351 117.539l1.375.969"/><path fill="none" stroke="#000" stroke-linecap="round" stroke-linejoin="round" stroke-miterlimit="10" stroke-width=".19875722" d="M250.867 110.164c1.535 3.277 3.504 6.082 5.86 8.344M543.355 262.66c13.395 8.395 35.578-3.871 49.547-27.402 9.035-15.219 12.766-32.184 9.781-44.5-1.586-6.543-4.98-11.371-9.78-13.914"/><path fill="none" stroke="#000" stroke-linecap="round" stroke-linejoin="round" stroke-miterlimit="10" stroke-width=".19875722" d="M604.5 172.605c16.297 9.41 16.297 39.918 0 68.141-16.293 28.227-42.715 43.48-59.012 34.07-16.297-9.406-16.297-39.914 0-68.14 16.297-28.223 42.715-43.477 59.012-34.07m0 0"/><path fill="none" stroke="#000" stroke-linecap="round" stroke-linejoin="round" stroke-miterlimit="10" stroke-width=".39851322" d="M613.984 171.707c-13.074-18.508-41.965-10.715-64.531 17.41s-30.262 65.934-17.188 84.442c4.133 5.843 10.06 9.269 17.188 9.921"/><path fill="none" stroke="#000" stroke-linecap="round" stroke-linejoin="round" stroke-miterlimit="10" stroke-width=".39851322" d="M608.027 166.496c18.246 10.535 18.246 44.688.004 76.29-18.246 31.597-47.824 48.675-66.07 38.14-18.246-10.532-18.246-44.688 0-76.285 18.242-31.602 47.82-48.68 66.066-38.145m0 0"/><path fill="none" stroke="#000" stroke-linecap="round" stroke-linejoin="round" stroke-miterlimit="10" stroke-width=".39851322" d="M611.676 159.805c20.347 11.746 20.347 49.84 0 85.086-20.352 35.242-53.34 54.289-73.688 42.543-20.348-11.75-20.348-49.844 0-85.086 20.348-35.246 53.34-54.293 73.688-42.543m0 0"/><path fill="none" stroke="#000" stroke-linecap="round" stroke-linejoin="round" stroke-miterlimit="10" stroke-width=".39851322" d="M615.25 161.27c-15.035-21.286-48.258-12.32-74.203 20.023-25.95 32.34-34.797 75.808-19.762 97.09 4.746 6.722 11.563 10.66 19.762 11.41M547.566 117.95c-22.394-10.872-57.261 10.929-77.875 48.69-19.414 35.563-19.414 73.047 0 86.196M367.43 125.809c-9.254 23.855-9.254 46.675 0 59.847M367.43 185.656l-43.278-24.984M324.152 160.672c-9.254-13.172-9.254-35.996 0-59.852M324.152 100.82l43.278 24.989M358.367 13.969c-20.25-11.688-53.078 7.265-73.328 42.336-20.25 35.074-20.25 72.984 0 84.672"/><path fill="none" stroke="#000" stroke-linecap="round" stroke-linejoin="round" stroke-miterlimit="10" stroke-width=".39851322" d="M269.851 105.523c0-32.02 22.489-70.964 50.22-86.976M324.152 100.82v59.852M341.445 10.715a27 27 0 0 0-.941-.953M307.613 6.824l32.89 2.938M307.613 6.824c-3.926 1.711-7.902 4.008-11.832 6.832M262.894 54.57l32.887-40.914M262.894 54.57c-2.375 5.008-4.359 10.117-5.902 15.2M256.992 69.77v43.93M256.992 113.7c1.535 3.277 3.504 6.085 5.86 8.343M271.89 122.852l-9.039-.81M334.379 6.227l6.125 3.535M307.613 6.824l-6.125-3.535M289.66 10.121l6.121 3.535M262.894 54.57l-6.125-3.535M256.992 69.77l-6.125-3.536M250.867 110.164l6.125 3.535M256.726 118.508l6.125 3.535M542.3 217.07c5.688-3.715 10.22-11.566 10.594-18.347M423.566 76.414l12.453-7.191M371.715 166.223v14.379M462.945 264.027 440.66 251.16M437.004 249.047l-22.285-12.863M411.062 234.07l-20.511-11.84M553.883 106.516 531.6 93.652M527.941 91.539 505.66 78.676M502 76.562 481.488 64.72M523.144 130.133l9.832-5.676M468.027 225.598v11.351M505.015 289.367l-.847-.488M498.89 285.832l-.847-.488M492.765 282.297l-.843-.488M593.805 128.512l-.848-.489M587.68 124.977l-.848-.489M581.555 121.441l-.848-.488M265 26.977l-7.684 11.144-6.25 12.047-4.586 12.539-2.707 12.629M245.851 102.543l3.825 8.059 5.675 6.937M300.601.473l-8.824 3.609-8.402 5.125-7.906 6.422-7.317 7.539"/><path fill="none" stroke="#000" stroke-linecap="round" stroke-linejoin="round" stroke-miterlimit="10" stroke-width=".39851322" d="m543.355 262.66-2.738-2.445-2.316-3.934-1.618-5.61-.55-7.16.742-8.327 2.113-9.063 3.442-9.344 4.636-9.187 5.637-8.613 6.375-7.653 6.793-6.363 6.84-4.805 6.472-3.101 5.676-1.41 4.555.046 3.492 1.149M551.664 283.684l-2.211-.2M615.265 173.52l-1.28-1.813M548.808 290.508l-7.765-.711M619.746 167.637l-4.496-6.368M529.867 286.332l-6.332-3.66M606.66 153.324l-6.336-3.66M372.465 191.453l-87.426-50.476M445.789 64.445 358.367 13.97M320.07 18.547l1.633-.945M269.851 105.523v1.887"/></svg>