<svg xmlns="http://www.w3.org/2000/svg" xmlns:xlink="http://www.w3.org/1999/xlink" width="113.385" height="113.385"><defs><path id="a" d="m1.906-5.078-.86 4.406c-.062.25-.187.375-.562.406L.22-.234c-.047.03-.063.172-.016.25C.593.016.922 0 1.266 0S2 .016 2.406.016c.016-.032.047-.22.016-.25l-.297-.032c-.344-.03-.453-.14-.39-.406l.859-4.406c.062-.25.187-.375.562-.406l.266-.032c.047-.03.062-.171.015-.25-.39 0-.718.016-1.062.016s-.75-.016-1.14-.016c-.016.032-.048.204-.016.25l.297.032c.343.03.453.14.39.406m0 0"/></defs><path fill="none" stroke="#000" stroke-miterlimit="10" stroke-width=".3968454" d="M18.797 93.977V62.305m0-11.84V18.793h37.59m0 0H93.98v21.805m0 31.578v21.8H56.387m0 0h-37.59M18.797 54.434v-3.97m0 7.876v3.965"/><path fill="none" stroke="#000" stroke-miterlimit="10" stroke-width=".7926962000000001" d="M6.953 58.34h23.684"/><path fill="none" stroke="#000" stroke-miterlimit="10" stroke-width="2.3780886000000003" d="M12.875 54.434h11.84"/><path stroke="#000" stroke-miterlimit="10" stroke-width=".3968454" d="M54.66 18.793v1.973l4.195-1.973-4.195-1.973Zm0 0"/><use xlink:href="#a" x="55.134" y="15.607"/><path fill="none" stroke="#000" stroke-miterlimit="10" stroke-width=".7926962000000001" d="M88.059 72.176V40.598h11.84v31.578Zm0 0"/></svg>