<svg xmlns="http://www.w3.org/2000/svg" width="632.259" height="441.573"><defs><clipPath id="a"><path d="M284 247h135v194.102H284Zm0 0"/></clipPath><clipPath id="b"><path d="M631 177h.52v5H631Zm0 0"/></clipPath><clipPath id="c"><path d="M629 181h2.52v4H629Zm0 0"/></clipPath><clipPath id="d"><path d="M629 173h2.52v6H629Zm0 0"/></clipPath></defs><path fill="none" stroke="#000" stroke-linecap="round" stroke-linejoin="round" stroke-miterlimit="10" stroke-width=".39853317" d="M302.894 345.894c-6.07-3.449-6.113-14.742-.093-25.226 3.894-6.781 9.586-11.863 14.933-13.324 2.672-.73 5.11-.512 7.055.629"/><path fill="none" stroke="#000" stroke-linecap="round" stroke-linejoin="round" stroke-miterlimit="10" stroke-width=".39853317" d="M302.933 345.914c-6.046-3.488-6.046-14.809 0-25.277 6.047-10.473 15.848-16.133 21.895-12.641M320.101 396.148c32.13-19.414 57.563-64.879 56.809-101.543-.277-13.597-4.21-24.664-11.266-31.683M331.262 313.64l.726-1.726M319.93 350.55l2.628-3.542M335.683 325.246l4.04-8.867"/><path fill="none" stroke="#000" stroke-linecap="round" stroke-linejoin="round" stroke-miterlimit="10" stroke-width=".39853317" d="m327.687 355.039 11-16.516 8.75-17.683M335.441 359.515 346.433 343l8.73-17.688M343.18 363.976l11.011-16.5 8.703-17.691M320.101 396.148l-9.507 4.621-9.301 2.782-8.871.914-8.223-.977"/><path fill="none" stroke="#000" stroke-linecap="round" stroke-linejoin="round" stroke-miterlimit="10" stroke-width=".39853317" d="m363.367 263.308 3.984 7.262 2.582 8.715 1.118 9.938-.426 10.93-2.004 11.64-3.492 12.023-4.86 12.078-6.105 11.825-7.227 11.246-8.187 10.34-8.902 9.175-9.387 7.809-9.625 6.226-9.625 4.442-9.363 2.48-8.864.508"/><path fill="none" stroke="#000" stroke-linecap="round" stroke-linejoin="round" stroke-miterlimit="10" stroke-width=".39853317" d="m358.906 264.348 2.66 7.574 1.45 8.656.23 9.531-1.004 10.207-2.25 10.676-3.484 10.918-4.621 10.906-5.633 10.664-6.524 10.2-7.285 9.503-7.922 8.582-8.382 7.446-8.657 6.187-8.742 4.825-8.648 3.347-8.371 1.766"/><path fill="none" stroke="#000" stroke-linecap="round" stroke-linejoin="round" stroke-miterlimit="10" stroke-width=".39853317" d="m353.515 266.156 1.543 7.563.524 8.332-.473 8.945-1.46 9.39-2.423 9.684-3.37 9.805-4.29 9.762-5.12 9.53-5.848 9.15-6.461 8.609-6.977 7.925-7.375 7.086-7.668 6.098-7.816 4.996-7.825 3.84-7.71 2.637"/><path fill="none" stroke="#000" stroke-linecap="round" stroke-linejoin="round" stroke-miterlimit="10" stroke-width=".39853317" d="m347.273 268.953.516 12.805-1.86 14.074-4.085 14.75-6.145 14.824M322.656 346.984l-9.676 11.703-10.53 10.098-11.036 8.11-11.168 5.765M340.113 273.133l-.496 9.55-1.687 10.083-2.825 10.394-3.882 10.492M310.258 348.543l-6.973 7.773-7.36 6.946-7.624 6.007-7.758 4.977M280.375 376.734l8.562-5.152 8.414-6.492 8.102-7.657 7.64-8.64"/><path fill="none" stroke="#000" stroke-linecap="round" stroke-linejoin="round" stroke-miterlimit="10" stroke-width=".39853317" d="m332.848 316.07 4.289-11.512 3.03-11.398 1.708-11.012.316-10.355M280.332 384.598l12.652-6.192 12.516-9.152 11.793-11.77 10.582-13.761M335.254 331.562l7.617-16.625 4.914-16.68 2.082-15.882-.043-7.399-.773-6.902"/><path fill="none" stroke="#000" stroke-linecap="round" stroke-linejoin="round" stroke-miterlimit="10" stroke-width=".39853317" d="m280.98 391.254 7.903-2.453 8.062-3.77 8.074-4.992 7.946-6.125 7.664-7.156 7.242-8.094 6.672-8.863 6.008-9.45 5.246-9.851 4.394-10.074 3.446-10.114 2.414-9.964 1.328-9.618.265-9.097-.789-8.43-1.824-7.602"/><path fill="none" stroke="#000" stroke-linecap="round" stroke-linejoin="round" stroke-miterlimit="10" stroke-width=".39853317" d="m282.066 396.648 8.508-1.398 8.848-3.094 8.98-4.758 8.91-6.258 8.649-7.578 8.195-8.73 7.55-9.695 6.72-10.473 5.734-10.98 4.656-11.227 3.496-11.219 2.239-10.957.902-10.433-.473-9.641-1.78-8.66-3.024-7.504"/><path fill="none" stroke="#000" stroke-linecap="round" stroke-linejoin="round" stroke-miterlimit="10" stroke-width=".39853317" d="m283.316 401.058 9-.207 9.559-2.238 9.855-4.219 9.899-6.148 9.656-7.91 9.16-9.395 8.434-10.597 7.465-11.512 6.27-12.14 4.886-12.407 3.426-12.32 1.894-11.903.293-11.14-1.363-10.04-2.969-8.644-4.43-7.062M299.07 360.504l10.223-12.14M329.469 311.582l3.101-9.34 2.297-9.223 1.465-9.015.601-8.676M284.3 403.808c10.36 2.801 22.954.106 35.801-7.656"/><path fill="none" stroke="#000" stroke-linecap="round" stroke-linejoin="round" stroke-miterlimit="10" stroke-width=".39853317" d="M376.976 262.898c18.602 23.274 9.797 73.344-19.66 111.828-20.57 26.875-46.789 42.012-67.36 38.891M278.02 238.555l-1.387-1.106M261.57 236.5l-1.156.766M276.633 237.45l-15.063-.95M260.414 237.266l-1.516-.899M243.973 235.805l-1.016.62M258.898 236.367l-14.925-.562M242.957 236.426l-1.629-.692M226.566 235.531l-.875.469M241.328 235.734l-14.762-.203M209.387 235.644l-.743.305M223.953 235.523l-14.566.121M225.691 236l-1.738-.477M192.473 236.098l-.622.136M206.812 235.691l-14.34.407M208.644 235.95l-1.832-.259M184.824 236.406l-.82.067M189.937 236.191l-5.113.215M191.851 236.234l-1.914-.043M292.07 239.922l-4.262-1.543M279.324 237.656l-1.305.899M287.808 238.379l-8.484-.723M240.465 233.777l2.492 2.649M225.672 233.52l14.793.257M225.691 236l-.02-2.48M208.644 235.95l-.187-2.372M223.059 233.504 225.69 236M208.457 233.578l14.602-.074M258.062 234.473l2.352 2.793M243.11 233.855l14.952.618M242.957 236.426l.152-2.57M191.851 236.234l-.351-2.254M205.879 233.617l2.765 2.332M191.5 233.98l14.379-.363M275.812 235.629l2.207 2.926M260.734 234.617l15.078 1.012M260.414 237.266l.32-2.649M184.004 236.473l2.351-2.305M188.96 234.07l2.891 2.164M186.355 234.168l2.606-.098M289.703 236.871l2.367 3.05M278.508 235.848l11.195 1.023M278.02 238.555l.488-2.707M287.808 238.379a145 145 0 0 0-5.902 5.043M281.906 243.422l.559 4.71M282.465 248.133l-2.41-3.016M280.055 245.117c-.903.84-1.805 1.7-2.696 2.57M277.355 247.687l2.66 2.778M280.016 250.465l-4.477-.98M275.539 249.484a169 169 0 0 0-5.606 5.918M269.933 255.406l.954 4.695M270.887 260.101l-2.696-2.734M268.191 257.367c-.847.965-1.695 1.953-2.527 2.945M265.66 260.312l2.93 2.461M268.59 262.773l-4.621-.414M263.969 262.36a187 187 0 0 0-5.176 6.648M258.793 269.008l1.375 4.593M260.168 273.601l-2.969-2.418M257.2 271.183a194 194 0 0 0-2.294 3.25M254.906 274.433l3.176 2.118M258.082 276.55l-4.703.126M253.379 276.676a200 200 0 0 0-4.617 7.218M248.762 283.894l1.808 4.407M250.57 288.3l-3.21-2.066M247.36 286.234a205 205 0 0 0-2.005 3.469M245.355 289.707l3.395 1.746M248.75 291.453l-4.719.64M244.031 292.094a195 195 0 0 0-3.941 7.601M240.09 299.695l2.242 4.14M242.332 303.836l-3.422-1.695M238.91 302.14a167 167 0 0 0-1.668 3.614M237.242 305.754l3.574 1.36M240.816 307.113l-4.664 1.11M236.152 308.223c-1.117 2.59-2.18 5.199-3.172 7.804M232.98 316.027l2.676 3.797M235.656 319.824l-3.601-1.305M232.055 318.52a195 195 0 0 0-1.29 3.66M230.77 322.18l3.714.968M234.484 323.148l-4.539 1.524M229.945 324.672a169 169 0 0 0-2.324 7.816M227.621 332.488l3.082 3.383M230.703 335.871l-3.73-.91M226.973 334.96a162 162 0 0 0-.88 3.618M226.094 338.582l3.816.578M229.91 339.16l-4.36 1.871M225.55 341.031a150 150 0 0 0-1.413 7.633M224.137 348.664l3.464 2.922M227.601 351.586l-3.824-.528M223.777 351.058c-.164 1.172-.312 2.34-.445 3.493M223.332 354.55l3.867.204M227.2 354.754l-4.114 2.148M223.086 356.902c-.23 2.453-.39 4.883-.473 7.262M222.613 364.164l3.809 2.414M226.422 366.578l-3.867-.152M222.555 366.426a115 115 0 0 0 0 3.277M222.555 369.7l3.867-.15M226.422 369.55l-3.809 2.344M222.613 371.894c.082 2.286.242 4.532.473 6.715M223.086 378.605l4.113 1.871M227.2 380.476l-3.868.2M223.332 380.676c.133 1.004.281 2 .445 2.976M223.777 383.652l3.824-.472M227.601 383.18l-3.464 2.457M224.137 385.637a75 75 0 0 0 1.414 5.996M225.55 391.633l4.36 1.312M229.91 392.945l-3.816.512M226.094 393.457c.277.883.566 1.758.875 2.61M226.973 396.066l3.73-.754M230.703 395.312l-3.082 2.477M227.621 397.789c.703 1.781 1.48 3.5 2.32 5.133M229.945 402.926l4.54.746M234.484 403.672l-3.715.789M230.77 404.46a48 48 0 0 0 1.289 2.173M232.055 406.637l3.601-.993M235.656 405.644l-2.676 2.41M232.98 408.055a45 45 0 0 0 3.172 4.144M236.152 412.2l4.664.194M240.816 412.394l-3.574 1.02M237.242 413.414a40 40 0 0 0 1.664 1.683M238.91 415.101l3.422-1.175M242.332 413.926l-2.242 2.257M240.09 416.183a39 39 0 0 0 3.941 3.051M244.031 419.234l4.719-.34M248.75 418.894l-3.395 1.2M245.355 420.094c.653.402 1.325.793 2 1.156M247.36 421.25l3.21-1.305M250.57 419.945l-1.808 2.024M248.762 421.969a39 39 0 0 0 4.617 1.886M253.379 423.855l4.703-.836M258.082 423.02l-3.176 1.316M254.906 424.336c.754.222 1.52.426 2.293.601M257.2 424.937l2.968-1.375M260.168 423.562l-1.375 1.711M258.793 425.273c1.683.32 3.418.547 5.176.672M263.969 425.945l3.129-.863M267.367 425.238l-1.707.8M265.66 426.039q1.255.046 2.527.027M268.191 426.066l.32-.168M376.883 238.191l-.016-.363M376.867 237.828a50 50 0 0 0-1.289-2.172M375.578 235.656l.164 1.875M375.473 237.379l-.82-3.145M374.652 234.234a44 44 0 0 0-3.172-4.144M371.48 230.09l-.793 2.043M370.687 232.133l-.293-3.254M370.394 228.879a40 40 0 0 0-1.671-1.688M368.726 227.191l.45 3.41M369.176 230.601l-1.63-4.492M367.547 226.11a39 39 0 0 0-3.942-3.055M363.605 223.055l-.847 2.574M362.758 225.629l-.477-3.43M362.281 222.2a39 39 0 0 0-2.004-1.161M360.277 221.039l.66 3.539M360.937 224.578l-2.066-4.258M358.871 220.32a39 39 0 0 0-4.613-1.886M354.258 218.434l-.836 3.074M353.422 221.508l-.692-3.551M352.73 217.957a40 40 0 0 0-2.293-.606M350.437 217.355l.903 3.606M351.34 220.96l-2.496-3.94M348.844 217.02a45 45 0 0 0-5.176-.676M343.668 216.344l-.754 3.52M342.914 219.863l-.941-3.61M341.973 216.254a49 49 0 0 0-2.528-.031M339.445 216.223l1.176 3.617M340.621 219.84l-2.918-3.563M337.703 216.277a57 57 0 0 0-5.61.559M332.094 216.836l-.602 3.906M331.492 220.742l-1.215-3.61M330.277 217.133c-.89.16-1.793.343-2.695.543M327.582 217.68l1.46 3.558M329.043 221.238l-3.313-3.117M325.73 218.121a75 75 0 0 0-5.902 1.773M319.828 219.894l-.395 4.227M319.433 224.121l-1.5-3.547M317.933 220.574q-1.397.52-2.804 1.106M315.129 221.68l1.762 3.445M316.89 225.125l-3.675-2.625M313.215 222.5a96 96 0 0 0-6.051 2.941M307.164 225.445l-.121 4.473M307.043 229.918l-1.805-3.426M305.238 226.492a100 100 0 0 0-2.836 1.637M302.398 228.129l2.067 3.277M304.465 231.406l-3.992-2.097M300.473 229.309a121 121 0 0 0-6.055 4.046M294.422 233.351l.191 4.637M294.613 237.988l-2.105-3.246M292.508 234.742a126 126 0 0 0-2.805 2.129M254.277 417.68c-29.86-17.395-29.75-73.48.242-125.274 29.895-51.62 78.235-79.531 108.125-62.43M279.324 237.656l2.582 5.766M179.562 244.633a197 197 0 0 1 5.258-8.223M179.562 244.633l2.141 4.433M181.703 249.066l13.856-.836M195.559 248.23l-5.622-12.039M188.96 234.07l-1-2.176M186.355 234.168q.798-1.143 1.606-2.274M282.465 248.133l-4.446-9.578M195.559 248.23l3.011 1.985M198.57 250.215l-6.719-13.98M191.851 236.234l-3.078-6.52M187.96 231.894l.813-2.18M280.055 245.117l-3.422-7.668M261.57 236.5l4.762 10.762M266.332 247.262l11.023.425M189.55 229.71l1.95 4.27M188.773 229.715l.778-.004M192.473 236.098l5.578 12M198.05 248.098l14.134-.622M212.184 247.476l-5.372-11.785M205.879 233.617l-5.145-11.5M200.734 222.117l-5.285.012M189.55 229.71c1.91-2.589 3.887-5.124 5.9-7.581M266.18 249.832l-5.766-12.566M266.18 249.832l.152-2.57M212.184 247.476l2.89 2.165M215.074 249.64l-6.43-13.69M208.644 235.95l-6.175-13.356M200.734 222.117l1.735.477M263.683 247.183l-4.785-10.816M263.683 247.183l2.497 2.649M243.973 235.805l4.921 11.12M248.894 246.926l14.79.257M203.344 222.125l5.113 11.453M202.469 222.594l.875-.47M223.059 233.504l-4.954-11.176M218.105 222.328l-14.761-.203M248.91 249.41l-5.953-12.984M248.91 249.41l-.016-2.484M225.691 236l-5.953-12.98M218.105 222.328l1.633.691M242.957 236.426l-5.766-12.567M235.68 222.957l1.511.902M240.465 233.777l-4.785-10.82M220.75 222.398l4.922 11.121M219.738 223.02l1.012-.622M231.867 249.36 225.691 236M231.867 249.36l-.187-2.376M226.566 235.531l5.114 11.453M235.68 222.957l-14.93-.559M231.68 246.984l14.597-.074M246.277 246.91l-4.949-11.176M263.875 181.617l1.484-.933M270.008 187.644l-1.008 1.97M265.36 180.684l4.648 6.96M275.375 196.434l-1.04 2.277M270.828 188.934l4.547 7.5M269.223 189.976l1.605-1.042M261.328 177.918l1.477-.797M264.52 179.492l-.954 1.668M262.805 177.121l1.714 2.371M280.66 205.836l-1.047 2.605M276.18 197.812l4.48 8.024M274.473 198.957l1.707-1.145M285.894 215.844l-.964 2.785M281.453 207.309l4.441 8.535M279.664 208.535l1.789-1.226M284.93 218.629l-1.68-3.195M291.129 226.43l-.813 2.777M286.687 217.406l4.442 9.024M284.93 218.629l1.757-1.223M290.316 229.207l-5.386-10.578M290.316 229.207l-1.906-3.152M283.965 216.957l.965 1.672M288.41 226.055l-4.445-9.098M284.93 218.629l-1.754-3.25M283.176 215.379l-4.442-8.606M278.64 206.754l-.699-1.469M277.941 205.285l-4.472-8.101M273.234 197.129l-.566-1.34M272.668 195.789l-4.535-7.578M267.316 186.906l-4.633-7.043M267.766 188.113l-.45-1.207M261.848 178.66l-.864-1.226M262.191 179.715l-.343-1.055M294.613 237.988l-4.297-8.781M289.203 227.715l1.113 1.492M292.508 234.742l-3.305-7.027M291.922 228.078l2.5 5.273M290.316 229.207l1.606-1.129M289.203 227.715l-15.23-1.813M273.973 225.902l4.535 9.946M272.52 226.922l1.453-1.02M273.172 224.172l15.238 1.883M273.172 224.172l-.653 2.75M283.965 216.957l-15.266-2.285M268.7 214.672l4.472 9.5M267.094 215.8l1.605-1.128M267.906 213.023l15.27 2.356M267.906 213.023l-.812 2.778M278.734 206.773 263.464 204M263.465 204l4.441 9.023M261.71 205.219l1.755-1.22M262.676 202.434l15.265 2.851M262.676 202.434l-.965 2.785M273.469 197.184l-15.239-3.282M258.23 193.902l4.446 8.532M256.441 195.129l1.79-1.227M259.098 177.816a67 67 0 0 1 1.886-.382M259.098 177.816l2.75.844M264.52 179.492l14.925 4.965M279.445 184.457l-4.922-5.953M274.523 178.504l-5.324-2.016M262.805 177.121a57 57 0 0 1 6.394-.633M257.437 192.43l15.23 3.359M257.437 192.43l-1.043 2.605M268.133 188.21l-15.176-3.804M252.957 184.406l4.48 8.024M257.7 178.375l1.398-.559M279.445 184.457l.254.898M251.254 185.55l1.703-1.144M262.683 179.863l-5.437-1.617M252.156 183.023l15.16 3.883M252.156 183.023l-1.043 2.282M285.07 192.066l.344 1.055M270.008 187.644l15.062 4.422M250.52 180.266a73 73 0 0 1 6.726-2.02M250.52 180.266l1.636 2.757M285.07 192.066l-4.762-6.5M280.308 185.566l-14.949-4.882M266.18 249.832l-1.63-.688M249.789 248.937l-.879.473M264.55 249.144l-14.761-.207M248.91 249.41l-1.734-.48M232.61 249.05l-.743.31M247.176 248.93l-14.567.12M231.867 249.36l-1.832-.262M215.691 249.504l-.617.137M230.035 249.098l-14.344.406M215.074 249.64l-1.914-.042M204.559 249.976l-5.989.239M199.07 250.254l-.5-.04M213.16 249.598l-14.09.656M198.57 250.215l-1.984.18M198.57 250.215l-16.183.82M182.773 251.258l-.386-.223M196.586 250.394l-13.813.864M182.387 251.035l-2.047.395M182.387 251.035l-7.543.461M175.43 251.789l-.586-.293M180.34 251.43l-4.91.359M267.195 249.21l-1.015.622M275.539 249.484l-8.344-.273M179.262 249.234l3.125 1.801M176.762 249.41l2.5-.176M174.844 251.496l1.918-2.086M182.387 251.035l-.684-1.969M198.57 250.215l-.52-2.117M229.101 247.023l2.766 2.336M214.723 247.387l14.378-.364M215.074 249.64l-.351-2.253M246.277 246.91l2.633 2.5M267.195 249.21l2.738 6.196M270.887 260.101l-4.707-10.27M268.191 257.367l-3.64-8.223M249.789 248.937l5.113 11.454M254.902 260.39l10.758-.078M255.086 262.766l-6.176-13.356M255.086 262.766l-.184-2.375M252.32 260.43l-5.144-11.5M252.32 260.43l2.766 2.336M232.61 249.05l5.331 11.747M237.941 260.797l14.38-.367M238.297 263.047l-6.43-13.688M238.297 263.047l-.356-2.25M235.402 260.883l-5.367-11.785M235.402 260.883l2.895 2.164M215.691 249.504l5.582 12M221.273 261.504l14.13-.621M221.793 263.621l-6.719-13.98M221.793 263.621l-.52-2.117M218.781 261.637l-5.62-12.04M218.781 261.637l3.012 1.984M199.07 250.254l5.856 12.219M204.926 262.473l13.855-.836M205.61 264.445l-7.04-14.23M205.61 264.445l-.684-1.972M202.484 262.64l-5.898-12.246M202.484 262.64l3.125 1.805M182.773 251.258l6.153 12.398M188.926 263.656l13.558-1.015M189.77 265.465l-7.383-14.43M189.77 265.465l-.844-1.809M195.45 222.129l-1.079.398M194.371 222.527l2.777-2.437M197.148 220.09c.582-.692 1.176-1.383 1.766-2.059M198.918 218.027l.707-1.625M199.625 216.402l1.031-.343M200.656 216.059c2.09-2.325 4.23-4.583 6.395-6.747M207.05 209.312l-1.363.688M205.687 210l3.184-2.477M208.871 207.523c.625-.605 1.258-1.207 1.887-1.8M210.758 205.723l.539-1.067M211.297 204.656l1.308-.637M212.605 204.02a146 146 0 0 1 6.73-5.75M219.336 198.27l-1.66.937M217.676 199.207l3.558-2.438M221.234 196.77c.649-.5 1.309-1.004 1.961-1.493M223.195 195.281l.309-.504M223.504 194.777l1.601-.898M225.105 193.879c2.29-1.64 4.598-3.184 6.903-4.61M232.008 189.27l-1.965 1.136M230.043 190.406l3.89-2.305M233.934 188.101c.66-.386 1.328-.773 1.988-1.144M235.922 186.957l.02.043M235.941 187l1.91-1.102M237.851 185.898c2.301-1.234 4.61-2.359 6.895-3.355M244.941 182.582l1.72-.852M246.66 181.73a81 81 0 0 1 1.961-.77M248.789 181.246l1.73-.98M269.922 176.758l1.015-.313M270.937 176.445c.594 0 1.188.004 1.77.02M273.285 177.105l1.121-.562M274.406 176.543c2.012.133 3.988.387 5.899.77M281.32 177.781l.574-.117M281.894 177.664c.54.129 1.079.27 1.606.418M284.41 178.828l.621-.277M285.031 178.55a39 39 0 0 1 5.262 2.153M291.621 181.437l.07-.003M291.691 181.434c.235.128.477.261.707.394M177.457 380.914l-.695-.414M176.762 380.5l-.032-.067M175.43 379.656a39 39 0 0 1-4.496-3.48M170.934 376.176l-.07-.68M169.762 375.082a42 42 0 0 1-1.164-1.184M168.598 373.898l-.188-.554M167.5 372.7a45 45 0 0 1-3.613-4.727M163.883 367.973l-.074-1.25M162.969 366.543a42 42 0 0 1-.903-1.52M162.066 365.02l-.242-1.036M161.23 363.492a57 57 0 0 1-2.648-5.855M158.582 357.64l-.047-1.68M157.941 355.906c-.21-.598-.418-1.21-.613-1.824M157.328 354.082l-.21-1.492M156.777 352.265a74 74 0 0 1-1.613-6.835M155.16 345.43l-.012-1.993M154.812 343.437a86 86 0 0 1-.308-2.086M154.504 341.351l-.121-1.914M154.25 339.293a95 95 0 0 1-.547-7.653M153.707 331.64v-2.203M153.703 329.437h-.047M153.656 329.437c-.008-.757-.008-1.523 0-2.289M153.656 327.144l.051-4.52M153.707 322.625v2.265M153.707 324.89c.082-2.707.266-5.476.543-8.277M154.25 316.613l-.027-1.84M154.223 314.773l.28-.515M154.504 314.258c.094-.813.2-1.63.308-2.446M154.812 311.812l.332-4.296M155.144 307.516l.016 1.906M155.16 309.422a151 151 0 0 1 1.617-8.703M156.777 300.719l-.101-1.457M156.676 299.262l.652-.996M157.328 298.266c.195-.84.402-1.692.617-2.536M157.941 295.73l.559-3.996M158.5 291.734l.082 1.524M158.582 293.258c.789-2.953 1.68-5.938 2.648-8.91M161.23 284.348l-.218-1.063M161.012 283.285l1.054-1.43M162.066 281.855c.293-.851.594-1.71.903-2.562M162.969 279.293l.718-3.621M163.687 275.672l.196 1.133M163.883 276.805a187 187 0 0 1 3.617-8.899M167.5 267.902l-.383-.672M167.117 267.23l1.48-1.793M168.598 265.437c.378-.843.77-1.687 1.164-2.527M169.762 262.906l.82-3.187M170.582 259.719l.352.742M170.934 260.46a198 198 0 0 1 4.496-8.667M176.762 249.41c.46-.812.93-1.625 1.398-2.43M178.164 246.976l.852-2.703M179.016 244.273l.546.36"/><path fill="none" stroke="#000" stroke-linecap="round" stroke-linejoin="round" stroke-miterlimit="10" stroke-width=".39853317" d="M153.652 320.25c0-47.387 33.27-105.012 74.309-128.707M182.387 251.035l-3.371-6.762M179.262 249.234l-1.098-2.258M170.934 260.46l2.375 4.54M173.309 265l13.234-1.152M186.543 263.848l-6.203-12.418M261.71 205.219l-1.683-3.192M267.094 215.8l-5.383-10.581M272.52 226.922l-5.426-11.121M272.52 226.922l-2.06-3.047M265.984 214.309l1.11 1.492M270.46 223.875l-4.476-9.566M267.094 215.8l-1.907-3.152M260.746 203.55l.965 1.669M265.187 212.648l-4.441-9.097M261.71 205.219l-1.757-3.246M259.953 201.973l-4.441-8.61M254.723 191.875l-4.473-8.098M255.422 193.348l-.7-1.473M249.45 182.379l-.829-1.422M250.012 183.723l-.563-1.344M278.02 238.555l-5.5-11.633M271.266 225.621l1.253 1.3M275.812 235.629l-4.546-10.008M271.266 225.621 256.1 224.25M256.101 224.25l4.633 10.367M254.8 225.148l1.301-.898M255.285 222.441l15.176 1.434M255.285 222.441l-.484 2.707M265.984 214.309l-15.234-1.813M250.75 212.496l4.535 9.945M249.297 213.516l1.453-1.02M249.95 210.762l15.237 1.886M249.95 210.762l-.653 2.754M260.746 203.55l-15.27-2.284M245.476 201.266l4.473 9.496M243.875 202.394l1.601-1.128M246.66 181.73l2.79.649M244.683 199.617l15.27 2.356M244.683 199.617l-.808 2.777M255.512 193.363l-15.27-2.77M240.242 190.594l4.441 9.023M238.488 191.812l1.754-1.218M250.25 183.777l-5.504-1.234M239.453 189.027l15.27 2.848M239.453 189.027l-.965 2.785M290.539 200.316l.445 1.203M275.375 196.434l15.164 3.882M237.851 185.898l1.602 3.13M290.539 200.316l-4.633-7.043M285.906 193.273l-15.078-4.34M255.086 262.766l-1.828-.262M238.914 262.91l-.617.137M253.258 262.504l-14.344.406M238.297 263.047l-1.914-.04M227.777 263.383l-5.984.238M222.293 263.664l-.5-.043M236.383 263.008l-14.09.656M221.793 263.621l-1.984.18M221.793 263.621l-16.184.824M205.992 264.668l-.383-.223M219.809 263.8l-13.817.868M190.05 265.875l-.28-.41M203.562 264.836l-13.511 1.039M205.61 264.445l-2.048.39M205.61 264.445l-15.84 1.02M174.492 267.242l-.191-.605M187.676 266.074l-13.184 1.168M189.77 265.465l-2.094.61M189.77 265.465l-15.47 1.172M172.172 267.457l-4.672.445M174.3 266.637l-2.128.82M174.3 266.637l-7.183.593M255.832 262.457l-.746.309M263.969 262.36l-8.137.097M174.3 266.637 173.31 265M186.543 263.848l3.226 1.617M170.98 265.215l3.32 1.422M168.598 265.437l2.382-.222M255.832 262.457l2.96 6.55M163.883 276.805l2.633 4.582M166.516 281.387l12.53-1.297M179.047 280.09l-6.875-12.633M170.98 265.215l-1.218-2.309M260.168 273.601l-5.082-10.835M179.047 280.09l3.402 1.23M257.2 271.183l-3.942-8.68M238.914 262.91l5.582 12.004M244.496 274.914l10.41-.48M174.492 267.242l6.817 12.621M181.309 279.863l12.894-1.242M194.203 278.621l-6.527-12.547M245.016 277.031l-6.72-13.984M245.016 277.031l-.52-2.117M194.203 278.621l3.32 1.422M192.555 270.77l-2.786-5.305M242.004 275.043l-5.621-12.035M242.004 275.043l3.012 1.988M222.293 263.664l5.855 12.219M228.148 275.883l13.856-.84M190.05 265.875l6.477 12.531M196.527 278.406l13.235-1.148M209.762 277.258l-6.2-12.422M228.828 277.851l-7.035-14.23M228.828 277.851l-.68-1.968M209.762 277.258l3.226 1.613M212.988 278.871l-7.379-14.426M212.988 278.871l-.84-1.809M205.992 264.668l6.156 12.394M212.148 277.062l13.559-1.015M225.707 276.047l-5.898-12.246M243.875 202.394l-5.387-10.582M249.297 213.516l-5.422-11.122M238.488 191.812l-2.52-4.757M254.8 225.148l-5.503-11.632M254.8 225.148l-2.206-2.925M248.043 212.21l1.254 1.306M252.594 222.223l-4.551-10.012M249.297 213.516l-2.055-3.047M242.762 200.902l1.113 1.492M247.242 210.469l-4.48-9.567M237.523 190.14l.965 1.672M241.969 199.238l-4.446-9.097M243.875 202.394l-1.906-3.156M236.734 188.566l-.812-1.609M238.488 191.812l-1.754-3.246M260.414 237.266l-5.613-12.118M253.41 224.043l1.39 1.105M258.062 234.473l-4.652-10.43M253.41 224.043l-15.062-.95M238.348 223.094l4.761 10.761M237.191 223.86l1.157-.766M237.512 221.21l15.082 1.013M237.512 221.21l-.32 2.65M248.043 212.21l-15.164-1.366M232.879 210.844l4.633 10.367M231.578 211.742l1.3-.898M233.934 188.101l2.8.465M232.066 209.035l15.176 1.434M232.066 209.035l-.488 2.707M242.762 200.902l-15.235-1.816M227.527 199.086l4.54 9.95M226.078 200.105l1.45-1.02M237.523 190.14l-5.515-.87M226.726 197.355l15.243 1.883M226.726 197.355l-.648 2.75M295.89 209.195l.567 1.34M280.66 205.836l15.23 3.36M225.105 193.879l1.621 3.476M295.89 209.195l-4.535-7.578M291.355 201.617l-15.175-3.805M167.797 282.648l-1.281-1.261M182.45 281.32l-14.653 1.328M182.45 281.32l-1.141-1.457M197.523 280.043l-15.074 1.277M197.523 280.043l-.996-1.637M212.988 278.871l-15.465 1.172M228.828 277.851l-15.84 1.02M225.707 276.047l3.121 1.804M245.016 277.031l-16.188.82M251 276.789l-5.984.242M167.797 282.648l-6.785.637M164.316 281.617l3.48 1.031M162.066 281.855l2.25-.238M213.273 279.281l-.285-.41M226.781 278.246l-13.508 1.035M228.828 277.851l-2.047.395M245.016 277.031l-1.989.176M229.215 278.074l-.387-.223M243.027 277.207l-13.812.867M197.71 280.648l-.187-.605M210.894 279.48l-13.183 1.168M212.988 278.871l-2.094.61M245.512 277.07l-.496-.039M253.379 276.676l-7.867.394M182.555 282.117l-.106-.797M195.394 280.863l-12.84 1.254M197.523 280.043l-2.129.82M167.828 283.644l-.031-.996M180.3 282.348l-12.472 1.296M182.45 281.32l-2.15 1.028M165.637 283.875l-4.407.473M167.797 282.648l-2.16 1.227M158.582 293.258l2.914 4.562M161.496 297.82l11.758-1.265M173.254 296.555l-7.617-12.68M164.316 281.617l-1.347-2.324M173.254 296.555l3.543.836M167.828 283.644l7.559 12.684M175.387 296.328l12.152-1.305M187.539 295.023l-7.238-12.675M187.539 295.023l3.477 1.032M182.555 282.117l7.18 12.676M189.734 294.793l12.532-1.293M202.266 293.5l-6.872-12.637M202.266 293.5l3.406 1.226M245.512 277.07l3.25 6.824M197.71 280.648l6.821 12.621M204.531 293.27l12.89-1.243M217.422 292.027l-6.528-12.547M250.57 288.3l-5.554-11.269M217.422 292.027l3.32 1.422M215.773 284.176l-2.785-5.305M247.36 286.234l-4.333-9.027M220.742 293.45l-.992-1.638M213.273 279.281l6.477 12.531M229.215 278.074l6.156 12.395M235.371 290.469l9.984-.762M219.75 291.812l13.234-1.148M232.984 290.664l-6.203-12.418M236.21 292.277l-7.382-14.426M236.21 292.277l-.839-1.808M232.984 290.664l3.227 1.613M231.578 211.742l-5.5-11.637M237.191 223.86l-5.613-12.118M226.078 200.105l-2.574-5.328M237.191 223.86l-2.351-2.794M230.187 210.637l1.391 1.105M234.84 221.066l-4.653-10.43M224.824 198.805l1.254 1.3M229.371 208.816l-4.547-10.011M231.578 211.742l-2.207-2.926M224.02 197.062l-.825-1.78M226.078 200.105l-2.059-3.043M219.89 220.445l14.95.621M219.89 220.445l-.152 2.574M230.187 210.637l-15.058-.953M215.129 209.684l4.762 10.761M213.973 210.453l1.156-.77M224.824 198.805l-5.488-.536M214.293 207.805l15.078 1.011M214.293 207.805l-.32 2.648M301.164 218.691l.7 1.47M285.894 215.844l15.27 2.847M212.605 204.02l1.688 3.785M301.164 218.691l-4.473-8.101M296.691 210.59l-15.238-3.281M236.21 292.277l-2.093.61M236.21 292.277l-15.468 1.172M220.934 294.055l-.192-.606M234.117 292.887l-13.183 1.168M205.777 295.523l-.105-.797M218.617 294.27l-12.84 1.253M220.742 293.45l-2.125.82M220.742 293.45l-15.07 1.276M248.75 291.453l-12.54.824M236.496 292.691l-.285-.414M244.031 292.094l-7.535.597M191.047 297.05l-.031-.995M203.523 295.754l-12.476 1.297M205.672 294.726l-2.149 1.028M205.672 294.726l-14.656 1.329M176.766 298.582l.03-1.191M188.86 297.285l-12.094 1.297M191.016 296.055l-2.157 1.23M191.016 296.055l-14.22 1.336M162.945 300.066l.086-1.383M174.644 298.808l-11.699 1.258M176.797 297.39l-2.153 1.418M176.797 297.39l-13.766 1.293M163.031 298.683l-1.535-.863M176.797 297.39l-1.41-1.062M191.016 296.055l-1.282-1.262M205.672 294.726l-1.14-1.457M163.031 298.683l-6.355.579M159.437 298.043l3.594.64M157.328 298.266l2.11-.223M160.898 300.285l-4.12.434M163.031 298.683l-2.133 1.602M155.16 309.422l3.211 4.48M158.371 313.902l10.945-1.066M169.316 312.836l-8.418-12.551M159.437 298.043l-1.496-2.313M169.316 312.836l3.637.449M162.945 300.066l8.356 12.57M171.3 312.637l11.356-1.188M182.656 311.45l-8.012-12.642M182.656 311.45l3.598.64M176.766 298.582l7.949 12.644M184.715 311.226l11.761-1.265M196.476 309.96l-7.617-12.675M196.476 309.96l3.543.837M191.047 297.05l7.558 12.684M198.605 309.734l12.153-1.3M210.758 308.433l-7.235-12.68M210.758 308.433l3.48 1.032M236.496 292.691l3.594 7.004M238.996 297.582l-2.785-5.305M228.894 308.133l-1.14-1.453M220.934 294.055l6.82 12.625M227.754 306.68l9.488-.926M238.91 302.14l-4.793-9.253M219.738 223.02l-5.765-12.567M213.973 210.453l-2.676-5.797M212.457 209.55l1.516.903M217.242 220.371l-4.785-10.82M219.738 223.02l-2.496-2.649M229.101 247.023l-5.148-11.5M211.617 207.66l-.86-1.937M213.973 210.453l-2.356-2.793M209.387 235.644l5.336 11.743M212.457 209.55l-5.406-.238M202.453 220.113l14.79.258M202.453 220.113l.016 2.48M291.129 226.43l11.27 1.699M200.656 216.059l1.797 4.054M305.238 226.492l-3.281-6.312M301.957 220.18l-15.27-2.774M156.457 314.078l3.668.262M154.504 314.258l1.953-.18M160.125 314.34l-5.902.433M160.125 314.34l-1.754-.438M172.953 313.285l-12.828 1.055M172.953 313.285l-1.652-.648M186.254 312.09l-13.3 1.195M186.254 312.09l-1.54-.864M200.02 310.797l-13.766 1.293M200.02 310.797l-1.415-1.063M214.238 309.465l-14.219 1.332M225.488 306.906l3.406 1.227M212.957 308.2l12.531-1.294M214.238 309.465l-1.281-1.266M228.894 308.133l-14.656 1.332M228.894 308.133l-2.152 1.027M214.27 310.457l-.032-.992M226.742 309.16l-12.473 1.297M214.238 309.465l-2.156 1.226M199.988 311.988l.031-1.191M212.082 310.691l-12.094 1.297M200.02 310.797l-2.153 1.422M186.168 313.473l.086-1.383M197.867 312.219l-11.7 1.254M186.254 312.09l-2.133 1.601M172.824 314.863l.13-1.578M184.121 313.691l-11.297 1.172M172.953 313.285l-2.102 1.777M159.969 316.105l.156-1.765M170.851 315.062l-10.882 1.043M160.125 314.34l-2.055 1.937M158.07 316.277l-3.82.336M240.816 307.113l-11.922 1.02M228.996 308.933l-.102-.8M236.152 308.223l-7.156.71M228.996 308.933l3.984 7.094M232.055 318.52l-5.313-9.36M214.27 310.457l7.558 12.683M221.828 323.14l8.941-.96M223.242 324.207l-1.414-1.067M219.7 323.371l-7.618-12.68M219.7 323.371l3.542.836M199.988 311.988l7.95 12.649M207.937 324.637l11.762-1.266M209.473 325.496l-1.536-.86M205.879 324.855l-8.012-12.636M205.879 324.855l3.594.641M186.168 313.473l8.355 12.57M194.523 326.043l11.356-1.188M196.172 326.691l-1.649-.648M192.535 326.242l-8.414-12.55M192.535 326.242l3.637.45M172.824 314.863l8.766 12.445M181.59 327.308l10.945-1.066M183.348 327.746l-1.758-.438M179.68 327.484l-8.829-12.422M179.68 327.484l3.668.262M159.969 316.105l9.187 12.285M169.156 328.39l10.524-.906M171.004 328.61l-1.848-.22M167.32 328.535l-9.25-12.258M167.32 328.535l3.684.074M156.457 314.078l-1.645-2.266M153.707 324.89l3.512 4.344M157.219 329.234l10.101-.699M202.469 222.594l-2.633-2.496M202.469 222.594l-2.844-6.192M199.836 220.098l-.918-2.07M197.148 220.09l2.688.008M223.242 324.207l-2.152 1.418M223.242 324.207l-13.77 1.289M209.387 326.883l.086-1.387M221.09 325.625l-11.703 1.258M209.473 325.496l-2.133 1.602M209.473 325.496l-13.301 1.195M196.047 328.27l.125-1.579M207.34 327.098l-11.293 1.171M196.172 326.691l-2.102 1.778M196.172 326.691l-12.824 1.055M183.191 329.512l.157-1.766M194.07 328.469l-10.879 1.043M183.348 327.746l-2.059 1.937M183.348 327.746l-12.344.863M170.828 330.558l.176-1.949M181.289 329.683l-10.46.875M171.004 328.61l-2 2.09M171.004 328.61l-11.856.624M158.969 331.363l.18-2.129M169.004 330.7l-10.035.663M159.148 329.234l-1.93 2.227M159.148 329.234l-5.379.2M157.219 331.46l-3.512.18M234.484 323.148l-11.242 1.059M223.207 325.394l.035-1.187M229.945 324.672l-6.738.722M155.457 329.34l3.691-.106M153.656 329.437l1.801-.097M159.148 329.234h-1.93M223.207 325.394l4.414 7.094M226.973 334.96l-5.883-9.335M209.387 326.883l8.355 12.566M217.742 339.45l8.352-.868M219.394 340.098l-1.652-.649M215.758 339.652l-8.418-12.554M215.758 339.652l3.636.446M196.047 328.27l8.765 12.449M204.812 340.719l10.946-1.067M206.566 341.152l-1.754-.433M202.902 340.894l-8.832-12.425M202.902 340.894l3.664.258M183.191 329.512l9.184 12.285M192.375 341.797l10.527-.903M194.226 342.015l-1.851-.218M190.543 341.941l-9.254-12.258M190.543 341.941l3.683.074M170.828 330.558l9.613 12.082M180.441 342.64l10.102-.699M182.371 342.64h-1.93M178.68 342.746l-9.676-12.047M178.68 342.746l3.691-.106M158.969 331.363l10.035 11.84M169.004 343.203l9.676-.457M155.457 329.34l-1.8-2.196M154.25 339.293l3.82 4.144M158.07 343.437l9.25-.175M167.32 343.262 157.22 331.46M225.488 306.906l-6.87-12.637M205.777 295.523l7.18 12.676M300.473 229.309l-8.551-1.231M229.91 339.16l-10.516.938M219.266 341.676l.128-1.578M225.55 341.031l-6.284.645M206.41 342.922l.156-1.77M217.293 341.875l-10.883 1.047M219.394 340.098l-2.101 1.777M219.394 340.098l-12.828 1.054M194.05 343.969l.176-1.954M204.512 343.094l-10.461.875M206.566 341.152l-2.054 1.942M206.566 341.152l-12.34.863M182.187 344.773l.184-2.133M192.226 344.105l-10.039.668M194.226 342.015l-2 2.09M194.226 342.015l-11.855.625M170.828 345.285l.168-2.16M180.441 344.867l-9.613.418M182.371 342.64l-1.93 2.227M182.371 342.64l-3.61.141M159.969 345.469l.136-2.047M169.156 345.336l-9.187.133M170.89 343.129l-1.734 2.207M167.32 343.262l1.621-.13M156.457 343.441l1.445-.18M154.812 343.437l1.645.004M158.371 345.465l-3.21-.035M159.824 343.422l-1.453 2.043M156.777 352.265l4.121 3.899M160.898 356.164l8.418.488M169.316 356.652l-10.945-11.187M156.457 343.441l-1.953-2.09M169.316 356.652l1.266-.215M159.969 345.469l10.882 11.242M170.851 356.71l8.829.138M179.68 356.848l-10.524-11.512M179.68 356.848l1.445-.18M170.828 345.285l10.461 11.559M181.289 356.844l9.254-.176M190.543 356.668l-10.102-11.801M190.543 356.668l1.621-.13M182.187 344.773l10.04 11.836M192.226 356.61l9.676-.458M201.902 356.152l-9.676-12.047M201.902 356.152l3.688-.105M194.05 343.969l9.61 12.078M203.66 356.047l10.102-.7M213.762 355.348l-9.25-12.254M213.762 355.348l3.683.074M219.266 341.676l4.87 6.988M217.445 355.422l-1.996 2.09M217.445 355.422l-11.855.625M205.41 358.18l.18-2.133M215.45 357.512l-10.04.668M205.59 356.047l-1.93 2.23M205.59 356.047l-3.606.14M194.05 358.695l.169-2.16M203.66 358.277l-9.61.418M194.11 356.539l-1.735 2.203M183.191 358.875l.137-2.047M192.375 358.742l-9.184.133M183.047 356.832l-1.457 2.039M172.824 358.68l.102-1.91M181.59 358.871l-8.766-.191M172.5 356.758l-1.2 1.855M162.945 358.07l.067-1.754M171.3 358.613l-8.355-.543M162.46 356.281l-.964 1.656M161.496 357.937l-2.914-.297M227.2 354.754l-9.755.668M217.273 357.375l.172-1.953M223.086 356.902l-5.813.473M159.437 356.043l1.086-.23M157.941 355.906l1.496.137M205.59 356.047h-1.93M215.598 355.203l7.734-.652M217.445 355.422l-1.847-.219M217.273 357.375l5.34 6.789M222.555 366.426l-7.106-8.914M205.41 358.18l10.04 11.835M215.45 370.015l7.105-.316M213.762 370.074l-10.102-11.797M213.762 370.074l1.62-.129M194.05 358.695l10.462 11.555M204.512 370.25l9.25-.176M202.902 370.254l-10.527-11.512M202.902 370.254l1.446-.18M183.191 358.875l10.88 11.242M194.07 370.117l8.832.137M192.535 370.062l-10.945-11.191M192.535 370.062l1.266-.218M172.824 358.68l11.297 10.89M184.121 369.57l8.414.492M182.656 369.45l-11.355-10.837M182.656 369.45l1.086-.231M162.945 358.07l11.7 10.504M174.644 368.574l8.012.875M159.437 356.043l-2.109-1.961M161.23 363.492l4.407 3.606M165.637 367.098l7.617 1.285M173.254 368.383l-11.758-10.446M223.777 351.058l-6.484-9.183M206.41 342.922l9.188 12.281M226.422 369.55l-1.215.044M217.273 372.101l.164-2.16M222.613 371.894l-5.34.207M206.41 372.281l.137-2.047M215.598 372.148l-9.188.133M217.332 369.945l-1.734 2.203M196.047 372.086l.101-1.91M204.812 372.277l-8.765-.191M206.27 370.238l-1.458 2.04M186.168 371.476l.066-1.75M194.523 372.023l-8.355-.547M195.723 370.164l-1.2 1.86M176.766 370.41l.03-1.562M184.715 371.344l-7.95-.934M185.684 369.687l-.97 1.657M167.828 368.855l-.004-1.343M175.387 370.207l-7.559-1.352M176.14 368.765l-.753 1.442M173.254 368.383l.91-.23M164.316 366.832l.727-.215M162.969 366.543l1.347.289M166.516 368.578l-2.633-.605M167.078 367.375l-.562 1.203M167.5 372.7l4.672 3.273M172.172 375.973l6.875 2.19M179.047 378.164l-12.531-9.586M164.316 366.832l-2.25-1.813M179.047 378.164l.547-.184M167.828 368.855l12.473 9.657M180.3 378.512l7.239 1.726M187.539 380.238l-12.152-10.031M187.539 380.238l.727-.215M176.766 370.41l12.093 10.094M188.86 380.504l7.616 1.289M196.476 381.793l-11.761-10.45M196.476 381.793l.907-.235M186.168 371.476l11.7 10.508M197.867 381.984l8.012.871M205.879 382.855l-11.356-10.832M205.879 382.855l1.086-.23M196.047 372.086l11.293 10.89M207.34 382.976l8.418.493M215.758 383.469l-10.946-11.192M215.758 383.469l1.265-.215M217.273 372.101l5.813 6.504M218.941 383.57l-1.199 1.86M209.387 384.883l.066-1.75M217.742 385.43l-8.355-.547M208.906 383.094l-.969 1.656M199.988 383.816l.028-1.562M207.937 384.75l-7.949-.934M199.36 382.176l-.755 1.437M191.047 382.265v-1.347M198.605 383.613l-7.558-1.348M190.297 380.781l-.563 1.203M182.555 380.187l-.028-1.093M189.734 381.984l-7.18-1.797M181.7 378.883l-.391.945M174.492 377.566l-.039-.812M181.309 379.828l-6.817-2.262M173.547 376.45l-.238.67M173.309 377.12l-2.375-.944M219.266 385.496l.101-1.914M224.137 385.637l-4.871-.141M170.98 375.539l.371-.137M169.762 375.082l1.218.457M217.293 383.523l6.484.13M219.266 385.496l6.285 6.137M226.094 393.457l-8.352-8.027M209.387 384.883l11.703 10.507M221.09 395.39l5.883.676M219.7 395.2l-11.763-10.45M219.7 395.2l.905-.231M199.988 383.816l12.094 10.094M212.082 393.91l7.617 1.29M210.758 393.644l-12.153-10.03M210.758 393.644l.726-.214M191.047 382.265l12.476 9.653M203.523 391.918l7.235 1.726M202.266 391.57l-12.532-9.586M202.266 391.57l.546-.183M182.555 380.187l12.84 9.192M195.394 389.379l6.872 2.191M194.203 388.945l-12.894-9.117M194.203 388.945l.367-.137M174.492 377.566l13.184 8.703M187.676 386.27l6.527 2.675M170.98 375.539l-2.382-1.64M175.43 379.656l4.91 2.91M180.34 382.566l6.203 3.184M186.543 385.75l-13.234-8.63M223.332 380.676l-7.734-8.528M206.41 372.281l10.883 11.242M223.207 397.226l.031-1.566M227.621 397.789l-4.414-.563M214.27 395.672l-.004-1.348M221.828 397.023l-7.559-1.351M222.582 395.582l-.754 1.441M205.777 393.597l-.027-1.097M212.957 395.39l-7.18-1.793M213.52 394.187l-.563 1.203M197.71 390.973l-.038-.813M204.531 393.234l-6.82-2.261M204.922 392.289l-.39.945M190.05 387.773l-.034-.48M196.527 390.527l-6.476-2.754M196.766 389.86l-.239.667M182.773 383.98l-.011-.101M188.926 387.242l-6.153-3.262M189.039 386.875l-.113.367M186.543 385.75l.191-.082M179.262 381.957l.02-.012M181.703 383.355l-.676-.406M181.71 383.32l-.007.035M182.77 383.96l-1.067-.605M179.262 381.957l-2.5-1.457M202.484 395.363l-13.558-8.121M202.484 395.363l.02-.008M190.05 387.773l13.512 8.203M203.562 395.976l6.2 3.18M209.762 399.156l-13.235-8.629M209.762 399.156l.195-.078M197.71 390.973l13.184 8.703M210.894 399.676l6.528 2.675M217.422 402.351l-12.89-9.117M217.422 402.351l.37-.136M205.777 393.597l12.84 9.188M218.617 402.785l6.871 2.191M225.488 404.976l-12.531-9.586M225.488 404.976l.547-.183M223.207 397.226l6.738 5.7M228.14 405.695l-.386.945M220.934 404.379l-.04-.813M227.754 406.64l-6.82-2.261M219.988 403.265l-.238.668M213.273 401.183l-.035-.484M219.75 403.933l-6.477-2.75M212.262 400.281l-.114.367M205.992 397.387l-.008-.102M212.148 400.648l-6.156-3.261M204.934 396.73l-.008.032M204.926 396.762l-.676-.407M228.996 407.004l-.023-1.098M232.98 408.055l-3.984-1.051M226.742 405.324l5.313 1.313M228.996 407.004l7.156 5.195M237.242 413.414l-9.488-6.774M220.934 404.379l13.183 8.703M234.117 413.082l4.793 2.02M232.984 412.562l-13.234-8.629M232.984 412.562l.196-.078M213.273 401.183l13.508 8.2M226.781 409.383l6.203 3.18M225.707 408.77l-13.559-8.122M225.707 408.77l.02-.008M205.992 397.367l-1.066-.605M230.77 404.46l-8.942-7.437M214.27 395.672l12.472 9.652M236.496 414.59l-.04-.485M240.09 416.183l-3.594-1.593M229.215 410.797l-.008-.106M235.371 414.055l-6.156-3.258M235.48 413.687l-.109.368M228.148 410.168l-.675-.403M228.156 410.137l-.008.03M229.215 410.773l-1.067-.605M236.496 414.59l7.535 4.644M248.762 421.969l-1.22-.793M254.906 424.336l-1.117-.551M245.355 420.094l-9.984-6.04M258.793 425.273l-.781-.715M265.66 426.039l-.816-.332M295.95 183.906l.687.38M296.637 184.285l1.058.621M297.715 184.898l-.098.043M296.613 184.312l.024-.027M294.203 182.871l.004.023M291.691 181.434l2.512 1.437M295.273 183.5l-4.98-2.797M285.031 178.55l2.008 1.583M287.039 180.133l14.09 7.148M301.129 187.281l-5.856-3.781M301.129 187.281l.027.207M297.715 184.898l5.898 3.703M303.613 188.601l13.813 7.68M317.426 196.281l.004.02M319.168 197.312l.691.383M319.86 197.695l1.058.617M320.933 198.305l-.093.043M304.637 189.305l-.434.21M318.492 196.906l-13.855-7.601M288.016 180.934l-.723.37M302.144 188l-14.128-7.066M285.476 179.723l-5.171-2.41M284.508 178.906l.062.39M281.894 177.664l2.614 1.242M286.578 180.676l.461-.543M303.351 188.879l.262-.278M319.832 197.719l.027-.024M374.887 235.11l.691.546M370.473 229.77l1.007.32M367.691 226.496l1.035.695M342.39 210.719l.688.382M343.078 211.101l1.059.622M343.055 211.125l.023-.024M340.648 209.687v.02M320.933 198.305l5.903 3.703M326.836 202.008l13.812 7.68M326.574 202.285l.262-.277M324.351 200.687l-5.859-3.78M324.351 200.687l.028.207M304.637 189.305l5.62 4.234M310.258 193.539l14.093 7.148M309.797 194.082l.46-.543M307.726 192.316 302.144 188M307.726 192.316l.067.387M288.016 180.934l5.37 4.773M293.387 185.707l14.34 6.61M292.758 186.52l.629-.813M284.508 178.906l-1.008-.824M274.406 176.543l1.836 1.98M276.242 178.523l14.566 6.059M290.808 184.582l-5.332-4.86M344.156 211.715l-.094.039M327.86 202.715l-.438.207M341.715 210.312l-13.856-7.597M311.238 194.34l-.722.37M325.367 201.406l-14.129-7.066M294.32 186.605l-.965.528M308.7 193.129l-14.38-6.524M277.14 179.516l-1.167.671M291.738 185.492l-14.597-5.976M275.48 179.61l.762-1.087M290.808 184.582l.118.566M273.633 177.492l.175.734M270.937 176.445l2.696 1.047M273.633 177.492l-.926-1.027M277.14 179.516l4.95 5.87M282.09 185.387l14.765 5.511M296.855 190.898l-5.117-5.406M296.855 190.898l.176.739M294.32 186.605l5.145 5.325M299.465 191.93l14.566 6.058M314.031 197.988l-5.332-4.86M314.031 197.988l.113.567M311.238 194.34l5.367 4.777M316.605 199.117l14.344 6.606M330.95 205.723l-5.583-4.317M330.95 205.723l.065.386M327.86 202.715l5.62 4.23M333.48 206.945l14.09 7.149M347.57 214.094l-5.855-3.782M347.57 214.094l.028.207M362.308 222.394l1.297.66M281.219 186.762l.87-1.375M298.703 193.016l.762-1.086M315.98 199.926l.625-.809M333.02 207.488l.46-.543M350.055 215.414l10.222 5.625M349.793 215.691l.262-.277M351.082 216.121l-.438.21M358.871 220.32l-7.79-4.199M334.457 207.746l-.719.375M348.59 214.812l-14.133-7.066M317.543 200.016l-.965.523M331.918 206.539l-14.375-6.523M300.363 192.926l-1.168.668M314.96 198.902l-14.597-5.976M282.957 186.48l-1.34.809M297.746 191.91l-14.79-5.43M282.957 186.48l4.785 6.422M287.742 192.902l14.926 4.961M302.668 197.863l-4.922-5.953M302.668 197.863l.254.899M300.363 192.926l4.95 5.867M305.312 198.793l14.762 5.512M320.074 204.305l-5.113-5.403M320.074 204.305l.176.738M317.543 200.016l5.144 5.32M322.687 205.336l14.567 6.058M337.254 211.394l-5.336-4.855M337.254 211.394l.113.567M351.082 216.121l3.176 2.313M323.582 206.332l-1.164.672M338.183 212.309l-14.601-5.977M306.18 199.89l-1.34.805M320.969 205.316l-14.79-5.425M340.762 213.422l-.961.523M348.844 217.02l-8.082-3.598M288.578 194.09l-1.48.933M303.531 198.973l-14.953-4.883M286.789 194.566l.953-1.664M304.441 200.168l.871-1.375M321.926 206.422l.761-1.086M339.828 212.523l10.61 4.832M339.203 213.332l.625-.809M288.578 194.09l4.652 6.965M293.23 201.055l15.063 4.418M308.293 205.473l-4.762-6.5M308.293 205.473l.344 1.054M340.762 213.422l2.906 2.922M327.664 213.574l.871-1.371M323.582 206.332l4.953 5.871M328.535 212.203l10.91 4.02M341.973 216.254l-3.79-3.945M344.156 211.715l5.899 3.699M352.73 217.957l-4.14-3.145M334.457 207.746l5.371 4.777M311.8 207.5l-1.484.93M326.75 212.379l-14.95-4.88M294.05 202.34l-1.605 1.047M309.129 206.68l-15.078-4.34M329.398 213.297l-1.34.804M337.703 216.277l-8.305-2.98M292.223 203.02l1.007-1.965M325.89 211.27l.254.902M310.96 206.309l14.93 4.96M310.008 207.973l.953-1.664M221.234 196.77l2.785.292M329.398 213.297l2.696 3.539M325.89 211.27l-4.921-5.954M306.18 199.89l4.78 6.419M315.441 216.43l1.012-1.97M311.8 207.5l4.653 6.96M316.453 214.46l11.129 3.22M330.277 217.133l-3.527-4.754M299.398 211.219l-1.703 1.144M314.574 215.023l-15.176-3.804M317.27 215.746l-1.606 1.047M325.73 218.121l-8.46-2.375M313.762 213.723l.445 1.203M298.598 209.84l15.164 3.883M297.558 212.117l1.04-2.277M317.27 215.746l2.558 4.148M313.762 213.723l-4.633-7.043M294.05 202.34l4.548 7.5M302.836 221.848l1.043-2.606M299.398 211.219l4.48 8.023M303.879 219.242l11.25 2.438M317.933 220.574l-3.359-5.55M304.672 220.719l-1.785 1.222M313.215 222.5l-8.543-1.781M208.871 207.523l2.746.137M304.672 220.719l2.492 4.726M307.043 229.918l-.574-1.078"/><path fill="none" stroke="#000" stroke-linecap="round" stroke-linejoin="round" stroke-miterlimit="10" stroke-width=".39853317" d="M204.254 189.293c-22.102 11.715-43.012 36.441-54.844 64.851-6.738 16.172-10.074 32.47-9.558 46.696M282.992 358.879c5.461-4.356 10.742-9.57 15.633-15.45M320.52 305.508c2.644-7.176 4.523-14.356 5.562-21.262M286.16 347.437a97 97 0 0 0 7-7.164M315.055 302.351a96 96 0 0 0 2.703-9.644M344.062 270.652c34.84-19.62 62.735-2.719 62.309 37.754s-29.008 89.188-63.848 108.809c-34.234 19.28-61.886 3.316-62.304-35.973"/><path fill="none" stroke="#000" stroke-linecap="round" stroke-linejoin="round" stroke-miterlimit="10" stroke-width=".39853317" d="M390.715 265.375c25.336 14.629 25.336 62.058 0 105.941s-66.41 67.598-91.746 52.969c-25.336-14.625-25.336-62.055 0-105.937 25.336-43.883 66.414-67.602 91.746-52.973M281.601 212.273l1.649 3.16M227.96 191.543l6.97-4.02M153.652 320.25v8.047M258.379 198.867l1.648 3.16M178.762 342.781l-3.559.152M201.984 356.187l-3.562.153M225.207 369.594l-3.563.152M177.457 380.914l1.805 1.043M182.773 383.98l19.711 11.383M205.992 397.387l19.715 11.382M229.215 410.797l17.133 9.89M292.398 181.832l1.805 1.039M297.715 184.898l19.71 11.383M320.933 198.305l19.715 11.382M344.156 211.715l17.133 9.89M304.82 225.68l1.649 3.16M311.418 300.254l13.332 7.695M289.523 338.172l13.332 7.699"/><path fill="none" stroke="#000" stroke-linecap="round" stroke-linejoin="round" stroke-miterlimit="10" stroke-width=".39853317" d="M324.828 307.996c10.469 6.043 14.059 19.434 8.012 29.906-6.043 10.469-19.434 14.059-29.907 8.012M155.863 351.676l-4.156-4.391-3.555-5.035-2.937-5.606-2.313-6.101-2.77-13.477-.366-14.82 1.949-15.75 4.152-16.238 6.203-16.266 8.059-15.805 9.66-14.882 10.984-13.504 11.985-11.715 12.668-9.563 13.02-7.093 13.054-4.34 6.437-1.051 6.325-.254 6.14.559 5.88 1.406M256.281 177.75l1.66.527M155.863 351.676l1.29 1.172M362.648 229.973l30.188 17.43M254.277 417.68l30.188 17.43"/><g clip-path="url(#a)"><path fill="none" stroke="#000" stroke-linecap="round" stroke-linejoin="round" stroke-miterlimit="10" stroke-width=".39853317" d="m392.836 247.402 5.851 4.082 5.137 5.028 4.352 5.859 3.527 6.574 2.719 7.192 1.914 7.718 1.136 8.172.375 8.563-1.46 18.004-4.266 18.71-6.871 18.81-9.207 18.276-11.223 17.114-12.855 15.355-14.075 13.051-14.863 10.266-7.597 3.953-7.645 3.105-7.644 2.2-7.59 1.242-7.457.23-7.246-.836-6.926-1.933-6.457-3.028"/></g><path fill="none" stroke="#000" stroke-linecap="round" stroke-linejoin="round" stroke-miterlimit="10" stroke-width=".39853317" d="M534.144 96.934c-22.09-10.922-56.613 10.496-77.117 47.84-19.433 35.386-19.433 72.785 0 85.734"/><path fill="none" stroke="#000" stroke-linecap="round" stroke-linejoin="round" stroke-miterlimit="10" stroke-width=".39853317" d="M550.113 97.102c-17.598-23.7-55.637-12.711-84.96 24.542-29.321 37.254-38.825 86.665-21.223 110.36 5.226 7.035 12.519 11.246 21.222 12.254"/><path fill="none" stroke="#000" stroke-linecap="round" stroke-linejoin="round" stroke-miterlimit="10" stroke-width=".39853317" d="M437.754 231.457c-24.106-14.094-23.985-59.438.273-101.277 24.149-41.653 63.152-64.172 87.297-50.403M567.422 183.547l-1.528.058M567.465 181.781l-.043 1.766M566.437 181.129l1.028.652M564.137 185.629l8.93 5.672M568.41 183.059c2.73 1.218 4.402 4.18 4.656 8.242M584.625 193.476l1.59-.867M573.066 191.3l5.078.954 6.48 1.222"/><path fill="none" stroke="#000" stroke-linecap="round" stroke-linejoin="round" stroke-miterlimit="10" stroke-width=".39853317" d="M567.422 183.547c9.328-4.922 16.8-.61 17.203 9.93"/><path fill="none" stroke="#000" stroke-linecap="round" stroke-linejoin="round" stroke-miterlimit="10" stroke-width=".39853317" d="M567.465 181.781c10.18-5.41 18.343-.699 18.75 10.824M558.207 217.035l-9.375-4.894M565.875 225.957l-4.301-5.004-3.367-3.918M565.914 227.77l-.04-1.813M558.207 217.035c-3.64 1.813-7.043 1.844-9.465.09M547.164 216.941c-.34-.175-.719-.37-1.059-.55M548.672 216.027l-1.508.914M547.957 214.672l.715 1.355"/><path fill="none" stroke="#000" stroke-linecap="round" stroke-linejoin="round" stroke-miterlimit="10" stroke-width=".39853317" d="M565.875 225.957c-9.328 4.922-16.801.605-17.203-9.93"/><path fill="none" stroke="#000" stroke-linecap="round" stroke-linejoin="round" stroke-miterlimit="10" stroke-width=".39853317" d="M565.914 227.77c-10.18 5.41-18.344.699-18.75-10.829M565.914 182.676l-.875-.508M565.875 184.441l.039-1.765M546.265 214.637l.899.52M547.164 215.156c.402-11.992 8.566-26.133 18.75-32.476M547.164 215.156l1.508-.922"/><path fill="none" stroke="#000" stroke-linecap="round" stroke-linejoin="round" stroke-miterlimit="10" stroke-width=".39853317" d="M548.672 214.234c.402-11 7.875-23.941 17.199-29.793"/><path fill="none" stroke="#000" stroke-linecap="round" stroke-linejoin="round" stroke-miterlimit="10" stroke-width=".39853317" d="M584.691 178.059c8.875 5.12 8.875 21.738 0 37.109s-23.265 23.68-32.14 18.555-8.875-21.739 0-37.11c8.875-15.375 23.265-23.68 32.14-18.554M531.469 211.922c1.53-5.805 3.789-11.688 6.664-17.387M542.742 186.41c3.367-5.32 7.21-10.234 11.36-14.523"/><path fill="none" stroke="#000" stroke-linecap="round" stroke-linejoin="round" stroke-miterlimit="10" stroke-width=".39853317" d="M559 167.234c21.144-18.34 42.59-15.906 47.906 5.442 5.313 21.347-7.52 53.523-28.664 71.867-21.145 18.34-42.594 15.906-47.906-5.442-1.504-6.043-1.582-13.23-.23-20.964M457.187 185.176c5.47-24.082 19.653-48.653 37.774-65.43"/><path fill="none" stroke="#000" stroke-linecap="round" stroke-linejoin="round" stroke-miterlimit="10" stroke-width=".39853317" d="M471.715 249.433c-23.743-13.824-23.657-58.417.187-99.597 23.766-41.047 62.207-63.238 85.973-49.637"/><path fill="none" stroke="#000" stroke-linecap="round" stroke-linejoin="round" stroke-miterlimit="10" stroke-width=".39853317" d="M475.812 251.55c-25.41-10.8-28.125-53.667-6.066-95.741 14.27-27.211 36.23-48.641 57.594-56.196 13.367-4.726 25.492-3.644 34.418 3.074"/><path fill="none" stroke="#000" stroke-linecap="round" stroke-linejoin="round" stroke-miterlimit="10" stroke-width=".39853317" d="M464.207 189.226c5.469-24.078 19.656-48.652 37.777-65.425"/><path fill="none" stroke="#000" stroke-linecap="round" stroke-linejoin="round" stroke-miterlimit="10" stroke-width=".39853317" d="M478.734 253.484c-23.738-13.824-23.656-58.418.188-99.593 23.77-41.051 62.207-63.243 85.972-49.637"/><path fill="none" stroke="#000" stroke-linecap="round" stroke-linejoin="round" stroke-miterlimit="10" stroke-width=".39853317" d="M482.832 255.605c-25.406-10.804-28.121-53.668-6.063-95.742 14.266-27.215 36.227-48.64 57.59-56.195 13.367-4.727 25.492-3.645 34.418 3.074"/><path fill="none" stroke="#000" stroke-linecap="round" stroke-linejoin="round" stroke-miterlimit="10" stroke-width=".39853317" d="M471.23 193.281c5.465-24.082 19.653-48.652 37.774-65.426"/><path fill="none" stroke="#000" stroke-linecap="round" stroke-linejoin="round" stroke-miterlimit="10" stroke-width=".39853317" d="M485.754 257.539c-23.739-13.824-23.653-58.418.191-99.598 23.766-41.047 62.203-63.238 85.973-49.632"/><path fill="none" stroke="#000" stroke-linecap="round" stroke-linejoin="round" stroke-miterlimit="10" stroke-width=".39853317" d="M489.851 259.656c-25.406-10.8-28.12-53.668-6.062-95.742 14.27-27.21 36.23-48.64 57.594-56.195 13.367-4.723 25.488-3.64 34.414 3.074"/><path fill="none" stroke="#000" stroke-linecap="round" stroke-linejoin="round" stroke-miterlimit="10" stroke-width=".39853317" d="M478.25 197.336c5.469-24.082 19.652-48.652 37.773-65.43"/><path fill="none" stroke="#000" stroke-linecap="round" stroke-linejoin="round" stroke-miterlimit="10" stroke-width=".39853317" d="M492.777 261.594c-23.765-13.786-23.722-58.352.098-99.547 23.777-41.121 62.285-63.356 86.062-49.688"/><path fill="none" stroke="#000" stroke-linecap="round" stroke-linejoin="round" stroke-miterlimit="10" stroke-width=".39853317" d="M496.87 263.71c-25.405-10.804-28.12-53.667-6.058-95.741 14.27-27.215 36.227-48.64 57.594-56.196 13.363-4.726 25.484-3.644 34.414 3.075"/><path fill="none" stroke="#000" stroke-linecap="round" stroke-linejoin="round" stroke-miterlimit="10" stroke-width=".39853317" d="M485.27 201.387c5.468-24.078 19.652-48.653 37.773-65.426"/><path fill="none" stroke="#000" stroke-linecap="round" stroke-linejoin="round" stroke-miterlimit="10" stroke-width=".39853317" d="M499.797 265.644c-23.72-13.859-23.602-58.472.261-99.636 23.758-40.985 62.141-63.145 85.899-49.594"/><path fill="none" stroke="#000" stroke-linecap="round" stroke-linejoin="round" stroke-miterlimit="10" stroke-width=".39853317" d="M503.894 267.766c-25.41-10.805-28.125-53.668-6.066-95.743 14.27-27.21 36.226-48.64 57.594-56.195 13.367-4.726 25.492-3.644 34.418 3.074"/><path fill="none" stroke="#000" stroke-linecap="round" stroke-linejoin="round" stroke-miterlimit="10" stroke-width=".39853317" d="M492.289 205.441c5.469-24.082 19.656-48.652 37.777-65.425"/><path fill="none" stroke="#000" stroke-linecap="round" stroke-linejoin="round" stroke-miterlimit="10" stroke-width=".39853317" d="M506.816 269.7c-23.738-13.825-23.656-58.419.188-99.599 23.77-41.046 62.207-63.238 85.972-49.632"/><path fill="none" stroke="#000" stroke-linecap="round" stroke-linejoin="round" stroke-miterlimit="10" stroke-width=".39853317" d="M510.914 271.816c-25.406-10.8-28.121-53.668-6.063-95.742 14.27-27.21 36.23-48.637 57.594-56.195 13.367-4.723 25.488-3.64 34.414 3.074"/><path fill="none" stroke="#000" stroke-linecap="round" stroke-linejoin="round" stroke-miterlimit="10" stroke-width=".39853317" d="M499.312 209.496c5.465-24.082 19.653-48.652 37.774-65.43"/><path fill="none" stroke="#000" stroke-linecap="round" stroke-linejoin="round" stroke-miterlimit="10" stroke-width=".39853317" d="M513.836 273.754c-23.739-13.828-23.653-58.418.191-99.598C537.793 133.11 576.23 110.918 600 124.52M541.55 276.89q-.592.154-1.18.29"/><path fill="none" stroke="#000" stroke-linecap="round" stroke-linejoin="round" stroke-miterlimit="10" stroke-width=".39853317" d="M538.449 277.582c-31.887 6.023-49.043-23.969-38.312-66.984 10.726-43.016 45.277-82.774 77.167-88.797 18.055-3.407 32.239 4.781 38.313 22.12M616.441 146.473c.082.289.164.59.246.879"/><path fill="none" stroke="#000" stroke-linecap="round" stroke-linejoin="round" stroke-miterlimit="10" stroke-width=".39853317" d="M509.437 258.71c-13.445-24.753-1.515-70.589 26.645-102.37 15.394-17.371 33.293-27.707 48.687-28.11M512.87 105.61c-20.378 10.972-39.581 33.886-50.362 60.093-5.993 14.555-8.989 29.2-8.606 42.047"/><path fill="none" stroke="#000" stroke-linecap="round" stroke-linejoin="round" stroke-miterlimit="10" stroke-width=".39853317" d="M535.222 275.719c-27.96-.786-38.742-34.457-24.082-75.203 14.664-40.75 49.215-73.149 77.172-72.36 10.285.29 18.688 5.14 24.078 13.903M622.594 163.934l2.335 4.21M618.07 164.39l-1.023.598-.078 1.66 2.496 4.653M453.867 202.648c0-34.793 24.434-77.117 54.57-94.515"/><path fill="none" stroke="#000" stroke-linecap="round" stroke-linejoin="round" stroke-miterlimit="10" stroke-width=".39853317" d="M525.777 270.266c-21.265-12.383-21.187-52.325.168-89.207 21.29-36.766 55.715-56.641 77.004-44.457"/><g clip-path="url(#b)"><path fill="none" stroke="#000" stroke-linecap="round" stroke-linejoin="round" stroke-miterlimit="10" stroke-width=".39853317" d="M631.308 177.965c.02 1.105.008 2.234-.023 3.367"/></g><g clip-path="url(#c)"><path fill="none" stroke="#000" stroke-linecap="round" stroke-linejoin="round" stroke-miterlimit="10" stroke-width=".39853317" d="m631.285 181.332-.535 1.984-1.344 1.051"/></g><path fill="none" stroke="#000" stroke-linecap="round" stroke-linejoin="round" stroke-miterlimit="10" stroke-width=".39853317" d="M629.406 184.367c-1.512.23-3.066.469-4.64.711M624.765 185.078l-1.62.969-.895 2.14.074 2.762 1.039 2.621M623.363 193.57a426 426 0 0 1 3.594 5.75M626.949 199.316l.766 2.457-.188 2.57M627.527 204.344a127 127 0 0 1-1.133 3.742M626.39 208.086l-1.246 2.183-1.89 1.188M623.254 211.457c-1.84.309-3.723.613-5.621.906M617.633 212.363l-2.153 1.047-1.601 2.219-.625 2.8.539 2.63M613.793 221.059c.91 1.902 1.824 3.828 2.71 5.718M616.496 226.77l.3 2.417-.785 2.485M616.011 231.672a140 140 0 0 1-2.07 3.547M613.941 235.219l-1.836 2.015-2.34 1.035M609.765 238.27c-2.105.21-4.25.402-6.402.578M603.363 238.851l-2.562.844-2.149 1.91-1.152 2.461.172 2.36"/><path fill="none" stroke="#000" stroke-linecap="round" stroke-linejoin="round" stroke-miterlimit="10" stroke-width=".39853317" d="M597.672 246.426c.695 1.738 1.39 3.48 2.07 5.187M599.742 251.617l-.023 2.11-1.196 2.062M598.523 255.789c-.887.96-1.789 1.898-2.695 2.812M595.828 258.601l-2.211 1.504-2.617.614M591 260.719a294 294 0 0 1-6.867-.211"/><path fill="none" stroke="#000" stroke-linecap="round" stroke-linejoin="round" stroke-miterlimit="10" stroke-width=".39853317" d="m584.136 260.508-2.984.453-2.512 1.414M579.32 270.656l-.418 1.293-1.187 1.078M577.715 273.027a68 68 0 0 1-2.903 1.645M574.808 274.676l-2.316.718h-2.68M569.812 275.394a286 286 0 0 1-6.941-1.355M562.87 274.043l-2.862-.246M558.172 279.96l-1.41.798M556.762 280.758q-1.35.165-2.676.23M554.09 280.988l-4.66-.933M549.43 280.055a269 269 0 0 1-6.622-2.668M542.808 277.387l-2.097-.793M539.781 278.2l-.93-.4M538.851 277.8a25 25 0 0 1-2.035-1.214M536.816 276.586l-3.863-2.594M532.953 273.992a291 291 0 0 1-5.95-3.957M527.004 270.039l-3.867-3.211-.528-1.023.68-.2"/><path fill="none" stroke="#000" stroke-linecap="round" stroke-linejoin="round" stroke-miterlimit="10" stroke-width=".39853317" d="M523.289 265.605c1.015.215 2.07.407 3.125.586"/><path fill="none" stroke="#000" stroke-linecap="round" stroke-linejoin="round" stroke-miterlimit="10" stroke-width=".39853317" d="m526.406 266.2.606-.38-.301-1.207M526.71 264.613q-.58-1.202-1.09-2.48M525.62 262.133l-2.726-4M522.894 258.133a339 339 0 0 1-5.035-5.02M517.86 253.113l-1.727-2.234-.918-2.293.183-1.754 1.211-.715M516.61 246.117c1.331-.086 2.694-.184 4.066-.289M520.68 245.824l1.124-.836.383-1.785M522.187 243.203c-.02-1.11-.008-2.234.024-3.371M522.21 239.832l-1.433-4.941M520.777 234.89a477 477 0 0 1-4.004-5.703M516.773 229.184l-1.168-2.579-.152-2.746.953-2.168 1.77-.996M518.176 220.695c1.66-.25 3.359-.504 5.058-.754M523.238 219.941l1.652-1.062 1.079-2.055M525.969 216.824q.534-1.87 1.132-3.746M527.105 213.078l.38-2.684-.552-2.593M526.933 207.8a644 644 0 0 1-3.023-5.898M523.906 201.902l-.64-2.66.562-2.82 1.648-2.211 2.27-1.004M527.746 193.207a517 517 0 0 1 5.945-.719M533.691 192.484l2.117-1.02 1.676-1.972M537.484 189.492a123 123 0 0 1 2.07-3.543M539.554 185.945l.97-2.515-.102-2.442M540.422 180.988c-.75-1.863-1.504-3.726-2.246-5.574M538.176 175.414l-.23-2.457 1.105-2.516 2.18-1.867 2.64-.738M543.87 167.836c2.173-.078 4.388-.149 6.583-.195M550.445 167.64l2.445-.714 2.082-1.551M554.972 165.375c.887-.957 1.79-1.899 2.696-2.813M557.668 162.562l1.344-2 .175-2.027M559.187 158.535a596 596 0 0 0-1.781-4.781M557.406 153.754l.004-2 1.406-1.871 2.45-1.2 2.82-.23M564.086 148.453c2.281.223 4.59.469 6.87.738M570.953 149.187l4.828-1.046M575.781 148.14a68 68 0 0 1 2.902-1.648M578.683 146.492l1.453-1.223.239-1.406"/><path fill="none" stroke="#000" stroke-linecap="round" stroke-linejoin="round" stroke-miterlimit="10" stroke-width=".39853317" d="M580.375 143.863c-.555-1.23-1.125-2.449-1.707-3.64M578.668 140.223l.027-1.368 1.41-.984 2.43-.305 2.785.434M585.32 138c2.254.617 4.527 1.273 6.77 1.941M592.09 139.937l4.644.473M596.734 140.41a40 40 0 0 1 2.676-.234M599.406 140.176l1.27-.293.082-.684"/><path fill="none" stroke="#000" stroke-linecap="round" stroke-linejoin="round" stroke-miterlimit="10" stroke-width=".39853317" d="M600.758 139.2a55 55 0 0 0-2.028-2.325M598.73 136.875l-.168-.645h1.121l4.657 1.84M604.34 138.07a290 290 0 0 1 6.304 3.223M610.64 141.293l4.004 2.07M614.644 143.363a26 26 0 0 1 2.035 1.219M616.68 144.582l.859.73M616.11 146.824l2.14 1.832M618.25 148.656a318 318 0 0 1 5.539 4.395M623.781 153.059l3.004 3.492M626.785 156.55c.387.801.75 1.634 1.09 2.485"/><path fill="none" stroke="#000" stroke-linecap="round" stroke-linejoin="round" stroke-miterlimit="10" stroke-width=".39853317" d="m627.875 159.035.234 1.223-.43.738M624.93 168.144c1.539 1.743 3.07 3.528 4.574 5.297"/><g clip-path="url(#d)"><path fill="none" stroke="#000" stroke-linecap="round" stroke-linejoin="round" stroke-miterlimit="10" stroke-width=".39853317" d="m629.508 173.43 1.8 4.535"/></g><path fill="none" stroke="#000" stroke-linecap="round" stroke-linejoin="round" stroke-miterlimit="10" stroke-width=".39853317" d="m625.898 181.867-.453 1.969-1.297 1.05M625.89 181.094c.004.254.008.515.008.773M625.89 181.094l-.511-2.297-1.309-2.227M624.07 176.57a364 364 0 0 0-4.605-5.27M618.07 164.39c1.211-.007 2.395-.003 3.531.02M621.601 164.41l.72-.621-.274-1.39M621.781 161.836c.09.183.18.375.266.562M621.781 161.836l-3.023-3.477M618.758 158.36a285 285 0 0 0-5.559-4.372M613.203 153.988l-3.742-3.383-.617-.894.511-.016M609.355 149.695c.899.352 1.778.727 2.617 1.121M611.972 150.816l.223.012-.898-.562M610.812 150q.242.13.485.266M610.812 150l-4.015-2.047M606.797 147.953a252 252 0 0 0-6.32-3.2M600.476 144.762l-2.027-.914M596.777 146.742l-1.492.574M594.66 147.387c.207-.024.422-.051.625-.07M594.66 147.387l-4.649-.45M590.011 146.937c-2.25-.664-4.519-1.3-6.777-1.906M583.23 145.035l-2.824-.402M578.183 152.137l-1.73 1.859M575.781 154.398c.223-.136.45-.27.672-.402M575.781 154.398l-4.828 1.067M570.953 155.465a317 317 0 0 0-6.867-.696M564.086 154.762l-3.09.336-2.531 1.48M559.27 165.84l-1.602 3.453M557.047 169.957c.207-.219.414-.445.62-.664M557.047 169.957l-2.082 1.559-2.438.722M552.527 172.238q-3.301.084-6.566.219M545.96 172.46l-2.636.755-2.16 1.902-1.086 2.55.242 2.49"/><path fill="none" stroke="#000" stroke-linecap="round" stroke-linejoin="round" stroke-miterlimit="10" stroke-width=".39853317" d="M540.32 180.156c.754 1.875 1.52 3.762 2.281 5.649M542.601 185.805l.121 2.496-.937 2.574M541.316 191.707c.153-.277.313-.559.469-.828M541.316 191.707l-1.672 1.973-2.11 1.023M537.535 194.703c-1.988.234-3.969.484-5.918.734M531.613 195.437l-2.258 1.016-1.625 2.227-.527 2.836.668 2.675M527.87 204.191c1.02 1.977 2.052 3.961 3.087 5.93M530.96 210.125l.59 2.625-.324 2.707M530.976 216.328q.122-.436.25-.871M530.976 216.328l-1.07 2.055-1.644 1.058M528.262 219.441c-1.7.254-3.391.504-5.043.754M523.222 220.195l-1.75.996-.914 2.168.192 2.735 1.207 2.578"/><path fill="none" stroke="#000" stroke-linecap="round" stroke-linejoin="round" stroke-miterlimit="10" stroke-width=".39853317" d="M521.957 228.672c1.347 1.914 2.71 3.82 4.082 5.699M526.039 234.367l1.558 4.934M527.605 240.074c-.004-.258-.008-.52-.008-.773M527.605 240.074l-1.004 2.43M520.832 245.785l2.637 4.086M523.469 249.871a305 305 0 0 0 5.117 4.977M528.586 254.848l2.863 3.921M531.715 259.328a25 25 0 0 1-.266-.559M531.715 259.328l.199 1.43M529.875 262.914l2.308 1.652M532.183 264.566c2 1.325 4.02 2.621 6.032 3.875M538.215 268.441l3.984 2.461M542.683 271.164c-.16-.086-.324-.172-.484-.262M542.683 271.164l.875.394-.168-.253M543.39 271.305a45 45 0 0 1-2.336-1.797M541.062 269.5l-.25-.496 1.117.05 4.844 1.465M546.773 270.52c2.227.89 4.461 1.75 6.684 2.566M553.457 273.082l4.754.77M558.836 273.777c-.207.028-.418.051-.625.074M558.836 273.777l1.246-.508.094-.949M560.176 272.32a93 93 0 0 1-1.864-3.105"/><path fill="none" stroke="#000" stroke-linecap="round" stroke-linejoin="round" stroke-miterlimit="10" stroke-width=".39853317" d="m558.308 269.226-.011-1.218 1.418-.942 5.3-.246M565.015 266.82c2.332.45 4.668.863 6.977 1.238M571.992 268.062l2.71-.07 2.34-.824M577.715 266.77c-.223.132-.45.269-.676.398M577.715 266.77l1.355-1.376.164-1.601M579.234 263.793a311 311 0 0 1-1.781-4.29"/><path fill="none" stroke="#000" stroke-linecap="round" stroke-linejoin="round" stroke-miterlimit="10" stroke-width=".39853317" d="m577.453 259.504.016-1.883 1.425-1.836 2.446-1.316 2.796-.438M584.136 254.031c2.301.07 4.598.106 6.864.113M591 254.144l2.625-.68 2.203-1.593M596.449 251.207l-.621.668M596.449 251.207l1.191-2.07.024-2.121M597.664 247.016c-.688-1.711-1.383-3.461-2.082-5.208M595.578 241.805l-.176-2.383 1.14-2.492 2.13-1.946 2.547-.879M601.219 234.105c2.148-.199 4.273-.418 6.367-.656M607.586 233.453l2.328-1.086 1.797-2.078M612.18 229.46c-.153.274-.313.556-.47.829M612.18 229.46l.78-2.487-.308-2.422M612.652 224.55a625 625 0 0 0-2.73-5.73M609.93 218.828l-.555-2.64.601-2.817 1.57-2.234 2.122-1.063M613.668 210.074c1.883-.308 3.738-.621 5.554-.941M619.226 209.133l1.86-1.215 1.183-2.211M622.52 204.84c-.083.285-.165.582-.25.867M622.52 204.84l.179-2.57-.773-2.458M621.926 199.812a378 378 0 0 0-3.61-5.742M618.316 194.07l-1.062-2.62-.106-2.759.852-2.136 1.586-.965M619.586 185.59c1.55-.239 3.078-.473 4.562-.703M603.535 146.281c16.945 14.703 13.488 52.41-7.719 84.219-18.09 27.14-43.832 41.844-61.765 35.281"/><path fill="none" stroke="#000" stroke-linecap="round" stroke-linejoin="round" stroke-miterlimit="10" stroke-width=".39853317" d="M598.32 144.07c19.441 9.938 20.348 44.766 2.02 77.797-11.852 21.363-29.52 37.684-46.336 42.797-9.114 2.773-17.41 2.066-23.871-2.023M629.508 173.43l-5.438 3.14M629.406 184.367l-5.258.52M626.949 199.316l-5.023.496M623.254 211.457l-4.028-2.324M616.496 226.77l-3.844-2.22M609.765 238.27l-2.18-4.817M599.742 251.617l-2.078-4.601M591 260.719v-6.575M569.812 275.394l2.18-7.332M549.43 280.055l4.027-6.973M532.953 273.992l5.262-5.55M522.894 258.133l5.692-3.285M520.777 234.89l5.262-.523M523.238 219.941l5.024-.5M526.933 207.8l4.028 2.325M533.691 192.484l3.844 2.219M540.422 180.988l2.18 4.817M550.445 167.64l2.082 4.598M570.953 149.187v6.278M592.09 139.937l-2.079 7M610.64 141.293l-3.843 6.66M623.781 153.059l-5.023 5.3M549.222 209.637l10.899 6.293"/><path fill="none" stroke="#000" stroke-linecap="round" stroke-linejoin="round" stroke-miterlimit="10" stroke-width=".39853317" d="M573.066 193.512c-.48 8.289-6.004 17.859-12.945 22.418M573.066 193.512l-10.898-6.297M567.465 226.875c-.52-.297-1.078-.621-1.594-.918M567.422 225.062l.043 1.813M560.12 215.93l3.208 4.011 4.094 5.121M584.625 193.476l1.59.918M586.215 194.394c-.403 11.993-8.57 26.137-18.75 32.48M584.625 195.27l-6.48-.989-5.079-.77M586.215 194.394l-1.59.875"/><path fill="none" stroke="#000" stroke-linecap="round" stroke-linejoin="round" stroke-miterlimit="10" stroke-width=".39853317" d="M584.625 195.27c-.403 11-7.875 23.94-17.2 29.792M525.328 79.773l15.48 8.938M437.754 231.457l15.48 8.937M580.761 180.996l-6.097-3.789M553.133 228.855l-6.332-3.386M579.5 147.707l17.035 9.836M523.492 244.3l17.215 9.938M557.875 100.195l.96.555M471.715 249.433l.957.551M564.898 104.25l.957.55M478.734 253.484l.961.555M571.918 108.305l.957.55M485.754 257.539l.96.555M578.937 112.355l.961.555M492.777 261.594l.957.55M585.957 116.41l.96.555M499.797 265.644l.957.555M592.98 120.465l.957.55M506.816 269.7l.961.554M600 124.516l.957.554M513.836 273.754l.96.55M602.949 136.598l12.387 7.152M525.777 270.266l12.383 7.152M508.437 108.133l2.516-1.453M453.867 202.648v2.903M621.969 164.293l5.71-3.297M579.32 264.387v6.27M560.25 272.969l-2.078 6.992M543.62 271.55l-3.839 6.65M531.914 260.758l-5.016 5.297M526.601 242.504l-5.433 3.137M559.27 165.84v-6.594M578.183 152.137l2.192-7.371M596.777 146.742l4.05-7.015M612.25 150.898l5.289-5.586M204.254 189.293c-22.102 11.715-43.012 36.441-54.844 64.851-6.738 16.172-10.074 32.47-9.558 46.696"/><path fill="none" stroke="#000" stroke-linecap="round" stroke-linejoin="round" stroke-miterlimit="10" stroke-width=".39853317" d="M140.394 319.187c-14.308-26.242-1.687-74.894 28.192-108.668 16.383-18.515 35.441-29.52 51.82-29.918M90.855 117.914c-19.199-11.086-50.324 6.887-69.523 40.137-19.2 33.254-19.2 69.195 0 80.277"/><path fill="none" stroke="#000" stroke-linecap="round" stroke-linejoin="round" stroke-miterlimit="10" stroke-width=".39853317" d="M46.309 250.43c-23.227-2.829-30.653-33.442-16.594-68.375 14.062-34.938 44.289-60.965 67.512-58.137 6.789.824 12.484 4.113 16.593 9.578"/><path fill="none" stroke="#000" stroke-linecap="round" stroke-linejoin="round" stroke-miterlimit="10" stroke-width=".39853317" d="M39.187 224.652c-8.93-15.62-1.582-45.066 16.41-65.765 10.184-11.715 22.153-18.625 32.337-18.668"/><path fill="none" stroke="#000" stroke-linecap="round" stroke-linejoin="round" stroke-miterlimit="10" stroke-width=".39853317" d="M86.016 141.324c-25.864 14.93-46.829 51.246-46.829 81.11"/><path fill="none" stroke="#000" stroke-linecap="round" stroke-linejoin="round" stroke-miterlimit="10" stroke-width=".39853317" d="M53.582 256.937c-19.168-11.129-19.121-47.09.102-80.324 19.18-33.156 50.23-51.086 69.41-40.074M168.281 165.367l24.094 13.914M168.281 165.367l-49.133 28.367M119.148 193.734l32.5 18.766M168.281 165.367c-15.199-1.351-33.933 9.461-49.133 28.363M124.75 284.348c0-36.774 25.82-81.497 57.668-99.883"/><path fill="none" stroke="#000" stroke-linecap="round" stroke-linejoin="round" stroke-miterlimit="10" stroke-width=".39853317" d="M226.332 178.465c-23.871-12.746-61.844 10.015-84.816 50.844-22.356 39.726-22.356 82.156 0 96.07M57.055 120.812l-10.43 6.989-9.566 8.718-8.57 10.141-7.403 11.25-6.043 12.035-4.496 12.492-2.77 12.645-.836 12.523M37.008 247.379l-15.676-9.051M106.527 126.96l-15.672-9.046M86.016 141.324l2.324-1.344M39.187 222.434v2.683M125.664 298.555l-72.082-41.618M195.176 178.156l-72.082-41.617M182.418 184.465l2.32-1.34M124.75 284.348v2.683M525.328 79.773c-24.258-13.832-63.465 8.946-87.574 50.875-23.996 41.739-23.996 86.778 0 100.805"/><path fill="none" stroke="#000" stroke-linecap="round" stroke-linejoin="round" stroke-miterlimit="10" stroke-width=".39853317" d="M424.633 218.945c-18.567-20.969-11.371-68.187 16.07-105.465 20.3-27.578 46.926-42.949 67.223-38.812M370.672 11.328c-19.196-11.086-50.324 6.887-69.52 40.14-19.199 33.25-19.199 69.192 0 80.278"/><path fill="none" stroke="#000" stroke-linecap="round" stroke-linejoin="round" stroke-miterlimit="10" stroke-width=".39853317" d="M326.125 143.844c-23.223-2.828-30.652-33.442-16.59-68.375 14.063-34.938 44.29-60.965 67.512-58.137 6.785.828 12.48 4.113 16.59 9.578"/><path fill="none" stroke="#000" stroke-linecap="round" stroke-linejoin="round" stroke-miterlimit="10" stroke-width=".39853317" d="M319.004 118.066c-8.93-15.62-1.582-45.066 16.414-65.765 10.183-11.715 22.152-18.625 32.336-18.668"/><path fill="none" stroke="#000" stroke-linecap="round" stroke-linejoin="round" stroke-miterlimit="10" stroke-width=".39853317" d="M365.836 34.738c-25.863 14.93-46.832 51.246-46.832 81.114"/><path fill="none" stroke="#000" stroke-linecap="round" stroke-linejoin="round" stroke-miterlimit="10" stroke-width=".39853317" d="M333.402 150.351c-19.191-11.093-19.18-47.03.02-80.277 19.191-33.222 50.3-51.183 69.488-40.117M448.097 58.781l24.098 13.914M448.097 58.781l-49.132 28.367M398.965 87.148l32.504 18.766M448.097 58.781c-15.199-1.351-33.933 9.465-49.132 28.367M404.57 177.762c0-36.774 25.817-81.493 57.664-99.883"/><path fill="none" stroke="#000" stroke-linecap="round" stroke-linejoin="round" stroke-miterlimit="10" stroke-width=".39853317" d="M506.976 72.34c-23.472-13.45-61.453 8.562-84.836 49.164-23.316 40.488-23.316 84.207 0 97.773M507.93 74.664l8.308 1.695M424.633 218.945l5.617 6.348M336.871 14.227l-10.43 6.988-9.562 8.719-8.57 10.14-7.403 11.25-6.043 12.035-4.496 12.496-2.77 12.641-.835 12.523M316.824 140.793l-15.672-9.047M386.348 20.379l-15.676-9.05M365.836 34.738l2.32-1.34M319.004 115.848v2.683M405.484 191.969l-72.082-41.618M474.996 71.57l-72.082-41.617M462.234 77.883l2.324-1.344M404.57 177.762v2.683M427.844 222.574l-5.707-3.293M512.68 75.633l-5.704-3.293"/></svg>