<svg xmlns="http://www.w3.org/2000/svg" width="115.317" height="131.191"><defs><clipPath id="a"><path d="M24 62h61v68.387H24Zm0 0"/></clipPath><clipPath id="b"><path d="M85 0h29.625v1H85Zm0 0"/></clipPath><clipPath id="c"><path d="M50 34h26v96.387H50Zm0 0"/></clipPath><clipPath id="d"><path d="M.016 101H69v2H.016Zm0 0"/></clipPath></defs><g clip-path="url(#a)"><path fill="none" stroke="#7F7F7F" stroke-miterlimit="10" stroke-width="1.5842287800000001" d="M62.25 110.27c0-11.657-15.637-13.7-15.637-25.356"/></g><path fill="none" stroke="#000" stroke-linecap="round" stroke-miterlimit="10" stroke-width=".7921143900000001" d="M33.324 101.816 99.25.395M35.11 101.816 101.034.395M44.64 51.105H89.72M58.445 34.203h39.442M72.25 17.3h33.809"/><g clip-path="url(#b)"><path fill="none" stroke="#000" stroke-linecap="round" stroke-miterlimit="10" stroke-width=".7921143900000001" d="M86.055.395h28.175"/></g><path fill="#FFF" d="M61.688 129.992V46.88a1.409 1.409 0 0 1 2.816 0v83.113"/><g clip-path="url(#c)"><path fill="none" stroke="#000" stroke-linecap="round" stroke-miterlimit="10" stroke-width=".7921143900000001" d="M61.687 129.992V46.88a1.409 1.409 0 0 1 2.816 0v83.113"/></g><g clip-path="url(#d)"><path fill="none" stroke="#000" stroke-linecap="round" stroke-miterlimit="10" stroke-width=".7921143900000001" d="M.41 101.816h67.613"/></g><path fill="none" stroke="#000" stroke-linecap="round" stroke-miterlimit="10" stroke-width=".7921143900000001" d="M46.094 84.914H74.27M44.312 84.914H16.141M30.836 68.012h50.71"/></svg>