<svg xmlns="http://www.w3.org/2000/svg" xmlns:xlink="http://www.w3.org/1999/xlink" width="113.386" height="20.639"><defs><clipPath id="b"><path d="M37 0h39v20.285H37Zm0 0"/></clipPath><clipPath id="c"><path d="M63 0h2v20.285h-2Zm0 0"/></clipPath><path id="a" d="M2-.562v-4.375l-1.328.265a1 1 0 0 1-.016-.187c0-.133.07-.227.219-.282l1.453-.593h.438v5.172l1.078.171q.124.018.125.094 0 .081-.094.297H.859a.16.16 0 0 1-.015-.078q0-.311.281-.36Zm0 0"/><path id="d" d="m.422-.453 1.484-1.703q.874-.996.875-1.969 0-1.232-.89-1.234-.364 0-.703.172a3.3 3.3 0 0 0-.125.875q-.111.016-.204.015-.42.001-.421-.344 0-.543.421-.859Q1.28-5.828 2-5.828q.716.001 1.156.406.452.41.453 1.14 0 .676-.421 1.345-.27.422-.891 1.109L1.328-.781v.015h2l.188-.765a.5.5 0 0 1 .187-.032c.145 0 .219.118.219.344q0 .345-.094 1.219H.5Zm0 0"/></defs><path fill="none" stroke="#000" stroke-miterlimit="10" stroke-width=".39214119000000003" d="M11.148 10.14H48.59m15.601 0h37.442"/><use xlink:href="#a" x="3.609" y="13.006"/><g clip-path="url(#b)"><path fill="none" stroke="#000" stroke-miterlimit="10" stroke-width=".7832995700000001" d="M64.191 10.14 48.59.39v19.5Zm0 0"/></g><path fill="none" stroke="#000" stroke-miterlimit="10" stroke-width=".39214119000000003" d="M64.191 10.14H48.59"/><g clip-path="url(#c)"><path fill="none" stroke="#000" stroke-miterlimit="10" stroke-width=".7832995700000001" d="M64.191 19.89V.39"/></g><use xlink:href="#d" x="104.766" y="13.059"/></svg>