<svg xmlns="http://www.w3.org/2000/svg" width="629.734" height="466.077"><defs><clipPath id="a"><path d="M.488 0H628.98v461H.488Zm0 0"/></clipPath></defs><g clip-path="url(#a)"><path fill="none" stroke="#000" stroke-miterlimit="10" stroke-width=".39820998" d="M300.297 27.597c-11.687-3.949-28.664 8.122-37.922 26.958-7.789 15.835-7.789 31.882 0 38.726M225.7 72.402c-10.543-6.086-10.543-25.82-.004-44.082C236.242 10.062 253.336.191 263.88 6.277m36.973 75.617 25.062 14.47m-25.062 59.339c-14.703-13.176-14.703-43.648 0-73.805m0 73.805 22.093 12.758m59.47-133.657 13.269 7.665M347.778 64.87l35.84 20.695m-53.56 88.996c-13.296-7.675-18.491-27.07-13.624-50.863 4.297-21 15.918-42.812 31.344-58.824m39.046-22.547c6.63-.77 12.66.332 17.707 3.246m-17.707-3.246 28.739 16.594M366.57 218.183c-25.933-15.023-25.894-63.636.083-108.574 25.937-44.883 67.964-69.148 93.902-54.219m16.48 192.754c-36.691 22.29-67.207 6.457-68.164-35.355-.96-41.813 28.012-93.777 64.7-116.067 23.73-14.414 46-13.308 58.402 2.907 6.707 8.765 10.101 21.437 9.762 36.449m-154.91-93.75L347.777 64.87m-46.926 17.023 81.562-47.09m-91.547 77.794-17.86-10.313m77.071-48.809-36.664-21.168m-13.117-4.71 10.66 3.597m-48.586 62.09 8.45 7.434m-7.485-6.586L225.7 72.403m75.813-44.395-37.633-21.73m83.781 178.448-17.601-10.164m92.07-118.824-17.598-10.164m56.028 9.813.265.156m-94.254 162.64.266.149M514.793 86.699l7.508 4.332M420.805 249.492l7.504 4.336m71.113-173.781c2.719.07 5.352.414 7.86 1.02m-17.704-.192c2.91-.547 5.762-.832 8.512-.848m-18.894 3.828c3.027-1.156 6.03-2.058 8.964-2.691m-19.625 7.742c3.07-1.73 6.153-3.234 9.188-4.469M457.856 95.91a100 100 0 0 1 9.187-6.133m-19.625 14.91a126 126 0 0 1 8.965-7.656m-18.895 18a144 144 0 0 1 8.528-9.004M428.3 126.68c2.504-3.5 5.137-6.883 7.86-10.098m-16.071 22.762a166 166 0 0 1 7.004-10.957m-14.047 24.336a166 166 0 0 1 6.012-11.598m-11.703 25.351a159 159 0 0 1 4.793-11.796m-8.996 25.59c.98-3.926 2.16-7.899 3.523-11.864m-6.137 25.356c.52-3.79 1.235-7.668 2.153-11.586m-3.106 24.449c.035-3.563.274-7.258.723-11.024m.004 22.938c-.45-3.25-.688-6.66-.723-10.188m3.105 20.86c-.917-2.852-1.636-5.903-2.152-9.102m6.145 18.27c-1.368-2.387-2.547-5.004-3.528-7.797m9.02 15.23a37.7 37.7 0 0 1-4.817-6.293m11.68 11.817a32.8 32.8 0 0 1-5.984-4.633m14.047 8.106a32.7 32.7 0 0 1-7.004-2.864m12.508 3.946a36 36 0 0 1-4.29-.77m95.094-164.742a37 37 0 0 1 2.825 3.343m-9.688-8.867a33 33 0 0 1 5.984 4.633m-76.05-33.496c2.91-.547 5.757-.832 8.511-.84M363.59 213.5c-1.367-2.39-2.547-5.004-3.523-7.797m15.878 20.754a32.8 32.8 0 0 1-5.972-4.633m-.887-.89a37.8 37.8 0 0 1-4.816-6.29m40.058-134.836a124 124 0 0 1 8.953-7.66m-49.02 69.446a160 160 0 0 1 4.813-11.856m87.25-74.578c2.727.078 5.356.418 7.86 1.023m-49.426 14.844a102 102 0 0 1 9.191-6.137m-53.996 62.95a166 166 0 0 1 5.977-11.524m1.062-1.851a165 165 0 0 1 7-10.957m-24.39 100.82a61.6 61.6 0 0 1-2.153-9.102m-.234-1.57c-.45-3.25-.687-6.66-.723-10.187m28.715-81.672a158 158 0 0 1 7.856-10.102m1.328-1.547a142 142 0 0 1 8.52-8.988m-46.419 100.586c.036-3.566.278-7.258.723-11.027m68.227-106.696a80 80 0 0 1 9.183-4.468m1.477-.583c3.027-1.152 6.027-2.058 8.957-2.69m-87.614 112.6a124 124 0 0 1 2.141-11.546m.473-1.946c.976-3.93 2.156-7.902 3.52-11.867m101.812-87.02a32.5 32.5 0 0 1 7.008 2.86M313.414 32.308c-11.16-6.441-29.246 4-40.406 23.329-11.152 19.324-11.152 40.21 0 46.652m271.738 119.75c4.528-2.676 8.192-9.016 8.243-14.277m-1.227.648 1.227-.648m0-.223-.993.523m.993-.523q-.001-.434-.043-.856m.043 1.079-.196-.118m-8.047 14.395-.203-.11m20.278-71.874 4.597 3.386 5.192 2.094m-63.633 111.8-4.317-3.468-5.246-2.383m-22.918-34.379 9.059-5.23m4.285 28.344 9.059-5.23m-4.555 14.3-53.352-30.797m118.055-81.273-53.351-30.801m37.726 171.754-29.941-17.29m95.117-95.597-29.941-17.289m-64.106-73.14-1.578 1.519m-41.52-26.403 43.098 24.883m-1.055-.61L472.4 59.364m42.574 27.012.523-2.13M403.153 180.27l1.187.668m-44.281-25.547 43.094 24.88m-43.56-22.973 1.638-1.23m41.46 26.113-43.097-24.883m44.746 23.64-1.648 1.243m32.89-122.075.52-1.133m43.094 24.883-.97 2.117m-42.124-27 43.094 24.883m-1.473.582-43.098-24.882m43.602 26.417-.504-1.535m-77.184 109.325 1.356.343m-44.45-25.222 43.094 24.879m-43.324-23.043 1.293-1.223m41.8 26.11-43.093-24.887m44.68 23.386-1.586 1.5m-5.906-103.539-.012-1.918m43.105 26.797-43.093-24.879m43.085 22.965.008 1.914m-43.105-26.797 43.097 24.883M393.058 91.7l1.345.367m41.753 24.516L393.06 91.699m44.437 25.246-1.34-.363m-9.05 138.227.96-1.122m.25 1.442-.992-.578m1.149-.633-.156 1.21m-28.004-36.589 1.582-.328m-44.68-24.555 43.098 24.883m-42.864-23.313.723-1.015m42.371 25.898-43.094-24.883m44.446 22.985-1.352 1.898m-23.027-104.125-.524-1.52m43.621 26.403-43.097-24.883m42.574 23.36.523 1.523m-43.62-26.402 43.097 24.879m-44.156-23.051 1.582-.309m41.515 25.188-43.097-24.88m44.68 24.575-1.583.305m5.907-75.707.504-1.442m43.093 24.883-.746 2.149m-42.347-27.032 43.093 24.883m-1.492.863-43.097-24.882m43.843 26.168-.746-1.286m-81.57 13.77-.266-1.742m43.364 26.62-43.098-24.878m42.828 23.14.27 1.739m-43.364-26.621 43.094 24.883m-44.3-23.172 1.472.03m41.62 24.849L384 103.507m44.57 24.91-1.48-.03m38.086-71.63.215-.253m43.098 24.879-1.481 1.738m-41.617-26.617 43.098 24.879m-1.208-.313-43.097-24.887m42.824 26.938.273-2.05m-142.035 61.503-.988-.98m44.086 25.859-43.098-24.879m42.11 23.902.988.977m-44.086-25.86 43.098 24.883m-43.774-22.953 1.664-.949m41.43 25.832-43.094-24.883m44.762 23.93-1.668.953M523.414 90.38l-.968.742m-.02-1.313.988.57m-1.375.505.496-1.395m-118.46-7.648.253-2.032m43.09 24.88-.246 2.046m-42.844-26.926 43.094 24.88M446 106.042 402.906 81.16m44.266 25.574-1.176-.691m-46.41 100.582 1.488.004m-44.582-24.883 43.094 24.879m-43.094-23.156.993-1.149m42.105 26.031-43.098-24.882m44.582 23.16-1.484 1.722m12.59 37.461 1.644-1.257m-44.738-23.622 43.094 24.88M369.96 221.82l.113-.316m42.985 25.199L369.96 221.82m43.863 22.735-.765 2.148m-6.371-8.324 1.664-.973M363.59 213.5l43.098 24.879M364.27 214.64l.277-.594m42.816 25.476-43.093-24.882m44.082 22.765-.989 2.117m11.68 11.813 1.582-1.516m-44.68-23.363 43.098 24.879m1.059.61-1.059-.61m1.582-1.516-.523 2.125m-17.407-22.734 1.649-.66m-44.742-24.223 43.093 24.883m-42.628-23.508.48-.828m42.61 25.707-43.09-24.879m44.277 22.848-1.188 2.03M455.95 55.704l.375-.543m43.098 24.887-1.34 1.91M456.324 55.16l43.098 24.887m-1.332-.016-43.094-24.879m43.086 26.805.008-1.926m-83.742-7.266.41-1.738m43.098 24.883-.504 2.121m-42.594-27.004 43.098 24.883m-1.477 1.121-43.098-24.879m44.07 25.88-.972-1m-10.371-40.204.477-.836m43.093 24.883-1.172 2.043m-41.921-26.926 43.093 24.883m-1.422.285-43.093-24.879m43.343 26.637-.25-1.758m-117.441 47.945-.762-1.265m43.86 26.148-43.098-24.883m42.332 23.618.766 1.265m-43.86-26.148 43.094 24.883m-43.973-22.981 1.641-.637m41.453 25.52-43.094-24.883m44.739 24.246-1.645.637m8.637 94.867c-25.953-14.984-25.953-63.574 0-108.527s68.035-69.25 93.988-54.266m-6.304-5.316c2.437.68 4.792 1.64 7.007 2.863m-10.148 138.078 4.742-15.223 7.219-14.714 9.238-13.258 10.707-10.996 5.68-4.407 5.8-3.593 5.82-2.72 5.747-1.796 5.57-.84 5.309.121 4.95 1.078 4.527 2.02m-79.239 103.488-4.133-1.675-3.746-2.41-3.308-3.102-2.836-3.762m28.086 20.348-3.266-2.352-2.793-3.02-4.074-7.878m0 0c-.121-.125-.246-.254-.363-.38m0 0-4.047-5.331-4.344-4.426m43.117-14.707c7.145.426 16.133-7.77 20.07-18.293 2.446-6.535 2.446-12.754 0-16.469m-52.085-81.61c-17.868-10.316-46.836 6.407-64.704 37.356-17.87 30.95-17.87 64.403 0 74.72m41.422-17.552 6.028-15.601 8.718-15.094 10.758-13.469 12.031-10.914 6.204-4.23 6.18-3.301 6.019-2.313 5.781-1.285 5.438-.234 4.972.82 4.446 1.863 3.832 2.872m43.296 29.527c16.63 9.598 16.63 40.726 0 69.527-16.625 28.801-43.585 44.364-60.214 34.762-16.625-9.594-16.622-40.727.003-69.523 16.63-28.801 43.583-44.368 60.211-34.766m-97.902 80.863.094-.117m-.004 0-5.32-3.074m5.32 3.074a11 11 0 0 0 2.562-2.293m-35.34-51.07c-7.253 5.41-7.289 19.695-.074 33.504m64.22-13.032c5.132.34 11.6-5.53 14.456-13.101 1.79-4.738 1.79-9.254 0-11.934m-64.258 47.864c-3.703 2.136-9.699-1.329-13.398-7.739-3.703-6.406-3.703-13.328 0-15.465 3.7-2.136 9.695 1.329 13.39 7.73 3.704 6.411 3.704 13.337.008 15.474m9.028-5.278c3.664-2.156 3.632-9.074-.075-15.449-3.671-6.32-9.597-9.738-13.27-7.664m-3.14-10.934 4.887 6.028 5.465 4.39 5.37 1.352 4.849-.676m-27.457-15.07-3.52 2.539-2.812 3.402-1.774 4.094-.61 4.5.602 4.781 1.77 4.953 6.324 9.364m6.906-29.657-6.886-3.976m133.191-31.89c18.07 10.425 18.07 44.25.004 75.538-18.066 31.29-47.36 48.2-65.422 37.774-18.066-10.434-18.066-44.254 0-75.547 18.066-31.29 47.356-48.2 65.418-37.766m-100.504 50.063-4.867-2.813m4.867 38.121 1.914-1.375 1.414-2.508.836-3.644.281-4.55-.277-5.34-.84-5.946-3.328-11.945m0 35.308-4.867-2.812m38.441-35.094q.38-.175.766-.387m-.047-1.125.047 1.125m6.402-12.523c-.363 3.597-2.676 7.605-5.613 9.719m-.652 1.304.054 1.387m-39.398.285c-.121-.098-.246-.195-.363-.289m32.5 47.555c9.246 17.82 32.996 14.23 53.05-8.024 20.055-22.25 28.82-54.738 19.579-72.558-3.985-7.684-10.93-11.692-19.579-11.305M282.38 390.246l1.89 4.59 2.602 4.238 3.328 3.746 3.996 3.063 4.536 2.215 4.855 1.297 4.961.394 4.945-.43 9.54-2.91 8.94-5.156 8.227-6.961 7.34-8.434 6.239-9.53 4.91-10.266 3.367-10.602 1.62-10.578-.343-10.246-2.648-9.59-2.332-4.379-3.067-3.945-3.761-3.336-4.364-2.543m-23.89 53.86-12.153-4.692m16.418-2.692-10.144-8.18m-65.801 28.954-21.934-12.66m63.102-82.973-11.398-6.582m18.96-37.879 7.508 4.332M206.336 400.832l7.504 4.336m85.086-147.379 28.508 16.469M222.742 389.746l28.508 16.461m111.68-131.23 22.758 13.14M269.625 436.586l22.762 13.137m93.476-161.907c25.86 14.93 25.864 63.348 0 108.141-25.859 44.79-67.793 69-93.652 54.07-25.863-14.933-25.863-63.347 0-108.144 25.86-44.793 67.79-69 93.652-54.07m-1.316 67.972 11.14-6.433M282.38 414.766l11.148-6.43m-11.148-19.848v26.282m11.148-32.72-11.148 6.438m113.309-65.418-11.141 6.434m11.14 19.848V323.07m-26.753 15.45 4-2.31m0-.003v-13.406m22.754 26.55-22.754-13.144m-147.621 40.996 5.234-5.23m-58.195-178.305-39.047 22.543m34.64-30.063-81.562 47.09m138.93 143.965c-3.329-18.945.906-46.332 11.109-71.824 5.68-14.2 12.86-26.895 20.605-36.445m-8.578 95.343c2.715-25.715 13.098-54.496 27.008-74.832m-21.656 77.926-5.352-3.094m120.485-25.758-5.512-3.18m-113.094 56.31-25.015-14.446m44.312 59.383c-25.746-14.91-25.71-63.164.07-107.781 25.75-44.555 67.48-68.649 93.23-53.829m-105.405 1.708c-12.082 15.125-22.078 38.394-26.211 61.03-2.387 13.063-2.653 25.036-.758 34.25m62.976 36.372-11.148-6.438m-31.52-18.199-20.312-11.726m62.98 36.363c6.286 25.39 31.754 28.328 56.883 6.562 16.805-14.546 29.934-37.285 34.133-59.109m.004-.004-20.809-12.008m20.809-14.273L350.418 309.8m-56.89 72.25c6.285-32.649 31.753-64.992 56.882-72.25 16.805-4.848 29.934 2.73 34.133 19.703m-140.418 50.308a47 47 0 0 0 6.313-2.343M87.047 179.35l-37.645-21.734M352.817 325.48c12.289 7.098 12.289 30.106-.004 51.395-12.29 21.289-32.211 32.793-44.504 25.695-12.293-7.093-12.293-30.101 0-51.39s32.218-32.793 44.508-25.7m-71.457-49.562c-6.594-3.805-15.461-3.098-24.778 1.96m-26.976 87.563c.02.008.035.024.046.032M98.942 183.648c-11.165-6.422-29.258 4.04-40.403 23.371-11.129 19.305-11.129 40.16 0 46.61m288.692 81.527c9.207 5.313 9.207 22.547-.004 38.496-9.203 15.942-24.125 24.563-33.336 19.25-9.203-5.32-9.2-22.55.004-38.496 9.207-15.949 24.132-24.566 33.336-19.25M327.36 357.22c1.187.687 1.187 2.902 0 4.96-1.188 2.055-3.11 3.165-4.293 2.481-1.188-.683-1.188-2.906 0-4.96 1.183-2.056 3.105-3.165 4.293-2.481M85.824 178.937c-11.683-3.949-28.664 8.121-37.922 26.961-7.78 15.832-7.78 31.88 0 38.727M11.23 223.742c-10.542-6.082-10.542-25.82 0-44.082 10.54-18.258 27.633-28.129 38.176-22.043m118.54 28.531 13.269 7.66M86.383 307.043c-14.707-13.176-14.707-43.649 0-73.8m0 73.8 22.09 12.758m-22.09-86.563 25.058 14.465m60.91-54.035c6.63-.77 12.665.332 17.715 3.246m-17.714-3.246 28.746 16.594m-85.504 115.644c-13.305-7.68-18.5-27.074-13.633-50.867 4.297-21 15.926-42.813 31.344-58.828m0 0 35.84 20.695m-17.047 132.617c-25.953-14.984-25.953-63.574 0-108.53 25.957-44.954 68.039-69.25 93.992-54.267m4.176 198.91c-36.235 14.18-60.883-10.972-55.047-56.187 5.84-45.215 39.95-93.36 76.18-107.539 28.296-11.074 50.488 1.738 55.046 31.777M282.38 398.7l4.34.172m-63.977-9.125c-21.004-12.21-20.941-51.629.137-88.047 21.02-36.32 55.027-55.953 76.043-43.906m-23.465 31.644 10.906-3.199 4.57-2.46 3.524-2.731 2.324-2.93.848-2.879-.625-2.797-2.121-2.754-3.41-2.484-4.477-2.14-5.375-1.645-5.625-.867-5.625.039-5.387 1.11-4.515 2.144-3.438 3.078m.489 7.762 3.629-3.227 4.816-2.148 5.719-.942 5.87.227 5.903 1.199 5.442 1.96 4.336 2.36 3.144 2.684m12.012 123.633-.75-.434m45.09-76.367-.75-.434m-65.801 72.91-3.801-2.195m-49.426-139.883c2.86-2.687 5.856-5.25 8.957-7.656m-18.894 18a145 145 0 0 1 8.515-8.988m-17.699 20.636a157 157 0 0 1 7.856-10.101m-16.07 22.766a166 166 0 0 1 6.988-10.922m-14.028 24.3a166 166 0 0 1 5.985-11.543m-11.68 25.293A161 161 0 0 1 197.69 306m-9.007 25.61c.98-3.926 2.16-7.9 3.523-11.864m-6.137 25.36a125 125 0 0 1 2.141-11.551m-3.094 24.414c.035-3.567.278-7.262.723-11.028m0 22.938a81 81 0 0 1-.723-10.188m3.11 20.864a62 62 0 0 1-2.149-9.106m6.137 18.27c-1.367-2.387-2.543-5-3.524-7.793m9.02 15.226a37.7 37.7 0 0 1-4.816-6.289m11.675 11.813a32.6 32.6 0 0 1-5.972-4.63m14.043 8.102a32.9 32.9 0 0 1-7.008-2.859m12.512 3.941a36 36 0 0 1-4.297-.765m95.101-164.746c1 1.054 1.946 2.175 2.817 3.343m-9.684-8.867a33 33 0 0 1 5.985 4.637m-14.051-8.11a33 33 0 0 1 7.008 2.864m-16.07-4.2c2.722.07 5.35.415 7.855 1.02m-17.7-.191c2.91-.547 5.762-.832 8.512-.848m-18.894 3.828a62 62 0 0 1 8.96-2.687m-19.62 7.738c3.066-1.73 6.148-3.234 9.183-4.469m-19.867 11.473a103 103 0 0 1 9.187-6.137m-90.05 24.692a165 165 0 0 1 7.011-10.961m-27.511 78.242c.035-3.567.277-7.258.722-11.027m27.992-68.922c2.504-3.5 5.141-6.883 7.856-10.098m1.328-1.55a146 146 0 0 1 8.516-8.99m22.535-17.132a80 80 0 0 1 9.187-4.473m1.473-.582c3.031-1.152 6.031-2.058 8.96-2.691M142.747 345a80.5 80.5 0 0 1-.726-10.188m.957-14.59c.53-3.882 1.25-7.757 2.148-11.574m.461-1.918a144 144 0 0 1 3.523-11.867m12.368 82.934a33 33 0 0 1-5.985-4.637m-.875-.887a38 38 0 0 1-4.816-6.293m-.008-73.046a158 158 0 0 1 4.809-11.852m.879-1.902a168 168 0 0 1 5.96-11.493m-12.32 97.153a47.5 47.5 0 0 1-3.527-7.797m-.461-1.375a61.5 61.5 0 0 1-2.152-9.098m89.03-139.238c2.911-.547 5.766-.832 8.516-.844m1.329.016c2.722.074 5.351.414 7.855 1.02m1.211.32c2.437.68 4.793 1.64 7.008 2.863m-68.074 20.441a122 122 0 0 1 8.96-7.656m1.473-1.125a103 103 0 0 1 9.184-6.133M351.98 325.195c-12.243-7.07-32.098 4.39-44.34 25.598-12.246 21.21-12.246 44.137 0 51.203m-107.766-177.89.414-1.739m43.094 24.883-.504 2.121m-42.59-27.004 43.094 24.883m-1.473 1.121-43.094-24.879m44.063 25.879-.969-1m8.793-40.273.219-.254m43.094 24.879-1.473 1.738m-41.621-26.617 43.094 24.879m-1.207-.313-43.098-24.883m42.832 26.934.266-2.05m-51.328-25.368.375-.54m43.097 24.884-1.34 1.914m-41.757-26.797 43.097 24.883m-1.332-.016-43.094-24.879m43.086 26.805.008-1.926m-95.394 149.184 1.644-.66m-44.738-24.227 43.094 24.887m-42.633-23.512.48-.828m42.617 25.71-43.097-24.882m44.277 22.851-1.18 2.032m-32.445-101.48-.765-1.266m43.859 26.148-43.094-24.883m42.332 23.617.762 1.266m-43.86-26.148 43.098 24.882m-43.972-22.976 1.64-.64m41.457 25.519-43.097-24.883m44.734 24.246-1.637.637m-5.488 83.754 1.664-.973m-44.758-23.906 43.094 24.879M149.8 365.984l.273-.597m42.82 25.48-43.093-24.883m44.078 22.762-.984 2.117m4.816 6.29 1.64-1.258m-44.734-23.622 43.094 24.88m-42.219-23.989.114-.316m42.98 25.195-43.094-24.879m43.86 22.73-.766 2.149m-9.902-66.434 1.183.672m-44.281-25.55 43.098 24.878m-43.555-22.972 1.629-1.23m41.46 26.112-43.089-24.882m44.738 23.644-1.648 1.238m24.422 72.63.953-1.122m.254 1.438-.992-.57m1.148-.633-.156 1.203m-28.008-36.586 1.59-.328M142.746 345l43.094 24.879m-42.863-23.309.726-1.02m42.375 25.9-43.101-24.88m44.453 22.98-1.356 1.9m116.008-135.255-1.578 1.52m-41.516-26.399 43.094 24.88m-1.058-.61-43.094-24.88m42.574 27.009.52-2.13m7.925 6.134-.972.742m-.02-1.313.992.57m-1.379.505.497-1.395m-86.958-29.383.52-1.133m43.098 24.883-.97 2.121m-42.128-27.004 43.098 24.883m-1.477.582-43.094-24.883m43.602 26.422-.504-1.539m-83.32 7.63-.012-1.919m43.105 26.797-43.093-24.879m43.082 22.965.011 1.914m-43.105-26.797 43.094 24.883m-44.426-23.332 1.344.367m41.75 24.516-43.094-24.883m44.437 25.246-1.343-.363m-32.078-34.742.25-2.032m43.097 24.88-.254 2.046m-42.843-26.926 43.097 24.88m-1.422 1.355-43.097-24.88m44.265 25.571-1.168-.691m-46.414 100.586 1.489.004m-44.586-24.887 43.097 24.883m-43.097-23.157.996-1.152m42.101 26.031-43.097-24.879m44.586 23.16-1.489 1.72m-34.343-65.778-.981-.98m44.078 25.859-43.097-24.879m42.113 23.898.984.98m-44.078-25.858 43.094 24.882m-43.774-22.953 1.66-.949m41.438 25.832-43.098-24.883m44.758 23.93-1.66.953m12.36 82.93 1.581-1.516m-44.671-23.363 43.09 24.879m1.062.61-1.063-.61m1.582-1.516-.52 2.125m-42.589-135.957-.523-1.523m43.62 26.402-43.097-24.879m42.574 23.356.524 1.523m-43.621-26.402 43.097 24.879m-44.156-23.051 1.582-.305m41.516 25.188-43.094-24.883m44.676 24.574-1.582.309m-18.489 52.59 1.356.34m-44.45-25.223 43.098 24.882m-43.332-23.046 1.297-1.223m41.8 26.11-43.097-24.887m44.684 23.386-1.586 1.5m45.695-138.777.477-.836m43.097 24.883-1.171 2.043m-41.926-26.926 43.097 24.883m-1.421.289L230.59 207.62m43.348 26.637-.25-1.754m-102.68 22.375-.274-1.742m43.364 26.62-43.09-24.878m42.824 23.14.27 1.739m-43.368-26.621 43.098 24.882m-44.305-23.171 1.48.03m41.618 24.848-43.098-24.878m44.57 24.91-1.472-.032m40.695-37.332-.75-1.285m0 0-43.097-24.879m44.594 24.016-.747 2.148m-42.351-27.027 43.098 24.879m-43.598-23.445.5-1.434m-4.633 185.465c-25.957-14.984-25.957-63.574 0-108.527 25.953-44.954 68.031-69.247 93.988-54.266M76.398 263.941 58.54 253.63m77.07-48.813-36.668-21.168m-13.117-4.71 10.664 3.605m-48.586 62.082 8.45 7.434m-7.485-6.583L11.23 223.742m196.43-16.664-17.594-10.16m-56.878 139.148-17.594-10.16m130.496-119.18.262.157m-94.254 162.64.27.153"/></g></svg>