<svg xmlns="http://www.w3.org/2000/svg" xmlns:xlink="http://www.w3.org/1999/xlink" width="226.771" height="162.091"><defs><clipPath id="b"><path d="M12 6h195v155.188H12Zm0 0"/></clipPath><clipPath id="c"><path d="M.52 81H25v2H.52Zm0 0"/></clipPath><clipPath id="d"><path d="M185 64h41.023v39H185Zm0 0"/></clipPath><clipPath id="e"><path d="M210 74h16.023v18H210Zm0 0"/></clipPath><clipPath id="f"><path d="M216 79h10.023v15H216Zm0 0"/></clipPath><clipPath id="g"><path d="M208 79h18.023v18H208Zm0 0"/></clipPath><clipPath id="h"><path d="M214 84h12.023v15H214Zm0 0"/></clipPath><path id="a" d="M5.828-6.156v.078q-.002.252-.297.328l-.234.047L3.28 0h-.734L.453-5.687l-.375-.11q-.124-.014-.125-.11c0-.05.035-.132.094-.25H2.03c.008.024.016.048.016.079q-.001.253-.313.312l-.375.079L3-.907h.031L4.72-5.702l-.688-.11q-.127-.011-.125-.093 0-.075.094-.25Zm0 0"/></defs><path fill="none" stroke="#000" stroke-miterlimit="10" stroke-width=".39677358" d="M12.754 44.984h84.832m23.68 0h84.832"/><path fill="none" stroke="#000" stroke-miterlimit="10" stroke-width=".79255274" d="M109.426 33.145c-6.54 0-11.84 5.3-11.84 11.84 0 6.538 5.3 11.84 11.84 11.84 6.539 0 11.84-5.302 11.84-11.84 0-6.54-5.301-11.84-11.84-11.84Zm0 0"/><use xlink:href="#a" x="106.536" y="48.06"/><path stroke="#000" stroke-miterlimit="10" stroke-width=".39677358" d="M14.332 44.984a1.579 1.579 0 1 0-3.157.002 1.579 1.579 0 0 0 3.157-.002ZM207.676 44.984a1.579 1.579 0 1 0-3.158.002 1.579 1.579 0 0 0 3.158-.002Zm0 0"/><g clip-path="url(#b)"><path fill="none" stroke="#000" stroke-miterlimit="10" stroke-width=".39677358" d="M12.754 6.316v71.418m0 11.84v71.418h38.668m0 0h58.004m0 0h58.004m0 0h38.668V91.547m0-15.785V6.316H125.21m-31.57 0H12.754"/></g><path fill="none" stroke="#000" stroke-miterlimit="10" stroke-width=".39677358" d="M12.754 85.605v3.97m0-7.876v-3.965"/><g clip-path="url(#c)"><path fill="none" stroke="#000" stroke-miterlimit="10" stroke-width=".79255274" d="M24.594 81.7H.914"/></g><path fill="none" stroke="#000" stroke-miterlimit="10" stroke-width="2.37765822" d="M18.672 85.605H6.836"/><g clip-path="url(#d)"><path fill="none" stroke="#000" stroke-miterlimit="10" stroke-width=".79255274" d="m206.098 91.547 9.867-15.785H196.23Zm0 0"/></g><path fill="none" stroke="#000" stroke-miterlimit="10" stroke-width=".39677358" d="M206.098 91.547V75.762"/><path fill="none" stroke="#000" stroke-miterlimit="10" stroke-width=".79255274" d="M196.23 91.547h19.735"/><g clip-path="url(#e)"><path fill="none" stroke="#000" stroke-miterlimit="10" stroke-width=".39677358" d="m215.965 80.496 7.168 5.734"/></g><path d="m225.52 88.14-1.215-3.214-1.094 1.367-1.094 1.371Zm0 0"/><g clip-path="url(#f)"><path fill="none" stroke="#000" stroke-miterlimit="10" stroke-width=".39674964" d="m225.52 88.14-1.215-3.214-1.094 1.367-1.094 1.371Zm0 0"/></g><g clip-path="url(#g)"><path fill="none" stroke="#000" stroke-miterlimit="10" stroke-width=".39677358" d="m213.992 85.23 7.168 5.739"/></g><path d="m223.547 92.875-1.215-3.215-1.094 1.367-1.097 1.371Zm0 0"/><g clip-path="url(#h)"><path fill="none" stroke="#000" stroke-miterlimit="10" stroke-width=".39674964" d="m223.547 92.875-1.215-3.215-1.094 1.367-1.097 1.371Zm0 0"/></g><path fill="none" stroke="#000" stroke-miterlimit="10" stroke-width=".79255274" d="M93.64.395h31.57v11.84H93.64Zm0 0"/></svg>