<svg xmlns="http://www.w3.org/2000/svg" xmlns:xlink="http://www.w3.org/1999/xlink" width="225.862" height="36.915"><defs><clipPath id="a"><path d="M.191 34H102v2H.191Zm0 0"/></clipPath><clipPath id="b"><path d="M98 33h4v3.832h-4Zm0 0"/></clipPath><clipPath id="c"><path d="M81 16h38v20.832H81Zm0 0"/></clipPath><clipPath id="d"><path d="M124 34h101.535v2H124Zm0 0"/></clipPath><clipPath id="e"><path d="M123 33h4v3.832h-4Zm0 0"/></clipPath><clipPath id="f"><path d="M106 16h38v20.832h-38Zm0 0"/></clipPath><clipPath id="g"><path d="M.191 9H1v1H.191Zm0 0"/></clipPath><clipPath id="h"><path d="M.191 9H225v1H.191Zm0 0"/></clipPath><clipPath id="i"><path d="M.191 2H11v16H.191Zm0 0"/></clipPath><clipPath id="j"><path d="M.191 7H2v6H.191Zm0 0"/></clipPath><clipPath id="k"><path d="M215 2h10.535v16H215Zm0 0"/></clipPath><path id="l" d="m3.578-.422-.125-.125c-.187.188-.297.203-.437.203-.203 0-.22-.25-.282-1.187l-.109-2.547C2.578-4.922 2.219-5 2.031-5c-.265 0-.531.234-.765.5l.093.125a.95.95 0 0 1 .516-.187c.172 0 .406.156.453 1.14l.016.313L.156 0l.14.078C.454.031.626 0 .814 0l1.546-2.594.094 1.688c.016.672.11.984.438.984.203 0 .5-.234.687-.5m0 0"/><path id="m" d="M.438-3.344c0 .14.14.281.28.281.126 0 .345-.14.345-.296 0-.047-.016-.094-.032-.141-.015-.062-.062-.125-.062-.172 0-.187.187-.437.719-.437.25 0 .609.172.609.859 0 .453-.156.828-.578 1.266l-.532.515C.485-.75.375-.406.375.016c0 0 .36-.016.594-.016h1.25c.234 0 .562.016.562.016a8 8 0 0 0 .172-1.125c-.047-.047-.14-.063-.219-.047-.109.515-.234.687-.5.687H.97c0-.343.484-.828.531-.86l.719-.702c.406-.39.719-.703.719-1.25 0-.766-.641-1.078-1.22-1.078-.78 0-1.28.578-1.28 1.015m0 0"/></defs><g clip-path="url(#a)"><path fill="none" stroke="#000" stroke-miterlimit="10" stroke-width="1.1932492" d="M.79 34.648h49.812m0 0h49.808"/></g><g clip-path="url(#b)"><path d="M101.996 34.648c0-.87-.71-1.582-1.586-1.582-.87 0-1.582.711-1.582 1.582 0 .875.711 1.586 1.582 1.586.875 0 1.586-.71 1.586-1.586m0 0"/></g><g clip-path="url(#c)"><path fill="none" stroke="#000" stroke-miterlimit="10" stroke-width="1.1932492" d="M101.996 34.648c0-.87-.71-1.582-1.586-1.582-.87 0-1.582.711-1.582 1.582 0 .875.711 1.586 1.582 1.586.875 0 1.586-.71 1.586-1.586Zm0 0"/></g><g clip-path="url(#d)"><path fill="none" stroke="#000" stroke-miterlimit="10" stroke-width="1.1932492" d="M224.942 34.648h-49.813m0 0h-49.813"/></g><g clip-path="url(#e)"><path d="M126.902 34.648a1.583 1.583 0 1 0-3.17.002 1.583 1.583 0 0 0 3.17-.002m0 0"/></g><g clip-path="url(#f)"><path fill="none" stroke="#000" stroke-miterlimit="10" stroke-width="1.1932492" d="M126.902 34.648a1.583 1.583 0 1 0-3.17.002 1.583 1.583 0 0 0 3.17-.002Zm0 0"/></g><g clip-path="url(#g)"><path fill="none" stroke="#999" stroke-miterlimit="10" stroke-width=".009977" d="M.79 9.746"/></g><path fill="none" stroke="#999" stroke-miterlimit="10" stroke-width=".009977" d="M224.942 9.746"/><g clip-path="url(#h)"><path fill="none" stroke="#000" stroke-miterlimit="10" stroke-width=".39808230000000006" d="M1.086 9.746h223.559"/></g><path d="m1.582 9.746 2.969 1.758v-3.52Zm0 0"/><g clip-path="url(#i)"><path fill="none" stroke="#000" stroke-miterlimit="10" stroke-width=".39808230000000006" d="m1.582 9.746 2.969 1.758v-3.52Zm0 0"/></g><g clip-path="url(#j)"><path fill="none" stroke="#000" stroke-miterlimit="10" stroke-width=".39808230000000006" d="M.988 12.031V7.457"/></g><path d="m224.145 9.746-2.965-1.762v3.52Zm0 0"/><g clip-path="url(#k)"><path fill="none" stroke="#000" stroke-miterlimit="10" stroke-width=".39808230000000006" d="m224.145 9.746-2.965-1.762v3.52Zm0 0"/></g><path fill="none" stroke="#000" stroke-miterlimit="10" stroke-width=".39808230000000006" d="M224.742 7.457v4.574"/><path fill="#FFF" d="M106.785 19.488h12.156V0h-12.156Zm0 0"/><use xlink:href="#l" x="110.959" y="7.906"/><path fill="none" stroke="#000" stroke-miterlimit="10" stroke-width=".5816591" d="M110.957 9.875h3.809"/><use xlink:href="#m" x="111.198" y="16.493"/></svg>