<svg xmlns="http://www.w3.org/2000/svg" xmlns:xlink="http://www.w3.org/1999/xlink" width="112.993" height="24.608"><defs><clipPath id="a"><path d="M.883 11h111.222v2H.883Zm0 0"/></clipPath><clipPath id="b"><path d="M33 0h47v24.223H33Zm0 0"/></clipPath><path id="c" d="m4.438-.484-.579-1.61H1.656l-.578 1.61.672.125q.124.034.125.093c0 .055-.031.141-.094.266h-1.86a.2.2 0 0 1-.015-.078Q-.096-.324.22-.406l.234-.047 2.156-5.64.547-.063L5.281-.47l.39.11q.125.034.126.093c0 .032-.04.121-.11.266H3.813a.16.16 0 0 1-.015-.078q0-.247.297-.313Zm-2.61-2.078h1.86L2.78-5.142h-.015Zm0 0"/></defs><g clip-path="url(#a)"><path fill="none" stroke="#000" stroke-miterlimit="10" stroke-width=".39274368" d="M1.078 12.11h43.695m23.438 0h43.7"/></g><g clip-path="url(#b)"><path fill="none" stroke="#000" stroke-miterlimit="10" stroke-width=".78450304" d="M56.492.39c-6.472 0-11.719 5.25-11.719 11.72 0 6.472 5.247 11.722 11.72 11.722 6.472 0 11.718-5.25 11.718-11.723C68.21 5.641 62.965.391 56.492.391Zm0 0"/></g><use xlink:href="#c" x="53.615" y="15.191"/></svg>