<svg xmlns="http://www.w3.org/2000/svg" xmlns:xlink="http://www.w3.org/1999/xlink" width="226.835" height="103.678"><defs><path id="e" d="M5.86-2.906a.2.2 0 0 1 .015.078q0 .236-.312.312l-.204.047v1.89C4.867-.116 4.15.11 3.203.11q-1.207 0-1.937-.765Q.469-1.5.469-3.062q0-1.606 1.031-2.485.855-.733 2.11-.734.59.002 1.078.156.044.019.593.219.047.657.047.922-.001.408-.266.406a.44.44 0 0 1-.203-.047l-.187-.86q-.44-.264-1.11-.265-.953.002-1.562.594-.703.702-.703 2.015c0 .875.195 1.555.594 2.032.375.46.882.687 1.53.687.438 0 .821-.07 1.157-.219v-1.796l-.547-.126q-.127-.011-.125-.093 0-.076.094-.25Zm0 0"/><path id="f" d="M2.031-.578V-5l-1.344.25a1 1 0 0 1-.015-.187c0-.133.07-.227.219-.282l1.468-.593h.454v5.234l1.078.172q.14.016.14.11-.002.08-.11.296H.86v-.078q0-.311.282-.36Zm0 0"/><path id="g" d="m.422-.453 1.516-1.734q.874-1.015.875-2c0-.833-.305-1.25-.907-1.25q-.345 0-.703.187a3.3 3.3 0 0 0-.125.875q-.11.017-.203.016-.422 0-.422-.344 0-.545.422-.875.42-.342 1.156-.344.715 0 1.172.422.451.408.453 1.156 0 .675-.422 1.36-.268.44-.906 1.125L1.344-.797v.016h2.031l.188-.781a.5.5 0 0 1 .187-.032q.234.002.234.344c0 .242-.03.656-.093 1.25H.5Zm0 0"/><path id="h" d="M1.39-3.156c1.008-.114 1.516-.516 1.516-1.203Q2.905-5.438 2-5.437q-.41.002-.703.203-.11.362-.11.812a.7.7 0 0 1-.218.031c-.281 0-.422-.117-.422-.359q-.001-.516.437-.844.45-.328 1.188-.328.714 0 1.125.375.406.375.406 1.031 0 .628-.422 1.016-.28.284-.89.484V-3q.702.11 1.093.484c.258.243.391.547.391.922q-.001.738-.547 1.219Q2.78.11 1.891.109C1.41.11 1.05.012.813-.17Q.53-.374.53-.672q0-.406.39-.548c.102.23.204.399.298.5q.293.328.828.328c.664 0 1-.351 1-1.062 0-.738-.555-1.149-1.656-1.234Zm0 0"/><path id="i" d="m.125-1.984 2.531-3.797.672-.063v3.64h.75l-.047.688h-.703v1.032l.61.125q.123.017.124.093 0 .048-.093.266H1.906v-.078q0-.246.297-.328l.39-.078v-1.032H.157Zm.734-.22h1.735V-4.89h-.016L.86-2.219Zm0 0"/><path id="j" d="M1.125-5.812h2.563l-.063.78H1.531l-.125 1.407q1.296.066 1.875.547c.364.305.547.765.547 1.39 0 .493-.18.915-.531 1.266q-.534.533-1.39.531Q1.185.108.827-.156a.61.61 0 0 1-.281-.516q0-.405.39-.547.171.376.282.5.31.328.843.328.514 0 .829-.328c.195-.207.297-.476.297-.812q0-.732-.563-1.047-.55-.328-1.781-.328Zm0 0"/><path id="k" d="M3.703-4.766a1.04 1.04 0 0 0-.328-.421 1.24 1.24 0 0 0-.734-.235q-1.378 0-1.485 2.344a1.95 1.95 0 0 1 1.219-.406q.762.002 1.219.39c.344.274.515.688.515 1.25q-.001.798-.5 1.36c-.355.398-.808.593-1.359.593-.625 0-1.102-.257-1.422-.78Q.36-1.407.36-2.72.357-3.966.953-4.875c.445-.695 1.063-1.047 1.844-1.047q.622 0 .969.219.328.205.328.469c0 .242-.133.398-.39.468M1.156-2.625q.029 1.127.344 1.703.31.533.813.531.451.001.734-.343.28-.358.281-1.032-.002-1.202-1-1.203-.75.002-1.172.344m0 0"/><clipPath id="a"><path d="M.27 33H30v41H.27Zm0 0"/></clipPath><clipPath id="b"><path d="M.27 44H2v19H.27Zm0 0"/></clipPath><clipPath id="c"><path d="M197 0h29.402v30H197Zm0 0"/></clipPath><clipPath id="d"><path d="M67 77h27v26.355H67Zm0 0"/></clipPath></defs><g clip-path="url(#a)"><path fill="none" stroke="#000" stroke-miterlimit="10" stroke-width=".7945293" d="M9.484 44.496a8.82 8.82 0 1 0 .001 17.641 8.82 8.82 0 0 0 0-17.64Zm0 0"/></g><g clip-path="url(#b)"><path fill="none" stroke="#000" stroke-miterlimit="10" stroke-width=".7945293" d="M.664 62.137v-17.64"/></g><path fill="none" stroke="#000" stroke-miterlimit="10" stroke-width=".39776310000000004" d="M18.305 53.316h6.3m0 0h6.301"/><path fill="none" stroke="#000" stroke-miterlimit="10" stroke-width=".7945293" d="M30.906 40.969h24.696v24.695H30.906Zm0 0"/><path fill="none" stroke="#000" stroke-miterlimit="10" stroke-width=".39776310000000004" d="m34.61 43.809 17.288 9.507-17.289 9.508ZM55.602 53.316h6.3m0 0h6.301"/><path fill="none" stroke="#000" stroke-miterlimit="10" stroke-width=".7945293" d="M68.203 40.969h24.695v24.695H68.203Zm0 0"/><path fill="none" stroke="#000" stroke-miterlimit="10" stroke-width=".39776310000000004" d="M89.191 53.316c0-4.773-3.867-8.644-8.64-8.644a8.646 8.646 0 0 0 0 17.289c4.773 0 8.64-3.871 8.64-8.645ZM74.438 47.203 86.66 59.43m0-12.227L74.438 59.43M92.898 53.316H99.2m0 0h6.297"/><path fill="none" stroke="#000" stroke-miterlimit="10" stroke-width=".7945293" d="M105.496 40.969h24.7v24.695h-24.7Zm0 0"/><path fill="none" stroke="#000" stroke-miterlimit="10" stroke-width=".39776310000000004" d="M111.672 47.14c1.008-1.578 1.969-3.085 3.086-3.085s2.082 1.507 3.09 3.086c1.004 1.582 1.968 3.09 3.086 3.09s2.078-1.508 3.086-3.09m-4.32-1.852-3.708 3.707M111.672 53.316c1.008-1.582 1.969-3.086 3.086-3.086s2.082 1.504 3.09 3.086c1.004 1.582 1.968 3.086 3.086 3.086s2.078-1.504 3.086-3.086M111.672 59.492c1.008-1.582 1.969-3.09 3.086-3.09s2.082 1.508 3.09 3.09c1.004 1.578 1.968 3.086 3.086 3.086s2.078-1.508 3.086-3.086m-4.32-1.855-3.708 3.707M130.195 53.316h6.297m0 0h6.301"/><path fill="none" stroke="#000" stroke-miterlimit="10" stroke-width=".7945293" d="M142.793 40.969h24.695v24.695h-24.695Zm0 0"/><path fill="none" stroke="#000" stroke-miterlimit="10" stroke-width=".39776310000000004" d="m146.5 43.809 17.285 9.507-17.285 9.508ZM167.488 53.316h6.301m0 0h6.3"/><path fill="none" stroke="#000" stroke-miterlimit="10" stroke-width=".7945293" d="M180.09 40.969h24.695v24.695H180.09Zm0 0"/><path fill="none" stroke="#000" stroke-miterlimit="10" stroke-width=".39776310000000004" d="M186.266 47.14c1.004-1.578 1.968-3.085 3.086-3.085s2.078 1.507 3.086 3.086c1.007 1.582 1.968 3.09 3.085 3.09 1.118 0 2.082-1.508 3.09-3.09m-4.324-1.852-3.703 3.707M186.266 53.316c1.004-1.582 1.968-3.086 3.086-3.086s2.078 1.504 3.086 3.086c1.007 1.582 1.968 3.086 3.085 3.086 1.118 0 2.082-1.504 3.09-3.086m-4.324-1.851-3.703 3.703M186.266 59.492c1.004-1.582 1.968-3.09 3.086-3.09s2.078 1.508 3.086 3.09c1.007 1.578 1.968 3.086 3.085 3.086 1.118 0 2.082-1.508 3.09-3.086M204.785 53.316h6.301m0 0h6.3M217.188 53.316V.395"/><g clip-path="url(#c)"><path fill="none" stroke="#000" stroke-miterlimit="10" stroke-width=".7945293" d="M217.188.395h8.82l-8.82 17.64-8.82-17.64h8.82"/></g><path fill="none" stroke="#000" stroke-miterlimit="10" stroke-width=".39776310000000004" d="M80.55 65.664v6.3m0 0v6.302"/><g clip-path="url(#d)"><path fill="none" stroke="#000" stroke-miterlimit="10" stroke-width=".7945293" d="M68.203 78.266h24.695v24.695H68.203Zm0 0"/></g><path fill="none" stroke="#000" stroke-miterlimit="10" stroke-width=".39776310000000004" d="M82.094 87.523c.504-.789.984-1.543 1.543-1.543s1.039.754 1.543 1.543c.504.793.984 1.547 1.543 1.547s1.043-.754 1.543-1.547M82.094 90.613c.504-.793.984-1.543 1.543-1.543s1.039.75 1.543 1.543c.504.79.984 1.543 1.543 1.543s1.043-.754 1.543-1.543M82.094 93.7c.504-.79.984-1.544 1.543-1.544s1.039.754 1.543 1.543c.504.79.984 1.543 1.543 1.543s1.043-.754 1.543-1.543"/><use xlink:href="#e" x="71.926" y="93.696"/><use xlink:href="#f" x="41.019" y="37.791"/><use xlink:href="#g" x="78.315" y="37.791"/><use xlink:href="#h" x="60.554" y="93.517"/><use xlink:href="#i" x="115.61" y="37.791"/><use xlink:href="#j" x="152.905" y="37.684"/><use xlink:href="#k" x="190.201" y="37.684"/></svg>