<svg xmlns="http://www.w3.org/2000/svg" width="232.383" height="76.198"><defs><clipPath id="a"><path d="M.906 0H33v32H.906Zm0 0"/></clipPath><clipPath id="b"><path d="M22 57h26v18.406H22Zm0 0"/></clipPath><clipPath id="c"><path d="M65 43h32v32.406H65Zm0 0"/></clipPath><clipPath id="d"><path d="M111 41h33v34.406h-33Zm0 0"/></clipPath><clipPath id="e"><path d="M158 43h32v32.406h-32Zm0 0"/></clipPath><clipPath id="f"><path d="M197 32h33.867v43.406H197Zm0 0"/></clipPath></defs><path fill="none" stroke="#000" stroke-miterlimit="10" stroke-width=".39484242" d="M11.312 59.3h9.5m27.489 0h18.996m27.492 0h18.992m27.492 0h18.993m27.492 0h15.308m0 0h5.809M11.117 59.3V.39"/><g clip-path="url(#a)"><path fill="none" stroke="#000" stroke-miterlimit="10" stroke-width=".78869526" d="M11.117.39h9.817l-9.817 19.637L1.301.391h9.816"/></g><path fill="none" stroke="#000" stroke-miterlimit="10" stroke-width=".78869526" d="M20.812 45.555h27.489v27.492H20.812Zm0 0"/><path fill="none" stroke="#000" stroke-miterlimit="10" stroke-width=".39484242" d="M27.684 52.426c1.12-1.758 2.191-3.434 3.437-3.434 1.242 0 2.316 1.676 3.438 3.434 1.117 1.762 2.191 3.437 3.433 3.437 1.246 0 2.317-1.675 3.438-3.437m-4.813-2.059-4.12 4.121M27.684 59.3c1.12-1.76 2.191-3.437 3.437-3.437 1.242 0 2.316 1.676 3.438 3.438 1.117 1.758 2.191 3.437 3.433 3.437 1.246 0 2.317-1.68 3.438-3.437"/><g clip-path="url(#b)"><path fill="none" stroke="#000" stroke-miterlimit="10" stroke-width=".39484242" d="M27.684 66.172c1.12-1.758 2.191-3.434 3.437-3.434 1.242 0 2.316 1.676 3.438 3.434 1.117 1.762 2.191 3.437 3.433 3.437 1.246 0 2.317-1.675 3.438-3.437m-4.813-2.063-4.12 4.125"/></g><path fill="none" stroke="#000" stroke-miterlimit="10" stroke-width=".78869526" d="M67.297 45.555h27.492v27.492H67.297Zm0 0"/><g clip-path="url(#c)"><path fill="none" stroke="#000" stroke-miterlimit="10" stroke-width=".39484242" d="M71.422 48.715 90.664 59.3 71.422 69.883Zm0 0"/></g><path fill="none" stroke="#000" stroke-miterlimit="10" stroke-width=".78869526" d="M113.781 45.555h27.492v27.492h-27.492Zm0 0"/><path fill="none" stroke="#000" stroke-miterlimit="10" stroke-width=".31567602" d="M117.219 59.3h20.617"/><g clip-path="url(#d)"><path fill="none" stroke="#000" stroke-miterlimit="10" stroke-width=".63135204" d="m134.398 59.3-13.742-8.589v17.18Zm0 0"/></g><path fill="none" stroke="#000" stroke-miterlimit="10" stroke-width=".63135204" d="M134.398 67.89V50.712"/><path fill="none" stroke="#000" stroke-miterlimit="10" stroke-width=".78869526" d="M160.266 45.555h27.492v27.492h-27.492Zm0 0"/><g clip-path="url(#e)"><path fill="none" stroke="#000" stroke-miterlimit="10" stroke-width=".39484242" d="M164.39 48.715 183.634 59.3 164.39 69.883Zm0 0"/></g><g clip-path="url(#f)"><path fill="none" stroke="#000" stroke-miterlimit="10" stroke-width=".78869526" d="M208.875 75.008V43.59h12.176v31.418Zm12.176-23.563 9.425-4.71v25.132l-9.425-4.71Zm0 0"/></g></svg>