<svg xmlns="http://www.w3.org/2000/svg" xmlns:xlink="http://www.w3.org/1999/xlink" width="226.835" height="103.678"><defs><clipPath id="a"><path d="M.27 33H30v41H.27Zm0 0"/></clipPath><clipPath id="b"><path d="M.27 44H2v19H.27Zm0 0"/></clipPath><clipPath id="c"><path d="M197 0h29.402v30H197Zm0 0"/></clipPath><clipPath id="d"><path d="M67 77h27v26.355H67Zm0 0"/></clipPath><path id="e" d="M5.86-2.906a.2.2 0 0 1 .015.078q0 .236-.312.312l-.204.047v1.89C4.867-.116 4.15.11 3.203.11q-1.207 0-1.937-.765Q.469-1.5.469-3.062q0-1.606 1.031-2.485.855-.733 2.11-.734.59.002 1.078.156.044.019.593.219.047.657.047.922-.001.408-.266.406a.44.44 0 0 1-.203-.047l-.187-.86q-.44-.264-1.11-.265-.953.002-1.562.594-.703.702-.703 2.015c0 .875.195 1.555.594 2.032.375.46.882.687 1.53.687.438 0 .821-.07 1.157-.219v-1.796l-.547-.126q-.127-.011-.125-.093 0-.076.094-.25Zm0 0"/></defs><g clip-path="url(#a)"><path fill="none" stroke="#000" stroke-miterlimit="10" stroke-width=".7945293" d="M9.484 44.496a8.82 8.82 0 1 0 .001 17.641 8.82 8.82 0 0 0 0-17.64Zm0 0"/></g><g clip-path="url(#b)"><path fill="none" stroke="#000" stroke-miterlimit="10" stroke-width=".7945293" d="M.664 62.137v-17.64"/></g><path fill="none" stroke="#000" stroke-miterlimit="10" stroke-width=".39776310000000004" d="M18.305 53.316h6.3m0 0h6.301"/><path fill="none" stroke="#000" stroke-miterlimit="10" stroke-width=".7945293" d="M30.906 40.969h24.696v24.695H30.906Zm0 0"/><path fill="none" stroke="#000" stroke-miterlimit="10" stroke-width=".39776310000000004" d="m34.61 43.809 17.288 9.507-17.289 9.508ZM55.602 53.316h6.3m0 0h6.301"/><path fill="none" stroke="#000" stroke-miterlimit="10" stroke-width=".7945293" d="M68.203 40.969h24.695v24.695H68.203Zm0 0"/><path fill="none" stroke="#000" stroke-miterlimit="10" stroke-width=".39776310000000004" d="M89.191 53.316c0-4.773-3.867-8.644-8.64-8.644a8.646 8.646 0 0 0 0 17.289c4.773 0 8.64-3.871 8.64-8.645ZM74.438 47.203 86.66 59.43m0-12.227L74.438 59.43M92.898 53.316H99.2m0 0h6.297"/><path fill="none" stroke="#000" stroke-miterlimit="10" stroke-width=".7945293" d="M105.496 40.969h24.7v24.695h-24.7Zm0 0"/><path fill="none" stroke="#000" stroke-miterlimit="10" stroke-width=".39776310000000004" d="M111.672 47.14c1.008-1.578 1.969-3.085 3.086-3.085s2.082 1.507 3.09 3.086c1.004 1.582 1.968 3.09 3.086 3.09s2.078-1.508 3.086-3.09m-4.32-1.852-3.708 3.707M111.672 53.316c1.008-1.582 1.969-3.086 3.086-3.086s2.082 1.504 3.09 3.086c1.004 1.582 1.968 3.086 3.086 3.086s2.078-1.504 3.086-3.086M111.672 59.492c1.008-1.582 1.969-3.09 3.086-3.09s2.082 1.508 3.09 3.09c1.004 1.578 1.968 3.086 3.086 3.086s2.078-1.508 3.086-3.086m-4.32-1.855-3.708 3.707M130.195 53.316h6.297m0 0h6.301"/><path fill="none" stroke="#000" stroke-miterlimit="10" stroke-width=".7945293" d="M142.793 40.969h24.695v24.695h-24.695Zm0 0"/><path fill="none" stroke="#000" stroke-miterlimit="10" stroke-width=".39776310000000004" d="m146.5 43.809 17.285 9.507-17.285 9.508ZM167.488 53.316h6.301m0 0h6.3"/><path fill="none" stroke="#000" stroke-miterlimit="10" stroke-width=".7945293" d="M180.09 40.969h24.695v24.695H180.09Zm0 0"/><path fill="none" stroke="#000" stroke-miterlimit="10" stroke-width=".39776310000000004" d="M186.266 47.14c1.004-1.578 1.968-3.085 3.086-3.085s2.078 1.507 3.086 3.086c1.007 1.582 1.968 3.09 3.085 3.09 1.118 0 2.082-1.508 3.09-3.09m-4.324-1.852-3.703 3.707M186.266 53.316c1.004-1.582 1.968-3.086 3.086-3.086s2.078 1.504 3.086 3.086c1.007 1.582 1.968 3.086 3.085 3.086 1.118 0 2.082-1.504 3.09-3.086m-4.324-1.851-3.703 3.703M186.266 59.492c1.004-1.582 1.968-3.09 3.086-3.09s2.078 1.508 3.086 3.09c1.007 1.578 1.968 3.086 3.085 3.086 1.118 0 2.082-1.508 3.09-3.086M204.785 53.316h6.301m0 0h6.3M217.188 53.316V.395"/><g clip-path="url(#c)"><path fill="none" stroke="#000" stroke-miterlimit="10" stroke-width=".7945293" d="M217.188.395h8.82l-8.82 17.64-8.82-17.64h8.82"/></g><path fill="none" stroke="#000" stroke-miterlimit="10" stroke-width=".39776310000000004" d="M80.55 65.664v6.3m0 0v6.302"/><g clip-path="url(#d)"><path fill="none" stroke="#000" stroke-miterlimit="10" stroke-width=".7945293" d="M68.203 78.266h24.695v24.695H68.203Zm0 0"/></g><path fill="none" stroke="#000" stroke-miterlimit="10" stroke-width=".39776310000000004" d="M82.094 87.523c.504-.789.984-1.543 1.543-1.543s1.039.754 1.543 1.543c.504.793.984 1.547 1.543 1.547s1.043-.754 1.543-1.547M82.094 90.613c.504-.793.984-1.543 1.543-1.543s1.039.75 1.543 1.543c.504.79.984 1.543 1.543 1.543s1.043-.754 1.543-1.543M82.094 93.7c.504-.79.984-1.544 1.543-1.544s1.039.754 1.543 1.543c.504.79.984 1.543 1.543 1.543s1.043-.754 1.543-1.543"/><use xlink:href="#e" x="71.926" y="93.696"/></svg>