<svg xmlns="http://www.w3.org/2000/svg" xmlns:xlink="http://www.w3.org/1999/xlink" width="226.815" height="132.475"><defs><path id="c" d="M3.266-.39q.92 0 1.453-.72c.351-.476.531-1.132.531-1.968q0-1.248-.562-1.969-.552-.733-1.454-.734-.907.001-1.421.734-.516.72-.516 1.969 0 1.254.531 1.969.528.719 1.438.718m-.047.5q-1.22 0-1.969-.813Q.467-1.56.469-3.078q0-1.512.844-2.375.761-.827 2.015-.828 1.247 0 1.985.828c.507.562.765 1.355.765 2.375q0 1.501-.828 2.375-.784.813-2.031.812m0 0"/><path id="d" d="M.906-.469v-3.328l-.64-.094a.1.1 0 0 1-.016-.062q0-.246.328-.281l1.063-.11-.063.75h.031c.352-.531.735-.797 1.141-.797.395 0 .594.149.594.438q0 .188-.14.375a1.5 1.5 0 0 0-.595-.14q-.61 0-.968.515V-.47l.625.125q.124.017.125.11A.35.35 0 0 1 2.297 0H.312a.1.1 0 0 1-.015-.062c0-.133.094-.235.281-.297Zm0 0"/><path id="e" d="m.86-4.297.171-1.187h.532v1.187H2.89l-.079.469h-1.25v2.75q0 .674.579.672.435 0 .734-.235.062.095.063.266 0 .112-.235.266-.33.217-.828.218Q.827.11.828-.92v-2.907H.156a.1.1 0 0 1-.015-.063q0-.216.28-.296Zm0 0"/><path id="g" d="M4.5-6.172q.062.751.063 1.063c0 .261-.086.39-.25.39a.5.5 0 0 1-.188-.031l-.219-.937H1.875v2.437h1.984v.5H1.875v2.266l.703.125q.124.017.125.093 0 .048-.094.266H.422a.16.16 0 0 1-.016-.078Q.404-.324.72-.406l.375-.078v-5.203l-.547-.125c-.086-.02-.125-.055-.125-.11q0-.075.094-.25Zm0 0"/><path id="h" d="M1.156-2.172q.012.845.375 1.297c.239.305.578.453 1.016.453q.59 0 1.094-.422.106.064.125.25-.001.205-.407.438Q2.89.109 2.25.109 1.434.111.953-.39.391-.965.391-2.062.39-3.17.969-3.812c.351-.383.789-.579 1.312-.579q.684.001 1.094.407.359.409.36 1.093 0 .299-.094.72Zm1.032-1.765q-.91.001-1.016 1.343h1.766q.03-.187.03-.375 0-.968-.78-.969m0 0"/><path id="i" d="M.86-.469v-5.468l-.641-.094a.16.16 0 0 1-.016-.078q0-.247.328-.266l1.063-.11v6.016l.531.125q.124.017.125.11A.35.35 0 0 1 2.156 0H.266v-.062c0-.133.086-.235.265-.297Zm0 0"/><path id="j" d="M3.422-.516H3.39Q2.935.11 2.109.11 1.39.11.922-.359.39-.903.39-2.016q0-1.168.703-1.812.609-.563 1.5-.563c.27 0 .523.04.765.11v-1.657l-.656-.093v-.078q0-.247.328-.266l1.047-.11v6l.656.079q.014.047.016.078 0 .252-.328.281l-1 .094Zm-1.094.047q.64 0 1.031-.39v-2.72c-.218-.206-.507-.312-.859-.312-.398 0-.719.149-.969.438q-.39.468-.39 1.312-.001.846.343 1.282.294.39.844.39m0 0"/><path id="k" d="M1-.578q.264.204.656.203c.508 0 .766-.195.766-.594q-.002-.234-.25-.468a5 5 0 0 0-.578-.407q-.534-.327-.75-.562a1.2 1.2 0 0 1-.36-.86c0-.343.133-.613.407-.812q.406-.312 1.015-.313c.395 0 .719.102.969.297q.03.346.031.547c0 .305-.117.453-.344.453a.16.16 0 0 1-.078-.015l-.109-.641a1.13 1.13 0 0 0-.61-.187c-.43 0-.64.171-.64.515 0 .242.164.477.5.703q.469.316.938.61.515.409.515.953 0 .55-.422.906-.41.362-1.078.36C1.128.11.766.022.484-.14a3.7 3.7 0 0 1-.078-.735q0-.436.328-.437.048.002.094.015Zm0 0"/><path id="l" d="M2.656-2.781q0-.591-.172-.86-.175-.28-.609-.28a1.5 1.5 0 0 0-.531.093q-.11.22-.203.781a2 2 0 0 1-.188.016q-.438 0-.437-.39 0-.405.468-.688a1.97 1.97 0 0 1 1.032-.282q1.373 0 1.375 1.5v1.97c0 .335.101.5.312.5q.2 0 .313-.11a.38.38 0 0 1 .093.25c0 .062-.058.133-.171.203a.87.87 0 0 1-.532.156q-.628 0-.687-.61h-.016Q2.28.112 1.47.11.966.11.656-.203.343-.514.344-1.031c0-.438.219-.774.656-1.016.383-.195.86-.297 1.422-.297h.234Zm-.89 2.328q.498 0 .89-.469v-1.031l-.234.016q-1.299.11-1.297.812c0 .45.21.672.64.672m-.547-4.61a.43.43 0 0 1-.437-.453.46.46 0 0 1 .124-.343.43.43 0 0 1 .313-.125c.125 0 .226.043.312.125q.124.128.125.343a.45.45 0 0 1-.125.329.42.42 0 0 1-.312.125m1.515 0a.43.43 0 0 1-.437-.453.46.46 0 0 1 .125-.343.43.43 0 0 1 .312-.125q.186.001.313.125.124.128.125.343a.45.45 0 0 1-.125.329.42.42 0 0 1-.313.125m0 0"/><path id="m" d="M.828-.469v-5.468l-.656-.094a.16.16 0 0 1-.016-.078q0-.247.328-.266l1.063-.11V-2.5h.531l1.203-1.375L2.656-4a.3.3 0 0 1-.015-.078q-.001-.218.25-.219h1.437c.07 0 .11.031.11.094A.5.5 0 0 1 4.375-4l-.516.156L2.594-2.39 4.109-.453l.454.11q.124.015.125.109A.4.4 0 0 1 4.609 0H3.453l-1.5-2.047h-.406v1.594L2-.343q.124.015.125.109A.35.35 0 0 1 2.031 0H.22v-.062c0-.133.086-.235.265-.297Zm0 0"/><path id="o" d="M2.031-.578V-5l-1.344.25a1 1 0 0 1-.015-.187c0-.133.07-.227.219-.282l1.468-.593h.454v5.234l1.078.172q.14.016.14.11-.002.08-.11.296H.86v-.078q0-.311.282-.36Zm0 0"/><path id="p" d="m.422-.453 1.516-1.734q.874-1.015.875-2c0-.833-.305-1.25-.907-1.25q-.345 0-.703.187a3.3 3.3 0 0 0-.125.875q-.11.017-.203.016-.422 0-.422-.344 0-.545.422-.875.42-.342 1.156-.344.715 0 1.172.422.451.408.453 1.156 0 .675-.422 1.36-.268.44-.906 1.125L1.344-.797v.016h2.031l.188-.781a.5.5 0 0 1 .187-.032q.234.002.234.344c0 .242-.03.656-.093 1.25H.5Zm0 0"/><clipPath id="a"><path d="M.355 62h225.918v2H.355Zm0 0"/></clipPath><clipPath id="b"><path d="M221 60h5.273v5H221Zm0 0"/></clipPath><clipPath id="f"><path d="M12 0h2v131.953h-2Zm0 0"/></clipPath><clipPath id="n"><path d="M.355 0h225.918v131.953H.355Zm0 0"/></clipPath></defs><g clip-path="url(#a)"><path fill="none" stroke="#000" stroke-miterlimit="10" stroke-width=".39742395" d="M.555 62.844h225.523"/></g><g clip-path="url(#b)"><path d="M221.879 62.844v1.976l4.2-1.976-4.2-1.977Zm0 0"/></g><use xlink:href="#c" x="209.88" y="72.289"/><use xlink:href="#d" x="216.418" y="72.289"/><use xlink:href="#e" x="219.865" y="72.289"/><g clip-path="url(#f)"><path fill="none" stroke="#000" stroke-miterlimit="10" stroke-width=".39742395" d="M13.082 131.754V.199"/></g><path d="M13.082 4.398h1.977L13.082.2l-1.977 4.2Zm0 0"/><use xlink:href="#g" x="16.259" y="9.858"/><use xlink:href="#h" x="20.679" y="9.858"/><use xlink:href="#i" x="24.841" y="9.858"/><use xlink:href="#j" x="27.333" y="9.858"/><use xlink:href="#k" x="32.263" y="9.858"/><use xlink:href="#e" x="35.719" y="9.858"/><use xlink:href="#l" x="38.756" y="9.858"/><use xlink:href="#d" x="42.926" y="9.858"/><use xlink:href="#m" x="46.374" y="9.858"/><use xlink:href="#h" x="50.875" y="9.858"/><g clip-path="url(#n)"><path fill="none" stroke="#000" stroke-miterlimit="10" stroke-width="1.5877037" d="M13.082 62.844c8.172 25.66 15.988 50.117 25.059 50.117 9.07 0 16.89-24.457 25.058-50.117s15.989-50.117 25.059-50.117 16.89 24.457 25.058 50.117 15.989 50.117 25.059 50.117 16.89-24.457 25.059-50.117c8.168-25.66 15.988-50.117 25.058-50.117s16.89 24.457 25.059 50.117"/></g><path fill="none" stroke="#000" stroke-miterlimit="10" stroke-width=".79385185" d="M67.797 62.844h91.039"/><path stroke="#000" stroke-miterlimit="10" stroke-width=".79385185" d="m63.992 62.844 3.606 2.172v-4.344ZM162.64 62.844l-3.605-2.172v4.344Zm0 0"/><path fill="none" stroke="#000" stroke-miterlimit="10" stroke-width=".79385185" d="M88.258 58.246V17.324"/><path stroke="#000" stroke-miterlimit="10" stroke-width=".79385185" d="m88.258 62.05 2.172-3.605h-4.344ZM88.258 13.52l-2.172 3.605h4.344Zm0 0"/><path fill="#FFF" stroke="#000" stroke-miterlimit="10" stroke-width="1.1912757999999999" d="M94.707 37.785a6.45 6.45 0 0 0-6.45-6.45 6.45 6.45 0 0 0-6.448 6.45 6.45 6.45 0 0 0 6.449 6.45 6.45 6.45 0 0 0 6.45-6.45Zm0 0"/><use xlink:href="#o" x="86.024" y="40.689"/><path fill="#FFF" stroke="#000" stroke-miterlimit="10" stroke-width="1.1912757999999999" d="M144.863 62.844a6.487 6.487 0 1 0-12.973.004 6.487 6.487 0 0 0 12.973-.004Zm0 0"/><use xlink:href="#p" x="136.14" y="65.8"/></svg>