<svg xmlns="http://www.w3.org/2000/svg" xmlns:xlink="http://www.w3.org/1999/xlink" width="115.47" height="70.155"><defs><clipPath id="a"><path d="M.426 46H107v1H.426Zm0 0"/></clipPath><clipPath id="c"><path d="M5 11h1v58.32H5Zm0 0"/></clipPath><clipPath id="e"><path d="M.426 1H114.52v68H.426Zm0 0"/></clipPath><path id="b" d="m.938-3.797-.485.016c-.156.015-.219.094-.234.156a1 1 0 0 0-.047.156c0 .016.031.016.062.016h.61L.313-1.047C.25-.766.188-.484.188-.313c0 .313.156.407.437.407.39 0 .984-.375 1.281-.922C1.875-.938 1.813-1 1.703-1c-.406.469-.562.563-.703.563-.031 0-.11-.016-.11-.125 0-.079.016-.266.094-.563L1.5-3.453h.875c.11-.047.188-.281.094-.344h-.89l.093-.406c.031-.172.125-.422.125-.531 0-.141-.078-.235-.36-.235-.328 0-.296.39-.39.719Zm0 0"/><path id="d" d="M1.813.094c1.734 0 2.343-1.125 2.656-2.703l.468-2.438c.047-.25.188-.39.563-.406l.219-.016c.047 0 .062-.031.078-.078l.031-.172-.016-.015c-.406.015-.75.015-.937.015-.203 0-.531 0-.937-.015l-.016.015-.031.172c-.016.047.03.078.046.078l.235.016c.281.016.406.094.406.281 0 .031-.016.078-.031.125l-.5 2.594C3.859-1.47 3.5-.281 2.063-.281c-.422 0-.72-.172-.922-.438-.188-.234-.25-.515-.25-.797 0-.28.062-.578.109-.875l.531-2.671c.047-.25.188-.375.547-.391l.219-.016c.047 0 .062-.031.078-.078l.031-.172-.015-.015c-.391.015-.75.015-1.094.015-.328 0-.672 0-1.063-.015l-.03.015-.032.172c0 .047.016.078.062.078l.22.016c.265.016.405.078.405.266 0 .046-.015.078-.015.125L.25-2.094c-.031.235-.062.438-.062.625C.188-.187 1.14.094 1.813.094m0 0"/></defs><g clip-path="url(#a)"><path fill="none" stroke="#000" stroke-miterlimit="10" stroke-width=".3942519" d="M1.16 46.242h105.25"/></g><path d="M102.242 46.242v1.961l4.168-1.96-4.168-1.962Zm0 0"/><use xlink:href="#b" x="109.557" y="48.684"/><g clip-path="url(#c)"><path fill="none" stroke="#000" stroke-miterlimit="10" stroke-width=".3942519" d="M5.734 69.125V11.922"/></g><path d="M5.734 16.09h1.961l-1.96-4.168-1.962 4.168Zm0 0"/><use xlink:href="#d" x="3.378" y="8.684"/><g clip-path="url(#e)"><path fill="none" stroke="#000" stroke-miterlimit="10" stroke-width="1.5750314" d="m5.734 46.242 45.762-22.879v22.88l45.762-22.88v22.88"/></g></svg>