<svg xmlns="http://www.w3.org/2000/svg" width="112.993" height="6.749"><defs><clipPath id="a"><path d="M2.023 5h108.942v1.508H2.023Zm0 0"/></clipPath><clipPath id="b"><path d="M40 0h33v6.508H40Zm0 0"/></clipPath></defs><g clip-path="url(#a)"><path fill="none" stroke="#000" stroke-miterlimit="10" stroke-width=".38469186" d="M2.215 5.969h38.973m30.609 0h38.976"/></g><g clip-path="url(#b)"><path fill="none" stroke="#000" stroke-linejoin="bevel" stroke-miterlimit="10" stroke-width=".76841958" d="M40.805 6.121c0-3.168 1.754-5.738 3.922-5.738s3.921 2.57 3.921 5.738c0-3.168 1.758-5.738 3.922-5.738 2.168 0 3.922 2.57 3.922 5.738 0-3.168 1.758-5.738 3.922-5.738 2.168 0 3.926 2.57 3.926 5.738 0-3.168 1.754-5.738 3.922-5.738 2.164 0 3.922 2.57 3.922 5.738"/></g></svg>