<svg xmlns="http://www.w3.org/2000/svg" width="219.05" height="130.756"><defs><clipPath id="a"><path d="M92 .16h40V32H92Zm0 0"/></clipPath><clipPath id="b"><path d="M119 .16h2V21h-2Zm0 0"/></clipPath><clipPath id="c"><path d="M12 10h200v120.352H12Zm0 0"/></clipPath><clipPath id="d"><path d="M205 54h13.105v33H205Zm0 0"/></clipPath></defs><path fill="none" stroke="#000" stroke-miterlimit="10" stroke-width=".39727632" d="M72.11 10.437h32.003m15.805 0h32.004"/><g clip-path="url(#a)"><path fill="none" stroke="#000" stroke-miterlimit="10" stroke-width=".7935569600000001" d="M119.918 10.437 104.113.56v19.757Zm0 0"/></g><path fill="none" stroke="#000" stroke-miterlimit="10" stroke-width=".39727632" d="M119.918 10.437h-15.805"/><g clip-path="url(#b)"><path fill="none" stroke="#000" stroke-miterlimit="10" stroke-width=".7935569600000001" d="M119.918 20.316V.56"/></g><g clip-path="url(#c)"><path fill="none" stroke="#000" stroke-miterlimit="10" stroke-width=".39727632" d="M72.11 10.437H12.25v53.93m0 11.856v53.933h199.531V86.102m0-31.614v-44.05h-59.86"/></g><path fill="none" stroke="#000" stroke-miterlimit="10" stroke-width=".39727632" d="M12.25 72.25v3.973m0-7.883v-3.973"/><path fill="none" stroke="#000" stroke-miterlimit="10" stroke-width=".7935569600000001" d="M24.105 68.34H.398"/><path fill="none" stroke="#000" stroke-miterlimit="10" stroke-width="2.38067088" d="M18.18 72.25H6.324"/><g clip-path="url(#d)"><path fill="none" stroke="#000" stroke-miterlimit="10" stroke-width=".7935569600000001" d="M217.711 54.488v31.614h-11.855V54.488Zm0 0"/></g></svg>