<svg xmlns="http://www.w3.org/2000/svg" xmlns:xlink="http://www.w3.org/1999/xlink" width="115.47" height="70.753"><defs><path id="a" d="m.938-3.828-.47.031c-.171 0-.234.078-.25.14a1 1 0 0 0-.046.157c0 .016.031.016.062.016H.86L.313-1.047C.25-.766.188-.484.188-.328c0 .328.156.422.437.422.406 0 .984-.375 1.297-.922C1.89-.953 1.828-1 1.719-1c-.407.469-.563.547-.703.547C.984-.453.89-.47.89-.578c0-.078.03-.25.093-.563l.532-2.343h.875c.109-.047.187-.266.093-.344h-.89l.093-.406c.032-.172.11-.422.11-.532 0-.156-.063-.234-.344-.234-.328 0-.312.39-.406.719Zm0 0"/><path id="b" d="M1.813.094c1.765 0 2.375-1.14 2.687-2.719l.484-2.453c.032-.25.188-.39.547-.422l.219-.016c.047 0 .078-.03.078-.062l.047-.172-.016-.016c-.406 0-.75.016-.953.016s-.531-.016-.937-.016l-.016.016-.031.172c-.016.031.015.062.047.062l.234.016c.281.016.406.11.406.297 0 .031-.015.078-.03.125l-.5 2.61c-.204 1-.548 2.187-2.016 2.187-.407 0-.72-.188-.922-.438-.188-.25-.235-.515-.235-.812 0-.282.047-.578.11-.875L1.53-5.11c.063-.25.203-.36.563-.391l.219-.016c.046 0 .062-.03.078-.062l.03-.172-.015-.016c-.406 0-.75.016-1.094.016-.343 0-.671-.016-1.078-.016l-.03.016-.032.172c0 .031.031.062.062.062l.22.016c.28.016.405.094.405.281 0 .032 0 .078-.015.11l-.578 3a3 3 0 0 0-.063.625c0 1.28.953 1.578 1.61 1.578m0 0"/><clipPath id="c"><path d="M0 1h114.941v69.469H0Zm0 0"/></clipPath></defs><path fill="none" stroke="#000" stroke-miterlimit="10" stroke-width=".39717657000000006" d="M.738 46.625H106.77"/><path d="M102.574 46.625v1.977l4.196-1.977-4.196-1.977Zm0 0"/><use xlink:href="#a" x="109.941" y="49.085"/><path fill="none" stroke="#000" stroke-miterlimit="10" stroke-width=".39717657000000006" d="M5.348 69.676V12.05"/><path d="M5.348 16.246h1.976l-1.976-4.195-1.973 4.195Zm0 0"/><use xlink:href="#b" x="2.974" y="8.789"/><g clip-path="url(#c)"><path fill="none" stroke="#000" stroke-miterlimit="10" stroke-width="1.5867154200000002" d="m5.348 46.625 23.05-23.05 46.102 46.1 23.05-23.05"/></g></svg>