<svg xmlns="http://www.w3.org/2000/svg" xmlns:xlink="http://www.w3.org/1999/xlink" width="226.771" height="174.196"><defs><clipPath id="a"><path d="M.406 81H25v2H.406Zm0 0"/></clipPath><clipPath id="b"><path d="M86 138h47v35.395H86Zm0 0"/></clipPath><clipPath id="d"><path d="M185 64h41.137v39H185Zm0 0"/></clipPath><clipPath id="e"><path d="M210 74h16.137v18H210Zm0 0"/></clipPath><clipPath id="f"><path d="M216 79h10.137v15H216Zm0 0"/></clipPath><clipPath id="g"><path d="M208 79h18.137v18H208Zm0 0"/></clipPath><clipPath id="h"><path d="M214 84h12.137v15H214Zm0 0"/></clipPath><path id="c" d="M5.828-6.156v.078q-.002.252-.297.328l-.234.047L3.28 0h-.734L.453-5.687l-.375-.11q-.124-.014-.125-.11c0-.05.035-.132.094-.25H2.03c.008.024.016.048.016.079q-.001.253-.313.312l-.375.079L3-.907h.031L4.72-5.702l-.688-.11q-.127-.011-.125-.093 0-.075.094-.25Zm0 0"/></defs><path fill="none" stroke="#000" stroke-miterlimit="10" stroke-width=".39716859000000004" d="M12.656 6.32V77.81m0 11.851v71.488h38.707m0 0H97.57m23.703 0h46.208m0 0h38.707V91.637m0-15.801V6.32h-80.965m-31.602 0H12.656M12.656 85.691v3.97m0-7.88V77.81"/><g clip-path="url(#a)"><path fill="none" stroke="#000" stroke-miterlimit="10" stroke-width=".7933417700000001" d="M24.504 81.781H.804"/></g><path fill="none" stroke="#000" stroke-miterlimit="10" stroke-width="2.38002531" d="M18.578 85.691H6.73"/><g clip-path="url(#b)"><path fill="none" stroke="#000" stroke-miterlimit="10" stroke-width=".7933417700000001" d="M109.422 149.297c-6.547 0-11.852 5.309-11.852 11.851 0 6.547 5.305 11.852 11.852 11.852s11.851-5.305 11.851-11.852c0-6.542-5.304-11.851-11.851-11.851Zm0 0"/></g><use xlink:href="#c" x="106.529" y="164.227"/><g clip-path="url(#d)"><path fill="none" stroke="#000" stroke-miterlimit="10" stroke-width=".7933417700000001" d="m206.188 91.637 9.878-15.801h-19.753Zm0 0"/></g><path fill="none" stroke="#000" stroke-miterlimit="10" stroke-width=".39716859000000004" d="M206.188 91.637V75.836"/><path fill="none" stroke="#000" stroke-miterlimit="10" stroke-width=".7933417700000001" d="M196.313 91.637h19.753"/><g clip-path="url(#e)"><path fill="none" stroke="#000" stroke-miterlimit="10" stroke-width=".39716859000000004" d="m216.066 80.574 7.176 5.742"/></g><path d="m225.633 88.227-1.219-3.22-1.094 1.372-1.097 1.371Zm0 0"/><g clip-path="url(#f)"><path fill="none" stroke="#000" stroke-miterlimit="10" stroke-width=".39714066000000003" d="m225.633 88.227-1.219-3.22-1.094 1.372-1.097 1.371Zm0 0"/></g><g clip-path="url(#g)"><path fill="none" stroke="#000" stroke-miterlimit="10" stroke-width=".39716859000000004" d="m214.09 85.316 7.176 5.743"/></g><path d="m223.656 92.969-1.215-3.219-1.097 1.371-1.098 1.367Zm0 0"/><g clip-path="url(#h)"><path fill="none" stroke="#000" stroke-miterlimit="10" stroke-width=".39714066000000003" d="m223.656 92.969-1.215-3.219-1.097 1.371-1.098 1.367Zm0 0"/></g><path fill="none" stroke="#000" stroke-miterlimit="10" stroke-width=".7933417700000001" d="M93.621.395h31.602v11.851H93.62Zm0 0"/></svg>