<svg xmlns="http://www.w3.org/2000/svg" xmlns:xlink="http://www.w3.org/1999/xlink" width="226.771" height="163.678"><defs><clipPath id="b"><path d="M59 159h4v4.355h-4Zm0 0"/></clipPath><clipPath id="c"><path d="M53 154h16v9.355H53Zm0 0"/></clipPath><clipPath id="d"><path d="M.11 81H25v2H.11Zm0 0"/></clipPath><clipPath id="e"><path d="M185 64h41.434v40H185Zm0 0"/></clipPath><clipPath id="f"><path d="M210 75h16.434v18H210Zm0 0"/></clipPath><clipPath id="g"><path d="M216 79h10.434v16H216Zm0 0"/></clipPath><clipPath id="h"><path d="M208 79h18.434v18H208Zm0 0"/></clipPath><clipPath id="i"><path d="M214 84h12.434v15H214Zm0 0"/></clipPath><path id="a" d="M5.844-6.172c.008.024.015.047.015.078q0 .253-.312.313l-.234.062L3.28 0h-.734L.453-5.719l-.375-.093q-.124-.029-.125-.11c0-.05.035-.133.094-.25h2v.078c0 .157-.102.262-.297.313l-.375.078 1.64 4.797h.016L4.734-5.72l-.687-.11q-.127-.029-.125-.093 0-.075.094-.25Zm0 0"/></defs><path fill="none" stroke="#000" stroke-miterlimit="10" stroke-width=".39821796000000004" d="M60.898 6.34v65.734m0 23.766v65.734"/><path fill="none" stroke="#000" stroke-miterlimit="10" stroke-width=".79543788" d="M72.781 83.957c0-6.562-5.32-11.883-11.883-11.883s-11.882 5.32-11.882 11.883 5.32 11.883 11.882 11.883c6.563 0 11.883-5.32 11.883-11.883Zm0 0"/><use xlink:href="#a" x="57.999" y="87.044"/><path stroke="#000" stroke-miterlimit="10" stroke-width=".39821796000000004" d="M62.484 6.34a1.584 1.584 0 1 0-3.168-.004 1.584 1.584 0 0 0 3.168.004Zm0 0"/><g clip-path="url(#b)"><path d="M62.484 161.574a1.584 1.584 0 1 0-3.167.004 1.584 1.584 0 0 0 3.167-.004m0 0"/></g><g clip-path="url(#c)"><path fill="none" stroke="#000" stroke-miterlimit="10" stroke-width=".39821796000000004" d="M62.484 161.574a1.584 1.584 0 1 0-3.167.004 1.584 1.584 0 0 0 3.167-.004Zm0 0"/></g><path fill="none" stroke="#000" stroke-miterlimit="10" stroke-width=".39821796000000004" d="M12.387 6.34v71.676m0 11.882v71.676h38.812m0 0h58.211m0 0h58.215m0 0h38.809V91.88m0-15.844V6.34h-81.18m-31.688 0h-81.18M12.387 85.918v3.98m0-7.902v-3.98"/><g clip-path="url(#d)"><path fill="none" stroke="#000" stroke-miterlimit="10" stroke-width=".79543788" d="M24.27 81.996H.504"/></g><path fill="none" stroke="#000" stroke-miterlimit="10" stroke-width="2.38631364" d="M18.328 85.918H6.445"/><g clip-path="url(#e)"><path fill="none" stroke="#000" stroke-miterlimit="10" stroke-width=".79543788" d="m206.434 91.879 9.902-15.844h-19.805Zm0 0"/></g><path fill="none" stroke="#000" stroke-miterlimit="10" stroke-width=".39821796000000004" d="M206.434 91.879V76.035"/><path fill="none" stroke="#000" stroke-miterlimit="10" stroke-width=".79543788" d="M196.531 91.879h19.805"/><g clip-path="url(#f)"><path fill="none" stroke="#000" stroke-miterlimit="10" stroke-width=".39821796000000004" d="m216.336 80.79 7.195 5.757"/></g><path d="m225.926 88.46-1.215-3.226-1.102 1.371-1.097 1.375Zm0 0"/><g clip-path="url(#g)"><path fill="none" stroke="#000" stroke-miterlimit="10" stroke-width=".39819003000000003" d="m225.926 88.46-1.215-3.226-1.102 1.371-1.097 1.375Zm0 0"/></g><g clip-path="url(#h)"><path fill="none" stroke="#000" stroke-miterlimit="10" stroke-width=".39821796000000004" d="m214.356 85.543 7.195 5.754"/></g><path d="m223.95 93.215-1.22-3.23-1.101 1.374-1.098 1.375Zm0 0"/><g clip-path="url(#i)"><path fill="none" stroke="#000" stroke-miterlimit="10" stroke-width=".39819003000000003" d="m223.95 93.215-1.22-3.23-1.101 1.374-1.098 1.375Zm0 0"/></g><path fill="none" stroke="#000" stroke-miterlimit="10" stroke-width=".79543788" d="M93.566.398h31.688v11.883H93.566Zm0 0"/></svg>