<svg xmlns="http://www.w3.org/2000/svg" xmlns:xlink="http://www.w3.org/1999/xlink" width="223.608" height="100.442"><defs><path id="c" d="M1.578 1.563c-.094.156-.281.265-.406.265s-.156-.062-.219-.156c-.078-.11-.25-.281-.437-.281-.25 0-.344.172-.344.328 0 .187.219.406.828.406.36 0 .75-.187 1.031-.562.25-.344.453-1.032.797-2.72.14-.702.281-1.421.422-2.171l.031-.156h.828c.079 0 .204-.032.235-.11l.031-.187c0-.031-.016-.047-.062-.047h-.97l.095-.516c.124-.656.25-1.062.374-1.297.141-.25.25-.328.36-.328.14 0 .156.078.187.25.047.188.11.422.391.422.266 0 .328-.203.328-.281 0-.344-.297-.656-.828-.656-.187 0-.437.109-.61.25-.28.234-.656.562-1 2.156l-.593.031c-.156 0-.235.078-.25.14 0 .032-.031.141-.031.157s.015.016.046.016h.75c-.218 1.015-.25 1.562-.374 2.218-.141.86-.282 2.313-.61 2.829m0 0"/><path id="d" d="M2.5-.875v-2.719c0-.469.078-.734.328-.734h.156c.532 0 .875.187 1 .734.079 0 .172 0 .235-.031a11 11 0 0 1-.094-1.016c0-.015-.016-.015-.016-.015-.25.015-1.03.047-1.609.047h-.61c-.546 0-1.39-.032-1.656-.047-.015 0-.03 0-.03.015-.032.329-.11.688-.188 1.032a.7.7 0 0 0 .25.03c.14-.562.468-.75.937-.75h.36c.265 0 .328.266.328.704v2.75c0 .594-.125.625-.688.656-.047.047-.047.188 0 .235C1.547 0 1.906 0 2.203 0c.266 0 .625 0 .985.016.046-.047.046-.188 0-.235C2.625-.25 2.5-.28 2.5-.875m0 0"/><path id="e" d="M2.656-2.781q0-.576-.187-.86-.174-.28-.594-.28a1.5 1.5 0 0 0-.531.093q-.11.235-.203.781a2 2 0 0 1-.188.016q-.438 0-.437-.39 0-.39.468-.673A1.9 1.9 0 0 1 2-4.39c.914 0 1.375.508 1.375 1.516v1.953c0 .336.102.5.313.5q.216.001.328-.11.077.112.078.25c0 .063-.055.134-.157.204a.9.9 0 0 1-.53.156q-.63 0-.688-.61h-.031q-.41.643-1.22.641-.502 0-.812-.312-.313-.311-.312-.828c0-.438.219-.774.656-1.016.375-.195.848-.297 1.422-.297h.234Zm-.89 2.328q.498 0 .89-.469v-1.015l-.234.015q-1.299.096-1.297.813c0 .437.21.656.64.656m0 0"/><path id="f" d="M.656-5.937 0-6.016c-.008-.03-.016-.054-.016-.078q0-.246.344-.281l1.047-.11v2.704h.031q.498-.61 1.313-.61c.476 0 .86.157 1.14.47q.516.563.516 1.671c0 .781-.234 1.383-.703 1.797q-.628.562-1.594.562-.893 0-1.422-.312Zm1.719 2.14c-.43 0-.762.149-1 .438v2.703q.374.251.875.25 1.373.001 1.375-1.75 0-.844-.375-1.281-.33-.36-.875-.36m0 0"/><clipPath id="a"><path d="M.422 0H5v4H.422Zm0 0"/></clipPath><clipPath id="b"><path d="M.422 0H10v10H.422Zm0 0"/></clipPath></defs><path fill="none" stroke="#000" stroke-miterlimit="10" stroke-width=".39679353" d="M2.473 72.223h201.761"/><path stroke="#000" stroke-miterlimit="10" stroke-width=".39679353" d="m207.293 72.223-2.957-1.754v3.504Zm0 0"/><path fill="none" stroke="#000" stroke-miterlimit="10" stroke-width=".39679353" d="M2.473 72.223V3.848"/><g clip-path="url(#a)"><path d="M2.473.793.719 3.75h3.508Zm0 0"/></g><g clip-path="url(#b)"><path fill="none" stroke="#000" stroke-miterlimit="10" stroke-width=".39679353" d="M2.473.793.719 3.75h3.508Zm0 0"/></g><path fill="none" stroke="#000" stroke-miterlimit="10" stroke-width=".79259259" d="M146.125 72.223V.395M152.281 72.223V20.918l20.52 20.52v30.785M139.969 72.223V20.918l-20.524 20.52v30.785"/><use xlink:href="#c" x="216.07" y="74.271"/><use xlink:href="#c" x="141.925" y="94.793"/><use xlink:href="#d" x="145.679" y="96.665"/><use xlink:href="#e" x="127.623" y="53.84"/><use xlink:href="#f" x="160.158" y="52.831"/></svg>