<svg xmlns="http://www.w3.org/2000/svg" xmlns:xlink="http://www.w3.org/1999/xlink" width="226.77" height="76.1"><defs><path id="a" d="M1.563 1.547c-.094.156-.266.266-.407.266-.11 0-.156-.063-.203-.141-.078-.125-.25-.297-.453-.297-.25 0-.328.172-.328.328 0 .188.219.406.828.406.36 0 .75-.171 1.016-.562.25-.344.453-1.016.797-2.703.14-.688.28-1.406.406-2.14l.031-.157h.828c.078 0 .203-.031.234-.11l.032-.187c0-.031-.016-.047-.063-.047h-.968l.093-.515c.14-.657.266-1.063.39-1.297.126-.25.25-.313.345-.313.14 0 .156.078.187.25.047.172.11.406.39.406.266 0 .329-.203.329-.28 0-.329-.297-.641-.828-.641-.188 0-.422.093-.61.25-.28.218-.656.562-.984 2.14l-.594.016c-.156.015-.219.094-.234.156a1 1 0 0 0-.047.156c0 .016.016.016.047.016h.75c-.219 1.015-.25 1.547-.375 2.203-.14.844-.281 2.297-.61 2.797m0 0"/><path id="o" d="M2.016.094c.687 0 1.718-.703 1.718-2.781 0-.876-.203-1.626-.593-2.141-.235-.313-.61-.578-1.078-.578-.891 0-1.72 1.047-1.72 2.797 0 .953.298 1.843.782 2.328q.375.375.89.375m.046-5.188c.141 0 .282.047.391.157.281.218.516.89.516 2.078 0 .828-.031 1.375-.156 1.828-.188.734-.626.812-.782.812-.828 0-.922-1.515-.922-2.281 0-2.187.547-2.594.954-2.594m0 0"/><path id="p" d="M.922-.844c-.281 0-.469.188-.469.438 0 .265.235.36.39.39.173.016.313.063.313.266 0 .188-.312.594-.781.719 0 .078.031.14.078.203C1 1.078 1.5.656 1.5.032c0-.532-.219-.876-.578-.876m0 0"/><path id="q" d="M1.906-5.094c.375 0 .735.235.735.797 0 .438-.516 1.125-1.391 1.25l.047.281c.14-.015.312-.015.422-.015.5 0 1.156.14 1.156 1.14 0 1.188-.781 1.422-1.094 1.422-.453 0-.531-.203-.64-.36C1.047-.702.938-.812.766-.812.578-.812.39-.64.39-.5c0 .344.75.594 1.28.594 1.048 0 1.985-.688 1.985-1.86 0-.968-.719-1.312-1.25-1.39v-.031c.719-.344.922-.704.922-1.172a.95.95 0 0 0-.265-.703c-.204-.188-.516-.344-.97-.344-1.312 0-1.671.86-1.671 1.14 0 .125.078.313.297.313.312 0 .344-.297.344-.469 0-.562.609-.672.843-.672m0 0"/><path id="r" d="M.547-4.14c0 .187.156.343.344.343.156 0 .422-.156.422-.36 0-.062-.016-.124-.032-.187-.015-.062-.078-.14-.078-.203 0-.234.234-.547.875-.547.328 0 .781.219.781 1.078 0 .563-.203 1.016-.734 1.547l-.656.656C.609-.936.453-.5.453.016c0 0 .453-.016.75-.016H2.75c.281 0 .688.016.688.016.109-.47.203-1.125.218-1.391-.062-.047-.172-.062-.265-.047-.141.625-.297.844-.625.844H1.203c0-.422.61-1.031.656-1.063L2.75-2.5c.5-.5.875-.89.875-1.562 0-.954-.766-1.344-1.484-1.344-.985 0-1.594.734-1.594 1.265m0 0"/><path id="s" d="M1.5-4.734h1.594c-.688 1.718-1.39 3.437-2 4.78l.078.063.594-.015c.515-1.516 1-2.985 1.984-5.406l-.14-.094c-.141.031-.344.093-.672.093H1.109c-.296 0-.28-.093-.437-.125-.031 0-.047 0-.047.032 0 .422-.11.953-.172 1.406a.6.6 0 0 0 .281.031c.204-.703.485-.765.766-.765m0 0"/><path id="b" d="M2.219-6.203h-.875V.813h.875v.421h-1.5V-6.64h1.5Zm0 0"/><path id="c" d="M.813-.453v-5.438l-.641-.093a.1.1 0 0 1-.016-.063q0-.246.328-.281l1.047-.11v3.97h.532L3.25-3.845l-.625-.125v-.078q-.001-.201.25-.203h1.422c.07 0 .11.031.11.094a.5.5 0 0 1-.063.187l-.516.156-1.25 1.438 1.5 1.938.453.093q.124.035.125.11A.35.35 0 0 1 4.563 0H3.422L1.937-2.031h-.406v1.594l.453.093q.124.035.125.11A.35.35 0 0 1 2.016 0H.219v-.062c0-.133.086-.235.265-.297Zm0 0"/><path id="d" d="M2.563-6.11c.007.024.015.048.015.079 0 .156-.101.258-.297.297l-.422.093v2.25h2.954v-2.25l-.547-.125c-.086-.02-.125-.05-.125-.093q-.001-.075.109-.25h2.047a.2.2 0 0 1 .016.078c0 .156-.106.258-.313.297l-.406.093v5.157l.61.125q.123.017.124.093 0 .048-.094.266H4.141v-.078q-.002-.246.297-.328l.375-.078V-2.86H1.858v2.375l.61.125q.124.017.125.093 0 .048-.094.266H.422a.16.16 0 0 1-.016-.078q0-.246.297-.328l.39-.078v-5.157l-.546-.125c-.086-.02-.125-.05-.125-.093q0-.075.094-.25Zm0 0"/><path id="e" d="M.453-3.375q0-.311.063-.875h2.89q.03.08.031.172a.57.57 0 0 1-.093.297L1.125-.453v.016h1.734l.329-.891c.05-.008.093-.016.124-.016q.249 0 .25.282 0 .094-.124 1.062H.406a.6.6 0 0 1-.094-.328q0-.106.094-.266l2.125-3.203v-.015H1.094l-.266.734h-.11q-.267 0-.265-.297m0 0"/><path id="f" d="M1.688 1.234h-1.5V.813h.89v-7.016h-.89v-.438h1.5Zm0 0"/><path id="g" d="M0-.422a.16.16 0 0 1-.078.016q-.246 0-.328-.297l-.078-.39h-5.157l-.125.546c-.02.086-.05.125-.093.125q-.075 0-.25-.094v-2.046c.023-.008.046-.016.078-.016.156 0 .258.101.297.297l.093.422H-.5v-2.047l-1.047-.235a.7.7 0 0 1-.031-.203q0-.234.36-.234.438 0 1.218.094Zm0 0"/><path id="h" d="M-2.156-1.156c.562 0 .996-.117 1.297-.36q.438-.358.437-1.015 0-.574-.422-1.078c.055-.07.14-.114.266-.125q.205 0 .422.406.265.469.265 1.11c0 .53-.164.96-.5 1.28-.375.368-.925.547-1.656.547q-1.09.001-1.734-.578a1.67 1.67 0 0 1-.578-1.297q0-.685.422-1.078.393-.359 1.062-.36.299 0 .719.095Zm-1.735-1.016q0 .892 1.313 1.016v-1.75a1.4 1.4 0 0 0-.375-.047q-.938.001-.938.781m0 0"/><path id="i" d="M-.453-.906h-3.313l-.093.656h-.063q-.246 0-.281-.328l-.11-1.047h3.86l.11-.531q.033-.124.109-.125.129 0 .234.094v1.874a.1.1 0 0 1-.062.016c-.133 0-.235-.094-.297-.281Zm-5.328.156a.5.5 0 0 1-.375-.14.53.53 0 0 1-.14-.376q0-.217.14-.359a.5.5 0 0 1 .375-.14.483.483 0 0 1 .5.5.5.5 0 0 1-.14.374.48.48 0 0 1-.36.141m0 0"/><path id="j" d="M-.562-1a1.08 1.08 0 0 0 .187-.64c0-.508-.191-.766-.578-.766q-.246.002-.469.25a5 5 0 0 0-.406.578q-.328.533-.563.75-.374.345-.843.344a.96.96 0 0 1-.813-.391q-.311-.406-.312-1.016.002-.59.297-.953.346-.03.546-.031.439 0 .438.328v.078l-.64.11q-.188.298-.188.609c0 .43.172.64.515.64.243 0 .477-.163.704-.5q.3-.468.593-.937.41-.499.938-.5.55.001.906.406.362.41.36 1.079c0 .437-.087.796-.25 1.078q-.406.08-.735.078-.422 0-.422-.328c0-.032.008-.055.016-.079Zm0 0"/><path id="k" d="m-4.25-.86-1.187-.171v-.516h1.187v-1.328l.453.094v1.234h2.735q.656.001.656-.578c0-.29-.07-.535-.219-.734a.43.43 0 0 1 .25-.063q.127.002.266.25.217.33.218.813Q.111-.83-.906-.83h-2.89v.673a.1.1 0 0 1-.063.015q-.217 0-.282-.28Zm0 0"/><path id="l" d="m-3.766-.781-.093.64a.1.1 0 0 1-.063.016q-.246 0-.281-.328l-.11-1.047h2.782q1.048 0 1.047-.89 0-.67-.438-1.094h-2.844l-.093.656h-.063q-.246 0-.281-.328l-.11-1.047h3.829l.078-.64q.047-.015.078-.016.252 0 .281.328l.094 1h-.578v.015c.43.344.64.793.64 1.344 0 .93-.53 1.39-1.593 1.39Zm0 0"/><path id="m" d="M-.453-.906h-3.313l-.093.656h-.063q-.246 0-.281-.328l-.11-1.047.594.063v-.032a2.8 2.8 0 0 1-.406-.515 1.86 1.86 0 0 1-.234-.953q0-.638.422-1 .41-.375 1.171-.375h2.313l.11-.532c.023-.07.058-.11.109-.11Q-.105-5.077 0-5v1.875a.1.1 0 0 1-.062.016c-.133 0-.235-.094-.297-.282l-.094-.328h-2.281q-.53.001-.813.313-.218.252-.219.656c0 .418.149.793.438 1.125h2.875l.11-.531q.033-.124.109-.125.129 0 .234.094v1.874a.1.1 0 0 1-.062.016c-.133 0-.235-.094-.297-.281Zm0 0"/><path id="n" d="M-2.953-.484Q-3.608-.483-4-.97q-.359-.45-.36-1.125c0-.238.04-.46.11-.672V-4.28l.469.093v.735q.376-.281.828-.281.674.001 1.078.5.375.468.375 1.172 0 .203-.047.437c.117.18.258.266.422.266q.314 0 .313-.47v-1c0-.382.09-.687.265-.905a.83.83 0 0 1 .703-.344q.703.002 1.188.594c.351.437.531 1 .531 1.687 0 1.055-.344 1.578-1.031 1.578-.524 0-.875-.265-1.063-.797h-.015c-.125.23-.32.344-.594.344-.32 0-.594-.203-.813-.61h-.015q-.373.798-1.297.798m1-1.61q0-.937-.984-.937-.468.002-.72.25a.9.9 0 0 0-.25.656q.001.924.97.922.984 0 .984-.89m1.844.39q.002.176-.032.345c.153.293.407.437.75.437q.781 0 .782-.984 0-.684-.282-1.094-.269-.359-.671-.36c-.368 0-.547.243-.547.72Zm0 0"/></defs><path fill="none" stroke="#000" stroke-miterlimit="10" stroke-width=".39433569" d="M15.496 62.488h174.54"/><path stroke="#000" stroke-miterlimit="10" stroke-width=".39433569" d="m193.074 62.488-2.937-1.742v3.484Zm0 0"/><use xlink:href="#a" x="196.617" y="64.755"/><use xlink:href="#b" x="202.262" y="64.755"/><use xlink:href="#c" x="204.672" y="64.755"/><use xlink:href="#d" x="209.369" y="64.755"/><use xlink:href="#e" x="216.068" y="64.755"/><use xlink:href="#f" x="219.967" y="64.755"/><path fill="none" stroke="#000" stroke-miterlimit="10" stroke-width=".39433569" d="M15.496 62.488V3.628"/><path stroke="#000" stroke-miterlimit="10" stroke-width=".39433569" d="M15.496.59 13.75 3.53h3.488Zm0 0"/><use xlink:href="#g" x="10.466" y="35.781"/><use xlink:href="#h" x="10.466" y="31.04"/><use xlink:href="#i" x="10.466" y="26.91"/><use xlink:href="#j" x="10.466" y="24.438"/><use xlink:href="#k" x="10.466" y="21.009"/><use xlink:href="#l" x="10.466" y="17.996"/><use xlink:href="#m" x="10.466" y="12.953"/><use xlink:href="#n" x="10.466" y="7.743"/><path fill="none" stroke="#000" stroke-miterlimit="10" stroke-width=".78768307" d="M26.172 62.488V17.992l85.43 17.797v26.7"/><use xlink:href="#o" x="21.078" y="71.043"/><use xlink:href="#p" x="25.198" y="71.043"/><use xlink:href="#q" x="27.148" y="71.043"/><use xlink:href="#r" x="106.504" y="71.078"/><use xlink:href="#p" x="110.625" y="71.078"/><use xlink:href="#s" x="112.575" y="71.078"/></svg>