<svg xmlns="http://www.w3.org/2000/svg" xmlns:xlink="http://www.w3.org/1999/xlink" width="168.952" height="102.919"><defs><path id="a" d="M2.984-1.047q.281-.528.297-1.625-.468.375-1.172.375-.766.002-1.234-.406-.516-.45-.516-1.313c0-.601.204-1.078.61-1.421.351-.32.781-.485 1.281-.485q.89.001 1.39.781c.301.493.454 1.141.454 1.954q0 1.329-.516 2.203Q2.95.11 1.672.109 1.062.107.703-.094.39-.263.391-.53q0-.406.39-.5c.176.43.524.64 1.047.64q.81 0 1.156-.656m-.812-1.765q.714 0 1.125-.329-.018-1.125-.328-1.734-.315-.546-.828-.547-.456 0-.72.328-.28.361-.28 1.016 0 1.266 1.03 1.266m0 0"/><path id="b" d="M2.234-.39q1.11.001 1.11-2.516 0-2.515-1.11-2.516-1.094.001-1.093 2.516c0 1.68.363 2.515 1.093 2.515m-.03.5q-.88 0-1.376-.75Q.296-1.42.297-2.907.296-4.39.875-5.187q.516-.734 1.406-.735.873.001 1.375.734.516.798.516 2.282 0 1.47-.563 2.265-.515.75-1.406.75m0 0"/><path id="c" d="m7.094-.469.547.125q.124.017.125.11A.35.35 0 0 1 7.672 0h-1.89a.1.1 0 0 1-.016-.062c0-.133.093-.235.28-.297l.329-.11V-2.75c0-.707-.29-1.062-.86-1.062-.46 0-.859.164-1.202.484q.06.33.062.531v2.328l.531.125q.124.017.125.11A.35.35 0 0 1 4.938 0H3.047a.1.1 0 0 1-.016-.062c0-.133.094-.235.281-.297l.329-.11V-2.75c0-.707-.29-1.062-.86-1.062-.437 0-.82.152-1.14.453v2.89l.53.125q.125.017.126.11A.4.4 0 0 1 2.219 0H.313a.1.1 0 0 1-.016-.062c0-.133.094-.235.281-.297l.328-.11v-3.343l-.64-.079a.2.2 0 0 1-.016-.078q0-.246.328-.281l1.063-.094-.063.594h.031q.622-.656 1.438-.656c.539 0 .922.242 1.14.718q.64-.716 1.532-.718.638 0 1 .422.375.409.375 1.187Zm0 0"/><path id="d" d="m4.5-.484-.594-1.641H1.688l-.594 1.64.672.126q.124.017.125.093 0 .066-.094.266H-.078a.2.2 0 0 1-.016-.078Q-.096-.342.22-.406l.25-.063L2.64-6.172l.562-.078L5.36-.469l.391.11q.124.034.125.093 0 .048-.094.266H3.86a.16.16 0 0 1-.015-.078c0-.164.101-.274.312-.328Zm-2.64-2.11h1.89l-.937-2.625h-.016Zm0 0"/><path id="h" d="M2.031-.578v-4.438L.687-4.75a1 1 0 0 1-.015-.187c0-.133.07-.235.219-.297l1.468-.578h.454v5.234l1.093.172q.124.016.125.11 0 .08-.093.296H.874a.16.16 0 0 1-.016-.078q0-.311.282-.36Zm0 0"/><path id="i" d="M6.14-3.484q0 .926-.546 1.734A3.3 3.3 0 0 1 4.422-.703v.172h1.203l.125-.719a.5.5 0 0 1 .219-.047q.264.001.265.406 0 .365-.046.891H3.859v-.89q1.484-.75 1.485-2.626-.001-1.03-.547-1.64a1.79 1.79 0 0 0-1.39-.61q-.864.002-1.391.594c-.368.418-.547.969-.547 1.656q-.001.88.343 1.547c.258.48.641.84 1.141 1.078V0H.625a10 10 0 0 1-.047-.89c0-.27.086-.407.266-.407q.106 0 .219.047l.125.719H2.39v-.156c-.43-.188-.809-.524-1.141-1.016Q.655-2.547.656-3.484q-.001-1.218.766-2 .779-.797 1.984-.797c.801 0 1.457.258 1.969.765.508.512.766 1.188.766 2.032m0 0"/><clipPath id="e"><path d="M12 12h151v90.84H12Zm0 0"/></clipPath><clipPath id="f"><path d="M.043 55H25v2H.043Zm0 0"/></clipPath><clipPath id="g"><path d="M156 41h12.863v33H156Zm0 0"/></clipPath></defs><path fill="none" stroke="#000" stroke-miterlimit="10" stroke-width=".39868479" d="M57.39 12.531h30.036m0 0h30.035"/><path stroke="#000" stroke-miterlimit="10" stroke-width=".39868479" d="M85.691 12.531v1.985l4.215-1.985-4.215-1.98Zm0 0"/><use xlink:href="#a" x="75.332" y="9.24"/><use xlink:href="#b" x="79.812" y="9.24"/><use xlink:href="#c" x="85.779" y="9.24"/><use xlink:href="#d" x="93.672" y="9.24"/><g clip-path="url(#e)"><path fill="none" stroke="#000" stroke-miterlimit="10" stroke-width=".39868479" d="M57.39 12.531H12.337v39.106m0 11.898v39.106h150.18V73.449m0-31.726V12.53H117.46"/></g><path fill="none" stroke="#000" stroke-miterlimit="10" stroke-width=".39868479" d="M12.336 59.55v3.985m0-7.91v-3.988"/><g clip-path="url(#f)"><path fill="none" stroke="#000" stroke-miterlimit="10" stroke-width=".7963703700000001" d="M24.234 55.625H.441"/></g><path fill="none" stroke="#000" stroke-miterlimit="10" stroke-width="2.38911111" d="M18.285 59.55H6.387"/><g clip-path="url(#g)"><path fill="none" stroke="#000" stroke-miterlimit="10" stroke-width=".7963703700000001" d="M168.465 41.723v31.726H156.57V41.723Zm0 0"/></g><use xlink:href="#h" x="132.618" y="59.736"/><use xlink:href="#b" x="137.098" y="59.736"/><use xlink:href="#b" x="141.577" y="59.736"/><use xlink:href="#i" x="147.544" y="59.736"/></svg>