<svg xmlns="http://www.w3.org/2000/svg" width="112.993" height="30.361"><defs><clipPath id="a"><path d="M1.16 9h110.664v2H1.16Zm0 0"/></clipPath><clipPath id="b"><path d="M37 0h39v29.734H37Zm0 0"/></clipPath><clipPath id="c"><path d="M47 14h18v15.734H47Zm0 0"/></clipPath><clipPath id="d"><path d="M57 25h4v4.734h-4Zm0 0"/></clipPath><clipPath id="e"><path d="M52 20h15v9.734H52Zm0 0"/></clipPath><clipPath id="f"><path d="M52 12h18v17.734H52Zm0 0"/></clipPath><clipPath id="g"><path d="M56 18h16v11.734H56Zm0 0"/></clipPath></defs><g clip-path="url(#a)"><path fill="none" stroke="#000" stroke-miterlimit="10" stroke-width=".39077661" d="M1.355 10.105H48.72m15.547 0h47.363"/></g><g clip-path="url(#b)"><path fill="none" stroke="#000" stroke-miterlimit="10" stroke-width=".78057383" d="m64.266 10.105-15.547 9.72V.39Zm0 0"/></g><path fill="none" stroke="#000" stroke-miterlimit="10" stroke-width=".39077661" d="M64.266 10.105H48.719"/><path fill="none" stroke="#000" stroke-miterlimit="10" stroke-width=".78057383" d="M64.266.39v19.434"/><g clip-path="url(#c)"><path fill="none" stroke="#000" stroke-miterlimit="10" stroke-width=".39077661" d="m53.383 19.824 5.648 7.059"/></g><g clip-path="url(#d)"><path d="m60.914 29.234-.473-3.351-2.695 2.156Zm0 0"/></g><g clip-path="url(#e)"><path fill="none" stroke="#000" stroke-miterlimit="10" stroke-width=".39074868" d="m60.914 29.234-.473-3.351-2.695 2.156Zm0 0"/></g><g clip-path="url(#f)"><path fill="none" stroke="#000" stroke-miterlimit="10" stroke-width=".39077661" d="m58.047 17.879 5.648 7.062"/></g><path d="m65.578 27.293-.473-3.355-1.347 1.078-1.348 1.082Zm0 0"/><g clip-path="url(#g)"><path fill="none" stroke="#000" stroke-miterlimit="10" stroke-width=".39074868" d="m65.578 27.293-.473-3.355-1.347 1.078-1.348 1.082Zm0 0"/></g></svg>