<svg xmlns="http://www.w3.org/2000/svg" xmlns:xlink="http://www.w3.org/1999/xlink" width="220.333" height="104.343"><defs><path id="c" d="m2.484-.266-.312-.906H.937L.61-.266l.375.063q.062.018.063.047A.5.5 0 0 1 1 0H-.047v-.047q-.002-.14.172-.187L.25-.25l1.219-3.172.297-.031L2.969-.266l.219.063q.06.018.062.047A.6.6 0 0 1 3.188 0H2.14q-.017-.012-.016-.047c0-.094.055-.148.172-.172ZM1.031-1.437h1.047l-.515-1.454h-.016Zm0 0"/><path id="d" d="M.5-.25v-1.86l-.36-.046v-.031q0-.14.188-.157l.578-.062-.031.328h.016q.17-.153.28-.235.234-.123.532-.124.375 0 .578.234.201.234.203.656V-.25l.297.063q.062.015.063.062A.2.2 0 0 1 2.797 0H1.75a.04.04 0 0 1-.016-.031q-.001-.123.157-.172l.187-.047v-1.281q0-.295-.172-.453a.53.53 0 0 0-.36-.125.95.95 0 0 0-.64.25V-.25l.297.063q.062.015.063.062A.2.2 0 0 1 1.219 0H.172v-.031Q.17-.154.328-.203Zm0 0"/><path id="e" d="M.469.734v-2.843l-.36-.047v-.031q0-.14.188-.157l.578-.062-.031.328h.015a.92.92 0 0 1 .735-.36q.42.001.672.313.248.299.25.844 0 .645-.328.984-.316.328-.891.328Q1.092.03.875-.03v.765l.297.063q.077.014.078.062-.002.078-.062.125H.14v-.03Q.139.842.297.796Zm.969-2.843a.8.8 0 0 0-.563.234v1.469a.73.73 0 0 0 .469.156q.763.002.765-1.016 0-.403-.187-.625a.59.59 0 0 0-.484-.218m0 0"/><path id="f" d="M1.469-1.547q0-.328-.094-.469c-.062-.101-.172-.156-.328-.156a.8.8 0 0 0-.297.047q-.063.127-.11.438H.532q-.251 0-.25-.204-.001-.233.25-.39.263-.154.578-.156c.508 0 .766.28.766.843v1.078q-.002.282.172.282.123 0 .187-.063.047.065.047.14 0 .05-.094.11a.5.5 0 0 1-.296.094Q1.546.048 1.5-.297q-.236.362-.687.36A.62.62 0 0 1 .359-.11C.242-.223.188-.38.188-.58q0-.356.375-.562c.207-.101.468-.156.78-.156h.126ZM.984-.25c.188 0 .348-.086.485-.266v-.562l-.125.016c-.48.03-.719.18-.719.437 0 .25.117.375.36.375m0 0"/><path id="g" d="M.563-.312c.093.074.21.109.359.109q.422 0 .422-.328c0-.094-.047-.18-.14-.266a2 2 0 0 0-.329-.219 2.6 2.6 0 0 1-.406-.312.68.68 0 0 1-.203-.484c0-.188.07-.336.218-.454a.96.96 0 0 1 .579-.171q.327 0 .53.171c.009.125.016.227.016.297q0 .251-.187.25h-.047l-.062-.36a.6.6 0 0 0-.329-.108c-.242 0-.359.101-.359.296q0 .204.281.391.246.158.516.328c.187.156.281.336.281.531a.63.63 0 0 1-.234.5c-.149.137-.344.204-.594.204S.422.012.265-.078a2.5 2.5 0 0 1-.03-.406c0-.157.054-.235.171-.235h.047Zm0 0"/><path id="h" d="M1.64-1.36H.298v-.296H1.64Zm0 0"/><path id="i" d="M.266-1.656q0-.357.28-.578a.97.97 0 0 1 .626-.203q.2.002.375.062h.844l-.047.266h-.406q.14.206.14.453-.001.392-.265.61a1.05 1.05 0 0 1-.657.202q-.128 0-.25-.015-.14.093-.14.234-.001.174.25.172h.562q.328 0 .516.14.187.142.187.407 0 .386-.328.656c-.25.195-.57.297-.953.297-.586 0-.875-.195-.875-.578q0-.438.438-.594v-.016Q.375-.233.375-.453.374-.735.719-.922c-.305-.144-.453-.39-.453-.734m.906.562q.516.002.516-.547 0-.264-.141-.406a.5.5 0 0 0-.36-.14q-.515 0-.515.546c0 .368.164.547.5.547M.953-.062Q.86-.061.766-.078.515.045.516.344q-.002.435.547.437.385-.001.609-.156.201-.157.203-.375-.001-.313-.406-.312Zm0 0"/><path id="j" d="M.484-.25v-3.047l-.359-.047Q.108-3.356.109-3.39q0-.123.188-.14l.578-.063V-.25l.297.063q.077.015.078.062A.2.2 0 0 1 1.203 0H.156a.04.04 0 0 1-.015-.031Q.139-.154.297-.203Zm0 0"/><path id="k" d="M.5-.25v-1.86l-.36-.046v-.031q0-.14.188-.157l.578-.062V-.25l.297.063q.062.015.063.062A.2.2 0 0 1 1.219 0H.172v-.031Q.17-.154.328-.203ZM.422-3.234A.27.27 0 0 1 .5-3.437a.27.27 0 0 1 .203-.079q.123.001.203.079.077.08.078.203a.27.27 0 0 1-.078.203.27.27 0 0 1-.203.078Q.575-2.951.5-3.031c-.055-.051-.078-.117-.078-.203m0 0"/><path id="l" d="M.64-1.203c.008.312.079.555.204.719q.2.251.562.25a.93.93 0 0 0 .61-.235q.06.035.062.14 0 .112-.219.235c-.18.102-.382.157-.609.157Q.794.063.531-.22.218-.53.22-1.14q0-.622.328-.968a.9.9 0 0 1 .719-.328q.386 0 .609.234.201.22.203.594-.002.174-.062.406Zm.579-.969q-.504 0-.563.735h.969a.8.8 0 0 0 .031-.22q-.002-.515-.437-.515m0 0"/><path id="m" d="M1.89-.281h-.015q-.252.345-.703.344C.898.063.68-.023.516-.203Q.217-.497.219-1.125q0-.638.39-1c.22-.207.493-.312.829-.312q.216.002.421.062v-.922L1.5-3.344v-.047q-.002-.123.172-.14l.594-.063v3.328l.359.047v.032c0 .093-.059.148-.172.156L1.891.03Zm-.609.015q.374.001.578-.203v-1.515a.65.65 0 0 0-.468-.172.67.67 0 0 0-.532.234c-.148.18-.218.422-.218.734q0 .469.187.704c.102.148.254.218.453.218m0 0"/><path id="q" d="m4.438-.531-.141-.156c-.234.234-.36.25-.531.25-.266 0-.297-.297-.36-1.47l-.14-3.155c-.047-1.063-.5-1.157-.735-1.157-.328 0-.656.282-.953.61l.11.156c.187-.125.421-.219.64-.219.235 0 .5.188.563 1.422l.015.375L.188 0l.171.11C.563.03.781.015 1.016 0l1.922-3.234.109 2.109c.031.828.14 1.234.562 1.234.235 0 .61-.296.829-.64m0 0"/><path id="r" d="M.547-4.172c0 .188.172.344.36.344.14 0 .406-.156.406-.344 0-.078-.016-.125-.032-.187-.015-.063-.062-.141-.062-.22 0-.218.218-.546.875-.546.312 0 .781.219.781 1.078 0 .578-.219 1.031-.734 1.578l-.657.64C.61-.936.47-.5.47.017c0 0 .453-.016.734-.016h1.563c.28 0 .687.016.687.016.125-.47.203-1.141.219-1.407-.063-.046-.172-.062-.266-.046-.14.64-.297.859-.625.859H1.203c0-.422.61-1.031.656-1.078l.907-.86c.5-.5.89-.89.89-1.562 0-.969-.781-1.36-1.515-1.36-.985 0-1.594.735-1.594 1.266m0 0"/><clipPath id="a"><path d="M37 98h13v5.691H37Zm0 0"/></clipPath><clipPath id="b"><path d="M42 28h177.313v2H42Zm0 0"/></clipPath><clipPath id="n"><path d="M.36 56.422h15.769v6.308H.359Zm0 6.308h6.308v3.157H.359Zm0 3.157h15.769v6.308H.359Zm0 0"/></clipPath><clipPath id="o"><path d="M.36 51H22v27H.36Zm0 0"/></clipPath><clipPath id="p"><path d="M209 4h10.313v16H209Zm0 0"/></clipPath></defs><path fill="none" stroke="#000" stroke-miterlimit="10" stroke-width=".39650226" d="M43.512 99.352V78.113m0-27.61V29.267"/><g clip-path="url(#a)"><path fill="none" stroke="#000" stroke-miterlimit="10" stroke-width=".79201078" d="M37.594 99.352h11.832m-9.86 1.968h7.887m-6.406 1.973h4.93"/></g><path fill="none" stroke="#000" stroke-miterlimit="10" stroke-width=".79201078" d="M57.313 50.504v27.61H29.707v-27.61Zm0 0"/><path stroke="#000" stroke-miterlimit="10" stroke-width=".39650226" d="M45.086 29.266a1.575 1.575 0 1 0-3.152 0 1.575 1.575 0 1 0 3.152 0Zm0 0"/><g clip-path="url(#b)"><path fill="none" stroke="#000" stroke-miterlimit="10" stroke-width="1.18851304" d="M43.512 29.266h87.605m0 0h87.602"/></g><use xlink:href="#c" x="35.031" y="60.151"/><use xlink:href="#d" x="38.258" y="60.151"/><use xlink:href="#e" x="41.169" y="60.151"/><use xlink:href="#f" x="43.906" y="60.151"/><use xlink:href="#g" x="46.218" y="60.151"/><use xlink:href="#g" x="48.134" y="60.151"/><use xlink:href="#h" x="50.049" y="60.151"/><use xlink:href="#i" x="38.392" y="71.071"/><use xlink:href="#j" x="40.848" y="71.071"/><use xlink:href="#k" x="42.229" y="71.071"/><use xlink:href="#l" x="43.59" y="71.071"/><use xlink:href="#m" x="45.897" y="71.071"/><path fill="none" stroke="#000" stroke-miterlimit="10" stroke-width=".39650226" d="M29.707 64.309h-17.52"/><g clip-path="url(#n)"><path fill="none" stroke="#000" stroke-miterlimit="10" stroke-width=".79201078" d="M12.187 64.309a3.94 3.94 0 0 0-3.945-3.942 3.94 3.94 0 0 0-3.941 3.942 3.943 3.943 0 0 0 7.886 0Zm0 0"/></g><g clip-path="url(#o)"><path fill="none" stroke="#000" stroke-miterlimit="10" stroke-width=".79201078" d="M9.82 64.309a1.575 1.575 0 1 0-3.152 0 1.575 1.575 0 1 0 3.152 0Zm0 0"/></g><path fill="none" stroke="#000" stroke-miterlimit="10" stroke-width=".39650226" d="M9.82 64.309h2.367"/><path fill="none" stroke="#999" stroke-miterlimit="10" stroke-width=".009937399999999999" d="M218.719 11.746"/><path fill="none" stroke="#000" stroke-miterlimit="10" stroke-width=".39650226" d="M43.809 11.746h174.613"/><path stroke="#000" stroke-miterlimit="10" stroke-width=".39650226" d="m44.3 11.746 2.958 1.75V9.992Zm0 0"/><path fill="none" stroke="#000" stroke-miterlimit="10" stroke-width=".39650226" d="M43.707 14.023V9.47"/><path d="m217.93 11.746-2.957-1.754v3.504Zm0 0"/><g clip-path="url(#p)"><path fill="none" stroke="#000" stroke-miterlimit="10" stroke-width=".39650226" d="m217.93 11.746-2.957-1.754v3.504Zm0 0"/></g><path fill="none" stroke="#000" stroke-miterlimit="10" stroke-width=".39650226" d="M218.523 9.469v4.554"/><path fill="#FFF" d="M124.586 23.492h13.059V0h-13.06Zm0 0"/><use xlink:href="#q" x="128.745" y="9.101"/><path fill="none" stroke="#000" stroke-miterlimit="10" stroke-width=".5793504199999999" d="M128.746 11.953h4.738"/><use xlink:href="#r" x="129.043" y="20.505"/></svg>