<svg xmlns="http://www.w3.org/2000/svg" xmlns:xlink="http://www.w3.org/1999/xlink" width="112.993" height="24.608"><defs><clipPath id="a"><path d="M.883 11h111.222v2H.883Zm0 0"/></clipPath><clipPath id="b"><path d="M33 0h47v24.223H33Zm0 0"/></clipPath><path id="c" d="M5.766-6.094a.2.2 0 0 1 .015.078q0 .252-.312.329l-.219.046L3.234 0h-.718L.453-5.625l-.375-.11c-.082-.007-.125-.046-.125-.109 0-.05.035-.133.094-.25h1.969v.078c0 .157-.102.262-.297.313l-.375.078L2.969-.891H3l1.672-4.75-.688-.109q-.127-.029-.125-.094 0-.075.11-.25Zm0 0"/></defs><g clip-path="url(#a)"><path fill="none" stroke="#000" stroke-miterlimit="10" stroke-width=".39274368" d="M1.078 12.11h43.695m23.438 0h43.7"/></g><g clip-path="url(#b)"><path fill="none" stroke="#000" stroke-miterlimit="10" stroke-width=".78450304" d="M56.492.39c-6.472 0-11.719 5.25-11.719 11.72 0 6.472 5.247 11.722 11.72 11.722 6.472 0 11.718-5.25 11.718-11.723C68.21 5.641 62.965.391 56.492.391Zm0 0"/></g><use xlink:href="#c" x="53.633" y="15.156"/></svg>