<svg xmlns="http://www.w3.org/2000/svg" xmlns:xlink="http://www.w3.org/1999/xlink" width="115.273" height="54.013"><defs><clipPath id="a"><path d="M.676 0H5v4H.676Zm0 0"/></clipPath><clipPath id="b"><path d="M.676 0H10v10H.676Zm0 0"/></clipPath><path id="c" d="M1.563 1.547c-.094.14-.282.266-.407.266-.11 0-.156-.063-.218-.157-.079-.11-.235-.281-.438-.281-.25 0-.328.172-.328.313 0 .203.219.406.812.406.36 0 .75-.172 1.032-.547.234-.344.437-1.016.78-2.688.142-.687.282-1.406.407-2.14l.031-.156h.813c.094 0 .219-.032.234-.11l.047-.187c0-.032-.016-.047-.062-.047h-.97l.095-.5c.14-.657.25-1.063.375-1.297.14-.25.25-.313.359-.313.125 0 .156.079.188.235.03.187.109.422.39.422.25 0 .313-.203.313-.282 0-.328-.297-.64-.828-.64-.172 0-.422.11-.594.25-.281.218-.656.562-.985 2.125l-.578.031c-.156 0-.234.078-.25.14a.7.7 0 0 0-.031.157c0 .015.016.015.031.015h.75c-.219 1-.25 1.532-.36 2.188-.14.844-.28 2.297-.608 2.797m0 0"/><path id="d" d="M2.469-.86v-2.687c0-.453.062-.719.328-.719h.156c.516 0 .86.172.969.72.078 0 .172 0 .25-.032a5.5 5.5 0 0 1-.094-1 .034.034 0 0 0-.031-.031c-.234.03-1.016.062-1.578.062h-.594c-.547 0-1.375-.031-1.656-.062 0 0-.016.015-.016.03-.031.313-.11.688-.187 1.016a.7.7 0 0 0 .25.032c.14-.563.453-.735.922-.735h.343c.266 0 .344.266.344.688V-.86c0 .578-.125.625-.687.64-.047.047-.047.188 0 .235C1.53 0 1.89 0 2.172 0c.265 0 .625 0 .984.016.031-.047.031-.188 0-.235-.562-.015-.687-.062-.687-.64m0 0"/></defs><path fill="none" stroke="#000" stroke-miterlimit="10" stroke-width=".39184194000000006" d="M2.703 35.855h97.914"/><path stroke="#000" stroke-miterlimit="10" stroke-width=".39184194000000006" d="m103.637 35.855-2.922-1.73v3.46Zm0 0"/><path fill="none" stroke="#000" stroke-miterlimit="10" stroke-width=".39184194000000006" d="M2.703 35.855V3.801"/><g clip-path="url(#a)"><path d="M2.703.781.97 3.703h3.465Zm0 0"/></g><g clip-path="url(#b)"><path fill="none" stroke="#000" stroke-miterlimit="10" stroke-width=".39184194000000006" d="M2.703.781.97 3.703h3.465Zm0 0"/></g><path fill="none" stroke="#000" stroke-miterlimit="10" stroke-width=".7827018200000001" d="M73.629 35.855V.391M76.672 35.855V10.523l10.133 10.133v15.2"/><use xlink:href="#c" x="107.24" y="37.881"/><use xlink:href="#c" x="69.484" y="48.014"/><use xlink:href="#d" x="73.191" y="49.862"/></svg>