<svg xmlns="http://www.w3.org/2000/svg" xmlns:xlink="http://www.w3.org/1999/xlink" width="225.68" height="111.914"><defs><path id="a" d="M2.031-.578v-4.438L.687-4.75a1 1 0 0 1-.015-.187c0-.133.07-.235.219-.297l1.468-.578h.454v5.234l1.093.172q.124.016.125.11 0 .08-.093.296H.874a.16.16 0 0 1-.016-.078q0-.311.282-.36Zm0 0"/><path id="b" d="M.89-.937a.53.53 0 0 1 .423.218q.17.204.171.578-.002.592-.39.985c-.211.226-.414.344-.61.344-.093 0-.164-.086-.203-.25q.574-.3.61-.891a.5.5 0 0 1-.344-.125.48.48 0 0 1-.14-.36q0-.217.14-.359a.47.47 0 0 1 .344-.14m0 0"/><path id="c" d="M1.125-5.812h2.563l-.047.765H1.53l-.11 1.422q1.297.048 1.876.547c.363.305.547.765.547 1.39a1.7 1.7 0 0 1-.547 1.266q-.534.533-1.39.531Q1.185.108.827-.156a.61.61 0 0 1-.281-.516q0-.405.39-.547.17.376.297.5.295.328.829.328.527 0 .843-.328.296-.311.297-.828 0-.731-.562-1.047c-.375-.219-.977-.328-1.797-.328Zm0 0"/><path id="d" d="M5.844-6.172c.008.024.015.047.015.078q0 .253-.312.313l-.234.062L3.28 0h-.734L.453-5.719l-.375-.093q-.124-.029-.125-.11c0-.05.035-.133.094-.25h2v.078c0 .157-.102.262-.297.313l-.375.078 1.64 4.797h.016L4.734-5.72l-.687-.11q-.127-.029-.125-.093 0-.075.094-.25Zm0 0"/><path id="h" d="M1.375-1.719q-.11-.199-.11-.656-.001-.42.298-.86.292-.373.562-.765.312-.468.313-1c0-.54-.29-.812-.86-.812-.156 0-.32.03-.484.093q-.11.236-.203.782a2 2 0 0 1-.188.015q-.438 0-.437-.39Q.265-5.717.703-6q.436-.28 1-.281.638.002 1.047.297.47.346.469 1.03 0 .533-.36 1.048c-.218.261-.445.531-.671.812-.243.313-.36.617-.36.906q0 .33.047.47Zm.734 1.344a.47.47 0 0 1-.156.36.5.5 0 0 1-.344.124.52.52 0 0 1-.359-.125.5.5 0 0 1-.125-.359.5.5 0 0 1 .125-.36.48.48 0 0 1 .36-.14c.132 0 .25.047.343.14a.47.47 0 0 1 .156.36m0 0"/><clipPath id="e"><path d="M221 23h4.36v5H221Zm0 0"/></clipPath><clipPath id="f"><path d="M216 18h9.36v15H216Zm0 0"/></clipPath><clipPath id="g"><path d="M89 76h47v35.793H89Zm0 0"/></clipPath></defs><path fill="none" stroke="#000" stroke-miterlimit="10" stroke-width=".39843342000000004" d="M1.785 25.574H51.29m11.887 0h49.504m110.898 0V62.54m0 0v36.965H124.57m-23.777 0H1.785V62.539m0 0V25.574"/><path stroke="#000" stroke-miterlimit="10" stroke-width=".39843342000000004" d="M3.367 25.574a1.584 1.584 0 1 0-3.168 0 1.585 1.585 0 1 0 3.168 0Zm0 0"/><path fill="none" stroke="#000" stroke-miterlimit="10" stroke-width=".39843342000000004" d="M59.195 25.574h3.98m-7.905 0h-3.98"/><path fill="none" stroke="#000" stroke-miterlimit="10" stroke-width=".7958682600000001" d="M55.27 13.684V37.46"/><path fill="none" stroke="#000" stroke-miterlimit="10" stroke-width="2.38760478" d="M59.195 19.629v11.89"/><path stroke="#000" stroke-miterlimit="10" stroke-width=".39843342000000004" d="M114.266 25.574a1.584 1.584 0 1 0-3.168 0 1.584 1.584 0 1 0 3.168 0Zm0 0"/><use xlink:href="#a" x="48.181" y="9.273"/><use xlink:href="#b" x="52.658" y="9.273"/><use xlink:href="#c" x="54.511" y="9.273"/><use xlink:href="#d" x="60.474" y="9.273"/><g clip-path="url(#e)"><path d="M225.164 25.574a1.587 1.587 0 0 0-3.172 0 1.587 1.587 0 0 0 3.172 0m0 0"/></g><g clip-path="url(#f)"><path fill="none" stroke="#000" stroke-miterlimit="10" stroke-width=".39843342000000004" d="M225.164 25.574a1.587 1.587 0 0 0-3.172 0 1.587 1.587 0 0 0 3.172 0Zm0 0"/></g><g clip-path="url(#g)"><path fill="none" stroke="#000" stroke-miterlimit="10" stroke-width=".7958682600000001" d="M112.68 111.395c6.566 0 11.89-5.325 11.89-11.891 0-6.563-5.324-11.887-11.89-11.887s-11.887 5.324-11.887 11.887c0 6.566 5.32 11.89 11.887 11.89Zm0 0"/></g><use xlink:href="#d" x="109.779" y="102.594"/><use xlink:href="#h" x="110.894" y="83.204"/><path fill="none" stroke="#000" stroke-miterlimit="10" stroke-width=".39843342000000004" d="M223.578 25.574h-49.504m-11.887 0H112.68M166.168 25.574h-3.98m7.902 0h3.984"/><path fill="none" stroke="#000" stroke-miterlimit="10" stroke-width=".7958682600000001" d="M170.09 37.46V13.685"/><path fill="none" stroke="#000" stroke-miterlimit="10" stroke-width="2.38760478" d="M166.168 31.52V19.629"/><path stroke="#000" stroke-miterlimit="10" stroke-width=".39843342000000004" d="M114.266 25.574a1.584 1.584 0 1 0-3.168 0 1.584 1.584 0 1 0 3.168 0Zm0 0"/><use xlink:href="#a" x="159.077" y="9.273"/><use xlink:href="#b" x="163.554" y="9.273"/><use xlink:href="#c" x="165.408" y="9.273"/><use xlink:href="#d" x="171.371" y="9.273"/></svg>