<svg xmlns="http://www.w3.org/2000/svg" xmlns:xlink="http://www.w3.org/1999/xlink" width="227.111" height="173.127"><defs><path id="b" d="M2.031-.578V-5l-1.344.266a1 1 0 0 1-.015-.188c0-.133.07-.226.219-.281l1.468-.594h.438v5.219l1.094.172q.14.016.14.11-.002.08-.11.296H.86v-.078q0-.311.282-.36Zm0 0"/><path id="c" d="m.422-.453 1.5-1.719q.89-1.015.89-2-.001-1.249-.906-1.25-.363.001-.703.172-.112.364-.125.89-.11.017-.203.016c-.281 0-.422-.117-.422-.36q0-.544.422-.874.42-.328 1.156-.328.715 0 1.172.422.451.409.453 1.14 0 .691-.422 1.36-.268.44-.906 1.125L1.344-.797v.016h2.031l.188-.766q.058-.047.187-.047.218 0 .219.36 0 .344-.094 1.234H.5Zm0 0"/><path id="d" d="m.938-3.828-.47.031c-.171 0-.234.078-.25.14a1 1 0 0 0-.046.157c0 .016.031.016.062.016H.86L.313-1.047C.25-.766.188-.484.188-.328c0 .328.156.422.437.422.406 0 .984-.375 1.297-.922C1.89-.953 1.828-1 1.719-1c-.407.469-.563.547-.703.547C.984-.453.89-.47.89-.578c0-.078.03-.25.093-.563l.532-2.343h.875c.109-.047.187-.266.093-.344h-.89l.093-.406c.032-.172.11-.422.11-.532 0-.156-.063-.234-.344-.234-.328 0-.312.39-.406.719Zm0 0"/><path id="e" d="M1.813.094c1.765 0 2.375-1.14 2.687-2.719l.484-2.453c.032-.25.188-.39.547-.422l.219-.016c.047 0 .078-.03.078-.062l.047-.172-.016-.016c-.406 0-.75.016-.953.016s-.531-.016-.937-.016l-.016.016-.031.172c-.016.031.015.062.047.062l.234.016c.281.016.406.11.406.297 0 .031-.015.078-.03.125l-.5 2.61c-.204 1-.548 2.187-2.016 2.187-.407 0-.72-.188-.922-.438-.188-.25-.235-.515-.235-.812 0-.282.047-.578.11-.875L1.53-5.11c.063-.25.203-.36.563-.391l.219-.016c.046 0 .062-.03.078-.062l.03-.172-.015-.016c-.406 0-.75.016-1.094.016-.343 0-.671-.016-1.078-.016l-.03.016-.032.172c0 .031.031.062.062.062l.22.016c.28.016.405.094.405.281 0 .032 0 .078-.015.11l-.578 3a3 3 0 0 0-.063.625c0 1.28.953 1.578 1.61 1.578m0 0"/><clipPath id="a"><path d="M.129 4h225.969v152H.128Zm0 0"/></clipPath></defs><path fill="none" stroke="#7F7F7F" stroke-miterlimit="10" stroke-width=".39699702000000003" d="M12.137 160.078h213.172M12.137 133.43h213.172M12.137 106.785h213.172M12.137 80.137h213.172M12.137 53.492h213.172M12.137 26.844h213.172M12.137.207h213.172M12.137 160.078V.195M38.78 160.078V.195M65.43 160.078V.195m26.644 159.883V.195m26.649 159.883V.195m26.648 159.883V.195m26.645 159.883V.195m26.648 159.883V.195m26.637 159.883V.195"/><path fill="none" stroke="#000" stroke-miterlimit="10" stroke-width=".39699702000000003" d="M12.137 160.078V.195h213.172v159.883Zm0 0"/><g clip-path="url(#a)"><path fill="none" stroke="#000" stroke-miterlimit="10" stroke-width="1.58599812" d="M12.137 80.137c8.687 27.285 17 53.293 26.644 53.293 9.649 0 17.961-26.008 26.649-53.293 8.687-27.285 17-53.293 26.644-53.293 9.649 0 17.961 26.008 26.649 53.293 8.687 27.285 17 53.293 26.648 53.293 9.645 0 17.957-26.008 26.645-53.293s17-53.293 26.648-53.293c9.645 0 17.957 26.008 26.645 53.293"/></g><path fill="none" stroke="#000" stroke-miterlimit="10" stroke-width=".79299906" d="M70.02 80.137h97.402"/><path stroke="#000" stroke-miterlimit="10" stroke-width=".79299906" d="m66.223 80.137 3.601 2.172v-4.344ZM171.223 80.137l-3.602-2.172v4.344Zm0 0"/><path fill="none" stroke="#000" stroke-miterlimit="10" stroke-width=".79299906" d="M92.074 75.543V31.437"/><path stroke="#000" stroke-miterlimit="10" stroke-width=".79299906" d="m92.074 79.344 2.172-3.602h-4.34ZM92.074 27.637l-2.168 3.601h4.34Zm0 0"/><path fill="#FFF" stroke="#000" stroke-miterlimit="10" stroke-width="1.18999608" d="M98.52 53.492a6.447 6.447 0 0 0-6.446-6.445 6.446 6.446 0 0 0-6.441 6.445 6.445 6.445 0 0 0 6.441 6.442 6.446 6.446 0 0 0 6.446-6.442Zm0 0"/><use xlink:href="#b" x="89.844" y="56.391"/><path fill="#FFF" stroke="#000" stroke-miterlimit="10" stroke-width="1.18999608" d="M151.848 80.137a6.478 6.478 0 1 0-12.957 0 6.48 6.48 0 1 0 12.957 0Zm0 0"/><use xlink:href="#c" x="143.136" y="83.09"/><use xlink:href="#d" x="217.632" y="169.196"/><use xlink:href="#e" x="3.1" y="9.701"/></svg>