<svg xmlns="http://www.w3.org/2000/svg" width="226.771" height="124.793"><defs><clipPath id="a"><path d="M.074 66H25v1H.074Zm0 0"/></clipPath><clipPath id="b"><path d="M85 101h49v23.586H85Zm0 0"/></clipPath><clipPath id="c"><path d="M92 121h5v3.586h-5Zm0 0"/></clipPath><clipPath id="d"><path d="M87 115h15v9.586H87Zm0 0"/></clipPath><clipPath id="e"><path d="M122 121h4v3.586h-4Zm0 0"/></clipPath><clipPath id="f"><path d="M117 115h15v9.586h-15Zm0 0"/></clipPath><clipPath id="g"><path d="M185 45h41.469v39H185Zm0 0"/></clipPath><clipPath id="h"><path d="M210 55h16.469v18H210Zm0 0"/></clipPath><clipPath id="i"><path d="M216 60h10.469v15H216Zm0 0"/></clipPath><clipPath id="j"><path d="M208 60h18.469v18H208Zm0 0"/></clipPath><clipPath id="k"><path d="M214 64h12.469v16H214Zm0 0"/></clipPath></defs><path fill="none" stroke="#000" stroke-miterlimit="10" stroke-width=".39833766000000004" d="M12.355 6.34v52.289m0 11.887v52.289h82.2m29.71 0h82.2V72.496m0-15.848V6.34h-81.207m-31.695 0H12.355M12.355 62.61v-3.981m0 7.906v3.98"/><g clip-path="url(#a)"><path fill="none" stroke="#000" stroke-miterlimit="10" stroke-width=".7956769800000001" d="M24.242 66.535H.472"/></g><path fill="none" stroke="#000" stroke-miterlimit="10" stroke-width="2.38703094" d="M18.3 62.61H6.415"/><g clip-path="url(#b)"><path fill="none" stroke="#000" stroke-linecap="round" stroke-miterlimit="10" stroke-width=".6339459000000001" d="m94.555 122.805 29.71-11.887"/></g><g clip-path="url(#c)"><path d="M96.137 122.805a1.584 1.584 0 1 0-3.168-.005 1.584 1.584 0 0 0 3.168.005m0 0"/></g><g clip-path="url(#d)"><path fill="none" stroke="#000" stroke-miterlimit="10" stroke-width=".39833766000000004" d="M96.137 122.805a1.584 1.584 0 1 0-3.168-.005 1.584 1.584 0 0 0 3.168.005Zm0 0"/></g><g clip-path="url(#e)"><path d="M125.852 122.805a1.584 1.584 0 1 0-3.168-.004 1.584 1.584 0 0 0 3.168.004m0 0"/></g><g clip-path="url(#f)"><path fill="none" stroke="#000" stroke-miterlimit="10" stroke-width=".39833766000000004" d="M125.852 122.805a1.584 1.584 0 1 0-3.168-.004 1.584 1.584 0 0 0 3.168.004Zm0 0"/></g><g clip-path="url(#g)"><path fill="none" stroke="#000" stroke-miterlimit="10" stroke-width=".7956769800000001" d="m206.465 72.496 9.902-15.848H196.56Zm0 0"/></g><path fill="none" stroke="#000" stroke-miterlimit="10" stroke-width=".39833766000000004" d="M206.465 72.496V56.648"/><path fill="none" stroke="#000" stroke-miterlimit="10" stroke-width=".7956769800000001" d="M196.559 72.496h19.808"/><g clip-path="url(#h)"><path fill="none" stroke="#000" stroke-miterlimit="10" stroke-width=".39833766000000004" d="m216.367 61.402 7.2 5.758"/></g><path d="m225.96 69.078-1.218-3.23-1.097 1.375-1.102 1.375Zm0 0"/><g clip-path="url(#i)"><path fill="none" stroke="#000" stroke-miterlimit="10" stroke-width=".39831372" d="m225.96 69.078-1.218-3.23-1.097 1.375-1.102 1.375Zm0 0"/></g><g clip-path="url(#j)"><path fill="none" stroke="#000" stroke-miterlimit="10" stroke-width=".39833766000000004" d="m214.387 66.156 7.199 5.758"/></g><path d="m223.98 73.832-1.218-3.23-1.098 1.375-1.101 1.375Zm0 0"/><g clip-path="url(#k)"><path fill="none" stroke="#000" stroke-miterlimit="10" stroke-width=".39831372" d="m223.98 73.832-1.218-3.23-1.098 1.375-1.102 1.375Zm0 0"/></g><path fill="none" stroke="#000" stroke-miterlimit="10" stroke-width=".7956769800000001" d="M93.563.398h31.695v11.887H93.563Zm0 0"/></svg>