<svg xmlns="http://www.w3.org/2000/svg" width="218.18" height="123.885"><defs><clipPath id="a"><path d="M93 .176h33V13H93Zm0 0"/></clipPath><clipPath id="b"><path d="M12 6h196v117.598H12Zm0 0"/></clipPath><clipPath id="c"><path d="M185 45h32.363v40H185Zm0 0"/></clipPath><clipPath id="d"><path d="M196 56h21.363v2H196Zm0 0"/></clipPath></defs><path fill="none" stroke="#000" stroke-miterlimit="10" stroke-width=".39750774000000005" d="M70.707 6.504h23.148m31.63 0h23.152"/><g clip-path="url(#a)"><path fill="none" stroke="#000" stroke-miterlimit="10" stroke-width=".79401922" d="M93.855.574h31.63v11.86h-31.63Zm0 0"/></g><g clip-path="url(#b)"><path fill="none" stroke="#000" stroke-miterlimit="10" stroke-width=".39750774000000005" d="M70.707 6.504h-58.45V59.02m0 11.863v52.515h194.829V72.86m0-15.816V6.503h-58.45"/></g><path fill="none" stroke="#000" stroke-miterlimit="10" stroke-width=".39750774000000005" d="M12.258 66.906v3.977m0-7.89V59.02"/><path fill="none" stroke="#000" stroke-miterlimit="10" stroke-width=".79401922" d="M24.117 62.992H.398"/><path fill="none" stroke="#000" stroke-miterlimit="10" stroke-width="2.38205766" d="M18.188 66.906H6.328"/><g clip-path="url(#c)"><path fill="none" stroke="#000" stroke-miterlimit="10" stroke-width=".79401922" d="m207.086 57.043-9.887 15.816h19.77Zm0 0"/></g><path fill="none" stroke="#000" stroke-miterlimit="10" stroke-width=".39750774000000005" d="M207.086 57.043v15.816"/><g clip-path="url(#d)"><path fill="none" stroke="#000" stroke-miterlimit="10" stroke-width=".79401922" d="M216.969 57.043h-19.77"/></g></svg>