<svg xmlns="http://www.w3.org/2000/svg" xmlns:xlink="http://www.w3.org/1999/xlink" width="168.952" height="103.995"><defs><path id="a" d="M2.25-.39q1.092 0 1.094-2.532-.002-2.514-1.094-2.515-1.111.001-1.11 2.515Q1.139-.39 2.25-.39m-.047.5Q1.325.11.828-.64.312-1.422.313-2.923c0-.976.187-1.734.562-2.265q.527-.75 1.406-.75.89 0 1.375.75.516.784.516 2.265 0 1.486-.563 2.281-.515.75-1.406.75m0 0"/><path id="b" d="M.89-.937a.53.53 0 0 1 .423.218q.17.204.171.578 0 .592-.375 1c-.218.22-.43.329-.625.329-.093 0-.164-.086-.203-.25q.574-.3.61-.891a.5.5 0 0 1-.344-.125.48.48 0 0 1-.14-.36q0-.217.14-.359a.47.47 0 0 1 .344-.14m0 0"/><path id="c" d="M1.39-3.172q1.531-.17 1.532-1.203c0-.719-.305-1.078-.906-1.078q-.425.002-.72.203-.11.362-.109.813a.7.7 0 0 1-.203.03c-.293 0-.437-.116-.437-.359q-.001-.527.437-.843.45-.329 1.188-.328.714 0 1.125.375.422.375.422 1.03 0 .63-.422 1.016-.299.284-.906.485V-3q.715.094 1.109.469.389.361.39.922 0 .737-.546 1.234-.549.485-1.438.484C1.414.11 1.051.012.813-.17A.61.61 0 0 1 .53-.688c0-.258.133-.442.407-.547q.14.363.28.515.313.328.829.328c.676 0 1.015-.351 1.015-1.062 0-.75-.558-1.164-1.671-1.25Zm0 0"/><path id="d" d="m4.5-.484-.578-1.641H1.688l-.594 1.64.687.11q.124.034.125.11-.002.064-.11.265H-.077a.2.2 0 0 1-.016-.078Q-.096-.342.22-.406l.25-.063L2.64-6.187l.562-.079L5.36-.469l.407.094q.124.048.125.11c0 .03-.04.12-.11.265H3.86v-.078q0-.246.297-.328Zm-2.64-2.11h1.89l-.922-2.64h-.015Zm0 0"/><path id="f" d="M2.031-.578v-4.438l-1.344.25a1 1 0 0 1-.015-.187c0-.133.07-.227.219-.281l1.484-.594h.438v5.25l1.093.172q.14.016.14.11-.001.08-.109.296H.876a.16.16 0 0 1-.016-.078q0-.311.282-.36Zm0 0"/><path id="g" d="m.422-.453 1.516-1.734q.89-1.014.89-2.016c0-.832-.305-1.25-.906-1.25q-.362 0-.719.172-.094.363-.125.89a1 1 0 0 1-.203.016c-.281 0-.422-.117-.422-.36q0-.546.422-.874.42-.329 1.156-.328.732 0 1.188.421.451.409.453 1.157 0 .69-.422 1.359-.268.439-.906 1.14L1.359-.796v.016h2.032l.187-.781a.5.5 0 0 1 .188-.032q.217.002.218.344c0 .242-.027.656-.078 1.25H.5Zm0 0"/><path id="h" d="M5.86-6.187v.078c0 .168-.102.277-.298.328l-.234.047L3.297 0h-.735L.454-5.719l-.375-.11c-.082-.007-.125-.046-.125-.109 0-.05.035-.132.094-.25h2v.079c0 .168-.102.273-.297.312l-.375.078 1.64 4.813h.032L4.75-5.734l-.703-.11q-.127-.012-.125-.093-.001-.075.11-.25Zm0 0"/><clipPath id="e"><path d="M12 13h151v90.977H12Zm0 0"/></clipPath><clipPath id="i"><path d="M156 42h12.902v33H156Zm0 0"/></clipPath></defs><path fill="none" stroke="#000" stroke-miterlimit="10" stroke-width=".39888828000000004" d="M57.379 13.625h30.05m0 0h30.051"/><path stroke="#000" stroke-miterlimit="10" stroke-width=".39888828000000004" d="M85.691 13.625v1.984l4.215-1.984-4.215-1.98Zm0 0"/><use xlink:href="#a" x="78.349" y="9.257"/><use xlink:href="#b" x="82.831" y="9.257"/><use xlink:href="#c" x="84.686" y="9.257"/><use xlink:href="#d" x="90.656" y="9.257"/><g clip-path="url(#e)"><path fill="none" stroke="#000" stroke-miterlimit="10" stroke-width=".39888828000000004" d="M57.379 13.625H12.3V52.75m0 11.902v39.13h150.254V74.573m0-31.742V13.625H117.48"/></g><path fill="none" stroke="#000" stroke-miterlimit="10" stroke-width=".39888828000000004" d="M12.3 60.668v3.984m0-7.914V52.75"/><path fill="none" stroke="#000" stroke-miterlimit="10" stroke-width=".79677684" d="M24.203 56.738H.398"/><path fill="none" stroke="#000" stroke-miterlimit="10" stroke-width="2.39033052" d="M18.25 60.668H6.348"/><use xlink:href="#f" x="27.006" y="60.854"/><use xlink:href="#g" x="31.488" y="60.854"/><use xlink:href="#h" x="37.458" y="60.854"/><g clip-path="url(#i)"><path fill="none" stroke="#000" stroke-miterlimit="10" stroke-width=".79677684" d="M168.508 42.832v31.742h-11.903V42.832Zm0 0"/></g></svg>