<svg xmlns="http://www.w3.org/2000/svg" width="224.768" height="24.608"><defs><clipPath id="a"><path d="M1.648 10H5v4H1.648Zm0 0"/></clipPath><clipPath id="b"><path d="M1.648 5H11v15H1.648Zm0 0"/></clipPath><clipPath id="c"><path d="M44 0h2v24.223h-2Zm0 0"/></clipPath><clipPath id="d"><path d="M175 0h2v24.223h-2Zm0 0"/></clipPath><clipPath id="e"><path d="M219 10h3.89v4H219Zm0 0"/></clipPath><clipPath id="f"><path d="M214 5h8.89v15H214Zm0 0"/></clipPath></defs><path fill="none" stroke="#000" stroke-miterlimit="10" stroke-width=".39274368" d="M3.406 12.11h37.688m11.719 0h59.457m0 0h59.46m11.72 0h37.687"/><g clip-path="url(#a)"><path fill="#FFF" d="M4.969 12.11a1.562 1.562 0 1 0-3.124-.001 1.562 1.562 0 0 0 3.124 0m0 0"/></g><g clip-path="url(#b)"><path fill="none" stroke="#000" stroke-miterlimit="10" stroke-width=".39274368" d="M4.969 12.11a1.562 1.562 0 1 0-3.124-.001 1.562 1.562 0 0 0 3.124 0Zm0 0"/></g><path fill="none" stroke="#000" stroke-miterlimit="10" stroke-width=".39274368" d="M48.887 12.11h3.926m-7.793 0h-3.926"/><g clip-path="url(#c)"><path fill="none" stroke="#000" stroke-miterlimit="10" stroke-width=".78450304" d="M45.02.39v23.438"/></g><path fill="none" stroke="#000" stroke-miterlimit="10" stroke-width="2.35350912" d="M48.887 6.25v11.719"/><path fill="#FFF" stroke="#000" stroke-miterlimit="10" stroke-width=".39274368" d="M92.059 12.11a1.562 1.562 0 1 0-3.125-.001 1.562 1.562 0 0 0 3.125 0ZM135.605 12.11a1.562 1.562 0 1 0-3.124-.001 1.562 1.562 0 0 0 3.124 0Zm0 0"/><path stroke="#000" stroke-miterlimit="10" stroke-width=".39274368" d="M110.563 12.11v1.953l4.148-1.954-4.148-1.953Zm0 0"/><path fill="none" stroke="#000" stroke-miterlimit="10" stroke-width=".39274368" d="M179.523 12.11h3.926m-7.793 0h-3.926"/><g clip-path="url(#d)"><path fill="none" stroke="#000" stroke-miterlimit="10" stroke-width=".78450304" d="M175.656.39v23.438"/></g><path fill="none" stroke="#000" stroke-miterlimit="10" stroke-width="2.35350912" d="M179.523 6.25v11.719"/><g clip-path="url(#e)"><path fill="#FFF" d="M222.7 12.11a1.562 1.562 0 1 0-3.125-.001 1.562 1.562 0 0 0 3.124 0m0 0"/></g><g clip-path="url(#f)"><path fill="none" stroke="#000" stroke-miterlimit="10" stroke-width=".39274368" d="M222.7 12.11a1.562 1.562 0 1 0-3.125-.001 1.562 1.562 0 0 0 3.124 0Zm0 0"/></g></svg>