<svg xmlns="http://www.w3.org/2000/svg" xmlns:xlink="http://www.w3.org/1999/xlink" width="115.273" height="53.813"><defs><clipPath id="a"><path d="M0 .074h4V4H0Zm0 0"/></clipPath><clipPath id="b"><path d="M0 .074h10V10H0Zm0 0"/></clipPath><clipPath id="c"><path d="M65 .074h34V48H65Zm0 0"/></clipPath><clipPath id="d"><path d="M49 .074h33V48H49Zm0 0"/></clipPath><path id="e" d="M1.578 1.563c-.094.14-.281.265-.406.265S1 1.766.953 1.672C.875 1.562.703 1.39.5 1.39a.307.307 0 0 0-.328.312c0 .203.219.422.828.422.36 0 .75-.187 1.031-.562.25-.344.438-1.032.797-2.72.14-.702.281-1.421.406-2.171l.032-.14h.828c.078 0 .218-.048.234-.11 0 0 .047-.188.047-.203s-.016-.047-.062-.047h-.985l.094-.5c.14-.672.265-1.063.39-1.313.141-.25.25-.312.36-.312.125 0 .14.078.187.25.032.187.11.406.391.406.25 0 .313-.203.313-.281 0-.328-.282-.64-.829-.64a.95.95 0 0 0-.593.25c-.297.218-.672.562-1 2.14l-.594.031c-.156.016-.235.078-.25.156 0 .032-.031.125-.031.157 0 .015.015.015.046.015h.75c-.218 1.016-.25 1.547-.374 2.219-.141.844-.282 2.297-.61 2.813m0 0"/><path id="f" d="M2.5-.875v-2.719c0-.453.063-.719.328-.719h.156c.532 0 .86.188.985.735a.6.6 0 0 0 .234-.047 7 7 0 0 1-.078-1 .034.034 0 0 0-.031-.031c-.235.031-1.032.062-1.594.062h-.61c-.546 0-1.39-.031-1.656-.062a.034.034 0 0 0-.03.031c-.032.313-.11.688-.188 1.031a.7.7 0 0 0 .25.031c.14-.562.468-.75.937-.75h.344c.266 0 .344.266.344.704v2.734c0 .594-.125.625-.688.656-.047.047-.047.188 0 .235C1.547 0 1.906 0 2.187 0s.641 0 1 .016c.047-.047.047-.188 0-.235C2.61-.25 2.5-.28 2.5-.875m0 0"/></defs><path fill="none" stroke="#000" stroke-miterlimit="10" stroke-width=".39649827000000004" d="M2.05 36.16h99.079"/><path stroke="#000" stroke-miterlimit="10" stroke-width=".39649827000000004" d="m104.184 36.16-2.957-1.754v3.504Zm0 0"/><path fill="none" stroke="#000" stroke-miterlimit="10" stroke-width=".39649827000000004" d="M2.05 36.16V3.723"/><g clip-path="url(#a)"><path d="M2.05.668.298 3.625H3.8Zm0 0"/></g><g clip-path="url(#b)"><path fill="none" stroke="#000" stroke-miterlimit="10" stroke-width=".39649827000000004" d="M2.05.668.298 3.625H3.8Zm0 0"/></g><g clip-path="url(#c)"><path fill="none" stroke="#000" stroke-miterlimit="10" stroke-width=".7920028100000001" d="M76.898 36.16V10.527l10.25 10.254v15.38"/></g><g clip-path="url(#d)"><path fill="none" stroke="#000" stroke-miterlimit="10" stroke-width=".7920028100000001" d="M70.746 36.16V10.527L60.492 20.781v15.38"/></g><use xlink:href="#e" x="107.83" y="38.208"/><use xlink:href="#e" x="69.625" y="48.462"/><use xlink:href="#f" x="73.376" y="50.332"/></svg>