<svg xmlns="http://www.w3.org/2000/svg" xmlns:xlink="http://www.w3.org/1999/xlink" width="113.386" height="24.608"><defs><path id="a" d="M2-.562v-4.375l-1.312.25a.6.6 0 0 1-.032-.188c0-.133.07-.227.219-.281l1.453-.578h.438v5.172l1.078.171q.14.018.14.094c0 .055-.039.152-.109.297H.859a.16.16 0 0 1-.015-.078q0-.311.281-.36Zm0 0"/><path id="c" d="m.422-.453 1.484-1.703q.874-.996.875-1.969 0-1.249-.89-1.25-.364 0-.703.188a3.1 3.1 0 0 0-.125.875 1 1 0 0 1-.204.015c-.28 0-.421-.117-.421-.36 0-.35.14-.64.421-.859Q1.28-5.844 2-5.844q.716.001 1.156.407.452.409.453 1.14 0 .676-.406 1.344-.268.44-.906 1.11L1.328-.782v.015h2.016l.172-.765a.35.35 0 0 1 .187-.047q.218.002.219.344 0 .344-.078 1.234H.5Zm0 0"/><clipPath id="b"><path d="M54 0h1v24.223h-1Zm0 0"/></clipPath></defs><path fill="none" stroke="#000" stroke-miterlimit="10" stroke-width=".39274368" d="M11.078 12.11h39.453m11.719 0h39.453"/><use xlink:href="#a" x="3.528" y="14.979"/><path fill="none" stroke="#000" stroke-miterlimit="10" stroke-width=".39274368" d="M58.324 12.11h3.926m-7.793 0h-3.926"/><g clip-path="url(#b)"><path fill="none" stroke="#000" stroke-miterlimit="10" stroke-width=".78450304" d="M54.457.39v23.442"/></g><path fill="none" stroke="#000" stroke-miterlimit="10" stroke-width="2.35350912" d="M58.324 6.25v11.719"/><use xlink:href="#c" x="104.84" y="15.033"/></svg>