<svg xmlns="http://www.w3.org/2000/svg" width="113.475" height="139.743"><defs><clipPath id="a"><path d="M45 125h23v14.293H45Zm0 0"/></clipPath><clipPath id="b"><path d="M56 133h1v6.293h-1Zm0 0"/></clipPath><clipPath id="c"><path d="M43 34h69.953v60H43Zm0 0"/></clipPath><clipPath id="d"><path d="M43 64h69.953v60H43Zm0 0"/></clipPath><clipPath id="e"><path d="M55 .195h3V80h-3Zm0 0"/></clipPath></defs><path fill="none" stroke="#000" stroke-miterlimit="10" stroke-width=".3971646" d="M61.695 79.074c0-1.441-2.336-2.61-5.218-2.61s-5.22 1.169-5.22 2.61c0 1.442 2.337 2.61 5.22 2.61s5.218-1.168 5.218-2.61M61.695 79.074v52.192M51.258 79.074v52.192"/><g clip-path="url(#a)"><path fill="none" stroke="#000" stroke-miterlimit="10" stroke-width=".3971646" d="M61.695 131.266c0 1.441-2.336 2.609-5.218 2.609s-5.22-1.168-5.22-2.61"/></g><g clip-path="url(#b)"><path fill="none" stroke="#000" stroke-miterlimit="10" stroke-width=".3971646" d="M56.477 133.875v5.219"/></g><path fill="none" stroke="#000" stroke-dasharray="2.975081382 2.975081382" stroke-miterlimit="10" stroke-width=".3971646" d="M56.477 133.875V81.684"/><g clip-path="url(#c)"><path fill="none" stroke="#000" stroke-linecap="round" stroke-miterlimit="10" stroke-width="1.1904983999999998" d="m60.61 77.008 51.75-25.875"/></g><path stroke="#000" stroke-linecap="round" stroke-miterlimit="10" stroke-width=".99133872" d="M59.723 77.453a.5.5 0 0 0 .668.219.493.493 0 0 0 .218-.664.494.494 0 0 0-.664-.223.5.5 0 0 0-.222.668Zm0 0"/><path fill="none" stroke="#000" stroke-linecap="round" stroke-miterlimit="10" stroke-width="1.1904983999999998" d="M52.344 77.008.594 51.133"/><path stroke="#000" stroke-linecap="round" stroke-miterlimit="10" stroke-width=".99133872" d="M53.23 77.453a.5.5 0 0 0-.222-.668.494.494 0 0 0-.664.223.49.49 0 0 0 .222.664c.243.125.54.023.664-.219Zm0 0"/><g clip-path="url(#d)"><path fill="none" stroke="#000" stroke-linecap="round" stroke-miterlimit="10" stroke-width="1.1904983999999998" d="m60.61 81.14 51.75 25.876"/></g><path stroke="#000" stroke-linecap="round" stroke-miterlimit="10" stroke-width=".99133872" d="M59.723 80.7a.495.495 0 1 0 .887.44.495.495 0 0 0-.887-.44Zm0 0"/><path fill="none" stroke="#000" stroke-linecap="round" stroke-miterlimit="10" stroke-width="1.1904983999999998" d="M52.344 81.14.594 107.017"/><path stroke="#000" stroke-linecap="round" stroke-miterlimit="10" stroke-width=".99133872" d="M53.23 80.7a.497.497 0 0 0-.664-.223.494.494 0 1 0 .664.223Zm0 0"/><g clip-path="url(#e)"><path fill="none" stroke="#000" stroke-miterlimit="10" stroke-width="1.1904983999999998" d="M56.477 79.074V.79"/></g></svg>